<?xml version="1.0" encoding="UTF-8" standalone="no"?>
<!DOCTYPE svg PUBLIC "-//W3C//DTD SVG 1.1//EN"
 "http://www.w3.org/Graphics/SVG/1.1/DTD/svg11.dtd">
<!-- Generated by graphviz version 2.38.0 (20140413.2041)
 -->
<!-- Title: arduino_lib.cpp Pages: 1 -->
<!--zoomable 375 -->
<svg id="main" version="1.1" xmlns="http://www.w3.org/2000/svg" xmlns:xlink="http://www.w3.org/1999/xlink" xml:space="preserve" onload="init(evt)">
<style type="text/css"><![CDATA[
.edge:hover path { stroke: red; }
.edge:hover polygon { stroke: red; fill: red; }
]]></style>
<script type="text/javascript"><![CDATA[
var edges = document.getElementsByTagName('g');
if (edges && edges.length) {
  for (var i=0;i<edges.length;i++) {
    if (edges[i].id.substr(0,4)=='edge') {
      edges[i].setAttribute('class','edge');
    }
  }
}
]]></script>
        <defs>
                <circle id="rim" cx="0" cy="0" r="7"/>
                <circle id="rim2" cx="0" cy="0" r="3.5"/>
                <g id="zoomPlus">
                        <use xlink:href="#rim" fill="#404040">
                                <set attributeName="fill" to="#808080" begin="zoomplus.mouseover" end="zoomplus.mouseout"/>
                        </use>
                        <path d="M-4,0h8M0,-4v8" fill="none" stroke="white" stroke-width="1.5" pointer-events="none"/>
                </g>
                <g id="zoomMin">
                        <use xlink:href="#rim" fill="#404040">
                                <set attributeName="fill" to="#808080" begin="zoomminus.mouseover" end="zoomminus.mouseout"/>
                        </use>
                        <path d="M-4,0h8" fill="none" stroke="white" stroke-width="1.5" pointer-events="none"/>
                </g>
                <g id="dirArrow">
                        <path fill="none" stroke="white" stroke-width="1.5" d="M0,-3.0v7 M-2.5,-0.5L0,-3.0L2.5,-0.5"/>
                </g>
               <g id="resetDef">
                       <use xlink:href="#rim2" fill="#404040">
                               <set attributeName="fill" to="#808080" begin="reset.mouseover" end="reset.mouseout"/>
                       </use>
               </g>
        </defs>

<script type="text/javascript">
var viewWidth = 1763;
var viewHeight = 375;
var sectionId = 'dynsection-0';
</script>
<script xlink:href="svgpan.js"/>
<svg id="graph" class="graph">
<g id="viewport">
<title>arduino_lib.cpp</title>
<polygon fill="white" stroke="none" points="-4,4 -4,-371 1759,-371 1759,4 -4,4"/>
<!-- Node1 -->
<g id="node1" class="node"><title>Node1</title>
<polygon fill="#bfbfbf" stroke="black" points="1269,-347.5 1269,-366.5 1351,-366.5 1351,-347.5 1269,-347.5"/>
<text text-anchor="middle" x="1310" y="-354.5" font-family="Helvetica,sans-Serif" font-size="10.00">arduino_lib.cpp</text>
</g>
<!-- Node2 -->
<g id="node2" class="node"><title>Node2</title>
<g id="a_node2"><a xlink:href="config_cosmos_8h.html" target="_top" xlink:title="Headers and definitions common to all COSMOS. ">
<polygon fill="white" stroke="black" points="939.5,-112.5 939.5,-131.5 1062.5,-131.5 1062.5,-112.5 939.5,-112.5"/>
<text text-anchor="middle" x="1001" y="-119.5" font-family="Helvetica,sans-Serif" font-size="10.00">support/configCosmos.h</text>
</a>
</g>
</g>
<!-- Node1&#45;&gt;Node2 -->
<g id="edge1" class="edge"><title>Node1&#45;&gt;Node2</title>
<path fill="none" stroke="midnightblue" d="M1268.94,-352.226C1212.24,-346.278 1113.81,-333.071 1086,-311 1031.08,-267.408 1010.45,-180.56 1003.78,-142.095"/>
<polygon fill="midnightblue" stroke="midnightblue" points="1007.17,-141.134 1002.14,-131.812 1000.26,-142.239 1007.17,-141.134"/>
</g>
<!-- Node11 -->
<g id="node11" class="node"><title>Node11</title>
<polygon fill="white" stroke="#bfbfbf" points="1647,-56.5 1647,-75.5 1693,-75.5 1693,-56.5 1647,-56.5"/>
<text text-anchor="middle" x="1670" y="-63.5" font-family="Helvetica,sans-Serif" font-size="10.00">cstring</text>
</g>
<!-- Node1&#45;&gt;Node11 -->
<g id="edge58" class="edge"><title>Node1&#45;&gt;Node11</title>
<path fill="none" stroke="midnightblue" d="M1310,-347.491C1310,-327.736 1310,-277.224 1310,-235 1310,-235 1310,-235 1310,-177 1310,-146.205 1309.81,-131.063 1334,-112 1385.13,-71.6996 1555.72,-87.6993 1636.38,-75.7926"/>
<polygon fill="midnightblue" stroke="midnightblue" points="1637.43,-79.1641 1646.68,-74.0124 1636.23,-72.2663 1637.43,-79.1641"/>
</g>
<!-- Node19 -->
<g id="node19" class="node"><title>Node19</title>
<polygon fill="white" stroke="#bfbfbf" points="1711,-56.5 1711,-75.5 1755,-75.5 1755,-56.5 1711,-56.5"/>
<text text-anchor="middle" x="1733" y="-63.5" font-family="Helvetica,sans-Serif" font-size="10.00">fcntl.h</text>
</g>
<!-- Node1&#45;&gt;Node19 -->
<g id="edge56" class="edge"><title>Node1&#45;&gt;Node19</title>
<path fill="none" stroke="midnightblue" d="M1314.66,-347.485C1324.81,-328.119 1348,-279.037 1348,-235 1348,-235 1348,-235 1348,-177 1348,-16.5838 1537.16,-117.143 1701.22,-76.0328"/>
<polygon fill="midnightblue" stroke="midnightblue" points="1702.24,-79.3816 1710.99,-73.4041 1700.42,-72.6218 1702.24,-79.3816"/>
</g>
<!-- Node35 -->
<g id="node35" class="node"><title>Node35</title>
<g id="a_node35"><a xlink:href="arduino__lib_8h.html" target="_top" xlink:title="device/arduino/arduino\l_lib.h">
<polygon fill="white" stroke="black" points="1376,-280.5 1376,-310.5 1490,-310.5 1490,-280.5 1376,-280.5"/>
<text text-anchor="start" x="1384" y="-298.5" font-family="Helvetica,sans-Serif" font-size="10.00">device/arduino/arduino</text>
<text text-anchor="middle" x="1433" y="-287.5" font-family="Helvetica,sans-Serif" font-size="10.00">_lib.h</text>
</a>
</g>
</g>
<!-- Node1&#45;&gt;Node35 -->
<g id="edge43" class="edge"><title>Node1&#45;&gt;Node35</title>
<path fill="none" stroke="midnightblue" d="M1327.62,-347.475C1345.06,-339.04 1372.32,-325.855 1394.74,-315.008"/>
<polygon fill="midnightblue" stroke="midnightblue" points="1396.53,-318.028 1404.01,-310.523 1393.49,-311.727 1396.53,-318.028"/>
</g>
<!-- Node38 -->
<g id="node38" class="node"><title>Node38</title>
<g id="a_node38"><a xlink:href="cssl__lib_8h.html" target="_top" xlink:title="Simple Serial library header file. ">
<polygon fill="white" stroke="black" points="1095.5,-280.5 1095.5,-310.5 1196.5,-310.5 1196.5,-280.5 1095.5,-280.5"/>
<text text-anchor="start" x="1103.5" y="-298.5" font-family="Helvetica,sans-Serif" font-size="10.00">device/general/cssl</text>
<text text-anchor="middle" x="1146" y="-287.5" font-family="Helvetica,sans-Serif" font-size="10.00">_lib.h</text>
</a>
</g>
</g>
<!-- Node1&#45;&gt;Node38 -->
<g id="edge47" class="edge"><title>Node1&#45;&gt;Node38</title>
<path fill="none" stroke="midnightblue" d="M1286.5,-347.475C1262.53,-338.776 1224.63,-325.026 1194.23,-313.998"/>
<polygon fill="midnightblue" stroke="midnightblue" points="1195.25,-310.643 1184.65,-310.523 1192.86,-317.224 1195.25,-310.643"/>
</g>
<!-- Node41 -->
<g id="node41" class="node"><title>Node41</title>
<polygon fill="white" stroke="#bfbfbf" points="1159.5,-112.5 1159.5,-131.5 1206.5,-131.5 1206.5,-112.5 1159.5,-112.5"/>
<text text-anchor="middle" x="1183" y="-119.5" font-family="Helvetica,sans-Serif" font-size="10.00">errno.h</text>
</g>
<!-- Node1&#45;&gt;Node41 -->
<g id="edge57" class="edge"><title>Node1&#45;&gt;Node41</title>
<path fill="none" stroke="midnightblue" d="M1305.99,-347.162C1293.51,-319.868 1253.79,-234.731 1214,-168 1208.29,-158.426 1201.29,-148.16 1195.39,-139.855"/>
<polygon fill="midnightblue" stroke="midnightblue" points="1198.22,-137.797 1189.53,-131.738 1192.55,-141.895 1198.22,-137.797"/>
</g>
<!-- Node42 -->
<g id="node42" class="node"><title>Node42</title>
<polygon fill="white" stroke="#bfbfbf" points="1508,-286 1508,-305 1554,-305 1554,-286 1508,-286"/>
<text text-anchor="middle" x="1531" y="-293" font-family="Helvetica,sans-Serif" font-size="10.00">stdio.h</text>
</g>
<!-- Node1&#45;&gt;Node42 -->
<g id="edge55" class="edge"><title>Node1&#45;&gt;Node42</title>
<path fill="none" stroke="midnightblue" d="M1351.2,-348.561C1389.92,-341.015 1449.21,-328.031 1499,-311 1500.67,-310.43 1502.36,-309.804 1504.06,-309.142"/>
<polygon fill="midnightblue" stroke="midnightblue" points="1505.79,-312.212 1513.64,-305.095 1503.07,-305.764 1505.79,-312.212"/>
</g>
<!-- Node3 -->
<g id="node3" class="node"><title>Node3</title>
<polygon fill="white" stroke="#bfbfbf" points="1454.5,-56.5 1454.5,-75.5 1499.5,-75.5 1499.5,-56.5 1454.5,-56.5"/>
<text text-anchor="middle" x="1477" y="-63.5" font-family="Helvetica,sans-Serif" font-size="10.00">climits</text>
</g>
<!-- Node2&#45;&gt;Node3 -->
<g id="edge2" class="edge"><title>Node2&#45;&gt;Node3</title>
<path fill="none" stroke="midnightblue" d="M1062.78,-116.071C1162.92,-107.865 1357.39,-90.9865 1444.33,-75.7334"/>
<polygon fill="midnightblue" stroke="midnightblue" points="1445.19,-79.1348 1454.39,-73.882 1443.92,-72.2505 1445.19,-79.1348"/>
</g>
<!-- Node4 -->
<g id="node4" class="node"><title>Node4</title>
<polygon fill="white" stroke="#bfbfbf" points="1517.5,-56.5 1517.5,-75.5 1564.5,-75.5 1564.5,-56.5 1517.5,-56.5"/>
<text text-anchor="middle" x="1541" y="-63.5" font-family="Helvetica,sans-Serif" font-size="10.00">csignal</text>
</g>
<!-- Node2&#45;&gt;Node4 -->
<g id="edge3" class="edge"><title>Node2&#45;&gt;Node4</title>
<path fill="none" stroke="midnightblue" d="M1062.75,-116.899C1174.56,-109.254 1407.43,-92.2618 1507.24,-75.7496"/>
<polygon fill="midnightblue" stroke="midnightblue" points="1508.07,-79.1578 1517.32,-73.9988 1506.87,-72.2609 1508.07,-79.1578"/>
</g>
<!-- Node5 -->
<g id="node5" class="node"><title>Node5</title>
<polygon fill="white" stroke="#bfbfbf" points="1583,-56.5 1583,-75.5 1629,-75.5 1629,-56.5 1583,-56.5"/>
<text text-anchor="middle" x="1606" y="-63.5" font-family="Helvetica,sans-Serif" font-size="10.00">cstdint</text>
</g>
<!-- Node2&#45;&gt;Node5 -->
<g id="edge4" class="edge"><title>Node2&#45;&gt;Node5</title>
<path fill="none" stroke="midnightblue" d="M1062.55,-116.815C1193.55,-107.816 1493.81,-86.6832 1572.7,-75.5133"/>
<polygon fill="midnightblue" stroke="midnightblue" points="1573.35,-78.9535 1582.69,-73.9402 1572.26,-72.0388 1573.35,-78.9535"/>
</g>
<!-- Node6 -->
<g id="node6" class="node"><title>Node6</title>
<polygon fill="white" stroke="#bfbfbf" points="0,-56.5 0,-75.5 56,-75.5 56,-56.5 0,-56.5"/>
<text text-anchor="middle" x="28" y="-63.5" font-family="Helvetica,sans-Serif" font-size="10.00">cinttypes</text>
</g>
<!-- Node2&#45;&gt;Node6 -->
<g id="edge5" class="edge"><title>Node2&#45;&gt;Node6</title>
<path fill="none" stroke="midnightblue" d="M939.189,-119.566C761.974,-115.217 253.4,-100.998 66.1772,-75.8388"/>
<polygon fill="midnightblue" stroke="midnightblue" points="66.5621,-72.3587 56.1735,-74.439 65.592,-79.2911 66.5621,-72.3587"/>
</g>
<!-- Node7 -->
<g id="node7" class="node"><title>Node7</title>
<polygon fill="white" stroke="#bfbfbf" points="74.5,-56.5 74.5,-75.5 117.5,-75.5 117.5,-56.5 74.5,-56.5"/>
<text text-anchor="middle" x="96" y="-63.5" font-family="Helvetica,sans-Serif" font-size="10.00">cstdio</text>
</g>
<!-- Node2&#45;&gt;Node7 -->
<g id="edge6" class="edge"><title>Node2&#45;&gt;Node7</title>
<path fill="none" stroke="midnightblue" d="M939.497,-119.755C770.658,-116.039 301.529,-103.629 127.834,-75.8798"/>
<polygon fill="midnightblue" stroke="midnightblue" points="128.25,-72.401 117.81,-74.2032 127.095,-79.3051 128.25,-72.401"/>
</g>
<!-- Node8 -->
<g id="node8" class="node"><title>Node8</title>
<polygon fill="white" stroke="#bfbfbf" points="135.5,-56.5 135.5,-75.5 184.5,-75.5 184.5,-56.5 135.5,-56.5"/>
<text text-anchor="middle" x="160" y="-63.5" font-family="Helvetica,sans-Serif" font-size="10.00">cstddef</text>
</g>
<!-- Node2&#45;&gt;Node8 -->
<g id="edge7" class="edge"><title>Node2&#45;&gt;Node8</title>
<path fill="none" stroke="midnightblue" d="M939.301,-119.246C779.739,-114.448 355.299,-99.9439 194.92,-75.9436"/>
<polygon fill="midnightblue" stroke="midnightblue" points="195.164,-72.4393 184.743,-74.349 194.081,-79.3549 195.164,-72.4393"/>
</g>
<!-- Node9 -->
<g id="node9" class="node"><title>Node9</title>
<polygon fill="white" stroke="#bfbfbf" points="202.5,-56.5 202.5,-75.5 247.5,-75.5 247.5,-56.5 202.5,-56.5"/>
<text text-anchor="middle" x="225" y="-63.5" font-family="Helvetica,sans-Serif" font-size="10.00">cstdlib</text>
</g>
<!-- Node2&#45;&gt;Node9 -->
<g id="edge8" class="edge"><title>Node2&#45;&gt;Node9</title>
<path fill="none" stroke="midnightblue" d="M939.254,-121.701C812.749,-122.178 515.091,-118.384 257.506,-75.6656"/>
<polygon fill="midnightblue" stroke="midnightblue" points="258.031,-72.2049 247.589,-73.9983 256.871,-79.1081 258.031,-72.2049"/>
</g>
<!-- Node10 -->
<g id="node10" class="node"><title>Node10</title>
<polygon fill="white" stroke="#bfbfbf" points="266,-56.5 266,-75.5 310,-75.5 310,-56.5 266,-56.5"/>
<text text-anchor="middle" x="288" y="-63.5" font-family="Helvetica,sans-Serif" font-size="10.00">cerrno</text>
</g>
<!-- Node2&#45;&gt;Node10 -->
<g id="edge9" class="edge"><title>Node2&#45;&gt;Node10</title>
<path fill="none" stroke="midnightblue" d="M939.333,-121.38C820.762,-121.147 552.859,-115.951 320.217,-75.8253"/>
<polygon fill="midnightblue" stroke="midnightblue" points="320.669,-72.3511 310.215,-74.0745 319.462,-79.2463 320.669,-72.3511"/>
</g>
<!-- Node2&#45;&gt;Node11 -->
<g id="edge10" class="edge"><title>Node2&#45;&gt;Node11</title>
<path fill="none" stroke="midnightblue" d="M1062.59,-116.989C1207.89,-107.484 1564.72,-83.8746 1636.7,-75.5187"/>
<polygon fill="midnightblue" stroke="midnightblue" points="1637.28,-78.9721 1646.71,-74.1428 1636.32,-72.0373 1637.28,-78.9721"/>
</g>
<!-- Node12 -->
<g id="node12" class="node"><title>Node12</title>
<polygon fill="white" stroke="#bfbfbf" points="328,-56.5 328,-75.5 372,-75.5 372,-56.5 328,-56.5"/>
<text text-anchor="middle" x="350" y="-63.5" font-family="Helvetica,sans-Serif" font-size="10.00">cmath</text>
</g>
<!-- Node2&#45;&gt;Node12 -->
<g id="edge11" class="edge"><title>Node2&#45;&gt;Node12</title>
<path fill="none" stroke="midnightblue" d="M939.307,-120.794C828.984,-119.497 590.693,-112.479 382.127,-75.8245"/>
<polygon fill="midnightblue" stroke="midnightblue" points="382.677,-72.3676 372.218,-74.0566 381.448,-79.2587 382.677,-72.3676"/>
</g>
<!-- Node13 -->
<g id="node13" class="node"><title>Node13</title>
<polygon fill="white" stroke="#bfbfbf" points="390.5,-56.5 390.5,-75.5 435.5,-75.5 435.5,-56.5 390.5,-56.5"/>
<text text-anchor="middle" x="413" y="-63.5" font-family="Helvetica,sans-Serif" font-size="10.00">iosfwd</text>
</g>
<!-- Node2&#45;&gt;Node13 -->
<g id="edge12" class="edge"><title>Node2&#45;&gt;Node13</title>
<path fill="none" stroke="midnightblue" d="M939.206,-119.89C837.856,-117.218 630.01,-108.167 445.482,-75.7051"/>
<polygon fill="midnightblue" stroke="midnightblue" points="446.059,-72.2529 435.6,-73.94 444.828,-79.1439 446.059,-72.2529"/>
</g>
<!-- Node14 -->
<g id="node14" class="node"><title>Node14</title>
<polygon fill="white" stroke="#bfbfbf" points="454,-56.5 454,-75.5 508,-75.5 508,-56.5 454,-56.5"/>
<text text-anchor="middle" x="481" y="-63.5" font-family="Helvetica,sans-Serif" font-size="10.00">iostream</text>
</g>
<!-- Node2&#45;&gt;Node14 -->
<g id="edge13" class="edge"><title>Node2&#45;&gt;Node14</title>
<path fill="none" stroke="midnightblue" d="M939.487,-118.285C849.159,-113.637 675.251,-102.174 518.343,-75.9745"/>
<polygon fill="midnightblue" stroke="midnightblue" points="518.477,-72.4475 508.033,-74.2274 517.308,-79.3491 518.477,-72.4475"/>
</g>
<!-- Node15 -->
<g id="node15" class="node"><title>Node15</title>
<polygon fill="white" stroke="#bfbfbf" points="526,-56.5 526,-75.5 578,-75.5 578,-56.5 526,-56.5"/>
<text text-anchor="middle" x="552" y="-63.5" font-family="Helvetica,sans-Serif" font-size="10.00">sstream</text>
</g>
<!-- Node2&#45;&gt;Node15 -->
<g id="edge14" class="edge"><title>Node2&#45;&gt;Node15</title>
<path fill="none" stroke="midnightblue" d="M939.228,-117.063C860.031,-111.399 718.369,-99.1922 588.415,-76.0229"/>
<polygon fill="midnightblue" stroke="midnightblue" points="588.747,-72.5262 578.284,-74.1897 587.501,-79.4144 588.747,-72.5262"/>
</g>
<!-- Node16 -->
<g id="node16" class="node"><title>Node16</title>
<polygon fill="white" stroke="#bfbfbf" points="596.5,-56.5 596.5,-75.5 637.5,-75.5 637.5,-56.5 596.5,-56.5"/>
<text text-anchor="middle" x="617" y="-63.5" font-family="Helvetica,sans-Serif" font-size="10.00">regex</text>
</g>
<!-- Node2&#45;&gt;Node16 -->
<g id="edge15" class="edge"><title>Node2&#45;&gt;Node16</title>
<path fill="none" stroke="midnightblue" d="M939.409,-116.274C870.528,-110.296 755.584,-98.2513 647.63,-75.7841"/>
<polygon fill="midnightblue" stroke="midnightblue" points="648.049,-72.2955 637.541,-73.6494 646.6,-79.1438 648.049,-72.2955"/>
</g>
<!-- Node17 -->
<g id="node17" class="node"><title>Node17</title>
<polygon fill="white" stroke="#bfbfbf" points="656,-56.5 656,-75.5 706,-75.5 706,-56.5 656,-56.5"/>
<text text-anchor="middle" x="681" y="-63.5" font-family="Helvetica,sans-Serif" font-size="10.00">iomanip</text>
</g>
<!-- Node2&#45;&gt;Node17 -->
<g id="edge16" class="edge"><title>Node2&#45;&gt;Node17</title>
<path fill="none" stroke="midnightblue" d="M939.298,-113.157C883.363,-105.624 798.496,-93.1435 715.972,-76.0288"/>
<polygon fill="midnightblue" stroke="midnightblue" points="716.688,-72.6029 706.182,-73.9741 715.25,-79.4536 716.688,-72.6029"/>
</g>
<!-- Node18 -->
<g id="node18" class="node"><title>Node18</title>
<polygon fill="white" stroke="#bfbfbf" points="724.5,-56.5 724.5,-75.5 775.5,-75.5 775.5,-56.5 724.5,-56.5"/>
<text text-anchor="middle" x="750" y="-63.5" font-family="Helvetica,sans-Serif" font-size="10.00">unistd.h</text>
</g>
<!-- Node2&#45;&gt;Node18 -->
<g id="edge17" class="edge"><title>Node2&#45;&gt;Node18</title>
<path fill="none" stroke="midnightblue" d="M957.018,-112.457C915.414,-104.238 850.995,-91.1546 785.649,-76.0632"/>
<polygon fill="midnightblue" stroke="midnightblue" points="786.113,-72.5779 775.581,-73.7235 784.529,-79.3963 786.113,-72.5779"/>
</g>
<!-- Node2&#45;&gt;Node19 -->
<g id="edge18" class="edge"><title>Node2&#45;&gt;Node19</title>
<path fill="none" stroke="midnightblue" d="M1062.53,-117.229C1219.48,-107.587 1627.08,-82.4036 1700.42,-75.3071"/>
<polygon fill="midnightblue" stroke="midnightblue" points="1701.27,-78.7314 1710.79,-74.0794 1700.44,-71.78 1701.27,-78.7314"/>
</g>
<!-- Node20 -->
<g id="node20" class="node"><title>Node20</title>
<polygon fill="white" stroke="#bfbfbf" points="794,-56.5 794,-75.5 834,-75.5 834,-56.5 794,-56.5"/>
<text text-anchor="middle" x="814" y="-63.5" font-family="Helvetica,sans-Serif" font-size="10.00">limits</text>
</g>
<!-- Node2&#45;&gt;Node20 -->
<g id="edge19" class="edge"><title>Node2&#45;&gt;Node20</title>
<path fill="none" stroke="midnightblue" d="M971.369,-112.444C936.407,-102.347 878.621,-85.6606 843.65,-75.562"/>
<polygon fill="midnightblue" stroke="midnightblue" points="844.583,-72.1886 834.005,-72.7767 842.641,-78.9138 844.583,-72.1886"/>
</g>
<!-- Node21 -->
<g id="node21" class="node"><title>Node21</title>
<polygon fill="white" stroke="#bfbfbf" points="730.5,-0.5 730.5,-19.5 771.5,-19.5 771.5,-0.5 730.5,-0.5"/>
<text text-anchor="middle" x="751" y="-7.5" font-family="Helvetica,sans-Serif" font-size="10.00">string</text>
</g>
<!-- Node2&#45;&gt;Node21 -->
<g id="edge20" class="edge"><title>Node2&#45;&gt;Node21</title>
<path fill="none" stroke="midnightblue" d="M975.342,-112.43C950.786,-103.982 912.873,-90.2959 881,-76 863.586,-68.1895 860.018,-64.6383 843,-56 821.362,-45.017 796.649,-32.9554 778.288,-24.0864"/>
<polygon fill="midnightblue" stroke="midnightblue" points="779.587,-20.8272 769.059,-19.6387 776.548,-27.1331 779.587,-20.8272"/>
</g>
<!-- Node22 -->
<g id="node22" class="node"><title>Node22</title>
<polygon fill="white" stroke="#bfbfbf" points="952,-0.5 952,-19.5 996,-19.5 996,-0.5 952,-0.5"/>
<text text-anchor="middle" x="974" y="-7.5" font-family="Helvetica,sans-Serif" font-size="10.00">vector</text>
</g>
<!-- Node2&#45;&gt;Node22 -->
<g id="edge21" class="edge"><title>Node2&#45;&gt;Node22</title>
<path fill="none" stroke="midnightblue" d="M998.881,-112.368C994.524,-94.617 984.473,-53.6664 978.565,-29.5974"/>
<polygon fill="midnightblue" stroke="midnightblue" points="981.892,-28.4688 976.109,-19.5914 975.094,-30.1375 981.892,-28.4688"/>
</g>
<!-- Node23 -->
<g id="node23" class="node"><title>Node23</title>
<polygon fill="white" stroke="#bfbfbf" points="1334.5,-56.5 1334.5,-75.5 1375.5,-75.5 1375.5,-56.5 1334.5,-56.5"/>
<text text-anchor="middle" x="1355" y="-63.5" font-family="Helvetica,sans-Serif" font-size="10.00">stack</text>
</g>
<!-- Node2&#45;&gt;Node23 -->
<g id="edge22" class="edge"><title>Node2&#45;&gt;Node23</title>
<path fill="none" stroke="midnightblue" d="M1062.8,-114.354C1127.31,-106.932 1231.26,-93.6108 1320,-76 1321.46,-75.7099 1322.95,-75.3962 1324.46,-75.0658"/>
<polygon fill="midnightblue" stroke="midnightblue" points="1325.44,-78.4301 1334.36,-72.7146 1323.82,-71.6194 1325.44,-78.4301"/>
</g>
<!-- Node24 -->
<g id="node24" class="node"><title>Node24</title>
<polygon fill="white" stroke="#bfbfbf" points="1393.5,-56.5 1393.5,-75.5 1436.5,-75.5 1436.5,-56.5 1393.5,-56.5"/>
<text text-anchor="middle" x="1415" y="-63.5" font-family="Helvetica,sans-Serif" font-size="10.00">deque</text>
</g>
<!-- Node2&#45;&gt;Node24 -->
<g id="edge23" class="edge"><title>Node2&#45;&gt;Node24</title>
<path fill="none" stroke="midnightblue" d="M1062.52,-116.925C1136.52,-111.321 1264.55,-99.393 1383.43,-75.7758"/>
<polygon fill="midnightblue" stroke="midnightblue" points="1384.32,-79.1661 1393.43,-73.7562 1382.94,-72.3046 1384.32,-79.1661"/>
</g>
<!-- Node25 -->
<g id="node25" class="node"><title>Node25</title>
<polygon fill="white" stroke="#bfbfbf" points="1068,-0.5 1068,-19.5 1112,-19.5 1112,-0.5 1068,-0.5"/>
<text text-anchor="middle" x="1090" y="-7.5" font-family="Helvetica,sans-Serif" font-size="10.00">mutex</text>
</g>
<!-- Node2&#45;&gt;Node25 -->
<g id="edge24" class="edge"><title>Node2&#45;&gt;Node25</title>
<path fill="none" stroke="midnightblue" d="M1007.98,-112.368C1022.74,-94.135 1057.29,-51.4257 1076.51,-27.6752"/>
<polygon fill="midnightblue" stroke="midnightblue" points="1079.48,-29.567 1083.05,-19.5914 1074.04,-25.164 1079.48,-29.567"/>
</g>
<!-- Node26 -->
<g id="node26" class="node"><title>Node26</title>
<polygon fill="white" stroke="#bfbfbf" points="1176,-0.5 1176,-19.5 1220,-19.5 1220,-0.5 1176,-0.5"/>
<text text-anchor="middle" x="1198" y="-7.5" font-family="Helvetica,sans-Serif" font-size="10.00">thread</text>
</g>
<!-- Node2&#45;&gt;Node26 -->
<g id="edge25" class="edge"><title>Node2&#45;&gt;Node26</title>
<path fill="none" stroke="midnightblue" d="M1062.67,-116.228C1117.78,-110.53 1192.6,-98.7619 1211,-76 1221.82,-62.6204 1215.57,-42.7003 1208.49,-28.4418"/>
<polygon fill="midnightblue" stroke="midnightblue" points="1211.54,-26.715 1203.67,-19.6249 1205.4,-30.0771 1211.54,-26.715"/>
</g>
<!-- Node27 -->
<g id="node27" class="node"><title>Node27</title>
<polygon fill="white" stroke="#bfbfbf" points="1238.5,-0.5 1238.5,-19.5 1333.5,-19.5 1333.5,-0.5 1238.5,-0.5"/>
<text text-anchor="middle" x="1286" y="-7.5" font-family="Helvetica,sans-Serif" font-size="10.00">condition_variable</text>
</g>
<!-- Node2&#45;&gt;Node27 -->
<g id="edge26" class="edge"><title>Node2&#45;&gt;Node27</title>
<path fill="none" stroke="midnightblue" d="M1062.5,-119.33C1110.4,-115.639 1177.07,-105.094 1228,-76 1248.23,-64.4455 1265.11,-43.2637 1275.35,-28.2229"/>
<polygon fill="midnightblue" stroke="midnightblue" points="1278.32,-30.0825 1280.84,-19.7924 1272.45,-26.2634 1278.32,-30.0825"/>
</g>
<!-- Node28 -->
<g id="node28" class="node"><title>Node28</title>
<polygon fill="white" stroke="#bfbfbf" points="1351.5,-0.5 1351.5,-19.5 1394.5,-19.5 1394.5,-0.5 1351.5,-0.5"/>
<text text-anchor="middle" x="1373" y="-7.5" font-family="Helvetica,sans-Serif" font-size="10.00">queue</text>
</g>
<!-- Node2&#45;&gt;Node28 -->
<g id="edge27" class="edge"><title>Node2&#45;&gt;Node28</title>
<path fill="none" stroke="midnightblue" d="M1062.74,-115.776C1115.09,-110.01 1191.55,-98.4028 1255,-76 1291.05,-63.2701 1329.18,-40.2923 1352.03,-25.3459"/>
<polygon fill="midnightblue" stroke="midnightblue" points="1354.17,-28.1255 1360.56,-19.6732 1350.29,-22.2969 1354.17,-28.1255"/>
</g>
<!-- Node29 -->
<g id="node29" class="node"><title>Node29</title>
<polygon fill="white" stroke="#bfbfbf" points="1014.5,-0.5 1014.5,-19.5 1049.5,-19.5 1049.5,-0.5 1014.5,-0.5"/>
<text text-anchor="middle" x="1032" y="-7.5" font-family="Helvetica,sans-Serif" font-size="10.00">map</text>
</g>
<!-- Node2&#45;&gt;Node29 -->
<g id="edge28" class="edge"><title>Node2&#45;&gt;Node29</title>
<path fill="none" stroke="midnightblue" d="M1003.43,-112.368C1008.46,-94.5366 1020.08,-53.2953 1026.85,-29.2717"/>
<polygon fill="midnightblue" stroke="midnightblue" points="1030.23,-30.1659 1029.58,-19.5914 1023.5,-28.2671 1030.23,-30.1659"/>
</g>
<!-- Node30 -->
<g id="node30" class="node"><title>Node30</title>
<g id="a_node30"><a xlink:href="cosmos-defs_8h.html" target="_top" xlink:title="COSMOS definitions Definitions specific to the COSMOS environement. ">
<polygon fill="white" stroke="black" points="1086,-56.5 1086,-75.5 1202,-75.5 1202,-56.5 1086,-56.5"/>
<text text-anchor="middle" x="1144" y="-63.5" font-family="Helvetica,sans-Serif" font-size="10.00">support/cosmos&#45;defs.h</text>
</a>
</g>
</g>
<!-- Node2&#45;&gt;Node30 -->
<g id="edge29" class="edge"><title>Node2&#45;&gt;Node30</title>
<path fill="none" stroke="midnightblue" d="M1023.66,-112.444C1047.4,-103.478 1084.91,-89.314 1111.74,-79.1827"/>
<polygon fill="midnightblue" stroke="midnightblue" points="1113.33,-82.3235 1121.45,-75.5164 1110.86,-75.7749 1113.33,-82.3235"/>
</g>
<!-- Node32 -->
<g id="node32" class="node"><title>Node32</title>
<g id="a_node32"><a xlink:href="json11_8hpp.html" target="_top" xlink:title="json11.hpp">
<polygon fill="white" stroke="black" points="890,-56.5 890,-75.5 954,-75.5 954,-56.5 890,-56.5"/>
<text text-anchor="middle" x="922" y="-63.5" font-family="Helvetica,sans-Serif" font-size="10.00">json11.hpp</text>
</a>
</g>
</g>
<!-- Node2&#45;&gt;Node32 -->
<g id="edge37" class="edge"><title>Node2&#45;&gt;Node32</title>
<path fill="none" stroke="midnightblue" d="M988.307,-112.324C976.099,-103.979 957.422,-91.2122 942.997,-81.3524"/>
<polygon fill="midnightblue" stroke="midnightblue" points="944.892,-78.4082 934.661,-75.6545 940.942,-84.1871 944.892,-78.4082"/>
</g>
<!-- Node30&#45;&gt;Node22 -->
<g id="edge31" class="edge"><title>Node30&#45;&gt;Node22</title>
<path fill="none" stroke="midnightblue" d="M1117.06,-56.4435C1086.9,-46.8634 1038.06,-31.3492 1005.99,-21.1604"/>
<polygon fill="midnightblue" stroke="midnightblue" points="1006.8,-17.7454 996.206,-18.0537 1004.68,-24.4169 1006.8,-17.7454"/>
</g>
<!-- Node30&#45;&gt;Node25 -->
<g id="edge35" class="edge"><title>Node30&#45;&gt;Node25</title>
<path fill="none" stroke="midnightblue" d="M1135.08,-56.083C1127.22,-48.2195 1115.57,-36.5688 1106.08,-27.0813"/>
<polygon fill="midnightblue" stroke="midnightblue" points="1108.3,-24.3473 1098.75,-19.7511 1103.35,-29.2971 1108.3,-24.3473"/>
</g>
<!-- Node30&#45;&gt;Node26 -->
<g id="edge34" class="edge"><title>Node30&#45;&gt;Node26</title>
<path fill="none" stroke="midnightblue" d="M1152.92,-56.083C1160.78,-48.2195 1172.43,-36.5688 1181.92,-27.0813"/>
<polygon fill="midnightblue" stroke="midnightblue" points="1184.65,-29.2971 1189.25,-19.7511 1179.7,-24.3473 1184.65,-29.2971"/>
</g>
<!-- Node30&#45;&gt;Node27 -->
<g id="edge36" class="edge"><title>Node30&#45;&gt;Node27</title>
<path fill="none" stroke="midnightblue" d="M1166.5,-56.4435C1190.08,-47.4776 1227.32,-33.314 1253.96,-23.1827"/>
<polygon fill="midnightblue" stroke="midnightblue" points="1255.5,-26.3424 1263.6,-19.5164 1253.01,-19.7995 1255.5,-26.3424"/>
</g>
<!-- Node30&#45;&gt;Node28 -->
<g id="edge33" class="edge"><title>Node30&#45;&gt;Node28</title>
<path fill="none" stroke="midnightblue" d="M1184.74,-56.4762C1222.78,-48.356 1281.32,-35.4396 1341.33,-20.0506"/>
<polygon fill="midnightblue" stroke="midnightblue" points="1342.56,-23.3488 1351.36,-17.4579 1340.81,-16.5714 1342.56,-23.3488"/>
</g>
<!-- Node30&#45;&gt;Node29 -->
<g id="edge30" class="edge"><title>Node30&#45;&gt;Node29</title>
<path fill="none" stroke="midnightblue" d="M1126.01,-56.324C1107.86,-47.5732 1079.62,-33.9603 1058.83,-23.9357"/>
<polygon fill="midnightblue" stroke="midnightblue" points="1060.11,-20.6668 1049.58,-19.4765 1057.07,-26.9722 1060.11,-20.6668"/>
</g>
<!-- Node31 -->
<g id="node31" class="node"><title>Node31</title>
<polygon fill="white" stroke="#bfbfbf" points="1129.5,-0.5 1129.5,-19.5 1158.5,-19.5 1158.5,-0.5 1129.5,-0.5"/>
<text text-anchor="middle" x="1144" y="-7.5" font-family="Helvetica,sans-Serif" font-size="10.00">list</text>
</g>
<!-- Node30&#45;&gt;Node31 -->
<g id="edge32" class="edge"><title>Node30&#45;&gt;Node31</title>
<path fill="none" stroke="midnightblue" d="M1144,-56.083C1144,-49.0059 1144,-38.8611 1144,-29.9865"/>
<polygon fill="midnightblue" stroke="midnightblue" points="1147.5,-29.751 1144,-19.7511 1140.5,-29.7511 1147.5,-29.751"/>
</g>
<!-- Node32&#45;&gt;Node21 -->
<g id="edge38" class="edge"><title>Node32&#45;&gt;Node21</title>
<path fill="none" stroke="midnightblue" d="M894.905,-56.4435C863.973,-46.6756 813.505,-30.7385 781.296,-20.5673"/>
<polygon fill="midnightblue" stroke="midnightblue" points="782.118,-17.1565 771.528,-17.4826 780.01,-23.8316 782.118,-17.1565"/>
</g>
<!-- Node32&#45;&gt;Node22 -->
<g id="edge39" class="edge"><title>Node32&#45;&gt;Node22</title>
<path fill="none" stroke="midnightblue" d="M930.587,-56.083C938.159,-48.2195 949.378,-36.5688 958.514,-27.0813"/>
<polygon fill="midnightblue" stroke="midnightblue" points="961.158,-29.3821 965.573,-19.7511 956.115,-24.5266 961.158,-29.3821"/>
</g>
<!-- Node32&#45;&gt;Node29 -->
<g id="edge40" class="edge"><title>Node32&#45;&gt;Node29</title>
<path fill="none" stroke="midnightblue" d="M939.673,-56.324C957.394,-47.6247 984.903,-34.1202 1005.29,-24.113"/>
<polygon fill="midnightblue" stroke="midnightblue" points="1006.94,-27.2031 1014.37,-19.6545 1003.85,-20.9195 1006.94,-27.2031"/>
</g>
<!-- Node33 -->
<g id="node33" class="node"><title>Node33</title>
<polygon fill="white" stroke="#bfbfbf" points="790,-0.5 790,-19.5 842,-19.5 842,-0.5 790,-0.5"/>
<text text-anchor="middle" x="816" y="-7.5" font-family="Helvetica,sans-Serif" font-size="10.00">memory</text>
</g>
<!-- Node32&#45;&gt;Node33 -->
<g id="edge41" class="edge"><title>Node32&#45;&gt;Node33</title>
<path fill="none" stroke="midnightblue" d="M904.969,-56.324C887.97,-47.6641 861.624,-34.2424 842.007,-24.249"/>
<polygon fill="midnightblue" stroke="midnightblue" points="843.488,-21.0752 832.988,-19.6545 840.31,-27.3125 843.488,-21.0752"/>
</g>
<!-- Node34 -->
<g id="node34" class="node"><title>Node34</title>
<polygon fill="white" stroke="#bfbfbf" points="860.5,-0.5 860.5,-19.5 933.5,-19.5 933.5,-0.5 860.5,-0.5"/>
<text text-anchor="middle" x="897" y="-7.5" font-family="Helvetica,sans-Serif" font-size="10.00">initializer_list</text>
</g>
<!-- Node32&#45;&gt;Node34 -->
<g id="edge42" class="edge"><title>Node32&#45;&gt;Node34</title>
<path fill="none" stroke="midnightblue" d="M917.872,-56.083C914.486,-48.77 909.584,-38.1814 905.381,-29.1034"/>
<polygon fill="midnightblue" stroke="midnightblue" points="908.429,-27.3553 901.051,-19.7511 902.077,-30.2962 908.429,-27.3553"/>
</g>
<!-- Node35&#45;&gt;Node2 -->
<g id="edge44" class="edge"><title>Node35&#45;&gt;Node2</title>
<path fill="none" stroke="midnightblue" d="M1413.54,-280.391C1376.55,-254.242 1292.72,-198.171 1214,-168 1168.42,-150.531 1114.62,-139.235 1072.49,-132.33"/>
<polygon fill="midnightblue" stroke="midnightblue" points="1073.02,-128.87 1062.6,-130.753 1071.92,-135.783 1073.02,-128.87"/>
</g>
<!-- Node36 -->
<g id="node36" class="node"><title>Node36</title>
<polygon fill="white" stroke="#bfbfbf" points="1414.5,-224.5 1414.5,-243.5 1471.5,-243.5 1471.5,-224.5 1414.5,-224.5"/>
<text text-anchor="middle" x="1443" y="-231.5" font-family="Helvetica,sans-Serif" font-size="10.00">termios.h</text>
</g>
<!-- Node35&#45;&gt;Node36 -->
<g id="edge45" class="edge"><title>Node35&#45;&gt;Node36</title>
<path fill="none" stroke="midnightblue" d="M1435.37,-280.399C1436.72,-272.377 1438.42,-262.233 1439.88,-253.569"/>
<polygon fill="midnightblue" stroke="midnightblue" points="1443.34,-254.1 1441.54,-243.658 1436.44,-252.939 1443.34,-254.1"/>
</g>
<!-- Node37 -->
<g id="node37" class="node"><title>Node37</title>
<polygon fill="white" stroke="#bfbfbf" points="1490,-224.5 1490,-243.5 1552,-243.5 1552,-224.5 1490,-224.5"/>
<text text-anchor="middle" x="1521" y="-231.5" font-family="Helvetica,sans-Serif" font-size="10.00">sys/ioctl.h</text>
</g>
<!-- Node35&#45;&gt;Node37 -->
<g id="edge46" class="edge"><title>Node35&#45;&gt;Node37</title>
<path fill="none" stroke="midnightblue" d="M1453.85,-280.399C1467.7,-271.04 1485.81,-258.792 1499.74,-249.377"/>
<polygon fill="midnightblue" stroke="midnightblue" points="1501.87,-252.158 1508.2,-243.658 1497.95,-246.36 1501.87,-252.158"/>
</g>
<!-- Node38&#45;&gt;Node2 -->
<g id="edge48" class="edge"><title>Node38&#45;&gt;Node2</title>
<path fill="none" stroke="midnightblue" d="M1130.45,-280.429C1119.82,-270.573 1105.62,-256.906 1094,-244 1062.39,-208.887 1029.69,-163.978 1012.76,-139.96"/>
<polygon fill="midnightblue" stroke="midnightblue" points="1015.49,-137.758 1006.89,-131.571 1009.75,-141.771 1015.49,-137.758"/>
</g>
<!-- Node39 -->
<g id="node39" class="node"><title>Node39</title>
<g id="a_node39"><a xlink:href="sliplib_8h.html" target="_top" xlink:title="COSMOS SLIP support include file. ">
<polygon fill="white" stroke="black" points="1103.5,-224.5 1103.5,-243.5 1188.5,-243.5 1188.5,-224.5 1103.5,-224.5"/>
<text text-anchor="middle" x="1146" y="-231.5" font-family="Helvetica,sans-Serif" font-size="10.00">support/sliplib.h</text>
</a>
</g>
</g>
<!-- Node38&#45;&gt;Node39 -->
<g id="edge49" class="edge"><title>Node38&#45;&gt;Node39</title>
<path fill="none" stroke="midnightblue" d="M1146,-280.399C1146,-272.466 1146,-262.458 1146,-253.858"/>
<polygon fill="midnightblue" stroke="midnightblue" points="1149.5,-253.658 1146,-243.658 1142.5,-253.658 1149.5,-253.658"/>
</g>
<!-- Node39&#45;&gt;Node2 -->
<g id="edge50" class="edge"><title>Node39&#45;&gt;Node2</title>
<path fill="none" stroke="midnightblue" d="M1131.63,-224.384C1117.41,-215.688 1095.2,-201.63 1077,-188 1055.89,-172.195 1033.08,-152.266 1018.02,-138.668"/>
<polygon fill="midnightblue" stroke="midnightblue" points="1020.26,-135.974 1010.5,-131.832 1015.54,-141.151 1020.26,-135.974"/>
</g>
<!-- Node39&#45;&gt;Node11 -->
<g id="edge54" class="edge"><title>Node39&#45;&gt;Node11</title>
<path fill="none" stroke="midnightblue" d="M1160.53,-224.341C1174.63,-215.722 1196.41,-201.82 1214,-188 1253.07,-157.298 1250.75,-132.541 1296,-112 1432.18,-50.177 1485.59,-102.443 1636.6,-75.9117"/>
<polygon fill="midnightblue" stroke="midnightblue" points="1637.49,-79.3063 1646.69,-74.0481 1636.22,-72.4227 1637.49,-79.3063"/>
</g>
<!-- Node40 -->
<g id="node40" class="node"><title>Node40</title>
<g id="a_node40"><a xlink:href="cosmos-errno_8h.html" target="_top" xlink:title="COSMOS Error Codes. ">
<polygon fill="white" stroke="black" points="1086.5,-168.5 1086.5,-187.5 1205.5,-187.5 1205.5,-168.5 1086.5,-168.5"/>
<text text-anchor="middle" x="1146" y="-175.5" font-family="Helvetica,sans-Serif" font-size="10.00">support/cosmos&#45;errno.h</text>
</a>
</g>
</g>
<!-- Node39&#45;&gt;Node40 -->
<g id="edge51" class="edge"><title>Node39&#45;&gt;Node40</title>
<path fill="none" stroke="midnightblue" d="M1146,-224.083C1146,-217.006 1146,-206.861 1146,-197.986"/>
<polygon fill="midnightblue" stroke="midnightblue" points="1149.5,-197.751 1146,-187.751 1142.5,-197.751 1149.5,-197.751"/>
</g>
<!-- Node40&#45;&gt;Node2 -->
<g id="edge52" class="edge"><title>Node40&#45;&gt;Node2</title>
<path fill="none" stroke="midnightblue" d="M1123.02,-168.444C1098.84,-159.438 1060.58,-145.189 1033.35,-135.049"/>
<polygon fill="midnightblue" stroke="midnightblue" points="1034.46,-131.727 1023.87,-131.516 1032.02,-138.286 1034.46,-131.727"/>
</g>
<!-- Node40&#45;&gt;Node41 -->
<g id="edge53" class="edge"><title>Node40&#45;&gt;Node41</title>
<path fill="none" stroke="midnightblue" d="M1152.11,-168.083C1157.28,-160.534 1164.85,-149.495 1171.19,-140.23"/>
<polygon fill="midnightblue" stroke="midnightblue" points="1174.24,-141.979 1177,-131.751 1168.46,-138.022 1174.24,-141.979"/>
</g>
</g>
</svg>
        <g id="navigator" transform="translate(0 0)" fill="#404254">
                <rect fill="#f2f5e9" fill-opacity="0.5" stroke="#606060" stroke-width=".5" x="0" y="0" width="60" height="60"/>
                <use id="zoomplus" xlink:href="#zoomPlus" x="17" y="9" onmousedown="handleZoom(evt,'in')"/>
                <use id="zoomminus" xlink:href="#zoomMin" x="42" y="9" onmousedown="handleZoom(evt,'out')"/>
                <use id="reset" xlink:href="#resetDef" x="30" y="36" onmousedown="handleReset()"/>
                <g id="arrowUp" xlink:href="#dirArrow" transform="translate(30 24)" onmousedown="handlePan(0,-1)">
                  <use xlink:href="#rim" fill="#404040">
                        <set attributeName="fill" to="#808080" begin="arrowUp.mouseover" end="arrowUp.mouseout"/>
                  </use>
                  <path fill="none" stroke="white" stroke-width="1.5" d="M0,-3.0v7 M-2.5,-0.5L0,-3.0L2.5,-0.5"/>
                </g>
                <g id="arrowRight" xlink:href="#dirArrow" transform="rotate(90) translate(36 -43)" onmousedown="handlePan(1,0)">
                  <use xlink:href="#rim" fill="#404040">
                        <set attributeName="fill" to="#808080" begin="arrowRight.mouseover" end="arrowRight.mouseout"/>
                  </use>
                  <path fill="none" stroke="white" stroke-width="1.5" d="M0,-3.0v7 M-2.5,-0.5L0,-3.0L2.5,-0.5"/>
                </g>
                <g id="arrowDown" xlink:href="#dirArrow" transform="rotate(180) translate(-30 -48)" onmousedown="handlePan(0,1)">
                  <use xlink:href="#rim" fill="#404040">
                        <set attributeName="fill" to="#808080" begin="arrowDown.mouseover" end="arrowDown.mouseout"/>
                  </use>
                  <path fill="none" stroke="white" stroke-width="1.5" d="M0,-3.0v7 M-2.5,-0.5L0,-3.0L2.5,-0.5"/>
                </g>
                <g id="arrowLeft" xlink:href="#dirArrow" transform="rotate(270) translate(-36 17)" onmousedown="handlePan(-1,0)">
                  <use xlink:href="#rim" fill="#404040">
                        <set attributeName="fill" to="#808080" begin="arrowLeft.mouseover" end="arrowLeft.mouseout"/>
                  </use>
                  <path fill="none" stroke="white" stroke-width="1.5" d="M0,-3.0v7 M-2.5,-0.5L0,-3.0L2.5,-0.5"/>
                </g>
        </g>
        <svg viewBox="0 0 15 15" width="100%" height="30px" preserveAspectRatio="xMaxYMin meet">
         <g id="arrow_out" transform="scale(0.3 0.3)">
          <a xlink:href="arduino__lib_8cpp__incl_org.svg" target="_base">
           <rect id="button" ry="5" rx="5" y="6" x="6" height="38" width="38"
                fill="#f2f5e9" fill-opacity="0.5" stroke="#606060" stroke-width="1.0"/>
           <path id="arrow"
             d="M 11.500037,31.436501 C 11.940474,20.09759 22.043105,11.32322 32.158766,21.979434 L 37.068811,17.246167 C 37.068811,17.246167 37.088388,32 37.088388,32 L 22.160133,31.978069 C 22.160133,31.978069 26.997745,27.140456 26.997745,27.140456 C 18.528582,18.264221 13.291696,25.230495 11.500037,31.436501 z"
             style="fill:#404040;"/>
          </a>
         </g>
        </svg>
</svg>
