<?xml version="1.0" encoding="UTF-8" standalone="no"?>
<!DOCTYPE svg PUBLIC "-//W3C//DTD SVG 1.1//EN"
 "http://www.w3.org/Graphics/SVG/1.1/DTD/svg11.dtd">
<!-- Generated by graphviz version 2.38.0 (20140413.2041)
 -->
<!-- Title: arduino_lib.h Pages: 1 -->
<svg width="176pt" height="84pt"
 viewBox="0.00 0.00 176.00 84.00" xmlns="http://www.w3.org/2000/svg" xmlns:xlink="http://www.w3.org/1999/xlink">
<g id="graph0" class="graph" transform="scale(1 1) rotate(0) translate(4 80)">
<title>arduino_lib.h</title>
<polygon fill="white" stroke="none" points="-4,4 -4,-80 172,-80 172,4 -4,4"/>
<!-- Node1 -->
<g id="node1" class="node"><title>Node1</title>
<polygon fill="#bfbfbf" stroke="black" points="44.5,-56.5 44.5,-75.5 115.5,-75.5 115.5,-56.5 44.5,-56.5"/>
<text text-anchor="middle" x="80" y="-63.5" font-family="Helvetica,sans-Serif" font-size="10.00">arduino_lib.h</text>
</g>
<!-- Node2 -->
<g id="node2" class="node"><title>Node2</title>
<g id="a_node2"><a xlink:href="rw__test_8cpp.html" target="_top" xlink:title="rw_test.cpp">
<polygon fill="white" stroke="black" points="0,-0.5 0,-19.5 68,-19.5 68,-0.5 0,-0.5"/>
<text text-anchor="middle" x="34" y="-7.5" font-family="Helvetica,sans-Serif" font-size="10.00">rw_test.cpp</text>
</a>
</g>
</g>
<!-- Node1&#45;&gt;Node2 -->
<g id="edge1" class="edge"><title>Node1&#45;&gt;Node2</title>
<path fill="none" stroke="midnightblue" d="M65.886,-48.4314C57.824,-38.9673 48.0408,-27.4827 41.4546,-19.7511"/>
<polygon fill="midnightblue" stroke="midnightblue" points="63.255,-50.7402 72.404,-56.083 68.5837,-46.2009 63.255,-50.7402"/>
</g>
<!-- Node3 -->
<g id="node3" class="node"><title>Node3</title>
<g id="a_node3"><a xlink:href="arduino__lib_8cpp.html" target="_top" xlink:title="arduino_lib.cpp">
<polygon fill="white" stroke="black" points="86,-0.5 86,-19.5 168,-19.5 168,-0.5 86,-0.5"/>
<text text-anchor="middle" x="127" y="-7.5" font-family="Helvetica,sans-Serif" font-size="10.00">arduino_lib.cpp</text>
</a>
</g>
</g>
<!-- Node1&#45;&gt;Node3 -->
<g id="edge2" class="edge"><title>Node1&#45;&gt;Node3</title>
<path fill="none" stroke="midnightblue" d="M94.4208,-48.4314C102.658,-38.9673 112.654,-27.4827 119.383,-19.7511"/>
<polygon fill="midnightblue" stroke="midnightblue" points="91.6863,-46.2421 87.7611,-56.083 96.9664,-50.8378 91.6863,-46.2421"/>
</g>
</g>
</svg>
