<?xml version="1.0" encoding="UTF-8" standalone="no"?>
<!DOCTYPE svg PUBLIC "-//W3C//DTD SVG 1.1//EN"
 "http://www.w3.org/Graphics/SVG/1.1/DTD/svg11.dtd">
<!-- Generated by graphviz version 2.38.0 (20140413.2041)
 -->
<!-- Title: ax25class.cpp Pages: 1 -->
<svg width="1763pt" height="308pt"
 viewBox="0.00 0.00 1762.50 308.00" xmlns="http://www.w3.org/2000/svg" xmlns:xlink="http://www.w3.org/1999/xlink">
<g id="graph0" class="graph" transform="scale(1 1) rotate(0) translate(4 304)">
<title>ax25class.cpp</title>
<polygon fill="white" stroke="none" points="-4,4 -4,-304 1758.5,-304 1758.5,4 -4,4"/>
<!-- Node1 -->
<g id="node1" class="node"><title>Node1</title>
<polygon fill="#bfbfbf" stroke="black" points="962.5,-280.5 962.5,-299.5 1042.5,-299.5 1042.5,-280.5 962.5,-280.5"/>
<text text-anchor="middle" x="1002.5" y="-287.5" font-family="Helvetica,sans-Serif" font-size="10.00">ax25class.cpp</text>
</g>
<!-- Node2 -->
<g id="node2" class="node"><title>Node2</title>
<g id="a_node2"><a xlink:href="config_cosmos_8h.html" target="_top" xlink:title="Headers and definitions common to all COSMOS. ">
<polygon fill="white" stroke="black" points="878,-112.5 878,-131.5 1001,-131.5 1001,-112.5 878,-112.5"/>
<text text-anchor="middle" x="939.5" y="-119.5" font-family="Helvetica,sans-Serif" font-size="10.00">support/configCosmos.h</text>
</a>
</g>
</g>
<!-- Node1&#45;&gt;Node2 -->
<g id="edge1" class="edge"><title>Node1&#45;&gt;Node2</title>
<path fill="none" stroke="midnightblue" d="M999.113,-280.075C989.153,-253.832 959.821,-176.545 946.376,-141.117"/>
<polygon fill="midnightblue" stroke="midnightblue" points="949.572,-139.676 942.752,-131.568 943.028,-142.159 949.572,-139.676"/>
</g>
<!-- Node35 -->
<g id="node35" class="node"><title>Node35</title>
<g id="a_node35"><a xlink:href="ax25class_8h.html" target="_top" xlink:title="device/general/ax25class.h">
<polygon fill="white" stroke="black" points="998,-224.5 998,-243.5 1133,-243.5 1133,-224.5 998,-224.5"/>
<text text-anchor="middle" x="1065.5" y="-231.5" font-family="Helvetica,sans-Serif" font-size="10.00">device/general/ax25class.h</text>
</a>
</g>
</g>
<!-- Node1&#45;&gt;Node35 -->
<g id="edge43" class="edge"><title>Node1&#45;&gt;Node35</title>
<path fill="none" stroke="midnightblue" d="M1012.62,-280.324C1022.03,-272.263 1036.24,-260.077 1047.57,-250.369"/>
<polygon fill="midnightblue" stroke="midnightblue" points="1049.88,-252.999 1055.19,-243.834 1045.32,-247.684 1049.88,-252.999"/>
</g>
<!-- Node3 -->
<g id="node3" class="node"><title>Node3</title>
<polygon fill="white" stroke="#bfbfbf" points="1370,-56.5 1370,-75.5 1415,-75.5 1415,-56.5 1370,-56.5"/>
<text text-anchor="middle" x="1392.5" y="-63.5" font-family="Helvetica,sans-Serif" font-size="10.00">climits</text>
</g>
<!-- Node2&#45;&gt;Node3 -->
<g id="edge2" class="edge"><title>Node2&#45;&gt;Node3</title>
<path fill="none" stroke="midnightblue" d="M1001.05,-115.043C1102.85,-105.106 1300.28,-85.4511 1359.91,-75.836"/>
<polygon fill="midnightblue" stroke="midnightblue" points="1360.69,-79.2509 1369.93,-74.0527 1359.47,-72.3592 1360.69,-79.2509"/>
</g>
<!-- Node4 -->
<g id="node4" class="node"><title>Node4</title>
<polygon fill="white" stroke="#bfbfbf" points="1433,-56.5 1433,-75.5 1480,-75.5 1480,-56.5 1433,-56.5"/>
<text text-anchor="middle" x="1456.5" y="-63.5" font-family="Helvetica,sans-Serif" font-size="10.00">csignal</text>
</g>
<!-- Node2&#45;&gt;Node4 -->
<g id="edge3" class="edge"><title>Node2&#45;&gt;Node4</title>
<path fill="none" stroke="midnightblue" d="M1001.18,-115.062C1011.96,-114.034 1023.05,-112.981 1033.5,-112 1204.02,-95.9864 1251.16,-107.318 1422.97,-75.9939"/>
<polygon fill="midnightblue" stroke="midnightblue" points="1423.65,-79.4275 1432.85,-74.1711 1422.38,-72.5437 1423.65,-79.4275"/>
</g>
<!-- Node5 -->
<g id="node5" class="node"><title>Node5</title>
<polygon fill="white" stroke="#bfbfbf" points="1498.5,-56.5 1498.5,-75.5 1544.5,-75.5 1544.5,-56.5 1498.5,-56.5"/>
<text text-anchor="middle" x="1521.5" y="-63.5" font-family="Helvetica,sans-Serif" font-size="10.00">cstdint</text>
</g>
<!-- Node2&#45;&gt;Node5 -->
<g id="edge4" class="edge"><title>Node2&#45;&gt;Node5</title>
<path fill="none" stroke="midnightblue" d="M1001.17,-114.947C1011.95,-113.932 1023.05,-112.913 1033.5,-112 1232.76,-94.5964 1287.6,-111.14 1488.23,-75.8938"/>
<polygon fill="midnightblue" stroke="midnightblue" points="1488.97,-79.3167 1498.2,-74.1201 1487.75,-72.4248 1488.97,-79.3167"/>
</g>
<!-- Node6 -->
<g id="node6" class="node"><title>Node6</title>
<polygon fill="white" stroke="#bfbfbf" points="1562.5,-56.5 1562.5,-75.5 1618.5,-75.5 1618.5,-56.5 1562.5,-56.5"/>
<text text-anchor="middle" x="1590.5" y="-63.5" font-family="Helvetica,sans-Serif" font-size="10.00">cinttypes</text>
</g>
<!-- Node2&#45;&gt;Node6 -->
<g id="edge5" class="edge"><title>Node2&#45;&gt;Node6</title>
<path fill="none" stroke="midnightblue" d="M1001.17,-114.862C1011.94,-113.856 1023.04,-112.862 1033.5,-112 1261.11,-93.2282 1322.83,-110.987 1552.32,-75.9206"/>
<polygon fill="midnightblue" stroke="midnightblue" points="1552.97,-79.3625 1562.32,-74.3766 1551.9,-72.4446 1552.97,-79.3625"/>
</g>
<!-- Node7 -->
<g id="node7" class="node"><title>Node7</title>
<polygon fill="white" stroke="#bfbfbf" points="0,-56.5 0,-75.5 43,-75.5 43,-56.5 0,-56.5"/>
<text text-anchor="middle" x="21.5" y="-63.5" font-family="Helvetica,sans-Serif" font-size="10.00">cstdio</text>
</g>
<!-- Node2&#45;&gt;Node7 -->
<g id="edge6" class="edge"><title>Node2&#45;&gt;Node7</title>
<path fill="none" stroke="midnightblue" d="M877.709,-119.803C706.818,-116.191 229.394,-103.983 53.2241,-75.861"/>
<polygon fill="midnightblue" stroke="midnightblue" points="53.7493,-72.4003 43.3094,-74.2052 52.5962,-79.3047 53.7493,-72.4003"/>
</g>
<!-- Node8 -->
<g id="node8" class="node"><title>Node8</title>
<polygon fill="white" stroke="#bfbfbf" points="61,-56.5 61,-75.5 110,-75.5 110,-56.5 61,-56.5"/>
<text text-anchor="middle" x="85.5" y="-63.5" font-family="Helvetica,sans-Serif" font-size="10.00">cstddef</text>
</g>
<!-- Node2&#45;&gt;Node8 -->
<g id="edge7" class="edge"><title>Node2&#45;&gt;Node8</title>
<path fill="none" stroke="midnightblue" d="M877.707,-119.306C716.285,-114.618 283.735,-100.289 120.593,-75.9678"/>
<polygon fill="midnightblue" stroke="midnightblue" points="120.663,-72.4363 110.243,-74.3514 119.583,-79.3525 120.663,-72.4363"/>
</g>
<!-- Node9 -->
<g id="node9" class="node"><title>Node9</title>
<polygon fill="white" stroke="#bfbfbf" points="128,-56.5 128,-75.5 173,-75.5 173,-56.5 128,-56.5"/>
<text text-anchor="middle" x="150.5" y="-63.5" font-family="Helvetica,sans-Serif" font-size="10.00">cstdlib</text>
</g>
<!-- Node2&#45;&gt;Node9 -->
<g id="edge8" class="edge"><title>Node2&#45;&gt;Node9</title>
<path fill="none" stroke="midnightblue" d="M877.669,-121.794C749.53,-122.476 445.779,-119.087 183.197,-75.6951"/>
<polygon fill="midnightblue" stroke="midnightblue" points="183.53,-72.2021 173.089,-74.0013 182.373,-79.1059 183.53,-72.2021"/>
</g>
<!-- Node10 -->
<g id="node10" class="node"><title>Node10</title>
<polygon fill="white" stroke="#bfbfbf" points="191.5,-56.5 191.5,-75.5 235.5,-75.5 235.5,-56.5 191.5,-56.5"/>
<text text-anchor="middle" x="213.5" y="-63.5" font-family="Helvetica,sans-Serif" font-size="10.00">cerrno</text>
</g>
<!-- Node2&#45;&gt;Node10 -->
<g id="edge9" class="edge"><title>Node2&#45;&gt;Node10</title>
<path fill="none" stroke="midnightblue" d="M877.606,-121.49C757.205,-121.469 483.171,-116.653 245.573,-75.7977"/>
<polygon fill="midnightblue" stroke="midnightblue" points="246.167,-72.3485 235.714,-74.0779 244.964,-79.2444 246.167,-72.3485"/>
</g>
<!-- Node11 -->
<g id="node11" class="node"><title>Node11</title>
<polygon fill="white" stroke="#bfbfbf" points="1636.5,-56.5 1636.5,-75.5 1682.5,-75.5 1682.5,-56.5 1636.5,-56.5"/>
<text text-anchor="middle" x="1659.5" y="-63.5" font-family="Helvetica,sans-Serif" font-size="10.00">cstring</text>
</g>
<!-- Node2&#45;&gt;Node11 -->
<g id="edge10" class="edge"><title>Node2&#45;&gt;Node11</title>
<path fill="none" stroke="midnightblue" d="M1001.16,-114.786C1011.93,-113.789 1023.04,-112.817 1033.5,-112 1293.83,-91.6546 1364.91,-119.335 1626.04,-75.8822"/>
<polygon fill="midnightblue" stroke="midnightblue" points="1626.93,-79.282 1636.21,-74.1705 1625.77,-72.3792 1626.93,-79.282"/>
</g>
<!-- Node12 -->
<g id="node12" class="node"><title>Node12</title>
<polygon fill="white" stroke="#bfbfbf" points="253.5,-56.5 253.5,-75.5 297.5,-75.5 297.5,-56.5 253.5,-56.5"/>
<text text-anchor="middle" x="275.5" y="-63.5" font-family="Helvetica,sans-Serif" font-size="10.00">cmath</text>
</g>
<!-- Node2&#45;&gt;Node12 -->
<g id="edge11" class="edge"><title>Node2&#45;&gt;Node12</title>
<path fill="none" stroke="midnightblue" d="M877.862,-120.927C765.836,-119.857 521.444,-113.215 307.864,-75.8626"/>
<polygon fill="midnightblue" stroke="midnightblue" points="308.175,-72.3633 297.717,-74.0606 306.951,-79.2554 308.175,-72.3633"/>
</g>
<!-- Node13 -->
<g id="node13" class="node"><title>Node13</title>
<polygon fill="white" stroke="#bfbfbf" points="316,-56.5 316,-75.5 361,-75.5 361,-56.5 316,-56.5"/>
<text text-anchor="middle" x="338.5" y="-63.5" font-family="Helvetica,sans-Serif" font-size="10.00">iosfwd</text>
</g>
<!-- Node2&#45;&gt;Node13 -->
<g id="edge12" class="edge"><title>Node2&#45;&gt;Node13</title>
<path fill="none" stroke="midnightblue" d="M877.953,-120.058C774.828,-117.621 560.649,-108.894 370.97,-75.699"/>
<polygon fill="midnightblue" stroke="midnightblue" points="371.557,-72.2486 361.099,-73.9453 370.332,-79.1407 371.557,-72.2486"/>
</g>
<!-- Node14 -->
<g id="node14" class="node"><title>Node14</title>
<polygon fill="white" stroke="#bfbfbf" points="1700.5,-56.5 1700.5,-75.5 1754.5,-75.5 1754.5,-56.5 1700.5,-56.5"/>
<text text-anchor="middle" x="1727.5" y="-63.5" font-family="Helvetica,sans-Serif" font-size="10.00">iostream</text>
</g>
<!-- Node2&#45;&gt;Node14 -->
<g id="edge13" class="edge"><title>Node2&#45;&gt;Node14</title>
<path fill="none" stroke="midnightblue" d="M1001.16,-114.734C1011.93,-113.743 1023.04,-112.787 1033.5,-112 1322.28,-90.285 1400.16,-119.055 1690.51,-75.8403"/>
<polygon fill="midnightblue" stroke="midnightblue" points="1691.12,-79.2883 1700.48,-74.3397 1690.08,-72.3661 1691.12,-79.2883"/>
</g>
<!-- Node15 -->
<g id="node15" class="node"><title>Node15</title>
<polygon fill="white" stroke="#bfbfbf" points="379.5,-56.5 379.5,-75.5 431.5,-75.5 431.5,-56.5 379.5,-56.5"/>
<text text-anchor="middle" x="405.5" y="-63.5" font-family="Helvetica,sans-Serif" font-size="10.00">sstream</text>
</g>
<!-- Node2&#45;&gt;Node15 -->
<g id="edge14" class="edge"><title>Node2&#45;&gt;Node15</title>
<path fill="none" stroke="midnightblue" d="M877.773,-118.498C785.205,-114.07 604.873,-102.822 441.956,-75.78"/>
<polygon fill="midnightblue" stroke="midnightblue" points="442.189,-72.2701 431.747,-74.0606 441.027,-79.1729 442.189,-72.2701"/>
</g>
<!-- Node16 -->
<g id="node16" class="node"><title>Node16</title>
<polygon fill="white" stroke="#bfbfbf" points="450,-56.5 450,-75.5 491,-75.5 491,-56.5 450,-56.5"/>
<text text-anchor="middle" x="470.5" y="-63.5" font-family="Helvetica,sans-Serif" font-size="10.00">regex</text>
</g>
<!-- Node2&#45;&gt;Node16 -->
<g id="edge15" class="edge"><title>Node2&#45;&gt;Node16</title>
<path fill="none" stroke="midnightblue" d="M877.878,-118.364C794.443,-113.982 640.901,-103.045 501.07,-75.713"/>
<polygon fill="midnightblue" stroke="midnightblue" points="501.518,-72.2336 491.027,-73.7167 500.153,-79.0993 501.518,-72.2336"/>
</g>
<!-- Node17 -->
<g id="node17" class="node"><title>Node17</title>
<polygon fill="white" stroke="#bfbfbf" points="509.5,-56.5 509.5,-75.5 559.5,-75.5 559.5,-56.5 509.5,-56.5"/>
<text text-anchor="middle" x="534.5" y="-63.5" font-family="Helvetica,sans-Serif" font-size="10.00">iomanip</text>
</g>
<!-- Node2&#45;&gt;Node17 -->
<g id="edge16" class="edge"><title>Node2&#45;&gt;Node17</title>
<path fill="none" stroke="midnightblue" d="M877.909,-115.99C804.167,-109.422 677.124,-96.2922 569.5,-76 569.4,-75.9811 569.299,-75.9621 569.199,-75.943"/>
<polygon fill="midnightblue" stroke="midnightblue" points="570.16,-72.5697 559.647,-73.8853 568.686,-79.4127 570.16,-72.5697"/>
</g>
<!-- Node18 -->
<g id="node18" class="node"><title>Node18</title>
<polygon fill="white" stroke="#bfbfbf" points="578,-56.5 578,-75.5 629,-75.5 629,-56.5 578,-56.5"/>
<text text-anchor="middle" x="603.5" y="-63.5" font-family="Helvetica,sans-Serif" font-size="10.00">unistd.h</text>
</g>
<!-- Node2&#45;&gt;Node18 -->
<g id="edge17" class="edge"><title>Node2&#45;&gt;Node18</title>
<path fill="none" stroke="midnightblue" d="M877.78,-113.668C818.913,-106.247 727.599,-93.622 638.995,-75.9069"/>
<polygon fill="midnightblue" stroke="midnightblue" points="639.539,-72.4462 629.044,-73.8932 638.151,-79.3071 639.539,-72.4462"/>
</g>
<!-- Node19 -->
<g id="node19" class="node"><title>Node19</title>
<polygon fill="white" stroke="#bfbfbf" points="647.5,-56.5 647.5,-75.5 691.5,-75.5 691.5,-56.5 647.5,-56.5"/>
<text text-anchor="middle" x="669.5" y="-63.5" font-family="Helvetica,sans-Serif" font-size="10.00">fcntl.h</text>
</g>
<!-- Node2&#45;&gt;Node19 -->
<g id="edge18" class="edge"><title>Node2&#45;&gt;Node19</title>
<path fill="none" stroke="midnightblue" d="M886.03,-112.452C839.667,-104.697 770.594,-92.3256 701.911,-76.1603"/>
<polygon fill="midnightblue" stroke="midnightblue" points="702.321,-72.6603 691.783,-73.7478 700.699,-79.4698 702.321,-72.6603"/>
</g>
<!-- Node20 -->
<g id="node20" class="node"><title>Node20</title>
<polygon fill="white" stroke="#bfbfbf" points="709.5,-56.5 709.5,-75.5 749.5,-75.5 749.5,-56.5 709.5,-56.5"/>
<text text-anchor="middle" x="729.5" y="-63.5" font-family="Helvetica,sans-Serif" font-size="10.00">limits</text>
</g>
<!-- Node2&#45;&gt;Node20 -->
<g id="edge19" class="edge"><title>Node2&#45;&gt;Node20</title>
<path fill="none" stroke="midnightblue" d="M905.738,-112.458C870.291,-103.468 812.946,-88.8653 763.5,-76 762.237,-75.6714 760.948,-75.3348 759.645,-74.9941"/>
<polygon fill="midnightblue" stroke="midnightblue" points="760.19,-71.5183 749.628,-72.3582 758.409,-78.2878 760.19,-71.5183"/>
</g>
<!-- Node21 -->
<g id="node21" class="node"><title>Node21</title>
<polygon fill="white" stroke="#bfbfbf" points="1311,-0.5 1311,-19.5 1352,-19.5 1352,-0.5 1311,-0.5"/>
<text text-anchor="middle" x="1331.5" y="-7.5" font-family="Helvetica,sans-Serif" font-size="10.00">string</text>
</g>
<!-- Node2&#45;&gt;Node21 -->
<g id="edge20" class="edge"><title>Node2&#45;&gt;Node21</title>
<path fill="none" stroke="midnightblue" d="M1001.11,-115.804C1055.24,-109.989 1135.59,-98.2964 1202.5,-76 1220.98,-69.8417 1224.12,-64.8003 1241.5,-56 1262.8,-45.2125 1287.01,-33.1157 1304.96,-24.1832"/>
<polygon fill="midnightblue" stroke="midnightblue" points="1306.83,-27.1623 1314.22,-19.5746 1303.71,-20.895 1306.83,-27.1623"/>
</g>
<!-- Node22 -->
<g id="node22" class="node"><title>Node22</title>
<polygon fill="white" stroke="#bfbfbf" points="1033.5,-0.5 1033.5,-19.5 1077.5,-19.5 1077.5,-0.5 1033.5,-0.5"/>
<text text-anchor="middle" x="1055.5" y="-7.5" font-family="Helvetica,sans-Serif" font-size="10.00">vector</text>
</g>
<!-- Node2&#45;&gt;Node22 -->
<g id="edge21" class="edge"><title>Node2&#45;&gt;Node22</title>
<path fill="none" stroke="midnightblue" d="M963.084,-112.44C980.899,-105.019 1005.02,-92.8152 1021.5,-76 1034.57,-62.6649 1043.82,-43.2822 1049.34,-29.154"/>
<polygon fill="midnightblue" stroke="midnightblue" points="1052.7,-30.1555 1052.84,-19.5616 1046.13,-27.7594 1052.7,-30.1555"/>
</g>
<!-- Node23 -->
<g id="node23" class="node"><title>Node23</title>
<polygon fill="white" stroke="#bfbfbf" points="1250,-56.5 1250,-75.5 1291,-75.5 1291,-56.5 1250,-56.5"/>
<text text-anchor="middle" x="1270.5" y="-63.5" font-family="Helvetica,sans-Serif" font-size="10.00">stack</text>
</g>
<!-- Node2&#45;&gt;Node23 -->
<g id="edge22" class="edge"><title>Node2&#45;&gt;Node23</title>
<path fill="none" stroke="midnightblue" d="M1001.04,-113.484C1061.14,-105.712 1155.03,-92.4193 1235.5,-76 1236.96,-75.7021 1238.45,-75.382 1239.95,-75.0464"/>
<polygon fill="midnightblue" stroke="midnightblue" points="1240.94,-78.4088 1249.85,-72.6774 1239.31,-71.601 1240.94,-78.4088"/>
</g>
<!-- Node24 -->
<g id="node24" class="node"><title>Node24</title>
<polygon fill="white" stroke="#bfbfbf" points="1309,-56.5 1309,-75.5 1352,-75.5 1352,-56.5 1309,-56.5"/>
<text text-anchor="middle" x="1330.5" y="-63.5" font-family="Helvetica,sans-Serif" font-size="10.00">deque</text>
</g>
<!-- Node2&#45;&gt;Node24 -->
<g id="edge23" class="edge"><title>Node2&#45;&gt;Node24</title>
<path fill="none" stroke="midnightblue" d="M1001.35,-114.556C1084.72,-105.665 1229.82,-89.4116 1298.95,-75.972"/>
<polygon fill="midnightblue" stroke="midnightblue" points="1299.88,-79.3546 1308.98,-73.9259 1298.48,-72.4959 1299.88,-79.3546"/>
</g>
<!-- Node25 -->
<g id="node25" class="node"><title>Node25</title>
<polygon fill="white" stroke="#bfbfbf" points="687.5,-0.5 687.5,-19.5 731.5,-19.5 731.5,-0.5 687.5,-0.5"/>
<text text-anchor="middle" x="709.5" y="-7.5" font-family="Helvetica,sans-Serif" font-size="10.00">mutex</text>
</g>
<!-- Node2&#45;&gt;Node25 -->
<g id="edge24" class="edge"><title>Node2&#45;&gt;Node25</title>
<path fill="none" stroke="midnightblue" d="M915.543,-112.34C892.617,-103.827 857.227,-90.0957 827.5,-76 793.695,-59.9708 756.065,-38.595 732.588,-24.8125"/>
<polygon fill="midnightblue" stroke="midnightblue" points="734.127,-21.6567 723.738,-19.5821 730.566,-27.683 734.127,-21.6567"/>
</g>
<!-- Node26 -->
<g id="node26" class="node"><title>Node26</title>
<polygon fill="white" stroke="#bfbfbf" points="749.5,-0.5 749.5,-19.5 793.5,-19.5 793.5,-0.5 749.5,-0.5"/>
<text text-anchor="middle" x="771.5" y="-7.5" font-family="Helvetica,sans-Serif" font-size="10.00">thread</text>
</g>
<!-- Node2&#45;&gt;Node26 -->
<g id="edge25" class="edge"><title>Node2&#45;&gt;Node26</title>
<path fill="none" stroke="midnightblue" d="M922.909,-112.442C906.481,-103.79 880.773,-89.7642 859.5,-76 834.921,-60.0965 808.039,-39.7808 790.537,-26.1309"/>
<polygon fill="midnightblue" stroke="midnightblue" points="792.327,-23.0861 782.302,-19.6592 788.002,-28.59 792.327,-23.0861"/>
</g>
<!-- Node27 -->
<g id="node27" class="node"><title>Node27</title>
<polygon fill="white" stroke="#bfbfbf" points="812,-0.5 812,-19.5 907,-19.5 907,-0.5 812,-0.5"/>
<text text-anchor="middle" x="859.5" y="-7.5" font-family="Helvetica,sans-Serif" font-size="10.00">condition_variable</text>
</g>
<!-- Node2&#45;&gt;Node27 -->
<g id="edge26" class="edge"><title>Node2&#45;&gt;Node27</title>
<path fill="none" stroke="midnightblue" d="M918.995,-112.488C903.773,-105.093 883.776,-92.9009 872.5,-76 863.418,-62.3884 860.414,-43.8451 859.539,-30.0476"/>
<polygon fill="midnightblue" stroke="midnightblue" points="863.029,-29.6716 859.217,-19.7863 856.032,-29.8912 863.029,-29.6716"/>
</g>
<!-- Node28 -->
<g id="node28" class="node"><title>Node28</title>
<polygon fill="white" stroke="#bfbfbf" points="972,-0.5 972,-19.5 1015,-19.5 1015,-0.5 972,-0.5"/>
<text text-anchor="middle" x="993.5" y="-7.5" font-family="Helvetica,sans-Serif" font-size="10.00">queue</text>
</g>
<!-- Node2&#45;&gt;Node28 -->
<g id="edge27" class="edge"><title>Node2&#45;&gt;Node28</title>
<path fill="none" stroke="midnightblue" d="M962.288,-112.471C977.826,-105.316 997.207,-93.4352 1006.5,-76 1014.35,-61.2709 1009.13,-42.3687 1003.14,-28.7491"/>
<polygon fill="midnightblue" stroke="midnightblue" points="1006.15,-26.9515 998.6,-19.5204 999.87,-30.0389 1006.15,-26.9515"/>
</g>
<!-- Node29 -->
<g id="node29" class="node"><title>Node29</title>
<polygon fill="white" stroke="#bfbfbf" points="1096,-0.5 1096,-19.5 1131,-19.5 1131,-0.5 1096,-0.5"/>
<text text-anchor="middle" x="1113.5" y="-7.5" font-family="Helvetica,sans-Serif" font-size="10.00">map</text>
</g>
<!-- Node2&#45;&gt;Node29 -->
<g id="edge28" class="edge"><title>Node2&#45;&gt;Node29</title>
<path fill="none" stroke="midnightblue" d="M965.232,-112.452C986.817,-104.665 1017.96,-91.9581 1042.5,-76 1064.05,-61.9862 1085.33,-41.3474 1098.89,-27.1036"/>
<polygon fill="midnightblue" stroke="midnightblue" points="1101.67,-29.2566 1105.93,-19.5544 1096.55,-24.4846 1101.67,-29.2566"/>
</g>
<!-- Node30 -->
<g id="node30" class="node"><title>Node30</title>
<g id="a_node30"><a xlink:href="cosmos-defs_8h.html" target="_top" xlink:title="COSMOS definitions Definitions specific to the COSMOS environement. ">
<polygon fill="white" stroke="black" points="881.5,-56.5 881.5,-75.5 997.5,-75.5 997.5,-56.5 881.5,-56.5"/>
<text text-anchor="middle" x="939.5" y="-63.5" font-family="Helvetica,sans-Serif" font-size="10.00">support/cosmos&#45;defs.h</text>
</a>
</g>
</g>
<!-- Node2&#45;&gt;Node30 -->
<g id="edge29" class="edge"><title>Node2&#45;&gt;Node30</title>
<path fill="none" stroke="midnightblue" d="M939.5,-112.083C939.5,-105.006 939.5,-94.8611 939.5,-85.9865"/>
<polygon fill="midnightblue" stroke="midnightblue" points="943,-85.751 939.5,-75.7511 936,-85.7511 943,-85.751"/>
</g>
<!-- Node32 -->
<g id="node32" class="node"><title>Node32</title>
<g id="a_node32"><a xlink:href="json11_8hpp.html" target="_top" xlink:title="json11.hpp">
<polygon fill="white" stroke="black" points="1129.5,-56.5 1129.5,-75.5 1193.5,-75.5 1193.5,-56.5 1129.5,-56.5"/>
<text text-anchor="middle" x="1161.5" y="-63.5" font-family="Helvetica,sans-Serif" font-size="10.00">json11.hpp</text>
</a>
</g>
</g>
<!-- Node2&#45;&gt;Node32 -->
<g id="edge37" class="edge"><title>Node2&#45;&gt;Node32</title>
<path fill="none" stroke="midnightblue" d="M974.677,-112.444C1013.98,-102.883 1077.59,-87.4112 1119.48,-77.2216"/>
<polygon fill="midnightblue" stroke="midnightblue" points="1120.48,-80.5795 1129.37,-74.8151 1118.83,-73.7779 1120.48,-80.5795"/>
</g>
<!-- Node30&#45;&gt;Node22 -->
<g id="edge31" class="edge"><title>Node30&#45;&gt;Node22</title>
<path fill="none" stroke="midnightblue" d="M957.881,-56.4435C976.716,-47.6751 1006.23,-33.9355 1027.88,-23.8579"/>
<polygon fill="midnightblue" stroke="midnightblue" points="1029.62,-26.9098 1037.21,-19.5164 1026.66,-20.5637 1029.62,-26.9098"/>
</g>
<!-- Node30&#45;&gt;Node25 -->
<g id="edge35" class="edge"><title>Node30&#45;&gt;Node25</title>
<path fill="none" stroke="midnightblue" d="M898.547,-56.4926C860.321,-48.384 801.478,-35.4763 741.781,-20.2195"/>
<polygon fill="midnightblue" stroke="midnightblue" points="742.364,-16.7554 731.807,-17.6501 740.618,-23.5341 742.364,-16.7554"/>
</g>
<!-- Node30&#45;&gt;Node26 -->
<g id="edge34" class="edge"><title>Node30&#45;&gt;Node26</title>
<path fill="none" stroke="midnightblue" d="M912.88,-56.4435C883.159,-46.8902 835.079,-31.436 803.377,-21.2461"/>
<polygon fill="midnightblue" stroke="midnightblue" points="804.295,-17.8649 793.703,-18.1368 802.153,-24.5291 804.295,-17.8649"/>
</g>
<!-- Node30&#45;&gt;Node27 -->
<g id="edge36" class="edge"><title>Node30&#45;&gt;Node27</title>
<path fill="none" stroke="midnightblue" d="M926.647,-56.324C914.284,-47.979 895.37,-35.2122 880.763,-25.3524"/>
<polygon fill="midnightblue" stroke="midnightblue" points="882.568,-22.3483 872.321,-19.6545 878.652,-28.1503 882.568,-22.3483"/>
</g>
<!-- Node30&#45;&gt;Node28 -->
<g id="edge33" class="edge"><title>Node30&#45;&gt;Node28</title>
<path fill="none" stroke="midnightblue" d="M948.417,-56.083C956.28,-48.2195 967.931,-36.5688 977.419,-27.0813"/>
<polygon fill="midnightblue" stroke="midnightblue" points="980.153,-29.2971 984.749,-19.7511 975.203,-24.3473 980.153,-29.2971"/>
</g>
<!-- Node30&#45;&gt;Node29 -->
<g id="edge30" class="edge"><title>Node30&#45;&gt;Node29</title>
<path fill="none" stroke="midnightblue" d="M968.02,-56.4967C995.773,-48.1726 1039.36,-34.9676 1086.1,-20.0708"/>
<polygon fill="midnightblue" stroke="midnightblue" points="1087.34,-23.3483 1095.8,-16.9689 1085.21,-16.6809 1087.34,-23.3483"/>
</g>
<!-- Node31 -->
<g id="node31" class="node"><title>Node31</title>
<polygon fill="white" stroke="#bfbfbf" points="925,-0.5 925,-19.5 954,-19.5 954,-0.5 925,-0.5"/>
<text text-anchor="middle" x="939.5" y="-7.5" font-family="Helvetica,sans-Serif" font-size="10.00">list</text>
</g>
<!-- Node30&#45;&gt;Node31 -->
<g id="edge32" class="edge"><title>Node30&#45;&gt;Node31</title>
<path fill="none" stroke="midnightblue" d="M939.5,-56.083C939.5,-49.0059 939.5,-38.8611 939.5,-29.9865"/>
<polygon fill="midnightblue" stroke="midnightblue" points="943,-29.751 939.5,-19.7511 936,-29.7511 943,-29.751"/>
</g>
<!-- Node32&#45;&gt;Node21 -->
<g id="edge38" class="edge"><title>Node32&#45;&gt;Node21</title>
<path fill="none" stroke="midnightblue" d="M1188.44,-56.4435C1219.1,-46.7024 1269.08,-30.826 1301.12,-20.6512"/>
<polygon fill="midnightblue" stroke="midnightblue" points="1302.37,-23.9263 1310.84,-17.5631 1300.25,-17.2548 1302.37,-23.9263"/>
</g>
<!-- Node32&#45;&gt;Node22 -->
<g id="edge39" class="edge"><title>Node32&#45;&gt;Node22</title>
<path fill="none" stroke="midnightblue" d="M1144.47,-56.324C1127.47,-47.6641 1101.12,-34.2424 1081.51,-24.249"/>
<polygon fill="midnightblue" stroke="midnightblue" points="1082.99,-21.0752 1072.49,-19.6545 1079.81,-27.3125 1082.99,-21.0752"/>
</g>
<!-- Node32&#45;&gt;Node29 -->
<g id="edge40" class="edge"><title>Node32&#45;&gt;Node29</title>
<path fill="none" stroke="midnightblue" d="M1153.57,-56.083C1146.65,-48.2982 1136.43,-36.8015 1128.05,-27.3665"/>
<polygon fill="midnightblue" stroke="midnightblue" points="1130.54,-24.8999 1121.28,-19.7511 1125.31,-29.5505 1130.54,-24.8999"/>
</g>
<!-- Node33 -->
<g id="node33" class="node"><title>Node33</title>
<polygon fill="white" stroke="#bfbfbf" points="1149.5,-0.5 1149.5,-19.5 1201.5,-19.5 1201.5,-0.5 1149.5,-0.5"/>
<text text-anchor="middle" x="1175.5" y="-7.5" font-family="Helvetica,sans-Serif" font-size="10.00">memory</text>
</g>
<!-- Node32&#45;&gt;Node33 -->
<g id="edge41" class="edge"><title>Node32&#45;&gt;Node33</title>
<path fill="none" stroke="midnightblue" d="M1163.81,-56.083C1165.67,-48.9272 1168.34,-38.6353 1170.65,-29.6911"/>
<polygon fill="midnightblue" stroke="midnightblue" points="1174.11,-30.3094 1173.23,-19.7511 1167.33,-28.5527 1174.11,-30.3094"/>
</g>
<!-- Node34 -->
<g id="node34" class="node"><title>Node34</title>
<polygon fill="white" stroke="#bfbfbf" points="1220,-0.5 1220,-19.5 1293,-19.5 1293,-0.5 1220,-0.5"/>
<text text-anchor="middle" x="1256.5" y="-7.5" font-family="Helvetica,sans-Serif" font-size="10.00">initializer_list</text>
</g>
<!-- Node32&#45;&gt;Node34 -->
<g id="edge42" class="edge"><title>Node32&#45;&gt;Node34</title>
<path fill="none" stroke="midnightblue" d="M1176.76,-56.324C1191.72,-47.8215 1214.75,-34.7288 1232.23,-24.7975"/>
<polygon fill="midnightblue" stroke="midnightblue" points="1234.31,-27.639 1241.27,-19.6545 1230.85,-21.5534 1234.31,-27.639"/>
</g>
<!-- Node35&#45;&gt;Node2 -->
<g id="edge44" class="edge"><title>Node35&#45;&gt;Node2</title>
<path fill="none" stroke="midnightblue" d="M1050.12,-224.381C1035.8,-216.001 1014.2,-202.452 997.5,-188 980.427,-173.223 963.541,-153.574 952.431,-139.762"/>
<polygon fill="midnightblue" stroke="midnightblue" points="954.962,-137.32 946.02,-131.638 949.467,-141.657 954.962,-137.32"/>
</g>
<!-- Node35&#45;&gt;Node11 -->
<g id="edge48" class="edge"><title>Node35&#45;&gt;Node11</title>
<path fill="none" stroke="midnightblue" d="M1096.27,-224.424C1179.71,-201.165 1417.5,-134.852 1626.8,-76.1929"/>
<polygon fill="midnightblue" stroke="midnightblue" points="1627.75,-79.563 1636.43,-73.4938 1625.86,-72.8227 1627.75,-79.563"/>
</g>
<!-- Node35&#45;&gt;Node14 -->
<g id="edge49" class="edge"><title>Node35&#45;&gt;Node14</title>
<path fill="none" stroke="midnightblue" d="M1108.89,-224.433C1151.65,-215.829 1218.78,-201.888 1276.5,-188 1431.32,-150.748 1614.08,-99.4235 1690.75,-77.5548"/>
<polygon fill="midnightblue" stroke="midnightblue" points="1691.77,-80.9037 1700.43,-74.7913 1689.85,-74.1729 1691.77,-80.9037"/>
</g>
<!-- Node36 -->
<g id="node36" class="node"><title>Node36</title>
<g id="a_node36"><a xlink:href="cosmos-errno_8h.html" target="_top" xlink:title="COSMOS Error Codes. ">
<polygon fill="white" stroke="black" points="1006,-168.5 1006,-187.5 1125,-187.5 1125,-168.5 1006,-168.5"/>
<text text-anchor="middle" x="1065.5" y="-175.5" font-family="Helvetica,sans-Serif" font-size="10.00">support/cosmos&#45;errno.h</text>
</a>
</g>
</g>
<!-- Node35&#45;&gt;Node36 -->
<g id="edge45" class="edge"><title>Node35&#45;&gt;Node36</title>
<path fill="none" stroke="midnightblue" d="M1065.5,-224.083C1065.5,-217.006 1065.5,-206.861 1065.5,-197.986"/>
<polygon fill="midnightblue" stroke="midnightblue" points="1069,-197.751 1065.5,-187.751 1062,-197.751 1069,-197.751"/>
</g>
<!-- Node36&#45;&gt;Node2 -->
<g id="edge46" class="edge"><title>Node36&#45;&gt;Node2</title>
<path fill="none" stroke="midnightblue" d="M1045.53,-168.444C1024.89,-159.596 992.437,-145.687 968.868,-135.586"/>
<polygon fill="midnightblue" stroke="midnightblue" points="969.942,-132.239 959.372,-131.516 967.184,-138.673 969.942,-132.239"/>
</g>
<!-- Node37 -->
<g id="node37" class="node"><title>Node37</title>
<polygon fill="white" stroke="#bfbfbf" points="1042,-112.5 1042,-131.5 1089,-131.5 1089,-112.5 1042,-112.5"/>
<text text-anchor="middle" x="1065.5" y="-119.5" font-family="Helvetica,sans-Serif" font-size="10.00">errno.h</text>
</g>
<!-- Node36&#45;&gt;Node37 -->
<g id="edge47" class="edge"><title>Node36&#45;&gt;Node37</title>
<path fill="none" stroke="midnightblue" d="M1065.5,-168.083C1065.5,-161.006 1065.5,-150.861 1065.5,-141.986"/>
<polygon fill="midnightblue" stroke="midnightblue" points="1069,-141.751 1065.5,-131.751 1062,-141.751 1069,-141.751"/>
</g>
</g>
</svg>
