<?xml version="1.0" encoding="UTF-8" standalone="no"?>
<!DOCTYPE svg PUBLIC "-//W3C//DTD SVG 1.1//EN"
 "http://www.w3.org/Graphics/SVG/1.1/DTD/svg11.dtd">
<!-- Generated by graphviz version 2.38.0 (20140413.2041)
 -->
<!-- Title: bbFctns.cpp Pages: 1 -->
<!--zoomable 431 -->
<svg id="main" version="1.1" xmlns="http://www.w3.org/2000/svg" xmlns:xlink="http://www.w3.org/1999/xlink" xml:space="preserve" onload="init(evt)">
<style type="text/css"><![CDATA[
.edge:hover path { stroke: red; }
.edge:hover polygon { stroke: red; fill: red; }
]]></style>
<script type="text/javascript"><![CDATA[
var edges = document.getElementsByTagName('g');
if (edges && edges.length) {
  for (var i=0;i<edges.length;i++) {
    if (edges[i].id.substr(0,4)=='edge') {
      edges[i].setAttribute('class','edge');
    }
  }
}
]]></script>
        <defs>
                <circle id="rim" cx="0" cy="0" r="7"/>
                <circle id="rim2" cx="0" cy="0" r="3.5"/>
                <g id="zoomPlus">
                        <use xlink:href="#rim" fill="#404040">
                                <set attributeName="fill" to="#808080" begin="zoomplus.mouseover" end="zoomplus.mouseout"/>
                        </use>
                        <path d="M-4,0h8M0,-4v8" fill="none" stroke="white" stroke-width="1.5" pointer-events="none"/>
                </g>
                <g id="zoomMin">
                        <use xlink:href="#rim" fill="#404040">
                                <set attributeName="fill" to="#808080" begin="zoomminus.mouseover" end="zoomminus.mouseout"/>
                        </use>
                        <path d="M-4,0h8" fill="none" stroke="white" stroke-width="1.5" pointer-events="none"/>
                </g>
                <g id="dirArrow">
                        <path fill="none" stroke="white" stroke-width="1.5" d="M0,-3.0v7 M-2.5,-0.5L0,-3.0L2.5,-0.5"/>
                </g>
               <g id="resetDef">
                       <use xlink:href="#rim2" fill="#404040">
                               <set attributeName="fill" to="#808080" begin="reset.mouseover" end="reset.mouseout"/>
                       </use>
               </g>
        </defs>

<script type="text/javascript">
var viewWidth = 1764;
var viewHeight = 431;
var sectionId = 'dynsection-0';
</script>
<script xlink:href="svgpan.js"/>
<svg id="graph" class="graph">
<g id="viewport">
<title>bbFctns.cpp</title>
<polygon fill="white" stroke="none" points="-4,4 -4,-427 1759.5,-427 1759.5,4 -4,4"/>
<!-- Node1 -->
<g id="node1" class="node"><title>Node1</title>
<polygon fill="#bfbfbf" stroke="black" points="994.5,-403.5 994.5,-422.5 1065.5,-422.5 1065.5,-403.5 994.5,-403.5"/>
<text text-anchor="middle" x="1030" y="-410.5" font-family="Helvetica,sans-Serif" font-size="10.00">bbFctns.cpp</text>
</g>
<!-- Node2 -->
<g id="node2" class="node"><title>Node2</title>
<g id="a_node2"><a xlink:href="config_cosmos_8h.html" target="_top" xlink:title="Headers and definitions common to all COSMOS. ">
<polygon fill="white" stroke="black" points="847.5,-112.5 847.5,-131.5 970.5,-131.5 970.5,-112.5 847.5,-112.5"/>
<text text-anchor="middle" x="909" y="-119.5" font-family="Helvetica,sans-Serif" font-size="10.00">support/configCosmos.h</text>
</a>
</g>
</g>
<!-- Node1&#45;&gt;Node2 -->
<g id="edge1" class="edge"><title>Node1&#45;&gt;Node2</title>
<path fill="none" stroke="midnightblue" d="M1011.3,-403.37C996.851,-395.768 977.448,-383.359 966,-367 947.393,-340.413 947,-328.951 947,-296.5 947,-296.5 947,-296.5 947,-233 947,-198.813 930.4,-161.764 919.143,-140.571"/>
<polygon fill="midnightblue" stroke="midnightblue" points="922.181,-138.832 914.284,-131.769 916.053,-142.215 922.181,-138.832"/>
</g>
<!-- Node35 -->
<g id="node35" class="node"><title>Node35</title>
<polygon fill="white" stroke="#bfbfbf" points="975,-347.5 975,-366.5 1021,-366.5 1021,-347.5 975,-347.5"/>
<text text-anchor="middle" x="998" y="-354.5" font-family="Helvetica,sans-Serif" font-size="10.00">stdio.h</text>
</g>
<!-- Node1&#45;&gt;Node35 -->
<g id="edge43" class="edge"><title>Node1&#45;&gt;Node35</title>
<path fill="none" stroke="midnightblue" d="M1024.72,-403.083C1020.29,-395.613 1013.84,-384.724 1008.38,-375.52"/>
<polygon fill="midnightblue" stroke="midnightblue" points="1011.29,-373.57 1003.19,-366.751 1005.27,-377.138 1011.29,-373.57"/>
</g>
<!-- Node36 -->
<g id="node36" class="node"><title>Node36</title>
<polygon fill="white" stroke="#bfbfbf" points="1039,-347.5 1039,-366.5 1087,-366.5 1087,-347.5 1039,-347.5"/>
<text text-anchor="middle" x="1063" y="-354.5" font-family="Helvetica,sans-Serif" font-size="10.00">stdlib.h</text>
</g>
<!-- Node1&#45;&gt;Node36 -->
<g id="edge44" class="edge"><title>Node1&#45;&gt;Node36</title>
<path fill="none" stroke="midnightblue" d="M1035.45,-403.083C1040.01,-395.613 1046.67,-384.724 1052.29,-375.52"/>
<polygon fill="midnightblue" stroke="midnightblue" points="1055.42,-377.109 1057.65,-366.751 1049.45,-373.459 1055.42,-377.109"/>
</g>
<!-- Node37 -->
<g id="node37" class="node"><title>Node37</title>
<polygon fill="white" stroke="#bfbfbf" points="1105.5,-347.5 1105.5,-366.5 1154.5,-366.5 1154.5,-347.5 1105.5,-347.5"/>
<text text-anchor="middle" x="1130" y="-354.5" font-family="Helvetica,sans-Serif" font-size="10.00">ctype.h</text>
</g>
<!-- Node1&#45;&gt;Node37 -->
<g id="edge45" class="edge"><title>Node1&#45;&gt;Node37</title>
<path fill="none" stroke="midnightblue" d="M1046.07,-403.324C1061.96,-394.743 1086.51,-381.486 1104.96,-371.522"/>
<polygon fill="midnightblue" stroke="midnightblue" points="1106.84,-374.486 1113.97,-366.655 1103.51,-368.326 1106.84,-374.486"/>
</g>
<!-- Node38 -->
<g id="node38" class="node"><title>Node38</title>
<polygon fill="white" stroke="#bfbfbf" points="1172.5,-347.5 1172.5,-366.5 1221.5,-366.5 1221.5,-347.5 1172.5,-347.5"/>
<text text-anchor="middle" x="1197" y="-354.5" font-family="Helvetica,sans-Serif" font-size="10.00">string.h</text>
</g>
<!-- Node1&#45;&gt;Node38 -->
<g id="edge46" class="edge"><title>Node1&#45;&gt;Node38</title>
<path fill="none" stroke="midnightblue" d="M1056.46,-403.444C1085.18,-394.159 1131.13,-379.3 1162.62,-369.117"/>
<polygon fill="midnightblue" stroke="midnightblue" points="1163.86,-372.395 1172.3,-365.988 1161.7,-365.735 1163.86,-372.395"/>
</g>
<!-- Node39 -->
<g id="node39" class="node"><title>Node39</title>
<polygon fill="white" stroke="#bfbfbf" points="1240,-347.5 1240,-366.5 1284,-366.5 1284,-347.5 1240,-347.5"/>
<text text-anchor="middle" x="1262" y="-354.5" font-family="Helvetica,sans-Serif" font-size="10.00">time.h</text>
</g>
<!-- Node1&#45;&gt;Node39 -->
<g id="edge47" class="edge"><title>Node1&#45;&gt;Node39</title>
<path fill="none" stroke="midnightblue" d="M1065.74,-404.701C1104.09,-396.714 1166.98,-383.172 1229.99,-367.143"/>
<polygon fill="midnightblue" stroke="midnightblue" points="1230.88,-370.53 1239.69,-364.656 1229.14,-363.749 1230.88,-370.53"/>
</g>
<!-- Node40 -->
<g id="node40" class="node"><title>Node40</title>
<g id="a_node40"><a xlink:href="cssl__lib_8h.html" target="_top" xlink:title="Simple Serial library header file. ">
<polygon fill="white" stroke="black" points="785.5,-280.5 785.5,-310.5 886.5,-310.5 886.5,-280.5 785.5,-280.5"/>
<text text-anchor="start" x="793.5" y="-298.5" font-family="Helvetica,sans-Serif" font-size="10.00">device/general/cssl</text>
<text text-anchor="middle" x="836" y="-287.5" font-family="Helvetica,sans-Serif" font-size="10.00">_lib.h</text>
</a>
</g>
</g>
<!-- Node1&#45;&gt;Node40 -->
<g id="edge48" class="edge"><title>Node1&#45;&gt;Node40</title>
<path fill="none" stroke="midnightblue" d="M1008.59,-403.483C988.525,-395.176 957.966,-381.676 933,-367 907.361,-351.928 880.13,-331.723 861.069,-316.808"/>
<polygon fill="midnightblue" stroke="midnightblue" points="863.19,-314.023 853.175,-310.567 858.849,-319.515 863.19,-314.023"/>
</g>
<!-- Node44 -->
<g id="node44" class="node"><title>Node44</title>
<g id="a_node44"><a xlink:href="bb_fctns_8h.html" target="_top" xlink:title="device/general/bbFctns.h">
<polygon fill="white" stroke="black" points="755,-347.5 755,-366.5 881,-366.5 881,-347.5 755,-347.5"/>
<text text-anchor="middle" x="818" y="-354.5" font-family="Helvetica,sans-Serif" font-size="10.00">device/general/bbFctns.h</text>
</a>
</g>
</g>
<!-- Node1&#45;&gt;Node44 -->
<g id="edge56" class="edge"><title>Node1&#45;&gt;Node44</title>
<path fill="none" stroke="midnightblue" d="M996.408,-403.444C959.813,-394.122 901.162,-379.183 861.174,-368.997"/>
<polygon fill="midnightblue" stroke="midnightblue" points="861.989,-365.593 851.435,-366.516 860.261,-372.377 861.989,-365.593"/>
</g>
<!-- Node3 -->
<g id="node3" class="node"><title>Node3</title>
<polygon fill="white" stroke="#bfbfbf" points="1710.5,-56.5 1710.5,-75.5 1755.5,-75.5 1755.5,-56.5 1710.5,-56.5"/>
<text text-anchor="middle" x="1733" y="-63.5" font-family="Helvetica,sans-Serif" font-size="10.00">climits</text>
</g>
<!-- Node2&#45;&gt;Node3 -->
<g id="edge2" class="edge"><title>Node2&#45;&gt;Node3</title>
<path fill="none" stroke="midnightblue" d="M970.74,-119.299C1128.29,-114.676 1543.32,-100.655 1700.48,-75.8357"/>
<polygon fill="midnightblue" stroke="midnightblue" points="1701.16,-79.271 1710.45,-74.1853 1700.01,-72.3649 1701.16,-79.271"/>
</g>
<!-- Node4 -->
<g id="node4" class="node"><title>Node4</title>
<polygon fill="white" stroke="#bfbfbf" points="64.5,-56.5 64.5,-75.5 111.5,-75.5 111.5,-56.5 64.5,-56.5"/>
<text text-anchor="middle" x="88" y="-63.5" font-family="Helvetica,sans-Serif" font-size="10.00">csignal</text>
</g>
<!-- Node2&#45;&gt;Node4 -->
<g id="edge3" class="edge"><title>Node2&#45;&gt;Node4</title>
<path fill="none" stroke="midnightblue" d="M847.252,-114.634C836.827,-113.671 826.11,-112.751 816,-112 510.86,-89.3436 428.171,-124.209 121.723,-75.7149"/>
<polygon fill="midnightblue" stroke="midnightblue" points="122.087,-72.2288 111.66,-74.1054 120.982,-79.1409 122.087,-72.2288"/>
</g>
<!-- Node5 -->
<g id="node5" class="node"><title>Node5</title>
<polygon fill="white" stroke="#bfbfbf" points="130,-56.5 130,-75.5 176,-75.5 176,-56.5 130,-56.5"/>
<text text-anchor="middle" x="153" y="-63.5" font-family="Helvetica,sans-Serif" font-size="10.00">cstdint</text>
</g>
<!-- Node2&#45;&gt;Node5 -->
<g id="edge4" class="edge"><title>Node2&#45;&gt;Node5</title>
<path fill="none" stroke="midnightblue" d="M847.499,-114.703C836.996,-113.726 826.189,-112.783 816,-112 539.208,-90.7194 463.818,-121.56 186.246,-75.8392"/>
<polygon fill="midnightblue" stroke="midnightblue" points="186.725,-72.3709 176.286,-74.1802 185.575,-79.2757 186.725,-72.3709"/>
</g>
<!-- Node6 -->
<g id="node6" class="node"><title>Node6</title>
<polygon fill="white" stroke="#bfbfbf" points="194,-56.5 194,-75.5 250,-75.5 250,-56.5 194,-56.5"/>
<text text-anchor="middle" x="222" y="-63.5" font-family="Helvetica,sans-Serif" font-size="10.00">cinttypes</text>
</g>
<!-- Node2&#45;&gt;Node6 -->
<g id="edge5" class="edge"><title>Node2&#45;&gt;Node6</title>
<path fill="none" stroke="midnightblue" d="M847.494,-114.768C836.991,-113.784 826.186,-112.822 816,-112 571.991,-92.3128 505.96,-112.901 260.131,-75.904"/>
<polygon fill="midnightblue" stroke="midnightblue" points="260.594,-72.4342 250.181,-74.3902 259.541,-79.3546 260.594,-72.4342"/>
</g>
<!-- Node7 -->
<g id="node7" class="node"><title>Node7</title>
<polygon fill="white" stroke="#bfbfbf" points="268.5,-56.5 268.5,-75.5 311.5,-75.5 311.5,-56.5 268.5,-56.5"/>
<text text-anchor="middle" x="290" y="-63.5" font-family="Helvetica,sans-Serif" font-size="10.00">cstdio</text>
</g>
<!-- Node2&#45;&gt;Node7 -->
<g id="edge6" class="edge"><title>Node2&#45;&gt;Node7</title>
<path fill="none" stroke="midnightblue" d="M847.488,-114.838C836.986,-113.846 826.183,-112.863 816,-112 599.426,-93.6479 539.849,-114.341 321.392,-75.6467"/>
<polygon fill="midnightblue" stroke="midnightblue" points="322.003,-72.2006 311.543,-73.8813 320.768,-79.0908 322.003,-72.2006"/>
</g>
<!-- Node8 -->
<g id="node8" class="node"><title>Node8</title>
<polygon fill="white" stroke="#bfbfbf" points="329.5,-56.5 329.5,-75.5 378.5,-75.5 378.5,-56.5 329.5,-56.5"/>
<text text-anchor="middle" x="354" y="-63.5" font-family="Helvetica,sans-Serif" font-size="10.00">cstddef</text>
</g>
<!-- Node2&#45;&gt;Node8 -->
<g id="edge7" class="edge"><title>Node2&#45;&gt;Node8</title>
<path fill="none" stroke="midnightblue" d="M847.479,-114.936C836.979,-113.933 826.178,-112.92 816,-112 629.131,-95.0997 577.841,-108.088 388.761,-75.8176"/>
<polygon fill="midnightblue" stroke="midnightblue" points="389.221,-72.3454 378.772,-74.0929 388.03,-79.2434 389.221,-72.3454"/>
</g>
<!-- Node9 -->
<g id="node9" class="node"><title>Node9</title>
<polygon fill="white" stroke="#bfbfbf" points="396.5,-56.5 396.5,-75.5 441.5,-75.5 441.5,-56.5 396.5,-56.5"/>
<text text-anchor="middle" x="419" y="-63.5" font-family="Helvetica,sans-Serif" font-size="10.00">cstdlib</text>
</g>
<!-- Node2&#45;&gt;Node9 -->
<g id="edge8" class="edge"><title>Node2&#45;&gt;Node9</title>
<path fill="none" stroke="midnightblue" d="M847.059,-114.984C734.464,-104.041 503.682,-81.5682 451.613,-75.2747"/>
<polygon fill="midnightblue" stroke="midnightblue" points="451.994,-71.7941 441.609,-73.8908 451.035,-78.7281 451.994,-71.7941"/>
</g>
<!-- Node10 -->
<g id="node10" class="node"><title>Node10</title>
<polygon fill="white" stroke="#bfbfbf" points="460,-56.5 460,-75.5 504,-75.5 504,-56.5 460,-56.5"/>
<text text-anchor="middle" x="482" y="-63.5" font-family="Helvetica,sans-Serif" font-size="10.00">cerrno</text>
</g>
<!-- Node2&#45;&gt;Node10 -->
<g id="edge9" class="edge"><title>Node2&#45;&gt;Node10</title>
<path fill="none" stroke="midnightblue" d="M847.183,-114.558C750.883,-104.441 570.949,-85.1863 514.366,-75.7934"/>
<polygon fill="midnightblue" stroke="midnightblue" points="514.705,-72.2975 504.239,-73.9456 513.449,-79.1838 514.705,-72.2975"/>
</g>
<!-- Node11 -->
<g id="node11" class="node"><title>Node11</title>
<polygon fill="white" stroke="#bfbfbf" points="0,-56.5 0,-75.5 46,-75.5 46,-56.5 0,-56.5"/>
<text text-anchor="middle" x="23" y="-63.5" font-family="Helvetica,sans-Serif" font-size="10.00">cstring</text>
</g>
<!-- Node2&#45;&gt;Node11 -->
<g id="edge10" class="edge"><title>Node2&#45;&gt;Node11</title>
<path fill="none" stroke="midnightblue" d="M847.255,-114.595C836.83,-113.637 826.112,-112.728 816,-112 481.572,-87.9224 390.999,-129.362 56.2569,-75.8191"/>
<polygon fill="midnightblue" stroke="midnightblue" points="56.7119,-72.3473 46.2816,-74.2071 55.5952,-79.2577 56.7119,-72.3473"/>
</g>
<!-- Node12 -->
<g id="node12" class="node"><title>Node12</title>
<polygon fill="white" stroke="#bfbfbf" points="522,-56.5 522,-75.5 566,-75.5 566,-56.5 522,-56.5"/>
<text text-anchor="middle" x="544" y="-63.5" font-family="Helvetica,sans-Serif" font-size="10.00">cmath</text>
</g>
<!-- Node2&#45;&gt;Node12 -->
<g id="edge11" class="edge"><title>Node2&#45;&gt;Node12</title>
<path fill="none" stroke="midnightblue" d="M847.496,-115.292C782.501,-108.676 676.906,-96.2677 576.312,-75.7708"/>
<polygon fill="midnightblue" stroke="midnightblue" points="576.783,-72.2941 566.282,-73.6962 575.365,-79.1491 576.783,-72.2941"/>
</g>
<!-- Node13 -->
<g id="node13" class="node"><title>Node13</title>
<polygon fill="white" stroke="#bfbfbf" points="584.5,-56.5 584.5,-75.5 629.5,-75.5 629.5,-56.5 584.5,-56.5"/>
<text text-anchor="middle" x="607" y="-63.5" font-family="Helvetica,sans-Serif" font-size="10.00">iosfwd</text>
</g>
<!-- Node2&#45;&gt;Node13 -->
<g id="edge12" class="edge"><title>Node2&#45;&gt;Node13</title>
<path fill="none" stroke="midnightblue" d="M847.24,-112.663C794.528,-105.103 716.561,-92.8717 639.525,-75.9025"/>
<polygon fill="midnightblue" stroke="midnightblue" points="640.17,-72.4604 629.648,-73.6992 638.646,-79.2925 640.17,-72.4604"/>
</g>
<!-- Node14 -->
<g id="node14" class="node"><title>Node14</title>
<polygon fill="white" stroke="#bfbfbf" points="648,-56.5 648,-75.5 702,-75.5 702,-56.5 648,-56.5"/>
<text text-anchor="middle" x="675" y="-63.5" font-family="Helvetica,sans-Serif" font-size="10.00">iostream</text>
</g>
<!-- Node2&#45;&gt;Node14 -->
<g id="edge13" class="edge"><title>Node2&#45;&gt;Node14</title>
<path fill="none" stroke="midnightblue" d="M870.244,-112.45C832.315,-104.026 772.651,-90.6209 711.873,-76.1716"/>
<polygon fill="midnightblue" stroke="midnightblue" points="712.651,-72.759 702.112,-73.8442 711.027,-79.5682 712.651,-72.759"/>
</g>
<!-- Node15 -->
<g id="node15" class="node"><title>Node15</title>
<polygon fill="white" stroke="#bfbfbf" points="720,-56.5 720,-75.5 772,-75.5 772,-56.5 720,-56.5"/>
<text text-anchor="middle" x="746" y="-63.5" font-family="Helvetica,sans-Serif" font-size="10.00">sstream</text>
</g>
<!-- Node2&#45;&gt;Node15 -->
<g id="edge14" class="edge"><title>Node2&#45;&gt;Node15</title>
<path fill="none" stroke="midnightblue" d="M883.172,-112.444C855.751,-103.359 812.223,-88.9388 781.568,-78.7831"/>
<polygon fill="midnightblue" stroke="midnightblue" points="782.3,-75.3389 771.707,-75.5164 780.099,-81.9837 782.3,-75.3389"/>
</g>
<!-- Node16 -->
<g id="node16" class="node"><title>Node16</title>
<polygon fill="white" stroke="#bfbfbf" points="790.5,-56.5 790.5,-75.5 831.5,-75.5 831.5,-56.5 790.5,-56.5"/>
<text text-anchor="middle" x="811" y="-63.5" font-family="Helvetica,sans-Serif" font-size="10.00">regex</text>
</g>
<!-- Node2&#45;&gt;Node16 -->
<g id="edge15" class="edge"><title>Node2&#45;&gt;Node16</title>
<path fill="none" stroke="midnightblue" d="M893.255,-112.324C877.681,-103.743 853.623,-90.486 835.541,-80.5224"/>
<polygon fill="midnightblue" stroke="midnightblue" points="837.154,-77.4152 826.706,-75.6545 833.776,-83.546 837.154,-77.4152"/>
</g>
<!-- Node17 -->
<g id="node17" class="node"><title>Node17</title>
<polygon fill="white" stroke="#bfbfbf" points="850,-56.5 850,-75.5 900,-75.5 900,-56.5 850,-56.5"/>
<text text-anchor="middle" x="875" y="-63.5" font-family="Helvetica,sans-Serif" font-size="10.00">iomanip</text>
</g>
<!-- Node2&#45;&gt;Node17 -->
<g id="edge16" class="edge"><title>Node2&#45;&gt;Node17</title>
<path fill="none" stroke="midnightblue" d="M903.386,-112.083C898.633,-104.534 891.682,-93.4948 885.848,-84.2298"/>
<polygon fill="midnightblue" stroke="midnightblue" points="888.8,-82.3486 880.51,-75.7511 882.876,-86.0783 888.8,-82.3486"/>
</g>
<!-- Node18 -->
<g id="node18" class="node"><title>Node18</title>
<polygon fill="white" stroke="#bfbfbf" points="918.5,-56.5 918.5,-75.5 969.5,-75.5 969.5,-56.5 918.5,-56.5"/>
<text text-anchor="middle" x="944" y="-63.5" font-family="Helvetica,sans-Serif" font-size="10.00">unistd.h</text>
</g>
<!-- Node2&#45;&gt;Node18 -->
<g id="edge17" class="edge"><title>Node2&#45;&gt;Node18</title>
<path fill="none" stroke="midnightblue" d="M914.78,-112.083C919.672,-104.534 926.827,-93.4948 932.833,-84.2298"/>
<polygon fill="midnightblue" stroke="midnightblue" points="935.826,-86.0463 938.328,-75.7511 929.952,-82.239 935.826,-86.0463"/>
</g>
<!-- Node19 -->
<g id="node19" class="node"><title>Node19</title>
<polygon fill="white" stroke="#bfbfbf" points="988,-56.5 988,-75.5 1032,-75.5 1032,-56.5 988,-56.5"/>
<text text-anchor="middle" x="1010" y="-63.5" font-family="Helvetica,sans-Serif" font-size="10.00">fcntl.h</text>
</g>
<!-- Node2&#45;&gt;Node19 -->
<g id="edge18" class="edge"><title>Node2&#45;&gt;Node19</title>
<path fill="none" stroke="midnightblue" d="M925.227,-112.324C941.351,-103.703 966.3,-90.3643 984.964,-80.3855"/>
<polygon fill="midnightblue" stroke="midnightblue" points="986.644,-83.456 993.813,-75.6545 983.344,-77.283 986.644,-83.456"/>
</g>
<!-- Node20 -->
<g id="node20" class="node"><title>Node20</title>
<polygon fill="white" stroke="#bfbfbf" points="1050,-56.5 1050,-75.5 1090,-75.5 1090,-56.5 1050,-56.5"/>
<text text-anchor="middle" x="1070" y="-63.5" font-family="Helvetica,sans-Serif" font-size="10.00">limits</text>
</g>
<!-- Node2&#45;&gt;Node20 -->
<g id="edge19" class="edge"><title>Node2&#45;&gt;Node20</title>
<path fill="none" stroke="midnightblue" d="M934.511,-112.444C963.189,-102.825 1009.7,-87.2238 1040.07,-77.0372"/>
<polygon fill="midnightblue" stroke="midnightblue" points="1041.34,-80.305 1049.71,-73.8067 1039.11,-73.6683 1041.34,-80.305"/>
</g>
<!-- Node21 -->
<g id="node21" class="node"><title>Node21</title>
<polygon fill="white" stroke="#bfbfbf" points="1651.5,-0.5 1651.5,-19.5 1692.5,-19.5 1692.5,-0.5 1651.5,-0.5"/>
<text text-anchor="middle" x="1672" y="-7.5" font-family="Helvetica,sans-Serif" font-size="10.00">string</text>
</g>
<!-- Node2&#45;&gt;Node21 -->
<g id="edge20" class="edge"><title>Node2&#45;&gt;Node21</title>
<path fill="none" stroke="midnightblue" d="M970.709,-119.762C1108.31,-116.493 1436.52,-105.739 1543,-76 1561.76,-70.76 1564.62,-64.8003 1582,-56 1603.3,-45.2125 1627.51,-33.1157 1645.46,-24.1832"/>
<polygon fill="midnightblue" stroke="midnightblue" points="1647.33,-27.1623 1654.72,-19.5746 1644.21,-20.895 1647.33,-27.1623"/>
</g>
<!-- Node22 -->
<g id="node22" class="node"><title>Node22</title>
<polygon fill="white" stroke="#bfbfbf" points="1374,-0.5 1374,-19.5 1418,-19.5 1418,-0.5 1374,-0.5"/>
<text text-anchor="middle" x="1396" y="-7.5" font-family="Helvetica,sans-Serif" font-size="10.00">vector</text>
</g>
<!-- Node2&#45;&gt;Node22 -->
<g id="edge21" class="edge"><title>Node2&#45;&gt;Node22</title>
<path fill="none" stroke="midnightblue" d="M970.569,-118.218C1087.37,-112.463 1332.36,-97.9266 1364,-76 1379.47,-65.2778 1387.79,-44.8748 1392.03,-29.7759"/>
<polygon fill="midnightblue" stroke="midnightblue" points="1395.46,-30.4788 1394.44,-19.9332 1388.67,-28.8133 1395.46,-30.4788"/>
</g>
<!-- Node23 -->
<g id="node23" class="node"><title>Node23</title>
<polygon fill="white" stroke="#bfbfbf" points="1590.5,-56.5 1590.5,-75.5 1631.5,-75.5 1631.5,-56.5 1590.5,-56.5"/>
<text text-anchor="middle" x="1611" y="-63.5" font-family="Helvetica,sans-Serif" font-size="10.00">stack</text>
</g>
<!-- Node2&#45;&gt;Node23 -->
<g id="edge22" class="edge"><title>Node2&#45;&gt;Node23</title>
<path fill="none" stroke="midnightblue" d="M970.581,-120.624C1088.74,-119.071 1355.13,-111.537 1576,-76 1577.47,-75.7633 1578.97,-75.4931 1580.48,-75.1975"/>
<polygon fill="midnightblue" stroke="midnightblue" points="1581.42,-78.5748 1590.4,-72.9679 1579.88,-71.745 1581.42,-78.5748"/>
</g>
<!-- Node24 -->
<g id="node24" class="node"><title>Node24</title>
<polygon fill="white" stroke="#bfbfbf" points="1649.5,-56.5 1649.5,-75.5 1692.5,-75.5 1692.5,-56.5 1649.5,-56.5"/>
<text text-anchor="middle" x="1671" y="-63.5" font-family="Helvetica,sans-Serif" font-size="10.00">deque</text>
</g>
<!-- Node2&#45;&gt;Node24 -->
<g id="edge23" class="edge"><title>Node2&#45;&gt;Node24</title>
<path fill="none" stroke="midnightblue" d="M970.671,-119.034C1119.24,-114.011 1494.76,-99.5361 1639.19,-75.8951"/>
<polygon fill="midnightblue" stroke="midnightblue" points="1639.92,-79.3209 1649.19,-74.1772 1638.74,-72.422 1639.92,-79.3209"/>
</g>
<!-- Node25 -->
<g id="node25" class="node"><title>Node25</title>
<polygon fill="white" stroke="#bfbfbf" points="1028,-0.5 1028,-19.5 1072,-19.5 1072,-0.5 1028,-0.5"/>
<text text-anchor="middle" x="1050" y="-7.5" font-family="Helvetica,sans-Serif" font-size="10.00">mutex</text>
</g>
<!-- Node2&#45;&gt;Node25 -->
<g id="edge24" class="edge"><title>Node2&#45;&gt;Node25</title>
<path fill="none" stroke="midnightblue" d="M970.658,-114.631C1019.87,-108.124 1083.12,-96.0747 1099,-76 1112.62,-58.7754 1091.65,-38.5126 1073.07,-25.2461"/>
<polygon fill="midnightblue" stroke="midnightblue" points="1074.81,-22.2003 1064.56,-19.5093 1070.9,-28.0033 1074.81,-22.2003"/>
</g>
<!-- Node26 -->
<g id="node26" class="node"><title>Node26</title>
<polygon fill="white" stroke="#bfbfbf" points="1090,-0.5 1090,-19.5 1134,-19.5 1134,-0.5 1090,-0.5"/>
<text text-anchor="middle" x="1112" y="-7.5" font-family="Helvetica,sans-Serif" font-size="10.00">thread</text>
</g>
<!-- Node2&#45;&gt;Node26 -->
<g id="edge25" class="edge"><title>Node2&#45;&gt;Node26</title>
<path fill="none" stroke="midnightblue" d="M970.545,-115.946C1024.51,-110.086 1097.09,-98.2408 1115,-76 1125.39,-63.0982 1122.89,-43.6525 1118.86,-29.3913"/>
<polygon fill="midnightblue" stroke="midnightblue" points="1122.12,-28.0958 1115.67,-19.6906 1115.47,-30.2835 1122.12,-28.0958"/>
</g>
<!-- Node27 -->
<g id="node27" class="node"><title>Node27</title>
<polygon fill="white" stroke="#bfbfbf" points="1152.5,-0.5 1152.5,-19.5 1247.5,-19.5 1247.5,-0.5 1152.5,-0.5"/>
<text text-anchor="middle" x="1200" y="-7.5" font-family="Helvetica,sans-Serif" font-size="10.00">condition_variable</text>
</g>
<!-- Node2&#45;&gt;Node27 -->
<g id="edge26" class="edge"><title>Node2&#45;&gt;Node27</title>
<path fill="none" stroke="midnightblue" d="M970.75,-117.806C1017.32,-113.262 1081.58,-102.313 1132,-76 1154.51,-64.252 1174.76,-42.7969 1187.19,-27.7598"/>
<polygon fill="midnightblue" stroke="midnightblue" points="1190.07,-29.7697 1193.57,-19.7697 1184.6,-25.4043 1190.07,-29.7697"/>
</g>
<!-- Node28 -->
<g id="node28" class="node"><title>Node28</title>
<polygon fill="white" stroke="#bfbfbf" points="1312.5,-0.5 1312.5,-19.5 1355.5,-19.5 1355.5,-0.5 1312.5,-0.5"/>
<text text-anchor="middle" x="1334" y="-7.5" font-family="Helvetica,sans-Serif" font-size="10.00">queue</text>
</g>
<!-- Node2&#45;&gt;Node28 -->
<g id="edge27" class="edge"><title>Node2&#45;&gt;Node28</title>
<path fill="none" stroke="midnightblue" d="M970.587,-119.156C1085.28,-115.084 1322.26,-103.416 1347,-76 1358.53,-63.2278 1352.16,-43.2057 1344.86,-28.7571"/>
<polygon fill="midnightblue" stroke="midnightblue" points="1347.8,-26.8343 1339.87,-19.8023 1341.68,-30.2414 1347.8,-26.8343"/>
</g>
<!-- Node29 -->
<g id="node29" class="node"><title>Node29</title>
<polygon fill="white" stroke="#bfbfbf" points="1436.5,-0.5 1436.5,-19.5 1471.5,-19.5 1471.5,-0.5 1436.5,-0.5"/>
<text text-anchor="middle" x="1454" y="-7.5" font-family="Helvetica,sans-Serif" font-size="10.00">map</text>
</g>
<!-- Node2&#45;&gt;Node29 -->
<g id="edge28" class="edge"><title>Node2&#45;&gt;Node29</title>
<path fill="none" stroke="midnightblue" d="M970.785,-120.171C1082.58,-117.855 1313.55,-109.09 1386,-76 1409.35,-65.3367 1429.65,-43.2696 1441.86,-27.8186"/>
<polygon fill="midnightblue" stroke="midnightblue" points="1444.82,-29.7065 1448.07,-19.6221 1439.24,-25.4795 1444.82,-29.7065"/>
</g>
<!-- Node30 -->
<g id="node30" class="node"><title>Node30</title>
<g id="a_node30"><a xlink:href="cosmos-defs_8h.html" target="_top" xlink:title="COSMOS definitions Definitions specific to the COSMOS environement. ">
<polygon fill="white" stroke="black" points="1222,-56.5 1222,-75.5 1338,-75.5 1338,-56.5 1222,-56.5"/>
<text text-anchor="middle" x="1280" y="-63.5" font-family="Helvetica,sans-Serif" font-size="10.00">support/cosmos&#45;defs.h</text>
</a>
</g>
</g>
<!-- Node2&#45;&gt;Node30 -->
<g id="edge29" class="edge"><title>Node2&#45;&gt;Node30</title>
<path fill="none" stroke="midnightblue" d="M967.786,-112.444C1034.1,-102.792 1141.79,-87.1174 1211.75,-76.9333"/>
<polygon fill="midnightblue" stroke="midnightblue" points="1212.4,-80.3759 1221.79,-75.4719 1211.39,-73.4489 1212.4,-80.3759"/>
</g>
<!-- Node32 -->
<g id="node32" class="node"><title>Node32</title>
<g id="a_node32"><a xlink:href="json11_8hpp.html" target="_top" xlink:title="json11.hpp">
<polygon fill="white" stroke="black" points="1470,-56.5 1470,-75.5 1534,-75.5 1534,-56.5 1470,-56.5"/>
<text text-anchor="middle" x="1502" y="-63.5" font-family="Helvetica,sans-Serif" font-size="10.00">json11.hpp</text>
</a>
</g>
</g>
<!-- Node2&#45;&gt;Node32 -->
<g id="edge37" class="edge"><title>Node2&#45;&gt;Node32</title>
<path fill="none" stroke="midnightblue" d="M970.769,-118.159C1072.36,-112.986 1280.92,-100.253 1456,-76 1457.27,-75.8241 1458.56,-75.6359 1459.86,-75.4373"/>
<polygon fill="midnightblue" stroke="midnightblue" points="1460.62,-78.8576 1469.91,-73.7515 1459.46,-71.9541 1460.62,-78.8576"/>
</g>
<!-- Node30&#45;&gt;Node22 -->
<g id="edge31" class="edge"><title>Node30&#45;&gt;Node22</title>
<path fill="none" stroke="midnightblue" d="M1298.38,-56.4435C1317.22,-47.6751 1346.73,-33.9355 1368.38,-23.8579"/>
<polygon fill="midnightblue" stroke="midnightblue" points="1370.12,-26.9098 1377.71,-19.5164 1367.16,-20.5637 1370.12,-26.9098"/>
</g>
<!-- Node30&#45;&gt;Node25 -->
<g id="edge35" class="edge"><title>Node30&#45;&gt;Node25</title>
<path fill="none" stroke="midnightblue" d="M1239.05,-56.4926C1200.82,-48.384 1141.98,-35.4763 1082.28,-20.2195"/>
<polygon fill="midnightblue" stroke="midnightblue" points="1082.86,-16.7554 1072.31,-17.6501 1081.12,-23.5341 1082.86,-16.7554"/>
</g>
<!-- Node30&#45;&gt;Node26 -->
<g id="edge34" class="edge"><title>Node30&#45;&gt;Node26</title>
<path fill="none" stroke="midnightblue" d="M1253.38,-56.4435C1223.66,-46.8902 1175.58,-31.436 1143.88,-21.2461"/>
<polygon fill="midnightblue" stroke="midnightblue" points="1144.79,-17.8649 1134.2,-18.1368 1142.65,-24.5291 1144.79,-17.8649"/>
</g>
<!-- Node30&#45;&gt;Node27 -->
<g id="edge36" class="edge"><title>Node30&#45;&gt;Node27</title>
<path fill="none" stroke="midnightblue" d="M1267.15,-56.324C1254.78,-47.979 1235.87,-35.2122 1221.26,-25.3524"/>
<polygon fill="midnightblue" stroke="midnightblue" points="1223.07,-22.3483 1212.82,-19.6545 1219.15,-28.1503 1223.07,-22.3483"/>
</g>
<!-- Node30&#45;&gt;Node28 -->
<g id="edge33" class="edge"><title>Node30&#45;&gt;Node28</title>
<path fill="none" stroke="midnightblue" d="M1288.92,-56.083C1296.78,-48.2195 1308.43,-36.5688 1317.92,-27.0813"/>
<polygon fill="midnightblue" stroke="midnightblue" points="1320.65,-29.2971 1325.25,-19.7511 1315.7,-24.3473 1320.65,-29.2971"/>
</g>
<!-- Node30&#45;&gt;Node29 -->
<g id="edge30" class="edge"><title>Node30&#45;&gt;Node29</title>
<path fill="none" stroke="midnightblue" d="M1308.52,-56.4967C1336.27,-48.1726 1379.86,-34.9676 1426.6,-20.0708"/>
<polygon fill="midnightblue" stroke="midnightblue" points="1427.84,-23.3483 1436.3,-16.9689 1425.71,-16.6809 1427.84,-23.3483"/>
</g>
<!-- Node31 -->
<g id="node31" class="node"><title>Node31</title>
<polygon fill="white" stroke="#bfbfbf" points="1265.5,-0.5 1265.5,-19.5 1294.5,-19.5 1294.5,-0.5 1265.5,-0.5"/>
<text text-anchor="middle" x="1280" y="-7.5" font-family="Helvetica,sans-Serif" font-size="10.00">list</text>
</g>
<!-- Node30&#45;&gt;Node31 -->
<g id="edge32" class="edge"><title>Node30&#45;&gt;Node31</title>
<path fill="none" stroke="midnightblue" d="M1280,-56.083C1280,-49.0059 1280,-38.8611 1280,-29.9865"/>
<polygon fill="midnightblue" stroke="midnightblue" points="1283.5,-29.751 1280,-19.7511 1276.5,-29.7511 1283.5,-29.751"/>
</g>
<!-- Node32&#45;&gt;Node21 -->
<g id="edge38" class="edge"><title>Node32&#45;&gt;Node21</title>
<path fill="none" stroke="midnightblue" d="M1528.94,-56.4435C1559.6,-46.7024 1609.58,-30.826 1641.62,-20.6512"/>
<polygon fill="midnightblue" stroke="midnightblue" points="1642.87,-23.9263 1651.34,-17.5631 1640.75,-17.2548 1642.87,-23.9263"/>
</g>
<!-- Node32&#45;&gt;Node22 -->
<g id="edge39" class="edge"><title>Node32&#45;&gt;Node22</title>
<path fill="none" stroke="midnightblue" d="M1484.97,-56.324C1467.97,-47.6641 1441.62,-34.2424 1422.01,-24.249"/>
<polygon fill="midnightblue" stroke="midnightblue" points="1423.49,-21.0752 1412.99,-19.6545 1420.31,-27.3125 1423.49,-21.0752"/>
</g>
<!-- Node32&#45;&gt;Node29 -->
<g id="edge40" class="edge"><title>Node32&#45;&gt;Node29</title>
<path fill="none" stroke="midnightblue" d="M1494.07,-56.083C1487.15,-48.2982 1476.93,-36.8015 1468.55,-27.3665"/>
<polygon fill="midnightblue" stroke="midnightblue" points="1471.04,-24.8999 1461.78,-19.7511 1465.81,-29.5505 1471.04,-24.8999"/>
</g>
<!-- Node33 -->
<g id="node33" class="node"><title>Node33</title>
<polygon fill="white" stroke="#bfbfbf" points="1490,-0.5 1490,-19.5 1542,-19.5 1542,-0.5 1490,-0.5"/>
<text text-anchor="middle" x="1516" y="-7.5" font-family="Helvetica,sans-Serif" font-size="10.00">memory</text>
</g>
<!-- Node32&#45;&gt;Node33 -->
<g id="edge41" class="edge"><title>Node32&#45;&gt;Node33</title>
<path fill="none" stroke="midnightblue" d="M1504.31,-56.083C1506.17,-48.9272 1508.84,-38.6353 1511.15,-29.6911"/>
<polygon fill="midnightblue" stroke="midnightblue" points="1514.61,-30.3094 1513.73,-19.7511 1507.83,-28.5527 1514.61,-30.3094"/>
</g>
<!-- Node34 -->
<g id="node34" class="node"><title>Node34</title>
<polygon fill="white" stroke="#bfbfbf" points="1560.5,-0.5 1560.5,-19.5 1633.5,-19.5 1633.5,-0.5 1560.5,-0.5"/>
<text text-anchor="middle" x="1597" y="-7.5" font-family="Helvetica,sans-Serif" font-size="10.00">initializer_list</text>
</g>
<!-- Node32&#45;&gt;Node34 -->
<g id="edge42" class="edge"><title>Node32&#45;&gt;Node34</title>
<path fill="none" stroke="midnightblue" d="M1517.26,-56.324C1532.22,-47.8215 1555.25,-34.7288 1572.73,-24.7975"/>
<polygon fill="midnightblue" stroke="midnightblue" points="1574.81,-27.639 1581.77,-19.6545 1571.35,-21.5534 1574.81,-27.639"/>
</g>
<!-- Node40&#45;&gt;Node2 -->
<g id="edge49" class="edge"><title>Node40&#45;&gt;Node2</title>
<path fill="none" stroke="midnightblue" d="M847.657,-280.203C855.143,-270.468 864.622,-257.03 871,-244 887.88,-209.513 899.396,-165.865 905.023,-141.538"/>
<polygon fill="midnightblue" stroke="midnightblue" points="908.49,-142.07 907.251,-131.548 901.658,-140.546 908.49,-142.07"/>
</g>
<!-- Node41 -->
<g id="node41" class="node"><title>Node41</title>
<g id="a_node41"><a xlink:href="sliplib_8h.html" target="_top" xlink:title="COSMOS SLIP support include file. ">
<polygon fill="white" stroke="black" points="776.5,-224.5 776.5,-243.5 861.5,-243.5 861.5,-224.5 776.5,-224.5"/>
<text text-anchor="middle" x="819" y="-231.5" font-family="Helvetica,sans-Serif" font-size="10.00">support/sliplib.h</text>
</a>
</g>
</g>
<!-- Node40&#45;&gt;Node41 -->
<g id="edge50" class="edge"><title>Node40&#45;&gt;Node41</title>
<path fill="none" stroke="midnightblue" d="M831.971,-280.399C829.654,-272.288 826.716,-262.007 824.223,-253.281"/>
<polygon fill="midnightblue" stroke="midnightblue" points="827.586,-252.311 821.474,-243.658 820.856,-254.235 827.586,-252.311"/>
</g>
<!-- Node41&#45;&gt;Node2 -->
<g id="edge51" class="edge"><title>Node41&#45;&gt;Node2</title>
<path fill="none" stroke="midnightblue" d="M826.062,-224.368C841.046,-206.055 876.233,-163.049 895.613,-139.362"/>
<polygon fill="midnightblue" stroke="midnightblue" points="898.347,-141.547 901.971,-131.591 892.929,-137.115 898.347,-141.547"/>
</g>
<!-- Node41&#45;&gt;Node11 -->
<g id="edge55" class="edge"><title>Node41&#45;&gt;Node11</title>
<path fill="none" stroke="midnightblue" d="M776.103,-225.299C660.954,-204.389 335.449,-143.722 55.9433,-76.0953"/>
<polygon fill="midnightblue" stroke="midnightblue" points="56.5636,-72.6443 46.0202,-73.6867 54.9125,-79.4468 56.5636,-72.6443"/>
</g>
<!-- Node42 -->
<g id="node42" class="node"><title>Node42</title>
<g id="a_node42"><a xlink:href="cosmos-errno_8h.html" target="_top" xlink:title="COSMOS Error Codes. ">
<polygon fill="white" stroke="black" points="723.5,-168.5 723.5,-187.5 842.5,-187.5 842.5,-168.5 723.5,-168.5"/>
<text text-anchor="middle" x="783" y="-175.5" font-family="Helvetica,sans-Serif" font-size="10.00">support/cosmos&#45;errno.h</text>
</a>
</g>
</g>
<!-- Node41&#45;&gt;Node42 -->
<g id="edge52" class="edge"><title>Node41&#45;&gt;Node42</title>
<path fill="none" stroke="midnightblue" d="M813.055,-224.083C808.023,-216.534 800.663,-205.495 794.487,-196.23"/>
<polygon fill="midnightblue" stroke="midnightblue" points="797.293,-194.13 788.834,-187.751 791.469,-198.013 797.293,-194.13"/>
</g>
<!-- Node42&#45;&gt;Node2 -->
<g id="edge53" class="edge"><title>Node42&#45;&gt;Node2</title>
<path fill="none" stroke="midnightblue" d="M802.965,-168.444C823.609,-159.596 856.063,-145.687 879.632,-135.586"/>
<polygon fill="midnightblue" stroke="midnightblue" points="881.316,-138.673 889.128,-131.516 878.558,-132.239 881.316,-138.673"/>
</g>
<!-- Node43 -->
<g id="node43" class="node"><title>Node43</title>
<polygon fill="white" stroke="#bfbfbf" points="759.5,-112.5 759.5,-131.5 806.5,-131.5 806.5,-112.5 759.5,-112.5"/>
<text text-anchor="middle" x="783" y="-119.5" font-family="Helvetica,sans-Serif" font-size="10.00">errno.h</text>
</g>
<!-- Node42&#45;&gt;Node43 -->
<g id="edge54" class="edge"><title>Node42&#45;&gt;Node43</title>
<path fill="none" stroke="midnightblue" d="M783,-168.083C783,-161.006 783,-150.861 783,-141.986"/>
<polygon fill="midnightblue" stroke="midnightblue" points="786.5,-141.751 783,-131.751 779.5,-141.751 786.5,-141.751"/>
</g>
<!-- Node44&#45;&gt;Node40 -->
<g id="edge57" class="edge"><title>Node44&#45;&gt;Node40</title>
<path fill="none" stroke="midnightblue" d="M820.579,-347.475C822.721,-340.396 825.874,-329.97 828.773,-320.39"/>
<polygon fill="midnightblue" stroke="midnightblue" points="832.212,-321.108 831.758,-310.523 825.512,-319.081 832.212,-321.108"/>
</g>
</g>
</svg>
        <g id="navigator" transform="translate(0 0)" fill="#404254">
                <rect fill="#f2f5e9" fill-opacity="0.5" stroke="#606060" stroke-width=".5" x="0" y="0" width="60" height="60"/>
                <use id="zoomplus" xlink:href="#zoomPlus" x="17" y="9" onmousedown="handleZoom(evt,'in')"/>
                <use id="zoomminus" xlink:href="#zoomMin" x="42" y="9" onmousedown="handleZoom(evt,'out')"/>
                <use id="reset" xlink:href="#resetDef" x="30" y="36" onmousedown="handleReset()"/>
                <g id="arrowUp" xlink:href="#dirArrow" transform="translate(30 24)" onmousedown="handlePan(0,-1)">
                  <use xlink:href="#rim" fill="#404040">
                        <set attributeName="fill" to="#808080" begin="arrowUp.mouseover" end="arrowUp.mouseout"/>
                  </use>
                  <path fill="none" stroke="white" stroke-width="1.5" d="M0,-3.0v7 M-2.5,-0.5L0,-3.0L2.5,-0.5"/>
                </g>
                <g id="arrowRight" xlink:href="#dirArrow" transform="rotate(90) translate(36 -43)" onmousedown="handlePan(1,0)">
                  <use xlink:href="#rim" fill="#404040">
                        <set attributeName="fill" to="#808080" begin="arrowRight.mouseover" end="arrowRight.mouseout"/>
                  </use>
                  <path fill="none" stroke="white" stroke-width="1.5" d="M0,-3.0v7 M-2.5,-0.5L0,-3.0L2.5,-0.5"/>
                </g>
                <g id="arrowDown" xlink:href="#dirArrow" transform="rotate(180) translate(-30 -48)" onmousedown="handlePan(0,1)">
                  <use xlink:href="#rim" fill="#404040">
                        <set attributeName="fill" to="#808080" begin="arrowDown.mouseover" end="arrowDown.mouseout"/>
                  </use>
                  <path fill="none" stroke="white" stroke-width="1.5" d="M0,-3.0v7 M-2.5,-0.5L0,-3.0L2.5,-0.5"/>
                </g>
                <g id="arrowLeft" xlink:href="#dirArrow" transform="rotate(270) translate(-36 17)" onmousedown="handlePan(-1,0)">
                  <use xlink:href="#rim" fill="#404040">
                        <set attributeName="fill" to="#808080" begin="arrowLeft.mouseover" end="arrowLeft.mouseout"/>
                  </use>
                  <path fill="none" stroke="white" stroke-width="1.5" d="M0,-3.0v7 M-2.5,-0.5L0,-3.0L2.5,-0.5"/>
                </g>
        </g>
        <svg viewBox="0 0 15 15" width="100%" height="30px" preserveAspectRatio="xMaxYMin meet">
         <g id="arrow_out" transform="scale(0.3 0.3)">
          <a xlink:href="bb_fctns_8cpp__incl_org.svg" target="_base">
           <rect id="button" ry="5" rx="5" y="6" x="6" height="38" width="38"
                fill="#f2f5e9" fill-opacity="0.5" stroke="#606060" stroke-width="1.0"/>
           <path id="arrow"
             d="M 11.500037,31.436501 C 11.940474,20.09759 22.043105,11.32322 32.158766,21.979434 L 37.068811,17.246167 C 37.068811,17.246167 37.088388,32 37.088388,32 L 22.160133,31.978069 C 22.160133,31.978069 26.997745,27.140456 26.997745,27.140456 C 18.528582,18.264221 13.291696,25.230495 11.500037,31.436501 z"
             style="fill:#404040;"/>
          </a>
         </g>
        </svg>
</svg>
