<?xml version="1.0" encoding="UTF-8" standalone="no"?>
<!DOCTYPE svg PUBLIC "-//W3C//DTD SVG 1.1//EN"
 "http://www.w3.org/Graphics/SVG/1.1/DTD/svg11.dtd">
<!-- Generated by graphviz version 2.38.0 (20140413.2041)
 -->
<!-- Title: json11::JsonNull Pages: 1 -->
<!--zoomable 452 -->
<svg id="main" version="1.1" xmlns="http://www.w3.org/2000/svg" xmlns:xlink="http://www.w3.org/1999/xlink" xml:space="preserve" onload="init(evt)">
<style type="text/css"><![CDATA[
.edge:hover path { stroke: red; }
.edge:hover polygon { stroke: red; fill: red; }
]]></style>
<script type="text/javascript"><![CDATA[
var edges = document.getElementsByTagName('g');
if (edges && edges.length) {
  for (var i=0;i<edges.length;i++) {
    if (edges[i].id.substr(0,4)=='edge') {
      edges[i].setAttribute('class','edge');
    }
  }
}
]]></script>
        <defs>
                <circle id="rim" cx="0" cy="0" r="7"/>
                <circle id="rim2" cx="0" cy="0" r="3.5"/>
                <g id="zoomPlus">
                        <use xlink:href="#rim" fill="#404040">
                                <set attributeName="fill" to="#808080" begin="zoomplus.mouseover" end="zoomplus.mouseout"/>
                        </use>
                        <path d="M-4,0h8M0,-4v8" fill="none" stroke="white" stroke-width="1.5" pointer-events="none"/>
                </g>
                <g id="zoomMin">
                        <use xlink:href="#rim" fill="#404040">
                                <set attributeName="fill" to="#808080" begin="zoomminus.mouseover" end="zoomminus.mouseout"/>
                        </use>
                        <path d="M-4,0h8" fill="none" stroke="white" stroke-width="1.5" pointer-events="none"/>
                </g>
                <g id="dirArrow">
                        <path fill="none" stroke="white" stroke-width="1.5" d="M0,-3.0v7 M-2.5,-0.5L0,-3.0L2.5,-0.5"/>
                </g>
               <g id="resetDef">
                       <use xlink:href="#rim2" fill="#404040">
                               <set attributeName="fill" to="#808080" begin="reset.mouseover" end="reset.mouseout"/>
                       </use>
               </g>
        </defs>

<script type="text/javascript">
var viewWidth = 114;
var viewHeight = 452;
var sectionId = 'dynsection-0';
</script>
<script xlink:href="svgpan.js"/>
<svg id="graph" class="graph">
<g id="viewport">
<title>json11::JsonNull</title>
<polygon fill="white" stroke="none" points="-4,4 -4,-448 110,-448 110,4 -4,4"/>
<!-- Node1 -->
<g id="node1" class="node"><title>Node1</title>
<polygon fill="#bfbfbf" stroke="black" points="8.5,-0.5 8.5,-57.5 97.5,-57.5 97.5,-0.5 8.5,-0.5"/>
<text text-anchor="middle" x="53" y="-45.5" font-family="Helvetica,sans-Serif" font-size="10.00">json11::JsonNull</text>
<polyline fill="none" stroke="black" points="8.5,-38.5 97.5,-38.5 "/>
<text text-anchor="middle" x="53" y="-26.5" font-family="Helvetica,sans-Serif" font-size="10.00"> </text>
<polyline fill="none" stroke="black" points="8.5,-19.5 97.5,-19.5 "/>
<text text-anchor="start" x="16.5" y="-7.5" font-family="Helvetica,sans-Serif" font-size="10.00">+ JsonNull()</text>
</g>
<!-- Node2 -->
<g id="node2" class="node"><title>Node2</title>
<g id="a_node2"><a xlink:href="classjson11_1_1_value.html" target="_top" xlink:title="{json11::Value\&lt; Json\l::NUL, NullStruct \&gt;\n|# m_value\l|# Value()\l# Value()\l# type()\l# equals()\l# less()\l# dump()\l}">
<polygon fill="white" stroke="black" points="-7.10543e-15,-94.5 -7.10543e-15,-217.5 106,-217.5 106,-94.5 -7.10543e-15,-94.5"/>
<text text-anchor="start" x="8" y="-205.5" font-family="Helvetica,sans-Serif" font-size="10.00">json11::Value&lt; Json</text>
<text text-anchor="middle" x="53" y="-194.5" font-family="Helvetica,sans-Serif" font-size="10.00">::NUL, NullStruct &gt;</text>
<polyline fill="none" stroke="black" points="-7.10543e-15,-187.5 106,-187.5 "/>
<text text-anchor="start" x="8" y="-175.5" font-family="Helvetica,sans-Serif" font-size="10.00"># m_value</text>
<polyline fill="none" stroke="black" points="-7.10543e-15,-168.5 106,-168.5 "/>
<text text-anchor="start" x="8" y="-156.5" font-family="Helvetica,sans-Serif" font-size="10.00"># Value()</text>
<text text-anchor="start" x="8" y="-145.5" font-family="Helvetica,sans-Serif" font-size="10.00"># Value()</text>
<text text-anchor="start" x="8" y="-134.5" font-family="Helvetica,sans-Serif" font-size="10.00"># type()</text>
<text text-anchor="start" x="8" y="-123.5" font-family="Helvetica,sans-Serif" font-size="10.00"># equals()</text>
<text text-anchor="start" x="8" y="-112.5" font-family="Helvetica,sans-Serif" font-size="10.00"># less()</text>
<text text-anchor="start" x="8" y="-101.5" font-family="Helvetica,sans-Serif" font-size="10.00"># dump()</text>
</a>
</g>
</g>
<!-- Node2&#45;&gt;Node1 -->
<g id="edge1" class="edge"><title>Node2&#45;&gt;Node1</title>
<path fill="none" stroke="midnightblue" d="M53,-84.1384C53,-74.7999 53,-65.715 53,-57.7379"/>
<polygon fill="none" stroke="midnightblue" points="49.5001,-84.3308 53,-94.3308 56.5001,-84.3309 49.5001,-84.3308"/>
</g>
<!-- Node3 -->
<g id="node3" class="node"><title>Node3</title>
<g id="a_node3"><a xlink:href="classjson11_1_1_json_value.html" target="_top" xlink:title="{json11::JsonValue\n||# type()\l# equals()\l# less()\l# dump()\l# number_value()\l# int_value()\l# bool_value()\l# string_value()\l# array_items()\l# operator[]()\l# object_items()\l# operator[]()\l# ~JsonValue()\l}">
<polygon fill="white" stroke="black" points="4.5,-254.5 4.5,-443.5 101.5,-443.5 101.5,-254.5 4.5,-254.5"/>
<text text-anchor="middle" x="53" y="-431.5" font-family="Helvetica,sans-Serif" font-size="10.00">json11::JsonValue</text>
<polyline fill="none" stroke="black" points="4.5,-424.5 101.5,-424.5 "/>
<text text-anchor="middle" x="53" y="-412.5" font-family="Helvetica,sans-Serif" font-size="10.00"> </text>
<polyline fill="none" stroke="black" points="4.5,-405.5 101.5,-405.5 "/>
<text text-anchor="start" x="12.5" y="-393.5" font-family="Helvetica,sans-Serif" font-size="10.00"># type()</text>
<text text-anchor="start" x="12.5" y="-382.5" font-family="Helvetica,sans-Serif" font-size="10.00"># equals()</text>
<text text-anchor="start" x="12.5" y="-371.5" font-family="Helvetica,sans-Serif" font-size="10.00"># less()</text>
<text text-anchor="start" x="12.5" y="-360.5" font-family="Helvetica,sans-Serif" font-size="10.00"># dump()</text>
<text text-anchor="start" x="12.5" y="-349.5" font-family="Helvetica,sans-Serif" font-size="10.00"># number_value()</text>
<text text-anchor="start" x="12.5" y="-338.5" font-family="Helvetica,sans-Serif" font-size="10.00"># int_value()</text>
<text text-anchor="start" x="12.5" y="-327.5" font-family="Helvetica,sans-Serif" font-size="10.00"># bool_value()</text>
<text text-anchor="start" x="12.5" y="-316.5" font-family="Helvetica,sans-Serif" font-size="10.00"># string_value()</text>
<text text-anchor="start" x="12.5" y="-305.5" font-family="Helvetica,sans-Serif" font-size="10.00"># array_items()</text>
<text text-anchor="start" x="12.5" y="-294.5" font-family="Helvetica,sans-Serif" font-size="10.00"># operator[]()</text>
<text text-anchor="start" x="12.5" y="-283.5" font-family="Helvetica,sans-Serif" font-size="10.00"># object_items()</text>
<text text-anchor="start" x="12.5" y="-272.5" font-family="Helvetica,sans-Serif" font-size="10.00"># operator[]()</text>
<text text-anchor="start" x="12.5" y="-261.5" font-family="Helvetica,sans-Serif" font-size="10.00"># ~JsonValue()</text>
</a>
</g>
</g>
<!-- Node3&#45;&gt;Node2 -->
<g id="edge2" class="edge"><title>Node3&#45;&gt;Node2</title>
<path fill="none" stroke="midnightblue" d="M53,-244.231C53,-235.195 53,-226.258 53,-217.747"/>
<polygon fill="none" stroke="midnightblue" points="49.5001,-244.458 53,-254.458 56.5001,-244.458 49.5001,-244.458"/>
</g>
</g>
</svg>
        <g id="navigator" transform="translate(0 0)" fill="#404254">
                <rect fill="#f2f5e9" fill-opacity="0.5" stroke="#606060" stroke-width=".5" x="0" y="0" width="60" height="60"/>
                <use id="zoomplus" xlink:href="#zoomPlus" x="17" y="9" onmousedown="handleZoom(evt,'in')"/>
                <use id="zoomminus" xlink:href="#zoomMin" x="42" y="9" onmousedown="handleZoom(evt,'out')"/>
                <use id="reset" xlink:href="#resetDef" x="30" y="36" onmousedown="handleReset()"/>
                <g id="arrowUp" xlink:href="#dirArrow" transform="translate(30 24)" onmousedown="handlePan(0,-1)">
                  <use xlink:href="#rim" fill="#404040">
                        <set attributeName="fill" to="#808080" begin="arrowUp.mouseover" end="arrowUp.mouseout"/>
                  </use>
                  <path fill="none" stroke="white" stroke-width="1.5" d="M0,-3.0v7 M-2.5,-0.5L0,-3.0L2.5,-0.5"/>
                </g>
                <g id="arrowRight" xlink:href="#dirArrow" transform="rotate(90) translate(36 -43)" onmousedown="handlePan(1,0)">
                  <use xlink:href="#rim" fill="#404040">
                        <set attributeName="fill" to="#808080" begin="arrowRight.mouseover" end="arrowRight.mouseout"/>
                  </use>
                  <path fill="none" stroke="white" stroke-width="1.5" d="M0,-3.0v7 M-2.5,-0.5L0,-3.0L2.5,-0.5"/>
                </g>
                <g id="arrowDown" xlink:href="#dirArrow" transform="rotate(180) translate(-30 -48)" onmousedown="handlePan(0,1)">
                  <use xlink:href="#rim" fill="#404040">
                        <set attributeName="fill" to="#808080" begin="arrowDown.mouseover" end="arrowDown.mouseout"/>
                  </use>
                  <path fill="none" stroke="white" stroke-width="1.5" d="M0,-3.0v7 M-2.5,-0.5L0,-3.0L2.5,-0.5"/>
                </g>
                <g id="arrowLeft" xlink:href="#dirArrow" transform="rotate(270) translate(-36 17)" onmousedown="handlePan(-1,0)">
                  <use xlink:href="#rim" fill="#404040">
                        <set attributeName="fill" to="#808080" begin="arrowLeft.mouseover" end="arrowLeft.mouseout"/>
                  </use>
                  <path fill="none" stroke="white" stroke-width="1.5" d="M0,-3.0v7 M-2.5,-0.5L0,-3.0L2.5,-0.5"/>
                </g>
        </g>
        <svg viewBox="0 0 15 15" width="100%" height="30px" preserveAspectRatio="xMaxYMin meet">
         <g id="arrow_out" transform="scale(0.3 0.3)">
          <a xlink:href="classjson11_1_1_json_null__inherit__graph_org.svg" target="_base">
           <rect id="button" ry="5" rx="5" y="6" x="6" height="38" width="38"
                fill="#f2f5e9" fill-opacity="0.5" stroke="#606060" stroke-width="1.0"/>
           <path id="arrow"
             d="M 11.500037,31.436501 C 11.940474,20.09759 22.043105,11.32322 32.158766,21.979434 L 37.068811,17.246167 C 37.068811,17.246167 37.088388,32 37.088388,32 L 22.160133,31.978069 C 22.160133,31.978069 26.997745,27.140456 26.997745,27.140456 C 18.528582,18.264221 13.291696,25.230495 11.500037,31.436501 z"
             style="fill:#404040;"/>
          </a>
         </g>
        </svg>
</svg>
