<?xml version="1.0" encoding="UTF-8" standalone="no"?>
<!DOCTYPE svg PUBLIC "-//W3C//DTD SVG 1.1//EN"
 "http://www.w3.org/Graphics/SVG/1.1/DTD/svg11.dtd">
<!-- Generated by graphviz version 2.38.0 (20140413.2041)
 -->
<!-- Title: json11::JsonNull Pages: 1 -->
<svg width="218pt" height="464pt"
 viewBox="0.00 0.00 218.00 464.00" xmlns="http://www.w3.org/2000/svg" xmlns:xlink="http://www.w3.org/1999/xlink">
<g id="graph0" class="graph" transform="scale(1 1) rotate(0) translate(4 460)">
<title>json11::JsonNull</title>
<polygon fill="white" stroke="none" points="-4,4 -4,-460 214,-460 214,4 -4,4"/>
<!-- Node1 -->
<g id="node1" class="node"><title>Node1</title>
<polygon fill="#bfbfbf" stroke="black" points="61,-0.5 61,-57.5 150,-57.5 150,-0.5 61,-0.5"/>
<text text-anchor="middle" x="105.5" y="-45.5" font-family="Helvetica,sans-Serif" font-size="10.00">json11::JsonNull</text>
<polyline fill="none" stroke="black" points="61,-38.5 150,-38.5 "/>
<text text-anchor="middle" x="105.5" y="-26.5" font-family="Helvetica,sans-Serif" font-size="10.00"> </text>
<polyline fill="none" stroke="black" points="61,-19.5 150,-19.5 "/>
<text text-anchor="start" x="69" y="-7.5" font-family="Helvetica,sans-Serif" font-size="10.00">+ JsonNull()</text>
</g>
<!-- Node2 -->
<g id="node2" class="node"><title>Node2</title>
<g id="a_node2"><a xlink:href="classjson11_1_1_value.html" target="_top" xlink:title="{json11::Value\&lt; Json\l::NUL, NullStruct \&gt;\n||# Value()\l# Value()\l# type()\l# equals()\l# less()\l# dump()\l}">
<polygon fill="white" stroke="black" points="52.5,-95.5 52.5,-218.5 158.5,-218.5 158.5,-95.5 52.5,-95.5"/>
<text text-anchor="start" x="60.5" y="-206.5" font-family="Helvetica,sans-Serif" font-size="10.00">json11::Value&lt; Json</text>
<text text-anchor="middle" x="105.5" y="-195.5" font-family="Helvetica,sans-Serif" font-size="10.00">::NUL, NullStruct &gt;</text>
<polyline fill="none" stroke="black" points="52.5,-188.5 158.5,-188.5 "/>
<text text-anchor="middle" x="105.5" y="-176.5" font-family="Helvetica,sans-Serif" font-size="10.00"> </text>
<polyline fill="none" stroke="black" points="52.5,-169.5 158.5,-169.5 "/>
<text text-anchor="start" x="60.5" y="-157.5" font-family="Helvetica,sans-Serif" font-size="10.00"># Value()</text>
<text text-anchor="start" x="60.5" y="-146.5" font-family="Helvetica,sans-Serif" font-size="10.00"># Value()</text>
<text text-anchor="start" x="60.5" y="-135.5" font-family="Helvetica,sans-Serif" font-size="10.00"># type()</text>
<text text-anchor="start" x="60.5" y="-124.5" font-family="Helvetica,sans-Serif" font-size="10.00"># equals()</text>
<text text-anchor="start" x="60.5" y="-113.5" font-family="Helvetica,sans-Serif" font-size="10.00"># less()</text>
<text text-anchor="start" x="60.5" y="-102.5" font-family="Helvetica,sans-Serif" font-size="10.00"># dump()</text>
</a>
</g>
</g>
<!-- Node2&#45;&gt;Node1 -->
<g id="edge1" class="edge"><title>Node2&#45;&gt;Node1</title>
<path fill="none" stroke="midnightblue" d="M105.5,-85.0071C105.5,-75.2639 105.5,-65.7799 105.5,-57.5077"/>
<polygon fill="none" stroke="midnightblue" points="102,-85.2144 105.5,-95.2144 109,-85.2145 102,-85.2144"/>
</g>
<!-- Node3 -->
<g id="node3" class="node"><title>Node3</title>
<g id="a_node3"><a xlink:href="classjson11_1_1_json_value.html" target="_top" xlink:title="{json11::JsonValue\n||# type()\l# equals()\l# less()\l# dump()\l# number_value()\l# int_value()\l# bool_value()\l# string_value()\l# array_items()\l# operator[]()\l# object_items()\l# operator[]()\l# ~JsonValue()\l}">
<polygon fill="white" stroke="black" points="0,-266.5 0,-455.5 97,-455.5 97,-266.5 0,-266.5"/>
<text text-anchor="middle" x="48.5" y="-443.5" font-family="Helvetica,sans-Serif" font-size="10.00">json11::JsonValue</text>
<polyline fill="none" stroke="black" points="0,-436.5 97,-436.5 "/>
<text text-anchor="middle" x="48.5" y="-424.5" font-family="Helvetica,sans-Serif" font-size="10.00"> </text>
<polyline fill="none" stroke="black" points="0,-417.5 97,-417.5 "/>
<text text-anchor="start" x="8" y="-405.5" font-family="Helvetica,sans-Serif" font-size="10.00"># type()</text>
<text text-anchor="start" x="8" y="-394.5" font-family="Helvetica,sans-Serif" font-size="10.00"># equals()</text>
<text text-anchor="start" x="8" y="-383.5" font-family="Helvetica,sans-Serif" font-size="10.00"># less()</text>
<text text-anchor="start" x="8" y="-372.5" font-family="Helvetica,sans-Serif" font-size="10.00"># dump()</text>
<text text-anchor="start" x="8" y="-361.5" font-family="Helvetica,sans-Serif" font-size="10.00"># number_value()</text>
<text text-anchor="start" x="8" y="-350.5" font-family="Helvetica,sans-Serif" font-size="10.00"># int_value()</text>
<text text-anchor="start" x="8" y="-339.5" font-family="Helvetica,sans-Serif" font-size="10.00"># bool_value()</text>
<text text-anchor="start" x="8" y="-328.5" font-family="Helvetica,sans-Serif" font-size="10.00"># string_value()</text>
<text text-anchor="start" x="8" y="-317.5" font-family="Helvetica,sans-Serif" font-size="10.00"># array_items()</text>
<text text-anchor="start" x="8" y="-306.5" font-family="Helvetica,sans-Serif" font-size="10.00"># operator[]()</text>
<text text-anchor="start" x="8" y="-295.5" font-family="Helvetica,sans-Serif" font-size="10.00"># object_items()</text>
<text text-anchor="start" x="8" y="-284.5" font-family="Helvetica,sans-Serif" font-size="10.00"># operator[]()</text>
<text text-anchor="start" x="8" y="-273.5" font-family="Helvetica,sans-Serif" font-size="10.00"># ~JsonValue()</text>
</a>
</g>
</g>
<!-- Node3&#45;&gt;Node2 -->
<g id="edge2" class="edge"><title>Node3&#45;&gt;Node2</title>
<path fill="none" stroke="midnightblue" d="M77.7053,-256.501C81.3564,-243.562 84.992,-230.677 88.3723,-218.698"/>
<polygon fill="none" stroke="midnightblue" points="74.2616,-255.817 74.9143,-266.392 80.9985,-257.718 74.2616,-255.817"/>
</g>
<!-- Node4 -->
<g id="node4" class="node"><title>Node4</title>
<g id="a_node4"><a xlink:href="structjson11_1_1_null_struct.html" target="_top" xlink:title="{json11::NullStruct\n||+ operator==()\l+ operator\&lt;()\l}">
<polygon fill="white" stroke="black" points="115,-327 115,-395 210,-395 210,-327 115,-327"/>
<text text-anchor="middle" x="162.5" y="-383" font-family="Helvetica,sans-Serif" font-size="10.00">json11::NullStruct</text>
<polyline fill="none" stroke="black" points="115,-376 210,-376 "/>
<text text-anchor="middle" x="162.5" y="-364" font-family="Helvetica,sans-Serif" font-size="10.00"> </text>
<polyline fill="none" stroke="black" points="115,-357 210,-357 "/>
<text text-anchor="start" x="123" y="-345" font-family="Helvetica,sans-Serif" font-size="10.00">+ operator==()</text>
<text text-anchor="start" x="123" y="-334" font-family="Helvetica,sans-Serif" font-size="10.00">+ operator&lt;()</text>
</a>
</g>
</g>
<!-- Node4&#45;&gt;Node2 -->
<g id="edge3" class="edge"><title>Node4&#45;&gt;Node2</title>
<path fill="none" stroke="#404040" d="M153.088,-326.644C145.737,-300.596 135.252,-263.438 125.994,-230.628"/>
<polygon fill="none" stroke="#404040" points="125.906,-230.314 120.426,-225.626 122.647,-218.765 128.126,-223.453 125.906,-230.314"/>
<text text-anchor="middle" x="153.5" y="-240" font-family="Helvetica,sans-Serif" font-size="10.00"> #m_value</text>
</g>
</g>
</svg>
