<?xml version="1.0" encoding="UTF-8" standalone="no"?>
<!DOCTYPE svg PUBLIC "-//W3C//DTD SVG 1.1//EN"
 "http://www.w3.org/Graphics/SVG/1.1/DTD/svg11.dtd">
<!-- Generated by graphviz version 2.38.0 (20140413.2041)
 -->
<!-- Title: Cosmos::Physics::Structure Pages: 1 -->
<!--zoomable 738 -->
<svg id="main" version="1.1" xmlns="http://www.w3.org/2000/svg" xmlns:xlink="http://www.w3.org/1999/xlink" xml:space="preserve" onload="init(evt)">
<style type="text/css"><![CDATA[
.edge:hover path { stroke: red; }
.edge:hover polygon { stroke: red; fill: red; }
]]></style>
<script type="text/javascript"><![CDATA[
var edges = document.getElementsByTagName('g');
if (edges && edges.length) {
  for (var i=0;i<edges.length;i++) {
    if (edges[i].id.substr(0,4)=='edge') {
      edges[i].setAttribute('class','edge');
    }
  }
}
]]></script>
        <defs>
                <circle id="rim" cx="0" cy="0" r="7"/>
                <circle id="rim2" cx="0" cy="0" r="3.5"/>
                <g id="zoomPlus">
                        <use xlink:href="#rim" fill="#404040">
                                <set attributeName="fill" to="#808080" begin="zoomplus.mouseover" end="zoomplus.mouseout"/>
                        </use>
                        <path d="M-4,0h8M0,-4v8" fill="none" stroke="white" stroke-width="1.5" pointer-events="none"/>
                </g>
                <g id="zoomMin">
                        <use xlink:href="#rim" fill="#404040">
                                <set attributeName="fill" to="#808080" begin="zoomminus.mouseover" end="zoomminus.mouseout"/>
                        </use>
                        <path d="M-4,0h8" fill="none" stroke="white" stroke-width="1.5" pointer-events="none"/>
                </g>
                <g id="dirArrow">
                        <path fill="none" stroke="white" stroke-width="1.5" d="M0,-3.0v7 M-2.5,-0.5L0,-3.0L2.5,-0.5"/>
                </g>
               <g id="resetDef">
                       <use xlink:href="#rim2" fill="#404040">
                               <set attributeName="fill" to="#808080" begin="reset.mouseover" end="reset.mouseout"/>
                       </use>
               </g>
        </defs>

<script type="text/javascript">
var viewWidth = 371;
var viewHeight = 738;
var sectionId = 'dynsection-0';
</script>
<script xlink:href="svgpan.js"/>
<svg id="graph" class="graph">
<g id="viewport">
<title>Cosmos::Physics::Structure</title>
<polygon fill="white" stroke="none" points="-4,4 -4,-734 366.5,-734 366.5,4 -4,4"/>
<!-- Node1 -->
<g id="node1" class="node"><title>Node1</title>
<polygon fill="#bfbfbf" stroke="black" points="126.5,-0.5 126.5,-134.5 266.5,-134.5 266.5,-0.5 126.5,-0.5"/>
<text text-anchor="middle" x="196.5" y="-122.5" font-family="Helvetica,sans-Serif" font-size="10.00">Cosmos::Physics::Structure</text>
<polyline fill="none" stroke="black" points="126.5,-115.5 266.5,-115.5 "/>
<text text-anchor="start" x="134.5" y="-103.5" font-family="Helvetica,sans-Serif" font-size="10.00">&#45; type</text>
<polyline fill="none" stroke="black" points="126.5,-96.5 266.5,-96.5 "/>
<text text-anchor="start" x="134.5" y="-84.5" font-family="Helvetica,sans-Serif" font-size="10.00">+ Structure()</text>
<text text-anchor="start" x="134.5" y="-73.5" font-family="Helvetica,sans-Serif" font-size="10.00">+ Setup()</text>
<text text-anchor="start" x="134.5" y="-62.5" font-family="Helvetica,sans-Serif" font-size="10.00">+ add_u()</text>
<text text-anchor="start" x="134.5" y="-51.5" font-family="Helvetica,sans-Serif" font-size="10.00">+ add_cuboid()</text>
<text text-anchor="start" x="134.5" y="-40.5" font-family="Helvetica,sans-Serif" font-size="10.00">+ add_face()</text>
<text text-anchor="start" x="134.5" y="-29.5" font-family="Helvetica,sans-Serif" font-size="10.00">+ add_face()</text>
<text text-anchor="start" x="134.5" y="-18.5" font-family="Helvetica,sans-Serif" font-size="10.00">+ add_triangle()</text>
<text text-anchor="start" x="134.5" y="-7.5" font-family="Helvetica,sans-Serif" font-size="10.00">+ add_vertex()</text>
</g>
<!-- Node2 -->
<g id="node2" class="node"><title>Node2</title>
<g id="a_node2"><a xlink:href="structphysicsstruc.html" target="_top" xlink:title="Physics Simulation Structure. ">
<polygon fill="white" stroke="black" points="159.5,-182.5 159.5,-360.5 233.5,-360.5 233.5,-182.5 159.5,-182.5"/>
<text text-anchor="middle" x="196.5" y="-348.5" font-family="Helvetica,sans-Serif" font-size="10.00">physicsstruc</text>
<polyline fill="none" stroke="black" points="159.5,-341.5 233.5,-341.5 "/>
<text text-anchor="start" x="167.5" y="-329.5" font-family="Helvetica,sans-Serif" font-size="10.00">+ dt</text>
<text text-anchor="start" x="167.5" y="-318.5" font-family="Helvetica,sans-Serif" font-size="10.00">+ dtj</text>
<text text-anchor="start" x="167.5" y="-307.5" font-family="Helvetica,sans-Serif" font-size="10.00">+ utc</text>
<text text-anchor="start" x="167.5" y="-296.5" font-family="Helvetica,sans-Serif" font-size="10.00">+ mjdaccel</text>
<text text-anchor="start" x="167.5" y="-285.5" font-family="Helvetica,sans-Serif" font-size="10.00">+ mjddiff</text>
<text text-anchor="start" x="167.5" y="-274.5" font-family="Helvetica,sans-Serif" font-size="10.00">+ hcap</text>
<text text-anchor="start" x="167.5" y="-263.5" font-family="Helvetica,sans-Serif" font-size="10.00">+ mass</text>
<text text-anchor="start" x="167.5" y="-252.5" font-family="Helvetica,sans-Serif" font-size="10.00">+ temp</text>
<text text-anchor="start" x="167.5" y="-241.5" font-family="Helvetica,sans-Serif" font-size="10.00">+ heat</text>
<text text-anchor="start" x="167.5" y="-230.5" font-family="Helvetica,sans-Serif" font-size="10.00">+ radiation</text>
<text text-anchor="start" x="167.5" y="-219.5" font-family="Helvetica,sans-Serif" font-size="10.00">and 9 more...</text>
<polyline fill="none" stroke="black" points="159.5,-212.5 233.5,-212.5 "/>
<text text-anchor="start" x="167.5" y="-200.5" font-family="Helvetica,sans-Serif" font-size="10.00">+ to_json()</text>
<text text-anchor="start" x="167.5" y="-189.5" font-family="Helvetica,sans-Serif" font-size="10.00">+ from_json()</text>
</a>
</g>
</g>
<!-- Node2&#45;&gt;Node1 -->
<g id="edge1" class="edge"><title>Node2&#45;&gt;Node1</title>
<path fill="none" stroke="#404040" d="M196.5,-182.487C196.5,-170.572 196.5,-158.412 196.5,-146.685"/>
<polygon fill="none" stroke="#404040" points="196.5,-146.649 192.5,-140.649 196.5,-134.649 200.5,-140.649 196.5,-146.649"/>
<text text-anchor="middle" x="221" y="-156" font-family="Helvetica,sans-Serif" font-size="10.00"> +newphys</text>
</g>
<!-- Node3 -->
<g id="node3" class="node"><title>Node3</title>
<g id="a_node3"><a xlink:href="class_cosmos_1_1_math_1_1_vectors_1_1_vector.html" target="_top" xlink:title="Vector Class. ">
<polygon fill="white" stroke="black" points="0,-518.5 0,-729.5 121,-729.5 121,-518.5 0,-518.5"/>
<text text-anchor="start" x="8" y="-717.5" font-family="Helvetica,sans-Serif" font-size="10.00">Cosmos::Math::Vectors</text>
<text text-anchor="middle" x="60.5" y="-706.5" font-family="Helvetica,sans-Serif" font-size="10.00">::Vector</text>
<polyline fill="none" stroke="black" points="0,-699.5 121,-699.5 "/>
<text text-anchor="start" x="8" y="-687.5" font-family="Helvetica,sans-Serif" font-size="10.00">+ x</text>
<text text-anchor="start" x="8" y="-676.5" font-family="Helvetica,sans-Serif" font-size="10.00">+ y</text>
<text text-anchor="start" x="8" y="-665.5" font-family="Helvetica,sans-Serif" font-size="10.00">+ z</text>
<text text-anchor="start" x="8" y="-654.5" font-family="Helvetica,sans-Serif" font-size="10.00">+ w</text>
<polyline fill="none" stroke="black" points="0,-647.5 121,-647.5 "/>
<text text-anchor="start" x="8" y="-635.5" font-family="Helvetica,sans-Serif" font-size="10.00">+ Vector()</text>
<text text-anchor="start" x="8" y="-624.5" font-family="Helvetica,sans-Serif" font-size="10.00">+ Vector()</text>
<text text-anchor="start" x="8" y="-613.5" font-family="Helvetica,sans-Serif" font-size="10.00">+ Vector()</text>
<text text-anchor="start" x="8" y="-602.5" font-family="Helvetica,sans-Serif" font-size="10.00">+ Vector()</text>
<text text-anchor="start" x="8" y="-591.5" font-family="Helvetica,sans-Serif" font-size="10.00">+ at()</text>
<text text-anchor="start" x="8" y="-580.5" font-family="Helvetica,sans-Serif" font-size="10.00">+ to_rv()</text>
<text text-anchor="start" x="8" y="-569.5" font-family="Helvetica,sans-Serif" font-size="10.00">+ to_cv()</text>
<text text-anchor="start" x="8" y="-558.5" font-family="Helvetica,sans-Serif" font-size="10.00">+ to_q()</text>
<text text-anchor="start" x="8" y="-547.5" font-family="Helvetica,sans-Serif" font-size="10.00">+ cross()</text>
<text text-anchor="start" x="8" y="-536.5" font-family="Helvetica,sans-Serif" font-size="10.00">+ dot()</text>
<text text-anchor="start" x="8" y="-525.5" font-family="Helvetica,sans-Serif" font-size="10.00">and 26 more...</text>
</a>
</g>
</g>
<!-- Node3&#45;&gt;Node2 -->
<g id="edge2" class="edge"><title>Node3&#45;&gt;Node2</title>
<path fill="none" stroke="#404040" d="M97.6913,-518.335C113.453,-475.009 132.346,-424.379 150.5,-379 151.877,-375.558 153.294,-372.061 154.737,-368.533"/>
<polygon fill="none" stroke="#404040" points="154.839,-368.288 153.435,-361.215 159.424,-357.198 160.828,-364.271 154.839,-368.288"/>
<text text-anchor="middle" x="171.5" y="-492" font-family="Helvetica,sans-Serif" font-size="10.00"> +atorque</text>
<text text-anchor="middle" x="171.5" y="-481" font-family="Helvetica,sans-Serif" font-size="10.00">+ctorque</text>
<text text-anchor="middle" x="171.5" y="-470" font-family="Helvetica,sans-Serif" font-size="10.00">+rtorque</text>
<text text-anchor="middle" x="171.5" y="-459" font-family="Helvetica,sans-Serif" font-size="10.00">+com</text>
<text text-anchor="middle" x="171.5" y="-448" font-family="Helvetica,sans-Serif" font-size="10.00">+thrust</text>
<text text-anchor="middle" x="171.5" y="-437" font-family="Helvetica,sans-Serif" font-size="10.00">+ftorque</text>
<text text-anchor="middle" x="171.5" y="-426" font-family="Helvetica,sans-Serif" font-size="10.00">+rdrag</text>
<text text-anchor="middle" x="171.5" y="-415" font-family="Helvetica,sans-Serif" font-size="10.00">+adrag</text>
<text text-anchor="middle" x="171.5" y="-404" font-family="Helvetica,sans-Serif" font-size="10.00">+gtorque</text>
<text text-anchor="middle" x="171.5" y="-393" font-family="Helvetica,sans-Serif" font-size="10.00">+htorque</text>
<text text-anchor="middle" x="171.5" y="-382" font-family="Helvetica,sans-Serif" font-size="10.00">...</text>
</g>
<!-- Node4 -->
<g id="node4" class="node"><title>Node4</title>
<polygon fill="white" stroke="#bfbfbf" points="139,-595.5 139,-652.5 254,-652.5 254,-595.5 139,-595.5"/>
<text text-anchor="middle" x="196.5" y="-640.5" font-family="Helvetica,sans-Serif" font-size="10.00">vector&lt; trianglestruc &gt;</text>
<polyline fill="none" stroke="#bfbfbf" points="139,-633.5 254,-633.5 "/>
<text text-anchor="middle" x="196.5" y="-621.5" font-family="Helvetica,sans-Serif" font-size="10.00"> </text>
<polyline fill="none" stroke="#bfbfbf" points="139,-614.5 254,-614.5 "/>
<text text-anchor="middle" x="196.5" y="-602.5" font-family="Helvetica,sans-Serif" font-size="10.00"> </text>
</g>
<!-- Node4&#45;&gt;Node2 -->
<g id="edge3" class="edge"><title>Node4&#45;&gt;Node2</title>
<path fill="none" stroke="#404040" d="M196.5,-595.497C196.5,-548.183 196.5,-449.148 196.5,-373.138"/>
<polygon fill="none" stroke="#404040" points="196.5,-372.67 192.5,-366.67 196.5,-360.67 200.5,-366.67 196.5,-372.67"/>
<text text-anchor="middle" x="219.5" y="-437" font-family="Helvetica,sans-Serif" font-size="10.00"> +triangles</text>
</g>
<!-- Node5 -->
<g id="node5" class="node"><title>Node5</title>
<polygon fill="white" stroke="#bfbfbf" points="272.5,-595.5 272.5,-652.5 362.5,-652.5 362.5,-595.5 272.5,-595.5"/>
<text text-anchor="middle" x="317.5" y="-640.5" font-family="Helvetica,sans-Serif" font-size="10.00">vector&lt; Vector &gt;</text>
<polyline fill="none" stroke="#bfbfbf" points="272.5,-633.5 362.5,-633.5 "/>
<text text-anchor="middle" x="317.5" y="-621.5" font-family="Helvetica,sans-Serif" font-size="10.00"> </text>
<polyline fill="none" stroke="#bfbfbf" points="272.5,-614.5 362.5,-614.5 "/>
<text text-anchor="middle" x="317.5" y="-602.5" font-family="Helvetica,sans-Serif" font-size="10.00"> </text>
</g>
<!-- Node5&#45;&gt;Node2 -->
<g id="edge4" class="edge"><title>Node5&#45;&gt;Node2</title>
<path fill="none" stroke="#404040" d="M310.98,-595.466C299.833,-549.789 275.488,-455.769 246.5,-379 244.027,-372.451 241.32,-365.746 238.486,-359.045"/>
<polygon fill="none" stroke="#404040" points="238.385,-358.811 232.329,-354.895 233.615,-347.8 239.67,-351.716 238.385,-358.811"/>
<text text-anchor="middle" x="307.5" y="-437" font-family="Helvetica,sans-Serif" font-size="10.00"> +vertices</text>
</g>
</g>
</svg>
        <g id="navigator" transform="translate(0 0)" fill="#404254">
                <rect fill="#f2f5e9" fill-opacity="0.5" stroke="#606060" stroke-width=".5" x="0" y="0" width="60" height="60"/>
                <use id="zoomplus" xlink:href="#zoomPlus" x="17" y="9" onmousedown="handleZoom(evt,'in')"/>
                <use id="zoomminus" xlink:href="#zoomMin" x="42" y="9" onmousedown="handleZoom(evt,'out')"/>
                <use id="reset" xlink:href="#resetDef" x="30" y="36" onmousedown="handleReset()"/>
                <g id="arrowUp" xlink:href="#dirArrow" transform="translate(30 24)" onmousedown="handlePan(0,-1)">
                  <use xlink:href="#rim" fill="#404040">
                        <set attributeName="fill" to="#808080" begin="arrowUp.mouseover" end="arrowUp.mouseout"/>
                  </use>
                  <path fill="none" stroke="white" stroke-width="1.5" d="M0,-3.0v7 M-2.5,-0.5L0,-3.0L2.5,-0.5"/>
                </g>
                <g id="arrowRight" xlink:href="#dirArrow" transform="rotate(90) translate(36 -43)" onmousedown="handlePan(1,0)">
                  <use xlink:href="#rim" fill="#404040">
                        <set attributeName="fill" to="#808080" begin="arrowRight.mouseover" end="arrowRight.mouseout"/>
                  </use>
                  <path fill="none" stroke="white" stroke-width="1.5" d="M0,-3.0v7 M-2.5,-0.5L0,-3.0L2.5,-0.5"/>
                </g>
                <g id="arrowDown" xlink:href="#dirArrow" transform="rotate(180) translate(-30 -48)" onmousedown="handlePan(0,1)">
                  <use xlink:href="#rim" fill="#404040">
                        <set attributeName="fill" to="#808080" begin="arrowDown.mouseover" end="arrowDown.mouseout"/>
                  </use>
                  <path fill="none" stroke="white" stroke-width="1.5" d="M0,-3.0v7 M-2.5,-0.5L0,-3.0L2.5,-0.5"/>
                </g>
                <g id="arrowLeft" xlink:href="#dirArrow" transform="rotate(270) translate(-36 17)" onmousedown="handlePan(-1,0)">
                  <use xlink:href="#rim" fill="#404040">
                        <set attributeName="fill" to="#808080" begin="arrowLeft.mouseover" end="arrowLeft.mouseout"/>
                  </use>
                  <path fill="none" stroke="white" stroke-width="1.5" d="M0,-3.0v7 M-2.5,-0.5L0,-3.0L2.5,-0.5"/>
                </g>
        </g>
        <svg viewBox="0 0 15 15" width="100%" height="30px" preserveAspectRatio="xMaxYMin meet">
         <g id="arrow_out" transform="scale(0.3 0.3)">
          <a xlink:href="class_cosmos_1_1_physics_1_1_structure__coll__graph_org.svg" target="_base">
           <rect id="button" ry="5" rx="5" y="6" x="6" height="38" width="38"
                fill="#f2f5e9" fill-opacity="0.5" stroke="#606060" stroke-width="1.0"/>
           <path id="arrow"
             d="M 11.500037,31.436501 C 11.940474,20.09759 22.043105,11.32322 32.158766,21.979434 L 37.068811,17.246167 C 37.068811,17.246167 37.088388,32 37.088388,32 L 22.160133,31.978069 C 22.160133,31.978069 26.997745,27.140456 26.997745,27.140456 C 18.528582,18.264221 13.291696,25.230495 11.500037,31.436501 z"
             style="fill:#404040;"/>
          </a>
         </g>
        </svg>
</svg>
