<?xml version="1.0" encoding="UTF-8" standalone="no"?>
<!DOCTYPE svg PUBLIC "-//W3C//DTD SVG 1.1//EN"
 "http://www.w3.org/Graphics/SVG/1.1/DTD/svg11.dtd">
<!-- Generated by graphviz version 2.38.0 (20140413.2041)
 -->
<!-- Title: json11::JsonObject Pages: 1 -->
<svg width="139pt" height="485pt"
 viewBox="0.00 0.00 139.00 485.00" xmlns="http://www.w3.org/2000/svg" xmlns:xlink="http://www.w3.org/1999/xlink">
<g id="graph0" class="graph" transform="scale(1 1) rotate(0) translate(4 481)">
<title>json11::JsonObject</title>
<polygon fill="white" stroke="none" points="-4,4 -4,-481 135,-481 135,4 -4,4"/>
<!-- Node1 -->
<g id="node1" class="node"><title>Node1</title>
<polygon fill="#bfbfbf" stroke="black" points="15,-0.5 15,-90.5 116,-90.5 116,-0.5 15,-0.5"/>
<text text-anchor="middle" x="65.5" y="-78.5" font-family="Helvetica,sans-Serif" font-size="10.00">json11::JsonObject</text>
<polyline fill="none" stroke="black" points="15,-71.5 116,-71.5 "/>
<text text-anchor="middle" x="65.5" y="-59.5" font-family="Helvetica,sans-Serif" font-size="10.00"> </text>
<polyline fill="none" stroke="black" points="15,-52.5 116,-52.5 "/>
<text text-anchor="start" x="23" y="-40.5" font-family="Helvetica,sans-Serif" font-size="10.00">+ JsonObject()</text>
<text text-anchor="start" x="23" y="-29.5" font-family="Helvetica,sans-Serif" font-size="10.00">+ JsonObject()</text>
<text text-anchor="start" x="23" y="-18.5" font-family="Helvetica,sans-Serif" font-size="10.00">&#45; object_items()</text>
<text text-anchor="start" x="23" y="-7.5" font-family="Helvetica,sans-Serif" font-size="10.00">&#45; operator[]()</text>
</g>
<!-- Node2 -->
<g id="node2" class="node"><title>Node2</title>
<g id="a_node2"><a xlink:href="classjson11_1_1_value.html" target="_top" xlink:title="{json11::Value\&lt; Json\l::OBJECT, Json::object \&gt;\n|# m_value\l|# Value()\l# Value()\l# type()\l# equals()\l# less()\l# dump()\l}">
<polygon fill="white" stroke="black" points="0,-127.5 0,-250.5 131,-250.5 131,-127.5 0,-127.5"/>
<text text-anchor="start" x="8" y="-238.5" font-family="Helvetica,sans-Serif" font-size="10.00">json11::Value&lt; Json</text>
<text text-anchor="middle" x="65.5" y="-227.5" font-family="Helvetica,sans-Serif" font-size="10.00">::OBJECT, Json::object &gt;</text>
<polyline fill="none" stroke="black" points="0,-220.5 131,-220.5 "/>
<text text-anchor="start" x="8" y="-208.5" font-family="Helvetica,sans-Serif" font-size="10.00"># m_value</text>
<polyline fill="none" stroke="black" points="0,-201.5 131,-201.5 "/>
<text text-anchor="start" x="8" y="-189.5" font-family="Helvetica,sans-Serif" font-size="10.00"># Value()</text>
<text text-anchor="start" x="8" y="-178.5" font-family="Helvetica,sans-Serif" font-size="10.00"># Value()</text>
<text text-anchor="start" x="8" y="-167.5" font-family="Helvetica,sans-Serif" font-size="10.00"># type()</text>
<text text-anchor="start" x="8" y="-156.5" font-family="Helvetica,sans-Serif" font-size="10.00"># equals()</text>
<text text-anchor="start" x="8" y="-145.5" font-family="Helvetica,sans-Serif" font-size="10.00"># less()</text>
<text text-anchor="start" x="8" y="-134.5" font-family="Helvetica,sans-Serif" font-size="10.00"># dump()</text>
</a>
</g>
</g>
<!-- Node2&#45;&gt;Node1 -->
<g id="edge1" class="edge"><title>Node2&#45;&gt;Node1</title>
<path fill="none" stroke="midnightblue" d="M65.5,-117.033C65.5,-108.028 65.5,-99.0285 65.5,-90.6168"/>
<polygon fill="none" stroke="midnightblue" points="62.0001,-117.17 65.5,-127.17 69.0001,-117.17 62.0001,-117.17"/>
</g>
<!-- Node3 -->
<g id="node3" class="node"><title>Node3</title>
<g id="a_node3"><a xlink:href="classjson11_1_1_json_value.html" target="_top" xlink:title="{json11::JsonValue\n||# type()\l# equals()\l# less()\l# dump()\l# number_value()\l# int_value()\l# bool_value()\l# string_value()\l# array_items()\l# operator[]()\l# object_items()\l# operator[]()\l# ~JsonValue()\l}">
<polygon fill="white" stroke="black" points="17,-287.5 17,-476.5 114,-476.5 114,-287.5 17,-287.5"/>
<text text-anchor="middle" x="65.5" y="-464.5" font-family="Helvetica,sans-Serif" font-size="10.00">json11::JsonValue</text>
<polyline fill="none" stroke="black" points="17,-457.5 114,-457.5 "/>
<text text-anchor="middle" x="65.5" y="-445.5" font-family="Helvetica,sans-Serif" font-size="10.00"> </text>
<polyline fill="none" stroke="black" points="17,-438.5 114,-438.5 "/>
<text text-anchor="start" x="25" y="-426.5" font-family="Helvetica,sans-Serif" font-size="10.00"># type()</text>
<text text-anchor="start" x="25" y="-415.5" font-family="Helvetica,sans-Serif" font-size="10.00"># equals()</text>
<text text-anchor="start" x="25" y="-404.5" font-family="Helvetica,sans-Serif" font-size="10.00"># less()</text>
<text text-anchor="start" x="25" y="-393.5" font-family="Helvetica,sans-Serif" font-size="10.00"># dump()</text>
<text text-anchor="start" x="25" y="-382.5" font-family="Helvetica,sans-Serif" font-size="10.00"># number_value()</text>
<text text-anchor="start" x="25" y="-371.5" font-family="Helvetica,sans-Serif" font-size="10.00"># int_value()</text>
<text text-anchor="start" x="25" y="-360.5" font-family="Helvetica,sans-Serif" font-size="10.00"># bool_value()</text>
<text text-anchor="start" x="25" y="-349.5" font-family="Helvetica,sans-Serif" font-size="10.00"># string_value()</text>
<text text-anchor="start" x="25" y="-338.5" font-family="Helvetica,sans-Serif" font-size="10.00"># array_items()</text>
<text text-anchor="start" x="25" y="-327.5" font-family="Helvetica,sans-Serif" font-size="10.00"># operator[]()</text>
<text text-anchor="start" x="25" y="-316.5" font-family="Helvetica,sans-Serif" font-size="10.00"># object_items()</text>
<text text-anchor="start" x="25" y="-305.5" font-family="Helvetica,sans-Serif" font-size="10.00"># operator[]()</text>
<text text-anchor="start" x="25" y="-294.5" font-family="Helvetica,sans-Serif" font-size="10.00"># ~JsonValue()</text>
</a>
</g>
</g>
<!-- Node3&#45;&gt;Node2 -->
<g id="edge2" class="edge"><title>Node3&#45;&gt;Node2</title>
<path fill="none" stroke="midnightblue" d="M65.5,-277.231C65.5,-268.195 65.5,-259.258 65.5,-250.747"/>
<polygon fill="none" stroke="midnightblue" points="62.0001,-277.458 65.5,-287.458 69.0001,-277.458 62.0001,-277.458"/>
</g>
</g>
</svg>
