<?xml version="1.0" encoding="UTF-8" standalone="no"?>
<!DOCTYPE svg PUBLIC "-//W3C//DTD SVG 1.1//EN"
 "http://www.w3.org/Graphics/SVG/1.1/DTD/svg11.dtd">
<!-- Generated by graphviz version 2.38.0 (20140413.2041)
 -->
<!-- Title: LsFit Pages: 1 -->
<!--zoomable 766 -->
<svg id="main" version="1.1" xmlns="http://www.w3.org/2000/svg" xmlns:xlink="http://www.w3.org/1999/xlink" xml:space="preserve" onload="init(evt)">
<style type="text/css"><![CDATA[
.edge:hover path { stroke: red; }
.edge:hover polygon { stroke: red; fill: red; }
]]></style>
<script type="text/javascript"><![CDATA[
var edges = document.getElementsByTagName('g');
if (edges && edges.length) {
  for (var i=0;i<edges.length;i++) {
    if (edges[i].id.substr(0,4)=='edge') {
      edges[i].setAttribute('class','edge');
    }
  }
}
]]></script>
        <defs>
                <circle id="rim" cx="0" cy="0" r="7"/>
                <circle id="rim2" cx="0" cy="0" r="3.5"/>
                <g id="zoomPlus">
                        <use xlink:href="#rim" fill="#404040">
                                <set attributeName="fill" to="#808080" begin="zoomplus.mouseover" end="zoomplus.mouseout"/>
                        </use>
                        <path d="M-4,0h8M0,-4v8" fill="none" stroke="white" stroke-width="1.5" pointer-events="none"/>
                </g>
                <g id="zoomMin">
                        <use xlink:href="#rim" fill="#404040">
                                <set attributeName="fill" to="#808080" begin="zoomminus.mouseover" end="zoomminus.mouseout"/>
                        </use>
                        <path d="M-4,0h8" fill="none" stroke="white" stroke-width="1.5" pointer-events="none"/>
                </g>
                <g id="dirArrow">
                        <path fill="none" stroke="white" stroke-width="1.5" d="M0,-3.0v7 M-2.5,-0.5L0,-3.0L2.5,-0.5"/>
                </g>
               <g id="resetDef">
                       <use xlink:href="#rim2" fill="#404040">
                               <set attributeName="fill" to="#808080" begin="reset.mouseover" end="reset.mouseout"/>
                       </use>
               </g>
        </defs>

<script type="text/javascript">
var viewWidth = 853;
var viewHeight = 766;
var sectionId = 'dynsection-0';
</script>
<script xlink:href="svgpan.js"/>
<svg id="graph" class="graph">
<g id="viewport">
<title>LsFit</title>
<polygon fill="white" stroke="none" points="-4,4 -4,-762 849,-762 849,4 -4,4"/>
<!-- Node1 -->
<g id="node1" class="node"><title>Node1</title>
<polygon fill="#bfbfbf" stroke="black" points="259,-0.5 259,-244.5 339,-244.5 339,-0.5 259,-0.5"/>
<text text-anchor="middle" x="299" y="-232.5" font-family="Helvetica,sans-Serif" font-size="10.00">LsFit</text>
<polyline fill="none" stroke="black" points="259,-225.5 339,-225.5 "/>
<text text-anchor="start" x="267" y="-213.5" font-family="Helvetica,sans-Serif" font-size="10.00">+ meanx</text>
<text text-anchor="start" x="267" y="-202.5" font-family="Helvetica,sans-Serif" font-size="10.00">+ stdevx</text>
<text text-anchor="start" x="267" y="-191.5" font-family="Helvetica,sans-Serif" font-size="10.00">+ resolution</text>
<text text-anchor="start" x="267" y="-180.5" font-family="Helvetica,sans-Serif" font-size="10.00">&#45; element_cnt</text>
<text text-anchor="start" x="267" y="-169.5" font-family="Helvetica,sans-Serif" font-size="10.00">&#45; depth</text>
<text text-anchor="start" x="267" y="-158.5" font-family="Helvetica,sans-Serif" font-size="10.00">&#45; order</text>
<text text-anchor="start" x="267" y="-147.5" font-family="Helvetica,sans-Serif" font-size="10.00">&#45; basex</text>
<polyline fill="none" stroke="black" points="259,-140.5 339,-140.5 "/>
<text text-anchor="start" x="267" y="-128.5" font-family="Helvetica,sans-Serif" font-size="10.00">+ LsFit()</text>
<text text-anchor="start" x="267" y="-117.5" font-family="Helvetica,sans-Serif" font-size="10.00">+ initialize()</text>
<text text-anchor="start" x="267" y="-106.5" font-family="Helvetica,sans-Serif" font-size="10.00">+ update()</text>
<text text-anchor="start" x="267" y="-95.5" font-family="Helvetica,sans-Serif" font-size="10.00">+ update()</text>
<text text-anchor="start" x="267" y="-84.5" font-family="Helvetica,sans-Serif" font-size="10.00">+ update()</text>
<text text-anchor="start" x="267" y="-73.5" font-family="Helvetica,sans-Serif" font-size="10.00">+ update()</text>
<text text-anchor="start" x="267" y="-62.5" font-family="Helvetica,sans-Serif" font-size="10.00">+ update()</text>
<text text-anchor="start" x="267" y="-51.5" font-family="Helvetica,sans-Serif" font-size="10.00">+ lastx()</text>
<text text-anchor="start" x="267" y="-40.5" font-family="Helvetica,sans-Serif" font-size="10.00">+ firstx()</text>
<text text-anchor="start" x="267" y="-29.5" font-family="Helvetica,sans-Serif" font-size="10.00">+ size()</text>
<text text-anchor="start" x="267" y="-18.5" font-family="Helvetica,sans-Serif" font-size="10.00">and 18 more...</text>
<text text-anchor="start" x="267" y="-7.5" font-family="Helvetica,sans-Serif" font-size="10.00">&#45; fit()</text>
</g>
<!-- Node2 -->
<g id="node2" class="node"><title>Node2</title>
<polygon fill="white" stroke="#bfbfbf" points="80.5,-303.5 80.5,-360.5 215.5,-360.5 215.5,-303.5 80.5,-303.5"/>
<text text-anchor="middle" x="148" y="-348.5" font-family="Helvetica,sans-Serif" font-size="10.00">vector&lt; vector&lt; double &gt; &gt;</text>
<polyline fill="none" stroke="#bfbfbf" points="80.5,-341.5 215.5,-341.5 "/>
<text text-anchor="middle" x="148" y="-329.5" font-family="Helvetica,sans-Serif" font-size="10.00"> </text>
<polyline fill="none" stroke="#bfbfbf" points="80.5,-322.5 215.5,-322.5 "/>
<text text-anchor="middle" x="148" y="-310.5" font-family="Helvetica,sans-Serif" font-size="10.00"> </text>
</g>
<!-- Node2&#45;&gt;Node1 -->
<g id="edge1" class="edge"><title>Node2&#45;&gt;Node1</title>
<path fill="none" stroke="#404040" d="M168.052,-303.446C189.187,-274.401 223.244,-227.602 251.328,-189.01"/>
<polygon fill="none" stroke="#404040" points="251.639,-188.582 251.935,-181.377 258.7,-178.879 258.404,-186.084 251.639,-188.582"/>
<text text-anchor="middle" x="214" y="-271.5" font-family="Helvetica,sans-Serif" font-size="10.00"> &#45;parms</text>
</g>
<!-- Node3 -->
<g id="node3" class="node"><title>Node3</title>
<polygon fill="white" stroke="#bfbfbf" points="233.5,-303.5 233.5,-360.5 364.5,-360.5 364.5,-303.5 233.5,-303.5"/>
<text text-anchor="middle" x="299" y="-348.5" font-family="Helvetica,sans-Serif" font-size="10.00">deque&lt; LsFit::fitelement &gt;</text>
<polyline fill="none" stroke="#bfbfbf" points="233.5,-341.5 364.5,-341.5 "/>
<text text-anchor="middle" x="299" y="-329.5" font-family="Helvetica,sans-Serif" font-size="10.00"> </text>
<polyline fill="none" stroke="#bfbfbf" points="233.5,-322.5 364.5,-322.5 "/>
<text text-anchor="middle" x="299" y="-310.5" font-family="Helvetica,sans-Serif" font-size="10.00"> </text>
</g>
<!-- Node3&#45;&gt;Node1 -->
<g id="edge2" class="edge"><title>Node3&#45;&gt;Node1</title>
<path fill="none" stroke="#404040" d="M299,-303.446C299,-290.575 299,-274.218 299,-256.634"/>
<polygon fill="none" stroke="#404040" points="299,-256.611 295,-250.611 299,-244.611 303,-250.611 299,-256.611"/>
<text text-anchor="middle" x="309" y="-271.5" font-family="Helvetica,sans-Serif" font-size="10.00"> &#45;var</text>
</g>
<!-- Node4 -->
<g id="node4" class="node"><title>Node4</title>
<g id="a_node4"><a xlink:href="unionuvector.html" target="_top" xlink:title="Quaternion/Rvector Union. ">
<polygon fill="white" stroke="black" points="382.5,-303.5 382.5,-360.5 431.5,-360.5 431.5,-303.5 382.5,-303.5"/>
<text text-anchor="middle" x="407" y="-348.5" font-family="Helvetica,sans-Serif" font-size="10.00">uvector</text>
<polyline fill="none" stroke="black" points="382.5,-341.5 431.5,-341.5 "/>
<text text-anchor="start" x="390.5" y="-329.5" font-family="Helvetica,sans-Serif" font-size="10.00">+ a4</text>
<polyline fill="none" stroke="black" points="382.5,-322.5 431.5,-322.5 "/>
<text text-anchor="middle" x="407" y="-310.5" font-family="Helvetica,sans-Serif" font-size="10.00"> </text>
</a>
</g>
</g>
<!-- Node4&#45;&gt;Node1 -->
<g id="edge3" class="edge"><title>Node4&#45;&gt;Node1</title>
<path fill="none" stroke="#404040" d="M392.658,-303.446C380.336,-279.77 361.873,-244.297 344.588,-211.088"/>
<polygon fill="none" stroke="#404040" points="344.567,-211.048 338.249,-207.573 339.027,-200.404 345.345,-203.879 344.567,-211.048"/>
<text text-anchor="middle" x="400.5" y="-277" font-family="Helvetica,sans-Serif" font-size="10.00"> +meany</text>
<text text-anchor="middle" x="400.5" y="-266" font-family="Helvetica,sans-Serif" font-size="10.00">+stdevy</text>
</g>
<!-- Node5 -->
<g id="node5" class="node"><title>Node5</title>
<g id="a_node5"><a xlink:href="structmatrix1d.html" target="_top" xlink:title="n element row matrix ">
<polygon fill="white" stroke="black" points="0,-436 0,-504 54,-504 54,-436 0,-436"/>
<text text-anchor="middle" x="27" y="-492" font-family="Helvetica,sans-Serif" font-size="10.00">matrix1d</text>
<polyline fill="none" stroke="black" points="0,-485 54,-485 "/>
<text text-anchor="start" x="8" y="-473" font-family="Helvetica,sans-Serif" font-size="10.00">+ vector</text>
<text text-anchor="start" x="8" y="-462" font-family="Helvetica,sans-Serif" font-size="10.00">+ cols</text>
<polyline fill="none" stroke="black" points="0,-455 54,-455 "/>
<text text-anchor="middle" x="27" y="-443" font-family="Helvetica,sans-Serif" font-size="10.00"> </text>
</a>
</g>
</g>
<!-- Node5&#45;&gt;Node4 -->
<g id="edge4" class="edge"><title>Node5&#45;&gt;Node4</title>
<path fill="none" stroke="#404040" d="M40.7788,-435.908C46.3849,-425.759 53.7579,-415.345 63,-408 169.114,-323.671 239.929,-408.515 371.257,-360.328"/>
<polygon fill="none" stroke="#404040" points="371.302,-360.31 375.434,-354.4 382.478,-355.942 378.346,-361.851 371.302,-360.31"/>
<text text-anchor="middle" x="118.5" y="-382" font-family="Helvetica,sans-Serif" font-size="10.00"> +m1</text>
</g>
<!-- Node6 -->
<g id="node6" class="node"><title>Node6</title>
<g id="a_node6"><a xlink:href="structqlast.html" target="_top" xlink:title="Quaternion, scalar last, using vector elements. ">
<polygon fill="white" stroke="black" points="72,-408.5 72,-531.5 146,-531.5 146,-408.5 72,-408.5"/>
<text text-anchor="middle" x="109" y="-519.5" font-family="Helvetica,sans-Serif" font-size="10.00">qlast</text>
<polyline fill="none" stroke="black" points="72,-512.5 146,-512.5 "/>
<text text-anchor="start" x="80" y="-500.5" font-family="Helvetica,sans-Serif" font-size="10.00">+ q1</text>
<text text-anchor="start" x="80" y="-489.5" font-family="Helvetica,sans-Serif" font-size="10.00">+ q2</text>
<text text-anchor="start" x="80" y="-478.5" font-family="Helvetica,sans-Serif" font-size="10.00">+ q3</text>
<text text-anchor="start" x="80" y="-467.5" font-family="Helvetica,sans-Serif" font-size="10.00">+ q4</text>
<polyline fill="none" stroke="black" points="72,-460.5 146,-460.5 "/>
<text text-anchor="start" x="80" y="-448.5" font-family="Helvetica,sans-Serif" font-size="10.00">+ qlast()</text>
<text text-anchor="start" x="80" y="-437.5" font-family="Helvetica,sans-Serif" font-size="10.00">+ qlast()</text>
<text text-anchor="start" x="80" y="-426.5" font-family="Helvetica,sans-Serif" font-size="10.00">+ to_json()</text>
<text text-anchor="start" x="80" y="-415.5" font-family="Helvetica,sans-Serif" font-size="10.00">+ from_json()</text>
</a>
</g>
</g>
<!-- Node6&#45;&gt;Node4 -->
<g id="edge5" class="edge"><title>Node6&#45;&gt;Node4</title>
<path fill="none" stroke="#404040" d="M146.214,-416.4C149.052,-413.432 151.989,-410.602 155,-408 227.136,-345.661 277.693,-395.375 371.137,-360.418"/>
<polygon fill="none" stroke="#404040" points="371.315,-360.347 375.382,-354.392 382.443,-355.855 378.376,-361.81 371.315,-360.347"/>
<text text-anchor="middle" x="214.5" y="-382" font-family="Helvetica,sans-Serif" font-size="10.00"> +ql</text>
</g>
<!-- Node7 -->
<g id="node7" class="node"><title>Node7</title>
<g id="a_node7"><a xlink:href="structqcomplex.html" target="_top" xlink:title="Quaternion, scalar last, using imaginary elements. ">
<polygon fill="white" stroke="black" points="164,-408.5 164,-531.5 238,-531.5 238,-408.5 164,-408.5"/>
<text text-anchor="middle" x="201" y="-519.5" font-family="Helvetica,sans-Serif" font-size="10.00">qcomplex</text>
<polyline fill="none" stroke="black" points="164,-512.5 238,-512.5 "/>
<text text-anchor="start" x="172" y="-500.5" font-family="Helvetica,sans-Serif" font-size="10.00">+ i</text>
<text text-anchor="start" x="172" y="-489.5" font-family="Helvetica,sans-Serif" font-size="10.00">+ j</text>
<text text-anchor="start" x="172" y="-478.5" font-family="Helvetica,sans-Serif" font-size="10.00">+ k</text>
<text text-anchor="start" x="172" y="-467.5" font-family="Helvetica,sans-Serif" font-size="10.00">+ r</text>
<polyline fill="none" stroke="black" points="164,-460.5 238,-460.5 "/>
<text text-anchor="start" x="172" y="-448.5" font-family="Helvetica,sans-Serif" font-size="10.00">+ qcomplex()</text>
<text text-anchor="start" x="172" y="-437.5" font-family="Helvetica,sans-Serif" font-size="10.00">+ qcomplex()</text>
<text text-anchor="start" x="172" y="-426.5" font-family="Helvetica,sans-Serif" font-size="10.00">+ to_json()</text>
<text text-anchor="start" x="172" y="-415.5" font-family="Helvetica,sans-Serif" font-size="10.00">+ from_json()</text>
</a>
</g>
</g>
<!-- Node7&#45;&gt;Node4 -->
<g id="edge6" class="edge"><title>Node7&#45;&gt;Node4</title>
<path fill="none" stroke="#404040" d="M217.103,-408.287C222.661,-397.049 230.09,-386.505 240,-379 284.672,-345.166 314.546,-380.085 371.123,-360.309"/>
<polygon fill="none" stroke="#404040" points="371.273,-360.249 375.347,-354.299 382.406,-355.771 378.332,-361.721 371.273,-360.249"/>
<text text-anchor="middle" x="250" y="-382" font-family="Helvetica,sans-Serif" font-size="10.00"> +qc</text>
</g>
<!-- Node8 -->
<g id="node8" class="node"><title>Node8</title>
<g id="a_node8"><a xlink:href="structquaternion.html" target="_top" xlink:title="Quaternion, scalar last, using x, y, z. ">
<polygon fill="white" stroke="black" points="307.5,-425 307.5,-515 384.5,-515 384.5,-425 307.5,-425"/>
<text text-anchor="middle" x="346" y="-503" font-family="Helvetica,sans-Serif" font-size="10.00">quaternion</text>
<polyline fill="none" stroke="black" points="307.5,-496 384.5,-496 "/>
<text text-anchor="start" x="315.5" y="-484" font-family="Helvetica,sans-Serif" font-size="10.00">+ w</text>
<polyline fill="none" stroke="black" points="307.5,-477 384.5,-477 "/>
<text text-anchor="start" x="315.5" y="-465" font-family="Helvetica,sans-Serif" font-size="10.00">+ quaternion()</text>
<text text-anchor="start" x="315.5" y="-454" font-family="Helvetica,sans-Serif" font-size="10.00">+ quaternion()</text>
<text text-anchor="start" x="315.5" y="-443" font-family="Helvetica,sans-Serif" font-size="10.00">+ to_json()</text>
<text text-anchor="start" x="315.5" y="-432" font-family="Helvetica,sans-Serif" font-size="10.00">+ from_json()</text>
</a>
</g>
</g>
<!-- Node8&#45;&gt;Node4 -->
<g id="edge7" class="edge"><title>Node8&#45;&gt;Node4</title>
<path fill="none" stroke="#404040" d="M365.805,-424.845C373.493,-407.704 382.219,-388.248 389.655,-371.67"/>
<polygon fill="none" stroke="#404040" points="389.657,-371.665 388.463,-364.554 394.568,-360.716 395.763,-367.828 389.657,-371.665"/>
<text text-anchor="middle" x="393.5" y="-382" font-family="Helvetica,sans-Serif" font-size="10.00"> +q</text>
</g>
<!-- Node9 -->
<g id="node9" class="node"><title>Node9</title>
<g id="a_node9"><a xlink:href="classcvector.html" target="_top" xlink:title="3 element cartesian vector ">
<polygon fill="white" stroke="black" points="260.5,-579.5 260.5,-757.5 339.5,-757.5 339.5,-579.5 260.5,-579.5"/>
<text text-anchor="middle" x="300" y="-745.5" font-family="Helvetica,sans-Serif" font-size="10.00">cvector</text>
<polyline fill="none" stroke="black" points="260.5,-738.5 339.5,-738.5 "/>
<text text-anchor="start" x="268.5" y="-726.5" font-family="Helvetica,sans-Serif" font-size="10.00">+ x</text>
<text text-anchor="start" x="268.5" y="-715.5" font-family="Helvetica,sans-Serif" font-size="10.00">+ y</text>
<text text-anchor="start" x="268.5" y="-704.5" font-family="Helvetica,sans-Serif" font-size="10.00">+ z</text>
<polyline fill="none" stroke="black" points="260.5,-697.5 339.5,-697.5 "/>
<text text-anchor="start" x="268.5" y="-685.5" font-family="Helvetica,sans-Serif" font-size="10.00">+ cvector()</text>
<text text-anchor="start" x="268.5" y="-674.5" font-family="Helvetica,sans-Serif" font-size="10.00">+ cvector()</text>
<text text-anchor="start" x="268.5" y="-663.5" font-family="Helvetica,sans-Serif" font-size="10.00">+ normalize()</text>
<text text-anchor="start" x="268.5" y="-652.5" font-family="Helvetica,sans-Serif" font-size="10.00">+ length()</text>
<text text-anchor="start" x="268.5" y="-641.5" font-family="Helvetica,sans-Serif" font-size="10.00">+ norm()</text>
<text text-anchor="start" x="268.5" y="-630.5" font-family="Helvetica,sans-Serif" font-size="10.00">+ norm2()</text>
<text text-anchor="start" x="268.5" y="-619.5" font-family="Helvetica,sans-Serif" font-size="10.00">+ normalized()</text>
<text text-anchor="start" x="268.5" y="-608.5" font-family="Helvetica,sans-Serif" font-size="10.00">+ operator[]()</text>
<text text-anchor="start" x="268.5" y="-597.5" font-family="Helvetica,sans-Serif" font-size="10.00">+ to_json()</text>
<text text-anchor="start" x="268.5" y="-586.5" font-family="Helvetica,sans-Serif" font-size="10.00">+ from_json()</text>
</a>
</g>
</g>
<!-- Node9&#45;&gt;Node4 -->
<g id="edge12" class="edge"><title>Node9&#45;&gt;Node4</title>
<path fill="none" stroke="#404040" d="M270.089,-579.402C257.58,-526.115 252.175,-458.873 283,-408 304.604,-372.346 330.996,-383.726 371.804,-360.814"/>
<polygon fill="none" stroke="#404040" points="371.985,-360.702 374.991,-354.148 382.198,-354.401 379.192,-360.956 371.985,-360.702"/>
<text text-anchor="middle" x="290.5" y="-467.5" font-family="Helvetica,sans-Serif" font-size="10.00"> +c</text>
</g>
<!-- Node9&#45;&gt;Node8 -->
<g id="edge8" class="edge"><title>Node9&#45;&gt;Node8</title>
<path fill="none" stroke="#404040" d="M320.645,-579.309C324.794,-561.585 329.047,-543.419 332.855,-527.153"/>
<polygon fill="none" stroke="#404040" points="332.936,-526.806 330.409,-520.053 335.671,-515.122 338.198,-521.876 332.936,-526.806"/>
<text text-anchor="middle" x="335.5" y="-553" font-family="Helvetica,sans-Serif" font-size="10.00"> +d</text>
</g>
<!-- Node10 -->
<g id="node10" class="node"><title>Node10</title>
<g id="a_node10"><a xlink:href="structavector.html" target="_top" xlink:title="3 element attitude vector. ">
<polygon fill="white" stroke="black" points="403,-414 403,-526 477,-526 477,-414 403,-414"/>
<text text-anchor="middle" x="440" y="-514" font-family="Helvetica,sans-Serif" font-size="10.00">avector</text>
<polyline fill="none" stroke="black" points="403,-507 477,-507 "/>
<text text-anchor="start" x="411" y="-495" font-family="Helvetica,sans-Serif" font-size="10.00">+ h</text>
<text text-anchor="start" x="411" y="-484" font-family="Helvetica,sans-Serif" font-size="10.00">+ e</text>
<text text-anchor="start" x="411" y="-473" font-family="Helvetica,sans-Serif" font-size="10.00">+ b</text>
<polyline fill="none" stroke="black" points="403,-466 477,-466 "/>
<text text-anchor="start" x="411" y="-454" font-family="Helvetica,sans-Serif" font-size="10.00">+ avector()</text>
<text text-anchor="start" x="411" y="-443" font-family="Helvetica,sans-Serif" font-size="10.00">+ avector()</text>
<text text-anchor="start" x="411" y="-432" font-family="Helvetica,sans-Serif" font-size="10.00">+ to_json()</text>
<text text-anchor="start" x="411" y="-421" font-family="Helvetica,sans-Serif" font-size="10.00">+ from_json()</text>
</a>
</g>
</g>
<!-- Node10&#45;&gt;Node4 -->
<g id="edge9" class="edge"><title>Node10&#45;&gt;Node4</title>
<path fill="none" stroke="#404040" d="M426.578,-413.684C423.224,-399.863 419.695,-385.317 416.57,-372.441"/>
<polygon fill="none" stroke="#404040" points="416.548,-372.347 411.245,-367.46 413.718,-360.686 419.02,-365.573 416.548,-372.347"/>
<text text-anchor="middle" x="428.5" y="-382" font-family="Helvetica,sans-Serif" font-size="10.00"> +a</text>
</g>
<!-- Node11 -->
<g id="node11" class="node"><title>Node11</title>
<g id="a_node11"><a xlink:href="structrvector.html" target="_top" xlink:title="3 element generic row vector ">
<polygon fill="white" stroke="black" points="495,-425 495,-515 569,-515 569,-425 495,-425"/>
<text text-anchor="middle" x="532" y="-503" font-family="Helvetica,sans-Serif" font-size="10.00">rvector</text>
<polyline fill="none" stroke="black" points="495,-496 569,-496 "/>
<text text-anchor="start" x="503" y="-484" font-family="Helvetica,sans-Serif" font-size="10.00">+ col</text>
<polyline fill="none" stroke="black" points="495,-477 569,-477 "/>
<text text-anchor="start" x="503" y="-465" font-family="Helvetica,sans-Serif" font-size="10.00">+ rvector()</text>
<text text-anchor="start" x="503" y="-454" font-family="Helvetica,sans-Serif" font-size="10.00">+ rvector()</text>
<text text-anchor="start" x="503" y="-443" font-family="Helvetica,sans-Serif" font-size="10.00">+ to_json()</text>
<text text-anchor="start" x="503" y="-432" font-family="Helvetica,sans-Serif" font-size="10.00">+ from_json()</text>
</a>
</g>
</g>
<!-- Node11&#45;&gt;Node4 -->
<g id="edge10" class="edge"><title>Node11&#45;&gt;Node4</title>
<path fill="none" stroke="#404040" d="M500.186,-424.978C495.574,-419.147 490.77,-413.343 486,-408 471.95,-392.26 455.142,-375.996 440.649,-362.653"/>
<polygon fill="none" stroke="#404040" points="440.389,-362.416 433.259,-361.337 431.511,-354.341 438.642,-355.419 440.389,-362.416"/>
<text text-anchor="middle" x="474.5" y="-382" font-family="Helvetica,sans-Serif" font-size="10.00"> +r</text>
</g>
<!-- Node12 -->
<g id="node12" class="node"><title>Node12</title>
<g id="a_node12"><a xlink:href="structsvector.html" target="_top" xlink:title="3 element spherical vector ">
<polygon fill="white" stroke="black" points="587,-414 587,-526 661,-526 661,-414 587,-414"/>
<text text-anchor="middle" x="624" y="-514" font-family="Helvetica,sans-Serif" font-size="10.00">svector</text>
<polyline fill="none" stroke="black" points="587,-507 661,-507 "/>
<text text-anchor="start" x="595" y="-495" font-family="Helvetica,sans-Serif" font-size="10.00">+ phi</text>
<text text-anchor="start" x="595" y="-484" font-family="Helvetica,sans-Serif" font-size="10.00">+ lambda</text>
<text text-anchor="start" x="595" y="-473" font-family="Helvetica,sans-Serif" font-size="10.00">+ r</text>
<polyline fill="none" stroke="black" points="587,-466 661,-466 "/>
<text text-anchor="start" x="595" y="-454" font-family="Helvetica,sans-Serif" font-size="10.00">+ svector()</text>
<text text-anchor="start" x="595" y="-443" font-family="Helvetica,sans-Serif" font-size="10.00">+ svector()</text>
<text text-anchor="start" x="595" y="-432" font-family="Helvetica,sans-Serif" font-size="10.00">+ to_json()</text>
<text text-anchor="start" x="595" y="-421" font-family="Helvetica,sans-Serif" font-size="10.00">+ from_json()</text>
</a>
</g>
</g>
<!-- Node12&#45;&gt;Node4 -->
<g id="edge11" class="edge"><title>Node12&#45;&gt;Node4</title>
<path fill="none" stroke="#404040" d="M586.755,-415.798C583.941,-413.014 581.017,-410.386 578,-408 537.104,-375.666 480.107,-354.359 443.377,-342.984"/>
<polygon fill="none" stroke="#404040" points="443.247,-342.946 436.352,-345.058 431.75,-339.506 438.645,-337.394 443.247,-342.946"/>
<text text-anchor="middle" x="556.5" y="-382" font-family="Helvetica,sans-Serif" font-size="10.00"> +s</text>
</g>
<!-- Node13 -->
<g id="node13" class="node"><title>Node13</title>
<g id="a_node13"><a xlink:href="structgvector.html" target="_top" xlink:title="3 element geodetic vector ">
<polygon fill="white" stroke="black" points="679,-414 679,-526 753,-526 753,-414 679,-414"/>
<text text-anchor="middle" x="716" y="-514" font-family="Helvetica,sans-Serif" font-size="10.00">gvector</text>
<polyline fill="none" stroke="black" points="679,-507 753,-507 "/>
<text text-anchor="start" x="687" y="-495" font-family="Helvetica,sans-Serif" font-size="10.00">+ lat</text>
<text text-anchor="start" x="687" y="-484" font-family="Helvetica,sans-Serif" font-size="10.00">+ lon</text>
<text text-anchor="start" x="687" y="-473" font-family="Helvetica,sans-Serif" font-size="10.00">+ h</text>
<polyline fill="none" stroke="black" points="679,-466 753,-466 "/>
<text text-anchor="start" x="687" y="-454" font-family="Helvetica,sans-Serif" font-size="10.00">+ gvector()</text>
<text text-anchor="start" x="687" y="-443" font-family="Helvetica,sans-Serif" font-size="10.00">+ gvector()</text>
<text text-anchor="start" x="687" y="-432" font-family="Helvetica,sans-Serif" font-size="10.00">+ to_json()</text>
<text text-anchor="start" x="687" y="-421" font-family="Helvetica,sans-Serif" font-size="10.00">+ from_json()</text>
</a>
</g>
</g>
<!-- Node13&#45;&gt;Node4 -->
<g id="edge13" class="edge"><title>Node13&#45;&gt;Node4</title>
<path fill="none" stroke="#404040" d="M678.818,-415.029C676.006,-412.472 673.063,-410.101 670,-408 599.317,-359.514 497.537,-342.115 443.668,-336.07"/>
<polygon fill="none" stroke="#404040" points="443.612,-336.064 437.231,-339.423 431.677,-334.825 438.058,-331.466 443.612,-336.064"/>
<text text-anchor="middle" x="646.5" y="-382" font-family="Helvetica,sans-Serif" font-size="10.00"> +g</text>
</g>
<!-- Node14 -->
<g id="node14" class="node"><title>Node14</title>
<g id="a_node14"><a xlink:href="structqfirst.html" target="_top" xlink:title="Quaternion, scalar first using vector elements. ">
<polygon fill="white" stroke="black" points="771,-408.5 771,-531.5 845,-531.5 845,-408.5 771,-408.5"/>
<text text-anchor="middle" x="808" y="-519.5" font-family="Helvetica,sans-Serif" font-size="10.00">qfirst</text>
<polyline fill="none" stroke="black" points="771,-512.5 845,-512.5 "/>
<text text-anchor="start" x="779" y="-500.5" font-family="Helvetica,sans-Serif" font-size="10.00">+ q0</text>
<text text-anchor="start" x="779" y="-489.5" font-family="Helvetica,sans-Serif" font-size="10.00">+ q1</text>
<text text-anchor="start" x="779" y="-478.5" font-family="Helvetica,sans-Serif" font-size="10.00">+ q2</text>
<text text-anchor="start" x="779" y="-467.5" font-family="Helvetica,sans-Serif" font-size="10.00">+ q3</text>
<polyline fill="none" stroke="black" points="771,-460.5 845,-460.5 "/>
<text text-anchor="start" x="779" y="-448.5" font-family="Helvetica,sans-Serif" font-size="10.00">+ qfirst()</text>
<text text-anchor="start" x="779" y="-437.5" font-family="Helvetica,sans-Serif" font-size="10.00">+ qfirst()</text>
<text text-anchor="start" x="779" y="-426.5" font-family="Helvetica,sans-Serif" font-size="10.00">+ to_json()</text>
<text text-anchor="start" x="779" y="-415.5" font-family="Helvetica,sans-Serif" font-size="10.00">+ from_json()</text>
</a>
</g>
</g>
<!-- Node14&#45;&gt;Node4 -->
<g id="edge14" class="edge"><title>Node14&#45;&gt;Node4</title>
<path fill="none" stroke="#404040" d="M770.833,-415.007C768.017,-412.456 765.069,-410.092 762,-408 710.168,-372.668 524.12,-346.917 444.062,-337.225"/>
<polygon fill="none" stroke="#404040" points="443.634,-337.174 437.204,-340.437 431.719,-335.756 438.149,-332.493 443.634,-337.174"/>
<text text-anchor="middle" x="731" y="-382" font-family="Helvetica,sans-Serif" font-size="10.00"> +qf</text>
</g>
</g>
</svg>
        <g id="navigator" transform="translate(0 0)" fill="#404254">
                <rect fill="#f2f5e9" fill-opacity="0.5" stroke="#606060" stroke-width=".5" x="0" y="0" width="60" height="60"/>
                <use id="zoomplus" xlink:href="#zoomPlus" x="17" y="9" onmousedown="handleZoom(evt,'in')"/>
                <use id="zoomminus" xlink:href="#zoomMin" x="42" y="9" onmousedown="handleZoom(evt,'out')"/>
                <use id="reset" xlink:href="#resetDef" x="30" y="36" onmousedown="handleReset()"/>
                <g id="arrowUp" xlink:href="#dirArrow" transform="translate(30 24)" onmousedown="handlePan(0,-1)">
                  <use xlink:href="#rim" fill="#404040">
                        <set attributeName="fill" to="#808080" begin="arrowUp.mouseover" end="arrowUp.mouseout"/>
                  </use>
                  <path fill="none" stroke="white" stroke-width="1.5" d="M0,-3.0v7 M-2.5,-0.5L0,-3.0L2.5,-0.5"/>
                </g>
                <g id="arrowRight" xlink:href="#dirArrow" transform="rotate(90) translate(36 -43)" onmousedown="handlePan(1,0)">
                  <use xlink:href="#rim" fill="#404040">
                        <set attributeName="fill" to="#808080" begin="arrowRight.mouseover" end="arrowRight.mouseout"/>
                  </use>
                  <path fill="none" stroke="white" stroke-width="1.5" d="M0,-3.0v7 M-2.5,-0.5L0,-3.0L2.5,-0.5"/>
                </g>
                <g id="arrowDown" xlink:href="#dirArrow" transform="rotate(180) translate(-30 -48)" onmousedown="handlePan(0,1)">
                  <use xlink:href="#rim" fill="#404040">
                        <set attributeName="fill" to="#808080" begin="arrowDown.mouseover" end="arrowDown.mouseout"/>
                  </use>
                  <path fill="none" stroke="white" stroke-width="1.5" d="M0,-3.0v7 M-2.5,-0.5L0,-3.0L2.5,-0.5"/>
                </g>
                <g id="arrowLeft" xlink:href="#dirArrow" transform="rotate(270) translate(-36 17)" onmousedown="handlePan(-1,0)">
                  <use xlink:href="#rim" fill="#404040">
                        <set attributeName="fill" to="#808080" begin="arrowLeft.mouseover" end="arrowLeft.mouseout"/>
                  </use>
                  <path fill="none" stroke="white" stroke-width="1.5" d="M0,-3.0v7 M-2.5,-0.5L0,-3.0L2.5,-0.5"/>
                </g>
        </g>
        <svg viewBox="0 0 15 15" width="100%" height="30px" preserveAspectRatio="xMaxYMin meet">
         <g id="arrow_out" transform="scale(0.3 0.3)">
          <a xlink:href="class_ls_fit__coll__graph_org.svg" target="_base">
           <rect id="button" ry="5" rx="5" y="6" x="6" height="38" width="38"
                fill="#f2f5e9" fill-opacity="0.5" stroke="#606060" stroke-width="1.0"/>
           <path id="arrow"
             d="M 11.500037,31.436501 C 11.940474,20.09759 22.043105,11.32322 32.158766,21.979434 L 37.068811,17.246167 C 37.068811,17.246167 37.088388,32 37.088388,32 L 22.160133,31.978069 C 22.160133,31.978069 26.997745,27.140456 26.997745,27.140456 C 18.528582,18.264221 13.291696,25.230495 11.500037,31.436501 z"
             style="fill:#404040;"/>
          </a>
         </g>
        </svg>
</svg>
