<?xml version="1.0" encoding="UTF-8" standalone="no"?>
<!DOCTYPE svg PUBLIC "-//W3C//DTD SVG 1.1//EN"
 "http://www.w3.org/Graphics/SVG/1.1/DTD/svg11.dtd">
<!-- Generated by graphviz version 2.38.0 (20140413.2041)
 -->
<!-- Title: Udp Pages: 1 -->
<svg width="231pt" height="551pt"
 viewBox="0.00 0.00 231.00 551.00" xmlns="http://www.w3.org/2000/svg" xmlns:xlink="http://www.w3.org/1999/xlink">
<g id="graph0" class="graph" transform="scale(1 1) rotate(0) translate(4 547)">
<title>Udp</title>
<polygon fill="white" stroke="none" points="-4,4 -4,-547 227,-547 227,4 -4,4"/>
<!-- Node1 -->
<g id="node1" class="node"><title>Node1</title>
<polygon fill="#bfbfbf" stroke="black" points="-7.10543e-15,-0.5 -7.10543e-15,-189.5 116,-189.5 116,-0.5 -7.10543e-15,-0.5"/>
<text text-anchor="middle" x="58" y="-177.5" font-family="Helvetica,sans-Serif" font-size="10.00">Udp</text>
<polyline fill="none" stroke="black" points="-7.10543e-15,-170.5 116,-170.5 "/>
<text text-anchor="start" x="8" y="-158.5" font-family="Helvetica,sans-Serif" font-size="10.00">&#45; iretn</text>
<polyline fill="none" stroke="black" points="-7.10543e-15,-151.5 116,-151.5 "/>
<text text-anchor="start" x="8" y="-139.5" font-family="Helvetica,sans-Serif" font-size="10.00">+ Udp()</text>
<text text-anchor="start" x="8" y="-128.5" font-family="Helvetica,sans-Serif" font-size="10.00">+ socketOpen()</text>
<text text-anchor="start" x="8" y="-117.5" font-family="Helvetica,sans-Serif" font-size="10.00">+ setupClient()</text>
<text text-anchor="start" x="8" y="-106.5" font-family="Helvetica,sans-Serif" font-size="10.00">+ setupClient()</text>
<text text-anchor="start" x="8" y="-95.5" font-family="Helvetica,sans-Serif" font-size="10.00">+ setupClientSimGen()</text>
<text text-anchor="start" x="8" y="-84.5" font-family="Helvetica,sans-Serif" font-size="10.00">+ setupClientAcstb()</text>
<text text-anchor="start" x="8" y="-73.5" font-family="Helvetica,sans-Serif" font-size="10.00">+ setupServer()</text>
<text text-anchor="start" x="8" y="-62.5" font-family="Helvetica,sans-Serif" font-size="10.00">+ send()</text>
<text text-anchor="start" x="8" y="-51.5" font-family="Helvetica,sans-Serif" font-size="10.00">+ receiveLoop()</text>
<text text-anchor="start" x="8" y="-40.5" font-family="Helvetica,sans-Serif" font-size="10.00">+ receiveOnce()</text>
<text text-anchor="start" x="8" y="-29.5" font-family="Helvetica,sans-Serif" font-size="10.00">+ close()</text>
<text text-anchor="start" x="8" y="-18.5" font-family="Helvetica,sans-Serif" font-size="10.00">&#45; openServer()</text>
<text text-anchor="start" x="8" y="-7.5" font-family="Helvetica,sans-Serif" font-size="10.00">&#45; errorStatus()</text>
</g>
<!-- Node2 -->
<g id="node2" class="node"><title>Node2</title>
<polygon fill="white" stroke="#bfbfbf" points="62.5,-485.5 62.5,-542.5 103.5,-542.5 103.5,-485.5 62.5,-485.5"/>
<text text-anchor="middle" x="83" y="-530.5" font-family="Helvetica,sans-Serif" font-size="10.00">string</text>
<polyline fill="none" stroke="#bfbfbf" points="62.5,-523.5 103.5,-523.5 "/>
<text text-anchor="middle" x="83" y="-511.5" font-family="Helvetica,sans-Serif" font-size="10.00"> </text>
<polyline fill="none" stroke="#bfbfbf" points="62.5,-504.5 103.5,-504.5 "/>
<text text-anchor="middle" x="83" y="-492.5" font-family="Helvetica,sans-Serif" font-size="10.00"> </text>
</g>
<!-- Node2&#45;&gt;Node1 -->
<g id="edge1" class="edge"><title>Node2&#45;&gt;Node1</title>
<path fill="none" stroke="#404040" d="M68.0454,-485.382C61.4058,-471.58 54.3456,-454.366 51,-438 35.0392,-359.921 37.7348,-269.725 43.9135,-201.57"/>
<polygon fill="none" stroke="#404040" points="43.9215,-201.485 40.5092,-195.132 45.0608,-189.539 48.4731,-195.892 43.9215,-201.485"/>
<text text-anchor="middle" x="84.5" y="-335" font-family="Helvetica,sans-Serif" font-size="10.00"> +receivedData</text>
</g>
<!-- Node3 -->
<g id="node3" class="node"><title>Node3</title>
<g id="a_node3"><a xlink:href="struct_socket_options.html" target="_top" xlink:title="{SocketOptions\n|+ type\l+ handle\l+ server\l+ s_other\l+ connect\l+ port\l+ addrlen\l+ role\l+ blocking\l+ timeout\l+ stream\l|+ SocketOptions()\l+ SocketOptions()\l+ SocketOptions()\l+ SocketOptions()\l}">
<polygon fill="white" stroke="black" points="127,-237.5 127,-437.5 223,-437.5 223,-237.5 127,-237.5"/>
<text text-anchor="middle" x="175" y="-425.5" font-family="Helvetica,sans-Serif" font-size="10.00">SocketOptions</text>
<polyline fill="none" stroke="black" points="127,-418.5 223,-418.5 "/>
<text text-anchor="start" x="135" y="-406.5" font-family="Helvetica,sans-Serif" font-size="10.00">+ type</text>
<text text-anchor="start" x="135" y="-395.5" font-family="Helvetica,sans-Serif" font-size="10.00">+ handle</text>
<text text-anchor="start" x="135" y="-384.5" font-family="Helvetica,sans-Serif" font-size="10.00">+ server</text>
<text text-anchor="start" x="135" y="-373.5" font-family="Helvetica,sans-Serif" font-size="10.00">+ s_other</text>
<text text-anchor="start" x="135" y="-362.5" font-family="Helvetica,sans-Serif" font-size="10.00">+ connect</text>
<text text-anchor="start" x="135" y="-351.5" font-family="Helvetica,sans-Serif" font-size="10.00">+ port</text>
<text text-anchor="start" x="135" y="-340.5" font-family="Helvetica,sans-Serif" font-size="10.00">+ addrlen</text>
<text text-anchor="start" x="135" y="-329.5" font-family="Helvetica,sans-Serif" font-size="10.00">+ role</text>
<text text-anchor="start" x="135" y="-318.5" font-family="Helvetica,sans-Serif" font-size="10.00">+ blocking</text>
<text text-anchor="start" x="135" y="-307.5" font-family="Helvetica,sans-Serif" font-size="10.00">+ timeout</text>
<text text-anchor="start" x="135" y="-296.5" font-family="Helvetica,sans-Serif" font-size="10.00">+ stream</text>
<polyline fill="none" stroke="black" points="127,-289.5 223,-289.5 "/>
<text text-anchor="start" x="135" y="-277.5" font-family="Helvetica,sans-Serif" font-size="10.00">+ SocketOptions()</text>
<text text-anchor="start" x="135" y="-266.5" font-family="Helvetica,sans-Serif" font-size="10.00">+ SocketOptions()</text>
<text text-anchor="start" x="135" y="-255.5" font-family="Helvetica,sans-Serif" font-size="10.00">+ SocketOptions()</text>
<text text-anchor="start" x="135" y="-244.5" font-family="Helvetica,sans-Serif" font-size="10.00">+ SocketOptions()</text>
</a>
</g>
</g>
<!-- Node2&#45;&gt;Node3 -->
<g id="edge3" class="edge"><title>Node2&#45;&gt;Node3</title>
<path fill="none" stroke="#404040" d="M97.5777,-485.35C104.186,-472.815 112.452,-457.137 121.102,-440.73"/>
<polygon fill="none" stroke="#404040" points="121.232,-440.485 120.492,-433.311 126.828,-429.869 127.568,-437.042 121.232,-440.485"/>
<text text-anchor="middle" x="134" y="-459" font-family="Helvetica,sans-Serif" font-size="10.00"> +address</text>
</g>
<!-- Node3&#45;&gt;Node1 -->
<g id="edge2" class="edge"><title>Node3&#45;&gt;Node1</title>
<path fill="none" stroke="#404040" d="M126.905,-237.638C121.018,-225.537 114.985,-213.137 109.057,-200.95"/>
<polygon fill="none" stroke="#404040" points="108.898,-200.623 102.676,-196.978 103.648,-189.832 109.87,-193.478 108.898,-200.623"/>
<text text-anchor="middle" x="127" y="-211" font-family="Helvetica,sans-Serif" font-size="10.00"> &#45;sok</text>
</g>
</g>
</svg>
