<?xml version="1.0" encoding="UTF-8" standalone="no"?>
<!DOCTYPE svg PUBLIC "-//W3C//DTD SVG 1.1//EN"
 "http://www.w3.org/Graphics/SVG/1.1/DTD/svg11.dtd">
<!-- Generated by graphviz version 2.38.0 (20140413.2041)
 -->
<!-- Title: Cosmos::Physics::Propagator Pages: 1 -->
<!--zoomable 1471 -->
<svg id="main" version="1.1" xmlns="http://www.w3.org/2000/svg" xmlns:xlink="http://www.w3.org/1999/xlink" xml:space="preserve" onload="init(evt)">
<style type="text/css"><![CDATA[
.edge:hover path { stroke: red; }
.edge:hover polygon { stroke: red; fill: red; }
]]></style>
<script type="text/javascript"><![CDATA[
var edges = document.getElementsByTagName('g');
if (edges && edges.length) {
  for (var i=0;i<edges.length;i++) {
    if (edges[i].id.substr(0,4)=='edge') {
      edges[i].setAttribute('class','edge');
    }
  }
}
]]></script>
        <defs>
                <circle id="rim" cx="0" cy="0" r="7"/>
                <circle id="rim2" cx="0" cy="0" r="3.5"/>
                <g id="zoomPlus">
                        <use xlink:href="#rim" fill="#404040">
                                <set attributeName="fill" to="#808080" begin="zoomplus.mouseover" end="zoomplus.mouseout"/>
                        </use>
                        <path d="M-4,0h8M0,-4v8" fill="none" stroke="white" stroke-width="1.5" pointer-events="none"/>
                </g>
                <g id="zoomMin">
                        <use xlink:href="#rim" fill="#404040">
                                <set attributeName="fill" to="#808080" begin="zoomminus.mouseover" end="zoomminus.mouseout"/>
                        </use>
                        <path d="M-4,0h8" fill="none" stroke="white" stroke-width="1.5" pointer-events="none"/>
                </g>
                <g id="dirArrow">
                        <path fill="none" stroke="white" stroke-width="1.5" d="M0,-3.0v7 M-2.5,-0.5L0,-3.0L2.5,-0.5"/>
                </g>
               <g id="resetDef">
                       <use xlink:href="#rim2" fill="#404040">
                               <set attributeName="fill" to="#808080" begin="reset.mouseover" end="reset.mouseout"/>
                       </use>
               </g>
        </defs>

<script type="text/javascript">
var viewWidth = 844;
var viewHeight = 1471;
var sectionId = 'dynsection-1';
</script>
<script xlink:href="svgpan.js"/>
<svg id="graph" class="graph">
<g id="viewport">
<title>Cosmos::Physics::Propagator</title>
<polygon fill="white" stroke="none" points="-4,4 -4,-1467 840,-1467 840,4 -4,4"/>
<!-- Node1 -->
<g id="node1" class="node"><title>Node1</title>
<polygon fill="#bfbfbf" stroke="black" points="451,-0.5 451,-90.5 599,-90.5 599,-0.5 451,-0.5"/>
<text text-anchor="middle" x="525" y="-78.5" font-family="Helvetica,sans-Serif" font-size="10.00">Cosmos::Physics::Propagator</text>
<polyline fill="none" stroke="black" points="451,-71.5 599,-71.5 "/>
<text text-anchor="start" x="459" y="-59.5" font-family="Helvetica,sans-Serif" font-size="10.00">+ dt</text>
<text text-anchor="start" x="459" y="-48.5" font-family="Helvetica,sans-Serif" font-size="10.00">+ dtj</text>
<text text-anchor="start" x="459" y="-37.5" font-family="Helvetica,sans-Serif" font-size="10.00">+ type</text>
<polyline fill="none" stroke="black" points="451,-30.5 599,-30.5 "/>
<text text-anchor="start" x="459" y="-18.5" font-family="Helvetica,sans-Serif" font-size="10.00">+ Propagator()</text>
<text text-anchor="start" x="459" y="-7.5" font-family="Helvetica,sans-Serif" font-size="10.00">+ Increment()</text>
</g>
<!-- Node2 -->
<g id="node2" class="node"><title>Node2</title>
<g id="a_node2"><a xlink:href="structlocstruc.html" target="_top" xlink:title="{locstruc\n|+ utc\l|+ to_json()\l+ from_json()\l}">
<polygon fill="white" stroke="black" points="381,-204.5 381,-272.5 455,-272.5 455,-204.5 381,-204.5"/>
<text text-anchor="middle" x="418" y="-260.5" font-family="Helvetica,sans-Serif" font-size="10.00">locstruc</text>
<polyline fill="none" stroke="black" points="381,-253.5 455,-253.5 "/>
<text text-anchor="start" x="389" y="-241.5" font-family="Helvetica,sans-Serif" font-size="10.00">+ utc</text>
<polyline fill="none" stroke="black" points="381,-234.5 455,-234.5 "/>
<text text-anchor="start" x="389" y="-222.5" font-family="Helvetica,sans-Serif" font-size="10.00">+ to_json()</text>
<text text-anchor="start" x="389" y="-211.5" font-family="Helvetica,sans-Serif" font-size="10.00">+ from_json()</text>
</a>
</g>
</g>
<!-- Node2&#45;&gt;Node1 -->
<g id="edge1" class="edge"><title>Node2&#45;&gt;Node1</title>
<path fill="none" stroke="#404040" d="M436.638,-204.23C452.522,-175.876 475.669,-134.559 494.287,-101.324"/>
<polygon fill="none" stroke="#404040" points="494.293,-101.314 493.736,-94.124 500.158,-90.8444 500.715,-98.034 494.293,-101.314"/>
<text text-anchor="middle" x="506.5" y="-123" font-family="Helvetica,sans-Serif" font-size="10.00"> +oldloc</text>
<text text-anchor="middle" x="506.5" y="-112" font-family="Helvetica,sans-Serif" font-size="10.00">+newloc</text>
</g>
<!-- Node3 -->
<g id="node3" class="node"><title>Node3</title>
<g id="a_node3"><a xlink:href="structposstruc.html" target="_top" xlink:title="{posstruc\n|+ utc\l+ earthsep\l+ moonsep\l+ sunsize\l+ sunradiance\l+ orbit\l|+ to_json()\l+ from_json()\l}">
<polygon fill="white" stroke="black" points="179,-529.5 179,-652.5 257,-652.5 257,-529.5 179,-529.5"/>
<text text-anchor="middle" x="218" y="-640.5" font-family="Helvetica,sans-Serif" font-size="10.00">posstruc</text>
<polyline fill="none" stroke="black" points="179,-633.5 257,-633.5 "/>
<text text-anchor="start" x="187" y="-621.5" font-family="Helvetica,sans-Serif" font-size="10.00">+ utc</text>
<text text-anchor="start" x="187" y="-610.5" font-family="Helvetica,sans-Serif" font-size="10.00">+ earthsep</text>
<text text-anchor="start" x="187" y="-599.5" font-family="Helvetica,sans-Serif" font-size="10.00">+ moonsep</text>
<text text-anchor="start" x="187" y="-588.5" font-family="Helvetica,sans-Serif" font-size="10.00">+ sunsize</text>
<text text-anchor="start" x="187" y="-577.5" font-family="Helvetica,sans-Serif" font-size="10.00">+ sunradiance</text>
<text text-anchor="start" x="187" y="-566.5" font-family="Helvetica,sans-Serif" font-size="10.00">+ orbit</text>
<polyline fill="none" stroke="black" points="179,-559.5 257,-559.5 "/>
<text text-anchor="start" x="187" y="-547.5" font-family="Helvetica,sans-Serif" font-size="10.00">+ to_json()</text>
<text text-anchor="start" x="187" y="-536.5" font-family="Helvetica,sans-Serif" font-size="10.00">+ from_json()</text>
</a>
</g>
</g>
<!-- Node3&#45;&gt;Node2 -->
<g id="edge2" class="edge"><title>Node3&#45;&gt;Node2</title>
<path fill="none" stroke="#404040" d="M252.609,-529.348C292.687,-459.11 357.72,-345.14 393.117,-283.107"/>
<polygon fill="none" stroke="#404040" points="393.213,-282.939 392.713,-275.745 399.161,-272.516 399.661,-279.71 393.213,-282.939"/>
<text text-anchor="middle" x="366.5" y="-404" font-family="Helvetica,sans-Serif" font-size="10.00"> +pos</text>
</g>
<!-- Node4 -->
<g id="node4" class="node"><title>Node4</title>
<g id="a_node4"><a xlink:href="structgeoidpos.html" target="_top" xlink:title="Geodetic position structure. ">
<polygon fill="white" stroke="black" points="0,-827 0,-906 74,-906 74,-827 0,-827"/>
<text text-anchor="middle" x="37" y="-894" font-family="Helvetica,sans-Serif" font-size="10.00">geoidpos</text>
<polyline fill="none" stroke="black" points="0,-887 74,-887 "/>
<text text-anchor="start" x="8" y="-875" font-family="Helvetica,sans-Serif" font-size="10.00">+ utc</text>
<text text-anchor="start" x="8" y="-864" font-family="Helvetica,sans-Serif" font-size="10.00">+ pass</text>
<polyline fill="none" stroke="black" points="0,-857 74,-857 "/>
<text text-anchor="start" x="8" y="-845" font-family="Helvetica,sans-Serif" font-size="10.00">+ to_json()</text>
<text text-anchor="start" x="8" y="-834" font-family="Helvetica,sans-Serif" font-size="10.00">+ from_json()</text>
</a>
</g>
</g>
<!-- Node4&#45;&gt;Node3 -->
<g id="edge3" class="edge"><title>Node4&#45;&gt;Node3</title>
<path fill="none" stroke="#404040" d="M50.4885,-826.967C62.4113,-795.48 81.5345,-750.528 105,-715 123.623,-686.804 148.706,-658.791 170.509,-636.637"/>
<polygon fill="none" stroke="#404040" points="170.517,-636.629 171.926,-629.557 178.996,-628.137 177.587,-635.21 170.517,-636.629"/>
<text text-anchor="middle" x="119" y="-745.5" font-family="Helvetica,sans-Serif" font-size="10.00"> +selg</text>
<text text-anchor="middle" x="119" y="-734.5" font-family="Helvetica,sans-Serif" font-size="10.00">+geod</text>
</g>
<!-- Node5 -->
<g id="node5" class="node"><title>Node5</title>
<g id="a_node5"><a xlink:href="structgvector.html" target="_top" xlink:title="3 element geodetic vector ">
<polygon fill="white" stroke="black" points="0,-1102.5 0,-1214.5 74,-1214.5 74,-1102.5 0,-1102.5"/>
<text text-anchor="middle" x="37" y="-1202.5" font-family="Helvetica,sans-Serif" font-size="10.00">gvector</text>
<polyline fill="none" stroke="black" points="0,-1195.5 74,-1195.5 "/>
<text text-anchor="start" x="8" y="-1183.5" font-family="Helvetica,sans-Serif" font-size="10.00">+ lat</text>
<text text-anchor="start" x="8" y="-1172.5" font-family="Helvetica,sans-Serif" font-size="10.00">+ lon</text>
<text text-anchor="start" x="8" y="-1161.5" font-family="Helvetica,sans-Serif" font-size="10.00">+ h</text>
<polyline fill="none" stroke="black" points="0,-1154.5 74,-1154.5 "/>
<text text-anchor="start" x="8" y="-1142.5" font-family="Helvetica,sans-Serif" font-size="10.00">+ gvector()</text>
<text text-anchor="start" x="8" y="-1131.5" font-family="Helvetica,sans-Serif" font-size="10.00">+ gvector()</text>
<text text-anchor="start" x="8" y="-1120.5" font-family="Helvetica,sans-Serif" font-size="10.00">+ to_json()</text>
<text text-anchor="start" x="8" y="-1109.5" font-family="Helvetica,sans-Serif" font-size="10.00">+ from_json()</text>
</a>
</g>
</g>
<!-- Node5&#45;&gt;Node4 -->
<g id="edge4" class="edge"><title>Node5&#45;&gt;Node4</title>
<path fill="none" stroke="#404040" d="M37,-1102.27C37,-1049.29 37,-969.935 37,-918.435"/>
<polygon fill="none" stroke="#404040" points="37.0001,-918.295 33,-912.295 37,-906.295 41,-912.294 37.0001,-918.295"/>
<text text-anchor="middle" x="44.5" y="-1032" font-family="Helvetica,sans-Serif" font-size="10.00"> +a</text>
<text text-anchor="middle" x="44.5" y="-1021" font-family="Helvetica,sans-Serif" font-size="10.00">+s</text>
<text text-anchor="middle" x="44.5" y="-1010" font-family="Helvetica,sans-Serif" font-size="10.00">+v</text>
</g>
<!-- Node6 -->
<g id="node6" class="node"><title>Node6</title>
<g id="a_node6"><a xlink:href="structspherpos.html" target="_top" xlink:title="Spherical position structure. ">
<polygon fill="white" stroke="black" points="92,-827 92,-906 166,-906 166,-827 92,-827"/>
<text text-anchor="middle" x="129" y="-894" font-family="Helvetica,sans-Serif" font-size="10.00">spherpos</text>
<polyline fill="none" stroke="black" points="92,-887 166,-887 "/>
<text text-anchor="start" x="100" y="-875" font-family="Helvetica,sans-Serif" font-size="10.00">+ utc</text>
<text text-anchor="start" x="100" y="-864" font-family="Helvetica,sans-Serif" font-size="10.00">+ pass</text>
<polyline fill="none" stroke="black" points="92,-857 166,-857 "/>
<text text-anchor="start" x="100" y="-845" font-family="Helvetica,sans-Serif" font-size="10.00">+ to_json()</text>
<text text-anchor="start" x="100" y="-834" font-family="Helvetica,sans-Serif" font-size="10.00">+ from_json()</text>
</a>
</g>
</g>
<!-- Node6&#45;&gt;Node3 -->
<g id="edge5" class="edge"><title>Node6&#45;&gt;Node3</title>
<path fill="none" stroke="#404040" d="M130.127,-826.874C131.974,-795.927 136.75,-751.759 149,-715 155.001,-696.993 163.694,-678.613 172.899,-661.737"/>
<polygon fill="none" stroke="#404040" points="173.12,-661.345 172.573,-654.154 178.999,-650.884 179.547,-658.074 173.12,-661.345"/>
<text text-anchor="middle" x="164.5" y="-740" font-family="Helvetica,sans-Serif" font-size="10.00"> +geos</text>
</g>
<!-- Node7 -->
<g id="node7" class="node"><title>Node7</title>
<g id="a_node7"><a xlink:href="structsvector.html" target="_top" xlink:title="3 element spherical vector ">
<polygon fill="white" stroke="black" points="92,-1102.5 92,-1214.5 166,-1214.5 166,-1102.5 92,-1102.5"/>
<text text-anchor="middle" x="129" y="-1202.5" font-family="Helvetica,sans-Serif" font-size="10.00">svector</text>
<polyline fill="none" stroke="black" points="92,-1195.5 166,-1195.5 "/>
<text text-anchor="start" x="100" y="-1183.5" font-family="Helvetica,sans-Serif" font-size="10.00">+ phi</text>
<text text-anchor="start" x="100" y="-1172.5" font-family="Helvetica,sans-Serif" font-size="10.00">+ lambda</text>
<text text-anchor="start" x="100" y="-1161.5" font-family="Helvetica,sans-Serif" font-size="10.00">+ r</text>
<polyline fill="none" stroke="black" points="92,-1154.5 166,-1154.5 "/>
<text text-anchor="start" x="100" y="-1142.5" font-family="Helvetica,sans-Serif" font-size="10.00">+ svector()</text>
<text text-anchor="start" x="100" y="-1131.5" font-family="Helvetica,sans-Serif" font-size="10.00">+ svector()</text>
<text text-anchor="start" x="100" y="-1120.5" font-family="Helvetica,sans-Serif" font-size="10.00">+ to_json()</text>
<text text-anchor="start" x="100" y="-1109.5" font-family="Helvetica,sans-Serif" font-size="10.00">+ from_json()</text>
</a>
</g>
</g>
<!-- Node7&#45;&gt;Node6 -->
<g id="edge6" class="edge"><title>Node7&#45;&gt;Node6</title>
<path fill="none" stroke="#404040" d="M129,-1102.27C129,-1049.29 129,-969.935 129,-918.435"/>
<polygon fill="none" stroke="#404040" points="129,-918.295 125,-912.295 129,-906.295 133,-912.294 129,-918.295"/>
<text text-anchor="middle" x="136.5" y="-1032" font-family="Helvetica,sans-Serif" font-size="10.00"> +a</text>
<text text-anchor="middle" x="136.5" y="-1021" font-family="Helvetica,sans-Serif" font-size="10.00">+s</text>
<text text-anchor="middle" x="136.5" y="-1010" font-family="Helvetica,sans-Serif" font-size="10.00">+v</text>
</g>
<!-- Node8 -->
<g id="node8" class="node"><title>Node8</title>
<g id="a_node8"><a xlink:href="structcartpos.html" target="_top" xlink:title="Cartesian full position structure. ">
<polygon fill="white" stroke="black" points="235,-1119 235,-1198 309,-1198 309,-1119 235,-1119"/>
<text text-anchor="middle" x="272" y="-1186" font-family="Helvetica,sans-Serif" font-size="10.00">cartpos</text>
<polyline fill="none" stroke="black" points="235,-1179 309,-1179 "/>
<text text-anchor="start" x="243" y="-1167" font-family="Helvetica,sans-Serif" font-size="10.00">+ utc</text>
<text text-anchor="start" x="243" y="-1156" font-family="Helvetica,sans-Serif" font-size="10.00">+ pass</text>
<polyline fill="none" stroke="black" points="235,-1149 309,-1149 "/>
<text text-anchor="start" x="243" y="-1137" font-family="Helvetica,sans-Serif" font-size="10.00">+ to_json()</text>
<text text-anchor="start" x="243" y="-1126" font-family="Helvetica,sans-Serif" font-size="10.00">+ from_json()</text>
</a>
</g>
</g>
<!-- Node8&#45;&gt;Node3 -->
<g id="edge7" class="edge"><title>Node8&#45;&gt;Node3</title>
<path fill="none" stroke="#404040" d="M268.288,-1118.63C259.35,-1025.03 236.515,-785.897 224.945,-664.726"/>
<polygon fill="none" stroke="#404040" points="224.934,-664.615 220.382,-659.022 223.793,-652.669 228.346,-658.262 224.934,-664.615"/>
<text text-anchor="middle" x="266" y="-886" font-family="Helvetica,sans-Serif" font-size="10.00"> +selc</text>
<text text-anchor="middle" x="266" y="-875" font-family="Helvetica,sans-Serif" font-size="10.00">+icrf</text>
<text text-anchor="middle" x="266" y="-864" font-family="Helvetica,sans-Serif" font-size="10.00">+sci</text>
<text text-anchor="middle" x="266" y="-853" font-family="Helvetica,sans-Serif" font-size="10.00">+geoc</text>
<text text-anchor="middle" x="266" y="-842" font-family="Helvetica,sans-Serif" font-size="10.00">+eci</text>
</g>
<!-- Node10 -->
<g id="node10" class="node"><title>Node10</title>
<g id="a_node10"><a xlink:href="structextrapos.html" target="_top" xlink:title="Additional parameters relating to position that need only be calculated once. ">
<polygon fill="white" stroke="black" points="289,-788.5 289,-944.5 363,-944.5 363,-788.5 289,-788.5"/>
<text text-anchor="middle" x="326" y="-932.5" font-family="Helvetica,sans-Serif" font-size="10.00">extrapos</text>
<polyline fill="none" stroke="black" points="289,-925.5 363,-925.5 "/>
<text text-anchor="start" x="297" y="-913.5" font-family="Helvetica,sans-Serif" font-size="10.00">+ utc</text>
<text text-anchor="start" x="297" y="-902.5" font-family="Helvetica,sans-Serif" font-size="10.00">+ tt</text>
<text text-anchor="start" x="297" y="-891.5" font-family="Helvetica,sans-Serif" font-size="10.00">+ ut</text>
<text text-anchor="start" x="297" y="-880.5" font-family="Helvetica,sans-Serif" font-size="10.00">+ tdb</text>
<text text-anchor="start" x="297" y="-869.5" font-family="Helvetica,sans-Serif" font-size="10.00">+ j2e</text>
<text text-anchor="start" x="297" y="-858.5" font-family="Helvetica,sans-Serif" font-size="10.00">+ dj2e</text>
<text text-anchor="start" x="297" y="-847.5" font-family="Helvetica,sans-Serif" font-size="10.00">+ ddj2e</text>
<text text-anchor="start" x="297" y="-836.5" font-family="Helvetica,sans-Serif" font-size="10.00">+ de2j</text>
<text text-anchor="start" x="297" y="-825.5" font-family="Helvetica,sans-Serif" font-size="10.00">+ closest</text>
<polyline fill="none" stroke="black" points="289,-818.5 363,-818.5 "/>
<text text-anchor="start" x="297" y="-806.5" font-family="Helvetica,sans-Serif" font-size="10.00">+ to_json()</text>
<text text-anchor="start" x="297" y="-795.5" font-family="Helvetica,sans-Serif" font-size="10.00">+ from_json()</text>
</a>
</g>
</g>
<!-- Node8&#45;&gt;Node10 -->
<g id="edge11" class="edge"><title>Node8&#45;&gt;Node10</title>
<path fill="none" stroke="#404040" d="M269.382,-1118.85C267.71,-1079.13 267.889,-1015.82 281,-963 282.079,-958.653 283.362,-954.266 284.8,-949.885"/>
<polygon fill="none" stroke="#404040" points="284.89,-949.636 283.148,-942.638 288.937,-938.339 290.679,-945.336 284.89,-949.636"/>
<text text-anchor="middle" x="308.5" y="-1026.5" font-family="Helvetica,sans-Serif" font-size="10.00"> +sun2moon</text>
<text text-anchor="middle" x="308.5" y="-1015.5" font-family="Helvetica,sans-Serif" font-size="10.00">+sun2earth</text>
</g>
<!-- Node9 -->
<g id="node9" class="node"><title>Node9</title>
<g id="a_node9"><a xlink:href="structrvector.html" target="_top" xlink:title="3 element generic row vector ">
<polygon fill="white" stroke="black" points="281,-1328.5 281,-1418.5 355,-1418.5 355,-1328.5 281,-1328.5"/>
<text text-anchor="middle" x="318" y="-1406.5" font-family="Helvetica,sans-Serif" font-size="10.00">rvector</text>
<polyline fill="none" stroke="black" points="281,-1399.5 355,-1399.5 "/>
<text text-anchor="start" x="289" y="-1387.5" font-family="Helvetica,sans-Serif" font-size="10.00">+ col</text>
<polyline fill="none" stroke="black" points="281,-1380.5 355,-1380.5 "/>
<text text-anchor="start" x="289" y="-1368.5" font-family="Helvetica,sans-Serif" font-size="10.00">+ rvector()</text>
<text text-anchor="start" x="289" y="-1357.5" font-family="Helvetica,sans-Serif" font-size="10.00">+ rvector()</text>
<text text-anchor="start" x="289" y="-1346.5" font-family="Helvetica,sans-Serif" font-size="10.00">+ to_json()</text>
<text text-anchor="start" x="289" y="-1335.5" font-family="Helvetica,sans-Serif" font-size="10.00">+ from_json()</text>
</a>
</g>
</g>
<!-- Node9&#45;&gt;Node3 -->
<g id="edge9" class="edge"><title>Node9&#45;&gt;Node3</title>
<path fill="none" stroke="#404040" d="M285.297,-1328.46C264.612,-1298.16 239.342,-1256.11 226,-1215 164.167,-1024.46 187.61,-783.56 205.308,-664.881"/>
<polygon fill="none" stroke="#404040" points="205.349,-664.611 202.301,-658.076 207.161,-652.748 210.209,-659.284 205.349,-664.611"/>
<text text-anchor="middle" x="215.5" y="-1021" font-family="Helvetica,sans-Serif" font-size="10.00"> +bearth</text>
</g>
<!-- Node9&#45;&gt;Node8 -->
<g id="edge8" class="edge"><title>Node9&#45;&gt;Node8</title>
<path fill="none" stroke="#404040" d="M308.469,-1328.37C301.054,-1294.03 290.755,-1246.34 282.992,-1210.4"/>
<polygon fill="none" stroke="#404040" points="282.894,-1209.94 277.717,-1204.92 280.361,-1198.21 285.537,-1203.23 282.894,-1209.94"/>
<text text-anchor="middle" x="302.5" y="-1258" font-family="Helvetica,sans-Serif" font-size="10.00"> +a</text>
<text text-anchor="middle" x="302.5" y="-1247" font-family="Helvetica,sans-Serif" font-size="10.00">+s</text>
<text text-anchor="middle" x="302.5" y="-1236" font-family="Helvetica,sans-Serif" font-size="10.00">+v</text>
</g>
<!-- Node11 -->
<g id="node11" class="node"><title>Node11</title>
<g id="a_node11"><a xlink:href="structrmatrix.html" target="_top" xlink:title="3x3 element generic matrix ">
<polygon fill="white" stroke="black" points="327,-1113.5 327,-1203.5 401,-1203.5 401,-1113.5 327,-1113.5"/>
<text text-anchor="middle" x="364" y="-1191.5" font-family="Helvetica,sans-Serif" font-size="10.00">rmatrix</text>
<polyline fill="none" stroke="black" points="327,-1184.5 401,-1184.5 "/>
<text text-anchor="middle" x="364" y="-1172.5" font-family="Helvetica,sans-Serif" font-size="10.00"> </text>
<polyline fill="none" stroke="black" points="327,-1165.5 401,-1165.5 "/>
<text text-anchor="start" x="335" y="-1153.5" font-family="Helvetica,sans-Serif" font-size="10.00">+ rmatrix()</text>
<text text-anchor="start" x="335" y="-1142.5" font-family="Helvetica,sans-Serif" font-size="10.00">+ rmatrix()</text>
<text text-anchor="start" x="335" y="-1131.5" font-family="Helvetica,sans-Serif" font-size="10.00">+ to_json()</text>
<text text-anchor="start" x="335" y="-1120.5" font-family="Helvetica,sans-Serif" font-size="10.00">+ from_json()</text>
</a>
</g>
</g>
<!-- Node9&#45;&gt;Node11 -->
<g id="edge13" class="edge"><title>Node9&#45;&gt;Node11</title>
<path fill="none" stroke="#404040" d="M327.531,-1328.37C334.593,-1295.67 344.271,-1250.85 351.883,-1215.61"/>
<polygon fill="none" stroke="#404040" points="351.948,-1215.31 349.305,-1208.6 354.481,-1203.58 357.124,-1210.29 351.948,-1215.31"/>
<text text-anchor="middle" x="360.5" y="-1247" font-family="Helvetica,sans-Serif" font-size="10.00"> +row</text>
</g>
<!-- Node13 -->
<g id="node13" class="node"><title>Node13</title>
<g id="a_node13"><a xlink:href="structqatt.html" target="_top" xlink:title="Quaternion Attitude. ">
<polygon fill="white" stroke="black" points="473,-827 473,-906 547,-906 547,-827 473,-827"/>
<text text-anchor="middle" x="510" y="-894" font-family="Helvetica,sans-Serif" font-size="10.00">qatt</text>
<polyline fill="none" stroke="black" points="473,-887 547,-887 "/>
<text text-anchor="start" x="481" y="-875" font-family="Helvetica,sans-Serif" font-size="10.00">+ utc</text>
<text text-anchor="start" x="481" y="-864" font-family="Helvetica,sans-Serif" font-size="10.00">+ pass</text>
<polyline fill="none" stroke="black" points="473,-857 547,-857 "/>
<text text-anchor="start" x="481" y="-845" font-family="Helvetica,sans-Serif" font-size="10.00">+ to_json()</text>
<text text-anchor="start" x="481" y="-834" font-family="Helvetica,sans-Serif" font-size="10.00">+ from_json()</text>
</a>
</g>
</g>
<!-- Node9&#45;&gt;Node13 -->
<g id="edge18" class="edge"><title>Node9&#45;&gt;Node13</title>
<path fill="none" stroke="#404040" d="M347.875,-1328.23C367.597,-1297.49 392.866,-1255.03 410,-1215 453.578,-1113.19 484.583,-986.682 499.649,-917.86"/>
<polygon fill="none" stroke="#404040" points="499.654,-917.834 497.012,-911.124 502.19,-906.105 504.832,-912.815 499.654,-917.834"/>
<text text-anchor="middle" x="457.5" y="-1161.5" font-family="Helvetica,sans-Serif" font-size="10.00"> +a</text>
<text text-anchor="middle" x="457.5" y="-1150.5" font-family="Helvetica,sans-Serif" font-size="10.00">+v</text>
</g>
<!-- Node10&#45;&gt;Node3 -->
<g id="edge10" class="edge"><title>Node10&#45;&gt;Node3</title>
<path fill="none" stroke="#404040" d="M295.485,-788.223C280.109,-749.285 261.578,-702.357 246.494,-664.159"/>
<polygon fill="none" stroke="#404040" points="246.338,-663.764 240.414,-659.653 241.931,-652.603 247.855,-656.715 246.338,-663.764"/>
<text text-anchor="middle" x="303.5" y="-740" font-family="Helvetica,sans-Serif" font-size="10.00"> +extra</text>
</g>
<!-- Node11&#45;&gt;Node10 -->
<g id="edge12" class="edge"><title>Node11&#45;&gt;Node10</title>
<path fill="none" stroke="#404040" d="M358.229,-1113.46C352.797,-1072 344.501,-1008.69 337.687,-956.688"/>
<polygon fill="none" stroke="#404040" points="337.682,-956.655 332.937,-951.225 336.123,-944.756 340.869,-950.186 337.682,-956.655"/>
<text text-anchor="middle" x="369" y="-1076" font-family="Helvetica,sans-Serif" font-size="10.00"> +t2s</text>
<text text-anchor="middle" x="369" y="-1065" font-family="Helvetica,sans-Serif" font-size="10.00">+s2t</text>
<text text-anchor="middle" x="369" y="-1054" font-family="Helvetica,sans-Serif" font-size="10.00">+dt2s</text>
<text text-anchor="middle" x="369" y="-1043" font-family="Helvetica,sans-Serif" font-size="10.00">+ds2t</text>
<text text-anchor="middle" x="369" y="-1032" font-family="Helvetica,sans-Serif" font-size="10.00">+s2j</text>
<text text-anchor="middle" x="369" y="-1021" font-family="Helvetica,sans-Serif" font-size="10.00">+j2s</text>
<text text-anchor="middle" x="369" y="-1010" font-family="Helvetica,sans-Serif" font-size="10.00">+t2j</text>
<text text-anchor="middle" x="369" y="-999" font-family="Helvetica,sans-Serif" font-size="10.00">+j2t</text>
<text text-anchor="middle" x="369" y="-988" font-family="Helvetica,sans-Serif" font-size="10.00">+dde2j</text>
<text text-anchor="middle" x="369" y="-977" font-family="Helvetica,sans-Serif" font-size="10.00">+e2j</text>
<text text-anchor="middle" x="369" y="-966" font-family="Helvetica,sans-Serif" font-size="10.00">...</text>
</g>
<!-- Node16 -->
<g id="node16" class="node"><title>Node16</title>
<g id="a_node16"><a xlink:href="structextraatt.html" target="_top" xlink:title="Additional parameters relating to position that need only be calculated once. ">
<polygon fill="white" stroke="black" points="381,-832.5 381,-900.5 455,-900.5 455,-832.5 381,-832.5"/>
<text text-anchor="middle" x="418" y="-888.5" font-family="Helvetica,sans-Serif" font-size="10.00">extraatt</text>
<polyline fill="none" stroke="black" points="381,-881.5 455,-881.5 "/>
<text text-anchor="start" x="389" y="-869.5" font-family="Helvetica,sans-Serif" font-size="10.00">+ utc</text>
<polyline fill="none" stroke="black" points="381,-862.5 455,-862.5 "/>
<text text-anchor="start" x="389" y="-850.5" font-family="Helvetica,sans-Serif" font-size="10.00">+ to_json()</text>
<text text-anchor="start" x="389" y="-839.5" font-family="Helvetica,sans-Serif" font-size="10.00">+ from_json()</text>
</a>
</g>
</g>
<!-- Node11&#45;&gt;Node16 -->
<g id="edge20" class="edge"><title>Node11&#45;&gt;Node16</title>
<path fill="none" stroke="#404040" d="M379.883,-1113.16C382.9,-1103.63 385.798,-1093.55 388,-1084 401.455,-1025.65 409.721,-956.981 414.083,-912.878"/>
<polygon fill="none" stroke="#404040" points="414.091,-912.79 410.682,-906.435 415.236,-900.844 418.646,-907.199 414.091,-912.79"/>
<text text-anchor="middle" x="419" y="-1026.5" font-family="Helvetica,sans-Serif" font-size="10.00"> +b2j</text>
<text text-anchor="middle" x="419" y="-1015.5" font-family="Helvetica,sans-Serif" font-size="10.00">+j2b</text>
</g>
<!-- Node12 -->
<g id="node12" class="node"><title>Node12</title>
<g id="a_node12"><a xlink:href="structattstruc.html" target="_top" xlink:title="{attstruc\n|+ utc\l|+ to_json()\l+ from_json()\l}">
<polygon fill="white" stroke="black" points="381,-557 381,-625 455,-625 455,-557 381,-557"/>
<text text-anchor="middle" x="418" y="-613" font-family="Helvetica,sans-Serif" font-size="10.00">attstruc</text>
<polyline fill="none" stroke="black" points="381,-606 455,-606 "/>
<text text-anchor="start" x="389" y="-594" font-family="Helvetica,sans-Serif" font-size="10.00">+ utc</text>
<polyline fill="none" stroke="black" points="381,-587 455,-587 "/>
<text text-anchor="start" x="389" y="-575" font-family="Helvetica,sans-Serif" font-size="10.00">+ to_json()</text>
<text text-anchor="start" x="389" y="-564" font-family="Helvetica,sans-Serif" font-size="10.00">+ from_json()</text>
</a>
</g>
</g>
<!-- Node12&#45;&gt;Node2 -->
<g id="edge14" class="edge"><title>Node12&#45;&gt;Node2</title>
<path fill="none" stroke="#404040" d="M418,-556.71C418,-493.519 418,-356.133 418,-284.693"/>
<polygon fill="none" stroke="#404040" points="418,-284.568 414,-278.568 418,-272.568 422,-278.568 418,-284.568"/>
<text text-anchor="middle" x="428.5" y="-404" font-family="Helvetica,sans-Serif" font-size="10.00"> +att</text>
</g>
<!-- Node13&#45;&gt;Node12 -->
<g id="edge15" class="edge"><title>Node13&#45;&gt;Node12</title>
<path fill="none" stroke="#404040" d="M497.014,-826.894C480.16,-776.791 450.81,-689.538 433.017,-636.642"/>
<polygon fill="none" stroke="#404040" points="433.014,-636.635 427.31,-632.223 429.188,-625.261 434.893,-629.672 433.014,-636.635"/>
<text text-anchor="middle" x="492" y="-762" font-family="Helvetica,sans-Serif" font-size="10.00"> +selc</text>
<text text-anchor="middle" x="492" y="-751" font-family="Helvetica,sans-Serif" font-size="10.00">+topo</text>
<text text-anchor="middle" x="492" y="-740" font-family="Helvetica,sans-Serif" font-size="10.00">+icrf</text>
<text text-anchor="middle" x="492" y="-729" font-family="Helvetica,sans-Serif" font-size="10.00">+geoc</text>
<text text-anchor="middle" x="492" y="-718" font-family="Helvetica,sans-Serif" font-size="10.00">+lvlh</text>
</g>
<!-- Node14 -->
<g id="node14" class="node"><title>Node14</title>
<g id="a_node14"><a xlink:href="structquaternion.html" target="_top" xlink:title="Quaternion, scalar last, using x, y, z. ">
<polygon fill="white" stroke="black" points="480.5,-1113.5 480.5,-1203.5 557.5,-1203.5 557.5,-1113.5 480.5,-1113.5"/>
<text text-anchor="middle" x="519" y="-1191.5" font-family="Helvetica,sans-Serif" font-size="10.00">quaternion</text>
<polyline fill="none" stroke="black" points="480.5,-1184.5 557.5,-1184.5 "/>
<text text-anchor="start" x="488.5" y="-1172.5" font-family="Helvetica,sans-Serif" font-size="10.00">+ w</text>
<polyline fill="none" stroke="black" points="480.5,-1165.5 557.5,-1165.5 "/>
<text text-anchor="start" x="488.5" y="-1153.5" font-family="Helvetica,sans-Serif" font-size="10.00">+ quaternion()</text>
<text text-anchor="start" x="488.5" y="-1142.5" font-family="Helvetica,sans-Serif" font-size="10.00">+ quaternion()</text>
<text text-anchor="start" x="488.5" y="-1131.5" font-family="Helvetica,sans-Serif" font-size="10.00">+ to_json()</text>
<text text-anchor="start" x="488.5" y="-1120.5" font-family="Helvetica,sans-Serif" font-size="10.00">+ from_json()</text>
</a>
</g>
</g>
<!-- Node14&#45;&gt;Node13 -->
<g id="edge16" class="edge"><title>Node14&#45;&gt;Node13</title>
<path fill="none" stroke="#404040" d="M517.633,-1113.46C516.009,-1061.12 513.304,-973.962 511.588,-918.682"/>
<polygon fill="none" stroke="#404040" points="511.579,-918.37 507.395,-912.497 511.206,-906.376 515.391,-912.249 511.579,-918.37"/>
<text text-anchor="middle" x="524.5" y="-1021" font-family="Helvetica,sans-Serif" font-size="10.00"> +s</text>
</g>
<!-- Node15 -->
<g id="node15" class="node"><title>Node15</title>
<g id="a_node15"><a xlink:href="classcvector.html" target="_top" xlink:title="3 element cartesian vector ">
<polygon fill="white" stroke="black" points="479.5,-1284.5 479.5,-1462.5 558.5,-1462.5 558.5,-1284.5 479.5,-1284.5"/>
<text text-anchor="middle" x="519" y="-1450.5" font-family="Helvetica,sans-Serif" font-size="10.00">cvector</text>
<polyline fill="none" stroke="black" points="479.5,-1443.5 558.5,-1443.5 "/>
<text text-anchor="start" x="487.5" y="-1431.5" font-family="Helvetica,sans-Serif" font-size="10.00">+ x</text>
<text text-anchor="start" x="487.5" y="-1420.5" font-family="Helvetica,sans-Serif" font-size="10.00">+ y</text>
<text text-anchor="start" x="487.5" y="-1409.5" font-family="Helvetica,sans-Serif" font-size="10.00">+ z</text>
<polyline fill="none" stroke="black" points="479.5,-1402.5 558.5,-1402.5 "/>
<text text-anchor="start" x="487.5" y="-1390.5" font-family="Helvetica,sans-Serif" font-size="10.00">+ cvector()</text>
<text text-anchor="start" x="487.5" y="-1379.5" font-family="Helvetica,sans-Serif" font-size="10.00">+ cvector()</text>
<text text-anchor="start" x="487.5" y="-1368.5" font-family="Helvetica,sans-Serif" font-size="10.00">+ normalize()</text>
<text text-anchor="start" x="487.5" y="-1357.5" font-family="Helvetica,sans-Serif" font-size="10.00">+ length()</text>
<text text-anchor="start" x="487.5" y="-1346.5" font-family="Helvetica,sans-Serif" font-size="10.00">+ norm()</text>
<text text-anchor="start" x="487.5" y="-1335.5" font-family="Helvetica,sans-Serif" font-size="10.00">+ norm2()</text>
<text text-anchor="start" x="487.5" y="-1324.5" font-family="Helvetica,sans-Serif" font-size="10.00">+ normalized()</text>
<text text-anchor="start" x="487.5" y="-1313.5" font-family="Helvetica,sans-Serif" font-size="10.00">+ operator[]()</text>
<text text-anchor="start" x="487.5" y="-1302.5" font-family="Helvetica,sans-Serif" font-size="10.00">+ to_json()</text>
<text text-anchor="start" x="487.5" y="-1291.5" font-family="Helvetica,sans-Serif" font-size="10.00">+ from_json()</text>
</a>
</g>
</g>
<!-- Node15&#45;&gt;Node14 -->
<g id="edge17" class="edge"><title>Node15&#45;&gt;Node14</title>
<path fill="none" stroke="#404040" d="M519,-1284.33C519,-1261.19 519,-1236.86 519,-1215.89"/>
<polygon fill="none" stroke="#404040" points="519,-1215.63 515,-1209.63 519,-1203.63 523,-1209.63 519,-1215.63"/>
<text text-anchor="middle" x="526.5" y="-1247" font-family="Helvetica,sans-Serif" font-size="10.00"> +d</text>
</g>
<!-- Node16&#45;&gt;Node12 -->
<g id="edge19" class="edge"><title>Node16&#45;&gt;Node12</title>
<path fill="none" stroke="#404040" d="M418,-832.237C418,-783.37 418,-692.045 418,-637.158"/>
<polygon fill="none" stroke="#404040" points="418,-637.032 414,-631.032 418,-625.032 422,-631.032 418,-637.032"/>
<text text-anchor="middle" x="433.5" y="-740" font-family="Helvetica,sans-Serif" font-size="10.00"> +extra</text>
</g>
<!-- Node17 -->
<g id="node17" class="node"><title>Node17</title>
<g id="a_node17"><a xlink:href="structphysicsstruc.html" target="_top" xlink:title="Physics Simulation Structure. ">
<polygon fill="white" stroke="black" points="565,-149.5 565,-327.5 639,-327.5 639,-149.5 565,-149.5"/>
<text text-anchor="middle" x="602" y="-315.5" font-family="Helvetica,sans-Serif" font-size="10.00">physicsstruc</text>
<polyline fill="none" stroke="black" points="565,-308.5 639,-308.5 "/>
<text text-anchor="start" x="573" y="-296.5" font-family="Helvetica,sans-Serif" font-size="10.00">+ dt</text>
<text text-anchor="start" x="573" y="-285.5" font-family="Helvetica,sans-Serif" font-size="10.00">+ dtj</text>
<text text-anchor="start" x="573" y="-274.5" font-family="Helvetica,sans-Serif" font-size="10.00">+ utc</text>
<text text-anchor="start" x="573" y="-263.5" font-family="Helvetica,sans-Serif" font-size="10.00">+ mjdaccel</text>
<text text-anchor="start" x="573" y="-252.5" font-family="Helvetica,sans-Serif" font-size="10.00">+ mjddiff</text>
<text text-anchor="start" x="573" y="-241.5" font-family="Helvetica,sans-Serif" font-size="10.00">+ hcap</text>
<text text-anchor="start" x="573" y="-230.5" font-family="Helvetica,sans-Serif" font-size="10.00">+ mass</text>
<text text-anchor="start" x="573" y="-219.5" font-family="Helvetica,sans-Serif" font-size="10.00">+ temp</text>
<text text-anchor="start" x="573" y="-208.5" font-family="Helvetica,sans-Serif" font-size="10.00">+ heat</text>
<text text-anchor="start" x="573" y="-197.5" font-family="Helvetica,sans-Serif" font-size="10.00">+ radiation</text>
<text text-anchor="start" x="573" y="-186.5" font-family="Helvetica,sans-Serif" font-size="10.00">and 9 more...</text>
<polyline fill="none" stroke="black" points="565,-179.5 639,-179.5 "/>
<text text-anchor="start" x="573" y="-167.5" font-family="Helvetica,sans-Serif" font-size="10.00">+ to_json()</text>
<text text-anchor="start" x="573" y="-156.5" font-family="Helvetica,sans-Serif" font-size="10.00">+ from_json()</text>
</a>
</g>
</g>
<!-- Node17&#45;&gt;Node1 -->
<g id="edge21" class="edge"><title>Node17&#45;&gt;Node1</title>
<path fill="none" stroke="#404040" d="M566.43,-149.268C559.963,-133.226 553.384,-116.908 547.431,-102.14"/>
<polygon fill="none" stroke="#404040" points="547.291,-101.794 541.338,-97.7246 542.804,-90.6641 548.758,-94.7333 547.291,-101.794"/>
<text text-anchor="middle" x="582" y="-123" font-family="Helvetica,sans-Serif" font-size="10.00"> +oldphys</text>
<text text-anchor="middle" x="582" y="-112" font-family="Helvetica,sans-Serif" font-size="10.00">+newphys</text>
</g>
<!-- Node18 -->
<g id="node18" class="node"><title>Node18</title>
<g id="a_node18"><a xlink:href="class_cosmos_1_1_math_1_1_vectors_1_1_vector.html" target="_top" xlink:title="Vector Class. ">
<polygon fill="white" stroke="black" points="473.5,-485.5 473.5,-696.5 594.5,-696.5 594.5,-485.5 473.5,-485.5"/>
<text text-anchor="start" x="481.5" y="-684.5" font-family="Helvetica,sans-Serif" font-size="10.00">Cosmos::Math::Vectors</text>
<text text-anchor="middle" x="534" y="-673.5" font-family="Helvetica,sans-Serif" font-size="10.00">::Vector</text>
<polyline fill="none" stroke="black" points="473.5,-666.5 594.5,-666.5 "/>
<text text-anchor="start" x="481.5" y="-654.5" font-family="Helvetica,sans-Serif" font-size="10.00">+ x</text>
<text text-anchor="start" x="481.5" y="-643.5" font-family="Helvetica,sans-Serif" font-size="10.00">+ y</text>
<text text-anchor="start" x="481.5" y="-632.5" font-family="Helvetica,sans-Serif" font-size="10.00">+ z</text>
<text text-anchor="start" x="481.5" y="-621.5" font-family="Helvetica,sans-Serif" font-size="10.00">+ w</text>
<polyline fill="none" stroke="black" points="473.5,-614.5 594.5,-614.5 "/>
<text text-anchor="start" x="481.5" y="-602.5" font-family="Helvetica,sans-Serif" font-size="10.00">+ Vector()</text>
<text text-anchor="start" x="481.5" y="-591.5" font-family="Helvetica,sans-Serif" font-size="10.00">+ Vector()</text>
<text text-anchor="start" x="481.5" y="-580.5" font-family="Helvetica,sans-Serif" font-size="10.00">+ Vector()</text>
<text text-anchor="start" x="481.5" y="-569.5" font-family="Helvetica,sans-Serif" font-size="10.00">+ Vector()</text>
<text text-anchor="start" x="481.5" y="-558.5" font-family="Helvetica,sans-Serif" font-size="10.00">+ at()</text>
<text text-anchor="start" x="481.5" y="-547.5" font-family="Helvetica,sans-Serif" font-size="10.00">+ to_rv()</text>
<text text-anchor="start" x="481.5" y="-536.5" font-family="Helvetica,sans-Serif" font-size="10.00">+ to_cv()</text>
<text text-anchor="start" x="481.5" y="-525.5" font-family="Helvetica,sans-Serif" font-size="10.00">+ to_q()</text>
<text text-anchor="start" x="481.5" y="-514.5" font-family="Helvetica,sans-Serif" font-size="10.00">+ cross()</text>
<text text-anchor="start" x="481.5" y="-503.5" font-family="Helvetica,sans-Serif" font-size="10.00">+ dot()</text>
<text text-anchor="start" x="481.5" y="-492.5" font-family="Helvetica,sans-Serif" font-size="10.00">and 26 more...</text>
</a>
</g>
</g>
<!-- Node18&#45;&gt;Node17 -->
<g id="edge22" class="edge"><title>Node18&#45;&gt;Node17</title>
<path fill="none" stroke="#404040" d="M554.31,-485.313C563.255,-439.205 573.719,-385.274 582.561,-339.695"/>
<polygon fill="none" stroke="#404040" points="582.605,-339.467 579.821,-332.815 584.891,-327.687 587.675,-334.339 582.605,-339.467"/>
<text text-anchor="middle" x="602" y="-459" font-family="Helvetica,sans-Serif" font-size="10.00"> +atorque</text>
<text text-anchor="middle" x="602" y="-448" font-family="Helvetica,sans-Serif" font-size="10.00">+ctorque</text>
<text text-anchor="middle" x="602" y="-437" font-family="Helvetica,sans-Serif" font-size="10.00">+rtorque</text>
<text text-anchor="middle" x="602" y="-426" font-family="Helvetica,sans-Serif" font-size="10.00">+com</text>
<text text-anchor="middle" x="602" y="-415" font-family="Helvetica,sans-Serif" font-size="10.00">+thrust</text>
<text text-anchor="middle" x="602" y="-404" font-family="Helvetica,sans-Serif" font-size="10.00">+ftorque</text>
<text text-anchor="middle" x="602" y="-393" font-family="Helvetica,sans-Serif" font-size="10.00">+rdrag</text>
<text text-anchor="middle" x="602" y="-382" font-family="Helvetica,sans-Serif" font-size="10.00">+adrag</text>
<text text-anchor="middle" x="602" y="-371" font-family="Helvetica,sans-Serif" font-size="10.00">+gtorque</text>
<text text-anchor="middle" x="602" y="-360" font-family="Helvetica,sans-Serif" font-size="10.00">+htorque</text>
<text text-anchor="middle" x="602" y="-349" font-family="Helvetica,sans-Serif" font-size="10.00">...</text>
</g>
<!-- Node19 -->
<g id="node19" class="node"><title>Node19</title>
<polygon fill="white" stroke="#bfbfbf" points="612.5,-562.5 612.5,-619.5 727.5,-619.5 727.5,-562.5 612.5,-562.5"/>
<text text-anchor="middle" x="670" y="-607.5" font-family="Helvetica,sans-Serif" font-size="10.00">vector&lt; trianglestruc &gt;</text>
<polyline fill="none" stroke="#bfbfbf" points="612.5,-600.5 727.5,-600.5 "/>
<text text-anchor="middle" x="670" y="-588.5" font-family="Helvetica,sans-Serif" font-size="10.00"> </text>
<polyline fill="none" stroke="#bfbfbf" points="612.5,-581.5 727.5,-581.5 "/>
<text text-anchor="middle" x="670" y="-569.5" font-family="Helvetica,sans-Serif" font-size="10.00"> </text>
</g>
<!-- Node19&#45;&gt;Node17 -->
<g id="edge23" class="edge"><title>Node19&#45;&gt;Node17</title>
<path fill="none" stroke="#404040" d="M665.664,-562.46C658.416,-517.164 643.048,-424.16 627,-346 626.561,-343.861 626.11,-341.698 625.651,-339.52"/>
<polygon fill="none" stroke="#404040" points="625.643,-339.481 620.47,-334.457 623.118,-327.75 628.291,-332.774 625.643,-339.481"/>
<text text-anchor="middle" x="673" y="-404" font-family="Helvetica,sans-Serif" font-size="10.00"> +triangles</text>
</g>
<!-- Node20 -->
<g id="node20" class="node"><title>Node20</title>
<polygon fill="white" stroke="#bfbfbf" points="746,-562.5 746,-619.5 836,-619.5 836,-562.5 746,-562.5"/>
<text text-anchor="middle" x="791" y="-607.5" font-family="Helvetica,sans-Serif" font-size="10.00">vector&lt; Vector &gt;</text>
<polyline fill="none" stroke="#bfbfbf" points="746,-600.5 836,-600.5 "/>
<text text-anchor="middle" x="791" y="-588.5" font-family="Helvetica,sans-Serif" font-size="10.00"> </text>
<polyline fill="none" stroke="#bfbfbf" points="746,-581.5 836,-581.5 "/>
<text text-anchor="middle" x="791" y="-569.5" font-family="Helvetica,sans-Serif" font-size="10.00"> </text>
</g>
<!-- Node20&#45;&gt;Node17 -->
<g id="edge24" class="edge"><title>Node20&#45;&gt;Node17</title>
<path fill="none" stroke="#404040" d="M784.464,-562.458C772.544,-515.557 744.339,-418.251 700,-346 685.77,-322.811 666.044,-300.185 648.019,-281.795"/>
<polygon fill="none" stroke="#404040" points="647.828,-281.604 640.756,-280.193 639.338,-273.123 646.41,-274.533 647.828,-281.604"/>
<text text-anchor="middle" x="776" y="-404" font-family="Helvetica,sans-Serif" font-size="10.00"> +vertices</text>
</g>
</g>
</svg>
        <g id="navigator" transform="translate(0 0)" fill="#404254">
                <rect fill="#f2f5e9" fill-opacity="0.5" stroke="#606060" stroke-width=".5" x="0" y="0" width="60" height="60"/>
                <use id="zoomplus" xlink:href="#zoomPlus" x="17" y="9" onmousedown="handleZoom(evt,'in')"/>
                <use id="zoomminus" xlink:href="#zoomMin" x="42" y="9" onmousedown="handleZoom(evt,'out')"/>
                <use id="reset" xlink:href="#resetDef" x="30" y="36" onmousedown="handleReset()"/>
                <g id="arrowUp" xlink:href="#dirArrow" transform="translate(30 24)" onmousedown="handlePan(0,-1)">
                  <use xlink:href="#rim" fill="#404040">
                        <set attributeName="fill" to="#808080" begin="arrowUp.mouseover" end="arrowUp.mouseout"/>
                  </use>
                  <path fill="none" stroke="white" stroke-width="1.5" d="M0,-3.0v7 M-2.5,-0.5L0,-3.0L2.5,-0.5"/>
                </g>
                <g id="arrowRight" xlink:href="#dirArrow" transform="rotate(90) translate(36 -43)" onmousedown="handlePan(1,0)">
                  <use xlink:href="#rim" fill="#404040">
                        <set attributeName="fill" to="#808080" begin="arrowRight.mouseover" end="arrowRight.mouseout"/>
                  </use>
                  <path fill="none" stroke="white" stroke-width="1.5" d="M0,-3.0v7 M-2.5,-0.5L0,-3.0L2.5,-0.5"/>
                </g>
                <g id="arrowDown" xlink:href="#dirArrow" transform="rotate(180) translate(-30 -48)" onmousedown="handlePan(0,1)">
                  <use xlink:href="#rim" fill="#404040">
                        <set attributeName="fill" to="#808080" begin="arrowDown.mouseover" end="arrowDown.mouseout"/>
                  </use>
                  <path fill="none" stroke="white" stroke-width="1.5" d="M0,-3.0v7 M-2.5,-0.5L0,-3.0L2.5,-0.5"/>
                </g>
                <g id="arrowLeft" xlink:href="#dirArrow" transform="rotate(270) translate(-36 17)" onmousedown="handlePan(-1,0)">
                  <use xlink:href="#rim" fill="#404040">
                        <set attributeName="fill" to="#808080" begin="arrowLeft.mouseover" end="arrowLeft.mouseout"/>
                  </use>
                  <path fill="none" stroke="white" stroke-width="1.5" d="M0,-3.0v7 M-2.5,-0.5L0,-3.0L2.5,-0.5"/>
                </g>
        </g>
        <svg viewBox="0 0 15 15" width="100%" height="30px" preserveAspectRatio="xMaxYMin meet">
         <g id="arrow_out" transform="scale(0.3 0.3)">
          <a xlink:href="class_cosmos_1_1_physics_1_1_propagator__coll__graph_org.svg" target="_base">
           <rect id="button" ry="5" rx="5" y="6" x="6" height="38" width="38"
                fill="#f2f5e9" fill-opacity="0.5" stroke="#606060" stroke-width="1.0"/>
           <path id="arrow"
             d="M 11.500037,31.436501 C 11.940474,20.09759 22.043105,11.32322 32.158766,21.979434 L 37.068811,17.246167 C 37.068811,17.246167 37.088388,32 37.088388,32 L 22.160133,31.978069 C 22.160133,31.978069 26.997745,27.140456 26.997745,27.140456 C 18.528582,18.264221 13.291696,25.230495 11.500037,31.436501 z"
             style="fill:#404040;"/>
          </a>
         </g>
        </svg>
</svg>
