<?xml version="1.0" encoding="UTF-8" standalone="no"?>
<!DOCTYPE svg PUBLIC "-//W3C//DTD SVG 1.1//EN"
 "http://www.w3.org/Graphics/SVG/1.1/DTD/svg11.dtd">
<!-- Generated by graphviz version 2.38.0 (20140413.2041)
 -->
<!-- Title: Cosmos::Physics::Propagator Pages: 1 -->
<svg width="1334pt" height="424pt"
 viewBox="0.00 0.00 1333.50 424.00" xmlns="http://www.w3.org/2000/svg" xmlns:xlink="http://www.w3.org/1999/xlink">
<g id="graph0" class="graph" transform="scale(1 1) rotate(0) translate(4 420)">
<title>Cosmos::Physics::Propagator</title>
<polygon fill="white" stroke="none" points="-4,4 -4,-420 1329.5,-420 1329.5,4 -4,4"/>
<!-- Node1 -->
<g id="node1" class="node"><title>Node1</title>
<polygon fill="#bfbfbf" stroke="black" points="596.5,-281.5 596.5,-415.5 744.5,-415.5 744.5,-281.5 596.5,-281.5"/>
<text text-anchor="middle" x="670.5" y="-403.5" font-family="Helvetica,sans-Serif" font-size="10.00">Cosmos::Physics::Propagator</text>
<polyline fill="none" stroke="black" points="596.5,-396.5 744.5,-396.5 "/>
<text text-anchor="start" x="604.5" y="-384.5" font-family="Helvetica,sans-Serif" font-size="10.00">+ dt</text>
<text text-anchor="start" x="604.5" y="-373.5" font-family="Helvetica,sans-Serif" font-size="10.00">+ dtj</text>
<text text-anchor="start" x="604.5" y="-362.5" font-family="Helvetica,sans-Serif" font-size="10.00">+ oldloc</text>
<text text-anchor="start" x="604.5" y="-351.5" font-family="Helvetica,sans-Serif" font-size="10.00">+ newloc</text>
<text text-anchor="start" x="604.5" y="-340.5" font-family="Helvetica,sans-Serif" font-size="10.00">+ oldphys</text>
<text text-anchor="start" x="604.5" y="-329.5" font-family="Helvetica,sans-Serif" font-size="10.00">+ newphys</text>
<text text-anchor="start" x="604.5" y="-318.5" font-family="Helvetica,sans-Serif" font-size="10.00">+ type</text>
<polyline fill="none" stroke="black" points="596.5,-311.5 744.5,-311.5 "/>
<text text-anchor="start" x="604.5" y="-299.5" font-family="Helvetica,sans-Serif" font-size="10.00">+ Propagator()</text>
<text text-anchor="start" x="604.5" y="-288.5" font-family="Helvetica,sans-Serif" font-size="10.00">+ Increment()</text>
</g>
<!-- Node2 -->
<g id="node2" class="node"><title>Node2</title>
<g id="a_node2"><a xlink:href="class_cosmos_1_1_physics_1_1_electrical_propagator.html" target="_top" xlink:title="{Cosmos::Physics::Electrical\lPropagator\n|+ battery_charge\l|+ ElectricalPropagator()\l+ Init()\l+ Propagate()\l}">
<polygon fill="white" stroke="black" points="0,-77.5 0,-167.5 141,-167.5 141,-77.5 0,-77.5"/>
<text text-anchor="start" x="8" y="-155.5" font-family="Helvetica,sans-Serif" font-size="10.00">Cosmos::Physics::Electrical</text>
<text text-anchor="middle" x="70.5" y="-144.5" font-family="Helvetica,sans-Serif" font-size="10.00">Propagator</text>
<polyline fill="none" stroke="black" points="0,-137.5 141,-137.5 "/>
<text text-anchor="start" x="8" y="-125.5" font-family="Helvetica,sans-Serif" font-size="10.00">+ battery_charge</text>
<polyline fill="none" stroke="black" points="0,-118.5 141,-118.5 "/>
<text text-anchor="start" x="8" y="-106.5" font-family="Helvetica,sans-Serif" font-size="10.00">+ ElectricalPropagator()</text>
<text text-anchor="start" x="8" y="-95.5" font-family="Helvetica,sans-Serif" font-size="10.00">+ Init()</text>
<text text-anchor="start" x="8" y="-84.5" font-family="Helvetica,sans-Serif" font-size="10.00">+ Propagate()</text>
</a>
</g>
</g>
<!-- Node1&#45;&gt;Node2 -->
<g id="edge1" class="edge"><title>Node1&#45;&gt;Node2</title>
<path fill="none" stroke="midnightblue" d="M586.246,-338.952C457.589,-324.583 219.684,-292.427 149.5,-245 121.773,-226.264 101.533,-194.201 88.4847,-167.716"/>
<polygon fill="none" stroke="midnightblue" points="586.128,-342.461 596.452,-340.081 586.897,-335.503 586.128,-342.461"/>
</g>
<!-- Node3 -->
<g id="node3" class="node"><title>Node3</title>
<g id="a_node3"><a xlink:href="class_cosmos_1_1_physics_1_1_gauss_jackson_position_propagator.html" target="_top" xlink:title="{Cosmos::Physics::GaussJackson\lPositionPropagator\n|+ order\l&#45; binom\l&#45; c\l&#45; gam\l&#45; beta\l&#45; q\l&#45; lam\l&#45; alpha\l&#45; dtsq\l&#45; order2\l&#45; step\l|+ GaussJacksonPositionPropagator()\l+ Setup()\l+ Init()\l+ Init()\l+ Init()\l+ Converge()\l+ Propagate()\l}">
<polygon fill="white" stroke="black" points="159,-0.5 159,-244.5 338,-244.5 338,-0.5 159,-0.5"/>
<text text-anchor="start" x="167" y="-232.5" font-family="Helvetica,sans-Serif" font-size="10.00">Cosmos::Physics::GaussJackson</text>
<text text-anchor="middle" x="248.5" y="-221.5" font-family="Helvetica,sans-Serif" font-size="10.00">PositionPropagator</text>
<polyline fill="none" stroke="black" points="159,-214.5 338,-214.5 "/>
<text text-anchor="start" x="167" y="-202.5" font-family="Helvetica,sans-Serif" font-size="10.00">+ order</text>
<text text-anchor="start" x="167" y="-191.5" font-family="Helvetica,sans-Serif" font-size="10.00">&#45; binom</text>
<text text-anchor="start" x="167" y="-180.5" font-family="Helvetica,sans-Serif" font-size="10.00">&#45; c</text>
<text text-anchor="start" x="167" y="-169.5" font-family="Helvetica,sans-Serif" font-size="10.00">&#45; gam</text>
<text text-anchor="start" x="167" y="-158.5" font-family="Helvetica,sans-Serif" font-size="10.00">&#45; beta</text>
<text text-anchor="start" x="167" y="-147.5" font-family="Helvetica,sans-Serif" font-size="10.00">&#45; q</text>
<text text-anchor="start" x="167" y="-136.5" font-family="Helvetica,sans-Serif" font-size="10.00">&#45; lam</text>
<text text-anchor="start" x="167" y="-125.5" font-family="Helvetica,sans-Serif" font-size="10.00">&#45; alpha</text>
<text text-anchor="start" x="167" y="-114.5" font-family="Helvetica,sans-Serif" font-size="10.00">&#45; dtsq</text>
<text text-anchor="start" x="167" y="-103.5" font-family="Helvetica,sans-Serif" font-size="10.00">&#45; order2</text>
<text text-anchor="start" x="167" y="-92.5" font-family="Helvetica,sans-Serif" font-size="10.00">&#45; step</text>
<polyline fill="none" stroke="black" points="159,-85.5 338,-85.5 "/>
<text text-anchor="start" x="167" y="-73.5" font-family="Helvetica,sans-Serif" font-size="10.00">+ GaussJacksonPositionPropagator()</text>
<text text-anchor="start" x="167" y="-62.5" font-family="Helvetica,sans-Serif" font-size="10.00">+ Setup()</text>
<text text-anchor="start" x="167" y="-51.5" font-family="Helvetica,sans-Serif" font-size="10.00">+ Init()</text>
<text text-anchor="start" x="167" y="-40.5" font-family="Helvetica,sans-Serif" font-size="10.00">+ Init()</text>
<text text-anchor="start" x="167" y="-29.5" font-family="Helvetica,sans-Serif" font-size="10.00">+ Init()</text>
<text text-anchor="start" x="167" y="-18.5" font-family="Helvetica,sans-Serif" font-size="10.00">+ Converge()</text>
<text text-anchor="start" x="167" y="-7.5" font-family="Helvetica,sans-Serif" font-size="10.00">+ Propagate()</text>
</a>
</g>
</g>
<!-- Node1&#45;&gt;Node3 -->
<g id="edge2" class="edge"><title>Node1&#45;&gt;Node3</title>
<path fill="none" stroke="midnightblue" d="M586.275,-334.563C517.418,-320.902 419.952,-294.268 347.5,-245 344.35,-242.858 341.248,-240.587 338.199,-238.207"/>
<polygon fill="none" stroke="midnightblue" points="585.738,-338.024 596.22,-336.485 587.066,-331.151 585.738,-338.024"/>
</g>
<!-- Node4 -->
<g id="node4" class="node"><title>Node4</title>
<g id="a_node4"><a xlink:href="class_cosmos_1_1_physics_1_1_inertial_attitude_propagator.html" target="_top" xlink:title="{Cosmos::Physics::Inertial\lAttitudePropagator\n||+ InertialAttitudePropagator()\l+ Init()\l+ Propagate()\l}">
<polygon fill="white" stroke="black" points="356.5,-77.5 356.5,-167.5 498.5,-167.5 498.5,-77.5 356.5,-77.5"/>
<text text-anchor="start" x="364.5" y="-155.5" font-family="Helvetica,sans-Serif" font-size="10.00">Cosmos::Physics::Inertial</text>
<text text-anchor="middle" x="427.5" y="-144.5" font-family="Helvetica,sans-Serif" font-size="10.00">AttitudePropagator</text>
<polyline fill="none" stroke="black" points="356.5,-137.5 498.5,-137.5 "/>
<text text-anchor="middle" x="427.5" y="-125.5" font-family="Helvetica,sans-Serif" font-size="10.00"> </text>
<polyline fill="none" stroke="black" points="356.5,-118.5 498.5,-118.5 "/>
<text text-anchor="start" x="364.5" y="-106.5" font-family="Helvetica,sans-Serif" font-size="10.00">+ InertialAttitudePropagator()</text>
<text text-anchor="start" x="364.5" y="-95.5" font-family="Helvetica,sans-Serif" font-size="10.00">+ Init()</text>
<text text-anchor="start" x="364.5" y="-84.5" font-family="Helvetica,sans-Serif" font-size="10.00">+ Propagate()</text>
</a>
</g>
</g>
<!-- Node1&#45;&gt;Node4 -->
<g id="edge3" class="edge"><title>Node1&#45;&gt;Node4</title>
<path fill="none" stroke="midnightblue" d="M587.54,-304.708C560.221,-288.274 530.883,-267.899 507.5,-245 484.493,-222.47 464.56,-192.244 450.344,-167.576"/>
<polygon fill="none" stroke="midnightblue" points="585.939,-307.827 596.328,-309.903 589.501,-301.801 585.939,-307.827"/>
</g>
<!-- Node5 -->
<g id="node5" class="node"><title>Node5</title>
<g id="a_node5"><a xlink:href="class_cosmos_1_1_physics_1_1_inertial_position_propagator.html" target="_top" xlink:title="{Cosmos::Physics::Inertial\lPositionPropagator\n||+ InertialPositionPropagator()\l+ Init()\l+ Propagate()\l}">
<polygon fill="white" stroke="black" points="517,-77.5 517,-167.5 660,-167.5 660,-77.5 517,-77.5"/>
<text text-anchor="start" x="525" y="-155.5" font-family="Helvetica,sans-Serif" font-size="10.00">Cosmos::Physics::Inertial</text>
<text text-anchor="middle" x="588.5" y="-144.5" font-family="Helvetica,sans-Serif" font-size="10.00">PositionPropagator</text>
<polyline fill="none" stroke="black" points="517,-137.5 660,-137.5 "/>
<text text-anchor="middle" x="588.5" y="-125.5" font-family="Helvetica,sans-Serif" font-size="10.00"> </text>
<polyline fill="none" stroke="black" points="517,-118.5 660,-118.5 "/>
<text text-anchor="start" x="525" y="-106.5" font-family="Helvetica,sans-Serif" font-size="10.00">+ InertialPositionPropagator()</text>
<text text-anchor="start" x="525" y="-95.5" font-family="Helvetica,sans-Serif" font-size="10.00">+ Init()</text>
<text text-anchor="start" x="525" y="-84.5" font-family="Helvetica,sans-Serif" font-size="10.00">+ Propagate()</text>
</a>
</g>
</g>
<!-- Node1&#45;&gt;Node5 -->
<g id="edge4" class="edge"><title>Node1&#45;&gt;Node5</title>
<path fill="none" stroke="midnightblue" d="M642.713,-271.594C630.05,-237.002 615.504,-197.267 604.669,-167.67"/>
<polygon fill="none" stroke="midnightblue" points="639.506,-273.014 646.23,-281.202 646.079,-270.608 639.506,-273.014"/>
</g>
<!-- Node6 -->
<g id="node6" class="node"><title>Node6</title>
<g id="a_node6"><a xlink:href="class_cosmos_1_1_physics_1_1_iterative_attitude_propagator.html" target="_top" xlink:title="{Cosmos::Physics::Iterative\lAttitudePropagator\n||+ IterativeAttitudePropagator()\l+ Init()\l+ Propagate()\l}">
<polygon fill="white" stroke="black" points="678.5,-77.5 678.5,-167.5 826.5,-167.5 826.5,-77.5 678.5,-77.5"/>
<text text-anchor="start" x="686.5" y="-155.5" font-family="Helvetica,sans-Serif" font-size="10.00">Cosmos::Physics::Iterative</text>
<text text-anchor="middle" x="752.5" y="-144.5" font-family="Helvetica,sans-Serif" font-size="10.00">AttitudePropagator</text>
<polyline fill="none" stroke="black" points="678.5,-137.5 826.5,-137.5 "/>
<text text-anchor="middle" x="752.5" y="-125.5" font-family="Helvetica,sans-Serif" font-size="10.00"> </text>
<polyline fill="none" stroke="black" points="678.5,-118.5 826.5,-118.5 "/>
<text text-anchor="start" x="686.5" y="-106.5" font-family="Helvetica,sans-Serif" font-size="10.00">+ IterativeAttitudePropagator()</text>
<text text-anchor="start" x="686.5" y="-95.5" font-family="Helvetica,sans-Serif" font-size="10.00">+ Init()</text>
<text text-anchor="start" x="686.5" y="-84.5" font-family="Helvetica,sans-Serif" font-size="10.00">+ Propagate()</text>
</a>
</g>
</g>
<!-- Node1&#45;&gt;Node6 -->
<g id="edge5" class="edge"><title>Node1&#45;&gt;Node6</title>
<path fill="none" stroke="midnightblue" d="M698.287,-271.594C710.95,-237.002 725.496,-197.267 736.331,-167.67"/>
<polygon fill="none" stroke="midnightblue" points="694.921,-270.608 694.77,-281.202 701.494,-273.014 694.921,-270.608"/>
</g>
<!-- Node7 -->
<g id="node7" class="node"><title>Node7</title>
<g id="a_node7"><a xlink:href="class_cosmos_1_1_physics_1_1_iterative_position_propagator.html" target="_top" xlink:title="{Cosmos::Physics::Iterative\lPositionPropagator\n||+ IterativePositionPropagator()\l+ Init()\l+ Propagate()\l}">
<polygon fill="white" stroke="black" points="845,-77.5 845,-167.5 994,-167.5 994,-77.5 845,-77.5"/>
<text text-anchor="start" x="853" y="-155.5" font-family="Helvetica,sans-Serif" font-size="10.00">Cosmos::Physics::Iterative</text>
<text text-anchor="middle" x="919.5" y="-144.5" font-family="Helvetica,sans-Serif" font-size="10.00">PositionPropagator</text>
<polyline fill="none" stroke="black" points="845,-137.5 994,-137.5 "/>
<text text-anchor="middle" x="919.5" y="-125.5" font-family="Helvetica,sans-Serif" font-size="10.00"> </text>
<polyline fill="none" stroke="black" points="845,-118.5 994,-118.5 "/>
<text text-anchor="start" x="853" y="-106.5" font-family="Helvetica,sans-Serif" font-size="10.00">+ IterativePositionPropagator()</text>
<text text-anchor="start" x="853" y="-95.5" font-family="Helvetica,sans-Serif" font-size="10.00">+ Init()</text>
<text text-anchor="start" x="853" y="-84.5" font-family="Helvetica,sans-Serif" font-size="10.00">+ Propagate()</text>
</a>
</g>
</g>
<!-- Node1&#45;&gt;Node7 -->
<g id="edge6" class="edge"><title>Node1&#45;&gt;Node7</title>
<path fill="none" stroke="midnightblue" d="M753.82,-304.784C781.559,-288.299 811.478,-267.872 835.5,-245 859.18,-222.454 880.108,-192.228 895.153,-167.564"/>
<polygon fill="none" stroke="midnightblue" points="751.769,-301.928 744.901,-309.995 755.301,-307.972 751.769,-301.928"/>
</g>
<!-- Node8 -->
<g id="node8" class="node"><title>Node8</title>
<g id="a_node8"><a xlink:href="class_cosmos_1_1_physics_1_1_l_v_l_h_attitude_propagator.html" target="_top" xlink:title="{Cosmos::Physics::LVLHAttitude\lPropagator\n||+ LVLHAttitudePropagator()\l+ Init()\l+ Propagate()\l}">
<polygon fill="white" stroke="black" points="1012,-77.5 1012,-167.5 1171,-167.5 1171,-77.5 1012,-77.5"/>
<text text-anchor="start" x="1020" y="-155.5" font-family="Helvetica,sans-Serif" font-size="10.00">Cosmos::Physics::LVLHAttitude</text>
<text text-anchor="middle" x="1091.5" y="-144.5" font-family="Helvetica,sans-Serif" font-size="10.00">Propagator</text>
<polyline fill="none" stroke="black" points="1012,-137.5 1171,-137.5 "/>
<text text-anchor="middle" x="1091.5" y="-125.5" font-family="Helvetica,sans-Serif" font-size="10.00"> </text>
<polyline fill="none" stroke="black" points="1012,-118.5 1171,-118.5 "/>
<text text-anchor="start" x="1020" y="-106.5" font-family="Helvetica,sans-Serif" font-size="10.00">+ LVLHAttitudePropagator()</text>
<text text-anchor="start" x="1020" y="-95.5" font-family="Helvetica,sans-Serif" font-size="10.00">+ Init()</text>
<text text-anchor="start" x="1020" y="-84.5" font-family="Helvetica,sans-Serif" font-size="10.00">+ Propagate()</text>
</a>
</g>
</g>
<!-- Node1&#45;&gt;Node8 -->
<g id="edge7" class="edge"><title>Node1&#45;&gt;Node8</title>
<path fill="none" stroke="midnightblue" d="M754.583,-336.841C826.203,-324.406 929.043,-298.3 1003.5,-245 1031.35,-225.064 1053.81,-193.55 1069.06,-167.613"/>
<polygon fill="none" stroke="midnightblue" points="753.971,-333.395 744.691,-338.506 755.133,-340.298 753.971,-333.395"/>
</g>
<!-- Node9 -->
<g id="node9" class="node"><title>Node9</title>
<g id="a_node9"><a xlink:href="class_cosmos_1_1_physics_1_1_thermal_propagator.html" target="_top" xlink:title="{Cosmos::Physics::Thermal\lPropagator\n|+ temperature\l|+ ThermalPropagator()\l+ Init()\l+ Propagate()\l}">
<polygon fill="white" stroke="black" points="1189.5,-77.5 1189.5,-167.5 1325.5,-167.5 1325.5,-77.5 1189.5,-77.5"/>
<text text-anchor="start" x="1197.5" y="-155.5" font-family="Helvetica,sans-Serif" font-size="10.00">Cosmos::Physics::Thermal</text>
<text text-anchor="middle" x="1257.5" y="-144.5" font-family="Helvetica,sans-Serif" font-size="10.00">Propagator</text>
<polyline fill="none" stroke="black" points="1189.5,-137.5 1325.5,-137.5 "/>
<text text-anchor="start" x="1197.5" y="-125.5" font-family="Helvetica,sans-Serif" font-size="10.00">+ temperature</text>
<polyline fill="none" stroke="black" points="1189.5,-118.5 1325.5,-118.5 "/>
<text text-anchor="start" x="1197.5" y="-106.5" font-family="Helvetica,sans-Serif" font-size="10.00">+ ThermalPropagator()</text>
<text text-anchor="start" x="1197.5" y="-95.5" font-family="Helvetica,sans-Serif" font-size="10.00">+ Init()</text>
<text text-anchor="start" x="1197.5" y="-84.5" font-family="Helvetica,sans-Serif" font-size="10.00">+ Propagate()</text>
</a>
</g>
</g>
<!-- Node1&#45;&gt;Node9 -->
<g id="edge8" class="edge"><title>Node1&#45;&gt;Node9</title>
<path fill="none" stroke="midnightblue" d="M754.558,-338.677C880.941,-324.086 1112.38,-291.816 1180.5,-245 1207.87,-226.187 1227.59,-194.128 1240.21,-167.664"/>
<polygon fill="none" stroke="midnightblue" points="754.064,-335.211 744.526,-339.824 754.859,-342.166 754.064,-335.211"/>
</g>
</g>
</svg>
