<?xml version="1.0" encoding="UTF-8" standalone="no"?>
<!DOCTYPE svg PUBLIC "-//W3C//DTD SVG 1.1//EN"
 "http://www.w3.org/Graphics/SVG/1.1/DTD/svg11.dtd">
<!-- Generated by graphviz version 2.38.0 (20140413.2041)
 -->
<!-- Title: json11::JsonValue Pages: 1 -->
<!--zoomable 496 -->
<svg id="main" version="1.1" xmlns="http://www.w3.org/2000/svg" xmlns:xlink="http://www.w3.org/1999/xlink" xml:space="preserve" onload="init(evt)">
<style type="text/css"><![CDATA[
.edge:hover path { stroke: red; }
.edge:hover polygon { stroke: red; fill: red; }
]]></style>
<script type="text/javascript"><![CDATA[
var edges = document.getElementsByTagName('g');
if (edges && edges.length) {
  for (var i=0;i<edges.length;i++) {
    if (edges[i].id.substr(0,4)=='edge') {
      edges[i].setAttribute('class','edge');
    }
  }
}
]]></script>
        <defs>
                <circle id="rim" cx="0" cy="0" r="7"/>
                <circle id="rim2" cx="0" cy="0" r="3.5"/>
                <g id="zoomPlus">
                        <use xlink:href="#rim" fill="#404040">
                                <set attributeName="fill" to="#808080" begin="zoomplus.mouseover" end="zoomplus.mouseout"/>
                        </use>
                        <path d="M-4,0h8M0,-4v8" fill="none" stroke="white" stroke-width="1.5" pointer-events="none"/>
                </g>
                <g id="zoomMin">
                        <use xlink:href="#rim" fill="#404040">
                                <set attributeName="fill" to="#808080" begin="zoomminus.mouseover" end="zoomminus.mouseout"/>
                        </use>
                        <path d="M-4,0h8" fill="none" stroke="white" stroke-width="1.5" pointer-events="none"/>
                </g>
                <g id="dirArrow">
                        <path fill="none" stroke="white" stroke-width="1.5" d="M0,-3.0v7 M-2.5,-0.5L0,-3.0L2.5,-0.5"/>
                </g>
               <g id="resetDef">
                       <use xlink:href="#rim2" fill="#404040">
                               <set attributeName="fill" to="#808080" begin="reset.mouseover" end="reset.mouseout"/>
                       </use>
               </g>
        </defs>

<script type="text/javascript">
var viewWidth = 1042;
var viewHeight = 496;
var sectionId = 'dynsection-0';
</script>
<script xlink:href="svgpan.js"/>
<svg id="graph" class="graph">
<g id="viewport">
<title>json11::JsonValue</title>
<polygon fill="white" stroke="none" points="-4,4 -4,-492 1037.5,-492 1037.5,4 -4,4"/>
<!-- Node1 -->
<g id="node1" class="node"><title>Node1</title>
<polygon fill="#bfbfbf" stroke="black" points="469,-298.5 469,-487.5 566,-487.5 566,-298.5 469,-298.5"/>
<text text-anchor="middle" x="517.5" y="-475.5" font-family="Helvetica,sans-Serif" font-size="10.00">json11::JsonValue</text>
<polyline fill="none" stroke="black" points="469,-468.5 566,-468.5 "/>
<text text-anchor="middle" x="517.5" y="-456.5" font-family="Helvetica,sans-Serif" font-size="10.00"> </text>
<polyline fill="none" stroke="black" points="469,-449.5 566,-449.5 "/>
<text text-anchor="start" x="477" y="-437.5" font-family="Helvetica,sans-Serif" font-size="10.00"># type()</text>
<text text-anchor="start" x="477" y="-426.5" font-family="Helvetica,sans-Serif" font-size="10.00"># equals()</text>
<text text-anchor="start" x="477" y="-415.5" font-family="Helvetica,sans-Serif" font-size="10.00"># less()</text>
<text text-anchor="start" x="477" y="-404.5" font-family="Helvetica,sans-Serif" font-size="10.00"># dump()</text>
<text text-anchor="start" x="477" y="-393.5" font-family="Helvetica,sans-Serif" font-size="10.00"># number_value()</text>
<text text-anchor="start" x="477" y="-382.5" font-family="Helvetica,sans-Serif" font-size="10.00"># int_value()</text>
<text text-anchor="start" x="477" y="-371.5" font-family="Helvetica,sans-Serif" font-size="10.00"># bool_value()</text>
<text text-anchor="start" x="477" y="-360.5" font-family="Helvetica,sans-Serif" font-size="10.00"># string_value()</text>
<text text-anchor="start" x="477" y="-349.5" font-family="Helvetica,sans-Serif" font-size="10.00"># array_items()</text>
<text text-anchor="start" x="477" y="-338.5" font-family="Helvetica,sans-Serif" font-size="10.00"># operator[]()</text>
<text text-anchor="start" x="477" y="-327.5" font-family="Helvetica,sans-Serif" font-size="10.00"># object_items()</text>
<text text-anchor="start" x="477" y="-316.5" font-family="Helvetica,sans-Serif" font-size="10.00"># operator[]()</text>
<text text-anchor="start" x="477" y="-305.5" font-family="Helvetica,sans-Serif" font-size="10.00"># ~JsonValue()</text>
</g>
<!-- Node2 -->
<g id="node2" class="node"><title>Node2</title>
<g id="a_node2"><a xlink:href="classjson11_1_1_value.html" target="_top" xlink:title="{json11::Value\&lt; tag, T \&gt;\n|# m_value\l|# Value()\l# Value()\l# type()\l# equals()\l# less()\l# dump()\l}">
<polygon fill="white" stroke="black" points="0,-144 0,-256 119,-256 119,-144 0,-144"/>
<text text-anchor="middle" x="59.5" y="-244" font-family="Helvetica,sans-Serif" font-size="10.00">json11::Value&lt; tag, T &gt;</text>
<polyline fill="none" stroke="black" points="0,-237 119,-237 "/>
<text text-anchor="start" x="8" y="-225" font-family="Helvetica,sans-Serif" font-size="10.00"># m_value</text>
<polyline fill="none" stroke="black" points="0,-218 119,-218 "/>
<text text-anchor="start" x="8" y="-206" font-family="Helvetica,sans-Serif" font-size="10.00"># Value()</text>
<text text-anchor="start" x="8" y="-195" font-family="Helvetica,sans-Serif" font-size="10.00"># Value()</text>
<text text-anchor="start" x="8" y="-184" font-family="Helvetica,sans-Serif" font-size="10.00"># type()</text>
<text text-anchor="start" x="8" y="-173" font-family="Helvetica,sans-Serif" font-size="10.00"># equals()</text>
<text text-anchor="start" x="8" y="-162" font-family="Helvetica,sans-Serif" font-size="10.00"># less()</text>
<text text-anchor="start" x="8" y="-151" font-family="Helvetica,sans-Serif" font-size="10.00"># dump()</text>
</a>
</g>
</g>
<!-- Node1&#45;&gt;Node2 -->
<g id="edge1" class="edge"><title>Node1&#45;&gt;Node2</title>
<path fill="none" stroke="midnightblue" d="M458.563,-380.079C379.585,-362.418 236.819,-324.484 128.5,-262 125.314,-260.162 122.144,-258.163 119.013,-256.045"/>
<polygon fill="none" stroke="midnightblue" points="458.287,-383.602 468.806,-382.336 459.794,-376.766 458.287,-383.602"/>
</g>
<!-- Node3 -->
<g id="node3" class="node"><title>Node3</title>
<g id="a_node3"><a xlink:href="classjson11_1_1_value.html" target="_top" xlink:title="{json11::Value\&lt; Json\l::ARRAY, Json::array \&gt;\n|# m_value\l|# Value()\l# Value()\l# type()\l# equals()\l# less()\l# dump()\l}">
<polygon fill="white" stroke="black" points="137.5,-138.5 137.5,-261.5 259.5,-261.5 259.5,-138.5 137.5,-138.5"/>
<text text-anchor="start" x="145.5" y="-249.5" font-family="Helvetica,sans-Serif" font-size="10.00">json11::Value&lt; Json</text>
<text text-anchor="middle" x="198.5" y="-238.5" font-family="Helvetica,sans-Serif" font-size="10.00">::ARRAY, Json::array &gt;</text>
<polyline fill="none" stroke="black" points="137.5,-231.5 259.5,-231.5 "/>
<text text-anchor="start" x="145.5" y="-219.5" font-family="Helvetica,sans-Serif" font-size="10.00"># m_value</text>
<polyline fill="none" stroke="black" points="137.5,-212.5 259.5,-212.5 "/>
<text text-anchor="start" x="145.5" y="-200.5" font-family="Helvetica,sans-Serif" font-size="10.00"># Value()</text>
<text text-anchor="start" x="145.5" y="-189.5" font-family="Helvetica,sans-Serif" font-size="10.00"># Value()</text>
<text text-anchor="start" x="145.5" y="-178.5" font-family="Helvetica,sans-Serif" font-size="10.00"># type()</text>
<text text-anchor="start" x="145.5" y="-167.5" font-family="Helvetica,sans-Serif" font-size="10.00"># equals()</text>
<text text-anchor="start" x="145.5" y="-156.5" font-family="Helvetica,sans-Serif" font-size="10.00"># less()</text>
<text text-anchor="start" x="145.5" y="-145.5" font-family="Helvetica,sans-Serif" font-size="10.00"># dump()</text>
</a>
</g>
</g>
<!-- Node1&#45;&gt;Node3 -->
<g id="edge2" class="edge"><title>Node1&#45;&gt;Node3</title>
<path fill="none" stroke="midnightblue" d="M459.394,-366.441C407.48,-342.51 330.304,-304.19 268.5,-262 265.571,-260.001 262.629,-257.894 259.696,-255.714"/>
<polygon fill="none" stroke="midnightblue" points="458.235,-369.759 468.784,-370.739 461.148,-363.394 458.235,-369.759"/>
</g>
<!-- Node5 -->
<g id="node5" class="node"><title>Node5</title>
<g id="a_node5"><a xlink:href="classjson11_1_1_value.html" target="_top" xlink:title="{json11::Value\&lt; Json\l::BOOL, bool \&gt;\n|# m_value\l|# Value()\l# Value()\l# type()\l# equals()\l# less()\l# dump()\l}">
<polygon fill="white" stroke="black" points="277.5,-138.5 277.5,-261.5 383.5,-261.5 383.5,-138.5 277.5,-138.5"/>
<text text-anchor="start" x="285.5" y="-249.5" font-family="Helvetica,sans-Serif" font-size="10.00">json11::Value&lt; Json</text>
<text text-anchor="middle" x="330.5" y="-238.5" font-family="Helvetica,sans-Serif" font-size="10.00">::BOOL, bool &gt;</text>
<polyline fill="none" stroke="black" points="277.5,-231.5 383.5,-231.5 "/>
<text text-anchor="start" x="285.5" y="-219.5" font-family="Helvetica,sans-Serif" font-size="10.00"># m_value</text>
<polyline fill="none" stroke="black" points="277.5,-212.5 383.5,-212.5 "/>
<text text-anchor="start" x="285.5" y="-200.5" font-family="Helvetica,sans-Serif" font-size="10.00"># Value()</text>
<text text-anchor="start" x="285.5" y="-189.5" font-family="Helvetica,sans-Serif" font-size="10.00"># Value()</text>
<text text-anchor="start" x="285.5" y="-178.5" font-family="Helvetica,sans-Serif" font-size="10.00"># type()</text>
<text text-anchor="start" x="285.5" y="-167.5" font-family="Helvetica,sans-Serif" font-size="10.00"># equals()</text>
<text text-anchor="start" x="285.5" y="-156.5" font-family="Helvetica,sans-Serif" font-size="10.00"># less()</text>
<text text-anchor="start" x="285.5" y="-145.5" font-family="Helvetica,sans-Serif" font-size="10.00"># dump()</text>
</a>
</g>
</g>
<!-- Node1&#45;&gt;Node5 -->
<g id="edge4" class="edge"><title>Node1&#45;&gt;Node5</title>
<path fill="none" stroke="midnightblue" d="M461.687,-334.993C437.037,-309.816 408.189,-280.351 383.832,-255.472"/>
<polygon fill="none" stroke="midnightblue" points="459.359,-337.619 468.856,-342.316 464.361,-332.722 459.359,-337.619"/>
</g>
<!-- Node7 -->
<g id="node7" class="node"><title>Node7</title>
<g id="a_node7"><a xlink:href="classjson11_1_1_value.html" target="_top" xlink:title="{json11::Value\&lt; Json\l::NUL, NullStruct \&gt;\n|# m_value\l|# Value()\l# Value()\l# type()\l# equals()\l# less()\l# dump()\l}">
<polygon fill="white" stroke="black" points="401.5,-138.5 401.5,-261.5 507.5,-261.5 507.5,-138.5 401.5,-138.5"/>
<text text-anchor="start" x="409.5" y="-249.5" font-family="Helvetica,sans-Serif" font-size="10.00">json11::Value&lt; Json</text>
<text text-anchor="middle" x="454.5" y="-238.5" font-family="Helvetica,sans-Serif" font-size="10.00">::NUL, NullStruct &gt;</text>
<polyline fill="none" stroke="black" points="401.5,-231.5 507.5,-231.5 "/>
<text text-anchor="start" x="409.5" y="-219.5" font-family="Helvetica,sans-Serif" font-size="10.00"># m_value</text>
<polyline fill="none" stroke="black" points="401.5,-212.5 507.5,-212.5 "/>
<text text-anchor="start" x="409.5" y="-200.5" font-family="Helvetica,sans-Serif" font-size="10.00"># Value()</text>
<text text-anchor="start" x="409.5" y="-189.5" font-family="Helvetica,sans-Serif" font-size="10.00"># Value()</text>
<text text-anchor="start" x="409.5" y="-178.5" font-family="Helvetica,sans-Serif" font-size="10.00"># type()</text>
<text text-anchor="start" x="409.5" y="-167.5" font-family="Helvetica,sans-Serif" font-size="10.00"># equals()</text>
<text text-anchor="start" x="409.5" y="-156.5" font-family="Helvetica,sans-Serif" font-size="10.00"># less()</text>
<text text-anchor="start" x="409.5" y="-145.5" font-family="Helvetica,sans-Serif" font-size="10.00"># dump()</text>
</a>
</g>
</g>
<!-- Node1&#45;&gt;Node7 -->
<g id="edge6" class="edge"><title>Node1&#45;&gt;Node7</title>
<path fill="none" stroke="midnightblue" d="M483.465,-288.814C480.419,-279.579 477.405,-270.441 474.537,-261.747"/>
<polygon fill="none" stroke="midnightblue" points="480.19,-290.058 486.646,-298.458 486.837,-287.865 480.19,-290.058"/>
</g>
<!-- Node9 -->
<g id="node9" class="node"><title>Node9</title>
<g id="a_node9"><a xlink:href="classjson11_1_1_value.html" target="_top" xlink:title="{json11::Value\&lt; Json\l::NUMBER, double \&gt;\n|# m_value\l|# Value()\l# Value()\l# type()\l# equals()\l# less()\l# dump()\l}">
<polygon fill="white" stroke="black" points="525.5,-138.5 525.5,-261.5 635.5,-261.5 635.5,-138.5 525.5,-138.5"/>
<text text-anchor="start" x="533.5" y="-249.5" font-family="Helvetica,sans-Serif" font-size="10.00">json11::Value&lt; Json</text>
<text text-anchor="middle" x="580.5" y="-238.5" font-family="Helvetica,sans-Serif" font-size="10.00">::NUMBER, double &gt;</text>
<polyline fill="none" stroke="black" points="525.5,-231.5 635.5,-231.5 "/>
<text text-anchor="start" x="533.5" y="-219.5" font-family="Helvetica,sans-Serif" font-size="10.00"># m_value</text>
<polyline fill="none" stroke="black" points="525.5,-212.5 635.5,-212.5 "/>
<text text-anchor="start" x="533.5" y="-200.5" font-family="Helvetica,sans-Serif" font-size="10.00"># Value()</text>
<text text-anchor="start" x="533.5" y="-189.5" font-family="Helvetica,sans-Serif" font-size="10.00"># Value()</text>
<text text-anchor="start" x="533.5" y="-178.5" font-family="Helvetica,sans-Serif" font-size="10.00"># type()</text>
<text text-anchor="start" x="533.5" y="-167.5" font-family="Helvetica,sans-Serif" font-size="10.00"># equals()</text>
<text text-anchor="start" x="533.5" y="-156.5" font-family="Helvetica,sans-Serif" font-size="10.00"># less()</text>
<text text-anchor="start" x="533.5" y="-145.5" font-family="Helvetica,sans-Serif" font-size="10.00"># dump()</text>
</a>
</g>
</g>
<!-- Node1&#45;&gt;Node9 -->
<g id="edge8" class="edge"><title>Node1&#45;&gt;Node9</title>
<path fill="none" stroke="midnightblue" d="M551.535,-288.814C554.581,-279.579 557.595,-270.441 560.463,-261.747"/>
<polygon fill="none" stroke="midnightblue" points="548.163,-287.865 548.354,-298.458 554.81,-290.058 548.163,-287.865"/>
</g>
<!-- Node11 -->
<g id="node11" class="node"><title>Node11</title>
<g id="a_node11"><a xlink:href="classjson11_1_1_value.html" target="_top" xlink:title="{json11::Value\&lt; Json\l::NUMBER, int \&gt;\n|# m_value\l|# Value()\l# Value()\l# type()\l# equals()\l# less()\l# dump()\l}">
<polygon fill="white" stroke="black" points="653.5,-138.5 653.5,-261.5 759.5,-261.5 759.5,-138.5 653.5,-138.5"/>
<text text-anchor="start" x="661.5" y="-249.5" font-family="Helvetica,sans-Serif" font-size="10.00">json11::Value&lt; Json</text>
<text text-anchor="middle" x="706.5" y="-238.5" font-family="Helvetica,sans-Serif" font-size="10.00">::NUMBER, int &gt;</text>
<polyline fill="none" stroke="black" points="653.5,-231.5 759.5,-231.5 "/>
<text text-anchor="start" x="661.5" y="-219.5" font-family="Helvetica,sans-Serif" font-size="10.00"># m_value</text>
<polyline fill="none" stroke="black" points="653.5,-212.5 759.5,-212.5 "/>
<text text-anchor="start" x="661.5" y="-200.5" font-family="Helvetica,sans-Serif" font-size="10.00"># Value()</text>
<text text-anchor="start" x="661.5" y="-189.5" font-family="Helvetica,sans-Serif" font-size="10.00"># Value()</text>
<text text-anchor="start" x="661.5" y="-178.5" font-family="Helvetica,sans-Serif" font-size="10.00"># type()</text>
<text text-anchor="start" x="661.5" y="-167.5" font-family="Helvetica,sans-Serif" font-size="10.00"># equals()</text>
<text text-anchor="start" x="661.5" y="-156.5" font-family="Helvetica,sans-Serif" font-size="10.00"># less()</text>
<text text-anchor="start" x="661.5" y="-145.5" font-family="Helvetica,sans-Serif" font-size="10.00"># dump()</text>
</a>
</g>
</g>
<!-- Node1&#45;&gt;Node11 -->
<g id="edge10" class="edge"><title>Node1&#45;&gt;Node11</title>
<path fill="none" stroke="midnightblue" d="M573.512,-335.395C598.764,-309.876 628.439,-279.887 653.342,-254.72"/>
<polygon fill="none" stroke="midnightblue" points="570.718,-333.243 566.172,-342.813 575.694,-338.166 570.718,-333.243"/>
</g>
<!-- Node13 -->
<g id="node13" class="node"><title>Node13</title>
<g id="a_node13"><a xlink:href="classjson11_1_1_value.html" target="_top" xlink:title="{json11::Value\&lt; Json\l::OBJECT, Json::object \&gt;\n|# m_value\l|# Value()\l# Value()\l# type()\l# equals()\l# less()\l# dump()\l}">
<polygon fill="white" stroke="black" points="778,-138.5 778,-261.5 909,-261.5 909,-138.5 778,-138.5"/>
<text text-anchor="start" x="786" y="-249.5" font-family="Helvetica,sans-Serif" font-size="10.00">json11::Value&lt; Json</text>
<text text-anchor="middle" x="843.5" y="-238.5" font-family="Helvetica,sans-Serif" font-size="10.00">::OBJECT, Json::object &gt;</text>
<polyline fill="none" stroke="black" points="778,-231.5 909,-231.5 "/>
<text text-anchor="start" x="786" y="-219.5" font-family="Helvetica,sans-Serif" font-size="10.00"># m_value</text>
<polyline fill="none" stroke="black" points="778,-212.5 909,-212.5 "/>
<text text-anchor="start" x="786" y="-200.5" font-family="Helvetica,sans-Serif" font-size="10.00"># Value()</text>
<text text-anchor="start" x="786" y="-189.5" font-family="Helvetica,sans-Serif" font-size="10.00"># Value()</text>
<text text-anchor="start" x="786" y="-178.5" font-family="Helvetica,sans-Serif" font-size="10.00"># type()</text>
<text text-anchor="start" x="786" y="-167.5" font-family="Helvetica,sans-Serif" font-size="10.00"># equals()</text>
<text text-anchor="start" x="786" y="-156.5" font-family="Helvetica,sans-Serif" font-size="10.00"># less()</text>
<text text-anchor="start" x="786" y="-145.5" font-family="Helvetica,sans-Serif" font-size="10.00"># dump()</text>
</a>
</g>
</g>
<!-- Node1&#45;&gt;Node13 -->
<g id="edge12" class="edge"><title>Node1&#45;&gt;Node13</title>
<path fill="none" stroke="midnightblue" d="M575.424,-366.158C627.541,-341.949 705.395,-303.376 768.5,-262 771.588,-259.975 774.699,-257.848 777.806,-255.651"/>
<polygon fill="none" stroke="midnightblue" points="573.935,-362.991 566.324,-370.361 576.87,-369.346 573.935,-362.991"/>
</g>
<!-- Node15 -->
<g id="node15" class="node"><title>Node15</title>
<g id="a_node15"><a xlink:href="classjson11_1_1_value.html" target="_top" xlink:title="{json11::Value\&lt; Json\l::STRING, string \&gt;\n|# m_value\l|# Value()\l# Value()\l# type()\l# equals()\l# less()\l# dump()\l}">
<polygon fill="white" stroke="black" points="927.5,-138.5 927.5,-261.5 1033.5,-261.5 1033.5,-138.5 927.5,-138.5"/>
<text text-anchor="start" x="935.5" y="-249.5" font-family="Helvetica,sans-Serif" font-size="10.00">json11::Value&lt; Json</text>
<text text-anchor="middle" x="980.5" y="-238.5" font-family="Helvetica,sans-Serif" font-size="10.00">::STRING, string &gt;</text>
<polyline fill="none" stroke="black" points="927.5,-231.5 1033.5,-231.5 "/>
<text text-anchor="start" x="935.5" y="-219.5" font-family="Helvetica,sans-Serif" font-size="10.00"># m_value</text>
<polyline fill="none" stroke="black" points="927.5,-212.5 1033.5,-212.5 "/>
<text text-anchor="start" x="935.5" y="-200.5" font-family="Helvetica,sans-Serif" font-size="10.00"># Value()</text>
<text text-anchor="start" x="935.5" y="-189.5" font-family="Helvetica,sans-Serif" font-size="10.00"># Value()</text>
<text text-anchor="start" x="935.5" y="-178.5" font-family="Helvetica,sans-Serif" font-size="10.00"># type()</text>
<text text-anchor="start" x="935.5" y="-167.5" font-family="Helvetica,sans-Serif" font-size="10.00"># equals()</text>
<text text-anchor="start" x="935.5" y="-156.5" font-family="Helvetica,sans-Serif" font-size="10.00"># less()</text>
<text text-anchor="start" x="935.5" y="-145.5" font-family="Helvetica,sans-Serif" font-size="10.00"># dump()</text>
</a>
</g>
</g>
<!-- Node1&#45;&gt;Node15 -->
<g id="edge14" class="edge"><title>Node1&#45;&gt;Node15</title>
<path fill="none" stroke="midnightblue" d="M576.285,-381.811C657.759,-365.788 807.497,-329.354 918.5,-262 921.469,-260.198 924.405,-258.228 927.29,-256.134"/>
<polygon fill="none" stroke="midnightblue" points="575.37,-378.423 566.215,-383.755 576.697,-385.296 575.37,-378.423"/>
</g>
<!-- Node4 -->
<g id="node4" class="node"><title>Node4</title>
<g id="a_node4"><a xlink:href="classjson11_1_1_json_array.html" target="_top" xlink:title="{json11::JsonArray\n||+ JsonArray()\l+ JsonArray()\l&#45; array_items()\l&#45; operator[]()\l}">
<polygon fill="white" stroke="black" points="151,-6 151,-96 246,-96 246,-6 151,-6"/>
<text text-anchor="middle" x="198.5" y="-84" font-family="Helvetica,sans-Serif" font-size="10.00">json11::JsonArray</text>
<polyline fill="none" stroke="black" points="151,-77 246,-77 "/>
<text text-anchor="middle" x="198.5" y="-65" font-family="Helvetica,sans-Serif" font-size="10.00"> </text>
<polyline fill="none" stroke="black" points="151,-58 246,-58 "/>
<text text-anchor="start" x="159" y="-46" font-family="Helvetica,sans-Serif" font-size="10.00">+ JsonArray()</text>
<text text-anchor="start" x="159" y="-35" font-family="Helvetica,sans-Serif" font-size="10.00">+ JsonArray()</text>
<text text-anchor="start" x="159" y="-24" font-family="Helvetica,sans-Serif" font-size="10.00">&#45; array_items()</text>
<text text-anchor="start" x="159" y="-13" font-family="Helvetica,sans-Serif" font-size="10.00">&#45; operator[]()</text>
</a>
</g>
</g>
<!-- Node3&#45;&gt;Node4 -->
<g id="edge3" class="edge"><title>Node3&#45;&gt;Node4</title>
<path fill="none" stroke="midnightblue" d="M198.5,-128.049C198.5,-117.238 198.5,-106.353 198.5,-96.3322"/>
<polygon fill="none" stroke="midnightblue" points="195,-128.361 198.5,-138.361 202,-128.361 195,-128.361"/>
</g>
<!-- Node6 -->
<g id="node6" class="node"><title>Node6</title>
<g id="a_node6"><a xlink:href="classjson11_1_1_json_boolean.html" target="_top" xlink:title="{json11::JsonBoolean\n||+ JsonBoolean()\l&#45; bool_value()\l}">
<polygon fill="white" stroke="black" points="277,-17 277,-85 384,-85 384,-17 277,-17"/>
<text text-anchor="middle" x="330.5" y="-73" font-family="Helvetica,sans-Serif" font-size="10.00">json11::JsonBoolean</text>
<polyline fill="none" stroke="black" points="277,-66 384,-66 "/>
<text text-anchor="middle" x="330.5" y="-54" font-family="Helvetica,sans-Serif" font-size="10.00"> </text>
<polyline fill="none" stroke="black" points="277,-47 384,-47 "/>
<text text-anchor="start" x="285" y="-35" font-family="Helvetica,sans-Serif" font-size="10.00">+ JsonBoolean()</text>
<text text-anchor="start" x="285" y="-24" font-family="Helvetica,sans-Serif" font-size="10.00">&#45; bool_value()</text>
</a>
</g>
</g>
<!-- Node5&#45;&gt;Node6 -->
<g id="edge5" class="edge"><title>Node5&#45;&gt;Node6</title>
<path fill="none" stroke="midnightblue" d="M330.5,-128.045C330.5,-113.068 330.5,-97.9494 330.5,-85.1816"/>
<polygon fill="none" stroke="midnightblue" points="327,-128.361 330.5,-138.361 334,-128.361 327,-128.361"/>
</g>
<!-- Node8 -->
<g id="node8" class="node"><title>Node8</title>
<g id="a_node8"><a xlink:href="classjson11_1_1_json_null.html" target="_top" xlink:title="{json11::JsonNull\n||+ JsonNull()\l}">
<polygon fill="white" stroke="black" points="410,-22.5 410,-79.5 499,-79.5 499,-22.5 410,-22.5"/>
<text text-anchor="middle" x="454.5" y="-67.5" font-family="Helvetica,sans-Serif" font-size="10.00">json11::JsonNull</text>
<polyline fill="none" stroke="black" points="410,-60.5 499,-60.5 "/>
<text text-anchor="middle" x="454.5" y="-48.5" font-family="Helvetica,sans-Serif" font-size="10.00"> </text>
<polyline fill="none" stroke="black" points="410,-41.5 499,-41.5 "/>
<text text-anchor="start" x="418" y="-29.5" font-family="Helvetica,sans-Serif" font-size="10.00">+ JsonNull()</text>
</a>
</g>
</g>
<!-- Node7&#45;&gt;Node8 -->
<g id="edge7" class="edge"><title>Node7&#45;&gt;Node8</title>
<path fill="none" stroke="midnightblue" d="M454.5,-128.237C454.5,-110.953 454.5,-93.467 454.5,-79.6091"/>
<polygon fill="none" stroke="midnightblue" points="451,-128.361 454.5,-138.361 458,-128.361 451,-128.361"/>
</g>
<!-- Node10 -->
<g id="node10" class="node"><title>Node10</title>
<g id="a_node10"><a xlink:href="classjson11_1_1_json_double.html" target="_top" xlink:title="{json11::JsonDouble\n||+ JsonDouble()\l&#45; number_value()\l&#45; int_value()\l&#45; equals()\l&#45; less()\l}">
<polygon fill="white" stroke="black" points="529,-0.5 529,-101.5 632,-101.5 632,-0.5 529,-0.5"/>
<text text-anchor="middle" x="580.5" y="-89.5" font-family="Helvetica,sans-Serif" font-size="10.00">json11::JsonDouble</text>
<polyline fill="none" stroke="black" points="529,-82.5 632,-82.5 "/>
<text text-anchor="middle" x="580.5" y="-70.5" font-family="Helvetica,sans-Serif" font-size="10.00"> </text>
<polyline fill="none" stroke="black" points="529,-63.5 632,-63.5 "/>
<text text-anchor="start" x="537" y="-51.5" font-family="Helvetica,sans-Serif" font-size="10.00">+ JsonDouble()</text>
<text text-anchor="start" x="537" y="-40.5" font-family="Helvetica,sans-Serif" font-size="10.00">&#45; number_value()</text>
<text text-anchor="start" x="537" y="-29.5" font-family="Helvetica,sans-Serif" font-size="10.00">&#45; int_value()</text>
<text text-anchor="start" x="537" y="-18.5" font-family="Helvetica,sans-Serif" font-size="10.00">&#45; equals()</text>
<text text-anchor="start" x="537" y="-7.5" font-family="Helvetica,sans-Serif" font-size="10.00">&#45; less()</text>
</a>
</g>
</g>
<!-- Node9&#45;&gt;Node10 -->
<g id="edge9" class="edge"><title>Node9&#45;&gt;Node10</title>
<path fill="none" stroke="midnightblue" d="M580.5,-128.289C580.5,-119.323 580.5,-110.301 580.5,-101.758"/>
<polygon fill="none" stroke="midnightblue" points="577,-128.361 580.5,-138.361 584,-128.361 577,-128.361"/>
</g>
<!-- Node12 -->
<g id="node12" class="node"><title>Node12</title>
<g id="a_node12"><a xlink:href="classjson11_1_1_json_int.html" target="_top" xlink:title="{json11::JsonInt\n||+ JsonInt()\l&#45; number_value()\l&#45; int_value()\l&#45; equals()\l&#45; less()\l}">
<polygon fill="white" stroke="black" points="662,-0.5 662,-101.5 751,-101.5 751,-0.5 662,-0.5"/>
<text text-anchor="middle" x="706.5" y="-89.5" font-family="Helvetica,sans-Serif" font-size="10.00">json11::JsonInt</text>
<polyline fill="none" stroke="black" points="662,-82.5 751,-82.5 "/>
<text text-anchor="middle" x="706.5" y="-70.5" font-family="Helvetica,sans-Serif" font-size="10.00"> </text>
<polyline fill="none" stroke="black" points="662,-63.5 751,-63.5 "/>
<text text-anchor="start" x="670" y="-51.5" font-family="Helvetica,sans-Serif" font-size="10.00">+ JsonInt()</text>
<text text-anchor="start" x="670" y="-40.5" font-family="Helvetica,sans-Serif" font-size="10.00">&#45; number_value()</text>
<text text-anchor="start" x="670" y="-29.5" font-family="Helvetica,sans-Serif" font-size="10.00">&#45; int_value()</text>
<text text-anchor="start" x="670" y="-18.5" font-family="Helvetica,sans-Serif" font-size="10.00">&#45; equals()</text>
<text text-anchor="start" x="670" y="-7.5" font-family="Helvetica,sans-Serif" font-size="10.00">&#45; less()</text>
</a>
</g>
</g>
<!-- Node11&#45;&gt;Node12 -->
<g id="edge11" class="edge"><title>Node11&#45;&gt;Node12</title>
<path fill="none" stroke="midnightblue" d="M706.5,-128.289C706.5,-119.323 706.5,-110.301 706.5,-101.758"/>
<polygon fill="none" stroke="midnightblue" points="703,-128.361 706.5,-138.361 710,-128.361 703,-128.361"/>
</g>
<!-- Node14 -->
<g id="node14" class="node"><title>Node14</title>
<g id="a_node14"><a xlink:href="classjson11_1_1_json_object.html" target="_top" xlink:title="{json11::JsonObject\n||+ JsonObject()\l+ JsonObject()\l&#45; object_items()\l&#45; operator[]()\l}">
<polygon fill="white" stroke="black" points="793,-6 793,-96 894,-96 894,-6 793,-6"/>
<text text-anchor="middle" x="843.5" y="-84" font-family="Helvetica,sans-Serif" font-size="10.00">json11::JsonObject</text>
<polyline fill="none" stroke="black" points="793,-77 894,-77 "/>
<text text-anchor="middle" x="843.5" y="-65" font-family="Helvetica,sans-Serif" font-size="10.00"> </text>
<polyline fill="none" stroke="black" points="793,-58 894,-58 "/>
<text text-anchor="start" x="801" y="-46" font-family="Helvetica,sans-Serif" font-size="10.00">+ JsonObject()</text>
<text text-anchor="start" x="801" y="-35" font-family="Helvetica,sans-Serif" font-size="10.00">+ JsonObject()</text>
<text text-anchor="start" x="801" y="-24" font-family="Helvetica,sans-Serif" font-size="10.00">&#45; object_items()</text>
<text text-anchor="start" x="801" y="-13" font-family="Helvetica,sans-Serif" font-size="10.00">&#45; operator[]()</text>
</a>
</g>
</g>
<!-- Node13&#45;&gt;Node14 -->
<g id="edge13" class="edge"><title>Node13&#45;&gt;Node14</title>
<path fill="none" stroke="midnightblue" d="M843.5,-128.049C843.5,-117.238 843.5,-106.353 843.5,-96.3322"/>
<polygon fill="none" stroke="midnightblue" points="840,-128.361 843.5,-138.361 847,-128.361 840,-128.361"/>
</g>
<!-- Node16 -->
<g id="node16" class="node"><title>Node16</title>
<g id="a_node16"><a xlink:href="classjson11_1_1_json_string.html" target="_top" xlink:title="{json11::JsonString\n||+ JsonString()\l+ JsonString()\l&#45; string_value()\l}">
<polygon fill="white" stroke="black" points="931.5,-11.5 931.5,-90.5 1029.5,-90.5 1029.5,-11.5 931.5,-11.5"/>
<text text-anchor="middle" x="980.5" y="-78.5" font-family="Helvetica,sans-Serif" font-size="10.00">json11::JsonString</text>
<polyline fill="none" stroke="black" points="931.5,-71.5 1029.5,-71.5 "/>
<text text-anchor="middle" x="980.5" y="-59.5" font-family="Helvetica,sans-Serif" font-size="10.00"> </text>
<polyline fill="none" stroke="black" points="931.5,-52.5 1029.5,-52.5 "/>
<text text-anchor="start" x="939.5" y="-40.5" font-family="Helvetica,sans-Serif" font-size="10.00">+ JsonString()</text>
<text text-anchor="start" x="939.5" y="-29.5" font-family="Helvetica,sans-Serif" font-size="10.00">+ JsonString()</text>
<text text-anchor="start" x="939.5" y="-18.5" font-family="Helvetica,sans-Serif" font-size="10.00">&#45; string_value()</text>
</a>
</g>
</g>
<!-- Node15&#45;&gt;Node16 -->
<g id="edge15" class="edge"><title>Node15&#45;&gt;Node16</title>
<path fill="none" stroke="midnightblue" d="M980.5,-128.068C980.5,-115.167 980.5,-102.16 980.5,-90.6405"/>
<polygon fill="none" stroke="midnightblue" points="977,-128.361 980.5,-138.361 984,-128.361 977,-128.361"/>
</g>
</g>
</svg>
        <g id="navigator" transform="translate(0 0)" fill="#404254">
                <rect fill="#f2f5e9" fill-opacity="0.5" stroke="#606060" stroke-width=".5" x="0" y="0" width="60" height="60"/>
                <use id="zoomplus" xlink:href="#zoomPlus" x="17" y="9" onmousedown="handleZoom(evt,'in')"/>
                <use id="zoomminus" xlink:href="#zoomMin" x="42" y="9" onmousedown="handleZoom(evt,'out')"/>
                <use id="reset" xlink:href="#resetDef" x="30" y="36" onmousedown="handleReset()"/>
                <g id="arrowUp" xlink:href="#dirArrow" transform="translate(30 24)" onmousedown="handlePan(0,-1)">
                  <use xlink:href="#rim" fill="#404040">
                        <set attributeName="fill" to="#808080" begin="arrowUp.mouseover" end="arrowUp.mouseout"/>
                  </use>
                  <path fill="none" stroke="white" stroke-width="1.5" d="M0,-3.0v7 M-2.5,-0.5L0,-3.0L2.5,-0.5"/>
                </g>
                <g id="arrowRight" xlink:href="#dirArrow" transform="rotate(90) translate(36 -43)" onmousedown="handlePan(1,0)">
                  <use xlink:href="#rim" fill="#404040">
                        <set attributeName="fill" to="#808080" begin="arrowRight.mouseover" end="arrowRight.mouseout"/>
                  </use>
                  <path fill="none" stroke="white" stroke-width="1.5" d="M0,-3.0v7 M-2.5,-0.5L0,-3.0L2.5,-0.5"/>
                </g>
                <g id="arrowDown" xlink:href="#dirArrow" transform="rotate(180) translate(-30 -48)" onmousedown="handlePan(0,1)">
                  <use xlink:href="#rim" fill="#404040">
                        <set attributeName="fill" to="#808080" begin="arrowDown.mouseover" end="arrowDown.mouseout"/>
                  </use>
                  <path fill="none" stroke="white" stroke-width="1.5" d="M0,-3.0v7 M-2.5,-0.5L0,-3.0L2.5,-0.5"/>
                </g>
                <g id="arrowLeft" xlink:href="#dirArrow" transform="rotate(270) translate(-36 17)" onmousedown="handlePan(-1,0)">
                  <use xlink:href="#rim" fill="#404040">
                        <set attributeName="fill" to="#808080" begin="arrowLeft.mouseover" end="arrowLeft.mouseout"/>
                  </use>
                  <path fill="none" stroke="white" stroke-width="1.5" d="M0,-3.0v7 M-2.5,-0.5L0,-3.0L2.5,-0.5"/>
                </g>
        </g>
        <svg viewBox="0 0 15 15" width="100%" height="30px" preserveAspectRatio="xMaxYMin meet">
         <g id="arrow_out" transform="scale(0.3 0.3)">
          <a xlink:href="classjson11_1_1_json_value__inherit__graph_org.svg" target="_base">
           <rect id="button" ry="5" rx="5" y="6" x="6" height="38" width="38"
                fill="#f2f5e9" fill-opacity="0.5" stroke="#606060" stroke-width="1.0"/>
           <path id="arrow"
             d="M 11.500037,31.436501 C 11.940474,20.09759 22.043105,11.32322 32.158766,21.979434 L 37.068811,17.246167 C 37.068811,17.246167 37.088388,32 37.088388,32 L 22.160133,31.978069 C 22.160133,31.978069 26.997745,27.140456 26.997745,27.140456 C 18.528582,18.264221 13.291696,25.230495 11.500037,31.436501 z"
             style="fill:#404040;"/>
          </a>
         </g>
        </svg>
</svg>
