<?xml version="1.0" encoding="UTF-8" standalone="no"?>
<!DOCTYPE svg PUBLIC "-//W3C//DTD SVG 1.1//EN"
 "http://www.w3.org/Graphics/SVG/1.1/DTD/svg11.dtd">
<!-- Generated by graphviz version 2.38.0 (20140413.2041)
 -->
<!-- Title: Cosmos::Devices::Prkx2su Pages: 1 -->
<!--zoomable 705 -->
<svg id="main" version="1.1" xmlns="http://www.w3.org/2000/svg" xmlns:xlink="http://www.w3.org/1999/xlink" xml:space="preserve" onload="init(evt)">
<style type="text/css"><![CDATA[
.edge:hover path { stroke: red; }
.edge:hover polygon { stroke: red; fill: red; }
]]></style>
<script type="text/javascript"><![CDATA[
var edges = document.getElementsByTagName('g');
if (edges && edges.length) {
  for (var i=0;i<edges.length;i++) {
    if (edges[i].id.substr(0,4)=='edge') {
      edges[i].setAttribute('class','edge');
    }
  }
}
]]></script>
        <defs>
                <circle id="rim" cx="0" cy="0" r="7"/>
                <circle id="rim2" cx="0" cy="0" r="3.5"/>
                <g id="zoomPlus">
                        <use xlink:href="#rim" fill="#404040">
                                <set attributeName="fill" to="#808080" begin="zoomplus.mouseover" end="zoomplus.mouseout"/>
                        </use>
                        <path d="M-4,0h8M0,-4v8" fill="none" stroke="white" stroke-width="1.5" pointer-events="none"/>
                </g>
                <g id="zoomMin">
                        <use xlink:href="#rim" fill="#404040">
                                <set attributeName="fill" to="#808080" begin="zoomminus.mouseover" end="zoomminus.mouseout"/>
                        </use>
                        <path d="M-4,0h8" fill="none" stroke="white" stroke-width="1.5" pointer-events="none"/>
                </g>
                <g id="dirArrow">
                        <path fill="none" stroke="white" stroke-width="1.5" d="M0,-3.0v7 M-2.5,-0.5L0,-3.0L2.5,-0.5"/>
                </g>
               <g id="resetDef">
                       <use xlink:href="#rim2" fill="#404040">
                               <set attributeName="fill" to="#808080" begin="reset.mouseover" end="reset.mouseout"/>
                       </use>
               </g>
        </defs>

<script type="text/javascript">
var viewWidth = 168;
var viewHeight = 705;
var sectionId = 'dynsection-0';
</script>
<script xlink:href="svgpan.js"/>
<svg id="graph" class="graph">
<g id="viewport">
<title>Cosmos::Devices::Prkx2su</title>
<polygon fill="white" stroke="none" points="-4,4 -4,-701 163.5,-701 163.5,4 -4,4"/>
<!-- Node1 -->
<g id="node1" class="node"><title>Node1</title>
<polygon fill="#bfbfbf" stroke="black" points="22.5,-0.5 22.5,-277.5 159.5,-277.5 159.5,-0.5 22.5,-0.5"/>
<text text-anchor="middle" x="91" y="-265.5" font-family="Helvetica,sans-Serif" font-size="10.00">Cosmos::Devices::Prkx2su</text>
<polyline fill="none" stroke="black" points="22.5,-258.5 159.5,-258.5 "/>
<text text-anchor="start" x="30.5" y="-246.5" font-family="Helvetica,sans-Serif" font-size="10.00">+ azid</text>
<text text-anchor="start" x="30.5" y="-235.5" font-family="Helvetica,sans-Serif" font-size="10.00">+ azstatus</text>
<text text-anchor="start" x="30.5" y="-224.5" font-family="Helvetica,sans-Serif" font-size="10.00">+ az_center</text>
<text text-anchor="start" x="30.5" y="-213.5" font-family="Helvetica,sans-Serif" font-size="10.00">+ az_mode</text>
<text text-anchor="start" x="30.5" y="-202.5" font-family="Helvetica,sans-Serif" font-size="10.00">+ az_offset_waiting</text>
<text text-anchor="start" x="30.5" y="-191.5" font-family="Helvetica,sans-Serif" font-size="10.00">+ az_offset</text>
<text text-anchor="start" x="30.5" y="-180.5" font-family="Helvetica,sans-Serif" font-size="10.00">+ minaz</text>
<text text-anchor="start" x="30.5" y="-169.5" font-family="Helvetica,sans-Serif" font-size="10.00">+ maxaz</text>
<text text-anchor="start" x="30.5" y="-158.5" font-family="Helvetica,sans-Serif" font-size="10.00">+ currentaz</text>
<text text-anchor="start" x="30.5" y="-147.5" font-family="Helvetica,sans-Serif" font-size="10.00">+ targetaz</text>
<text text-anchor="start" x="30.5" y="-136.5" font-family="Helvetica,sans-Serif" font-size="10.00">and 12 more...</text>
<polyline fill="none" stroke="black" points="22.5,-129.5 159.5,-129.5 "/>
<text text-anchor="start" x="30.5" y="-117.5" font-family="Helvetica,sans-Serif" font-size="10.00">+ Prkx2su()</text>
<text text-anchor="start" x="30.5" y="-106.5" font-family="Helvetica,sans-Serif" font-size="10.00">+ init()</text>
<text text-anchor="start" x="30.5" y="-95.5" font-family="Helvetica,sans-Serif" font-size="10.00">+ connect()</text>
<text text-anchor="start" x="30.5" y="-84.5" font-family="Helvetica,sans-Serif" font-size="10.00">+ disconnect()</text>
<text text-anchor="start" x="30.5" y="-73.5" font-family="Helvetica,sans-Serif" font-size="10.00">+ get_status()</text>
<text text-anchor="start" x="30.5" y="-62.5" font-family="Helvetica,sans-Serif" font-size="10.00">+ get_az()</text>
<text text-anchor="start" x="30.5" y="-51.5" font-family="Helvetica,sans-Serif" font-size="10.00">+ get_el()</text>
<text text-anchor="start" x="30.5" y="-40.5" font-family="Helvetica,sans-Serif" font-size="10.00">+ get_az_el()</text>
<text text-anchor="start" x="30.5" y="-29.5" font-family="Helvetica,sans-Serif" font-size="10.00">+ get_az_offset()</text>
<text text-anchor="start" x="30.5" y="-18.5" font-family="Helvetica,sans-Serif" font-size="10.00">+ get_el_offset()</text>
<text text-anchor="start" x="30.5" y="-7.5" font-family="Helvetica,sans-Serif" font-size="10.00">and 11 more...</text>
</g>
<!-- Node2 -->
<g id="node2" class="node"><title>Node2</title>
<g id="a_node2"><a xlink:href="class_cosmos_1_1_serial.html" target="_top" xlink:title="{Cosmos::Serial\n|&#45; fd\l&#45; error\l&#45; ictimeout\l&#45; restoreonclose\l&#45; dcb\l&#45; handle\l&#45; baud\l&#45; bits\l&#45; parity\l&#45; stop\l|+ Serial()\l+ ~Serial()\l+ open_device()\l+ close_device()\l+ set_restoreonclose()\l+ set_params()\l+ set_flowcontrol()\l+ set_timeout()\l+ set_timeout()\l+ set_dtr()\land 25 more...\l}">
<polygon fill="white" stroke="black" points="34,-325.5 34,-591.5 148,-591.5 148,-325.5 34,-325.5"/>
<text text-anchor="middle" x="91" y="-579.5" font-family="Helvetica,sans-Serif" font-size="10.00">Cosmos::Serial</text>
<polyline fill="none" stroke="black" points="34,-572.5 148,-572.5 "/>
<text text-anchor="start" x="42" y="-560.5" font-family="Helvetica,sans-Serif" font-size="10.00">&#45; fd</text>
<text text-anchor="start" x="42" y="-549.5" font-family="Helvetica,sans-Serif" font-size="10.00">&#45; error</text>
<text text-anchor="start" x="42" y="-538.5" font-family="Helvetica,sans-Serif" font-size="10.00">&#45; ictimeout</text>
<text text-anchor="start" x="42" y="-527.5" font-family="Helvetica,sans-Serif" font-size="10.00">&#45; restoreonclose</text>
<text text-anchor="start" x="42" y="-516.5" font-family="Helvetica,sans-Serif" font-size="10.00">&#45; dcb</text>
<text text-anchor="start" x="42" y="-505.5" font-family="Helvetica,sans-Serif" font-size="10.00">&#45; handle</text>
<text text-anchor="start" x="42" y="-494.5" font-family="Helvetica,sans-Serif" font-size="10.00">&#45; baud</text>
<text text-anchor="start" x="42" y="-483.5" font-family="Helvetica,sans-Serif" font-size="10.00">&#45; bits</text>
<text text-anchor="start" x="42" y="-472.5" font-family="Helvetica,sans-Serif" font-size="10.00">&#45; parity</text>
<text text-anchor="start" x="42" y="-461.5" font-family="Helvetica,sans-Serif" font-size="10.00">&#45; stop</text>
<polyline fill="none" stroke="black" points="34,-454.5 148,-454.5 "/>
<text text-anchor="start" x="42" y="-442.5" font-family="Helvetica,sans-Serif" font-size="10.00">+ Serial()</text>
<text text-anchor="start" x="42" y="-431.5" font-family="Helvetica,sans-Serif" font-size="10.00">+ ~Serial()</text>
<text text-anchor="start" x="42" y="-420.5" font-family="Helvetica,sans-Serif" font-size="10.00">+ open_device()</text>
<text text-anchor="start" x="42" y="-409.5" font-family="Helvetica,sans-Serif" font-size="10.00">+ close_device()</text>
<text text-anchor="start" x="42" y="-398.5" font-family="Helvetica,sans-Serif" font-size="10.00">+ set_restoreonclose()</text>
<text text-anchor="start" x="42" y="-387.5" font-family="Helvetica,sans-Serif" font-size="10.00">+ set_params()</text>
<text text-anchor="start" x="42" y="-376.5" font-family="Helvetica,sans-Serif" font-size="10.00">+ set_flowcontrol()</text>
<text text-anchor="start" x="42" y="-365.5" font-family="Helvetica,sans-Serif" font-size="10.00">+ set_timeout()</text>
<text text-anchor="start" x="42" y="-354.5" font-family="Helvetica,sans-Serif" font-size="10.00">+ set_timeout()</text>
<text text-anchor="start" x="42" y="-343.5" font-family="Helvetica,sans-Serif" font-size="10.00">+ set_dtr()</text>
<text text-anchor="start" x="42" y="-332.5" font-family="Helvetica,sans-Serif" font-size="10.00">and 25 more...</text>
</a>
</g>
</g>
<!-- Node2&#45;&gt;Node1 -->
<g id="edge1" class="edge"><title>Node2&#45;&gt;Node1</title>
<path fill="none" stroke="#404040" d="M91,-325.15C91,-313.469 91,-301.591 91,-289.78"/>
<polygon fill="none" stroke="#404040" points="91.0001,-289.507 87,-283.507 91,-277.507 95,-283.507 91.0001,-289.507"/>
<text text-anchor="middle" x="107.5" y="-299" font-family="Helvetica,sans-Serif" font-size="10.00"> +serial</text>
</g>
<!-- Node3 -->
<g id="node3" class="node"><title>Node3</title>
<polygon fill="white" stroke="#bfbfbf" points="0,-639.5 0,-696.5 96,-696.5 96,-639.5 0,-639.5"/>
<text text-anchor="middle" x="48" y="-684.5" font-family="Helvetica,sans-Serif" font-size="10.00">vector&lt; uint32_t &gt;</text>
<polyline fill="none" stroke="#bfbfbf" points="0,-677.5 96,-677.5 "/>
<text text-anchor="middle" x="48" y="-665.5" font-family="Helvetica,sans-Serif" font-size="10.00"> </text>
<polyline fill="none" stroke="#bfbfbf" points="0,-658.5 96,-658.5 "/>
<text text-anchor="middle" x="48" y="-646.5" font-family="Helvetica,sans-Serif" font-size="10.00"> </text>
</g>
<!-- Node3&#45;&gt;Node2 -->
<g id="edge2" class="edge"><title>Node3&#45;&gt;Node2</title>
<path fill="none" stroke="#404040" d="M50.1461,-639.352C51.075,-629.994 52.3388,-619.508 54,-610 54.3582,-607.95 54.7285,-605.887 55.1098,-603.812"/>
<polygon fill="none" stroke="#404040" points="55.1471,-603.618 52.349,-596.971 57.4077,-591.832 60.2058,-598.479 55.1471,-603.618"/>
<text text-anchor="middle" x="83.5" y="-613" font-family="Helvetica,sans-Serif" font-size="10.00"> &#45;baud_speed</text>
</g>
<!-- Node4 -->
<g id="node4" class="node"><title>Node4</title>
<polygon fill="white" stroke="#bfbfbf" points="114.5,-639.5 114.5,-696.5 155.5,-696.5 155.5,-639.5 114.5,-639.5"/>
<text text-anchor="middle" x="135" y="-684.5" font-family="Helvetica,sans-Serif" font-size="10.00">string</text>
<polyline fill="none" stroke="#bfbfbf" points="114.5,-677.5 155.5,-677.5 "/>
<text text-anchor="middle" x="135" y="-665.5" font-family="Helvetica,sans-Serif" font-size="10.00"> </text>
<polyline fill="none" stroke="#bfbfbf" points="114.5,-658.5 155.5,-658.5 "/>
<text text-anchor="middle" x="135" y="-646.5" font-family="Helvetica,sans-Serif" font-size="10.00"> </text>
</g>
<!-- Node4&#45;&gt;Node2 -->
<g id="edge3" class="edge"><title>Node4&#45;&gt;Node2</title>
<path fill="none" stroke="#404040" d="M129.157,-639.446C127.006,-629.299 124.395,-616.985 121.559,-603.612"/>
<polygon fill="none" stroke="#404040" points="121.504,-603.353 116.346,-598.314 119.015,-591.614 124.172,-596.654 121.504,-603.353"/>
<text text-anchor="middle" x="140.5" y="-613" font-family="Helvetica,sans-Serif" font-size="10.00"> &#45;name</text>
</g>
</g>
</svg>
        <g id="navigator" transform="translate(0 0)" fill="#404254">
                <rect fill="#f2f5e9" fill-opacity="0.5" stroke="#606060" stroke-width=".5" x="0" y="0" width="60" height="60"/>
                <use id="zoomplus" xlink:href="#zoomPlus" x="17" y="9" onmousedown="handleZoom(evt,'in')"/>
                <use id="zoomminus" xlink:href="#zoomMin" x="42" y="9" onmousedown="handleZoom(evt,'out')"/>
                <use id="reset" xlink:href="#resetDef" x="30" y="36" onmousedown="handleReset()"/>
                <g id="arrowUp" xlink:href="#dirArrow" transform="translate(30 24)" onmousedown="handlePan(0,-1)">
                  <use xlink:href="#rim" fill="#404040">
                        <set attributeName="fill" to="#808080" begin="arrowUp.mouseover" end="arrowUp.mouseout"/>
                  </use>
                  <path fill="none" stroke="white" stroke-width="1.5" d="M0,-3.0v7 M-2.5,-0.5L0,-3.0L2.5,-0.5"/>
                </g>
                <g id="arrowRight" xlink:href="#dirArrow" transform="rotate(90) translate(36 -43)" onmousedown="handlePan(1,0)">
                  <use xlink:href="#rim" fill="#404040">
                        <set attributeName="fill" to="#808080" begin="arrowRight.mouseover" end="arrowRight.mouseout"/>
                  </use>
                  <path fill="none" stroke="white" stroke-width="1.5" d="M0,-3.0v7 M-2.5,-0.5L0,-3.0L2.5,-0.5"/>
                </g>
                <g id="arrowDown" xlink:href="#dirArrow" transform="rotate(180) translate(-30 -48)" onmousedown="handlePan(0,1)">
                  <use xlink:href="#rim" fill="#404040">
                        <set attributeName="fill" to="#808080" begin="arrowDown.mouseover" end="arrowDown.mouseout"/>
                  </use>
                  <path fill="none" stroke="white" stroke-width="1.5" d="M0,-3.0v7 M-2.5,-0.5L0,-3.0L2.5,-0.5"/>
                </g>
                <g id="arrowLeft" xlink:href="#dirArrow" transform="rotate(270) translate(-36 17)" onmousedown="handlePan(-1,0)">
                  <use xlink:href="#rim" fill="#404040">
                        <set attributeName="fill" to="#808080" begin="arrowLeft.mouseover" end="arrowLeft.mouseout"/>
                  </use>
                  <path fill="none" stroke="white" stroke-width="1.5" d="M0,-3.0v7 M-2.5,-0.5L0,-3.0L2.5,-0.5"/>
                </g>
        </g>
        <svg viewBox="0 0 15 15" width="100%" height="30px" preserveAspectRatio="xMaxYMin meet">
         <g id="arrow_out" transform="scale(0.3 0.3)">
          <a xlink:href="class_cosmos_1_1_devices_1_1_prkx2su__coll__graph_org.svg" target="_base">
           <rect id="button" ry="5" rx="5" y="6" x="6" height="38" width="38"
                fill="#f2f5e9" fill-opacity="0.5" stroke="#606060" stroke-width="1.0"/>
           <path id="arrow"
             d="M 11.500037,31.436501 C 11.940474,20.09759 22.043105,11.32322 32.158766,21.979434 L 37.068811,17.246167 C 37.068811,17.246167 37.088388,32 37.088388,32 L 22.160133,31.978069 C 22.160133,31.978069 26.997745,27.140456 26.997745,27.140456 C 18.528582,18.264221 13.291696,25.230495 11.500037,31.436501 z"
             style="fill:#404040;"/>
          </a>
         </g>
        </svg>
</svg>
