<?xml version="1.0" encoding="UTF-8" standalone="no"?>
<!DOCTYPE svg PUBLIC "-//W3C//DTD SVG 1.1//EN"
 "http://www.w3.org/Graphics/SVG/1.1/DTD/svg11.dtd">
<!-- Generated by graphviz version 2.38.0 (20140413.2041)
 -->
<!-- Title: Cosmos::wavefront Pages: 1 -->
<svg width="1044pt" height="347pt"
 viewBox="0.00 0.00 1044.00 347.00" xmlns="http://www.w3.org/2000/svg" xmlns:xlink="http://www.w3.org/1999/xlink">
<g id="graph0" class="graph" transform="scale(1 1) rotate(0) translate(4 343)">
<title>Cosmos::wavefront</title>
<polygon fill="white" stroke="none" points="-4,4 -4,-343 1040,-343 1040,4 -4,4"/>
<!-- Node1 -->
<g id="node1" class="node"><title>Node1</title>
<polygon fill="#bfbfbf" stroke="black" points="466,-0.5 466,-189.5 594,-189.5 594,-0.5 466,-0.5"/>
<text text-anchor="middle" x="530" y="-177.5" font-family="Helvetica,sans-Serif" font-size="10.00">Cosmos::wavefront</text>
<polyline fill="none" stroke="black" points="466,-170.5 594,-170.5 "/>
<text text-anchor="middle" x="530" y="-158.5" font-family="Helvetica,sans-Serif" font-size="10.00"> </text>
<polyline fill="none" stroke="black" points="466,-151.5 594,-151.5 "/>
<text text-anchor="start" x="474" y="-139.5" font-family="Helvetica,sans-Serif" font-size="10.00">+ wavefront()</text>
<text text-anchor="start" x="474" y="-128.5" font-family="Helvetica,sans-Serif" font-size="10.00">+ add_geometric_vertex()</text>
<text text-anchor="start" x="474" y="-117.5" font-family="Helvetica,sans-Serif" font-size="10.00">+ add_texture_vertex()</text>
<text text-anchor="start" x="474" y="-106.5" font-family="Helvetica,sans-Serif" font-size="10.00">+ add_normal_vertex()</text>
<text text-anchor="start" x="474" y="-95.5" font-family="Helvetica,sans-Serif" font-size="10.00">+ add_parameter_vertex()</text>
<text text-anchor="start" x="474" y="-84.5" font-family="Helvetica,sans-Serif" font-size="10.00">+ add_material()</text>
<text text-anchor="start" x="474" y="-73.5" font-family="Helvetica,sans-Serif" font-size="10.00">+ add_point()</text>
<text text-anchor="start" x="474" y="-62.5" font-family="Helvetica,sans-Serif" font-size="10.00">+ add_line()</text>
<text text-anchor="start" x="474" y="-51.5" font-family="Helvetica,sans-Serif" font-size="10.00">+ add_face()</text>
<text text-anchor="start" x="474" y="-40.5" font-family="Helvetica,sans-Serif" font-size="10.00">+ update_line()</text>
<text text-anchor="start" x="474" y="-29.5" font-family="Helvetica,sans-Serif" font-size="10.00">and 13 more...</text>
<text text-anchor="start" x="474" y="-18.5" font-family="Helvetica,sans-Serif" font-size="10.00">&#45; parseobj()</text>
<text text-anchor="start" x="474" y="-7.5" font-family="Helvetica,sans-Serif" font-size="10.00">&#45; parsemtl()</text>
</g>
<!-- Node2 -->
<g id="node2" class="node"><title>Node2</title>
<polygon fill="white" stroke="#bfbfbf" points="0,-270.5 0,-338.5 138,-338.5 138,-270.5 0,-270.5"/>
<text text-anchor="start" x="8" y="-326.5" font-family="Helvetica,sans-Serif" font-size="10.00">vector&lt; Cosmos::wavefront</text>
<text text-anchor="middle" x="69" y="-315.5" font-family="Helvetica,sans-Serif" font-size="10.00">::line &gt;</text>
<polyline fill="none" stroke="#bfbfbf" points="0,-308.5 138,-308.5 "/>
<text text-anchor="middle" x="69" y="-296.5" font-family="Helvetica,sans-Serif" font-size="10.00"> </text>
<polyline fill="none" stroke="#bfbfbf" points="0,-289.5 138,-289.5 "/>
<text text-anchor="middle" x="69" y="-277.5" font-family="Helvetica,sans-Serif" font-size="10.00"> </text>
</g>
<!-- Node2&#45;&gt;Node1 -->
<g id="edge1" class="edge"><title>Node2&#45;&gt;Node1</title>
<path fill="none" stroke="#404040" d="M137.088,-270.385C175.877,-251.713 225.478,-228.158 270,-208 331.839,-180.002 402.632,-149.614 454.717,-127.564"/>
<polygon fill="none" stroke="#404040" points="454.816,-127.523 458.785,-121.502 465.869,-122.85 461.9,-128.87 454.816,-127.523"/>
<text text-anchor="middle" x="286.5" y="-227.5" font-family="Helvetica,sans-Serif" font-size="10.00"> +Lines</text>
</g>
<!-- Node3 -->
<g id="node3" class="node"><title>Node3</title>
<polygon fill="white" stroke="#bfbfbf" points="156,-270.5 156,-338.5 294,-338.5 294,-270.5 156,-270.5"/>
<text text-anchor="start" x="164" y="-326.5" font-family="Helvetica,sans-Serif" font-size="10.00">vector&lt; Cosmos::wavefront</text>
<text text-anchor="middle" x="225" y="-315.5" font-family="Helvetica,sans-Serif" font-size="10.00">::face &gt;</text>
<polyline fill="none" stroke="#bfbfbf" points="156,-308.5 294,-308.5 "/>
<text text-anchor="middle" x="225" y="-296.5" font-family="Helvetica,sans-Serif" font-size="10.00"> </text>
<polyline fill="none" stroke="#bfbfbf" points="156,-289.5 294,-289.5 "/>
<text text-anchor="middle" x="225" y="-277.5" font-family="Helvetica,sans-Serif" font-size="10.00"> </text>
</g>
<!-- Node3&#45;&gt;Node1 -->
<g id="edge2" class="edge"><title>Node3&#45;&gt;Node1</title>
<path fill="none" stroke="#404040" d="M273.665,-270.392C322.77,-236.984 399.227,-184.968 455.874,-146.43"/>
<polygon fill="none" stroke="#404040" points="455.931,-146.391 458.642,-139.709 465.852,-139.641 463.142,-146.324 455.931,-146.391"/>
<text text-anchor="middle" x="378.5" y="-227.5" font-family="Helvetica,sans-Serif" font-size="10.00"> +Faces</text>
</g>
<!-- Node4 -->
<g id="node4" class="node"><title>Node4</title>
<polygon fill="white" stroke="#bfbfbf" points="312,-270.5 312,-338.5 450,-338.5 450,-270.5 312,-270.5"/>
<text text-anchor="start" x="320" y="-326.5" font-family="Helvetica,sans-Serif" font-size="10.00">vector&lt; Cosmos::wavefront</text>
<text text-anchor="middle" x="381" y="-315.5" font-family="Helvetica,sans-Serif" font-size="10.00">::group &gt;</text>
<polyline fill="none" stroke="#bfbfbf" points="312,-308.5 450,-308.5 "/>
<text text-anchor="middle" x="381" y="-296.5" font-family="Helvetica,sans-Serif" font-size="10.00"> </text>
<polyline fill="none" stroke="#bfbfbf" points="312,-289.5 450,-289.5 "/>
<text text-anchor="middle" x="381" y="-277.5" font-family="Helvetica,sans-Serif" font-size="10.00"> </text>
</g>
<!-- Node4&#45;&gt;Node1 -->
<g id="edge3" class="edge"><title>Node4&#45;&gt;Node1</title>
<path fill="none" stroke="#404040" d="M404.939,-270.162C419.666,-249.653 439.383,-222.195 458.8,-195.154"/>
<polygon fill="none" stroke="#404040" points="458.931,-194.971 459.182,-187.765 465.931,-185.224 465.68,-192.431 458.931,-194.971"/>
<text text-anchor="middle" x="467.5" y="-227.5" font-family="Helvetica,sans-Serif" font-size="10.00"> +Groups</text>
</g>
<!-- Node5 -->
<g id="node5" class="node"><title>Node5</title>
<polygon fill="white" stroke="#bfbfbf" points="468.5,-276 468.5,-333 509.5,-333 509.5,-276 468.5,-276"/>
<text text-anchor="middle" x="489" y="-321" font-family="Helvetica,sans-Serif" font-size="10.00">string</text>
<polyline fill="none" stroke="#bfbfbf" points="468.5,-314 509.5,-314 "/>
<text text-anchor="middle" x="489" y="-302" font-family="Helvetica,sans-Serif" font-size="10.00"> </text>
<polyline fill="none" stroke="#bfbfbf" points="468.5,-295 509.5,-295 "/>
<text text-anchor="middle" x="489" y="-283" font-family="Helvetica,sans-Serif" font-size="10.00"> </text>
</g>
<!-- Node5&#45;&gt;Node1 -->
<g id="edge4" class="edge"><title>Node5&#45;&gt;Node1</title>
<path fill="none" stroke="#404040" d="M494.444,-275.946C498.295,-256.46 503.724,-228.983 509.183,-201.355"/>
<polygon fill="none" stroke="#404040" points="509.194,-201.3 506.433,-194.638 511.52,-189.528 514.281,-196.189 509.194,-201.3"/>
<text text-anchor="middle" x="526.5" y="-233" font-family="Helvetica,sans-Serif" font-size="10.00"> +name</text>
<text text-anchor="middle" x="526.5" y="-222" font-family="Helvetica,sans-Serif" font-size="10.00">&#45;location</text>
</g>
<!-- Node6 -->
<g id="node6" class="node"><title>Node6</title>
<polygon fill="white" stroke="#bfbfbf" points="528,-276 528,-333 616,-333 616,-276 528,-276"/>
<text text-anchor="middle" x="572" y="-321" font-family="Helvetica,sans-Serif" font-size="10.00">vector&lt; size_t &gt;</text>
<polyline fill="none" stroke="#bfbfbf" points="528,-314 616,-314 "/>
<text text-anchor="middle" x="572" y="-302" font-family="Helvetica,sans-Serif" font-size="10.00"> </text>
<polyline fill="none" stroke="#bfbfbf" points="528,-295 616,-295 "/>
<text text-anchor="middle" x="572" y="-283" font-family="Helvetica,sans-Serif" font-size="10.00"> </text>
</g>
<!-- Node6&#45;&gt;Node1 -->
<g id="edge5" class="edge"><title>Node6&#45;&gt;Node1</title>
<path fill="none" stroke="#404040" d="M566.423,-275.946C562.479,-256.46 556.917,-228.983 551.325,-201.355"/>
<polygon fill="none" stroke="#404040" points="551.312,-201.289 546.201,-196.202 548.931,-189.528 554.042,-194.615 551.312,-201.289"/>
<text text-anchor="middle" x="582.5" y="-227.5" font-family="Helvetica,sans-Serif" font-size="10.00"> &#45;cGroups</text>
</g>
<!-- Node7 -->
<g id="node7" class="node"><title>Node7</title>
<polygon fill="white" stroke="#bfbfbf" points="634,-270.5 634,-338.5 772,-338.5 772,-270.5 634,-270.5"/>
<text text-anchor="start" x="642" y="-326.5" font-family="Helvetica,sans-Serif" font-size="10.00">vector&lt; Cosmos::wavefront</text>
<text text-anchor="middle" x="703" y="-315.5" font-family="Helvetica,sans-Serif" font-size="10.00">::point &gt;</text>
<polyline fill="none" stroke="#bfbfbf" points="634,-308.5 772,-308.5 "/>
<text text-anchor="middle" x="703" y="-296.5" font-family="Helvetica,sans-Serif" font-size="10.00"> </text>
<polyline fill="none" stroke="#bfbfbf" points="634,-289.5 772,-289.5 "/>
<text text-anchor="middle" x="703" y="-277.5" font-family="Helvetica,sans-Serif" font-size="10.00"> </text>
</g>
<!-- Node7&#45;&gt;Node1 -->
<g id="edge6" class="edge"><title>Node7&#45;&gt;Node1</title>
<path fill="none" stroke="#404040" d="M675.205,-270.162C655.469,-246.49 628.014,-213.56 602.284,-182.699"/>
<polygon fill="none" stroke="#404040" points="602.049,-182.418 595.135,-180.371 594.365,-173.201 601.28,-175.248 602.049,-182.418"/>
<text text-anchor="middle" x="675.5" y="-227.5" font-family="Helvetica,sans-Serif" font-size="10.00"> +Points</text>
</g>
<!-- Node8 -->
<g id="node8" class="node"><title>Node8</title>
<polygon fill="white" stroke="#bfbfbf" points="790,-276 790,-333 880,-333 880,-276 790,-276"/>
<text text-anchor="middle" x="835" y="-321" font-family="Helvetica,sans-Serif" font-size="10.00">vector&lt; Vector &gt;</text>
<polyline fill="none" stroke="#bfbfbf" points="790,-314 880,-314 "/>
<text text-anchor="middle" x="835" y="-302" font-family="Helvetica,sans-Serif" font-size="10.00"> </text>
<polyline fill="none" stroke="#bfbfbf" points="790,-295 880,-295 "/>
<text text-anchor="middle" x="835" y="-283" font-family="Helvetica,sans-Serif" font-size="10.00"> </text>
</g>
<!-- Node8&#45;&gt;Node1 -->
<g id="edge7" class="edge"><title>Node8&#45;&gt;Node1</title>
<path fill="none" stroke="#404040" d="M795.879,-275.908C768.556,-256.717 731.178,-230.62 698,-208 667.428,-187.157 633.505,-164.461 604.193,-144.983"/>
<polygon fill="none" stroke="#404040" points="604.027,-144.874 596.816,-144.888 594.03,-138.237 601.241,-138.223 604.027,-144.874"/>
<text text-anchor="middle" x="770" y="-244" font-family="Helvetica,sans-Serif" font-size="10.00"> +Vp</text>
<text text-anchor="middle" x="770" y="-233" font-family="Helvetica,sans-Serif" font-size="10.00">+Vt</text>
<text text-anchor="middle" x="770" y="-222" font-family="Helvetica,sans-Serif" font-size="10.00">+Vg</text>
<text text-anchor="middle" x="770" y="-211" font-family="Helvetica,sans-Serif" font-size="10.00">+Vn</text>
</g>
<!-- Node9 -->
<g id="node9" class="node"><title>Node9</title>
<polygon fill="white" stroke="#bfbfbf" points="898,-270.5 898,-338.5 1036,-338.5 1036,-270.5 898,-270.5"/>
<text text-anchor="start" x="906" y="-326.5" font-family="Helvetica,sans-Serif" font-size="10.00">vector&lt; Cosmos::wavefront</text>
<text text-anchor="middle" x="967" y="-315.5" font-family="Helvetica,sans-Serif" font-size="10.00">::material &gt;</text>
<polyline fill="none" stroke="#bfbfbf" points="898,-308.5 1036,-308.5 "/>
<text text-anchor="middle" x="967" y="-296.5" font-family="Helvetica,sans-Serif" font-size="10.00"> </text>
<polyline fill="none" stroke="#bfbfbf" points="898,-289.5 1036,-289.5 "/>
<text text-anchor="middle" x="967" y="-277.5" font-family="Helvetica,sans-Serif" font-size="10.00"> </text>
</g>
<!-- Node9&#45;&gt;Node1 -->
<g id="edge8" class="edge"><title>Node9&#45;&gt;Node1</title>
<path fill="none" stroke="#404040" d="M906.454,-270.383C871.301,-251.495 825.995,-227.729 785,-208 725.354,-179.295 656.58,-149.263 605.497,-127.531"/>
<polygon fill="none" stroke="#404040" points="605.269,-127.434 598.183,-128.773 594.222,-122.747 601.308,-121.408 605.269,-127.434"/>
<text text-anchor="middle" x="895.5" y="-227.5" font-family="Helvetica,sans-Serif" font-size="10.00"> +Materials</text>
</g>
</g>
</svg>
