<?xml version="1.0" encoding="UTF-8" standalone="no"?>
<!DOCTYPE svg PUBLIC "-//W3C//DTD SVG 1.1//EN"
 "http://www.w3.org/Graphics/SVG/1.1/DTD/svg11.dtd">
<!-- Generated by graphviz version 2.38.0 (20140413.2041)
 -->
<!-- Title: Cosmos::Protocols::Ccsds::Spp Pages: 1 -->
<!--zoomable 551 -->
<svg id="main" version="1.1" xmlns="http://www.w3.org/2000/svg" xmlns:xlink="http://www.w3.org/1999/xlink" xml:space="preserve" onload="init(evt)">
<style type="text/css"><![CDATA[
.edge:hover path { stroke: red; }
.edge:hover polygon { stroke: red; fill: red; }
]]></style>
<script type="text/javascript"><![CDATA[
var edges = document.getElementsByTagName('g');
if (edges && edges.length) {
  for (var i=0;i<edges.length;i++) {
    if (edges[i].id.substr(0,4)=='edge') {
      edges[i].setAttribute('class','edge');
    }
  }
}
]]></script>
        <defs>
                <circle id="rim" cx="0" cy="0" r="7"/>
                <circle id="rim2" cx="0" cy="0" r="3.5"/>
                <g id="zoomPlus">
                        <use xlink:href="#rim" fill="#404040">
                                <set attributeName="fill" to="#808080" begin="zoomplus.mouseover" end="zoomplus.mouseout"/>
                        </use>
                        <path d="M-4,0h8M0,-4v8" fill="none" stroke="white" stroke-width="1.5" pointer-events="none"/>
                </g>
                <g id="zoomMin">
                        <use xlink:href="#rim" fill="#404040">
                                <set attributeName="fill" to="#808080" begin="zoomminus.mouseover" end="zoomminus.mouseout"/>
                        </use>
                        <path d="M-4,0h8" fill="none" stroke="white" stroke-width="1.5" pointer-events="none"/>
                </g>
                <g id="dirArrow">
                        <path fill="none" stroke="white" stroke-width="1.5" d="M0,-3.0v7 M-2.5,-0.5L0,-3.0L2.5,-0.5"/>
                </g>
               <g id="resetDef">
                       <use xlink:href="#rim2" fill="#404040">
                               <set attributeName="fill" to="#808080" begin="reset.mouseover" end="reset.mouseout"/>
                       </use>
               </g>
        </defs>

<script type="text/javascript">
var viewWidth = 266;
var viewHeight = 551;
var sectionId = 'dynsection-0';
</script>
<script xlink:href="svgpan.js"/>
<svg id="graph" class="graph">
<g id="viewport">
<title>Cosmos::Protocols::Ccsds::Spp</title>
<polygon fill="white" stroke="none" points="-4,4 -4,-547 261.5,-547 261.5,4 -4,4"/>
<!-- Node1 -->
<g id="node1" class="node"><title>Node1</title>
<polygon fill="#bfbfbf" stroke="black" points="37.5,-0.5 37.5,-189.5 179.5,-189.5 179.5,-0.5 37.5,-0.5"/>
<text text-anchor="start" x="45.5" y="-177.5" font-family="Helvetica,sans-Serif" font-size="10.00">Cosmos::Protocols::</text>
<text text-anchor="middle" x="108.5" y="-166.5" font-family="Helvetica,sans-Serif" font-size="10.00">Ccsds::Spp</text>
<polyline fill="none" stroke="black" points="37.5,-159.5 179.5,-159.5 "/>
<text text-anchor="start" x="45.5" y="-147.5" font-family="Helvetica,sans-Serif" font-size="10.00"># error</text>
<text text-anchor="start" x="45.5" y="-136.5" font-family="Helvetica,sans-Serif" font-size="10.00"># stage</text>
<polyline fill="none" stroke="black" points="37.5,-129.5 179.5,-129.5 "/>
<text text-anchor="start" x="45.5" y="-117.5" font-family="Helvetica,sans-Serif" font-size="10.00">+ Spp()</text>
<text text-anchor="start" x="45.5" y="-106.5" font-family="Helvetica,sans-Serif" font-size="10.00">+ setHeaderByte()</text>
<text text-anchor="start" x="45.5" y="-95.5" font-family="Helvetica,sans-Serif" font-size="10.00">+ setVersion()</text>
<text text-anchor="start" x="45.5" y="-84.5" font-family="Helvetica,sans-Serif" font-size="10.00">+ setApid()</text>
<text text-anchor="start" x="45.5" y="-73.5" font-family="Helvetica,sans-Serif" font-size="10.00">+ setApidIdle()</text>
<text text-anchor="start" x="45.5" y="-62.5" font-family="Helvetica,sans-Serif" font-size="10.00">+ setType()</text>
<text text-anchor="start" x="45.5" y="-51.5" font-family="Helvetica,sans-Serif" font-size="10.00">+ setSecondaryHeaderFlag()</text>
<text text-anchor="start" x="45.5" y="-40.5" font-family="Helvetica,sans-Serif" font-size="10.00">+ setSequenceFlags()</text>
<text text-anchor="start" x="45.5" y="-29.5" font-family="Helvetica,sans-Serif" font-size="10.00">+ setSequenceCount()</text>
<text text-anchor="start" x="45.5" y="-18.5" font-family="Helvetica,sans-Serif" font-size="10.00">+ setDataLength()</text>
<text text-anchor="start" x="45.5" y="-7.5" font-family="Helvetica,sans-Serif" font-size="10.00">and 16 more...</text>
</g>
<!-- Node2 -->
<g id="node2" class="node"><title>Node2</title>
<g id="a_node2"><a xlink:href="struct_cosmos_1_1_protocols_1_1_ccsds_1_1_spp_1_1packet.html" target="_top" xlink:title="{Cosmos::Protocols::\lCcsds::Spp::packet\n|+ primary_header_bytes\l+ @1\l|}">
<polygon fill="white" stroke="black" points="47.5,-237.5 47.5,-316.5 169.5,-316.5 169.5,-237.5 47.5,-237.5"/>
<text text-anchor="start" x="55.5" y="-304.5" font-family="Helvetica,sans-Serif" font-size="10.00">Cosmos::Protocols::</text>
<text text-anchor="middle" x="108.5" y="-293.5" font-family="Helvetica,sans-Serif" font-size="10.00">Ccsds::Spp::packet</text>
<polyline fill="none" stroke="black" points="47.5,-286.5 169.5,-286.5 "/>
<text text-anchor="start" x="55.5" y="-274.5" font-family="Helvetica,sans-Serif" font-size="10.00">+ primary_header_bytes</text>
<text text-anchor="start" x="55.5" y="-263.5" font-family="Helvetica,sans-Serif" font-size="10.00">+ @1</text>
<polyline fill="none" stroke="black" points="47.5,-256.5 169.5,-256.5 "/>
<text text-anchor="middle" x="108.5" y="-244.5" font-family="Helvetica,sans-Serif" font-size="10.00"> </text>
</a>
</g>
</g>
<!-- Node2&#45;&gt;Node1 -->
<g id="edge1" class="edge"><title>Node2&#45;&gt;Node1</title>
<path fill="none" stroke="#404040" d="M108.5,-237.385C108.5,-226.661 108.5,-214.472 108.5,-201.854"/>
<polygon fill="none" stroke="#404040" points="108.5,-201.659 104.5,-195.659 108.5,-189.659 112.5,-195.659 108.5,-201.659"/>
<text text-anchor="middle" x="125.5" y="-211" font-family="Helvetica,sans-Serif" font-size="10.00"> #frame</text>
</g>
<!-- Node3 -->
<g id="node3" class="node"><title>Node3</title>
<polygon fill="white" stroke="#bfbfbf" points="0,-425 0,-482 91,-482 91,-425 0,-425"/>
<text text-anchor="middle" x="45.5" y="-470" font-family="Helvetica,sans-Serif" font-size="10.00">vector&lt; uint8_t &gt;</text>
<polyline fill="none" stroke="#bfbfbf" points="0,-463 91,-463 "/>
<text text-anchor="middle" x="45.5" y="-451" font-family="Helvetica,sans-Serif" font-size="10.00"> </text>
<polyline fill="none" stroke="#bfbfbf" points="0,-444 91,-444 "/>
<text text-anchor="middle" x="45.5" y="-432" font-family="Helvetica,sans-Serif" font-size="10.00"> </text>
</g>
<!-- Node3&#45;&gt;Node2 -->
<g id="edge2" class="edge"><title>Node3&#45;&gt;Node2</title>
<path fill="none" stroke="#404040" d="M55.4825,-424.85C64.8352,-398.944 79.0357,-359.611 90.3869,-328.17"/>
<polygon fill="none" stroke="#404040" points="90.5067,-327.838 88.7819,-320.836 94.5818,-316.551 96.3066,-323.553 90.5067,-327.838"/>
<text text-anchor="middle" x="115.5" y="-338" font-family="Helvetica,sans-Serif" font-size="10.00"> +data_bytes</text>
</g>
<!-- Node4 -->
<g id="node4" class="node"><title>Node4</title>
<g id="a_node4"><a xlink:href="struct_cosmos_1_1_protocols_1_1_ccsds_1_1_spp_1_1primary__header.html" target="_top" xlink:title="{Cosmos::Protocols::\lCcsds::Spp::primary\l_header\n|+ apid_msb\l+ secondary_header_flag\l+ type\l+ version\l+ apid_lsb\l+ sequence_count_msb\l+ sequence_flags\l+ sequence_count_lsb\l+ data_length_msb\l+ data_length_lsb\l|}">
<polygon fill="white" stroke="black" points="109.5,-364.5 109.5,-542.5 235.5,-542.5 235.5,-364.5 109.5,-364.5"/>
<text text-anchor="start" x="117.5" y="-530.5" font-family="Helvetica,sans-Serif" font-size="10.00">Cosmos::Protocols::</text>
<text text-anchor="start" x="117.5" y="-519.5" font-family="Helvetica,sans-Serif" font-size="10.00">Ccsds::Spp::primary</text>
<text text-anchor="middle" x="172.5" y="-508.5" font-family="Helvetica,sans-Serif" font-size="10.00">_header</text>
<polyline fill="none" stroke="black" points="109.5,-501.5 235.5,-501.5 "/>
<text text-anchor="start" x="117.5" y="-489.5" font-family="Helvetica,sans-Serif" font-size="10.00">+ apid_msb</text>
<text text-anchor="start" x="117.5" y="-478.5" font-family="Helvetica,sans-Serif" font-size="10.00">+ secondary_header_flag</text>
<text text-anchor="start" x="117.5" y="-467.5" font-family="Helvetica,sans-Serif" font-size="10.00">+ type</text>
<text text-anchor="start" x="117.5" y="-456.5" font-family="Helvetica,sans-Serif" font-size="10.00">+ version</text>
<text text-anchor="start" x="117.5" y="-445.5" font-family="Helvetica,sans-Serif" font-size="10.00">+ apid_lsb</text>
<text text-anchor="start" x="117.5" y="-434.5" font-family="Helvetica,sans-Serif" font-size="10.00">+ sequence_count_msb</text>
<text text-anchor="start" x="117.5" y="-423.5" font-family="Helvetica,sans-Serif" font-size="10.00">+ sequence_flags</text>
<text text-anchor="start" x="117.5" y="-412.5" font-family="Helvetica,sans-Serif" font-size="10.00">+ sequence_count_lsb</text>
<text text-anchor="start" x="117.5" y="-401.5" font-family="Helvetica,sans-Serif" font-size="10.00">+ data_length_msb</text>
<text text-anchor="start" x="117.5" y="-390.5" font-family="Helvetica,sans-Serif" font-size="10.00">+ data_length_lsb</text>
<polyline fill="none" stroke="black" points="109.5,-383.5 235.5,-383.5 "/>
<text text-anchor="middle" x="172.5" y="-371.5" font-family="Helvetica,sans-Serif" font-size="10.00"> </text>
</a>
</g>
</g>
<!-- Node4&#45;&gt;Node2 -->
<g id="edge3" class="edge"><title>Node4&#45;&gt;Node2</title>
<path fill="none" stroke="#404040" d="M158.631,-364.333C155.837,-354.252 152.494,-344.274 148.5,-335 147.37,-332.377 146.108,-329.752 144.748,-327.149"/>
<polygon fill="none" stroke="#404040" points="144.677,-327.026 138.218,-323.821 138.692,-316.625 145.151,-319.83 144.677,-327.026"/>
<text text-anchor="middle" x="205" y="-338" font-family="Helvetica,sans-Serif" font-size="10.00"> +primary_header_fields</text>
</g>
</g>
</svg>
        <g id="navigator" transform="translate(0 0)" fill="#404254">
                <rect fill="#f2f5e9" fill-opacity="0.5" stroke="#606060" stroke-width=".5" x="0" y="0" width="60" height="60"/>
                <use id="zoomplus" xlink:href="#zoomPlus" x="17" y="9" onmousedown="handleZoom(evt,'in')"/>
                <use id="zoomminus" xlink:href="#zoomMin" x="42" y="9" onmousedown="handleZoom(evt,'out')"/>
                <use id="reset" xlink:href="#resetDef" x="30" y="36" onmousedown="handleReset()"/>
                <g id="arrowUp" xlink:href="#dirArrow" transform="translate(30 24)" onmousedown="handlePan(0,-1)">
                  <use xlink:href="#rim" fill="#404040">
                        <set attributeName="fill" to="#808080" begin="arrowUp.mouseover" end="arrowUp.mouseout"/>
                  </use>
                  <path fill="none" stroke="white" stroke-width="1.5" d="M0,-3.0v7 M-2.5,-0.5L0,-3.0L2.5,-0.5"/>
                </g>
                <g id="arrowRight" xlink:href="#dirArrow" transform="rotate(90) translate(36 -43)" onmousedown="handlePan(1,0)">
                  <use xlink:href="#rim" fill="#404040">
                        <set attributeName="fill" to="#808080" begin="arrowRight.mouseover" end="arrowRight.mouseout"/>
                  </use>
                  <path fill="none" stroke="white" stroke-width="1.5" d="M0,-3.0v7 M-2.5,-0.5L0,-3.0L2.5,-0.5"/>
                </g>
                <g id="arrowDown" xlink:href="#dirArrow" transform="rotate(180) translate(-30 -48)" onmousedown="handlePan(0,1)">
                  <use xlink:href="#rim" fill="#404040">
                        <set attributeName="fill" to="#808080" begin="arrowDown.mouseover" end="arrowDown.mouseout"/>
                  </use>
                  <path fill="none" stroke="white" stroke-width="1.5" d="M0,-3.0v7 M-2.5,-0.5L0,-3.0L2.5,-0.5"/>
                </g>
                <g id="arrowLeft" xlink:href="#dirArrow" transform="rotate(270) translate(-36 17)" onmousedown="handlePan(-1,0)">
                  <use xlink:href="#rim" fill="#404040">
                        <set attributeName="fill" to="#808080" begin="arrowLeft.mouseover" end="arrowLeft.mouseout"/>
                  </use>
                  <path fill="none" stroke="white" stroke-width="1.5" d="M0,-3.0v7 M-2.5,-0.5L0,-3.0L2.5,-0.5"/>
                </g>
        </g>
        <svg viewBox="0 0 15 15" width="100%" height="30px" preserveAspectRatio="xMaxYMin meet">
         <g id="arrow_out" transform="scale(0.3 0.3)">
          <a xlink:href="class_cosmos_1_1_protocols_1_1_ccsds_1_1_spp__coll__graph_org.svg" target="_base">
           <rect id="button" ry="5" rx="5" y="6" x="6" height="38" width="38"
                fill="#f2f5e9" fill-opacity="0.5" stroke="#606060" stroke-width="1.0"/>
           <path id="arrow"
             d="M 11.500037,31.436501 C 11.940474,20.09759 22.043105,11.32322 32.158766,21.979434 L 37.068811,17.246167 C 37.068811,17.246167 37.088388,32 37.088388,32 L 22.160133,31.978069 C 22.160133,31.978069 26.997745,27.140456 26.997745,27.140456 C 18.528582,18.264221 13.291696,25.230495 11.500037,31.436501 z"
             style="fill:#404040;"/>
          </a>
         </g>
        </svg>
</svg>
