<?xml version="1.0" encoding="UTF-8" standalone="no"?>
<!DOCTYPE svg PUBLIC "-//W3C//DTD SVG 1.1//EN"
 "http://www.w3.org/Graphics/SVG/1.1/DTD/svg11.dtd">
<!-- Generated by graphviz version 2.38.0 (20140413.2041)
 -->
<!-- Title: Cosmos::Serial Pages: 1 -->
<svg width="164pt" height="380pt"
 viewBox="0.00 0.00 164.00 380.00" xmlns="http://www.w3.org/2000/svg" xmlns:xlink="http://www.w3.org/1999/xlink">
<g id="graph0" class="graph" transform="scale(1 1) rotate(0) translate(4 376)">
<title>Cosmos::Serial</title>
<polygon fill="white" stroke="none" points="-4,4 -4,-376 160,-376 160,4 -4,4"/>
<!-- Node1 -->
<g id="node1" class="node"><title>Node1</title>
<polygon fill="#bfbfbf" stroke="black" points="34,-0.5 34,-266.5 148,-266.5 148,-0.5 34,-0.5"/>
<text text-anchor="middle" x="91" y="-254.5" font-family="Helvetica,sans-Serif" font-size="10.00">Cosmos::Serial</text>
<polyline fill="none" stroke="black" points="34,-247.5 148,-247.5 "/>
<text text-anchor="start" x="42" y="-235.5" font-family="Helvetica,sans-Serif" font-size="10.00">&#45; fd</text>
<text text-anchor="start" x="42" y="-224.5" font-family="Helvetica,sans-Serif" font-size="10.00">&#45; error</text>
<text text-anchor="start" x="42" y="-213.5" font-family="Helvetica,sans-Serif" font-size="10.00">&#45; ictimeout</text>
<text text-anchor="start" x="42" y="-202.5" font-family="Helvetica,sans-Serif" font-size="10.00">&#45; restoreonclose</text>
<text text-anchor="start" x="42" y="-191.5" font-family="Helvetica,sans-Serif" font-size="10.00">&#45; dcb</text>
<text text-anchor="start" x="42" y="-180.5" font-family="Helvetica,sans-Serif" font-size="10.00">&#45; handle</text>
<text text-anchor="start" x="42" y="-169.5" font-family="Helvetica,sans-Serif" font-size="10.00">&#45; baud</text>
<text text-anchor="start" x="42" y="-158.5" font-family="Helvetica,sans-Serif" font-size="10.00">&#45; bits</text>
<text text-anchor="start" x="42" y="-147.5" font-family="Helvetica,sans-Serif" font-size="10.00">&#45; parity</text>
<text text-anchor="start" x="42" y="-136.5" font-family="Helvetica,sans-Serif" font-size="10.00">&#45; stop</text>
<polyline fill="none" stroke="black" points="34,-129.5 148,-129.5 "/>
<text text-anchor="start" x="42" y="-117.5" font-family="Helvetica,sans-Serif" font-size="10.00">+ Serial()</text>
<text text-anchor="start" x="42" y="-106.5" font-family="Helvetica,sans-Serif" font-size="10.00">+ ~Serial()</text>
<text text-anchor="start" x="42" y="-95.5" font-family="Helvetica,sans-Serif" font-size="10.00">+ open_device()</text>
<text text-anchor="start" x="42" y="-84.5" font-family="Helvetica,sans-Serif" font-size="10.00">+ close_device()</text>
<text text-anchor="start" x="42" y="-73.5" font-family="Helvetica,sans-Serif" font-size="10.00">+ set_restoreonclose()</text>
<text text-anchor="start" x="42" y="-62.5" font-family="Helvetica,sans-Serif" font-size="10.00">+ set_params()</text>
<text text-anchor="start" x="42" y="-51.5" font-family="Helvetica,sans-Serif" font-size="10.00">+ set_flowcontrol()</text>
<text text-anchor="start" x="42" y="-40.5" font-family="Helvetica,sans-Serif" font-size="10.00">+ set_timeout()</text>
<text text-anchor="start" x="42" y="-29.5" font-family="Helvetica,sans-Serif" font-size="10.00">+ set_timeout()</text>
<text text-anchor="start" x="42" y="-18.5" font-family="Helvetica,sans-Serif" font-size="10.00">+ set_dtr()</text>
<text text-anchor="start" x="42" y="-7.5" font-family="Helvetica,sans-Serif" font-size="10.00">and 25 more...</text>
</g>
<!-- Node2 -->
<g id="node2" class="node"><title>Node2</title>
<polygon fill="white" stroke="#bfbfbf" points="0,-314.5 0,-371.5 96,-371.5 96,-314.5 0,-314.5"/>
<text text-anchor="middle" x="48" y="-359.5" font-family="Helvetica,sans-Serif" font-size="10.00">vector&lt; uint32_t &gt;</text>
<polyline fill="none" stroke="#bfbfbf" points="0,-352.5 96,-352.5 "/>
<text text-anchor="middle" x="48" y="-340.5" font-family="Helvetica,sans-Serif" font-size="10.00"> </text>
<polyline fill="none" stroke="#bfbfbf" points="0,-333.5 96,-333.5 "/>
<text text-anchor="middle" x="48" y="-321.5" font-family="Helvetica,sans-Serif" font-size="10.00"> </text>
</g>
<!-- Node2&#45;&gt;Node1 -->
<g id="edge1" class="edge"><title>Node2&#45;&gt;Node1</title>
<path fill="none" stroke="#404040" d="M50.1461,-314.352C51.075,-304.994 52.3388,-294.508 54,-285 54.3582,-282.95 54.7285,-280.887 55.1098,-278.812"/>
<polygon fill="none" stroke="#404040" points="55.1471,-278.618 52.349,-271.971 57.4077,-266.832 60.2058,-273.479 55.1471,-278.618"/>
<text text-anchor="middle" x="83.5" y="-288" font-family="Helvetica,sans-Serif" font-size="10.00"> &#45;baud_speed</text>
</g>
<!-- Node3 -->
<g id="node3" class="node"><title>Node3</title>
<polygon fill="white" stroke="#bfbfbf" points="114.5,-314.5 114.5,-371.5 155.5,-371.5 155.5,-314.5 114.5,-314.5"/>
<text text-anchor="middle" x="135" y="-359.5" font-family="Helvetica,sans-Serif" font-size="10.00">string</text>
<polyline fill="none" stroke="#bfbfbf" points="114.5,-352.5 155.5,-352.5 "/>
<text text-anchor="middle" x="135" y="-340.5" font-family="Helvetica,sans-Serif" font-size="10.00"> </text>
<polyline fill="none" stroke="#bfbfbf" points="114.5,-333.5 155.5,-333.5 "/>
<text text-anchor="middle" x="135" y="-321.5" font-family="Helvetica,sans-Serif" font-size="10.00"> </text>
</g>
<!-- Node3&#45;&gt;Node1 -->
<g id="edge2" class="edge"><title>Node3&#45;&gt;Node1</title>
<path fill="none" stroke="#404040" d="M129.157,-314.446C127.006,-304.299 124.395,-291.985 121.559,-278.612"/>
<polygon fill="none" stroke="#404040" points="121.504,-278.353 116.346,-273.314 119.015,-266.614 124.172,-271.654 121.504,-278.353"/>
<text text-anchor="middle" x="140.5" y="-288" font-family="Helvetica,sans-Serif" font-size="10.00"> &#45;name</text>
</g>
</g>
</svg>
