<?xml version="1.0" encoding="UTF-8" standalone="no"?>
<!DOCTYPE svg PUBLIC "-//W3C//DTD SVG 1.1//EN"
 "http://www.w3.org/Graphics/SVG/1.1/DTD/svg11.dtd">
<!-- Generated by graphviz version 2.38.0 (20140413.2041)
 -->
<!-- Title: imu_stream_plot.BoundControlBox Pages: 1 -->
<svg width="176pt" height="237pt"
 viewBox="0.00 0.00 176.00 237.00" xmlns="http://www.w3.org/2000/svg" xmlns:xlink="http://www.w3.org/1999/xlink">
<g id="graph0" class="graph" transform="scale(1 1) rotate(0) translate(4 233)">
<title>imu_stream_plot.BoundControlBox</title>
<polygon fill="white" stroke="none" points="-4,4 -4,-233 172,-233 172,4 -4,4"/>
<!-- Node1 -->
<g id="node1" class="node"><title>Node1</title>
<polygon fill="#bfbfbf" stroke="black" points="-1.42109e-14,-0.5 -1.42109e-14,-134.5 168,-134.5 168,-0.5 -1.42109e-14,-0.5"/>
<text text-anchor="middle" x="84" y="-122.5" font-family="Helvetica,sans-Serif" font-size="10.00">imu_stream_plot.BoundControlBox</text>
<polyline fill="none" stroke="black" points="-1.42109e-14,-115.5 168,-115.5 "/>
<text text-anchor="start" x="8" y="-103.5" font-family="Helvetica,sans-Serif" font-size="10.00">+ value</text>
<text text-anchor="start" x="8" y="-92.5" font-family="Helvetica,sans-Serif" font-size="10.00">+ radio_auto</text>
<text text-anchor="start" x="8" y="-81.5" font-family="Helvetica,sans-Serif" font-size="10.00">+ radio_manual</text>
<text text-anchor="start" x="8" y="-70.5" font-family="Helvetica,sans-Serif" font-size="10.00">+ manual_text</text>
<polyline fill="none" stroke="black" points="-1.42109e-14,-63.5 168,-63.5 "/>
<text text-anchor="start" x="8" y="-51.5" font-family="Helvetica,sans-Serif" font-size="10.00">+ __init__()</text>
<text text-anchor="start" x="8" y="-40.5" font-family="Helvetica,sans-Serif" font-size="10.00">+ on_update_manual_text()</text>
<text text-anchor="start" x="8" y="-29.5" font-family="Helvetica,sans-Serif" font-size="10.00">+ on_text_enter()</text>
<text text-anchor="start" x="8" y="-18.5" font-family="Helvetica,sans-Serif" font-size="10.00">+ is_auto()</text>
<text text-anchor="start" x="8" y="-7.5" font-family="Helvetica,sans-Serif" font-size="10.00">+ manual_value()</text>
</g>
<!-- Node2 -->
<g id="node2" class="node"><title>Node2</title>
<polygon fill="white" stroke="#bfbfbf" points="63.5,-171.5 63.5,-228.5 104.5,-228.5 104.5,-171.5 63.5,-171.5"/>
<text text-anchor="middle" x="84" y="-216.5" font-family="Helvetica,sans-Serif" font-size="10.00">Panel</text>
<polyline fill="none" stroke="#bfbfbf" points="63.5,-209.5 104.5,-209.5 "/>
<text text-anchor="middle" x="84" y="-197.5" font-family="Helvetica,sans-Serif" font-size="10.00"> </text>
<polyline fill="none" stroke="#bfbfbf" points="63.5,-190.5 104.5,-190.5 "/>
<text text-anchor="middle" x="84" y="-178.5" font-family="Helvetica,sans-Serif" font-size="10.00"> </text>
</g>
<!-- Node2&#45;&gt;Node1 -->
<g id="edge1" class="edge"><title>Node2&#45;&gt;Node1</title>
<path fill="none" stroke="midnightblue" d="M84,-161.16C84,-152.782 84,-143.668 84,-134.533"/>
<polygon fill="none" stroke="midnightblue" points="80.5001,-161.324 84,-171.324 87.5001,-161.324 80.5001,-161.324"/>
</g>
</g>
</svg>
