<?xml version="1.0" encoding="UTF-8" standalone="no"?>
<!DOCTYPE svg PUBLIC "-//W3C//DTD SVG 1.1//EN"
 "http://www.w3.org/Graphics/SVG/1.1/DTD/svg11.dtd">
<!-- Generated by graphviz version 2.38.0 (20140413.2041)
 -->
<!-- Title: json11::JsonInt Pages: 1 -->
<svg width="114pt" height="496pt"
 viewBox="0.00 0.00 114.00 496.00" xmlns="http://www.w3.org/2000/svg" xmlns:xlink="http://www.w3.org/1999/xlink">
<g id="graph0" class="graph" transform="scale(1 1) rotate(0) translate(4 492)">
<title>json11::JsonInt</title>
<polygon fill="white" stroke="none" points="-4,4 -4,-492 110,-492 110,4 -4,4"/>
<!-- Node1 -->
<g id="node1" class="node"><title>Node1</title>
<polygon fill="#bfbfbf" stroke="black" points="8.5,-0.5 8.5,-101.5 97.5,-101.5 97.5,-0.5 8.5,-0.5"/>
<text text-anchor="middle" x="53" y="-89.5" font-family="Helvetica,sans-Serif" font-size="10.00">json11::JsonInt</text>
<polyline fill="none" stroke="black" points="8.5,-82.5 97.5,-82.5 "/>
<text text-anchor="middle" x="53" y="-70.5" font-family="Helvetica,sans-Serif" font-size="10.00"> </text>
<polyline fill="none" stroke="black" points="8.5,-63.5 97.5,-63.5 "/>
<text text-anchor="start" x="16.5" y="-51.5" font-family="Helvetica,sans-Serif" font-size="10.00">+ JsonInt()</text>
<text text-anchor="start" x="16.5" y="-40.5" font-family="Helvetica,sans-Serif" font-size="10.00">&#45; number_value()</text>
<text text-anchor="start" x="16.5" y="-29.5" font-family="Helvetica,sans-Serif" font-size="10.00">&#45; int_value()</text>
<text text-anchor="start" x="16.5" y="-18.5" font-family="Helvetica,sans-Serif" font-size="10.00">&#45; equals()</text>
<text text-anchor="start" x="16.5" y="-7.5" font-family="Helvetica,sans-Serif" font-size="10.00">&#45; less()</text>
</g>
<!-- Node2 -->
<g id="node2" class="node"><title>Node2</title>
<g id="a_node2"><a xlink:href="classjson11_1_1_value.html" target="_top" xlink:title="{json11::Value\&lt; Json\l::NUMBER, int \&gt;\n|# m_value\l|# Value()\l# Value()\l# type()\l# equals()\l# less()\l# dump()\l}">
<polygon fill="white" stroke="black" points="-7.10543e-15,-138.5 -7.10543e-15,-261.5 106,-261.5 106,-138.5 -7.10543e-15,-138.5"/>
<text text-anchor="start" x="8" y="-249.5" font-family="Helvetica,sans-Serif" font-size="10.00">json11::Value&lt; Json</text>
<text text-anchor="middle" x="53" y="-238.5" font-family="Helvetica,sans-Serif" font-size="10.00">::NUMBER, int &gt;</text>
<polyline fill="none" stroke="black" points="-7.10543e-15,-231.5 106,-231.5 "/>
<text text-anchor="start" x="8" y="-219.5" font-family="Helvetica,sans-Serif" font-size="10.00"># m_value</text>
<polyline fill="none" stroke="black" points="-7.10543e-15,-212.5 106,-212.5 "/>
<text text-anchor="start" x="8" y="-200.5" font-family="Helvetica,sans-Serif" font-size="10.00"># Value()</text>
<text text-anchor="start" x="8" y="-189.5" font-family="Helvetica,sans-Serif" font-size="10.00"># Value()</text>
<text text-anchor="start" x="8" y="-178.5" font-family="Helvetica,sans-Serif" font-size="10.00"># type()</text>
<text text-anchor="start" x="8" y="-167.5" font-family="Helvetica,sans-Serif" font-size="10.00"># equals()</text>
<text text-anchor="start" x="8" y="-156.5" font-family="Helvetica,sans-Serif" font-size="10.00"># less()</text>
<text text-anchor="start" x="8" y="-145.5" font-family="Helvetica,sans-Serif" font-size="10.00"># dump()</text>
</a>
</g>
</g>
<!-- Node2&#45;&gt;Node1 -->
<g id="edge1" class="edge"><title>Node2&#45;&gt;Node1</title>
<path fill="none" stroke="midnightblue" d="M53,-128.289C53,-119.323 53,-110.301 53,-101.758"/>
<polygon fill="none" stroke="midnightblue" points="49.5001,-128.361 53,-138.361 56.5001,-128.361 49.5001,-128.361"/>
</g>
<!-- Node3 -->
<g id="node3" class="node"><title>Node3</title>
<g id="a_node3"><a xlink:href="classjson11_1_1_json_value.html" target="_top" xlink:title="{json11::JsonValue\n||# type()\l# equals()\l# less()\l# dump()\l# number_value()\l# int_value()\l# bool_value()\l# string_value()\l# array_items()\l# operator[]()\l# object_items()\l# operator[]()\l# ~JsonValue()\l}">
<polygon fill="white" stroke="black" points="4.5,-298.5 4.5,-487.5 101.5,-487.5 101.5,-298.5 4.5,-298.5"/>
<text text-anchor="middle" x="53" y="-475.5" font-family="Helvetica,sans-Serif" font-size="10.00">json11::JsonValue</text>
<polyline fill="none" stroke="black" points="4.5,-468.5 101.5,-468.5 "/>
<text text-anchor="middle" x="53" y="-456.5" font-family="Helvetica,sans-Serif" font-size="10.00"> </text>
<polyline fill="none" stroke="black" points="4.5,-449.5 101.5,-449.5 "/>
<text text-anchor="start" x="12.5" y="-437.5" font-family="Helvetica,sans-Serif" font-size="10.00"># type()</text>
<text text-anchor="start" x="12.5" y="-426.5" font-family="Helvetica,sans-Serif" font-size="10.00"># equals()</text>
<text text-anchor="start" x="12.5" y="-415.5" font-family="Helvetica,sans-Serif" font-size="10.00"># less()</text>
<text text-anchor="start" x="12.5" y="-404.5" font-family="Helvetica,sans-Serif" font-size="10.00"># dump()</text>
<text text-anchor="start" x="12.5" y="-393.5" font-family="Helvetica,sans-Serif" font-size="10.00"># number_value()</text>
<text text-anchor="start" x="12.5" y="-382.5" font-family="Helvetica,sans-Serif" font-size="10.00"># int_value()</text>
<text text-anchor="start" x="12.5" y="-371.5" font-family="Helvetica,sans-Serif" font-size="10.00"># bool_value()</text>
<text text-anchor="start" x="12.5" y="-360.5" font-family="Helvetica,sans-Serif" font-size="10.00"># string_value()</text>
<text text-anchor="start" x="12.5" y="-349.5" font-family="Helvetica,sans-Serif" font-size="10.00"># array_items()</text>
<text text-anchor="start" x="12.5" y="-338.5" font-family="Helvetica,sans-Serif" font-size="10.00"># operator[]()</text>
<text text-anchor="start" x="12.5" y="-327.5" font-family="Helvetica,sans-Serif" font-size="10.00"># object_items()</text>
<text text-anchor="start" x="12.5" y="-316.5" font-family="Helvetica,sans-Serif" font-size="10.00"># operator[]()</text>
<text text-anchor="start" x="12.5" y="-305.5" font-family="Helvetica,sans-Serif" font-size="10.00"># ~JsonValue()</text>
</a>
</g>
</g>
<!-- Node3&#45;&gt;Node2 -->
<g id="edge2" class="edge"><title>Node3&#45;&gt;Node2</title>
<path fill="none" stroke="midnightblue" d="M53,-288.231C53,-279.195 53,-270.258 53,-261.747"/>
<polygon fill="none" stroke="midnightblue" points="49.5001,-288.458 53,-298.458 56.5001,-288.458 49.5001,-288.458"/>
</g>
</g>
</svg>
