<?xml version="1.0" encoding="UTF-8" standalone="no"?>
<!DOCTYPE svg PUBLIC "-//W3C//DTD SVG 1.1//EN"
 "http://www.w3.org/Graphics/SVG/1.1/DTD/svg11.dtd">
<!-- Generated by graphviz version 2.38.0 (20140413.2041)
 -->
<!-- Title: Cosmos::Devices::General::UnixGpio Pages: 1 -->
<svg width="143pt" height="314pt"
 viewBox="0.00 0.00 143.00 314.00" xmlns="http://www.w3.org/2000/svg" xmlns:xlink="http://www.w3.org/1999/xlink">
<g id="graph0" class="graph" transform="scale(1 1) rotate(0) translate(4 310)">
<title>Cosmos::Devices::General::UnixGpio</title>
<polygon fill="white" stroke="none" points="-4,4 -4,-310 139,-310 139,4 -4,4"/>
<!-- Node1 -->
<g id="node1" class="node"><title>Node1</title>
<polygon fill="#bfbfbf" stroke="black" points="0,-0.5 0,-178.5 135,-178.5 135,-0.5 0,-0.5"/>
<text text-anchor="start" x="8" y="-166.5" font-family="Helvetica,sans-Serif" font-size="10.00">Cosmos::Devices::General</text>
<text text-anchor="middle" x="67.5" y="-155.5" font-family="Helvetica,sans-Serif" font-size="10.00">::UnixGpio</text>
<polyline fill="none" stroke="black" points="0,-148.5 135,-148.5 "/>
<text text-anchor="start" x="8" y="-136.5" font-family="Helvetica,sans-Serif" font-size="10.00">&#45; direction</text>
<text text-anchor="start" x="8" y="-125.5" font-family="Helvetica,sans-Serif" font-size="10.00">&#45; error</text>
<text text-anchor="start" x="8" y="-114.5" font-family="Helvetica,sans-Serif" font-size="10.00">&#45; open</text>
<polyline fill="none" stroke="black" points="0,-107.5 135,-107.5 "/>
<text text-anchor="start" x="8" y="-95.5" font-family="Helvetica,sans-Serif" font-size="10.00">+ UnixGpio()</text>
<text text-anchor="start" x="8" y="-84.5" font-family="Helvetica,sans-Serif" font-size="10.00">+ setDirection()</text>
<text text-anchor="start" x="8" y="-73.5" font-family="Helvetica,sans-Serif" font-size="10.00">+ write()</text>
<text text-anchor="start" x="8" y="-62.5" font-family="Helvetica,sans-Serif" font-size="10.00">+ read()</text>
<text text-anchor="start" x="8" y="-51.5" font-family="Helvetica,sans-Serif" font-size="10.00">+ write()</text>
<text text-anchor="start" x="8" y="-40.5" font-family="Helvetica,sans-Serif" font-size="10.00">+ read()</text>
<text text-anchor="start" x="8" y="-29.5" font-family="Helvetica,sans-Serif" font-size="10.00">+ geterror()</text>
<text text-anchor="start" x="8" y="-18.5" font-family="Helvetica,sans-Serif" font-size="10.00">+ isopen()</text>
<text text-anchor="start" x="8" y="-7.5" font-family="Helvetica,sans-Serif" font-size="10.00">+ getpath()</text>
</g>
<!-- Node2 -->
<g id="node2" class="node"><title>Node2</title>
<polygon fill="white" stroke="#bfbfbf" points="14,-248.5 14,-305.5 55,-305.5 55,-248.5 14,-248.5"/>
<text text-anchor="middle" x="34.5" y="-293.5" font-family="Helvetica,sans-Serif" font-size="10.00">string</text>
<polyline fill="none" stroke="#bfbfbf" points="14,-286.5 55,-286.5 "/>
<text text-anchor="middle" x="34.5" y="-274.5" font-family="Helvetica,sans-Serif" font-size="10.00"> </text>
<polyline fill="none" stroke="#bfbfbf" points="14,-267.5 55,-267.5 "/>
<text text-anchor="middle" x="34.5" y="-255.5" font-family="Helvetica,sans-Serif" font-size="10.00"> </text>
</g>
<!-- Node2&#45;&gt;Node1 -->
<g id="edge1" class="edge"><title>Node2&#45;&gt;Node1</title>
<path fill="none" stroke="#404040" d="M34.4455,-248.428C34.7782,-233.184 35.7953,-213.952 38.5,-197 38.8472,-194.824 39.2218,-192.628 39.6205,-190.419"/>
<polygon fill="none" stroke="#404040" points="39.6461,-190.289 36.8811,-183.629 41.9653,-178.515 44.7303,-185.175 39.6461,-190.289"/>
<text text-anchor="middle" x="58.5" y="-222" font-family="Helvetica,sans-Serif" font-size="10.00"> &#45;path</text>
<text text-anchor="middle" x="58.5" y="-211" font-family="Helvetica,sans-Serif" font-size="10.00">&#45;pin</text>
<text text-anchor="middle" x="58.5" y="-200" font-family="Helvetica,sans-Serif" font-size="10.00">&#45;pinname</text>
</g>
<!-- Node3 -->
<g id="node3" class="node"><title>Node3</title>
<polygon fill="white" stroke="#bfbfbf" points="73,-248.5 73,-305.5 128,-305.5 128,-248.5 73,-248.5"/>
<text text-anchor="middle" x="100.5" y="-293.5" font-family="Helvetica,sans-Serif" font-size="10.00">ofstream</text>
<polyline fill="none" stroke="#bfbfbf" points="73,-286.5 128,-286.5 "/>
<text text-anchor="middle" x="100.5" y="-274.5" font-family="Helvetica,sans-Serif" font-size="10.00"> </text>
<polyline fill="none" stroke="#bfbfbf" points="73,-267.5 128,-267.5 "/>
<text text-anchor="middle" x="100.5" y="-255.5" font-family="Helvetica,sans-Serif" font-size="10.00"> </text>
</g>
<!-- Node3&#45;&gt;Node1 -->
<g id="edge2" class="edge"><title>Node3&#45;&gt;Node1</title>
<path fill="none" stroke="#404040" d="M95.5596,-248.229C92.7811,-232.61 89.1237,-212.051 85.3711,-190.957"/>
<polygon fill="none" stroke="#404040" points="85.3211,-190.676 80.332,-185.469 83.2193,-178.861 88.2084,-184.068 85.3211,-190.676"/>
<text text-anchor="middle" x="110" y="-211" font-family="Helvetica,sans-Serif" font-size="10.00"> &#45;stream</text>
</g>
</g>
</svg>
