<?xml version="1.0" encoding="UTF-8" standalone="no"?>
<!DOCTYPE svg PUBLIC "-//W3C//DTD SVG 1.1//EN"
 "http://www.w3.org/Graphics/SVG/1.1/DTD/svg11.dtd">
<!-- Generated by graphviz version 2.38.0 (20140413.2041)
 -->
<!-- Title: Cosmos::Physics::LVLHAttitudePropagator Pages: 1 -->
<svg width="167pt" height="270pt"
 viewBox="0.00 0.00 167.00 270.00" xmlns="http://www.w3.org/2000/svg" xmlns:xlink="http://www.w3.org/1999/xlink">
<g id="graph0" class="graph" transform="scale(1 1) rotate(0) translate(4 266)">
<title>Cosmos::Physics::LVLHAttitudePropagator</title>
<polygon fill="white" stroke="none" points="-4,4 -4,-266 163,-266 163,4 -4,4"/>
<!-- Node1 -->
<g id="node1" class="node"><title>Node1</title>
<polygon fill="#bfbfbf" stroke="black" points="-1.42109e-14,-0.5 -1.42109e-14,-90.5 159,-90.5 159,-0.5 -1.42109e-14,-0.5"/>
<text text-anchor="start" x="8" y="-78.5" font-family="Helvetica,sans-Serif" font-size="10.00">Cosmos::Physics::LVLHAttitude</text>
<text text-anchor="middle" x="79.5" y="-67.5" font-family="Helvetica,sans-Serif" font-size="10.00">Propagator</text>
<polyline fill="none" stroke="black" points="-1.42109e-14,-60.5 159,-60.5 "/>
<text text-anchor="middle" x="79.5" y="-48.5" font-family="Helvetica,sans-Serif" font-size="10.00"> </text>
<polyline fill="none" stroke="black" points="-1.42109e-14,-41.5 159,-41.5 "/>
<text text-anchor="start" x="8" y="-29.5" font-family="Helvetica,sans-Serif" font-size="10.00">+ LVLHAttitudePropagator()</text>
<text text-anchor="start" x="8" y="-18.5" font-family="Helvetica,sans-Serif" font-size="10.00">+ Init()</text>
<text text-anchor="start" x="8" y="-7.5" font-family="Helvetica,sans-Serif" font-size="10.00">+ Propagate()</text>
</g>
<!-- Node2 -->
<g id="node2" class="node"><title>Node2</title>
<g id="a_node2"><a xlink:href="class_cosmos_1_1_physics_1_1_propagator.html" target="_top" xlink:title="{Cosmos::Physics::Propagator\n|+ dt\l+ dtj\l+ oldloc\l+ newloc\l+ oldphys\l+ newphys\l+ type\l|+ Propagator()\l+ Increment()\l}">
<polygon fill="white" stroke="black" points="5.5,-127.5 5.5,-261.5 153.5,-261.5 153.5,-127.5 5.5,-127.5"/>
<text text-anchor="middle" x="79.5" y="-249.5" font-family="Helvetica,sans-Serif" font-size="10.00">Cosmos::Physics::Propagator</text>
<polyline fill="none" stroke="black" points="5.5,-242.5 153.5,-242.5 "/>
<text text-anchor="start" x="13.5" y="-230.5" font-family="Helvetica,sans-Serif" font-size="10.00">+ dt</text>
<text text-anchor="start" x="13.5" y="-219.5" font-family="Helvetica,sans-Serif" font-size="10.00">+ dtj</text>
<text text-anchor="start" x="13.5" y="-208.5" font-family="Helvetica,sans-Serif" font-size="10.00">+ oldloc</text>
<text text-anchor="start" x="13.5" y="-197.5" font-family="Helvetica,sans-Serif" font-size="10.00">+ newloc</text>
<text text-anchor="start" x="13.5" y="-186.5" font-family="Helvetica,sans-Serif" font-size="10.00">+ oldphys</text>
<text text-anchor="start" x="13.5" y="-175.5" font-family="Helvetica,sans-Serif" font-size="10.00">+ newphys</text>
<text text-anchor="start" x="13.5" y="-164.5" font-family="Helvetica,sans-Serif" font-size="10.00">+ type</text>
<polyline fill="none" stroke="black" points="5.5,-157.5 153.5,-157.5 "/>
<text text-anchor="start" x="13.5" y="-145.5" font-family="Helvetica,sans-Serif" font-size="10.00">+ Propagator()</text>
<text text-anchor="start" x="13.5" y="-134.5" font-family="Helvetica,sans-Serif" font-size="10.00">+ Increment()</text>
</a>
</g>
</g>
<!-- Node2&#45;&gt;Node1 -->
<g id="edge1" class="edge"><title>Node2&#45;&gt;Node1</title>
<path fill="none" stroke="midnightblue" d="M79.5,-117.15C79.5,-108.147 79.5,-99.2002 79.5,-90.8525"/>
<polygon fill="none" stroke="midnightblue" points="76.0001,-117.31 79.5,-127.311 83.0001,-117.311 76.0001,-117.31"/>
</g>
</g>
</svg>
