<?xml version="1.0" encoding="UTF-8" standalone="no"?>
<!DOCTYPE svg PUBLIC "-//W3C//DTD SVG 1.1//EN"
 "http://www.w3.org/Graphics/SVG/1.1/DTD/svg11.dtd">
<!-- Generated by graphviz version 2.38.0 (20140413.2041)
 -->
<!-- Title: PrintUtils Pages: 1 -->
<svg width="118pt" height="369pt"
 viewBox="0.00 0.00 117.50 369.00" xmlns="http://www.w3.org/2000/svg" xmlns:xlink="http://www.w3.org/1999/xlink">
<g id="graph0" class="graph" transform="scale(1 1) rotate(0) translate(4 365)">
<title>PrintUtils</title>
<polygon fill="white" stroke="none" points="-4,4 -4,-365 113.5,-365 113.5,4 -4,4"/>
<!-- Node1 -->
<g id="node1" class="node"><title>Node1</title>
<polygon fill="#bfbfbf" stroke="black" points="0,-0.5 0,-222.5 95,-222.5 95,-0.5 0,-0.5"/>
<text text-anchor="middle" x="47.5" y="-210.5" font-family="Helvetica,sans-Serif" font-size="10.00">PrintUtils</text>
<polyline fill="none" stroke="black" points="0,-203.5 95,-203.5 "/>
<text text-anchor="start" x="8" y="-191.5" font-family="Helvetica,sans-Serif" font-size="10.00">+ printOn</text>
<text text-anchor="start" x="8" y="-180.5" font-family="Helvetica,sans-Serif" font-size="10.00">+ precision</text>
<text text-anchor="start" x="8" y="-169.5" font-family="Helvetica,sans-Serif" font-size="10.00">+ fieldwidth</text>
<text text-anchor="start" x="8" y="-158.5" font-family="Helvetica,sans-Serif" font-size="10.00">+ scale</text>
<text text-anchor="start" x="8" y="-147.5" font-family="Helvetica,sans-Serif" font-size="10.00">+ delimiter_flag</text>
<text text-anchor="start" x="8" y="-136.5" font-family="Helvetica,sans-Serif" font-size="10.00">+ use_brackets</text>
<polyline fill="none" stroke="black" points="0,-129.5 95,-129.5 "/>
<text text-anchor="start" x="8" y="-117.5" font-family="Helvetica,sans-Serif" font-size="10.00">+ PrintUtils()</text>
<text text-anchor="start" x="8" y="-106.5" font-family="Helvetica,sans-Serif" font-size="10.00">+ vector()</text>
<text text-anchor="start" x="8" y="-95.5" font-family="Helvetica,sans-Serif" font-size="10.00">+ vector()</text>
<text text-anchor="start" x="8" y="-84.5" font-family="Helvetica,sans-Serif" font-size="10.00">+ vector()</text>
<text text-anchor="start" x="8" y="-73.5" font-family="Helvetica,sans-Serif" font-size="10.00">+ vector()</text>
<text text-anchor="start" x="8" y="-62.5" font-family="Helvetica,sans-Serif" font-size="10.00">+ vector()</text>
<text text-anchor="start" x="8" y="-51.5" font-family="Helvetica,sans-Serif" font-size="10.00">+ vectorAndMag()</text>
<text text-anchor="start" x="8" y="-40.5" font-family="Helvetica,sans-Serif" font-size="10.00">+ vectorAndMag()</text>
<text text-anchor="start" x="8" y="-29.5" font-family="Helvetica,sans-Serif" font-size="10.00">+ vector_endl()</text>
<text text-anchor="start" x="8" y="-18.5" font-family="Helvetica,sans-Serif" font-size="10.00">+ vector2()</text>
<text text-anchor="start" x="8" y="-7.5" font-family="Helvetica,sans-Serif" font-size="10.00">and 16 more...</text>
</g>
<!-- Node2 -->
<g id="node2" class="node"><title>Node2</title>
<polygon fill="white" stroke="#bfbfbf" points="27,-303.5 27,-360.5 68,-360.5 68,-303.5 27,-303.5"/>
<text text-anchor="middle" x="47.5" y="-348.5" font-family="Helvetica,sans-Serif" font-size="10.00">string</text>
<polyline fill="none" stroke="#bfbfbf" points="27,-341.5 68,-341.5 "/>
<text text-anchor="middle" x="47.5" y="-329.5" font-family="Helvetica,sans-Serif" font-size="10.00"> </text>
<polyline fill="none" stroke="#bfbfbf" points="27,-322.5 68,-322.5 "/>
<text text-anchor="middle" x="47.5" y="-310.5" font-family="Helvetica,sans-Serif" font-size="10.00"> </text>
</g>
<!-- Node2&#45;&gt;Node1 -->
<g id="edge1" class="edge"><title>Node2&#45;&gt;Node1</title>
<path fill="none" stroke="#404040" d="M47.5,-303.327C47.5,-285.383 47.5,-260.619 47.5,-234.868"/>
<polygon fill="none" stroke="#404040" points="47.5001,-234.583 43.5,-228.583 47.5,-222.583 51.5,-228.583 47.5001,-234.583"/>
<text text-anchor="middle" x="78.5" y="-277" font-family="Helvetica,sans-Serif" font-size="10.00"> +fullMessage</text>
<text text-anchor="middle" x="78.5" y="-266" font-family="Helvetica,sans-Serif" font-size="10.00">+delimiter</text>
<text text-anchor="middle" x="78.5" y="-255" font-family="Helvetica,sans-Serif" font-size="10.00">+suffix</text>
<text text-anchor="middle" x="78.5" y="-244" font-family="Helvetica,sans-Serif" font-size="10.00">+prefix</text>
</g>
</g>
</svg>
