<?xml version="1.0" encoding="UTF-8" standalone="no"?>
<!DOCTYPE svg PUBLIC "-//W3C//DTD SVG 1.1//EN"
 "http://www.w3.org/Graphics/SVG/1.1/DTD/svg11.dtd">
<!-- Generated by graphviz version 2.38.0 (20140413.2041)
 -->
<!-- Title: KissHandle Pages: 1 -->
<svg width="151pt" height="314pt"
 viewBox="0.00 0.00 151.00 314.00" xmlns="http://www.w3.org/2000/svg" xmlns:xlink="http://www.w3.org/1999/xlink">
<g id="graph0" class="graph" transform="scale(1 1) rotate(0) translate(4 310)">
<title>KissHandle</title>
<polygon fill="white" stroke="none" points="-4,4 -4,-310 147,-310 147,4 -4,4"/>
<!-- Node1 -->
<g id="node1" class="node"><title>Node1</title>
<polygon fill="#bfbfbf" stroke="black" points="0,-0.5 0,-178.5 143,-178.5 143,-0.5 0,-0.5"/>
<text text-anchor="middle" x="71.5" y="-166.5" font-family="Helvetica,sans-Serif" font-size="10.00">KissHandle</text>
<polyline fill="none" stroke="black" points="0,-159.5 143,-159.5 "/>
<text text-anchor="start" x="8" y="-147.5" font-family="Helvetica,sans-Serif" font-size="10.00">&#45; header</text>
<text text-anchor="start" x="8" y="-136.5" font-family="Helvetica,sans-Serif" font-size="10.00">&#45; error</text>
<polyline fill="none" stroke="black" points="0,-129.5 143,-129.5 "/>
<text text-anchor="start" x="8" y="-117.5" font-family="Helvetica,sans-Serif" font-size="10.00">+ KissHandle()</text>
<text text-anchor="start" x="8" y="-106.5" font-family="Helvetica,sans-Serif" font-size="10.00">+ set_port_number()</text>
<text text-anchor="start" x="8" y="-95.5" font-family="Helvetica,sans-Serif" font-size="10.00">+ get_port_number()</text>
<text text-anchor="start" x="8" y="-84.5" font-family="Helvetica,sans-Serif" font-size="10.00">+ set_command()</text>
<text text-anchor="start" x="8" y="-73.5" font-family="Helvetica,sans-Serif" font-size="10.00">+ get_command()</text>
<text text-anchor="start" x="8" y="-62.5" font-family="Helvetica,sans-Serif" font-size="10.00">+ set_destination_callsign()</text>
<text text-anchor="start" x="8" y="-51.5" font-family="Helvetica,sans-Serif" font-size="10.00">+ get_destination_callsign()</text>
<text text-anchor="start" x="8" y="-40.5" font-family="Helvetica,sans-Serif" font-size="10.00">+ set_destination_stationID()</text>
<text text-anchor="start" x="8" y="-29.5" font-family="Helvetica,sans-Serif" font-size="10.00">+ get_destination_stationID()</text>
<text text-anchor="start" x="8" y="-18.5" font-family="Helvetica,sans-Serif" font-size="10.00">+ set_source_callsign()</text>
<text text-anchor="start" x="8" y="-7.5" font-family="Helvetica,sans-Serif" font-size="10.00">and 17 more...</text>
</g>
<!-- Node2 -->
<g id="node2" class="node"><title>Node2</title>
<polygon fill="white" stroke="#bfbfbf" points="26,-248.5 26,-305.5 117,-305.5 117,-248.5 26,-248.5"/>
<text text-anchor="middle" x="71.5" y="-293.5" font-family="Helvetica,sans-Serif" font-size="10.00">vector&lt; uint8_t &gt;</text>
<polyline fill="none" stroke="#bfbfbf" points="26,-286.5 117,-286.5 "/>
<text text-anchor="middle" x="71.5" y="-274.5" font-family="Helvetica,sans-Serif" font-size="10.00"> </text>
<polyline fill="none" stroke="#bfbfbf" points="26,-267.5 117,-267.5 "/>
<text text-anchor="middle" x="71.5" y="-255.5" font-family="Helvetica,sans-Serif" font-size="10.00"> </text>
</g>
<!-- Node2&#45;&gt;Node1 -->
<g id="edge1" class="edge"><title>Node2&#45;&gt;Node1</title>
<path fill="none" stroke="#404040" d="M71.5,-248.229C71.5,-232.61 71.5,-212.051 71.5,-190.957"/>
<polygon fill="none" stroke="#404040" points="71.5001,-190.861 67.5,-184.861 71.5,-178.861 75.5,-184.861 71.5001,-190.861"/>
<text text-anchor="middle" x="99.5" y="-222" font-family="Helvetica,sans-Serif" font-size="10.00"> &#45;slip_packet</text>
<text text-anchor="middle" x="99.5" y="-211" font-family="Helvetica,sans-Serif" font-size="10.00">&#45;data</text>
<text text-anchor="middle" x="99.5" y="-200" font-family="Helvetica,sans-Serif" font-size="10.00">&#45;raw_packet</text>
</g>
</g>
</svg>
