<?xml version="1.0" encoding="UTF-8" standalone="no"?>
<!DOCTYPE svg PUBLIC "-//W3C//DTD SVG 1.1//EN"
 "http://www.w3.org/Graphics/SVG/1.1/DTD/svg11.dtd">
<!-- Generated by graphviz version 2.38.0 (20140413.2041)
 -->
<!-- Title: json11::JsonNull Pages: 1 -->
<!--zoomable 464 -->
<svg id="main" version="1.1" xmlns="http://www.w3.org/2000/svg" xmlns:xlink="http://www.w3.org/1999/xlink" xml:space="preserve" onload="init(evt)">
<style type="text/css"><![CDATA[
.edge:hover path { stroke: red; }
.edge:hover polygon { stroke: red; fill: red; }
]]></style>
<script type="text/javascript"><![CDATA[
var edges = document.getElementsByTagName('g');
if (edges && edges.length) {
  for (var i=0;i<edges.length;i++) {
    if (edges[i].id.substr(0,4)=='edge') {
      edges[i].setAttribute('class','edge');
    }
  }
}
]]></script>
        <defs>
                <circle id="rim" cx="0" cy="0" r="7"/>
                <circle id="rim2" cx="0" cy="0" r="3.5"/>
                <g id="zoomPlus">
                        <use xlink:href="#rim" fill="#404040">
                                <set attributeName="fill" to="#808080" begin="zoomplus.mouseover" end="zoomplus.mouseout"/>
                        </use>
                        <path d="M-4,0h8M0,-4v8" fill="none" stroke="white" stroke-width="1.5" pointer-events="none"/>
                </g>
                <g id="zoomMin">
                        <use xlink:href="#rim" fill="#404040">
                                <set attributeName="fill" to="#808080" begin="zoomminus.mouseover" end="zoomminus.mouseout"/>
                        </use>
                        <path d="M-4,0h8" fill="none" stroke="white" stroke-width="1.5" pointer-events="none"/>
                </g>
                <g id="dirArrow">
                        <path fill="none" stroke="white" stroke-width="1.5" d="M0,-3.0v7 M-2.5,-0.5L0,-3.0L2.5,-0.5"/>
                </g>
               <g id="resetDef">
                       <use xlink:href="#rim2" fill="#404040">
                               <set attributeName="fill" to="#808080" begin="reset.mouseover" end="reset.mouseout"/>
                       </use>
               </g>
        </defs>

<script type="text/javascript">
var viewWidth = 218;
var viewHeight = 464;
var sectionId = 'dynsection-1';
</script>
<script xlink:href="svgpan.js"/>
<svg id="graph" class="graph">
<g id="viewport">
<title>json11::JsonNull</title>
<polygon fill="white" stroke="none" points="-4,4 -4,-460 214,-460 214,4 -4,4"/>
<!-- Node1 -->
<g id="node1" class="node"><title>Node1</title>
<polygon fill="#bfbfbf" stroke="black" points="61,-0.5 61,-57.5 150,-57.5 150,-0.5 61,-0.5"/>
<text text-anchor="middle" x="105.5" y="-45.5" font-family="Helvetica,sans-Serif" font-size="10.00">json11::JsonNull</text>
<polyline fill="none" stroke="black" points="61,-38.5 150,-38.5 "/>
<text text-anchor="middle" x="105.5" y="-26.5" font-family="Helvetica,sans-Serif" font-size="10.00"> </text>
<polyline fill="none" stroke="black" points="61,-19.5 150,-19.5 "/>
<text text-anchor="start" x="69" y="-7.5" font-family="Helvetica,sans-Serif" font-size="10.00">+ JsonNull()</text>
</g>
<!-- Node2 -->
<g id="node2" class="node"><title>Node2</title>
<g id="a_node2"><a xlink:href="classjson11_1_1_value.html" target="_top" xlink:title="{json11::Value\&lt; Json\l::NUL, NullStruct \&gt;\n||# Value()\l# Value()\l# type()\l# equals()\l# less()\l# dump()\l}">
<polygon fill="white" stroke="black" points="52.5,-95.5 52.5,-218.5 158.5,-218.5 158.5,-95.5 52.5,-95.5"/>
<text text-anchor="start" x="60.5" y="-206.5" font-family="Helvetica,sans-Serif" font-size="10.00">json11::Value&lt; Json</text>
<text text-anchor="middle" x="105.5" y="-195.5" font-family="Helvetica,sans-Serif" font-size="10.00">::NUL, NullStruct &gt;</text>
<polyline fill="none" stroke="black" points="52.5,-188.5 158.5,-188.5 "/>
<text text-anchor="middle" x="105.5" y="-176.5" font-family="Helvetica,sans-Serif" font-size="10.00"> </text>
<polyline fill="none" stroke="black" points="52.5,-169.5 158.5,-169.5 "/>
<text text-anchor="start" x="60.5" y="-157.5" font-family="Helvetica,sans-Serif" font-size="10.00"># Value()</text>
<text text-anchor="start" x="60.5" y="-146.5" font-family="Helvetica,sans-Serif" font-size="10.00"># Value()</text>
<text text-anchor="start" x="60.5" y="-135.5" font-family="Helvetica,sans-Serif" font-size="10.00"># type()</text>
<text text-anchor="start" x="60.5" y="-124.5" font-family="Helvetica,sans-Serif" font-size="10.00"># equals()</text>
<text text-anchor="start" x="60.5" y="-113.5" font-family="Helvetica,sans-Serif" font-size="10.00"># less()</text>
<text text-anchor="start" x="60.5" y="-102.5" font-family="Helvetica,sans-Serif" font-size="10.00"># dump()</text>
</a>
</g>
</g>
<!-- Node2&#45;&gt;Node1 -->
<g id="edge1" class="edge"><title>Node2&#45;&gt;Node1</title>
<path fill="none" stroke="midnightblue" d="M105.5,-85.0071C105.5,-75.2639 105.5,-65.7799 105.5,-57.5077"/>
<polygon fill="none" stroke="midnightblue" points="102,-85.2144 105.5,-95.2144 109,-85.2145 102,-85.2144"/>
</g>
<!-- Node3 -->
<g id="node3" class="node"><title>Node3</title>
<g id="a_node3"><a xlink:href="classjson11_1_1_json_value.html" target="_top" xlink:title="{json11::JsonValue\n||# type()\l# equals()\l# less()\l# dump()\l# number_value()\l# int_value()\l# bool_value()\l# string_value()\l# array_items()\l# operator[]()\l# object_items()\l# operator[]()\l# ~JsonValue()\l}">
<polygon fill="white" stroke="black" points="0,-266.5 0,-455.5 97,-455.5 97,-266.5 0,-266.5"/>
<text text-anchor="middle" x="48.5" y="-443.5" font-family="Helvetica,sans-Serif" font-size="10.00">json11::JsonValue</text>
<polyline fill="none" stroke="black" points="0,-436.5 97,-436.5 "/>
<text text-anchor="middle" x="48.5" y="-424.5" font-family="Helvetica,sans-Serif" font-size="10.00"> </text>
<polyline fill="none" stroke="black" points="0,-417.5 97,-417.5 "/>
<text text-anchor="start" x="8" y="-405.5" font-family="Helvetica,sans-Serif" font-size="10.00"># type()</text>
<text text-anchor="start" x="8" y="-394.5" font-family="Helvetica,sans-Serif" font-size="10.00"># equals()</text>
<text text-anchor="start" x="8" y="-383.5" font-family="Helvetica,sans-Serif" font-size="10.00"># less()</text>
<text text-anchor="start" x="8" y="-372.5" font-family="Helvetica,sans-Serif" font-size="10.00"># dump()</text>
<text text-anchor="start" x="8" y="-361.5" font-family="Helvetica,sans-Serif" font-size="10.00"># number_value()</text>
<text text-anchor="start" x="8" y="-350.5" font-family="Helvetica,sans-Serif" font-size="10.00"># int_value()</text>
<text text-anchor="start" x="8" y="-339.5" font-family="Helvetica,sans-Serif" font-size="10.00"># bool_value()</text>
<text text-anchor="start" x="8" y="-328.5" font-family="Helvetica,sans-Serif" font-size="10.00"># string_value()</text>
<text text-anchor="start" x="8" y="-317.5" font-family="Helvetica,sans-Serif" font-size="10.00"># array_items()</text>
<text text-anchor="start" x="8" y="-306.5" font-family="Helvetica,sans-Serif" font-size="10.00"># operator[]()</text>
<text text-anchor="start" x="8" y="-295.5" font-family="Helvetica,sans-Serif" font-size="10.00"># object_items()</text>
<text text-anchor="start" x="8" y="-284.5" font-family="Helvetica,sans-Serif" font-size="10.00"># operator[]()</text>
<text text-anchor="start" x="8" y="-273.5" font-family="Helvetica,sans-Serif" font-size="10.00"># ~JsonValue()</text>
</a>
</g>
</g>
<!-- Node3&#45;&gt;Node2 -->
<g id="edge2" class="edge"><title>Node3&#45;&gt;Node2</title>
<path fill="none" stroke="midnightblue" d="M77.7053,-256.501C81.3564,-243.562 84.992,-230.677 88.3723,-218.698"/>
<polygon fill="none" stroke="midnightblue" points="74.2616,-255.817 74.9143,-266.392 80.9985,-257.718 74.2616,-255.817"/>
</g>
<!-- Node4 -->
<g id="node4" class="node"><title>Node4</title>
<g id="a_node4"><a xlink:href="structjson11_1_1_null_struct.html" target="_top" xlink:title="{json11::NullStruct\n||+ operator==()\l+ operator\&lt;()\l}">
<polygon fill="white" stroke="black" points="115,-327 115,-395 210,-395 210,-327 115,-327"/>
<text text-anchor="middle" x="162.5" y="-383" font-family="Helvetica,sans-Serif" font-size="10.00">json11::NullStruct</text>
<polyline fill="none" stroke="black" points="115,-376 210,-376 "/>
<text text-anchor="middle" x="162.5" y="-364" font-family="Helvetica,sans-Serif" font-size="10.00"> </text>
<polyline fill="none" stroke="black" points="115,-357 210,-357 "/>
<text text-anchor="start" x="123" y="-345" font-family="Helvetica,sans-Serif" font-size="10.00">+ operator==()</text>
<text text-anchor="start" x="123" y="-334" font-family="Helvetica,sans-Serif" font-size="10.00">+ operator&lt;()</text>
</a>
</g>
</g>
<!-- Node4&#45;&gt;Node2 -->
<g id="edge3" class="edge"><title>Node4&#45;&gt;Node2</title>
<path fill="none" stroke="#404040" d="M153.088,-326.644C145.737,-300.596 135.252,-263.438 125.994,-230.628"/>
<polygon fill="none" stroke="#404040" points="125.906,-230.314 120.426,-225.626 122.647,-218.765 128.126,-223.453 125.906,-230.314"/>
<text text-anchor="middle" x="153.5" y="-240" font-family="Helvetica,sans-Serif" font-size="10.00"> #m_value</text>
</g>
</g>
</svg>
        <g id="navigator" transform="translate(0 0)" fill="#404254">
                <rect fill="#f2f5e9" fill-opacity="0.5" stroke="#606060" stroke-width=".5" x="0" y="0" width="60" height="60"/>
                <use id="zoomplus" xlink:href="#zoomPlus" x="17" y="9" onmousedown="handleZoom(evt,'in')"/>
                <use id="zoomminus" xlink:href="#zoomMin" x="42" y="9" onmousedown="handleZoom(evt,'out')"/>
                <use id="reset" xlink:href="#resetDef" x="30" y="36" onmousedown="handleReset()"/>
                <g id="arrowUp" xlink:href="#dirArrow" transform="translate(30 24)" onmousedown="handlePan(0,-1)">
                  <use xlink:href="#rim" fill="#404040">
                        <set attributeName="fill" to="#808080" begin="arrowUp.mouseover" end="arrowUp.mouseout"/>
                  </use>
                  <path fill="none" stroke="white" stroke-width="1.5" d="M0,-3.0v7 M-2.5,-0.5L0,-3.0L2.5,-0.5"/>
                </g>
                <g id="arrowRight" xlink:href="#dirArrow" transform="rotate(90) translate(36 -43)" onmousedown="handlePan(1,0)">
                  <use xlink:href="#rim" fill="#404040">
                        <set attributeName="fill" to="#808080" begin="arrowRight.mouseover" end="arrowRight.mouseout"/>
                  </use>
                  <path fill="none" stroke="white" stroke-width="1.5" d="M0,-3.0v7 M-2.5,-0.5L0,-3.0L2.5,-0.5"/>
                </g>
                <g id="arrowDown" xlink:href="#dirArrow" transform="rotate(180) translate(-30 -48)" onmousedown="handlePan(0,1)">
                  <use xlink:href="#rim" fill="#404040">
                        <set attributeName="fill" to="#808080" begin="arrowDown.mouseover" end="arrowDown.mouseout"/>
                  </use>
                  <path fill="none" stroke="white" stroke-width="1.5" d="M0,-3.0v7 M-2.5,-0.5L0,-3.0L2.5,-0.5"/>
                </g>
                <g id="arrowLeft" xlink:href="#dirArrow" transform="rotate(270) translate(-36 17)" onmousedown="handlePan(-1,0)">
                  <use xlink:href="#rim" fill="#404040">
                        <set attributeName="fill" to="#808080" begin="arrowLeft.mouseover" end="arrowLeft.mouseout"/>
                  </use>
                  <path fill="none" stroke="white" stroke-width="1.5" d="M0,-3.0v7 M-2.5,-0.5L0,-3.0L2.5,-0.5"/>
                </g>
        </g>
        <svg viewBox="0 0 15 15" width="100%" height="30px" preserveAspectRatio="xMaxYMin meet">
         <g id="arrow_out" transform="scale(0.3 0.3)">
          <a xlink:href="classjson11_1_1_json_null__coll__graph_org.svg" target="_base">
           <rect id="button" ry="5" rx="5" y="6" x="6" height="38" width="38"
                fill="#f2f5e9" fill-opacity="0.5" stroke="#606060" stroke-width="1.0"/>
           <path id="arrow"
             d="M 11.500037,31.436501 C 11.940474,20.09759 22.043105,11.32322 32.158766,21.979434 L 37.068811,17.246167 C 37.068811,17.246167 37.088388,32 37.088388,32 L 22.160133,31.978069 C 22.160133,31.978069 26.997745,27.140456 26.997745,27.140456 C 18.528582,18.264221 13.291696,25.230495 11.500037,31.436501 z"
             style="fill:#404040;"/>
          </a>
         </g>
        </svg>
</svg>
