<?xml version="1.0" encoding="UTF-8" standalone="no"?>
<!DOCTYPE svg PUBLIC "-//W3C//DTD SVG 1.1//EN"
 "http://www.w3.org/Graphics/SVG/1.1/DTD/svg11.dtd">
<!-- Generated by graphviz version 2.38.0 (20140413.2041)
 -->
<!-- Title: configCosmos.h Pages: 1 -->
<!--zoomable 140 -->
<svg id="main" version="1.1" xmlns="http://www.w3.org/2000/svg" xmlns:xlink="http://www.w3.org/1999/xlink" xml:space="preserve" onload="init(evt)">
<style type="text/css"><![CDATA[
.edge:hover path { stroke: red; }
.edge:hover polygon { stroke: red; fill: red; }
]]></style>
<script type="text/javascript"><![CDATA[
var edges = document.getElementsByTagName('g');
if (edges && edges.length) {
  for (var i=0;i<edges.length;i++) {
    if (edges[i].id.substr(0,4)=='edge') {
      edges[i].setAttribute('class','edge');
    }
  }
}
]]></script>
        <defs>
                <circle id="rim" cx="0" cy="0" r="7"/>
                <circle id="rim2" cx="0" cy="0" r="3.5"/>
                <g id="zoomPlus">
                        <use xlink:href="#rim" fill="#404040">
                                <set attributeName="fill" to="#808080" begin="zoomplus.mouseover" end="zoomplus.mouseout"/>
                        </use>
                        <path d="M-4,0h8M0,-4v8" fill="none" stroke="white" stroke-width="1.5" pointer-events="none"/>
                </g>
                <g id="zoomMin">
                        <use xlink:href="#rim" fill="#404040">
                                <set attributeName="fill" to="#808080" begin="zoomminus.mouseover" end="zoomminus.mouseout"/>
                        </use>
                        <path d="M-4,0h8" fill="none" stroke="white" stroke-width="1.5" pointer-events="none"/>
                </g>
                <g id="dirArrow">
                        <path fill="none" stroke="white" stroke-width="1.5" d="M0,-3.0v7 M-2.5,-0.5L0,-3.0L2.5,-0.5"/>
                </g>
               <g id="resetDef">
                       <use xlink:href="#rim2" fill="#404040">
                               <set attributeName="fill" to="#808080" begin="reset.mouseover" end="reset.mouseout"/>
                       </use>
               </g>
        </defs>

<script type="text/javascript">
var viewWidth = 1763;
var viewHeight = 140;
var sectionId = 'dynsection-0';
</script>
<script xlink:href="svgpan.js"/>
<svg id="graph" class="graph">
<g id="viewport">
<title>configCosmos.h</title>
<polygon fill="white" stroke="none" points="-4,4 -4,-136 1759,-136 1759,4 -4,4"/>
<!-- Node1 -->
<g id="node1" class="node"><title>Node1</title>
<polygon fill="#bfbfbf" stroke="black" points="893.5,-112.5 893.5,-131.5 981.5,-131.5 981.5,-112.5 893.5,-112.5"/>
<text text-anchor="middle" x="937.5" y="-119.5" font-family="Helvetica,sans-Serif" font-size="10.00">configCosmos.h</text>
</g>
<!-- Node2 -->
<g id="node2" class="node"><title>Node2</title>
<polygon fill="white" stroke="#bfbfbf" points="0,-56.5 0,-75.5 45,-75.5 45,-56.5 0,-56.5"/>
<text text-anchor="middle" x="22.5" y="-63.5" font-family="Helvetica,sans-Serif" font-size="10.00">climits</text>
</g>
<!-- Node1&#45;&gt;Node2 -->
<g id="edge1" class="edge"><title>Node1&#45;&gt;Node2</title>
<path fill="none" stroke="midnightblue" d="M893.382,-120.106C741.05,-116.81 237.011,-104.134 55.0186,-75.8234"/>
<polygon fill="midnightblue" stroke="midnightblue" points="55.4788,-72.3523 45.0465,-74.2009 54.3546,-79.2615 55.4788,-72.3523"/>
</g>
<!-- Node3 -->
<g id="node3" class="node"><title>Node3</title>
<polygon fill="white" stroke="#bfbfbf" points="63,-56.5 63,-75.5 110,-75.5 110,-56.5 63,-56.5"/>
<text text-anchor="middle" x="86.5" y="-63.5" font-family="Helvetica,sans-Serif" font-size="10.00">csignal</text>
</g>
<!-- Node1&#45;&gt;Node3 -->
<g id="edge2" class="edge"><title>Node1&#45;&gt;Node3</title>
<path fill="none" stroke="midnightblue" d="M893.405,-119.803C748.867,-115.691 289.503,-101.08 120.171,-75.6671"/>
<polygon fill="midnightblue" stroke="midnightblue" points="120.583,-72.189 110.161,-74.0961 119.498,-79.1044 120.583,-72.189"/>
</g>
<!-- Node4 -->
<g id="node4" class="node"><title>Node4</title>
<polygon fill="white" stroke="#bfbfbf" points="128.5,-56.5 128.5,-75.5 174.5,-75.5 174.5,-56.5 128.5,-56.5"/>
<text text-anchor="middle" x="151.5" y="-63.5" font-family="Helvetica,sans-Serif" font-size="10.00">cstdint</text>
</g>
<!-- Node1&#45;&gt;Node4 -->
<g id="edge3" class="edge"><title>Node1&#45;&gt;Node4</title>
<path fill="none" stroke="midnightblue" d="M893.358,-121.652C778.005,-122.659 458.146,-120.971 184.896,-75.8652"/>
<polygon fill="midnightblue" stroke="midnightblue" points="185.228,-72.3722 174.787,-74.173 184.072,-79.2761 185.228,-72.3722"/>
</g>
<!-- Node5 -->
<g id="node5" class="node"><title>Node5</title>
<polygon fill="white" stroke="#bfbfbf" points="192.5,-56.5 192.5,-75.5 248.5,-75.5 248.5,-56.5 192.5,-56.5"/>
<text text-anchor="middle" x="220.5" y="-63.5" font-family="Helvetica,sans-Serif" font-size="10.00">cinttypes</text>
</g>
<!-- Node1&#45;&gt;Node5 -->
<g id="edge4" class="edge"><title>Node1&#45;&gt;Node5</title>
<path fill="none" stroke="midnightblue" d="M893.138,-120.607C784.361,-119.092 495.947,-111.733 258.5,-76 258.399,-75.9849 258.299,-75.9696 258.198,-75.9542"/>
<polygon fill="midnightblue" stroke="midnightblue" points="259.085,-72.5583 248.62,-74.2103 257.831,-79.4451 259.085,-72.5583"/>
</g>
<!-- Node6 -->
<g id="node6" class="node"><title>Node6</title>
<polygon fill="white" stroke="#bfbfbf" points="267,-56.5 267,-75.5 310,-75.5 310,-56.5 267,-56.5"/>
<text text-anchor="middle" x="288.5" y="-63.5" font-family="Helvetica,sans-Serif" font-size="10.00">cstdio</text>
</g>
<!-- Node1&#45;&gt;Node6 -->
<g id="edge5" class="edge"><title>Node1&#45;&gt;Node6</title>
<path fill="none" stroke="midnightblue" d="M893.271,-120.949C792.825,-120.155 539.872,-114.337 320.149,-75.6866"/>
<polygon fill="midnightblue" stroke="midnightblue" points="320.502,-72.1943 310.043,-73.8811 319.271,-79.0852 320.502,-72.1943"/>
</g>
<!-- Node7 -->
<g id="node7" class="node"><title>Node7</title>
<polygon fill="white" stroke="#bfbfbf" points="328,-56.5 328,-75.5 377,-75.5 377,-56.5 328,-56.5"/>
<text text-anchor="middle" x="352.5" y="-63.5" font-family="Helvetica,sans-Serif" font-size="10.00">cstddef</text>
</g>
<!-- Node1&#45;&gt;Node7 -->
<g id="edge6" class="edge"><title>Node1&#45;&gt;Node7</title>
<path fill="none" stroke="midnightblue" d="M893.242,-120.042C800.864,-117.472 580.776,-108.372 387.336,-75.8193"/>
<polygon fill="midnightblue" stroke="midnightblue" points="387.717,-72.3339 377.271,-74.1 386.538,-79.2339 387.717,-72.3339"/>
</g>
<!-- Node8 -->
<g id="node8" class="node"><title>Node8</title>
<polygon fill="white" stroke="#bfbfbf" points="395,-56.5 395,-75.5 440,-75.5 440,-56.5 395,-56.5"/>
<text text-anchor="middle" x="417.5" y="-63.5" font-family="Helvetica,sans-Serif" font-size="10.00">cstdlib</text>
</g>
<!-- Node1&#45;&gt;Node8 -->
<g id="edge7" class="edge"><title>Node1&#45;&gt;Node8</title>
<path fill="none" stroke="midnightblue" d="M893.388,-119.622C809.03,-116.407 618.995,-106.372 450.168,-75.7618"/>
<polygon fill="midnightblue" stroke="midnightblue" points="450.574,-72.2778 440.105,-73.9079 449.306,-79.1619 450.574,-72.2778"/>
</g>
<!-- Node9 -->
<g id="node9" class="node"><title>Node9</title>
<polygon fill="white" stroke="#bfbfbf" points="458.5,-56.5 458.5,-75.5 502.5,-75.5 502.5,-56.5 458.5,-56.5"/>
<text text-anchor="middle" x="480.5" y="-63.5" font-family="Helvetica,sans-Serif" font-size="10.00">cerrno</text>
</g>
<!-- Node1&#45;&gt;Node9 -->
<g id="edge8" class="edge"><title>Node1&#45;&gt;Node9</title>
<path fill="none" stroke="midnightblue" d="M893.268,-118.915C817.198,-114.769 656.664,-103.567 512.636,-75.9004"/>
<polygon fill="midnightblue" stroke="midnightblue" points="513.22,-72.4485 502.735,-73.9671 511.879,-79.3188 513.22,-72.4485"/>
</g>
<!-- Node10 -->
<g id="node10" class="node"><title>Node10</title>
<polygon fill="white" stroke="#bfbfbf" points="520.5,-56.5 520.5,-75.5 566.5,-75.5 566.5,-56.5 520.5,-56.5"/>
<text text-anchor="middle" x="543.5" y="-63.5" font-family="Helvetica,sans-Serif" font-size="10.00">cstring</text>
</g>
<!-- Node1&#45;&gt;Node10 -->
<g id="edge9" class="edge"><title>Node1&#45;&gt;Node10</title>
<path fill="none" stroke="midnightblue" d="M893.414,-117.673C826.777,-112.175 696.339,-99.5846 576.868,-76.0107"/>
<polygon fill="midnightblue" stroke="midnightblue" points="577.313,-72.5303 566.82,-73.9965 575.937,-79.3938 577.313,-72.5303"/>
</g>
<!-- Node11 -->
<g id="node11" class="node"><title>Node11</title>
<polygon fill="white" stroke="#bfbfbf" points="584.5,-56.5 584.5,-75.5 628.5,-75.5 628.5,-56.5 584.5,-56.5"/>
<text text-anchor="middle" x="606.5" y="-63.5" font-family="Helvetica,sans-Serif" font-size="10.00">cmath</text>
</g>
<!-- Node1&#45;&gt;Node11 -->
<g id="edge10" class="edge"><title>Node1&#45;&gt;Node11</title>
<path fill="none" stroke="midnightblue" d="M893.364,-116.105C836.699,-109.437 735.208,-96.199 638.713,-75.7816"/>
<polygon fill="midnightblue" stroke="midnightblue" points="639.303,-72.3285 628.791,-73.6526 637.834,-79.1727 639.303,-72.3285"/>
</g>
<!-- Node12 -->
<g id="node12" class="node"><title>Node12</title>
<polygon fill="white" stroke="#bfbfbf" points="647,-56.5 647,-75.5 692,-75.5 692,-56.5 647,-56.5"/>
<text text-anchor="middle" x="669.5" y="-63.5" font-family="Helvetica,sans-Serif" font-size="10.00">iosfwd</text>
</g>
<!-- Node1&#45;&gt;Node12 -->
<g id="edge11" class="edge"><title>Node1&#45;&gt;Node12</title>
<path fill="none" stroke="midnightblue" d="M893.331,-113.743C847.78,-106.001 774.515,-92.8269 701.933,-75.9313"/>
<polygon fill="midnightblue" stroke="midnightblue" points="702.699,-72.516 692.163,-73.6332 701.096,-79.3301 702.699,-72.516"/>
</g>
<!-- Node13 -->
<g id="node13" class="node"><title>Node13</title>
<polygon fill="white" stroke="#bfbfbf" points="710.5,-56.5 710.5,-75.5 764.5,-75.5 764.5,-56.5 710.5,-56.5"/>
<text text-anchor="middle" x="737.5" y="-63.5" font-family="Helvetica,sans-Serif" font-size="10.00">iostream</text>
</g>
<!-- Node1&#45;&gt;Node13 -->
<g id="edge12" class="edge"><title>Node1&#45;&gt;Node13</title>
<path fill="none" stroke="midnightblue" d="M905.809,-112.444C870.169,-102.821 812.353,-87.2102 774.626,-77.0239"/>
<polygon fill="midnightblue" stroke="midnightblue" points="775.119,-73.5319 764.552,-74.3042 773.294,-80.2899 775.119,-73.5319"/>
</g>
<!-- Node14 -->
<g id="node14" class="node"><title>Node14</title>
<polygon fill="white" stroke="#bfbfbf" points="782.5,-56.5 782.5,-75.5 834.5,-75.5 834.5,-56.5 782.5,-56.5"/>
<text text-anchor="middle" x="808.5" y="-63.5" font-family="Helvetica,sans-Serif" font-size="10.00">sstream</text>
</g>
<!-- Node1&#45;&gt;Node14 -->
<g id="edge13" class="edge"><title>Node1&#45;&gt;Node14</title>
<path fill="none" stroke="midnightblue" d="M917.06,-112.444C895.83,-103.557 862.401,-89.5632 838.245,-79.4514"/>
<polygon fill="midnightblue" stroke="midnightblue" points="839.421,-76.1493 828.845,-75.5164 836.718,-82.6064 839.421,-76.1493"/>
</g>
<!-- Node15 -->
<g id="node15" class="node"><title>Node15</title>
<polygon fill="white" stroke="#bfbfbf" points="853,-56.5 853,-75.5 894,-75.5 894,-56.5 853,-56.5"/>
<text text-anchor="middle" x="873.5" y="-63.5" font-family="Helvetica,sans-Serif" font-size="10.00">regex</text>
</g>
<!-- Node1&#45;&gt;Node15 -->
<g id="edge14" class="edge"><title>Node1&#45;&gt;Node15</title>
<path fill="none" stroke="midnightblue" d="M927.217,-112.324C917.664,-104.263 903.22,-92.0765 891.716,-82.3695"/>
<polygon fill="midnightblue" stroke="midnightblue" points="893.87,-79.6076 883.97,-75.8339 889.356,-84.9577 893.87,-79.6076"/>
</g>
<!-- Node16 -->
<g id="node16" class="node"><title>Node16</title>
<polygon fill="white" stroke="#bfbfbf" points="912.5,-56.5 912.5,-75.5 962.5,-75.5 962.5,-56.5 912.5,-56.5"/>
<text text-anchor="middle" x="937.5" y="-63.5" font-family="Helvetica,sans-Serif" font-size="10.00">iomanip</text>
</g>
<!-- Node1&#45;&gt;Node16 -->
<g id="edge15" class="edge"><title>Node1&#45;&gt;Node16</title>
<path fill="none" stroke="midnightblue" d="M937.5,-112.083C937.5,-105.006 937.5,-94.8611 937.5,-85.9865"/>
<polygon fill="midnightblue" stroke="midnightblue" points="941,-85.751 937.5,-75.7511 934,-85.7511 941,-85.751"/>
</g>
<!-- Node17 -->
<g id="node17" class="node"><title>Node17</title>
<polygon fill="white" stroke="#bfbfbf" points="981,-56.5 981,-75.5 1032,-75.5 1032,-56.5 981,-56.5"/>
<text text-anchor="middle" x="1006.5" y="-63.5" font-family="Helvetica,sans-Serif" font-size="10.00">unistd.h</text>
</g>
<!-- Node1&#45;&gt;Node17 -->
<g id="edge16" class="edge"><title>Node1&#45;&gt;Node17</title>
<path fill="none" stroke="midnightblue" d="M948.586,-112.324C958.986,-104.185 974.761,-91.8395 987.222,-82.0874"/>
<polygon fill="midnightblue" stroke="midnightblue" points="989.494,-84.7533 995.212,-75.8339 985.18,-79.2407 989.494,-84.7533"/>
</g>
<!-- Node18 -->
<g id="node18" class="node"><title>Node18</title>
<polygon fill="white" stroke="#bfbfbf" points="1050.5,-56.5 1050.5,-75.5 1094.5,-75.5 1094.5,-56.5 1050.5,-56.5"/>
<text text-anchor="middle" x="1072.5" y="-63.5" font-family="Helvetica,sans-Serif" font-size="10.00">fcntl.h</text>
</g>
<!-- Node1&#45;&gt;Node18 -->
<g id="edge17" class="edge"><title>Node1&#45;&gt;Node18</title>
<path fill="none" stroke="midnightblue" d="M958.891,-112.444C981.207,-103.517 1016.4,-89.4387 1041.71,-79.3168"/>
<polygon fill="midnightblue" stroke="midnightblue" points="1043.22,-82.4801 1051.21,-75.5164 1040.62,-75.9807 1043.22,-82.4801"/>
</g>
<!-- Node19 -->
<g id="node19" class="node"><title>Node19</title>
<polygon fill="white" stroke="#bfbfbf" points="1112.5,-56.5 1112.5,-75.5 1152.5,-75.5 1152.5,-56.5 1112.5,-56.5"/>
<text text-anchor="middle" x="1132.5" y="-63.5" font-family="Helvetica,sans-Serif" font-size="10.00">limits</text>
</g>
<!-- Node1&#45;&gt;Node19 -->
<g id="edge18" class="edge"><title>Node1&#45;&gt;Node19</title>
<path fill="none" stroke="midnightblue" d="M970.355,-112.469C1001.95,-104.182 1051.27,-91.0302 1102.64,-76.1798"/>
<polygon fill="midnightblue" stroke="midnightblue" points="1103.62,-79.5387 1112.25,-73.3879 1101.67,-72.8165 1103.62,-79.5387"/>
</g>
<!-- Node20 -->
<g id="node20" class="node"><title>Node20</title>
<polygon fill="white" stroke="#bfbfbf" points="1714,-0.5 1714,-19.5 1755,-19.5 1755,-0.5 1714,-0.5"/>
<text text-anchor="middle" x="1734.5" y="-7.5" font-family="Helvetica,sans-Serif" font-size="10.00">string</text>
</g>
<!-- Node1&#45;&gt;Node20 -->
<g id="edge19" class="edge"><title>Node1&#45;&gt;Node20</title>
<path fill="none" stroke="midnightblue" d="M981.671,-120.348C1111.05,-118.07 1487.47,-108.736 1605.5,-76 1624.27,-70.7937 1627.12,-64.8003 1644.5,-56 1665.8,-45.2125 1690.01,-33.1157 1707.96,-24.1832"/>
<polygon fill="midnightblue" stroke="midnightblue" points="1709.83,-27.1623 1717.22,-19.5746 1706.71,-20.895 1709.83,-27.1623"/>
</g>
<!-- Node21 -->
<g id="node21" class="node"><title>Node21</title>
<polygon fill="white" stroke="#bfbfbf" points="1436.5,-0.5 1436.5,-19.5 1480.5,-19.5 1480.5,-0.5 1436.5,-0.5"/>
<text text-anchor="middle" x="1458.5" y="-7.5" font-family="Helvetica,sans-Serif" font-size="10.00">vector</text>
</g>
<!-- Node1&#45;&gt;Node21 -->
<g id="edge20" class="edge"><title>Node1&#45;&gt;Node21</title>
<path fill="none" stroke="midnightblue" d="M981.622,-119.385C1095.02,-114.892 1390.28,-100.914 1426.5,-76 1442.01,-65.3306 1450.32,-44.9186 1454.55,-29.8032"/>
<polygon fill="midnightblue" stroke="midnightblue" points="1457.99,-30.4924 1456.95,-19.9479 1451.19,-28.8345 1457.99,-30.4924"/>
</g>
<!-- Node22 -->
<g id="node22" class="node"><title>Node22</title>
<polygon fill="white" stroke="#bfbfbf" points="1653,-56.5 1653,-75.5 1694,-75.5 1694,-56.5 1653,-56.5"/>
<text text-anchor="middle" x="1673.5" y="-63.5" font-family="Helvetica,sans-Serif" font-size="10.00">stack</text>
</g>
<!-- Node1&#45;&gt;Node22 -->
<g id="edge21" class="edge"><title>Node1&#45;&gt;Node22</title>
<path fill="none" stroke="midnightblue" d="M981.699,-121.028C1092.81,-120.481 1392.51,-115.167 1638.5,-76 1639.97,-75.7657 1641.47,-75.4974 1642.98,-75.2034"/>
<polygon fill="midnightblue" stroke="midnightblue" points="1643.91,-78.5813 1652.91,-72.9793 1642.38,-71.7507 1643.91,-78.5813"/>
</g>
<!-- Node23 -->
<g id="node23" class="node"><title>Node23</title>
<polygon fill="white" stroke="#bfbfbf" points="1712,-56.5 1712,-75.5 1755,-75.5 1755,-56.5 1712,-56.5"/>
<text text-anchor="middle" x="1733.5" y="-63.5" font-family="Helvetica,sans-Serif" font-size="10.00">deque</text>
</g>
<!-- Node1&#45;&gt;Node23 -->
<g id="edge22" class="edge"><title>Node1&#45;&gt;Node23</title>
<path fill="none" stroke="midnightblue" d="M981.75,-119.754C1120.16,-115.648 1544.53,-101.427 1701.73,-75.8832"/>
<polygon fill="midnightblue" stroke="midnightblue" points="1702.42,-79.3157 1711.69,-74.1842 1701.24,-72.4153 1702.42,-79.3157"/>
</g>
<!-- Node24 -->
<g id="node24" class="node"><title>Node24</title>
<polygon fill="white" stroke="#bfbfbf" points="1090.5,-0.5 1090.5,-19.5 1134.5,-19.5 1134.5,-0.5 1090.5,-0.5"/>
<text text-anchor="middle" x="1112.5" y="-7.5" font-family="Helvetica,sans-Serif" font-size="10.00">mutex</text>
</g>
<!-- Node1&#45;&gt;Node24 -->
<g id="edge23" class="edge"><title>Node1&#45;&gt;Node24</title>
<path fill="none" stroke="midnightblue" d="M981.974,-118.547C1040.69,-114.273 1139.26,-103.157 1161.5,-76 1175.48,-58.9347 1154.19,-38.5143 1135.45,-25.1748"/>
<polygon fill="midnightblue" stroke="midnightblue" points="1137.4,-22.2695 1127.15,-19.5817 1133.49,-28.0737 1137.4,-22.2695"/>
</g>
<!-- Node25 -->
<g id="node25" class="node"><title>Node25</title>
<polygon fill="white" stroke="#bfbfbf" points="1152.5,-0.5 1152.5,-19.5 1196.5,-19.5 1196.5,-0.5 1152.5,-0.5"/>
<text text-anchor="middle" x="1174.5" y="-7.5" font-family="Helvetica,sans-Serif" font-size="10.00">thread</text>
</g>
<!-- Node1&#45;&gt;Node25 -->
<g id="edge24" class="edge"><title>Node1&#45;&gt;Node25</title>
<path fill="none" stroke="midnightblue" d="M981.695,-119.234C1044.08,-115.708 1153.1,-105.4 1177.5,-76 1188.08,-63.254 1185.55,-43.7856 1181.47,-29.4766"/>
<polygon fill="midnightblue" stroke="midnightblue" points="1184.71,-28.1214 1178.23,-19.737 1178.06,-30.3305 1184.71,-28.1214"/>
</g>
<!-- Node26 -->
<g id="node26" class="node"><title>Node26</title>
<polygon fill="white" stroke="#bfbfbf" points="1215,-0.5 1215,-19.5 1310,-19.5 1310,-0.5 1215,-0.5"/>
<text text-anchor="middle" x="1262.5" y="-7.5" font-family="Helvetica,sans-Serif" font-size="10.00">condition_variable</text>
</g>
<!-- Node1&#45;&gt;Node26 -->
<g id="edge25" class="edge"><title>Node1&#45;&gt;Node26</title>
<path fill="none" stroke="midnightblue" d="M981.757,-120.94C1035,-119.187 1125.78,-110.743 1194.5,-76 1217.16,-64.5431 1237.38,-43.0255 1249.76,-27.8944"/>
<polygon fill="midnightblue" stroke="midnightblue" points="1252.66,-29.8674 1256.11,-19.8478 1247.17,-25.533 1252.66,-29.8674"/>
</g>
<!-- Node27 -->
<g id="node27" class="node"><title>Node27</title>
<polygon fill="white" stroke="#bfbfbf" points="1375,-0.5 1375,-19.5 1418,-19.5 1418,-0.5 1375,-0.5"/>
<text text-anchor="middle" x="1396.5" y="-7.5" font-family="Helvetica,sans-Serif" font-size="10.00">queue</text>
</g>
<!-- Node1&#45;&gt;Node27 -->
<g id="edge26" class="edge"><title>Node1&#45;&gt;Node27</title>
<path fill="none" stroke="midnightblue" d="M981.626,-120.1C1093.43,-117.367 1381.02,-107.328 1409.5,-76 1421.07,-63.2702 1414.7,-43.2409 1407.39,-28.7791"/>
<polygon fill="midnightblue" stroke="midnightblue" points="1410.31,-26.8431 1402.39,-19.8147 1404.2,-30.253 1410.31,-26.8431"/>
</g>
<!-- Node28 -->
<g id="node28" class="node"><title>Node28</title>
<polygon fill="white" stroke="#bfbfbf" points="1499,-0.5 1499,-19.5 1534,-19.5 1534,-0.5 1499,-0.5"/>
<text text-anchor="middle" x="1516.5" y="-7.5" font-family="Helvetica,sans-Serif" font-size="10.00">map</text>
</g>
<!-- Node1&#45;&gt;Node28 -->
<g id="edge27" class="edge"><title>Node1&#45;&gt;Node28</title>
<path fill="none" stroke="midnightblue" d="M981.546,-120.828C1089.72,-119.818 1365.65,-113.529 1448.5,-76 1471.88,-65.4095 1492.18,-43.3257 1504.37,-27.8511"/>
<polygon fill="midnightblue" stroke="midnightblue" points="1507.34,-29.7292 1510.58,-19.6405 1501.75,-25.5096 1507.34,-29.7292"/>
</g>
<!-- Node29 -->
<g id="node29" class="node"><title>Node29</title>
<g id="a_node29"><a xlink:href="cosmos-defs_8h.html" target="_top" xlink:title="COSMOS definitions Definitions specific to the COSMOS environement. ">
<polygon fill="white" stroke="black" points="1284.5,-56.5 1284.5,-75.5 1400.5,-75.5 1400.5,-56.5 1284.5,-56.5"/>
<text text-anchor="middle" x="1342.5" y="-63.5" font-family="Helvetica,sans-Serif" font-size="10.00">support/cosmos&#45;defs.h</text>
</a>
</g>
</g>
<!-- Node1&#45;&gt;Node29 -->
<g id="edge28" class="edge"><title>Node1&#45;&gt;Node29</title>
<path fill="none" stroke="midnightblue" d="M981.613,-115.118C1052.17,-105.711 1190.92,-87.2103 1274.32,-76.0909"/>
<polygon fill="midnightblue" stroke="midnightblue" points="1275.01,-79.5303 1284.46,-74.7392 1274.08,-72.5917 1275.01,-79.5303"/>
</g>
<!-- Node31 -->
<g id="node31" class="node"><title>Node31</title>
<g id="a_node31"><a xlink:href="json11_8hpp.html" target="_top" xlink:title="json11.hpp">
<polygon fill="white" stroke="black" points="1532.5,-56.5 1532.5,-75.5 1596.5,-75.5 1596.5,-56.5 1532.5,-56.5"/>
<text text-anchor="middle" x="1564.5" y="-63.5" font-family="Helvetica,sans-Serif" font-size="10.00">json11.hpp</text>
</a>
</g>
</g>
<!-- Node1&#45;&gt;Node31 -->
<g id="edge36" class="edge"><title>Node1&#45;&gt;Node31</title>
<path fill="none" stroke="midnightblue" d="M981.781,-119.323C1079.19,-115.251 1319.26,-103.114 1518.5,-76 1519.77,-75.8272 1521.06,-75.6416 1522.36,-75.4454"/>
<polygon fill="midnightblue" stroke="midnightblue" points="1523.12,-78.8666 1532.41,-73.7713 1521.97,-71.9617 1523.12,-78.8666"/>
</g>
<!-- Node29&#45;&gt;Node21 -->
<g id="edge30" class="edge"><title>Node29&#45;&gt;Node21</title>
<path fill="none" stroke="midnightblue" d="M1360.88,-56.4435C1379.72,-47.6751 1409.23,-33.9355 1430.88,-23.8579"/>
<polygon fill="midnightblue" stroke="midnightblue" points="1432.62,-26.9098 1440.21,-19.5164 1429.66,-20.5637 1432.62,-26.9098"/>
</g>
<!-- Node29&#45;&gt;Node24 -->
<g id="edge34" class="edge"><title>Node29&#45;&gt;Node24</title>
<path fill="none" stroke="midnightblue" d="M1301.55,-56.4926C1263.32,-48.384 1204.48,-35.4763 1144.78,-20.2195"/>
<polygon fill="midnightblue" stroke="midnightblue" points="1145.36,-16.7554 1134.81,-17.6501 1143.62,-23.5341 1145.36,-16.7554"/>
</g>
<!-- Node29&#45;&gt;Node25 -->
<g id="edge33" class="edge"><title>Node29&#45;&gt;Node25</title>
<path fill="none" stroke="midnightblue" d="M1315.88,-56.4435C1286.16,-46.8902 1238.08,-31.436 1206.38,-21.2461"/>
<polygon fill="midnightblue" stroke="midnightblue" points="1207.29,-17.8649 1196.7,-18.1368 1205.15,-24.5291 1207.29,-17.8649"/>
</g>
<!-- Node29&#45;&gt;Node26 -->
<g id="edge35" class="edge"><title>Node29&#45;&gt;Node26</title>
<path fill="none" stroke="midnightblue" d="M1329.65,-56.324C1317.28,-47.979 1298.37,-35.2122 1283.76,-25.3524"/>
<polygon fill="midnightblue" stroke="midnightblue" points="1285.57,-22.3483 1275.32,-19.6545 1281.65,-28.1503 1285.57,-22.3483"/>
</g>
<!-- Node29&#45;&gt;Node27 -->
<g id="edge32" class="edge"><title>Node29&#45;&gt;Node27</title>
<path fill="none" stroke="midnightblue" d="M1351.42,-56.083C1359.28,-48.2195 1370.93,-36.5688 1380.42,-27.0813"/>
<polygon fill="midnightblue" stroke="midnightblue" points="1383.15,-29.2971 1387.75,-19.7511 1378.2,-24.3473 1383.15,-29.2971"/>
</g>
<!-- Node29&#45;&gt;Node28 -->
<g id="edge29" class="edge"><title>Node29&#45;&gt;Node28</title>
<path fill="none" stroke="midnightblue" d="M1371.02,-56.4967C1398.77,-48.1726 1442.36,-34.9676 1489.1,-20.0708"/>
<polygon fill="midnightblue" stroke="midnightblue" points="1490.34,-23.3483 1498.8,-16.9689 1488.21,-16.6809 1490.34,-23.3483"/>
</g>
<!-- Node30 -->
<g id="node30" class="node"><title>Node30</title>
<polygon fill="white" stroke="#bfbfbf" points="1328,-0.5 1328,-19.5 1357,-19.5 1357,-0.5 1328,-0.5"/>
<text text-anchor="middle" x="1342.5" y="-7.5" font-family="Helvetica,sans-Serif" font-size="10.00">list</text>
</g>
<!-- Node29&#45;&gt;Node30 -->
<g id="edge31" class="edge"><title>Node29&#45;&gt;Node30</title>
<path fill="none" stroke="midnightblue" d="M1342.5,-56.083C1342.5,-49.0059 1342.5,-38.8611 1342.5,-29.9865"/>
<polygon fill="midnightblue" stroke="midnightblue" points="1346,-29.751 1342.5,-19.7511 1339,-29.7511 1346,-29.751"/>
</g>
<!-- Node31&#45;&gt;Node20 -->
<g id="edge37" class="edge"><title>Node31&#45;&gt;Node20</title>
<path fill="none" stroke="midnightblue" d="M1591.44,-56.4435C1622.1,-46.7024 1672.08,-30.826 1704.12,-20.6512"/>
<polygon fill="midnightblue" stroke="midnightblue" points="1705.37,-23.9263 1713.84,-17.5631 1703.25,-17.2548 1705.37,-23.9263"/>
</g>
<!-- Node31&#45;&gt;Node21 -->
<g id="edge38" class="edge"><title>Node31&#45;&gt;Node21</title>
<path fill="none" stroke="midnightblue" d="M1547.47,-56.324C1530.47,-47.6641 1504.12,-34.2424 1484.51,-24.249"/>
<polygon fill="midnightblue" stroke="midnightblue" points="1485.99,-21.0752 1475.49,-19.6545 1482.81,-27.3125 1485.99,-21.0752"/>
</g>
<!-- Node31&#45;&gt;Node28 -->
<g id="edge39" class="edge"><title>Node31&#45;&gt;Node28</title>
<path fill="none" stroke="midnightblue" d="M1556.57,-56.083C1549.65,-48.2982 1539.43,-36.8015 1531.05,-27.3665"/>
<polygon fill="midnightblue" stroke="midnightblue" points="1533.54,-24.8999 1524.28,-19.7511 1528.31,-29.5505 1533.54,-24.8999"/>
</g>
<!-- Node32 -->
<g id="node32" class="node"><title>Node32</title>
<polygon fill="white" stroke="#bfbfbf" points="1552.5,-0.5 1552.5,-19.5 1604.5,-19.5 1604.5,-0.5 1552.5,-0.5"/>
<text text-anchor="middle" x="1578.5" y="-7.5" font-family="Helvetica,sans-Serif" font-size="10.00">memory</text>
</g>
<!-- Node31&#45;&gt;Node32 -->
<g id="edge40" class="edge"><title>Node31&#45;&gt;Node32</title>
<path fill="none" stroke="midnightblue" d="M1566.81,-56.083C1568.67,-48.9272 1571.34,-38.6353 1573.65,-29.6911"/>
<polygon fill="midnightblue" stroke="midnightblue" points="1577.11,-30.3094 1576.23,-19.7511 1570.33,-28.5527 1577.11,-30.3094"/>
</g>
<!-- Node33 -->
<g id="node33" class="node"><title>Node33</title>
<polygon fill="white" stroke="#bfbfbf" points="1623,-0.5 1623,-19.5 1696,-19.5 1696,-0.5 1623,-0.5"/>
<text text-anchor="middle" x="1659.5" y="-7.5" font-family="Helvetica,sans-Serif" font-size="10.00">initializer_list</text>
</g>
<!-- Node31&#45;&gt;Node33 -->
<g id="edge41" class="edge"><title>Node31&#45;&gt;Node33</title>
<path fill="none" stroke="midnightblue" d="M1579.76,-56.324C1594.72,-47.8215 1617.75,-34.7288 1635.23,-24.7975"/>
<polygon fill="midnightblue" stroke="midnightblue" points="1637.31,-27.639 1644.27,-19.6545 1633.85,-21.5534 1637.31,-27.639"/>
</g>
</g>
</svg>
        <g id="navigator" transform="translate(0 0)" fill="#404254">
                <rect fill="#f2f5e9" fill-opacity="0.5" stroke="#606060" stroke-width=".5" x="0" y="0" width="60" height="60"/>
                <use id="zoomplus" xlink:href="#zoomPlus" x="17" y="9" onmousedown="handleZoom(evt,'in')"/>
                <use id="zoomminus" xlink:href="#zoomMin" x="42" y="9" onmousedown="handleZoom(evt,'out')"/>
                <use id="reset" xlink:href="#resetDef" x="30" y="36" onmousedown="handleReset()"/>
                <g id="arrowUp" xlink:href="#dirArrow" transform="translate(30 24)" onmousedown="handlePan(0,-1)">
                  <use xlink:href="#rim" fill="#404040">
                        <set attributeName="fill" to="#808080" begin="arrowUp.mouseover" end="arrowUp.mouseout"/>
                  </use>
                  <path fill="none" stroke="white" stroke-width="1.5" d="M0,-3.0v7 M-2.5,-0.5L0,-3.0L2.5,-0.5"/>
                </g>
                <g id="arrowRight" xlink:href="#dirArrow" transform="rotate(90) translate(36 -43)" onmousedown="handlePan(1,0)">
                  <use xlink:href="#rim" fill="#404040">
                        <set attributeName="fill" to="#808080" begin="arrowRight.mouseover" end="arrowRight.mouseout"/>
                  </use>
                  <path fill="none" stroke="white" stroke-width="1.5" d="M0,-3.0v7 M-2.5,-0.5L0,-3.0L2.5,-0.5"/>
                </g>
                <g id="arrowDown" xlink:href="#dirArrow" transform="rotate(180) translate(-30 -48)" onmousedown="handlePan(0,1)">
                  <use xlink:href="#rim" fill="#404040">
                        <set attributeName="fill" to="#808080" begin="arrowDown.mouseover" end="arrowDown.mouseout"/>
                  </use>
                  <path fill="none" stroke="white" stroke-width="1.5" d="M0,-3.0v7 M-2.5,-0.5L0,-3.0L2.5,-0.5"/>
                </g>
                <g id="arrowLeft" xlink:href="#dirArrow" transform="rotate(270) translate(-36 17)" onmousedown="handlePan(-1,0)">
                  <use xlink:href="#rim" fill="#404040">
                        <set attributeName="fill" to="#808080" begin="arrowLeft.mouseover" end="arrowLeft.mouseout"/>
                  </use>
                  <path fill="none" stroke="white" stroke-width="1.5" d="M0,-3.0v7 M-2.5,-0.5L0,-3.0L2.5,-0.5"/>
                </g>
        </g>
        <svg viewBox="0 0 15 15" width="100%" height="30px" preserveAspectRatio="xMaxYMin meet">
         <g id="arrow_out" transform="scale(0.3 0.3)">
          <a xlink:href="config_cosmos_8h__incl_org.svg" target="_base">
           <rect id="button" ry="5" rx="5" y="6" x="6" height="38" width="38"
                fill="#f2f5e9" fill-opacity="0.5" stroke="#606060" stroke-width="1.0"/>
           <path id="arrow"
             d="M 11.500037,31.436501 C 11.940474,20.09759 22.043105,11.32322 32.158766,21.979434 L 37.068811,17.246167 C 37.068811,17.246167 37.088388,32 37.088388,32 L 22.160133,31.978069 C 22.160133,31.978069 26.997745,27.140456 26.997745,27.140456 C 18.528582,18.264221 13.291696,25.230495 11.500037,31.436501 z"
             style="fill:#404040;"/>
          </a>
         </g>
        </svg>
</svg>
