<?xml version="1.0" encoding="UTF-8" standalone="no"?>
<!DOCTYPE svg PUBLIC "-//W3C//DTD SVG 1.1//EN"
 "http://www.w3.org/Graphics/SVG/1.1/DTD/svg11.dtd">
<!-- Generated by graphviz version 2.38.0 (20140413.2041)
 -->
<!-- Title: convertlib.h Pages: 1 -->
<!--zoomable 196 -->
<svg id="main" version="1.1" xmlns="http://www.w3.org/2000/svg" xmlns:xlink="http://www.w3.org/1999/xlink" xml:space="preserve" onload="init(evt)">
<style type="text/css"><![CDATA[
.edge:hover path { stroke: red; }
.edge:hover polygon { stroke: red; fill: red; }
]]></style>
<script type="text/javascript"><![CDATA[
var edges = document.getElementsByTagName('g');
if (edges && edges.length) {
  for (var i=0;i<edges.length;i++) {
    if (edges[i].id.substr(0,4)=='edge') {
      edges[i].setAttribute('class','edge');
    }
  }
}
]]></script>
        <defs>
                <circle id="rim" cx="0" cy="0" r="7"/>
                <circle id="rim2" cx="0" cy="0" r="3.5"/>
                <g id="zoomPlus">
                        <use xlink:href="#rim" fill="#404040">
                                <set attributeName="fill" to="#808080" begin="zoomplus.mouseover" end="zoomplus.mouseout"/>
                        </use>
                        <path d="M-4,0h8M0,-4v8" fill="none" stroke="white" stroke-width="1.5" pointer-events="none"/>
                </g>
                <g id="zoomMin">
                        <use xlink:href="#rim" fill="#404040">
                                <set attributeName="fill" to="#808080" begin="zoomminus.mouseover" end="zoomminus.mouseout"/>
                        </use>
                        <path d="M-4,0h8" fill="none" stroke="white" stroke-width="1.5" pointer-events="none"/>
                </g>
                <g id="dirArrow">
                        <path fill="none" stroke="white" stroke-width="1.5" d="M0,-3.0v7 M-2.5,-0.5L0,-3.0L2.5,-0.5"/>
                </g>
               <g id="resetDef">
                       <use xlink:href="#rim2" fill="#404040">
                               <set attributeName="fill" to="#808080" begin="reset.mouseover" end="reset.mouseout"/>
                       </use>
               </g>
        </defs>

<script type="text/javascript">
var viewWidth = 3563;
var viewHeight = 196;
var sectionId = 'dynsection-1';
</script>
<script xlink:href="svgpan.js"/>
<svg id="graph" class="graph">
<g id="viewport">
<title>convertlib.h</title>
<polygon fill="white" stroke="none" points="-4,4 -4,-192 3559,-192 3559,4 -4,4"/>
<!-- Node1 -->
<g id="node1" class="node"><title>Node1</title>
<polygon fill="#bfbfbf" stroke="black" points="2400.5,-168.5 2400.5,-187.5 2467.5,-187.5 2467.5,-168.5 2400.5,-168.5"/>
<text text-anchor="middle" x="2434" y="-175.5" font-family="Helvetica,sans-Serif" font-size="10.00">convertlib.h</text>
</g>
<!-- Node2 -->
<g id="node2" class="node"><title>Node2</title>
<g id="a_node2"><a xlink:href="att__test_8cpp.html" target="_top" xlink:title="att_test.cpp">
<polygon fill="white" stroke="black" points="1036,-112.5 1036,-131.5 1104,-131.5 1104,-112.5 1036,-112.5"/>
<text text-anchor="middle" x="1070" y="-119.5" font-family="Helvetica,sans-Serif" font-size="10.00">att_test.cpp</text>
</a>
</g>
</g>
<!-- Node1&#45;&gt;Node2 -->
<g id="edge1" class="edge"><title>Node1&#45;&gt;Node2</title>
<path fill="none" stroke="midnightblue" d="M2390.16,-176.522C2190.82,-174.193 1368.57,-162.865 1113,-132 1110.12,-131.653 1107.15,-131.21 1104.18,-130.708"/>
<polygon fill="midnightblue" stroke="midnightblue" points="2390.22,-180.023 2400.26,-176.639 2390.3,-173.023 2390.22,-180.023"/>
</g>
<!-- Node3 -->
<g id="node3" class="node"><title>Node3</title>
<g id="a_node3"><a xlink:href="convert__test_8cpp.html" target="_top" xlink:title="convert_test.cpp">
<polygon fill="white" stroke="black" points="1122.5,-112.5 1122.5,-131.5 1211.5,-131.5 1211.5,-112.5 1122.5,-112.5"/>
<text text-anchor="middle" x="1167" y="-119.5" font-family="Helvetica,sans-Serif" font-size="10.00">convert_test.cpp</text>
</a>
</g>
</g>
<!-- Node1&#45;&gt;Node3 -->
<g id="edge2" class="edge"><title>Node1&#45;&gt;Node3</title>
<path fill="none" stroke="midnightblue" d="M2389.79,-177.449C2231.07,-178.62 1675.29,-178.891 1220,-132 1217.31,-131.723 1214.55,-131.393 1211.76,-131.026"/>
<polygon fill="midnightblue" stroke="midnightblue" points="2390.12,-180.947 2400.09,-177.368 2390.07,-173.947 2390.12,-180.947"/>
</g>
<!-- Node4 -->
<g id="node4" class="node"><title>Node4</title>
<g id="a_node4"><a xlink:href="jpl__test_8cpp.html" target="_top" xlink:title="jpl_test.cpp">
<polygon fill="white" stroke="black" points="1229.5,-112.5 1229.5,-131.5 1296.5,-131.5 1296.5,-112.5 1229.5,-112.5"/>
<text text-anchor="middle" x="1263" y="-119.5" font-family="Helvetica,sans-Serif" font-size="10.00">jpl_test.cpp</text>
</a>
</g>
</g>
<!-- Node1&#45;&gt;Node4 -->
<g id="edge3" class="edge"><title>Node1&#45;&gt;Node4</title>
<path fill="none" stroke="midnightblue" d="M2390.31,-176.23C2209.81,-172.899 1521.62,-158.677 1306,-132 1302.97,-131.625 1299.84,-131.148 1296.71,-130.609"/>
<polygon fill="midnightblue" stroke="midnightblue" points="2390.42,-179.733 2400.48,-176.416 2390.55,-172.734 2390.42,-179.733"/>
</g>
<!-- Node5 -->
<g id="node5" class="node"><title>Node5</title>
<g id="a_node5"><a xlink:href="physicsclass_8h.html" target="_top" xlink:title="physicsclass.h">
<polygon fill="white" stroke="black" points="1315,-112.5 1315,-131.5 1397,-131.5 1397,-112.5 1315,-112.5"/>
<text text-anchor="middle" x="1356" y="-119.5" font-family="Helvetica,sans-Serif" font-size="10.00">physicsclass.h</text>
</a>
</g>
</g>
<!-- Node1&#45;&gt;Node5 -->
<g id="edge4" class="edge"><title>Node1&#45;&gt;Node5</title>
<path fill="none" stroke="midnightblue" d="M2390.06,-177.182C2247.53,-177.321 1785.33,-174.249 1406,-132 1403.11,-131.678 1400.13,-131.289 1397.14,-130.856"/>
<polygon fill="midnightblue" stroke="midnightblue" points="2390.16,-180.681 2400.15,-177.166 2390.15,-173.681 2390.16,-180.681"/>
</g>
<!-- Node8 -->
<g id="node8" class="node"><title>Node8</title>
<g id="a_node8"><a xlink:href="physicslib_8h.html" target="_top" xlink:title="Orbit library include file. ">
<polygon fill="white" stroke="black" points="1415,-112.5 1415,-131.5 1483,-131.5 1483,-112.5 1415,-112.5"/>
<text text-anchor="middle" x="1449" y="-119.5" font-family="Helvetica,sans-Serif" font-size="10.00">physicslib.h</text>
</a>
</g>
</g>
<!-- Node1&#45;&gt;Node8 -->
<g id="edge7" class="edge"><title>Node1&#45;&gt;Node8</title>
<path fill="none" stroke="midnightblue" d="M2390.02,-174.589C2223.22,-165.444 1631.64,-133.013 1483.05,-124.867"/>
<polygon fill="midnightblue" stroke="midnightblue" points="2390.2,-178.104 2400.38,-175.157 2390.59,-171.115 2390.2,-178.104"/>
</g>
<!-- Node24 -->
<g id="node24" class="node"><title>Node24</title>
<g id="a_node24"><a xlink:href="fast__contacts_8cpp.html" target="_top" xlink:title="fast_contacts.cpp">
<polygon fill="white" stroke="black" points="2027.5,-56.5 2027.5,-75.5 2122.5,-75.5 2122.5,-56.5 2027.5,-56.5"/>
<text text-anchor="middle" x="2075" y="-63.5" font-family="Helvetica,sans-Serif" font-size="10.00">fast_contacts.cpp</text>
</a>
</g>
</g>
<!-- Node1&#45;&gt;Node24 -->
<g id="edge47" class="edge"><title>Node1&#45;&gt;Node24</title>
<path fill="none" stroke="midnightblue" d="M2390.32,-168.974C2350.26,-161.143 2289.51,-148.078 2238,-132 2184.49,-115.297 2123.69,-89.0253 2093.73,-75.5689"/>
<polygon fill="midnightblue" stroke="midnightblue" points="2389.81,-172.441 2400.29,-170.899 2391.13,-165.567 2389.81,-172.441"/>
</g>
<!-- Node25 -->
<g id="node25" class="node"><title>Node25</title>
<g id="a_node25"><a xlink:href="fast__propagator_8cpp.html" target="_top" xlink:title="fast_propagator.cpp">
<polygon fill="white" stroke="black" points="2140.5,-56.5 2140.5,-75.5 2243.5,-75.5 2243.5,-56.5 2140.5,-56.5"/>
<text text-anchor="middle" x="2192" y="-63.5" font-family="Helvetica,sans-Serif" font-size="10.00">fast_propagator.cpp</text>
</a>
</g>
</g>
<!-- Node1&#45;&gt;Node25 -->
<g id="edge48" class="edge"><title>Node1&#45;&gt;Node25</title>
<path fill="none" stroke="midnightblue" d="M2390.56,-169.798C2357.12,-163.107 2310.44,-151.224 2273,-132 2243.49,-116.845 2214.55,-89.8963 2200.61,-75.9363"/>
<polygon fill="midnightblue" stroke="midnightblue" points="2390,-173.256 2400.49,-171.711 2391.33,-166.382 2390,-173.256"/>
</g>
<!-- Node26 -->
<g id="node26" class="node"><title>Node26</title>
<g id="a_node26"><a xlink:href="get__contacts_8cpp.html" target="_top" xlink:title="get_contacts.cpp">
<polygon fill="white" stroke="black" points="2262,-56.5 2262,-75.5 2354,-75.5 2354,-56.5 2262,-56.5"/>
<text text-anchor="middle" x="2308" y="-63.5" font-family="Helvetica,sans-Serif" font-size="10.00">get_contacts.cpp</text>
</a>
</g>
</g>
<!-- Node1&#45;&gt;Node26 -->
<g id="edge49" class="edge"><title>Node1&#45;&gt;Node26</title>
<path fill="none" stroke="midnightblue" d="M2390.45,-170.108C2350.03,-162.719 2294.19,-149.627 2281,-132 2267.68,-114.193 2286.94,-88.8524 2299.2,-75.6901"/>
<polygon fill="midnightblue" stroke="midnightblue" points="2389.9,-173.565 2400.35,-171.863 2391.12,-166.672 2389.9,-173.565"/>
</g>
<!-- Node27 -->
<g id="node27" class="node"><title>Node27</title>
<g id="a_node27"><a xlink:href="get__contacts__tle_8cpp.html" target="_top" xlink:title="get_contacts_tle.cpp">
<polygon fill="white" stroke="black" points="2372.5,-56.5 2372.5,-75.5 2479.5,-75.5 2479.5,-56.5 2372.5,-56.5"/>
<text text-anchor="middle" x="2426" y="-63.5" font-family="Helvetica,sans-Serif" font-size="10.00">get_contacts_tle.cpp</text>
</a>
</g>
</g>
<!-- Node1&#45;&gt;Node27 -->
<g id="edge50" class="edge"><title>Node1&#45;&gt;Node27</title>
<path fill="none" stroke="midnightblue" d="M2390.22,-176.577C2356.3,-173.649 2311.27,-163.522 2288,-132 2282.72,-124.849 2282.78,-119.194 2288,-112 2299.25,-96.4998 2345.79,-83.5418 2381.75,-75.5716"/>
<polygon fill="midnightblue" stroke="midnightblue" points="2390.15,-180.079 2400.36,-177.27 2390.62,-173.096 2390.15,-180.079"/>
</g>
<!-- Node30 -->
<g id="node30" class="node"><title>Node30</title>
<g id="a_node30"><a xlink:href="testcontainer_8h.html" target="_top" xlink:title="testcontainer.h">
<polygon fill="white" stroke="black" points="2296.5,-112.5 2296.5,-131.5 2377.5,-131.5 2377.5,-112.5 2296.5,-112.5"/>
<text text-anchor="middle" x="2337" y="-119.5" font-family="Helvetica,sans-Serif" font-size="10.00">testcontainer.h</text>
</a>
</g>
</g>
<!-- Node1&#45;&gt;Node30 -->
<g id="edge30" class="edge"><title>Node1&#45;&gt;Node30</title>
<path fill="none" stroke="midnightblue" d="M2409.66,-163.453C2391.76,-153.483 2367.95,-140.228 2352.55,-131.655"/>
<polygon fill="midnightblue" stroke="midnightblue" points="2407.98,-166.518 2418.42,-168.324 2411.38,-160.402 2407.98,-166.518"/>
</g>
<!-- Node37 -->
<g id="node37" class="node"><title>Node37</title>
<g id="a_node37"><a xlink:href="convertlib_8cpp.html" target="_top" xlink:title="Coordinate conversion library source file. ">
<polygon fill="white" stroke="black" points="2395.5,-112.5 2395.5,-131.5 2472.5,-131.5 2472.5,-112.5 2395.5,-112.5"/>
<text text-anchor="middle" x="2434" y="-119.5" font-family="Helvetica,sans-Serif" font-size="10.00">convertlib.cpp</text>
</a>
</g>
</g>
<!-- Node1&#45;&gt;Node37 -->
<g id="edge39" class="edge"><title>Node1&#45;&gt;Node37</title>
<path fill="none" stroke="midnightblue" d="M2434,-157.805C2434,-148.91 2434,-138.78 2434,-131.751"/>
<polygon fill="midnightblue" stroke="midnightblue" points="2430.5,-158.083 2434,-168.083 2437.5,-158.083 2430.5,-158.083"/>
</g>
<!-- Node38 -->
<g id="node38" class="node"><title>Node38</title>
<g id="a_node38"><a xlink:href="jsonlib_8cpp.html" target="_top" xlink:title="JSON support source file. ">
<polygon fill="white" stroke="black" points="2490.5,-112.5 2490.5,-131.5 2553.5,-131.5 2553.5,-112.5 2490.5,-112.5"/>
<text text-anchor="middle" x="2522" y="-119.5" font-family="Helvetica,sans-Serif" font-size="10.00">jsonlib.cpp</text>
</a>
</g>
</g>
<!-- Node1&#45;&gt;Node38 -->
<g id="edge40" class="edge"><title>Node1&#45;&gt;Node38</title>
<path fill="none" stroke="midnightblue" d="M2456.98,-162.901C2473.11,-152.999 2494.18,-140.071 2507.9,-131.655"/>
<polygon fill="midnightblue" stroke="midnightblue" points="2454.83,-160.111 2448.14,-168.324 2458.49,-166.077 2454.83,-160.111"/>
</g>
<!-- Node39 -->
<g id="node39" class="node"><title>Node39</title>
<g id="a_node39"><a xlink:href="agent__exec-2-0_8cpp.html" target="_top" xlink:title="agent_exec&#45;2&#45;0.cpp">
<polygon fill="white" stroke="black" points="2572,-112.5 2572,-131.5 2674,-131.5 2674,-112.5 2572,-112.5"/>
<text text-anchor="middle" x="2623" y="-119.5" font-family="Helvetica,sans-Serif" font-size="10.00">agent_exec&#45;2&#45;0.cpp</text>
</a>
</g>
</g>
<!-- Node1&#45;&gt;Node39 -->
<g id="edge41" class="edge"><title>Node1&#45;&gt;Node39</title>
<path fill="none" stroke="midnightblue" d="M2474.01,-165.568C2509.67,-155.381 2561.04,-140.703 2593.19,-131.516"/>
<polygon fill="midnightblue" stroke="midnightblue" points="2472.6,-162.331 2463.95,-168.444 2474.52,-169.062 2472.6,-162.331"/>
</g>
<!-- Node40 -->
<g id="node40" class="node"><title>Node40</title>
<g id="a_node40"><a xlink:href="agent__exec_8cpp.html" target="_top" xlink:title="Executive Agent source file. ">
<polygon fill="white" stroke="black" points="2692,-112.5 2692,-131.5 2778,-131.5 2778,-112.5 2692,-112.5"/>
<text text-anchor="middle" x="2735" y="-119.5" font-family="Helvetica,sans-Serif" font-size="10.00">agent_exec.cpp</text>
</a>
</g>
</g>
<!-- Node1&#45;&gt;Node40 -->
<g id="edge42" class="edge"><title>Node1&#45;&gt;Node40</title>
<path fill="none" stroke="midnightblue" d="M2477.84,-169.135C2535.16,-158.852 2634.94,-140.95 2691.9,-130.733"/>
<polygon fill="midnightblue" stroke="midnightblue" points="2476.88,-165.752 2467.65,-170.963 2478.11,-172.642 2476.88,-165.752"/>
</g>
<!-- Node41 -->
<g id="node41" class="node"><title>Node41</title>
<g id="a_node41"><a xlink:href="agent__monitor_8cpp.html" target="_top" xlink:title="agent_monitor.cpp">
<polygon fill="white" stroke="black" points="2796.5,-112.5 2796.5,-131.5 2893.5,-131.5 2893.5,-112.5 2796.5,-112.5"/>
<text text-anchor="middle" x="2845" y="-119.5" font-family="Helvetica,sans-Serif" font-size="10.00">agent_monitor.cpp</text>
</a>
</g>
</g>
<!-- Node1&#45;&gt;Node41 -->
<g id="edge43" class="edge"><title>Node1&#45;&gt;Node41</title>
<path fill="none" stroke="midnightblue" d="M2477.77,-171.807C2544.54,-163.799 2675.8,-147.712 2787,-132 2790.03,-131.572 2793.14,-131.121 2796.28,-130.658"/>
<polygon fill="midnightblue" stroke="midnightblue" points="2477.14,-168.358 2467.62,-173.022 2477.97,-175.309 2477.14,-168.358"/>
</g>
<!-- Node42 -->
<g id="node42" class="node"><title>Node42</title>
<g id="a_node42"><a xlink:href="agent__time_8cpp.html" target="_top" xlink:title="agent_time.cpp">
<polygon fill="white" stroke="black" points="2911.5,-112.5 2911.5,-131.5 2994.5,-131.5 2994.5,-112.5 2911.5,-112.5"/>
<text text-anchor="middle" x="2953" y="-119.5" font-family="Helvetica,sans-Serif" font-size="10.00">agent_time.cpp</text>
</a>
</g>
</g>
<!-- Node1&#45;&gt;Node42 -->
<g id="edge44" class="edge"><title>Node1&#45;&gt;Node42</title>
<path fill="none" stroke="midnightblue" d="M2477.75,-174.012C2560.86,-168.069 2747.19,-153.46 2903,-132 2905.71,-131.627 2908.49,-131.212 2911.3,-130.771"/>
<polygon fill="midnightblue" stroke="midnightblue" points="2477.39,-170.529 2467.66,-174.727 2477.89,-177.511 2477.39,-170.529"/>
</g>
<!-- Node43 -->
<g id="node43" class="node"><title>Node43</title>
<g id="a_node43"><a xlink:href="agent__antenna_8cpp.html" target="_top" xlink:title="Agent Antenna for Satellite Ground Station. ">
<polygon fill="white" stroke="black" points="3012.5,-112.5 3012.5,-131.5 3111.5,-131.5 3111.5,-112.5 3012.5,-112.5"/>
<text text-anchor="middle" x="3062" y="-119.5" font-family="Helvetica,sans-Serif" font-size="10.00">agent_antenna.cpp</text>
</a>
</g>
</g>
<!-- Node1&#45;&gt;Node43 -->
<g id="edge45" class="edge"><title>Node1&#45;&gt;Node43</title>
<path fill="none" stroke="midnightblue" d="M2478,-174.657C2573.82,-169.305 2808.47,-154.856 3004,-132 3006.73,-131.681 3009.53,-131.328 3012.36,-130.954"/>
<polygon fill="midnightblue" stroke="midnightblue" points="2477.61,-171.173 2467.82,-175.22 2477.99,-178.162 2477.61,-171.173"/>
</g>
<!-- Node44 -->
<g id="node44" class="node"><title>Node44</title>
<g id="a_node44"><a xlink:href="check__satnogs_8cpp.html" target="_top" xlink:title="check_satnogs.cpp">
<polygon fill="white" stroke="black" points="3129.5,-112.5 3129.5,-131.5 3230.5,-131.5 3230.5,-112.5 3129.5,-112.5"/>
<text text-anchor="middle" x="3180" y="-119.5" font-family="Helvetica,sans-Serif" font-size="10.00">check_satnogs.cpp</text>
</a>
</g>
</g>
<!-- Node1&#45;&gt;Node44 -->
<g id="edge46" class="edge"><title>Node1&#45;&gt;Node44</title>
<path fill="none" stroke="midnightblue" d="M2477.97,-175.432C2587.09,-171.256 2878.93,-158.341 3121,-132 3123.68,-131.709 3126.42,-131.383 3129.19,-131.035"/>
<polygon fill="midnightblue" stroke="midnightblue" points="2477.55,-171.945 2467.69,-175.82 2477.81,-178.94 2477.55,-171.945"/>
</g>
<!-- Node45 -->
<g id="node45" class="node"><title>Node45</title>
<g id="a_node45"><a xlink:href="shift__solid__thermal_8cpp.html" target="_top" xlink:title="shift_solid_thermal.cpp">
<polygon fill="white" stroke="black" points="3248.5,-112.5 3248.5,-131.5 3365.5,-131.5 3365.5,-112.5 3248.5,-112.5"/>
<text text-anchor="middle" x="3307" y="-119.5" font-family="Helvetica,sans-Serif" font-size="10.00">shift_solid_thermal.cpp</text>
</a>
</g>
</g>
<!-- Node1&#45;&gt;Node45 -->
<g id="edge51" class="edge"><title>Node1&#45;&gt;Node45</title>
<path fill="none" stroke="midnightblue" d="M2477.88,-175.75C2599.29,-172.031 2949.88,-159.542 3240,-132 3242.69,-131.745 3245.43,-131.463 3248.2,-131.161"/>
<polygon fill="midnightblue" stroke="midnightblue" points="2477.75,-172.252 2467.86,-176.053 2477.96,-179.249 2477.75,-172.252"/>
</g>
<!-- Node46 -->
<g id="node46" class="node"><title>Node46</title>
<g id="a_node46"><a xlink:href="tle2state_8cpp.html" target="_top" xlink:title="tle2state.cpp">
<polygon fill="white" stroke="black" points="3383.5,-112.5 3383.5,-131.5 3456.5,-131.5 3456.5,-112.5 3383.5,-112.5"/>
<text text-anchor="middle" x="3420" y="-119.5" font-family="Helvetica,sans-Serif" font-size="10.00">tle2state.cpp</text>
</a>
</g>
</g>
<!-- Node1&#45;&gt;Node46 -->
<g id="edge52" class="edge"><title>Node1&#45;&gt;Node46</title>
<path fill="none" stroke="midnightblue" d="M2478.25,-177.228C2613.27,-177.422 3031.64,-174.304 3375,-132 3377.69,-131.669 3380.46,-131.267 3383.24,-130.819"/>
<polygon fill="midnightblue" stroke="midnightblue" points="2477.92,-173.727 2467.91,-177.206 2477.91,-180.727 2477.92,-173.727"/>
</g>
<!-- Node47 -->
<g id="node47" class="node"><title>Node47</title>
<g id="a_node47"><a xlink:href="udp__listen_8cpp.html" target="_top" xlink:title="udp_listen.cpp">
<polygon fill="white" stroke="black" points="3475,-112.5 3475,-131.5 3555,-131.5 3555,-112.5 3475,-112.5"/>
<text text-anchor="middle" x="3515" y="-119.5" font-family="Helvetica,sans-Serif" font-size="10.00">udp_listen.cpp</text>
</a>
</g>
</g>
<!-- Node1&#45;&gt;Node47 -->
<g id="edge53" class="edge"><title>Node1&#45;&gt;Node47</title>
<path fill="none" stroke="midnightblue" d="M2477.63,-177.247C2620.16,-177.594 3084.83,-175.107 3466,-132 3468.92,-131.67 3471.93,-131.268 3474.96,-130.82"/>
<polygon fill="midnightblue" stroke="midnightblue" points="2477.55,-173.747 2467.54,-177.216 2477.53,-180.747 2477.55,-173.747"/>
</g>
<!-- Node6 -->
<g id="node6" class="node"><title>Node6</title>
<g id="a_node6"><a xlink:href="physicsclass_8cpp.html" target="_top" xlink:title="physicsclass.cpp">
<polygon fill="white" stroke="black" points="0,-56.5 0,-75.5 92,-75.5 92,-56.5 0,-56.5"/>
<text text-anchor="middle" x="46" y="-63.5" font-family="Helvetica,sans-Serif" font-size="10.00">physicsclass.cpp</text>
</a>
</g>
</g>
<!-- Node5&#45;&gt;Node6 -->
<g id="edge5" class="edge"><title>Node5&#45;&gt;Node6</title>
<path fill="none" stroke="midnightblue" d="M1304.59,-112.167C770.673,-58.2226 630.5,-127.013 101,-76 98.1107,-75.7216 95.1433,-75.3849 92.1557,-75.0074"/>
<polygon fill="midnightblue" stroke="midnightblue" points="1304.57,-115.683 1314.88,-113.216 1305.28,-108.719 1304.57,-115.683"/>
</g>
<!-- Node7 -->
<g id="node7" class="node"><title>Node7</title>
<g id="a_node7"><a xlink:href="new__propagator_8cpp.html" target="_top" xlink:title="new_propagator.cpp">
<polygon fill="white" stroke="black" points="110,-56.5 110,-75.5 214,-75.5 214,-56.5 110,-56.5"/>
<text text-anchor="middle" x="162" y="-63.5" font-family="Helvetica,sans-Serif" font-size="10.00">new_propagator.cpp</text>
</a>
</g>
</g>
<!-- Node5&#45;&gt;Node7 -->
<g id="edge6" class="edge"><title>Node5&#45;&gt;Node7</title>
<path fill="none" stroke="midnightblue" d="M1304.91,-112.194C824.728,-62.8426 698.937,-118.889 223,-76 220.121,-75.7406 217.171,-75.4358 214.197,-75.0981"/>
<polygon fill="midnightblue" stroke="midnightblue" points="1304.57,-115.677 1314.87,-113.228 1305.29,-108.715 1304.57,-115.677"/>
</g>
<!-- Node8&#45;&gt;Node7 -->
<g id="edge27" class="edge"><title>Node8&#45;&gt;Node7</title>
<path fill="none" stroke="midnightblue" d="M1404.75,-112.09C881.909,-50.7955 743.639,-122.173 223,-76 220.121,-75.7447 217.171,-75.4431 214.196,-75.1079"/>
<polygon fill="midnightblue" stroke="midnightblue" points="1404.48,-115.582 1414.82,-113.281 1405.3,-108.63 1404.48,-115.582"/>
</g>
<!-- Node9 -->
<g id="node9" class="node"><title>Node9</title>
<g id="a_node9"><a xlink:href="agent__calc_8cpp.html" target="_top" xlink:title="Demonstration calculator Agent. ">
<polygon fill="white" stroke="black" points="686.5,-56.5 686.5,-75.5 769.5,-75.5 769.5,-56.5 686.5,-56.5"/>
<text text-anchor="middle" x="728" y="-63.5" font-family="Helvetica,sans-Serif" font-size="10.00">agent_calc.cpp</text>
</a>
</g>
</g>
<!-- Node8&#45;&gt;Node9 -->
<g id="edge8" class="edge"><title>Node8&#45;&gt;Node9</title>
<path fill="none" stroke="midnightblue" d="M1404.85,-112.054C1127.11,-76.0388 1052.38,-108.439 778,-76 775.285,-75.679 772.494,-75.3037 769.685,-74.8921"/>
<polygon fill="midnightblue" stroke="midnightblue" points="1404.44,-115.531 1414.81,-113.365 1405.35,-108.591 1404.44,-115.531"/>
</g>
<!-- Node10 -->
<g id="node10" class="node"><title>Node10</title>
<g id="a_node10"><a xlink:href="propagator__simple_8cpp.html" target="_top" xlink:title="propagator_simple.cpp">
<polygon fill="white" stroke="black" points="787.5,-56.5 787.5,-75.5 902.5,-75.5 902.5,-56.5 787.5,-56.5"/>
<text text-anchor="middle" x="845" y="-63.5" font-family="Helvetica,sans-Serif" font-size="10.00">propagator_simple.cpp</text>
</a>
</g>
</g>
<!-- Node8&#45;&gt;Node10 -->
<g id="edge9" class="edge"><title>Node8&#45;&gt;Node10</title>
<path fill="none" stroke="midnightblue" d="M1404.62,-111.992C1186.24,-81.8967 1127.65,-98.3212 912,-76 908.965,-75.6858 905.855,-75.3427 902.717,-74.9796"/>
<polygon fill="midnightblue" stroke="midnightblue" points="1404.42,-115.497 1414.8,-113.413 1405.38,-108.565 1404.42,-115.497"/>
</g>
<!-- Node11 -->
<g id="node11" class="node"><title>Node11</title>
<g id="a_node11"><a xlink:href="testengine_8cpp.html" target="_top" xlink:title="Command line simulator. ">
<polygon fill="white" stroke="black" points="921,-56.5 921,-75.5 1001,-75.5 1001,-56.5 921,-56.5"/>
<text text-anchor="middle" x="961" y="-63.5" font-family="Helvetica,sans-Serif" font-size="10.00">testengine.cpp</text>
</a>
</g>
</g>
<!-- Node8&#45;&gt;Node11 -->
<g id="edge10" class="edge"><title>Node8&#45;&gt;Node11</title>
<path fill="none" stroke="midnightblue" d="M1404.72,-111.974C1229.46,-86.3654 1181.84,-99.5426 1010,-76 1007.09,-75.6008 1004.08,-75.149 1001.06,-74.6654"/>
<polygon fill="midnightblue" stroke="midnightblue" points="1404.39,-115.464 1414.8,-113.469 1405.42,-108.54 1404.39,-115.464"/>
</g>
<!-- Node12 -->
<g id="node12" class="node"><title>Node12</title>
<g id="a_node12"><a xlink:href="physicslib_8cpp.html" target="_top" xlink:title="physicslib.cpp">
<polygon fill="white" stroke="black" points="1019.5,-56.5 1019.5,-75.5 1098.5,-75.5 1098.5,-56.5 1019.5,-56.5"/>
<text text-anchor="middle" x="1059" y="-63.5" font-family="Helvetica,sans-Serif" font-size="10.00">physicslib.cpp</text>
</a>
</g>
</g>
<!-- Node8&#45;&gt;Node12 -->
<g id="edge11" class="edge"><title>Node8&#45;&gt;Node12</title>
<path fill="none" stroke="midnightblue" d="M1404.68,-111.909C1272.63,-90.5799 1236.67,-95.5698 1108,-76 1104.92,-75.5318 1101.74,-75.0173 1098.55,-74.4788"/>
<polygon fill="midnightblue" stroke="midnightblue" points="1404.35,-115.401 1414.78,-113.561 1405.48,-108.493 1404.35,-115.401"/>
</g>
<!-- Node13 -->
<g id="node13" class="node"><title>Node13</title>
<g id="a_node13"><a xlink:href="agent-2-0_8cpp.html" target="_top" xlink:title="agent&#45;2&#45;0.cpp">
<polygon fill="white" stroke="black" points="1117,-56.5 1117,-75.5 1193,-75.5 1193,-56.5 1117,-56.5"/>
<text text-anchor="middle" x="1155" y="-63.5" font-family="Helvetica,sans-Serif" font-size="10.00">agent&#45;2&#45;0.cpp</text>
</a>
</g>
</g>
<!-- Node8&#45;&gt;Node13 -->
<g id="edge12" class="edge"><title>Node8&#45;&gt;Node13</title>
<path fill="none" stroke="midnightblue" d="M1404.85,-111.824C1313.94,-94.4195 1289.45,-92.0888 1202,-76 1199.14,-75.4739 1196.18,-74.9234 1193.21,-74.365"/>
<polygon fill="midnightblue" stroke="midnightblue" points="1404.27,-115.278 1414.75,-113.73 1405.59,-108.404 1404.27,-115.278"/>
</g>
<!-- Node14 -->
<g id="node14" class="node"><title>Node14</title>
<g id="a_node14"><a xlink:href="agent_8cpp.html" target="_top" xlink:title="Agent control program source. ">
<polygon fill="white" stroke="black" points="1211.5,-56.5 1211.5,-75.5 1270.5,-75.5 1270.5,-56.5 1211.5,-56.5"/>
<text text-anchor="middle" x="1241" y="-63.5" font-family="Helvetica,sans-Serif" font-size="10.00">agent.cpp</text>
</a>
</g>
</g>
<!-- Node8&#45;&gt;Node14 -->
<g id="edge13" class="edge"><title>Node8&#45;&gt;Node14</title>
<path fill="none" stroke="midnightblue" d="M1406.21,-109.89C1365.8,-99.3994 1306.25,-83.9398 1270.77,-74.729"/>
<polygon fill="midnightblue" stroke="midnightblue" points="1405.48,-113.318 1416.04,-112.444 1407.24,-106.543 1405.48,-113.318"/>
</g>
<!-- Node15 -->
<g id="node15" class="node"><title>Node15</title>
<g id="a_node15"><a xlink:href="agent__data-2-0_8cpp.html" target="_top" xlink:title="agent_data&#45;2&#45;0.cpp">
<polygon fill="white" stroke="black" points="1289,-56.5 1289,-75.5 1389,-75.5 1389,-56.5 1289,-56.5"/>
<text text-anchor="middle" x="1339" y="-63.5" font-family="Helvetica,sans-Serif" font-size="10.00">agent_data&#45;2&#45;0.cpp</text>
</a>
</g>
</g>
<!-- Node8&#45;&gt;Node15 -->
<g id="edge14" class="edge"><title>Node8&#45;&gt;Node15</title>
<path fill="none" stroke="midnightblue" d="M1422.24,-107.862C1401.84,-97.8492 1374.33,-84.3458 1356.63,-75.6545"/>
<polygon fill="midnightblue" stroke="midnightblue" points="1420.81,-111.059 1431.33,-112.324 1423.89,-104.775 1420.81,-111.059"/>
</g>
<!-- Node16 -->
<g id="node16" class="node"><title>Node16</title>
<g id="a_node16"><a xlink:href="agent__data_8cpp.html" target="_top" xlink:title="agent_data.cpp">
<polygon fill="white" stroke="black" points="1407.5,-56.5 1407.5,-75.5 1490.5,-75.5 1490.5,-56.5 1407.5,-56.5"/>
<text text-anchor="middle" x="1449" y="-63.5" font-family="Helvetica,sans-Serif" font-size="10.00">agent_data.cpp</text>
</a>
</g>
</g>
<!-- Node8&#45;&gt;Node16 -->
<g id="edge15" class="edge"><title>Node8&#45;&gt;Node16</title>
<path fill="none" stroke="midnightblue" d="M1449,-101.805C1449,-92.9102 1449,-82.7798 1449,-75.7511"/>
<polygon fill="midnightblue" stroke="midnightblue" points="1445.5,-102.083 1449,-112.083 1452.5,-102.083 1445.5,-102.083"/>
</g>
<!-- Node17 -->
<g id="node17" class="node"><title>Node17</title>
<g id="a_node17"><a xlink:href="cosmos_8cpp.html" target="_top" xlink:title="cosmos.cpp">
<polygon fill="white" stroke="black" points="1509,-56.5 1509,-75.5 1579,-75.5 1579,-56.5 1509,-56.5"/>
<text text-anchor="middle" x="1544" y="-63.5" font-family="Helvetica,sans-Serif" font-size="10.00">cosmos.cpp</text>
</a>
</g>
</g>
<!-- Node8&#45;&gt;Node17 -->
<g id="edge16" class="edge"><title>Node8&#45;&gt;Node17</title>
<path fill="none" stroke="midnightblue" d="M1473.32,-107.177C1490.8,-97.2407 1513.83,-84.1492 1528.77,-75.6545"/>
<polygon fill="midnightblue" stroke="midnightblue" points="1471.23,-104.339 1464.26,-112.324 1474.69,-110.425 1471.23,-104.339"/>
</g>
<!-- Node18 -->
<g id="node18" class="node"><title>Node18</title>
<g id="a_node18"><a xlink:href="agent__control_8cpp.html" target="_top" xlink:title="Agent Control for Satellite Ground Station. ">
<polygon fill="white" stroke="black" points="1597,-56.5 1597,-75.5 1691,-75.5 1691,-56.5 1597,-56.5"/>
<text text-anchor="middle" x="1644" y="-63.5" font-family="Helvetica,sans-Serif" font-size="10.00">agent_control.cpp</text>
</a>
</g>
</g>
<!-- Node8&#45;&gt;Node18 -->
<g id="edge17" class="edge"><title>Node8&#45;&gt;Node18</title>
<path fill="none" stroke="midnightblue" d="M1489.81,-109.699C1526.61,-99.507 1579.93,-84.7429 1613.25,-75.5164"/>
<polygon fill="midnightblue" stroke="midnightblue" points="1488.6,-106.402 1479.9,-112.444 1490.47,-113.148 1488.6,-106.402"/>
</g>
<!-- Node19 -->
<g id="node19" class="node"><title>Node19</title>
<g id="a_node19"><a xlink:href="agent__node_8cpp.html" target="_top" xlink:title="agent_node.cpp">
<polygon fill="white" stroke="black" points="1709,-56.5 1709,-75.5 1795,-75.5 1795,-56.5 1709,-56.5"/>
<text text-anchor="middle" x="1752" y="-63.5" font-family="Helvetica,sans-Serif" font-size="10.00">agent_node.cpp</text>
</a>
</g>
</g>
<!-- Node8&#45;&gt;Node19 -->
<g id="edge18" class="edge"><title>Node8&#45;&gt;Node19</title>
<path fill="none" stroke="midnightblue" d="M1493.1,-113.141C1550.91,-102.838 1651.68,-84.8791 1708.96,-74.6705"/>
<polygon fill="midnightblue" stroke="midnightblue" points="1492.4,-109.71 1483.17,-114.91 1493.63,-116.602 1492.4,-109.71"/>
</g>
<!-- Node20 -->
<g id="node20" class="node"><title>Node20</title>
<g id="a_node20"><a xlink:href="agent__orig_8cpp.html" target="_top" xlink:title="agent_orig.cpp">
<polygon fill="white" stroke="black" points="1813,-56.5 1813,-75.5 1893,-75.5 1893,-56.5 1813,-56.5"/>
<text text-anchor="middle" x="1853" y="-63.5" font-family="Helvetica,sans-Serif" font-size="10.00">agent_orig.cpp</text>
</a>
</g>
</g>
<!-- Node8&#45;&gt;Node20 -->
<g id="edge19" class="edge"><title>Node8&#45;&gt;Node20</title>
<path fill="none" stroke="midnightblue" d="M1493.61,-116.151C1560.99,-108.644 1692.7,-93.2624 1804,-76 1806.91,-75.5493 1809.9,-75.0596 1812.92,-74.5491"/>
<polygon fill="midnightblue" stroke="midnightblue" points="1492.91,-112.707 1483.36,-117.287 1493.68,-119.664 1492.91,-112.707"/>
</g>
<!-- Node21 -->
<g id="node21" class="node"><title>Node21</title>
<g id="a_node21"><a xlink:href="agent__physics_8cpp.html" target="_top" xlink:title="agent_physics.cpp">
<polygon fill="white" stroke="black" points="1911,-56.5 1911,-75.5 2009,-75.5 2009,-56.5 1911,-56.5"/>
<text text-anchor="middle" x="1960" y="-63.5" font-family="Helvetica,sans-Serif" font-size="10.00">agent_physics.cpp</text>
</a>
</g>
</g>
<!-- Node8&#45;&gt;Node21 -->
<g id="edge20" class="edge"><title>Node8&#45;&gt;Node21</title>
<path fill="none" stroke="midnightblue" d="M1493.52,-117.394C1574.82,-110.629 1752.68,-94.9866 1902,-76 1904.93,-75.6272 1907.94,-75.2234 1910.98,-74.8004"/>
<polygon fill="midnightblue" stroke="midnightblue" points="1492.85,-113.938 1483.17,-118.251 1493.42,-120.914 1492.85,-113.938"/>
</g>
<!-- Node22 -->
<g id="node22" class="node"><title>Node22</title>
<g id="a_node22"><a xlink:href="agent__transmitter_8cpp.html" target="_top" xlink:title="agent_transmitter.cpp">
<polygon fill="white" stroke="black" points="232.5,-56.5 232.5,-75.5 343.5,-75.5 343.5,-56.5 232.5,-56.5"/>
<text text-anchor="middle" x="288" y="-63.5" font-family="Helvetica,sans-Serif" font-size="10.00">agent_transmitter.cpp</text>
</a>
</g>
</g>
<!-- Node8&#45;&gt;Node22 -->
<g id="edge21" class="edge"><title>Node8&#45;&gt;Node22</title>
<path fill="none" stroke="midnightblue" d="M1404.81,-112.089C939.369,-56.6754 816.244,-115.882 353,-76 349.935,-75.7362 346.794,-75.4279 343.627,-75.0874"/>
<polygon fill="midnightblue" stroke="midnightblue" points="1404.47,-115.574 1414.82,-113.292 1405.31,-108.624 1404.47,-115.574"/>
</g>
<!-- Node23 -->
<g id="node23" class="node"><title>Node23</title>
<g id="a_node23"><a xlink:href="agent__transmitter2_8cpp.html" target="_top" xlink:title="agent_transmitter2.cpp">
<polygon fill="white" stroke="black" points="362,-56.5 362,-75.5 478,-75.5 478,-56.5 362,-56.5"/>
<text text-anchor="middle" x="420" y="-63.5" font-family="Helvetica,sans-Serif" font-size="10.00">agent_transmitter2.cpp</text>
</a>
</g>
</g>
<!-- Node8&#45;&gt;Node23 -->
<g id="edge22" class="edge"><title>Node8&#45;&gt;Node23</title>
<path fill="none" stroke="midnightblue" d="M1404.86,-112.086C998.588,-62.7444 890.954,-110.965 487,-76 484.077,-75.747 481.086,-75.4575 478.068,-75.1412"/>
<polygon fill="midnightblue" stroke="midnightblue" points="1404.47,-115.564 1414.82,-113.308 1405.32,-108.616 1404.47,-115.564"/>
</g>
<!-- Node8&#45;&gt;Node24 -->
<g id="edge23" class="edge"><title>Node8&#45;&gt;Node24</title>
<path fill="none" stroke="midnightblue" d="M1493.27,-118.673C1589.16,-113.376 1823.08,-99.0607 2018,-76 2021.08,-75.6351 2024.26,-75.2266 2027.45,-74.7904"/>
<polygon fill="midnightblue" stroke="midnightblue" points="1492.88,-115.189 1483.08,-119.231 1493.26,-122.179 1492.88,-115.189"/>
</g>
<!-- Node8&#45;&gt;Node25 -->
<g id="edge24" class="edge"><title>Node8&#45;&gt;Node25</title>
<path fill="none" stroke="midnightblue" d="M1493.42,-119.31C1602.32,-114.897 1891.2,-101.559 2131,-76 2134.09,-75.671 2137.26,-75.301 2140.45,-74.9036"/>
<polygon fill="midnightblue" stroke="midnightblue" points="1493,-115.824 1483.15,-119.722 1493.28,-122.819 1493,-115.824"/>
</g>
<!-- Node8&#45;&gt;Node26 -->
<g id="edge25" class="edge"><title>Node8&#45;&gt;Node26</title>
<path fill="none" stroke="midnightblue" d="M1493.18,-120.127C1614.64,-117.381 1963.68,-107.163 2252,-76 2255.23,-75.6508 2258.56,-75.2421 2261.91,-74.795"/>
<polygon fill="midnightblue" stroke="midnightblue" points="1493.07,-116.628 1483.15,-120.348 1493.22,-123.627 1493.07,-116.628"/>
</g>
<!-- Node8&#45;&gt;Node27 -->
<g id="edge26" class="edge"><title>Node8&#45;&gt;Node27</title>
<path fill="none" stroke="midnightblue" d="M1493.26,-120.275C1625.57,-117.794 2029.64,-107.949 2363,-76 2366.08,-75.7049 2369.24,-75.3666 2372.42,-74.9983"/>
<polygon fill="midnightblue" stroke="midnightblue" points="1493.05,-116.778 1483.11,-120.46 1493.17,-123.777 1493.05,-116.778"/>
</g>
<!-- Node28 -->
<g id="node28" class="node"><title>Node28</title>
<g id="a_node28"><a xlink:href="propagator_8cpp.html" target="_top" xlink:title="propagator.cpp">
<polygon fill="white" stroke="black" points="496.5,-56.5 496.5,-75.5 577.5,-75.5 577.5,-56.5 496.5,-56.5"/>
<text text-anchor="middle" x="537" y="-63.5" font-family="Helvetica,sans-Serif" font-size="10.00">propagator.cpp</text>
</a>
</g>
</g>
<!-- Node8&#45;&gt;Node28 -->
<g id="edge28" class="edge"><title>Node8&#45;&gt;Node28</title>
<path fill="none" stroke="midnightblue" d="M1404.84,-112.077C1042.31,-67.3894 945.204,-116.677 586,-76 583.25,-75.6886 580.422,-75.3144 577.578,-74.898"/>
<polygon fill="midnightblue" stroke="midnightblue" points="1404.46,-115.557 1414.82,-113.323 1405.33,-108.611 1404.46,-115.557"/>
</g>
<!-- Node29 -->
<g id="node29" class="node"><title>Node29</title>
<g id="a_node29"><a xlink:href="state2tle_8cpp.html" target="_top" xlink:title="state2tle.cpp">
<polygon fill="white" stroke="black" points="595.5,-56.5 595.5,-75.5 668.5,-75.5 668.5,-56.5 595.5,-56.5"/>
<text text-anchor="middle" x="632" y="-63.5" font-family="Helvetica,sans-Serif" font-size="10.00">state2tle.cpp</text>
</a>
</g>
</g>
<!-- Node8&#45;&gt;Node29 -->
<g id="edge29" class="edge"><title>Node8&#45;&gt;Node29</title>
<path fill="none" stroke="midnightblue" d="M1404.72,-112.054C1082.48,-71.5639 995.628,-115.51 677,-76 674.312,-75.6667 671.544,-75.2631 668.765,-74.8139"/>
<polygon fill="midnightblue" stroke="midnightblue" points="1404.45,-115.548 1414.81,-113.34 1405.34,-108.604 1404.45,-115.548"/>
</g>
<!-- Node31 -->
<g id="node31" class="node"><title>Node31</title>
<g id="a_node31"><a xlink:href="eci2kep__test_8h.html" target="_top" xlink:title="eci2kep_test.h">
<polygon fill="white" stroke="black" points="2498,-56.5 2498,-75.5 2578,-75.5 2578,-56.5 2498,-56.5"/>
<text text-anchor="middle" x="2538" y="-63.5" font-family="Helvetica,sans-Serif" font-size="10.00">eci2kep_test.h</text>
</a>
</g>
</g>
<!-- Node30&#45;&gt;Node31 -->
<g id="edge31" class="edge"><title>Node30&#45;&gt;Node31</title>
<path fill="none" stroke="midnightblue" d="M2378.58,-109.829C2416.53,-99.6333 2471.81,-84.7823 2506.3,-75.5164"/>
<polygon fill="midnightblue" stroke="midnightblue" points="2377.6,-106.469 2368.85,-112.444 2379.41,-113.229 2377.6,-106.469"/>
</g>
<!-- Node33 -->
<g id="node33" class="node"><title>Node33</title>
<g id="a_node33"><a xlink:href="testcontainer_8cpp.html" target="_top" xlink:title="testcontainer.cpp">
<polygon fill="white" stroke="black" points="2581,-0.5 2581,-19.5 2673,-19.5 2673,-0.5 2581,-0.5"/>
<text text-anchor="middle" x="2627" y="-7.5" font-family="Helvetica,sans-Serif" font-size="10.00">testcontainer.cpp</text>
</a>
</g>
</g>
<!-- Node30&#45;&gt;Node33 -->
<g id="edge38" class="edge"><title>Node30&#45;&gt;Node33</title>
<path fill="none" stroke="midnightblue" d="M2387.66,-111.881C2460.72,-98.73 2587,-76 2587,-76 2607.36,-62.1122 2619.25,-34.0921 2624.23,-19.8069"/>
<polygon fill="midnightblue" stroke="midnightblue" points="2386.94,-108.454 2377.72,-113.67 2388.19,-115.343 2386.94,-108.454"/>
</g>
<!-- Node34 -->
<g id="node34" class="node"><title>Node34</title>
<g id="a_node34"><a xlink:href="mainwindow_8cpp.html" target="_top" xlink:title="mainwindow.cpp">
<polygon fill="white" stroke="black" points="2634.5,-56.5 2634.5,-75.5 2723.5,-75.5 2723.5,-56.5 2634.5,-56.5"/>
<text text-anchor="middle" x="2679" y="-63.5" font-family="Helvetica,sans-Serif" font-size="10.00">mainwindow.cpp</text>
</a>
</g>
</g>
<!-- Node30&#45;&gt;Node34 -->
<g id="edge34" class="edge"><title>Node30&#45;&gt;Node34</title>
<path fill="none" stroke="midnightblue" d="M2387.74,-111.94C2434.11,-104.455 2564.73,-84.4559 2634.38,-73.8132"/>
<polygon fill="midnightblue" stroke="midnightblue" points="2386.95,-108.523 2377.64,-113.596 2388.08,-115.431 2386.95,-108.523"/>
</g>
<!-- Node35 -->
<g id="node35" class="node"><title>Node35</title>
<g id="a_node35"><a xlink:href="rearth__test_8h.html" target="_top" xlink:title="rearth_test.h">
<polygon fill="white" stroke="black" points="2741.5,-56.5 2741.5,-75.5 2812.5,-75.5 2812.5,-56.5 2741.5,-56.5"/>
<text text-anchor="middle" x="2777" y="-63.5" font-family="Helvetica,sans-Serif" font-size="10.00">rearth_test.h</text>
</a>
</g>
</g>
<!-- Node30&#45;&gt;Node35 -->
<g id="edge35" class="edge"><title>Node30&#45;&gt;Node35</title>
<path fill="none" stroke="midnightblue" d="M2387.92,-111.981C2541.85,-90.6718 2583.47,-99.0144 2733,-76 2735.62,-75.5967 2738.32,-75.1418 2741.03,-74.6561"/>
<polygon fill="midnightblue" stroke="midnightblue" points="2387.03,-108.571 2377.62,-113.428 2388.01,-115.503 2387.03,-108.571"/>
</g>
<!-- Node32 -->
<g id="node32" class="node"><title>Node32</title>
<g id="a_node32"><a xlink:href="eci2kep__test_8cpp.html" target="_top" xlink:title="eci2kep_test.cpp">
<polygon fill="white" stroke="black" points="2471.5,-0.5 2471.5,-19.5 2562.5,-19.5 2562.5,-0.5 2471.5,-0.5"/>
<text text-anchor="middle" x="2517" y="-7.5" font-family="Helvetica,sans-Serif" font-size="10.00">eci2kep_test.cpp</text>
</a>
</g>
</g>
<!-- Node31&#45;&gt;Node32 -->
<g id="edge32" class="edge"><title>Node31&#45;&gt;Node32</title>
<path fill="none" stroke="midnightblue" d="M2530.88,-46.6897C2527.34,-37.589 2523.23,-27.0141 2520.4,-19.7511"/>
<polygon fill="midnightblue" stroke="midnightblue" points="2527.65,-48.0315 2534.53,-56.083 2534.17,-45.4944 2527.65,-48.0315"/>
</g>
<!-- Node31&#45;&gt;Node33 -->
<g id="edge33" class="edge"><title>Node31&#45;&gt;Node33</title>
<path fill="none" stroke="midnightblue" d="M2561.24,-50.9005C2577.56,-40.9986 2598.87,-28.0705 2612.74,-19.6545"/>
<polygon fill="midnightblue" stroke="midnightblue" points="2559.03,-48.1444 2552.3,-56.324 2562.66,-54.1289 2559.03,-48.1444"/>
</g>
<!-- Node35&#45;&gt;Node33 -->
<g id="edge37" class="edge"><title>Node35&#45;&gt;Node33</title>
<path fill="none" stroke="midnightblue" d="M2743.78,-53.0392C2715.55,-42.8786 2675.74,-28.5457 2650.66,-19.5164"/>
<polygon fill="midnightblue" stroke="midnightblue" points="2742.64,-56.3494 2753.23,-56.4435 2745.01,-49.7632 2742.64,-56.3494"/>
</g>
<!-- Node36 -->
<g id="node36" class="node"><title>Node36</title>
<g id="a_node36"><a xlink:href="rearth__test_8cpp.html" target="_top" xlink:title="rearth_test.cpp">
<polygon fill="white" stroke="black" points="2736,-0.5 2736,-19.5 2818,-19.5 2818,-0.5 2736,-0.5"/>
<text text-anchor="middle" x="2777" y="-7.5" font-family="Helvetica,sans-Serif" font-size="10.00">rearth_test.cpp</text>
</a>
</g>
</g>
<!-- Node35&#45;&gt;Node36 -->
<g id="edge36" class="edge"><title>Node35&#45;&gt;Node36</title>
<path fill="none" stroke="midnightblue" d="M2777,-45.8045C2777,-36.9102 2777,-26.7798 2777,-19.7511"/>
<polygon fill="midnightblue" stroke="midnightblue" points="2773.5,-46.083 2777,-56.083 2780.5,-46.083 2773.5,-46.083"/>
</g>
</g>
</svg>
        <g id="navigator" transform="translate(0 0)" fill="#404254">
                <rect fill="#f2f5e9" fill-opacity="0.5" stroke="#606060" stroke-width=".5" x="0" y="0" width="60" height="60"/>
                <use id="zoomplus" xlink:href="#zoomPlus" x="17" y="9" onmousedown="handleZoom(evt,'in')"/>
                <use id="zoomminus" xlink:href="#zoomMin" x="42" y="9" onmousedown="handleZoom(evt,'out')"/>
                <use id="reset" xlink:href="#resetDef" x="30" y="36" onmousedown="handleReset()"/>
                <g id="arrowUp" xlink:href="#dirArrow" transform="translate(30 24)" onmousedown="handlePan(0,-1)">
                  <use xlink:href="#rim" fill="#404040">
                        <set attributeName="fill" to="#808080" begin="arrowUp.mouseover" end="arrowUp.mouseout"/>
                  </use>
                  <path fill="none" stroke="white" stroke-width="1.5" d="M0,-3.0v7 M-2.5,-0.5L0,-3.0L2.5,-0.5"/>
                </g>
                <g id="arrowRight" xlink:href="#dirArrow" transform="rotate(90) translate(36 -43)" onmousedown="handlePan(1,0)">
                  <use xlink:href="#rim" fill="#404040">
                        <set attributeName="fill" to="#808080" begin="arrowRight.mouseover" end="arrowRight.mouseout"/>
                  </use>
                  <path fill="none" stroke="white" stroke-width="1.5" d="M0,-3.0v7 M-2.5,-0.5L0,-3.0L2.5,-0.5"/>
                </g>
                <g id="arrowDown" xlink:href="#dirArrow" transform="rotate(180) translate(-30 -48)" onmousedown="handlePan(0,1)">
                  <use xlink:href="#rim" fill="#404040">
                        <set attributeName="fill" to="#808080" begin="arrowDown.mouseover" end="arrowDown.mouseout"/>
                  </use>
                  <path fill="none" stroke="white" stroke-width="1.5" d="M0,-3.0v7 M-2.5,-0.5L0,-3.0L2.5,-0.5"/>
                </g>
                <g id="arrowLeft" xlink:href="#dirArrow" transform="rotate(270) translate(-36 17)" onmousedown="handlePan(-1,0)">
                  <use xlink:href="#rim" fill="#404040">
                        <set attributeName="fill" to="#808080" begin="arrowLeft.mouseover" end="arrowLeft.mouseout"/>
                  </use>
                  <path fill="none" stroke="white" stroke-width="1.5" d="M0,-3.0v7 M-2.5,-0.5L0,-3.0L2.5,-0.5"/>
                </g>
        </g>
        <svg viewBox="0 0 15 15" width="100%" height="30px" preserveAspectRatio="xMaxYMin meet">
         <g id="arrow_out" transform="scale(0.3 0.3)">
          <a xlink:href="convertlib_8h__dep__incl_org.svg" target="_base">
           <rect id="button" ry="5" rx="5" y="6" x="6" height="38" width="38"
                fill="#f2f5e9" fill-opacity="0.5" stroke="#606060" stroke-width="1.0"/>
           <path id="arrow"
             d="M 11.500037,31.436501 C 11.940474,20.09759 22.043105,11.32322 32.158766,21.979434 L 37.068811,17.246167 C 37.068811,17.246167 37.088388,32 37.088388,32 L 22.160133,31.978069 C 22.160133,31.978069 26.997745,27.140456 26.997745,27.140456 C 18.528582,18.264221 13.291696,25.230495 11.500037,31.436501 z"
             style="fill:#404040;"/>
          </a>
         </g>
        </svg>
</svg>
