<?xml version="1.0" encoding="UTF-8" standalone="no"?>
<!DOCTYPE svg PUBLIC "-//W3C//DTD SVG 1.1//EN"
 "http://www.w3.org/Graphics/SVG/1.1/DTD/svg11.dtd">
<!-- Generated by graphviz version 2.38.0 (20140413.2041)
 -->
<!-- Title: cosmos&#45;defs.h Pages: 1 -->
<svg width="451pt" height="84pt"
 viewBox="0.00 0.00 451.00 84.00" xmlns="http://www.w3.org/2000/svg" xmlns:xlink="http://www.w3.org/1999/xlink">
<g id="graph0" class="graph" transform="scale(1 1) rotate(0) translate(4 80)">
<title>cosmos&#45;defs.h</title>
<polygon fill="white" stroke="none" points="-4,4 -4,-80 447,-80 447,4 -4,4"/>
<!-- Node1 -->
<g id="node1" class="node"><title>Node1</title>
<polygon fill="#bfbfbf" stroke="black" points="143,-56.5 143,-75.5 224,-75.5 224,-56.5 143,-56.5"/>
<text text-anchor="middle" x="183.5" y="-63.5" font-family="Helvetica,sans-Serif" font-size="10.00">cosmos&#45;defs.h</text>
</g>
<!-- Node2 -->
<g id="node2" class="node"><title>Node2</title>
<polygon fill="white" stroke="#bfbfbf" points="0,-0.5 0,-19.5 35,-19.5 35,-0.5 0,-0.5"/>
<text text-anchor="middle" x="17.5" y="-7.5" font-family="Helvetica,sans-Serif" font-size="10.00">map</text>
</g>
<!-- Node1&#45;&gt;Node2 -->
<g id="edge1" class="edge"><title>Node1&#45;&gt;Node2</title>
<path fill="none" stroke="midnightblue" d="M156.83,-56.4416C130.691,-48.0368 89.4778,-34.7415 44.7948,-20.0769"/>
<polygon fill="midnightblue" stroke="midnightblue" points="45.8044,-16.7246 35.2115,-16.9282 43.6193,-23.3749 45.8044,-16.7246"/>
</g>
<!-- Node3 -->
<g id="node3" class="node"><title>Node3</title>
<polygon fill="white" stroke="#bfbfbf" points="53.5,-0.5 53.5,-19.5 97.5,-19.5 97.5,-0.5 53.5,-0.5"/>
<text text-anchor="middle" x="75.5" y="-7.5" font-family="Helvetica,sans-Serif" font-size="10.00">vector</text>
</g>
<!-- Node1&#45;&gt;Node3 -->
<g id="edge2" class="edge"><title>Node1&#45;&gt;Node3</title>
<path fill="none" stroke="midnightblue" d="M166.148,-56.324C148.828,-47.6641 121.985,-34.2424 101.998,-24.249"/>
<polygon fill="midnightblue" stroke="midnightblue" points="103.319,-20.9962 92.809,-19.6545 100.188,-27.2572 103.319,-20.9962"/>
</g>
<!-- Node4 -->
<g id="node4" class="node"><title>Node4</title>
<polygon fill="white" stroke="#bfbfbf" points="115,-0.5 115,-19.5 144,-19.5 144,-0.5 115,-0.5"/>
<text text-anchor="middle" x="129.5" y="-7.5" font-family="Helvetica,sans-Serif" font-size="10.00">list</text>
</g>
<!-- Node1&#45;&gt;Node4 -->
<g id="edge3" class="edge"><title>Node1&#45;&gt;Node4</title>
<path fill="none" stroke="midnightblue" d="M174.583,-56.083C166.72,-48.2195 155.069,-36.5688 145.581,-27.0813"/>
<polygon fill="midnightblue" stroke="midnightblue" points="147.797,-24.3473 138.251,-19.7511 142.847,-29.2971 147.797,-24.3473"/>
</g>
<!-- Node5 -->
<g id="node5" class="node"><title>Node5</title>
<polygon fill="white" stroke="#bfbfbf" points="162,-0.5 162,-19.5 205,-19.5 205,-0.5 162,-0.5"/>
<text text-anchor="middle" x="183.5" y="-7.5" font-family="Helvetica,sans-Serif" font-size="10.00">queue</text>
</g>
<!-- Node1&#45;&gt;Node5 -->
<g id="edge4" class="edge"><title>Node1&#45;&gt;Node5</title>
<path fill="none" stroke="midnightblue" d="M183.5,-56.083C183.5,-49.0059 183.5,-38.8611 183.5,-29.9865"/>
<polygon fill="midnightblue" stroke="midnightblue" points="187,-29.751 183.5,-19.7511 180,-29.7511 187,-29.751"/>
</g>
<!-- Node6 -->
<g id="node6" class="node"><title>Node6</title>
<polygon fill="white" stroke="#bfbfbf" points="223.5,-0.5 223.5,-19.5 267.5,-19.5 267.5,-0.5 223.5,-0.5"/>
<text text-anchor="middle" x="245.5" y="-7.5" font-family="Helvetica,sans-Serif" font-size="10.00">thread</text>
</g>
<!-- Node1&#45;&gt;Node6 -->
<g id="edge5" class="edge"><title>Node1&#45;&gt;Node6</title>
<path fill="none" stroke="midnightblue" d="M193.461,-56.324C202.627,-48.3414 216.437,-36.3128 227.528,-26.6529"/>
<polygon fill="midnightblue" stroke="midnightblue" points="230.115,-29.041 235.357,-19.8339 225.518,-23.7624 230.115,-29.041"/>
</g>
<!-- Node7 -->
<g id="node7" class="node"><title>Node7</title>
<polygon fill="white" stroke="#bfbfbf" points="285.5,-0.5 285.5,-19.5 329.5,-19.5 329.5,-0.5 285.5,-0.5"/>
<text text-anchor="middle" x="307.5" y="-7.5" font-family="Helvetica,sans-Serif" font-size="10.00">mutex</text>
</g>
<!-- Node1&#45;&gt;Node7 -->
<g id="edge6" class="edge"><title>Node1&#45;&gt;Node7</title>
<path fill="none" stroke="midnightblue" d="M203.148,-56.4435C223.465,-47.5961 255.403,-33.6875 278.598,-23.5865"/>
<polygon fill="midnightblue" stroke="midnightblue" points="280.173,-26.7181 287.944,-19.5164 277.378,-20.3002 280.173,-26.7181"/>
</g>
<!-- Node8 -->
<g id="node8" class="node"><title>Node8</title>
<polygon fill="white" stroke="#bfbfbf" points="348,-0.5 348,-19.5 443,-19.5 443,-0.5 348,-0.5"/>
<text text-anchor="middle" x="395.5" y="-7.5" font-family="Helvetica,sans-Serif" font-size="10.00">condition_variable</text>
</g>
<!-- Node1&#45;&gt;Node8 -->
<g id="edge7" class="edge"><title>Node1&#45;&gt;Node8</title>
<path fill="none" stroke="midnightblue" d="M217.092,-56.4435C253.687,-47.1221 312.338,-32.1828 352.326,-21.9972"/>
<polygon fill="midnightblue" stroke="midnightblue" points="353.239,-25.3766 362.065,-19.5164 351.511,-18.5932 353.239,-25.3766"/>
</g>
</g>
</svg>
