<?xml version="1.0" encoding="UTF-8" standalone="no"?>
<!DOCTYPE svg PUBLIC "-//W3C//DTD SVG 1.1//EN"
 "http://www.w3.org/Graphics/SVG/1.1/DTD/svg11.dtd">
<!-- Generated by graphviz version 2.38.0 (20140413.2041)
 -->
<!-- Title: cssl_lib.cpp Pages: 1 -->
<svg width="188pt" height="84pt"
 viewBox="0.00 0.00 187.50 84.00" xmlns="http://www.w3.org/2000/svg" xmlns:xlink="http://www.w3.org/1999/xlink">
<g id="graph0" class="graph" transform="scale(1 1) rotate(0) translate(4 80)">
<title>cssl_lib.cpp</title>
<polygon fill="white" stroke="none" points="-4,4 -4,-80 183.5,-80 183.5,4 -4,4"/>
<!-- Node1 -->
<g id="node1" class="node"><title>Node1</title>
<polygon fill="#bfbfbf" stroke="black" points="56.5,-56.5 56.5,-75.5 124.5,-75.5 124.5,-56.5 56.5,-56.5"/>
<text text-anchor="middle" x="90.5" y="-63.5" font-family="Helvetica,sans-Serif" font-size="10.00">cssl_lib.cpp</text>
</g>
<!-- Node2 -->
<g id="node2" class="node"><title>Node2</title>
<g id="a_node2"><a xlink:href="rw__test__v0_8cpp.html" target="_top" xlink:title="rw_test_v0.cpp">
<polygon fill="white" stroke="black" points="0,-0.5 0,-19.5 83,-19.5 83,-0.5 0,-0.5"/>
<text text-anchor="middle" x="41.5" y="-7.5" font-family="Helvetica,sans-Serif" font-size="10.00">rw_test_v0.cpp</text>
</a>
</g>
</g>
<!-- Node1&#45;&gt;Node2 -->
<g id="edge1" class="edge"><title>Node1&#45;&gt;Node2</title>
<path fill="none" stroke="midnightblue" d="M75.4655,-48.4314C66.8778,-38.9673 56.4565,-27.4827 49.4408,-19.7511"/>
<polygon fill="midnightblue" stroke="midnightblue" points="73.0967,-51.0293 82.4086,-56.083 78.2807,-46.3254 73.0967,-51.0293"/>
</g>
<!-- Node3 -->
<g id="node3" class="node"><title>Node3</title>
<g id="a_node3"><a xlink:href="razor__imu_8cpp.html" target="_top" xlink:title="razor_imu.cpp">
<polygon fill="white" stroke="black" points="101.5,-0.5 101.5,-19.5 179.5,-19.5 179.5,-0.5 101.5,-0.5"/>
<text text-anchor="middle" x="140.5" y="-7.5" font-family="Helvetica,sans-Serif" font-size="10.00">razor_imu.cpp</text>
</a>
</g>
</g>
<!-- Node1&#45;&gt;Node3 -->
<g id="edge2" class="edge"><title>Node1&#45;&gt;Node3</title>
<path fill="none" stroke="midnightblue" d="M105.576,-48.7175C114.389,-39.1997 125.166,-27.5608 132.397,-19.7511"/>
<polygon fill="midnightblue" stroke="midnightblue" points="102.982,-46.3674 98.7565,-56.083 108.119,-51.1233 102.982,-46.3674"/>
</g>
</g>
</svg>
