<?xml version="1.0" encoding="UTF-8" standalone="no"?>
<!DOCTYPE svg PUBLIC "-//W3C//DTD SVG 1.1//EN"
 "http://www.w3.org/Graphics/SVG/1.1/DTD/svg11.dtd">
<!-- Generated by graphviz version 2.38.0 (20140413.2041)
 -->
<!-- Title: cubesat2obj.cpp Pages: 1 -->
<!--zoomable 532 -->
<svg id="main" version="1.1" xmlns="http://www.w3.org/2000/svg" xmlns:xlink="http://www.w3.org/1999/xlink" xml:space="preserve" onload="init(evt)">
<style type="text/css"><![CDATA[
.edge:hover path { stroke: red; }
.edge:hover polygon { stroke: red; fill: red; }
]]></style>
<script type="text/javascript"><![CDATA[
var edges = document.getElementsByTagName('g');
if (edges && edges.length) {
  for (var i=0;i<edges.length;i++) {
    if (edges[i].id.substr(0,4)=='edge') {
      edges[i].setAttribute('class','edge');
    }
  }
}
]]></script>
        <defs>
                <circle id="rim" cx="0" cy="0" r="7"/>
                <circle id="rim2" cx="0" cy="0" r="3.5"/>
                <g id="zoomPlus">
                        <use xlink:href="#rim" fill="#404040">
                                <set attributeName="fill" to="#808080" begin="zoomplus.mouseover" end="zoomplus.mouseout"/>
                        </use>
                        <path d="M-4,0h8M0,-4v8" fill="none" stroke="white" stroke-width="1.5" pointer-events="none"/>
                </g>
                <g id="zoomMin">
                        <use xlink:href="#rim" fill="#404040">
                                <set attributeName="fill" to="#808080" begin="zoomminus.mouseover" end="zoomminus.mouseout"/>
                        </use>
                        <path d="M-4,0h8" fill="none" stroke="white" stroke-width="1.5" pointer-events="none"/>
                </g>
                <g id="dirArrow">
                        <path fill="none" stroke="white" stroke-width="1.5" d="M0,-3.0v7 M-2.5,-0.5L0,-3.0L2.5,-0.5"/>
                </g>
               <g id="resetDef">
                       <use xlink:href="#rim2" fill="#404040">
                               <set attributeName="fill" to="#808080" begin="reset.mouseover" end="reset.mouseout"/>
                       </use>
               </g>
        </defs>

<script type="text/javascript">
var viewWidth = 1801;
var viewHeight = 532;
var sectionId = 'dynsection-0';
</script>
<script xlink:href="svgpan.js"/>
<svg id="graph" class="graph">
<g id="viewport">
<title>cubesat2obj.cpp</title>
<polygon fill="white" stroke="none" points="-4,4 -4,-528 1797,-528 1797,4 -4,4"/>
<!-- Node1 -->
<g id="node1" class="node"><title>Node1</title>
<polygon fill="#bfbfbf" stroke="black" points="1122,-504.5 1122,-523.5 1210,-523.5 1210,-504.5 1122,-504.5"/>
<text text-anchor="middle" x="1166" y="-511.5" font-family="Helvetica,sans-Serif" font-size="10.00">cubesat2obj.cpp</text>
</g>
<!-- Node2 -->
<g id="node2" class="node"><title>Node2</title>
<g id="a_node2"><a xlink:href="config_cosmos_8h.html" target="_top" xlink:title="Headers and definitions common to all COSMOS. ">
<polygon fill="white" stroke="black" points="1022.5,-112.5 1022.5,-131.5 1145.5,-131.5 1145.5,-112.5 1022.5,-112.5"/>
<text text-anchor="middle" x="1084" y="-119.5" font-family="Helvetica,sans-Serif" font-size="10.00">support/configCosmos.h</text>
</a>
</g>
</g>
<!-- Node1&#45;&gt;Node2 -->
<g id="edge1" class="edge"><title>Node1&#45;&gt;Node2</title>
<path fill="none" stroke="midnightblue" d="M1153.19,-504.388C1130.12,-487.742 1084,-448.734 1084,-403 1084,-403 1084,-403 1084,-233 1084,-200.948 1084,-163.643 1084,-141.749"/>
<polygon fill="midnightblue" stroke="midnightblue" points="1087.5,-141.558 1084,-131.558 1080.5,-141.558 1087.5,-141.558"/>
</g>
<!-- Node35 -->
<g id="node35" class="node"><title>Node35</title>
<g id="a_node35"><a xlink:href="objlib_8h.html" target="_top" xlink:title="support/objlib.h">
<polygon fill="white" stroke="black" points="1207.5,-448.5 1207.5,-467.5 1290.5,-467.5 1290.5,-448.5 1207.5,-448.5"/>
<text text-anchor="middle" x="1249" y="-455.5" font-family="Helvetica,sans-Serif" font-size="10.00">support/objlib.h</text>
</a>
</g>
</g>
<!-- Node1&#45;&gt;Node35 -->
<g id="edge43" class="edge"><title>Node1&#45;&gt;Node35</title>
<path fill="none" stroke="midnightblue" d="M1179.34,-504.324C1192.16,-495.979 1211.78,-483.212 1226.94,-473.352"/>
<polygon fill="midnightblue" stroke="midnightblue" points="1229.22,-476.042 1235.7,-467.655 1225.41,-470.174 1229.22,-476.042"/>
</g>
<!-- Node3 -->
<g id="node3" class="node"><title>Node3</title>
<polygon fill="white" stroke="#bfbfbf" points="1112.5,-56.5 1112.5,-75.5 1157.5,-75.5 1157.5,-56.5 1112.5,-56.5"/>
<text text-anchor="middle" x="1135" y="-63.5" font-family="Helvetica,sans-Serif" font-size="10.00">climits</text>
</g>
<!-- Node2&#45;&gt;Node3 -->
<g id="edge2" class="edge"><title>Node2&#45;&gt;Node3</title>
<path fill="none" stroke="midnightblue" d="M1092.42,-112.083C1099.85,-104.22 1110.85,-92.5688 1119.81,-83.0813"/>
<polygon fill="midnightblue" stroke="midnightblue" points="1122.41,-85.4244 1126.74,-75.7511 1117.32,-80.618 1122.41,-85.4244"/>
</g>
<!-- Node4 -->
<g id="node4" class="node"><title>Node4</title>
<polygon fill="white" stroke="#bfbfbf" points="1175.5,-56.5 1175.5,-75.5 1222.5,-75.5 1222.5,-56.5 1175.5,-56.5"/>
<text text-anchor="middle" x="1199" y="-63.5" font-family="Helvetica,sans-Serif" font-size="10.00">csignal</text>
</g>
<!-- Node2&#45;&gt;Node4 -->
<g id="edge3" class="edge"><title>Node2&#45;&gt;Node4</title>
<path fill="none" stroke="midnightblue" d="M1102.22,-112.444C1120.9,-103.675 1150.16,-89.9355 1171.62,-79.8579"/>
<polygon fill="midnightblue" stroke="midnightblue" points="1173.3,-82.935 1180.86,-75.5164 1170.32,-76.5988 1173.3,-82.935"/>
</g>
<!-- Node5 -->
<g id="node5" class="node"><title>Node5</title>
<polygon fill="white" stroke="#bfbfbf" points="1507,-56.5 1507,-75.5 1553,-75.5 1553,-56.5 1507,-56.5"/>
<text text-anchor="middle" x="1530" y="-63.5" font-family="Helvetica,sans-Serif" font-size="10.00">cstdint</text>
</g>
<!-- Node2&#45;&gt;Node5 -->
<g id="edge4" class="edge"><title>Node2&#45;&gt;Node5</title>
<path fill="none" stroke="midnightblue" d="M1145.67,-117.327C1224.73,-111.943 1366.11,-100.038 1496.5,-75.7734"/>
<polygon fill="midnightblue" stroke="midnightblue" points="1497.49,-79.1481 1506.67,-73.8517 1496.19,-72.2699 1497.49,-79.1481"/>
</g>
<!-- Node6 -->
<g id="node6" class="node"><title>Node6</title>
<polygon fill="white" stroke="#bfbfbf" points="1241,-56.5 1241,-75.5 1297,-75.5 1297,-56.5 1241,-56.5"/>
<text text-anchor="middle" x="1269" y="-63.5" font-family="Helvetica,sans-Serif" font-size="10.00">cinttypes</text>
</g>
<!-- Node2&#45;&gt;Node6 -->
<g id="edge5" class="edge"><title>Node2&#45;&gt;Node6</title>
<path fill="none" stroke="midnightblue" d="M1113.31,-112.444C1145.12,-103.159 1196.02,-88.3022 1230.9,-78.1197"/>
<polygon fill="midnightblue" stroke="midnightblue" points="1232.11,-81.4127 1240.73,-75.2508 1230.15,-74.6931 1232.11,-81.4127"/>
</g>
<!-- Node7 -->
<g id="node7" class="node"><title>Node7</title>
<polygon fill="white" stroke="#bfbfbf" points="1315.5,-56.5 1315.5,-75.5 1358.5,-75.5 1358.5,-56.5 1315.5,-56.5"/>
<text text-anchor="middle" x="1337" y="-63.5" font-family="Helvetica,sans-Serif" font-size="10.00">cstdio</text>
</g>
<!-- Node2&#45;&gt;Node7 -->
<g id="edge6" class="edge"><title>Node2&#45;&gt;Node7</title>
<path fill="none" stroke="midnightblue" d="M1131.89,-112.475C1174.82,-104.568 1239.71,-91.9648 1305.28,-76.0072"/>
<polygon fill="midnightblue" stroke="midnightblue" points="1306.51,-79.3101 1315.38,-73.5234 1304.83,-72.5126 1306.51,-79.3101"/>
</g>
<!-- Node8 -->
<g id="node8" class="node"><title>Node8</title>
<polygon fill="white" stroke="#bfbfbf" points="1376.5,-56.5 1376.5,-75.5 1425.5,-75.5 1425.5,-56.5 1376.5,-56.5"/>
<text text-anchor="middle" x="1401" y="-63.5" font-family="Helvetica,sans-Serif" font-size="10.00">cstddef</text>
</g>
<!-- Node2&#45;&gt;Node8 -->
<g id="edge7" class="edge"><title>Node2&#45;&gt;Node8</title>
<path fill="none" stroke="midnightblue" d="M1145.61,-113.034C1200.91,-105.467 1284.47,-93.0132 1366.23,-75.9782"/>
<polygon fill="midnightblue" stroke="midnightblue" points="1367.12,-79.3662 1376.19,-73.8781 1365.68,-72.5168 1367.12,-79.3662"/>
</g>
<!-- Node9 -->
<g id="node9" class="node"><title>Node9</title>
<polygon fill="white" stroke="#bfbfbf" points="1443.5,-56.5 1443.5,-75.5 1488.5,-75.5 1488.5,-56.5 1443.5,-56.5"/>
<text text-anchor="middle" x="1466" y="-63.5" font-family="Helvetica,sans-Serif" font-size="10.00">cstdlib</text>
</g>
<!-- Node2&#45;&gt;Node9 -->
<g id="edge8" class="edge"><title>Node2&#45;&gt;Node9</title>
<path fill="none" stroke="midnightblue" d="M1145.78,-115.813C1213.93,-109.474 1326.95,-97.1428 1433.42,-75.8279"/>
<polygon fill="midnightblue" stroke="midnightblue" points="1434.27,-79.2271 1443.37,-73.8053 1432.88,-72.3673 1434.27,-79.2271"/>
</g>
<!-- Node10 -->
<g id="node10" class="node"><title>Node10</title>
<polygon fill="white" stroke="#bfbfbf" points="0,-56.5 0,-75.5 44,-75.5 44,-56.5 0,-56.5"/>
<text text-anchor="middle" x="22" y="-63.5" font-family="Helvetica,sans-Serif" font-size="10.00">cerrno</text>
</g>
<!-- Node2&#45;&gt;Node10 -->
<g id="edge9" class="edge"><title>Node2&#45;&gt;Node10</title>
<path fill="none" stroke="midnightblue" d="M1022.44,-120.24C833.181,-117.605 260.715,-107.33 54.3399,-75.753"/>
<polygon fill="midnightblue" stroke="midnightblue" points="54.6312,-72.2552 44.2045,-74.1355 53.528,-79.1678 54.6312,-72.2552"/>
</g>
<!-- Node11 -->
<g id="node11" class="node"><title>Node11</title>
<polygon fill="white" stroke="#bfbfbf" points="62,-56.5 62,-75.5 108,-75.5 108,-56.5 62,-56.5"/>
<text text-anchor="middle" x="85" y="-63.5" font-family="Helvetica,sans-Serif" font-size="10.00">cstring</text>
</g>
<!-- Node2&#45;&gt;Node11 -->
<g id="edge10" class="edge"><title>Node2&#45;&gt;Node11</title>
<path fill="none" stroke="midnightblue" d="M1022.41,-119.966C841.272,-116.639 311.517,-104.8 118.324,-75.7834"/>
<polygon fill="midnightblue" stroke="midnightblue" points="118.703,-72.3 108.281,-74.2093 117.619,-79.2156 118.703,-72.3"/>
</g>
<!-- Node12 -->
<g id="node12" class="node"><title>Node12</title>
<polygon fill="white" stroke="#bfbfbf" points="1749,-56.5 1749,-75.5 1793,-75.5 1793,-56.5 1749,-56.5"/>
<text text-anchor="middle" x="1771" y="-63.5" font-family="Helvetica,sans-Serif" font-size="10.00">cmath</text>
</g>
<!-- Node2&#45;&gt;Node12 -->
<g id="edge11" class="edge"><title>Node2&#45;&gt;Node12</title>
<path fill="none" stroke="midnightblue" d="M1145.5,-117.686C1256.73,-111.435 1498.65,-96.6483 1702,-76 1714.05,-74.776 1727.25,-73.1296 1738.85,-71.5797"/>
<polygon fill="midnightblue" stroke="midnightblue" points="1739.54,-75.0185 1748.97,-70.1983 1738.59,-68.0828 1739.54,-75.0185"/>
</g>
<!-- Node13 -->
<g id="node13" class="node"><title>Node13</title>
<polygon fill="white" stroke="#bfbfbf" points="126.5,-56.5 126.5,-75.5 171.5,-75.5 171.5,-56.5 126.5,-56.5"/>
<text text-anchor="middle" x="149" y="-63.5" font-family="Helvetica,sans-Serif" font-size="10.00">iosfwd</text>
</g>
<!-- Node2&#45;&gt;Node13 -->
<g id="edge12" class="edge"><title>Node2&#45;&gt;Node13</title>
<path fill="none" stroke="midnightblue" d="M1022.45,-119.731C849.76,-115.89 362.11,-103.053 181.495,-75.6015"/>
<polygon fill="midnightblue" stroke="midnightblue" points="182.009,-72.1394 171.584,-74.0288 180.912,-79.0529 182.009,-72.1394"/>
</g>
<!-- Node14 -->
<g id="node14" class="node"><title>Node14</title>
<polygon fill="white" stroke="#bfbfbf" points="1639,-56.5 1639,-75.5 1693,-75.5 1693,-56.5 1639,-56.5"/>
<text text-anchor="middle" x="1666" y="-63.5" font-family="Helvetica,sans-Serif" font-size="10.00">iostream</text>
</g>
<!-- Node2&#45;&gt;Node14 -->
<g id="edge13" class="edge"><title>Node2&#45;&gt;Node14</title>
<path fill="none" stroke="midnightblue" d="M1145.81,-119.18C1245.6,-115.523 1448.42,-105.122 1629.03,-75.8909"/>
<polygon fill="midnightblue" stroke="midnightblue" points="1629.67,-79.3321 1638.97,-74.2583 1628.54,-72.4245 1629.67,-79.3321"/>
</g>
<!-- Node15 -->
<g id="node15" class="node"><title>Node15</title>
<polygon fill="white" stroke="#bfbfbf" points="190,-56.5 190,-75.5 242,-75.5 242,-56.5 190,-56.5"/>
<text text-anchor="middle" x="216" y="-63.5" font-family="Helvetica,sans-Serif" font-size="10.00">sstream</text>
</g>
<!-- Node2&#45;&gt;Node15 -->
<g id="edge14" class="edge"><title>Node2&#45;&gt;Node15</title>
<path fill="none" stroke="midnightblue" d="M1022.44,-121.816C885.36,-122.741 544.689,-120.101 252.205,-75.869"/>
<polygon fill="midnightblue" stroke="midnightblue" points="252.672,-72.3999 242.258,-74.3457 251.613,-79.3192 252.672,-72.3999"/>
</g>
<!-- Node16 -->
<g id="node16" class="node"><title>Node16</title>
<polygon fill="white" stroke="#bfbfbf" points="260.5,-56.5 260.5,-75.5 301.5,-75.5 301.5,-56.5 260.5,-56.5"/>
<text text-anchor="middle" x="281" y="-63.5" font-family="Helvetica,sans-Serif" font-size="10.00">regex</text>
</g>
<!-- Node2&#45;&gt;Node16 -->
<g id="edge15" class="edge"><title>Node2&#45;&gt;Node16</title>
<path fill="none" stroke="midnightblue" d="M1022.28,-119.345C867.517,-114.893 464.96,-101.364 311.907,-75.8801"/>
<polygon fill="midnightblue" stroke="midnightblue" points="312.212,-72.3803 301.758,-74.1045 311.005,-79.2756 312.212,-72.3803"/>
</g>
<!-- Node17 -->
<g id="node17" class="node"><title>Node17</title>
<polygon fill="white" stroke="#bfbfbf" points="1571,-56.5 1571,-75.5 1621,-75.5 1621,-56.5 1571,-56.5"/>
<text text-anchor="middle" x="1596" y="-63.5" font-family="Helvetica,sans-Serif" font-size="10.00">iomanip</text>
</g>
<!-- Node2&#45;&gt;Node17 -->
<g id="edge16" class="edge"><title>Node2&#45;&gt;Node17</title>
<path fill="none" stroke="midnightblue" d="M1145.55,-118.453C1235.04,-114.034 1406.32,-102.883 1560.71,-75.9483"/>
<polygon fill="midnightblue" stroke="midnightblue" points="1561.62,-79.3421 1570.85,-74.1513 1560.4,-72.4494 1561.62,-79.3421"/>
</g>
<!-- Node18 -->
<g id="node18" class="node"><title>Node18</title>
<polygon fill="white" stroke="#bfbfbf" points="319.5,-56.5 319.5,-75.5 370.5,-75.5 370.5,-56.5 319.5,-56.5"/>
<text text-anchor="middle" x="345" y="-63.5" font-family="Helvetica,sans-Serif" font-size="10.00">unistd.h</text>
</g>
<!-- Node2&#45;&gt;Node18 -->
<g id="edge17" class="edge"><title>Node2&#45;&gt;Node18</title>
<path fill="none" stroke="midnightblue" d="M1022.36,-120.936C901.091,-119.971 622.989,-113.602 380.925,-75.8216"/>
<polygon fill="midnightblue" stroke="midnightblue" points="381.304,-72.3382 370.88,-74.2324 380.21,-79.2522 381.304,-72.3382"/>
</g>
<!-- Node19 -->
<g id="node19" class="node"><title>Node19</title>
<polygon fill="white" stroke="#bfbfbf" points="389,-56.5 389,-75.5 433,-75.5 433,-56.5 389,-56.5"/>
<text text-anchor="middle" x="411" y="-63.5" font-family="Helvetica,sans-Serif" font-size="10.00">fcntl.h</text>
</g>
<!-- Node2&#45;&gt;Node19 -->
<g id="edge18" class="edge"><title>Node2&#45;&gt;Node19</title>
<path fill="none" stroke="midnightblue" d="M1022.39,-121.015C909.136,-120.102 660.331,-113.718 443.205,-75.8326"/>
<polygon fill="midnightblue" stroke="midnightblue" points="443.674,-72.3612 433.217,-74.0633 442.453,-79.2539 443.674,-72.3612"/>
</g>
<!-- Node20 -->
<g id="node20" class="node"><title>Node20</title>
<polygon fill="white" stroke="#bfbfbf" points="451,-56.5 451,-75.5 491,-75.5 491,-56.5 451,-56.5"/>
<text text-anchor="middle" x="471" y="-63.5" font-family="Helvetica,sans-Serif" font-size="10.00">limits</text>
</g>
<!-- Node2&#45;&gt;Node20 -->
<g id="edge19" class="edge"><title>Node2&#45;&gt;Node20</title>
<path fill="none" stroke="midnightblue" d="M1022.28,-119.866C915.939,-117.098 691.627,-107.684 505,-76 503.713,-75.7815 502.404,-75.5368 501.086,-75.2718"/>
<polygon fill="midnightblue" stroke="midnightblue" points="501.535,-71.7834 491.004,-72.9393 499.958,-78.6032 501.535,-71.7834"/>
</g>
<!-- Node21 -->
<g id="node21" class="node"><title>Node21</title>
<polygon fill="white" stroke="#bfbfbf" points="942.5,-0.5 942.5,-19.5 983.5,-19.5 983.5,-0.5 942.5,-0.5"/>
<text text-anchor="middle" x="963" y="-7.5" font-family="Helvetica,sans-Serif" font-size="10.00">string</text>
</g>
<!-- Node2&#45;&gt;Node21 -->
<g id="edge20" class="edge"><title>Node2&#45;&gt;Node21</title>
<path fill="none" stroke="midnightblue" d="M1046.22,-112.448C1024.94,-105.816 999.423,-94.5341 983,-76 971.632,-63.1701 966.725,-43.9858 964.608,-29.7815"/>
<polygon fill="midnightblue" stroke="midnightblue" points="968.064,-29.2051 963.437,-19.6741 961.111,-30.0104 968.064,-29.2051"/>
</g>
<!-- Node22 -->
<g id="node22" class="node"><title>Node22</title>
<polygon fill="white" stroke="#bfbfbf" points="1164,-0.5 1164,-19.5 1208,-19.5 1208,-0.5 1164,-0.5"/>
<text text-anchor="middle" x="1186" y="-7.5" font-family="Helvetica,sans-Serif" font-size="10.00">vector</text>
</g>
<!-- Node2&#45;&gt;Node22 -->
<g id="edge21" class="edge"><title>Node2&#45;&gt;Node22</title>
<path fill="none" stroke="midnightblue" d="M1084.44,-112.462C1085.54,-99.0472 1089.41,-72.8321 1103,-56 1116.08,-39.7947 1136.63,-28.5902 1154,-21.4145"/>
<polygon fill="midnightblue" stroke="midnightblue" points="1155.71,-24.5071 1163.78,-17.6478 1153.19,-17.9745 1155.71,-24.5071"/>
</g>
<!-- Node23 -->
<g id="node23" class="node"><title>Node23</title>
<polygon fill="white" stroke="#bfbfbf" points="585.5,-56.5 585.5,-75.5 626.5,-75.5 626.5,-56.5 585.5,-56.5"/>
<text text-anchor="middle" x="606" y="-63.5" font-family="Helvetica,sans-Serif" font-size="10.00">stack</text>
</g>
<!-- Node2&#45;&gt;Node23 -->
<g id="edge22" class="edge"><title>Node2&#45;&gt;Node23</title>
<path fill="none" stroke="midnightblue" d="M1022.41,-118.744C937.39,-114.767 779.289,-104.267 636.995,-76.059"/>
<polygon fill="midnightblue" stroke="midnightblue" points="637.274,-72.5447 626.779,-73.9973 635.889,-79.4064 637.274,-72.5447"/>
</g>
<!-- Node24 -->
<g id="node24" class="node"><title>Node24</title>
<polygon fill="white" stroke="#bfbfbf" points="644.5,-56.5 644.5,-75.5 687.5,-75.5 687.5,-56.5 644.5,-56.5"/>
<text text-anchor="middle" x="666" y="-63.5" font-family="Helvetica,sans-Serif" font-size="10.00">deque</text>
</g>
<!-- Node2&#45;&gt;Node24 -->
<g id="edge23" class="edge"><title>Node2&#45;&gt;Node24</title>
<path fill="none" stroke="midnightblue" d="M1022.44,-116.186C946.643,-109.699 814.158,-96.5392 702,-76 700.535,-75.7316 699.04,-75.4383 697.534,-75.1268"/>
<polygon fill="midnightblue" stroke="midnightblue" points="698.131,-71.6733 687.604,-72.8766 696.584,-78.5002 698.131,-71.6733"/>
</g>
<!-- Node25 -->
<g id="node25" class="node"><title>Node25</title>
<polygon fill="white" stroke="#bfbfbf" points="509,-0.5 509,-19.5 553,-19.5 553,-0.5 509,-0.5"/>
<text text-anchor="middle" x="531" y="-7.5" font-family="Helvetica,sans-Serif" font-size="10.00">mutex</text>
</g>
<!-- Node2&#45;&gt;Node25 -->
<g id="edge24" class="edge"><title>Node2&#45;&gt;Node25</title>
<path fill="none" stroke="midnightblue" d="M1022.17,-118.857C893.221,-113.925 604.404,-100.288 567,-76 550.633,-65.372 541.038,-44.6063 535.927,-29.3958"/>
<polygon fill="midnightblue" stroke="midnightblue" points="539.192,-28.0984 532.965,-19.5265 532.488,-30.1105 539.192,-28.0984"/>
</g>
<!-- Node26 -->
<g id="node26" class="node"><title>Node26</title>
<polygon fill="white" stroke="#bfbfbf" points="594,-0.5 594,-19.5 638,-19.5 638,-0.5 594,-0.5"/>
<text text-anchor="middle" x="616" y="-7.5" font-family="Helvetica,sans-Serif" font-size="10.00">thread</text>
</g>
<!-- Node2&#45;&gt;Node26 -->
<g id="edge25" class="edge"><title>Node2&#45;&gt;Node26</title>
<path fill="none" stroke="midnightblue" d="M1022.14,-120.095C893.297,-117.568 605.592,-108.329 576,-76 562.134,-60.8518 579.718,-40.2216 595.754,-26.2991"/>
<polygon fill="midnightblue" stroke="midnightblue" points="598.302,-28.7367 603.824,-19.6946 593.868,-23.3196 598.302,-28.7367"/>
</g>
<!-- Node27 -->
<g id="node27" class="node"><title>Node27</title>
<polygon fill="white" stroke="#bfbfbf" points="668.5,-0.5 668.5,-19.5 763.5,-19.5 763.5,-0.5 668.5,-0.5"/>
<text text-anchor="middle" x="716" y="-7.5" font-family="Helvetica,sans-Serif" font-size="10.00">condition_variable</text>
</g>
<!-- Node2&#45;&gt;Node27 -->
<g id="edge26" class="edge"><title>Node2&#45;&gt;Node27</title>
<path fill="none" stroke="midnightblue" d="M1022.14,-120.921C933.653,-119.525 776.967,-111.877 735,-76 721.754,-64.6766 717.478,-44.6761 716.224,-29.842"/>
<polygon fill="midnightblue" stroke="midnightblue" points="719.715,-29.5622 715.757,-19.7347 712.723,-29.8858 719.715,-29.5622"/>
</g>
<!-- Node28 -->
<g id="node28" class="node"><title>Node28</title>
<polygon fill="white" stroke="#bfbfbf" points="828.5,-0.5 828.5,-19.5 871.5,-19.5 871.5,-0.5 828.5,-0.5"/>
<text text-anchor="middle" x="850" y="-7.5" font-family="Helvetica,sans-Serif" font-size="10.00">queue</text>
</g>
<!-- Node2&#45;&gt;Node28 -->
<g id="edge27" class="edge"><title>Node2&#45;&gt;Node28</title>
<path fill="none" stroke="midnightblue" d="M1046.31,-112.441C1016.96,-104.986 975.7,-92.7382 942,-76 914.154,-62.1693 885.412,-40.4479 867.626,-25.9709"/>
<polygon fill="midnightblue" stroke="midnightblue" points="869.762,-23.1948 859.827,-19.5122 865.297,-28.5861 869.762,-23.1948"/>
</g>
<!-- Node29 -->
<g id="node29" class="node"><title>Node29</title>
<polygon fill="white" stroke="#bfbfbf" points="889.5,-0.5 889.5,-19.5 924.5,-19.5 924.5,-0.5 889.5,-0.5"/>
<text text-anchor="middle" x="907" y="-7.5" font-family="Helvetica,sans-Serif" font-size="10.00">map</text>
</g>
<!-- Node2&#45;&gt;Node29 -->
<g id="edge28" class="edge"><title>Node2&#45;&gt;Node29</title>
<path fill="none" stroke="midnightblue" d="M1050.86,-112.46C1026.57,-105.21 993.516,-93.2176 968,-76 948.453,-62.81 930.564,-42.2935 919.285,-27.8452"/>
<polygon fill="midnightblue" stroke="midnightblue" points="921.986,-25.6144 913.16,-19.753 916.404,-29.8389 921.986,-25.6144"/>
</g>
<!-- Node30 -->
<g id="node30" class="node"><title>Node30</title>
<g id="a_node30"><a xlink:href="cosmos-defs_8h.html" target="_top" xlink:title="COSMOS definitions Definitions specific to the COSMOS environement. ">
<polygon fill="white" stroke="black" points="744,-56.5 744,-75.5 860,-75.5 860,-56.5 744,-56.5"/>
<text text-anchor="middle" x="802" y="-63.5" font-family="Helvetica,sans-Serif" font-size="10.00">support/cosmos&#45;defs.h</text>
</a>
</g>
</g>
<!-- Node2&#45;&gt;Node30 -->
<g id="edge29" class="edge"><title>Node2&#45;&gt;Node30</title>
<path fill="none" stroke="midnightblue" d="M1039.32,-112.444C989.71,-102.944 909.635,-87.611 856.415,-77.4198"/>
<polygon fill="midnightblue" stroke="midnightblue" points="856.955,-73.9597 846.475,-75.5164 855.638,-80.8348 856.955,-73.9597"/>
</g>
<!-- Node32 -->
<g id="node32" class="node"><title>Node32</title>
<g id="a_node32"><a xlink:href="json11_8hpp.html" target="_top" xlink:title="json11.hpp">
<polygon fill="white" stroke="black" points="992,-56.5 992,-75.5 1056,-75.5 1056,-56.5 992,-56.5"/>
<text text-anchor="middle" x="1024" y="-63.5" font-family="Helvetica,sans-Serif" font-size="10.00">json11.hpp</text>
</a>
</g>
</g>
<!-- Node2&#45;&gt;Node32 -->
<g id="edge37" class="edge"><title>Node2&#45;&gt;Node32</title>
<path fill="none" stroke="midnightblue" d="M1074.36,-112.324C1065.49,-104.341 1052.13,-92.3128 1041.39,-82.6529"/>
<polygon fill="midnightblue" stroke="midnightblue" points="1043.59,-79.922 1033.82,-75.8339 1038.91,-85.1251 1043.59,-79.922"/>
</g>
<!-- Node30&#45;&gt;Node22 -->
<g id="edge31" class="edge"><title>Node30&#45;&gt;Node22</title>
<path fill="none" stroke="midnightblue" d="M860.046,-60.2162C928.122,-54.0184 1044.45,-41.5998 1153.84,-19.7236"/>
<polygon fill="midnightblue" stroke="midnightblue" points="1154.62,-23.1367 1163.72,-17.7169 1153.23,-16.2767 1154.62,-23.1367"/>
</g>
<!-- Node30&#45;&gt;Node25 -->
<g id="edge35" class="edge"><title>Node30&#45;&gt;Node25</title>
<path fill="none" stroke="midnightblue" d="M759.059,-56.4435C704.554,-45.5826 611.773,-27.0949 563.05,-17.3864"/>
<polygon fill="midnightblue" stroke="midnightblue" points="563.561,-13.9193 553.069,-15.3976 562.193,-20.7844 563.561,-13.9193"/>
</g>
<!-- Node30&#45;&gt;Node26 -->
<g id="edge34" class="edge"><title>Node30&#45;&gt;Node26</title>
<path fill="none" stroke="midnightblue" d="M772.528,-56.4435C738.498,-46.5639 682.731,-30.3734 647.76,-20.2208"/>
<polygon fill="midnightblue" stroke="midnightblue" points="648.633,-16.8296 638.053,-17.4026 646.681,-23.552 648.633,-16.8296"/>
</g>
<!-- Node30&#45;&gt;Node27 -->
<g id="edge36" class="edge"><title>Node30&#45;&gt;Node27</title>
<path fill="none" stroke="midnightblue" d="M788.183,-56.324C774.767,-47.9002 754.176,-34.9709 738.414,-25.0741"/>
<polygon fill="midnightblue" stroke="midnightblue" points="740.113,-22.0081 729.783,-19.6545 736.391,-27.9364 740.113,-22.0081"/>
</g>
<!-- Node30&#45;&gt;Node28 -->
<g id="edge33" class="edge"><title>Node30&#45;&gt;Node28</title>
<path fill="none" stroke="midnightblue" d="M809.926,-56.083C816.846,-48.2982 827.065,-36.8015 835.452,-27.3665"/>
<polygon fill="midnightblue" stroke="midnightblue" points="838.194,-29.5505 842.221,-19.7511 832.962,-24.8999 838.194,-29.5505"/>
</g>
<!-- Node30&#45;&gt;Node29 -->
<g id="edge30" class="edge"><title>Node30&#45;&gt;Node29</title>
<path fill="none" stroke="midnightblue" d="M818.87,-56.324C835.709,-47.6641 861.807,-34.2424 881.238,-24.249"/>
<polygon fill="midnightblue" stroke="midnightblue" points="882.88,-27.3405 890.172,-19.6545 879.678,-21.1155 882.88,-27.3405"/>
</g>
<!-- Node31 -->
<g id="node31" class="node"><title>Node31</title>
<polygon fill="white" stroke="#bfbfbf" points="781.5,-0.5 781.5,-19.5 810.5,-19.5 810.5,-0.5 781.5,-0.5"/>
<text text-anchor="middle" x="796" y="-7.5" font-family="Helvetica,sans-Serif" font-size="10.00">list</text>
</g>
<!-- Node30&#45;&gt;Node31 -->
<g id="edge32" class="edge"><title>Node30&#45;&gt;Node31</title>
<path fill="none" stroke="midnightblue" d="M801.009,-56.083C800.214,-48.9272 799.071,-38.6353 798.077,-29.6911"/>
<polygon fill="midnightblue" stroke="midnightblue" points="801.555,-29.3034 796.972,-19.7511 794.598,-30.0765 801.555,-29.3034"/>
</g>
<!-- Node32&#45;&gt;Node21 -->
<g id="edge38" class="edge"><title>Node32&#45;&gt;Node21</title>
<path fill="none" stroke="midnightblue" d="M1014.2,-56.324C1005.18,-48.3414 991.594,-36.3128 980.682,-26.6529"/>
<polygon fill="midnightblue" stroke="midnightblue" points="982.787,-23.8416 972.979,-19.8339 978.147,-29.083 982.787,-23.8416"/>
</g>
<!-- Node32&#45;&gt;Node22 -->
<g id="edge39" class="edge"><title>Node32&#45;&gt;Node22</title>
<path fill="none" stroke="midnightblue" d="M1049.67,-56.4435C1077.96,-47.0118 1123.52,-31.8282 1154.09,-21.6375"/>
<polygon fill="midnightblue" stroke="midnightblue" points="1155.45,-24.8711 1163.83,-18.3884 1153.24,-18.2304 1155.45,-24.8711"/>
</g>
<!-- Node32&#45;&gt;Node29 -->
<g id="edge40" class="edge"><title>Node32&#45;&gt;Node29</title>
<path fill="none" stroke="midnightblue" d="M1005.46,-56.4435C986.153,-47.532 955.719,-33.4856 933.796,-23.3674"/>
<polygon fill="midnightblue" stroke="midnightblue" points="935.233,-20.1757 924.686,-19.1629 932.299,-26.5314 935.233,-20.1757"/>
</g>
<!-- Node33 -->
<g id="node33" class="node"><title>Node33</title>
<polygon fill="white" stroke="#bfbfbf" points="1002,-0.5 1002,-19.5 1054,-19.5 1054,-0.5 1002,-0.5"/>
<text text-anchor="middle" x="1028" y="-7.5" font-family="Helvetica,sans-Serif" font-size="10.00">memory</text>
</g>
<!-- Node32&#45;&gt;Node33 -->
<g id="edge41" class="edge"><title>Node32&#45;&gt;Node33</title>
<path fill="none" stroke="midnightblue" d="M1024.66,-56.083C1025.18,-49.0059 1025.94,-38.8611 1026.59,-29.9865"/>
<polygon fill="midnightblue" stroke="midnightblue" points="1030.1,-29.9823 1027.35,-19.7511 1023.12,-29.4652 1030.1,-29.9823"/>
</g>
<!-- Node34 -->
<g id="node34" class="node"><title>Node34</title>
<polygon fill="white" stroke="#bfbfbf" points="1072.5,-0.5 1072.5,-19.5 1145.5,-19.5 1145.5,-0.5 1072.5,-0.5"/>
<text text-anchor="middle" x="1109" y="-7.5" font-family="Helvetica,sans-Serif" font-size="10.00">initializer_list</text>
</g>
<!-- Node32&#45;&gt;Node34 -->
<g id="edge42" class="edge"><title>Node32&#45;&gt;Node34</title>
<path fill="none" stroke="midnightblue" d="M1037.66,-56.324C1050.92,-47.9002 1071.27,-34.9709 1086.85,-25.0741"/>
<polygon fill="midnightblue" stroke="midnightblue" points="1088.81,-27.9711 1095.38,-19.6545 1085.06,-22.0626 1088.81,-27.9711"/>
</g>
<!-- Node35&#45;&gt;Node2 -->
<g id="edge44" class="edge"><title>Node35&#45;&gt;Node2</title>
<path fill="none" stroke="midnightblue" d="M1224.21,-448.409C1187.25,-433.835 1122,-400.526 1122,-347 1122,-347 1122,-347 1122,-233 1122,-198.813 1105.4,-161.764 1094.14,-140.571"/>
<polygon fill="midnightblue" stroke="midnightblue" points="1097.18,-138.832 1089.28,-131.769 1091.05,-142.215 1097.18,-138.832"/>
</g>
<!-- Node36 -->
<g id="node36" class="node"><title>Node36</title>
<g id="a_node36"><a xlink:href="mathlib_8h.html" target="_top" xlink:title="mathlib include file ">
<polygon fill="white" stroke="black" points="1303.5,-392.5 1303.5,-411.5 1384.5,-411.5 1384.5,-392.5 1303.5,-392.5"/>
<text text-anchor="middle" x="1344" y="-399.5" font-family="Helvetica,sans-Serif" font-size="10.00">math/mathlib.h</text>
</a>
</g>
</g>
<!-- Node35&#45;&gt;Node36 -->
<g id="edge45" class="edge"><title>Node35&#45;&gt;Node36</title>
<path fill="none" stroke="midnightblue" d="M1264.26,-448.324C1279.22,-439.822 1302.25,-426.729 1319.73,-416.797"/>
<polygon fill="midnightblue" stroke="midnightblue" points="1321.81,-419.639 1328.77,-411.655 1318.35,-413.553 1321.81,-419.639"/>
</g>
<!-- Node40 -->
<g id="node40" class="node"><title>Node40</title>
<g id="a_node40"><a xlink:href="vector_8h.html" target="_top" xlink:title="vector.h">
<polygon fill="white" stroke="black" points="1512,-224.5 1512,-243.5 1564,-243.5 1564,-224.5 1512,-224.5"/>
<text text-anchor="middle" x="1538" y="-231.5" font-family="Helvetica,sans-Serif" font-size="10.00">vector.h</text>
</a>
</g>
</g>
<!-- Node35&#45;&gt;Node40 -->
<g id="edge69" class="edge"><title>Node35&#45;&gt;Node40</title>
<path fill="none" stroke="midnightblue" d="M1290.79,-452.355C1349.85,-443.659 1457.71,-419.633 1522,-356 1547.27,-330.987 1550.5,-315.385 1547,-280 1546.13,-271.17 1544.31,-261.505 1542.53,-253.404"/>
<polygon fill="midnightblue" stroke="midnightblue" points="1545.92,-252.494 1540.23,-243.551 1539.1,-254.085 1545.92,-252.494"/>
</g>
<!-- Node36&#45;&gt;Node2 -->
<g id="edge46" class="edge"><title>Node36&#45;&gt;Node2</title>
<path fill="none" stroke="midnightblue" d="M1303.16,-395.038C1248.96,-384.55 1160,-357.247 1160,-291 1160,-291 1160,-291 1160,-233 1160,-202.205 1153.53,-193.319 1136,-168 1127.82,-156.19 1115.85,-145.542 1105.45,-137.571"/>
<polygon fill="midnightblue" stroke="midnightblue" points="1107.34,-134.619 1097.2,-131.54 1103.21,-140.269 1107.34,-134.619"/>
</g>
<!-- Node36&#45;&gt;Node12 -->
<g id="edge67" class="edge"><title>Node36&#45;&gt;Node12</title>
<path fill="none" stroke="midnightblue" d="M1384.56,-394.2C1491.14,-375.188 1771,-317.42 1771,-235 1771,-235 1771,-235 1771,-177 1771,-144.948 1771,-107.643 1771,-85.7489"/>
<polygon fill="midnightblue" stroke="midnightblue" points="1774.5,-85.5577 1771,-75.5578 1767.5,-85.5578 1774.5,-85.5577"/>
</g>
<!-- Node36&#45;&gt;Node14 -->
<g id="edge68" class="edge"><title>Node36&#45;&gt;Node14</title>
<path fill="none" stroke="midnightblue" d="M1384.84,-394.726C1430.59,-387.011 1501.09,-372.846 1522,-356 1612.91,-282.77 1651.21,-137.438 1662.33,-85.7697"/>
<polygon fill="midnightblue" stroke="midnightblue" points="1665.81,-86.2261 1664.4,-75.7257 1658.95,-84.8143 1665.81,-86.2261"/>
</g>
<!-- Node37 -->
<g id="node37" class="node"><title>Node37</title>
<g id="a_node37"><a xlink:href="cosmos-errno_8h.html" target="_top" xlink:title="COSMOS Error Codes. ">
<polygon fill="white" stroke="black" points="1372.5,-336.5 1372.5,-355.5 1491.5,-355.5 1491.5,-336.5 1372.5,-336.5"/>
<text text-anchor="middle" x="1432" y="-343.5" font-family="Helvetica,sans-Serif" font-size="10.00">support/cosmos&#45;errno.h</text>
</a>
</g>
</g>
<!-- Node36&#45;&gt;Node37 -->
<g id="edge47" class="edge"><title>Node36&#45;&gt;Node37</title>
<path fill="none" stroke="midnightblue" d="M1358.14,-392.324C1371.87,-383.9 1392.94,-370.971 1409.06,-361.074"/>
<polygon fill="midnightblue" stroke="midnightblue" points="1411.2,-363.868 1417.9,-355.655 1407.54,-357.902 1411.2,-363.868"/>
</g>
<!-- Node39 -->
<g id="node39" class="node"><title>Node39</title>
<g id="a_node39"><a xlink:href="math_2constants_8h.html" target="_top" xlink:title="constants.h">
<polygon fill="white" stroke="black" points="1410,-168.5 1410,-187.5 1478,-187.5 1478,-168.5 1410,-168.5"/>
<text text-anchor="middle" x="1444" y="-175.5" font-family="Helvetica,sans-Serif" font-size="10.00">constants.h</text>
</a>
</g>
</g>
<!-- Node36&#45;&gt;Node39 -->
<g id="edge50" class="edge"><title>Node36&#45;&gt;Node39</title>
<path fill="none" stroke="midnightblue" d="M1345.95,-392.411C1348.94,-379.802 1355.14,-355.65 1363,-336 1384.08,-283.266 1417.04,-224.679 1433.67,-196.295"/>
<polygon fill="midnightblue" stroke="midnightblue" points="1436.75,-197.964 1438.82,-187.575 1430.72,-194.403 1436.75,-197.964"/>
</g>
<!-- Node36&#45;&gt;Node40 -->
<g id="edge53" class="edge"><title>Node36&#45;&gt;Node40</title>
<path fill="none" stroke="midnightblue" d="M1384.8,-399.61C1419.78,-396.257 1469.25,-386.037 1500,-356 1528.13,-328.525 1535.5,-280.504 1537.39,-253.97"/>
<polygon fill="midnightblue" stroke="midnightblue" points="1540.9,-253.905 1537.92,-243.738 1533.91,-253.544 1540.9,-253.905"/>
</g>
<!-- Node41 -->
<g id="node41" class="node"><title>Node41</title>
<g id="a_node41"><a xlink:href="matrix_8h.html" target="_top" xlink:title="matrix.h">
<polygon fill="white" stroke="black" points="1226,-280.5 1226,-299.5 1278,-299.5 1278,-280.5 1226,-280.5"/>
<text text-anchor="middle" x="1252" y="-287.5" font-family="Helvetica,sans-Serif" font-size="10.00">matrix.h</text>
</a>
</g>
</g>
<!-- Node36&#45;&gt;Node41 -->
<g id="edge60" class="edge"><title>Node36&#45;&gt;Node41</title>
<path fill="none" stroke="midnightblue" d="M1303.44,-392.542C1283.4,-386.097 1261,-374.968 1249,-356 1240.32,-342.291 1242.33,-323.508 1245.76,-309.658"/>
<polygon fill="midnightblue" stroke="midnightblue" points="1249.19,-310.379 1248.64,-299.799 1242.47,-308.416 1249.19,-310.379"/>
</g>
<!-- Node42 -->
<g id="node42" class="node"><title>Node42</title>
<g id="a_node42"><a xlink:href="rotation_8h.html" target="_top" xlink:title="rotation.h">
<polygon fill="white" stroke="black" points="1258.5,-336.5 1258.5,-355.5 1315.5,-355.5 1315.5,-336.5 1258.5,-336.5"/>
<text text-anchor="middle" x="1287" y="-343.5" font-family="Helvetica,sans-Serif" font-size="10.00">rotation.h</text>
</a>
</g>
</g>
<!-- Node36&#45;&gt;Node42 -->
<g id="edge63" class="edge"><title>Node36&#45;&gt;Node42</title>
<path fill="none" stroke="midnightblue" d="M1334.84,-392.324C1326.5,-384.42 1313.97,-372.548 1303.82,-362.938"/>
<polygon fill="midnightblue" stroke="midnightblue" points="1305.99,-360.171 1296.32,-355.834 1301.18,-365.252 1305.99,-360.171"/>
</g>
<!-- Node37&#45;&gt;Node2 -->
<g id="edge48" class="edge"><title>Node37&#45;&gt;Node2</title>
<path fill="none" stroke="midnightblue" d="M1424.71,-336.163C1400.61,-307.504 1320.09,-216.208 1234,-168 1205.25,-151.899 1170.09,-140.957 1141.05,-133.898"/>
<polygon fill="midnightblue" stroke="midnightblue" points="1141.58,-130.429 1131.05,-131.561 1139.99,-137.245 1141.58,-130.429"/>
</g>
<!-- Node38 -->
<g id="node38" class="node"><title>Node38</title>
<polygon fill="white" stroke="#bfbfbf" points="1410.5,-280.5 1410.5,-299.5 1457.5,-299.5 1457.5,-280.5 1410.5,-280.5"/>
<text text-anchor="middle" x="1434" y="-287.5" font-family="Helvetica,sans-Serif" font-size="10.00">errno.h</text>
</g>
<!-- Node37&#45;&gt;Node38 -->
<g id="edge49" class="edge"><title>Node37&#45;&gt;Node38</title>
<path fill="none" stroke="midnightblue" d="M1432.33,-336.083C1432.59,-329.006 1432.97,-318.861 1433.3,-309.986"/>
<polygon fill="midnightblue" stroke="midnightblue" points="1436.8,-309.874 1433.68,-299.751 1429.81,-309.615 1436.8,-309.874"/>
</g>
<!-- Node39&#45;&gt;Node2 -->
<g id="edge51" class="edge"><title>Node39&#45;&gt;Node2</title>
<path fill="none" stroke="midnightblue" d="M1409.94,-170.431C1405.26,-169.582 1400.52,-168.749 1396,-168 1313.92,-154.391 1219.28,-141.075 1155.96,-132.504"/>
<polygon fill="midnightblue" stroke="midnightblue" points="1156.06,-128.986 1145.69,-131.117 1155.13,-135.923 1156.06,-128.986"/>
</g>
<!-- Node39&#45;&gt;Node5 -->
<g id="edge52" class="edge"><title>Node39&#45;&gt;Node5</title>
<path fill="none" stroke="midnightblue" d="M1450.75,-168.368C1465,-150.135 1498.39,-107.426 1516.96,-83.6752"/>
<polygon fill="midnightblue" stroke="midnightblue" points="1519.88,-85.6253 1523.28,-75.5914 1514.37,-81.3138 1519.88,-85.6253"/>
</g>
<!-- Node40&#45;&gt;Node2 -->
<g id="edge54" class="edge"><title>Node40&#45;&gt;Node2</title>
<path fill="none" stroke="midnightblue" d="M1534.1,-224.456C1527.02,-210.028 1510.56,-181.126 1487,-168 1431.85,-137.273 1256.19,-127.513 1155.93,-124.423"/>
<polygon fill="midnightblue" stroke="midnightblue" points="1155.98,-120.923 1145.88,-124.128 1155.77,-127.92 1155.98,-120.923"/>
</g>
<!-- Node40&#45;&gt;Node12 -->
<g id="edge58" class="edge"><title>Node40&#45;&gt;Node12</title>
<path fill="none" stroke="midnightblue" d="M1561.08,-224.356C1581.15,-216.339 1610.61,-203.354 1634,-188 1682.62,-156.083 1731.84,-107.846 1755.89,-83.0172"/>
<polygon fill="midnightblue" stroke="midnightblue" points="1758.65,-85.1945 1763.04,-75.5518 1753.59,-80.3525 1758.65,-85.1945"/>
</g>
<!-- Node40&#45;&gt;Node14 -->
<g id="edge56" class="edge"><title>Node40&#45;&gt;Node14</title>
<path fill="none" stroke="midnightblue" d="M1543.67,-224.202C1556.91,-203.839 1591.25,-152.136 1624,-112 1632.19,-101.961 1642.05,-91.3365 1650.15,-82.9336"/>
<polygon fill="midnightblue" stroke="midnightblue" points="1652.78,-85.2465 1657.27,-75.6494 1647.78,-80.3528 1652.78,-85.2465"/>
</g>
<!-- Node40&#45;&gt;Node17 -->
<g id="edge57" class="edge"><title>Node40&#45;&gt;Node17</title>
<path fill="none" stroke="midnightblue" d="M1539.17,-224.495C1542.14,-204.326 1550.98,-152.271 1568,-112 1572.16,-102.147 1578.32,-91.9632 1583.8,-83.7807"/>
<polygon fill="midnightblue" stroke="midnightblue" points="1586.71,-85.7228 1589.56,-75.5172 1580.97,-81.7208 1586.71,-85.7228"/>
</g>
<!-- Node40&#45;&gt;Node22 -->
<g id="edge59" class="edge"><title>Node40&#45;&gt;Node22</title>
<path fill="none" stroke="midnightblue" d="M1550.1,-224.473C1592.88,-193.867 1732.78,-89.5844 1702,-56 1669.29,-20.3104 1326.46,-12.8221 1218.42,-11.3439"/>
<polygon fill="midnightblue" stroke="midnightblue" points="1218.18,-7.84069 1208.14,-11.212 1218.09,-14.8401 1218.18,-7.84069"/>
</g>
<!-- Node40&#45;&gt;Node39 -->
<g id="edge55" class="edge"><title>Node40&#45;&gt;Node39</title>
<path fill="none" stroke="midnightblue" d="M1522.9,-224.324C1508.1,-215.822 1485.31,-202.729 1468.02,-192.797"/>
<polygon fill="midnightblue" stroke="midnightblue" points="1469.48,-189.601 1459.07,-187.655 1465.99,-195.671 1469.48,-189.601"/>
</g>
<!-- Node41&#45;&gt;Node2 -->
<g id="edge61" class="edge"><title>Node41&#45;&gt;Node2</title>
<path fill="none" stroke="midnightblue" d="M1251.65,-280.361C1250.31,-258.489 1243.77,-200.372 1212,-168 1195.76,-151.453 1173.09,-140.977 1151.33,-134.351"/>
<polygon fill="midnightblue" stroke="midnightblue" points="1152,-130.903 1141.42,-131.57 1150.1,-137.643 1152,-130.903"/>
</g>
<!-- Node41&#45;&gt;Node40 -->
<g id="edge62" class="edge"><title>Node41&#45;&gt;Node40</title>
<path fill="none" stroke="midnightblue" d="M1278.22,-282.942C1282.8,-281.928 1287.54,-280.91 1292,-280 1366.31,-264.849 1453.75,-249.423 1501.8,-241.151"/>
<polygon fill="midnightblue" stroke="midnightblue" points="1502.46,-244.589 1511.72,-239.448 1501.27,-237.69 1502.46,-244.589"/>
</g>
<!-- Node42&#45;&gt;Node2 -->
<g id="edge64" class="edge"><title>Node42&#45;&gt;Node2</title>
<path fill="none" stroke="midnightblue" d="M1266.47,-336.465C1250.84,-328.988 1229.89,-316.7 1217,-300 1179.31,-251.151 1214.27,-214.75 1174,-168 1160.92,-152.811 1141.48,-142.198 1124.01,-135.109"/>
<polygon fill="midnightblue" stroke="midnightblue" points="1125.16,-131.8 1114.57,-131.527 1122.68,-138.345 1125.16,-131.8"/>
</g>
<!-- Node42&#45;&gt;Node40 -->
<g id="edge65" class="edge"><title>Node42&#45;&gt;Node40</title>
<path fill="none" stroke="midnightblue" d="M1300.23,-336.285C1321.01,-322.863 1362.89,-296.916 1401,-280 1434.32,-265.209 1474.06,-252.685 1502.14,-244.634"/>
<polygon fill="midnightblue" stroke="midnightblue" points="1503.25,-247.958 1511.92,-241.875 1501.34,-241.221 1503.25,-247.958"/>
</g>
<!-- Node42&#45;&gt;Node41 -->
<g id="edge66" class="edge"><title>Node42&#45;&gt;Node41</title>
<path fill="none" stroke="midnightblue" d="M1281.22,-336.083C1276.33,-328.534 1269.17,-317.495 1263.17,-308.23"/>
<polygon fill="midnightblue" stroke="midnightblue" points="1266.05,-306.239 1257.67,-299.751 1260.17,-310.046 1266.05,-306.239"/>
</g>
</g>
</svg>
        <g id="navigator" transform="translate(0 0)" fill="#404254">
                <rect fill="#f2f5e9" fill-opacity="0.5" stroke="#606060" stroke-width=".5" x="0" y="0" width="60" height="60"/>
                <use id="zoomplus" xlink:href="#zoomPlus" x="17" y="9" onmousedown="handleZoom(evt,'in')"/>
                <use id="zoomminus" xlink:href="#zoomMin" x="42" y="9" onmousedown="handleZoom(evt,'out')"/>
                <use id="reset" xlink:href="#resetDef" x="30" y="36" onmousedown="handleReset()"/>
                <g id="arrowUp" xlink:href="#dirArrow" transform="translate(30 24)" onmousedown="handlePan(0,-1)">
                  <use xlink:href="#rim" fill="#404040">
                        <set attributeName="fill" to="#808080" begin="arrowUp.mouseover" end="arrowUp.mouseout"/>
                  </use>
                  <path fill="none" stroke="white" stroke-width="1.5" d="M0,-3.0v7 M-2.5,-0.5L0,-3.0L2.5,-0.5"/>
                </g>
                <g id="arrowRight" xlink:href="#dirArrow" transform="rotate(90) translate(36 -43)" onmousedown="handlePan(1,0)">
                  <use xlink:href="#rim" fill="#404040">
                        <set attributeName="fill" to="#808080" begin="arrowRight.mouseover" end="arrowRight.mouseout"/>
                  </use>
                  <path fill="none" stroke="white" stroke-width="1.5" d="M0,-3.0v7 M-2.5,-0.5L0,-3.0L2.5,-0.5"/>
                </g>
                <g id="arrowDown" xlink:href="#dirArrow" transform="rotate(180) translate(-30 -48)" onmousedown="handlePan(0,1)">
                  <use xlink:href="#rim" fill="#404040">
                        <set attributeName="fill" to="#808080" begin="arrowDown.mouseover" end="arrowDown.mouseout"/>
                  </use>
                  <path fill="none" stroke="white" stroke-width="1.5" d="M0,-3.0v7 M-2.5,-0.5L0,-3.0L2.5,-0.5"/>
                </g>
                <g id="arrowLeft" xlink:href="#dirArrow" transform="rotate(270) translate(-36 17)" onmousedown="handlePan(-1,0)">
                  <use xlink:href="#rim" fill="#404040">
                        <set attributeName="fill" to="#808080" begin="arrowLeft.mouseover" end="arrowLeft.mouseout"/>
                  </use>
                  <path fill="none" stroke="white" stroke-width="1.5" d="M0,-3.0v7 M-2.5,-0.5L0,-3.0L2.5,-0.5"/>
                </g>
        </g>
        <svg viewBox="0 0 15 15" width="100%" height="30px" preserveAspectRatio="xMaxYMin meet">
         <g id="arrow_out" transform="scale(0.3 0.3)">
          <a xlink:href="cubesat2obj_8cpp__incl_org.svg" target="_base">
           <rect id="button" ry="5" rx="5" y="6" x="6" height="38" width="38"
                fill="#f2f5e9" fill-opacity="0.5" stroke="#606060" stroke-width="1.0"/>
           <path id="arrow"
             d="M 11.500037,31.436501 C 11.940474,20.09759 22.043105,11.32322 32.158766,21.979434 L 37.068811,17.246167 C 37.068811,17.246167 37.088388,32 37.088388,32 L 22.160133,31.978069 C 22.160133,31.978069 26.997745,27.140456 26.997745,27.140456 C 18.528582,18.264221 13.291696,25.230495 11.500037,31.436501 z"
             style="fill:#404040;"/>
          </a>
         </g>
        </svg>
</svg>
