<?xml version="1.0" encoding="UTF-8" standalone="no"?>
<!DOCTYPE svg PUBLIC "-//W3C//DTD SVG 1.1//EN"
 "http://www.w3.org/Graphics/SVG/1.1/DTD/svg11.dtd">
<!-- Generated by graphviz version 2.38.0 (20140413.2041)
 -->
<!-- Title: datalib.h Pages: 1 -->
<svg width="1858pt" height="532pt"
 viewBox="0.00 0.00 1858.00 532.00" xmlns="http://www.w3.org/2000/svg" xmlns:xlink="http://www.w3.org/1999/xlink">
<g id="graph0" class="graph" transform="scale(1 1) rotate(0) translate(4 528)">
<title>datalib.h</title>
<polygon fill="white" stroke="none" points="-4,4 -4,-528 1854,-528 1854,4 -4,4"/>
<!-- Node1 -->
<g id="node1" class="node"><title>Node1</title>
<polygon fill="#bfbfbf" stroke="black" points="1425,-504.5 1425,-523.5 1478,-523.5 1478,-504.5 1425,-504.5"/>
<text text-anchor="middle" x="1451.5" y="-511.5" font-family="Helvetica,sans-Serif" font-size="10.00">datalib.h</text>
</g>
<!-- Node2 -->
<g id="node2" class="node"><title>Node2</title>
<g id="a_node2"><a xlink:href="config_cosmos_8h.html" target="_top" xlink:title="Headers and definitions common to all COSMOS. ">
<polygon fill="white" stroke="black" points="944,-112.5 944,-131.5 1067,-131.5 1067,-112.5 944,-112.5"/>
<text text-anchor="middle" x="1005.5" y="-119.5" font-family="Helvetica,sans-Serif" font-size="10.00">support/configCosmos.h</text>
</a>
</g>
</g>
<!-- Node1&#45;&gt;Node2 -->
<g id="edge1" class="edge"><title>Node1&#45;&gt;Node2</title>
<path fill="none" stroke="midnightblue" d="M1424.92,-510.779C1311.83,-500.984 876.5,-459.599 876.5,-403 876.5,-403 876.5,-403 876.5,-233 876.5,-183.346 932.522,-151.365 970.729,-135.328"/>
<polygon fill="midnightblue" stroke="midnightblue" points="972.042,-138.572 980.014,-131.593 969.43,-132.078 972.042,-138.572"/>
</g>
<!-- Node32 -->
<g id="node32" class="node"><title>Node32</title>
<g id="a_node32"><a xlink:href="cosmos-errno_8h.html" target="_top" xlink:title="COSMOS Error Codes. ">
<polygon fill="white" stroke="black" points="1186,-168.5 1186,-187.5 1305,-187.5 1305,-168.5 1186,-168.5"/>
<text text-anchor="middle" x="1245.5" y="-175.5" font-family="Helvetica,sans-Serif" font-size="10.00">support/cosmos&#45;errno.h</text>
</a>
</g>
</g>
<!-- Node1&#45;&gt;Node32 -->
<g id="edge40" class="edge"><title>Node1&#45;&gt;Node32</title>
<path fill="none" stroke="midnightblue" d="M1424.59,-507.46C1400.75,-501.35 1366.3,-489.415 1343.5,-468 1320.03,-445.956 1311.5,-435.2 1311.5,-403 1311.5,-403 1311.5,-403 1311.5,-289 1311.5,-258.775 1307.23,-249.808 1291.5,-224 1284.64,-212.753 1274.35,-202.32 1265.23,-194.337"/>
<polygon fill="midnightblue" stroke="midnightblue" points="1267.24,-191.46 1257.32,-187.742 1262.76,-196.836 1267.24,-191.46"/>
</g>
<!-- Node34 -->
<g id="node34" class="node"><title>Node34</title>
<g id="a_node34"><a xlink:href="jsondef_8h.html" target="_top" xlink:title="support/jsondef.h">
<polygon fill="white" stroke="black" points="1170.5,-392.5 1170.5,-411.5 1262.5,-411.5 1262.5,-392.5 1170.5,-392.5"/>
<text text-anchor="middle" x="1216.5" y="-399.5" font-family="Helvetica,sans-Serif" font-size="10.00">support/jsondef.h</text>
</a>
</g>
</g>
<!-- Node1&#45;&gt;Node34 -->
<g id="edge43" class="edge"><title>Node1&#45;&gt;Node34</title>
<path fill="none" stroke="midnightblue" d="M1424.98,-508.53C1393.31,-502.468 1339.37,-489.813 1297.5,-468 1272.67,-455.067 1248.17,-433.915 1232.73,-419.269"/>
<polygon fill="midnightblue" stroke="midnightblue" points="1234.75,-416.352 1225.14,-411.895 1229.87,-421.373 1234.75,-416.352"/>
</g>
<!-- Node40 -->
<g id="node40" class="node"><title>Node40</title>
<g id="a_node40"><a xlink:href="jsonlib_8h.html" target="_top" xlink:title="JSON Support definitions. ">
<polygon fill="white" stroke="black" points="1352.5,-448.5 1352.5,-467.5 1440.5,-467.5 1440.5,-448.5 1352.5,-448.5"/>
<text text-anchor="middle" x="1396.5" y="-455.5" font-family="Helvetica,sans-Serif" font-size="10.00">support/jsonlib.h</text>
</a>
</g>
</g>
<!-- Node1&#45;&gt;Node40 -->
<g id="edge61" class="edge"><title>Node1&#45;&gt;Node40</title>
<path fill="none" stroke="midnightblue" d="M1437.55,-504.324C1427.98,-496.576 1415.82,-485.017 1407.04,-475.511"/>
<polygon fill="midnightblue" stroke="midnightblue" points="1409.56,-473.072 1400.35,-467.834 1404.28,-477.672 1409.56,-473.072"/>
</g>
<!-- Node42 -->
<g id="node42" class="node"><title>Node42</title>
<g id="a_node42"><a xlink:href="zlib_8h.html" target="_top" xlink:title="thirdparty/zlib/zlib.h">
<polygon fill="white" stroke="black" points="1535,-448.5 1535,-467.5 1636,-467.5 1636,-448.5 1535,-448.5"/>
<text text-anchor="middle" x="1585.5" y="-455.5" font-family="Helvetica,sans-Serif" font-size="10.00">thirdparty/zlib/zlib.h</text>
</a>
</g>
</g>
<!-- Node1&#45;&gt;Node42 -->
<g id="edge71" class="edge"><title>Node1&#45;&gt;Node42</title>
<path fill="none" stroke="midnightblue" d="M1472.73,-504.444C1494.88,-495.517 1529.82,-481.439 1554.94,-471.317"/>
<polygon fill="midnightblue" stroke="midnightblue" points="1556.4,-474.501 1564.37,-467.516 1553.78,-468.008 1556.4,-474.501"/>
</g>
<!-- Node44 -->
<g id="node44" class="node"><title>Node44</title>
<g id="a_node44"><a xlink:href="timelib_8h.html" target="_top" xlink:title="timelib include file A library providing functions for handling various types of time. ">
<polygon fill="white" stroke="red" points="1503,-280.5 1503,-299.5 1592,-299.5 1592,-280.5 1503,-280.5"/>
<text text-anchor="middle" x="1547.5" y="-287.5" font-family="Helvetica,sans-Serif" font-size="10.00">support/timelib.h</text>
</a>
</g>
</g>
<!-- Node1&#45;&gt;Node44 -->
<g id="edge74" class="edge"><title>Node1&#45;&gt;Node44</title>
<path fill="none" stroke="midnightblue" d="M1455.26,-504.297C1469.48,-471.425 1520.09,-354.391 1539.68,-309.09"/>
<polygon fill="midnightblue" stroke="midnightblue" points="1542.9,-310.452 1543.66,-299.884 1536.48,-307.673 1542.9,-310.452"/>
</g>
<!-- Node48 -->
<g id="node48" class="node"><title>Node48</title>
<polygon fill="white" stroke="#bfbfbf" points="1654.5,-448.5 1654.5,-467.5 1714.5,-467.5 1714.5,-448.5 1654.5,-448.5"/>
<text text-anchor="middle" x="1684.5" y="-455.5" font-family="Helvetica,sans-Serif" font-size="10.00">sys/stat.h</text>
</g>
<!-- Node1&#45;&gt;Node48 -->
<g id="edge85" class="edge"><title>Node1&#45;&gt;Node48</title>
<path fill="none" stroke="midnightblue" d="M1478.23,-506.806C1518.99,-497.359 1596.94,-479.292 1644.47,-468.276"/>
<polygon fill="midnightblue" stroke="midnightblue" points="1645.47,-471.639 1654.42,-465.971 1643.89,-464.82 1645.47,-471.639"/>
</g>
<!-- Node49 -->
<g id="node49" class="node"><title>Node49</title>
<polygon fill="white" stroke="#bfbfbf" points="1732.5,-448.5 1732.5,-467.5 1782.5,-467.5 1782.5,-448.5 1732.5,-448.5"/>
<text text-anchor="middle" x="1757.5" y="-455.5" font-family="Helvetica,sans-Serif" font-size="10.00">fstream</text>
</g>
<!-- Node1&#45;&gt;Node49 -->
<g id="edge86" class="edge"><title>Node1&#45;&gt;Node49</title>
<path fill="none" stroke="midnightblue" d="M1478.3,-509.427C1525.63,-502.93 1627.3,-488.154 1722.53,-468.043"/>
<polygon fill="midnightblue" stroke="midnightblue" points="1723.27,-471.464 1732.31,-465.952 1721.8,-464.618 1723.27,-471.464"/>
</g>
<!-- Node50 -->
<g id="node50" class="node"><title>Node50</title>
<g id="a_node50"><a xlink:href="dirent_8h.html" target="_top" xlink:title="dirent.h">
<polygon fill="white" stroke="black" points="1801,-448.5 1801,-467.5 1850,-467.5 1850,-448.5 1801,-448.5"/>
<text text-anchor="middle" x="1825.5" y="-455.5" font-family="Helvetica,sans-Serif" font-size="10.00">dirent.h</text>
</a>
</g>
</g>
<!-- Node1&#45;&gt;Node50 -->
<g id="edge87" class="edge"><title>Node1&#45;&gt;Node50</title>
<path fill="none" stroke="midnightblue" d="M1478.14,-510.638C1534.19,-505.421 1668.51,-491.619 1790.8,-467.903"/>
<polygon fill="midnightblue" stroke="midnightblue" points="1791.57,-471.318 1800.7,-465.954 1790.21,-464.45 1791.57,-471.318"/>
</g>
<!-- Node3 -->
<g id="node3" class="node"><title>Node3</title>
<polygon fill="white" stroke="#bfbfbf" points="0,-56.5 0,-75.5 45,-75.5 45,-56.5 0,-56.5"/>
<text text-anchor="middle" x="22.5" y="-63.5" font-family="Helvetica,sans-Serif" font-size="10.00">climits</text>
</g>
<!-- Node2&#45;&gt;Node3 -->
<g id="edge2" class="edge"><title>Node2&#45;&gt;Node3</title>
<path fill="none" stroke="midnightblue" d="M943.88,-119.98C764.697,-116.718 245.035,-105.101 55.1848,-75.8435"/>
<polygon fill="midnightblue" stroke="midnightblue" points="55.4742,-72.3451 45.0449,-74.2106 54.3612,-79.2561 55.4742,-72.3451"/>
</g>
<!-- Node4 -->
<g id="node4" class="node"><title>Node4</title>
<polygon fill="white" stroke="#bfbfbf" points="63,-56.5 63,-75.5 110,-75.5 110,-56.5 63,-56.5"/>
<text text-anchor="middle" x="86.5" y="-63.5" font-family="Helvetica,sans-Serif" font-size="10.00">csignal</text>
</g>
<!-- Node2&#45;&gt;Node4 -->
<g id="edge3" class="edge"><title>Node2&#45;&gt;Node4</title>
<path fill="none" stroke="midnightblue" d="M943.881,-119.598C773.461,-115.452 297.318,-101.976 120.136,-75.6557"/>
<polygon fill="midnightblue" stroke="midnightblue" points="120.578,-72.1825 110.159,-74.1083 119.505,-79.0998 120.578,-72.1825"/>
</g>
<!-- Node5 -->
<g id="node5" class="node"><title>Node5</title>
<polygon fill="white" stroke="#bfbfbf" points="128.5,-56.5 128.5,-75.5 174.5,-75.5 174.5,-56.5 128.5,-56.5"/>
<text text-anchor="middle" x="151.5" y="-63.5" font-family="Helvetica,sans-Serif" font-size="10.00">cstdint</text>
</g>
<!-- Node2&#45;&gt;Node5 -->
<g id="edge4" class="edge"><title>Node2&#45;&gt;Node5</title>
<path fill="none" stroke="midnightblue" d="M943.919,-119.38C782.352,-114.856 348.086,-100.862 184.687,-75.7769"/>
<polygon fill="midnightblue" stroke="midnightblue" points="185.213,-72.3166 174.785,-74.1866 184.103,-79.2281 185.213,-72.3166"/>
</g>
<!-- Node6 -->
<g id="node6" class="node"><title>Node6</title>
<polygon fill="white" stroke="#bfbfbf" points="192.5,-56.5 192.5,-75.5 248.5,-75.5 248.5,-56.5 192.5,-56.5"/>
<text text-anchor="middle" x="220.5" y="-63.5" font-family="Helvetica,sans-Serif" font-size="10.00">cinttypes</text>
</g>
<!-- Node2&#45;&gt;Node6 -->
<g id="edge5" class="edge"><title>Node2&#45;&gt;Node6</title>
<path fill="none" stroke="midnightblue" d="M943.539,-120.999C816.568,-120.189 517.686,-114.145 258.651,-75.8949"/>
<polygon fill="midnightblue" stroke="midnightblue" points="259.087,-72.4212 248.679,-74.4033 258.051,-79.3442 259.087,-72.4212"/>
</g>
<!-- Node7 -->
<g id="node7" class="node"><title>Node7</title>
<polygon fill="white" stroke="#bfbfbf" points="267,-56.5 267,-75.5 310,-75.5 310,-56.5 267,-56.5"/>
<text text-anchor="middle" x="288.5" y="-63.5" font-family="Helvetica,sans-Serif" font-size="10.00">cstdio</text>
</g>
<!-- Node2&#45;&gt;Node7 -->
<g id="edge6" class="edge"><title>Node2&#45;&gt;Node7</title>
<path fill="none" stroke="midnightblue" d="M943.818,-121.603C824.564,-121.763 554.203,-117.234 320.369,-75.9678"/>
<polygon fill="midnightblue" stroke="midnightblue" points="320.777,-72.4851 310.316,-74.1667 319.542,-79.3754 320.777,-72.4851"/>
</g>
<!-- Node8 -->
<g id="node8" class="node"><title>Node8</title>
<polygon fill="white" stroke="#bfbfbf" points="328,-56.5 328,-75.5 377,-75.5 377,-56.5 328,-56.5"/>
<text text-anchor="middle" x="352.5" y="-63.5" font-family="Helvetica,sans-Serif" font-size="10.00">cstddef</text>
</g>
<!-- Node2&#45;&gt;Node8 -->
<g id="edge7" class="edge"><title>Node2&#45;&gt;Node8</title>
<path fill="none" stroke="midnightblue" d="M943.865,-120.468C833.63,-118.658 595.477,-110.855 387.148,-75.9843"/>
<polygon fill="midnightblue" stroke="midnightblue" points="387.696,-72.5273 377.251,-74.3032 386.523,-79.4284 387.696,-72.5273"/>
</g>
<!-- Node9 -->
<g id="node9" class="node"><title>Node9</title>
<polygon fill="white" stroke="#bfbfbf" points="395,-56.5 395,-75.5 440,-75.5 440,-56.5 395,-56.5"/>
<text text-anchor="middle" x="417.5" y="-63.5" font-family="Helvetica,sans-Serif" font-size="10.00">cstdlib</text>
</g>
<!-- Node2&#45;&gt;Node9 -->
<g id="edge8" class="edge"><title>Node2&#45;&gt;Node9</title>
<path fill="none" stroke="midnightblue" d="M943.706,-119.89C842.356,-117.218 634.51,-108.167 449.982,-75.7051"/>
<polygon fill="midnightblue" stroke="midnightblue" points="450.559,-72.2529 440.1,-73.94 449.328,-79.1439 450.559,-72.2529"/>
</g>
<!-- Node10 -->
<g id="node10" class="node"><title>Node10</title>
<polygon fill="white" stroke="#bfbfbf" points="458.5,-56.5 458.5,-75.5 502.5,-75.5 502.5,-56.5 458.5,-56.5"/>
<text text-anchor="middle" x="480.5" y="-63.5" font-family="Helvetica,sans-Serif" font-size="10.00">cerrno</text>
</g>
<!-- Node2&#45;&gt;Node10 -->
<g id="edge9" class="edge"><title>Node2&#45;&gt;Node10</title>
<path fill="none" stroke="midnightblue" d="M943.751,-119.171C851.643,-115.609 672.827,-105.48 512.756,-75.8906"/>
<polygon fill="midnightblue" stroke="midnightblue" points="513.202,-72.4132 502.727,-74.0064 511.909,-79.2928 513.202,-72.4132"/>
</g>
<!-- Node11 -->
<g id="node11" class="node"><title>Node11</title>
<polygon fill="white" stroke="#bfbfbf" points="520.5,-56.5 520.5,-75.5 566.5,-75.5 566.5,-56.5 520.5,-56.5"/>
<text text-anchor="middle" x="543.5" y="-63.5" font-family="Helvetica,sans-Serif" font-size="10.00">cstring</text>
</g>
<!-- Node2&#45;&gt;Node11 -->
<g id="edge10" class="edge"><title>Node2&#45;&gt;Node11</title>
<path fill="none" stroke="midnightblue" d="M943.781,-117.843C861.884,-112.923 712.755,-101.428 576.977,-75.9862"/>
<polygon fill="midnightblue" stroke="midnightblue" points="577.288,-72.4826 566.809,-74.0498 575.978,-79.359 577.288,-72.4826"/>
</g>
<!-- Node12 -->
<g id="node12" class="node"><title>Node12</title>
<polygon fill="white" stroke="#bfbfbf" points="1620.5,-56.5 1620.5,-75.5 1664.5,-75.5 1664.5,-56.5 1620.5,-56.5"/>
<text text-anchor="middle" x="1642.5" y="-63.5" font-family="Helvetica,sans-Serif" font-size="10.00">cmath</text>
</g>
<!-- Node2&#45;&gt;Node12 -->
<g id="edge11" class="edge"><title>Node2&#45;&gt;Node12</title>
<path fill="none" stroke="midnightblue" d="M1067.1,-120.647C1175.45,-119.108 1407.13,-111.708 1610.32,-75.8374"/>
<polygon fill="midnightblue" stroke="midnightblue" points="1611.06,-79.2617 1620.28,-74.052 1609.82,-72.3716 1611.06,-79.2617"/>
</g>
<!-- Node13 -->
<g id="node13" class="node"><title>Node13</title>
<polygon fill="white" stroke="#bfbfbf" points="585,-56.5 585,-75.5 630,-75.5 630,-56.5 585,-56.5"/>
<text text-anchor="middle" x="607.5" y="-63.5" font-family="Helvetica,sans-Serif" font-size="10.00">iosfwd</text>
</g>
<!-- Node2&#45;&gt;Node13 -->
<g id="edge12" class="edge"><title>Node2&#45;&gt;Node13</title>
<path fill="none" stroke="midnightblue" d="M943.972,-116.492C872.821,-110.603 752.105,-98.5296 640.19,-76.0724"/>
<polygon fill="midnightblue" stroke="midnightblue" points="640.58,-72.58 630.082,-74.0106 639.181,-79.4388 640.58,-72.58"/>
</g>
<!-- Node14 -->
<g id="node14" class="node"><title>Node14</title>
<polygon fill="white" stroke="#bfbfbf" points="1548.5,-56.5 1548.5,-75.5 1602.5,-75.5 1602.5,-56.5 1548.5,-56.5"/>
<text text-anchor="middle" x="1575.5" y="-63.5" font-family="Helvetica,sans-Serif" font-size="10.00">iostream</text>
</g>
<!-- Node2&#45;&gt;Node14 -->
<g id="edge13" class="edge"><title>Node2&#45;&gt;Node14</title>
<path fill="none" stroke="midnightblue" d="M1067.03,-116.026C1160.84,-108.304 1345.23,-92.588 1501.5,-76 1513.54,-74.7215 1526.67,-73.175 1538.48,-71.7273"/>
<polygon fill="midnightblue" stroke="midnightblue" points="1538.97,-75.1941 1548.46,-70.4897 1538.1,-68.2473 1538.97,-75.1941"/>
</g>
<!-- Node15 -->
<g id="node15" class="node"><title>Node15</title>
<polygon fill="white" stroke="#bfbfbf" points="1440.5,-56.5 1440.5,-75.5 1492.5,-75.5 1492.5,-56.5 1440.5,-56.5"/>
<text text-anchor="middle" x="1466.5" y="-63.5" font-family="Helvetica,sans-Serif" font-size="10.00">sstream</text>
</g>
<!-- Node2&#45;&gt;Node15 -->
<g id="edge14" class="edge"><title>Node2&#45;&gt;Node15</title>
<path fill="none" stroke="midnightblue" d="M1067.15,-116.639C1149.45,-110.311 1299.59,-96.9892 1426.5,-76 1427.76,-75.7909 1429.05,-75.5668 1430.34,-75.3307"/>
<polygon fill="midnightblue" stroke="midnightblue" points="1431.21,-78.7266 1440.33,-73.3394 1429.84,-71.8616 1431.21,-78.7266"/>
</g>
<!-- Node16 -->
<g id="node16" class="node"><title>Node16</title>
<polygon fill="white" stroke="#bfbfbf" points="648,-56.5 648,-75.5 689,-75.5 689,-56.5 648,-56.5"/>
<text text-anchor="middle" x="668.5" y="-63.5" font-family="Helvetica,sans-Serif" font-size="10.00">regex</text>
</g>
<!-- Node2&#45;&gt;Node16 -->
<g id="edge15" class="edge"><title>Node2&#45;&gt;Node16</title>
<path fill="none" stroke="midnightblue" d="M943.863,-113.719C882.6,-106.036 786.108,-92.7287 703.5,-76 702.04,-75.7043 700.549,-75.3859 699.046,-75.0517"/>
<polygon fill="midnightblue" stroke="midnightblue" points="699.685,-71.6061 689.146,-72.6877 698.06,-78.4147 699.685,-71.6061"/>
</g>
<!-- Node17 -->
<g id="node17" class="node"><title>Node17</title>
<polygon fill="white" stroke="#bfbfbf" points="745.5,-56.5 745.5,-75.5 795.5,-75.5 795.5,-56.5 745.5,-56.5"/>
<text text-anchor="middle" x="770.5" y="-63.5" font-family="Helvetica,sans-Serif" font-size="10.00">iomanip</text>
</g>
<!-- Node2&#45;&gt;Node17 -->
<g id="edge16" class="edge"><title>Node2&#45;&gt;Node17</title>
<path fill="none" stroke="midnightblue" d="M965.351,-112.488C926.766,-104.201 866.583,-90.9996 805.527,-76.1837"/>
<polygon fill="midnightblue" stroke="midnightblue" points="806.268,-72.7619 795.723,-73.7924 804.609,-79.5625 806.268,-72.7619"/>
</g>
<!-- Node18 -->
<g id="node18" class="node"><title>Node18</title>
<polygon fill="white" stroke="#bfbfbf" points="1780,-56.5 1780,-75.5 1831,-75.5 1831,-56.5 1780,-56.5"/>
<text text-anchor="middle" x="1805.5" y="-63.5" font-family="Helvetica,sans-Serif" font-size="10.00">unistd.h</text>
</g>
<!-- Node2&#45;&gt;Node18 -->
<g id="edge17" class="edge"><title>Node2&#45;&gt;Node18</title>
<path fill="none" stroke="midnightblue" d="M1067.01,-118.915C1220.24,-113.48 1617,-97.8696 1769.5,-75.7802"/>
<polygon fill="midnightblue" stroke="midnightblue" points="1770.26,-79.2056 1779.62,-74.2474 1769.21,-72.2846 1770.26,-79.2056"/>
</g>
<!-- Node19 -->
<g id="node19" class="node"><title>Node19</title>
<polygon fill="white" stroke="#bfbfbf" points="813.5,-56.5 813.5,-75.5 857.5,-75.5 857.5,-56.5 813.5,-56.5"/>
<text text-anchor="middle" x="835.5" y="-63.5" font-family="Helvetica,sans-Serif" font-size="10.00">fcntl.h</text>
</g>
<!-- Node2&#45;&gt;Node19 -->
<g id="edge18" class="edge"><title>Node2&#45;&gt;Node19</title>
<path fill="none" stroke="midnightblue" d="M978.563,-112.444C948.403,-102.863 899.562,-87.3492 867.486,-77.1604"/>
<polygon fill="midnightblue" stroke="midnightblue" points="868.296,-73.7454 857.706,-74.0537 866.177,-80.4169 868.296,-73.7454"/>
</g>
<!-- Node20 -->
<g id="node20" class="node"><title>Node20</title>
<polygon fill="white" stroke="#bfbfbf" points="1721.5,-56.5 1721.5,-75.5 1761.5,-75.5 1761.5,-56.5 1721.5,-56.5"/>
<text text-anchor="middle" x="1741.5" y="-63.5" font-family="Helvetica,sans-Serif" font-size="10.00">limits</text>
</g>
<!-- Node2&#45;&gt;Node20 -->
<g id="edge19" class="edge"><title>Node2&#45;&gt;Node20</title>
<path fill="none" stroke="midnightblue" d="M1067.31,-118.167C1185.34,-112.463 1450.85,-98.2102 1673.5,-76 1685.84,-74.7692 1699.39,-73.0507 1711.13,-71.4448"/>
<polygon fill="midnightblue" stroke="midnightblue" points="1711.89,-74.8722 1721.31,-70.019 1710.92,-67.9399 1711.89,-74.8722"/>
</g>
<!-- Node21 -->
<g id="node21" class="node"><title>Node21</title>
<polygon fill="white" stroke="#bfbfbf" points="1446,-0.5 1446,-19.5 1487,-19.5 1487,-0.5 1446,-0.5"/>
<text text-anchor="middle" x="1466.5" y="-7.5" font-family="Helvetica,sans-Serif" font-size="10.00">string</text>
</g>
<!-- Node2&#45;&gt;Node21 -->
<g id="edge20" class="edge"><title>Node2&#45;&gt;Node21</title>
<path fill="none" stroke="midnightblue" d="M1067.19,-117.021C1156.78,-110.636 1318.13,-96.6837 1372.5,-76 1402.46,-64.6027 1432.04,-41.7022 1449.79,-26.3573"/>
<polygon fill="midnightblue" stroke="midnightblue" points="1452.35,-28.7697 1457.51,-19.5149 1447.7,-23.5334 1452.35,-28.7697"/>
</g>
<!-- Node22 -->
<g id="node22" class="node"><title>Node22</title>
<polygon fill="white" stroke="#bfbfbf" points="1232.5,-0.5 1232.5,-19.5 1276.5,-19.5 1276.5,-0.5 1232.5,-0.5"/>
<text text-anchor="middle" x="1254.5" y="-7.5" font-family="Helvetica,sans-Serif" font-size="10.00">vector</text>
</g>
<!-- Node2&#45;&gt;Node22 -->
<g id="edge21" class="edge"><title>Node2&#45;&gt;Node22</title>
<path fill="none" stroke="midnightblue" d="M1067.33,-120.283C1111.87,-116.952 1171.47,-106.435 1214.5,-76 1230.69,-64.5479 1241.62,-44.2685 1247.91,-29.3981"/>
<polygon fill="midnightblue" stroke="midnightblue" points="1251.31,-30.3182 1251.68,-19.7298 1244.79,-27.7773 1251.31,-30.3182"/>
</g>
<!-- Node23 -->
<g id="node23" class="node"><title>Node23</title>
<polygon fill="white" stroke="#bfbfbf" points="914,-56.5 914,-75.5 955,-75.5 955,-56.5 914,-56.5"/>
<text text-anchor="middle" x="934.5" y="-63.5" font-family="Helvetica,sans-Serif" font-size="10.00">stack</text>
</g>
<!-- Node2&#45;&gt;Node23 -->
<g id="edge22" class="edge"><title>Node2&#45;&gt;Node23</title>
<path fill="none" stroke="midnightblue" d="M994.093,-112.324C983.391,-104.185 967.159,-91.8395 954.337,-82.0874"/>
<polygon fill="midnightblue" stroke="midnightblue" points="956.193,-79.1018 946.115,-75.8339 951.956,-84.6734 956.193,-79.1018"/>
</g>
<!-- Node24 -->
<g id="node24" class="node"><title>Node24</title>
<polygon fill="white" stroke="#bfbfbf" points="973,-56.5 973,-75.5 1016,-75.5 1016,-56.5 973,-56.5"/>
<text text-anchor="middle" x="994.5" y="-63.5" font-family="Helvetica,sans-Serif" font-size="10.00">deque</text>
</g>
<!-- Node2&#45;&gt;Node24 -->
<g id="edge23" class="edge"><title>Node2&#45;&gt;Node24</title>
<path fill="none" stroke="midnightblue" d="M1003.68,-112.083C1002.23,-104.927 1000.13,-94.6353 998.307,-85.6911"/>
<polygon fill="midnightblue" stroke="midnightblue" points="1001.71,-84.8512 996.283,-75.7511 994.849,-86.2485 1001.71,-84.8512"/>
</g>
<!-- Node25 -->
<g id="node25" class="node"><title>Node25</title>
<polygon fill="white" stroke="#bfbfbf" points="764.5,-0.5 764.5,-19.5 808.5,-19.5 808.5,-0.5 764.5,-0.5"/>
<text text-anchor="middle" x="786.5" y="-7.5" font-family="Helvetica,sans-Serif" font-size="10.00">mutex</text>
</g>
<!-- Node2&#45;&gt;Node25 -->
<g id="edge24" class="edge"><title>Node2&#45;&gt;Node25</title>
<path fill="none" stroke="midnightblue" d="M943.941,-119.59C872.92,-116.511 762.544,-106.763 736.5,-76 722.141,-59.0388 743.881,-38.5955 763.037,-25.2224"/>
<polygon fill="midnightblue" stroke="midnightblue" points="765.108,-28.0492 771.518,-19.6134 761.247,-22.2107 765.108,-28.0492"/>
</g>
<!-- Node26 -->
<g id="node26" class="node"><title>Node26</title>
<polygon fill="white" stroke="#bfbfbf" points="914.5,-0.5 914.5,-19.5 958.5,-19.5 958.5,-0.5 914.5,-0.5"/>
<text text-anchor="middle" x="936.5" y="-7.5" font-family="Helvetica,sans-Serif" font-size="10.00">thread</text>
</g>
<!-- Node2&#45;&gt;Node26 -->
<g id="edge25" class="edge"><title>Node2&#45;&gt;Node26</title>
<path fill="none" stroke="midnightblue" d="M959.847,-112.431C939.257,-106.044 916.835,-94.999 904.5,-76 894.194,-60.1258 907.058,-40.4567 919.416,-26.9377"/>
<polygon fill="midnightblue" stroke="midnightblue" points="921.949,-29.3533 926.454,-19.7639 916.952,-24.451 921.949,-29.3533"/>
</g>
<!-- Node27 -->
<g id="node27" class="node"><title>Node27</title>
<polygon fill="white" stroke="#bfbfbf" points="1012,-0.5 1012,-19.5 1107,-19.5 1107,-0.5 1012,-0.5"/>
<text text-anchor="middle" x="1059.5" y="-7.5" font-family="Helvetica,sans-Serif" font-size="10.00">condition_variable</text>
</g>
<!-- Node2&#45;&gt;Node27 -->
<g id="edge26" class="edge"><title>Node2&#45;&gt;Node27</title>
<path fill="none" stroke="midnightblue" d="M1009.74,-112.368C1018.57,-94.376 1039.1,-52.5503 1050.85,-28.6267"/>
<polygon fill="midnightblue" stroke="midnightblue" points="1054.02,-30.1105 1055.28,-19.5914 1047.73,-27.0257 1054.02,-30.1105"/>
</g>
<!-- Node28 -->
<g id="node28" class="node"><title>Node28</title>
<polygon fill="white" stroke="#bfbfbf" points="1141,-0.5 1141,-19.5 1184,-19.5 1184,-0.5 1141,-0.5"/>
<text text-anchor="middle" x="1162.5" y="-7.5" font-family="Helvetica,sans-Serif" font-size="10.00">queue</text>
</g>
<!-- Node2&#45;&gt;Node28 -->
<g id="edge27" class="edge"><title>Node2&#45;&gt;Node28</title>
<path fill="none" stroke="midnightblue" d="M1067.31,-114.786C1117.1,-108.352 1181.39,-96.3232 1197.5,-76 1209.73,-60.5766 1194.69,-40.2682 1180.7,-26.4851"/>
<polygon fill="midnightblue" stroke="midnightblue" points="1182.94,-23.7854 1173.22,-19.5716 1178.19,-28.9277 1182.94,-23.7854"/>
</g>
<!-- Node29 -->
<g id="node29" class="node"><title>Node29</title>
<polygon fill="white" stroke="#bfbfbf" points="1297,-0.5 1297,-19.5 1332,-19.5 1332,-0.5 1297,-0.5"/>
<text text-anchor="middle" x="1314.5" y="-7.5" font-family="Helvetica,sans-Serif" font-size="10.00">map</text>
</g>
<!-- Node2&#45;&gt;Node29 -->
<g id="edge28" class="edge"><title>Node2&#45;&gt;Node29</title>
<path fill="none" stroke="midnightblue" d="M1067.01,-117.445C1162.34,-111.301 1336.79,-97.2748 1355.5,-76 1369.16,-60.474 1351.25,-39.9234 1334.99,-26.1227"/>
<polygon fill="midnightblue" stroke="midnightblue" points="1336.81,-23.0963 1326.82,-19.5834 1332.44,-28.5629 1336.81,-23.0963"/>
</g>
<!-- Node30 -->
<g id="node30" class="node"><title>Node30</title>
<g id="a_node30"><a xlink:href="cosmos-defs_8h.html" target="_top" xlink:title="COSMOS definitions Definitions specific to the COSMOS environement. ">
<polygon fill="white" stroke="red" points="1072.5,-56.5 1072.5,-75.5 1188.5,-75.5 1188.5,-56.5 1072.5,-56.5"/>
<text text-anchor="middle" x="1130.5" y="-63.5" font-family="Helvetica,sans-Serif" font-size="10.00">support/cosmos&#45;defs.h</text>
</a>
</g>
</g>
<!-- Node2&#45;&gt;Node30 -->
<g id="edge29" class="edge"><title>Node2&#45;&gt;Node30</title>
<path fill="none" stroke="midnightblue" d="M1025.31,-112.444C1045.79,-103.596 1077.98,-89.6875 1101.36,-79.5865"/>
<polygon fill="midnightblue" stroke="midnightblue" points="1102.99,-82.6953 1110.79,-75.5164 1100.22,-76.2692 1102.99,-82.6953"/>
</g>
<!-- Node31 -->
<g id="node31" class="node"><title>Node31</title>
<g id="a_node31"><a xlink:href="json11_8hpp.html" target="_top" xlink:title="json11.hpp">
<polygon fill="white" stroke="red" points="1282.5,-56.5 1282.5,-75.5 1346.5,-75.5 1346.5,-56.5 1282.5,-56.5"/>
<text text-anchor="middle" x="1314.5" y="-63.5" font-family="Helvetica,sans-Serif" font-size="10.00">json11.hpp</text>
</a>
</g>
</g>
<!-- Node2&#45;&gt;Node31 -->
<g id="edge36" class="edge"><title>Node2&#45;&gt;Node31</title>
<path fill="none" stroke="midnightblue" d="M1057.46,-112.483C1110.56,-103.692 1195.37,-89.4084 1268.5,-76 1269.76,-75.7689 1271.04,-75.5321 1272.33,-75.2913"/>
<polygon fill="midnightblue" stroke="midnightblue" points="1273.18,-78.6938 1282.35,-73.3916 1271.87,-71.8164 1273.18,-78.6938"/>
</g>
<!-- Node30&#45;&gt;Node22 -->
<g id="edge31" class="edge"><title>Node30&#45;&gt;Node22</title>
<path fill="none" stroke="midnightblue" d="M1150.15,-56.4435C1170.46,-47.5961 1202.4,-33.6875 1225.6,-23.5865"/>
<polygon fill="midnightblue" stroke="midnightblue" points="1227.17,-26.7181 1234.94,-19.5164 1224.38,-20.3002 1227.17,-26.7181"/>
</g>
<!-- Node30&#45;&gt;Node25 -->
<g id="edge34" class="edge"><title>Node30&#45;&gt;Node25</title>
<path fill="none" stroke="midnightblue" d="M1075.99,-56.4435C1003.58,-45.0768 877.956,-25.3564 818.917,-16.0888"/>
<polygon fill="midnightblue" stroke="midnightblue" points="819.118,-12.5775 808.696,-14.4843 818.033,-19.4928 819.118,-12.5775"/>
</g>
<!-- Node30&#45;&gt;Node26 -->
<g id="edge33" class="edge"><title>Node30&#45;&gt;Node26</title>
<path fill="none" stroke="midnightblue" d="M1099.76,-56.4435C1063.97,-46.4827 1005.14,-30.1068 968.732,-19.9717"/>
<polygon fill="midnightblue" stroke="midnightblue" points="969.22,-16.4747 958.648,-17.1649 967.343,-23.2183 969.22,-16.4747"/>
</g>
<!-- Node30&#45;&gt;Node27 -->
<g id="edge35" class="edge"><title>Node30&#45;&gt;Node27</title>
<path fill="none" stroke="midnightblue" d="M1119.09,-56.324C1108.39,-48.1849 1092.16,-35.8395 1079.34,-26.0874"/>
<polygon fill="midnightblue" stroke="midnightblue" points="1081.19,-23.1018 1071.11,-19.8339 1076.96,-28.6734 1081.19,-23.1018"/>
</g>
<!-- Node30&#45;&gt;Node28 -->
<g id="edge32" class="edge"><title>Node30&#45;&gt;Node28</title>
<path fill="none" stroke="midnightblue" d="M1135.78,-56.083C1140.21,-48.6127 1146.66,-37.7244 1152.12,-28.5199"/>
<polygon fill="midnightblue" stroke="midnightblue" points="1155.23,-30.1383 1157.31,-19.7511 1149.21,-26.5697 1155.23,-30.1383"/>
</g>
<!-- Node30&#45;&gt;Node29 -->
<g id="edge30" class="edge"><title>Node30&#45;&gt;Node29</title>
<path fill="none" stroke="midnightblue" d="M1160.55,-56.4521C1191.81,-47.5185 1242.16,-33.0157 1285.5,-20 1285.95,-19.8635 1286.41,-19.7256 1286.87,-19.5863"/>
<polygon fill="midnightblue" stroke="midnightblue" points="1288.19,-22.845 1296.73,-16.5728 1286.14,-16.1512 1288.19,-22.845"/>
</g>
<!-- Node31&#45;&gt;Node21 -->
<g id="edge37" class="edge"><title>Node31&#45;&gt;Node21</title>
<path fill="none" stroke="midnightblue" d="M1338.58,-56.4435C1365.09,-47.0262 1407.74,-31.8746 1436.43,-21.6842"/>
<polygon fill="midnightblue" stroke="midnightblue" points="1437.69,-24.9499 1445.94,-18.3042 1435.35,-18.3538 1437.69,-24.9499"/>
</g>
<!-- Node31&#45;&gt;Node22 -->
<g id="edge38" class="edge"><title>Node31&#45;&gt;Node22</title>
<path fill="none" stroke="midnightblue" d="M1304.86,-56.324C1295.99,-48.3414 1282.63,-36.3128 1271.89,-26.6529"/>
<polygon fill="midnightblue" stroke="midnightblue" points="1274.09,-23.922 1264.32,-19.8339 1269.41,-29.1251 1274.09,-23.922"/>
</g>
<!-- Node31&#45;&gt;Node29 -->
<g id="edge39" class="edge"><title>Node31&#45;&gt;Node29</title>
<path fill="none" stroke="midnightblue" d="M1314.5,-56.083C1314.5,-49.0059 1314.5,-38.8611 1314.5,-29.9865"/>
<polygon fill="midnightblue" stroke="midnightblue" points="1318,-29.751 1314.5,-19.7511 1311,-29.7511 1318,-29.751"/>
</g>
<!-- Node32&#45;&gt;Node2 -->
<g id="edge41" class="edge"><title>Node32&#45;&gt;Node2</title>
<path fill="none" stroke="midnightblue" d="M1207.47,-168.444C1165.69,-159.043 1098.52,-143.929 1053.23,-133.739"/>
<polygon fill="midnightblue" stroke="midnightblue" points="1053.88,-130.297 1043.35,-131.516 1052.34,-137.126 1053.88,-130.297"/>
</g>
<!-- Node33 -->
<g id="node33" class="node"><title>Node33</title>
<polygon fill="white" stroke="#bfbfbf" points="1385,-112.5 1385,-131.5 1432,-131.5 1432,-112.5 1385,-112.5"/>
<text text-anchor="middle" x="1408.5" y="-119.5" font-family="Helvetica,sans-Serif" font-size="10.00">errno.h</text>
</g>
<!-- Node32&#45;&gt;Node33 -->
<g id="edge42" class="edge"><title>Node32&#45;&gt;Node33</title>
<path fill="none" stroke="midnightblue" d="M1271.33,-168.444C1299.39,-159.145 1344.33,-144.257 1375.07,-134.073"/>
<polygon fill="midnightblue" stroke="midnightblue" points="1376.52,-137.282 1384.91,-130.815 1374.32,-130.638 1376.52,-137.282"/>
</g>
<!-- Node34&#45;&gt;Node2 -->
<g id="edge44" class="edge"><title>Node34&#45;&gt;Node2</title>
<path fill="none" stroke="midnightblue" d="M1170.37,-399.515C1099.38,-396.29 967.894,-386.291 933.5,-356 910.913,-336.108 914.5,-321.098 914.5,-291 914.5,-291 914.5,-291 914.5,-233 914.5,-190.468 955.389,-155.53 982.349,-137.116"/>
<polygon fill="midnightblue" stroke="midnightblue" points="984.44,-139.931 990.879,-131.518 980.599,-134.079 984.44,-139.931"/>
</g>
<!-- Node35 -->
<g id="node35" class="node"><title>Node35</title>
<g id="a_node35"><a xlink:href="mathlib_8h.html" target="_top" xlink:title="mathlib include file ">
<polygon fill="white" stroke="red" points="1202,-224.5 1202,-243.5 1283,-243.5 1283,-224.5 1202,-224.5"/>
<text text-anchor="middle" x="1242.5" y="-231.5" font-family="Helvetica,sans-Serif" font-size="10.00">math/mathlib.h</text>
</a>
</g>
</g>
<!-- Node34&#45;&gt;Node35 -->
<g id="edge45" class="edge"><title>Node34&#45;&gt;Node35</title>
<path fill="none" stroke="midnightblue" d="M1220.85,-392.374C1229.19,-375.28 1247.17,-335.671 1253.5,-300 1256.28,-284.329 1252.79,-266.503 1249.03,-253.488"/>
<polygon fill="midnightblue" stroke="midnightblue" points="1252.32,-252.291 1245.93,-243.839 1245.66,-254.43 1252.32,-252.291"/>
</g>
<!-- Node36 -->
<g id="node36" class="node"><title>Node36</title>
<g id="a_node36"><a xlink:href="convertdef_8h.html" target="_top" xlink:title="support/convertdef.h">
<polygon fill="white" stroke="black" points="1037.5,-280.5 1037.5,-299.5 1143.5,-299.5 1143.5,-280.5 1037.5,-280.5"/>
<text text-anchor="middle" x="1090.5" y="-287.5" font-family="Helvetica,sans-Serif" font-size="10.00">support/convertdef.h</text>
</a>
</g>
</g>
<!-- Node34&#45;&gt;Node36 -->
<g id="edge50" class="edge"><title>Node34&#45;&gt;Node36</title>
<path fill="none" stroke="midnightblue" d="M1213.17,-392.4C1207.58,-378.902 1195.15,-352.574 1177.5,-336 1162.47,-321.892 1142.17,-311.055 1124.96,-303.555"/>
<polygon fill="midnightblue" stroke="midnightblue" points="1125.82,-300.124 1115.25,-299.525 1123.14,-306.59 1125.82,-300.124"/>
</g>
<!-- Node37 -->
<g id="node37" class="node"><title>Node37</title>
<g id="a_node37"><a xlink:href="physicsdef_8h.html" target="_top" xlink:title="Orbit library support definitions. ">
<polygon fill="white" stroke="red" points="1060,-336.5 1060,-355.5 1169,-355.5 1169,-336.5 1060,-336.5"/>
<text text-anchor="middle" x="1114.5" y="-343.5" font-family="Helvetica,sans-Serif" font-size="10.00">physics/physicsdef.h</text>
</a>
</g>
</g>
<!-- Node34&#45;&gt;Node37 -->
<g id="edge53" class="edge"><title>Node34&#45;&gt;Node37</title>
<path fill="none" stroke="midnightblue" d="M1200.11,-392.324C1183.83,-383.703 1158.63,-370.364 1139.78,-360.386"/>
<polygon fill="midnightblue" stroke="midnightblue" points="1141.32,-357.24 1130.85,-355.655 1138.05,-363.427 1141.32,-357.24"/>
</g>
<!-- Node38 -->
<g id="node38" class="node"><title>Node38</title>
<g id="a_node38"><a xlink:href="socketlib_8h.html" target="_top" xlink:title="Socket Support header file. ">
<polygon fill="white" stroke="red" points="943,-336.5 943,-355.5 1042,-355.5 1042,-336.5 943,-336.5"/>
<text text-anchor="middle" x="992.5" y="-343.5" font-family="Helvetica,sans-Serif" font-size="10.00">support/socketlib.h</text>
</a>
</g>
</g>
<!-- Node34&#45;&gt;Node38 -->
<g id="edge56" class="edge"><title>Node34&#45;&gt;Node38</title>
<path fill="none" stroke="midnightblue" d="M1181.01,-392.444C1142.18,-383.083 1079.84,-368.056 1037.58,-357.868"/>
<polygon fill="midnightblue" stroke="midnightblue" points="1038.37,-354.458 1027.83,-355.516 1036.73,-361.263 1038.37,-354.458"/>
</g>
<!-- Node39 -->
<g id="node39" class="node"><title>Node39</title>
<g id="a_node39"><a xlink:href="objlib_8h.html" target="_top" xlink:title="support/objlib.h">
<polygon fill="white" stroke="red" points="1162,-280.5 1162,-299.5 1245,-299.5 1245,-280.5 1162,-280.5"/>
<text text-anchor="middle" x="1203.5" y="-287.5" font-family="Helvetica,sans-Serif" font-size="10.00">support/objlib.h</text>
</a>
</g>
</g>
<!-- Node34&#45;&gt;Node39 -->
<g id="edge58" class="edge"><title>Node34&#45;&gt;Node39</title>
<path fill="none" stroke="midnightblue" d="M1216.1,-392.14C1215.46,-379.604 1214.04,-355.986 1211.5,-336 1210.39,-327.233 1208.73,-317.577 1207.21,-309.465"/>
<polygon fill="midnightblue" stroke="midnightblue" points="1210.63,-308.736 1205.29,-299.588 1203.76,-310.072 1210.63,-308.736"/>
</g>
<!-- Node35&#45;&gt;Node2 -->
<g id="edge46" class="edge"><title>Node35&#45;&gt;Node2</title>
<path fill="none" stroke="midnightblue" d="M1229.87,-224.329C1210.02,-210.966 1170.02,-185.097 1133.5,-168 1104.69,-154.509 1070.64,-142.727 1044.91,-134.606"/>
<polygon fill="midnightblue" stroke="midnightblue" points="1045.73,-131.194 1035.14,-131.57 1043.65,-137.879 1045.73,-131.194"/>
</g>
<!-- Node35&#45;&gt;Node12 -->
<g id="edge48" class="edge"><title>Node35&#45;&gt;Node12</title>
<path fill="none" stroke="midnightblue" d="M1283.36,-231.762C1385.54,-228.248 1645.78,-216.554 1671.5,-188 1697.89,-158.693 1671.89,-109.643 1654.8,-83.9179"/>
<polygon fill="midnightblue" stroke="midnightblue" points="1657.59,-81.8031 1649.02,-75.5754 1651.84,-85.789 1657.59,-81.8031"/>
</g>
<!-- Node35&#45;&gt;Node14 -->
<g id="edge49" class="edge"><title>Node35&#45;&gt;Node14</title>
<path fill="none" stroke="midnightblue" d="M1283.19,-232.201C1329.81,-229.666 1407.15,-220.399 1464.5,-188 1510.04,-162.274 1547.32,-111.274 1564.78,-84.44"/>
<polygon fill="midnightblue" stroke="midnightblue" points="1567.9,-86.0582 1570.3,-75.7387 1561.99,-82.3093 1567.9,-86.0582"/>
</g>
<!-- Node35&#45;&gt;Node32 -->
<g id="edge47" class="edge"><title>Node35&#45;&gt;Node32</title>
<path fill="none" stroke="midnightblue" d="M1243,-224.083C1243.39,-217.006 1243.95,-206.861 1244.45,-197.986"/>
<polygon fill="midnightblue" stroke="midnightblue" points="1247.95,-197.93 1245.01,-187.751 1240.96,-197.542 1247.95,-197.93"/>
</g>
<!-- Node36&#45;&gt;Node2 -->
<g id="edge51" class="edge"><title>Node36&#45;&gt;Node2</title>
<path fill="none" stroke="midnightblue" d="M1085.93,-280.075C1072.43,-253.719 1032.58,-175.878 1014.54,-140.661"/>
<polygon fill="midnightblue" stroke="midnightblue" points="1017.56,-138.874 1009.89,-131.568 1011.33,-142.064 1017.56,-138.874"/>
</g>
<!-- Node36&#45;&gt;Node35 -->
<g id="edge52" class="edge"><title>Node36&#45;&gt;Node35</title>
<path fill="none" stroke="midnightblue" d="M1114.58,-280.444C1140.04,-271.399 1180.39,-257.064 1208.96,-246.916"/>
<polygon fill="midnightblue" stroke="midnightblue" points="1210.28,-250.162 1218.53,-243.516 1207.93,-243.566 1210.28,-250.162"/>
</g>
<!-- Node37&#45;&gt;Node2 -->
<g id="edge54" class="edge"><title>Node37&#45;&gt;Node2</title>
<path fill="none" stroke="midnightblue" d="M1082.47,-336.396C1063.69,-329.639 1041.22,-318.245 1028.5,-300 994.579,-251.36 998.52,-176.532 1002.67,-141.849"/>
<polygon fill="midnightblue" stroke="midnightblue" points="1006.17,-142.099 1004.03,-131.721 999.232,-141.166 1006.17,-142.099"/>
</g>
<!-- Node37&#45;&gt;Node36 -->
<g id="edge55" class="edge"><title>Node37&#45;&gt;Node36</title>
<path fill="none" stroke="midnightblue" d="M1110.54,-336.083C1107.29,-328.77 1102.58,-318.181 1098.55,-309.103"/>
<polygon fill="midnightblue" stroke="midnightblue" points="1101.65,-307.468 1094.39,-299.751 1095.25,-310.311 1101.65,-307.468"/>
</g>
<!-- Node38&#45;&gt;Node2 -->
<g id="edge57" class="edge"><title>Node38&#45;&gt;Node2</title>
<path fill="none" stroke="midnightblue" d="M991.515,-336.458C988.755,-310.779 981.759,-232.104 991.5,-168 992.868,-159.001 995.69,-149.325 998.445,-141.26"/>
<polygon fill="midnightblue" stroke="midnightblue" points="1001.77,-142.372 1001.9,-131.778 995.188,-139.976 1001.77,-142.372"/>
</g>
<!-- Node39&#45;&gt;Node2 -->
<g id="edge59" class="edge"><title>Node39&#45;&gt;Node2</title>
<path fill="none" stroke="midnightblue" d="M1187.72,-280.397C1172.7,-271.926 1149.76,-258.224 1131.5,-244 1088.06,-210.152 1042.85,-163.441 1020.24,-139.147"/>
<polygon fill="midnightblue" stroke="midnightblue" points="1022.58,-136.52 1013.22,-131.546 1017.43,-141.268 1022.58,-136.52"/>
</g>
<!-- Node39&#45;&gt;Node35 -->
<g id="edge60" class="edge"><title>Node39&#45;&gt;Node35</title>
<path fill="none" stroke="midnightblue" d="M1209.94,-280.083C1215.45,-272.455 1223.53,-261.264 1230.26,-251.941"/>
<polygon fill="midnightblue" stroke="midnightblue" points="1233.16,-253.907 1236.18,-243.751 1227.49,-249.809 1233.16,-253.907"/>
</g>
<!-- Node40&#45;&gt;Node1 -->
<g id="edge64" class="edge"><title>Node40&#45;&gt;Node1</title>
<path fill="none" stroke="midnightblue" d="M1410.54,-467.751C1420.08,-475.483 1432.16,-486.967 1440.91,-496.431"/>
<polygon fill="midnightblue" stroke="midnightblue" points="1438.37,-498.851 1447.58,-504.083 1443.64,-494.248 1438.37,-498.851"/>
</g>
<!-- Node40&#45;&gt;Node2 -->
<g id="edge62" class="edge"><title>Node40&#45;&gt;Node2</title>
<path fill="none" stroke="midnightblue" d="M1391.14,-448.351C1373.89,-421.006 1317.19,-334.989 1253.5,-280 1229.67,-259.427 1219.28,-260.554 1192.5,-244 1131.81,-206.48 1061.46,-160.188 1026.91,-137.26"/>
<polygon fill="midnightblue" stroke="midnightblue" points="1028.8,-134.314 1018.53,-131.696 1024.92,-140.145 1028.8,-134.314"/>
</g>
<!-- Node40&#45;&gt;Node20 -->
<g id="edge70" class="edge"><title>Node40&#45;&gt;Node20</title>
<path fill="none" stroke="midnightblue" d="M1430.7,-448.439C1504.72,-427.848 1678.7,-367.824 1748.5,-244 1777.39,-192.752 1759.19,-119.26 1748.15,-85.3839"/>
<polygon fill="midnightblue" stroke="midnightblue" points="1751.44,-84.1809 1744.89,-75.8556 1744.82,-86.4502 1751.44,-84.1809"/>
</g>
<!-- Node40&#45;&gt;Node34 -->
<g id="edge63" class="edge"><title>Node40&#45;&gt;Node34</title>
<path fill="none" stroke="midnightblue" d="M1367.98,-448.444C1337.43,-439.28 1288.79,-424.688 1254.9,-414.519"/>
<polygon fill="midnightblue" stroke="midnightblue" points="1255.47,-411.038 1244.89,-411.516 1253.46,-417.742 1255.47,-411.038"/>
</g>
<!-- Node41 -->
<g id="node41" class="node"><title>Node41</title>
<g id="a_node41"><a xlink:href="stringlib_8h.html" target="_top" xlink:title="stringlib include file A library providing functions for handling various types of string...">
<polygon fill="white" stroke="red" points="1361.5,-168.5 1361.5,-187.5 1455.5,-187.5 1455.5,-168.5 1361.5,-168.5"/>
<text text-anchor="middle" x="1408.5" y="-175.5" font-family="Helvetica,sans-Serif" font-size="10.00">support/stringlib.h</text>
</a>
</g>
</g>
<!-- Node40&#45;&gt;Node41 -->
<g id="edge65" class="edge"><title>Node40&#45;&gt;Node41</title>
<path fill="none" stroke="midnightblue" d="M1395.32,-448.462C1392.88,-429.994 1387.5,-384.939 1387.5,-347 1387.5,-347 1387.5,-347 1387.5,-289 1387.5,-256.384 1396.52,-219.278 1402.73,-197.573"/>
<polygon fill="midnightblue" stroke="midnightblue" points="1406.17,-198.315 1405.67,-187.732 1399.46,-196.316 1406.17,-198.315"/>
</g>
<!-- Node41&#45;&gt;Node2 -->
<g id="edge66" class="edge"><title>Node41&#45;&gt;Node2</title>
<path fill="none" stroke="midnightblue" d="M1361.22,-169.95C1356.59,-169.281 1351.95,-168.621 1347.5,-168 1254.08,-154.963 1146.16,-140.934 1076.94,-132.069"/>
<polygon fill="midnightblue" stroke="midnightblue" points="1077.37,-128.596 1067.01,-130.799 1076.49,-135.54 1077.37,-128.596"/>
</g>
<!-- Node41&#45;&gt;Node15 -->
<g id="edge69" class="edge"><title>Node41&#45;&gt;Node15</title>
<path fill="none" stroke="midnightblue" d="M1415.53,-168.442C1422.49,-159.677 1433.16,-145.466 1440.5,-132 1448.68,-116.995 1455.72,-98.8615 1460.4,-85.5641"/>
<polygon fill="midnightblue" stroke="midnightblue" points="1463.85,-86.3011 1463.76,-75.7066 1457.22,-84.0475 1463.85,-86.3011"/>
</g>
<!-- Node41&#45;&gt;Node21 -->
<g id="edge68" class="edge"><title>Node41&#45;&gt;Node21</title>
<path fill="none" stroke="midnightblue" d="M1421.7,-168.406C1443.82,-153.055 1487.33,-118.512 1501.5,-76 1507.35,-58.4455 1495.47,-40.0176 1484,-27.2847"/>
<polygon fill="midnightblue" stroke="midnightblue" points="1486.19,-24.5237 1476.71,-19.8062 1481.18,-29.41 1486.19,-24.5237"/>
</g>
<!-- Node41&#45;&gt;Node33 -->
<g id="edge67" class="edge"><title>Node41&#45;&gt;Node33</title>
<path fill="none" stroke="midnightblue" d="M1408.5,-168.083C1408.5,-161.006 1408.5,-150.861 1408.5,-141.986"/>
<polygon fill="midnightblue" stroke="midnightblue" points="1412,-141.751 1408.5,-131.751 1405,-141.751 1412,-141.751"/>
</g>
<!-- Node43 -->
<g id="node43" class="node"><title>Node43</title>
<g id="a_node43"><a xlink:href="zconf_8h.html" target="_top" xlink:title="zconf.h">
<polygon fill="white" stroke="red" points="1637,-392.5 1637,-411.5 1686,-411.5 1686,-392.5 1637,-392.5"/>
<text text-anchor="middle" x="1661.5" y="-399.5" font-family="Helvetica,sans-Serif" font-size="10.00">zconf.h</text>
</a>
</g>
</g>
<!-- Node42&#45;&gt;Node43 -->
<g id="edge72" class="edge"><title>Node42&#45;&gt;Node43</title>
<path fill="none" stroke="midnightblue" d="M1597.71,-448.324C1609.28,-440.107 1626.88,-427.602 1640.66,-417.807"/>
<polygon fill="midnightblue" stroke="midnightblue" points="1642.94,-420.479 1649.07,-411.834 1638.89,-414.773 1642.94,-420.479"/>
</g>
<!-- Node43&#45;&gt;Node18 -->
<g id="edge73" class="edge"><title>Node43&#45;&gt;Node18</title>
<path fill="none" stroke="midnightblue" d="M1686.25,-394.459C1727.43,-381.912 1805.5,-350.301 1805.5,-291 1805.5,-291 1805.5,-291 1805.5,-177 1805.5,-144.948 1805.5,-107.643 1805.5,-85.7489"/>
<polygon fill="midnightblue" stroke="midnightblue" points="1809,-85.5577 1805.5,-75.5578 1802,-85.5578 1809,-85.5577"/>
</g>
<!-- Node44&#45;&gt;Node2 -->
<g id="edge75" class="edge"><title>Node44&#45;&gt;Node2</title>
<path fill="none" stroke="midnightblue" d="M1530.79,-280.336C1477.49,-252.707 1314.96,-168.468 1313.5,-168 1235.04,-142.768 1140.75,-131.628 1077.34,-126.746"/>
<polygon fill="midnightblue" stroke="midnightblue" points="1077.28,-123.231 1067.05,-125.987 1076.76,-130.213 1077.28,-123.231"/>
</g>
<!-- Node44&#45;&gt;Node12 -->
<g id="edge81" class="edge"><title>Node44&#45;&gt;Node12</title>
<path fill="none" stroke="midnightblue" d="M1556.18,-280.269C1569.6,-267.052 1596.57,-241.642 1622.5,-224 1651.1,-204.541 1673.57,-217.579 1691.5,-188 1698.06,-177.176 1702.42,-142.768 1688.5,-112 1683.09,-100.034 1672.94,-89.5683 1663.56,-81.7483"/>
<polygon fill="midnightblue" stroke="midnightblue" points="1665.68,-78.9671 1655.64,-75.5861 1661.38,-84.4907 1665.68,-78.9671"/>
</g>
<!-- Node44&#45;&gt;Node33 -->
<g id="edge83" class="edge"><title>Node44&#45;&gt;Node33</title>
<path fill="none" stroke="midnightblue" d="M1542.82,-280.465C1531.25,-259.787 1499.66,-205.923 1464.5,-168 1454.06,-156.741 1440.72,-145.906 1429.67,-137.689"/>
<polygon fill="midnightblue" stroke="midnightblue" points="1431.56,-134.734 1421.4,-131.703 1427.45,-140.403 1431.56,-134.734"/>
</g>
<!-- Node44&#45;&gt;Node35 -->
<g id="edge80" class="edge"><title>Node44&#45;&gt;Node35</title>
<path fill="none" stroke="midnightblue" d="M1502.82,-281.09C1447.1,-271.224 1352.05,-254.396 1293.52,-244.033"/>
<polygon fill="midnightblue" stroke="midnightblue" points="1293.85,-240.536 1283.39,-242.239 1292.62,-247.429 1293.85,-240.536"/>
</g>
<!-- Node45 -->
<g id="node45" class="node"><title>Node45</title>
<g id="a_node45"><a xlink:href="elapsedtime_8h.html" target="_top" xlink:title="Elapsed Time header file. ">
<polygon fill="white" stroke="red" points="1550,-168.5 1550,-187.5 1663,-187.5 1663,-168.5 1550,-168.5"/>
<text text-anchor="middle" x="1606.5" y="-175.5" font-family="Helvetica,sans-Serif" font-size="10.00">support/elapsedtime.h</text>
</a>
</g>
</g>
<!-- Node44&#45;&gt;Node45 -->
<g id="edge76" class="edge"><title>Node44&#45;&gt;Node45</title>
<path fill="none" stroke="midnightblue" d="M1552.13,-280.368C1561.78,-262.376 1584.21,-220.55 1597.05,-196.627"/>
<polygon fill="midnightblue" stroke="midnightblue" points="1600.25,-198.058 1601.89,-187.591 1594.08,-194.749 1600.25,-198.058"/>
</g>
<!-- Node46 -->
<g id="node46" class="node"><title>Node46</title>
<polygon fill="white" stroke="#bfbfbf" points="1631.5,-224.5 1631.5,-243.5 1675.5,-243.5 1675.5,-224.5 1631.5,-224.5"/>
<text text-anchor="middle" x="1653.5" y="-231.5" font-family="Helvetica,sans-Serif" font-size="10.00">time.h</text>
</g>
<!-- Node44&#45;&gt;Node46 -->
<g id="edge82" class="edge"><title>Node44&#45;&gt;Node46</title>
<path fill="none" stroke="midnightblue" d="M1564.53,-280.324C1581.53,-271.664 1607.88,-258.242 1627.49,-248.249"/>
<polygon fill="midnightblue" stroke="midnightblue" points="1629.19,-251.312 1636.51,-243.655 1626.01,-245.075 1629.19,-251.312"/>
</g>
<!-- Node47 -->
<g id="node47" class="node"><title>Node47</title>
<polygon fill="white" stroke="#bfbfbf" points="1693.5,-224.5 1693.5,-243.5 1739.5,-243.5 1739.5,-224.5 1693.5,-224.5"/>
<text text-anchor="middle" x="1716.5" y="-231.5" font-family="Helvetica,sans-Serif" font-size="10.00">stdio.h</text>
</g>
<!-- Node44&#45;&gt;Node47 -->
<g id="edge84" class="edge"><title>Node44&#45;&gt;Node47</title>
<path fill="none" stroke="midnightblue" d="M1574.28,-280.444C1603.92,-270.971 1651.73,-255.696 1683.62,-245.505"/>
<polygon fill="midnightblue" stroke="midnightblue" points="1684.92,-248.766 1693.38,-242.388 1682.79,-242.098 1684.92,-248.766"/>
</g>
<!-- Node45&#45;&gt;Node2 -->
<g id="edge77" class="edge"><title>Node45&#45;&gt;Node2</title>
<path fill="none" stroke="midnightblue" d="M1549.96,-171.92C1440.22,-162.06 1198.53,-140.344 1077.51,-129.47"/>
<polygon fill="midnightblue" stroke="midnightblue" points="1077.52,-125.957 1067.24,-128.548 1076.89,-132.929 1077.52,-125.957"/>
</g>
<!-- Node45&#45;&gt;Node14 -->
<g id="edge78" class="edge"><title>Node45&#45;&gt;Node14</title>
<path fill="none" stroke="midnightblue" d="M1604.07,-168.368C1599.04,-150.537 1587.42,-109.295 1580.65,-85.2717"/>
<polygon fill="midnightblue" stroke="midnightblue" points="1584,-84.2671 1577.92,-75.5914 1577.27,-86.1659 1584,-84.2671"/>
</g>
<!-- Node45&#45;&gt;Node21 -->
<g id="edge79" class="edge"><title>Node45&#45;&gt;Node21</title>
<path fill="none" stroke="midnightblue" d="M1617.86,-168.469C1644.04,-147.8 1704.09,-93.9528 1673.5,-56 1651.69,-28.9433 1549.28,-17.3108 1497.15,-13.0745"/>
<polygon fill="midnightblue" stroke="midnightblue" points="1497.37,-9.58149 1487.13,-12.3016 1496.84,-16.5607 1497.37,-9.58149"/>
</g>
</g>
</svg>
