<?xml version="1.0" encoding="UTF-8" standalone="no"?>
<!DOCTYPE svg PUBLIC "-//W3C//DTD SVG 1.1//EN"
 "http://www.w3.org/Graphics/SVG/1.1/DTD/svg11.dtd">
<!-- Generated by graphviz version 2.38.0 (20140413.2041)
 -->
<!-- Title: demlib.cpp Pages: 1 -->
<svg width="1862pt" height="476pt"
 viewBox="0.00 0.00 1861.50 476.00" xmlns="http://www.w3.org/2000/svg" xmlns:xlink="http://www.w3.org/1999/xlink">
<g id="graph0" class="graph" transform="scale(1 1) rotate(0) translate(4 472)">
<title>demlib.cpp</title>
<polygon fill="white" stroke="none" points="-4,4 -4,-472 1857.5,-472 1857.5,4 -4,4"/>
<!-- Node1 -->
<g id="node1" class="node"><title>Node1</title>
<polygon fill="#bfbfbf" stroke="black" points="1044.5,-448.5 1044.5,-467.5 1108.5,-467.5 1108.5,-448.5 1044.5,-448.5"/>
<text text-anchor="middle" x="1076.5" y="-455.5" font-family="Helvetica,sans-Serif" font-size="10.00">demlib.cpp</text>
</g>
<!-- Node2 -->
<g id="node2" class="node"><title>Node2</title>
<g id="a_node2"><a xlink:href="config_cosmos_8h.html" target="_top" xlink:title="Headers and definitions common to all COSMOS. ">
<polygon fill="white" stroke="black" points="805,-112.5 805,-131.5 928,-131.5 928,-112.5 805,-112.5"/>
<text text-anchor="middle" x="866.5" y="-119.5" font-family="Helvetica,sans-Serif" font-size="10.00">support/configCosmos.h</text>
</a>
</g>
</g>
<!-- Node1&#45;&gt;Node2 -->
<g id="edge1" class="edge"><title>Node1&#45;&gt;Node2</title>
<path fill="none" stroke="midnightblue" d="M1108.52,-453.618C1136.94,-448.956 1177.69,-437.935 1202.5,-412 1223.39,-390.157 1222.5,-377.225 1222.5,-347 1222.5,-347 1222.5,-347 1222.5,-233 1222.5,-184.018 1178.64,-187.024 1133.5,-168 1070.7,-141.531 993.399,-130.61 938.162,-126.115"/>
<polygon fill="midnightblue" stroke="midnightblue" points="938.35,-122.619 928.113,-125.348 937.818,-129.599 938.35,-122.619"/>
</g>
<!-- Node34 -->
<g id="node34" class="node"><title>Node34</title>
<g id="a_node34"><a xlink:href="demlib_8h.html" target="_top" xlink:title="DEM Support header file. ">
<polygon fill="white" stroke="black" points="1105,-392.5 1105,-411.5 1194,-411.5 1194,-392.5 1105,-392.5"/>
<text text-anchor="middle" x="1149.5" y="-399.5" font-family="Helvetica,sans-Serif" font-size="10.00">support/demlib.h</text>
</a>
</g>
</g>
<!-- Node1&#45;&gt;Node34 -->
<g id="edge42" class="edge"><title>Node1&#45;&gt;Node34</title>
<path fill="none" stroke="midnightblue" d="M1088.23,-448.324C1099.34,-440.107 1116.24,-427.602 1129.48,-417.807"/>
<polygon fill="midnightblue" stroke="midnightblue" points="1131.6,-420.595 1137.56,-411.834 1127.44,-414.967 1131.6,-420.595"/>
</g>
<!-- Node35 -->
<g id="node35" class="node"><title>Node35</title>
<g id="a_node35"><a xlink:href="timelib_8h.html" target="_top" xlink:title="timelib include file A library providing functions for handling various types of time. ">
<polygon fill="white" stroke="black" points="344,-280.5 344,-299.5 433,-299.5 433,-280.5 344,-280.5"/>
<text text-anchor="middle" x="388.5" y="-287.5" font-family="Helvetica,sans-Serif" font-size="10.00">support/timelib.h</text>
</a>
</g>
</g>
<!-- Node1&#45;&gt;Node35 -->
<g id="edge44" class="edge"><title>Node1&#45;&gt;Node35</title>
<path fill="none" stroke="midnightblue" d="M1044.37,-454.519C957.813,-447.124 713.344,-421.535 521.5,-356 481.428,-342.311 437.844,-319.317 411.868,-304.667"/>
<polygon fill="midnightblue" stroke="midnightblue" points="413.553,-301.599 403.134,-299.679 410.082,-307.677 413.553,-301.599"/>
</g>
<!-- Node44 -->
<g id="node44" class="node"><title>Node44</title>
<g id="a_node44"><a xlink:href="datalib_8h.html" target="_top" xlink:title="Data Management header file. ">
<polygon fill="white" stroke="black" points="802,-392.5 802,-411.5 891,-411.5 891,-392.5 802,-392.5"/>
<text text-anchor="middle" x="846.5" y="-399.5" font-family="Helvetica,sans-Serif" font-size="10.00">support/datalib.h</text>
</a>
</g>
</g>
<!-- Node1&#45;&gt;Node44 -->
<g id="edge64" class="edge"><title>Node1&#45;&gt;Node44</title>
<path fill="none" stroke="midnightblue" d="M1044.03,-449.378C1004.55,-440.107 937.623,-424.394 892.755,-413.86"/>
<polygon fill="midnightblue" stroke="midnightblue" points="893.51,-410.442 882.975,-411.564 891.91,-417.257 893.51,-410.442"/>
</g>
<!-- Node48 -->
<g id="node48" class="node"><title>Node48</title>
<polygon fill="white" stroke="#bfbfbf" points="1096.5,-336.5 1096.5,-355.5 1156.5,-355.5 1156.5,-336.5 1096.5,-336.5"/>
<text text-anchor="middle" x="1126.5" y="-343.5" font-family="Helvetica,sans-Serif" font-size="10.00">sys/stat.h</text>
</g>
<!-- Node1&#45;&gt;Node48 -->
<g id="edge80" class="edge"><title>Node1&#45;&gt;Node48</title>
<path fill="none" stroke="midnightblue" d="M1078.13,-448.269C1080.71,-435.483 1086.41,-411.112 1095.5,-392 1100.23,-382.059 1107.04,-371.885 1113.07,-363.731"/>
<polygon fill="midnightblue" stroke="midnightblue" points="1115.86,-365.845 1119.18,-355.783 1110.31,-361.58 1115.86,-365.845"/>
</g>
<!-- Node3 -->
<g id="node3" class="node"><title>Node3</title>
<polygon fill="white" stroke="#bfbfbf" points="1485,-56.5 1485,-75.5 1530,-75.5 1530,-56.5 1485,-56.5"/>
<text text-anchor="middle" x="1507.5" y="-63.5" font-family="Helvetica,sans-Serif" font-size="10.00">climits</text>
</g>
<!-- Node2&#45;&gt;Node3 -->
<g id="edge2" class="edge"><title>Node2&#45;&gt;Node3</title>
<path fill="none" stroke="midnightblue" d="M928.377,-120.507C1037.22,-118.752 1269.97,-111.028 1474.86,-75.7172"/>
<polygon fill="midnightblue" stroke="midnightblue" points="1475.66,-79.1312 1484.9,-73.9601 1474.45,-72.2359 1475.66,-79.1312"/>
</g>
<!-- Node4 -->
<g id="node4" class="node"><title>Node4</title>
<polygon fill="white" stroke="#bfbfbf" points="1548,-56.5 1548,-75.5 1595,-75.5 1595,-56.5 1548,-56.5"/>
<text text-anchor="middle" x="1571.5" y="-63.5" font-family="Helvetica,sans-Serif" font-size="10.00">csignal</text>
</g>
<!-- Node2&#45;&gt;Node4 -->
<g id="edge3" class="edge"><title>Node2&#45;&gt;Node4</title>
<path fill="none" stroke="midnightblue" d="M928.128,-120.963C1045.33,-120.005 1308.37,-113.599 1537.96,-75.7136"/>
<polygon fill="midnightblue" stroke="midnightblue" points="1538.55,-79.1641 1547.83,-74.0616 1537.39,-72.2601 1538.55,-79.1641"/>
</g>
<!-- Node5 -->
<g id="node5" class="node"><title>Node5</title>
<polygon fill="white" stroke="#bfbfbf" points="1613.5,-56.5 1613.5,-75.5 1659.5,-75.5 1659.5,-56.5 1613.5,-56.5"/>
<text text-anchor="middle" x="1636.5" y="-63.5" font-family="Helvetica,sans-Serif" font-size="10.00">cstdint</text>
</g>
<!-- Node2&#45;&gt;Node5 -->
<g id="edge4" class="edge"><title>Node2&#45;&gt;Node5</title>
<path fill="none" stroke="midnightblue" d="M928.278,-118.861C1077.59,-113.436 1455.89,-98.0926 1603.01,-75.6221"/>
<polygon fill="midnightblue" stroke="midnightblue" points="1603.87,-79.0282 1613.2,-73.9919 1602.77,-72.1161 1603.87,-79.0282"/>
</g>
<!-- Node6 -->
<g id="node6" class="node"><title>Node6</title>
<polygon fill="white" stroke="#bfbfbf" points="1677.5,-56.5 1677.5,-75.5 1733.5,-75.5 1733.5,-56.5 1677.5,-56.5"/>
<text text-anchor="middle" x="1705.5" y="-63.5" font-family="Helvetica,sans-Serif" font-size="10.00">cinttypes</text>
</g>
<!-- Node2&#45;&gt;Node6 -->
<g id="edge5" class="edge"><title>Node2&#45;&gt;Node6</title>
<path fill="none" stroke="midnightblue" d="M928.001,-119.004C1086.52,-113.631 1507.21,-97.8724 1667.17,-75.8733"/>
<polygon fill="midnightblue" stroke="midnightblue" points="1667.92,-79.3012 1677.32,-74.4153 1666.93,-72.3723 1667.92,-79.3012"/>
</g>
<!-- Node7 -->
<g id="node7" class="node"><title>Node7</title>
<polygon fill="white" stroke="#bfbfbf" points="1752,-56.5 1752,-75.5 1795,-75.5 1795,-56.5 1752,-56.5"/>
<text text-anchor="middle" x="1773.5" y="-63.5" font-family="Helvetica,sans-Serif" font-size="10.00">cstdio</text>
</g>
<!-- Node2&#45;&gt;Node7 -->
<g id="edge6" class="edge"><title>Node2&#45;&gt;Node7</title>
<path fill="none" stroke="midnightblue" d="M928.062,-119.688C1097.06,-115.796 1566.65,-102.973 1741.85,-75.5951"/>
<polygon fill="midnightblue" stroke="midnightblue" points="1742.66,-79.0091 1751.97,-73.9416 1741.53,-72.1008 1742.66,-79.0091"/>
</g>
<!-- Node8 -->
<g id="node8" class="node"><title>Node8</title>
<polygon fill="white" stroke="#bfbfbf" points="232,-56.5 232,-75.5 281,-75.5 281,-56.5 232,-56.5"/>
<text text-anchor="middle" x="256.5" y="-63.5" font-family="Helvetica,sans-Serif" font-size="10.00">cstddef</text>
</g>
<!-- Node2&#45;&gt;Node8 -->
<g id="edge7" class="edge"><title>Node2&#45;&gt;Node8</title>
<path fill="none" stroke="midnightblue" d="M804.965,-119.996C700.767,-117.468 482.97,-108.605 291.23,-76.0104"/>
<polygon fill="midnightblue" stroke="midnightblue" points="291.703,-72.5403 281.253,-74.2886 290.512,-79.4383 291.703,-72.5403"/>
</g>
<!-- Node9 -->
<g id="node9" class="node"><title>Node9</title>
<polygon fill="white" stroke="#bfbfbf" points="299,-56.5 299,-75.5 344,-75.5 344,-56.5 299,-56.5"/>
<text text-anchor="middle" x="321.5" y="-63.5" font-family="Helvetica,sans-Serif" font-size="10.00">cstdlib</text>
</g>
<!-- Node2&#45;&gt;Node9 -->
<g id="edge8" class="edge"><title>Node2&#45;&gt;Node9</title>
<path fill="none" stroke="midnightblue" d="M804.805,-119.302C709.85,-115.873 522.176,-105.866 354.122,-75.7448"/>
<polygon fill="midnightblue" stroke="midnightblue" points="354.568,-72.2687 344.103,-73.9207 353.314,-79.1554 354.568,-72.2687"/>
</g>
<!-- Node10 -->
<g id="node10" class="node"><title>Node10</title>
<polygon fill="white" stroke="#bfbfbf" points="362.5,-56.5 362.5,-75.5 406.5,-75.5 406.5,-56.5 362.5,-56.5"/>
<text text-anchor="middle" x="384.5" y="-63.5" font-family="Helvetica,sans-Serif" font-size="10.00">cerrno</text>
</g>
<!-- Node2&#45;&gt;Node10 -->
<g id="edge9" class="edge"><title>Node2&#45;&gt;Node10</title>
<path fill="none" stroke="midnightblue" d="M804.707,-118.418C719.302,-114.059 560.359,-103.097 416.615,-75.8846"/>
<polygon fill="midnightblue" stroke="midnightblue" points="417.213,-72.4355 406.732,-73.9829 415.89,-79.3094 417.213,-72.4355"/>
</g>
<!-- Node11 -->
<g id="node11" class="node"><title>Node11</title>
<polygon fill="white" stroke="#bfbfbf" points="424.5,-56.5 424.5,-75.5 470.5,-75.5 470.5,-56.5 424.5,-56.5"/>
<text text-anchor="middle" x="447.5" y="-63.5" font-family="Helvetica,sans-Serif" font-size="10.00">cstring</text>
</g>
<!-- Node2&#45;&gt;Node11 -->
<g id="edge10" class="edge"><title>Node2&#45;&gt;Node11</title>
<path fill="none" stroke="midnightblue" d="M804.963,-116.067C729.186,-109.461 596.723,-96.1819 484.5,-76 483.219,-75.7696 481.916,-75.5215 480.603,-75.2596"/>
<polygon fill="midnightblue" stroke="midnightblue" points="481.017,-71.7677 470.501,-73.0521 479.523,-78.6063 481.017,-71.7677"/>
</g>
<!-- Node12 -->
<g id="node12" class="node"><title>Node12</title>
<polygon fill="white" stroke="#bfbfbf" points="97.5,-56.5 97.5,-75.5 141.5,-75.5 141.5,-56.5 97.5,-56.5"/>
<text text-anchor="middle" x="119.5" y="-63.5" font-family="Helvetica,sans-Serif" font-size="10.00">cmath</text>
</g>
<!-- Node2&#45;&gt;Node12 -->
<g id="edge11" class="edge"><title>Node2&#45;&gt;Node12</title>
<path fill="none" stroke="midnightblue" d="M804.817,-118.866C658.734,-113.537 293.897,-98.5555 151.945,-75.8056"/>
<polygon fill="midnightblue" stroke="midnightblue" points="152.156,-72.2919 141.713,-74.0831 150.994,-79.1948 152.156,-72.2919"/>
</g>
<!-- Node13 -->
<g id="node13" class="node"><title>Node13</title>
<polygon fill="white" stroke="#bfbfbf" points="971,-56.5 971,-75.5 1016,-75.5 1016,-56.5 971,-56.5"/>
<text text-anchor="middle" x="993.5" y="-63.5" font-family="Helvetica,sans-Serif" font-size="10.00">iosfwd</text>
</g>
<!-- Node2&#45;&gt;Node13 -->
<g id="edge12" class="edge"><title>Node2&#45;&gt;Node13</title>
<path fill="none" stroke="midnightblue" d="M886.624,-112.444C907.524,-103.557 940.435,-89.5632 964.216,-79.4514"/>
<polygon fill="midnightblue" stroke="midnightblue" points="965.638,-82.6504 973.471,-75.5164 962.898,-76.2085 965.638,-82.6504"/>
</g>
<!-- Node14 -->
<g id="node14" class="node"><title>Node14</title>
<polygon fill="white" stroke="#bfbfbf" points="159.5,-56.5 159.5,-75.5 213.5,-75.5 213.5,-56.5 159.5,-56.5"/>
<text text-anchor="middle" x="186.5" y="-63.5" font-family="Helvetica,sans-Serif" font-size="10.00">iostream</text>
</g>
<!-- Node2&#45;&gt;Node14 -->
<g id="edge13" class="edge"><title>Node2&#45;&gt;Node14</title>
<path fill="none" stroke="midnightblue" d="M804.984,-118.08C670.131,-111.462 351.027,-94.5543 223.457,-75.8209"/>
<polygon fill="midnightblue" stroke="midnightblue" points="223.938,-72.3537 213.522,-74.2951 222.875,-79.2726 223.938,-72.3537"/>
</g>
<!-- Node15 -->
<g id="node15" class="node"><title>Node15</title>
<polygon fill="white" stroke="#bfbfbf" points="1034.5,-56.5 1034.5,-75.5 1086.5,-75.5 1086.5,-56.5 1034.5,-56.5"/>
<text text-anchor="middle" x="1060.5" y="-63.5" font-family="Helvetica,sans-Serif" font-size="10.00">sstream</text>
</g>
<!-- Node2&#45;&gt;Node15 -->
<g id="edge14" class="edge"><title>Node2&#45;&gt;Node15</title>
<path fill="none" stroke="midnightblue" d="M897.24,-112.444C931.811,-102.821 987.893,-87.2102 1024.49,-77.0239"/>
<polygon fill="midnightblue" stroke="midnightblue" points="1025.56,-80.3576 1034.26,-74.3042 1023.69,-73.614 1025.56,-80.3576"/>
</g>
<!-- Node16 -->
<g id="node16" class="node"><title>Node16</title>
<polygon fill="white" stroke="#bfbfbf" points="1105,-56.5 1105,-75.5 1146,-75.5 1146,-56.5 1105,-56.5"/>
<text text-anchor="middle" x="1125.5" y="-63.5" font-family="Helvetica,sans-Serif" font-size="10.00">regex</text>
</g>
<!-- Node2&#45;&gt;Node16 -->
<g id="edge15" class="edge"><title>Node2&#45;&gt;Node16</title>
<path fill="none" stroke="midnightblue" d="M917.294,-112.484C961.722,-104.705 1028.15,-92.2802 1095.05,-75.9072"/>
<polygon fill="midnightblue" stroke="midnightblue" points="1096.05,-79.2641 1104.92,-73.4629 1094.37,-72.4693 1096.05,-79.2641"/>
</g>
<!-- Node17 -->
<g id="node17" class="node"><title>Node17</title>
<polygon fill="white" stroke="#bfbfbf" points="1164.5,-56.5 1164.5,-75.5 1214.5,-75.5 1214.5,-56.5 1164.5,-56.5"/>
<text text-anchor="middle" x="1189.5" y="-63.5" font-family="Helvetica,sans-Serif" font-size="10.00">iomanip</text>
</g>
<!-- Node2&#45;&gt;Node17 -->
<g id="edge16" class="edge"><title>Node2&#45;&gt;Node17</title>
<path fill="none" stroke="midnightblue" d="M928.048,-113.139C986.571,-105.25 1076.93,-91.9939 1154.5,-76 1154.6,-75.9794 1154.7,-75.9587 1154.8,-75.9379"/>
<polygon fill="midnightblue" stroke="midnightblue" points="1155.35,-79.4017 1164.33,-73.7817 1153.81,-72.5742 1155.35,-79.4017"/>
</g>
<!-- Node18 -->
<g id="node18" class="node"><title>Node18</title>
<polygon fill="white" stroke="#bfbfbf" points="1233,-56.5 1233,-75.5 1284,-75.5 1284,-56.5 1233,-56.5"/>
<text text-anchor="middle" x="1258.5" y="-63.5" font-family="Helvetica,sans-Serif" font-size="10.00">unistd.h</text>
</g>
<!-- Node2&#45;&gt;Node18 -->
<g id="edge17" class="edge"><title>Node2&#45;&gt;Node18</title>
<path fill="none" stroke="midnightblue" d="M928.146,-115.616C997.509,-109.023 1113.66,-96.3801 1223.08,-75.8431"/>
<polygon fill="midnightblue" stroke="midnightblue" points="1223.8,-79.2694 1232.97,-73.962 1222.49,-72.3928 1223.8,-79.2694"/>
</g>
<!-- Node19 -->
<g id="node19" class="node"><title>Node19</title>
<polygon fill="white" stroke="#bfbfbf" points="1302.5,-56.5 1302.5,-75.5 1346.5,-75.5 1346.5,-56.5 1302.5,-56.5"/>
<text text-anchor="middle" x="1324.5" y="-63.5" font-family="Helvetica,sans-Serif" font-size="10.00">fcntl.h</text>
</g>
<!-- Node2&#45;&gt;Node19 -->
<g id="edge18" class="edge"><title>Node2&#45;&gt;Node19</title>
<path fill="none" stroke="midnightblue" d="M928.355,-117.75C1009.64,-112.753 1156.91,-101.195 1292.11,-75.7193"/>
<polygon fill="midnightblue" stroke="midnightblue" points="1293.07,-79.0987 1302.24,-73.7805 1291.76,-72.2236 1293.07,-79.0987"/>
</g>
<!-- Node20 -->
<g id="node20" class="node"><title>Node20</title>
<polygon fill="white" stroke="#bfbfbf" points="1813.5,-56.5 1813.5,-75.5 1853.5,-75.5 1853.5,-56.5 1813.5,-56.5"/>
<text text-anchor="middle" x="1833.5" y="-63.5" font-family="Helvetica,sans-Serif" font-size="10.00">limits</text>
</g>
<!-- Node2&#45;&gt;Node20 -->
<g id="edge19" class="edge"><title>Node2&#45;&gt;Node20</title>
<path fill="none" stroke="midnightblue" d="M928.045,-118.951C1117.04,-112.538 1683.04,-92.3826 1803.43,-75.5268"/>
<polygon fill="midnightblue" stroke="midnightblue" points="1804.05,-78.9733 1813.38,-73.9583 1802.96,-72.0587 1804.05,-78.9733"/>
</g>
<!-- Node21 -->
<g id="node21" class="node"><title>Node21</title>
<polygon fill="white" stroke="#bfbfbf" points="447,-0.5 447,-19.5 488,-19.5 488,-0.5 447,-0.5"/>
<text text-anchor="middle" x="467.5" y="-7.5" font-family="Helvetica,sans-Serif" font-size="10.00">string</text>
</g>
<!-- Node2&#45;&gt;Node21 -->
<g id="edge20" class="edge"><title>Node2&#45;&gt;Node21</title>
<path fill="none" stroke="midnightblue" d="M804.728,-118.684C717.919,-114.485 565.103,-103.361 517.5,-76 498.667,-65.175 484.522,-44.1639 476.166,-28.954"/>
<polygon fill="midnightblue" stroke="midnightblue" points="479.221,-27.24 471.521,-19.962 473.001,-30.4529 479.221,-27.24"/>
</g>
<!-- Node22 -->
<g id="node22" class="node"><title>Node22</title>
<polygon fill="white" stroke="#bfbfbf" points="576.5,-0.5 576.5,-19.5 620.5,-19.5 620.5,-0.5 576.5,-0.5"/>
<text text-anchor="middle" x="598.5" y="-7.5" font-family="Helvetica,sans-Serif" font-size="10.00">vector</text>
</g>
<!-- Node2&#45;&gt;Node22 -->
<g id="edge21" class="edge"><title>Node2&#45;&gt;Node22</title>
<path fill="none" stroke="midnightblue" d="M804.864,-113.359C766.964,-106.964 718.222,-95.6126 678.5,-76 653.318,-63.5664 628.946,-41.9494 613.854,-27.0812"/>
<polygon fill="midnightblue" stroke="midnightblue" points="615.997,-24.2701 606.479,-19.6166 611.018,-29.19 615.997,-24.2701"/>
</g>
<!-- Node23 -->
<g id="node23" class="node"><title>Node23</title>
<polygon fill="white" stroke="#bfbfbf" points="1365,-56.5 1365,-75.5 1406,-75.5 1406,-56.5 1365,-56.5"/>
<text text-anchor="middle" x="1385.5" y="-63.5" font-family="Helvetica,sans-Serif" font-size="10.00">stack</text>
</g>
<!-- Node2&#45;&gt;Node23 -->
<g id="edge22" class="edge"><title>Node2&#45;&gt;Node23</title>
<path fill="none" stroke="midnightblue" d="M928.042,-119.272C1019.37,-115.843 1196.15,-105.888 1355.02,-75.6703"/>
<polygon fill="midnightblue" stroke="midnightblue" points="1355.82,-79.0804 1364.98,-73.7455 1354.5,-72.2077 1355.82,-79.0804"/>
</g>
<!-- Node24 -->
<g id="node24" class="node"><title>Node24</title>
<polygon fill="white" stroke="#bfbfbf" points="1424,-56.5 1424,-75.5 1467,-75.5 1467,-56.5 1424,-56.5"/>
<text text-anchor="middle" x="1445.5" y="-63.5" font-family="Helvetica,sans-Serif" font-size="10.00">deque</text>
</g>
<!-- Node2&#45;&gt;Node24 -->
<g id="edge23" class="edge"><title>Node2&#45;&gt;Node24</title>
<path fill="none" stroke="midnightblue" d="M928.256,-119.954C1028.44,-117.376 1232.57,-108.466 1413.96,-75.6885"/>
<polygon fill="midnightblue" stroke="midnightblue" points="1414.75,-79.1031 1423.95,-73.855 1413.48,-72.2181 1414.75,-79.1031"/>
</g>
<!-- Node25 -->
<g id="node25" class="node"><title>Node25</title>
<polygon fill="white" stroke="#bfbfbf" points="692.5,-0.5 692.5,-19.5 736.5,-19.5 736.5,-0.5 692.5,-0.5"/>
<text text-anchor="middle" x="714.5" y="-7.5" font-family="Helvetica,sans-Serif" font-size="10.00">mutex</text>
</g>
<!-- Node2&#45;&gt;Node25 -->
<g id="edge24" class="edge"><title>Node2&#45;&gt;Node25</title>
<path fill="none" stroke="midnightblue" d="M814.338,-112.49C774.994,-104.882 725.775,-92.4049 713.5,-76 703.683,-62.8802 705.323,-43.7348 708.582,-29.6186"/>
<polygon fill="midnightblue" stroke="midnightblue" points="712.064,-30.158 711.355,-19.587 705.317,-28.293 712.064,-30.158"/>
</g>
<!-- Node26 -->
<g id="node26" class="node"><title>Node26</title>
<polygon fill="white" stroke="#bfbfbf" points="800.5,-0.5 800.5,-19.5 844.5,-19.5 844.5,-0.5 800.5,-0.5"/>
<text text-anchor="middle" x="822.5" y="-7.5" font-family="Helvetica,sans-Serif" font-size="10.00">thread</text>
</g>
<!-- Node2&#45;&gt;Node26 -->
<g id="edge25" class="edge"><title>Node2&#45;&gt;Node26</title>
<path fill="none" stroke="midnightblue" d="M864.628,-112.378C861.737,-99.7291 855.658,-75.5269 847.5,-56 843.538,-46.5166 838.091,-36.4726 833.292,-28.2853"/>
<polygon fill="midnightblue" stroke="midnightblue" points="836.254,-26.4188 828.085,-19.6719 830.263,-30.0404 836.254,-26.4188"/>
</g>
<!-- Node27 -->
<g id="node27" class="node"><title>Node27</title>
<polygon fill="white" stroke="#bfbfbf" points="863,-0.5 863,-19.5 958,-19.5 958,-0.5 863,-0.5"/>
<text text-anchor="middle" x="910.5" y="-7.5" font-family="Helvetica,sans-Serif" font-size="10.00">condition_variable</text>
</g>
<!-- Node2&#45;&gt;Node27 -->
<g id="edge26" class="edge"><title>Node2&#45;&gt;Node27</title>
<path fill="none" stroke="midnightblue" d="M869.953,-112.368C877.117,-94.4563 893.731,-52.9233 903.321,-28.9482"/>
<polygon fill="midnightblue" stroke="midnightblue" points="906.599,-30.1761 907.063,-19.5914 900.1,-27.5763 906.599,-30.1761"/>
</g>
<!-- Node28 -->
<g id="node28" class="node"><title>Node28</title>
<polygon fill="white" stroke="#bfbfbf" points="976,-0.5 976,-19.5 1019,-19.5 1019,-0.5 976,-0.5"/>
<text text-anchor="middle" x="997.5" y="-7.5" font-family="Helvetica,sans-Serif" font-size="10.00">queue</text>
</g>
<!-- Node2&#45;&gt;Node28 -->
<g id="edge27" class="edge"><title>Node2&#45;&gt;Node28</title>
<path fill="none" stroke="midnightblue" d="M876.779,-112.368C898.972,-93.7334 951.611,-49.5324 979.477,-26.1338"/>
<polygon fill="midnightblue" stroke="midnightblue" points="981.861,-28.7024 987.268,-19.5914 977.359,-23.3416 981.861,-28.7024"/>
</g>
<!-- Node29 -->
<g id="node29" class="node"><title>Node29</title>
<polygon fill="white" stroke="#bfbfbf" points="639,-0.5 639,-19.5 674,-19.5 674,-0.5 639,-0.5"/>
<text text-anchor="middle" x="656.5" y="-7.5" font-family="Helvetica,sans-Serif" font-size="10.00">map</text>
</g>
<!-- Node2&#45;&gt;Node29 -->
<g id="edge28" class="edge"><title>Node2&#45;&gt;Node29</title>
<path fill="none" stroke="midnightblue" d="M804.964,-114.279C772.212,-108.319 732.6,-97.0986 702.5,-76 685.392,-64.008 672.452,-43.5225 664.721,-28.7507"/>
<polygon fill="midnightblue" stroke="midnightblue" points="667.776,-27.032 660.214,-19.6114 661.498,-30.1282 667.776,-27.032"/>
</g>
<!-- Node30 -->
<g id="node30" class="node"><title>Node30</title>
<g id="a_node30"><a xlink:href="cosmos-defs_8h.html" target="_top" xlink:title="COSMOS definitions Definitions specific to the COSMOS environement. ">
<polygon fill="white" stroke="black" points="722.5,-56.5 722.5,-75.5 838.5,-75.5 838.5,-56.5 722.5,-56.5"/>
<text text-anchor="middle" x="780.5" y="-63.5" font-family="Helvetica,sans-Serif" font-size="10.00">support/cosmos&#45;defs.h</text>
</a>
</g>
</g>
<!-- Node2&#45;&gt;Node30 -->
<g id="edge29" class="edge"><title>Node2&#45;&gt;Node30</title>
<path fill="none" stroke="midnightblue" d="M852.683,-112.324C839.267,-103.9 818.676,-90.9709 802.914,-81.0741"/>
<polygon fill="midnightblue" stroke="midnightblue" points="804.613,-78.0081 794.283,-75.6545 800.891,-83.9364 804.613,-78.0081"/>
</g>
<!-- Node32 -->
<g id="node32" class="node"><title>Node32</title>
<g id="a_node32"><a xlink:href="json11_8hpp.html" target="_top" xlink:title="json11.hpp">
<polygon fill="white" stroke="red" points="526.5,-56.5 526.5,-75.5 590.5,-75.5 590.5,-56.5 526.5,-56.5"/>
<text text-anchor="middle" x="558.5" y="-63.5" font-family="Helvetica,sans-Serif" font-size="10.00">json11.hpp</text>
</a>
</g>
</g>
<!-- Node2&#45;&gt;Node32 -->
<g id="edge37" class="edge"><title>Node2&#45;&gt;Node32</title>
<path fill="none" stroke="midnightblue" d="M814.737,-112.472C761.841,-103.672 677.355,-89.382 604.5,-76 603.239,-75.7685 601.96,-75.5313 600.668,-75.2902"/>
<polygon fill="midnightblue" stroke="midnightblue" points="601.13,-71.8154 590.653,-73.389 599.824,-78.6926 601.13,-71.8154"/>
</g>
<!-- Node30&#45;&gt;Node22 -->
<g id="edge31" class="edge"><title>Node30&#45;&gt;Node22</title>
<path fill="none" stroke="midnightblue" d="M751.662,-56.4435C718.688,-46.6602 664.857,-30.6884 630.584,-20.5194"/>
<polygon fill="midnightblue" stroke="midnightblue" points="631.202,-17.0522 620.62,-17.5631 629.211,-23.763 631.202,-17.0522"/>
</g>
<!-- Node30&#45;&gt;Node25 -->
<g id="edge35" class="edge"><title>Node30&#45;&gt;Node25</title>
<path fill="none" stroke="midnightblue" d="M769.896,-56.324C760.044,-48.2631 745.149,-36.0765 733.285,-26.3695"/>
<polygon fill="midnightblue" stroke="midnightblue" points="735.253,-23.4575 725.297,-19.8339 730.82,-28.8752 735.253,-23.4575"/>
</g>
<!-- Node30&#45;&gt;Node26 -->
<g id="edge34" class="edge"><title>Node30&#45;&gt;Node26</title>
<path fill="none" stroke="midnightblue" d="M787.435,-56.083C793.429,-48.3768 802.252,-37.0333 809.548,-27.6531"/>
<polygon fill="midnightblue" stroke="midnightblue" points="812.317,-29.7934 815.694,-19.7511 806.791,-25.4958 812.317,-29.7934"/>
</g>
<!-- Node30&#45;&gt;Node27 -->
<g id="edge36" class="edge"><title>Node30&#45;&gt;Node27</title>
<path fill="none" stroke="midnightblue" d="M801.099,-56.4435C822.493,-47.5566 856.181,-33.5632 880.524,-23.4514"/>
<polygon fill="midnightblue" stroke="midnightblue" points="882.105,-26.5848 889.997,-19.5164 879.42,-20.1203 882.105,-26.5848"/>
</g>
<!-- Node30&#45;&gt;Node28 -->
<g id="edge33" class="edge"><title>Node30&#45;&gt;Node28</title>
<path fill="none" stroke="midnightblue" d="M818.033,-56.4444C853.63,-48.2137 908.836,-35.149 965.93,-20.0582"/>
<polygon fill="midnightblue" stroke="midnightblue" points="967.09,-23.3715 975.855,-17.4193 965.291,-16.6066 967.09,-23.3715"/>
</g>
<!-- Node30&#45;&gt;Node29 -->
<g id="edge30" class="edge"><title>Node30&#45;&gt;Node29</title>
<path fill="none" stroke="midnightblue" d="M760.852,-56.4435C739.938,-47.3359 706.708,-32.865 683.379,-22.7053"/>
<polygon fill="midnightblue" stroke="midnightblue" points="684.617,-19.4271 674.051,-18.6433 681.822,-25.845 684.617,-19.4271"/>
</g>
<!-- Node31 -->
<g id="node31" class="node"><title>Node31</title>
<polygon fill="white" stroke="#bfbfbf" points="754,-0.5 754,-19.5 783,-19.5 783,-0.5 754,-0.5"/>
<text text-anchor="middle" x="768.5" y="-7.5" font-family="Helvetica,sans-Serif" font-size="10.00">list</text>
</g>
<!-- Node30&#45;&gt;Node31 -->
<g id="edge32" class="edge"><title>Node30&#45;&gt;Node31</title>
<path fill="none" stroke="midnightblue" d="M778.518,-56.083C776.928,-48.9272 774.641,-38.6353 772.654,-29.6911"/>
<polygon fill="midnightblue" stroke="midnightblue" points="776.031,-28.7537 770.445,-19.7511 769.197,-30.2722 776.031,-28.7537"/>
</g>
<!-- Node32&#45;&gt;Node21 -->
<g id="edge38" class="edge"><title>Node32&#45;&gt;Node21</title>
<path fill="none" stroke="midnightblue" d="M543.879,-56.324C529.551,-47.8215 507.487,-34.7288 490.751,-24.7975"/>
<polygon fill="midnightblue" stroke="midnightblue" points="492.47,-21.7478 482.084,-19.6545 488.898,-27.7677 492.47,-21.7478"/>
</g>
<!-- Node32&#45;&gt;Node22 -->
<g id="edge39" class="edge"><title>Node32&#45;&gt;Node22</title>
<path fill="none" stroke="midnightblue" d="M565.105,-56.083C570.755,-48.4554 579.045,-37.2645 585.951,-27.9408"/>
<polygon fill="midnightblue" stroke="midnightblue" points="588.878,-29.87 592.018,-19.7511 583.253,-25.7034 588.878,-29.87"/>
</g>
<!-- Node32&#45;&gt;Node29 -->
<g id="edge40" class="edge"><title>Node32&#45;&gt;Node29</title>
<path fill="none" stroke="midnightblue" d="M574.245,-56.324C589.819,-47.7428 613.877,-34.486 631.959,-24.5224"/>
<polygon fill="midnightblue" stroke="midnightblue" points="633.724,-27.546 640.794,-19.6545 630.346,-21.4152 633.724,-27.546"/>
</g>
<!-- Node33 -->
<g id="node33" class="node"><title>Node33</title>
<polygon fill="white" stroke="#bfbfbf" points="506.5,-0.5 506.5,-19.5 558.5,-19.5 558.5,-0.5 506.5,-0.5"/>
<text text-anchor="middle" x="532.5" y="-7.5" font-family="Helvetica,sans-Serif" font-size="10.00">memory</text>
</g>
<!-- Node32&#45;&gt;Node33 -->
<g id="edge41" class="edge"><title>Node32&#45;&gt;Node33</title>
<path fill="none" stroke="midnightblue" d="M554.207,-56.083C550.648,-48.6913 545.478,-37.9533 541.076,-28.8111"/>
<polygon fill="midnightblue" stroke="midnightblue" points="544.205,-27.2427 536.713,-19.7511 537.898,-30.2795 544.205,-27.2427"/>
</g>
<!-- Node34&#45;&gt;Node2 -->
<g id="edge43" class="edge"><title>Node34&#45;&gt;Node2</title>
<path fill="none" stroke="midnightblue" d="M1154.22,-392.456C1163.77,-374.337 1184.5,-330.48 1184.5,-291 1184.5,-291 1184.5,-291 1184.5,-233 1184.5,-181.215 1031.98,-148.399 938.198,-133.115"/>
<polygon fill="midnightblue" stroke="midnightblue" points="938.618,-129.638 928.191,-131.514 937.512,-136.55 938.618,-129.638"/>
</g>
<!-- Node35&#45;&gt;Node2 -->
<g id="edge45" class="edge"><title>Node35&#45;&gt;Node2</title>
<path fill="none" stroke="midnightblue" d="M433.301,-281.6C474.684,-274.16 537.57,-261.316 590.5,-244 685.868,-212.8 793.248,-160.436 841.117,-136.131"/>
<polygon fill="midnightblue" stroke="midnightblue" points="842.826,-139.188 850.14,-131.523 839.642,-132.954 842.826,-139.188"/>
</g>
<!-- Node35&#45;&gt;Node12 -->
<g id="edge58" class="edge"><title>Node35&#45;&gt;Node12</title>
<path fill="none" stroke="midnightblue" d="M343.906,-285.294C310.786,-280.481 266.215,-269.421 235.5,-244 206.252,-219.794 216.755,-200.111 196.5,-168 176.71,-136.626 149.677,-102.869 133.467,-83.4109"/>
<polygon fill="midnightblue" stroke="midnightblue" points="135.961,-80.9379 126.846,-75.5366 130.603,-85.443 135.961,-80.9379"/>
</g>
<!-- Node36 -->
<g id="node36" class="node"><title>Node36</title>
<g id="a_node36"><a xlink:href="elapsedtime_8h.html" target="_top" xlink:title="Elapsed Time header file. ">
<polygon fill="white" stroke="red" points="75,-168.5 75,-187.5 188,-187.5 188,-168.5 75,-168.5"/>
<text text-anchor="middle" x="131.5" y="-175.5" font-family="Helvetica,sans-Serif" font-size="10.00">support/elapsedtime.h</text>
</a>
</g>
</g>
<!-- Node35&#45;&gt;Node36 -->
<g id="edge46" class="edge"><title>Node35&#45;&gt;Node36</title>
<path fill="none" stroke="midnightblue" d="M343.804,-284.559C304.664,-279.226 247.22,-267.815 202.5,-244 179.565,-231.786 158.299,-210.431 145.135,-195.544"/>
<polygon fill="midnightblue" stroke="midnightblue" points="147.532,-192.963 138.368,-187.645 142.215,-197.517 147.532,-192.963"/>
</g>
<!-- Node37 -->
<g id="node37" class="node"><title>Node37</title>
<polygon fill="white" stroke="#bfbfbf" points="0,-112.5 0,-131.5 41,-131.5 41,-112.5 0,-112.5"/>
<text text-anchor="middle" x="20.5" y="-119.5" font-family="Helvetica,sans-Serif" font-size="10.00">ctime</text>
</g>
<!-- Node35&#45;&gt;Node37 -->
<g id="edge62" class="edge"><title>Node35&#45;&gt;Node37</title>
<path fill="none" stroke="midnightblue" d="M343.994,-286.465C275.989,-280.337 145.683,-259.412 65.5,-188 50.3243,-174.484 37.6499,-154.86 29.6599,-140.713"/>
<polygon fill="midnightblue" stroke="midnightblue" points="32.5376,-138.677 24.7011,-131.547 26.3808,-142.008 32.5376,-138.677"/>
</g>
<!-- Node38 -->
<g id="node38" class="node"><title>Node38</title>
<g id="a_node38"><a xlink:href="mathlib_8h.html" target="_top" xlink:title="mathlib include file ">
<polygon fill="white" stroke="red" points="501,-224.5 501,-243.5 582,-243.5 582,-224.5 501,-224.5"/>
<text text-anchor="middle" x="541.5" y="-231.5" font-family="Helvetica,sans-Serif" font-size="10.00">math/mathlib.h</text>
</a>
</g>
</g>
<!-- Node35&#45;&gt;Node38 -->
<g id="edge51" class="edge"><title>Node35&#45;&gt;Node38</title>
<path fill="none" stroke="midnightblue" d="M412.743,-280.444C438.371,-271.399 478.985,-257.064 507.738,-246.916"/>
<polygon fill="midnightblue" stroke="midnightblue" points="509.105,-250.145 517.37,-243.516 506.775,-243.544 509.105,-250.145"/>
</g>
<!-- Node40 -->
<g id="node40" class="node"><title>Node40</title>
<polygon fill="white" stroke="#bfbfbf" points="557,-112.5 557,-131.5 604,-131.5 604,-112.5 557,-112.5"/>
<text text-anchor="middle" x="580.5" y="-119.5" font-family="Helvetica,sans-Serif" font-size="10.00">errno.h</text>
</g>
<!-- Node35&#45;&gt;Node40 -->
<g id="edge60" class="edge"><title>Node35&#45;&gt;Node40</title>
<path fill="none" stroke="midnightblue" d="M398.552,-280.309C429.398,-253.64 522.997,-172.716 562.551,-138.519"/>
<polygon fill="midnightblue" stroke="midnightblue" points="565.271,-140.793 570.547,-131.605 560.693,-135.498 565.271,-140.793"/>
</g>
<!-- Node41 -->
<g id="node41" class="node"><title>Node41</title>
<polygon fill="white" stroke="#bfbfbf" points="244.5,-224.5 244.5,-243.5 288.5,-243.5 288.5,-224.5 244.5,-224.5"/>
<text text-anchor="middle" x="266.5" y="-231.5" font-family="Helvetica,sans-Serif" font-size="10.00">time.h</text>
</g>
<!-- Node35&#45;&gt;Node41 -->
<g id="edge59" class="edge"><title>Node35&#45;&gt;Node41</title>
<path fill="none" stroke="midnightblue" d="M369.169,-280.444C349.18,-271.596 317.757,-257.687 294.936,-247.586"/>
<polygon fill="midnightblue" stroke="midnightblue" points="296.302,-244.363 285.741,-243.516 293.468,-250.764 296.302,-244.363"/>
</g>
<!-- Node42 -->
<g id="node42" class="node"><title>Node42</title>
<polygon fill="white" stroke="#bfbfbf" points="306.5,-224.5 306.5,-243.5 352.5,-243.5 352.5,-224.5 306.5,-224.5"/>
<text text-anchor="middle" x="329.5" y="-231.5" font-family="Helvetica,sans-Serif" font-size="10.00">stdio.h</text>
</g>
<!-- Node35&#45;&gt;Node42 -->
<g id="edge61" class="edge"><title>Node35&#45;&gt;Node42</title>
<path fill="none" stroke="midnightblue" d="M379.021,-280.324C370.299,-272.341 357.157,-260.313 346.602,-250.653"/>
<polygon fill="midnightblue" stroke="midnightblue" points="348.892,-248.004 339.152,-243.834 344.166,-253.167 348.892,-248.004"/>
</g>
<!-- Node43 -->
<g id="node43" class="node"><title>Node43</title>
<polygon fill="white" stroke="#bfbfbf" points="371,-224.5 371,-243.5 406,-243.5 406,-224.5 371,-224.5"/>
<text text-anchor="middle" x="388.5" y="-231.5" font-family="Helvetica,sans-Serif" font-size="10.00">ratio</text>
</g>
<!-- Node35&#45;&gt;Node43 -->
<g id="edge63" class="edge"><title>Node35&#45;&gt;Node43</title>
<path fill="none" stroke="midnightblue" d="M388.5,-280.083C388.5,-273.006 388.5,-262.861 388.5,-253.986"/>
<polygon fill="midnightblue" stroke="midnightblue" points="392,-253.751 388.5,-243.751 385,-253.751 392,-253.751"/>
</g>
<!-- Node36&#45;&gt;Node2 -->
<g id="edge47" class="edge"><title>Node36&#45;&gt;Node2</title>
<path fill="none" stroke="midnightblue" d="M188.258,-172.83C320.447,-163.118 648.67,-139.004 794.591,-128.283"/>
<polygon fill="midnightblue" stroke="midnightblue" points="795.061,-131.758 804.777,-127.535 794.548,-124.777 795.061,-131.758"/>
</g>
<!-- Node36&#45;&gt;Node14 -->
<g id="edge48" class="edge"><title>Node36&#45;&gt;Node14</title>
<path fill="none" stroke="midnightblue" d="M135.816,-168.368C144.812,-150.376 165.725,-108.55 177.687,-84.6267"/>
<polygon fill="midnightblue" stroke="midnightblue" points="180.863,-86.101 182.204,-75.5914 174.602,-82.9704 180.863,-86.101"/>
</g>
<!-- Node36&#45;&gt;Node21 -->
<g id="edge49" class="edge"><title>Node36&#45;&gt;Node21</title>
<path fill="none" stroke="midnightblue" d="M123.16,-168.26C103.535,-146.65 58.2963,-90.0021 88.5,-56 111.525,-30.0791 350.233,-16.4635 436.561,-12.3585"/>
<polygon fill="midnightblue" stroke="midnightblue" points="436.946,-15.8444 446.773,-11.8837 436.621,-8.85198 436.946,-15.8444"/>
</g>
<!-- Node36&#45;&gt;Node37 -->
<g id="edge50" class="edge"><title>Node36&#45;&gt;Node37</title>
<path fill="none" stroke="midnightblue" d="M113.666,-168.324C95.7841,-159.625 68.0249,-146.12 47.4544,-136.113"/>
<polygon fill="midnightblue" stroke="midnightblue" points="48.8133,-132.882 38.2898,-131.655 45.751,-139.177 48.8133,-132.882"/>
</g>
<!-- Node38&#45;&gt;Node2 -->
<g id="edge52" class="edge"><title>Node38&#45;&gt;Node2</title>
<path fill="none" stroke="midnightblue" d="M567.106,-224.462C592.535,-215.824 632.527,-201.81 666.5,-188 686.4,-179.911 690.349,-175.441 710.5,-168 747.245,-154.432 790.063,-142.334 821.535,-134.109"/>
<polygon fill="midnightblue" stroke="midnightblue" points="822.526,-137.468 831.333,-131.577 820.775,-130.69 822.526,-137.468"/>
</g>
<!-- Node38&#45;&gt;Node12 -->
<g id="edge56" class="edge"><title>Node38&#45;&gt;Node12</title>
<path fill="none" stroke="midnightblue" d="M519.7,-224.425C449.951,-196.988 232.069,-111.281 150.627,-79.2444"/>
<polygon fill="midnightblue" stroke="midnightblue" points="151.757,-75.9277 141.17,-75.5241 149.194,-82.4418 151.757,-75.9277"/>
</g>
<!-- Node38&#45;&gt;Node14 -->
<g id="edge57" class="edge"><title>Node38&#45;&gt;Node14</title>
<path fill="none" stroke="midnightblue" d="M538.809,-224.445C530.729,-199.31 506.029,-126.535 486.5,-112 441.229,-78.3046 295.244,-86.3088 223.571,-75.7942"/>
<polygon fill="midnightblue" stroke="midnightblue" points="224,-72.3171 213.556,-74.1013 222.833,-79.2192 224,-72.3171"/>
</g>
<!-- Node39 -->
<g id="node39" class="node"><title>Node39</title>
<g id="a_node39"><a xlink:href="cosmos-errno_8h.html" target="_top" xlink:title="COSMOS Error Codes. ">
<polygon fill="white" stroke="black" points="539,-168.5 539,-187.5 658,-187.5 658,-168.5 539,-168.5"/>
<text text-anchor="middle" x="598.5" y="-175.5" font-family="Helvetica,sans-Serif" font-size="10.00">support/cosmos&#45;errno.h</text>
</a>
</g>
</g>
<!-- Node38&#45;&gt;Node39 -->
<g id="edge53" class="edge"><title>Node38&#45;&gt;Node39</title>
<path fill="none" stroke="midnightblue" d="M550.658,-224.324C559.001,-216.42 571.532,-204.548 581.677,-194.938"/>
<polygon fill="midnightblue" stroke="midnightblue" points="584.323,-197.252 589.175,-187.834 579.509,-192.171 584.323,-197.252"/>
</g>
<!-- Node39&#45;&gt;Node2 -->
<g id="edge54" class="edge"><title>Node39&#45;&gt;Node2</title>
<path fill="none" stroke="midnightblue" d="M640.965,-168.444C687.913,-158.984 763.576,-143.738 814.154,-133.547"/>
<polygon fill="midnightblue" stroke="midnightblue" points="815.122,-136.923 824.233,-131.516 813.739,-130.061 815.122,-136.923"/>
</g>
<!-- Node39&#45;&gt;Node40 -->
<g id="edge55" class="edge"><title>Node39&#45;&gt;Node40</title>
<path fill="none" stroke="midnightblue" d="M595.528,-168.083C593.116,-160.849 589.636,-150.409 586.632,-141.397"/>
<polygon fill="midnightblue" stroke="midnightblue" points="589.9,-140.131 583.417,-131.751 583.259,-142.345 589.9,-140.131"/>
</g>
<!-- Node44&#45;&gt;Node2 -->
<g id="edge65" class="edge"><title>Node44&#45;&gt;Node2</title>
<path fill="none" stroke="midnightblue" d="M830.166,-392.387C817.545,-384.72 801.003,-372.213 793.5,-356 789.767,-347.933 791.655,-344.695 793.5,-336 797.135,-318.872 803.252,-316.356 809.5,-300 831.244,-243.078 851.91,-173.876 861.267,-141.444"/>
<polygon fill="midnightblue" stroke="midnightblue" points="864.702,-142.163 864.089,-131.586 857.972,-140.237 864.702,-142.163"/>
</g>
<!-- Node44&#45;&gt;Node35 -->
<g id="edge76" class="edge"><title>Node44&#45;&gt;Node35</title>
<path fill="none" stroke="midnightblue" d="M801.799,-394.86C750.952,-387.459 665.624,-373.767 593.5,-356 531.839,-340.81 461.621,-317.112 421.435,-302.916"/>
<polygon fill="midnightblue" stroke="midnightblue" points="422.483,-299.575 411.889,-299.523 420.139,-306.17 422.483,-299.575"/>
</g>
<!-- Node44&#45;&gt;Node39 -->
<g id="edge66" class="edge"><title>Node44&#45;&gt;Node39</title>
<path fill="none" stroke="midnightblue" d="M821.057,-392.47C800.54,-384.85 771.568,-372.367 749.5,-356 686.039,-308.932 631.398,-230.452 609.15,-196.045"/>
<polygon fill="midnightblue" stroke="midnightblue" points="612.077,-194.126 603.753,-187.571 606.173,-197.886 612.077,-194.126"/>
</g>
<!-- Node45 -->
<g id="node45" class="node"><title>Node45</title>
<g id="a_node45"><a xlink:href="jsondef_8h.html" target="_top" xlink:title="support/jsondef.h">
<polygon fill="white" stroke="red" points="708.5,-280.5 708.5,-299.5 800.5,-299.5 800.5,-280.5 708.5,-280.5"/>
<text text-anchor="middle" x="754.5" y="-287.5" font-family="Helvetica,sans-Serif" font-size="10.00">support/jsondef.h</text>
</a>
</g>
</g>
<!-- Node44&#45;&gt;Node45 -->
<g id="edge67" class="edge"><title>Node44&#45;&gt;Node45</title>
<path fill="none" stroke="midnightblue" d="M813.801,-392.407C795.02,-385.692 772.789,-374.338 760.5,-356 751.53,-342.614 750.673,-324.046 751.684,-310.181"/>
<polygon fill="midnightblue" stroke="midnightblue" points="755.206,-310.185 752.836,-299.859 748.249,-309.409 755.206,-310.185"/>
</g>
<!-- Node46 -->
<g id="node46" class="node"><title>Node46</title>
<g id="a_node46"><a xlink:href="jsonlib_8h.html" target="_top" xlink:title="JSON Support definitions. ">
<polygon fill="white" stroke="red" points="802.5,-336.5 802.5,-355.5 890.5,-355.5 890.5,-336.5 802.5,-336.5"/>
<text text-anchor="middle" x="846.5" y="-343.5" font-family="Helvetica,sans-Serif" font-size="10.00">support/jsonlib.h</text>
</a>
</g>
</g>
<!-- Node44&#45;&gt;Node46 -->
<g id="edge70" class="edge"><title>Node44&#45;&gt;Node46</title>
<path fill="none" stroke="midnightblue" d="M841.334,-392.083C839.824,-384.927 839.394,-374.635 840.042,-365.691"/>
<polygon fill="midnightblue" stroke="midnightblue" points="843.515,-366.126 841.369,-355.751 836.577,-365.2 843.515,-366.126"/>
</g>
<!-- Node47 -->
<g id="node47" class="node"><title>Node47</title>
<g id="a_node47"><a xlink:href="zlib_8h.html" target="_top" xlink:title="thirdparty/zlib/zlib.h">
<polygon fill="white" stroke="red" points="909,-336.5 909,-355.5 1010,-355.5 1010,-336.5 909,-336.5"/>
<text text-anchor="middle" x="959.5" y="-343.5" font-family="Helvetica,sans-Serif" font-size="10.00">thirdparty/zlib/zlib.h</text>
</a>
</g>
</g>
<!-- Node44&#45;&gt;Node47 -->
<g id="edge75" class="edge"><title>Node44&#45;&gt;Node47</title>
<path fill="none" stroke="midnightblue" d="M864.405,-392.444C882.754,-383.675 911.505,-369.935 932.594,-359.858"/>
<polygon fill="midnightblue" stroke="midnightblue" points="934.165,-362.986 941.679,-355.516 931.147,-356.67 934.165,-362.986"/>
</g>
<!-- Node44&#45;&gt;Node48 -->
<g id="edge77" class="edge"><title>Node44&#45;&gt;Node48</title>
<path fill="none" stroke="midnightblue" d="M891.029,-393.266C937.398,-385.083 1012.38,-371.489 1086.34,-356.176"/>
<polygon fill="midnightblue" stroke="midnightblue" points="1087.22,-359.568 1096.29,-354.103 1085.79,-352.715 1087.22,-359.568"/>
</g>
<!-- Node49 -->
<g id="node49" class="node"><title>Node49</title>
<polygon fill="white" stroke="#bfbfbf" points="1028.5,-336.5 1028.5,-355.5 1078.5,-355.5 1078.5,-336.5 1028.5,-336.5"/>
<text text-anchor="middle" x="1053.5" y="-343.5" font-family="Helvetica,sans-Serif" font-size="10.00">fstream</text>
</g>
<!-- Node44&#45;&gt;Node49 -->
<g id="edge78" class="edge"><title>Node44&#45;&gt;Node49</title>
<path fill="none" stroke="midnightblue" d="M879.3,-392.444C917.287,-382.534 979.615,-366.274 1018.51,-356.128"/>
<polygon fill="midnightblue" stroke="midnightblue" points="1019.55,-359.474 1028.34,-353.563 1017.78,-352.701 1019.55,-359.474"/>
</g>
<!-- Node50 -->
<g id="node50" class="node"><title>Node50</title>
<g id="a_node50"><a xlink:href="dirent_8h.html" target="_top" xlink:title="dirent.h">
<polygon fill="white" stroke="black" points="603,-336.5 603,-355.5 652,-355.5 652,-336.5 603,-336.5"/>
<text text-anchor="middle" x="627.5" y="-343.5" font-family="Helvetica,sans-Serif" font-size="10.00">dirent.h</text>
</a>
</g>
</g>
<!-- Node44&#45;&gt;Node50 -->
<g id="edge79" class="edge"><title>Node44&#45;&gt;Node50</title>
<path fill="none" stroke="midnightblue" d="M811.799,-392.444C770.771,-382.327 702.907,-365.593 661.977,-355.501"/>
<polygon fill="midnightblue" stroke="midnightblue" points="662.731,-352.082 652.184,-353.086 661.055,-358.879 662.731,-352.082"/>
</g>
<!-- Node45&#45;&gt;Node2 -->
<g id="edge68" class="edge"><title>Node45&#45;&gt;Node2</title>
<path fill="none" stroke="midnightblue" d="M757.403,-280.428C764.705,-259.668 785.358,-205.635 814.5,-168 823.294,-156.643 835.308,-146.021 845.572,-137.953"/>
<polygon fill="midnightblue" stroke="midnightblue" points="847.816,-140.644 853.674,-131.815 843.589,-135.064 847.816,-140.644"/>
</g>
<!-- Node45&#45;&gt;Node38 -->
<g id="edge69" class="edge"><title>Node45&#45;&gt;Node38</title>
<path fill="none" stroke="midnightblue" d="M720.75,-280.444C683.982,-271.122 625.054,-256.183 584.878,-245.997"/>
<polygon fill="midnightblue" stroke="midnightblue" points="585.646,-242.581 575.093,-243.516 583.926,-249.367 585.646,-242.581"/>
</g>
<!-- Node46&#45;&gt;Node2 -->
<g id="edge71" class="edge"><title>Node46&#45;&gt;Node2</title>
<path fill="none" stroke="midnightblue" d="M847.284,-336.297C850.227,-303.633 860.656,-187.866 864.792,-141.957"/>
<polygon fill="midnightblue" stroke="midnightblue" points="868.288,-142.157 865.7,-131.884 861.316,-141.529 868.288,-142.157"/>
</g>
<!-- Node46&#45;&gt;Node20 -->
<g id="edge74" class="edge"><title>Node46&#45;&gt;Node20</title>
<path fill="none" stroke="midnightblue" d="M878.014,-336.486C997.474,-304.14 1433.92,-185.33 1803.43,-76.2634"/>
<polygon fill="midnightblue" stroke="midnightblue" points="1804.64,-79.5543 1813.24,-73.3645 1802.66,-72.8411 1804.64,-79.5543"/>
</g>
<!-- Node46&#45;&gt;Node44 -->
<g id="edge73" class="edge"><title>Node46&#45;&gt;Node44</title>
<path fill="none" stroke="midnightblue" d="M851.631,-355.751C853.157,-362.858 853.604,-373.136 852.972,-382.101"/>
<polygon fill="midnightblue" stroke="midnightblue" points="849.493,-381.713 851.666,-392.083 856.434,-382.622 849.493,-381.713"/>
</g>
<!-- Node46&#45;&gt;Node45 -->
<g id="edge72" class="edge"><title>Node46&#45;&gt;Node45</title>
<path fill="none" stroke="midnightblue" d="M831.719,-336.324C817.233,-327.822 794.927,-314.729 778.007,-304.797"/>
<polygon fill="midnightblue" stroke="midnightblue" points="779.641,-301.698 769.245,-299.655 776.097,-307.735 779.641,-301.698"/>
</g>
</g>
</svg>
