<?xml version="1.0" encoding="UTF-8" standalone="no"?>
<!DOCTYPE svg PUBLIC "-//W3C//DTD SVG 1.1//EN"
 "http://www.w3.org/Graphics/SVG/1.1/DTD/svg11.dtd">
<!-- Generated by graphviz version 2.38.0 (20140413.2041)
 -->
<!-- Title: demlib.h Pages: 1 -->
<!--zoomable 140 -->
<svg id="main" version="1.1" xmlns="http://www.w3.org/2000/svg" xmlns:xlink="http://www.w3.org/1999/xlink" xml:space="preserve" onload="init(evt)">
<style type="text/css"><![CDATA[
.edge:hover path { stroke: red; }
.edge:hover polygon { stroke: red; fill: red; }
]]></style>
<script type="text/javascript"><![CDATA[
var edges = document.getElementsByTagName('g');
if (edges && edges.length) {
  for (var i=0;i<edges.length;i++) {
    if (edges[i].id.substr(0,4)=='edge') {
      edges[i].setAttribute('class','edge');
    }
  }
}
]]></script>
        <defs>
                <circle id="rim" cx="0" cy="0" r="7"/>
                <circle id="rim2" cx="0" cy="0" r="3.5"/>
                <g id="zoomPlus">
                        <use xlink:href="#rim" fill="#404040">
                                <set attributeName="fill" to="#808080" begin="zoomplus.mouseover" end="zoomplus.mouseout"/>
                        </use>
                        <path d="M-4,0h8M0,-4v8" fill="none" stroke="white" stroke-width="1.5" pointer-events="none"/>
                </g>
                <g id="zoomMin">
                        <use xlink:href="#rim" fill="#404040">
                                <set attributeName="fill" to="#808080" begin="zoomminus.mouseover" end="zoomminus.mouseout"/>
                        </use>
                        <path d="M-4,0h8" fill="none" stroke="white" stroke-width="1.5" pointer-events="none"/>
                </g>
                <g id="dirArrow">
                        <path fill="none" stroke="white" stroke-width="1.5" d="M0,-3.0v7 M-2.5,-0.5L0,-3.0L2.5,-0.5"/>
                </g>
               <g id="resetDef">
                       <use xlink:href="#rim2" fill="#404040">
                               <set attributeName="fill" to="#808080" begin="reset.mouseover" end="reset.mouseout"/>
                       </use>
               </g>
        </defs>

<script type="text/javascript">
var viewWidth = 2377;
var viewHeight = 140;
var sectionId = 'dynsection-1';
</script>
<script xlink:href="svgpan.js"/>
<svg id="graph" class="graph">
<g id="viewport">
<title>demlib.h</title>
<polygon fill="white" stroke="none" points="-4,4 -4,-136 2373,-136 2373,4 -4,4"/>
<!-- Node1 -->
<g id="node1" class="node"><title>Node1</title>
<polygon fill="#bfbfbf" stroke="black" points="1131,-112.5 1131,-131.5 1184,-131.5 1184,-112.5 1131,-112.5"/>
<text text-anchor="middle" x="1157.5" y="-119.5" font-family="Helvetica,sans-Serif" font-size="10.00">demlib.h</text>
</g>
<!-- Node2 -->
<g id="node2" class="node"><title>Node2</title>
<g id="a_node2"><a xlink:href="physicslib_8h.html" target="_top" xlink:title="Orbit library include file. ">
<polygon fill="white" stroke="black" points="1081.5,-56.5 1081.5,-75.5 1149.5,-75.5 1149.5,-56.5 1081.5,-56.5"/>
<text text-anchor="middle" x="1115.5" y="-63.5" font-family="Helvetica,sans-Serif" font-size="10.00">physicslib.h</text>
</a>
</g>
</g>
<!-- Node1&#45;&gt;Node2 -->
<g id="edge1" class="edge"><title>Node1&#45;&gt;Node2</title>
<path fill="none" stroke="midnightblue" d="M1144.39,-104.144C1137.07,-94.7357 1128.26,-83.4046 1122.31,-75.7511"/>
<polygon fill="midnightblue" stroke="midnightblue" points="1141.66,-106.338 1150.56,-112.083 1147.19,-102.041 1141.66,-106.338"/>
</g>
<!-- Node25 -->
<g id="node25" class="node"><title>Node25</title>
<g id="a_node25"><a xlink:href="demlib_8cpp.html" target="_top" xlink:title="demlib.cpp">
<polygon fill="white" stroke="black" points="1167.5,-56.5 1167.5,-75.5 1231.5,-75.5 1231.5,-56.5 1167.5,-56.5"/>
<text text-anchor="middle" x="1199.5" y="-63.5" font-family="Helvetica,sans-Serif" font-size="10.00">demlib.cpp</text>
</a>
</g>
</g>
<!-- Node1&#45;&gt;Node25 -->
<g id="edge24" class="edge"><title>Node1&#45;&gt;Node25</title>
<path fill="none" stroke="midnightblue" d="M1170.61,-104.144C1177.93,-94.7357 1186.74,-83.4046 1192.69,-75.7511"/>
<polygon fill="midnightblue" stroke="midnightblue" points="1167.81,-102.041 1164.44,-112.083 1173.34,-106.338 1167.81,-102.041"/>
</g>
<!-- Node3 -->
<g id="node3" class="node"><title>Node3</title>
<g id="a_node3"><a xlink:href="agent__calc_8cpp.html" target="_top" xlink:title="Demonstration calculator Agent. ">
<polygon fill="white" stroke="black" points="0,-0.5 0,-19.5 83,-19.5 83,-0.5 0,-0.5"/>
<text text-anchor="middle" x="41.5" y="-7.5" font-family="Helvetica,sans-Serif" font-size="10.00">agent_calc.cpp</text>
</a>
</g>
</g>
<!-- Node2&#45;&gt;Node3 -->
<g id="edge2" class="edge"><title>Node2&#45;&gt;Node3</title>
<path fill="none" stroke="midnightblue" d="M1071.24,-65.171C928.702,-65.2702 468.923,-62.0688 91.5,-20 88.7826,-19.6971 85.9902,-19.3356 83.1807,-18.9341"/>
<polygon fill="midnightblue" stroke="midnightblue" points="1071.34,-68.671 1081.34,-65.158 1071.34,-61.671 1071.34,-68.671"/>
</g>
<!-- Node4 -->
<g id="node4" class="node"><title>Node4</title>
<g id="a_node4"><a xlink:href="propagator__simple_8cpp.html" target="_top" xlink:title="propagator_simple.cpp">
<polygon fill="white" stroke="black" points="101,-0.5 101,-19.5 216,-19.5 216,-0.5 101,-0.5"/>
<text text-anchor="middle" x="158.5" y="-7.5" font-family="Helvetica,sans-Serif" font-size="10.00">propagator_simple.cpp</text>
</a>
</g>
</g>
<!-- Node2&#45;&gt;Node4 -->
<g id="edge3" class="edge"><title>Node2&#45;&gt;Node4</title>
<path fill="none" stroke="midnightblue" d="M1071.13,-64.0593C941.007,-61.0205 549.163,-49.8691 225.5,-20 222.461,-19.7196 219.349,-19.4033 216.209,-19.0613"/>
<polygon fill="midnightblue" stroke="midnightblue" points="1071.4,-67.5663 1081.48,-64.2966 1071.56,-60.5681 1071.4,-67.5663"/>
</g>
<!-- Node5 -->
<g id="node5" class="node"><title>Node5</title>
<g id="a_node5"><a xlink:href="testengine_8cpp.html" target="_top" xlink:title="Command line simulator. ">
<polygon fill="white" stroke="black" points="234.5,-0.5 234.5,-19.5 314.5,-19.5 314.5,-0.5 234.5,-0.5"/>
<text text-anchor="middle" x="274.5" y="-7.5" font-family="Helvetica,sans-Serif" font-size="10.00">testengine.cpp</text>
</a>
</g>
</g>
<!-- Node2&#45;&gt;Node5 -->
<g id="edge4" class="edge"><title>Node2&#45;&gt;Node5</title>
<path fill="none" stroke="midnightblue" d="M1071.1,-64.4185C950.5,-62.4204 606.896,-53.9426 323.5,-20 320.58,-19.6503 317.572,-19.2347 314.549,-18.7769"/>
<polygon fill="midnightblue" stroke="midnightblue" points="1071.35,-67.9228 1081.4,-64.5822 1071.46,-60.9237 1071.35,-67.9228"/>
</g>
<!-- Node6 -->
<g id="node6" class="node"><title>Node6</title>
<g id="a_node6"><a xlink:href="physicslib_8cpp.html" target="_top" xlink:title="physicslib.cpp">
<polygon fill="white" stroke="black" points="333,-0.5 333,-19.5 412,-19.5 412,-0.5 333,-0.5"/>
<text text-anchor="middle" x="372.5" y="-7.5" font-family="Helvetica,sans-Serif" font-size="10.00">physicslib.cpp</text>
</a>
</g>
</g>
<!-- Node2&#45;&gt;Node6 -->
<g id="edge5" class="edge"><title>Node2&#45;&gt;Node6</title>
<path fill="none" stroke="midnightblue" d="M1071.36,-63.9273C961.275,-60.8638 665.847,-50.2568 421.5,-20 418.41,-19.6174 415.22,-19.1644 412.019,-18.6683"/>
<polygon fill="midnightblue" stroke="midnightblue" points="1071.34,-67.4278 1081.43,-64.2006 1071.53,-60.4304 1071.34,-67.4278"/>
</g>
<!-- Node7 -->
<g id="node7" class="node"><title>Node7</title>
<g id="a_node7"><a xlink:href="agent-2-0_8cpp.html" target="_top" xlink:title="agent&#45;2&#45;0.cpp">
<polygon fill="white" stroke="black" points="430.5,-0.5 430.5,-19.5 506.5,-19.5 506.5,-0.5 430.5,-0.5"/>
<text text-anchor="middle" x="468.5" y="-7.5" font-family="Helvetica,sans-Serif" font-size="10.00">agent&#45;2&#45;0.cpp</text>
</a>
</g>
</g>
<!-- Node2&#45;&gt;Node7 -->
<g id="edge6" class="edge"><title>Node2&#45;&gt;Node7</title>
<path fill="none" stroke="midnightblue" d="M1071.19,-63.4116C971.527,-59.4605 722.272,-47.4598 515.5,-20 512.618,-19.6172 509.645,-19.1708 506.66,-18.6855"/>
<polygon fill="midnightblue" stroke="midnightblue" points="1071.07,-66.9096 1081.2,-63.8012 1071.34,-59.9148 1071.07,-66.9096"/>
</g>
<!-- Node8 -->
<g id="node8" class="node"><title>Node8</title>
<g id="a_node8"><a xlink:href="agent_8cpp.html" target="_top" xlink:title="Agent control program source. ">
<polygon fill="white" stroke="black" points="525,-0.5 525,-19.5 584,-19.5 584,-0.5 525,-0.5"/>
<text text-anchor="middle" x="554.5" y="-7.5" font-family="Helvetica,sans-Serif" font-size="10.00">agent.cpp</text>
</a>
</g>
</g>
<!-- Node2&#45;&gt;Node8 -->
<g id="edge7" class="edge"><title>Node2&#45;&gt;Node8</title>
<path fill="none" stroke="midnightblue" d="M1071.26,-63.2896C980.973,-59.3368 769.167,-47.6999 593.5,-20 590.48,-19.5238 587.346,-18.9454 584.226,-18.314"/>
<polygon fill="midnightblue" stroke="midnightblue" points="1071.26,-66.7928 1081.41,-63.7235 1071.56,-59.7992 1071.26,-66.7928"/>
</g>
<!-- Node9 -->
<g id="node9" class="node"><title>Node9</title>
<g id="a_node9"><a xlink:href="agent__data-2-0_8cpp.html" target="_top" xlink:title="agent_data&#45;2&#45;0.cpp">
<polygon fill="white" stroke="black" points="602.5,-0.5 602.5,-19.5 702.5,-19.5 702.5,-0.5 602.5,-0.5"/>
<text text-anchor="middle" x="652.5" y="-7.5" font-family="Helvetica,sans-Serif" font-size="10.00">agent_data&#45;2&#45;0.cpp</text>
</a>
</g>
</g>
<!-- Node2&#45;&gt;Node9 -->
<g id="edge8" class="edge"><title>Node2&#45;&gt;Node9</title>
<path fill="none" stroke="midnightblue" d="M1070.99,-60.6371C996.495,-53.2008 841.873,-37.1974 711.5,-20 708.624,-19.6206 705.671,-19.2165 702.692,-18.7977"/>
<polygon fill="midnightblue" stroke="midnightblue" points="1071.09,-64.1643 1081.39,-61.6712 1071.79,-57.1987 1071.09,-64.1643"/>
</g>
<!-- Node10 -->
<g id="node10" class="node"><title>Node10</title>
<g id="a_node10"><a xlink:href="agent__data_8cpp.html" target="_top" xlink:title="agent_data.cpp">
<polygon fill="white" stroke="black" points="721,-0.5 721,-19.5 804,-19.5 804,-0.5 721,-0.5"/>
<text text-anchor="middle" x="762.5" y="-7.5" font-family="Helvetica,sans-Serif" font-size="10.00">agent_data.cpp</text>
</a>
</g>
</g>
<!-- Node2&#45;&gt;Node10 -->
<g id="edge9" class="edge"><title>Node2&#45;&gt;Node10</title>
<path fill="none" stroke="midnightblue" d="M1071.42,-58.8091C1012.56,-50.4549 905.059,-34.8974 813.5,-20 810.483,-19.5091 807.367,-18.9898 804.233,-18.4583"/>
<polygon fill="midnightblue" stroke="midnightblue" points="1071.09,-62.2974 1081.49,-60.2343 1072.08,-55.3665 1071.09,-62.2974"/>
</g>
<!-- Node11 -->
<g id="node11" class="node"><title>Node11</title>
<g id="a_node11"><a xlink:href="cosmos_8cpp.html" target="_top" xlink:title="cosmos.cpp">
<polygon fill="white" stroke="black" points="822.5,-0.5 822.5,-19.5 892.5,-19.5 892.5,-0.5 822.5,-0.5"/>
<text text-anchor="middle" x="857.5" y="-7.5" font-family="Helvetica,sans-Serif" font-size="10.00">cosmos.cpp</text>
</a>
</g>
</g>
<!-- Node2&#45;&gt;Node11 -->
<g id="edge10" class="edge"><title>Node2&#45;&gt;Node11</title>
<path fill="none" stroke="midnightblue" d="M1071.26,-55.7415C1020.75,-45.1695 939.135,-28.0864 892.73,-18.3736"/>
<polygon fill="midnightblue" stroke="midnightblue" points="1070.73,-59.2063 1081.24,-57.8292 1072.17,-52.3547 1070.73,-59.2063"/>
</g>
<!-- Node12 -->
<g id="node12" class="node"><title>Node12</title>
<g id="a_node12"><a xlink:href="agent__control_8cpp.html" target="_top" xlink:title="Agent Control for Satellite Ground Station. ">
<polygon fill="white" stroke="black" points="910.5,-0.5 910.5,-19.5 1004.5,-19.5 1004.5,-0.5 910.5,-0.5"/>
<text text-anchor="middle" x="957.5" y="-7.5" font-family="Helvetica,sans-Serif" font-size="10.00">agent_control.cpp</text>
</a>
</g>
</g>
<!-- Node2&#45;&gt;Node12 -->
<g id="edge11" class="edge"><title>Node2&#45;&gt;Node12</title>
<path fill="none" stroke="midnightblue" d="M1080.89,-53.172C1051.14,-43.0039 1008.95,-28.5852 982.418,-19.5164"/>
<polygon fill="midnightblue" stroke="midnightblue" points="1079.87,-56.5213 1090.46,-56.4435 1082.13,-49.8975 1079.87,-56.5213"/>
</g>
<!-- Node13 -->
<g id="node13" class="node"><title>Node13</title>
<g id="a_node13"><a xlink:href="agent__node_8cpp.html" target="_top" xlink:title="agent_node.cpp">
<polygon fill="white" stroke="black" points="1022.5,-0.5 1022.5,-19.5 1108.5,-19.5 1108.5,-0.5 1022.5,-0.5"/>
<text text-anchor="middle" x="1065.5" y="-7.5" font-family="Helvetica,sans-Serif" font-size="10.00">agent_node.cpp</text>
</a>
</g>
</g>
<!-- Node2&#45;&gt;Node13 -->
<g id="edge12" class="edge"><title>Node2&#45;&gt;Node13</title>
<path fill="none" stroke="midnightblue" d="M1100.42,-48.7175C1091.61,-39.1997 1080.83,-27.5608 1073.6,-19.7511"/>
<polygon fill="midnightblue" stroke="midnightblue" points="1097.88,-51.1233 1107.24,-56.083 1103.02,-46.3674 1097.88,-51.1233"/>
</g>
<!-- Node14 -->
<g id="node14" class="node"><title>Node14</title>
<g id="a_node14"><a xlink:href="agent__orig_8cpp.html" target="_top" xlink:title="agent_orig.cpp">
<polygon fill="white" stroke="black" points="1126.5,-0.5 1126.5,-19.5 1206.5,-19.5 1206.5,-0.5 1126.5,-0.5"/>
<text text-anchor="middle" x="1166.5" y="-7.5" font-family="Helvetica,sans-Serif" font-size="10.00">agent_orig.cpp</text>
</a>
</g>
</g>
<!-- Node2&#45;&gt;Node14 -->
<g id="edge13" class="edge"><title>Node2&#45;&gt;Node14</title>
<path fill="none" stroke="midnightblue" d="M1130.88,-48.7175C1139.87,-39.1997 1150.86,-27.5608 1158.24,-19.7511"/>
<polygon fill="midnightblue" stroke="midnightblue" points="1128.24,-46.4096 1123.92,-56.083 1133.33,-51.216 1128.24,-46.4096"/>
</g>
<!-- Node15 -->
<g id="node15" class="node"><title>Node15</title>
<g id="a_node15"><a xlink:href="agent__physics_8cpp.html" target="_top" xlink:title="agent_physics.cpp">
<polygon fill="white" stroke="black" points="1224.5,-0.5 1224.5,-19.5 1322.5,-19.5 1322.5,-0.5 1224.5,-0.5"/>
<text text-anchor="middle" x="1273.5" y="-7.5" font-family="Helvetica,sans-Serif" font-size="10.00">agent_physics.cpp</text>
</a>
</g>
</g>
<!-- Node2&#45;&gt;Node15 -->
<g id="edge14" class="edge"><title>Node2&#45;&gt;Node15</title>
<path fill="none" stroke="midnightblue" d="M1150.11,-53.172C1179.86,-43.0039 1222.05,-28.5852 1248.58,-19.5164"/>
<polygon fill="midnightblue" stroke="midnightblue" points="1148.87,-49.8975 1140.54,-56.4435 1151.13,-56.5213 1148.87,-49.8975"/>
</g>
<!-- Node16 -->
<g id="node16" class="node"><title>Node16</title>
<g id="a_node16"><a xlink:href="agent__transmitter_8cpp.html" target="_top" xlink:title="agent_transmitter.cpp">
<polygon fill="white" stroke="black" points="1340,-0.5 1340,-19.5 1451,-19.5 1451,-0.5 1340,-0.5"/>
<text text-anchor="middle" x="1395.5" y="-7.5" font-family="Helvetica,sans-Serif" font-size="10.00">agent_transmitter.cpp</text>
</a>
</g>
</g>
<!-- Node2&#45;&gt;Node16 -->
<g id="edge15" class="edge"><title>Node2&#45;&gt;Node16</title>
<path fill="none" stroke="midnightblue" d="M1159.85,-55.757C1231.46,-41.5213 1303.46,-28.0089 1349.13,-19.5397"/>
<polygon fill="midnightblue" stroke="midnightblue" points="1158.88,-52.3824 1149.76,-57.77 1160.25,-59.2473 1158.88,-52.3824"/>
</g>
<!-- Node17 -->
<g id="node17" class="node"><title>Node17</title>
<g id="a_node17"><a xlink:href="agent__transmitter2_8cpp.html" target="_top" xlink:title="agent_transmitter2.cpp">
<polygon fill="white" stroke="black" points="1469.5,-0.5 1469.5,-19.5 1585.5,-19.5 1585.5,-0.5 1469.5,-0.5"/>
<text text-anchor="middle" x="1527.5" y="-7.5" font-family="Helvetica,sans-Serif" font-size="10.00">agent_transmitter2.cpp</text>
</a>
</g>
</g>
<!-- Node2&#45;&gt;Node17 -->
<g id="edge16" class="edge"><title>Node2&#45;&gt;Node17</title>
<path fill="none" stroke="midnightblue" d="M1159.94,-55.8868C1293.64,-34.2611 1329.67,-36.5834 1460.5,-20 1463.41,-19.631 1466.39,-19.2483 1469.4,-18.858"/>
<polygon fill="midnightblue" stroke="midnightblue" points="1159.02,-52.4903 1149.72,-57.556 1160.15,-59.3989 1159.02,-52.4903"/>
</g>
<!-- Node18 -->
<g id="node18" class="node"><title>Node18</title>
<g id="a_node18"><a xlink:href="fast__contacts_8cpp.html" target="_top" xlink:title="fast_contacts.cpp">
<polygon fill="white" stroke="black" points="1604,-0.5 1604,-19.5 1699,-19.5 1699,-0.5 1604,-0.5"/>
<text text-anchor="middle" x="1651.5" y="-7.5" font-family="Helvetica,sans-Serif" font-size="10.00">fast_contacts.cpp</text>
</a>
</g>
</g>
<!-- Node2&#45;&gt;Node18 -->
<g id="edge17" class="edge"><title>Node2&#45;&gt;Node18</title>
<path fill="none" stroke="midnightblue" d="M1159.6,-56.0146C1352.63,-28.5222 1404.65,-42.7936 1594.5,-20 1597.58,-19.6298 1600.76,-19.2172 1603.95,-18.7781"/>
<polygon fill="midnightblue" stroke="midnightblue" points="1159.1,-52.5505 1149.7,-57.443 1160.1,-59.4787 1159.1,-52.5505"/>
</g>
<!-- Node19 -->
<g id="node19" class="node"><title>Node19</title>
<g id="a_node19"><a xlink:href="fast__propagator_8cpp.html" target="_top" xlink:title="fast_propagator.cpp">
<polygon fill="white" stroke="black" points="1717,-0.5 1717,-19.5 1820,-19.5 1820,-0.5 1717,-0.5"/>
<text text-anchor="middle" x="1768.5" y="-7.5" font-family="Helvetica,sans-Serif" font-size="10.00">fast_propagator.cpp</text>
</a>
</g>
</g>
<!-- Node2&#45;&gt;Node19 -->
<g id="edge18" class="edge"><title>Node2&#45;&gt;Node19</title>
<path fill="none" stroke="midnightblue" d="M1159.9,-56.0044C1402.99,-23.4549 1468.27,-45.834 1708.5,-20 1711.22,-19.7072 1714.01,-19.381 1716.82,-19.0313"/>
<polygon fill="midnightblue" stroke="midnightblue" points="1159.13,-52.5772 1149.69,-57.3899 1160.07,-59.5136 1159.13,-52.5772"/>
</g>
<!-- Node20 -->
<g id="node20" class="node"><title>Node20</title>
<g id="a_node20"><a xlink:href="get__contacts_8cpp.html" target="_top" xlink:title="get_contacts.cpp">
<polygon fill="white" stroke="black" points="1838.5,-0.5 1838.5,-19.5 1930.5,-19.5 1930.5,-0.5 1838.5,-0.5"/>
<text text-anchor="middle" x="1884.5" y="-7.5" font-family="Helvetica,sans-Serif" font-size="10.00">get_contacts.cpp</text>
</a>
</g>
</g>
<!-- Node2&#45;&gt;Node20 -->
<g id="edge19" class="edge"><title>Node2&#45;&gt;Node20</title>
<path fill="none" stroke="midnightblue" d="M1159.88,-56.0317C1456.41,-18.0706 1535.92,-51.8006 1829.5,-20 1832.39,-19.6874 1835.35,-19.3245 1838.34,-18.9273"/>
<polygon fill="midnightblue" stroke="midnightblue" points="1159.15,-52.596 1149.69,-57.3532 1160.05,-59.5378 1159.15,-52.596"/>
</g>
<!-- Node21 -->
<g id="node21" class="node"><title>Node21</title>
<g id="a_node21"><a xlink:href="get__contacts__tle_8cpp.html" target="_top" xlink:title="get_contacts_tle.cpp">
<polygon fill="white" stroke="black" points="1949,-0.5 1949,-19.5 2056,-19.5 2056,-0.5 1949,-0.5"/>
<text text-anchor="middle" x="2002.5" y="-7.5" font-family="Helvetica,sans-Serif" font-size="10.00">get_contacts_tle.cpp</text>
</a>
</g>
</g>
<!-- Node2&#45;&gt;Node21 -->
<g id="edge20" class="edge"><title>Node2&#45;&gt;Node21</title>
<path fill="none" stroke="midnightblue" d="M1159.71,-56.0655C1504.96,-13.0284 1596.85,-52.2975 1939.5,-20 1942.58,-19.7097 1945.74,-19.3752 1948.93,-19.0097"/>
<polygon fill="midnightblue" stroke="midnightblue" points="1159.17,-52.6062 1149.68,-57.3296 1160.04,-59.5513 1159.17,-52.6062"/>
</g>
<!-- Node22 -->
<g id="node22" class="node"><title>Node22</title>
<g id="a_node22"><a xlink:href="new__propagator_8cpp.html" target="_top" xlink:title="new_propagator.cpp">
<polygon fill="white" stroke="black" points="2074.5,-0.5 2074.5,-19.5 2178.5,-19.5 2178.5,-0.5 2074.5,-0.5"/>
<text text-anchor="middle" x="2126.5" y="-7.5" font-family="Helvetica,sans-Serif" font-size="10.00">new_propagator.cpp</text>
</a>
</g>
</g>
<!-- Node2&#45;&gt;Node22 -->
<g id="edge21" class="edge"><title>Node2&#45;&gt;Node22</title>
<path fill="none" stroke="midnightblue" d="M1159.81,-56.0654C1560.64,-7.34489 1667.15,-57.1846 2065.5,-20 2068.38,-19.7314 2071.33,-19.4193 2074.3,-19.0759"/>
<polygon fill="midnightblue" stroke="midnightblue" points="1159.18,-52.6162 1149.68,-57.3096 1160.03,-59.564 1159.18,-52.6162"/>
</g>
<!-- Node23 -->
<g id="node23" class="node"><title>Node23</title>
<g id="a_node23"><a xlink:href="propagator_8cpp.html" target="_top" xlink:title="propagator.cpp">
<polygon fill="white" stroke="black" points="2197,-0.5 2197,-19.5 2278,-19.5 2278,-0.5 2197,-0.5"/>
<text text-anchor="middle" x="2237.5" y="-7.5" font-family="Helvetica,sans-Serif" font-size="10.00">propagator.cpp</text>
</a>
</g>
</g>
<!-- Node2&#45;&gt;Node23 -->
<g id="edge22" class="edge"><title>Node2&#45;&gt;Node23</title>
<path fill="none" stroke="midnightblue" d="M1159.8,-56.0762C1614.56,-1.90991 1735.81,-68.3019 2187.5,-20 2190.57,-19.6718 2193.73,-19.265 2196.91,-18.8074"/>
<polygon fill="midnightblue" stroke="midnightblue" points="1159.19,-52.6243 1149.68,-57.2949 1160.03,-59.5741 1159.19,-52.6243"/>
</g>
<!-- Node24 -->
<g id="node24" class="node"><title>Node24</title>
<g id="a_node24"><a xlink:href="state2tle_8cpp.html" target="_top" xlink:title="state2tle.cpp">
<polygon fill="white" stroke="black" points="2296,-0.5 2296,-19.5 2369,-19.5 2369,-0.5 2296,-0.5"/>
<text text-anchor="middle" x="2332.5" y="-7.5" font-family="Helvetica,sans-Serif" font-size="10.00">state2tle.cpp</text>
</a>
</g>
</g>
<!-- Node2&#45;&gt;Node24 -->
<g id="edge23" class="edge"><title>Node2&#45;&gt;Node24</title>
<path fill="none" stroke="midnightblue" d="M1159.66,-56.0986C1658.73,2.58793 1792.05,-77.0464 2287.5,-20 2290.19,-19.6901 2292.96,-19.3038 2295.74,-18.8669"/>
<polygon fill="midnightblue" stroke="midnightblue" points="1159.2,-52.6293 1149.68,-57.2852 1160.02,-59.5804 1159.2,-52.6293"/>
</g>
</g>
</svg>
        <g id="navigator" transform="translate(0 0)" fill="#404254">
                <rect fill="#f2f5e9" fill-opacity="0.5" stroke="#606060" stroke-width=".5" x="0" y="0" width="60" height="60"/>
                <use id="zoomplus" xlink:href="#zoomPlus" x="17" y="9" onmousedown="handleZoom(evt,'in')"/>
                <use id="zoomminus" xlink:href="#zoomMin" x="42" y="9" onmousedown="handleZoom(evt,'out')"/>
                <use id="reset" xlink:href="#resetDef" x="30" y="36" onmousedown="handleReset()"/>
                <g id="arrowUp" xlink:href="#dirArrow" transform="translate(30 24)" onmousedown="handlePan(0,-1)">
                  <use xlink:href="#rim" fill="#404040">
                        <set attributeName="fill" to="#808080" begin="arrowUp.mouseover" end="arrowUp.mouseout"/>
                  </use>
                  <path fill="none" stroke="white" stroke-width="1.5" d="M0,-3.0v7 M-2.5,-0.5L0,-3.0L2.5,-0.5"/>
                </g>
                <g id="arrowRight" xlink:href="#dirArrow" transform="rotate(90) translate(36 -43)" onmousedown="handlePan(1,0)">
                  <use xlink:href="#rim" fill="#404040">
                        <set attributeName="fill" to="#808080" begin="arrowRight.mouseover" end="arrowRight.mouseout"/>
                  </use>
                  <path fill="none" stroke="white" stroke-width="1.5" d="M0,-3.0v7 M-2.5,-0.5L0,-3.0L2.5,-0.5"/>
                </g>
                <g id="arrowDown" xlink:href="#dirArrow" transform="rotate(180) translate(-30 -48)" onmousedown="handlePan(0,1)">
                  <use xlink:href="#rim" fill="#404040">
                        <set attributeName="fill" to="#808080" begin="arrowDown.mouseover" end="arrowDown.mouseout"/>
                  </use>
                  <path fill="none" stroke="white" stroke-width="1.5" d="M0,-3.0v7 M-2.5,-0.5L0,-3.0L2.5,-0.5"/>
                </g>
                <g id="arrowLeft" xlink:href="#dirArrow" transform="rotate(270) translate(-36 17)" onmousedown="handlePan(-1,0)">
                  <use xlink:href="#rim" fill="#404040">
                        <set attributeName="fill" to="#808080" begin="arrowLeft.mouseover" end="arrowLeft.mouseout"/>
                  </use>
                  <path fill="none" stroke="white" stroke-width="1.5" d="M0,-3.0v7 M-2.5,-0.5L0,-3.0L2.5,-0.5"/>
                </g>
        </g>
        <svg viewBox="0 0 15 15" width="100%" height="30px" preserveAspectRatio="xMaxYMin meet">
         <g id="arrow_out" transform="scale(0.3 0.3)">
          <a xlink:href="demlib_8h__dep__incl_org.svg" target="_base">
           <rect id="button" ry="5" rx="5" y="6" x="6" height="38" width="38"
                fill="#f2f5e9" fill-opacity="0.5" stroke="#606060" stroke-width="1.0"/>
           <path id="arrow"
             d="M 11.500037,31.436501 C 11.940474,20.09759 22.043105,11.32322 32.158766,21.979434 L 37.068811,17.246167 C 37.068811,17.246167 37.088388,32 37.088388,32 L 22.160133,31.978069 C 22.160133,31.978069 26.997745,27.140456 26.997745,27.140456 C 18.528582,18.264221 13.291696,25.230495 11.500037,31.436501 z"
             style="fill:#404040;"/>
          </a>
         </g>
        </svg>
</svg>
