<?xml version="1.0" encoding="UTF-8" standalone="no"?>
<!DOCTYPE svg PUBLIC "-//W3C//DTD SVG 1.1//EN"
 "http://www.w3.org/Graphics/SVG/1.1/DTD/svg11.dtd">
<!-- Generated by graphviz version 2.38.0 (20140413.2041)
 -->
<!-- Title: devicecpu.h Pages: 1 -->
<!--zoomable 476 -->
<svg id="main" version="1.1" xmlns="http://www.w3.org/2000/svg" xmlns:xlink="http://www.w3.org/1999/xlink" xml:space="preserve" onload="init(evt)">
<style type="text/css"><![CDATA[
.edge:hover path { stroke: red; }
.edge:hover polygon { stroke: red; fill: red; }
]]></style>
<script type="text/javascript"><![CDATA[
var edges = document.getElementsByTagName('g');
if (edges && edges.length) {
  for (var i=0;i<edges.length;i++) {
    if (edges[i].id.substr(0,4)=='edge') {
      edges[i].setAttribute('class','edge');
    }
  }
}
]]></script>
        <defs>
                <circle id="rim" cx="0" cy="0" r="7"/>
                <circle id="rim2" cx="0" cy="0" r="3.5"/>
                <g id="zoomPlus">
                        <use xlink:href="#rim" fill="#404040">
                                <set attributeName="fill" to="#808080" begin="zoomplus.mouseover" end="zoomplus.mouseout"/>
                        </use>
                        <path d="M-4,0h8M0,-4v8" fill="none" stroke="white" stroke-width="1.5" pointer-events="none"/>
                </g>
                <g id="zoomMin">
                        <use xlink:href="#rim" fill="#404040">
                                <set attributeName="fill" to="#808080" begin="zoomminus.mouseover" end="zoomminus.mouseout"/>
                        </use>
                        <path d="M-4,0h8" fill="none" stroke="white" stroke-width="1.5" pointer-events="none"/>
                </g>
                <g id="dirArrow">
                        <path fill="none" stroke="white" stroke-width="1.5" d="M0,-3.0v7 M-2.5,-0.5L0,-3.0L2.5,-0.5"/>
                </g>
               <g id="resetDef">
                       <use xlink:href="#rim2" fill="#404040">
                               <set attributeName="fill" to="#808080" begin="reset.mouseover" end="reset.mouseout"/>
                       </use>
               </g>
        </defs>

<script type="text/javascript">
var viewWidth = 1840;
var viewHeight = 476;
var sectionId = 'dynsection-0';
</script>
<script xlink:href="svgpan.js"/>
<svg id="graph" class="graph">
<g id="viewport">
<title>devicecpu.h</title>
<polygon fill="white" stroke="none" points="-4,4 -4,-472 1835.63,-472 1835.63,4 -4,4"/>
<!-- Node1 -->
<g id="node1" class="node"><title>Node1</title>
<polygon fill="#bfbfbf" stroke="black" points="1537.5,-448.5 1537.5,-467.5 1606.5,-467.5 1606.5,-448.5 1537.5,-448.5"/>
<text text-anchor="middle" x="1572" y="-455.5" font-family="Helvetica,sans-Serif" font-size="10.00">devicecpu.h</text>
</g>
<!-- Node2 -->
<g id="node2" class="node"><title>Node2</title>
<g id="a_node2"><a xlink:href="config_cosmos_8h.html" target="_top" xlink:title="Headers and definitions common to all COSMOS. ">
<polygon fill="white" stroke="black" points="919.5,-112.5 919.5,-131.5 1042.5,-131.5 1042.5,-112.5 919.5,-112.5"/>
<text text-anchor="middle" x="981" y="-119.5" font-family="Helvetica,sans-Serif" font-size="10.00">support/configCosmos.h</text>
</a>
</g>
</g>
<!-- Node1&#45;&gt;Node2 -->
<g id="edge1" class="edge"><title>Node1&#45;&gt;Node2</title>
<path fill="none" stroke="midnightblue" d="M1537.33,-456.444C1306.42,-452.523 0,-426.81 0,-347 0,-347 0,-347 0,-233 0,-141.486 682.904,-126.106 909.158,-123.522"/>
<polygon fill="midnightblue" stroke="midnightblue" points="909.301,-127.021 919.262,-123.411 909.225,-120.021 909.301,-127.021"/>
</g>
<!-- Node35 -->
<g id="node35" class="node"><title>Node35</title>
<g id="a_node35"><a xlink:href="stringlib_8h.html" target="_top" xlink:title="stringlib include file A library providing functions for handling various types of string...">
<polygon fill="white" stroke="black" points="1480,-392.5 1480,-411.5 1574,-411.5 1574,-392.5 1480,-392.5"/>
<text text-anchor="middle" x="1527" y="-399.5" font-family="Helvetica,sans-Serif" font-size="10.00">support/stringlib.h</text>
</a>
</g>
</g>
<!-- Node1&#45;&gt;Node35 -->
<g id="edge43" class="edge"><title>Node1&#45;&gt;Node35</title>
<path fill="none" stroke="midnightblue" d="M1564.57,-448.083C1558.15,-440.377 1548.69,-429.033 1540.88,-419.653"/>
<polygon fill="midnightblue" stroke="midnightblue" points="1543.38,-417.193 1534.29,-411.751 1538.01,-421.674 1543.38,-417.193"/>
</g>
<!-- Node41 -->
<g id="node41" class="node"><title>Node41</title>
<polygon fill="white" stroke="#bfbfbf" points="1592,-392.5 1592,-411.5 1642,-411.5 1642,-392.5 1592,-392.5"/>
<text text-anchor="middle" x="1617" y="-399.5" font-family="Helvetica,sans-Serif" font-size="10.00">fstream</text>
</g>
<!-- Node1&#45;&gt;Node41 -->
<g id="edge60" class="edge"><title>Node1&#45;&gt;Node41</title>
<path fill="none" stroke="midnightblue" d="M1579.43,-448.083C1585.85,-440.377 1595.31,-429.033 1603.12,-419.653"/>
<polygon fill="midnightblue" stroke="midnightblue" points="1605.99,-421.674 1609.71,-411.751 1600.62,-417.193 1605.99,-421.674"/>
</g>
<!-- Node42 -->
<g id="node42" class="node"><title>Node42</title>
<polygon fill="white" stroke="#bfbfbf" points="1660,-392.5 1660,-411.5 1716,-411.5 1716,-392.5 1660,-392.5"/>
<text text-anchor="middle" x="1688" y="-399.5" font-family="Helvetica,sans-Serif" font-size="10.00">algorithm</text>
</g>
<!-- Node1&#45;&gt;Node42 -->
<g id="edge61" class="edge"><title>Node1&#45;&gt;Node42</title>
<path fill="none" stroke="midnightblue" d="M1590.38,-448.444C1609.22,-439.675 1638.73,-425.935 1660.38,-415.858"/>
<polygon fill="midnightblue" stroke="midnightblue" points="1662.12,-418.91 1669.71,-411.516 1659.16,-412.564 1662.12,-418.91"/>
</g>
<!-- Node3 -->
<g id="node3" class="node"><title>Node3</title>
<polygon fill="white" stroke="#bfbfbf" points="1390.5,-56.5 1390.5,-75.5 1435.5,-75.5 1435.5,-56.5 1390.5,-56.5"/>
<text text-anchor="middle" x="1413" y="-63.5" font-family="Helvetica,sans-Serif" font-size="10.00">climits</text>
</g>
<!-- Node2&#45;&gt;Node3 -->
<g id="edge2" class="edge"><title>Node2&#45;&gt;Node3</title>
<path fill="none" stroke="midnightblue" d="M1042.67,-113.962C1048.53,-113.297 1054.38,-112.635 1060,-112 1199.88,-96.2128 1239.03,-103.816 1380.51,-76.0124"/>
<polygon fill="midnightblue" stroke="midnightblue" points="1381.3,-79.4235 1390.42,-74.039 1379.93,-72.5581 1381.3,-79.4235"/>
</g>
<!-- Node4 -->
<g id="node4" class="node"><title>Node4</title>
<polygon fill="white" stroke="#bfbfbf" points="1453.5,-56.5 1453.5,-75.5 1500.5,-75.5 1500.5,-56.5 1453.5,-56.5"/>
<text text-anchor="middle" x="1477" y="-63.5" font-family="Helvetica,sans-Serif" font-size="10.00">csignal</text>
</g>
<!-- Node2&#45;&gt;Node4 -->
<g id="edge3" class="edge"><title>Node2&#45;&gt;Node4</title>
<path fill="none" stroke="midnightblue" d="M1042.66,-113.854C1048.52,-113.211 1054.37,-112.584 1060,-112 1227.69,-94.6102 1274.27,-106.905 1443.36,-76.0156"/>
<polygon fill="midnightblue" stroke="midnightblue" points="1444.15,-79.4286 1453.35,-74.1673 1442.88,-72.5455 1444.15,-79.4286"/>
</g>
<!-- Node5 -->
<g id="node5" class="node"><title>Node5</title>
<polygon fill="white" stroke="#bfbfbf" points="134,-56.5 134,-75.5 180,-75.5 180,-56.5 134,-56.5"/>
<text text-anchor="middle" x="157" y="-63.5" font-family="Helvetica,sans-Serif" font-size="10.00">cstdint</text>
</g>
<!-- Node2&#45;&gt;Node5 -->
<g id="edge4" class="edge"><title>Node2&#45;&gt;Node5</title>
<path fill="none" stroke="midnightblue" d="M919.492,-118.928C759.609,-113.311 333.676,-96.8048 194,-76 192.749,-75.8137 191.479,-75.6051 190.199,-75.3784"/>
<polygon fill="midnightblue" stroke="midnightblue" points="190.861,-71.9412 180.361,-73.3608 189.454,-78.7985 190.861,-71.9412"/>
</g>
<!-- Node6 -->
<g id="node6" class="node"><title>Node6</title>
<polygon fill="white" stroke="#bfbfbf" points="566,-56.5 566,-75.5 622,-75.5 622,-56.5 566,-56.5"/>
<text text-anchor="middle" x="594" y="-63.5" font-family="Helvetica,sans-Serif" font-size="10.00">cinttypes</text>
</g>
<!-- Node2&#45;&gt;Node6 -->
<g id="edge5" class="edge"><title>Node2&#45;&gt;Node6</title>
<path fill="none" stroke="midnightblue" d="M919.351,-115.161C851.307,-108.247 738.391,-95.3951 632.142,-76.0355"/>
<polygon fill="midnightblue" stroke="midnightblue" points="632.681,-72.576 622.212,-74.2033 631.411,-79.4598 632.681,-72.576"/>
</g>
<!-- Node7 -->
<g id="node7" class="node"><title>Node7</title>
<polygon fill="white" stroke="#bfbfbf" points="640.5,-56.5 640.5,-75.5 683.5,-75.5 683.5,-56.5 640.5,-56.5"/>
<text text-anchor="middle" x="662" y="-63.5" font-family="Helvetica,sans-Serif" font-size="10.00">cstdio</text>
</g>
<!-- Node2&#45;&gt;Node7 -->
<g id="edge6" class="edge"><title>Node2&#45;&gt;Node7</title>
<path fill="none" stroke="midnightblue" d="M919.368,-113.889C862.781,-106.799 776.503,-94.576 693.391,-76.0732"/>
<polygon fill="midnightblue" stroke="midnightblue" points="694.062,-72.6365 683.536,-73.8458 692.519,-79.4642 694.062,-72.6365"/>
</g>
<!-- Node8 -->
<g id="node8" class="node"><title>Node8</title>
<polygon fill="white" stroke="#bfbfbf" points="701.5,-56.5 701.5,-75.5 750.5,-75.5 750.5,-56.5 701.5,-56.5"/>
<text text-anchor="middle" x="726" y="-63.5" font-family="Helvetica,sans-Serif" font-size="10.00">cstddef</text>
</g>
<!-- Node2&#45;&gt;Node8 -->
<g id="edge7" class="edge"><title>Node2&#45;&gt;Node8</title>
<path fill="none" stroke="midnightblue" d="M934.458,-112.496C891.604,-104.457 826.052,-91.6374 760.856,-76.3347"/>
<polygon fill="midnightblue" stroke="midnightblue" points="761.358,-72.8571 750.821,-73.9587 759.746,-79.6687 761.358,-72.8571"/>
</g>
<!-- Node9 -->
<g id="node9" class="node"><title>Node9</title>
<polygon fill="white" stroke="#bfbfbf" points="768.5,-56.5 768.5,-75.5 813.5,-75.5 813.5,-56.5 768.5,-56.5"/>
<text text-anchor="middle" x="791" y="-63.5" font-family="Helvetica,sans-Serif" font-size="10.00">cstdlib</text>
</g>
<!-- Node2&#45;&gt;Node9 -->
<g id="edge8" class="edge"><title>Node2&#45;&gt;Node9</title>
<path fill="none" stroke="midnightblue" d="M950.894,-112.444C916.132,-102.564 859.166,-86.3734 823.444,-76.2208"/>
<polygon fill="midnightblue" stroke="midnightblue" points="824.104,-72.7698 813.528,-73.4026 822.19,-79.5032 824.104,-72.7698"/>
</g>
<!-- Node10 -->
<g id="node10" class="node"><title>Node10</title>
<polygon fill="white" stroke="#bfbfbf" points="832,-56.5 832,-75.5 876,-75.5 876,-56.5 832,-56.5"/>
<text text-anchor="middle" x="854" y="-63.5" font-family="Helvetica,sans-Serif" font-size="10.00">cerrno</text>
</g>
<!-- Node2&#45;&gt;Node10 -->
<g id="edge9" class="edge"><title>Node2&#45;&gt;Node10</title>
<path fill="none" stroke="midnightblue" d="M960.876,-112.444C939.976,-103.557 907.065,-89.5632 883.284,-79.4514"/>
<polygon fill="midnightblue" stroke="midnightblue" points="884.602,-76.2085 874.029,-75.5164 881.862,-82.6504 884.602,-76.2085"/>
</g>
<!-- Node11 -->
<g id="node11" class="node"><title>Node11</title>
<polygon fill="white" stroke="#bfbfbf" points="894,-56.5 894,-75.5 940,-75.5 940,-56.5 894,-56.5"/>
<text text-anchor="middle" x="917" y="-63.5" font-family="Helvetica,sans-Serif" font-size="10.00">cstring</text>
</g>
<!-- Node2&#45;&gt;Node11 -->
<g id="edge10" class="edge"><title>Node2&#45;&gt;Node11</title>
<path fill="none" stroke="midnightblue" d="M970.717,-112.324C961.164,-104.263 946.72,-92.0765 935.216,-82.3695"/>
<polygon fill="midnightblue" stroke="midnightblue" points="937.37,-79.6076 927.47,-75.8339 932.856,-84.9577 937.37,-79.6076"/>
</g>
<!-- Node12 -->
<g id="node12" class="node"><title>Node12</title>
<polygon fill="white" stroke="#bfbfbf" points="1633,-56.5 1633,-75.5 1677,-75.5 1677,-56.5 1633,-56.5"/>
<text text-anchor="middle" x="1655" y="-63.5" font-family="Helvetica,sans-Serif" font-size="10.00">cmath</text>
</g>
<!-- Node2&#45;&gt;Node12 -->
<g id="edge11" class="edge"><title>Node2&#45;&gt;Node12</title>
<path fill="none" stroke="midnightblue" d="M1042.64,-113.682C1048.5,-113.075 1054.36,-112.502 1060,-112 1307.98,-89.9033 1373.01,-114.347 1619,-76 1620.25,-75.8046 1621.53,-75.5861 1622.81,-75.3491"/>
<polygon fill="midnightblue" stroke="midnightblue" points="1623.61,-78.7574 1632.66,-73.2492 1622.15,-71.9112 1623.61,-78.7574"/>
</g>
<!-- Node13 -->
<g id="node13" class="node"><title>Node13</title>
<polygon fill="white" stroke="#bfbfbf" points="958.5,-56.5 958.5,-75.5 1003.5,-75.5 1003.5,-56.5 958.5,-56.5"/>
<text text-anchor="middle" x="981" y="-63.5" font-family="Helvetica,sans-Serif" font-size="10.00">iosfwd</text>
</g>
<!-- Node2&#45;&gt;Node13 -->
<g id="edge12" class="edge"><title>Node2&#45;&gt;Node13</title>
<path fill="none" stroke="midnightblue" d="M981,-112.083C981,-105.006 981,-94.8611 981,-85.9865"/>
<polygon fill="midnightblue" stroke="midnightblue" points="984.5,-85.751 981,-75.7511 977.5,-85.7511 984.5,-85.751"/>
</g>
<!-- Node14 -->
<g id="node14" class="node"><title>Node14</title>
<polygon fill="white" stroke="#bfbfbf" points="1695,-56.5 1695,-75.5 1749,-75.5 1749,-56.5 1695,-56.5"/>
<text text-anchor="middle" x="1722" y="-63.5" font-family="Helvetica,sans-Serif" font-size="10.00">iostream</text>
</g>
<!-- Node2&#45;&gt;Node14 -->
<g id="edge13" class="edge"><title>Node2&#45;&gt;Node14</title>
<path fill="none" stroke="midnightblue" d="M1042.7,-120.807C1164.11,-119.614 1442.54,-112.864 1684.92,-75.8688"/>
<polygon fill="midnightblue" stroke="midnightblue" points="1685.63,-79.3006 1694.98,-74.3129 1684.56,-72.3829 1685.63,-79.3006"/>
</g>
<!-- Node15 -->
<g id="node15" class="node"><title>Node15</title>
<polygon fill="white" stroke="#bfbfbf" points="1767,-56.5 1767,-75.5 1819,-75.5 1819,-56.5 1767,-56.5"/>
<text text-anchor="middle" x="1793" y="-63.5" font-family="Helvetica,sans-Serif" font-size="10.00">sstream</text>
</g>
<!-- Node2&#45;&gt;Node15 -->
<g id="edge14" class="edge"><title>Node2&#45;&gt;Node15</title>
<path fill="none" stroke="midnightblue" d="M1042.62,-121.469C1173.02,-121.589 1486.38,-117.272 1756.74,-75.8859"/>
<polygon fill="midnightblue" stroke="midnightblue" points="1757.4,-79.3259 1766.74,-74.3345 1756.32,-72.4086 1757.4,-79.3259"/>
</g>
<!-- Node16 -->
<g id="node16" class="node"><title>Node16</title>
<polygon fill="white" stroke="#bfbfbf" points="1021.5,-56.5 1021.5,-75.5 1062.5,-75.5 1062.5,-56.5 1021.5,-56.5"/>
<text text-anchor="middle" x="1042" y="-63.5" font-family="Helvetica,sans-Serif" font-size="10.00">regex</text>
</g>
<!-- Node2&#45;&gt;Node16 -->
<g id="edge15" class="edge"><title>Node2&#45;&gt;Node16</title>
<path fill="none" stroke="midnightblue" d="M990.801,-112.324C999.818,-104.341 1013.41,-92.3128 1024.32,-82.6529"/>
<polygon fill="midnightblue" stroke="midnightblue" points="1026.85,-85.083 1032.02,-75.8339 1022.21,-79.8416 1026.85,-85.083"/>
</g>
<!-- Node17 -->
<g id="node17" class="node"><title>Node17</title>
<polygon fill="white" stroke="#bfbfbf" points="66,-56.5 66,-75.5 116,-75.5 116,-56.5 66,-56.5"/>
<text text-anchor="middle" x="91" y="-63.5" font-family="Helvetica,sans-Serif" font-size="10.00">iomanip</text>
</g>
<!-- Node2&#45;&gt;Node17 -->
<g id="edge16" class="edge"><title>Node2&#45;&gt;Node17</title>
<path fill="none" stroke="midnightblue" d="M919.356,-119.411C753.086,-114.868 297.02,-100.635 126.233,-75.8046"/>
<polygon fill="midnightblue" stroke="midnightblue" points="126.54,-72.3113 116.128,-74.2696 125.489,-79.2319 126.54,-72.3113"/>
</g>
<!-- Node18 -->
<g id="node18" class="node"><title>Node18</title>
<polygon fill="white" stroke="#bfbfbf" points="1080.5,-56.5 1080.5,-75.5 1131.5,-75.5 1131.5,-56.5 1080.5,-56.5"/>
<text text-anchor="middle" x="1106" y="-63.5" font-family="Helvetica,sans-Serif" font-size="10.00">unistd.h</text>
</g>
<!-- Node2&#45;&gt;Node18 -->
<g id="edge17" class="edge"><title>Node2&#45;&gt;Node18</title>
<path fill="none" stroke="midnightblue" d="M1000.81,-112.444C1021.29,-103.596 1053.48,-89.6875 1076.86,-79.5865"/>
<polygon fill="midnightblue" stroke="midnightblue" points="1078.49,-82.6953 1086.29,-75.5164 1075.72,-76.2692 1078.49,-82.6953"/>
</g>
<!-- Node19 -->
<g id="node19" class="node"><title>Node19</title>
<polygon fill="white" stroke="#bfbfbf" points="1150,-56.5 1150,-75.5 1194,-75.5 1194,-56.5 1150,-56.5"/>
<text text-anchor="middle" x="1172" y="-63.5" font-family="Helvetica,sans-Serif" font-size="10.00">fcntl.h</text>
</g>
<!-- Node2&#45;&gt;Node19 -->
<g id="edge18" class="edge"><title>Node2&#45;&gt;Node19</title>
<path fill="none" stroke="midnightblue" d="M1011.26,-112.444C1046.4,-102.51 1104.1,-86.1958 1139.97,-76.0544"/>
<polygon fill="midnightblue" stroke="midnightblue" points="1141.25,-79.3324 1149.92,-73.2437 1139.34,-72.5964 1141.25,-79.3324"/>
</g>
<!-- Node20 -->
<g id="node20" class="node"><title>Node20</title>
<polygon fill="white" stroke="#bfbfbf" points="1212,-56.5 1212,-75.5 1252,-75.5 1252,-56.5 1212,-56.5"/>
<text text-anchor="middle" x="1232" y="-63.5" font-family="Helvetica,sans-Serif" font-size="10.00">limits</text>
</g>
<!-- Node2&#45;&gt;Node20 -->
<g id="edge19" class="edge"><title>Node2&#45;&gt;Node20</title>
<path fill="none" stroke="midnightblue" d="M1030.26,-112.489C1073.26,-104.73 1137.49,-92.3426 1201.88,-76.0901"/>
<polygon fill="midnightblue" stroke="midnightblue" points="1202.97,-79.4235 1211.79,-73.5567 1201.24,-72.6414 1202.97,-79.4235"/>
</g>
<!-- Node21 -->
<g id="node21" class="node"><title>Node21</title>
<polygon fill="white" stroke="#bfbfbf" points="1584.5,-0.5 1584.5,-19.5 1625.5,-19.5 1625.5,-0.5 1584.5,-0.5"/>
<text text-anchor="middle" x="1605" y="-7.5" font-family="Helvetica,sans-Serif" font-size="10.00">string</text>
</g>
<!-- Node2&#45;&gt;Node21 -->
<g id="edge20" class="edge"><title>Node2&#45;&gt;Node21</title>
<path fill="none" stroke="midnightblue" d="M1042.65,-113.726C1048.51,-113.11 1054.36,-112.523 1060,-112 1171.14,-101.68 1464.34,-131.823 1561,-76 1579.03,-65.5899 1591.21,-44.4611 1598.1,-29.1111"/>
<polygon fill="midnightblue" stroke="midnightblue" points="1601.44,-30.1884 1602.03,-19.6101 1594.97,-27.5105 1601.44,-30.1884"/>
</g>
<!-- Node22 -->
<g id="node22" class="node"><title>Node22</title>
<polygon fill="white" stroke="#bfbfbf" points="329,-0.5 329,-19.5 373,-19.5 373,-0.5 329,-0.5"/>
<text text-anchor="middle" x="351" y="-7.5" font-family="Helvetica,sans-Serif" font-size="10.00">vector</text>
</g>
<!-- Node2&#45;&gt;Node22 -->
<g id="edge21" class="edge"><title>Node2&#45;&gt;Node22</title>
<path fill="none" stroke="midnightblue" d="M919.467,-119.172C756.359,-114.029 323.907,-98.3408 303,-76 287.955,-59.9231 309.403,-39.1254 328.251,-25.4395"/>
<polygon fill="midnightblue" stroke="midnightblue" points="330.339,-28.251 336.587,-19.6944 326.367,-22.4872 330.339,-28.251"/>
</g>
<!-- Node23 -->
<g id="node23" class="node"><title>Node23</title>
<polygon fill="white" stroke="#bfbfbf" points="1270.5,-56.5 1270.5,-75.5 1311.5,-75.5 1311.5,-56.5 1270.5,-56.5"/>
<text text-anchor="middle" x="1291" y="-63.5" font-family="Helvetica,sans-Serif" font-size="10.00">stack</text>
</g>
<!-- Node2&#45;&gt;Node23 -->
<g id="edge22" class="edge"><title>Node2&#45;&gt;Node23</title>
<path fill="none" stroke="midnightblue" d="M1042.63,-113.478C1097.43,-106.249 1179.87,-94.0557 1260.6,-75.8132"/>
<polygon fill="midnightblue" stroke="midnightblue" points="1261.47,-79.2045 1270.44,-73.5584 1259.91,-72.3815 1261.47,-79.2045"/>
</g>
<!-- Node24 -->
<g id="node24" class="node"><title>Node24</title>
<polygon fill="white" stroke="#bfbfbf" points="1329.5,-56.5 1329.5,-75.5 1372.5,-75.5 1372.5,-56.5 1329.5,-56.5"/>
<text text-anchor="middle" x="1351" y="-63.5" font-family="Helvetica,sans-Serif" font-size="10.00">deque</text>
</g>
<!-- Node2&#45;&gt;Node24 -->
<g id="edge23" class="edge"><title>Node2&#45;&gt;Node24</title>
<path fill="none" stroke="midnightblue" d="M1042.79,-113.366C1126.5,-102.948 1270.35,-84.7496 1319.37,-75.8958"/>
<polygon fill="midnightblue" stroke="midnightblue" points="1320.34,-79.272 1329.48,-73.9059 1318.99,-72.4038 1320.34,-79.272"/>
</g>
<!-- Node25 -->
<g id="node25" class="node"><title>Node25</title>
<polygon fill="white" stroke="#bfbfbf" points="561,-0.5 561,-19.5 605,-19.5 605,-0.5 561,-0.5"/>
<text text-anchor="middle" x="583" y="-7.5" font-family="Helvetica,sans-Serif" font-size="10.00">mutex</text>
</g>
<!-- Node2&#45;&gt;Node25 -->
<g id="edge24" class="edge"><title>Node2&#45;&gt;Node25</title>
<path fill="none" stroke="midnightblue" d="M1042.65,-113.774C1048.51,-113.148 1054.37,-112.546 1060,-112 1160.3,-102.277 1579.81,-128.672 1510,-56 1476.84,-21.4766 725.446,-27.4509 615.358,-19.2225"/>
<polygon fill="midnightblue" stroke="midnightblue" points="615.517,-15.7198 605.203,-18.1449 614.778,-22.6807 615.517,-15.7198"/>
</g>
<!-- Node26 -->
<g id="node26" class="node"><title>Node26</title>
<polygon fill="white" stroke="#bfbfbf" points="623,-0.5 623,-19.5 667,-19.5 667,-0.5 623,-0.5"/>
<text text-anchor="middle" x="645" y="-7.5" font-family="Helvetica,sans-Serif" font-size="10.00">thread</text>
</g>
<!-- Node2&#45;&gt;Node26 -->
<g id="edge25" class="edge"><title>Node2&#45;&gt;Node26</title>
<path fill="none" stroke="midnightblue" d="M1042.65,-113.742C1048.51,-113.122 1054.37,-112.531 1060,-112 1167.58,-101.867 1617.8,-133.973 1543,-56 1510.96,-22.6046 785.315,-27.3175 677.389,-19.2245"/>
<polygon fill="midnightblue" stroke="midnightblue" points="677.518,-15.7185 667.204,-18.1413 676.777,-22.6792 677.518,-15.7185"/>
</g>
<!-- Node27 -->
<g id="node27" class="node"><title>Node27</title>
<polygon fill="white" stroke="#bfbfbf" points="154.5,-0.5 154.5,-19.5 249.5,-19.5 249.5,-0.5 154.5,-0.5"/>
<text text-anchor="middle" x="202" y="-7.5" font-family="Helvetica,sans-Serif" font-size="10.00">condition_variable</text>
</g>
<!-- Node2&#45;&gt;Node27 -->
<g id="edge26" class="edge"><title>Node2&#45;&gt;Node27</title>
<path fill="none" stroke="midnightblue" d="M919.455,-119.204C759.587,-114.234 339.504,-99.1192 281,-76 254.798,-65.6458 230.736,-43.167 216.222,-27.5645"/>
<polygon fill="midnightblue" stroke="midnightblue" points="218.471,-24.8305 209.188,-19.7246 213.261,-29.5052 218.471,-24.8305"/>
</g>
<!-- Node28 -->
<g id="node28" class="node"><title>Node28</title>
<polygon fill="white" stroke="#bfbfbf" points="267.5,-0.5 267.5,-19.5 310.5,-19.5 310.5,-0.5 267.5,-0.5"/>
<text text-anchor="middle" x="289" y="-7.5" font-family="Helvetica,sans-Serif" font-size="10.00">queue</text>
</g>
<!-- Node2&#45;&gt;Node28 -->
<g id="edge27" class="edge"><title>Node2&#45;&gt;Node28</title>
<path fill="none" stroke="midnightblue" d="M919.338,-119.133C754.758,-113.862 316.073,-97.8232 294,-76 282.071,-64.2055 282.279,-44.2794 284.569,-29.5915"/>
<polygon fill="midnightblue" stroke="midnightblue" points="288.038,-30.0933 286.559,-19.6021 281.173,-28.7254 288.038,-30.0933"/>
</g>
<!-- Node29 -->
<g id="node29" class="node"><title>Node29</title>
<polygon fill="white" stroke="#bfbfbf" points="437.5,-0.5 437.5,-19.5 472.5,-19.5 472.5,-0.5 437.5,-0.5"/>
<text text-anchor="middle" x="455" y="-7.5" font-family="Helvetica,sans-Serif" font-size="10.00">map</text>
</g>
<!-- Node2&#45;&gt;Node29 -->
<g id="edge28" class="edge"><title>Node2&#45;&gt;Node29</title>
<path fill="none" stroke="midnightblue" d="M919.109,-119.316C791.634,-115.305 508.846,-103.398 475,-76 461.398,-64.9894 456.842,-44.9395 455.417,-30.0084"/>
<polygon fill="midnightblue" stroke="midnightblue" points="458.9,-29.6085 454.84,-19.8227 451.911,-30.0049 458.9,-29.6085"/>
</g>
<!-- Node30 -->
<g id="node30" class="node"><title>Node30</title>
<g id="a_node30"><a xlink:href="cosmos-defs_8h.html" target="_top" xlink:title="COSMOS definitions Definitions specific to the COSMOS environement. ">
<polygon fill="white" stroke="black" points="312,-56.5 312,-75.5 428,-75.5 428,-56.5 312,-56.5"/>
<text text-anchor="middle" x="370" y="-63.5" font-family="Helvetica,sans-Serif" font-size="10.00">support/cosmos&#45;defs.h</text>
</a>
</g>
</g>
<!-- Node2&#45;&gt;Node30 -->
<g id="edge29" class="edge"><title>Node2&#45;&gt;Node30</title>
<path fill="none" stroke="midnightblue" d="M919.489,-116.69C819.324,-109.487 614.783,-94.0039 442,-76 440.731,-75.8678 439.451,-75.732 438.16,-75.5931"/>
<polygon fill="midnightblue" stroke="midnightblue" points="438.462,-72.1051 428.135,-74.4748 437.686,-79.0619 438.462,-72.1051"/>
</g>
<!-- Node32 -->
<g id="node32" class="node"><title>Node32</title>
<g id="a_node32"><a xlink:href="json11_8hpp.html" target="_top" xlink:title="json11.hpp">
<polygon fill="white" stroke="black" points="484,-56.5 484,-75.5 548,-75.5 548,-56.5 484,-56.5"/>
<text text-anchor="middle" x="516" y="-63.5" font-family="Helvetica,sans-Serif" font-size="10.00">json11.hpp</text>
</a>
</g>
</g>
<!-- Node2&#45;&gt;Node32 -->
<g id="edge37" class="edge"><title>Node2&#45;&gt;Node32</title>
<path fill="none" stroke="midnightblue" d="M919.277,-116.597C838.506,-110.357 692.405,-97.4355 558.215,-76.0347"/>
<polygon fill="midnightblue" stroke="midnightblue" points="558.595,-72.5506 548.165,-74.412 557.479,-79.4612 558.595,-72.5506"/>
</g>
<!-- Node30&#45;&gt;Node22 -->
<g id="edge31" class="edge"><title>Node30&#45;&gt;Node22</title>
<path fill="none" stroke="midnightblue" d="M366.863,-56.083C364.317,-48.8486 360.644,-38.4087 357.473,-29.3968"/>
<polygon fill="midnightblue" stroke="midnightblue" points="360.7,-28.0225 354.079,-19.7511 354.097,-30.3459 360.7,-28.0225"/>
</g>
<!-- Node30&#45;&gt;Node25 -->
<g id="edge35" class="edge"><title>Node30&#45;&gt;Node25</title>
<path fill="none" stroke="midnightblue" d="M406.368,-56.4624C441.172,-48.1911 495.37,-35.0495 551.011,-20.1916"/>
<polygon fill="midnightblue" stroke="midnightblue" points="551.928,-23.5694 560.679,-17.5964 550.113,-16.8088 551.928,-23.5694"/>
</g>
<!-- Node30&#45;&gt;Node26 -->
<g id="edge34" class="edge"><title>Node30&#45;&gt;Node26</title>
<path fill="none" stroke="midnightblue" d="M425.081,-56.4607C472.519,-48.7402 542.979,-36.4035 612.865,-20.0866"/>
<polygon fill="midnightblue" stroke="midnightblue" points="613.793,-23.4638 622.72,-17.7579 612.183,-16.6514 613.793,-23.4638"/>
</g>
<!-- Node30&#45;&gt;Node27 -->
<g id="edge36" class="edge"><title>Node30&#45;&gt;Node27</title>
<path fill="none" stroke="midnightblue" d="M343.38,-56.4435C314.994,-47.3196 269.863,-32.8133 238.247,-22.6509"/>
<polygon fill="midnightblue" stroke="midnightblue" points="239.087,-19.2445 228.496,-19.5164 236.945,-25.9087 239.087,-19.2445"/>
</g>
<!-- Node30&#45;&gt;Node28 -->
<g id="edge33" class="edge"><title>Node30&#45;&gt;Node28</title>
<path fill="none" stroke="midnightblue" d="M356.986,-56.324C344.468,-47.979 325.318,-35.2122 310.529,-25.3524"/>
<polygon fill="midnightblue" stroke="midnightblue" points="312.244,-22.2894 301.982,-19.6545 308.361,-28.1137 312.244,-22.2894"/>
</g>
<!-- Node30&#45;&gt;Node29 -->
<g id="edge30" class="edge"><title>Node30&#45;&gt;Node29</title>
<path fill="none" stroke="midnightblue" d="M383.657,-56.324C396.916,-47.9002 417.268,-34.9709 432.846,-25.0741"/>
<polygon fill="midnightblue" stroke="midnightblue" points="434.813,-27.9711 441.377,-19.6545 431.06,-22.0626 434.813,-27.9711"/>
</g>
<!-- Node31 -->
<g id="node31" class="node"><title>Node31</title>
<polygon fill="white" stroke="#bfbfbf" points="390.5,-0.5 390.5,-19.5 419.5,-19.5 419.5,-0.5 390.5,-0.5"/>
<text text-anchor="middle" x="405" y="-7.5" font-family="Helvetica,sans-Serif" font-size="10.00">list</text>
</g>
<!-- Node30&#45;&gt;Node31 -->
<g id="edge32" class="edge"><title>Node30&#45;&gt;Node31</title>
<path fill="none" stroke="midnightblue" d="M375.78,-56.083C380.672,-48.5341 387.827,-37.4948 393.833,-28.2298"/>
<polygon fill="midnightblue" stroke="midnightblue" points="396.826,-30.0463 399.328,-19.7511 390.952,-26.239 396.826,-30.0463"/>
</g>
<!-- Node32&#45;&gt;Node21 -->
<g id="edge38" class="edge"><title>Node32&#45;&gt;Node21</title>
<path fill="none" stroke="midnightblue" d="M548.136,-57.3945C551.121,-56.855 554.109,-56.3764 557,-56 761.147,-29.4145 1422.13,-14.6885 1573.79,-11.6105"/>
<polygon fill="midnightblue" stroke="midnightblue" points="1574.28,-15.1015 1584.2,-11.4013 1574.13,-8.10295 1574.28,-15.1015"/>
</g>
<!-- Node32&#45;&gt;Node22 -->
<g id="edge39" class="edge"><title>Node32&#45;&gt;Node22</title>
<path fill="none" stroke="midnightblue" d="M489.855,-56.4435C460.747,-46.9171 413.709,-31.5228 382.57,-21.3321"/>
<polygon fill="midnightblue" stroke="midnightblue" points="383.655,-18.0044 373.062,-18.2203 381.477,-24.6572 383.655,-18.0044"/>
</g>
<!-- Node32&#45;&gt;Node29 -->
<g id="edge40" class="edge"><title>Node32&#45;&gt;Node29</title>
<path fill="none" stroke="midnightblue" d="M506.199,-56.324C497.182,-48.3414 483.594,-36.3128 472.682,-26.6529"/>
<polygon fill="midnightblue" stroke="midnightblue" points="474.787,-23.8416 464.979,-19.8339 470.147,-29.083 474.787,-23.8416"/>
</g>
<!-- Node33 -->
<g id="node33" class="node"><title>Node33</title>
<polygon fill="white" stroke="#bfbfbf" points="491,-0.5 491,-19.5 543,-19.5 543,-0.5 491,-0.5"/>
<text text-anchor="middle" x="517" y="-7.5" font-family="Helvetica,sans-Serif" font-size="10.00">memory</text>
</g>
<!-- Node32&#45;&gt;Node33 -->
<g id="edge41" class="edge"><title>Node32&#45;&gt;Node33</title>
<path fill="none" stroke="midnightblue" d="M516.165,-56.083C516.296,-49.0059 516.484,-38.8611 516.648,-29.9865"/>
<polygon fill="midnightblue" stroke="midnightblue" points="520.152,-29.8142 516.838,-19.7511 513.153,-29.6845 520.152,-29.8142"/>
</g>
<!-- Node34 -->
<g id="node34" class="node"><title>Node34</title>
<polygon fill="white" stroke="#bfbfbf" points="685.5,-0.5 685.5,-19.5 758.5,-19.5 758.5,-0.5 685.5,-0.5"/>
<text text-anchor="middle" x="722" y="-7.5" font-family="Helvetica,sans-Serif" font-size="10.00">initializer_list</text>
</g>
<!-- Node32&#45;&gt;Node34 -->
<g id="edge42" class="edge"><title>Node32&#45;&gt;Node34</title>
<path fill="none" stroke="midnightblue" d="M548.188,-56.5625C583.506,-47.3044 640.353,-32.4026 679.358,-22.1781"/>
<polygon fill="midnightblue" stroke="midnightblue" points="680.573,-25.4778 689.359,-19.5565 678.798,-18.7066 680.573,-25.4778"/>
</g>
<!-- Node35&#45;&gt;Node2 -->
<g id="edge44" class="edge"><title>Node35&#45;&gt;Node2</title>
<path fill="none" stroke="midnightblue" d="M1479.98,-401.456C1347.54,-401.487 981,-392.41 981,-291 981,-291 981,-291 981,-233 981,-200.948 981,-163.643 981,-141.749"/>
<polygon fill="midnightblue" stroke="midnightblue" points="984.5,-141.558 981,-131.558 977.5,-141.558 984.5,-141.558"/>
</g>
<!-- Node35&#45;&gt;Node15 -->
<g id="edge59" class="edge"><title>Node35&#45;&gt;Node15</title>
<path fill="none" stroke="midnightblue" d="M1574.12,-393.125C1645.25,-381.148 1772.24,-359.379 1776,-356 1798.38,-335.87 1795,-321.098 1795,-291 1795,-291 1795,-291 1795,-177 1795,-144.943 1794.14,-107.639 1793.55,-85.747"/>
<polygon fill="midnightblue" stroke="midnightblue" points="1797.04,-85.4544 1793.26,-75.5568 1790.04,-85.6513 1797.04,-85.4544"/>
</g>
<!-- Node35&#45;&gt;Node21 -->
<g id="edge58" class="edge"><title>Node35&#45;&gt;Node21</title>
<path fill="none" stroke="midnightblue" d="M1540.19,-392.422C1589.95,-359.171 1766.54,-232.808 1828,-76 1831.24,-67.7241 1833.63,-62.879 1828,-56 1804.08,-26.772 1691.44,-16.0996 1635.99,-12.5707"/>
<polygon fill="midnightblue" stroke="midnightblue" points="1635.9,-9.05898 1625.71,-11.9568 1635.48,-16.0465 1635.9,-9.05898"/>
</g>
<!-- Node36 -->
<g id="node36" class="node"><title>Node36</title>
<g id="a_node36"><a xlink:href="jsonobject_8h.html" target="_top" xlink:title="support/jsonobject.h">
<polygon fill="white" stroke="black" points="1311,-336.5 1311,-355.5 1415,-355.5 1415,-336.5 1311,-336.5"/>
<text text-anchor="middle" x="1363" y="-343.5" font-family="Helvetica,sans-Serif" font-size="10.00">support/jsonobject.h</text>
</a>
</g>
</g>
<!-- Node35&#45;&gt;Node36 -->
<g id="edge45" class="edge"><title>Node35&#45;&gt;Node36</title>
<path fill="none" stroke="midnightblue" d="M1501.01,-392.444C1473.3,-383.32 1429.25,-368.813 1398.38,-358.651"/>
<polygon fill="midnightblue" stroke="midnightblue" points="1399.46,-355.32 1388.86,-355.516 1397.27,-361.968 1399.46,-355.32"/>
</g>
<!-- Node40 -->
<g id="node40" class="node"><title>Node40</title>
<polygon fill="white" stroke="#bfbfbf" points="1719.5,-336.5 1719.5,-355.5 1766.5,-355.5 1766.5,-336.5 1719.5,-336.5"/>
<text text-anchor="middle" x="1743" y="-343.5" font-family="Helvetica,sans-Serif" font-size="10.00">errno.h</text>
</g>
<!-- Node35&#45;&gt;Node40 -->
<g id="edge57" class="edge"><title>Node35&#45;&gt;Node40</title>
<path fill="none" stroke="midnightblue" d="M1561.23,-392.444C1601.82,-382.294 1669.07,-365.483 1709.39,-355.402"/>
<polygon fill="midnightblue" stroke="midnightblue" points="1710.42,-358.752 1719.28,-352.931 1708.73,-351.961 1710.42,-358.752"/>
</g>
<!-- Node37 -->
<g id="node37" class="node"><title>Node37</title>
<g id="a_node37"><a xlink:href="jsonvalue_8h.html" target="_top" xlink:title="support/jsonvalue.h">
<polygon fill="white" stroke="black" points="1064.5,-280.5 1064.5,-299.5 1165.5,-299.5 1165.5,-280.5 1064.5,-280.5"/>
<text text-anchor="middle" x="1115" y="-287.5" font-family="Helvetica,sans-Serif" font-size="10.00">support/jsonvalue.h</text>
</a>
</g>
</g>
<!-- Node36&#45;&gt;Node37 -->
<g id="edge46" class="edge"><title>Node36&#45;&gt;Node37</title>
<path fill="none" stroke="midnightblue" d="M1323.7,-336.444C1280.44,-327.023 1210.83,-311.866 1164.03,-301.675"/>
<polygon fill="midnightblue" stroke="midnightblue" points="1164.63,-298.224 1154.11,-299.516 1163.14,-305.064 1164.63,-298.224"/>
</g>
<!-- Node37&#45;&gt;Node2 -->
<g id="edge47" class="edge"><title>Node37&#45;&gt;Node2</title>
<path fill="none" stroke="midnightblue" d="M1113.87,-280.375C1111.83,-267.298 1106.63,-242.066 1095,-224 1070.92,-186.614 1029.28,-154.761 1003.55,-137.306"/>
<polygon fill="midnightblue" stroke="midnightblue" points="1005.43,-134.355 995.16,-131.746 1001.56,-140.189 1005.43,-134.355"/>
</g>
<!-- Node38 -->
<g id="node38" class="node"><title>Node38</title>
<g id="a_node38"><a xlink:href="vector_8h.html" target="_top" xlink:title="math/vector.h">
<polygon fill="white" stroke="black" points="1009.5,-224.5 1009.5,-243.5 1086.5,-243.5 1086.5,-224.5 1009.5,-224.5"/>
<text text-anchor="middle" x="1048" y="-231.5" font-family="Helvetica,sans-Serif" font-size="10.00">math/vector.h</text>
</a>
</g>
</g>
<!-- Node37&#45;&gt;Node38 -->
<g id="edge48" class="edge"><title>Node37&#45;&gt;Node38</title>
<path fill="none" stroke="midnightblue" d="M1104.24,-280.324C1094.23,-272.263 1079.11,-260.077 1067.07,-250.369"/>
<polygon fill="midnightblue" stroke="midnightblue" points="1068.94,-247.384 1058.96,-243.834 1064.55,-252.834 1068.94,-247.384"/>
</g>
<!-- Node38&#45;&gt;Node2 -->
<g id="edge49" class="edge"><title>Node38&#45;&gt;Node2</title>
<path fill="none" stroke="midnightblue" d="M1042.74,-224.368C1031.73,-206.296 1006.08,-164.176 991.542,-140.307"/>
<polygon fill="midnightblue" stroke="midnightblue" points="994.424,-138.311 986.233,-131.591 988.446,-141.953 994.424,-138.311"/>
</g>
<!-- Node38&#45;&gt;Node12 -->
<g id="edge55" class="edge"><title>Node38&#45;&gt;Node12</title>
<path fill="none" stroke="midnightblue" d="M1071.34,-224.345C1129.73,-202.93 1287.17,-146.692 1422,-112 1492.92,-93.7516 1577.69,-79.1497 1622.88,-71.928"/>
<polygon fill="midnightblue" stroke="midnightblue" points="1623.63,-75.3534 1632.96,-70.3354 1622.53,-68.4392 1623.63,-75.3534"/>
</g>
<!-- Node38&#45;&gt;Node14 -->
<g id="edge53" class="edge"><title>Node38&#45;&gt;Node14</title>
<path fill="none" stroke="midnightblue" d="M1082.94,-224.451C1177.82,-201.223 1448.46,-134.898 1685.06,-76.2276"/>
<polygon fill="midnightblue" stroke="midnightblue" points="1686.01,-79.5968 1694.88,-73.7924 1684.33,-72.8027 1686.01,-79.5968"/>
</g>
<!-- Node38&#45;&gt;Node17 -->
<g id="edge54" class="edge"><title>Node38&#45;&gt;Node17</title>
<path fill="none" stroke="midnightblue" d="M1009.38,-227.417C909.752,-212.903 635.976,-172.301 409,-132 285.545,-110.08 252.045,-105.164 126.231,-76.1797"/>
<polygon fill="midnightblue" stroke="midnightblue" points="126.737,-72.7047 116.206,-73.8646 125.162,-79.5252 126.737,-72.7047"/>
</g>
<!-- Node38&#45;&gt;Node22 -->
<g id="edge56" class="edge"><title>Node38&#45;&gt;Node22</title>
<path fill="none" stroke="midnightblue" d="M1009.42,-233.436C841.532,-234.414 177.653,-228.484 57,-76 51.4844,-69.0293 51.1581,-62.6996 57,-56 93.8138,-13.7819 246.198,-30.2249 318.633,-19.4822"/>
<polygon fill="midnightblue" stroke="midnightblue" points="319.484,-22.8859 328.717,-17.6897 318.259,-15.9939 319.484,-22.8859"/>
</g>
<!-- Node39 -->
<g id="node39" class="node"><title>Node39</title>
<g id="a_node39"><a xlink:href="math_2constants_8h.html" target="_top" xlink:title="constants.h">
<polygon fill="white" stroke="black" points="885,-168.5 885,-187.5 953,-187.5 953,-168.5 885,-168.5"/>
<text text-anchor="middle" x="919" y="-175.5" font-family="Helvetica,sans-Serif" font-size="10.00">constants.h</text>
</a>
</g>
</g>
<!-- Node38&#45;&gt;Node39 -->
<g id="edge50" class="edge"><title>Node38&#45;&gt;Node39</title>
<path fill="none" stroke="midnightblue" d="M1027.56,-224.444C1006.33,-215.557 972.901,-201.563 948.745,-191.451"/>
<polygon fill="midnightblue" stroke="midnightblue" points="949.921,-188.149 939.345,-187.516 947.218,-194.606 949.921,-188.149"/>
</g>
<!-- Node39&#45;&gt;Node2 -->
<g id="edge51" class="edge"><title>Node39&#45;&gt;Node2</title>
<path fill="none" stroke="midnightblue" d="M928.961,-168.324C938.127,-160.341 951.937,-148.313 963.028,-138.653"/>
<polygon fill="midnightblue" stroke="midnightblue" points="965.615,-141.041 970.857,-131.834 961.018,-135.762 965.615,-141.041"/>
</g>
<!-- Node39&#45;&gt;Node5 -->
<g id="edge52" class="edge"><title>Node39&#45;&gt;Node5</title>
<path fill="none" stroke="midnightblue" d="M884.829,-173.471C780.644,-162.45 458.02,-126.37 194,-76 192.722,-75.7561 191.421,-75.4965 190.109,-75.225"/>
<polygon fill="midnightblue" stroke="midnightblue" points="190.537,-71.7345 180.015,-72.9759 189.014,-78.567 190.537,-71.7345"/>
</g>
</g>
</svg>
        <g id="navigator" transform="translate(0 0)" fill="#404254">
                <rect fill="#f2f5e9" fill-opacity="0.5" stroke="#606060" stroke-width=".5" x="0" y="0" width="60" height="60"/>
                <use id="zoomplus" xlink:href="#zoomPlus" x="17" y="9" onmousedown="handleZoom(evt,'in')"/>
                <use id="zoomminus" xlink:href="#zoomMin" x="42" y="9" onmousedown="handleZoom(evt,'out')"/>
                <use id="reset" xlink:href="#resetDef" x="30" y="36" onmousedown="handleReset()"/>
                <g id="arrowUp" xlink:href="#dirArrow" transform="translate(30 24)" onmousedown="handlePan(0,-1)">
                  <use xlink:href="#rim" fill="#404040">
                        <set attributeName="fill" to="#808080" begin="arrowUp.mouseover" end="arrowUp.mouseout"/>
                  </use>
                  <path fill="none" stroke="white" stroke-width="1.5" d="M0,-3.0v7 M-2.5,-0.5L0,-3.0L2.5,-0.5"/>
                </g>
                <g id="arrowRight" xlink:href="#dirArrow" transform="rotate(90) translate(36 -43)" onmousedown="handlePan(1,0)">
                  <use xlink:href="#rim" fill="#404040">
                        <set attributeName="fill" to="#808080" begin="arrowRight.mouseover" end="arrowRight.mouseout"/>
                  </use>
                  <path fill="none" stroke="white" stroke-width="1.5" d="M0,-3.0v7 M-2.5,-0.5L0,-3.0L2.5,-0.5"/>
                </g>
                <g id="arrowDown" xlink:href="#dirArrow" transform="rotate(180) translate(-30 -48)" onmousedown="handlePan(0,1)">
                  <use xlink:href="#rim" fill="#404040">
                        <set attributeName="fill" to="#808080" begin="arrowDown.mouseover" end="arrowDown.mouseout"/>
                  </use>
                  <path fill="none" stroke="white" stroke-width="1.5" d="M0,-3.0v7 M-2.5,-0.5L0,-3.0L2.5,-0.5"/>
                </g>
                <g id="arrowLeft" xlink:href="#dirArrow" transform="rotate(270) translate(-36 17)" onmousedown="handlePan(-1,0)">
                  <use xlink:href="#rim" fill="#404040">
                        <set attributeName="fill" to="#808080" begin="arrowLeft.mouseover" end="arrowLeft.mouseout"/>
                  </use>
                  <path fill="none" stroke="white" stroke-width="1.5" d="M0,-3.0v7 M-2.5,-0.5L0,-3.0L2.5,-0.5"/>
                </g>
        </g>
        <svg viewBox="0 0 15 15" width="100%" height="30px" preserveAspectRatio="xMaxYMin meet">
         <g id="arrow_out" transform="scale(0.3 0.3)">
          <a xlink:href="devicecpu_8h__incl_org.svg" target="_base">
           <rect id="button" ry="5" rx="5" y="6" x="6" height="38" width="38"
                fill="#f2f5e9" fill-opacity="0.5" stroke="#606060" stroke-width="1.0"/>
           <path id="arrow"
             d="M 11.500037,31.436501 C 11.940474,20.09759 22.043105,11.32322 32.158766,21.979434 L 37.068811,17.246167 C 37.068811,17.246167 37.088388,32 37.088388,32 L 22.160133,31.978069 C 22.160133,31.978069 26.997745,27.140456 26.997745,27.140456 C 18.528582,18.264221 13.291696,25.230495 11.500037,31.436501 z"
             style="fill:#404040;"/>
          </a>
         </g>
        </svg>
</svg>
