<?xml version="1.0" encoding="UTF-8" standalone="no"?>
<!DOCTYPE svg PUBLIC "-//W3C//DTD SVG 1.1//EN"
 "http://www.w3.org/Graphics/SVG/1.1/DTD/svg11.dtd">
<!-- Generated by graphviz version 2.38.0 (20140413.2041)
 -->
<!-- Title: devicedisk.h Pages: 1 -->
<svg width="385pt" height="84pt"
 viewBox="0.00 0.00 385.00 84.00" xmlns="http://www.w3.org/2000/svg" xmlns:xlink="http://www.w3.org/1999/xlink">
<g id="graph0" class="graph" transform="scale(1 1) rotate(0) translate(4 80)">
<title>devicedisk.h</title>
<polygon fill="white" stroke="none" points="-4,4 -4,-80 381,-80 381,4 -4,4"/>
<!-- Node1 -->
<g id="node1" class="node"><title>Node1</title>
<polygon fill="#bfbfbf" stroke="black" points="145.5,-56.5 145.5,-75.5 216.5,-75.5 216.5,-56.5 145.5,-56.5"/>
<text text-anchor="middle" x="181" y="-63.5" font-family="Helvetica,sans-Serif" font-size="10.00">devicedisk.h</text>
</g>
<!-- Node2 -->
<g id="node2" class="node"><title>Node2</title>
<g id="a_node2"><a xlink:href="devicedisk_8cpp.html" target="_top" xlink:title="devicedisk.cpp">
<polygon fill="white" stroke="black" points="0,-0.5 0,-19.5 82,-19.5 82,-0.5 0,-0.5"/>
<text text-anchor="middle" x="41" y="-7.5" font-family="Helvetica,sans-Serif" font-size="10.00">devicedisk.cpp</text>
</a>
</g>
</g>
<!-- Node1&#45;&gt;Node2 -->
<g id="edge1" class="edge"><title>Node1&#45;&gt;Node2</title>
<path fill="none" stroke="midnightblue" d="M149.298,-52.772C123,-42.6287 86.2845,-28.4669 63.0796,-19.5164"/>
<polygon fill="midnightblue" stroke="midnightblue" points="148.227,-56.1103 158.817,-56.4435 150.746,-49.5792 148.227,-56.1103"/>
</g>
<!-- Node3 -->
<g id="node3" class="node"><title>Node3</title>
<g id="a_node3"><a xlink:href="jsonlib_8cpp.html" target="_top" xlink:title="JSON support source file. ">
<polygon fill="white" stroke="black" points="100.5,-0.5 100.5,-19.5 163.5,-19.5 163.5,-0.5 100.5,-0.5"/>
<text text-anchor="middle" x="132" y="-7.5" font-family="Helvetica,sans-Serif" font-size="10.00">jsonlib.cpp</text>
</a>
</g>
</g>
<!-- Node1&#45;&gt;Node3 -->
<g id="edge2" class="edge"><title>Node1&#45;&gt;Node3</title>
<path fill="none" stroke="midnightblue" d="M165.966,-48.4314C157.378,-38.9673 146.957,-27.4827 139.941,-19.7511"/>
<polygon fill="midnightblue" stroke="midnightblue" points="163.597,-51.0293 172.909,-56.083 168.781,-46.3254 163.597,-51.0293"/>
</g>
<!-- Node4 -->
<g id="node4" class="node"><title>Node4</title>
<g id="a_node4"><a xlink:href="agent__cpu-2-0_8cpp.html" target="_top" xlink:title="agent_cpu&#45;2&#45;0.cpp">
<polygon fill="white" stroke="black" points="181.5,-0.5 181.5,-19.5 278.5,-19.5 278.5,-0.5 181.5,-0.5"/>
<text text-anchor="middle" x="230" y="-7.5" font-family="Helvetica,sans-Serif" font-size="10.00">agent_cpu&#45;2&#45;0.cpp</text>
</a>
</g>
</g>
<!-- Node1&#45;&gt;Node4 -->
<g id="edge3" class="edge"><title>Node1&#45;&gt;Node4</title>
<path fill="none" stroke="midnightblue" d="M196.034,-48.4314C204.622,-38.9673 215.043,-27.4827 222.059,-19.7511"/>
<polygon fill="midnightblue" stroke="midnightblue" points="193.219,-46.3254 189.091,-56.083 198.403,-51.0293 193.219,-46.3254"/>
</g>
<!-- Node5 -->
<g id="node5" class="node"><title>Node5</title>
<g id="a_node5"><a xlink:href="agent__cpu_8cpp.html" target="_top" xlink:title="agent_cpu.cpp">
<polygon fill="white" stroke="black" points="297,-0.5 297,-19.5 377,-19.5 377,-0.5 297,-0.5"/>
<text text-anchor="middle" x="337" y="-7.5" font-family="Helvetica,sans-Serif" font-size="10.00">agent_cpu.cpp</text>
</a>
</g>
</g>
<!-- Node1&#45;&gt;Node5 -->
<g id="edge4" class="edge"><title>Node1&#45;&gt;Node5</title>
<path fill="none" stroke="midnightblue" d="M215.17,-53.172C244.544,-43.0039 286.198,-28.5852 312.397,-19.5164"/>
<polygon fill="midnightblue" stroke="midnightblue" points="214.024,-49.8649 205.719,-56.4435 216.313,-56.4798 214.024,-49.8649"/>
</g>
</g>
</svg>
