<?xml version="1.0" encoding="UTF-8" standalone="no"?>
<!DOCTYPE svg PUBLIC "-//W3C//DTD SVG 1.1//EN"
 "http://www.w3.org/Graphics/SVG/1.1/DTD/svg11.dtd">
<!-- Generated by graphviz version 2.38.0 (20140413.2041)
 -->
<!-- Title: devstruc_size.cpp Pages: 1 -->
<svg width="1857pt" height="644pt"
 viewBox="0.00 0.00 1857.00 644.00" xmlns="http://www.w3.org/2000/svg" xmlns:xlink="http://www.w3.org/1999/xlink">
<g id="graph0" class="graph" transform="scale(1 1) rotate(0) translate(4 640)">
<title>devstruc_size.cpp</title>
<polygon fill="white" stroke="none" points="-4,4 -4,-640 1853,-640 1853,4 -4,4"/>
<!-- Node1 -->
<g id="node1" class="node"><title>Node1</title>
<polygon fill="#bfbfbf" stroke="black" points="663,-616.5 663,-635.5 759,-635.5 759,-616.5 663,-616.5"/>
<text text-anchor="middle" x="711" y="-623.5" font-family="Helvetica,sans-Serif" font-size="10.00">devstruc_size.cpp</text>
</g>
<!-- Node2 -->
<g id="node2" class="node"><title>Node2</title>
<g id="a_node2"><a xlink:href="config_cosmos_8h.html" target="_top" xlink:title="Headers and definitions common to all COSMOS. ">
<polygon fill="white" stroke="black" points="686.5,-112.5 686.5,-131.5 809.5,-131.5 809.5,-112.5 686.5,-112.5"/>
<text text-anchor="middle" x="748" y="-119.5" font-family="Helvetica,sans-Serif" font-size="10.00">support/configCosmos.h</text>
</a>
</g>
</g>
<!-- Node1&#45;&gt;Node2 -->
<g id="edge1" class="edge"><title>Node1&#45;&gt;Node2</title>
<path fill="none" stroke="midnightblue" d="M731.202,-616.492C763.705,-601.293 824,-566.197 824,-515 824,-515 824,-515 824,-233 824,-193.276 790.036,-157.504 767.518,-138.154"/>
<polygon fill="midnightblue" stroke="midnightblue" points="769.482,-135.236 759.543,-131.567 765.024,-140.634 769.482,-135.236"/>
</g>
<!-- Node35 -->
<g id="node35" class="node"><title>Node35</title>
<g id="a_node35"><a xlink:href="jsondef_8h.html" target="_top" xlink:title="support/jsondef.h">
<polygon fill="white" stroke="black" points="552,-560.5 552,-579.5 644,-579.5 644,-560.5 552,-560.5"/>
<text text-anchor="middle" x="598" y="-567.5" font-family="Helvetica,sans-Serif" font-size="10.00">support/jsondef.h</text>
</a>
</g>
</g>
<!-- Node1&#45;&gt;Node35 -->
<g id="edge43" class="edge"><title>Node1&#45;&gt;Node35</title>
<path fill="none" stroke="midnightblue" d="M693.095,-616.444C674.746,-607.675 645.995,-593.935 624.906,-583.858"/>
<polygon fill="midnightblue" stroke="midnightblue" points="626.353,-580.67 615.821,-579.516 623.335,-586.986 626.353,-580.67"/>
</g>
<!-- Node3 -->
<g id="node3" class="node"><title>Node3</title>
<polygon fill="white" stroke="#bfbfbf" points="1237.5,-56.5 1237.5,-75.5 1282.5,-75.5 1282.5,-56.5 1237.5,-56.5"/>
<text text-anchor="middle" x="1260" y="-63.5" font-family="Helvetica,sans-Serif" font-size="10.00">climits</text>
</g>
<!-- Node2&#45;&gt;Node3 -->
<g id="edge2" class="edge"><title>Node2&#45;&gt;Node3</title>
<path fill="none" stroke="midnightblue" d="M809.644,-118.962C899.684,-115.166 1072.44,-104.78 1227.26,-76.0091"/>
<polygon fill="midnightblue" stroke="midnightblue" points="1228.26,-79.3832 1237.43,-74.0873 1226.96,-72.5049 1228.26,-79.3832"/>
</g>
<!-- Node4 -->
<g id="node4" class="node"><title>Node4</title>
<polygon fill="white" stroke="#bfbfbf" points="1300.5,-56.5 1300.5,-75.5 1347.5,-75.5 1347.5,-56.5 1300.5,-56.5"/>
<text text-anchor="middle" x="1324" y="-63.5" font-family="Helvetica,sans-Serif" font-size="10.00">csignal</text>
</g>
<!-- Node2&#45;&gt;Node4 -->
<g id="edge3" class="edge"><title>Node2&#45;&gt;Node4</title>
<path fill="none" stroke="midnightblue" d="M809.685,-119.737C909.249,-116.858 1111.52,-107.532 1290.5,-75.9614"/>
<polygon fill="midnightblue" stroke="midnightblue" points="1291.13,-79.4047 1300.35,-74.1962 1289.89,-72.5143 1291.13,-79.4047"/>
</g>
<!-- Node5 -->
<g id="node5" class="node"><title>Node5</title>
<polygon fill="white" stroke="#bfbfbf" points="240,-56.5 240,-75.5 286,-75.5 286,-56.5 240,-56.5"/>
<text text-anchor="middle" x="263" y="-63.5" font-family="Helvetica,sans-Serif" font-size="10.00">cstdint</text>
</g>
<!-- Node2&#45;&gt;Node5 -->
<g id="edge4" class="edge"><title>Node2&#45;&gt;Node5</title>
<path fill="none" stroke="midnightblue" d="M686.406,-117.521C599.708,-112.012 436.958,-99.4195 300,-76 298.754,-75.7869 297.487,-75.5554 296.21,-75.3095"/>
<polygon fill="midnightblue" stroke="midnightblue" points="296.897,-71.8772 286.386,-73.2064 295.432,-78.7222 296.897,-71.8772"/>
</g>
<!-- Node6 -->
<g id="node6" class="node"><title>Node6</title>
<polygon fill="white" stroke="#bfbfbf" points="342,-56.5 342,-75.5 398,-75.5 398,-56.5 342,-56.5"/>
<text text-anchor="middle" x="370" y="-63.5" font-family="Helvetica,sans-Serif" font-size="10.00">cinttypes</text>
</g>
<!-- Node2&#45;&gt;Node6 -->
<g id="edge5" class="edge"><title>Node2&#45;&gt;Node6</title>
<path fill="none" stroke="midnightblue" d="M686.393,-114.884C619.999,-107.841 511.068,-94.9785 408.153,-76.0448"/>
<polygon fill="midnightblue" stroke="midnightblue" points="408.686,-72.5839 398.214,-74.1935 407.404,-79.4655 408.686,-72.5839"/>
</g>
<!-- Node7 -->
<g id="node7" class="node"><title>Node7</title>
<polygon fill="white" stroke="#bfbfbf" points="416.5,-56.5 416.5,-75.5 459.5,-75.5 459.5,-56.5 416.5,-56.5"/>
<text text-anchor="middle" x="438" y="-63.5" font-family="Helvetica,sans-Serif" font-size="10.00">cstdio</text>
</g>
<!-- Node2&#45;&gt;Node7 -->
<g id="edge6" class="edge"><title>Node2&#45;&gt;Node7</title>
<path fill="none" stroke="midnightblue" d="M686.374,-113.478C631.679,-106.264 549.466,-94.1053 469.751,-76.1664"/>
<polygon fill="midnightblue" stroke="midnightblue" points="470.068,-72.6486 459.539,-73.8329 468.508,-79.4727 470.068,-72.6486"/>
</g>
<!-- Node8 -->
<g id="node8" class="node"><title>Node8</title>
<polygon fill="white" stroke="#bfbfbf" points="477.5,-56.5 477.5,-75.5 526.5,-75.5 526.5,-56.5 477.5,-56.5"/>
<text text-anchor="middle" x="502" y="-63.5" font-family="Helvetica,sans-Serif" font-size="10.00">cstddef</text>
</g>
<!-- Node2&#45;&gt;Node8 -->
<g id="edge7" class="edge"><title>Node2&#45;&gt;Node8</title>
<path fill="none" stroke="midnightblue" d="M703.774,-112.435C662.77,-104.32 599.84,-91.4272 536.921,-76.3713"/>
<polygon fill="midnightblue" stroke="midnightblue" points="537.368,-72.8788 526.826,-73.9367 535.727,-79.6837 537.368,-72.8788"/>
</g>
<!-- Node9 -->
<g id="node9" class="node"><title>Node9</title>
<polygon fill="white" stroke="#bfbfbf" points="544.5,-56.5 544.5,-75.5 589.5,-75.5 589.5,-56.5 544.5,-56.5"/>
<text text-anchor="middle" x="567" y="-63.5" font-family="Helvetica,sans-Serif" font-size="10.00">cstdlib</text>
</g>
<!-- Node2&#45;&gt;Node9 -->
<g id="edge8" class="edge"><title>Node2&#45;&gt;Node9</title>
<path fill="none" stroke="midnightblue" d="M719.32,-112.444C686.708,-102.714 633.582,-86.8642 599.473,-76.688"/>
<polygon fill="midnightblue" stroke="midnightblue" points="600.125,-73.2301 589.541,-73.7251 598.123,-79.938 600.125,-73.2301"/>
</g>
<!-- Node10 -->
<g id="node10" class="node"><title>Node10</title>
<polygon fill="white" stroke="#bfbfbf" points="608,-56.5 608,-75.5 652,-75.5 652,-56.5 608,-56.5"/>
<text text-anchor="middle" x="630" y="-63.5" font-family="Helvetica,sans-Serif" font-size="10.00">cerrno</text>
</g>
<!-- Node2&#45;&gt;Node10 -->
<g id="edge9" class="edge"><title>Node2&#45;&gt;Node10</title>
<path fill="none" stroke="midnightblue" d="M729.303,-112.444C710.056,-103.636 679.848,-89.8116 657.8,-79.722"/>
<polygon fill="midnightblue" stroke="midnightblue" points="659.16,-76.4951 648.61,-75.5164 656.247,-82.8603 659.16,-76.4951"/>
</g>
<!-- Node11 -->
<g id="node11" class="node"><title>Node11</title>
<polygon fill="white" stroke="#bfbfbf" points="670,-56.5 670,-75.5 716,-75.5 716,-56.5 670,-56.5"/>
<text text-anchor="middle" x="693" y="-63.5" font-family="Helvetica,sans-Serif" font-size="10.00">cstring</text>
</g>
<!-- Node2&#45;&gt;Node11 -->
<g id="edge10" class="edge"><title>Node2&#45;&gt;Node11</title>
<path fill="none" stroke="midnightblue" d="M738.918,-112.083C730.829,-104.141 718.805,-92.3354 709.09,-82.7973"/>
<polygon fill="midnightblue" stroke="midnightblue" points="711.501,-80.2595 701.913,-75.7511 706.597,-85.2545 711.501,-80.2595"/>
</g>
<!-- Node12 -->
<g id="node12" class="node"><title>Node12</title>
<polygon fill="white" stroke="#bfbfbf" points="0,-56.5 0,-75.5 44,-75.5 44,-56.5 0,-56.5"/>
<text text-anchor="middle" x="22" y="-63.5" font-family="Helvetica,sans-Serif" font-size="10.00">cmath</text>
</g>
<!-- Node2&#45;&gt;Node12 -->
<g id="edge11" class="edge"><title>Node2&#45;&gt;Node12</title>
<path fill="none" stroke="midnightblue" d="M686.301,-118.039C569.781,-112.166 309.437,-97.706 91,-76 78.9429,-74.8019 65.7422,-73.1611 54.1447,-71.6085"/>
<polygon fill="midnightblue" stroke="midnightblue" points="54.4058,-68.1116 44.0234,-70.2225 53.4561,-75.0469 54.4058,-68.1116"/>
</g>
<!-- Node13 -->
<g id="node13" class="node"><title>Node13</title>
<polygon fill="white" stroke="#bfbfbf" points="734.5,-56.5 734.5,-75.5 779.5,-75.5 779.5,-56.5 734.5,-56.5"/>
<text text-anchor="middle" x="757" y="-63.5" font-family="Helvetica,sans-Serif" font-size="10.00">iosfwd</text>
</g>
<!-- Node2&#45;&gt;Node13 -->
<g id="edge12" class="edge"><title>Node2&#45;&gt;Node13</title>
<path fill="none" stroke="midnightblue" d="M749.486,-112.083C750.679,-104.927 752.394,-94.6353 753.885,-85.6911"/>
<polygon fill="midnightblue" stroke="midnightblue" points="757.35,-86.1904 755.541,-75.7511 750.445,-85.0396 757.35,-86.1904"/>
</g>
<!-- Node14 -->
<g id="node14" class="node"><title>Node14</title>
<polygon fill="white" stroke="#bfbfbf" points="100,-56.5 100,-75.5 154,-75.5 154,-56.5 100,-56.5"/>
<text text-anchor="middle" x="127" y="-63.5" font-family="Helvetica,sans-Serif" font-size="10.00">iostream</text>
</g>
<!-- Node2&#45;&gt;Node14 -->
<g id="edge13" class="edge"><title>Node2&#45;&gt;Node14</title>
<path fill="none" stroke="midnightblue" d="M686.112,-119.655C580.696,-116.616 359.529,-107.002 163.91,-75.8695"/>
<polygon fill="midnightblue" stroke="midnightblue" points="164.455,-72.4123 154.025,-74.2744 163.34,-79.3229 164.455,-72.4123"/>
</g>
<!-- Node15 -->
<g id="node15" class="node"><title>Node15</title>
<polygon fill="white" stroke="#bfbfbf" points="798,-56.5 798,-75.5 850,-75.5 850,-56.5 798,-56.5"/>
<text text-anchor="middle" x="824" y="-63.5" font-family="Helvetica,sans-Serif" font-size="10.00">sstream</text>
</g>
<!-- Node2&#45;&gt;Node15 -->
<g id="edge14" class="edge"><title>Node2&#45;&gt;Node15</title>
<path fill="none" stroke="midnightblue" d="M760.211,-112.324C771.776,-104.107 789.375,-91.6017 803.161,-81.8069"/>
<polygon fill="midnightblue" stroke="midnightblue" points="805.443,-84.4791 811.567,-75.8339 801.388,-78.7729 805.443,-84.4791"/>
</g>
<!-- Node16 -->
<g id="node16" class="node"><title>Node16</title>
<polygon fill="white" stroke="#bfbfbf" points="868.5,-56.5 868.5,-75.5 909.5,-75.5 909.5,-56.5 868.5,-56.5"/>
<text text-anchor="middle" x="889" y="-63.5" font-family="Helvetica,sans-Serif" font-size="10.00">regex</text>
</g>
<!-- Node2&#45;&gt;Node16 -->
<g id="edge15" class="edge"><title>Node2&#45;&gt;Node16</title>
<path fill="none" stroke="midnightblue" d="M770.342,-112.444C794.166,-103.319 832.045,-88.8125 858.58,-78.6501"/>
<polygon fill="midnightblue" stroke="midnightblue" points="860.055,-81.8333 868.142,-74.9883 857.551,-75.2963 860.055,-81.8333"/>
</g>
<!-- Node17 -->
<g id="node17" class="node"><title>Node17</title>
<polygon fill="white" stroke="#bfbfbf" points="172,-56.5 172,-75.5 222,-75.5 222,-56.5 172,-56.5"/>
<text text-anchor="middle" x="197" y="-63.5" font-family="Helvetica,sans-Serif" font-size="10.00">iomanip</text>
</g>
<!-- Node2&#45;&gt;Node17 -->
<g id="edge16" class="edge"><title>Node2&#45;&gt;Node17</title>
<path fill="none" stroke="midnightblue" d="M686.277,-119.056C590.783,-115.296 401.445,-104.845 232.232,-75.922"/>
<polygon fill="midnightblue" stroke="midnightblue" points="232.595,-72.4328 222.144,-74.1714 231.398,-79.3298 232.595,-72.4328"/>
</g>
<!-- Node18 -->
<g id="node18" class="node"><title>Node18</title>
<polygon fill="white" stroke="#bfbfbf" points="927.5,-56.5 927.5,-75.5 978.5,-75.5 978.5,-56.5 927.5,-56.5"/>
<text text-anchor="middle" x="953" y="-63.5" font-family="Helvetica,sans-Serif" font-size="10.00">unistd.h</text>
</g>
<!-- Node2&#45;&gt;Node18 -->
<g id="edge17" class="edge"><title>Node2&#45;&gt;Node18</title>
<path fill="none" stroke="midnightblue" d="M780.467,-112.471C812.851,-103.96 864.29,-90.4335 917.441,-76.409"/>
<polygon fill="midnightblue" stroke="midnightblue" points="918.606,-79.7216 927.381,-73.7857 916.819,-72.9534 918.606,-79.7216"/>
</g>
<!-- Node19 -->
<g id="node19" class="node"><title>Node19</title>
<polygon fill="white" stroke="#bfbfbf" points="997,-56.5 997,-75.5 1041,-75.5 1041,-56.5 997,-56.5"/>
<text text-anchor="middle" x="1019" y="-63.5" font-family="Helvetica,sans-Serif" font-size="10.00">fcntl.h</text>
</g>
<!-- Node2&#45;&gt;Node19 -->
<g id="edge18" class="edge"><title>Node2&#45;&gt;Node19</title>
<path fill="none" stroke="midnightblue" d="M801.695,-112.469C848.348,-104.71 917.9,-92.3111 986.977,-76.0674"/>
<polygon fill="midnightblue" stroke="midnightblue" points="987.799,-79.4693 996.718,-73.7499 986.179,-72.6594 987.799,-79.4693"/>
</g>
<!-- Node20 -->
<g id="node20" class="node"><title>Node20</title>
<polygon fill="white" stroke="#bfbfbf" points="1059,-56.5 1059,-75.5 1099,-75.5 1099,-56.5 1059,-56.5"/>
<text text-anchor="middle" x="1079" y="-63.5" font-family="Helvetica,sans-Serif" font-size="10.00">limits</text>
</g>
<!-- Node2&#45;&gt;Node20 -->
<g id="edge19" class="edge"><title>Node2&#45;&gt;Node20</title>
<path fill="none" stroke="midnightblue" d="M809.536,-114.626C868.709,-107.867 960.752,-95.7057 1048.93,-75.9477"/>
<polygon fill="midnightblue" stroke="midnightblue" points="1049.85,-79.3267 1058.83,-73.6935 1048.3,-72.5015 1049.85,-79.3267"/>
</g>
<!-- Node21 -->
<g id="node21" class="node"><title>Node21</title>
<polygon fill="white" stroke="#bfbfbf" points="1409.5,-0.5 1409.5,-19.5 1450.5,-19.5 1450.5,-0.5 1409.5,-0.5"/>
<text text-anchor="middle" x="1430" y="-7.5" font-family="Helvetica,sans-Serif" font-size="10.00">string</text>
</g>
<!-- Node2&#45;&gt;Node21 -->
<g id="edge20" class="edge"><title>Node2&#45;&gt;Node21</title>
<path fill="none" stroke="midnightblue" d="M809.581,-121.675C970.924,-122.801 1396.46,-121.399 1439,-76 1450.53,-63.6912 1445.71,-43.8772 1439.6,-29.3571"/>
<polygon fill="midnightblue" stroke="midnightblue" points="1442.57,-27.4503 1435.14,-19.9027 1436.24,-30.4397 1442.57,-27.4503"/>
</g>
<!-- Node22 -->
<g id="node22" class="node"><title>Node22</title>
<polygon fill="white" stroke="#bfbfbf" points="739,-0.5 739,-19.5 783,-19.5 783,-0.5 739,-0.5"/>
<text text-anchor="middle" x="761" y="-7.5" font-family="Helvetica,sans-Serif" font-size="10.00">vector</text>
</g>
<!-- Node2&#45;&gt;Node22 -->
<g id="edge21" class="edge"><title>Node2&#45;&gt;Node22</title>
<path fill="none" stroke="midnightblue" d="M686.307,-120.765C559.365,-119.195 284.691,-109.654 333,-56 359.386,-26.6947 633.322,-15.1203 728.574,-11.9624"/>
<polygon fill="midnightblue" stroke="midnightblue" points="728.884,-15.4543 738.766,-11.6342 728.658,-8.45793 728.884,-15.4543"/>
</g>
<!-- Node23 -->
<g id="node23" class="node"><title>Node23</title>
<polygon fill="white" stroke="#bfbfbf" points="1117.5,-56.5 1117.5,-75.5 1158.5,-75.5 1158.5,-56.5 1117.5,-56.5"/>
<text text-anchor="middle" x="1138" y="-63.5" font-family="Helvetica,sans-Serif" font-size="10.00">stack</text>
</g>
<!-- Node2&#45;&gt;Node23 -->
<g id="edge22" class="edge"><title>Node2&#45;&gt;Node23</title>
<path fill="none" stroke="midnightblue" d="M809.668,-116.446C879.666,-110.573 997.317,-98.5719 1107.51,-75.7511"/>
<polygon fill="midnightblue" stroke="midnightblue" points="1108.4,-79.1404 1117.46,-73.6551 1106.95,-72.2906 1108.4,-79.1404"/>
</g>
<!-- Node24 -->
<g id="node24" class="node"><title>Node24</title>
<polygon fill="white" stroke="#bfbfbf" points="1176.5,-56.5 1176.5,-75.5 1219.5,-75.5 1219.5,-56.5 1176.5,-56.5"/>
<text text-anchor="middle" x="1198" y="-63.5" font-family="Helvetica,sans-Serif" font-size="10.00">deque</text>
</g>
<!-- Node2&#45;&gt;Node24 -->
<g id="edge23" class="edge"><title>Node2&#45;&gt;Node24</title>
<path fill="none" stroke="midnightblue" d="M809.752,-117.959C890.115,-113.21 1034.91,-101.95 1166.63,-75.9511"/>
<polygon fill="midnightblue" stroke="midnightblue" points="1167.38,-79.3711 1176.49,-73.9715 1166,-72.508 1167.38,-79.3711"/>
</g>
<!-- Node25 -->
<g id="node25" class="node"><title>Node25</title>
<polygon fill="white" stroke="#bfbfbf" points="1805,-0.5 1805,-19.5 1849,-19.5 1849,-0.5 1805,-0.5"/>
<text text-anchor="middle" x="1827" y="-7.5" font-family="Helvetica,sans-Serif" font-size="10.00">mutex</text>
</g>
<!-- Node2&#45;&gt;Node25 -->
<g id="edge24" class="edge"><title>Node2&#45;&gt;Node25</title>
<path fill="none" stroke="midnightblue" d="M809.562,-120.122C1011.21,-116.977 1643.95,-104.892 1731,-76 1762.03,-65.7019 1792.33,-42.3062 1810.33,-26.5781"/>
<polygon fill="midnightblue" stroke="midnightblue" points="1813.04,-28.8527 1818.13,-19.5639 1808.36,-23.6474 1813.04,-28.8527"/>
</g>
<!-- Node26 -->
<g id="node26" class="node"><title>Node26</title>
<polygon fill="white" stroke="#bfbfbf" points="1522,-0.5 1522,-19.5 1566,-19.5 1566,-0.5 1522,-0.5"/>
<text text-anchor="middle" x="1544" y="-7.5" font-family="Helvetica,sans-Serif" font-size="10.00">thread</text>
</g>
<!-- Node2&#45;&gt;Node26 -->
<g id="edge25" class="edge"><title>Node2&#45;&gt;Node26</title>
<path fill="none" stroke="midnightblue" d="M809.603,-119.671C974.541,-115.765 1417.77,-102.871 1478,-76 1501.08,-65.7019 1520.7,-43.5515 1532.4,-27.9819"/>
<polygon fill="midnightblue" stroke="midnightblue" points="1535.35,-29.8767 1538.35,-19.7145 1529.67,-25.79 1535.35,-29.8767"/>
</g>
<!-- Node27 -->
<g id="node27" class="node"><title>Node27</title>
<polygon fill="white" stroke="#bfbfbf" points="1630.5,-0.5 1630.5,-19.5 1725.5,-19.5 1725.5,-0.5 1630.5,-0.5"/>
<text text-anchor="middle" x="1678" y="-7.5" font-family="Helvetica,sans-Serif" font-size="10.00">condition_variable</text>
</g>
<!-- Node2&#45;&gt;Node27 -->
<g id="edge26" class="edge"><title>Node2&#45;&gt;Node27</title>
<path fill="none" stroke="midnightblue" d="M809.856,-120.354C1014.25,-117.922 1656.72,-107.767 1687,-76 1698.75,-63.672 1693.71,-43.5752 1687.48,-28.9877"/>
<polygon fill="midnightblue" stroke="midnightblue" points="1690.63,-27.4568 1683.17,-19.932 1684.31,-30.4656 1690.63,-27.4568"/>
</g>
<!-- Node28 -->
<g id="node28" class="node"><title>Node28</title>
<polygon fill="white" stroke="#bfbfbf" points="1743.5,-0.5 1743.5,-19.5 1786.5,-19.5 1786.5,-0.5 1743.5,-0.5"/>
<text text-anchor="middle" x="1765" y="-7.5" font-family="Helvetica,sans-Serif" font-size="10.00">queue</text>
</g>
<!-- Node2&#45;&gt;Node28 -->
<g id="edge27" class="edge"><title>Node2&#45;&gt;Node28</title>
<path fill="none" stroke="midnightblue" d="M809.538,-120.774C1008.03,-119.675 1623.18,-113.269 1704,-76 1725.88,-65.9104 1743.71,-44.0525 1754.32,-28.4718"/>
<polygon fill="midnightblue" stroke="midnightblue" points="1757.47,-30.0405 1759.97,-19.7432 1751.6,-26.2382 1757.47,-30.0405"/>
</g>
<!-- Node29 -->
<g id="node29" class="node"><title>Node29</title>
<polygon fill="white" stroke="#bfbfbf" points="1468.5,-0.5 1468.5,-19.5 1503.5,-19.5 1503.5,-0.5 1468.5,-0.5"/>
<text text-anchor="middle" x="1486" y="-7.5" font-family="Helvetica,sans-Serif" font-size="10.00">map</text>
</g>
<!-- Node2&#45;&gt;Node29 -->
<g id="edge28" class="edge"><title>Node2&#45;&gt;Node29</title>
<path fill="none" stroke="midnightblue" d="M809.519,-120.651C971.927,-119.235 1403.37,-112.082 1456,-76 1471.51,-65.369 1479.16,-44.6038 1482.83,-29.3943"/>
<polygon fill="midnightblue" stroke="midnightblue" points="1486.28,-30.0247 1484.85,-19.5257 1479.42,-28.6198 1486.28,-30.0247"/>
</g>
<!-- Node30 -->
<g id="node30" class="node"><title>Node30</title>
<g id="a_node30"><a xlink:href="cosmos-defs_8h.html" target="_top" xlink:title="COSMOS definitions Definitions specific to the COSMOS environement. ">
<polygon fill="white" stroke="black" points="1562,-56.5 1562,-75.5 1678,-75.5 1678,-56.5 1562,-56.5"/>
<text text-anchor="middle" x="1620" y="-63.5" font-family="Helvetica,sans-Serif" font-size="10.00">support/cosmos&#45;defs.h</text>
</a>
</g>
</g>
<!-- Node2&#45;&gt;Node30 -->
<g id="edge29" class="edge"><title>Node2&#45;&gt;Node30</title>
<path fill="none" stroke="midnightblue" d="M809.58,-118.968C943.893,-114.221 1273.17,-100.878 1548,-76 1549.27,-75.885 1550.55,-75.765 1551.84,-75.6407"/>
<polygon fill="midnightblue" stroke="midnightblue" points="1552.29,-79.1136 1561.88,-74.6103 1551.57,-72.1503 1552.29,-79.1136"/>
</g>
<!-- Node32 -->
<g id="node32" class="node"><title>Node32</title>
<g id="a_node32"><a xlink:href="json11_8hpp.html" target="_top" xlink:title="json11.hpp">
<polygon fill="white" stroke="black" points="1366,-56.5 1366,-75.5 1430,-75.5 1430,-56.5 1366,-56.5"/>
<text text-anchor="middle" x="1398" y="-63.5" font-family="Helvetica,sans-Serif" font-size="10.00">json11.hpp</text>
</a>
</g>
</g>
<!-- Node2&#45;&gt;Node32 -->
<g id="edge37" class="edge"><title>Node2&#45;&gt;Node32</title>
<path fill="none" stroke="midnightblue" d="M809.69,-119.341C918.241,-115.789 1150.56,-105.357 1355.79,-75.9695"/>
<polygon fill="midnightblue" stroke="midnightblue" points="1356.46,-79.4096 1365.85,-74.5104 1355.45,-72.482 1356.46,-79.4096"/>
</g>
<!-- Node30&#45;&gt;Node22 -->
<g id="edge31" class="edge"><title>Node30&#45;&gt;Node22</title>
<path fill="none" stroke="midnightblue" d="M1561.97,-61.352C1395.89,-50.9115 922.382,-21.1451 793.647,-13.0523"/>
<polygon fill="midnightblue" stroke="midnightblue" points="793.486,-9.53537 783.286,-12.401 793.047,-16.5216 793.486,-9.53537"/>
</g>
<!-- Node30&#45;&gt;Node25 -->
<g id="edge35" class="edge"><title>Node30&#45;&gt;Node25</title>
<path fill="none" stroke="midnightblue" d="M1654.82,-56.4495C1688.37,-48.1314 1740.8,-34.9306 1794.91,-20.2372"/>
<polygon fill="midnightblue" stroke="midnightblue" points="1795.95,-23.583 1804.67,-17.5751 1794.1,-16.8297 1795.95,-23.583"/>
</g>
<!-- Node30&#45;&gt;Node26 -->
<g id="edge34" class="edge"><title>Node30&#45;&gt;Node26</title>
<path fill="none" stroke="midnightblue" d="M1607.79,-56.324C1596.22,-48.1066 1578.62,-35.6017 1564.84,-25.8069"/>
<polygon fill="midnightblue" stroke="midnightblue" points="1566.61,-22.7729 1556.43,-19.8339 1562.56,-28.4791 1566.61,-22.7729"/>
</g>
<!-- Node30&#45;&gt;Node27 -->
<g id="edge36" class="edge"><title>Node30&#45;&gt;Node27</title>
<path fill="none" stroke="midnightblue" d="M1629.32,-56.324C1637.89,-48.3414 1650.81,-36.3128 1661.19,-26.6529"/>
<polygon fill="midnightblue" stroke="midnightblue" points="1663.58,-29.2098 1668.51,-19.8339 1658.81,-24.0865 1663.58,-29.2098"/>
</g>
<!-- Node30&#45;&gt;Node28 -->
<g id="edge33" class="edge"><title>Node30&#45;&gt;Node28</title>
<path fill="none" stroke="midnightblue" d="M1642.98,-56.4435C1667.44,-47.3322 1706.32,-32.8531 1733.6,-22.6929"/>
<polygon fill="midnightblue" stroke="midnightblue" points="1734.93,-25.9329 1743.08,-19.1629 1732.49,-19.3731 1734.93,-25.9329"/>
</g>
<!-- Node30&#45;&gt;Node29 -->
<g id="edge30" class="edge"><title>Node30&#45;&gt;Node29</title>
<path fill="none" stroke="midnightblue" d="M1598.77,-56.4435C1575.57,-47.097 1538.36,-32.1023 1513.09,-21.9151"/>
<polygon fill="midnightblue" stroke="midnightblue" points="1514.29,-18.6283 1503.71,-18.1368 1511.68,-25.121 1514.29,-18.6283"/>
</g>
<!-- Node31 -->
<g id="node31" class="node"><title>Node31</title>
<polygon fill="white" stroke="#bfbfbf" points="1583.5,-0.5 1583.5,-19.5 1612.5,-19.5 1612.5,-0.5 1583.5,-0.5"/>
<text text-anchor="middle" x="1598" y="-7.5" font-family="Helvetica,sans-Serif" font-size="10.00">list</text>
</g>
<!-- Node30&#45;&gt;Node31 -->
<g id="edge32" class="edge"><title>Node30&#45;&gt;Node31</title>
<path fill="none" stroke="midnightblue" d="M1616.37,-56.083C1613.39,-48.77 1609.07,-38.1814 1605.38,-29.1034"/>
<polygon fill="midnightblue" stroke="midnightblue" points="1608.58,-27.6914 1601.57,-19.7511 1602.1,-30.3326 1608.58,-27.6914"/>
</g>
<!-- Node32&#45;&gt;Node21 -->
<g id="edge38" class="edge"><title>Node32&#45;&gt;Node21</title>
<path fill="none" stroke="midnightblue" d="M1403.28,-56.083C1407.71,-48.6127 1414.16,-37.7244 1419.62,-28.5199"/>
<polygon fill="midnightblue" stroke="midnightblue" points="1422.73,-30.1383 1424.81,-19.7511 1416.71,-26.5697 1422.73,-30.1383"/>
</g>
<!-- Node32&#45;&gt;Node22 -->
<g id="edge39" class="edge"><title>Node32&#45;&gt;Node22</title>
<path fill="none" stroke="midnightblue" d="M1365.85,-57.4945C1362.87,-56.934 1359.88,-56.4233 1357,-56 1143.16,-24.6165 882.759,-14.5126 793.113,-11.8364"/>
<polygon fill="midnightblue" stroke="midnightblue" points="793.138,-8.33577 783.041,-11.5459 792.936,-15.3329 793.138,-8.33577"/>
</g>
<!-- Node32&#45;&gt;Node29 -->
<g id="edge40" class="edge"><title>Node32&#45;&gt;Node29</title>
<path fill="none" stroke="midnightblue" d="M1412.14,-56.324C1425.87,-47.9002 1446.94,-34.9709 1463.06,-25.0741"/>
<polygon fill="midnightblue" stroke="midnightblue" points="1465.2,-27.8678 1471.9,-19.6545 1461.54,-21.9016 1465.2,-27.8678"/>
</g>
<!-- Node33 -->
<g id="node33" class="node"><title>Node33</title>
<polygon fill="white" stroke="#bfbfbf" points="1248,-0.5 1248,-19.5 1300,-19.5 1300,-0.5 1248,-0.5"/>
<text text-anchor="middle" x="1274" y="-7.5" font-family="Helvetica,sans-Serif" font-size="10.00">memory</text>
</g>
<!-- Node32&#45;&gt;Node33 -->
<g id="edge41" class="edge"><title>Node32&#45;&gt;Node33</title>
<path fill="none" stroke="midnightblue" d="M1378.35,-56.4435C1358.04,-47.5961 1326.1,-33.6875 1302.9,-23.5865"/>
<polygon fill="midnightblue" stroke="midnightblue" points="1304.12,-20.3002 1293.56,-19.5164 1301.33,-26.7181 1304.12,-20.3002"/>
</g>
<!-- Node34 -->
<g id="node34" class="node"><title>Node34</title>
<polygon fill="white" stroke="#bfbfbf" points="1318.5,-0.5 1318.5,-19.5 1391.5,-19.5 1391.5,-0.5 1318.5,-0.5"/>
<text text-anchor="middle" x="1355" y="-7.5" font-family="Helvetica,sans-Serif" font-size="10.00">initializer_list</text>
</g>
<!-- Node32&#45;&gt;Node34 -->
<g id="edge42" class="edge"><title>Node32&#45;&gt;Node34</title>
<path fill="none" stroke="midnightblue" d="M1390.9,-56.083C1384.76,-48.3768 1375.73,-37.0333 1368.26,-27.6531"/>
<polygon fill="midnightblue" stroke="midnightblue" points="1370.94,-25.3936 1361.97,-19.7511 1365.46,-29.7542 1370.94,-25.3936"/>
</g>
<!-- Node35&#45;&gt;Node2 -->
<g id="edge44" class="edge"><title>Node35&#45;&gt;Node2</title>
<path fill="none" stroke="midnightblue" d="M644.472,-562.44C700.144,-551.656 786,-524.421 786,-459 786,-459 786,-459 786,-233 786,-198.813 769.4,-161.764 758.143,-140.571"/>
<polygon fill="midnightblue" stroke="midnightblue" points="761.181,-138.832 753.284,-131.769 755.053,-142.215 761.181,-138.832"/>
</g>
<!-- Node36 -->
<g id="node36" class="node"><title>Node36</title>
<g id="a_node36"><a xlink:href="mathlib_8h.html" target="_top" xlink:title="mathlib include file ">
<polygon fill="white" stroke="black" points="238.5,-392.5 238.5,-411.5 319.5,-411.5 319.5,-392.5 238.5,-392.5"/>
<text text-anchor="middle" x="279" y="-399.5" font-family="Helvetica,sans-Serif" font-size="10.00">math/mathlib.h</text>
</a>
</g>
</g>
<!-- Node35&#45;&gt;Node36 -->
<g id="edge45" class="edge"><title>Node35&#45;&gt;Node36</title>
<path fill="none" stroke="midnightblue" d="M551.987,-564.898C454.584,-555.126 233.035,-526.772 191,-468 174.25,-444.581 208.195,-426.105 238.67,-414.93"/>
<polygon fill="midnightblue" stroke="midnightblue" points="240.074,-418.147 248.373,-411.561 237.778,-411.534 240.074,-418.147"/>
</g>
<!-- Node43 -->
<g id="node43" class="node"><title>Node43</title>
<g id="a_node43"><a xlink:href="convertdef_8h.html" target="_top" xlink:title="support/convertdef.h">
<polygon fill="white" stroke="black" points="614,-448.5 614,-467.5 720,-467.5 720,-448.5 614,-448.5"/>
<text text-anchor="middle" x="667" y="-455.5" font-family="Helvetica,sans-Serif" font-size="10.00">support/convertdef.h</text>
</a>
</g>
</g>
<!-- Node35&#45;&gt;Node43 -->
<g id="edge69" class="edge"><title>Node35&#45;&gt;Node43</title>
<path fill="none" stroke="midnightblue" d="M617.787,-560.488C632.372,-553.093 651.294,-540.901 661,-524 669.025,-510.027 669.986,-491.524 669.255,-477.833"/>
<polygon fill="midnightblue" stroke="midnightblue" points="672.724,-477.325 668.361,-467.67 665.751,-477.939 672.724,-477.325"/>
</g>
<!-- Node44 -->
<g id="node44" class="node"><title>Node44</title>
<g id="a_node44"><a xlink:href="physicsdef_8h.html" target="_top" xlink:title="Orbit library support definitions. ">
<polygon fill="white" stroke="black" points="543.5,-504.5 543.5,-523.5 652.5,-523.5 652.5,-504.5 543.5,-504.5"/>
<text text-anchor="middle" x="598" y="-511.5" font-family="Helvetica,sans-Serif" font-size="10.00">physics/physicsdef.h</text>
</a>
</g>
</g>
<!-- Node35&#45;&gt;Node44 -->
<g id="edge72" class="edge"><title>Node35&#45;&gt;Node44</title>
<path fill="none" stroke="midnightblue" d="M598,-560.083C598,-553.006 598,-542.861 598,-533.986"/>
<polygon fill="midnightblue" stroke="midnightblue" points="601.5,-533.751 598,-523.751 594.5,-533.751 601.5,-533.751"/>
</g>
<!-- Node45 -->
<g id="node45" class="node"><title>Node45</title>
<g id="a_node45"><a xlink:href="socketlib_8h.html" target="_top" xlink:title="Socket Support header file. ">
<polygon fill="white" stroke="black" points="426.5,-504.5 426.5,-523.5 525.5,-523.5 525.5,-504.5 426.5,-504.5"/>
<text text-anchor="middle" x="476" y="-511.5" font-family="Helvetica,sans-Serif" font-size="10.00">support/socketlib.h</text>
</a>
</g>
</g>
<!-- Node35&#45;&gt;Node45 -->
<g id="edge76" class="edge"><title>Node35&#45;&gt;Node45</title>
<path fill="none" stroke="midnightblue" d="M578.669,-560.444C558.68,-551.596 527.257,-537.687 504.436,-527.586"/>
<polygon fill="midnightblue" stroke="midnightblue" points="505.802,-524.363 495.241,-523.516 502.968,-530.764 505.802,-524.363"/>
</g>
<!-- Node49 -->
<g id="node49" class="node"><title>Node49</title>
<g id="a_node49"><a xlink:href="objlib_8h.html" target="_top" xlink:title="support/objlib.h">
<polygon fill="white" stroke="black" points="200.5,-448.5 200.5,-467.5 283.5,-467.5 283.5,-448.5 200.5,-448.5"/>
<text text-anchor="middle" x="242" y="-455.5" font-family="Helvetica,sans-Serif" font-size="10.00">support/objlib.h</text>
</a>
</g>
</g>
<!-- Node35&#45;&gt;Node49 -->
<g id="edge81" class="edge"><title>Node35&#45;&gt;Node49</title>
<path fill="none" stroke="midnightblue" d="M558.102,-560.432C521.191,-552.187 464.953,-538.816 417,-524 365.424,-508.065 306.882,-485.35 272.271,-471.423"/>
<polygon fill="midnightblue" stroke="midnightblue" points="273.334,-468.078 262.751,-467.571 270.708,-474.567 273.334,-468.078"/>
</g>
<!-- Node36&#45;&gt;Node2 -->
<g id="edge46" class="edge"><title>Node36&#45;&gt;Node2</title>
<path fill="none" stroke="midnightblue" d="M319.714,-399.345C386.561,-395.81 515.513,-385.295 549,-356 571.749,-336.099 569,-321.225 569,-291 569,-291 569,-291 569,-233 569,-202.205 570.464,-188.987 593,-168 615.562,-146.989 647.362,-135.726 676.292,-129.713"/>
<polygon fill="midnightblue" stroke="midnightblue" points="677.213,-133.101 686.385,-127.798 675.908,-126.224 677.213,-133.101"/>
</g>
<!-- Node36&#45;&gt;Node12 -->
<g id="edge67" class="edge"><title>Node36&#45;&gt;Node12</title>
<path fill="none" stroke="midnightblue" d="M238.311,-394.822C163.796,-380.953 13,-339.924 13,-235 13,-235 13,-235 13,-177 13,-144.841 16.8684,-107.569 19.5329,-85.7107"/>
<polygon fill="midnightblue" stroke="midnightblue" points="23.0369,-85.8993 20.8234,-75.5383 16.0926,-85.0183 23.0369,-85.8993"/>
</g>
<!-- Node36&#45;&gt;Node14 -->
<g id="edge68" class="edge"><title>Node36&#45;&gt;Node14</title>
<path fill="none" stroke="midnightblue" d="M270.869,-392.226C250.321,-369.562 195.964,-306.457 168,-244 143.671,-189.662 132.93,-119.233 128.965,-85.9787"/>
<polygon fill="midnightblue" stroke="midnightblue" points="132.423,-85.4035 127.834,-75.8538 125.466,-86.1805 132.423,-85.4035"/>
</g>
<!-- Node37 -->
<g id="node37" class="node"><title>Node37</title>
<g id="a_node37"><a xlink:href="cosmos-errno_8h.html" target="_top" xlink:title="COSMOS Error Codes. ">
<polygon fill="white" stroke="black" points="421.5,-336.5 421.5,-355.5 540.5,-355.5 540.5,-336.5 421.5,-336.5"/>
<text text-anchor="middle" x="481" y="-343.5" font-family="Helvetica,sans-Serif" font-size="10.00">support/cosmos&#45;errno.h</text>
</a>
</g>
</g>
<!-- Node36&#45;&gt;Node37 -->
<g id="edge47" class="edge"><title>Node36&#45;&gt;Node37</title>
<path fill="none" stroke="midnightblue" d="M311.008,-392.444C345.729,-383.162 401.288,-368.309 439.377,-358.127"/>
<polygon fill="midnightblue" stroke="midnightblue" points="440.385,-361.48 449.142,-355.516 438.578,-354.718 440.385,-361.48"/>
</g>
<!-- Node39 -->
<g id="node39" class="node"><title>Node39</title>
<g id="a_node39"><a xlink:href="math_2constants_8h.html" target="_top" xlink:title="constants.h">
<polygon fill="white" stroke="black" points="269,-168.5 269,-187.5 337,-187.5 337,-168.5 269,-168.5"/>
<text text-anchor="middle" x="303" y="-175.5" font-family="Helvetica,sans-Serif" font-size="10.00">constants.h</text>
</a>
</g>
</g>
<!-- Node36&#45;&gt;Node39 -->
<g id="edge50" class="edge"><title>Node36&#45;&gt;Node39</title>
<path fill="none" stroke="midnightblue" d="M279.941,-392.297C283.472,-359.633 295.987,-243.866 300.951,-197.957"/>
<polygon fill="midnightblue" stroke="midnightblue" points="304.444,-198.202 302.04,-187.884 297.485,-197.45 304.444,-198.202"/>
</g>
<!-- Node40 -->
<g id="node40" class="node"><title>Node40</title>
<g id="a_node40"><a xlink:href="vector_8h.html" target="_top" xlink:title="vector.h">
<polygon fill="white" stroke="black" points="177,-224.5 177,-243.5 229,-243.5 229,-224.5 177,-224.5"/>
<text text-anchor="middle" x="203" y="-231.5" font-family="Helvetica,sans-Serif" font-size="10.00">vector.h</text>
</a>
</g>
</g>
<!-- Node36&#45;&gt;Node40 -->
<g id="edge53" class="edge"><title>Node36&#45;&gt;Node40</title>
<path fill="none" stroke="midnightblue" d="M274.914,-392.075C262.847,-365.719 227.209,-287.878 211.086,-252.661"/>
<polygon fill="midnightblue" stroke="midnightblue" points="214.268,-251.204 206.923,-243.568 207.903,-254.117 214.268,-251.204"/>
</g>
<!-- Node41 -->
<g id="node41" class="node"><title>Node41</title>
<g id="a_node41"><a xlink:href="matrix_8h.html" target="_top" xlink:title="matrix.h">
<polygon fill="white" stroke="black" points="335,-280.5 335,-299.5 387,-299.5 387,-280.5 335,-280.5"/>
<text text-anchor="middle" x="361" y="-287.5" font-family="Helvetica,sans-Serif" font-size="10.00">matrix.h</text>
</a>
</g>
</g>
<!-- Node36&#45;&gt;Node41 -->
<g id="edge60" class="edge"><title>Node36&#45;&gt;Node41</title>
<path fill="none" stroke="midnightblue" d="M319.147,-392.429C338.975,-385.953 361.138,-374.83 373,-356 381.958,-341.78 376.739,-322.557 370.632,-308.709"/>
<polygon fill="midnightblue" stroke="midnightblue" points="373.769,-307.157 366.219,-299.724 367.486,-310.243 373.769,-307.157"/>
</g>
<!-- Node42 -->
<g id="node42" class="node"><title>Node42</title>
<g id="a_node42"><a xlink:href="rotation_8h.html" target="_top" xlink:title="rotation.h">
<polygon fill="white" stroke="black" points="307.5,-336.5 307.5,-355.5 364.5,-355.5 364.5,-336.5 307.5,-336.5"/>
<text text-anchor="middle" x="336" y="-343.5" font-family="Helvetica,sans-Serif" font-size="10.00">rotation.h</text>
</a>
</g>
</g>
<!-- Node36&#45;&gt;Node42 -->
<g id="edge63" class="edge"><title>Node36&#45;&gt;Node42</title>
<path fill="none" stroke="midnightblue" d="M288.158,-392.324C296.501,-384.42 309.032,-372.548 319.177,-362.938"/>
<polygon fill="midnightblue" stroke="midnightblue" points="321.823,-365.252 326.675,-355.834 317.009,-360.171 321.823,-365.252"/>
</g>
<!-- Node37&#45;&gt;Node2 -->
<g id="edge48" class="edge"><title>Node37&#45;&gt;Node2</title>
<path fill="none" stroke="midnightblue" d="M487.708,-336.455C494.331,-327.7 504.4,-313.496 511,-300 538.17,-244.448 509.294,-209.655 555,-168 572.865,-151.719 629.258,-139.754 676.506,-132.272"/>
<polygon fill="midnightblue" stroke="midnightblue" points="677.081,-135.724 686.432,-130.743 676.016,-128.806 677.081,-135.724"/>
</g>
<!-- Node38 -->
<g id="node38" class="node"><title>Node38</title>
<polygon fill="white" stroke="#bfbfbf" points="455.5,-280.5 455.5,-299.5 502.5,-299.5 502.5,-280.5 455.5,-280.5"/>
<text text-anchor="middle" x="479" y="-287.5" font-family="Helvetica,sans-Serif" font-size="10.00">errno.h</text>
</g>
<!-- Node37&#45;&gt;Node38 -->
<g id="edge49" class="edge"><title>Node37&#45;&gt;Node38</title>
<path fill="none" stroke="midnightblue" d="M480.67,-336.083C480.408,-329.006 480.032,-318.861 479.703,-309.986"/>
<polygon fill="midnightblue" stroke="midnightblue" points="483.192,-309.615 479.324,-299.751 476.197,-309.874 483.192,-309.615"/>
</g>
<!-- Node39&#45;&gt;Node2 -->
<g id="edge51" class="edge"><title>Node39&#45;&gt;Node2</title>
<path fill="none" stroke="midnightblue" d="M337.081,-170.813C343.044,-169.813 349.196,-168.834 355,-168 466.734,-151.947 597.002,-137.957 675.941,-129.999"/>
<polygon fill="midnightblue" stroke="midnightblue" points="676.656,-133.444 686.256,-128.963 675.957,-126.479 676.656,-133.444"/>
</g>
<!-- Node39&#45;&gt;Node5 -->
<g id="edge52" class="edge"><title>Node39&#45;&gt;Node5</title>
<path fill="none" stroke="midnightblue" d="M299.861,-168.368C293.377,-150.537 278.38,-109.295 269.644,-85.2717"/>
<polygon fill="midnightblue" stroke="midnightblue" points="272.831,-83.7932 266.124,-75.5914 266.252,-86.1855 272.831,-83.7932"/>
</g>
<!-- Node40&#45;&gt;Node2 -->
<g id="edge54" class="edge"><title>Node40&#45;&gt;Node2</title>
<path fill="none" stroke="midnightblue" d="M207.607,-224.39C215.904,-209.863 234.861,-180.815 260,-168 330.821,-131.899 558.255,-124.524 675.938,-123.174"/>
<polygon fill="midnightblue" stroke="midnightblue" points="676.323,-126.671 686.286,-123.068 676.251,-119.671 676.323,-126.671"/>
</g>
<!-- Node40&#45;&gt;Node12 -->
<g id="edge58" class="edge"><title>Node40&#45;&gt;Node12</title>
<path fill="none" stroke="midnightblue" d="M178.675,-224.415C159.474,-216.838 132.727,-204.441 113,-188 76.6368,-157.693 46.4001,-110.144 31.6661,-84.6119"/>
<polygon fill="midnightblue" stroke="midnightblue" points="34.601,-82.6908 26.6401,-75.6997 28.5037,-86.1294 34.601,-82.6908"/>
</g>
<!-- Node40&#45;&gt;Node14 -->
<g id="edge56" class="edge"><title>Node40&#45;&gt;Node14</title>
<path fill="none" stroke="midnightblue" d="M198.914,-224.075C186.847,-197.719 151.209,-119.878 135.086,-84.6608"/>
<polygon fill="midnightblue" stroke="midnightblue" points="138.268,-83.2035 130.923,-75.5681 131.903,-86.1175 138.268,-83.2035"/>
</g>
<!-- Node40&#45;&gt;Node17 -->
<g id="edge57" class="edge"><title>Node40&#45;&gt;Node17</title>
<path fill="none" stroke="midnightblue" d="M202.677,-224.075C201.733,-197.945 198.959,-121.211 197.671,-85.577"/>
<polygon fill="midnightblue" stroke="midnightblue" points="201.169,-85.4351 197.31,-75.5681 194.173,-85.688 201.169,-85.4351"/>
</g>
<!-- Node40&#45;&gt;Node22 -->
<g id="edge59" class="edge"><title>Node40&#45;&gt;Node22</title>
<path fill="none" stroke="midnightblue" d="M190.104,-224.485C150.763,-197.539 38.0972,-112.575 91,-56 134.908,-9.04427 600.538,-9.59681 728.578,-10.6491"/>
<polygon fill="midnightblue" stroke="midnightblue" points="728.863,-14.1517 738.894,-10.7412 728.926,-7.15194 728.863,-14.1517"/>
</g>
<!-- Node40&#45;&gt;Node39 -->
<g id="edge55" class="edge"><title>Node40&#45;&gt;Node39</title>
<path fill="none" stroke="midnightblue" d="M219.067,-224.324C234.958,-215.743 259.507,-202.486 277.958,-192.522"/>
<polygon fill="midnightblue" stroke="midnightblue" points="279.837,-195.486 286.973,-187.655 276.511,-189.326 279.837,-195.486"/>
</g>
<!-- Node41&#45;&gt;Node2 -->
<g id="edge61" class="edge"><title>Node41&#45;&gt;Node2</title>
<path fill="none" stroke="midnightblue" d="M361.577,-280.233C363.581,-257.537 372.295,-196.638 409,-168 449.355,-136.515 589.133,-127.028 676.1,-124.19"/>
<polygon fill="midnightblue" stroke="midnightblue" points="676.283,-127.686 686.172,-123.883 676.07,-120.689 676.283,-127.686"/>
</g>
<!-- Node41&#45;&gt;Node40 -->
<g id="edge62" class="edge"><title>Node41&#45;&gt;Node40</title>
<path fill="none" stroke="midnightblue" d="M335.964,-280.444C309.384,-271.359 267.191,-256.939 237.477,-246.783"/>
<polygon fill="midnightblue" stroke="midnightblue" points="238.513,-243.439 227.918,-243.516 236.249,-250.062 238.513,-243.439"/>
</g>
<!-- Node42&#45;&gt;Node2 -->
<g id="edge64" class="edge"><title>Node42&#45;&gt;Node2</title>
<path fill="none" stroke="midnightblue" d="M348.271,-336.434C360.627,-327.662 380.086,-313.446 396,-300 461.077,-245.015 459.586,-207.635 535,-168 578.672,-145.047 633.187,-133.802 676.133,-128.292"/>
<polygon fill="midnightblue" stroke="midnightblue" points="676.718,-131.747 686.227,-127.075 675.88,-124.798 676.718,-131.747"/>
</g>
<!-- Node42&#45;&gt;Node40 -->
<g id="edge65" class="edge"><title>Node42&#45;&gt;Node40</title>
<path fill="none" stroke="midnightblue" d="M325.564,-336.368C303.032,-317.733 249.589,-273.532 221.298,-250.134"/>
<polygon fill="midnightblue" stroke="midnightblue" points="223.324,-247.268 213.388,-243.591 218.863,-252.662 223.324,-247.268"/>
</g>
<!-- Node42&#45;&gt;Node41 -->
<g id="edge66" class="edge"><title>Node42&#45;&gt;Node41</title>
<path fill="none" stroke="midnightblue" d="M340.128,-336.083C343.514,-328.77 348.416,-318.181 352.619,-309.103"/>
<polygon fill="midnightblue" stroke="midnightblue" points="355.923,-310.296 356.949,-299.751 349.571,-307.355 355.923,-310.296"/>
</g>
<!-- Node43&#45;&gt;Node2 -->
<g id="edge70" class="edge"><title>Node43&#45;&gt;Node2</title>
<path fill="none" stroke="midnightblue" d="M670.372,-448.313C677.196,-429.923 692,-385.581 692,-347 692,-347 692,-347 692,-233 692,-196.436 716.877,-159.747 733.469,-139.342"/>
<polygon fill="midnightblue" stroke="midnightblue" points="736.195,-141.539 739.977,-131.642 730.849,-137.021 736.195,-141.539"/>
</g>
<!-- Node43&#45;&gt;Node36 -->
<g id="edge71" class="edge"><title>Node43&#45;&gt;Node36</title>
<path fill="none" stroke="midnightblue" d="M613.864,-449.605C538.936,-439.177 403.183,-420.283 329.636,-410.047"/>
<polygon fill="midnightblue" stroke="midnightblue" points="330.071,-406.574 319.684,-408.662 329.106,-413.507 330.071,-406.574"/>
</g>
<!-- Node44&#45;&gt;Node2 -->
<g id="edge73" class="edge"><title>Node44&#45;&gt;Node2</title>
<path fill="none" stroke="midnightblue" d="M652.762,-506.067C679.045,-500.066 709.075,-488.874 729,-468 749.782,-446.229 748,-433.098 748,-403 748,-403 748,-403 748,-233 748,-200.948 748,-163.643 748,-141.749"/>
<polygon fill="midnightblue" stroke="midnightblue" points="751.5,-141.558 748,-131.558 744.5,-141.558 751.5,-141.558"/>
</g>
<!-- Node44&#45;&gt;Node40 -->
<g id="edge74" class="edge"><title>Node44&#45;&gt;Node40</title>
<path fill="none" stroke="midnightblue" d="M591.913,-504.452C581.101,-490.019 557.026,-461.108 529,-448 468.179,-419.553 277.102,-458.847 229,-412 185.834,-369.959 193.161,-289.986 199.241,-253.717"/>
<polygon fill="midnightblue" stroke="midnightblue" points="202.739,-254.049 201.106,-243.581 195.854,-252.782 202.739,-254.049"/>
</g>
<!-- Node44&#45;&gt;Node43 -->
<g id="edge75" class="edge"><title>Node44&#45;&gt;Node43</title>
<path fill="none" stroke="midnightblue" d="M609.086,-504.324C619.486,-496.185 635.261,-483.839 647.722,-474.087"/>
<polygon fill="midnightblue" stroke="midnightblue" points="649.994,-476.753 655.712,-467.834 645.68,-471.241 649.994,-476.753"/>
</g>
<!-- Node45&#45;&gt;Node2 -->
<g id="edge77" class="edge"><title>Node45&#45;&gt;Node2</title>
<path fill="none" stroke="midnightblue" d="M496.723,-504.453C541.851,-484.304 645,-429.254 645,-347 645,-347 645,-347 645,-233 645,-188.426 690.621,-154.46 721.14,-136.726"/>
<polygon fill="midnightblue" stroke="midnightblue" points="723.031,-139.678 730.059,-131.75 719.621,-133.566 723.031,-139.678"/>
</g>
<!-- Node46 -->
<g id="node46" class="node"><title>Node46</title>
<polygon fill="white" stroke="#bfbfbf" points="366.5,-448.5 366.5,-467.5 439.5,-467.5 439.5,-448.5 366.5,-448.5"/>
<text text-anchor="middle" x="403" y="-455.5" font-family="Helvetica,sans-Serif" font-size="10.00">sys/socket.h</text>
</g>
<!-- Node45&#45;&gt;Node46 -->
<g id="edge78" class="edge"><title>Node45&#45;&gt;Node46</title>
<path fill="none" stroke="midnightblue" d="M464.271,-504.324C453.163,-496.107 436.258,-483.602 423.017,-473.807"/>
<polygon fill="midnightblue" stroke="midnightblue" points="425.063,-470.967 414.942,-467.834 420.9,-476.595 425.063,-470.967"/>
</g>
<!-- Node47 -->
<g id="node47" class="node"><title>Node47</title>
<polygon fill="white" stroke="#bfbfbf" points="458,-448.5 458,-467.5 520,-467.5 520,-448.5 458,-448.5"/>
<text text-anchor="middle" x="489" y="-455.5" font-family="Helvetica,sans-Serif" font-size="10.00">sys/ioctl.h</text>
</g>
<!-- Node45&#45;&gt;Node47 -->
<g id="edge79" class="edge"><title>Node45&#45;&gt;Node47</title>
<path fill="none" stroke="midnightblue" d="M478.147,-504.083C479.869,-496.927 482.347,-486.635 484.5,-477.691"/>
<polygon fill="midnightblue" stroke="midnightblue" points="487.955,-478.293 486.893,-467.751 481.15,-476.654 487.955,-478.293"/>
</g>
<!-- Node48 -->
<g id="node48" class="node"><title>Node48</title>
<polygon fill="white" stroke="#bfbfbf" points="301.5,-448.5 301.5,-467.5 348.5,-467.5 348.5,-448.5 301.5,-448.5"/>
<text text-anchor="middle" x="325" y="-455.5" font-family="Helvetica,sans-Serif" font-size="10.00">net/if.h</text>
</g>
<!-- Node45&#45;&gt;Node48 -->
<g id="edge80" class="edge"><title>Node45&#45;&gt;Node48</title>
<path fill="none" stroke="midnightblue" d="M452.074,-504.444C426.781,-495.399 386.698,-481.064 358.32,-470.916"/>
<polygon fill="midnightblue" stroke="midnightblue" points="359.409,-467.588 348.814,-467.516 357.052,-474.179 359.409,-467.588"/>
</g>
<!-- Node49&#45;&gt;Node2 -->
<g id="edge82" class="edge"><title>Node49&#45;&gt;Node2</title>
<path fill="none" stroke="midnightblue" d="M283.515,-448.914C379.181,-429.71 607,-380.464 607,-347 607,-347 607,-347 607,-233 607,-202.205 609.372,-189.922 631,-168 647.098,-151.684 669.753,-141.176 690.846,-134.459"/>
<polygon fill="midnightblue" stroke="midnightblue" points="692.117,-137.733 700.717,-131.545 690.135,-131.02 692.117,-137.733"/>
</g>
<!-- Node49&#45;&gt;Node36 -->
<g id="edge83" class="edge"><title>Node49&#45;&gt;Node36</title>
<path fill="none" stroke="midnightblue" d="M248.11,-448.083C253.282,-440.534 260.846,-429.495 267.194,-420.23"/>
<polygon fill="midnightblue" stroke="midnightblue" points="270.239,-421.979 273.004,-411.751 264.464,-418.022 270.239,-421.979"/>
</g>
<!-- Node49&#45;&gt;Node40 -->
<g id="edge84" class="edge"><title>Node49&#45;&gt;Node40</title>
<path fill="none" stroke="midnightblue" d="M218.167,-448.371C199.365,-440.77 173.199,-428.361 154,-412 130.522,-391.993 122.586,-385.319 113,-356 102.503,-323.895 95.242,-308.733 113,-280 124.864,-260.804 147.67,-249.523 167.355,-243.056"/>
<polygon fill="midnightblue" stroke="midnightblue" points="168.417,-246.392 176.997,-240.176 166.414,-239.685 168.417,-246.392"/>
</g>
</g>
</svg>
