<?xml version="1.0" encoding="UTF-8" standalone="no"?>
<!DOCTYPE svg PUBLIC "-//W3C//DTD SVG 1.1//EN"
 "http://www.w3.org/Graphics/SVG/1.1/DTD/svg11.dtd">
<!-- Generated by graphviz version 2.38.0 (20140413.2041)
 -->
<!-- Title: actuators Pages: 1 -->
<svg width="278pt" height="159pt"
 viewBox="0.00 0.00 278.00 159.00" xmlns="http://www.w3.org/2000/svg" xmlns:xlink="http://www.w3.org/1999/xlink">
<g id="graph0" class="graph" transform="scale(1 1) rotate(0) translate(4 155)">
<title>actuators</title>
<polygon fill="white" stroke="none" points="-4,4 -4,-155 274,-155 274,4 -4,4"/>
<g id="clust1" class="cluster"><title>clusterdir_03af1c557e7e0223a3e8cc85239ff557</title>
<g id="a_clust1"><a xlink:href="dir_03af1c557e7e0223a3e8cc85239ff557.html" target="_top" xlink:title="old">
<polygon fill="#ddddee" stroke="black" points="8,-56 8,-143 262,-143 262,-56 8,-56"/>
<text text-anchor="middle" x="135" y="-131" font-family="Helvetica,sans-Serif" font-size="10.00">old</text>
</a>
</g>
</g>
<g id="clust2" class="cluster"><title>clusterdir_099c7fcc16af30ede4194c3eb36fd413</title>
<g id="a_clust2"><a xlink:href="dir_099c7fcc16af30ede4194c3eb36fd413.html" target="_top">
<polygon fill="#eeeeff" stroke="black" points="16,-64 16,-116 254,-116 254,-64 16,-64"/>
</a>
</g>
</g>
<!-- dir_099c7fcc16af30ede4194c3eb36fd413 -->
<g id="node1" class="node"><title>dir_099c7fcc16af30ede4194c3eb36fd413</title>
<text text-anchor="middle" x="217" y="-87.5" font-family="Helvetica,sans-Serif" font-size="10.00">actuators</text>
</g>
<!-- dir_4a4d7937bbb6b12452a4e84f29e878b2 -->
<g id="node2" class="node"><title>dir_4a4d7937bbb6b12452a4e84f29e878b2</title>
<g id="a_node2"><a xlink:href="dir_4a4d7937bbb6b12452a4e84f29e878b2.html" target="_top" xlink:title="rw_big_one">
<polygon fill="white" stroke="black" points="170,-108 104,-108 104,-72 170,-72 170,-108"/>
<text text-anchor="middle" x="137" y="-87.5" font-family="Helvetica,sans-Serif" font-size="10.00">rw_big_one</text>
</a>
</g>
</g>
<!-- dir_bc0718b08fb2015b8e59c47b2805f60c -->
<g id="node4" class="node"><title>dir_bc0718b08fb2015b8e59c47b2805f60c</title>
<g id="a_node4"><a xlink:href="dir_bc0718b08fb2015b8e59c47b2805f60c.html" target="_top" xlink:title="libraries">
<polygon fill="white" stroke="red" points="123,-36 69,-36 69,-0 123,-0 123,-36"/>
<text text-anchor="middle" x="96" y="-15.5" font-family="Helvetica,sans-Serif" font-size="10.00">libraries</text>
</a>
</g>
</g>
<!-- dir_4a4d7937bbb6b12452a4e84f29e878b2&#45;&gt;dir_bc0718b08fb2015b8e59c47b2805f60c -->
<g id="edge1" class="edge"><title>dir_4a4d7937bbb6b12452a4e84f29e878b2&#45;&gt;dir_bc0718b08fb2015b8e59c47b2805f60c</title>
<path fill="none" stroke="black" d="M126.865,-71.6966C122.148,-63.6436 116.438,-53.8945 111.218,-44.9824"/>
<polygon fill="black" stroke="black" points="114.092,-42.9643 106.018,-36.1043 108.052,-46.5021 114.092,-42.9643"/>
<g id="a_edge1&#45;headlabel"><a xlink:href="dir_000050_000000.html" target="_top" xlink:title="2">
<text text-anchor="middle" x="118.359" y="-42.131" font-family="Helvetica,sans-Serif" font-size="10.00">2</text>
</a>
</g>
</g>
<!-- dir_95bdea50aabcccd943bd23361c76f036 -->
<g id="node3" class="node"><title>dir_95bdea50aabcccd943bd23361c76f036</title>
<g id="a_node3"><a xlink:href="dir_95bdea50aabcccd943bd23361c76f036.html" target="_top" xlink:title="torque_rod">
<polygon fill="white" stroke="black" points="86,-108 24,-108 24,-72 86,-72 86,-108"/>
<text text-anchor="middle" x="55" y="-87.5" font-family="Helvetica,sans-Serif" font-size="10.00">torque_rod</text>
</a>
</g>
</g>
<!-- dir_95bdea50aabcccd943bd23361c76f036&#45;&gt;dir_bc0718b08fb2015b8e59c47b2805f60c -->
<g id="edge2" class="edge"><title>dir_95bdea50aabcccd943bd23361c76f036&#45;&gt;dir_bc0718b08fb2015b8e59c47b2805f60c</title>
<path fill="none" stroke="black" d="M65.1348,-71.6966C69.8516,-63.6436 75.5618,-53.8945 80.7817,-44.9824"/>
<polygon fill="black" stroke="black" points="83.9478,-46.5021 85.9817,-36.1043 77.9076,-42.9643 83.9478,-46.5021"/>
<g id="a_edge2&#45;headlabel"><a xlink:href="dir_000054_000000.html" target="_top" xlink:title="1">
<text text-anchor="middle" x="84.581" y="-48.5388" font-family="Helvetica,sans-Serif" font-size="10.00">1</text>
</a>
</g>
</g>
</g>
</svg>
