<?xml version="1.0" encoding="UTF-8" standalone="no"?>
<!DOCTYPE svg PUBLIC "-//W3C//DTD SVG 1.1//EN"
 "http://www.w3.org/Graphics/SVG/1.1/DTD/svg11.dtd">
<!-- Generated by graphviz version 2.38.0 (20140413.2041)
 -->
<!-- Title: agents Pages: 1 -->
<svg width="278pt" height="159pt"
 viewBox="0.00 0.00 278.00 159.00" xmlns="http://www.w3.org/2000/svg" xmlns:xlink="http://www.w3.org/1999/xlink">
<g id="graph0" class="graph" transform="scale(1 1) rotate(0) translate(4 155)">
<title>agents</title>
<polygon fill="white" stroke="none" points="-4,4 -4,-155 274,-155 274,4 -4,4"/>
<g id="clust1" class="cluster"><title>clusterdir_7b0a5d1507c7f681cbfa1deb5990c6ea</title>
<g id="a_clust1"><a xlink:href="dir_7b0a5d1507c7f681cbfa1deb5990c6ea.html" target="_top" xlink:title="programs">
<polygon fill="#ddddee" stroke="black" points="8,-56 8,-143 262,-143 262,-56 8,-56"/>
<text text-anchor="middle" x="135" y="-131" font-family="Helvetica,sans-Serif" font-size="10.00">programs</text>
</a>
</g>
</g>
<g id="clust2" class="cluster"><title>clusterdir_e9bfa404cf0ac1cbaf261f3a36e4afac</title>
<g id="a_clust2"><a xlink:href="dir_e9bfa404cf0ac1cbaf261f3a36e4afac.html" target="_top">
<polygon fill="#eeeeff" stroke="black" points="16,-64 16,-116 254,-116 254,-64 16,-64"/>
</a>
</g>
</g>
<!-- dir_e9bfa404cf0ac1cbaf261f3a36e4afac -->
<g id="node1" class="node"><title>dir_e9bfa404cf0ac1cbaf261f3a36e4afac</title>
<text text-anchor="middle" x="219" y="-87.5" font-family="Helvetica,sans-Serif" font-size="10.00">agents</text>
</g>
<!-- dir_bc0718b08fb2015b8e59c47b2805f60c -->
<g id="node4" class="node"><title>dir_bc0718b08fb2015b8e59c47b2805f60c</title>
<g id="a_node4"><a xlink:href="dir_bc0718b08fb2015b8e59c47b2805f60c.html" target="_top" xlink:title="libraries">
<polygon fill="white" stroke="red" points="162,-36 108,-36 108,-0 162,-0 162,-36"/>
<text text-anchor="middle" x="135" y="-15.5" font-family="Helvetica,sans-Serif" font-size="10.00">libraries</text>
</a>
</g>
</g>
<!-- dir_e9bfa404cf0ac1cbaf261f3a36e4afac&#45;&gt;dir_bc0718b08fb2015b8e59c47b2805f60c -->
<g id="edge1" class="edge"><title>dir_e9bfa404cf0ac1cbaf261f3a36e4afac&#45;&gt;dir_bc0718b08fb2015b8e59c47b2805f60c</title>
<path fill="none" stroke="black" d="M200.956,-71.9045C195.298,-66.6952 188.969,-61.021 183,-56 177.698,-51.5405 171.948,-46.9273 166.332,-42.5345"/>
<polygon fill="black" stroke="black" points="168.318,-39.6462 158.265,-36.2999 164.037,-45.1846 168.318,-39.6462"/>
<g id="a_edge1&#45;headlabel"><a xlink:href="dir_000004_000000.html" target="_top" xlink:title="192">
<text text-anchor="middle" x="172.898" y="-37.098" font-family="Helvetica,sans-Serif" font-size="10.00">192</text>
</a>
</g>
</g>
<!-- dir_6c834d0e2eaa7ec7d1f195e502851015 -->
<g id="node2" class="node"><title>dir_6c834d0e2eaa7ec7d1f195e502851015</title>
<g id="a_node2"><a xlink:href="dir_6c834d0e2eaa7ec7d1f195e502851015.html" target="_top" xlink:title="ground&#45;station">
<polygon fill="white" stroke="black" points="174,-108 96,-108 96,-72 174,-72 174,-108"/>
<text text-anchor="middle" x="135" y="-87.5" font-family="Helvetica,sans-Serif" font-size="10.00">ground&#45;station</text>
</a>
</g>
</g>
<!-- dir_6c834d0e2eaa7ec7d1f195e502851015&#45;&gt;dir_bc0718b08fb2015b8e59c47b2805f60c -->
<g id="edge2" class="edge"><title>dir_6c834d0e2eaa7ec7d1f195e502851015&#45;&gt;dir_bc0718b08fb2015b8e59c47b2805f60c</title>
<path fill="none" stroke="black" d="M135,-71.6966C135,-63.9827 135,-54.7125 135,-46.1124"/>
<polygon fill="black" stroke="black" points="138.5,-46.1043 135,-36.1043 131.5,-46.1044 138.5,-46.1043"/>
<g id="a_edge2&#45;headlabel"><a xlink:href="dir_000005_000000.html" target="_top" xlink:title="58">
<text text-anchor="middle" x="141.339" y="-47.199" font-family="Helvetica,sans-Serif" font-size="10.00">58</text>
</a>
</g>
</g>
<!-- dir_d1e52da43fe56d1ff264abf8438fef16 -->
<g id="node3" class="node"><title>dir_d1e52da43fe56d1ff264abf8438fef16</title>
<g id="a_node3"><a xlink:href="dir_d1e52da43fe56d1ff264abf8438fef16.html" target="_top" xlink:title="other">
<polygon fill="white" stroke="black" points="78,-108 24,-108 24,-72 78,-72 78,-108"/>
<text text-anchor="middle" x="51" y="-87.5" font-family="Helvetica,sans-Serif" font-size="10.00">other</text>
</a>
</g>
</g>
<!-- dir_d1e52da43fe56d1ff264abf8438fef16&#45;&gt;dir_bc0718b08fb2015b8e59c47b2805f60c -->
<g id="edge3" class="edge"><title>dir_d1e52da43fe56d1ff264abf8438fef16&#45;&gt;dir_bc0718b08fb2015b8e59c47b2805f60c</title>
<path fill="none" stroke="black" d="M69.044,-71.9045C74.7023,-66.6952 81.0306,-61.021 87,-56 92.3018,-51.5405 98.0516,-46.9273 103.668,-42.5345"/>
<polygon fill="black" stroke="black" points="105.963,-45.1846 111.735,-36.2999 101.682,-39.6462 105.963,-45.1846"/>
<g id="a_edge3&#45;headlabel"><a xlink:href="dir_000017_000000.html" target="_top" xlink:title="34">
<text text-anchor="middle" x="104.855" y="-47.1293" font-family="Helvetica,sans-Serif" font-size="10.00">34</text>
</a>
</g>
</g>
</g>
</svg>
