<?xml version="1.0" encoding="UTF-8" standalone="no"?>
<!DOCTYPE svg PUBLIC "-//W3C//DTD SVG 1.1//EN"
 "http://www.w3.org/Graphics/SVG/1.1/DTD/svg11.dtd">
<!-- Generated by graphviz version 2.38.0 (20140413.2041)
 -->
<!-- Title: general Pages: 1 -->
<svg width="185pt" height="295pt"
 viewBox="0.00 0.00 185.14 295.00" xmlns="http://www.w3.org/2000/svg" xmlns:xlink="http://www.w3.org/1999/xlink">
<g id="graph0" class="graph" transform="scale(1 1) rotate(0) translate(4 291)">
<title>general</title>
<polygon fill="white" stroke="none" points="-4,4 -4,-291 181.142,-291 181.142,4 -4,4"/>
<g id="clust1" class="cluster"><title>clusterdir_89e1dd23c9798627a4fa5c93437cdf71</title>
<g id="a_clust1"><a xlink:href="dir_89e1dd23c9798627a4fa5c93437cdf71.html" target="_top" xlink:title="device">
<polygon fill="#ddddee" stroke="black" points="74,-208 74,-279 144,-279 144,-208 74,-208"/>
<text text-anchor="middle" x="109" y="-267" font-family="Helvetica,sans-Serif" font-size="10.00">device</text>
</a>
</g>
</g>
<!-- dir_184c0b8cd06f2340f9d0a23a16cabf8e -->
<g id="node1" class="node"><title>dir_184c0b8cd06f2340f9d0a23a16cabf8e</title>
<g id="a_node1"><a xlink:href="dir_184c0b8cd06f2340f9d0a23a16cabf8e.html" target="_top" xlink:title="general">
<polygon fill="#eeeeff" stroke="black" points="136,-252 82,-252 82,-216 136,-216 136,-252"/>
<text text-anchor="middle" x="109" y="-231.5" font-family="Helvetica,sans-Serif" font-size="10.00">general</text>
</a>
</g>
</g>
<!-- dir_19bf41b5bf83c7288008927ab83c7306 -->
<g id="node2" class="node"><title>dir_19bf41b5bf83c7288008927ab83c7306</title>
<g id="a_node2"><a xlink:href="dir_19bf41b5bf83c7288008927ab83c7306.html" target="_top" xlink:title="serial">
<polygon fill="none" stroke="black" points="54,-180 0,-180 0,-144 54,-144 54,-180"/>
<text text-anchor="middle" x="27" y="-159.5" font-family="Helvetica,sans-Serif" font-size="10.00">serial</text>
</a>
</g>
</g>
<!-- dir_184c0b8cd06f2340f9d0a23a16cabf8e&#45;&gt;dir_19bf41b5bf83c7288008927ab83c7306 -->
<g id="edge1" class="edge"><title>dir_184c0b8cd06f2340f9d0a23a16cabf8e&#45;&gt;dir_19bf41b5bf83c7288008927ab83c7306</title>
<path fill="none" stroke="black" d="M88.7303,-215.697C78.5024,-206.965 65.9389,-196.24 54.8218,-186.75"/>
<polygon fill="black" stroke="black" points="56.9146,-183.935 47.0365,-180.104 52.3697,-189.259 56.9146,-183.935"/>
<g id="a_edge1&#45;headlabel"><a xlink:href="dir_000002_000051.html" target="_top" xlink:title="4">
<text text-anchor="middle" x="61.4919" y="-181.609" font-family="Helvetica,sans-Serif" font-size="10.00">4</text>
</a>
</g>
</g>
<!-- dir_9a8b31d1dfb38e26822c551fe4043c03 -->
<g id="node3" class="node"><title>dir_9a8b31d1dfb38e26822c551fe4043c03</title>
<g id="a_node3"><a xlink:href="dir_9a8b31d1dfb38e26822c551fe4043c03.html" target="_top" xlink:title="math">
<polygon fill="none" stroke="black" points="136,-36 82,-36 82,-0 136,-0 136,-36"/>
<text text-anchor="middle" x="109" y="-15.5" font-family="Helvetica,sans-Serif" font-size="10.00">math</text>
</a>
</g>
</g>
<!-- dir_184c0b8cd06f2340f9d0a23a16cabf8e&#45;&gt;dir_9a8b31d1dfb38e26822c551fe4043c03 -->
<g id="edge2" class="edge"><title>dir_184c0b8cd06f2340f9d0a23a16cabf8e&#45;&gt;dir_9a8b31d1dfb38e26822c551fe4043c03</title>
<path fill="none" stroke="black" d="M136.096,-218.388C149.887,-209.337 165.326,-196.319 173,-180 179.809,-165.521 175.95,-159.726 173,-144 166.669,-110.254 160.97,-102.395 145,-72 140.085,-62.6455 133.86,-52.9351 127.975,-44.4212"/>
<polygon fill="black" stroke="black" points="130.674,-42.1775 122.033,-36.047 124.965,-46.2281 130.674,-42.1775"/>
<g id="a_edge2&#45;headlabel"><a xlink:href="dir_000002_000035.html" target="_top" xlink:title="5">
<text text-anchor="middle" x="135.07" y="-40.9663" font-family="Helvetica,sans-Serif" font-size="10.00">5</text>
</a>
</g>
</g>
<!-- dir_566a3ff4a5a303bab03e0e4ba38c8a31 -->
<g id="node4" class="node"><title>dir_566a3ff4a5a303bab03e0e4ba38c8a31</title>
<g id="a_node4"><a xlink:href="dir_566a3ff4a5a303bab03e0e4ba38c8a31.html" target="_top" xlink:title="support">
<polygon fill="white" stroke="red" points="136,-108 82,-108 82,-72 136,-72 136,-108"/>
<text text-anchor="middle" x="109" y="-87.5" font-family="Helvetica,sans-Serif" font-size="10.00">support</text>
</a>
</g>
</g>
<!-- dir_184c0b8cd06f2340f9d0a23a16cabf8e&#45;&gt;dir_566a3ff4a5a303bab03e0e4ba38c8a31 -->
<g id="edge3" class="edge"><title>dir_184c0b8cd06f2340f9d0a23a16cabf8e&#45;&gt;dir_566a3ff4a5a303bab03e0e4ba38c8a31</title>
<path fill="none" stroke="black" d="M105.752,-215.888C103.954,-205.542 101.905,-192.063 101,-180 99.8026,-164.045 99.8026,-159.955 101,-144 101.637,-135.518 102.838,-126.336 104.121,-118.036"/>
<polygon fill="black" stroke="black" points="107.584,-118.547 105.752,-108.112 100.676,-117.412 107.584,-118.547"/>
<g id="a_edge3&#45;headlabel"><a xlink:href="dir_000002_000033.html" target="_top" xlink:title="41">
<text text-anchor="middle" x="109.802" y="-120.055" font-family="Helvetica,sans-Serif" font-size="10.00">41</text>
</a>
</g>
</g>
<!-- dir_739af9132a68080d8ad3f48982bb0ae5 -->
<g id="node5" class="node"><title>dir_739af9132a68080d8ad3f48982bb0ae5</title>
<g id="a_node5"><a xlink:href="dir_739af9132a68080d8ad3f48982bb0ae5.html" target="_top" xlink:title="agent">
<polygon fill="none" stroke="black" points="164,-180 110,-180 110,-144 164,-144 164,-180"/>
<text text-anchor="middle" x="137" y="-159.5" font-family="Helvetica,sans-Serif" font-size="10.00">agent</text>
</a>
</g>
</g>
<!-- dir_184c0b8cd06f2340f9d0a23a16cabf8e&#45;&gt;dir_739af9132a68080d8ad3f48982bb0ae5 -->
<g id="edge4" class="edge"><title>dir_184c0b8cd06f2340f9d0a23a16cabf8e&#45;&gt;dir_739af9132a68080d8ad3f48982bb0ae5</title>
<path fill="none" stroke="black" d="M115.921,-215.697C119.075,-207.813 122.878,-198.304 126.381,-189.546"/>
<polygon fill="black" stroke="black" points="129.694,-190.689 130.158,-180.104 123.195,-188.089 129.694,-190.689"/>
<g id="a_edge4&#45;headlabel"><a xlink:href="dir_000002_000024.html" target="_top" xlink:title="2">
<text text-anchor="middle" x="130.995" y="-192.581" font-family="Helvetica,sans-Serif" font-size="10.00">2</text>
</a>
</g>
</g>
<!-- dir_19bf41b5bf83c7288008927ab83c7306&#45;&gt;dir_566a3ff4a5a303bab03e0e4ba38c8a31 -->
<g id="edge5" class="edge"><title>dir_19bf41b5bf83c7288008927ab83c7306&#45;&gt;dir_566a3ff4a5a303bab03e0e4ba38c8a31</title>
<path fill="none" stroke="black" d="M47.2697,-143.697C57.4976,-134.965 70.0611,-124.24 81.1782,-114.75"/>
<polygon fill="black" stroke="black" points="83.6303,-117.259 88.9635,-108.104 79.0854,-111.935 83.6303,-117.259"/>
<g id="a_edge5&#45;headlabel"><a xlink:href="dir_000051_000033.html" target="_top" xlink:title="5">
<text text-anchor="middle" x="82.7398" y="-119.252" font-family="Helvetica,sans-Serif" font-size="10.00">5</text>
</a>
</g>
</g>
<!-- dir_9a8b31d1dfb38e26822c551fe4043c03&#45;&gt;dir_566a3ff4a5a303bab03e0e4ba38c8a31 -->
<g id="edge6" class="edge"><title>dir_9a8b31d1dfb38e26822c551fe4043c03&#45;&gt;dir_566a3ff4a5a303bab03e0e4ba38c8a31</title>
<path fill="none" stroke="black" d="M114.895,-36.1043C115.701,-43.7913 115.937,-53.0537 115.604,-61.6651"/>
<polygon fill="black" stroke="black" points="112.109,-61.4805 114.916,-71.6966 119.092,-61.9597 112.109,-61.4805"/>
<g id="a_edge6&#45;headlabel"><a xlink:href="dir_000035_000033.html" target="_top" xlink:title="8">
<text text-anchor="middle" x="109.522" y="-55.2" font-family="Helvetica,sans-Serif" font-size="10.00">8</text>
</a>
</g>
</g>
<!-- dir_566a3ff4a5a303bab03e0e4ba38c8a31&#45;&gt;dir_9a8b31d1dfb38e26822c551fe4043c03 -->
<g id="edge7" class="edge"><title>dir_566a3ff4a5a303bab03e0e4ba38c8a31&#45;&gt;dir_9a8b31d1dfb38e26822c551fe4043c03</title>
<path fill="none" stroke="black" d="M103.084,-71.6966C102.289,-63.9827 102.062,-54.7125 102.405,-46.1124"/>
<polygon fill="black" stroke="black" points="105.898,-46.3243 103.105,-36.1043 98.9154,-45.8356 105.898,-46.3243"/>
<g id="a_edge7&#45;headlabel"><a xlink:href="dir_000033_000035.html" target="_top" xlink:title="14">
<text text-anchor="middle" x="108.48" y="-47.6083" font-family="Helvetica,sans-Serif" font-size="10.00">14</text>
</a>
</g>
</g>
<!-- dir_739af9132a68080d8ad3f48982bb0ae5&#45;&gt;dir_566a3ff4a5a303bab03e0e4ba38c8a31 -->
<g id="edge8" class="edge"><title>dir_739af9132a68080d8ad3f48982bb0ae5&#45;&gt;dir_566a3ff4a5a303bab03e0e4ba38c8a31</title>
<path fill="none" stroke="black" d="M130.079,-143.697C126.925,-135.813 123.122,-126.304 119.619,-117.546"/>
<polygon fill="black" stroke="black" points="122.805,-116.089 115.842,-108.104 116.306,-118.689 122.805,-116.089"/>
<g id="a_edge8&#45;headlabel"><a xlink:href="dir_000024_000033.html" target="_top" xlink:title="18">
<text text-anchor="middle" x="126.777" y="-115.872" font-family="Helvetica,sans-Serif" font-size="10.00">18</text>
</a>
</g>
</g>
</g>
</svg>
