<?xml version="1.0" encoding="UTF-8" standalone="no"?>
<!DOCTYPE svg PUBLIC "-//W3C//DTD SVG 1.1//EN"
 "http://www.w3.org/Graphics/SVG/1.1/DTD/svg11.dtd">
<!-- Generated by graphviz version 2.38.0 (20140413.2041)
 -->
<!-- Title: device Pages: 1 -->
<svg width="525pt" height="291pt"
 viewBox="0.00 0.00 524.82 291.00" xmlns="http://www.w3.org/2000/svg" xmlns:xlink="http://www.w3.org/1999/xlink">
<g id="graph0" class="graph" transform="scale(1 1) rotate(0) translate(4 287)">
<title>device</title>
<polygon fill="white" stroke="none" points="-4,4 -4,-287 520.824,-287 520.824,4 -4,4"/>
<g id="clust1" class="cluster"><title>clusterdir_bc0718b08fb2015b8e59c47b2805f60c</title>
<g id="a_clust1"><a xlink:href="dir_bc0718b08fb2015b8e59c47b2805f60c.html" target="_top" xlink:title="libraries">
<polygon fill="#ddddee" stroke="black" points="8.82426,-8 8.82426,-239 454.824,-239 454.824,-8 8.82426,-8"/>
<text text-anchor="middle" x="231.824" y="-227" font-family="Helvetica,sans-Serif" font-size="10.00">libraries</text>
</a>
</g>
</g>
<g id="clust2" class="cluster"><title>clusterdir_89e1dd23c9798627a4fa5c93437cdf71</title>
<g id="a_clust2"><a xlink:href="dir_89e1dd23c9798627a4fa5c93437cdf71.html" target="_top">
<polygon fill="#eeeeff" stroke="black" points="16.8243,-16 16.8243,-212 446.824,-212 446.824,-16 16.8243,-16"/>
</a>
</g>
</g>
<!-- dir_89e1dd23c9798627a4fa5c93437cdf71 -->
<g id="node1" class="node"><title>dir_89e1dd23c9798627a4fa5c93437cdf71</title>
<text text-anchor="middle" x="195.824" y="-183.5" font-family="Helvetica,sans-Serif" font-size="10.00">device</text>
</g>
<!-- dir_56851b7b813a827b1a4688037de3433f -->
<g id="node2" class="node"><title>dir_56851b7b813a827b1a4688037de3433f</title>
<g id="a_node2"><a xlink:href="dir_56851b7b813a827b1a4688037de3433f.html" target="_top" xlink:title="arduino">
<polygon fill="white" stroke="black" points="78.8243,-204 24.8243,-204 24.8243,-168 78.8243,-168 78.8243,-204"/>
<text text-anchor="middle" x="51.8243" y="-183.5" font-family="Helvetica,sans-Serif" font-size="10.00">arduino</text>
</a>
</g>
</g>
<!-- dir_184c0b8cd06f2340f9d0a23a16cabf8e -->
<g id="node6" class="node"><title>dir_184c0b8cd06f2340f9d0a23a16cabf8e</title>
<g id="a_node6"><a xlink:href="dir_184c0b8cd06f2340f9d0a23a16cabf8e.html" target="_top" xlink:title="general">
<polygon fill="white" stroke="black" points="438.824,-132 384.824,-132 384.824,-96 438.824,-96 438.824,-132"/>
<text text-anchor="middle" x="411.824" y="-111.5" font-family="Helvetica,sans-Serif" font-size="10.00">general</text>
</a>
</g>
</g>
<!-- dir_56851b7b813a827b1a4688037de3433f&#45;&gt;dir_184c0b8cd06f2340f9d0a23a16cabf8e -->
<g id="edge18" class="edge"><title>dir_56851b7b813a827b1a4688037de3433f&#45;&gt;dir_184c0b8cd06f2340f9d0a23a16cabf8e</title>
<path fill="none" stroke="black" d="M79.0251,-171.193C81.9513,-169.999 84.9204,-168.904 87.8243,-168 188.71,-136.609 313.373,-122.889 374.483,-117.708"/>
<polygon fill="black" stroke="black" points="375.103,-121.169 384.784,-116.866 374.532,-114.193 375.103,-121.169"/>
<g id="a_edge18&#45;headlabel"><a xlink:href="dir_000027_000002.html" target="_top" xlink:title="1">
<text text-anchor="middle" x="371.752" y="-121.792" font-family="Helvetica,sans-Serif" font-size="10.00">1</text>
</a>
</g>
</g>
<!-- dir_566a3ff4a5a303bab03e0e4ba38c8a31 -->
<g id="node10" class="node"><title>dir_566a3ff4a5a303bab03e0e4ba38c8a31</title>
<g id="a_node10"><a xlink:href="dir_566a3ff4a5a303bab03e0e4ba38c8a31.html" target="_top" xlink:title="support">
<polygon fill="white" stroke="red" points="516.824,-132 462.824,-132 462.824,-96 516.824,-96 516.824,-132"/>
<text text-anchor="middle" x="489.824" y="-111.5" font-family="Helvetica,sans-Serif" font-size="10.00">support</text>
</a>
</g>
</g>
<!-- dir_56851b7b813a827b1a4688037de3433f&#45;&gt;dir_566a3ff4a5a303bab03e0e4ba38c8a31 -->
<g id="edge19" class="edge"><title>dir_56851b7b813a827b1a4688037de3433f&#45;&gt;dir_566a3ff4a5a303bab03e0e4ba38c8a31</title>
<path fill="none" stroke="black" d="M78.9692,-171.003C81.9063,-169.846 84.8933,-168.811 87.8243,-168 244.075,-124.754 293.94,-172.889 450.824,-132 451.548,-131.811 452.275,-131.611 453.005,-131.4"/>
<polygon fill="black" stroke="black" points="454.165,-134.703 462.507,-128.171 451.913,-128.075 454.165,-134.703"/>
<g id="a_edge19&#45;headlabel"><a xlink:href="dir_000027_000033.html" target="_top" xlink:title="2">
<text text-anchor="middle" x="451.676" y="-136.048" font-family="Helvetica,sans-Serif" font-size="10.00">2</text>
</a>
</g>
</g>
<!-- dir_e03c3aa98fe1dbbdc89ac3e2b1e23a4d -->
<g id="node3" class="node"><title>dir_e03c3aa98fe1dbbdc89ac3e2b1e23a4d</title>
<g id="a_node3"><a xlink:href="dir_e03c3aa98fe1dbbdc89ac3e2b1e23a4d.html" target="_top" xlink:title="ccsds">
<polygon fill="white" stroke="black" points="150.824,-204 96.8243,-204 96.8243,-168 150.824,-168 150.824,-204"/>
<text text-anchor="middle" x="123.824" y="-183.5" font-family="Helvetica,sans-Serif" font-size="10.00">ccsds</text>
</a>
</g>
</g>
<!-- dir_e03c3aa98fe1dbbdc89ac3e2b1e23a4d&#45;&gt;dir_566a3ff4a5a303bab03e0e4ba38c8a31 -->
<g id="edge3" class="edge"><title>dir_e03c3aa98fe1dbbdc89ac3e2b1e23a4d&#45;&gt;dir_566a3ff4a5a303bab03e0e4ba38c8a31</title>
<path fill="none" stroke="black" d="M150.99,-171.076C153.923,-169.905 156.903,-168.847 159.824,-168 284.991,-131.719 325.125,-166.393 450.824,-132 451.546,-131.803 452.271,-131.594 452.999,-131.376"/>
<polygon fill="black" stroke="black" points="454.185,-134.669 462.484,-128.084 451.889,-128.056 454.185,-134.669"/>
<g id="a_edge3&#45;headlabel"><a xlink:href="dir_000052_000033.html" target="_top" xlink:title="2">
<text text-anchor="middle" x="451.72" y="-136.03" font-family="Helvetica,sans-Serif" font-size="10.00">2</text>
</a>
</g>
</g>
<!-- dir_6d6d18888f500cef1caa23d8e9a04249 -->
<g id="node4" class="node"><title>dir_6d6d18888f500cef1caa23d8e9a04249</title>
<g id="a_node4"><a xlink:href="dir_6d6d18888f500cef1caa23d8e9a04249.html" target="_top" xlink:title="cpu">
<polygon fill="white" stroke="black" points="438.824,-204 384.824,-204 384.824,-168 438.824,-168 438.824,-204"/>
<text text-anchor="middle" x="411.824" y="-183.5" font-family="Helvetica,sans-Serif" font-size="10.00">cpu</text>
</a>
</g>
</g>
<!-- dir_6d6d18888f500cef1caa23d8e9a04249&#45;&gt;dir_566a3ff4a5a303bab03e0e4ba38c8a31 -->
<g id="edge17" class="edge"><title>dir_6d6d18888f500cef1caa23d8e9a04249&#45;&gt;dir_566a3ff4a5a303bab03e0e4ba38c8a31</title>
<path fill="none" stroke="black" d="M425.189,-167.697C434.018,-158.965 445.797,-148.24 456.93,-138.75"/>
<polygon fill="black" stroke="black" points="459.448,-141.207 464.87,-132.104 454.955,-135.839 459.448,-141.207"/>
<g id="a_edge17&#45;headlabel"><a xlink:href="dir_000037_000033.html" target="_top" xlink:title="4">
<text text-anchor="middle" x="458.514" y="-143.191" font-family="Helvetica,sans-Serif" font-size="10.00">4</text>
</a>
</g>
</g>
<!-- dir_a0b8de2a6df68ff0ca40d58abd8aa1eb -->
<g id="node5" class="node"><title>dir_a0b8de2a6df68ff0ca40d58abd8aa1eb</title>
<g id="a_node5"><a xlink:href="dir_a0b8de2a6df68ff0ca40d58abd8aa1eb.html" target="_top" xlink:title="disk">
<polygon fill="white" stroke="black" points="366.824,-204 312.824,-204 312.824,-168 366.824,-168 366.824,-204"/>
<text text-anchor="middle" x="339.824" y="-183.5" font-family="Helvetica,sans-Serif" font-size="10.00">disk</text>
</a>
</g>
</g>
<!-- dir_a0b8de2a6df68ff0ca40d58abd8aa1eb&#45;&gt;dir_566a3ff4a5a303bab03e0e4ba38c8a31 -->
<g id="edge2" class="edge"><title>dir_a0b8de2a6df68ff0ca40d58abd8aa1eb&#45;&gt;dir_566a3ff4a5a303bab03e0e4ba38c8a31</title>
<path fill="none" stroke="black" d="M367.121,-167.861C395.882,-154.386 428.731,-139.131 453.36,-128.484"/>
<polygon fill="black" stroke="black" points="454.876,-131.643 462.704,-124.503 452.132,-125.203 454.876,-131.643"/>
<g id="a_edge2&#45;headlabel"><a xlink:href="dir_000038_000033.html" target="_top" xlink:title="4">
<text text-anchor="middle" x="452.682" y="-133.164" font-family="Helvetica,sans-Serif" font-size="10.00">4</text>
</a>
</g>
</g>
<!-- dir_19bf41b5bf83c7288008927ab83c7306 -->
<g id="node8" class="node"><title>dir_19bf41b5bf83c7288008927ab83c7306</title>
<g id="a_node8"><a xlink:href="dir_19bf41b5bf83c7288008927ab83c7306.html" target="_top" xlink:title="serial">
<polygon fill="white" stroke="black" points="438.824,-60 384.824,-60 384.824,-24 438.824,-24 438.824,-60"/>
<text text-anchor="middle" x="411.824" y="-39.5" font-family="Helvetica,sans-Serif" font-size="10.00">serial</text>
</a>
</g>
</g>
<!-- dir_184c0b8cd06f2340f9d0a23a16cabf8e&#45;&gt;dir_19bf41b5bf83c7288008927ab83c7306 -->
<g id="edge4" class="edge"><title>dir_184c0b8cd06f2340f9d0a23a16cabf8e&#45;&gt;dir_19bf41b5bf83c7288008927ab83c7306</title>
<path fill="none" stroke="black" d="M411.824,-95.6966C411.824,-87.9827 411.824,-78.7125 411.824,-70.1124"/>
<polygon fill="black" stroke="black" points="415.324,-70.1043 411.824,-60.1043 408.324,-70.1044 415.324,-70.1043"/>
<g id="a_edge4&#45;headlabel"><a xlink:href="dir_000002_000051.html" target="_top" xlink:title="4">
<text text-anchor="middle" x="418.164" y="-71.199" font-family="Helvetica,sans-Serif" font-size="10.00">4</text>
</a>
</g>
</g>
<!-- dir_9a8b31d1dfb38e26822c551fe4043c03 -->
<g id="node9" class="node"><title>dir_9a8b31d1dfb38e26822c551fe4043c03</title>
<g id="a_node9"><a xlink:href="dir_9a8b31d1dfb38e26822c551fe4043c03.html" target="_top" xlink:title="math">
<polygon fill="none" stroke="black" points="516.824,-60 462.824,-60 462.824,-24 516.824,-24 516.824,-60"/>
<text text-anchor="middle" x="489.824" y="-39.5" font-family="Helvetica,sans-Serif" font-size="10.00">math</text>
</a>
</g>
</g>
<!-- dir_184c0b8cd06f2340f9d0a23a16cabf8e&#45;&gt;dir_9a8b31d1dfb38e26822c551fe4043c03 -->
<g id="edge5" class="edge"><title>dir_184c0b8cd06f2340f9d0a23a16cabf8e&#45;&gt;dir_9a8b31d1dfb38e26822c551fe4043c03</title>
<path fill="none" stroke="black" d="M431.105,-95.6966C440.74,-87.0503 452.553,-76.4486 463.051,-67.027"/>
<polygon fill="black" stroke="black" points="465.66,-69.3883 470.765,-60.1043 460.985,-64.1786 465.66,-69.3883"/>
<g id="a_edge5&#45;headlabel"><a xlink:href="dir_000002_000035.html" target="_top" xlink:title="5">
<text text-anchor="middle" x="464.882" y="-71.4023" font-family="Helvetica,sans-Serif" font-size="10.00">5</text>
</a>
</g>
</g>
<!-- dir_184c0b8cd06f2340f9d0a23a16cabf8e&#45;&gt;dir_566a3ff4a5a303bab03e0e4ba38c8a31 -->
<g id="edge6" class="edge"><title>dir_184c0b8cd06f2340f9d0a23a16cabf8e&#45;&gt;dir_566a3ff4a5a303bab03e0e4ba38c8a31</title>
<path fill="none" stroke="black" d="M438.941,-114C443.538,-114 448.134,-114 452.73,-114"/>
<polygon fill="black" stroke="black" points="452.793,-117.5 462.793,-114 452.793,-110.5 452.793,-117.5"/>
<g id="a_edge6&#45;headlabel"><a xlink:href="dir_000002_000033.html" target="_top" xlink:title="41">
<text text-anchor="middle" x="449.198" y="-117.839" font-family="Helvetica,sans-Serif" font-size="10.00">41</text>
</a>
</g>
</g>
<!-- dir_739af9132a68080d8ad3f48982bb0ae5 -->
<g id="node11" class="node"><title>dir_739af9132a68080d8ad3f48982bb0ae5</title>
<g id="a_node11"><a xlink:href="dir_739af9132a68080d8ad3f48982bb0ae5.html" target="_top" xlink:title="agent">
<polygon fill="none" stroke="black" points="330.824,-283 276.824,-283 276.824,-247 330.824,-247 330.824,-283"/>
<text text-anchor="middle" x="303.824" y="-262.5" font-family="Helvetica,sans-Serif" font-size="10.00">agent</text>
</a>
</g>
</g>
<!-- dir_184c0b8cd06f2340f9d0a23a16cabf8e&#45;&gt;dir_739af9132a68080d8ad3f48982bb0ae5 -->
<g id="edge7" class="edge"><title>dir_184c0b8cd06f2340f9d0a23a16cabf8e&#45;&gt;dir_739af9132a68080d8ad3f48982bb0ae5</title>
<path fill="none" stroke="black" d="M384.721,-116.594C299.349,-121.886 40.205,-140.139 15.8243,-168 -4.95627,-191.747 -5.50225,-215.742 15.8243,-239 32.4334,-257.113 192.219,-262.144 266.367,-263.508"/>
<polygon fill="black" stroke="black" points="266.6,-267.012 276.659,-263.684 266.72,-260.014 266.6,-267.012"/>
<g id="a_edge7&#45;headlabel"><a xlink:href="dir_000002_000024.html" target="_top" xlink:title="2">
<text text-anchor="middle" x="262.958" y="-267.29" font-family="Helvetica,sans-Serif" font-size="10.00">2</text>
</a>
</g>
</g>
<!-- dir_69a82afb99d26636ea26f479e4c542c1 -->
<g id="node7" class="node"><title>dir_69a82afb99d26636ea26f479e4c542c1</title>
<g id="a_node7"><a xlink:href="dir_69a82afb99d26636ea26f479e4c542c1.html" target="_top" xlink:title="i2c">
<polygon fill="white" stroke="black" points="294.824,-204 240.824,-204 240.824,-168 294.824,-168 294.824,-204"/>
<text text-anchor="middle" x="267.824" y="-183.5" font-family="Helvetica,sans-Serif" font-size="10.00">i2c</text>
</a>
</g>
</g>
<!-- dir_69a82afb99d26636ea26f479e4c542c1&#45;&gt;dir_566a3ff4a5a303bab03e0e4ba38c8a31 -->
<g id="edge1" class="edge"><title>dir_69a82afb99d26636ea26f479e4c542c1&#45;&gt;dir_566a3ff4a5a303bab03e0e4ba38c8a31</title>
<path fill="none" stroke="black" d="M295.102,-171.425C298.013,-170.185 300.958,-169.016 303.824,-168 367.223,-145.526 387.095,-153.517 450.824,-132 451.682,-131.711 452.546,-131.41 453.415,-131.1"/>
<polygon fill="black" stroke="black" points="454.708,-134.353 462.782,-127.493 452.192,-127.82 454.708,-134.353"/>
<g id="a_edge1&#45;headlabel"><a xlink:href="dir_000041_000033.html" target="_top" xlink:title="3">
<text text-anchor="middle" x="452.374" y="-135.794" font-family="Helvetica,sans-Serif" font-size="10.00">3</text>
</a>
</g>
</g>
<!-- dir_19bf41b5bf83c7288008927ab83c7306&#45;&gt;dir_566a3ff4a5a303bab03e0e4ba38c8a31 -->
<g id="edge8" class="edge"><title>dir_19bf41b5bf83c7288008927ab83c7306&#45;&gt;dir_566a3ff4a5a303bab03e0e4ba38c8a31</title>
<path fill="none" stroke="black" d="M430.883,-60.1043C440.484,-68.7205 452.291,-79.316 462.809,-88.7555"/>
<polygon fill="black" stroke="black" points="460.763,-91.6224 470.543,-95.6966 465.439,-86.4126 460.763,-91.6224"/>
<g id="a_edge8&#45;headlabel"><a xlink:href="dir_000051_000033.html" target="_top" xlink:title="5">
<text text-anchor="middle" x="456.192" y="-88.8346" font-family="Helvetica,sans-Serif" font-size="10.00">5</text>
</a>
</g>
</g>
<!-- dir_9a8b31d1dfb38e26822c551fe4043c03&#45;&gt;dir_566a3ff4a5a303bab03e0e4ba38c8a31 -->
<g id="edge9" class="edge"><title>dir_9a8b31d1dfb38e26822c551fe4043c03&#45;&gt;dir_566a3ff4a5a303bab03e0e4ba38c8a31</title>
<path fill="none" stroke="black" d="M495.719,-60.1043C496.525,-67.7913 496.761,-77.0537 496.428,-85.6651"/>
<polygon fill="black" stroke="black" points="492.933,-85.4805 495.74,-95.6966 499.916,-85.9597 492.933,-85.4805"/>
<g id="a_edge9&#45;headlabel"><a xlink:href="dir_000035_000033.html" target="_top" xlink:title="8">
<text text-anchor="middle" x="490.346" y="-79.2" font-family="Helvetica,sans-Serif" font-size="10.00">8</text>
</a>
</g>
</g>
<!-- dir_566a3ff4a5a303bab03e0e4ba38c8a31&#45;&gt;dir_89e1dd23c9798627a4fa5c93437cdf71 -->
<g id="edge13" class="edge"><title>dir_566a3ff4a5a303bab03e0e4ba38c8a31&#45;&gt;dir_89e1dd23c9798627a4fa5c93437cdf71</title>
<path fill="none" stroke="black" d="M462.443,-127.941C458.596,-129.462 454.65,-130.871 450.824,-132 359.268,-159.022 328.013,-139.976 232.759,-168.214"/>
<polygon fill="black" stroke="black" points="231.562,-164.92 223.026,-171.195 233.612,-171.613 231.562,-164.92"/>
<g id="a_edge13&#45;headlabel"><a xlink:href="dir_000033_000001.html" target="_top" xlink:title="2">
<text text-anchor="middle" x="234.167" y="-158.652" font-family="Helvetica,sans-Serif" font-size="10.00">2</text>
</a>
</g>
</g>
<!-- dir_566a3ff4a5a303bab03e0e4ba38c8a31&#45;&gt;dir_6d6d18888f500cef1caa23d8e9a04249 -->
<g id="edge12" class="edge"><title>dir_566a3ff4a5a303bab03e0e4ba38c8a31&#45;&gt;dir_6d6d18888f500cef1caa23d8e9a04249</title>
<path fill="none" stroke="black" d="M476.66,-132.104C467.877,-140.805 456.115,-151.524 444.973,-161.033"/>
<polygon fill="black" stroke="black" points="442.438,-158.591 437.021,-167.697 446.934,-163.956 442.438,-158.591"/>
<g id="a_edge12&#45;headlabel"><a xlink:href="dir_000033_000037.html" target="_top" xlink:title="1">
<text text-anchor="middle" x="443.369" y="-151.606" font-family="Helvetica,sans-Serif" font-size="10.00">1</text>
</a>
</g>
</g>
<!-- dir_566a3ff4a5a303bab03e0e4ba38c8a31&#45;&gt;dir_a0b8de2a6df68ff0ca40d58abd8aa1eb -->
<g id="edge10" class="edge"><title>dir_566a3ff4a5a303bab03e0e4ba38c8a31&#45;&gt;dir_a0b8de2a6df68ff0ca40d58abd8aa1eb</title>
<path fill="none" stroke="black" d="M462.583,-131.183C441.301,-141.651 411.308,-155.591 384.824,-168 382.096,-169.278 379.253,-170.614 376.369,-171.951"/>
<polygon fill="black" stroke="black" points="374.767,-168.835 367.108,-176.155 377.66,-175.209 374.767,-168.835"/>
<g id="a_edge10&#45;headlabel"><a xlink:href="dir_000033_000038.html" target="_top" xlink:title="1">
<text text-anchor="middle" x="376.866" y="-162.264" font-family="Helvetica,sans-Serif" font-size="10.00">1</text>
</a>
</g>
</g>
<!-- dir_566a3ff4a5a303bab03e0e4ba38c8a31&#45;&gt;dir_9a8b31d1dfb38e26822c551fe4043c03 -->
<g id="edge11" class="edge"><title>dir_566a3ff4a5a303bab03e0e4ba38c8a31&#45;&gt;dir_9a8b31d1dfb38e26822c551fe4043c03</title>
<path fill="none" stroke="black" d="M483.909,-95.6966C483.113,-87.9827 482.886,-78.7125 483.229,-70.1124"/>
<polygon fill="black" stroke="black" points="486.723,-70.3243 483.929,-60.1043 479.74,-69.8356 486.723,-70.3243"/>
<g id="a_edge11&#45;headlabel"><a xlink:href="dir_000033_000035.html" target="_top" xlink:title="14">
<text text-anchor="middle" x="489.304" y="-71.6083" font-family="Helvetica,sans-Serif" font-size="10.00">14</text>
</a>
</g>
</g>
<!-- dir_739af9132a68080d8ad3f48982bb0ae5&#45;&gt;dir_89e1dd23c9798627a4fa5c93437cdf71 -->
<g id="edge16" class="edge"><title>dir_739af9132a68080d8ad3f48982bb0ae5&#45;&gt;dir_89e1dd23c9798627a4fa5c93437cdf71</title>
<path fill="none" stroke="black" d="M276.558,-258.831C262.19,-255.102 244.889,-248.926 231.824,-239 222.681,-232.053 215,-222.104 209.113,-212.766"/>
<polygon fill="black" stroke="black" points="212.114,-210.964 204.029,-204.116 206.079,-214.511 212.114,-210.964"/>
<g id="a_edge16&#45;headlabel"><a xlink:href="dir_000024_000001.html" target="_top" xlink:title="1">
<text text-anchor="middle" x="216.383" y="-210.124" font-family="Helvetica,sans-Serif" font-size="10.00">1</text>
</a>
</g>
</g>
<!-- dir_739af9132a68080d8ad3f48982bb0ae5&#45;&gt;dir_6d6d18888f500cef1caa23d8e9a04249 -->
<g id="edge15" class="edge"><title>dir_739af9132a68080d8ad3f48982bb0ae5&#45;&gt;dir_6d6d18888f500cef1caa23d8e9a04249</title>
<path fill="none" stroke="black" d="M331.091,-258.831C345.459,-255.102 362.76,-248.926 375.824,-239 384.967,-232.053 392.648,-222.104 398.535,-212.766"/>
<polygon fill="black" stroke="black" points="401.569,-214.511 403.62,-204.116 395.535,-210.964 401.569,-214.511"/>
<g id="a_edge15&#45;headlabel"><a xlink:href="dir_000024_000037.html" target="_top" xlink:title="1">
<text text-anchor="middle" x="402.195" y="-216.549" font-family="Helvetica,sans-Serif" font-size="10.00">1</text>
</a>
</g>
</g>
<!-- dir_739af9132a68080d8ad3f48982bb0ae5&#45;&gt;dir_566a3ff4a5a303bab03e0e4ba38c8a31 -->
<g id="edge14" class="edge"><title>dir_739af9132a68080d8ad3f48982bb0ae5&#45;&gt;dir_566a3ff4a5a303bab03e0e4ba38c8a31</title>
<path fill="none" stroke="black" d="M330.982,-262.709C368.451,-260.384 433.364,-254.23 450.824,-239 478.572,-214.797 486.792,-171.077 489.105,-142.549"/>
<polygon fill="black" stroke="black" points="492.607,-142.628 489.731,-132.431 485.62,-142.196 492.607,-142.628"/>
<g id="a_edge14&#45;headlabel"><a xlink:href="dir_000024_000033.html" target="_top" xlink:title="18">
<text text-anchor="middle" x="495.219" y="-143.891" font-family="Helvetica,sans-Serif" font-size="10.00">18</text>
</a>
</g>
</g>
</g>
</svg>
