<?xml version="1.0" encoding="UTF-8" standalone="no"?>
<!DOCTYPE svg PUBLIC "-//W3C//DTD SVG 1.1//EN"
 "http://www.w3.org/Graphics/SVG/1.1/DTD/svg11.dtd">
<!-- Generated by graphviz version 2.38.0 (20140413.2041)
 -->
<!-- Title: programs Pages: 1 -->
<svg width="242pt" height="132pt"
 viewBox="0.00 0.00 242.00 132.00" xmlns="http://www.w3.org/2000/svg" xmlns:xlink="http://www.w3.org/1999/xlink">
<g id="graph0" class="graph" transform="scale(1 1) rotate(0) translate(4 128)">
<title>programs</title>
<polygon fill="white" stroke="none" points="-4,4 -4,-128 238,-128 238,4 -4,4"/>
<g id="clust1" class="cluster"><title>clusterdir_7b0a5d1507c7f681cbfa1deb5990c6ea</title>
<g id="a_clust1"><a xlink:href="dir_7b0a5d1507c7f681cbfa1deb5990c6ea.html" target="_top">
<polygon fill="#eeeeff" stroke="black" points="8,-64 8,-116 226,-116 226,-64 8,-64"/>
</a>
</g>
</g>
<!-- dir_7b0a5d1507c7f681cbfa1deb5990c6ea -->
<g id="node1" class="node"><title>dir_7b0a5d1507c7f681cbfa1deb5990c6ea</title>
<text text-anchor="middle" x="189" y="-87.5" font-family="Helvetica,sans-Serif" font-size="10.00">programs</text>
</g>
<!-- dir_e9bfa404cf0ac1cbaf261f3a36e4afac -->
<g id="node2" class="node"><title>dir_e9bfa404cf0ac1cbaf261f3a36e4afac</title>
<g id="a_node2"><a xlink:href="dir_e9bfa404cf0ac1cbaf261f3a36e4afac.html" target="_top" xlink:title="agents">
<polygon fill="white" stroke="red" points="142,-108 88,-108 88,-72 142,-72 142,-108"/>
<text text-anchor="middle" x="115" y="-87.5" font-family="Helvetica,sans-Serif" font-size="10.00">agents</text>
</a>
</g>
</g>
<!-- dir_bc0718b08fb2015b8e59c47b2805f60c -->
<g id="node4" class="node"><title>dir_bc0718b08fb2015b8e59c47b2805f60c</title>
<g id="a_node4"><a xlink:href="dir_bc0718b08fb2015b8e59c47b2805f60c.html" target="_top" xlink:title="libraries">
<polygon fill="white" stroke="red" points="106,-36 52,-36 52,-0 106,-0 106,-36"/>
<text text-anchor="middle" x="79" y="-15.5" font-family="Helvetica,sans-Serif" font-size="10.00">libraries</text>
</a>
</g>
</g>
<!-- dir_e9bfa404cf0ac1cbaf261f3a36e4afac&#45;&gt;dir_bc0718b08fb2015b8e59c47b2805f60c -->
<g id="edge1" class="edge"><title>dir_e9bfa404cf0ac1cbaf261f3a36e4afac&#45;&gt;dir_bc0718b08fb2015b8e59c47b2805f60c</title>
<path fill="none" stroke="black" d="M106.101,-71.6966C102.003,-63.7284 97.0512,-54.0995 92.5073,-45.2641"/>
<polygon fill="black" stroke="black" points="95.4826,-43.3965 87.7965,-36.1043 89.2575,-46.598 95.4826,-43.3965"/>
<g id="a_edge1&#45;headlabel"><a xlink:href="dir_000004_000000.html" target="_top" xlink:title="192">
<text text-anchor="middle" x="99.6514" y="-42.7946" font-family="Helvetica,sans-Serif" font-size="10.00">192</text>
</a>
</g>
</g>
<!-- dir_a104fd10fc76810c91ede27824c08874 -->
<g id="node3" class="node"><title>dir_a104fd10fc76810c91ede27824c08874</title>
<g id="a_node3"><a xlink:href="dir_a104fd10fc76810c91ede27824c08874.html" target="_top" xlink:title="general">
<polygon fill="white" stroke="black" points="70,-108 16,-108 16,-72 70,-72 70,-108"/>
<text text-anchor="middle" x="43" y="-87.5" font-family="Helvetica,sans-Serif" font-size="10.00">general</text>
</a>
</g>
</g>
<!-- dir_a104fd10fc76810c91ede27824c08874&#45;&gt;dir_bc0718b08fb2015b8e59c47b2805f60c -->
<g id="edge2" class="edge"><title>dir_a104fd10fc76810c91ede27824c08874&#45;&gt;dir_bc0718b08fb2015b8e59c47b2805f60c</title>
<path fill="none" stroke="black" d="M51.8989,-71.6966C55.9968,-63.7284 60.9488,-54.0995 65.4927,-45.2641"/>
<polygon fill="black" stroke="black" points="68.7425,-46.598 70.2035,-36.1043 62.5174,-43.3965 68.7425,-46.598"/>
<g id="a_edge2&#45;headlabel"><a xlink:href="dir_000026_000000.html" target="_top" xlink:title="121">
<text text-anchor="middle" x="69.6235" y="-48.5931" font-family="Helvetica,sans-Serif" font-size="10.00">121</text>
</a>
</g>
</g>
</g>
</svg>
