<?xml version="1.0" encoding="UTF-8" standalone="no"?>
<!DOCTYPE svg PUBLIC "-//W3C//DTD SVG 1.1//EN"
 "http://www.w3.org/Graphics/SVG/1.1/DTD/svg11.dtd">
<!-- Generated by graphviz version 2.38.0 (20140413.2041)
 -->
<!-- Title: imu_microstrain Pages: 1 -->
<svg width="126pt" height="151pt"
 viewBox="0.00 0.00 126.00 151.00" xmlns="http://www.w3.org/2000/svg" xmlns:xlink="http://www.w3.org/1999/xlink">
<g id="graph0" class="graph" transform="scale(1 1) rotate(0) translate(4 147)">
<title>imu_microstrain</title>
<polygon fill="white" stroke="none" points="-4,4 -4,-147 122,-147 122,4 -4,4"/>
<g id="clust1" class="cluster"><title>clusterdir_3a83a7361507c81fa7bd9e0ed09d435b</title>
<g id="a_clust1"><a xlink:href="dir_3a83a7361507c81fa7bd9e0ed09d435b.html" target="_top" xlink:title="sensors">
<polygon fill="#ddddee" stroke="black" points="8,-64 8,-135 110,-135 110,-64 8,-64"/>
<text text-anchor="middle" x="59" y="-123" font-family="Helvetica,sans-Serif" font-size="10.00">sensors</text>
</a>
</g>
</g>
<!-- dir_41d020430541058d6a14a6615740d0b7 -->
<g id="node1" class="node"><title>dir_41d020430541058d6a14a6615740d0b7</title>
<g id="a_node1"><a xlink:href="dir_41d020430541058d6a14a6615740d0b7.html" target="_top" xlink:title="imu_microstrain">
<polygon fill="#eeeeff" stroke="black" points="102,-108 16,-108 16,-72 102,-72 102,-108"/>
<text text-anchor="middle" x="59" y="-87.5" font-family="Helvetica,sans-Serif" font-size="10.00">imu_microstrain</text>
</a>
</g>
</g>
<!-- dir_bc0718b08fb2015b8e59c47b2805f60c -->
<g id="node2" class="node"><title>dir_bc0718b08fb2015b8e59c47b2805f60c</title>
<g id="a_node2"><a xlink:href="dir_bc0718b08fb2015b8e59c47b2805f60c.html" target="_top" xlink:title="libraries">
<polygon fill="white" stroke="red" points="86,-36 32,-36 32,-0 86,-0 86,-36"/>
<text text-anchor="middle" x="59" y="-15.5" font-family="Helvetica,sans-Serif" font-size="10.00">libraries</text>
</a>
</g>
</g>
<!-- dir_41d020430541058d6a14a6615740d0b7&#45;&gt;dir_bc0718b08fb2015b8e59c47b2805f60c -->
<g id="edge1" class="edge"><title>dir_41d020430541058d6a14a6615740d0b7&#45;&gt;dir_bc0718b08fb2015b8e59c47b2805f60c</title>
<path fill="none" stroke="black" d="M59,-71.6966C59,-63.9827 59,-54.7125 59,-46.1124"/>
<polygon fill="black" stroke="black" points="62.5001,-46.1043 59,-36.1043 55.5001,-46.1044 62.5001,-46.1043"/>
<g id="a_edge1&#45;headlabel"><a xlink:href="dir_000032_000000.html" target="_top" xlink:title="6">
<text text-anchor="middle" x="65.3393" y="-47.199" font-family="Helvetica,sans-Serif" font-size="10.00">6</text>
</a>
</g>
</g>
</g>
</svg>
