<?xml version="1.0" encoding="UTF-8" standalone="no"?>
<!DOCTYPE svg PUBLIC "-//W3C//DTD SVG 1.1//EN"
 "http://www.w3.org/Graphics/SVG/1.1/DTD/svg11.dtd">
<!-- Generated by graphviz version 2.38.0 (20140413.2041)
 -->
<!-- Title: cpu Pages: 1 -->
<svg width="94pt" height="151pt"
 viewBox="0.00 0.00 94.00 151.00" xmlns="http://www.w3.org/2000/svg" xmlns:xlink="http://www.w3.org/1999/xlink">
<g id="graph0" class="graph" transform="scale(1 1) rotate(0) translate(4 147)">
<title>cpu</title>
<polygon fill="white" stroke="none" points="-4,4 -4,-147 90,-147 90,4 -4,4"/>
<g id="clust1" class="cluster"><title>clusterdir_89e1dd23c9798627a4fa5c93437cdf71</title>
<g id="a_clust1"><a xlink:href="dir_89e1dd23c9798627a4fa5c93437cdf71.html" target="_top" xlink:title="device">
<polygon fill="#ddddee" stroke="black" points="8,-64 8,-135 78,-135 78,-64 8,-64"/>
<text text-anchor="middle" x="43" y="-123" font-family="Helvetica,sans-Serif" font-size="10.00">device</text>
</a>
</g>
</g>
<!-- dir_6d6d18888f500cef1caa23d8e9a04249 -->
<g id="node1" class="node"><title>dir_6d6d18888f500cef1caa23d8e9a04249</title>
<g id="a_node1"><a xlink:href="dir_6d6d18888f500cef1caa23d8e9a04249.html" target="_top" xlink:title="cpu">
<polygon fill="#eeeeff" stroke="black" points="70,-108 16,-108 16,-72 70,-72 70,-108"/>
<text text-anchor="middle" x="43" y="-87.5" font-family="Helvetica,sans-Serif" font-size="10.00">cpu</text>
</a>
</g>
</g>
<!-- dir_566a3ff4a5a303bab03e0e4ba38c8a31 -->
<g id="node2" class="node"><title>dir_566a3ff4a5a303bab03e0e4ba38c8a31</title>
<g id="a_node2"><a xlink:href="dir_566a3ff4a5a303bab03e0e4ba38c8a31.html" target="_top" xlink:title="support">
<polygon fill="white" stroke="red" points="70,-36 16,-36 16,-0 70,-0 70,-36"/>
<text text-anchor="middle" x="43" y="-15.5" font-family="Helvetica,sans-Serif" font-size="10.00">support</text>
</a>
</g>
</g>
<!-- dir_6d6d18888f500cef1caa23d8e9a04249&#45;&gt;dir_566a3ff4a5a303bab03e0e4ba38c8a31 -->
<g id="edge2" class="edge"><title>dir_6d6d18888f500cef1caa23d8e9a04249&#45;&gt;dir_566a3ff4a5a303bab03e0e4ba38c8a31</title>
<path fill="none" stroke="black" d="M37.0843,-71.6966C36.2886,-63.9827 36.0621,-54.7125 36.4047,-46.1124"/>
<polygon fill="black" stroke="black" points="39.8984,-46.3243 37.105,-36.1043 32.9154,-45.8356 39.8984,-46.3243"/>
<g id="a_edge2&#45;headlabel"><a xlink:href="dir_000037_000033.html" target="_top" xlink:title="4">
<text text-anchor="middle" x="42.4799" y="-47.6083" font-family="Helvetica,sans-Serif" font-size="10.00">4</text>
</a>
</g>
</g>
<!-- dir_566a3ff4a5a303bab03e0e4ba38c8a31&#45;&gt;dir_6d6d18888f500cef1caa23d8e9a04249 -->
<g id="edge1" class="edge"><title>dir_566a3ff4a5a303bab03e0e4ba38c8a31&#45;&gt;dir_6d6d18888f500cef1caa23d8e9a04249</title>
<path fill="none" stroke="black" d="M48.895,-36.1043C49.7005,-43.7913 49.9369,-53.0537 49.604,-61.6651"/>
<polygon fill="black" stroke="black" points="46.1085,-61.4805 48.9157,-71.6966 53.0921,-61.9597 46.1085,-61.4805"/>
<g id="a_edge1&#45;headlabel"><a xlink:href="dir_000033_000037.html" target="_top" xlink:title="1">
<text text-anchor="middle" x="43.5219" y="-55.2" font-family="Helvetica,sans-Serif" font-size="10.00">1</text>
</a>
</g>
</g>
</g>
</svg>
