<?xml version="1.0" encoding="UTF-8" standalone="no"?>
<!DOCTYPE svg PUBLIC "-//W3C//DTD SVG 1.1//EN"
 "http://www.w3.org/Graphics/SVG/1.1/DTD/svg11.dtd">
<!-- Generated by graphviz version 2.38.0 (20140413.2041)
 -->
<!-- Title: libraries Pages: 1 -->
<svg width="210pt" height="364pt"
 viewBox="0.00 0.00 210.00 364.00" xmlns="http://www.w3.org/2000/svg" xmlns:xlink="http://www.w3.org/1999/xlink">
<g id="graph0" class="graph" transform="scale(1 1) rotate(0) translate(4 360)">
<title>libraries</title>
<polygon fill="white" stroke="none" points="-4,4 -4,-360 206,-360 206,4 -4,4"/>
<g id="clust1" class="cluster"><title>clusterdir_bc0718b08fb2015b8e59c47b2805f60c</title>
<g id="a_clust1"><a xlink:href="dir_bc0718b08fb2015b8e59c47b2805f60c.html" target="_top">
<polygon fill="#eeeeff" stroke="black" points="8,-8 8,-348 194,-348 194,-8 8,-8"/>
</a>
</g>
</g>
<!-- dir_bc0718b08fb2015b8e59c47b2805f60c -->
<g id="node1" class="node"><title>dir_bc0718b08fb2015b8e59c47b2805f60c</title>
<text text-anchor="middle" x="144" y="-319.5" font-family="Helvetica,sans-Serif" font-size="10.00">libraries</text>
</g>
<!-- dir_739af9132a68080d8ad3f48982bb0ae5 -->
<g id="node2" class="node"><title>dir_739af9132a68080d8ad3f48982bb0ae5</title>
<g id="a_node2"><a xlink:href="dir_739af9132a68080d8ad3f48982bb0ae5.html" target="_top" xlink:title="agent">
<polygon fill="white" stroke="black" points="85,-340 31,-340 31,-304 85,-304 85,-340"/>
<text text-anchor="middle" x="58" y="-319.5" font-family="Helvetica,sans-Serif" font-size="10.00">agent</text>
</a>
</g>
</g>
<!-- dir_89e1dd23c9798627a4fa5c93437cdf71 -->
<g id="node3" class="node"><title>dir_89e1dd23c9798627a4fa5c93437cdf71</title>
<g id="a_node3"><a xlink:href="dir_89e1dd23c9798627a4fa5c93437cdf71.html" target="_top" xlink:title="device">
<polygon fill="white" stroke="red" points="85,-268 31,-268 31,-232 85,-232 85,-268"/>
<text text-anchor="middle" x="58" y="-247.5" font-family="Helvetica,sans-Serif" font-size="10.00">device</text>
</a>
</g>
</g>
<!-- dir_739af9132a68080d8ad3f48982bb0ae5&#45;&gt;dir_89e1dd23c9798627a4fa5c93437cdf71 -->
<g id="edge7" class="edge"><title>dir_739af9132a68080d8ad3f48982bb0ae5&#45;&gt;dir_89e1dd23c9798627a4fa5c93437cdf71</title>
<path fill="none" stroke="black" d="M52.0843,-303.697C51.2886,-295.983 51.0621,-286.712 51.4047,-278.112"/>
<polygon fill="black" stroke="black" points="54.8984,-278.324 52.105,-268.104 47.9154,-277.836 54.8984,-278.324"/>
<g id="a_edge7&#45;headlabel"><a xlink:href="dir_000024_000001.html" target="_top" xlink:title="1">
<text text-anchor="middle" x="57.4799" y="-279.608" font-family="Helvetica,sans-Serif" font-size="10.00">1</text>
</a>
</g>
</g>
<!-- dir_566a3ff4a5a303bab03e0e4ba38c8a31 -->
<g id="node6" class="node"><title>dir_566a3ff4a5a303bab03e0e4ba38c8a31</title>
<g id="a_node6"><a xlink:href="dir_566a3ff4a5a303bab03e0e4ba38c8a31.html" target="_top" xlink:title="support">
<polygon fill="white" stroke="red" points="100,-196 46,-196 46,-160 100,-160 100,-196"/>
<text text-anchor="middle" x="73" y="-175.5" font-family="Helvetica,sans-Serif" font-size="10.00">support</text>
</a>
</g>
</g>
<!-- dir_739af9132a68080d8ad3f48982bb0ae5&#45;&gt;dir_566a3ff4a5a303bab03e0e4ba38c8a31 -->
<g id="edge6" class="edge"><title>dir_739af9132a68080d8ad3f48982bb0ae5&#45;&gt;dir_566a3ff4a5a303bab03e0e4ba38c8a31</title>
<path fill="none" stroke="black" d="M73.6099,-303.774C81.3729,-294.03 89.9459,-281.184 94,-268 100.378,-247.258 93.9585,-223.293 86.589,-205.46"/>
<polygon fill="black" stroke="black" points="89.7463,-203.947 82.4724,-196.243 83.3548,-206.801 89.7463,-203.947"/>
<g id="a_edge6&#45;headlabel"><a xlink:href="dir_000024_000033.html" target="_top" xlink:title="18">
<text text-anchor="middle" x="93.8046" y="-203.571" font-family="Helvetica,sans-Serif" font-size="10.00">18</text>
</a>
</g>
</g>
<!-- dir_89e1dd23c9798627a4fa5c93437cdf71&#45;&gt;dir_739af9132a68080d8ad3f48982bb0ae5 -->
<g id="edge12" class="edge"><title>dir_89e1dd23c9798627a4fa5c93437cdf71&#45;&gt;dir_739af9132a68080d8ad3f48982bb0ae5</title>
<path fill="none" stroke="black" d="M63.895,-268.104C64.7005,-275.791 64.9369,-285.054 64.604,-293.665"/>
<polygon fill="black" stroke="black" points="61.1085,-293.48 63.9157,-303.697 68.0921,-293.96 61.1085,-293.48"/>
<g id="a_edge12&#45;headlabel"><a xlink:href="dir_000001_000024.html" target="_top" xlink:title="2">
<text text-anchor="middle" x="58.5219" y="-287.2" font-family="Helvetica,sans-Serif" font-size="10.00">2</text>
</a>
</g>
</g>
<!-- dir_9a8b31d1dfb38e26822c551fe4043c03 -->
<g id="node4" class="node"><title>dir_9a8b31d1dfb38e26822c551fe4043c03</title>
<g id="a_node4"><a xlink:href="dir_9a8b31d1dfb38e26822c551fe4043c03.html" target="_top" xlink:title="math">
<polygon fill="white" stroke="black" points="70,-52 16,-52 16,-16 70,-16 70,-52"/>
<text text-anchor="middle" x="43" y="-31.5" font-family="Helvetica,sans-Serif" font-size="10.00">math</text>
</a>
</g>
</g>
<!-- dir_89e1dd23c9798627a4fa5c93437cdf71&#45;&gt;dir_9a8b31d1dfb38e26822c551fe4043c03 -->
<g id="edge10" class="edge"><title>dir_89e1dd23c9798627a4fa5c93437cdf71&#45;&gt;dir_9a8b31d1dfb38e26822c551fe4043c03</title>
<path fill="none" stroke="black" d="M49.2816,-231.833C44.6255,-221.694 39.3755,-208.444 37,-196 28.1413,-149.594 33.5843,-94.3371 38.3132,-62.1108"/>
<polygon fill="black" stroke="black" points="41.79,-62.5298 39.8678,-52.1108 34.8731,-61.4544 41.79,-62.5298"/>
<g id="a_edge10&#45;headlabel"><a xlink:href="dir_000001_000035.html" target="_top" xlink:title="5">
<text text-anchor="middle" x="44.0434" y="-64.0179" font-family="Helvetica,sans-Serif" font-size="10.00">5</text>
</a>
</g>
</g>
<!-- dir_89e1dd23c9798627a4fa5c93437cdf71&#45;&gt;dir_566a3ff4a5a303bab03e0e4ba38c8a31 -->
<g id="edge11" class="edge"><title>dir_89e1dd23c9798627a4fa5c93437cdf71&#45;&gt;dir_566a3ff4a5a303bab03e0e4ba38c8a31</title>
<path fill="none" stroke="black" d="M55.7921,-231.697C56.6588,-223.898 58.4482,-214.509 60.6671,-205.829"/>
<polygon fill="black" stroke="black" points="64.0637,-206.681 63.4398,-196.104 57.332,-204.761 64.0637,-206.681"/>
<g id="a_edge11&#45;headlabel"><a xlink:href="dir_000001_000033.html" target="_top" xlink:title="61">
<text text-anchor="middle" x="65.8087" y="-208.416" font-family="Helvetica,sans-Serif" font-size="10.00">61</text>
</a>
</g>
</g>
<!-- dir_9a8b31d1dfb38e26822c551fe4043c03&#45;&gt;dir_566a3ff4a5a303bab03e0e4ba38c8a31 -->
<g id="edge1" class="edge"><title>dir_9a8b31d1dfb38e26822c551fe4043c03&#45;&gt;dir_566a3ff4a5a303bab03e0e4ba38c8a31</title>
<path fill="none" stroke="black" d="M48.4027,-52.0328C49.8378,-70.1726 49.7506,-99.5756 56,-124 58.2758,-132.894 62.1423,-142.053 65.8221,-150.203"/>
<polygon fill="black" stroke="black" points="62.7577,-151.918 70.0987,-159.557 69.124,-149.008 62.7577,-151.918"/>
<g id="a_edge1&#45;headlabel"><a xlink:href="dir_000035_000033.html" target="_top" xlink:title="8">
<text text-anchor="middle" x="58.681" y="-147.329" font-family="Helvetica,sans-Serif" font-size="10.00">8</text>
</a>
</g>
</g>
<!-- dir_b741540ffa95870770d8883c9def5afb -->
<g id="node5" class="node"><title>dir_b741540ffa95870770d8883c9def5afb</title>
<g id="a_node5"><a xlink:href="dir_b741540ffa95870770d8883c9def5afb.html" target="_top" xlink:title="physics">
<polygon fill="white" stroke="black" points="110,-124 56,-124 56,-88 110,-88 110,-124"/>
<text text-anchor="middle" x="83" y="-103.5" font-family="Helvetica,sans-Serif" font-size="10.00">physics</text>
</a>
</g>
</g>
<!-- dir_b741540ffa95870770d8883c9def5afb&#45;&gt;dir_9a8b31d1dfb38e26822c551fe4043c03 -->
<g id="edge8" class="edge"><title>dir_b741540ffa95870770d8883c9def5afb&#45;&gt;dir_9a8b31d1dfb38e26822c551fe4043c03</title>
<path fill="none" stroke="black" d="M73.1124,-87.6966C68.5107,-79.6436 62.9397,-69.8945 57.8471,-60.9824"/>
<polygon fill="black" stroke="black" points="60.7742,-59.0503 52.7739,-52.1043 54.6965,-62.5233 60.7742,-59.0503"/>
<g id="a_edge8&#45;headlabel"><a xlink:href="dir_000034_000035.html" target="_top" xlink:title="2">
<text text-anchor="middle" x="65.0228" y="-58.2626" font-family="Helvetica,sans-Serif" font-size="10.00">2</text>
</a>
</g>
</g>
<!-- dir_b741540ffa95870770d8883c9def5afb&#45;&gt;dir_566a3ff4a5a303bab03e0e4ba38c8a31 -->
<g id="edge9" class="edge"><title>dir_b741540ffa95870770d8883c9def5afb&#45;&gt;dir_566a3ff4a5a303bab03e0e4ba38c8a31</title>
<path fill="none" stroke="black" d="M86.4516,-124.104C86.1589,-131.791 85.072,-141.054 83.509,-149.665"/>
<polygon fill="black" stroke="black" points="80.0324,-149.189 81.3876,-159.697 86.8809,-150.637 80.0324,-149.189"/>
<g id="a_edge9&#45;headlabel"><a xlink:href="dir_000034_000033.html" target="_top" xlink:title="16">
<text text-anchor="middle" x="77.9982" y="-142.585" font-family="Helvetica,sans-Serif" font-size="10.00">16</text>
</a>
</g>
</g>
<!-- dir_566a3ff4a5a303bab03e0e4ba38c8a31&#45;&gt;dir_89e1dd23c9798627a4fa5c93437cdf71 -->
<g id="edge5" class="edge"><title>dir_566a3ff4a5a303bab03e0e4ba38c8a31&#45;&gt;dir_89e1dd23c9798627a4fa5c93437cdf71</title>
<path fill="none" stroke="black" d="M75.2298,-196.104C74.3789,-203.876 72.6011,-213.257 70.3895,-221.949"/>
<polygon fill="black" stroke="black" points="66.9863,-221.121 67.6236,-231.697 73.7205,-223.032 66.9863,-221.121"/>
<g id="a_edge5&#45;headlabel"><a xlink:href="dir_000033_000001.html" target="_top" xlink:title="2">
<text text-anchor="middle" x="65.236" y="-214.388" font-family="Helvetica,sans-Serif" font-size="10.00">2</text>
</a>
</g>
</g>
<!-- dir_566a3ff4a5a303bab03e0e4ba38c8a31&#45;&gt;dir_9a8b31d1dfb38e26822c551fe4043c03 -->
<g id="edge2" class="edge"><title>dir_566a3ff4a5a303bab03e0e4ba38c8a31&#45;&gt;dir_9a8b31d1dfb38e26822c551fe4043c03</title>
<path fill="none" stroke="black" d="M54.2448,-159.557C47.5495,-149.545 41.2011,-136.511 38,-124 32.8003,-103.678 31.9873,-79.9097 33.7105,-62.0499"/>
<polygon fill="black" stroke="black" points="37.1937,-62.4083 35.0491,-52.0328 30.2553,-61.4812 37.1937,-62.4083"/>
<g id="a_edge2&#45;headlabel"><a xlink:href="dir_000033_000035.html" target="_top" xlink:title="14">
<text text-anchor="middle" x="39.5319" y="-63.8473" font-family="Helvetica,sans-Serif" font-size="10.00">14</text>
</a>
</g>
</g>
<!-- dir_566a3ff4a5a303bab03e0e4ba38c8a31&#45;&gt;dir_b741540ffa95870770d8883c9def5afb -->
<g id="edge3" class="edge"><title>dir_566a3ff4a5a303bab03e0e4ba38c8a31&#45;&gt;dir_b741540ffa95870770d8883c9def5afb</title>
<path fill="none" stroke="black" d="M69.5562,-159.697C69.8625,-151.983 70.9603,-142.712 72.5315,-134.112"/>
<polygon fill="black" stroke="black" points="76.0031,-134.614 74.6615,-124.104 69.1564,-133.157 76.0031,-134.614"/>
<g id="a_edge3&#45;headlabel"><a xlink:href="dir_000033_000034.html" target="_top" xlink:title="1">
<text text-anchor="middle" x="78.032" y="-136.221" font-family="Helvetica,sans-Serif" font-size="10.00">1</text>
</a>
</g>
</g>
<!-- dir_5773f15e83476c19a1fcaed287799864 -->
<g id="node7" class="node"><title>dir_5773f15e83476c19a1fcaed287799864</title>
<g id="a_node7"><a xlink:href="dir_5773f15e83476c19a1fcaed287799864.html" target="_top" xlink:title="thirdparty">
<polygon fill="white" stroke="red" points="185.5,-124 128.5,-124 128.5,-88 185.5,-88 185.5,-124"/>
<text text-anchor="middle" x="157" y="-103.5" font-family="Helvetica,sans-Serif" font-size="10.00">thirdparty</text>
</a>
</g>
</g>
<!-- dir_566a3ff4a5a303bab03e0e4ba38c8a31&#45;&gt;dir_5773f15e83476c19a1fcaed287799864 -->
<g id="edge4" class="edge"><title>dir_566a3ff4a5a303bab03e0e4ba38c8a31&#45;&gt;dir_5773f15e83476c19a1fcaed287799864</title>
<path fill="none" stroke="black" d="M93.7641,-159.697C104.241,-150.965 117.111,-140.24 128.5,-130.75"/>
<polygon fill="black" stroke="black" points="131.033,-133.195 136.475,-124.104 126.552,-127.817 131.033,-133.195"/>
<g id="a_edge4&#45;headlabel"><a xlink:href="dir_000033_000006.html" target="_top" xlink:title="2">
<text text-anchor="middle" x="130.089" y="-135.177" font-family="Helvetica,sans-Serif" font-size="10.00">2</text>
</a>
</g>
</g>
</g>
</svg>
