<?xml version="1.0" encoding="UTF-8" standalone="no"?>
<!DOCTYPE svg PUBLIC "-//W3C//DTD SVG 1.1//EN"
 "http://www.w3.org/Graphics/SVG/1.1/DTD/svg11.dtd">
<!-- Generated by graphviz version 2.38.0 (20140413.2041)
 -->
<!-- Title: agents Pages: 1 -->
<!--zoomable 159 -->
<svg id="main" version="1.1" xmlns="http://www.w3.org/2000/svg" xmlns:xlink="http://www.w3.org/1999/xlink" xml:space="preserve" onload="init(evt)">
<style type="text/css"><![CDATA[
.edge:hover path { stroke: red; }
.edge:hover polygon { stroke: red; fill: red; }
]]></style>
<script type="text/javascript"><![CDATA[
var edges = document.getElementsByTagName('g');
if (edges && edges.length) {
  for (var i=0;i<edges.length;i++) {
    if (edges[i].id.substr(0,4)=='edge') {
      edges[i].setAttribute('class','edge');
    }
  }
}
]]></script>
        <defs>
                <circle id="rim" cx="0" cy="0" r="7"/>
                <circle id="rim2" cx="0" cy="0" r="3.5"/>
                <g id="zoomPlus">
                        <use xlink:href="#rim" fill="#404040">
                                <set attributeName="fill" to="#808080" begin="zoomplus.mouseover" end="zoomplus.mouseout"/>
                        </use>
                        <path d="M-4,0h8M0,-4v8" fill="none" stroke="white" stroke-width="1.5" pointer-events="none"/>
                </g>
                <g id="zoomMin">
                        <use xlink:href="#rim" fill="#404040">
                                <set attributeName="fill" to="#808080" begin="zoomminus.mouseover" end="zoomminus.mouseout"/>
                        </use>
                        <path d="M-4,0h8" fill="none" stroke="white" stroke-width="1.5" pointer-events="none"/>
                </g>
                <g id="dirArrow">
                        <path fill="none" stroke="white" stroke-width="1.5" d="M0,-3.0v7 M-2.5,-0.5L0,-3.0L2.5,-0.5"/>
                </g>
               <g id="resetDef">
                       <use xlink:href="#rim2" fill="#404040">
                               <set attributeName="fill" to="#808080" begin="reset.mouseover" end="reset.mouseout"/>
                       </use>
               </g>
        </defs>

<script type="text/javascript">
var viewWidth = 1174;
var viewHeight = 159;
var sectionId = 'dynsection-0';
</script>
<script xlink:href="svgpan.js"/>
<svg id="graph" class="graph">
<g id="viewport">
<title>agents</title>
<polygon fill="white" stroke="none" points="-4,4 -4,-155 1170,-155 1170,4 -4,4"/>
<g id="clust1" class="cluster"><title>clusterdir_0d353d24d0afa59909efab6593124f6d</title>
<g id="a_clust1"><a xlink:href="dir_0d353d24d0afa59909efab6593124f6d.html" target="_top" xlink:title="tutorials">
<polygon fill="#ddddee" stroke="black" points="8,-56 8,-143 1158,-143 1158,-56 8,-56"/>
<text text-anchor="middle" x="583" y="-131" font-family="Helvetica,sans-Serif" font-size="10.00">tutorials</text>
</a>
</g>
</g>
<g id="clust2" class="cluster"><title>clusterdir_de2ddffd02070d381f43b5b22cb08a64</title>
<g id="a_clust2"><a xlink:href="dir_de2ddffd02070d381f43b5b22cb08a64.html" target="_top">
<polygon fill="#eeeeff" stroke="black" points="16,-64 16,-116 1150,-116 1150,-64 16,-64"/>
</a>
</g>
</g>
<!-- dir_de2ddffd02070d381f43b5b22cb08a64 -->
<g id="node1" class="node"><title>dir_de2ddffd02070d381f43b5b22cb08a64</title>
<text text-anchor="middle" x="1115" y="-87.5" font-family="Helvetica,sans-Serif" font-size="10.00">agents</text>
</g>
<!-- dir_cc701361d3a0317adc89676d3ffe54d6 -->
<g id="node2" class="node"><title>dir_cc701361d3a0317adc89676d3ffe54d6</title>
<g id="a_node2"><a xlink:href="dir_cc701361d3a0317adc89676d3ffe54d6.html" target="_top" xlink:title="agent_001">
<polygon fill="white" stroke="black" points="1070,-108 1008,-108 1008,-72 1070,-72 1070,-108"/>
<text text-anchor="middle" x="1039" y="-87.5" font-family="Helvetica,sans-Serif" font-size="10.00">agent_001</text>
</a>
</g>
</g>
<!-- dir_bc0718b08fb2015b8e59c47b2805f60c -->
<g id="node14" class="node"><title>dir_bc0718b08fb2015b8e59c47b2805f60c</title>
<g id="a_node14"><a xlink:href="dir_bc0718b08fb2015b8e59c47b2805f60c.html" target="_top" xlink:title="libraries">
<polygon fill="white" stroke="red" points="620,-36 566,-36 566,-0 620,-0 620,-36"/>
<text text-anchor="middle" x="593" y="-15.5" font-family="Helvetica,sans-Serif" font-size="10.00">libraries</text>
</a>
</g>
</g>
<!-- dir_cc701361d3a0317adc89676d3ffe54d6&#45;&gt;dir_bc0718b08fb2015b8e59c47b2805f60c -->
<g id="edge7" class="edge"><title>dir_cc701361d3a0317adc89676d3ffe54d6&#45;&gt;dir_bc0718b08fb2015b8e59c47b2805f60c</title>
<path fill="none" stroke="black" d="M1022.6,-71.6816C1015.88,-65.6769 1007.66,-59.5626 999,-56 932.789,-28.7573 717.664,-21.4653 630.344,-19.6049"/>
<polygon fill="black" stroke="black" points="630.174,-16.1008 620.105,-19.3994 630.033,-23.0994 630.174,-16.1008"/>
<g id="a_edge7&#45;headlabel"><a xlink:href="dir_000010_000000.html" target="_top" xlink:title="4">
<text text-anchor="middle" x="633.824" y="-10.8342" font-family="Helvetica,sans-Serif" font-size="10.00">4</text>
</a>
</g>
</g>
<!-- dir_595ccfbf0d34f4aecde86869d6531d63 -->
<g id="node3" class="node"><title>dir_595ccfbf0d34f4aecde86869d6531d63</title>
<g id="a_node3"><a xlink:href="dir_595ccfbf0d34f4aecde86869d6531d63.html" target="_top" xlink:title="agent_002">
<polygon fill="white" stroke="black" points="990,-108 928,-108 928,-72 990,-72 990,-108"/>
<text text-anchor="middle" x="959" y="-87.5" font-family="Helvetica,sans-Serif" font-size="10.00">agent_002</text>
</a>
</g>
</g>
<!-- dir_595ccfbf0d34f4aecde86869d6531d63&#45;&gt;dir_bc0718b08fb2015b8e59c47b2805f60c -->
<g id="edge11" class="edge"><title>dir_595ccfbf0d34f4aecde86869d6531d63&#45;&gt;dir_bc0718b08fb2015b8e59c47b2805f60c</title>
<path fill="none" stroke="black" d="M942.556,-71.7827C935.836,-65.7904 927.619,-59.6582 919,-56 867.775,-34.2576 704.836,-24.1507 630.553,-20.5837"/>
<polygon fill="black" stroke="black" points="630.413,-17.0734 620.261,-20.1042 630.087,-24.0658 630.413,-17.0734"/>
<g id="a_edge11&#45;headlabel"><a xlink:href="dir_000011_000000.html" target="_top" xlink:title="3">
<text text-anchor="middle" x="634.136" y="-11.9044" font-family="Helvetica,sans-Serif" font-size="10.00">3</text>
</a>
</g>
</g>
<!-- dir_4e1a1a79ac2307f1c03540afa9038ea1 -->
<g id="node4" class="node"><title>dir_4e1a1a79ac2307f1c03540afa9038ea1</title>
<g id="a_node4"><a xlink:href="dir_4e1a1a79ac2307f1c03540afa9038ea1.html" target="_top" xlink:title="agent_004">
<polygon fill="white" stroke="black" points="910,-108 848,-108 848,-72 910,-72 910,-108"/>
<text text-anchor="middle" x="879" y="-87.5" font-family="Helvetica,sans-Serif" font-size="10.00">agent_004</text>
</a>
</g>
</g>
<!-- dir_4e1a1a79ac2307f1c03540afa9038ea1&#45;&gt;dir_bc0718b08fb2015b8e59c47b2805f60c -->
<g id="edge3" class="edge"><title>dir_4e1a1a79ac2307f1c03540afa9038ea1&#45;&gt;dir_bc0718b08fb2015b8e59c47b2805f60c</title>
<path fill="none" stroke="black" d="M862.484,-71.9474C855.756,-65.9753 847.551,-59.8139 839,-56 769.916,-25.1867 680.212,-19.2173 630.441,-18.5201"/>
<polygon fill="black" stroke="black" points="630.18,-15.0182 620.154,-18.4441 630.128,-22.018 630.18,-15.0182"/>
<g id="a_edge3&#45;headlabel"><a xlink:href="dir_000012_000000.html" target="_top" xlink:title="4">
<text text-anchor="middle" x="633.795" y="-9.70547" font-family="Helvetica,sans-Serif" font-size="10.00">4</text>
</a>
</g>
</g>
<!-- dir_7f19d4c5c2e20f733c2ace9f35cd3a37 -->
<g id="node5" class="node"><title>dir_7f19d4c5c2e20f733c2ace9f35cd3a37</title>
<g id="a_node5"><a xlink:href="dir_7f19d4c5c2e20f733c2ace9f35cd3a37.html" target="_top" xlink:title="agent_005">
<polygon fill="white" stroke="black" points="830,-108 768,-108 768,-72 830,-72 830,-108"/>
<text text-anchor="middle" x="799" y="-87.5" font-family="Helvetica,sans-Serif" font-size="10.00">agent_005</text>
</a>
</g>
</g>
<!-- dir_7f19d4c5c2e20f733c2ace9f35cd3a37&#45;&gt;dir_bc0718b08fb2015b8e59c47b2805f60c -->
<g id="edge1" class="edge"><title>dir_7f19d4c5c2e20f733c2ace9f35cd3a37&#45;&gt;dir_bc0718b08fb2015b8e59c47b2805f60c</title>
<path fill="none" stroke="black" d="M781.947,-71.9188C775.276,-66.0896 767.25,-60.0318 759,-56 717.649,-35.7924 665.111,-26.4756 630.339,-22.2789"/>
<polygon fill="black" stroke="black" points="630.479,-18.7726 620.151,-21.1344 629.698,-25.7289 630.479,-18.7726"/>
<g id="a_edge1&#45;headlabel"><a xlink:href="dir_000013_000000.html" target="_top" xlink:title="4">
<text text-anchor="middle" x="634.368" y="-13.8522" font-family="Helvetica,sans-Serif" font-size="10.00">4</text>
</a>
</g>
</g>
<!-- dir_b739a05bf8e9dc402ec436a832ad5153 -->
<g id="node6" class="node"><title>dir_b739a05bf8e9dc402ec436a832ad5153</title>
<g id="a_node6"><a xlink:href="dir_b739a05bf8e9dc402ec436a832ad5153.html" target="_top" xlink:title="agent_006">
<polygon fill="white" stroke="black" points="750,-108 688,-108 688,-72 750,-72 750,-108"/>
<text text-anchor="middle" x="719" y="-87.5" font-family="Helvetica,sans-Serif" font-size="10.00">agent_006</text>
</a>
</g>
</g>
<!-- dir_b739a05bf8e9dc402ec436a832ad5153&#45;&gt;dir_bc0718b08fb2015b8e59c47b2805f60c -->
<g id="edge8" class="edge"><title>dir_b739a05bf8e9dc402ec436a832ad5153&#45;&gt;dir_bc0718b08fb2015b8e59c47b2805f60c</title>
<path fill="none" stroke="black" d="M700.301,-71.7183C693.846,-66.2693 686.377,-60.503 679,-56 663.605,-46.6026 645.397,-38.3999 629.708,-32.1221"/>
<polygon fill="black" stroke="black" points="630.901,-28.8307 620.313,-28.4685 628.364,-35.3548 630.901,-28.8307"/>
<g id="a_edge8&#45;headlabel"><a xlink:href="dir_000014_000000.html" target="_top" xlink:title="2">
<text text-anchor="middle" x="635.28" y="-24.9872" font-family="Helvetica,sans-Serif" font-size="10.00">2</text>
</a>
</g>
</g>
<!-- dir_fe7a18ad938dd96e26e16a474abaa72f -->
<g id="node7" class="node"><title>dir_fe7a18ad938dd96e26e16a474abaa72f</title>
<g id="a_node7"><a xlink:href="dir_fe7a18ad938dd96e26e16a474abaa72f.html" target="_top" xlink:title="agent_008">
<polygon fill="white" stroke="black" points="670,-108 608,-108 608,-72 670,-72 670,-108"/>
<text text-anchor="middle" x="639" y="-87.5" font-family="Helvetica,sans-Serif" font-size="10.00">agent_008</text>
</a>
</g>
</g>
<!-- dir_fe7a18ad938dd96e26e16a474abaa72f&#45;&gt;dir_bc0718b08fb2015b8e59c47b2805f60c -->
<g id="edge2" class="edge"><title>dir_fe7a18ad938dd96e26e16a474abaa72f&#45;&gt;dir_bc0718b08fb2015b8e59c47b2805f60c</title>
<path fill="none" stroke="black" d="M627.629,-71.6966C622.282,-63.5589 615.796,-53.689 609.889,-44.7013"/>
<polygon fill="black" stroke="black" points="612.657,-42.5393 604.24,-36.1043 606.807,-46.3835 612.657,-42.5393"/>
<g id="a_edge2&#45;headlabel"><a xlink:href="dir_000015_000000.html" target="_top" xlink:title="4">
<text text-anchor="middle" x="617.004" y="-41.484" font-family="Helvetica,sans-Serif" font-size="10.00">4</text>
</a>
</g>
</g>
<!-- dir_bea6445d82c9776923745ed4e9b889aa -->
<g id="node8" class="node"><title>dir_bea6445d82c9776923745ed4e9b889aa</title>
<g id="a_node8"><a xlink:href="dir_bea6445d82c9776923745ed4e9b889aa.html" target="_top" xlink:title="agent_add_soh">
<polygon fill="white" stroke="black" points="589.5,-108 506.5,-108 506.5,-72 589.5,-72 589.5,-108"/>
<text text-anchor="middle" x="548" y="-87.5" font-family="Helvetica,sans-Serif" font-size="10.00">agent_add_soh</text>
</a>
</g>
</g>
<!-- dir_bea6445d82c9776923745ed4e9b889aa&#45;&gt;dir_bc0718b08fb2015b8e59c47b2805f60c -->
<g id="edge10" class="edge"><title>dir_bea6445d82c9776923745ed4e9b889aa&#45;&gt;dir_bc0718b08fb2015b8e59c47b2805f60c</title>
<path fill="none" stroke="black" d="M559.124,-71.6966C564.355,-63.5589 570.7,-53.689 576.478,-44.7013"/>
<polygon fill="black" stroke="black" points="579.541,-46.4088 582.004,-36.1043 573.653,-42.6235 579.541,-46.4088"/>
<g id="a_edge10&#45;headlabel"><a xlink:href="dir_000016_000000.html" target="_top" xlink:title="4">
<text text-anchor="middle" x="579.985" y="-48.4678" font-family="Helvetica,sans-Serif" font-size="10.00">4</text>
</a>
</g>
</g>
<!-- dir_c61fd5d57179b8cbb7011821504466b0 -->
<g id="node9" class="node"><title>dir_c61fd5d57179b8cbb7011821504466b0</title>
<g id="a_node9"><a xlink:href="dir_c61fd5d57179b8cbb7011821504466b0.html" target="_top" xlink:title="agent_calc">
<polygon fill="white" stroke="black" points="488,-108 424,-108 424,-72 488,-72 488,-108"/>
<text text-anchor="middle" x="456" y="-87.5" font-family="Helvetica,sans-Serif" font-size="10.00">agent_calc</text>
</a>
</g>
</g>
<!-- dir_c61fd5d57179b8cbb7011821504466b0&#45;&gt;dir_bc0718b08fb2015b8e59c47b2805f60c -->
<g id="edge6" class="edge"><title>dir_c61fd5d57179b8cbb7011821504466b0&#45;&gt;dir_bc0718b08fb2015b8e59c47b2805f60c</title>
<path fill="none" stroke="black" d="M475.228,-71.9537C482.103,-66.397 490.108,-60.5051 498,-56 516.288,-45.5611 538.095,-36.8338 556.201,-30.4818"/>
<polygon fill="black" stroke="black" points="557.495,-33.7384 565.833,-27.2014 555.238,-27.1121 557.495,-33.7384"/>
<g id="a_edge6&#45;headlabel"><a xlink:href="dir_000018_000000.html" target="_top" xlink:title="5">
<text text-anchor="middle" x="555.008" y="-35.0849" font-family="Helvetica,sans-Serif" font-size="10.00">5</text>
</a>
</g>
</g>
<!-- dir_f577775fa0598a1713ac5ec153134318 -->
<g id="node10" class="node"><title>dir_f577775fa0598a1713ac5ec153134318</title>
<g id="a_node10"><a xlink:href="dir_f577775fa0598a1713ac5ec153134318.html" target="_top" xlink:title="agent_cpu_device_test">
<polygon fill="white" stroke="black" points="405.5,-108 288.5,-108 288.5,-72 405.5,-72 405.5,-108"/>
<text text-anchor="middle" x="347" y="-87.5" font-family="Helvetica,sans-Serif" font-size="10.00">agent_cpu_device_test</text>
</a>
</g>
</g>
<!-- dir_f577775fa0598a1713ac5ec153134318&#45;&gt;dir_bc0718b08fb2015b8e59c47b2805f60c -->
<g id="edge4" class="edge"><title>dir_f577775fa0598a1713ac5ec153134318&#45;&gt;dir_bc0718b08fb2015b8e59c47b2805f60c</title>
<path fill="none" stroke="black" d="M378.141,-71.8869C389.486,-66.1932 402.579,-60.2321 415,-56 462.315,-39.879 519.209,-29.544 555.724,-24.0056"/>
<polygon fill="black" stroke="black" points="556.529,-27.4248 565.912,-22.5048 555.509,-20.4996 556.529,-27.4248"/>
<g id="a_edge4&#45;headlabel"><a xlink:href="dir_000019_000000.html" target="_top" xlink:title="4">
<text text-anchor="middle" x="553.387" y="-28.2576" font-family="Helvetica,sans-Serif" font-size="10.00">4</text>
</a>
</g>
</g>
<!-- dir_58ddbebb41023962da51519049f319ec -->
<g id="node11" class="node"><title>dir_58ddbebb41023962da51519049f319ec</title>
<g id="a_node11"><a xlink:href="dir_58ddbebb41023962da51519049f319ec.html" target="_top" xlink:title="agent_scoot">
<polygon fill="white" stroke="black" points="270,-108 200,-108 200,-72 270,-72 270,-108"/>
<text text-anchor="middle" x="235" y="-87.5" font-family="Helvetica,sans-Serif" font-size="10.00">agent_scoot</text>
</a>
</g>
</g>
<!-- dir_58ddbebb41023962da51519049f319ec&#45;&gt;dir_bc0718b08fb2015b8e59c47b2805f60c -->
<g id="edge9" class="edge"><title>dir_58ddbebb41023962da51519049f319ec&#45;&gt;dir_bc0718b08fb2015b8e59c47b2805f60c</title>
<path fill="none" stroke="black" d="M253.839,-71.8188C261.441,-65.831 270.625,-59.6923 280,-56 329.395,-36.5452 483.732,-25.3256 555.549,-21.0342"/>
<polygon fill="black" stroke="black" points="556.152,-24.505 565.931,-20.4279 555.744,-17.5169 556.152,-24.505"/>
<g id="a_edge9&#45;headlabel"><a xlink:href="dir_000023_000000.html" target="_top" xlink:title="20">
<text text-anchor="middle" x="552.729" y="-25.049" font-family="Helvetica,sans-Serif" font-size="10.00">20</text>
</a>
</g>
</g>
<!-- dir_bed6ad3ccde05cebfcb9c5288df58571 -->
<g id="node12" class="node"><title>dir_bed6ad3ccde05cebfcb9c5288df58571</title>
<g id="a_node12"><a xlink:href="dir_bed6ad3ccde05cebfcb9c5288df58571.html" target="_top" xlink:title="agent_talkfree">
<polygon fill="white" stroke="black" points="182,-108 104,-108 104,-72 182,-72 182,-108"/>
<text text-anchor="middle" x="143" y="-87.5" font-family="Helvetica,sans-Serif" font-size="10.00">agent_talkfree</text>
</a>
</g>
</g>
<!-- dir_bed6ad3ccde05cebfcb9c5288df58571&#45;&gt;dir_bc0718b08fb2015b8e59c47b2805f60c -->
<g id="edge5" class="edge"><title>dir_bed6ad3ccde05cebfcb9c5288df58571&#45;&gt;dir_bc0718b08fb2015b8e59c47b2805f60c</title>
<path fill="none" stroke="black" d="M163.211,-71.6969C171.333,-65.694 181.11,-59.577 191,-56 257.591,-31.9159 469.527,-22.7997 555.863,-20.0277"/>
<polygon fill="black" stroke="black" points="556.105,-23.522 565.991,-19.7133 555.887,-16.5254 556.105,-23.522"/>
<g id="a_edge5&#45;headlabel"><a xlink:href="dir_000022_000000.html" target="_top" xlink:title="2">
<text text-anchor="middle" x="552.6" y="-23.9713" font-family="Helvetica,sans-Serif" font-size="10.00">2</text>
</a>
</g>
</g>
<!-- dir_fe4133d38a4a9afe39f17d3c45cb92c3 -->
<g id="node13" class="node"><title>dir_fe4133d38a4a9afe39f17d3c45cb92c3</title>
<g id="a_node13"><a xlink:href="dir_fe4133d38a4a9afe39f17d3c45cb92c3.html" target="_top" xlink:title="simulation">
<polygon fill="white" stroke="black" points="85.5,-108 24.5,-108 24.5,-72 85.5,-72 85.5,-108"/>
<text text-anchor="middle" x="55" y="-87.5" font-family="Helvetica,sans-Serif" font-size="10.00">simulation</text>
</a>
</g>
</g>
<!-- dir_fe4133d38a4a9afe39f17d3c45cb92c3&#45;&gt;dir_bc0718b08fb2015b8e59c47b2805f60c -->
<g id="edge12" class="edge"><title>dir_fe4133d38a4a9afe39f17d3c45cb92c3&#45;&gt;dir_bc0718b08fb2015b8e59c47b2805f60c</title>
<path fill="none" stroke="black" d="M70.985,-71.9518C77.765,-65.8264 86.1449,-59.5572 95,-56 178.623,-22.4077 454.848,-18.9741 555.71,-18.8699"/>
<polygon fill="black" stroke="black" points="555.743,-22.3698 565.743,-18.8702 555.744,-15.3698 555.743,-22.3698"/>
<g id="a_edge12&#45;headlabel"><a xlink:href="dir_000036_000000.html" target="_top" xlink:title="20">
<text text-anchor="middle" x="552.149" y="-22.7091" font-family="Helvetica,sans-Serif" font-size="10.00">20</text>
</a>
</g>
</g>
</g>
</svg>
        <g id="navigator" transform="translate(0 0)" fill="#404254">
                <rect fill="#f2f5e9" fill-opacity="0.5" stroke="#606060" stroke-width=".5" x="0" y="0" width="60" height="60"/>
                <use id="zoomplus" xlink:href="#zoomPlus" x="17" y="9" onmousedown="handleZoom(evt,'in')"/>
                <use id="zoomminus" xlink:href="#zoomMin" x="42" y="9" onmousedown="handleZoom(evt,'out')"/>
                <use id="reset" xlink:href="#resetDef" x="30" y="36" onmousedown="handleReset()"/>
                <g id="arrowUp" xlink:href="#dirArrow" transform="translate(30 24)" onmousedown="handlePan(0,-1)">
                  <use xlink:href="#rim" fill="#404040">
                        <set attributeName="fill" to="#808080" begin="arrowUp.mouseover" end="arrowUp.mouseout"/>
                  </use>
                  <path fill="none" stroke="white" stroke-width="1.5" d="M0,-3.0v7 M-2.5,-0.5L0,-3.0L2.5,-0.5"/>
                </g>
                <g id="arrowRight" xlink:href="#dirArrow" transform="rotate(90) translate(36 -43)" onmousedown="handlePan(1,0)">
                  <use xlink:href="#rim" fill="#404040">
                        <set attributeName="fill" to="#808080" begin="arrowRight.mouseover" end="arrowRight.mouseout"/>
                  </use>
                  <path fill="none" stroke="white" stroke-width="1.5" d="M0,-3.0v7 M-2.5,-0.5L0,-3.0L2.5,-0.5"/>
                </g>
                <g id="arrowDown" xlink:href="#dirArrow" transform="rotate(180) translate(-30 -48)" onmousedown="handlePan(0,1)">
                  <use xlink:href="#rim" fill="#404040">
                        <set attributeName="fill" to="#808080" begin="arrowDown.mouseover" end="arrowDown.mouseout"/>
                  </use>
                  <path fill="none" stroke="white" stroke-width="1.5" d="M0,-3.0v7 M-2.5,-0.5L0,-3.0L2.5,-0.5"/>
                </g>
                <g id="arrowLeft" xlink:href="#dirArrow" transform="rotate(270) translate(-36 17)" onmousedown="handlePan(-1,0)">
                  <use xlink:href="#rim" fill="#404040">
                        <set attributeName="fill" to="#808080" begin="arrowLeft.mouseover" end="arrowLeft.mouseout"/>
                  </use>
                  <path fill="none" stroke="white" stroke-width="1.5" d="M0,-3.0v7 M-2.5,-0.5L0,-3.0L2.5,-0.5"/>
                </g>
        </g>
        <svg viewBox="0 0 15 15" width="100%" height="30px" preserveAspectRatio="xMaxYMin meet">
         <g id="arrow_out" transform="scale(0.3 0.3)">
          <a xlink:href="dir_de2ddffd02070d381f43b5b22cb08a64_dep_org.svg" target="_base">
           <rect id="button" ry="5" rx="5" y="6" x="6" height="38" width="38"
                fill="#f2f5e9" fill-opacity="0.5" stroke="#606060" stroke-width="1.0"/>
           <path id="arrow"
             d="M 11.500037,31.436501 C 11.940474,20.09759 22.043105,11.32322 32.158766,21.979434 L 37.068811,17.246167 C 37.068811,17.246167 37.088388,32 37.088388,32 L 22.160133,31.978069 C 22.160133,31.978069 26.997745,27.140456 26.997745,27.140456 C 18.528582,18.264221 13.291696,25.230495 11.500037,31.436501 z"
             style="fill:#404040;"/>
          </a>
         </g>
        </svg>
</svg>
