<?xml version="1.0" encoding="UTF-8" standalone="no"?>
<!DOCTYPE svg PUBLIC "-//W3C//DTD SVG 1.1//EN"
 "http://www.w3.org/Graphics/SVG/1.1/DTD/svg11.dtd">
<!-- Generated by graphviz version 2.38.0 (20140413.2041)
 -->
<!-- Title: physics Pages: 1 -->
<svg width="222pt" height="159pt"
 viewBox="0.00 0.00 222.00 159.00" xmlns="http://www.w3.org/2000/svg" xmlns:xlink="http://www.w3.org/1999/xlink">
<g id="graph0" class="graph" transform="scale(1 1) rotate(0) translate(4 155)">
<title>physics</title>
<polygon fill="white" stroke="none" points="-4,4 -4,-155 218,-155 218,4 -4,4"/>
<g id="clust1" class="cluster"><title>clusterdir_0d353d24d0afa59909efab6593124f6d</title>
<g id="a_clust1"><a xlink:href="dir_0d353d24d0afa59909efab6593124f6d.html" target="_top" xlink:title="tutorials">
<polygon fill="#ddddee" stroke="black" points="8,-56 8,-143 206,-143 206,-56 8,-56"/>
<text text-anchor="middle" x="107" y="-131" font-family="Helvetica,sans-Serif" font-size="10.00">tutorials</text>
</a>
</g>
</g>
<g id="clust2" class="cluster"><title>clusterdir_5a901af37ade3dacfeff25631c578a82</title>
<g id="a_clust2"><a xlink:href="dir_5a901af37ade3dacfeff25631c578a82.html" target="_top">
<polygon fill="#eeeeff" stroke="black" points="16,-64 16,-116 198,-116 198,-64 16,-64"/>
</a>
</g>
</g>
<!-- dir_5a901af37ade3dacfeff25631c578a82 -->
<g id="node1" class="node"><title>dir_5a901af37ade3dacfeff25631c578a82</title>
<text text-anchor="middle" x="163" y="-87.5" font-family="Helvetica,sans-Serif" font-size="10.00">physics</text>
</g>
<!-- dir_f84ddb65db9cede299cd242b389266b1 -->
<g id="node2" class="node"><title>dir_f84ddb65db9cede299cd242b389266b1</title>
<g id="a_node2"><a xlink:href="dir_f84ddb65db9cede299cd242b389266b1.html" target="_top" xlink:title="orbital_propagator">
<polygon fill="white" stroke="black" points="118,-108 24,-108 24,-72 118,-72 118,-108"/>
<text text-anchor="middle" x="71" y="-87.5" font-family="Helvetica,sans-Serif" font-size="10.00">orbital_propagator</text>
</a>
</g>
</g>
<!-- dir_bc0718b08fb2015b8e59c47b2805f60c -->
<g id="node3" class="node"><title>dir_bc0718b08fb2015b8e59c47b2805f60c</title>
<g id="a_node3"><a xlink:href="dir_bc0718b08fb2015b8e59c47b2805f60c.html" target="_top" xlink:title="libraries">
<polygon fill="white" stroke="red" points="98,-36 44,-36 44,-0 98,-0 98,-36"/>
<text text-anchor="middle" x="71" y="-15.5" font-family="Helvetica,sans-Serif" font-size="10.00">libraries</text>
</a>
</g>
</g>
<!-- dir_f84ddb65db9cede299cd242b389266b1&#45;&gt;dir_bc0718b08fb2015b8e59c47b2805f60c -->
<g id="edge1" class="edge"><title>dir_f84ddb65db9cede299cd242b389266b1&#45;&gt;dir_bc0718b08fb2015b8e59c47b2805f60c</title>
<path fill="none" stroke="black" d="M71,-71.6966C71,-63.9827 71,-54.7125 71,-46.1124"/>
<polygon fill="black" stroke="black" points="74.5001,-46.1043 71,-36.1043 67.5001,-46.1044 74.5001,-46.1043"/>
<g id="a_edge1&#45;headlabel"><a xlink:href="dir_000047_000000.html" target="_top" xlink:title="10">
<text text-anchor="middle" x="77.3393" y="-47.199" font-family="Helvetica,sans-Serif" font-size="10.00">10</text>
</a>
</g>
</g>
</g>
</svg>
