<?xml version="1.0" encoding="UTF-8" standalone="no"?>
<!DOCTYPE svg PUBLIC "-//W3C//DTD SVG 1.1//EN"
 "http://www.w3.org/Graphics/SVG/1.1/DTD/svg11.dtd">
<!-- Generated by graphviz version 2.38.0 (20140413.2041)
 -->
<!-- Title: namespace Pages: 1 -->
<svg width="294pt" height="159pt"
 viewBox="0.00 0.00 294.00 159.00" xmlns="http://www.w3.org/2000/svg" xmlns:xlink="http://www.w3.org/1999/xlink">
<g id="graph0" class="graph" transform="scale(1 1) rotate(0) translate(4 155)">
<title>namespace</title>
<polygon fill="white" stroke="none" points="-4,4 -4,-155 290,-155 290,4 -4,4"/>
<g id="clust1" class="cluster"><title>clusterdir_0d353d24d0afa59909efab6593124f6d</title>
<g id="a_clust1"><a xlink:href="dir_0d353d24d0afa59909efab6593124f6d.html" target="_top" xlink:title="tutorials">
<polygon fill="#ddddee" stroke="black" points="8,-56 8,-143 278,-143 278,-56 8,-56"/>
<text text-anchor="middle" x="143" y="-131" font-family="Helvetica,sans-Serif" font-size="10.00">tutorials</text>
</a>
</g>
</g>
<g id="clust2" class="cluster"><title>clusterdir_d5c4cbb60f039f49ada0738f088680c4</title>
<g id="a_clust2"><a xlink:href="dir_d5c4cbb60f039f49ada0738f088680c4.html" target="_top">
<polygon fill="#eeeeff" stroke="black" points="16,-64 16,-116 270,-116 270,-64 16,-64"/>
</a>
</g>
</g>
<!-- dir_d5c4cbb60f039f49ada0738f088680c4 -->
<g id="node1" class="node"><title>dir_d5c4cbb60f039f49ada0738f088680c4</title>
<text text-anchor="middle" x="228" y="-87.5" font-family="Helvetica,sans-Serif" font-size="10.00">namespace</text>
</g>
<!-- dir_b68c9de55cf21aae90e1d6ea53a1dfc3 -->
<g id="node2" class="node"><title>dir_b68c9de55cf21aae90e1d6ea53a1dfc3</title>
<g id="a_node2"><a xlink:href="dir_b68c9de55cf21aae90e1d6ea53a1dfc3.html" target="_top" xlink:title="alias">
<polygon fill="white" stroke="black" points="176,-108 122,-108 122,-72 176,-72 176,-108"/>
<text text-anchor="middle" x="149" y="-87.5" font-family="Helvetica,sans-Serif" font-size="10.00">alias</text>
</a>
</g>
</g>
<!-- dir_bc0718b08fb2015b8e59c47b2805f60c -->
<g id="node4" class="node"><title>dir_bc0718b08fb2015b8e59c47b2805f60c</title>
<g id="a_node4"><a xlink:href="dir_bc0718b08fb2015b8e59c47b2805f60c.html" target="_top" xlink:title="libraries">
<polygon fill="white" stroke="red" points="133,-36 79,-36 79,-0 133,-0 133,-36"/>
<text text-anchor="middle" x="106" y="-15.5" font-family="Helvetica,sans-Serif" font-size="10.00">libraries</text>
</a>
</g>
</g>
<!-- dir_b68c9de55cf21aae90e1d6ea53a1dfc3&#45;&gt;dir_bc0718b08fb2015b8e59c47b2805f60c -->
<g id="edge1" class="edge"><title>dir_b68c9de55cf21aae90e1d6ea53a1dfc3&#45;&gt;dir_bc0718b08fb2015b8e59c47b2805f60c</title>
<path fill="none" stroke="black" d="M138.371,-71.6966C133.372,-63.5589 127.309,-53.689 121.788,-44.7013"/>
<polygon fill="black" stroke="black" points="124.723,-42.7931 116.507,-36.1043 118.759,-46.4571 124.723,-42.7931"/>
<g id="a_edge1&#45;headlabel"><a xlink:href="dir_000025_000000.html" target="_top" xlink:title="1">
<text text-anchor="middle" x="129.024" y="-41.8699" font-family="Helvetica,sans-Serif" font-size="10.00">1</text>
</a>
</g>
</g>
<!-- dir_a4db89aabbdcfa863e2e6bd5cef3d1e2 -->
<g id="node3" class="node"><title>dir_a4db89aabbdcfa863e2e6bd5cef3d1e2</title>
<g id="a_node3"><a xlink:href="dir_a4db89aabbdcfa863e2e6bd5cef3d1e2.html" target="_top" xlink:title="generic&#45;device">
<polygon fill="white" stroke="black" points="104,-108 24,-108 24,-72 104,-72 104,-108"/>
<text text-anchor="middle" x="64" y="-87.5" font-family="Helvetica,sans-Serif" font-size="10.00">generic&#45;device</text>
</a>
</g>
</g>
<!-- dir_a4db89aabbdcfa863e2e6bd5cef3d1e2&#45;&gt;dir_bc0718b08fb2015b8e59c47b2805f60c -->
<g id="edge2" class="edge"><title>dir_a4db89aabbdcfa863e2e6bd5cef3d1e2&#45;&gt;dir_bc0718b08fb2015b8e59c47b2805f60c</title>
<path fill="none" stroke="black" d="M74.382,-71.6966C79.2647,-63.5589 85.1866,-53.689 90.5792,-44.7013"/>
<polygon fill="black" stroke="black" points="93.5936,-46.48 95.7374,-36.1043 87.5912,-42.8785 93.5936,-46.48"/>
<g id="a_edge2&#45;headlabel"><a xlink:href="dir_000021_000000.html" target="_top" xlink:title="3">
<text text-anchor="middle" x="94.1789" y="-48.5232" font-family="Helvetica,sans-Serif" font-size="10.00">3</text>
</a>
</g>
</g>
</g>
</svg>
