<?xml version="1.0" encoding="UTF-8" standalone="no"?>
<!DOCTYPE svg PUBLIC "-//W3C//DTD SVG 1.1//EN"
 "http://www.w3.org/Graphics/SVG/1.1/DTD/svg11.dtd">
<!-- Generated by graphviz version 2.38.0 (20140413.2041)
 -->
<!-- Title: tutorials Pages: 1 -->
<!--zoomable 132 -->
<svg id="main" version="1.1" xmlns="http://www.w3.org/2000/svg" xmlns:xlink="http://www.w3.org/1999/xlink" xml:space="preserve" onload="init(evt)">
<style type="text/css"><![CDATA[
.edge:hover path { stroke: red; }
.edge:hover polygon { stroke: red; fill: red; }
]]></style>
<script type="text/javascript"><![CDATA[
var edges = document.getElementsByTagName('g');
if (edges && edges.length) {
  for (var i=0;i<edges.length;i++) {
    if (edges[i].id.substr(0,4)=='edge') {
      edges[i].setAttribute('class','edge');
    }
  }
}
]]></script>
        <defs>
                <circle id="rim" cx="0" cy="0" r="7"/>
                <circle id="rim2" cx="0" cy="0" r="3.5"/>
                <g id="zoomPlus">
                        <use xlink:href="#rim" fill="#404040">
                                <set attributeName="fill" to="#808080" begin="zoomplus.mouseover" end="zoomplus.mouseout"/>
                        </use>
                        <path d="M-4,0h8M0,-4v8" fill="none" stroke="white" stroke-width="1.5" pointer-events="none"/>
                </g>
                <g id="zoomMin">
                        <use xlink:href="#rim" fill="#404040">
                                <set attributeName="fill" to="#808080" begin="zoomminus.mouseover" end="zoomminus.mouseout"/>
                        </use>
                        <path d="M-4,0h8" fill="none" stroke="white" stroke-width="1.5" pointer-events="none"/>
                </g>
                <g id="dirArrow">
                        <path fill="none" stroke="white" stroke-width="1.5" d="M0,-3.0v7 M-2.5,-0.5L0,-3.0L2.5,-0.5"/>
                </g>
               <g id="resetDef">
                       <use xlink:href="#rim2" fill="#404040">
                               <set attributeName="fill" to="#808080" begin="reset.mouseover" end="reset.mouseout"/>
                       </use>
               </g>
        </defs>

<script type="text/javascript">
var viewWidth = 550;
var viewHeight = 132;
var sectionId = 'dynsection-0';
</script>
<script xlink:href="svgpan.js"/>
<svg id="graph" class="graph">
<g id="viewport">
<title>tutorials</title>
<polygon fill="white" stroke="none" points="-4,4 -4,-128 546,-128 546,4 -4,4"/>
<g id="clust1" class="cluster"><title>clusterdir_0d353d24d0afa59909efab6593124f6d</title>
<g id="a_clust1"><a xlink:href="dir_0d353d24d0afa59909efab6593124f6d.html" target="_top">
<polygon fill="#eeeeff" stroke="black" points="8,-64 8,-116 534,-116 534,-64 8,-64"/>
</a>
</g>
</g>
<!-- dir_0d353d24d0afa59909efab6593124f6d -->
<g id="node1" class="node"><title>dir_0d353d24d0afa59909efab6593124f6d</title>
<text text-anchor="middle" x="499" y="-87.5" font-family="Helvetica,sans-Serif" font-size="10.00">tutorials</text>
</g>
<!-- dir_de2ddffd02070d381f43b5b22cb08a64 -->
<g id="node2" class="node"><title>dir_de2ddffd02070d381f43b5b22cb08a64</title>
<g id="a_node2"><a xlink:href="dir_de2ddffd02070d381f43b5b22cb08a64.html" target="_top" xlink:title="agents">
<polygon fill="white" stroke="red" points="454,-108 400,-108 400,-72 454,-72 454,-108"/>
<text text-anchor="middle" x="427" y="-87.5" font-family="Helvetica,sans-Serif" font-size="10.00">agents</text>
</a>
</g>
</g>
<!-- dir_bc0718b08fb2015b8e59c47b2805f60c -->
<g id="node8" class="node"><title>dir_bc0718b08fb2015b8e59c47b2805f60c</title>
<g id="a_node8"><a xlink:href="dir_bc0718b08fb2015b8e59c47b2805f60c.html" target="_top" xlink:title="libraries">
<polygon fill="white" stroke="red" points="224,-36 170,-36 170,-0 224,-0 224,-36"/>
<text text-anchor="middle" x="197" y="-15.5" font-family="Helvetica,sans-Serif" font-size="10.00">libraries</text>
</a>
</g>
</g>
<!-- dir_de2ddffd02070d381f43b5b22cb08a64&#45;&gt;dir_bc0718b08fb2015b8e59c47b2805f60c -->
<g id="edge5" class="edge"><title>dir_de2ddffd02070d381f43b5b22cb08a64&#45;&gt;dir_bc0718b08fb2015b8e59c47b2805f60c</title>
<path fill="none" stroke="black" d="M404.923,-71.7488C400.487,-68.8451 395.73,-66.0979 391,-64 339.212,-41.0306 274.24,-29.0292 234.179,-23.3656"/>
<polygon fill="black" stroke="black" points="234.442,-19.8694 224.063,-21.9958 233.503,-26.8061 234.442,-19.8694"/>
<g id="a_edge5&#45;headlabel"><a xlink:href="dir_000009_000000.html" target="_top" xlink:title="76">
<text text-anchor="middle" x="238.385" y="-15.0381" font-family="Helvetica,sans-Serif" font-size="10.00">76</text>
</a>
</g>
</g>
<!-- dir_c5b7574285f270ebf942746670069a2f -->
<g id="node3" class="node"><title>dir_c5b7574285f270ebf942746670069a2f</title>
<g id="a_node3"><a xlink:href="dir_c5b7574285f270ebf942746670069a2f.html" target="_top" xlink:title="compile">
<polygon fill="white" stroke="red" points="382,-108 328,-108 328,-72 382,-72 382,-108"/>
<text text-anchor="middle" x="355" y="-87.5" font-family="Helvetica,sans-Serif" font-size="10.00">compile</text>
</a>
</g>
</g>
<!-- dir_d5c4cbb60f039f49ada0738f088680c4 -->
<g id="node4" class="node"><title>dir_d5c4cbb60f039f49ada0738f088680c4</title>
<g id="a_node4"><a xlink:href="dir_d5c4cbb60f039f49ada0738f088680c4.html" target="_top" xlink:title="namespace">
<polygon fill="white" stroke="red" points="309.5,-108 242.5,-108 242.5,-72 309.5,-72 309.5,-108"/>
<text text-anchor="middle" x="276" y="-87.5" font-family="Helvetica,sans-Serif" font-size="10.00">namespace</text>
</a>
</g>
</g>
<!-- dir_d5c4cbb60f039f49ada0738f088680c4&#45;&gt;dir_bc0718b08fb2015b8e59c47b2805f60c -->
<g id="edge1" class="edge"><title>dir_d5c4cbb60f039f49ada0738f088680c4&#45;&gt;dir_bc0718b08fb2015b8e59c47b2805f60c</title>
<path fill="none" stroke="black" d="M256.472,-71.6966C246.618,-62.9655 234.514,-52.2405 223.804,-42.7503"/>
<polygon fill="black" stroke="black" points="226.109,-40.1166 216.303,-36.1043 221.467,-45.3558 226.109,-40.1166"/>
<g id="a_edge1&#45;headlabel"><a xlink:href="dir_000020_000000.html" target="_top" xlink:title="4">
<text text-anchor="middle" x="230.683" y="-37.8755" font-family="Helvetica,sans-Serif" font-size="10.00">4</text>
</a>
</g>
</g>
<!-- dir_03af1c557e7e0223a3e8cc85239ff557 -->
<g id="node5" class="node"><title>dir_03af1c557e7e0223a3e8cc85239ff557</title>
<g id="a_node5"><a xlink:href="dir_03af1c557e7e0223a3e8cc85239ff557.html" target="_top" xlink:title="old">
<polygon fill="white" stroke="red" points="224,-108 170,-108 170,-72 224,-72 224,-108"/>
<text text-anchor="middle" x="197" y="-87.5" font-family="Helvetica,sans-Serif" font-size="10.00">old</text>
</a>
</g>
</g>
<!-- dir_03af1c557e7e0223a3e8cc85239ff557&#45;&gt;dir_bc0718b08fb2015b8e59c47b2805f60c -->
<g id="edge3" class="edge"><title>dir_03af1c557e7e0223a3e8cc85239ff557&#45;&gt;dir_bc0718b08fb2015b8e59c47b2805f60c</title>
<path fill="none" stroke="black" d="M197,-71.6966C197,-63.9827 197,-54.7125 197,-46.1124"/>
<polygon fill="black" stroke="black" points="200.5,-46.1043 197,-36.1043 193.5,-46.1044 200.5,-46.1043"/>
<g id="a_edge3&#45;headlabel"><a xlink:href="dir_000030_000000.html" target="_top" xlink:title="10">
<text text-anchor="middle" x="203.339" y="-47.199" font-family="Helvetica,sans-Serif" font-size="10.00">10</text>
</a>
</g>
</g>
<!-- dir_5a901af37ade3dacfeff25631c578a82 -->
<g id="node6" class="node"><title>dir_5a901af37ade3dacfeff25631c578a82</title>
<g id="a_node6"><a xlink:href="dir_5a901af37ade3dacfeff25631c578a82.html" target="_top" xlink:title="physics">
<polygon fill="white" stroke="red" points="152,-108 98,-108 98,-72 152,-72 152,-108"/>
<text text-anchor="middle" x="125" y="-87.5" font-family="Helvetica,sans-Serif" font-size="10.00">physics</text>
</a>
</g>
</g>
<!-- dir_5a901af37ade3dacfeff25631c578a82&#45;&gt;dir_bc0718b08fb2015b8e59c47b2805f60c -->
<g id="edge4" class="edge"><title>dir_5a901af37ade3dacfeff25631c578a82&#45;&gt;dir_bc0718b08fb2015b8e59c47b2805f60c</title>
<path fill="none" stroke="black" d="M142.798,-71.6966C151.604,-63.135 162.382,-52.6562 172.001,-43.3045"/>
<polygon fill="black" stroke="black" points="174.677,-45.5846 179.407,-36.1043 169.797,-40.5657 174.677,-45.5846"/>
<g id="a_edge4&#45;headlabel"><a xlink:href="dir_000046_000000.html" target="_top" xlink:title="10">
<text text-anchor="middle" x="174.079" y="-47.6261" font-family="Helvetica,sans-Serif" font-size="10.00">10</text>
</a>
</g>
</g>
<!-- dir_a1b2c0dd0b7e2f758f6d3a12c6f149da -->
<g id="node7" class="node"><title>dir_a1b2c0dd0b7e2f758f6d3a12c6f149da</title>
<g id="a_node7"><a xlink:href="dir_a1b2c0dd0b7e2f758f6d3a12c6f149da.html" target="_top" xlink:title="playground">
<polygon fill="white" stroke="black" points="80,-108 16,-108 16,-72 80,-72 80,-108"/>
<text text-anchor="middle" x="48" y="-87.5" font-family="Helvetica,sans-Serif" font-size="10.00">playground</text>
</a>
</g>
</g>
<!-- dir_a1b2c0dd0b7e2f758f6d3a12c6f149da&#45;&gt;dir_bc0718b08fb2015b8e59c47b2805f60c -->
<g id="edge2" class="edge"><title>dir_a1b2c0dd0b7e2f758f6d3a12c6f149da&#45;&gt;dir_bc0718b08fb2015b8e59c47b2805f60c</title>
<path fill="none" stroke="black" d="M74.571,-71.9934C79.3061,-69.1956 84.2458,-66.422 89,-64 112.124,-52.2193 139.068,-40.9889 160.259,-32.6939"/>
<polygon fill="black" stroke="black" points="161.791,-35.854 169.856,-28.9832 159.266,-29.3251 161.791,-35.854"/>
<g id="a_edge2&#45;headlabel"><a xlink:href="dir_000028_000000.html" target="_top" xlink:title="13">
<text text-anchor="middle" x="159.462" y="-37.2985" font-family="Helvetica,sans-Serif" font-size="10.00">13</text>
</a>
</g>
</g>
</g>
</svg>
        <g id="navigator" transform="translate(0 0)" fill="#404254">
                <rect fill="#f2f5e9" fill-opacity="0.5" stroke="#606060" stroke-width=".5" x="0" y="0" width="60" height="60"/>
                <use id="zoomplus" xlink:href="#zoomPlus" x="17" y="9" onmousedown="handleZoom(evt,'in')"/>
                <use id="zoomminus" xlink:href="#zoomMin" x="42" y="9" onmousedown="handleZoom(evt,'out')"/>
                <use id="reset" xlink:href="#resetDef" x="30" y="36" onmousedown="handleReset()"/>
                <g id="arrowUp" xlink:href="#dirArrow" transform="translate(30 24)" onmousedown="handlePan(0,-1)">
                  <use xlink:href="#rim" fill="#404040">
                        <set attributeName="fill" to="#808080" begin="arrowUp.mouseover" end="arrowUp.mouseout"/>
                  </use>
                  <path fill="none" stroke="white" stroke-width="1.5" d="M0,-3.0v7 M-2.5,-0.5L0,-3.0L2.5,-0.5"/>
                </g>
                <g id="arrowRight" xlink:href="#dirArrow" transform="rotate(90) translate(36 -43)" onmousedown="handlePan(1,0)">
                  <use xlink:href="#rim" fill="#404040">
                        <set attributeName="fill" to="#808080" begin="arrowRight.mouseover" end="arrowRight.mouseout"/>
                  </use>
                  <path fill="none" stroke="white" stroke-width="1.5" d="M0,-3.0v7 M-2.5,-0.5L0,-3.0L2.5,-0.5"/>
                </g>
                <g id="arrowDown" xlink:href="#dirArrow" transform="rotate(180) translate(-30 -48)" onmousedown="handlePan(0,1)">
                  <use xlink:href="#rim" fill="#404040">
                        <set attributeName="fill" to="#808080" begin="arrowDown.mouseover" end="arrowDown.mouseout"/>
                  </use>
                  <path fill="none" stroke="white" stroke-width="1.5" d="M0,-3.0v7 M-2.5,-0.5L0,-3.0L2.5,-0.5"/>
                </g>
                <g id="arrowLeft" xlink:href="#dirArrow" transform="rotate(270) translate(-36 17)" onmousedown="handlePan(-1,0)">
                  <use xlink:href="#rim" fill="#404040">
                        <set attributeName="fill" to="#808080" begin="arrowLeft.mouseover" end="arrowLeft.mouseout"/>
                  </use>
                  <path fill="none" stroke="white" stroke-width="1.5" d="M0,-3.0v7 M-2.5,-0.5L0,-3.0L2.5,-0.5"/>
                </g>
        </g>
        <svg viewBox="0 0 15 15" width="100%" height="30px" preserveAspectRatio="xMaxYMin meet">
         <g id="arrow_out" transform="scale(0.3 0.3)">
          <a xlink:href="dir_0d353d24d0afa59909efab6593124f6d_dep_org.svg" target="_base">
           <rect id="button" ry="5" rx="5" y="6" x="6" height="38" width="38"
                fill="#f2f5e9" fill-opacity="0.5" stroke="#606060" stroke-width="1.0"/>
           <path id="arrow"
             d="M 11.500037,31.436501 C 11.940474,20.09759 22.043105,11.32322 32.158766,21.979434 L 37.068811,17.246167 C 37.068811,17.246167 37.088388,32 37.088388,32 L 22.160133,31.978069 C 22.160133,31.978069 26.997745,27.140456 26.997745,27.140456 C 18.528582,18.264221 13.291696,25.230495 11.500037,31.436501 z"
             style="fill:#404040;"/>
          </a>
         </g>
        </svg>
</svg>
