<?xml version="1.0" encoding="UTF-8" standalone="no"?>
<!DOCTYPE svg PUBLIC "-//W3C//DTD SVG 1.1//EN"
 "http://www.w3.org/Graphics/SVG/1.1/DTD/svg11.dtd">
<!-- Generated by graphviz version 2.38.0 (20140413.2041)
 -->
<!-- Title: generic&#45;device Pages: 1 -->
<svg width="120pt" height="151pt"
 viewBox="0.00 0.00 120.00 151.00" xmlns="http://www.w3.org/2000/svg" xmlns:xlink="http://www.w3.org/1999/xlink">
<g id="graph0" class="graph" transform="scale(1 1) rotate(0) translate(4 147)">
<title>generic&#45;device</title>
<polygon fill="white" stroke="none" points="-4,4 -4,-147 116,-147 116,4 -4,4"/>
<g id="clust1" class="cluster"><title>clusterdir_d5c4cbb60f039f49ada0738f088680c4</title>
<g id="a_clust1"><a xlink:href="dir_d5c4cbb60f039f49ada0738f088680c4.html" target="_top" xlink:title="namespace">
<polygon fill="#ddddee" stroke="black" points="8,-64 8,-135 104,-135 104,-64 8,-64"/>
<text text-anchor="middle" x="56" y="-123" font-family="Helvetica,sans-Serif" font-size="10.00">namespace</text>
</a>
</g>
</g>
<!-- dir_a4db89aabbdcfa863e2e6bd5cef3d1e2 -->
<g id="node1" class="node"><title>dir_a4db89aabbdcfa863e2e6bd5cef3d1e2</title>
<g id="a_node1"><a xlink:href="dir_a4db89aabbdcfa863e2e6bd5cef3d1e2.html" target="_top" xlink:title="generic&#45;device">
<polygon fill="#eeeeff" stroke="black" points="96,-108 16,-108 16,-72 96,-72 96,-108"/>
<text text-anchor="middle" x="56" y="-87.5" font-family="Helvetica,sans-Serif" font-size="10.00">generic&#45;device</text>
</a>
</g>
</g>
<!-- dir_bc0718b08fb2015b8e59c47b2805f60c -->
<g id="node2" class="node"><title>dir_bc0718b08fb2015b8e59c47b2805f60c</title>
<g id="a_node2"><a xlink:href="dir_bc0718b08fb2015b8e59c47b2805f60c.html" target="_top" xlink:title="libraries">
<polygon fill="white" stroke="red" points="83,-36 29,-36 29,-0 83,-0 83,-36"/>
<text text-anchor="middle" x="56" y="-15.5" font-family="Helvetica,sans-Serif" font-size="10.00">libraries</text>
</a>
</g>
</g>
<!-- dir_a4db89aabbdcfa863e2e6bd5cef3d1e2&#45;&gt;dir_bc0718b08fb2015b8e59c47b2805f60c -->
<g id="edge1" class="edge"><title>dir_a4db89aabbdcfa863e2e6bd5cef3d1e2&#45;&gt;dir_bc0718b08fb2015b8e59c47b2805f60c</title>
<path fill="none" stroke="black" d="M56,-71.6966C56,-63.9827 56,-54.7125 56,-46.1124"/>
<polygon fill="black" stroke="black" points="59.5001,-46.1043 56,-36.1043 52.5001,-46.1044 59.5001,-46.1043"/>
<g id="a_edge1&#45;headlabel"><a xlink:href="dir_000021_000000.html" target="_top" xlink:title="3">
<text text-anchor="middle" x="62.3393" y="-47.199" font-family="Helvetica,sans-Serif" font-size="10.00">3</text>
</a>
</g>
</g>
</g>
</svg>
