<?xml version="1.0" encoding="UTF-8" standalone="no"?>
<!DOCTYPE svg PUBLIC "-//W3C//DTD SVG 1.1//EN"
 "http://www.w3.org/Graphics/SVG/1.1/DTD/svg11.dtd">
<!-- Generated by graphviz version 2.38.0 (20140413.2041)
 -->
<!-- Title: agent_cpu_device_test Pages: 1 -->
<svg width="158pt" height="151pt"
 viewBox="0.00 0.00 158.00 151.00" xmlns="http://www.w3.org/2000/svg" xmlns:xlink="http://www.w3.org/1999/xlink">
<g id="graph0" class="graph" transform="scale(1 1) rotate(0) translate(4 147)">
<title>agent_cpu_device_test</title>
<polygon fill="white" stroke="none" points="-4,4 -4,-147 154,-147 154,4 -4,4"/>
<g id="clust1" class="cluster"><title>clusterdir_de2ddffd02070d381f43b5b22cb08a64</title>
<g id="a_clust1"><a xlink:href="dir_de2ddffd02070d381f43b5b22cb08a64.html" target="_top" xlink:title="agents">
<polygon fill="#ddddee" stroke="black" points="8,-64 8,-135 142,-135 142,-64 8,-64"/>
<text text-anchor="middle" x="75" y="-123" font-family="Helvetica,sans-Serif" font-size="10.00">agents</text>
</a>
</g>
</g>
<!-- dir_f577775fa0598a1713ac5ec153134318 -->
<g id="node1" class="node"><title>dir_f577775fa0598a1713ac5ec153134318</title>
<g id="a_node1"><a xlink:href="dir_f577775fa0598a1713ac5ec153134318.html" target="_top" xlink:title="agent_cpu_device_test">
<polygon fill="#eeeeff" stroke="black" points="133.5,-108 16.5,-108 16.5,-72 133.5,-72 133.5,-108"/>
<text text-anchor="middle" x="75" y="-87.5" font-family="Helvetica,sans-Serif" font-size="10.00">agent_cpu_device_test</text>
</a>
</g>
</g>
<!-- dir_bc0718b08fb2015b8e59c47b2805f60c -->
<g id="node2" class="node"><title>dir_bc0718b08fb2015b8e59c47b2805f60c</title>
<g id="a_node2"><a xlink:href="dir_bc0718b08fb2015b8e59c47b2805f60c.html" target="_top" xlink:title="libraries">
<polygon fill="white" stroke="red" points="102,-36 48,-36 48,-0 102,-0 102,-36"/>
<text text-anchor="middle" x="75" y="-15.5" font-family="Helvetica,sans-Serif" font-size="10.00">libraries</text>
</a>
</g>
</g>
<!-- dir_f577775fa0598a1713ac5ec153134318&#45;&gt;dir_bc0718b08fb2015b8e59c47b2805f60c -->
<g id="edge1" class="edge"><title>dir_f577775fa0598a1713ac5ec153134318&#45;&gt;dir_bc0718b08fb2015b8e59c47b2805f60c</title>
<path fill="none" stroke="black" d="M75,-71.6966C75,-63.9827 75,-54.7125 75,-46.1124"/>
<polygon fill="black" stroke="black" points="78.5001,-46.1043 75,-36.1043 71.5001,-46.1044 78.5001,-46.1043"/>
<g id="a_edge1&#45;headlabel"><a xlink:href="dir_000019_000000.html" target="_top" xlink:title="4">
<text text-anchor="middle" x="81.3393" y="-47.199" font-family="Helvetica,sans-Serif" font-size="10.00">4</text>
</a>
</g>
</g>
</g>
</svg>
