<?xml version="1.0" encoding="UTF-8" standalone="no"?>
<!DOCTYPE svg PUBLIC "-//W3C//DTD SVG 1.1//EN"
 "http://www.w3.org/Graphics/SVG/1.1/DTD/svg11.dtd">
<!-- Generated by graphviz version 2.38.0 (20140413.2041)
 -->
<!-- Title: agent_calc Pages: 1 -->
<svg width="104pt" height="151pt"
 viewBox="0.00 0.00 104.00 151.00" xmlns="http://www.w3.org/2000/svg" xmlns:xlink="http://www.w3.org/1999/xlink">
<g id="graph0" class="graph" transform="scale(1 1) rotate(0) translate(4 147)">
<title>agent_calc</title>
<polygon fill="white" stroke="none" points="-4,4 -4,-147 100,-147 100,4 -4,4"/>
<g id="clust1" class="cluster"><title>clusterdir_de2ddffd02070d381f43b5b22cb08a64</title>
<g id="a_clust1"><a xlink:href="dir_de2ddffd02070d381f43b5b22cb08a64.html" target="_top" xlink:title="agents">
<polygon fill="#ddddee" stroke="black" points="8,-64 8,-135 88,-135 88,-64 8,-64"/>
<text text-anchor="middle" x="48" y="-123" font-family="Helvetica,sans-Serif" font-size="10.00">agents</text>
</a>
</g>
</g>
<!-- dir_c61fd5d57179b8cbb7011821504466b0 -->
<g id="node1" class="node"><title>dir_c61fd5d57179b8cbb7011821504466b0</title>
<g id="a_node1"><a xlink:href="dir_c61fd5d57179b8cbb7011821504466b0.html" target="_top" xlink:title="agent_calc">
<polygon fill="#eeeeff" stroke="black" points="80,-108 16,-108 16,-72 80,-72 80,-108"/>
<text text-anchor="middle" x="48" y="-87.5" font-family="Helvetica,sans-Serif" font-size="10.00">agent_calc</text>
</a>
</g>
</g>
<!-- dir_bc0718b08fb2015b8e59c47b2805f60c -->
<g id="node2" class="node"><title>dir_bc0718b08fb2015b8e59c47b2805f60c</title>
<g id="a_node2"><a xlink:href="dir_bc0718b08fb2015b8e59c47b2805f60c.html" target="_top" xlink:title="libraries">
<polygon fill="white" stroke="red" points="75,-36 21,-36 21,-0 75,-0 75,-36"/>
<text text-anchor="middle" x="48" y="-15.5" font-family="Helvetica,sans-Serif" font-size="10.00">libraries</text>
</a>
</g>
</g>
<!-- dir_c61fd5d57179b8cbb7011821504466b0&#45;&gt;dir_bc0718b08fb2015b8e59c47b2805f60c -->
<g id="edge1" class="edge"><title>dir_c61fd5d57179b8cbb7011821504466b0&#45;&gt;dir_bc0718b08fb2015b8e59c47b2805f60c</title>
<path fill="none" stroke="black" d="M48,-71.6966C48,-63.9827 48,-54.7125 48,-46.1124"/>
<polygon fill="black" stroke="black" points="51.5001,-46.1043 48,-36.1043 44.5001,-46.1044 51.5001,-46.1043"/>
<g id="a_edge1&#45;headlabel"><a xlink:href="dir_000018_000000.html" target="_top" xlink:title="5">
<text text-anchor="middle" x="54.3393" y="-47.199" font-family="Helvetica,sans-Serif" font-size="10.00">5</text>
</a>
</g>
</g>
</g>
</svg>
