<?xml version="1.0" encoding="UTF-8" standalone="no"?>
<!DOCTYPE svg PUBLIC "-//W3C//DTD SVG 1.1//EN"
 "http://www.w3.org/Graphics/SVG/1.1/DTD/svg11.dtd">
<!-- Generated by graphviz version 2.38.0 (20140413.2041)
 -->
<!-- Title: dirent.c Pages: 1 -->
<svg width="306pt" height="84pt"
 viewBox="0.00 0.00 306.00 84.00" xmlns="http://www.w3.org/2000/svg" xmlns:xlink="http://www.w3.org/1999/xlink">
<g id="graph0" class="graph" transform="scale(1 1) rotate(0) translate(4 80)">
<title>dirent.c</title>
<polygon fill="white" stroke="none" points="-4,4 -4,-80 302,-80 302,4 -4,4"/>
<!-- Node1 -->
<g id="node1" class="node"><title>Node1</title>
<polygon fill="#bfbfbf" stroke="black" points="124,-56.5 124,-75.5 173,-75.5 173,-56.5 124,-56.5"/>
<text text-anchor="middle" x="148.5" y="-63.5" font-family="Helvetica,sans-Serif" font-size="10.00">dirent.c</text>
</g>
<!-- Node2 -->
<g id="node2" class="node"><title>Node2</title>
<g id="a_node2"><a xlink:href="dirent_8h.html" target="_top" xlink:title="dirent.h">
<polygon fill="white" stroke="black" points="0,-0.5 0,-19.5 49,-19.5 49,-0.5 0,-0.5"/>
<text text-anchor="middle" x="24.5" y="-7.5" font-family="Helvetica,sans-Serif" font-size="10.00">dirent.h</text>
</a>
</g>
</g>
<!-- Node1&#45;&gt;Node2 -->
<g id="edge1" class="edge"><title>Node1&#45;&gt;Node2</title>
<path fill="none" stroke="midnightblue" d="M128.852,-56.4435C108.535,-47.5961 76.5972,-33.6875 53.4023,-23.5865"/>
<polygon fill="midnightblue" stroke="midnightblue" points="54.6221,-20.3002 44.0562,-19.5164 51.8271,-26.7181 54.6221,-20.3002"/>
</g>
<!-- Node3 -->
<g id="node3" class="node"><title>Node3</title>
<polygon fill="white" stroke="#bfbfbf" points="67,-0.5 67,-19.5 114,-19.5 114,-0.5 67,-0.5"/>
<text text-anchor="middle" x="90.5" y="-7.5" font-family="Helvetica,sans-Serif" font-size="10.00">errno.h</text>
</g>
<!-- Node1&#45;&gt;Node3 -->
<g id="edge2" class="edge"><title>Node1&#45;&gt;Node3</title>
<path fill="none" stroke="midnightblue" d="M139.181,-56.324C130.607,-48.3414 117.688,-36.3128 107.312,-26.6529"/>
<polygon fill="midnightblue" stroke="midnightblue" points="109.692,-24.0865 99.9883,-19.8339 104.922,-29.2098 109.692,-24.0865"/>
</g>
<!-- Node4 -->
<g id="node4" class="node"><title>Node4</title>
<polygon fill="white" stroke="#bfbfbf" points="132.5,-0.5 132.5,-19.5 164.5,-19.5 164.5,-0.5 132.5,-0.5"/>
<text text-anchor="middle" x="148.5" y="-7.5" font-family="Helvetica,sans-Serif" font-size="10.00">io.h</text>
</g>
<!-- Node1&#45;&gt;Node4 -->
<g id="edge3" class="edge"><title>Node1&#45;&gt;Node4</title>
<path fill="none" stroke="midnightblue" d="M148.5,-56.083C148.5,-49.0059 148.5,-38.8611 148.5,-29.9865"/>
<polygon fill="midnightblue" stroke="midnightblue" points="152,-29.751 148.5,-19.7511 145,-29.7511 152,-29.751"/>
</g>
<!-- Node5 -->
<g id="node5" class="node"><title>Node5</title>
<polygon fill="white" stroke="#bfbfbf" points="182.5,-0.5 182.5,-19.5 230.5,-19.5 230.5,-0.5 182.5,-0.5"/>
<text text-anchor="middle" x="206.5" y="-7.5" font-family="Helvetica,sans-Serif" font-size="10.00">stdlib.h</text>
</g>
<!-- Node1&#45;&gt;Node5 -->
<g id="edge4" class="edge"><title>Node1&#45;&gt;Node5</title>
<path fill="none" stroke="midnightblue" d="M157.819,-56.324C166.393,-48.3414 179.312,-36.3128 189.688,-26.6529"/>
<polygon fill="midnightblue" stroke="midnightblue" points="192.078,-29.2098 197.012,-19.8339 187.308,-24.0865 192.078,-29.2098"/>
</g>
<!-- Node6 -->
<g id="node6" class="node"><title>Node6</title>
<polygon fill="white" stroke="#bfbfbf" points="249,-0.5 249,-19.5 298,-19.5 298,-0.5 249,-0.5"/>
<text text-anchor="middle" x="273.5" y="-7.5" font-family="Helvetica,sans-Serif" font-size="10.00">string.h</text>
</g>
<!-- Node1&#45;&gt;Node6 -->
<g id="edge5" class="edge"><title>Node1&#45;&gt;Node6</title>
<path fill="none" stroke="midnightblue" d="M168.307,-56.4435C188.787,-47.5961 220.983,-33.6875 244.365,-23.5865"/>
<polygon fill="midnightblue" stroke="midnightblue" points="245.994,-26.6953 253.786,-19.5164 243.218,-20.2692 245.994,-26.6953"/>
</g>
</g>
</svg>
