<?xml version="1.0" encoding="UTF-8" standalone="no"?>
<!DOCTYPE svg PUBLIC "-//W3C//DTD SVG 1.1//EN"
 "http://www.w3.org/Graphics/SVG/1.1/DTD/svg11.dtd">
<!-- Generated by graphviz version 2.38.0 (20140413.2041)
 -->
<!-- Title: ephemlib.h Pages: 1 -->
<!--zoomable 532 -->
<svg id="main" version="1.1" xmlns="http://www.w3.org/2000/svg" xmlns:xlink="http://www.w3.org/1999/xlink" xml:space="preserve" onload="init(evt)">
<style type="text/css"><![CDATA[
.edge:hover path { stroke: red; }
.edge:hover polygon { stroke: red; fill: red; }
]]></style>
<script type="text/javascript"><![CDATA[
var edges = document.getElementsByTagName('g');
if (edges && edges.length) {
  for (var i=0;i<edges.length;i++) {
    if (edges[i].id.substr(0,4)=='edge') {
      edges[i].setAttribute('class','edge');
    }
  }
}
]]></script>
        <defs>
                <circle id="rim" cx="0" cy="0" r="7"/>
                <circle id="rim2" cx="0" cy="0" r="3.5"/>
                <g id="zoomPlus">
                        <use xlink:href="#rim" fill="#404040">
                                <set attributeName="fill" to="#808080" begin="zoomplus.mouseover" end="zoomplus.mouseout"/>
                        </use>
                        <path d="M-4,0h8M0,-4v8" fill="none" stroke="white" stroke-width="1.5" pointer-events="none"/>
                </g>
                <g id="zoomMin">
                        <use xlink:href="#rim" fill="#404040">
                                <set attributeName="fill" to="#808080" begin="zoomminus.mouseover" end="zoomminus.mouseout"/>
                        </use>
                        <path d="M-4,0h8" fill="none" stroke="white" stroke-width="1.5" pointer-events="none"/>
                </g>
                <g id="dirArrow">
                        <path fill="none" stroke="white" stroke-width="1.5" d="M0,-3.0v7 M-2.5,-0.5L0,-3.0L2.5,-0.5"/>
                </g>
               <g id="resetDef">
                       <use xlink:href="#rim2" fill="#404040">
                               <set attributeName="fill" to="#808080" begin="reset.mouseover" end="reset.mouseout"/>
                       </use>
               </g>
        </defs>

<script type="text/javascript">
var viewWidth = 1751;
var viewHeight = 532;
var sectionId = 'dynsection-0';
</script>
<script xlink:href="svgpan.js"/>
<svg id="graph" class="graph">
<g id="viewport">
<title>ephemlib.h</title>
<polygon fill="white" stroke="none" points="-4,4 -4,-528 1746.88,-528 1746.88,4 -4,4"/>
<!-- Node1 -->
<g id="node1" class="node"><title>Node1</title>
<polygon fill="#bfbfbf" stroke="black" points="1289.88,-504.5 1289.88,-523.5 1353.88,-523.5 1353.88,-504.5 1289.88,-504.5"/>
<text text-anchor="middle" x="1321.88" y="-511.5" font-family="Helvetica,sans-Serif" font-size="10.00">ephemlib.h</text>
</g>
<!-- Node2 -->
<g id="node2" class="node"><title>Node2</title>
<g id="a_node2"><a xlink:href="mathlib_8h.html" target="_top" xlink:title="mathlib include file ">
<polygon fill="white" stroke="black" points="1322.38,-392.5 1322.38,-411.5 1403.38,-411.5 1403.38,-392.5 1322.38,-392.5"/>
<text text-anchor="middle" x="1362.88" y="-399.5" font-family="Helvetica,sans-Serif" font-size="10.00">math/mathlib.h</text>
</a>
</g>
</g>
<!-- Node1&#45;&gt;Node2 -->
<g id="edge1" class="edge"><title>Node1&#45;&gt;Node2</title>
<path fill="none" stroke="midnightblue" d="M1326.72,-504.235C1331.51,-495.309 1338.85,-480.975 1343.88,-468 1349.85,-452.583 1354.99,-434.49 1358.42,-421.313"/>
<polygon fill="midnightblue" stroke="midnightblue" points="1361.82,-422.119 1360.87,-411.567 1355.03,-420.411 1361.82,-422.119"/>
</g>
<!-- Node42 -->
<g id="node42" class="node"><title>Node42</title>
<g id="a_node42"><a xlink:href="convertdef_8h.html" target="_top" xlink:title="support/convertdef.h">
<polygon fill="white" stroke="black" points="1228.88,-448.5 1228.88,-467.5 1334.88,-467.5 1334.88,-448.5 1228.88,-448.5"/>
<text text-anchor="middle" x="1281.88" y="-455.5" font-family="Helvetica,sans-Serif" font-size="10.00">support/convertdef.h</text>
</a>
</g>
</g>
<!-- Node1&#45;&gt;Node42 -->
<g id="edge66" class="edge"><title>Node1&#45;&gt;Node42</title>
<path fill="none" stroke="midnightblue" d="M1315.27,-504.083C1309.62,-496.455 1301.33,-485.264 1294.43,-475.941"/>
<polygon fill="midnightblue" stroke="midnightblue" points="1297.12,-473.703 1288.36,-467.751 1291.5,-477.87 1297.12,-473.703"/>
</g>
<!-- Node3 -->
<g id="node3" class="node"><title>Node3</title>
<g id="a_node3"><a xlink:href="config_cosmos_8h.html" target="_top" xlink:title="Headers and definitions common to all COSMOS. ">
<polygon fill="white" stroke="black" points="948.377,-112.5 948.377,-131.5 1071.38,-131.5 1071.38,-112.5 948.377,-112.5"/>
<text text-anchor="middle" x="1009.88" y="-119.5" font-family="Helvetica,sans-Serif" font-size="10.00">support/configCosmos.h</text>
</a>
</g>
</g>
<!-- Node2&#45;&gt;Node3 -->
<g id="edge2" class="edge"><title>Node2&#45;&gt;Node3</title>
<path fill="none" stroke="midnightblue" d="M1337.89,-392.467C1300.64,-377.972 1234.88,-344.767 1234.88,-291 1234.88,-291 1234.88,-291 1234.88,-233 1234.88,-163.622 1147.47,-137.996 1081.61,-128.533"/>
<polygon fill="midnightblue" stroke="midnightblue" points="1082.03,-125.058 1071.66,-127.2 1081.1,-131.996 1082.03,-125.058"/>
</g>
<!-- Node13 -->
<g id="node13" class="node"><title>Node13</title>
<polygon fill="white" stroke="#bfbfbf" points="1626.88,-56.5 1626.88,-75.5 1670.88,-75.5 1670.88,-56.5 1626.88,-56.5"/>
<text text-anchor="middle" x="1648.88" y="-63.5" font-family="Helvetica,sans-Serif" font-size="10.00">cmath</text>
</g>
<!-- Node2&#45;&gt;Node13 -->
<g id="edge64" class="edge"><title>Node2&#45;&gt;Node13</title>
<path fill="none" stroke="midnightblue" d="M1403.41,-395.546C1488.49,-382.962 1677.88,-348.492 1677.88,-291 1677.88,-291 1677.88,-291 1677.88,-177 1677.88,-143.716 1665.31,-106.584 1656.72,-85.0939"/>
<polygon fill="midnightblue" stroke="midnightblue" points="1659.86,-83.5254 1652.79,-75.6354 1653.4,-86.2128 1659.86,-83.5254"/>
</g>
<!-- Node15 -->
<g id="node15" class="node"><title>Node15</title>
<polygon fill="white" stroke="#bfbfbf" points="1688.88,-56.5 1688.88,-75.5 1742.88,-75.5 1742.88,-56.5 1688.88,-56.5"/>
<text text-anchor="middle" x="1715.88" y="-63.5" font-family="Helvetica,sans-Serif" font-size="10.00">iostream</text>
</g>
<!-- Node2&#45;&gt;Node15 -->
<g id="edge65" class="edge"><title>Node2&#45;&gt;Node15</title>
<path fill="none" stroke="midnightblue" d="M1403.39,-399.824C1456.63,-397.017 1552.14,-387.581 1626.88,-356 1672,-336.934 1715.88,-339.982 1715.88,-291 1715.88,-291 1715.88,-291 1715.88,-177 1715.88,-144.948 1715.88,-107.643 1715.88,-85.7489"/>
<polygon fill="midnightblue" stroke="midnightblue" points="1719.38,-85.5577 1715.88,-75.5578 1712.38,-85.5578 1719.38,-85.5577"/>
</g>
<!-- Node36 -->
<g id="node36" class="node"><title>Node36</title>
<g id="a_node36"><a xlink:href="cosmos-errno_8h.html" target="_top" xlink:title="COSMOS Error Codes. ">
<polygon fill="white" stroke="black" points="1085.38,-336.5 1085.38,-355.5 1204.38,-355.5 1204.38,-336.5 1085.38,-336.5"/>
<text text-anchor="middle" x="1144.88" y="-343.5" font-family="Helvetica,sans-Serif" font-size="10.00">support/cosmos&#45;errno.h</text>
</a>
</g>
</g>
<!-- Node2&#45;&gt;Node36 -->
<g id="edge44" class="edge"><title>Node2&#45;&gt;Node36</title>
<path fill="none" stroke="midnightblue" d="M1328.33,-392.444C1290.62,-383.102 1230.14,-368.119 1189.01,-357.933"/>
<polygon fill="midnightblue" stroke="midnightblue" points="1189.81,-354.524 1179.26,-355.516 1188.12,-361.318 1189.81,-354.524"/>
</g>
<!-- Node38 -->
<g id="node38" class="node"><title>Node38</title>
<g id="a_node38"><a xlink:href="math_2constants_8h.html" target="_top" xlink:title="constants.h">
<polygon fill="white" stroke="black" points="1463.88,-168.5 1463.88,-187.5 1531.88,-187.5 1531.88,-168.5 1463.88,-168.5"/>
<text text-anchor="middle" x="1497.88" y="-175.5" font-family="Helvetica,sans-Serif" font-size="10.00">constants.h</text>
</a>
</g>
</g>
<!-- Node2&#45;&gt;Node38 -->
<g id="edge47" class="edge"><title>Node2&#45;&gt;Node38</title>
<path fill="none" stroke="midnightblue" d="M1376.82,-392.464C1389.18,-384.336 1407.04,-371.123 1418.88,-356 1458.58,-305.296 1483.07,-231.49 1492.9,-197.454"/>
<polygon fill="midnightblue" stroke="midnightblue" points="1496.36,-198.1 1495.68,-187.527 1489.62,-196.216 1496.36,-198.1"/>
</g>
<!-- Node39 -->
<g id="node39" class="node"><title>Node39</title>
<g id="a_node39"><a xlink:href="vector_8h.html" target="_top" xlink:title="vector.h">
<polygon fill="white" stroke="black" points="1409.88,-224.5 1409.88,-243.5 1461.88,-243.5 1461.88,-224.5 1409.88,-224.5"/>
<text text-anchor="middle" x="1435.88" y="-231.5" font-family="Helvetica,sans-Serif" font-size="10.00">vector.h</text>
</a>
</g>
</g>
<!-- Node2&#45;&gt;Node39 -->
<g id="edge50" class="edge"><title>Node2&#45;&gt;Node39</title>
<path fill="none" stroke="midnightblue" d="M1371.69,-392.469C1380.04,-383.945 1392.38,-370.11 1399.88,-356 1417.82,-322.254 1428.02,-278.337 1432.7,-253.764"/>
<polygon fill="midnightblue" stroke="midnightblue" points="1436.2,-254.124 1434.52,-243.662 1429.31,-252.884 1436.2,-254.124"/>
</g>
<!-- Node40 -->
<g id="node40" class="node"><title>Node40</title>
<g id="a_node40"><a xlink:href="matrix_8h.html" target="_top" xlink:title="matrix.h">
<polygon fill="white" stroke="black" points="1279.88,-280.5 1279.88,-299.5 1331.88,-299.5 1331.88,-280.5 1279.88,-280.5"/>
<text text-anchor="middle" x="1305.88" y="-287.5" font-family="Helvetica,sans-Serif" font-size="10.00">matrix.h</text>
</a>
</g>
</g>
<!-- Node2&#45;&gt;Node40 -->
<g id="edge57" class="edge"><title>Node2&#45;&gt;Node40</title>
<path fill="none" stroke="midnightblue" d="M1353.47,-392.198C1344.88,-383.689 1332.42,-370.053 1324.88,-356 1317.06,-341.434 1312.09,-323.257 1309.21,-309.832"/>
<polygon fill="midnightblue" stroke="midnightblue" points="1312.61,-308.998 1307.26,-299.855 1305.74,-310.341 1312.61,-308.998"/>
</g>
<!-- Node41 -->
<g id="node41" class="node"><title>Node41</title>
<g id="a_node41"><a xlink:href="rotation_8h.html" target="_top" xlink:title="rotation.h">
<polygon fill="white" stroke="black" points="1334.38,-336.5 1334.38,-355.5 1391.38,-355.5 1391.38,-336.5 1334.38,-336.5"/>
<text text-anchor="middle" x="1362.88" y="-343.5" font-family="Helvetica,sans-Serif" font-size="10.00">rotation.h</text>
</a>
</g>
</g>
<!-- Node2&#45;&gt;Node41 -->
<g id="edge60" class="edge"><title>Node2&#45;&gt;Node41</title>
<path fill="none" stroke="midnightblue" d="M1362.88,-392.083C1362.88,-385.006 1362.88,-374.861 1362.88,-365.986"/>
<polygon fill="midnightblue" stroke="midnightblue" points="1366.38,-365.751 1362.88,-355.751 1359.38,-365.751 1366.38,-365.751"/>
</g>
<!-- Node4 -->
<g id="node4" class="node"><title>Node4</title>
<polygon fill="white" stroke="#bfbfbf" points="922.377,-56.5 922.377,-75.5 967.377,-75.5 967.377,-56.5 922.377,-56.5"/>
<text text-anchor="middle" x="944.877" y="-63.5" font-family="Helvetica,sans-Serif" font-size="10.00">climits</text>
</g>
<!-- Node3&#45;&gt;Node4 -->
<g id="edge3" class="edge"><title>Node3&#45;&gt;Node4</title>
<path fill="none" stroke="midnightblue" d="M999.434,-112.324C989.731,-104.263 975.062,-92.0765 963.377,-82.3695"/>
<polygon fill="midnightblue" stroke="midnightblue" points="965.439,-79.532 955.511,-75.8339 960.966,-84.9163 965.439,-79.532"/>
</g>
<!-- Node5 -->
<g id="node5" class="node"><title>Node5</title>
<polygon fill="white" stroke="#bfbfbf" points="985.377,-56.5 985.377,-75.5 1032.38,-75.5 1032.38,-56.5 985.377,-56.5"/>
<text text-anchor="middle" x="1008.88" y="-63.5" font-family="Helvetica,sans-Serif" font-size="10.00">csignal</text>
</g>
<!-- Node3&#45;&gt;Node5 -->
<g id="edge4" class="edge"><title>Node3&#45;&gt;Node5</title>
<path fill="none" stroke="midnightblue" d="M1009.71,-112.083C1009.58,-105.006 1009.39,-94.8611 1009.23,-85.9865"/>
<polygon fill="midnightblue" stroke="midnightblue" points="1012.72,-85.6845 1009.04,-75.7511 1005.73,-85.8142 1012.72,-85.6845"/>
</g>
<!-- Node6 -->
<g id="node6" class="node"><title>Node6</title>
<polygon fill="white" stroke="#bfbfbf" points="1524.88,-56.5 1524.88,-75.5 1570.88,-75.5 1570.88,-56.5 1524.88,-56.5"/>
<text text-anchor="middle" x="1547.88" y="-63.5" font-family="Helvetica,sans-Serif" font-size="10.00">cstdint</text>
</g>
<!-- Node3&#45;&gt;Node6 -->
<g id="edge5" class="edge"><title>Node3&#45;&gt;Node6</title>
<path fill="none" stroke="midnightblue" d="M1071.51,-119.199C1165.33,-115.649 1349.59,-105.51 1514.26,-75.9736"/>
<polygon fill="midnightblue" stroke="midnightblue" points="1515.37,-79.3297 1524.58,-74.0927 1514.11,-72.4432 1515.37,-79.3297"/>
</g>
<!-- Node7 -->
<g id="node7" class="node"><title>Node7</title>
<polygon fill="white" stroke="#bfbfbf" points="26.8771,-56.5 26.8771,-75.5 82.8771,-75.5 82.8771,-56.5 26.8771,-56.5"/>
<text text-anchor="middle" x="54.8771" y="-63.5" font-family="Helvetica,sans-Serif" font-size="10.00">cinttypes</text>
</g>
<!-- Node3&#45;&gt;Node7 -->
<g id="edge6" class="edge"><title>Node3&#45;&gt;Node7</title>
<path fill="none" stroke="midnightblue" d="M948.306,-119.505C773.72,-115.029 276.794,-100.587 93.1278,-75.8502"/>
<polygon fill="midnightblue" stroke="midnightblue" points="93.4405,-72.3599 83.0511,-74.4362 92.4676,-79.292 93.4405,-72.3599"/>
</g>
<!-- Node8 -->
<g id="node8" class="node"><title>Node8</title>
<polygon fill="white" stroke="#bfbfbf" points="101.377,-56.5 101.377,-75.5 144.377,-75.5 144.377,-56.5 101.377,-56.5"/>
<text text-anchor="middle" x="122.877" y="-63.5" font-family="Helvetica,sans-Serif" font-size="10.00">cstdio</text>
</g>
<!-- Node3&#45;&gt;Node8 -->
<g id="edge7" class="edge"><title>Node3&#45;&gt;Node8</title>
<path fill="none" stroke="midnightblue" d="M948.118,-119.672C781.546,-115.792 324.695,-103.1 154.739,-75.8864"/>
<polygon fill="midnightblue" stroke="midnightblue" points="155.129,-72.4029 144.687,-74.2004 153.971,-79.3065 155.129,-72.4029"/>
</g>
<!-- Node9 -->
<g id="node9" class="node"><title>Node9</title>
<polygon fill="white" stroke="#bfbfbf" points="162.377,-56.5 162.377,-75.5 211.377,-75.5 211.377,-56.5 162.377,-56.5"/>
<text text-anchor="middle" x="186.877" y="-63.5" font-family="Helvetica,sans-Serif" font-size="10.00">cstddef</text>
</g>
<!-- Node3&#45;&gt;Node9 -->
<g id="edge8" class="edge"><title>Node3&#45;&gt;Node9</title>
<path fill="none" stroke="midnightblue" d="M948.192,-121.854C816.149,-122.74 496.437,-119.858 221.782,-75.9907"/>
<polygon fill="midnightblue" stroke="midnightblue" points="222.052,-72.4888 211.621,-74.3455 220.933,-79.3988 222.052,-72.4888"/>
</g>
<!-- Node10 -->
<g id="node10" class="node"><title>Node10</title>
<polygon fill="white" stroke="#bfbfbf" points="229.377,-56.5 229.377,-75.5 274.377,-75.5 274.377,-56.5 229.377,-56.5"/>
<text text-anchor="middle" x="251.877" y="-63.5" font-family="Helvetica,sans-Serif" font-size="10.00">cstdlib</text>
</g>
<!-- Node3&#45;&gt;Node10 -->
<g id="edge9" class="edge"><title>Node3&#45;&gt;Node10</title>
<path fill="none" stroke="midnightblue" d="M948.182,-121.566C823.984,-121.757 535.034,-117.408 284.488,-75.6863"/>
<polygon fill="midnightblue" stroke="midnightblue" points="284.911,-72.2082 274.467,-73.994 283.745,-79.1104 284.911,-72.2082"/>
</g>
<!-- Node11 -->
<g id="node11" class="node"><title>Node11</title>
<polygon fill="white" stroke="#bfbfbf" points="292.877,-56.5 292.877,-75.5 336.877,-75.5 336.877,-56.5 292.877,-56.5"/>
<text text-anchor="middle" x="314.877" y="-63.5" font-family="Helvetica,sans-Serif" font-size="10.00">cerrno</text>
</g>
<!-- Node3&#45;&gt;Node11 -->
<g id="edge10" class="edge"><title>Node3&#45;&gt;Node11</title>
<path fill="none" stroke="midnightblue" d="M948.009,-121.22C831.707,-120.676 572.629,-114.922 347.127,-75.8351"/>
<polygon fill="midnightblue" stroke="midnightblue" points="347.548,-72.3554 337.093,-74.0697 346.335,-79.2496 347.548,-72.3554"/>
</g>
<!-- Node12 -->
<g id="node12" class="node"><title>Node12</title>
<polygon fill="white" stroke="#bfbfbf" points="354.877,-56.5 354.877,-75.5 400.877,-75.5 400.877,-56.5 354.877,-56.5"/>
<text text-anchor="middle" x="377.877" y="-63.5" font-family="Helvetica,sans-Serif" font-size="10.00">cstring</text>
</g>
<!-- Node3&#45;&gt;Node12 -->
<g id="edge11" class="edge"><title>Node3&#45;&gt;Node12</title>
<path fill="none" stroke="midnightblue" d="M948.049,-120.41C840.5,-118.503 612.054,-110.55 411.314,-75.9082"/>
<polygon fill="midnightblue" stroke="midnightblue" points="411.626,-72.4096 401.172,-74.1309 410.417,-79.3046 411.626,-72.4096"/>
</g>
<!-- Node3&#45;&gt;Node13 -->
<g id="edge12" class="edge"><title>Node3&#45;&gt;Node13</title>
<path fill="none" stroke="midnightblue" d="M1071.55,-117.165C1176.21,-110.424 1395.26,-95.3154 1579.88,-76 1591.93,-74.7392 1605.13,-73.0849 1616.73,-71.5389"/>
<polygon fill="midnightblue" stroke="midnightblue" points="1617.41,-74.9782 1626.85,-70.164 1616.47,-68.0419 1617.41,-74.9782"/>
</g>
<!-- Node14 -->
<g id="node14" class="node"><title>Node14</title>
<polygon fill="white" stroke="#bfbfbf" points="419.377,-56.5 419.377,-75.5 464.377,-75.5 464.377,-56.5 419.377,-56.5"/>
<text text-anchor="middle" x="441.877" y="-63.5" font-family="Helvetica,sans-Serif" font-size="10.00">iosfwd</text>
</g>
<!-- Node3&#45;&gt;Node14 -->
<g id="edge13" class="edge"><title>Node3&#45;&gt;Node14</title>
<path fill="none" stroke="midnightblue" d="M948.288,-119.632C849.949,-116.616 651.419,-107.114 474.489,-75.7347"/>
<polygon fill="midnightblue" stroke="midnightblue" points="474.94,-72.2597 464.478,-73.9314 473.699,-79.1488 474.94,-72.2597"/>
</g>
<!-- Node3&#45;&gt;Node15 -->
<g id="edge14" class="edge"><title>Node3&#45;&gt;Node15</title>
<path fill="none" stroke="midnightblue" d="M1071.71,-120.511C1188.62,-118.79 1450.09,-111.146 1678.68,-75.8936"/>
<polygon fill="midnightblue" stroke="midnightblue" points="1679.52,-79.306 1688.86,-74.3031 1678.44,-72.39 1679.52,-79.306"/>
</g>
<!-- Node16 -->
<g id="node16" class="node"><title>Node16</title>
<polygon fill="white" stroke="#bfbfbf" points="482.877,-56.5 482.877,-75.5 534.877,-75.5 534.877,-56.5 482.877,-56.5"/>
<text text-anchor="middle" x="508.877" y="-63.5" font-family="Helvetica,sans-Serif" font-size="10.00">sstream</text>
</g>
<!-- Node3&#45;&gt;Node16 -->
<g id="edge15" class="edge"><title>Node3&#45;&gt;Node16</title>
<path fill="none" stroke="midnightblue" d="M948.029,-118.092C860.398,-113.295 695.012,-101.754 545.439,-76.0205"/>
<polygon fill="midnightblue" stroke="midnightblue" points="545.608,-72.4971 535.155,-74.2241 544.403,-79.3927 545.608,-72.4971"/>
</g>
<!-- Node17 -->
<g id="node17" class="node"><title>Node17</title>
<polygon fill="white" stroke="#bfbfbf" points="553.377,-56.5 553.377,-75.5 594.377,-75.5 594.377,-56.5 553.377,-56.5"/>
<text text-anchor="middle" x="573.877" y="-63.5" font-family="Helvetica,sans-Serif" font-size="10.00">regex</text>
</g>
<!-- Node3&#45;&gt;Node17 -->
<g id="edge16" class="edge"><title>Node3&#45;&gt;Node17</title>
<path fill="none" stroke="midnightblue" d="M948.281,-117.855C870.098,-113.052 731.082,-101.798 604.526,-76.0159"/>
<polygon fill="midnightblue" stroke="midnightblue" points="605.164,-72.5738 594.661,-73.9711 603.743,-79.4281 605.164,-72.5738"/>
</g>
<!-- Node18 -->
<g id="node18" class="node"><title>Node18</title>
<polygon fill="white" stroke="#bfbfbf" points="1456.88,-56.5 1456.88,-75.5 1506.88,-75.5 1506.88,-56.5 1456.88,-56.5"/>
<text text-anchor="middle" x="1481.88" y="-63.5" font-family="Helvetica,sans-Serif" font-size="10.00">iomanip</text>
</g>
<!-- Node3&#45;&gt;Node18 -->
<g id="edge17" class="edge"><title>Node3&#45;&gt;Node18</title>
<path fill="none" stroke="midnightblue" d="M1071.51,-116.996C1155.77,-110.976 1311.48,-97.9028 1442.88,-76 1444.15,-75.7879 1445.44,-75.5593 1446.75,-75.3176"/>
<polygon fill="midnightblue" stroke="midnightblue" points="1447.69,-78.6962 1456.79,-73.2677 1446.29,-71.8376 1447.69,-78.6962"/>
</g>
<!-- Node19 -->
<g id="node19" class="node"><title>Node19</title>
<polygon fill="white" stroke="#bfbfbf" points="612.377,-56.5 612.377,-75.5 663.377,-75.5 663.377,-56.5 612.377,-56.5"/>
<text text-anchor="middle" x="637.877" y="-63.5" font-family="Helvetica,sans-Serif" font-size="10.00">unistd.h</text>
</g>
<!-- Node3&#45;&gt;Node19 -->
<g id="edge18" class="edge"><title>Node3&#45;&gt;Node19</title>
<path fill="none" stroke="midnightblue" d="M948.334,-115.005C882.619,-108.104 775.299,-95.4029 673.268,-75.8533"/>
<polygon fill="midnightblue" stroke="midnightblue" points="673.895,-72.4099 663.412,-73.94 672.561,-79.2816 673.895,-72.4099"/>
</g>
<!-- Node20 -->
<g id="node20" class="node"><title>Node20</title>
<polygon fill="white" stroke="#bfbfbf" points="681.877,-56.5 681.877,-75.5 725.877,-75.5 725.877,-56.5 681.877,-56.5"/>
<text text-anchor="middle" x="703.877" y="-63.5" font-family="Helvetica,sans-Serif" font-size="10.00">fcntl.h</text>
</g>
<!-- Node3&#45;&gt;Node20 -->
<g id="edge19" class="edge"><title>Node3&#45;&gt;Node20</title>
<path fill="none" stroke="midnightblue" d="M948.304,-113.087C894.597,-105.694 814.449,-93.4846 736.175,-76.0749"/>
<polygon fill="midnightblue" stroke="midnightblue" points="736.67,-72.5985 726.145,-73.8124 735.13,-79.427 736.67,-72.5985"/>
</g>
<!-- Node21 -->
<g id="node21" class="node"><title>Node21</title>
<polygon fill="white" stroke="#bfbfbf" points="743.877,-56.5 743.877,-75.5 783.877,-75.5 783.877,-56.5 743.877,-56.5"/>
<text text-anchor="middle" x="763.877" y="-63.5" font-family="Helvetica,sans-Serif" font-size="10.00">limits</text>
</g>
<!-- Node3&#45;&gt;Node21 -->
<g id="edge20" class="edge"><title>Node3&#45;&gt;Node21</title>
<path fill="none" stroke="midnightblue" d="M962.162,-112.476C920.147,-104.663 857.143,-92.2017 793.837,-76.0599"/>
<polygon fill="midnightblue" stroke="midnightblue" points="794.645,-72.6538 784.087,-73.545 792.896,-79.4319 794.645,-72.6538"/>
</g>
<!-- Node22 -->
<g id="node22" class="node"><title>Node22</title>
<polygon fill="white" stroke="#bfbfbf" points="1511.38,-0.5 1511.38,-19.5 1552.38,-19.5 1552.38,-0.5 1511.38,-0.5"/>
<text text-anchor="middle" x="1531.88" y="-7.5" font-family="Helvetica,sans-Serif" font-size="10.00">string</text>
</g>
<!-- Node3&#45;&gt;Node22 -->
<g id="edge21" class="edge"><title>Node3&#45;&gt;Node22</title>
<path fill="none" stroke="midnightblue" d="M1071.65,-121.184C1151.51,-119.822 1294.07,-111.921 1409.88,-76 1411.17,-75.5999 1471,-43.6025 1506.39,-24.6569"/>
<polygon fill="midnightblue" stroke="midnightblue" points="1508.49,-27.5031 1515.65,-19.6964 1505.18,-21.3323 1508.49,-27.5031"/>
</g>
<!-- Node23 -->
<g id="node23" class="node"><title>Node23</title>
<polygon fill="white" stroke="#bfbfbf" points="1286.88,-0.5 1286.88,-19.5 1330.88,-19.5 1330.88,-0.5 1286.88,-0.5"/>
<text text-anchor="middle" x="1308.88" y="-7.5" font-family="Helvetica,sans-Serif" font-size="10.00">vector</text>
</g>
<!-- Node3&#45;&gt;Node23 -->
<g id="edge22" class="edge"><title>Node3&#45;&gt;Node23</title>
<path fill="none" stroke="midnightblue" d="M1071.59,-120.536C1122.9,-117.671 1196.26,-107.651 1251.88,-76 1271.97,-64.5657 1288.52,-43.3595 1298.51,-28.2801"/>
<polygon fill="midnightblue" stroke="midnightblue" points="1301.48,-30.1469 1303.86,-19.8249 1295.56,-26.404 1301.48,-30.1469"/>
</g>
<!-- Node24 -->
<g id="node24" class="node"><title>Node24</title>
<polygon fill="white" stroke="#bfbfbf" points="802.377,-56.5 802.377,-75.5 843.377,-75.5 843.377,-56.5 802.377,-56.5"/>
<text text-anchor="middle" x="822.877" y="-63.5" font-family="Helvetica,sans-Serif" font-size="10.00">stack</text>
</g>
<!-- Node3&#45;&gt;Node24 -->
<g id="edge23" class="edge"><title>Node3&#45;&gt;Node24</title>
<path fill="none" stroke="midnightblue" d="M978.934,-112.418C949.029,-104.074 902.208,-90.8764 853.266,-76.3691"/>
<polygon fill="midnightblue" stroke="midnightblue" points="854.037,-72.9469 843.454,-73.4512 852.042,-79.6565 854.037,-72.9469"/>
</g>
<!-- Node25 -->
<g id="node25" class="node"><title>Node25</title>
<polygon fill="white" stroke="#bfbfbf" points="861.377,-56.5 861.377,-75.5 904.377,-75.5 904.377,-56.5 861.377,-56.5"/>
<text text-anchor="middle" x="882.877" y="-63.5" font-family="Helvetica,sans-Serif" font-size="10.00">deque</text>
</g>
<!-- Node3&#45;&gt;Node25 -->
<g id="edge24" class="edge"><title>Node3&#45;&gt;Node25</title>
<path fill="none" stroke="midnightblue" d="M989.754,-112.444C968.853,-103.557 935.942,-89.5632 912.161,-79.4514"/>
<polygon fill="midnightblue" stroke="midnightblue" points="913.479,-76.2085 902.907,-75.5164 910.74,-82.6504 913.479,-76.2085"/>
</g>
<!-- Node26 -->
<g id="node26" class="node"><title>Node26</title>
<polygon fill="white" stroke="#bfbfbf" points="712.877,-0.5 712.877,-19.5 756.877,-19.5 756.877,-0.5 712.877,-0.5"/>
<text text-anchor="middle" x="734.877" y="-7.5" font-family="Helvetica,sans-Serif" font-size="10.00">mutex</text>
</g>
<!-- Node3&#45;&gt;Node26 -->
<g id="edge25" class="edge"><title>Node3&#45;&gt;Node26</title>
<path fill="none" stroke="midnightblue" d="M948.25,-120.522C736.523,-118.583 50.0928,-109.71 17.8771,-76 11.7358,-69.5738 11.7918,-62.4793 17.8771,-56 41.6226,-30.7175 565.601,-15.3925 702.43,-11.8123"/>
<polygon fill="midnightblue" stroke="midnightblue" points="702.771,-15.3048 712.678,-11.5473 702.59,-8.30711 702.771,-15.3048"/>
</g>
<!-- Node27 -->
<g id="node27" class="node"><title>Node27</title>
<polygon fill="white" stroke="#bfbfbf" points="176.877,-0.5 176.877,-19.5 220.877,-19.5 220.877,-0.5 176.877,-0.5"/>
<text text-anchor="middle" x="198.877" y="-7.5" font-family="Helvetica,sans-Serif" font-size="10.00">thread</text>
</g>
<!-- Node3&#45;&gt;Node27 -->
<g id="edge26" class="edge"><title>Node3&#45;&gt;Node27</title>
<path fill="none" stroke="midnightblue" d="M948.123,-120.545C735.12,-118.675 42.377,-109.995 9.87714,-76 -37.4804,-26.4635 100.731,-14.673 166.366,-11.8712"/>
<polygon fill="midnightblue" stroke="midnightblue" points="166.748,-15.3593 176.608,-11.4819 166.482,-8.36431 166.748,-15.3593"/>
</g>
<!-- Node28 -->
<g id="node28" class="node"><title>Node28</title>
<polygon fill="white" stroke="#bfbfbf" points="1012.38,-0.5 1012.38,-19.5 1107.38,-19.5 1107.38,-0.5 1012.38,-0.5"/>
<text text-anchor="middle" x="1059.88" y="-7.5" font-family="Helvetica,sans-Serif" font-size="10.00">condition_variable</text>
</g>
<!-- Node3&#45;&gt;Node28 -->
<g id="edge27" class="edge"><title>Node3&#45;&gt;Node28</title>
<path fill="none" stroke="midnightblue" d="M1017.2,-112.217C1024.14,-103.506 1034.44,-89.5371 1040.88,-76 1047.98,-61.0685 1053.01,-42.9276 1056.1,-29.6088"/>
<polygon fill="midnightblue" stroke="midnightblue" points="1059.55,-30.2466 1058.25,-19.7314 1052.71,-28.7601 1059.55,-30.2466"/>
</g>
<!-- Node29 -->
<g id="node29" class="node"><title>Node29</title>
<polygon fill="white" stroke="#bfbfbf" points="1172.38,-0.5 1172.38,-19.5 1215.38,-19.5 1215.38,-0.5 1172.38,-0.5"/>
<text text-anchor="middle" x="1193.88" y="-7.5" font-family="Helvetica,sans-Serif" font-size="10.00">queue</text>
</g>
<!-- Node3&#45;&gt;Node29 -->
<g id="edge28" class="edge"><title>Node3&#45;&gt;Node29</title>
<path fill="none" stroke="midnightblue" d="M1071.6,-115.774C1124.97,-109.825 1196.24,-97.9469 1213.88,-76 1225.04,-62.1076 1216.09,-42.0013 1206.86,-27.8379"/>
<polygon fill="midnightblue" stroke="midnightblue" points="1209.6,-25.6515 1200.96,-19.5138 1203.89,-29.6973 1209.6,-25.6515"/>
</g>
<!-- Node30 -->
<g id="node30" class="node"><title>Node30</title>
<polygon fill="white" stroke="#bfbfbf" points="1233.38,-0.5 1233.38,-19.5 1268.38,-19.5 1268.38,-0.5 1233.38,-0.5"/>
<text text-anchor="middle" x="1250.88" y="-7.5" font-family="Helvetica,sans-Serif" font-size="10.00">map</text>
</g>
<!-- Node3&#45;&gt;Node30 -->
<g id="edge29" class="edge"><title>Node3&#45;&gt;Node30</title>
<path fill="none" stroke="midnightblue" d="M1071.63,-115.461C1128.65,-109.128 1207.89,-96.8452 1230.88,-76 1243.84,-64.2442 1248.5,-44.312 1250.12,-29.6121"/>
<polygon fill="midnightblue" stroke="midnightblue" points="1253.61,-29.8433 1250.86,-19.613 1246.63,-29.3285 1253.61,-29.8433"/>
</g>
<!-- Node31 -->
<g id="node31" class="node"><title>Node31</title>
<g id="a_node31"><a xlink:href="cosmos-defs_8h.html" target="_top" xlink:title="COSMOS definitions Definitions specific to the COSMOS environement. ">
<polygon fill="white" stroke="black" points="1088.88,-56.5 1088.88,-75.5 1204.88,-75.5 1204.88,-56.5 1088.88,-56.5"/>
<text text-anchor="middle" x="1146.88" y="-63.5" font-family="Helvetica,sans-Serif" font-size="10.00">support/cosmos&#45;defs.h</text>
</a>
</g>
</g>
<!-- Node3&#45;&gt;Node31 -->
<g id="edge30" class="edge"><title>Node3&#45;&gt;Node31</title>
<path fill="none" stroke="midnightblue" d="M1031.59,-112.444C1054.23,-103.517 1089.95,-89.4387 1115.63,-79.3168"/>
<polygon fill="midnightblue" stroke="midnightblue" points="1117.25,-82.4397 1125.27,-75.5164 1114.68,-75.9273 1117.25,-82.4397"/>
</g>
<!-- Node33 -->
<g id="node33" class="node"><title>Node33</title>
<g id="a_node33"><a xlink:href="json11_8hpp.html" target="_top" xlink:title="json11.hpp">
<polygon fill="white" stroke="black" points="1336.88,-56.5 1336.88,-75.5 1400.88,-75.5 1400.88,-56.5 1336.88,-56.5"/>
<text text-anchor="middle" x="1368.88" y="-63.5" font-family="Helvetica,sans-Serif" font-size="10.00">json11.hpp</text>
</a>
</g>
</g>
<!-- Node3&#45;&gt;Node33 -->
<g id="edge38" class="edge"><title>Node3&#45;&gt;Node33</title>
<path fill="none" stroke="midnightblue" d="M1071.49,-113.075C1134.72,-104.724 1235.87,-90.7565 1322.88,-76 1324.14,-75.7857 1325.42,-75.5637 1326.72,-75.3357"/>
<polygon fill="midnightblue" stroke="midnightblue" points="1327.54,-78.7438 1336.74,-73.5012 1326.28,-71.8581 1327.54,-78.7438"/>
</g>
<!-- Node31&#45;&gt;Node23 -->
<g id="edge32" class="edge"><title>Node31&#45;&gt;Node23</title>
<path fill="none" stroke="midnightblue" d="M1172.55,-56.4435C1200.84,-47.0118 1246.39,-31.8282 1276.96,-21.6375"/>
<polygon fill="midnightblue" stroke="midnightblue" points="1278.33,-24.8711 1286.71,-18.3884 1276.12,-18.2304 1278.33,-24.8711"/>
</g>
<!-- Node31&#45;&gt;Node26 -->
<g id="edge36" class="edge"><title>Node31&#45;&gt;Node26</title>
<path fill="none" stroke="midnightblue" d="M1088.72,-57.3776C1000.71,-45.8424 836.609,-24.3338 767.203,-15.2369"/>
<polygon fill="midnightblue" stroke="midnightblue" points="767.273,-11.7162 756.903,-13.8869 766.363,-18.6568 767.273,-11.7162"/>
</g>
<!-- Node31&#45;&gt;Node27 -->
<g id="edge35" class="edge"><title>Node31&#45;&gt;Node27</title>
<path fill="none" stroke="midnightblue" d="M1088.86,-59.7441C1073.29,-58.4232 1056.45,-57.0767 1040.88,-56 725.702,-34.2032 343.529,-17.1759 231.309,-12.3672"/>
<polygon fill="midnightblue" stroke="midnightblue" points="231.149,-8.85727 221.009,-11.9277 230.851,-15.8509 231.149,-8.85727"/>
</g>
<!-- Node31&#45;&gt;Node28 -->
<g id="edge37" class="edge"><title>Node31&#45;&gt;Node28</title>
<path fill="none" stroke="midnightblue" d="M1132.9,-56.324C1119.33,-47.9002 1098.5,-34.9709 1082.55,-25.0741"/>
<polygon fill="midnightblue" stroke="midnightblue" points="1084.16,-21.9544 1073.82,-19.6545 1080.47,-27.9019 1084.16,-21.9544"/>
</g>
<!-- Node31&#45;&gt;Node29 -->
<g id="edge34" class="edge"><title>Node31&#45;&gt;Node29</title>
<path fill="none" stroke="midnightblue" d="M1154.64,-56.083C1161.41,-48.2982 1171.42,-36.8015 1179.63,-27.3665"/>
<polygon fill="midnightblue" stroke="midnightblue" points="1182.34,-29.592 1186.26,-19.7511 1177.06,-24.9963 1182.34,-29.592"/>
</g>
<!-- Node31&#45;&gt;Node30 -->
<g id="edge31" class="edge"><title>Node31&#45;&gt;Node30</title>
<path fill="none" stroke="midnightblue" d="M1163.59,-56.324C1180.19,-47.7034 1205.88,-34.3643 1225.1,-24.3855"/>
<polygon fill="midnightblue" stroke="midnightblue" points="1226.95,-27.3689 1234.21,-19.6545 1223.72,-21.1565 1226.95,-27.3689"/>
</g>
<!-- Node32 -->
<g id="node32" class="node"><title>Node32</title>
<polygon fill="white" stroke="#bfbfbf" points="1125.38,-0.5 1125.38,-19.5 1154.38,-19.5 1154.38,-0.5 1125.38,-0.5"/>
<text text-anchor="middle" x="1139.88" y="-7.5" font-family="Helvetica,sans-Serif" font-size="10.00">list</text>
</g>
<!-- Node31&#45;&gt;Node32 -->
<g id="edge33" class="edge"><title>Node31&#45;&gt;Node32</title>
<path fill="none" stroke="midnightblue" d="M1145.72,-56.083C1144.79,-48.9272 1143.46,-38.6353 1142.3,-29.6911"/>
<polygon fill="midnightblue" stroke="midnightblue" points="1145.77,-29.2181 1141.01,-19.7511 1138.83,-30.1181 1145.77,-29.2181"/>
</g>
<!-- Node33&#45;&gt;Node22 -->
<g id="edge39" class="edge"><title>Node33&#45;&gt;Node22</title>
<path fill="none" stroke="midnightblue" d="M1394.7,-56.4435C1423.74,-46.8247 1470.83,-31.2238 1501.58,-21.0372"/>
<polygon fill="midnightblue" stroke="midnightblue" points="1502.94,-24.2739 1511.33,-17.8067 1500.74,-17.6291 1502.94,-24.2739"/>
</g>
<!-- Node33&#45;&gt;Node23 -->
<g id="edge40" class="edge"><title>Node33&#45;&gt;Node23</title>
<path fill="none" stroke="midnightblue" d="M1359.24,-56.324C1350.37,-48.3414 1337,-36.3128 1326.27,-26.6529"/>
<polygon fill="midnightblue" stroke="midnightblue" points="1328.47,-23.922 1318.69,-19.8339 1323.78,-29.1251 1328.47,-23.922"/>
</g>
<!-- Node33&#45;&gt;Node30 -->
<g id="edge41" class="edge"><title>Node33&#45;&gt;Node30</title>
<path fill="none" stroke="midnightblue" d="M1350.18,-56.4435C1330.71,-47.532 1300.01,-33.4856 1277.9,-23.3674"/>
<polygon fill="midnightblue" stroke="midnightblue" points="1279.26,-20.1417 1268.71,-19.1629 1276.35,-26.5068 1279.26,-20.1417"/>
</g>
<!-- Node34 -->
<g id="node34" class="node"><title>Node34</title>
<polygon fill="white" stroke="#bfbfbf" points="1440.88,-0.5 1440.88,-19.5 1492.88,-19.5 1492.88,-0.5 1440.88,-0.5"/>
<text text-anchor="middle" x="1466.88" y="-7.5" font-family="Helvetica,sans-Serif" font-size="10.00">memory</text>
</g>
<!-- Node33&#45;&gt;Node34 -->
<g id="edge42" class="edge"><title>Node33&#45;&gt;Node34</title>
<path fill="none" stroke="midnightblue" d="M1384.62,-56.324C1400.2,-47.7428 1424.25,-34.486 1442.34,-24.5224"/>
<polygon fill="midnightblue" stroke="midnightblue" points="1444.1,-27.546 1451.17,-19.6545 1440.72,-21.4152 1444.1,-27.546"/>
</g>
<!-- Node35 -->
<g id="node35" class="node"><title>Node35</title>
<polygon fill="white" stroke="#bfbfbf" points="1349.38,-0.5 1349.38,-19.5 1422.38,-19.5 1422.38,-0.5 1349.38,-0.5"/>
<text text-anchor="middle" x="1385.88" y="-7.5" font-family="Helvetica,sans-Serif" font-size="10.00">initializer_list</text>
</g>
<!-- Node33&#45;&gt;Node35 -->
<g id="edge43" class="edge"><title>Node33&#45;&gt;Node35</title>
<path fill="none" stroke="midnightblue" d="M1371.68,-56.083C1373.96,-48.8486 1377.25,-38.4087 1380.09,-29.3968"/>
<polygon fill="midnightblue" stroke="midnightblue" points="1383.46,-30.3406 1383.12,-19.7511 1376.78,-28.2385 1383.46,-30.3406"/>
</g>
<!-- Node36&#45;&gt;Node3 -->
<g id="edge45" class="edge"><title>Node36&#45;&gt;Node3</title>
<path fill="none" stroke="midnightblue" d="M1138.01,-336.24C1131.12,-327.317 1120.34,-312.985 1111.88,-300 1075,-243.435 1036.56,-173.103 1019.27,-140.771"/>
<polygon fill="midnightblue" stroke="midnightblue" points="1022.22,-138.859 1014.44,-131.674 1016.04,-142.146 1022.22,-138.859"/>
</g>
<!-- Node37 -->
<g id="node37" class="node"><title>Node37</title>
<polygon fill="white" stroke="#bfbfbf" points="1121.38,-280.5 1121.38,-299.5 1168.38,-299.5 1168.38,-280.5 1121.38,-280.5"/>
<text text-anchor="middle" x="1144.88" y="-287.5" font-family="Helvetica,sans-Serif" font-size="10.00">errno.h</text>
</g>
<!-- Node36&#45;&gt;Node37 -->
<g id="edge46" class="edge"><title>Node36&#45;&gt;Node37</title>
<path fill="none" stroke="midnightblue" d="M1144.88,-336.083C1144.88,-329.006 1144.88,-318.861 1144.88,-309.986"/>
<polygon fill="midnightblue" stroke="midnightblue" points="1148.38,-309.751 1144.88,-299.751 1141.38,-309.751 1148.38,-309.751"/>
</g>
<!-- Node38&#45;&gt;Node3 -->
<g id="edge48" class="edge"><title>Node38&#45;&gt;Node3</title>
<path fill="none" stroke="midnightblue" d="M1463.56,-173.203C1384.54,-164.458 1188.33,-142.747 1081.67,-130.944"/>
<polygon fill="midnightblue" stroke="midnightblue" points="1081.96,-127.455 1071.64,-129.834 1081.19,-134.413 1081.96,-127.455"/>
</g>
<!-- Node38&#45;&gt;Node6 -->
<g id="edge49" class="edge"><title>Node38&#45;&gt;Node6</title>
<path fill="none" stroke="midnightblue" d="M1501.8,-168.368C1509.94,-150.456 1528.82,-108.923 1539.72,-84.9482"/>
<polygon fill="midnightblue" stroke="midnightblue" points="1543.02,-86.1434 1543.97,-75.5914 1536.65,-83.2468 1543.02,-86.1434"/>
</g>
<!-- Node39&#45;&gt;Node3 -->
<g id="edge51" class="edge"><title>Node39&#45;&gt;Node3</title>
<path fill="none" stroke="midnightblue" d="M1430.62,-224.466C1421.23,-210.053 1400.07,-181.174 1373.88,-168 1324.19,-143.008 1172.8,-131.17 1081.66,-126.171"/>
<polygon fill="midnightblue" stroke="midnightblue" points="1081.84,-122.676 1071.67,-125.637 1081.47,-129.666 1081.84,-122.676"/>
</g>
<!-- Node39&#45;&gt;Node13 -->
<g id="edge55" class="edge"><title>Node39&#45;&gt;Node13</title>
<path fill="none" stroke="midnightblue" d="M1462.09,-230.386C1492.77,-226.14 1543.72,-215.261 1577.88,-188 1586.98,-180.734 1622.12,-116.762 1639.31,-84.8891"/>
<polygon fill="midnightblue" stroke="midnightblue" points="1642.55,-86.2469 1644.2,-75.7811 1636.38,-82.9346 1642.55,-86.2469"/>
</g>
<!-- Node39&#45;&gt;Node15 -->
<g id="edge53" class="edge"><title>Node39&#45;&gt;Node15</title>
<path fill="none" stroke="midnightblue" d="M1462.11,-230.093C1495.78,-225.429 1555.08,-214.003 1598.88,-188 1645.18,-160.51 1685.45,-109.901 1704.37,-83.6994"/>
<polygon fill="midnightblue" stroke="midnightblue" points="1707.24,-85.7127 1710.15,-75.5274 1701.52,-81.6703 1707.24,-85.7127"/>
</g>
<!-- Node39&#45;&gt;Node18 -->
<g id="edge54" class="edge"><title>Node39&#45;&gt;Node18</title>
<path fill="none" stroke="midnightblue" d="M1438.35,-224.075C1445.59,-197.945 1466.85,-121.211 1476.73,-85.577"/>
<polygon fill="midnightblue" stroke="midnightblue" points="1480.21,-86.1396 1479.5,-75.5681 1473.46,-84.2703 1480.21,-86.1396"/>
</g>
<!-- Node39&#45;&gt;Node23 -->
<g id="edge56" class="edge"><title>Node39&#45;&gt;Node23</title>
<path fill="none" stroke="midnightblue" d="M1462.22,-228.012C1485.84,-222.237 1519.91,-210.482 1540.88,-188 1582.6,-143.26 1619.8,-102.354 1579.88,-56 1546.47,-17.2102 1407.71,-30.0251 1341.17,-19.7135"/>
<polygon fill="midnightblue" stroke="midnightblue" points="1341.61,-16.2353 1331.14,-17.8485 1340.33,-23.1174 1341.61,-16.2353"/>
</g>
<!-- Node39&#45;&gt;Node38 -->
<g id="edge52" class="edge"><title>Node39&#45;&gt;Node38</title>
<path fill="none" stroke="midnightblue" d="M1445.84,-224.324C1455,-216.341 1468.81,-204.313 1479.91,-194.653"/>
<polygon fill="midnightblue" stroke="midnightblue" points="1482.49,-197.041 1487.73,-187.834 1477.89,-191.762 1482.49,-197.041"/>
</g>
<!-- Node40&#45;&gt;Node3 -->
<g id="edge58" class="edge"><title>Node40&#45;&gt;Node3</title>
<path fill="none" stroke="midnightblue" d="M1304.53,-280.305C1300.57,-257.782 1286.72,-197.266 1248.88,-168 1223.26,-148.19 1142.55,-135.965 1081.96,-129.346"/>
<polygon fill="midnightblue" stroke="midnightblue" points="1081.97,-125.828 1071.66,-128.254 1081.23,-132.789 1081.97,-125.828"/>
</g>
<!-- Node40&#45;&gt;Node39 -->
<g id="edge59" class="edge"><title>Node40&#45;&gt;Node39</title>
<path fill="none" stroke="midnightblue" d="M1326.48,-280.444C1347.87,-271.557 1381.56,-257.563 1405.9,-247.451"/>
<polygon fill="midnightblue" stroke="midnightblue" points="1407.48,-250.585 1415.37,-243.516 1404.8,-244.12 1407.48,-250.585"/>
</g>
<!-- Node41&#45;&gt;Node3 -->
<g id="edge61" class="edge"><title>Node41&#45;&gt;Node3</title>
<path fill="none" stroke="midnightblue" d="M1361.45,-336.433C1356.03,-307.007 1333.85,-209.594 1271.88,-168 1241.49,-147.602 1148.18,-135.206 1081.59,-128.727"/>
<polygon fill="midnightblue" stroke="midnightblue" points="1081.84,-125.235 1071.56,-127.775 1081.18,-132.204 1081.84,-125.235"/>
</g>
<!-- Node41&#45;&gt;Node39 -->
<g id="edge62" class="edge"><title>Node41&#45;&gt;Node39</title>
<path fill="none" stroke="midnightblue" d="M1368.61,-336.368C1380.65,-318.215 1408.8,-275.802 1424.6,-251.99"/>
<polygon fill="midnightblue" stroke="midnightblue" points="1427.56,-253.859 1430.18,-243.591 1421.73,-249.988 1427.56,-253.859"/>
</g>
<!-- Node41&#45;&gt;Node40 -->
<g id="edge63" class="edge"><title>Node41&#45;&gt;Node40</title>
<path fill="none" stroke="midnightblue" d="M1353.72,-336.324C1345.38,-328.42 1332.84,-316.548 1322.7,-306.938"/>
<polygon fill="midnightblue" stroke="midnightblue" points="1324.87,-304.171 1315.2,-299.834 1320.05,-309.252 1324.87,-304.171"/>
</g>
<!-- Node42&#45;&gt;Node2 -->
<g id="edge68" class="edge"><title>Node42&#45;&gt;Node2</title>
<path fill="none" stroke="midnightblue" d="M1294.89,-448.324C1307.41,-439.979 1326.56,-427.212 1341.35,-417.352"/>
<polygon fill="midnightblue" stroke="midnightblue" points="1343.52,-420.114 1349.9,-411.655 1339.63,-414.289 1343.52,-420.114"/>
</g>
<!-- Node42&#45;&gt;Node3 -->
<g id="edge67" class="edge"><title>Node42&#45;&gt;Node3</title>
<path fill="none" stroke="midnightblue" d="M1237.59,-448.487C1161,-432.485 1011.88,-395.148 1011.88,-347 1011.88,-347 1011.88,-347 1011.88,-233 1011.88,-200.943 1011.02,-163.639 1010.43,-141.747"/>
<polygon fill="midnightblue" stroke="midnightblue" points="1013.92,-141.454 1010.14,-131.557 1006.92,-141.651 1013.92,-141.454"/>
</g>
</g>
</svg>
        <g id="navigator" transform="translate(0 0)" fill="#404254">
                <rect fill="#f2f5e9" fill-opacity="0.5" stroke="#606060" stroke-width=".5" x="0" y="0" width="60" height="60"/>
                <use id="zoomplus" xlink:href="#zoomPlus" x="17" y="9" onmousedown="handleZoom(evt,'in')"/>
                <use id="zoomminus" xlink:href="#zoomMin" x="42" y="9" onmousedown="handleZoom(evt,'out')"/>
                <use id="reset" xlink:href="#resetDef" x="30" y="36" onmousedown="handleReset()"/>
                <g id="arrowUp" xlink:href="#dirArrow" transform="translate(30 24)" onmousedown="handlePan(0,-1)">
                  <use xlink:href="#rim" fill="#404040">
                        <set attributeName="fill" to="#808080" begin="arrowUp.mouseover" end="arrowUp.mouseout"/>
                  </use>
                  <path fill="none" stroke="white" stroke-width="1.5" d="M0,-3.0v7 M-2.5,-0.5L0,-3.0L2.5,-0.5"/>
                </g>
                <g id="arrowRight" xlink:href="#dirArrow" transform="rotate(90) translate(36 -43)" onmousedown="handlePan(1,0)">
                  <use xlink:href="#rim" fill="#404040">
                        <set attributeName="fill" to="#808080" begin="arrowRight.mouseover" end="arrowRight.mouseout"/>
                  </use>
                  <path fill="none" stroke="white" stroke-width="1.5" d="M0,-3.0v7 M-2.5,-0.5L0,-3.0L2.5,-0.5"/>
                </g>
                <g id="arrowDown" xlink:href="#dirArrow" transform="rotate(180) translate(-30 -48)" onmousedown="handlePan(0,1)">
                  <use xlink:href="#rim" fill="#404040">
                        <set attributeName="fill" to="#808080" begin="arrowDown.mouseover" end="arrowDown.mouseout"/>
                  </use>
                  <path fill="none" stroke="white" stroke-width="1.5" d="M0,-3.0v7 M-2.5,-0.5L0,-3.0L2.5,-0.5"/>
                </g>
                <g id="arrowLeft" xlink:href="#dirArrow" transform="rotate(270) translate(-36 17)" onmousedown="handlePan(-1,0)">
                  <use xlink:href="#rim" fill="#404040">
                        <set attributeName="fill" to="#808080" begin="arrowLeft.mouseover" end="arrowLeft.mouseout"/>
                  </use>
                  <path fill="none" stroke="white" stroke-width="1.5" d="M0,-3.0v7 M-2.5,-0.5L0,-3.0L2.5,-0.5"/>
                </g>
        </g>
        <svg viewBox="0 0 15 15" width="100%" height="30px" preserveAspectRatio="xMaxYMin meet">
         <g id="arrow_out" transform="scale(0.3 0.3)">
          <a xlink:href="ephemlib_8h__incl_org.svg" target="_base">
           <rect id="button" ry="5" rx="5" y="6" x="6" height="38" width="38"
                fill="#f2f5e9" fill-opacity="0.5" stroke="#606060" stroke-width="1.0"/>
           <path id="arrow"
             d="M 11.500037,31.436501 C 11.940474,20.09759 22.043105,11.32322 32.158766,21.979434 L 37.068811,17.246167 C 37.068811,17.246167 37.088388,32 37.088388,32 L 22.160133,31.978069 C 22.160133,31.978069 26.997745,27.140456 26.997745,27.140456 C 18.528582,18.264221 13.291696,25.230495 11.500037,31.436501 z"
             style="fill:#404040;"/>
          </a>
         </g>
        </svg>
</svg>
