<?xml version="1.0" encoding="UTF-8" standalone="no"?>
<!DOCTYPE svg PUBLIC "-//W3C//DTD SVG 1.1//EN"
 "http://www.w3.org/Graphics/SVG/1.1/DTD/svg11.dtd">
<!-- Generated by graphviz version 2.38.0 (20140413.2041)
 -->
<!-- Title: event.h Pages: 1 -->
<svg width="1813pt" height="588pt"
 viewBox="0.00 0.00 1813.00 588.00" xmlns="http://www.w3.org/2000/svg" xmlns:xlink="http://www.w3.org/1999/xlink">
<g id="graph0" class="graph" transform="scale(1 1) rotate(0) translate(4 584)">
<title>event.h</title>
<polygon fill="white" stroke="none" points="-4,4 -4,-584 1809,-584 1809,4 -4,4"/>
<!-- Node1 -->
<g id="node1" class="node"><title>Node1</title>
<polygon fill="#bfbfbf" stroke="black" points="605.5,-560.5 605.5,-579.5 654.5,-579.5 654.5,-560.5 605.5,-560.5"/>
<text text-anchor="middle" x="630" y="-567.5" font-family="Helvetica,sans-Serif" font-size="10.00">event.h</text>
</g>
<!-- Node2 -->
<g id="node2" class="node"><title>Node2</title>
<g id="a_node2"><a xlink:href="config_cosmos_8h.html" target="_top" xlink:title="Headers and definitions common to all COSMOS. ">
<polygon fill="white" stroke="black" points="883.5,-112.5 883.5,-131.5 1006.5,-131.5 1006.5,-112.5 883.5,-112.5"/>
<text text-anchor="middle" x="945" y="-119.5" font-family="Helvetica,sans-Serif" font-size="10.00">support/configCosmos.h</text>
</a>
</g>
</g>
<!-- Node1&#45;&gt;Node2 -->
<g id="edge1" class="edge"><title>Node1&#45;&gt;Node2</title>
<path fill="none" stroke="midnightblue" d="M605.303,-567.353C488.825,-559.265 0,-521.593 0,-459 0,-459 0,-459 0,-289 0,-200.404 652.654,-144.417 873.19,-128.027"/>
<polygon fill="midnightblue" stroke="midnightblue" points="873.645,-131.503 883.36,-127.277 873.13,-124.522 873.645,-131.503"/>
</g>
<!-- Node35 -->
<g id="node35" class="node"><title>Node35</title>
<g id="a_node35"><a xlink:href="jsonlib_8h.html" target="_top" xlink:title="JSON Support definitions. ">
<polygon fill="white" stroke="black" points="1010,-504.5 1010,-523.5 1098,-523.5 1098,-504.5 1010,-504.5"/>
<text text-anchor="middle" x="1054" y="-511.5" font-family="Helvetica,sans-Serif" font-size="10.00">support/jsonlib.h</text>
</a>
</g>
</g>
<!-- Node1&#45;&gt;Node35 -->
<g id="edge43" class="edge"><title>Node1&#45;&gt;Node35</title>
<path fill="none" stroke="midnightblue" d="M654.629,-565.863C721.408,-557.358 907.119,-533.707 999.86,-521.895"/>
<polygon fill="midnightblue" stroke="midnightblue" points="1000.41,-525.354 1009.89,-520.618 999.525,-518.41 1000.41,-525.354"/>
</g>
<!-- Node49 -->
<g id="node49" class="node"><title>Node49</title>
<g id="a_node49"><a xlink:href="jsonobject_8h.html" target="_top" xlink:title="support/jsonobject.h">
<polygon fill="white" stroke="black" points="579,-224.5 579,-243.5 683,-243.5 683,-224.5 579,-224.5"/>
<text text-anchor="middle" x="631" y="-231.5" font-family="Helvetica,sans-Serif" font-size="10.00">support/jsonobject.h</text>
</a>
</g>
</g>
<!-- Node1&#45;&gt;Node49 -->
<g id="edge84" class="edge"><title>Node1&#45;&gt;Node49</title>
<path fill="none" stroke="midnightblue" d="M630,-560.442C630,-541.936 630,-496.812 630,-459 630,-459 630,-459 630,-345 630,-312.947 630.43,-275.642 630.726,-253.748"/>
<polygon fill="midnightblue" stroke="midnightblue" points="634.228,-253.606 630.869,-243.558 627.229,-253.507 634.228,-253.606"/>
</g>
<!-- Node3 -->
<g id="node3" class="node"><title>Node3</title>
<polygon fill="white" stroke="#bfbfbf" points="558.5,-56.5 558.5,-75.5 603.5,-75.5 603.5,-56.5 558.5,-56.5"/>
<text text-anchor="middle" x="581" y="-63.5" font-family="Helvetica,sans-Serif" font-size="10.00">climits</text>
</g>
<!-- Node2&#45;&gt;Node3 -->
<g id="edge2" class="edge"><title>Node2&#45;&gt;Node3</title>
<path fill="none" stroke="midnightblue" d="M883.464,-115.443C818.442,-108.953 712.825,-96.6538 613.49,-76.0625"/>
<polygon fill="midnightblue" stroke="midnightblue" points="614.095,-72.6134 603.589,-73.9778 612.653,-79.4632 614.095,-72.6134"/>
</g>
<!-- Node4 -->
<g id="node4" class="node"><title>Node4</title>
<polygon fill="white" stroke="#bfbfbf" points="621.5,-56.5 621.5,-75.5 668.5,-75.5 668.5,-56.5 621.5,-56.5"/>
<text text-anchor="middle" x="645" y="-63.5" font-family="Helvetica,sans-Serif" font-size="10.00">csignal</text>
</g>
<!-- Node2&#45;&gt;Node4 -->
<g id="edge3" class="edge"><title>Node2&#45;&gt;Node4</title>
<path fill="none" stroke="midnightblue" d="M889.356,-112.476C836.19,-104.088 753.882,-90.4665 683,-76 681.547,-75.7034 680.065,-75.3918 678.569,-75.0699"/>
<polygon fill="midnightblue" stroke="midnightblue" points="679.19,-71.6223 668.666,-72.8463 677.656,-78.4523 679.19,-71.6223"/>
</g>
<!-- Node5 -->
<g id="node5" class="node"><title>Node5</title>
<polygon fill="white" stroke="#bfbfbf" points="1493,-56.5 1493,-75.5 1539,-75.5 1539,-56.5 1493,-56.5"/>
<text text-anchor="middle" x="1516" y="-63.5" font-family="Helvetica,sans-Serif" font-size="10.00">cstdint</text>
</g>
<!-- Node2&#45;&gt;Node5 -->
<g id="edge4" class="edge"><title>Node2&#45;&gt;Node5</title>
<path fill="none" stroke="midnightblue" d="M1006.79,-119.497C1105.46,-116.293 1304.68,-106.536 1482.62,-75.6974"/>
<polygon fill="midnightblue" stroke="midnightblue" points="1483.44,-79.1058 1492.68,-73.9256 1482.23,-72.2117 1483.44,-79.1058"/>
</g>
<!-- Node6 -->
<g id="node6" class="node"><title>Node6</title>
<polygon fill="white" stroke="#bfbfbf" points="1557,-56.5 1557,-75.5 1613,-75.5 1613,-56.5 1557,-56.5"/>
<text text-anchor="middle" x="1585" y="-63.5" font-family="Helvetica,sans-Serif" font-size="10.00">cinttypes</text>
</g>
<!-- Node2&#45;&gt;Node6 -->
<g id="edge5" class="edge"><title>Node2&#45;&gt;Node6</title>
<path fill="none" stroke="midnightblue" d="M1006.52,-117.695C1134.72,-110.605 1427.73,-93.2834 1546.85,-75.8822"/>
<polygon fill="midnightblue" stroke="midnightblue" points="1547.46,-79.3302 1556.81,-74.3607 1546.4,-72.4104 1547.46,-79.3302"/>
</g>
<!-- Node7 -->
<g id="node7" class="node"><title>Node7</title>
<polygon fill="white" stroke="#bfbfbf" points="120.5,-56.5 120.5,-75.5 163.5,-75.5 163.5,-56.5 120.5,-56.5"/>
<text text-anchor="middle" x="142" y="-63.5" font-family="Helvetica,sans-Serif" font-size="10.00">cstdio</text>
</g>
<!-- Node2&#45;&gt;Node7 -->
<g id="edge6" class="edge"><title>Node2&#45;&gt;Node7</title>
<path fill="none" stroke="midnightblue" d="M883.372,-119.268C728.841,-114.634 326.871,-100.711 173.953,-75.9122"/>
<polygon fill="midnightblue" stroke="midnightblue" points="174.258,-72.4139 163.813,-74.1856 173.083,-79.3146 174.258,-72.4139"/>
</g>
<!-- Node8 -->
<g id="node8" class="node"><title>Node8</title>
<polygon fill="white" stroke="#bfbfbf" points="181.5,-56.5 181.5,-75.5 230.5,-75.5 230.5,-56.5 181.5,-56.5"/>
<text text-anchor="middle" x="206" y="-63.5" font-family="Helvetica,sans-Serif" font-size="10.00">cstddef</text>
</g>
<!-- Node2&#45;&gt;Node8 -->
<g id="edge7" class="edge"><title>Node2&#45;&gt;Node8</title>
<path fill="none" stroke="midnightblue" d="M883.139,-121.248C761.438,-120.828 482.405,-115.378 240.773,-75.9849"/>
<polygon fill="midnightblue" stroke="midnightblue" points="241.184,-72.5054 230.747,-74.3271 240.042,-79.4117 241.184,-72.5054"/>
</g>
<!-- Node9 -->
<g id="node9" class="node"><title>Node9</title>
<polygon fill="white" stroke="#bfbfbf" points="248.5,-56.5 248.5,-75.5 293.5,-75.5 293.5,-56.5 248.5,-56.5"/>
<text text-anchor="middle" x="271" y="-63.5" font-family="Helvetica,sans-Serif" font-size="10.00">cstdlib</text>
</g>
<!-- Node2&#45;&gt;Node9 -->
<g id="edge8" class="edge"><title>Node2&#45;&gt;Node9</title>
<path fill="none" stroke="midnightblue" d="M883.419,-120.847C770.213,-119.66 521.484,-112.847 303.617,-75.705"/>
<polygon fill="midnightblue" stroke="midnightblue" points="304.045,-72.227 293.594,-73.9709 302.851,-79.1246 304.045,-72.227"/>
</g>
<!-- Node10 -->
<g id="node10" class="node"><title>Node10</title>
<polygon fill="white" stroke="#bfbfbf" points="312,-56.5 312,-75.5 356,-75.5 356,-56.5 312,-56.5"/>
<text text-anchor="middle" x="334" y="-63.5" font-family="Helvetica,sans-Serif" font-size="10.00">cerrno</text>
</g>
<!-- Node2&#45;&gt;Node10 -->
<g id="edge9" class="edge"><title>Node2&#45;&gt;Node10</title>
<path fill="none" stroke="midnightblue" d="M883.088,-120.349C778.263,-118.34 559.21,-110.23 366.261,-75.8597"/>
<polygon fill="midnightblue" stroke="midnightblue" points="366.684,-72.3796 356.221,-74.043 365.438,-79.2677 366.684,-72.3796"/>
</g>
<!-- Node11 -->
<g id="node11" class="node"><title>Node11</title>
<polygon fill="white" stroke="#bfbfbf" points="374,-56.5 374,-75.5 420,-75.5 420,-56.5 374,-56.5"/>
<text text-anchor="middle" x="397" y="-63.5" font-family="Helvetica,sans-Serif" font-size="10.00">cstring</text>
</g>
<!-- Node2&#45;&gt;Node11 -->
<g id="edge10" class="edge"><title>Node2&#45;&gt;Node11</title>
<path fill="none" stroke="midnightblue" d="M883.271,-118.57C786.834,-114.099 594.811,-102.484 434,-76 432.752,-75.7945 431.485,-75.5696 430.207,-75.3291"/>
<polygon fill="midnightblue" stroke="midnightblue" points="430.886,-71.8954 420.379,-73.2504 429.438,-78.7439 430.886,-71.8954"/>
</g>
<!-- Node12 -->
<g id="node12" class="node"><title>Node12</title>
<polygon fill="white" stroke="#bfbfbf" points="1703,-56.5 1703,-75.5 1747,-75.5 1747,-56.5 1703,-56.5"/>
<text text-anchor="middle" x="1725" y="-63.5" font-family="Helvetica,sans-Serif" font-size="10.00">cmath</text>
</g>
<!-- Node2&#45;&gt;Node12 -->
<g id="edge11" class="edge"><title>Node2&#45;&gt;Node12</title>
<path fill="none" stroke="midnightblue" d="M1006.67,-119.063C1157.66,-114.045 1543.76,-99.4642 1692.5,-75.8094"/>
<polygon fill="midnightblue" stroke="midnightblue" points="1693.5,-79.1901 1702.79,-74.0906 1692.35,-72.2857 1693.5,-79.1901"/>
</g>
<!-- Node13 -->
<g id="node13" class="node"><title>Node13</title>
<polygon fill="white" stroke="#bfbfbf" points="1049.5,-56.5 1049.5,-75.5 1094.5,-75.5 1094.5,-56.5 1049.5,-56.5"/>
<text text-anchor="middle" x="1072" y="-63.5" font-family="Helvetica,sans-Serif" font-size="10.00">iosfwd</text>
</g>
<!-- Node2&#45;&gt;Node13 -->
<g id="edge12" class="edge"><title>Node2&#45;&gt;Node13</title>
<path fill="none" stroke="midnightblue" d="M965.124,-112.444C986.024,-103.557 1018.93,-89.5632 1042.72,-79.4514"/>
<polygon fill="midnightblue" stroke="midnightblue" points="1044.14,-82.6504 1051.97,-75.5164 1041.4,-76.2085 1044.14,-82.6504"/>
</g>
<!-- Node14 -->
<g id="node14" class="node"><title>Node14</title>
<polygon fill="white" stroke="#bfbfbf" points="1631,-56.5 1631,-75.5 1685,-75.5 1685,-56.5 1631,-56.5"/>
<text text-anchor="middle" x="1658" y="-63.5" font-family="Helvetica,sans-Serif" font-size="10.00">iostream</text>
</g>
<!-- Node2&#45;&gt;Node14 -->
<g id="edge13" class="edge"><title>Node2&#45;&gt;Node14</title>
<path fill="none" stroke="midnightblue" d="M1006.7,-118.312C1146.81,-111.986 1486.56,-95.3325 1620.9,-75.8346"/>
<polygon fill="midnightblue" stroke="midnightblue" points="1621.62,-79.2665 1630.98,-74.3051 1620.57,-72.3458 1621.62,-79.2665"/>
</g>
<!-- Node15 -->
<g id="node15" class="node"><title>Node15</title>
<polygon fill="white" stroke="#bfbfbf" points="50,-56.5 50,-75.5 102,-75.5 102,-56.5 50,-56.5"/>
<text text-anchor="middle" x="76" y="-63.5" font-family="Helvetica,sans-Serif" font-size="10.00">sstream</text>
</g>
<!-- Node2&#45;&gt;Node15 -->
<g id="edge14" class="edge"><title>Node2&#45;&gt;Node15</title>
<path fill="none" stroke="midnightblue" d="M883.362,-121.822C746.121,-122.76 405.042,-120.144 112.216,-75.8707"/>
<polygon fill="midnightblue" stroke="midnightblue" points="112.672,-72.3997 102.258,-74.3459 111.613,-79.3191 112.672,-72.3997"/>
</g>
<!-- Node16 -->
<g id="node16" class="node"><title>Node16</title>
<polygon fill="white" stroke="#bfbfbf" points="1112.5,-56.5 1112.5,-75.5 1153.5,-75.5 1153.5,-56.5 1112.5,-56.5"/>
<text text-anchor="middle" x="1133" y="-63.5" font-family="Helvetica,sans-Serif" font-size="10.00">regex</text>
</g>
<!-- Node2&#45;&gt;Node16 -->
<g id="edge15" class="edge"><title>Node2&#45;&gt;Node16</title>
<path fill="none" stroke="midnightblue" d="M975.326,-112.499C1005.23,-104.085 1052.49,-90.7113 1102.63,-76.0788"/>
<polygon fill="midnightblue" stroke="midnightblue" points="1103.74,-79.4008 1112.35,-73.235 1101.77,-72.6821 1103.74,-79.4008"/>
</g>
<!-- Node17 -->
<g id="node17" class="node"><title>Node17</title>
<polygon fill="white" stroke="#bfbfbf" points="1172,-56.5 1172,-75.5 1222,-75.5 1222,-56.5 1172,-56.5"/>
<text text-anchor="middle" x="1197" y="-63.5" font-family="Helvetica,sans-Serif" font-size="10.00">iomanip</text>
</g>
<!-- Node2&#45;&gt;Node17 -->
<g id="edge16" class="edge"><title>Node2&#45;&gt;Node17</title>
<path fill="none" stroke="midnightblue" d="M989.188,-112.472C1033.13,-103.841 1102.41,-89.8324 1162,-76 1162.1,-75.9769 1162.2,-75.9538 1162.3,-75.9306"/>
<polygon fill="midnightblue" stroke="midnightblue" points="1162.9,-79.3853 1171.8,-73.6315 1161.26,-72.5816 1162.9,-79.3853"/>
</g>
<!-- Node18 -->
<g id="node18" class="node"><title>Node18</title>
<polygon fill="white" stroke="#bfbfbf" points="1240.5,-56.5 1240.5,-75.5 1291.5,-75.5 1291.5,-56.5 1240.5,-56.5"/>
<text text-anchor="middle" x="1266" y="-63.5" font-family="Helvetica,sans-Serif" font-size="10.00">unistd.h</text>
</g>
<!-- Node2&#45;&gt;Node18 -->
<g id="edge17" class="edge"><title>Node2&#45;&gt;Node18</title>
<path fill="none" stroke="midnightblue" d="M1006.68,-113.032C1062.59,-105.415 1147.45,-92.8763 1230.59,-75.9068"/>
<polygon fill="midnightblue" stroke="midnightblue" points="1231.37,-79.3198 1240.45,-73.8703 1229.95,-72.4643 1231.37,-79.3198"/>
</g>
<!-- Node19 -->
<g id="node19" class="node"><title>Node19</title>
<polygon fill="white" stroke="#bfbfbf" points="1310,-56.5 1310,-75.5 1354,-75.5 1354,-56.5 1310,-56.5"/>
<text text-anchor="middle" x="1332" y="-63.5" font-family="Helvetica,sans-Serif" font-size="10.00">fcntl.h</text>
</g>
<!-- Node2&#45;&gt;Node19 -->
<g id="edge18" class="edge"><title>Node2&#45;&gt;Node19</title>
<path fill="none" stroke="midnightblue" d="M1006.7,-115.972C1075.79,-109.718 1191.16,-97.4044 1299.9,-75.71"/>
<polygon fill="midnightblue" stroke="midnightblue" points="1300.62,-79.1355 1309.72,-73.72 1299.23,-72.2748 1300.62,-79.1355"/>
</g>
<!-- Node20 -->
<g id="node20" class="node"><title>Node20</title>
<polygon fill="white" stroke="#bfbfbf" points="1765,-56.5 1765,-75.5 1805,-75.5 1805,-56.5 1765,-56.5"/>
<text text-anchor="middle" x="1785" y="-63.5" font-family="Helvetica,sans-Serif" font-size="10.00">limits</text>
</g>
<!-- Node2&#45;&gt;Node20 -->
<g id="edge19" class="edge"><title>Node2&#45;&gt;Node20</title>
<path fill="none" stroke="midnightblue" d="M1006.68,-119.536C1166.71,-115.431 1593.41,-102.457 1754.64,-75.7195"/>
<polygon fill="midnightblue" stroke="midnightblue" points="1755.62,-79.1017 1764.88,-73.9384 1754.42,-72.2055 1755.62,-79.1017"/>
</g>
<!-- Node21 -->
<g id="node21" class="node"><title>Node21</title>
<polygon fill="white" stroke="#bfbfbf" points="422.5,-0.5 422.5,-19.5 463.5,-19.5 463.5,-0.5 422.5,-0.5"/>
<text text-anchor="middle" x="443" y="-7.5" font-family="Helvetica,sans-Serif" font-size="10.00">string</text>
</g>
<!-- Node2&#45;&gt;Node21 -->
<g id="edge20" class="edge"><title>Node2&#45;&gt;Node21</title>
<path fill="none" stroke="midnightblue" d="M883.406,-118.827C761.702,-114.014 499.337,-100.864 467,-76 452.865,-65.132 447.053,-45.0596 444.664,-30.0842"/>
<polygon fill="midnightblue" stroke="midnightblue" points="448.103,-29.3683 443.423,-19.8629 441.154,-30.2118 448.103,-29.3683"/>
</g>
<!-- Node22 -->
<g id="node22" class="node"><title>Node22</title>
<polygon fill="white" stroke="#bfbfbf" points="649,-0.5 649,-19.5 693,-19.5 693,-0.5 649,-0.5"/>
<text text-anchor="middle" x="671" y="-7.5" font-family="Helvetica,sans-Serif" font-size="10.00">vector</text>
</g>
<!-- Node2&#45;&gt;Node22 -->
<g id="edge21" class="edge"><title>Node2&#45;&gt;Node22</title>
<path fill="none" stroke="midnightblue" d="M883.306,-113.201C845.004,-106.731 795.531,-95.3571 755,-76 728.645,-63.413 702.747,-41.5191 686.829,-26.6533"/>
<polygon fill="midnightblue" stroke="midnightblue" points="689.11,-23.9916 679.465,-19.6065 684.27,-29.0491 689.11,-23.9916"/>
</g>
<!-- Node23 -->
<g id="node23" class="node"><title>Node23</title>
<polygon fill="white" stroke="#bfbfbf" points="1372.5,-56.5 1372.5,-75.5 1413.5,-75.5 1413.5,-56.5 1372.5,-56.5"/>
<text text-anchor="middle" x="1393" y="-63.5" font-family="Helvetica,sans-Serif" font-size="10.00">stack</text>
</g>
<!-- Node2&#45;&gt;Node23 -->
<g id="edge22" class="edge"><title>Node2&#45;&gt;Node23</title>
<path fill="none" stroke="midnightblue" d="M1006.81,-117.912C1086.86,-113.122 1230.74,-101.828 1362.59,-75.6927"/>
<polygon fill="midnightblue" stroke="midnightblue" points="1363.36,-79.1092 1372.47,-73.7026 1361.98,-72.2471 1363.36,-79.1092"/>
</g>
<!-- Node24 -->
<g id="node24" class="node"><title>Node24</title>
<polygon fill="white" stroke="#bfbfbf" points="1431.5,-56.5 1431.5,-75.5 1474.5,-75.5 1474.5,-56.5 1431.5,-56.5"/>
<text text-anchor="middle" x="1453" y="-63.5" font-family="Helvetica,sans-Serif" font-size="10.00">deque</text>
</g>
<!-- Node2&#45;&gt;Node24 -->
<g id="edge23" class="edge"><title>Node2&#45;&gt;Node24</title>
<path fill="none" stroke="midnightblue" d="M1006.51,-118.9C1095.91,-115.034 1266.96,-104.569 1421.31,-75.7459"/>
<polygon fill="midnightblue" stroke="midnightblue" points="1422.27,-79.1245 1431.45,-73.8207 1420.97,-72.2473 1422.27,-79.1245"/>
</g>
<!-- Node25 -->
<g id="node25" class="node"><title>Node25</title>
<polygon fill="white" stroke="#bfbfbf" points="765,-0.5 765,-19.5 809,-19.5 809,-0.5 765,-0.5"/>
<text text-anchor="middle" x="787" y="-7.5" font-family="Helvetica,sans-Serif" font-size="10.00">mutex</text>
</g>
<!-- Node2&#45;&gt;Node25 -->
<g id="edge24" class="edge"><title>Node2&#45;&gt;Node25</title>
<path fill="none" stroke="midnightblue" d="M883.308,-118.892C851.067,-114.345 813.87,-103.002 792,-76 781.658,-63.2304 781.438,-44.0381 783.186,-29.8155"/>
<polygon fill="midnightblue" stroke="midnightblue" points="786.682,-30.1283 784.854,-19.6923 779.775,-28.9904 786.682,-30.1283"/>
</g>
<!-- Node26 -->
<g id="node26" class="node"><title>Node26</title>
<polygon fill="white" stroke="#bfbfbf" points="873,-0.5 873,-19.5 917,-19.5 917,-0.5 873,-0.5"/>
<text text-anchor="middle" x="895" y="-7.5" font-family="Helvetica,sans-Serif" font-size="10.00">thread</text>
</g>
<!-- Node2&#45;&gt;Node26 -->
<g id="edge25" class="edge"><title>Node2&#45;&gt;Node26</title>
<path fill="none" stroke="midnightblue" d="M943.373,-112.269C940.789,-99.483 935.087,-75.1124 926,-56 921.273,-46.0587 914.463,-35.8846 908.429,-27.7311"/>
<polygon fill="midnightblue" stroke="midnightblue" points="911.19,-25.5796 902.321,-19.7833 905.639,-29.8451 911.19,-25.5796"/>
</g>
<!-- Node27 -->
<g id="node27" class="node"><title>Node27</title>
<polygon fill="white" stroke="#bfbfbf" points="935.5,-0.5 935.5,-19.5 1030.5,-19.5 1030.5,-0.5 935.5,-0.5"/>
<text text-anchor="middle" x="983" y="-7.5" font-family="Helvetica,sans-Serif" font-size="10.00">condition_variable</text>
</g>
<!-- Node2&#45;&gt;Node27 -->
<g id="edge26" class="edge"><title>Node2&#45;&gt;Node27</title>
<path fill="none" stroke="midnightblue" d="M947.982,-112.368C954.142,-94.5366 968.389,-53.2953 976.688,-29.2717"/>
<polygon fill="midnightblue" stroke="midnightblue" points="980.075,-30.1862 980.032,-19.5914 973.459,-27.9005 980.075,-30.1862"/>
</g>
<!-- Node28 -->
<g id="node28" class="node"><title>Node28</title>
<polygon fill="white" stroke="#bfbfbf" points="1048.5,-0.5 1048.5,-19.5 1091.5,-19.5 1091.5,-0.5 1048.5,-0.5"/>
<text text-anchor="middle" x="1070" y="-7.5" font-family="Helvetica,sans-Serif" font-size="10.00">queue</text>
</g>
<!-- Node2&#45;&gt;Node28 -->
<g id="edge27" class="edge"><title>Node2&#45;&gt;Node28</title>
<path fill="none" stroke="midnightblue" d="M954.809,-112.368C975.893,-93.8137 1025.78,-49.9129 1052.46,-26.4376"/>
<polygon fill="midnightblue" stroke="midnightblue" points="1055.04,-28.8252 1060.24,-19.5914 1050.42,-23.5702 1055.04,-28.8252"/>
</g>
<!-- Node29 -->
<g id="node29" class="node"><title>Node29</title>
<polygon fill="white" stroke="#bfbfbf" points="711.5,-0.5 711.5,-19.5 746.5,-19.5 746.5,-0.5 711.5,-0.5"/>
<text text-anchor="middle" x="729" y="-7.5" font-family="Helvetica,sans-Serif" font-size="10.00">map</text>
</g>
<!-- Node2&#45;&gt;Node29 -->
<g id="edge28" class="edge"><title>Node2&#45;&gt;Node29</title>
<path fill="none" stroke="midnightblue" d="M883.499,-113.757C850.669,-107.642 810.802,-96.44 780,-76 761.765,-63.8989 747.15,-43.1328 738.317,-28.3292"/>
<polygon fill="midnightblue" stroke="midnightblue" points="741.349,-26.5809 733.368,-19.6131 735.262,-30.0373 741.349,-26.5809"/>
</g>
<!-- Node30 -->
<g id="node30" class="node"><title>Node30</title>
<g id="a_node30"><a xlink:href="cosmos-defs_8h.html" target="_top" xlink:title="COSMOS definitions Definitions specific to the COSMOS environement. ">
<polygon fill="white" stroke="black" points="801,-56.5 801,-75.5 917,-75.5 917,-56.5 801,-56.5"/>
<text text-anchor="middle" x="859" y="-63.5" font-family="Helvetica,sans-Serif" font-size="10.00">support/cosmos&#45;defs.h</text>
</a>
</g>
</g>
<!-- Node2&#45;&gt;Node30 -->
<g id="edge29" class="edge"><title>Node2&#45;&gt;Node30</title>
<path fill="none" stroke="midnightblue" d="M931.183,-112.324C917.767,-103.9 897.176,-90.9709 881.414,-81.0741"/>
<polygon fill="midnightblue" stroke="midnightblue" points="883.113,-78.0081 872.783,-75.6545 879.391,-83.9364 883.113,-78.0081"/>
</g>
<!-- Node32 -->
<g id="node32" class="node"><title>Node32</title>
<g id="a_node32"><a xlink:href="json11_8hpp.html" target="_top" xlink:title="json11.hpp">
<polygon fill="white" stroke="black" points="476,-56.5 476,-75.5 540,-75.5 540,-56.5 476,-56.5"/>
<text text-anchor="middle" x="508" y="-63.5" font-family="Helvetica,sans-Serif" font-size="10.00">json11.hpp</text>
</a>
</g>
</g>
<!-- Node2&#45;&gt;Node32 -->
<g id="edge37" class="edge"><title>Node2&#45;&gt;Node32</title>
<path fill="none" stroke="midnightblue" d="M883.334,-115.974C807.268,-109.332 673.842,-96.2449 550.191,-76.0459"/>
<polygon fill="midnightblue" stroke="midnightblue" points="550.605,-72.567 540.168,-74.3892 549.464,-79.4732 550.605,-72.567"/>
</g>
<!-- Node30&#45;&gt;Node22 -->
<g id="edge31" class="edge"><title>Node30&#45;&gt;Node22</title>
<path fill="none" stroke="midnightblue" d="M829.185,-56.4872C799.511,-48.007 752.414,-34.529 702.661,-20.1841"/>
<polygon fill="midnightblue" stroke="midnightblue" points="703.591,-16.8096 693.013,-17.4008 701.651,-23.5354 703.591,-16.8096"/>
</g>
<!-- Node30&#45;&gt;Node25 -->
<g id="edge35" class="edge"><title>Node30&#45;&gt;Node25</title>
<path fill="none" stroke="midnightblue" d="M847.432,-56.324C836.58,-48.1849 820.119,-35.8395 807.117,-26.0874"/>
<polygon fill="midnightblue" stroke="midnightblue" points="808.879,-23.0339 798.779,-19.8339 804.679,-28.6339 808.879,-23.0339"/>
</g>
<!-- Node30&#45;&gt;Node26 -->
<g id="edge34" class="edge"><title>Node30&#45;&gt;Node26</title>
<path fill="none" stroke="midnightblue" d="M864.945,-56.083C869.977,-48.5341 877.337,-37.4948 883.513,-28.2298"/>
<polygon fill="midnightblue" stroke="midnightblue" points="886.531,-30.0131 889.166,-19.7511 880.707,-26.1301 886.531,-30.0131"/>
</g>
<!-- Node30&#45;&gt;Node27 -->
<g id="edge36" class="edge"><title>Node30&#45;&gt;Node27</title>
<path fill="none" stroke="midnightblue" d="M878.648,-56.4435C898.965,-47.5961 930.903,-33.6875 954.098,-23.5865"/>
<polygon fill="midnightblue" stroke="midnightblue" points="955.673,-26.7181 963.444,-19.5164 952.878,-20.3002 955.673,-26.7181"/>
</g>
<!-- Node30&#45;&gt;Node28 -->
<g id="edge33" class="edge"><title>Node30&#45;&gt;Node28</title>
<path fill="none" stroke="midnightblue" d="M894.962,-56.4305C929.379,-48.1358 982.978,-34.976 1038.67,-20.0127"/>
<polygon fill="midnightblue" stroke="midnightblue" points="1039.61,-23.3841 1048.35,-17.3982 1037.78,-16.6261 1039.61,-23.3841"/>
</g>
<!-- Node30&#45;&gt;Node29 -->
<g id="edge30" class="edge"><title>Node30&#45;&gt;Node29</title>
<path fill="none" stroke="midnightblue" d="M838.401,-56.4435C816.126,-47.1907 780.524,-32.4021 756.018,-22.2227"/>
<polygon fill="midnightblue" stroke="midnightblue" points="757.162,-18.9081 746.584,-18.3042 754.476,-25.3725 757.162,-18.9081"/>
</g>
<!-- Node31 -->
<g id="node31" class="node"><title>Node31</title>
<polygon fill="white" stroke="#bfbfbf" points="826.5,-0.5 826.5,-19.5 855.5,-19.5 855.5,-0.5 826.5,-0.5"/>
<text text-anchor="middle" x="841" y="-7.5" font-family="Helvetica,sans-Serif" font-size="10.00">list</text>
</g>
<!-- Node30&#45;&gt;Node31 -->
<g id="edge32" class="edge"><title>Node30&#45;&gt;Node31</title>
<path fill="none" stroke="midnightblue" d="M856.028,-56.083C853.616,-48.8486 850.136,-38.4087 847.132,-29.3968"/>
<polygon fill="midnightblue" stroke="midnightblue" points="850.4,-28.1311 843.917,-19.7511 843.759,-30.3447 850.4,-28.1311"/>
</g>
<!-- Node32&#45;&gt;Node21 -->
<g id="edge38" class="edge"><title>Node32&#45;&gt;Node21</title>
<path fill="none" stroke="midnightblue" d="M497.557,-56.324C487.854,-48.2631 473.185,-36.0765 461.5,-26.3695"/>
<polygon fill="midnightblue" stroke="midnightblue" points="463.562,-23.532 453.633,-19.8339 459.089,-28.9163 463.562,-23.532"/>
</g>
<!-- Node32&#45;&gt;Node22 -->
<g id="edge39" class="edge"><title>Node32&#45;&gt;Node22</title>
<path fill="none" stroke="midnightblue" d="M533.828,-56.4435C562.378,-46.985 608.389,-31.7421 639.152,-21.551"/>
<polygon fill="midnightblue" stroke="midnightblue" points="640.56,-24.7715 648.952,-18.3042 638.359,-18.1266 640.56,-24.7715"/>
</g>
<!-- Node32&#45;&gt;Node29 -->
<g id="edge40" class="edge"><title>Node32&#45;&gt;Node29</title>
<path fill="none" stroke="midnightblue" d="M540.054,-57.9485C583.339,-48.366 659.089,-31.3687 701.564,-19.8703"/>
<polygon fill="midnightblue" stroke="midnightblue" points="702.659,-23.1985 711.355,-17.1455 700.783,-16.4548 702.659,-23.1985"/>
</g>
<!-- Node33 -->
<g id="node33" class="node"><title>Node33</title>
<polygon fill="white" stroke="#bfbfbf" points="482,-0.5 482,-19.5 534,-19.5 534,-0.5 482,-0.5"/>
<text text-anchor="middle" x="508" y="-7.5" font-family="Helvetica,sans-Serif" font-size="10.00">memory</text>
</g>
<!-- Node32&#45;&gt;Node33 -->
<g id="edge41" class="edge"><title>Node32&#45;&gt;Node33</title>
<path fill="none" stroke="midnightblue" d="M508,-56.083C508,-49.0059 508,-38.8611 508,-29.9865"/>
<polygon fill="midnightblue" stroke="midnightblue" points="511.5,-29.751 508,-19.7511 504.5,-29.7511 511.5,-29.751"/>
</g>
<!-- Node34 -->
<g id="node34" class="node"><title>Node34</title>
<polygon fill="white" stroke="#bfbfbf" points="552.5,-0.5 552.5,-19.5 625.5,-19.5 625.5,-0.5 552.5,-0.5"/>
<text text-anchor="middle" x="589" y="-7.5" font-family="Helvetica,sans-Serif" font-size="10.00">initializer_list</text>
</g>
<!-- Node32&#45;&gt;Node34 -->
<g id="edge42" class="edge"><title>Node32&#45;&gt;Node34</title>
<path fill="none" stroke="midnightblue" d="M521.014,-56.324C533.532,-47.979 552.682,-35.2122 567.471,-25.3524"/>
<polygon fill="midnightblue" stroke="midnightblue" points="569.639,-28.1137 576.018,-19.6545 565.756,-22.2894 569.639,-28.1137"/>
</g>
<!-- Node35&#45;&gt;Node2 -->
<g id="edge44" class="edge"><title>Node35&#45;&gt;Node2</title>
<path fill="none" stroke="midnightblue" d="M1098.09,-506.775C1183.67,-493.447 1364,-458.751 1364,-403 1364,-403 1364,-403 1364,-233 1364,-185.795 1323.55,-186.211 1280,-168 1233.83,-148.694 1100.47,-135.137 1016.6,-128.24"/>
<polygon fill="midnightblue" stroke="midnightblue" points="1016.88,-124.751 1006.63,-127.431 1016.31,-131.728 1016.88,-124.751"/>
</g>
<!-- Node35&#45;&gt;Node20 -->
<g id="edge83" class="edge"><title>Node35&#45;&gt;Node20</title>
<path fill="none" stroke="midnightblue" d="M1098.25,-513.647C1230.23,-514.399 1612,-507.54 1612,-403 1612,-403 1612,-403 1612,-177 1612,-143.452 1705.81,-99.6644 1755.27,-78.909"/>
<polygon fill="midnightblue" stroke="midnightblue" points="1756.91,-82.0163 1764.82,-74.958 1754.24,-75.5484 1756.91,-82.0163"/>
</g>
<!-- Node36 -->
<g id="node36" class="node"><title>Node36</title>
<g id="a_node36"><a xlink:href="jsondef_8h.html" target="_top" xlink:title="support/jsondef.h">
<polygon fill="white" stroke="black" points="794,-392.5 794,-411.5 886,-411.5 886,-392.5 794,-392.5"/>
<text text-anchor="middle" x="840" y="-399.5" font-family="Helvetica,sans-Serif" font-size="10.00">support/jsondef.h</text>
</a>
</g>
</g>
<!-- Node35&#45;&gt;Node36 -->
<g id="edge45" class="edge"><title>Node35&#45;&gt;Node36</title>
<path fill="none" stroke="midnightblue" d="M1037.21,-504.368C999.938,-485.211 910.105,-439.036 865.713,-416.217"/>
<polygon fill="midnightblue" stroke="midnightblue" points="867.208,-413.05 856.714,-411.591 864.008,-419.276 867.208,-413.05"/>
</g>
<!-- Node43 -->
<g id="node43" class="node"><title>Node43</title>
<g id="a_node43"><a xlink:href="datalib_8h.html" target="_top" xlink:title="Data Management header file. ">
<polygon fill="white" stroke="red" points="1009.5,-448.5 1009.5,-467.5 1098.5,-467.5 1098.5,-448.5 1009.5,-448.5"/>
<text text-anchor="middle" x="1054" y="-455.5" font-family="Helvetica,sans-Serif" font-size="10.00">support/datalib.h</text>
</a>
</g>
</g>
<!-- Node35&#45;&gt;Node43 -->
<g id="edge64" class="edge"><title>Node35&#45;&gt;Node43</title>
<path fill="none" stroke="midnightblue" d="M1048.83,-504.083C1047.32,-496.927 1046.89,-486.635 1047.54,-477.691"/>
<polygon fill="midnightblue" stroke="midnightblue" points="1051.02,-478.126 1048.87,-467.751 1044.08,-477.2 1051.02,-478.126"/>
</g>
<!-- Node48 -->
<g id="node48" class="node"><title>Node48</title>
<g id="a_node48"><a xlink:href="stringlib_8h.html" target="_top" xlink:title="stringlib include file A library providing functions for handling various types of string...">
<polygon fill="white" stroke="red" points="504,-280.5 504,-299.5 598,-299.5 598,-280.5 504,-280.5"/>
<text text-anchor="middle" x="551" y="-287.5" font-family="Helvetica,sans-Serif" font-size="10.00">support/stringlib.h</text>
</a>
</g>
</g>
<!-- Node35&#45;&gt;Node48 -->
<g id="edge76" class="edge"><title>Node35&#45;&gt;Node48</title>
<path fill="none" stroke="midnightblue" d="M1025.25,-504.449C957.488,-483.75 783.373,-427.35 649,-356 620.513,-340.874 589.865,-319.663 570.571,-305.638"/>
<polygon fill="midnightblue" stroke="midnightblue" points="572.442,-302.67 562.312,-299.568 568.297,-308.31 572.442,-302.67"/>
</g>
<!-- Node36&#45;&gt;Node2 -->
<g id="edge46" class="edge"><title>Node36&#45;&gt;Node2</title>
<path fill="none" stroke="midnightblue" d="M859.275,-392.437C874.552,-384.799 895.506,-372.307 909,-356 961.461,-292.605 953.728,-185.09 947.989,-141.843"/>
<polygon fill="midnightblue" stroke="midnightblue" points="951.441,-141.261 946.543,-131.867 944.514,-142.266 951.441,-141.261"/>
</g>
<!-- Node37 -->
<g id="node37" class="node"><title>Node37</title>
<g id="a_node37"><a xlink:href="mathlib_8h.html" target="_top" xlink:title="mathlib include file ">
<polygon fill="white" stroke="red" points="1140.5,-224.5 1140.5,-243.5 1221.5,-243.5 1221.5,-224.5 1140.5,-224.5"/>
<text text-anchor="middle" x="1181" y="-231.5" font-family="Helvetica,sans-Serif" font-size="10.00">math/mathlib.h</text>
</a>
</g>
</g>
<!-- Node36&#45;&gt;Node37 -->
<g id="edge47" class="edge"><title>Node36&#45;&gt;Node37</title>
<path fill="none" stroke="midnightblue" d="M878.648,-392.496C909.578,-384.966 953.64,-372.591 990,-356 1056.92,-325.466 1128.21,-274.803 1161.61,-249.838"/>
<polygon fill="midnightblue" stroke="midnightblue" points="1164.12,-252.332 1170,-243.516 1159.9,-246.743 1164.12,-252.332"/>
</g>
<!-- Node39 -->
<g id="node39" class="node"><title>Node39</title>
<g id="a_node39"><a xlink:href="convertdef_8h.html" target="_top" xlink:title="support/convertdef.h">
<polygon fill="white" stroke="black" points="817,-280.5 817,-299.5 923,-299.5 923,-280.5 817,-280.5"/>
<text text-anchor="middle" x="870" y="-287.5" font-family="Helvetica,sans-Serif" font-size="10.00">support/convertdef.h</text>
</a>
</g>
</g>
<!-- Node36&#45;&gt;Node39 -->
<g id="edge53" class="edge"><title>Node36&#45;&gt;Node39</title>
<path fill="none" stroke="midnightblue" d="M856.334,-392.387C868.955,-384.72 885.497,-372.213 893,-356 900.352,-340.112 891.798,-321.163 883.111,-307.836"/>
<polygon fill="midnightblue" stroke="midnightblue" points="885.915,-305.74 877.27,-299.615 880.209,-309.794 885.915,-305.74"/>
</g>
<!-- Node40 -->
<g id="node40" class="node"><title>Node40</title>
<g id="a_node40"><a xlink:href="physicsdef_8h.html" target="_top" xlink:title="Orbit library support definitions. ">
<polygon fill="white" stroke="red" points="658.5,-336.5 658.5,-355.5 767.5,-355.5 767.5,-336.5 658.5,-336.5"/>
<text text-anchor="middle" x="713" y="-343.5" font-family="Helvetica,sans-Serif" font-size="10.00">physics/physicsdef.h</text>
</a>
</g>
</g>
<!-- Node36&#45;&gt;Node40 -->
<g id="edge56" class="edge"><title>Node36&#45;&gt;Node40</title>
<path fill="none" stroke="midnightblue" d="M819.876,-392.444C798.976,-383.557 766.065,-369.563 742.284,-359.451"/>
<polygon fill="midnightblue" stroke="midnightblue" points="743.602,-356.208 733.029,-355.516 740.862,-362.65 743.602,-356.208"/>
</g>
<!-- Node41 -->
<g id="node41" class="node"><title>Node41</title>
<g id="a_node41"><a xlink:href="socketlib_8h.html" target="_top" xlink:title="Socket Support header file. ">
<polygon fill="white" stroke="red" points="785.5,-336.5 785.5,-355.5 884.5,-355.5 884.5,-336.5 785.5,-336.5"/>
<text text-anchor="middle" x="835" y="-343.5" font-family="Helvetica,sans-Serif" font-size="10.00">support/socketlib.h</text>
</a>
</g>
</g>
<!-- Node36&#45;&gt;Node41 -->
<g id="edge59" class="edge"><title>Node36&#45;&gt;Node41</title>
<path fill="none" stroke="midnightblue" d="M839.174,-392.083C838.519,-385.006 837.58,-374.861 836.758,-365.986"/>
<polygon fill="midnightblue" stroke="midnightblue" points="840.217,-365.386 835.81,-355.751 833.247,-366.031 840.217,-365.386"/>
</g>
<!-- Node42 -->
<g id="node42" class="node"><title>Node42</title>
<g id="a_node42"><a xlink:href="objlib_8h.html" target="_top" xlink:title="support/objlib.h">
<polygon fill="white" stroke="red" points="979.5,-280.5 979.5,-299.5 1062.5,-299.5 1062.5,-280.5 979.5,-280.5"/>
<text text-anchor="middle" x="1021" y="-287.5" font-family="Helvetica,sans-Serif" font-size="10.00">support/objlib.h</text>
</a>
</g>
</g>
<!-- Node36&#45;&gt;Node42 -->
<g id="edge61" class="edge"><title>Node36&#45;&gt;Node42</title>
<path fill="none" stroke="midnightblue" d="M879.043,-392.479C904.998,-385.538 938.967,-373.91 965,-356 983.522,-343.257 999.67,-322.945 1009.8,-308.419"/>
<polygon fill="midnightblue" stroke="midnightblue" points="1012.89,-310.1 1015.56,-299.846 1007.08,-306.197 1012.89,-310.1"/>
</g>
<!-- Node37&#45;&gt;Node2 -->
<g id="edge48" class="edge"><title>Node37&#45;&gt;Node2</title>
<path fill="none" stroke="midnightblue" d="M1177.88,-224.301C1172.35,-210.17 1159.45,-182.368 1139,-168 1103.42,-143.001 1055.98,-131.703 1016.92,-126.679"/>
<polygon fill="midnightblue" stroke="midnightblue" points="1017,-123.165 1006.66,-125.477 1016.19,-130.117 1017,-123.165"/>
</g>
<!-- Node37&#45;&gt;Node12 -->
<g id="edge51" class="edge"><title>Node37&#45;&gt;Node12</title>
<path fill="none" stroke="midnightblue" d="M1191.87,-224.404C1221.38,-201.584 1306.29,-139.354 1388,-112 1514.81,-69.5476 1557.77,-101.601 1692.87,-75.8878"/>
<polygon fill="midnightblue" stroke="midnightblue" points="1693.63,-79.3062 1702.76,-73.9348 1692.27,-72.4388 1693.63,-79.3062"/>
</g>
<!-- Node37&#45;&gt;Node14 -->
<g id="edge52" class="edge"><title>Node37&#45;&gt;Node14</title>
<path fill="none" stroke="midnightblue" d="M1180.89,-224.197C1181.15,-201.413 1185.29,-140.322 1221,-112 1288.77,-58.2494 1517.85,-88.7036 1620.82,-75.732"/>
<polygon fill="midnightblue" stroke="midnightblue" points="1621.59,-79.1568 1630.97,-74.2367 1620.56,-72.2316 1621.59,-79.1568"/>
</g>
<!-- Node38 -->
<g id="node38" class="node"><title>Node38</title>
<g id="a_node38"><a xlink:href="cosmos-errno_8h.html" target="_top" xlink:title="COSMOS Error Codes. ">
<polygon fill="white" stroke="red" points="1011.5,-168.5 1011.5,-187.5 1130.5,-187.5 1130.5,-168.5 1011.5,-168.5"/>
<text text-anchor="middle" x="1071" y="-175.5" font-family="Helvetica,sans-Serif" font-size="10.00">support/cosmos&#45;errno.h</text>
</a>
</g>
</g>
<!-- Node37&#45;&gt;Node38 -->
<g id="edge49" class="edge"><title>Node37&#45;&gt;Node38</title>
<path fill="none" stroke="midnightblue" d="M1163.33,-224.324C1145.61,-215.625 1118.1,-202.12 1097.71,-192.113"/>
<polygon fill="midnightblue" stroke="midnightblue" points="1099.15,-188.919 1088.63,-187.655 1096.06,-195.203 1099.15,-188.919"/>
</g>
<!-- Node38&#45;&gt;Node2 -->
<g id="edge50" class="edge"><title>Node38&#45;&gt;Node2</title>
<path fill="none" stroke="midnightblue" d="M1051.03,-168.444C1030.39,-159.596 997.937,-145.687 974.368,-135.586"/>
<polygon fill="midnightblue" stroke="midnightblue" points="975.442,-132.239 964.872,-131.516 972.684,-138.673 975.442,-132.239"/>
</g>
<!-- Node39&#45;&gt;Node2 -->
<g id="edge54" class="edge"><title>Node39&#45;&gt;Node2</title>
<path fill="none" stroke="midnightblue" d="M874.032,-280.075C885.889,-253.832 920.808,-176.545 936.815,-141.117"/>
<polygon fill="midnightblue" stroke="midnightblue" points="940.201,-142.122 941.129,-131.568 933.822,-139.24 940.201,-142.122"/>
</g>
<!-- Node39&#45;&gt;Node37 -->
<g id="edge55" class="edge"><title>Node39&#45;&gt;Node37</title>
<path fill="none" stroke="midnightblue" d="M919.279,-280.444C976.961,-270.428 1072,-253.927 1130.29,-243.805"/>
<polygon fill="midnightblue" stroke="midnightblue" points="1131.12,-247.213 1140.38,-242.054 1129.92,-240.316 1131.12,-247.213"/>
</g>
<!-- Node40&#45;&gt;Node2 -->
<g id="edge57" class="edge"><title>Node40&#45;&gt;Node2</title>
<path fill="none" stroke="midnightblue" d="M718.907,-336.365C737.893,-309.063 800.033,-223.16 867,-168 882.289,-155.406 901.551,-144.255 917.108,-136.204"/>
<polygon fill="midnightblue" stroke="midnightblue" points="918.886,-139.227 926.247,-131.607 915.741,-132.974 918.886,-139.227"/>
</g>
<!-- Node40&#45;&gt;Node39 -->
<g id="edge58" class="edge"><title>Node40&#45;&gt;Node39</title>
<path fill="none" stroke="midnightblue" d="M737.877,-336.444C764.289,-327.359 806.215,-312.939 835.742,-302.783"/>
<polygon fill="midnightblue" stroke="midnightblue" points="836.921,-306.079 845.239,-299.516 834.645,-299.459 836.921,-306.079"/>
</g>
<!-- Node41&#45;&gt;Node2 -->
<g id="edge60" class="edge"><title>Node41&#45;&gt;Node2</title>
<path fill="none" stroke="midnightblue" d="M826.881,-336.246C816.4,-323.836 800.363,-300.366 808,-280 831.567,-217.148 892.946,-162.926 924.941,-137.845"/>
<polygon fill="midnightblue" stroke="midnightblue" points="927.328,-140.425 933.13,-131.56 923.066,-134.871 927.328,-140.425"/>
</g>
<!-- Node42&#45;&gt;Node2 -->
<g id="edge62" class="edge"><title>Node42&#45;&gt;Node2</title>
<path fill="none" stroke="midnightblue" d="M1016.91,-280.075C1004.85,-253.719 969.209,-175.878 953.086,-140.661"/>
<polygon fill="midnightblue" stroke="midnightblue" points="956.268,-139.204 948.923,-131.568 949.903,-142.117 956.268,-139.204"/>
</g>
<!-- Node42&#45;&gt;Node37 -->
<g id="edge63" class="edge"><title>Node42&#45;&gt;Node37</title>
<path fill="none" stroke="midnightblue" d="M1046.35,-280.444C1073.27,-271.359 1116,-256.939 1146.09,-246.783"/>
<polygon fill="midnightblue" stroke="midnightblue" points="1147.41,-250.031 1155.77,-243.516 1145.17,-243.398 1147.41,-250.031"/>
</g>
<!-- Node43&#45;&gt;Node2 -->
<g id="edge65" class="edge"><title>Node43&#45;&gt;Node2</title>
<path fill="none" stroke="midnightblue" d="M1098.61,-448.548C1175.78,-432.642 1326,-395.454 1326,-347 1326,-347 1326,-347 1326,-233 1326,-169.325 1127.08,-140.238 1016.71,-128.999"/>
<polygon fill="midnightblue" stroke="midnightblue" points="1016.93,-125.504 1006.64,-127.998 1016.24,-132.47 1016.93,-125.504"/>
</g>
<!-- Node43&#45;&gt;Node35 -->
<g id="edge68" class="edge"><title>Node43&#45;&gt;Node35</title>
<path fill="none" stroke="midnightblue" d="M1059.13,-467.751C1060.66,-474.858 1061.1,-485.136 1060.47,-494.101"/>
<polygon fill="midnightblue" stroke="midnightblue" points="1056.99,-493.713 1059.17,-504.083 1063.93,-494.622 1056.99,-493.713"/>
</g>
<!-- Node43&#45;&gt;Node36 -->
<g id="edge67" class="edge"><title>Node43&#45;&gt;Node36</title>
<path fill="none" stroke="midnightblue" d="M1020.09,-448.444C983.151,-439.122 923.946,-424.183 883.582,-413.997"/>
<polygon fill="midnightblue" stroke="midnightblue" points="884.303,-410.57 873.75,-411.516 882.59,-417.357 884.303,-410.57"/>
</g>
<!-- Node43&#45;&gt;Node38 -->
<g id="edge66" class="edge"><title>Node43&#45;&gt;Node38</title>
<path fill="none" stroke="midnightblue" d="M1098.57,-449.934C1121.02,-443.877 1146.32,-432.673 1160,-412 1208.64,-338.509 1123.69,-234.604 1086.82,-195.094"/>
<polygon fill="midnightblue" stroke="midnightblue" points="1089.18,-192.497 1079.74,-187.674 1084.11,-197.327 1089.18,-192.497"/>
</g>
<!-- Node44 -->
<g id="node44" class="node"><title>Node44</title>
<g id="a_node44"><a xlink:href="zlib_8h.html" target="_top" xlink:title="thirdparty/zlib/zlib.h">
<polygon fill="white" stroke="red" points="1050.5,-392.5 1050.5,-411.5 1151.5,-411.5 1151.5,-392.5 1050.5,-392.5"/>
<text text-anchor="middle" x="1101" y="-399.5" font-family="Helvetica,sans-Serif" font-size="10.00">thirdparty/zlib/zlib.h</text>
</a>
</g>
</g>
<!-- Node43&#45;&gt;Node44 -->
<g id="edge69" class="edge"><title>Node43&#45;&gt;Node44</title>
<path fill="none" stroke="midnightblue" d="M1061.76,-448.083C1068.54,-440.298 1078.54,-428.801 1086.76,-419.367"/>
<polygon fill="midnightblue" stroke="midnightblue" points="1089.46,-421.592 1093.38,-411.751 1084.18,-416.996 1089.46,-421.592"/>
</g>
<!-- Node45 -->
<g id="node45" class="node"><title>Node45</title>
<g id="a_node45"><a xlink:href="timelib_8h.html" target="_top" xlink:title="timelib include file A library providing functions for handling various types of time. ">
<polygon fill="white" stroke="red" points="1197.5,-280.5 1197.5,-299.5 1286.5,-299.5 1286.5,-280.5 1197.5,-280.5"/>
<text text-anchor="middle" x="1242" y="-287.5" font-family="Helvetica,sans-Serif" font-size="10.00">support/timelib.h</text>
</a>
</g>
</g>
<!-- Node43&#45;&gt;Node45 -->
<g id="edge70" class="edge"><title>Node43&#45;&gt;Node45</title>
<path fill="none" stroke="midnightblue" d="M1098.76,-452.585C1129.04,-447.426 1168.08,-436.243 1194,-412 1223.47,-384.43 1235.18,-336.447 1239.57,-309.944"/>
<polygon fill="midnightblue" stroke="midnightblue" points="1243.08,-310.128 1241.07,-299.725 1236.16,-309.11 1243.08,-310.128"/>
</g>
<!-- Node46 -->
<g id="node46" class="node"><title>Node46</title>
<polygon fill="white" stroke="#bfbfbf" points="904,-392.5 904,-411.5 964,-411.5 964,-392.5 904,-392.5"/>
<text text-anchor="middle" x="934" y="-399.5" font-family="Helvetica,sans-Serif" font-size="10.00">sys/stat.h</text>
</g>
<!-- Node43&#45;&gt;Node46 -->
<g id="edge74" class="edge"><title>Node43&#45;&gt;Node46</title>
<path fill="none" stroke="midnightblue" d="M1034.99,-448.444C1015.41,-439.636 984.692,-425.812 962.271,-415.722"/>
<polygon fill="midnightblue" stroke="midnightblue" points="963.481,-412.428 952.925,-411.516 960.608,-418.812 963.481,-412.428"/>
</g>
<!-- Node47 -->
<g id="node47" class="node"><title>Node47</title>
<polygon fill="white" stroke="#bfbfbf" points="982,-392.5 982,-411.5 1032,-411.5 1032,-392.5 982,-392.5"/>
<text text-anchor="middle" x="1007" y="-399.5" font-family="Helvetica,sans-Serif" font-size="10.00">fstream</text>
</g>
<!-- Node43&#45;&gt;Node47 -->
<g id="edge75" class="edge"><title>Node43&#45;&gt;Node47</title>
<path fill="none" stroke="midnightblue" d="M1046.24,-448.083C1039.46,-440.298 1029.46,-428.801 1021.24,-419.367"/>
<polygon fill="midnightblue" stroke="midnightblue" points="1023.82,-416.996 1014.62,-411.751 1018.54,-421.592 1023.82,-416.996"/>
</g>
<!-- Node45&#45;&gt;Node2 -->
<g id="edge71" class="edge"><title>Node45&#45;&gt;Node2</title>
<path fill="none" stroke="midnightblue" d="M1242.21,-280.367C1242.15,-267.28 1240.53,-242.035 1230,-224 1210.43,-190.487 1197.95,-184.877 1163,-168 1117.16,-145.861 1060.76,-134.591 1016.82,-128.866"/>
<polygon fill="midnightblue" stroke="midnightblue" points="1017.14,-125.379 1006.79,-127.627 1016.29,-132.327 1017.14,-125.379"/>
</g>
<!-- Node45&#45;&gt;Node12 -->
<g id="edge73" class="edge"><title>Node45&#45;&gt;Node12</title>
<path fill="none" stroke="midnightblue" d="M1257.65,-280.364C1306.81,-253.414 1462.96,-169.248 1598,-112 1629.75,-98.5398 1667.05,-85.6584 1692.98,-77.1533"/>
<polygon fill="midnightblue" stroke="midnightblue" points="1694.24,-80.4255 1702.66,-74.0065 1692.07,-73.7681 1694.24,-80.4255"/>
</g>
<!-- Node45&#45;&gt;Node37 -->
<g id="edge72" class="edge"><title>Node45&#45;&gt;Node37</title>
<path fill="none" stroke="midnightblue" d="M1232.2,-280.324C1223.18,-272.341 1209.59,-260.313 1198.68,-250.653"/>
<polygon fill="midnightblue" stroke="midnightblue" points="1200.79,-247.842 1190.98,-243.834 1196.15,-253.083 1200.79,-247.842"/>
</g>
<!-- Node48&#45;&gt;Node2 -->
<g id="edge77" class="edge"><title>Node48&#45;&gt;Node2</title>
<path fill="none" stroke="midnightblue" d="M550.891,-280.192C551.136,-257.395 555.254,-196.276 591,-168 633.4,-134.461 782.515,-125.737 873.136,-123.581"/>
<polygon fill="midnightblue" stroke="midnightblue" points="873.421,-127.076 883.343,-123.36 873.27,-120.078 873.421,-127.076"/>
</g>
<!-- Node48&#45;&gt;Node15 -->
<g id="edge82" class="edge"><title>Node48&#45;&gt;Node15</title>
<path fill="none" stroke="midnightblue" d="M532.67,-280.433C459.861,-246.405 190.817,-120.662 103.535,-79.8689"/>
<polygon fill="midnightblue" stroke="midnightblue" points="104.816,-76.6044 94.2749,-75.5411 101.852,-82.946 104.816,-76.6044"/>
</g>
<!-- Node48&#45;&gt;Node21 -->
<g id="edge81" class="edge"><title>Node48&#45;&gt;Node21</title>
<path fill="none" stroke="midnightblue" d="M503.767,-286.084C398.344,-276.708 144.976,-237.584 41,-76 -0.110495,-12.1123 311.138,-9.68313 412.09,-10.5487"/>
<polygon fill="midnightblue" stroke="midnightblue" points="412.225,-14.0502 422.261,-10.6536 412.297,-7.05057 412.225,-14.0502"/>
</g>
<!-- Node48&#45;&gt;Node49 -->
<g id="edge78" class="edge"><title>Node48&#45;&gt;Node49</title>
<path fill="none" stroke="midnightblue" d="M563.853,-280.324C576.216,-271.979 595.13,-259.212 609.737,-249.352"/>
<polygon fill="midnightblue" stroke="midnightblue" points="611.848,-252.15 618.179,-243.655 607.932,-246.348 611.848,-252.15"/>
</g>
<!-- Node50 -->
<g id="node50" class="node"><title>Node50</title>
<g id="a_node50"><a xlink:href="jsonvalue_8h.html" target="_top" xlink:title="support/jsonvalue.h">
<polygon fill="white" stroke="red" points="600.5,-168.5 600.5,-187.5 701.5,-187.5 701.5,-168.5 600.5,-168.5"/>
<text text-anchor="middle" x="651" y="-175.5" font-family="Helvetica,sans-Serif" font-size="10.00">support/jsonvalue.h</text>
</a>
</g>
</g>
<!-- Node49&#45;&gt;Node50 -->
<g id="edge79" class="edge"><title>Node49&#45;&gt;Node50</title>
<path fill="none" stroke="midnightblue" d="M634.303,-224.083C636.982,-216.849 640.849,-206.409 644.186,-197.397"/>
<polygon fill="midnightblue" stroke="midnightblue" points="647.568,-198.344 647.759,-187.751 641.004,-195.913 647.568,-198.344"/>
</g>
<!-- Node50&#45;&gt;Node2 -->
<g id="edge80" class="edge"><title>Node50&#45;&gt;Node2</title>
<path fill="none" stroke="midnightblue" d="M697.585,-168.444C749.41,-158.925 833.132,-143.547 888.615,-133.356"/>
<polygon fill="midnightblue" stroke="midnightblue" points="889.43,-136.765 898.633,-131.516 888.165,-129.881 889.43,-136.765"/>
</g>
</g>
</svg>
