<?xml version="1.0" encoding="UTF-8" standalone="no"?>
<!DOCTYPE svg PUBLIC "-//W3C//DTD SVG 1.1//EN"
 "http://www.w3.org/Graphics/SVG/1.1/DTD/svg11.dtd">
<!-- Generated by graphviz version 2.38.0 (20140413.2041)
 -->
<!-- Title: geomag.h Pages: 1 -->
<!--zoomable 476 -->
<svg id="main" version="1.1" xmlns="http://www.w3.org/2000/svg" xmlns:xlink="http://www.w3.org/1999/xlink" xml:space="preserve" onload="init(evt)">
<style type="text/css"><![CDATA[
.edge:hover path { stroke: red; }
.edge:hover polygon { stroke: red; fill: red; }
]]></style>
<script type="text/javascript"><![CDATA[
var edges = document.getElementsByTagName('g');
if (edges && edges.length) {
  for (var i=0;i<edges.length;i++) {
    if (edges[i].id.substr(0,4)=='edge') {
      edges[i].setAttribute('class','edge');
    }
  }
}
]]></script>
        <defs>
                <circle id="rim" cx="0" cy="0" r="7"/>
                <circle id="rim2" cx="0" cy="0" r="3.5"/>
                <g id="zoomPlus">
                        <use xlink:href="#rim" fill="#404040">
                                <set attributeName="fill" to="#808080" begin="zoomplus.mouseover" end="zoomplus.mouseout"/>
                        </use>
                        <path d="M-4,0h8M0,-4v8" fill="none" stroke="white" stroke-width="1.5" pointer-events="none"/>
                </g>
                <g id="zoomMin">
                        <use xlink:href="#rim" fill="#404040">
                                <set attributeName="fill" to="#808080" begin="zoomminus.mouseover" end="zoomminus.mouseout"/>
                        </use>
                        <path d="M-4,0h8" fill="none" stroke="white" stroke-width="1.5" pointer-events="none"/>
                </g>
                <g id="dirArrow">
                        <path fill="none" stroke="white" stroke-width="1.5" d="M0,-3.0v7 M-2.5,-0.5L0,-3.0L2.5,-0.5"/>
                </g>
               <g id="resetDef">
                       <use xlink:href="#rim2" fill="#404040">
                               <set attributeName="fill" to="#808080" begin="reset.mouseover" end="reset.mouseout"/>
                       </use>
               </g>
        </defs>

<script type="text/javascript">
var viewWidth = 1830;
var viewHeight = 476;
var sectionId = 'dynsection-0';
</script>
<script xlink:href="svgpan.js"/>
<svg id="graph" class="graph">
<g id="viewport">
<title>geomag.h</title>
<polygon fill="white" stroke="none" points="-4,4 -4,-472 1826,-472 1826,4 -4,4"/>
<!-- Node1 -->
<g id="node1" class="node"><title>Node1</title>
<polygon fill="#bfbfbf" stroke="black" points="1121.5,-448.5 1121.5,-467.5 1180.5,-467.5 1180.5,-448.5 1121.5,-448.5"/>
<text text-anchor="middle" x="1151" y="-455.5" font-family="Helvetica,sans-Serif" font-size="10.00">geomag.h</text>
</g>
<!-- Node2 -->
<g id="node2" class="node"><title>Node2</title>
<g id="a_node2"><a xlink:href="config_cosmos_8h.html" target="_top" xlink:title="Headers and definitions common to all COSMOS. ">
<polygon fill="white" stroke="black" points="970.5,-112.5 970.5,-131.5 1093.5,-131.5 1093.5,-112.5 970.5,-112.5"/>
<text text-anchor="middle" x="1032" y="-119.5" font-family="Helvetica,sans-Serif" font-size="10.00">support/configCosmos.h</text>
</a>
</g>
</g>
<!-- Node1&#45;&gt;Node2 -->
<g id="edge1" class="edge"><title>Node1&#45;&gt;Node2</title>
<path fill="none" stroke="midnightblue" d="M1121.36,-449.684C1077.65,-436.914 1001,-406.097 1001,-347 1001,-347 1001,-347 1001,-233 1001,-199.41 1014.56,-162.14 1023.74,-140.747"/>
<polygon fill="midnightblue" stroke="midnightblue" points="1026.94,-142.165 1027.82,-131.607 1020.55,-139.313 1026.94,-142.165"/>
</g>
<!-- Node35 -->
<g id="node35" class="node"><title>Node35</title>
<g id="a_node35"><a xlink:href="mathlib_8h.html" target="_top" xlink:title="mathlib include file ">
<polygon fill="white" stroke="black" points="1260.5,-392.5 1260.5,-411.5 1341.5,-411.5 1341.5,-392.5 1260.5,-392.5"/>
<text text-anchor="middle" x="1301" y="-399.5" font-family="Helvetica,sans-Serif" font-size="10.00">math/mathlib.h</text>
</a>
</g>
</g>
<!-- Node1&#45;&gt;Node35 -->
<g id="edge43" class="edge"><title>Node1&#45;&gt;Node35</title>
<path fill="none" stroke="midnightblue" d="M1174.77,-448.444C1199.89,-439.399 1239.71,-425.064 1267.9,-414.916"/>
<polygon fill="midnightblue" stroke="midnightblue" points="1269.12,-418.197 1277.34,-411.516 1266.75,-411.611 1269.12,-418.197"/>
</g>
<!-- Node3 -->
<g id="node3" class="node"><title>Node3</title>
<polygon fill="white" stroke="#bfbfbf" points="1508.5,-56.5 1508.5,-75.5 1553.5,-75.5 1553.5,-56.5 1508.5,-56.5"/>
<text text-anchor="middle" x="1531" y="-63.5" font-family="Helvetica,sans-Serif" font-size="10.00">climits</text>
</g>
<!-- Node2&#45;&gt;Node3 -->
<g id="edge2" class="edge"><title>Node2&#45;&gt;Node3</title>
<path fill="none" stroke="midnightblue" d="M1093.65,-117.777C1182.57,-112.498 1351.77,-100.1 1494,-76 1495.47,-75.7515 1496.96,-75.4772 1498.47,-75.1834"/>
<polygon fill="midnightblue" stroke="midnightblue" points="1499.37,-78.5684 1508.41,-73.0323 1497.89,-71.7268 1499.37,-78.5684"/>
</g>
<!-- Node4 -->
<g id="node4" class="node"><title>Node4</title>
<polygon fill="white" stroke="#bfbfbf" points="64.5,-56.5 64.5,-75.5 111.5,-75.5 111.5,-56.5 64.5,-56.5"/>
<text text-anchor="middle" x="88" y="-63.5" font-family="Helvetica,sans-Serif" font-size="10.00">csignal</text>
</g>
<!-- Node2&#45;&gt;Node4 -->
<g id="edge3" class="edge"><title>Node2&#45;&gt;Node4</title>
<path fill="none" stroke="midnightblue" d="M970.234,-119.694C796.322,-115.746 303.936,-102.629 121.66,-75.657"/>
<polygon fill="midnightblue" stroke="midnightblue" points="122.076,-72.1798 111.659,-74.1124 121.007,-79.0978 122.076,-72.1798"/>
</g>
<!-- Node5 -->
<g id="node5" class="node"><title>Node5</title>
<polygon fill="white" stroke="#bfbfbf" points="0,-56.5 0,-75.5 46,-75.5 46,-56.5 0,-56.5"/>
<text text-anchor="middle" x="23" y="-63.5" font-family="Helvetica,sans-Serif" font-size="10.00">cstdint</text>
</g>
<!-- Node2&#45;&gt;Node5 -->
<g id="edge4" class="edge"><title>Node2&#45;&gt;Node5</title>
<path fill="none" stroke="midnightblue" d="M970.427,-120C788.055,-116.753 251.779,-105.079 56.4352,-75.7992"/>
<polygon fill="midnightblue" stroke="midnightblue" points="56.7019,-72.2984 46.281,-74.2106 55.6198,-79.2143 56.7019,-72.2984"/>
</g>
<!-- Node6 -->
<g id="node6" class="node"><title>Node6</title>
<polygon fill="white" stroke="#bfbfbf" points="130,-56.5 130,-75.5 186,-75.5 186,-56.5 130,-56.5"/>
<text text-anchor="middle" x="158" y="-63.5" font-family="Helvetica,sans-Serif" font-size="10.00">cinttypes</text>
</g>
<!-- Node2&#45;&gt;Node6 -->
<g id="edge5" class="edge"><title>Node2&#45;&gt;Node6</title>
<path fill="none" stroke="midnightblue" d="M970.442,-121.568C832.964,-122.001 490.566,-118.443 196.188,-75.8874"/>
<polygon fill="midnightblue" stroke="midnightblue" points="196.577,-72.4072 186.176,-74.4222 195.564,-79.3334 196.577,-72.4072"/>
</g>
<!-- Node7 -->
<g id="node7" class="node"><title>Node7</title>
<polygon fill="white" stroke="#bfbfbf" points="204.5,-56.5 204.5,-75.5 247.5,-75.5 247.5,-56.5 204.5,-56.5"/>
<text text-anchor="middle" x="226" y="-63.5" font-family="Helvetica,sans-Serif" font-size="10.00">cstdio</text>
</g>
<!-- Node2&#45;&gt;Node7 -->
<g id="edge6" class="edge"><title>Node2&#45;&gt;Node7</title>
<path fill="none" stroke="midnightblue" d="M970.422,-119.285C815.506,-114.681 411.575,-100.801 257.996,-75.9188"/>
<polygon fill="midnightblue" stroke="midnightblue" points="258.258,-72.4131 247.813,-74.1862 257.084,-79.3139 258.258,-72.4131"/>
</g>
<!-- Node8 -->
<g id="node8" class="node"><title>Node8</title>
<polygon fill="white" stroke="#bfbfbf" points="265.5,-56.5 265.5,-75.5 314.5,-75.5 314.5,-56.5 265.5,-56.5"/>
<text text-anchor="middle" x="290" y="-63.5" font-family="Helvetica,sans-Serif" font-size="10.00">cstddef</text>
</g>
<!-- Node2&#45;&gt;Node8 -->
<g id="edge7" class="edge"><title>Node2&#45;&gt;Node8</title>
<path fill="none" stroke="midnightblue" d="M970.354,-121.273C848.391,-120.906 567.756,-115.56 324.826,-75.993"/>
<polygon fill="midnightblue" stroke="midnightblue" points="325.183,-72.5046 314.747,-74.3279 324.042,-79.411 325.183,-72.5046"/>
</g>
<!-- Node9 -->
<g id="node9" class="node"><title>Node9</title>
<polygon fill="white" stroke="#bfbfbf" points="332.5,-56.5 332.5,-75.5 377.5,-75.5 377.5,-56.5 332.5,-56.5"/>
<text text-anchor="middle" x="355" y="-63.5" font-family="Helvetica,sans-Serif" font-size="10.00">cstdlib</text>
</g>
<!-- Node2&#45;&gt;Node9 -->
<g id="edge8" class="edge"><title>Node2&#45;&gt;Node9</title>
<path fill="none" stroke="midnightblue" d="M970.132,-120.873C856.397,-119.728 606.506,-112.981 387.662,-75.7119"/>
<polygon fill="midnightblue" stroke="midnightblue" points="388.044,-72.2262 377.594,-73.9718 386.852,-79.1239 388.044,-72.2262"/>
</g>
<!-- Node10 -->
<g id="node10" class="node"><title>Node10</title>
<polygon fill="white" stroke="#bfbfbf" points="396,-56.5 396,-75.5 440,-75.5 440,-56.5 396,-56.5"/>
<text text-anchor="middle" x="418" y="-63.5" font-family="Helvetica,sans-Serif" font-size="10.00">cerrno</text>
</g>
<!-- Node2&#45;&gt;Node10 -->
<g id="edge9" class="edge"><title>Node2&#45;&gt;Node10</title>
<path fill="none" stroke="midnightblue" d="M970.195,-120.386C865,-118.434 644.478,-110.41 450.323,-75.8699"/>
<polygon fill="midnightblue" stroke="midnightblue" points="450.683,-72.3784 440.22,-74.0441 449.438,-79.2668 450.683,-72.3784"/>
</g>
<!-- Node11 -->
<g id="node11" class="node"><title>Node11</title>
<polygon fill="white" stroke="#bfbfbf" points="458,-56.5 458,-75.5 504,-75.5 504,-56.5 458,-56.5"/>
<text text-anchor="middle" x="481" y="-63.5" font-family="Helvetica,sans-Serif" font-size="10.00">cstring</text>
</g>
<!-- Node2&#45;&gt;Node11 -->
<g id="edge10" class="edge"><title>Node2&#45;&gt;Node11</title>
<path fill="none" stroke="midnightblue" d="M970.384,-119.393C874.533,-116.073 683.929,-106.192 514.163,-75.8869"/>
<polygon fill="midnightblue" stroke="midnightblue" points="514.764,-72.439 504.3,-74.0988 513.515,-79.3267 514.764,-72.439"/>
</g>
<!-- Node12 -->
<g id="node12" class="node"><title>Node12</title>
<polygon fill="white" stroke="#bfbfbf" points="1640,-56.5 1640,-75.5 1684,-75.5 1684,-56.5 1640,-56.5"/>
<text text-anchor="middle" x="1662" y="-63.5" font-family="Helvetica,sans-Serif" font-size="10.00">cmath</text>
</g>
<!-- Node2&#45;&gt;Node12 -->
<g id="edge11" class="edge"><title>Node2&#45;&gt;Node12</title>
<path fill="none" stroke="midnightblue" d="M1093.76,-120.568C1201.17,-118.901 1429.3,-111.306 1629.66,-75.8684"/>
<polygon fill="midnightblue" stroke="midnightblue" points="1630.56,-79.2629 1639.78,-74.0497 1629.32,-72.3733 1630.56,-79.2629"/>
</g>
<!-- Node13 -->
<g id="node13" class="node"><title>Node13</title>
<polygon fill="white" stroke="#bfbfbf" points="522.5,-56.5 522.5,-75.5 567.5,-75.5 567.5,-56.5 522.5,-56.5"/>
<text text-anchor="middle" x="545" y="-63.5" font-family="Helvetica,sans-Serif" font-size="10.00">iosfwd</text>
</g>
<!-- Node2&#45;&gt;Node13 -->
<g id="edge12" class="edge"><title>Node2&#45;&gt;Node13</title>
<path fill="none" stroke="midnightblue" d="M970.431,-118.343C884.49,-113.877 723.667,-102.769 577.65,-75.775"/>
<polygon fill="midnightblue" stroke="midnightblue" points="578.083,-72.2953 567.609,-73.889 576.791,-79.175 578.083,-72.2953"/>
</g>
<!-- Node14 -->
<g id="node14" class="node"><title>Node14</title>
<polygon fill="white" stroke="#bfbfbf" points="1702,-56.5 1702,-75.5 1756,-75.5 1756,-56.5 1702,-56.5"/>
<text text-anchor="middle" x="1729" y="-63.5" font-family="Helvetica,sans-Serif" font-size="10.00">iostream</text>
</g>
<!-- Node2&#45;&gt;Node14 -->
<g id="edge13" class="edge"><title>Node2&#45;&gt;Node14</title>
<path fill="none" stroke="midnightblue" d="M1093.92,-120.429C1209.71,-118.569 1466.89,-110.696 1691.96,-75.8714"/>
<polygon fill="midnightblue" stroke="midnightblue" points="1692.64,-79.3078 1701.98,-74.3004 1691.56,-72.3923 1692.64,-79.3078"/>
</g>
<!-- Node15 -->
<g id="node15" class="node"><title>Node15</title>
<polygon fill="white" stroke="#bfbfbf" points="586,-56.5 586,-75.5 638,-75.5 638,-56.5 586,-56.5"/>
<text text-anchor="middle" x="612" y="-63.5" font-family="Helvetica,sans-Serif" font-size="10.00">sstream</text>
</g>
<!-- Node2&#45;&gt;Node15 -->
<g id="edge14" class="edge"><title>Node2&#45;&gt;Node15</title>
<path fill="none" stroke="midnightblue" d="M970.27,-116.376C895.995,-110.234 767.405,-97.7632 648.308,-76.0222"/>
<polygon fill="midnightblue" stroke="midnightblue" points="648.758,-72.546 638.288,-74.1666 647.484,-79.429 648.758,-72.546"/>
</g>
<!-- Node16 -->
<g id="node16" class="node"><title>Node16</title>
<polygon fill="white" stroke="#bfbfbf" points="656.5,-56.5 656.5,-75.5 697.5,-75.5 697.5,-56.5 656.5,-56.5"/>
<text text-anchor="middle" x="677" y="-63.5" font-family="Helvetica,sans-Serif" font-size="10.00">regex</text>
</g>
<!-- Node2&#45;&gt;Node16 -->
<g id="edge15" class="edge"><title>Node2&#45;&gt;Node16</title>
<path fill="none" stroke="midnightblue" d="M970.483,-115.541C906.729,-109.203 804.135,-97.1053 707.71,-76.0981"/>
<polygon fill="midnightblue" stroke="midnightblue" points="708.32,-72.6483 697.799,-73.9021 706.805,-79.4826 708.32,-72.6483"/>
</g>
<!-- Node17 -->
<g id="node17" class="node"><title>Node17</title>
<polygon fill="white" stroke="#bfbfbf" points="1572,-56.5 1572,-75.5 1622,-75.5 1622,-56.5 1572,-56.5"/>
<text text-anchor="middle" x="1597" y="-63.5" font-family="Helvetica,sans-Serif" font-size="10.00">iomanip</text>
</g>
<!-- Node2&#45;&gt;Node17 -->
<g id="edge16" class="edge"><title>Node2&#45;&gt;Node17</title>
<path fill="none" stroke="midnightblue" d="M1093.77,-119.253C1191.4,-115.727 1387.37,-105.545 1561.98,-75.8813"/>
<polygon fill="midnightblue" stroke="midnightblue" points="1562.6,-79.3262 1571.86,-74.1779 1561.41,-72.428 1562.6,-79.3262"/>
</g>
<!-- Node18 -->
<g id="node18" class="node"><title>Node18</title>
<polygon fill="white" stroke="#bfbfbf" points="715.5,-56.5 715.5,-75.5 766.5,-75.5 766.5,-56.5 715.5,-56.5"/>
<text text-anchor="middle" x="741" y="-63.5" font-family="Helvetica,sans-Serif" font-size="10.00">unistd.h</text>
</g>
<!-- Node2&#45;&gt;Node18 -->
<g id="edge17" class="edge"><title>Node2&#45;&gt;Node18</title>
<path fill="none" stroke="midnightblue" d="M976.327,-112.493C926.541,-104.596 851.387,-91.9667 776.625,-75.9891"/>
<polygon fill="midnightblue" stroke="midnightblue" points="777.073,-72.5053 766.56,-73.8168 775.596,-79.3477 777.073,-72.5053"/>
</g>
<!-- Node19 -->
<g id="node19" class="node"><title>Node19</title>
<polygon fill="white" stroke="#bfbfbf" points="785,-56.5 785,-75.5 829,-75.5 829,-56.5 785,-56.5"/>
<text text-anchor="middle" x="807" y="-63.5" font-family="Helvetica,sans-Serif" font-size="10.00">fcntl.h</text>
</g>
<!-- Node2&#45;&gt;Node19 -->
<g id="edge18" class="edge"><title>Node2&#45;&gt;Node19</title>
<path fill="none" stroke="midnightblue" d="M992.46,-112.492C955.22,-104.332 897.664,-91.3411 839.098,-76.1859"/>
<polygon fill="midnightblue" stroke="midnightblue" points="839.87,-72.7703 829.311,-73.6352 838.105,-79.5441 839.87,-72.7703"/>
</g>
<!-- Node20 -->
<g id="node20" class="node"><title>Node20</title>
<polygon fill="white" stroke="#bfbfbf" points="847,-56.5 847,-75.5 887,-75.5 887,-56.5 847,-56.5"/>
<text text-anchor="middle" x="867" y="-63.5" font-family="Helvetica,sans-Serif" font-size="10.00">limits</text>
</g>
<!-- Node2&#45;&gt;Node20 -->
<g id="edge19" class="edge"><title>Node2&#45;&gt;Node20</title>
<path fill="none" stroke="midnightblue" d="M1005.86,-112.444C976.301,-102.771 928.265,-87.0503 897.152,-76.8679"/>
<polygon fill="midnightblue" stroke="midnightblue" points="897.893,-73.4279 887.301,-73.6439 895.716,-80.0807 897.893,-73.4279"/>
</g>
<!-- Node21 -->
<g id="node21" class="node"><title>Node21</title>
<polygon fill="white" stroke="#bfbfbf" points="1338.5,-0.5 1338.5,-19.5 1379.5,-19.5 1379.5,-0.5 1338.5,-0.5"/>
<text text-anchor="middle" x="1359" y="-7.5" font-family="Helvetica,sans-Serif" font-size="10.00">string</text>
</g>
<!-- Node2&#45;&gt;Node21 -->
<g id="edge20" class="edge"><title>Node2&#45;&gt;Node21</title>
<path fill="none" stroke="midnightblue" d="M1093.67,-115.662C1162.28,-108.876 1268.08,-95.6306 1303,-76 1322.81,-64.8637 1338.9,-43.9124 1348.67,-28.8016"/>
<polygon fill="midnightblue" stroke="midnightblue" points="1351.9,-30.2301 1354.15,-19.8769 1345.93,-26.5672 1351.9,-30.2301"/>
</g>
<!-- Node22 -->
<g id="node22" class="node"><title>Node22</title>
<polygon fill="white" stroke="#bfbfbf" points="1560,-0.5 1560,-19.5 1604,-19.5 1604,-0.5 1560,-0.5"/>
<text text-anchor="middle" x="1582" y="-7.5" font-family="Helvetica,sans-Serif" font-size="10.00">vector</text>
</g>
<!-- Node2&#45;&gt;Node22 -->
<g id="edge21" class="edge"><title>Node2&#45;&gt;Node22</title>
<path fill="none" stroke="midnightblue" d="M1093.51,-121.932C1178.18,-121.571 1334.5,-114.956 1461,-76 1466.1,-74.4283 1523.33,-43.222 1557.22,-24.6292"/>
<polygon fill="midnightblue" stroke="midnightblue" points="1559.01,-27.6355 1566.1,-19.7546 1555.65,-21.4995 1559.01,-27.6355"/>
</g>
<!-- Node23 -->
<g id="node23" class="node"><title>Node23</title>
<polygon fill="white" stroke="#bfbfbf" points="981.5,-56.5 981.5,-75.5 1022.5,-75.5 1022.5,-56.5 981.5,-56.5"/>
<text text-anchor="middle" x="1002" y="-63.5" font-family="Helvetica,sans-Serif" font-size="10.00">stack</text>
</g>
<!-- Node2&#45;&gt;Node23 -->
<g id="edge22" class="edge"><title>Node2&#45;&gt;Node23</title>
<path fill="none" stroke="midnightblue" d="M1027.05,-112.083C1022.9,-104.613 1016.85,-93.7244 1011.73,-84.5199"/>
<polygon fill="midnightblue" stroke="midnightblue" points="1014.78,-82.7929 1006.86,-75.7511 1008.66,-86.1924 1014.78,-82.7929"/>
</g>
<!-- Node24 -->
<g id="node24" class="node"><title>Node24</title>
<polygon fill="white" stroke="#bfbfbf" points="1040.5,-56.5 1040.5,-75.5 1083.5,-75.5 1083.5,-56.5 1040.5,-56.5"/>
<text text-anchor="middle" x="1062" y="-63.5" font-family="Helvetica,sans-Serif" font-size="10.00">deque</text>
</g>
<!-- Node2&#45;&gt;Node24 -->
<g id="edge23" class="edge"><title>Node2&#45;&gt;Node24</title>
<path fill="none" stroke="midnightblue" d="M1036.95,-112.083C1041.1,-104.613 1047.15,-93.7244 1052.27,-84.5199"/>
<polygon fill="midnightblue" stroke="midnightblue" points="1055.34,-86.1924 1057.14,-75.7511 1049.22,-82.7929 1055.34,-86.1924"/>
</g>
<!-- Node25 -->
<g id="node25" class="node"><title>Node25</title>
<polygon fill="white" stroke="#bfbfbf" points="905,-0.5 905,-19.5 949,-19.5 949,-0.5 905,-0.5"/>
<text text-anchor="middle" x="927" y="-7.5" font-family="Helvetica,sans-Serif" font-size="10.00">mutex</text>
</g>
<!-- Node2&#45;&gt;Node25 -->
<g id="edge24" class="edge"><title>Node2&#45;&gt;Node25</title>
<path fill="none" stroke="midnightblue" d="M1015.34,-112.345C1001.02,-104.321 980.467,-91.3316 966,-76 952.901,-62.1183 942.127,-43.1033 935.247,-29.2267"/>
<polygon fill="midnightblue" stroke="midnightblue" points="938.218,-27.3234 930.772,-19.787 931.893,-30.3223 938.218,-27.3234"/>
</g>
<!-- Node26 -->
<g id="node26" class="node"><title>Node26</title>
<polygon fill="white" stroke="#bfbfbf" points="990,-0.5 990,-19.5 1034,-19.5 1034,-0.5 990,-0.5"/>
<text text-anchor="middle" x="1012" y="-7.5" font-family="Helvetica,sans-Serif" font-size="10.00">thread</text>
</g>
<!-- Node2&#45;&gt;Node26 -->
<g id="edge25" class="edge"><title>Node2&#45;&gt;Node26</title>
<path fill="none" stroke="midnightblue" d="M1012.7,-112.48C998.571,-105.081 980.443,-92.887 972,-76 963.183,-58.3655 978.129,-39.2712 992.193,-26.3717"/>
<polygon fill="midnightblue" stroke="midnightblue" points="994.851,-28.7045 1000.19,-19.5504 990.307,-23.3801 994.851,-28.7045"/>
</g>
<!-- Node27 -->
<g id="node27" class="node"><title>Node27</title>
<polygon fill="white" stroke="#bfbfbf" points="1064.5,-0.5 1064.5,-19.5 1159.5,-19.5 1159.5,-0.5 1064.5,-0.5"/>
<text text-anchor="middle" x="1112" y="-7.5" font-family="Helvetica,sans-Serif" font-size="10.00">condition_variable</text>
</g>
<!-- Node2&#45;&gt;Node27 -->
<g id="edge26" class="edge"><title>Node2&#45;&gt;Node27</title>
<path fill="none" stroke="midnightblue" d="M1048.56,-112.461C1062.1,-104.68 1080.76,-91.9763 1092,-76 1101.66,-62.2678 1106.76,-43.7379 1109.38,-29.9761"/>
<polygon fill="midnightblue" stroke="midnightblue" points="1112.89,-30.1808 1111.05,-19.7476 1105.99,-29.0533 1112.89,-30.1808"/>
</g>
<!-- Node28 -->
<g id="node28" class="node"><title>Node28</title>
<polygon fill="white" stroke="#bfbfbf" points="1224.5,-0.5 1224.5,-19.5 1267.5,-19.5 1267.5,-0.5 1224.5,-0.5"/>
<text text-anchor="middle" x="1246" y="-7.5" font-family="Helvetica,sans-Serif" font-size="10.00">queue</text>
</g>
<!-- Node2&#45;&gt;Node28 -->
<g id="edge27" class="edge"><title>Node2&#45;&gt;Node28</title>
<path fill="none" stroke="midnightblue" d="M1093.73,-117.73C1155.28,-113.024 1243.66,-101.856 1265,-76 1276.3,-62.3138 1267.67,-42.1706 1258.68,-27.9421"/>
<polygon fill="midnightblue" stroke="midnightblue" points="1261.48,-25.8332 1252.93,-19.5734 1255.71,-29.7975 1261.48,-25.8332"/>
</g>
<!-- Node29 -->
<g id="node29" class="node"><title>Node29</title>
<polygon fill="white" stroke="#bfbfbf" points="1285.5,-0.5 1285.5,-19.5 1320.5,-19.5 1320.5,-0.5 1285.5,-0.5"/>
<text text-anchor="middle" x="1303" y="-7.5" font-family="Helvetica,sans-Serif" font-size="10.00">map</text>
</g>
<!-- Node2&#45;&gt;Node29 -->
<g id="edge28" class="edge"><title>Node2&#45;&gt;Node29</title>
<path fill="none" stroke="midnightblue" d="M1093.63,-117.084C1158.38,-111.75 1254.56,-99.9772 1282,-76 1295.24,-64.4336 1300.18,-44.4715 1302.01,-29.7128"/>
<polygon fill="midnightblue" stroke="midnightblue" points="1305.5,-29.9306 1302.87,-19.6663 1298.53,-29.3277 1305.5,-29.9306"/>
</g>
<!-- Node30 -->
<g id="node30" class="node"><title>Node30</title>
<g id="a_node30"><a xlink:href="cosmos-defs_8h.html" target="_top" xlink:title="COSMOS definitions Definitions specific to the COSMOS environement. ">
<polygon fill="white" stroke="black" points="1140,-56.5 1140,-75.5 1256,-75.5 1256,-56.5 1140,-56.5"/>
<text text-anchor="middle" x="1198" y="-63.5" font-family="Helvetica,sans-Serif" font-size="10.00">support/cosmos&#45;defs.h</text>
</a>
</g>
</g>
<!-- Node2&#45;&gt;Node30 -->
<g id="edge29" class="edge"><title>Node2&#45;&gt;Node30</title>
<path fill="none" stroke="midnightblue" d="M1058.3,-112.444C1086.35,-103.32 1130.94,-88.8133 1162.18,-78.6509"/>
<polygon fill="midnightblue" stroke="midnightblue" points="1163.39,-81.9383 1171.82,-75.5164 1161.23,-75.2816 1163.39,-81.9383"/>
</g>
<!-- Node32 -->
<g id="node32" class="node"><title>Node32</title>
<g id="a_node32"><a xlink:href="json11_8hpp.html" target="_top" xlink:title="json11.hpp">
<polygon fill="white" stroke="black" points="1388,-56.5 1388,-75.5 1452,-75.5 1452,-56.5 1388,-56.5"/>
<text text-anchor="middle" x="1420" y="-63.5" font-family="Helvetica,sans-Serif" font-size="10.00">json11.hpp</text>
</a>
</g>
</g>
<!-- Node2&#45;&gt;Node32 -->
<g id="edge37" class="edge"><title>Node2&#45;&gt;Node32</title>
<path fill="none" stroke="midnightblue" d="M1093.64,-114.063C1162.25,-106.069 1276.33,-91.9639 1374,-76 1375.26,-75.7933 1376.55,-75.5779 1377.84,-75.3557"/>
<polygon fill="midnightblue" stroke="midnightblue" points="1378.65,-78.7662 1387.88,-73.5504 1377.41,-71.8769 1378.65,-78.7662"/>
</g>
<!-- Node30&#45;&gt;Node22 -->
<g id="edge31" class="edge"><title>Node30&#45;&gt;Node22</title>
<path fill="none" stroke="midnightblue" d="M1256.24,-60.3765C1324.54,-54.331 1441.23,-42.0615 1549.93,-19.9386"/>
<polygon fill="midnightblue" stroke="midnightblue" points="1550.67,-23.3608 1559.75,-17.9085 1549.25,-16.5057 1550.67,-23.3608"/>
</g>
<!-- Node30&#45;&gt;Node25 -->
<g id="edge35" class="edge"><title>Node30&#45;&gt;Node25</title>
<path fill="none" stroke="midnightblue" d="M1155.06,-56.4435C1100.55,-45.5826 1007.77,-27.0949 959.05,-17.3864"/>
<polygon fill="midnightblue" stroke="midnightblue" points="959.561,-13.9193 949.069,-15.3976 958.193,-20.7844 959.561,-13.9193"/>
</g>
<!-- Node30&#45;&gt;Node26 -->
<g id="edge34" class="edge"><title>Node30&#45;&gt;Node26</title>
<path fill="none" stroke="midnightblue" d="M1168.53,-56.4435C1134.5,-46.5639 1078.73,-30.3734 1043.76,-20.2208"/>
<polygon fill="midnightblue" stroke="midnightblue" points="1044.63,-16.8296 1034.05,-17.4026 1042.68,-23.552 1044.63,-16.8296"/>
</g>
<!-- Node30&#45;&gt;Node27 -->
<g id="edge36" class="edge"><title>Node30&#45;&gt;Node27</title>
<path fill="none" stroke="midnightblue" d="M1184.18,-56.324C1170.77,-47.9002 1150.18,-34.9709 1134.41,-25.0741"/>
<polygon fill="midnightblue" stroke="midnightblue" points="1136.11,-22.0081 1125.78,-19.6545 1132.39,-27.9364 1136.11,-22.0081"/>
</g>
<!-- Node30&#45;&gt;Node28 -->
<g id="edge33" class="edge"><title>Node30&#45;&gt;Node28</title>
<path fill="none" stroke="midnightblue" d="M1205.93,-56.083C1212.85,-48.2982 1223.07,-36.8015 1231.45,-27.3665"/>
<polygon fill="midnightblue" stroke="midnightblue" points="1234.19,-29.5505 1238.22,-19.7511 1228.96,-24.8999 1234.19,-29.5505"/>
</g>
<!-- Node30&#45;&gt;Node29 -->
<g id="edge30" class="edge"><title>Node30&#45;&gt;Node29</title>
<path fill="none" stroke="midnightblue" d="M1214.87,-56.324C1231.71,-47.6641 1257.81,-34.2424 1277.24,-24.249"/>
<polygon fill="midnightblue" stroke="midnightblue" points="1278.88,-27.3405 1286.17,-19.6545 1275.68,-21.1155 1278.88,-27.3405"/>
</g>
<!-- Node31 -->
<g id="node31" class="node"><title>Node31</title>
<polygon fill="white" stroke="#bfbfbf" points="1177.5,-0.5 1177.5,-19.5 1206.5,-19.5 1206.5,-0.5 1177.5,-0.5"/>
<text text-anchor="middle" x="1192" y="-7.5" font-family="Helvetica,sans-Serif" font-size="10.00">list</text>
</g>
<!-- Node30&#45;&gt;Node31 -->
<g id="edge32" class="edge"><title>Node30&#45;&gt;Node31</title>
<path fill="none" stroke="midnightblue" d="M1197.01,-56.083C1196.21,-48.9272 1195.07,-38.6353 1194.08,-29.6911"/>
<polygon fill="midnightblue" stroke="midnightblue" points="1197.56,-29.3034 1192.97,-19.7511 1190.6,-30.0765 1197.56,-29.3034"/>
</g>
<!-- Node32&#45;&gt;Node21 -->
<g id="edge38" class="edge"><title>Node32&#45;&gt;Node21</title>
<path fill="none" stroke="midnightblue" d="M1410.2,-56.324C1401.18,-48.3414 1387.59,-36.3128 1376.68,-26.6529"/>
<polygon fill="midnightblue" stroke="midnightblue" points="1378.79,-23.8416 1368.98,-19.8339 1374.15,-29.083 1378.79,-23.8416"/>
</g>
<!-- Node32&#45;&gt;Node22 -->
<g id="edge39" class="edge"><title>Node32&#45;&gt;Node22</title>
<path fill="none" stroke="midnightblue" d="M1445.67,-56.4435C1473.96,-47.0118 1519.52,-31.8282 1550.09,-21.6375"/>
<polygon fill="midnightblue" stroke="midnightblue" points="1551.45,-24.8711 1559.83,-18.3884 1549.24,-18.2304 1551.45,-24.8711"/>
</g>
<!-- Node32&#45;&gt;Node29 -->
<g id="edge40" class="edge"><title>Node32&#45;&gt;Node29</title>
<path fill="none" stroke="midnightblue" d="M1401.46,-56.4435C1382.15,-47.532 1351.72,-33.4856 1329.8,-23.3674"/>
<polygon fill="midnightblue" stroke="midnightblue" points="1331.23,-20.1757 1320.69,-19.1629 1328.3,-26.5314 1331.23,-20.1757"/>
</g>
<!-- Node33 -->
<g id="node33" class="node"><title>Node33</title>
<polygon fill="white" stroke="#bfbfbf" points="1398,-0.5 1398,-19.5 1450,-19.5 1450,-0.5 1398,-0.5"/>
<text text-anchor="middle" x="1424" y="-7.5" font-family="Helvetica,sans-Serif" font-size="10.00">memory</text>
</g>
<!-- Node32&#45;&gt;Node33 -->
<g id="edge41" class="edge"><title>Node32&#45;&gt;Node33</title>
<path fill="none" stroke="midnightblue" d="M1420.66,-56.083C1421.18,-49.0059 1421.94,-38.8611 1422.59,-29.9865"/>
<polygon fill="midnightblue" stroke="midnightblue" points="1426.1,-29.9823 1423.35,-19.7511 1419.12,-29.4652 1426.1,-29.9823"/>
</g>
<!-- Node34 -->
<g id="node34" class="node"><title>Node34</title>
<polygon fill="white" stroke="#bfbfbf" points="1468.5,-0.5 1468.5,-19.5 1541.5,-19.5 1541.5,-0.5 1468.5,-0.5"/>
<text text-anchor="middle" x="1505" y="-7.5" font-family="Helvetica,sans-Serif" font-size="10.00">initializer_list</text>
</g>
<!-- Node32&#45;&gt;Node34 -->
<g id="edge42" class="edge"><title>Node32&#45;&gt;Node34</title>
<path fill="none" stroke="midnightblue" d="M1433.66,-56.324C1446.92,-47.9002 1467.27,-34.9709 1482.85,-25.0741"/>
<polygon fill="midnightblue" stroke="midnightblue" points="1484.81,-27.9711 1491.38,-19.6545 1481.06,-22.0626 1484.81,-27.9711"/>
</g>
<!-- Node35&#45;&gt;Node2 -->
<g id="edge44" class="edge"><title>Node35&#45;&gt;Node2</title>
<path fill="none" stroke="midnightblue" d="M1260.49,-399.897C1225.16,-396.759 1174.86,-386.695 1144,-356 1122.66,-334.774 1125,-321.098 1125,-291 1125,-291 1125,-291 1125,-233 1125,-202.902 1124.32,-191.88 1106,-168 1095.26,-154.006 1078.83,-143.388 1064.17,-135.991"/>
<polygon fill="midnightblue" stroke="midnightblue" points="1065.41,-132.705 1054.88,-131.591 1062.42,-139.032 1065.41,-132.705"/>
</g>
<!-- Node35&#45;&gt;Node12 -->
<g id="edge65" class="edge"><title>Node35&#45;&gt;Node12</title>
<path fill="none" stroke="midnightblue" d="M1341.5,-395.101C1424.47,-381.875 1606,-346.586 1606,-291 1606,-291 1606,-291 1606,-177 1606,-140.436 1630.88,-103.747 1647.47,-83.3424"/>
<polygon fill="midnightblue" stroke="midnightblue" points="1650.2,-85.5395 1653.98,-75.6425 1644.85,-81.0212 1650.2,-85.5395"/>
</g>
<!-- Node35&#45;&gt;Node14 -->
<g id="edge66" class="edge"><title>Node35&#45;&gt;Node14</title>
<path fill="none" stroke="midnightblue" d="M1341.88,-401.053C1464.7,-400.122 1822,-388.992 1822,-291 1822,-291 1822,-291 1822,-177 1822,-134.311 1780.65,-99.6429 1753.09,-81.2801"/>
<polygon fill="midnightblue" stroke="midnightblue" points="1754.67,-78.1316 1744.36,-75.6897 1750.89,-84.0278 1754.67,-78.1316"/>
</g>
<!-- Node36 -->
<g id="node36" class="node"><title>Node36</title>
<g id="a_node36"><a xlink:href="cosmos-errno_8h.html" target="_top" xlink:title="COSMOS Error Codes. ">
<polygon fill="white" stroke="black" points="1153.5,-336.5 1153.5,-355.5 1272.5,-355.5 1272.5,-336.5 1153.5,-336.5"/>
<text text-anchor="middle" x="1213" y="-343.5" font-family="Helvetica,sans-Serif" font-size="10.00">support/cosmos&#45;errno.h</text>
</a>
</g>
</g>
<!-- Node35&#45;&gt;Node36 -->
<g id="edge45" class="edge"><title>Node35&#45;&gt;Node36</title>
<path fill="none" stroke="midnightblue" d="M1286.86,-392.324C1273.13,-383.9 1252.06,-370.971 1235.94,-361.074"/>
<polygon fill="midnightblue" stroke="midnightblue" points="1237.46,-357.902 1227.1,-355.655 1233.8,-363.868 1237.46,-357.902"/>
</g>
<!-- Node38 -->
<g id="node38" class="node"><title>Node38</title>
<g id="a_node38"><a xlink:href="math_2constants_8h.html" target="_top" xlink:title="constants.h">
<polygon fill="white" stroke="black" points="1029,-168.5 1029,-187.5 1097,-187.5 1097,-168.5 1029,-168.5"/>
<text text-anchor="middle" x="1063" y="-175.5" font-family="Helvetica,sans-Serif" font-size="10.00">constants.h</text>
</a>
</g>
</g>
<!-- Node35&#45;&gt;Node38 -->
<g id="edge48" class="edge"><title>Node35&#45;&gt;Node38</title>
<path fill="none" stroke="midnightblue" d="M1260.25,-396.252C1210.97,-389.699 1132,-376.338 1111,-356 1066.62,-313.033 1061.94,-233.537 1062.27,-197.554"/>
<polygon fill="midnightblue" stroke="midnightblue" points="1065.77,-197.583 1062.51,-187.502 1058.78,-197.415 1065.77,-197.583"/>
</g>
<!-- Node39 -->
<g id="node39" class="node"><title>Node39</title>
<g id="a_node39"><a xlink:href="vector_8h.html" target="_top" xlink:title="vector.h">
<polygon fill="white" stroke="black" points="1405,-224.5 1405,-243.5 1457,-243.5 1457,-224.5 1405,-224.5"/>
<text text-anchor="middle" x="1431" y="-231.5" font-family="Helvetica,sans-Serif" font-size="10.00">vector.h</text>
</a>
</g>
</g>
<!-- Node35&#45;&gt;Node39 -->
<g id="edge51" class="edge"><title>Node35&#45;&gt;Node39</title>
<path fill="none" stroke="midnightblue" d="M1335.29,-392.468C1355.62,-385.738 1380.39,-374.347 1396,-356 1421.18,-326.403 1428.27,-279.592 1430.25,-253.727"/>
<polygon fill="midnightblue" stroke="midnightblue" points="1433.74,-253.931 1430.83,-243.744 1426.75,-253.522 1433.74,-253.931"/>
</g>
<!-- Node40 -->
<g id="node40" class="node"><title>Node40</title>
<g id="a_node40"><a xlink:href="matrix_8h.html" target="_top" xlink:title="matrix.h">
<polygon fill="white" stroke="black" points="1275,-280.5 1275,-299.5 1327,-299.5 1327,-280.5 1275,-280.5"/>
<text text-anchor="middle" x="1301" y="-287.5" font-family="Helvetica,sans-Serif" font-size="10.00">matrix.h</text>
</a>
</g>
</g>
<!-- Node35&#45;&gt;Node40 -->
<g id="edge58" class="edge"><title>Node35&#45;&gt;Node40</title>
<path fill="none" stroke="midnightblue" d="M1301,-392.368C1301,-374.617 1301,-333.666 1301,-309.597"/>
<polygon fill="midnightblue" stroke="midnightblue" points="1304.5,-309.591 1301,-299.591 1297.5,-309.591 1304.5,-309.591"/>
</g>
<!-- Node41 -->
<g id="node41" class="node"><title>Node41</title>
<g id="a_node41"><a xlink:href="rotation_8h.html" target="_top" xlink:title="rotation.h">
<polygon fill="white" stroke="black" points="1329.5,-336.5 1329.5,-355.5 1386.5,-355.5 1386.5,-336.5 1329.5,-336.5"/>
<text text-anchor="middle" x="1358" y="-343.5" font-family="Helvetica,sans-Serif" font-size="10.00">rotation.h</text>
</a>
</g>
</g>
<!-- Node35&#45;&gt;Node41 -->
<g id="edge61" class="edge"><title>Node35&#45;&gt;Node41</title>
<path fill="none" stroke="midnightblue" d="M1310.16,-392.324C1318.5,-384.42 1331.03,-372.548 1341.18,-362.938"/>
<polygon fill="midnightblue" stroke="midnightblue" points="1343.82,-365.252 1348.68,-355.834 1339.01,-360.171 1343.82,-365.252"/>
</g>
<!-- Node36&#45;&gt;Node2 -->
<g id="edge46" class="edge"><title>Node36&#45;&gt;Node2</title>
<path fill="none" stroke="midnightblue" d="M1213.79,-336.34C1214.66,-323.642 1215.21,-299.381 1209,-280 1191.09,-224.098 1183.7,-206.047 1139,-168 1120.85,-152.552 1096.63,-141.773 1075.83,-134.646"/>
<polygon fill="midnightblue" stroke="midnightblue" points="1076.83,-131.292 1066.24,-131.531 1074.67,-137.949 1076.83,-131.292"/>
</g>
<!-- Node37 -->
<g id="node37" class="node"><title>Node37</title>
<polygon fill="white" stroke="#bfbfbf" points="1153.5,-280.5 1153.5,-299.5 1200.5,-299.5 1200.5,-280.5 1153.5,-280.5"/>
<text text-anchor="middle" x="1177" y="-287.5" font-family="Helvetica,sans-Serif" font-size="10.00">errno.h</text>
</g>
<!-- Node36&#45;&gt;Node37 -->
<g id="edge47" class="edge"><title>Node36&#45;&gt;Node37</title>
<path fill="none" stroke="midnightblue" d="M1207.06,-336.083C1202.02,-328.534 1194.66,-317.495 1188.49,-308.23"/>
<polygon fill="midnightblue" stroke="midnightblue" points="1191.29,-306.13 1182.83,-299.751 1185.47,-310.013 1191.29,-306.13"/>
</g>
<!-- Node38&#45;&gt;Node2 -->
<g id="edge49" class="edge"><title>Node38&#45;&gt;Node2</title>
<path fill="none" stroke="midnightblue" d="M1057.88,-168.083C1053.59,-160.613 1047.34,-149.724 1042.06,-140.52"/>
<polygon fill="midnightblue" stroke="midnightblue" points="1045.04,-138.681 1037.02,-131.751 1038.97,-142.166 1045.04,-138.681"/>
</g>
<!-- Node38&#45;&gt;Node5 -->
<g id="edge50" class="edge"><title>Node38&#45;&gt;Node5</title>
<path fill="none" stroke="midnightblue" d="M1028.76,-175.733C901.039,-170.555 440.551,-147.843 56.2268,-75.9322"/>
<polygon fill="midnightblue" stroke="midnightblue" points="56.7825,-72.4754 46.3071,-74.0619 55.4855,-79.3542 56.7825,-72.4754"/>
</g>
<!-- Node39&#45;&gt;Node2 -->
<g id="edge52" class="edge"><title>Node39&#45;&gt;Node2</title>
<path fill="none" stroke="midnightblue" d="M1425.73,-224.493C1416.32,-210.121 1395.13,-181.301 1369,-168 1324.01,-145.098 1188.7,-132.711 1103.84,-127.012"/>
<polygon fill="midnightblue" stroke="midnightblue" points="1103.96,-123.512 1093.75,-126.349 1103.5,-130.497 1103.96,-123.512"/>
</g>
<!-- Node39&#45;&gt;Node12 -->
<g id="edge56" class="edge"><title>Node39&#45;&gt;Node12</title>
<path fill="none" stroke="midnightblue" d="M1442.11,-224.203C1467.96,-203.841 1534.31,-152.141 1592,-112 1607.51,-101.206 1625.45,-89.6931 1639.28,-81.0147"/>
<polygon fill="midnightblue" stroke="midnightblue" points="1641.49,-83.7636 1648.12,-75.5031 1637.79,-77.8235 1641.49,-83.7636"/>
</g>
<!-- Node39&#45;&gt;Node14 -->
<g id="edge54" class="edge"><title>Node39&#45;&gt;Node14</title>
<path fill="none" stroke="midnightblue" d="M1446.95,-224.448C1463.69,-215.45 1490.76,-200.84 1514,-188 1583.47,-149.622 1665.01,-103.408 1704.76,-80.8086"/>
<polygon fill="midnightblue" stroke="midnightblue" points="1706.97,-83.5781 1713.93,-75.5908 1703.5,-77.494 1706.97,-83.5781"/>
</g>
<!-- Node39&#45;&gt;Node17 -->
<g id="edge55" class="edge"><title>Node39&#45;&gt;Node17</title>
<path fill="none" stroke="midnightblue" d="M1434.75,-224.298C1444.41,-202.777 1472.03,-146.315 1510,-112 1525.4,-98.0846 1545.89,-87.2095 1563.12,-79.6386"/>
<polygon fill="midnightblue" stroke="midnightblue" points="1564.95,-82.6632 1572.82,-75.5648 1562.24,-76.209 1564.95,-82.6632"/>
</g>
<!-- Node39&#45;&gt;Node22 -->
<g id="edge57" class="edge"><title>Node39&#45;&gt;Node22</title>
<path fill="none" stroke="midnightblue" d="M1457.3,-230.115C1523.43,-221.269 1696.25,-187.919 1765,-76 1799.29,-20.1724 1676.07,-11.6472 1614.71,-10.7796"/>
<polygon fill="midnightblue" stroke="midnightblue" points="1614.4,-7.27711 1604.38,-10.6975 1614.35,-14.2769 1614.4,-7.27711"/>
</g>
<!-- Node39&#45;&gt;Node38 -->
<g id="edge53" class="edge"><title>Node39&#45;&gt;Node38</title>
<path fill="none" stroke="midnightblue" d="M1404.83,-229.16C1342.44,-220.005 1184.41,-196.816 1107.04,-185.462"/>
<polygon fill="midnightblue" stroke="midnightblue" points="1107.52,-181.996 1097.12,-184.007 1106.51,-188.922 1107.52,-181.996"/>
</g>
<!-- Node40&#45;&gt;Node2 -->
<g id="edge59" class="edge"><title>Node40&#45;&gt;Node2</title>
<path fill="none" stroke="midnightblue" d="M1299.54,-280.353C1295.28,-257.946 1280.7,-197.686 1243,-168 1221.54,-151.103 1156.04,-138.853 1103.65,-131.439"/>
<polygon fill="midnightblue" stroke="midnightblue" points="1104.09,-127.966 1093.7,-130.066 1103.13,-134.9 1104.09,-127.966"/>
</g>
<!-- Node40&#45;&gt;Node39 -->
<g id="edge60" class="edge"><title>Node40&#45;&gt;Node39</title>
<path fill="none" stroke="midnightblue" d="M1321.6,-280.444C1342.99,-271.557 1376.68,-257.563 1401.02,-247.451"/>
<polygon fill="midnightblue" stroke="midnightblue" points="1402.61,-250.585 1410.5,-243.516 1399.92,-244.12 1402.61,-250.585"/>
</g>
<!-- Node41&#45;&gt;Node2 -->
<g id="edge62" class="edge"><title>Node41&#45;&gt;Node2</title>
<path fill="none" stroke="midnightblue" d="M1356.48,-336.485C1350.78,-307.229 1327.69,-210.306 1266,-168 1240.08,-150.224 1162.48,-137.695 1103.69,-130.448"/>
<polygon fill="midnightblue" stroke="midnightblue" points="1104.03,-126.965 1093.69,-129.243 1103.2,-133.914 1104.03,-126.965"/>
</g>
<!-- Node41&#45;&gt;Node39 -->
<g id="edge63" class="edge"><title>Node41&#45;&gt;Node39</title>
<path fill="none" stroke="midnightblue" d="M1363.73,-336.368C1375.78,-318.215 1403.92,-275.802 1419.72,-251.99"/>
<polygon fill="midnightblue" stroke="midnightblue" points="1422.69,-253.859 1425.3,-243.591 1416.85,-249.988 1422.69,-253.859"/>
</g>
<!-- Node41&#45;&gt;Node40 -->
<g id="edge64" class="edge"><title>Node41&#45;&gt;Node40</title>
<path fill="none" stroke="midnightblue" d="M1348.84,-336.324C1340.5,-328.42 1327.97,-316.548 1317.82,-306.938"/>
<polygon fill="midnightblue" stroke="midnightblue" points="1319.99,-304.171 1310.32,-299.834 1315.18,-309.252 1319.99,-304.171"/>
</g>
</g>
</svg>
        <g id="navigator" transform="translate(0 0)" fill="#404254">
                <rect fill="#f2f5e9" fill-opacity="0.5" stroke="#606060" stroke-width=".5" x="0" y="0" width="60" height="60"/>
                <use id="zoomplus" xlink:href="#zoomPlus" x="17" y="9" onmousedown="handleZoom(evt,'in')"/>
                <use id="zoomminus" xlink:href="#zoomMin" x="42" y="9" onmousedown="handleZoom(evt,'out')"/>
                <use id="reset" xlink:href="#resetDef" x="30" y="36" onmousedown="handleReset()"/>
                <g id="arrowUp" xlink:href="#dirArrow" transform="translate(30 24)" onmousedown="handlePan(0,-1)">
                  <use xlink:href="#rim" fill="#404040">
                        <set attributeName="fill" to="#808080" begin="arrowUp.mouseover" end="arrowUp.mouseout"/>
                  </use>
                  <path fill="none" stroke="white" stroke-width="1.5" d="M0,-3.0v7 M-2.5,-0.5L0,-3.0L2.5,-0.5"/>
                </g>
                <g id="arrowRight" xlink:href="#dirArrow" transform="rotate(90) translate(36 -43)" onmousedown="handlePan(1,0)">
                  <use xlink:href="#rim" fill="#404040">
                        <set attributeName="fill" to="#808080" begin="arrowRight.mouseover" end="arrowRight.mouseout"/>
                  </use>
                  <path fill="none" stroke="white" stroke-width="1.5" d="M0,-3.0v7 M-2.5,-0.5L0,-3.0L2.5,-0.5"/>
                </g>
                <g id="arrowDown" xlink:href="#dirArrow" transform="rotate(180) translate(-30 -48)" onmousedown="handlePan(0,1)">
                  <use xlink:href="#rim" fill="#404040">
                        <set attributeName="fill" to="#808080" begin="arrowDown.mouseover" end="arrowDown.mouseout"/>
                  </use>
                  <path fill="none" stroke="white" stroke-width="1.5" d="M0,-3.0v7 M-2.5,-0.5L0,-3.0L2.5,-0.5"/>
                </g>
                <g id="arrowLeft" xlink:href="#dirArrow" transform="rotate(270) translate(-36 17)" onmousedown="handlePan(-1,0)">
                  <use xlink:href="#rim" fill="#404040">
                        <set attributeName="fill" to="#808080" begin="arrowLeft.mouseover" end="arrowLeft.mouseout"/>
                  </use>
                  <path fill="none" stroke="white" stroke-width="1.5" d="M0,-3.0v7 M-2.5,-0.5L0,-3.0L2.5,-0.5"/>
                </g>
        </g>
        <svg viewBox="0 0 15 15" width="100%" height="30px" preserveAspectRatio="xMaxYMin meet">
         <g id="arrow_out" transform="scale(0.3 0.3)">
          <a xlink:href="geomag_8h__incl_org.svg" target="_base">
           <rect id="button" ry="5" rx="5" y="6" x="6" height="38" width="38"
                fill="#f2f5e9" fill-opacity="0.5" stroke="#606060" stroke-width="1.0"/>
           <path id="arrow"
             d="M 11.500037,31.436501 C 11.940474,20.09759 22.043105,11.32322 32.158766,21.979434 L 37.068811,17.246167 C 37.068811,17.246167 37.088388,32 37.088388,32 L 22.160133,31.978069 C 22.160133,31.978069 26.997745,27.140456 26.997745,27.140456 C 18.528582,18.264221 13.291696,25.230495 11.500037,31.436501 z"
             style="fill:#404040;"/>
          </a>
         </g>
        </svg>
</svg>
