<?xml version="1.0" encoding="UTF-8" standalone="no"?>
<!DOCTYPE svg PUBLIC "-//W3C//DTD SVG 1.1//EN"
 "http://www.w3.org/Graphics/SVG/1.1/DTD/svg11.dtd">
<!-- Generated by graphviz version 2.38.0 (20140413.2041)
 -->
<!-- Title: gige_lib.h Pages: 1 -->
<svg width="467pt" height="140pt"
 viewBox="0.00 0.00 467.00 140.00" xmlns="http://www.w3.org/2000/svg" xmlns:xlink="http://www.w3.org/1999/xlink">
<g id="graph0" class="graph" transform="scale(1 1) rotate(0) translate(4 136)">
<title>gige_lib.h</title>
<polygon fill="white" stroke="none" points="-4,4 -4,-136 463,-136 463,4 -4,4"/>
<!-- Node1 -->
<g id="node1" class="node"><title>Node1</title>
<polygon fill="#bfbfbf" stroke="black" points="163,-112.5 163,-131.5 221,-131.5 221,-112.5 163,-112.5"/>
<text text-anchor="middle" x="192" y="-119.5" font-family="Helvetica,sans-Serif" font-size="10.00">gige_lib.h</text>
</g>
<!-- Node2 -->
<g id="node2" class="node"><title>Node2</title>
<g id="a_node2"><a xlink:href="acq__a35_8cpp.html" target="_top" xlink:title="acq_a35.cpp">
<polygon fill="white" stroke="black" points="0,-0.5 0,-19.5 72,-19.5 72,-0.5 0,-0.5"/>
<text text-anchor="middle" x="36" y="-7.5" font-family="Helvetica,sans-Serif" font-size="10.00">acq_a35.cpp</text>
</a>
</g>
</g>
<!-- Node1&#45;&gt;Node2 -->
<g id="edge1" class="edge"><title>Node1&#45;&gt;Node2</title>
<path fill="none" stroke="midnightblue" d="M152.792,-115.879C108.728,-109.225 41.3265,-96.0345 26,-76 13.2354,-59.3144 23.9859,-33.0353 31.0428,-19.5731"/>
<polygon fill="midnightblue" stroke="midnightblue" points="152.5,-119.373 162.9,-117.353 153.51,-112.447 152.5,-119.373"/>
</g>
<!-- Node3 -->
<g id="node3" class="node"><title>Node3</title>
<g id="a_node3"><a xlink:href="acq__a35_8h.html" target="_top" xlink:title="acq_a35.h">
<polygon fill="white" stroke="black" points="35,-56.5 35,-75.5 97,-75.5 97,-56.5 35,-56.5"/>
<text text-anchor="middle" x="66" y="-63.5" font-family="Helvetica,sans-Serif" font-size="10.00">acq_a35.h</text>
</a>
</g>
</g>
<!-- Node1&#45;&gt;Node3 -->
<g id="edge2" class="edge"><title>Node1&#45;&gt;Node3</title>
<path fill="none" stroke="midnightblue" d="M162.84,-108.503C139.219,-98.3795 106.572,-84.388 85.8717,-75.5164"/>
<polygon fill="midnightblue" stroke="midnightblue" points="161.465,-111.721 172.035,-112.444 164.222,-105.287 161.465,-111.721"/>
</g>
<!-- Node4 -->
<g id="node4" class="node"><title>Node4</title>
<g id="a_node4"><a xlink:href="gige__lib_8cpp.html" target="_top" xlink:title="Support routines for GigE Vision cameras. ">
<polygon fill="white" stroke="black" points="115,-56.5 115,-75.5 183,-75.5 183,-56.5 115,-56.5"/>
<text text-anchor="middle" x="149" y="-63.5" font-family="Helvetica,sans-Serif" font-size="10.00">gige_lib.cpp</text>
</a>
</g>
</g>
<!-- Node1&#45;&gt;Node4 -->
<g id="edge4" class="edge"><title>Node1&#45;&gt;Node4</title>
<path fill="none" stroke="midnightblue" d="M178.578,-104.144C171.086,-94.7357 162.063,-83.4046 155.968,-75.7511"/>
<polygon fill="midnightblue" stroke="midnightblue" points="175.932,-106.44 184.899,-112.083 181.408,-102.08 175.932,-106.44"/>
</g>
<!-- Node5 -->
<g id="node5" class="node"><title>Node5</title>
<g id="a_node5"><a xlink:href="gige__ffc_8cpp.html" target="_top" xlink:title="gige_ffc.cpp">
<polygon fill="white" stroke="black" points="201,-56.5 201,-75.5 271,-75.5 271,-56.5 201,-56.5"/>
<text text-anchor="middle" x="236" y="-63.5" font-family="Helvetica,sans-Serif" font-size="10.00">gige_ffc.cpp</text>
</a>
</g>
</g>
<!-- Node1&#45;&gt;Node5 -->
<g id="edge5" class="edge"><title>Node1&#45;&gt;Node5</title>
<path fill="none" stroke="midnightblue" d="M205.735,-104.144C213.401,-94.7357 222.633,-83.4046 228.869,-75.7511"/>
<polygon fill="midnightblue" stroke="midnightblue" points="202.869,-102.12 199.266,-112.083 208.296,-106.541 202.869,-102.12"/>
</g>
<!-- Node6 -->
<g id="node6" class="node"><title>Node6</title>
<g id="a_node6"><a xlink:href="gige__list_8cpp.html" target="_top" xlink:title="gige_list.cpp">
<polygon fill="white" stroke="black" points="289.5,-56.5 289.5,-75.5 360.5,-75.5 360.5,-56.5 289.5,-56.5"/>
<text text-anchor="middle" x="325" y="-63.5" font-family="Helvetica,sans-Serif" font-size="10.00">gige_list.cpp</text>
</a>
</g>
</g>
<!-- Node1&#45;&gt;Node6 -->
<g id="edge6" class="edge"><title>Node1&#45;&gt;Node6</title>
<path fill="none" stroke="midnightblue" d="M222.448,-108.638C247.407,-98.504 282.077,-84.4274 304.024,-75.5164"/>
<polygon fill="midnightblue" stroke="midnightblue" points="221.023,-105.439 213.074,-112.444 223.656,-111.924 221.023,-105.439"/>
</g>
<!-- Node7 -->
<g id="node7" class="node"><title>Node7</title>
<g id="a_node7"><a xlink:href="gige__snap_8cpp.html" target="_top" xlink:title="gige_snap.cpp">
<polygon fill="white" stroke="black" points="379,-56.5 379,-75.5 459,-75.5 459,-56.5 379,-56.5"/>
<text text-anchor="middle" x="419" y="-63.5" font-family="Helvetica,sans-Serif" font-size="10.00">gige_snap.cpp</text>
</a>
</g>
</g>
<!-- Node1&#45;&gt;Node7 -->
<g id="edge7" class="edge"><title>Node1&#45;&gt;Node7</title>
<path fill="none" stroke="midnightblue" d="M230.977,-111.728C273.718,-101.56 341.726,-85.3823 383.174,-75.5225"/>
<polygon fill="midnightblue" stroke="midnightblue" points="230.13,-108.332 221.212,-114.051 231.75,-115.142 230.13,-108.332"/>
</g>
<!-- Node3&#45;&gt;Node2 -->
<g id="edge3" class="edge"><title>Node3&#45;&gt;Node2</title>
<path fill="none" stroke="midnightblue" d="M56.1526,-47.2747C51.0252,-38.0454 44.9835,-27.1703 40.8617,-19.7511"/>
<polygon fill="midnightblue" stroke="midnightblue" points="53.1301,-49.0412 61.0461,-56.083 59.2492,-45.6416 53.1301,-49.0412"/>
</g>
</g>
</svg>
