<?xml version="1.0" encoding="UTF-8" standalone="no"?>
<!DOCTYPE svg PUBLIC "-//W3C//DTD SVG 1.1//EN"
 "http://www.w3.org/Graphics/SVG/1.1/DTD/svg11.dtd">
<!-- Generated by graphviz version 2.38.0 (20140413.2041)
 -->
<!-- Title: gige_ffc.cpp Pages: 1 -->
<!--zoomable 319 -->
<svg id="main" version="1.1" xmlns="http://www.w3.org/2000/svg" xmlns:xlink="http://www.w3.org/1999/xlink" xml:space="preserve" onload="init(evt)">
<style type="text/css"><![CDATA[
.edge:hover path { stroke: red; }
.edge:hover polygon { stroke: red; fill: red; }
]]></style>
<script type="text/javascript"><![CDATA[
var edges = document.getElementsByTagName('g');
if (edges && edges.length) {
  for (var i=0;i<edges.length;i++) {
    if (edges[i].id.substr(0,4)=='edge') {
      edges[i].setAttribute('class','edge');
    }
  }
}
]]></script>
        <defs>
                <circle id="rim" cx="0" cy="0" r="7"/>
                <circle id="rim2" cx="0" cy="0" r="3.5"/>
                <g id="zoomPlus">
                        <use xlink:href="#rim" fill="#404040">
                                <set attributeName="fill" to="#808080" begin="zoomplus.mouseover" end="zoomplus.mouseout"/>
                        </use>
                        <path d="M-4,0h8M0,-4v8" fill="none" stroke="white" stroke-width="1.5" pointer-events="none"/>
                </g>
                <g id="zoomMin">
                        <use xlink:href="#rim" fill="#404040">
                                <set attributeName="fill" to="#808080" begin="zoomminus.mouseover" end="zoomminus.mouseout"/>
                        </use>
                        <path d="M-4,0h8" fill="none" stroke="white" stroke-width="1.5" pointer-events="none"/>
                </g>
                <g id="dirArrow">
                        <path fill="none" stroke="white" stroke-width="1.5" d="M0,-3.0v7 M-2.5,-0.5L0,-3.0L2.5,-0.5"/>
                </g>
               <g id="resetDef">
                       <use xlink:href="#rim2" fill="#404040">
                               <set attributeName="fill" to="#808080" begin="reset.mouseover" end="reset.mouseout"/>
                       </use>
               </g>
        </defs>

<script type="text/javascript">
var viewWidth = 1763;
var viewHeight = 319;
var sectionId = 'dynsection-0';
</script>
<script xlink:href="svgpan.js"/>
<svg id="graph" class="graph">
<g id="viewport">
<title>gige_ffc.cpp</title>
<polygon fill="white" stroke="none" points="-4,4 -4,-315 1759,-315 1759,4 -4,4"/>
<!-- Node1 -->
<g id="node1" class="node"><title>Node1</title>
<polygon fill="#bfbfbf" stroke="black" points="941.5,-291.5 941.5,-310.5 1011.5,-310.5 1011.5,-291.5 941.5,-291.5"/>
<text text-anchor="middle" x="976.5" y="-298.5" font-family="Helvetica,sans-Serif" font-size="10.00">gige_ffc.cpp</text>
</g>
<!-- Node2 -->
<g id="node2" class="node"><title>Node2</title>
<g id="a_node2"><a xlink:href="config_cosmos_8h.html" target="_top" xlink:title="Headers and definitions common to all COSMOS. ">
<polygon fill="white" stroke="black" points="876,-112.5 876,-131.5 999,-131.5 999,-112.5 876,-112.5"/>
<text text-anchor="middle" x="937.5" y="-119.5" font-family="Helvetica,sans-Serif" font-size="10.00">support/configCosmos.h</text>
</a>
</g>
</g>
<!-- Node1&#45;&gt;Node2 -->
<g id="edge1" class="edge"><title>Node1&#45;&gt;Node2</title>
<path fill="none" stroke="midnightblue" d="M971.77,-291.307C967.154,-282.436 960.288,-268.144 956.5,-255 945.158,-215.643 940.418,-167.646 938.572,-141.744"/>
<polygon fill="midnightblue" stroke="midnightblue" points="942.049,-141.264 937.914,-131.509 935.063,-141.713 942.049,-141.264"/>
</g>
<!-- Node35 -->
<g id="node35" class="node"><title>Node35</title>
<g id="a_node35"><a xlink:href="gige__lib_8h.html" target="_top" xlink:title="device/general/gige\l_lib.h">
<polygon fill="white" stroke="black" points="966,-224.5 966,-254.5 1067,-254.5 1067,-224.5 966,-224.5"/>
<text text-anchor="start" x="974" y="-242.5" font-family="Helvetica,sans-Serif" font-size="10.00">device/general/gige</text>
<text text-anchor="middle" x="1016.5" y="-231.5" font-family="Helvetica,sans-Serif" font-size="10.00">_lib.h</text>
</a>
</g>
</g>
<!-- Node1&#45;&gt;Node35 -->
<g id="edge43" class="edge"><title>Node1&#45;&gt;Node35</title>
<path fill="none" stroke="midnightblue" d="M982.231,-291.475C987.243,-284.019 994.751,-272.852 1001.46,-262.869"/>
<polygon fill="midnightblue" stroke="midnightblue" points="1004.4,-264.775 1007.07,-254.523 998.589,-260.869 1004.4,-264.775"/>
</g>
<!-- Node3 -->
<g id="node3" class="node"><title>Node3</title>
<polygon fill="white" stroke="#bfbfbf" points="0,-56.5 0,-75.5 45,-75.5 45,-56.5 0,-56.5"/>
<text text-anchor="middle" x="22.5" y="-63.5" font-family="Helvetica,sans-Serif" font-size="10.00">climits</text>
</g>
<!-- Node2&#45;&gt;Node3 -->
<g id="edge2" class="edge"><title>Node2&#45;&gt;Node3</title>
<path fill="none" stroke="midnightblue" d="M875.999,-119.722C705.908,-115.899 230.709,-103.192 54.94,-75.8121"/>
<polygon fill="midnightblue" stroke="midnightblue" points="55.4791,-72.3538 45.0465,-74.2009 54.3539,-79.2628 55.4791,-72.3538"/>
</g>
<!-- Node4 -->
<g id="node4" class="node"><title>Node4</title>
<polygon fill="white" stroke="#bfbfbf" points="63,-56.5 63,-75.5 110,-75.5 110,-56.5 63,-56.5"/>
<text text-anchor="middle" x="86.5" y="-63.5" font-family="Helvetica,sans-Serif" font-size="10.00">csignal</text>
</g>
<!-- Node2&#45;&gt;Node4 -->
<g id="edge3" class="edge"><title>Node2&#45;&gt;Node4</title>
<path fill="none" stroke="midnightblue" d="M875.932,-119.299C714.94,-114.586 283.27,-100.19 120.055,-75.6508"/>
<polygon fill="midnightblue" stroke="midnightblue" points="120.584,-72.191 110.161,-74.0961 119.497,-79.1061 120.584,-72.191"/>
</g>
<!-- Node5 -->
<g id="node5" class="node"><title>Node5</title>
<polygon fill="white" stroke="#bfbfbf" points="128.5,-56.5 128.5,-75.5 174.5,-75.5 174.5,-56.5 128.5,-56.5"/>
<text text-anchor="middle" x="151.5" y="-63.5" font-family="Helvetica,sans-Serif" font-size="10.00">cstdint</text>
</g>
<!-- Node2&#45;&gt;Node5 -->
<g id="edge4" class="edge"><title>Node2&#45;&gt;Node5</title>
<path fill="none" stroke="midnightblue" d="M875.914,-121.772C748.282,-122.411 445.734,-118.949 184.831,-75.8551"/>
<polygon fill="midnightblue" stroke="midnightblue" points="185.228,-72.373 174.787,-74.173 184.072,-79.2768 185.228,-72.373"/>
</g>
<!-- Node6 -->
<g id="node6" class="node"><title>Node6</title>
<polygon fill="white" stroke="#bfbfbf" points="192.5,-56.5 192.5,-75.5 248.5,-75.5 248.5,-56.5 192.5,-56.5"/>
<text text-anchor="middle" x="220.5" y="-63.5" font-family="Helvetica,sans-Serif" font-size="10.00">cinttypes</text>
</g>
<!-- Node2&#45;&gt;Node6 -->
<g id="edge5" class="edge"><title>Node2&#45;&gt;Node6</title>
<path fill="none" stroke="midnightblue" d="M875.696,-120.468C757.484,-118.679 491.174,-110.922 258.678,-75.9112"/>
<polygon fill="midnightblue" stroke="midnightblue" points="259.095,-72.4343 248.681,-74.3856 258.039,-79.3542 259.095,-72.4343"/>
</g>
<!-- Node7 -->
<g id="node7" class="node"><title>Node7</title>
<polygon fill="white" stroke="#bfbfbf" points="267,-56.5 267,-75.5 310,-75.5 310,-56.5 267,-56.5"/>
<text text-anchor="middle" x="288.5" y="-63.5" font-family="Helvetica,sans-Serif" font-size="10.00">cstdio</text>
</g>
<!-- Node2&#45;&gt;Node7 -->
<g id="edge6" class="edge"><title>Node2&#45;&gt;Node7</title>
<path fill="none" stroke="midnightblue" d="M875.875,-120.963C765.678,-119.93 527.693,-113.317 320.178,-75.9508"/>
<polygon fill="midnightblue" stroke="midnightblue" points="320.786,-72.5041 310.32,-74.1481 319.527,-79.3899 320.786,-72.5041"/>
</g>
<!-- Node8 -->
<g id="node8" class="node"><title>Node8</title>
<polygon fill="white" stroke="#bfbfbf" points="328,-56.5 328,-75.5 377,-75.5 377,-56.5 328,-56.5"/>
<text text-anchor="middle" x="352.5" y="-63.5" font-family="Helvetica,sans-Serif" font-size="10.00">cstddef</text>
</g>
<!-- Node2&#45;&gt;Node8 -->
<g id="edge7" class="edge"><title>Node2&#45;&gt;Node8</title>
<path fill="none" stroke="midnightblue" d="M875.765,-119.683C775.08,-116.722 569.257,-107.276 387.275,-76.0262"/>
<polygon fill="midnightblue" stroke="midnightblue" points="387.708,-72.5489 377.255,-74.2791 386.505,-79.4449 387.708,-72.5489"/>
</g>
<!-- Node9 -->
<g id="node9" class="node"><title>Node9</title>
<polygon fill="white" stroke="#bfbfbf" points="395,-56.5 395,-75.5 440,-75.5 440,-56.5 395,-56.5"/>
<text text-anchor="middle" x="417.5" y="-63.5" font-family="Helvetica,sans-Serif" font-size="10.00">cstdlib</text>
</g>
<!-- Node2&#45;&gt;Node9 -->
<g id="edge8" class="edge"><title>Node2&#45;&gt;Node9</title>
<path fill="none" stroke="midnightblue" d="M875.762,-118.911C784.583,-115.032 608.543,-104.516 450.037,-75.7395"/>
<polygon fill="midnightblue" stroke="midnightblue" points="450.574,-72.2796 440.105,-73.9079 449.305,-79.1635 450.574,-72.2796"/>
</g>
<!-- Node10 -->
<g id="node10" class="node"><title>Node10</title>
<polygon fill="white" stroke="#bfbfbf" points="458.5,-56.5 458.5,-75.5 502.5,-75.5 502.5,-56.5 458.5,-56.5"/>
<text text-anchor="middle" x="480.5" y="-63.5" font-family="Helvetica,sans-Serif" font-size="10.00">cerrno</text>
</g>
<!-- Node2&#45;&gt;Node10 -->
<g id="edge9" class="edge"><title>Node2&#45;&gt;Node10</title>
<path fill="none" stroke="midnightblue" d="M875.97,-117.931C794.723,-113.119 647.182,-101.758 512.798,-75.9332"/>
<polygon fill="midnightblue" stroke="midnightblue" points="513.221,-72.4497 502.735,-73.9671 511.878,-79.3198 513.221,-72.4497"/>
</g>
<!-- Node11 -->
<g id="node11" class="node"><title>Node11</title>
<polygon fill="white" stroke="#bfbfbf" points="520.5,-56.5 520.5,-75.5 566.5,-75.5 566.5,-56.5 520.5,-56.5"/>
<text text-anchor="middle" x="543.5" y="-63.5" font-family="Helvetica,sans-Serif" font-size="10.00">cstring</text>
</g>
<!-- Node2&#45;&gt;Node11 -->
<g id="edge10" class="edge"><title>Node2&#45;&gt;Node11</title>
<path fill="none" stroke="midnightblue" d="M875.878,-116.185C805.593,-110.058 687.147,-97.8018 576.788,-75.9969"/>
<polygon fill="midnightblue" stroke="midnightblue" points="577.313,-72.5325 566.82,-73.9965 575.936,-79.3957 577.313,-72.5325"/>
</g>
<!-- Node12 -->
<g id="node12" class="node"><title>Node12</title>
<polygon fill="white" stroke="#bfbfbf" points="584.5,-56.5 584.5,-75.5 628.5,-75.5 628.5,-56.5 584.5,-56.5"/>
<text text-anchor="middle" x="606.5" y="-63.5" font-family="Helvetica,sans-Serif" font-size="10.00">cmath</text>
</g>
<!-- Node2&#45;&gt;Node12 -->
<g id="edge11" class="edge"><title>Node2&#45;&gt;Node12</title>
<path fill="none" stroke="midnightblue" d="M875.87,-114.2C817.116,-107.165 726.043,-94.8288 638.579,-75.9941"/>
<polygon fill="midnightblue" stroke="midnightblue" points="639.276,-72.564 628.76,-73.8485 637.782,-79.4027 639.276,-72.564"/>
</g>
<!-- Node13 -->
<g id="node13" class="node"><title>Node13</title>
<polygon fill="white" stroke="#bfbfbf" points="647,-56.5 647,-75.5 692,-75.5 692,-56.5 647,-56.5"/>
<text text-anchor="middle" x="669.5" y="-63.5" font-family="Helvetica,sans-Serif" font-size="10.00">iosfwd</text>
</g>
<!-- Node2&#45;&gt;Node13 -->
<g id="edge12" class="edge"><title>Node2&#45;&gt;Node13</title>
<path fill="none" stroke="midnightblue" d="M885.668,-112.434C839.827,-104.561 770.959,-92.0112 701.906,-75.9262"/>
<polygon fill="midnightblue" stroke="midnightblue" points="702.699,-72.5174 692.163,-73.6332 701.095,-79.3312 702.699,-72.5174"/>
</g>
<!-- Node14 -->
<g id="node14" class="node"><title>Node14</title>
<polygon fill="white" stroke="#bfbfbf" points="710.5,-56.5 710.5,-75.5 764.5,-75.5 764.5,-56.5 710.5,-56.5"/>
<text text-anchor="middle" x="737.5" y="-63.5" font-family="Helvetica,sans-Serif" font-size="10.00">iostream</text>
</g>
<!-- Node2&#45;&gt;Node14 -->
<g id="edge13" class="edge"><title>Node2&#45;&gt;Node14</title>
<path fill="none" stroke="midnightblue" d="M905.809,-112.444C870.169,-102.821 812.353,-87.2102 774.626,-77.0239"/>
<polygon fill="midnightblue" stroke="midnightblue" points="775.119,-73.5319 764.552,-74.3042 773.294,-80.2899 775.119,-73.5319"/>
</g>
<!-- Node15 -->
<g id="node15" class="node"><title>Node15</title>
<polygon fill="white" stroke="#bfbfbf" points="782.5,-56.5 782.5,-75.5 834.5,-75.5 834.5,-56.5 782.5,-56.5"/>
<text text-anchor="middle" x="808.5" y="-63.5" font-family="Helvetica,sans-Serif" font-size="10.00">sstream</text>
</g>
<!-- Node2&#45;&gt;Node15 -->
<g id="edge14" class="edge"><title>Node2&#45;&gt;Node15</title>
<path fill="none" stroke="midnightblue" d="M917.06,-112.444C895.83,-103.557 862.401,-89.5632 838.245,-79.4514"/>
<polygon fill="midnightblue" stroke="midnightblue" points="839.421,-76.1493 828.845,-75.5164 836.718,-82.6064 839.421,-76.1493"/>
</g>
<!-- Node16 -->
<g id="node16" class="node"><title>Node16</title>
<polygon fill="white" stroke="#bfbfbf" points="853,-56.5 853,-75.5 894,-75.5 894,-56.5 853,-56.5"/>
<text text-anchor="middle" x="873.5" y="-63.5" font-family="Helvetica,sans-Serif" font-size="10.00">regex</text>
</g>
<!-- Node2&#45;&gt;Node16 -->
<g id="edge15" class="edge"><title>Node2&#45;&gt;Node16</title>
<path fill="none" stroke="midnightblue" d="M927.217,-112.324C917.664,-104.263 903.22,-92.0765 891.716,-82.3695"/>
<polygon fill="midnightblue" stroke="midnightblue" points="893.87,-79.6076 883.97,-75.8339 889.356,-84.9577 893.87,-79.6076"/>
</g>
<!-- Node17 -->
<g id="node17" class="node"><title>Node17</title>
<polygon fill="white" stroke="#bfbfbf" points="912.5,-56.5 912.5,-75.5 962.5,-75.5 962.5,-56.5 912.5,-56.5"/>
<text text-anchor="middle" x="937.5" y="-63.5" font-family="Helvetica,sans-Serif" font-size="10.00">iomanip</text>
</g>
<!-- Node2&#45;&gt;Node17 -->
<g id="edge16" class="edge"><title>Node2&#45;&gt;Node17</title>
<path fill="none" stroke="midnightblue" d="M937.5,-112.083C937.5,-105.006 937.5,-94.8611 937.5,-85.9865"/>
<polygon fill="midnightblue" stroke="midnightblue" points="941,-85.751 937.5,-75.7511 934,-85.7511 941,-85.751"/>
</g>
<!-- Node18 -->
<g id="node18" class="node"><title>Node18</title>
<polygon fill="white" stroke="#bfbfbf" points="981,-56.5 981,-75.5 1032,-75.5 1032,-56.5 981,-56.5"/>
<text text-anchor="middle" x="1006.5" y="-63.5" font-family="Helvetica,sans-Serif" font-size="10.00">unistd.h</text>
</g>
<!-- Node2&#45;&gt;Node18 -->
<g id="edge17" class="edge"><title>Node2&#45;&gt;Node18</title>
<path fill="none" stroke="midnightblue" d="M948.586,-112.324C958.986,-104.185 974.761,-91.8395 987.222,-82.0874"/>
<polygon fill="midnightblue" stroke="midnightblue" points="989.494,-84.7533 995.212,-75.8339 985.18,-79.2407 989.494,-84.7533"/>
</g>
<!-- Node19 -->
<g id="node19" class="node"><title>Node19</title>
<polygon fill="white" stroke="#bfbfbf" points="1050.5,-56.5 1050.5,-75.5 1094.5,-75.5 1094.5,-56.5 1050.5,-56.5"/>
<text text-anchor="middle" x="1072.5" y="-63.5" font-family="Helvetica,sans-Serif" font-size="10.00">fcntl.h</text>
</g>
<!-- Node2&#45;&gt;Node19 -->
<g id="edge18" class="edge"><title>Node2&#45;&gt;Node19</title>
<path fill="none" stroke="midnightblue" d="M958.891,-112.444C981.207,-103.517 1016.4,-89.4387 1041.71,-79.3168"/>
<polygon fill="midnightblue" stroke="midnightblue" points="1043.22,-82.4801 1051.21,-75.5164 1040.62,-75.9807 1043.22,-82.4801"/>
</g>
<!-- Node20 -->
<g id="node20" class="node"><title>Node20</title>
<polygon fill="white" stroke="#bfbfbf" points="1112.5,-56.5 1112.5,-75.5 1152.5,-75.5 1152.5,-56.5 1112.5,-56.5"/>
<text text-anchor="middle" x="1132.5" y="-63.5" font-family="Helvetica,sans-Serif" font-size="10.00">limits</text>
</g>
<!-- Node2&#45;&gt;Node20 -->
<g id="edge19" class="edge"><title>Node2&#45;&gt;Node20</title>
<path fill="none" stroke="midnightblue" d="M970.355,-112.469C1001.95,-104.182 1051.27,-91.0302 1102.64,-76.1798"/>
<polygon fill="midnightblue" stroke="midnightblue" points="1103.62,-79.5387 1112.25,-73.3879 1101.67,-72.8165 1103.62,-79.5387"/>
</g>
<!-- Node21 -->
<g id="node21" class="node"><title>Node21</title>
<polygon fill="white" stroke="#bfbfbf" points="1714,-0.5 1714,-19.5 1755,-19.5 1755,-0.5 1714,-0.5"/>
<text text-anchor="middle" x="1734.5" y="-7.5" font-family="Helvetica,sans-Serif" font-size="10.00">string</text>
</g>
<!-- Node2&#45;&gt;Node21 -->
<g id="edge20" class="edge"><title>Node2&#45;&gt;Node21</title>
<path fill="none" stroke="midnightblue" d="M999.311,-112.822C1002.08,-112.529 1004.82,-112.253 1007.5,-112 1140.04,-99.5044 1477.28,-111.805 1605.5,-76 1623.88,-70.867 1626.5,-64.6751 1643.5,-56 1664.83,-45.1173 1689.14,-33.1131 1707.27,-24.242"/>
<polygon fill="midnightblue" stroke="midnightblue" points="1709.2,-27.1963 1716.65,-19.663 1706.13,-20.9062 1709.2,-27.1963"/>
</g>
<!-- Node22 -->
<g id="node22" class="node"><title>Node22</title>
<polygon fill="white" stroke="#bfbfbf" points="1436.5,-0.5 1436.5,-19.5 1480.5,-19.5 1480.5,-0.5 1436.5,-0.5"/>
<text text-anchor="middle" x="1458.5" y="-7.5" font-family="Helvetica,sans-Serif" font-size="10.00">vector</text>
</g>
<!-- Node2&#45;&gt;Node22 -->
<g id="edge21" class="edge"><title>Node2&#45;&gt;Node22</title>
<path fill="none" stroke="midnightblue" d="M999.32,-112.907C1002.08,-112.591 1004.82,-112.287 1007.5,-112 1100.64,-102.025 1350.49,-129.329 1427.5,-76 1442.88,-65.3471 1450.88,-44.9323 1454.86,-29.8117"/>
<polygon fill="midnightblue" stroke="midnightblue" points="1458.3,-30.4797 1457.1,-19.9525 1451.47,-28.9276 1458.3,-30.4797"/>
</g>
<!-- Node23 -->
<g id="node23" class="node"><title>Node23</title>
<polygon fill="white" stroke="#bfbfbf" points="1653,-56.5 1653,-75.5 1694,-75.5 1694,-56.5 1653,-56.5"/>
<text text-anchor="middle" x="1673.5" y="-63.5" font-family="Helvetica,sans-Serif" font-size="10.00">stack</text>
</g>
<!-- Node2&#45;&gt;Node23 -->
<g id="edge22" class="edge"><title>Node2&#45;&gt;Node23</title>
<path fill="none" stroke="midnightblue" d="M999.31,-112.812C1002.08,-112.521 1004.82,-112.249 1007.5,-112 1287.2,-86.0733 1360.94,-119.182 1638.5,-76 1639.97,-75.7709 1641.47,-75.5069 1642.98,-75.2164"/>
<polygon fill="midnightblue" stroke="midnightblue" points="1643.91,-78.5955 1652.91,-73.0041 1642.39,-71.7631 1643.91,-78.5955"/>
</g>
<!-- Node24 -->
<g id="node24" class="node"><title>Node24</title>
<polygon fill="white" stroke="#bfbfbf" points="1712,-56.5 1712,-75.5 1755,-75.5 1755,-56.5 1712,-56.5"/>
<text text-anchor="middle" x="1733.5" y="-63.5" font-family="Helvetica,sans-Serif" font-size="10.00">deque</text>
</g>
<!-- Node2&#45;&gt;Node24 -->
<g id="edge23" class="edge"><title>Node2&#45;&gt;Node24</title>
<path fill="none" stroke="midnightblue" d="M999.309,-112.794C1002.07,-112.508 1004.82,-112.242 1007.5,-112 1312.25,-84.5565 1395.72,-126.541 1701.91,-75.6318"/>
<polygon fill="midnightblue" stroke="midnightblue" points="1702.69,-79.051 1711.97,-73.9403 1701.53,-72.148 1702.69,-79.051"/>
</g>
<!-- Node25 -->
<g id="node25" class="node"><title>Node25</title>
<polygon fill="white" stroke="#bfbfbf" points="1090.5,-0.5 1090.5,-19.5 1134.5,-19.5 1134.5,-0.5 1090.5,-0.5"/>
<text text-anchor="middle" x="1112.5" y="-7.5" font-family="Helvetica,sans-Serif" font-size="10.00">mutex</text>
</g>
<!-- Node2&#45;&gt;Node25 -->
<g id="edge24" class="edge"><title>Node2&#45;&gt;Node25</title>
<path fill="none" stroke="midnightblue" d="M999.217,-112.658C1061.89,-103.556 1151.18,-88.6005 1161.5,-76 1175.48,-58.9347 1154.19,-38.5143 1135.45,-25.1748"/>
<polygon fill="midnightblue" stroke="midnightblue" points="1137.4,-22.2695 1127.15,-19.5817 1133.49,-28.0737 1137.4,-22.2695"/>
</g>
<!-- Node26 -->
<g id="node26" class="node"><title>Node26</title>
<polygon fill="white" stroke="#bfbfbf" points="1152.5,-0.5 1152.5,-19.5 1196.5,-19.5 1196.5,-0.5 1152.5,-0.5"/>
<text text-anchor="middle" x="1174.5" y="-7.5" font-family="Helvetica,sans-Serif" font-size="10.00">thread</text>
</g>
<!-- Node2&#45;&gt;Node26 -->
<g id="edge25" class="edge"><title>Node2&#45;&gt;Node26</title>
<path fill="none" stroke="midnightblue" d="M992.827,-112.487C1062.12,-101.561 1172.55,-83.1625 1178.5,-76 1189.09,-63.2474 1186.24,-43.78 1181.87,-29.473"/>
<polygon fill="midnightblue" stroke="midnightblue" points="1185.06,-27.9973 1178.43,-19.735 1178.46,-30.3298 1185.06,-27.9973"/>
</g>
<!-- Node27 -->
<g id="node27" class="node"><title>Node27</title>
<polygon fill="white" stroke="#bfbfbf" points="1215,-0.5 1215,-19.5 1310,-19.5 1310,-0.5 1215,-0.5"/>
<text text-anchor="middle" x="1262.5" y="-7.5" font-family="Helvetica,sans-Serif" font-size="10.00">condition_variable</text>
</g>
<!-- Node2&#45;&gt;Node27 -->
<g id="edge26" class="edge"><title>Node2&#45;&gt;Node27</title>
<path fill="none" stroke="midnightblue" d="M997.529,-112.498C1068.45,-102.152 1179.07,-84.9603 1196.5,-76 1218.74,-64.5664 1238.31,-43.0438 1250.25,-27.9052"/>
<polygon fill="midnightblue" stroke="midnightblue" points="1253.1,-29.9355 1256.36,-19.8541 1247.53,-25.7032 1253.1,-29.9355"/>
</g>
<!-- Node28 -->
<g id="node28" class="node"><title>Node28</title>
<polygon fill="white" stroke="#bfbfbf" points="1375,-0.5 1375,-19.5 1418,-19.5 1418,-0.5 1375,-0.5"/>
<text text-anchor="middle" x="1396.5" y="-7.5" font-family="Helvetica,sans-Serif" font-size="10.00">queue</text>
</g>
<!-- Node2&#45;&gt;Node28 -->
<g id="edge27" class="edge"><title>Node2&#45;&gt;Node28</title>
<path fill="none" stroke="midnightblue" d="M999.321,-112.92C1002.08,-112.601 1004.82,-112.292 1007.5,-112 1052.08,-107.14 1379.24,-109.095 1409.5,-76 1421.11,-63.3034 1414.73,-43.2686 1407.41,-28.7964"/>
<polygon fill="midnightblue" stroke="midnightblue" points="1410.33,-26.8501 1402.4,-19.8244 1404.22,-30.2621 1410.33,-26.8501"/>
</g>
<!-- Node29 -->
<g id="node29" class="node"><title>Node29</title>
<polygon fill="white" stroke="#bfbfbf" points="1499,-0.5 1499,-19.5 1534,-19.5 1534,-0.5 1499,-0.5"/>
<text text-anchor="middle" x="1516.5" y="-7.5" font-family="Helvetica,sans-Serif" font-size="10.00">map</text>
</g>
<!-- Node2&#45;&gt;Node29 -->
<g id="edge28" class="edge"><title>Node2&#45;&gt;Node29</title>
<path fill="none" stroke="midnightblue" d="M999.318,-112.893C1002.08,-112.58 1004.82,-112.281 1007.5,-112 1105.73,-101.7 1360.7,-117.122 1450.5,-76 1473.48,-65.4771 1493.12,-43.378 1504.86,-27.8814"/>
<polygon fill="midnightblue" stroke="midnightblue" points="1507.78,-29.8075 1510.82,-19.6576 1502.12,-25.6976 1507.78,-29.8075"/>
</g>
<!-- Node30 -->
<g id="node30" class="node"><title>Node30</title>
<g id="a_node30"><a xlink:href="cosmos-defs_8h.html" target="_top" xlink:title="COSMOS definitions Definitions specific to the COSMOS environement. ">
<polygon fill="white" stroke="black" points="1284.5,-56.5 1284.5,-75.5 1400.5,-75.5 1400.5,-56.5 1284.5,-56.5"/>
<text text-anchor="middle" x="1342.5" y="-63.5" font-family="Helvetica,sans-Serif" font-size="10.00">support/cosmos&#45;defs.h</text>
</a>
</g>
</g>
<!-- Node2&#45;&gt;Node30 -->
<g id="edge29" class="edge"><title>Node2&#45;&gt;Node30</title>
<path fill="none" stroke="midnightblue" d="M999.011,-112.799C1073.13,-102.916 1197.29,-86.362 1274.28,-76.0957"/>
<polygon fill="midnightblue" stroke="midnightblue" points="1274.91,-79.5432 1284.36,-74.7521 1273.98,-72.6046 1274.91,-79.5432"/>
</g>
<!-- Node32 -->
<g id="node32" class="node"><title>Node32</title>
<g id="a_node32"><a xlink:href="json11_8hpp.html" target="_top" xlink:title="json11.hpp">
<polygon fill="white" stroke="black" points="1532.5,-56.5 1532.5,-75.5 1596.5,-75.5 1596.5,-56.5 1532.5,-56.5"/>
<text text-anchor="middle" x="1564.5" y="-63.5" font-family="Helvetica,sans-Serif" font-size="10.00">json11.hpp</text>
</a>
</g>
</g>
<!-- Node2&#45;&gt;Node32 -->
<g id="edge37" class="edge"><title>Node2&#45;&gt;Node32</title>
<path fill="none" stroke="midnightblue" d="M999.314,-112.856C1002.08,-112.554 1004.82,-112.267 1007.5,-112 1234.06,-89.474 1292.8,-105.914 1518.5,-76 1519.77,-75.8316 1521.06,-75.6499 1522.36,-75.457"/>
<polygon fill="midnightblue" stroke="midnightblue" points="1523.11,-78.8797 1532.41,-73.8001 1521.98,-71.9728 1523.11,-78.8797"/>
</g>
<!-- Node30&#45;&gt;Node22 -->
<g id="edge31" class="edge"><title>Node30&#45;&gt;Node22</title>
<path fill="none" stroke="midnightblue" d="M1360.88,-56.4435C1379.72,-47.6751 1409.23,-33.9355 1430.88,-23.8579"/>
<polygon fill="midnightblue" stroke="midnightblue" points="1432.62,-26.9098 1440.21,-19.5164 1429.66,-20.5637 1432.62,-26.9098"/>
</g>
<!-- Node30&#45;&gt;Node25 -->
<g id="edge35" class="edge"><title>Node30&#45;&gt;Node25</title>
<path fill="none" stroke="midnightblue" d="M1301.55,-56.4926C1263.32,-48.384 1204.48,-35.4763 1144.78,-20.2195"/>
<polygon fill="midnightblue" stroke="midnightblue" points="1145.36,-16.7554 1134.81,-17.6501 1143.62,-23.5341 1145.36,-16.7554"/>
</g>
<!-- Node30&#45;&gt;Node26 -->
<g id="edge34" class="edge"><title>Node30&#45;&gt;Node26</title>
<path fill="none" stroke="midnightblue" d="M1315.88,-56.4435C1286.16,-46.8902 1238.08,-31.436 1206.38,-21.2461"/>
<polygon fill="midnightblue" stroke="midnightblue" points="1207.29,-17.8649 1196.7,-18.1368 1205.15,-24.5291 1207.29,-17.8649"/>
</g>
<!-- Node30&#45;&gt;Node27 -->
<g id="edge36" class="edge"><title>Node30&#45;&gt;Node27</title>
<path fill="none" stroke="midnightblue" d="M1329.65,-56.324C1317.28,-47.979 1298.37,-35.2122 1283.76,-25.3524"/>
<polygon fill="midnightblue" stroke="midnightblue" points="1285.57,-22.3483 1275.32,-19.6545 1281.65,-28.1503 1285.57,-22.3483"/>
</g>
<!-- Node30&#45;&gt;Node28 -->
<g id="edge33" class="edge"><title>Node30&#45;&gt;Node28</title>
<path fill="none" stroke="midnightblue" d="M1351.42,-56.083C1359.28,-48.2195 1370.93,-36.5688 1380.42,-27.0813"/>
<polygon fill="midnightblue" stroke="midnightblue" points="1383.15,-29.2971 1387.75,-19.7511 1378.2,-24.3473 1383.15,-29.2971"/>
</g>
<!-- Node30&#45;&gt;Node29 -->
<g id="edge30" class="edge"><title>Node30&#45;&gt;Node29</title>
<path fill="none" stroke="midnightblue" d="M1371.02,-56.4967C1398.77,-48.1726 1442.36,-34.9676 1489.1,-20.0708"/>
<polygon fill="midnightblue" stroke="midnightblue" points="1490.34,-23.3483 1498.8,-16.9689 1488.21,-16.6809 1490.34,-23.3483"/>
</g>
<!-- Node31 -->
<g id="node31" class="node"><title>Node31</title>
<polygon fill="white" stroke="#bfbfbf" points="1328,-0.5 1328,-19.5 1357,-19.5 1357,-0.5 1328,-0.5"/>
<text text-anchor="middle" x="1342.5" y="-7.5" font-family="Helvetica,sans-Serif" font-size="10.00">list</text>
</g>
<!-- Node30&#45;&gt;Node31 -->
<g id="edge32" class="edge"><title>Node30&#45;&gt;Node31</title>
<path fill="none" stroke="midnightblue" d="M1342.5,-56.083C1342.5,-49.0059 1342.5,-38.8611 1342.5,-29.9865"/>
<polygon fill="midnightblue" stroke="midnightblue" points="1346,-29.751 1342.5,-19.7511 1339,-29.7511 1346,-29.751"/>
</g>
<!-- Node32&#45;&gt;Node21 -->
<g id="edge38" class="edge"><title>Node32&#45;&gt;Node21</title>
<path fill="none" stroke="midnightblue" d="M1591.44,-56.4435C1622.1,-46.7024 1672.08,-30.826 1704.12,-20.6512"/>
<polygon fill="midnightblue" stroke="midnightblue" points="1705.37,-23.9263 1713.84,-17.5631 1703.25,-17.2548 1705.37,-23.9263"/>
</g>
<!-- Node32&#45;&gt;Node22 -->
<g id="edge39" class="edge"><title>Node32&#45;&gt;Node22</title>
<path fill="none" stroke="midnightblue" d="M1547.47,-56.324C1530.47,-47.6641 1504.12,-34.2424 1484.51,-24.249"/>
<polygon fill="midnightblue" stroke="midnightblue" points="1485.99,-21.0752 1475.49,-19.6545 1482.81,-27.3125 1485.99,-21.0752"/>
</g>
<!-- Node32&#45;&gt;Node29 -->
<g id="edge40" class="edge"><title>Node32&#45;&gt;Node29</title>
<path fill="none" stroke="midnightblue" d="M1556.57,-56.083C1549.65,-48.2982 1539.43,-36.8015 1531.05,-27.3665"/>
<polygon fill="midnightblue" stroke="midnightblue" points="1533.54,-24.8999 1524.28,-19.7511 1528.31,-29.5505 1533.54,-24.8999"/>
</g>
<!-- Node33 -->
<g id="node33" class="node"><title>Node33</title>
<polygon fill="white" stroke="#bfbfbf" points="1552.5,-0.5 1552.5,-19.5 1604.5,-19.5 1604.5,-0.5 1552.5,-0.5"/>
<text text-anchor="middle" x="1578.5" y="-7.5" font-family="Helvetica,sans-Serif" font-size="10.00">memory</text>
</g>
<!-- Node32&#45;&gt;Node33 -->
<g id="edge41" class="edge"><title>Node32&#45;&gt;Node33</title>
<path fill="none" stroke="midnightblue" d="M1566.81,-56.083C1568.67,-48.9272 1571.34,-38.6353 1573.65,-29.6911"/>
<polygon fill="midnightblue" stroke="midnightblue" points="1577.11,-30.3094 1576.23,-19.7511 1570.33,-28.5527 1577.11,-30.3094"/>
</g>
<!-- Node34 -->
<g id="node34" class="node"><title>Node34</title>
<polygon fill="white" stroke="#bfbfbf" points="1623,-0.5 1623,-19.5 1696,-19.5 1696,-0.5 1623,-0.5"/>
<text text-anchor="middle" x="1659.5" y="-7.5" font-family="Helvetica,sans-Serif" font-size="10.00">initializer_list</text>
</g>
<!-- Node32&#45;&gt;Node34 -->
<g id="edge42" class="edge"><title>Node32&#45;&gt;Node34</title>
<path fill="none" stroke="midnightblue" d="M1579.76,-56.324C1594.72,-47.8215 1617.75,-34.7288 1635.23,-24.7975"/>
<polygon fill="midnightblue" stroke="midnightblue" points="1637.31,-27.639 1644.27,-19.6545 1633.85,-21.5534 1637.31,-27.639"/>
</g>
<!-- Node35&#45;&gt;Node2 -->
<g id="edge44" class="edge"><title>Node35&#45;&gt;Node2</title>
<path fill="none" stroke="midnightblue" d="M1006.81,-224.337C992.256,-203.054 964.782,-162.887 949.151,-140.035"/>
<polygon fill="midnightblue" stroke="midnightblue" points="951.964,-137.947 943.43,-131.669 946.186,-141.899 951.964,-137.947"/>
</g>
<!-- Node36 -->
<g id="node36" class="node"><title>Node36</title>
<g id="a_node36"><a xlink:href="socketlib_8h.html" target="_top" xlink:title="Socket Support header file. ">
<polygon fill="white" stroke="black" points="1004,-168.5 1004,-187.5 1103,-187.5 1103,-168.5 1004,-168.5"/>
<text text-anchor="middle" x="1053.5" y="-175.5" font-family="Helvetica,sans-Serif" font-size="10.00">support/socketlib.h</text>
</a>
</g>
</g>
<!-- Node35&#45;&gt;Node36 -->
<g id="edge45" class="edge"><title>Node35&#45;&gt;Node36</title>
<path fill="none" stroke="midnightblue" d="M1025.27,-224.399C1030.48,-216.021 1037.13,-205.327 1042.67,-196.423"/>
<polygon fill="midnightblue" stroke="midnightblue" points="1045.81,-197.998 1048.12,-187.658 1039.86,-194.302 1045.81,-197.998"/>
</g>
<!-- Node36&#45;&gt;Node2 -->
<g id="edge46" class="edge"><title>Node36&#45;&gt;Node2</title>
<path fill="none" stroke="midnightblue" d="M1035.12,-168.444C1016.28,-159.675 986.769,-145.935 965.121,-135.858"/>
<polygon fill="midnightblue" stroke="midnightblue" points="966.338,-132.564 955.795,-131.516 963.383,-138.91 966.338,-132.564"/>
</g>
<!-- Node37 -->
<g id="node37" class="node"><title>Node37</title>
<polygon fill="white" stroke="#bfbfbf" points="1017,-112.5 1017,-131.5 1090,-131.5 1090,-112.5 1017,-112.5"/>
<text text-anchor="middle" x="1053.5" y="-119.5" font-family="Helvetica,sans-Serif" font-size="10.00">sys/socket.h</text>
</g>
<!-- Node36&#45;&gt;Node37 -->
<g id="edge47" class="edge"><title>Node36&#45;&gt;Node37</title>
<path fill="none" stroke="midnightblue" d="M1053.5,-168.083C1053.5,-161.006 1053.5,-150.861 1053.5,-141.986"/>
<polygon fill="midnightblue" stroke="midnightblue" points="1057,-141.751 1053.5,-131.751 1050,-141.751 1057,-141.751"/>
</g>
<!-- Node38 -->
<g id="node38" class="node"><title>Node38</title>
<polygon fill="white" stroke="#bfbfbf" points="1108.5,-112.5 1108.5,-131.5 1170.5,-131.5 1170.5,-112.5 1108.5,-112.5"/>
<text text-anchor="middle" x="1139.5" y="-119.5" font-family="Helvetica,sans-Serif" font-size="10.00">sys/ioctl.h</text>
</g>
<!-- Node36&#45;&gt;Node38 -->
<g id="edge48" class="edge"><title>Node36&#45;&gt;Node38</title>
<path fill="none" stroke="midnightblue" d="M1067.32,-168.324C1080.73,-159.9 1101.32,-146.971 1117.09,-137.074"/>
<polygon fill="midnightblue" stroke="midnightblue" points="1119.11,-139.936 1125.72,-131.655 1115.39,-134.008 1119.11,-139.936"/>
</g>
<!-- Node39 -->
<g id="node39" class="node"><title>Node39</title>
<polygon fill="white" stroke="#bfbfbf" points="1189,-112.5 1189,-131.5 1236,-131.5 1236,-112.5 1189,-112.5"/>
<text text-anchor="middle" x="1212.5" y="-119.5" font-family="Helvetica,sans-Serif" font-size="10.00">net/if.h</text>
</g>
<!-- Node36&#45;&gt;Node39 -->
<g id="edge49" class="edge"><title>Node36&#45;&gt;Node39</title>
<path fill="none" stroke="midnightblue" d="M1078.69,-168.444C1105.91,-159.199 1149.41,-144.428 1179.38,-134.25"/>
<polygon fill="midnightblue" stroke="midnightblue" points="1180.64,-137.518 1188.98,-130.988 1178.38,-130.89 1180.64,-137.518"/>
</g>
</g>
</svg>
        <g id="navigator" transform="translate(0 0)" fill="#404254">
                <rect fill="#f2f5e9" fill-opacity="0.5" stroke="#606060" stroke-width=".5" x="0" y="0" width="60" height="60"/>
                <use id="zoomplus" xlink:href="#zoomPlus" x="17" y="9" onmousedown="handleZoom(evt,'in')"/>
                <use id="zoomminus" xlink:href="#zoomMin" x="42" y="9" onmousedown="handleZoom(evt,'out')"/>
                <use id="reset" xlink:href="#resetDef" x="30" y="36" onmousedown="handleReset()"/>
                <g id="arrowUp" xlink:href="#dirArrow" transform="translate(30 24)" onmousedown="handlePan(0,-1)">
                  <use xlink:href="#rim" fill="#404040">
                        <set attributeName="fill" to="#808080" begin="arrowUp.mouseover" end="arrowUp.mouseout"/>
                  </use>
                  <path fill="none" stroke="white" stroke-width="1.5" d="M0,-3.0v7 M-2.5,-0.5L0,-3.0L2.5,-0.5"/>
                </g>
                <g id="arrowRight" xlink:href="#dirArrow" transform="rotate(90) translate(36 -43)" onmousedown="handlePan(1,0)">
                  <use xlink:href="#rim" fill="#404040">
                        <set attributeName="fill" to="#808080" begin="arrowRight.mouseover" end="arrowRight.mouseout"/>
                  </use>
                  <path fill="none" stroke="white" stroke-width="1.5" d="M0,-3.0v7 M-2.5,-0.5L0,-3.0L2.5,-0.5"/>
                </g>
                <g id="arrowDown" xlink:href="#dirArrow" transform="rotate(180) translate(-30 -48)" onmousedown="handlePan(0,1)">
                  <use xlink:href="#rim" fill="#404040">
                        <set attributeName="fill" to="#808080" begin="arrowDown.mouseover" end="arrowDown.mouseout"/>
                  </use>
                  <path fill="none" stroke="white" stroke-width="1.5" d="M0,-3.0v7 M-2.5,-0.5L0,-3.0L2.5,-0.5"/>
                </g>
                <g id="arrowLeft" xlink:href="#dirArrow" transform="rotate(270) translate(-36 17)" onmousedown="handlePan(-1,0)">
                  <use xlink:href="#rim" fill="#404040">
                        <set attributeName="fill" to="#808080" begin="arrowLeft.mouseover" end="arrowLeft.mouseout"/>
                  </use>
                  <path fill="none" stroke="white" stroke-width="1.5" d="M0,-3.0v7 M-2.5,-0.5L0,-3.0L2.5,-0.5"/>
                </g>
        </g>
        <svg viewBox="0 0 15 15" width="100%" height="30px" preserveAspectRatio="xMaxYMin meet">
         <g id="arrow_out" transform="scale(0.3 0.3)">
          <a xlink:href="gige__ffc_8cpp__incl_org.svg" target="_base">
           <rect id="button" ry="5" rx="5" y="6" x="6" height="38" width="38"
                fill="#f2f5e9" fill-opacity="0.5" stroke="#606060" stroke-width="1.0"/>
           <path id="arrow"
             d="M 11.500037,31.436501 C 11.940474,20.09759 22.043105,11.32322 32.158766,21.979434 L 37.068811,17.246167 C 37.068811,17.246167 37.088388,32 37.088388,32 L 22.160133,31.978069 C 22.160133,31.978069 26.997745,27.140456 26.997745,27.140456 C 18.528582,18.264221 13.291696,25.230495 11.500037,31.436501 z"
             style="fill:#404040;"/>
          </a>
         </g>
        </svg>
</svg>
