<?xml version="1.0" encoding="UTF-8" standalone="no"?>
<!DOCTYPE svg PUBLIC "-//W3C//DTD SVG 1.1//EN"
 "http://www.w3.org/Graphics/SVG/1.1/DTD/svg11.dtd">
<!-- Generated by graphviz version 2.38.0 (20140413.2041)
 -->
<!-- Title: Time handling library Pages: 1 -->
<svg width="400pt" height="116pt"
 viewBox="0.00 0.00 400.00 115.50" xmlns="http://www.w3.org/2000/svg" xmlns:xlink="http://www.w3.org/1999/xlink">
<g id="graph0" class="graph" transform="scale(1 1) rotate(0) translate(4 111.5)">
<title>Time handling library</title>
<polygon fill="white" stroke="none" points="-4,4 -4,-111.5 396,-111.5 396,4 -4,4"/>
<!-- Node1 -->
<g id="node1" class="node"><title>Node1</title>
<g id="a_node1"><a xlink:href="group__support.html" target="_top" xlink:title="Support Libraries">
<polygon fill="white" stroke="black" points="0,-38.5 0,-57.5 90,-57.5 90,-38.5 0,-38.5"/>
<text text-anchor="middle" x="45" y="-45.5" font-family="Helvetica,sans-Serif" font-size="10.00">Support Libraries</text>
</a>
</g>
</g>
<!-- Node0 -->
<g id="node4" class="node"><title>Node0</title>
<polygon fill="#bfbfbf" stroke="black" points="126,-38.5 126,-57.5 233,-57.5 233,-38.5 126,-38.5"/>
<text text-anchor="middle" x="179.5" y="-45.5" font-family="Helvetica,sans-Serif" font-size="10.00">Time handling library</text>
</g>
<!-- Node1&#45;&gt;Node0 -->
<g id="edge1" class="edge"><title>Node1&#45;&gt;Node0</title>
<path fill="none" stroke="black" d="M100.254,-48C108.704,-48 117.422,-48 125.835,-48"/>
<polygon fill="black" stroke="black" points="100.121,-44.5001 90.1206,-48 100.121,-51.5001 100.121,-44.5001"/>
</g>
<!-- Node3 -->
<g id="node2" class="node"><title>Node3</title>
<g id="a_node2"><a xlink:href="group__timelib__typedefs.html" target="_top" xlink:title="Time handling type\l definitions">
<polygon fill="white" stroke="black" points="281,-77 281,-107 380,-107 380,-77 281,-77"/>
<text text-anchor="start" x="289" y="-95" font-family="Helvetica,sans-Serif" font-size="10.00">Time handling type</text>
<text text-anchor="middle" x="330.5" y="-84" font-family="Helvetica,sans-Serif" font-size="10.00"> definitions</text>
</a>
</g>
</g>
<!-- Node4 -->
<g id="node3" class="node"><title>Node4</title>
<g id="a_node3"><a xlink:href="group__timelib__functions.html" target="_top" xlink:title="Time handling functions">
<polygon fill="white" stroke="black" points="270.5,-38.5 270.5,-57.5 390.5,-57.5 390.5,-38.5 270.5,-38.5"/>
<text text-anchor="middle" x="330.5" y="-45.5" font-family="Helvetica,sans-Serif" font-size="10.00">Time handling functions</text>
</a>
</g>
</g>
<!-- Node0&#45;&gt;Node3 -->
<g id="edge3" class="edge"><title>Node0&#45;&gt;Node3</title>
<path fill="none" stroke="black" d="M222.539,-60.4142C240.669,-65.7681 261.988,-72.0636 280.802,-77.6194"/>
<polygon fill="black" stroke="black" points="223.413,-57.0228 212.831,-57.5473 221.43,-63.7362 223.413,-57.0228"/>
</g>
<!-- Node0&#45;&gt;Node4 -->
<g id="edge4" class="edge"><title>Node0&#45;&gt;Node4</title>
<path fill="none" stroke="black" d="M243.089,-48C252.113,-48 261.376,-48 270.33,-48"/>
<polygon fill="black" stroke="black" points="243.032,-44.5001 233.032,-48 243.032,-51.5001 243.032,-44.5001"/>
</g>
<!-- Node2 -->
<g id="node5" class="node"><title>Node2</title>
<g id="a_node5"><a xlink:href="group__timelib__constants.html" target="_top" xlink:title="Time handling constants">
<polygon fill="white" stroke="black" points="269,-0.5 269,-19.5 392,-19.5 392,-0.5 269,-0.5"/>
<text text-anchor="middle" x="330.5" y="-7.5" font-family="Helvetica,sans-Serif" font-size="10.00">Time handling constants</text>
</a>
</g>
</g>
<!-- Node0&#45;&gt;Node2 -->
<g id="edge2" class="edge"><title>Node0&#45;&gt;Node2</title>
<path fill="none" stroke="black" d="M227.992,-35.8879C248.744,-30.5956 272.728,-24.4787 292.171,-19.5201"/>
<polygon fill="black" stroke="black" points="226.924,-32.5482 218.099,-38.411 228.654,-39.3311 226.924,-32.5482"/>
</g>
</g>
</svg>
