<?xml version="1.0" encoding="UTF-8" standalone="no"?>
<!DOCTYPE svg PUBLIC "-//W3C//DTD SVG 1.1//EN"
 "http://www.w3.org/Graphics/SVG/1.1/DTD/svg11.dtd">
<!-- Generated by graphviz version 2.38.0 (20140413.2041)
 -->
<!-- Title: COSMOS Error codes Pages: 1 -->
<svg width="442pt" height="66pt"
 viewBox="0.00 0.00 442.00 66.00" xmlns="http://www.w3.org/2000/svg" xmlns:xlink="http://www.w3.org/1999/xlink">
<g id="graph0" class="graph" transform="scale(1 1) rotate(0) translate(4 62)">
<title>COSMOS Error codes</title>
<polygon fill="white" stroke="none" points="-4,4 -4,-62 438,-62 438,4 -4,4"/>
<!-- Node2 -->
<g id="node1" class="node"><title>Node2</title>
<g id="a_node1"><a xlink:href="group__error__functions.html" target="_top" xlink:title="Errno support functions">
<polygon fill="white" stroke="black" points="296,-38.5 296,-57.5 414,-57.5 414,-38.5 296,-38.5"/>
<text text-anchor="middle" x="355" y="-45.5" font-family="Helvetica,sans-Serif" font-size="10.00">Errno support functions</text>
</a>
</g>
</g>
<!-- Node1 -->
<g id="node2" class="node"><title>Node1</title>
<g id="a_node2"><a xlink:href="group__support.html" target="_top" xlink:title="Support Libraries">
<polygon fill="white" stroke="black" points="0,-19.5 0,-38.5 90,-38.5 90,-19.5 0,-19.5"/>
<text text-anchor="middle" x="45" y="-26.5" font-family="Helvetica,sans-Serif" font-size="10.00">Support Libraries</text>
</a>
</g>
</g>
<!-- Node0 -->
<g id="node4" class="node"><title>Node0</title>
<polygon fill="#bfbfbf" stroke="black" points="126,-19.5 126,-38.5 240,-38.5 240,-19.5 126,-19.5"/>
<text text-anchor="middle" x="183" y="-26.5" font-family="Helvetica,sans-Serif" font-size="10.00">COSMOS Error codes</text>
</g>
<!-- Node1&#45;&gt;Node0 -->
<g id="edge1" class="edge"><title>Node1&#45;&gt;Node0</title>
<path fill="none" stroke="black" d="M100.192,-29C108.569,-29 117.238,-29 125.66,-29"/>
<polygon fill="black" stroke="black" points="100.155,-25.5001 90.1553,-29 100.155,-32.5001 100.155,-25.5001"/>
</g>
<!-- Node3 -->
<g id="node3" class="node"><title>Node3</title>
<g id="a_node3"><a xlink:href="group__error__defines.html" target="_top" xlink:title="COSMOS Error Code definitions">
<polygon fill="white" stroke="black" points="276,-0.5 276,-19.5 434,-19.5 434,-0.5 276,-0.5"/>
<text text-anchor="middle" x="355" y="-7.5" font-family="Helvetica,sans-Serif" font-size="10.00">COSMOS Error Code definitions</text>
</a>
</g>
</g>
<!-- Node0&#45;&gt;Node2 -->
<g id="edge2" class="edge"><title>Node0&#45;&gt;Node2</title>
<path fill="none" stroke="black" d="M250.379,-36.4189C265.4,-38.0976 281.236,-39.8676 295.885,-41.5048"/>
<polygon fill="black" stroke="black" points="250.462,-32.9064 240.135,-35.274 249.685,-39.8631 250.462,-32.9064"/>
</g>
<!-- Node0&#45;&gt;Node3 -->
<g id="edge3" class="edge"><title>Node0&#45;&gt;Node3</title>
<path fill="none" stroke="black" d="M250.206,-21.6005C258.586,-20.664 267.222,-19.6988 275.766,-18.7438"/>
<polygon fill="black" stroke="black" points="249.685,-18.1369 240.135,-22.726 250.462,-25.0936 249.685,-18.1369"/>
</g>
</g>
</svg>
