<?xml version="1.0" encoding="UTF-8" standalone="no"?>
<!DOCTYPE svg PUBLIC "-//W3C//DTD SVG 1.1//EN"
 "http://www.w3.org/Graphics/SVG/1.1/DTD/svg11.dtd">
<!-- Generated by graphviz version 2.38.0 (20140413.2041)
 -->
<!-- Title: COSMOS SLIP encoding library Pages: 1 -->
<svg width="419pt" height="137pt"
 viewBox="0.00 0.00 419.00 137.00" xmlns="http://www.w3.org/2000/svg" xmlns:xlink="http://www.w3.org/1999/xlink">
<g id="graph0" class="graph" transform="scale(1 1) rotate(0) translate(4 133)">
<title>COSMOS SLIP encoding library</title>
<polygon fill="white" stroke="none" points="-4,4 -4,-133 415,-133 415,4 -4,4"/>
<!-- Node3 -->
<g id="node1" class="node"><title>Node3</title>
<g id="a_node1"><a xlink:href="group__sliplib__definitions.html" target="_top" xlink:title="COSMOS SLIP support\l definitions">
<polygon fill="white" stroke="black" points="290,-98.5 290,-128.5 411,-128.5 411,-98.5 290,-98.5"/>
<text text-anchor="start" x="298" y="-116.5" font-family="Helvetica,sans-Serif" font-size="10.00">COSMOS SLIP support</text>
<text text-anchor="middle" x="350.5" y="-105.5" font-family="Helvetica,sans-Serif" font-size="10.00"> definitions</text>
</a>
</g>
</g>
<!-- Node1 -->
<g id="node2" class="node"><title>Node1</title>
<g id="a_node2"><a xlink:href="group__support.html" target="_top" xlink:title="Support Libraries">
<polygon fill="white" stroke="black" points="0,-55 0,-74 90,-74 90,-55 0,-55"/>
<text text-anchor="middle" x="45" y="-62" font-family="Helvetica,sans-Serif" font-size="10.00">Support Libraries</text>
</a>
</g>
</g>
<!-- Node0 -->
<g id="node4" class="node"><title>Node0</title>
<polygon fill="#bfbfbf" stroke="black" points="126,-49.5 126,-79.5 254,-79.5 254,-49.5 126,-49.5"/>
<text text-anchor="start" x="134" y="-67.5" font-family="Helvetica,sans-Serif" font-size="10.00">COSMOS SLIP encoding</text>
<text text-anchor="middle" x="190" y="-56.5" font-family="Helvetica,sans-Serif" font-size="10.00"> library</text>
</g>
<!-- Node1&#45;&gt;Node0 -->
<g id="edge1" class="edge"><title>Node1&#45;&gt;Node0</title>
<path fill="none" stroke="black" d="M100.13,-64.5C108.542,-64.5 117.296,-64.5 125.886,-64.5"/>
<polygon fill="black" stroke="black" points="100.072,-61.0001 90.0715,-64.5 100.072,-68.0001 100.072,-61.0001"/>
</g>
<!-- Node2 -->
<g id="node3" class="node"><title>Node2</title>
<g id="a_node3"><a xlink:href="group__sliplib__constants.html" target="_top" xlink:title="COSMOS SLIP support\l constants">
<polygon fill="white" stroke="black" points="290,-49.5 290,-79.5 411,-79.5 411,-49.5 290,-49.5"/>
<text text-anchor="start" x="298" y="-67.5" font-family="Helvetica,sans-Serif" font-size="10.00">COSMOS SLIP support</text>
<text text-anchor="middle" x="350.5" y="-56.5" font-family="Helvetica,sans-Serif" font-size="10.00"> constants</text>
</a>
</g>
</g>
<!-- Node0&#45;&gt;Node3 -->
<g id="edge3" class="edge"><title>Node0&#45;&gt;Node3</title>
<path fill="none" stroke="black" d="M249.59,-82.6129C266.44,-87.8222 284.63,-93.4457 300.813,-98.4484"/>
<polygon fill="black" stroke="black" points="250.436,-79.2112 239.849,-79.6014 248.369,-85.8989 250.436,-79.2112"/>
</g>
<!-- Node0&#45;&gt;Node2 -->
<g id="edge2" class="edge"><title>Node0&#45;&gt;Node2</title>
<path fill="none" stroke="black" d="M264.172,-64.5C272.812,-64.5 281.549,-64.5 289.969,-64.5"/>
<polygon fill="black" stroke="black" points="264.099,-61.0001 254.099,-64.5 264.099,-68.0001 264.099,-61.0001"/>
</g>
<!-- Node4 -->
<g id="node5" class="node"><title>Node4</title>
<g id="a_node5"><a xlink:href="group__sliplib__functions.html" target="_top" xlink:title="COSMOS SLIP support\l functions">
<polygon fill="white" stroke="black" points="290,-0.5 290,-30.5 411,-30.5 411,-0.5 290,-0.5"/>
<text text-anchor="start" x="298" y="-18.5" font-family="Helvetica,sans-Serif" font-size="10.00">COSMOS SLIP support</text>
<text text-anchor="middle" x="350.5" y="-7.5" font-family="Helvetica,sans-Serif" font-size="10.00"> functions</text>
</a>
</g>
</g>
<!-- Node0&#45;&gt;Node4 -->
<g id="edge4" class="edge"><title>Node0&#45;&gt;Node4</title>
<path fill="none" stroke="black" d="M249.59,-46.3871C266.44,-41.1778 284.63,-35.5543 300.813,-30.5516"/>
<polygon fill="black" stroke="black" points="248.369,-43.1011 239.849,-49.3986 250.436,-49.7888 248.369,-43.1011"/>
</g>
</g>
</svg>
