<?xml version="1.0" encoding="UTF-8" standalone="no"?>
<!DOCTYPE svg PUBLIC "-//W3C//DTD SVG 1.1//EN"
 "http://www.w3.org/Graphics/SVG/1.1/DTD/svg11.dtd">
<!-- Generated by graphviz version 2.38.0 (20140413.2041)
 -->
<!-- Title: Constants defining Components. Pages: 1 -->
<svg width="394pt" height="142pt"
 viewBox="0.00 0.00 394.00 142.00" xmlns="http://www.w3.org/2000/svg" xmlns:xlink="http://www.w3.org/1999/xlink">
<g id="graph0" class="graph" transform="scale(1 1) rotate(0) translate(4 138)">
<title>Constants defining Components.</title>
<polygon fill="white" stroke="none" points="-4,4 -4,-138 390,-138 390,4 -4,4"/>
<!-- Node1 -->
<g id="node1" class="node"><title>Node1</title>
<g id="a_node1"><a xlink:href="group__defs.html" target="_top" xlink:title="COSMOS Definitions">
<polygon fill="white" stroke="black" points="0,-57.5 0,-76.5 110,-76.5 110,-57.5 0,-57.5"/>
<text text-anchor="middle" x="55" y="-64.5" font-family="Helvetica,sans-Serif" font-size="10.00">COSMOS Definitions</text>
</a>
</g>
</g>
<!-- Node0 -->
<g id="node2" class="node"><title>Node0</title>
<polygon fill="#bfbfbf" stroke="black" points="146,-52 146,-82 244,-82 244,-52 146,-52"/>
<text text-anchor="start" x="154" y="-70" font-family="Helvetica,sans-Serif" font-size="10.00">Constants defining</text>
<text text-anchor="middle" x="195" y="-59" font-family="Helvetica,sans-Serif" font-size="10.00"> Components.</text>
</g>
<!-- Node1&#45;&gt;Node0 -->
<g id="edge1" class="edge"><title>Node1&#45;&gt;Node0</title>
<path fill="none" stroke="black" d="M120.196,-67C128.824,-67 137.554,-67 145.84,-67"/>
<polygon fill="black" stroke="black" points="120.145,-63.5001 110.145,-67 120.145,-70.5001 120.145,-63.5001"/>
</g>
<!-- Node4 -->
<g id="node3" class="node"><title>Node4</title>
<g id="a_node3"><a xlink:href="group__defs__comp__flag.html" target="_top" xlink:title="Component flags.">
<polygon fill="white" stroke="black" points="286,-114.5 286,-133.5 380,-133.5 380,-114.5 286,-114.5"/>
<text text-anchor="middle" x="333" y="-121.5" font-family="Helvetica,sans-Serif" font-size="10.00">Component flags.</text>
</a>
</g>
</g>
<!-- Node0&#45;&gt;Node4 -->
<g id="edge4" class="edge"><title>Node0&#45;&gt;Node4</title>
<path fill="none" stroke="black" d="M237.542,-86.5318C250.997,-92.6587 266.048,-99.3046 280,-105 287.92,-108.233 296.618,-111.515 304.596,-114.42"/>
<polygon fill="black" stroke="black" points="238.615,-83.1729 228.066,-82.1833 235.695,-89.5351 238.615,-83.1729"/>
</g>
<!-- Node3 -->
<g id="node4" class="node"><title>Node3</title>
<g id="a_node4"><a xlink:href="group__defs__comp__model.html" target="_top" xlink:title="Model of Device.">
<polygon fill="white" stroke="black" points="287.5,-76.5 287.5,-95.5 378.5,-95.5 378.5,-76.5 287.5,-76.5"/>
<text text-anchor="middle" x="333" y="-83.5" font-family="Helvetica,sans-Serif" font-size="10.00">Model of Device.</text>
</a>
</g>
</g>
<!-- Node0&#45;&gt;Node3 -->
<g id="edge3" class="edge"><title>Node0&#45;&gt;Node3</title>
<path fill="none" stroke="black" d="M254.376,-75.1555C265.458,-76.7037 276.888,-78.3006 287.457,-79.777"/>
<polygon fill="black" stroke="black" points="254.72,-71.6696 244.331,-73.7522 253.751,-78.6022 254.72,-71.6696"/>
</g>
<!-- Node5 -->
<g id="node5" class="node"><title>Node5</title>
<g id="a_node5"><a xlink:href="group__defs__comp__port.html" target="_top" xlink:title="IO Port types.">
<polygon fill="white" stroke="black" points="294,-38.5 294,-57.5 372,-57.5 372,-38.5 294,-38.5"/>
<text text-anchor="middle" x="333" y="-45.5" font-family="Helvetica,sans-Serif" font-size="10.00">IO Port types.</text>
</a>
</g>
</g>
<!-- Node0&#45;&gt;Node5 -->
<g id="edge5" class="edge"><title>Node0&#45;&gt;Node5</title>
<path fill="none" stroke="black" d="M254.361,-58.8466C267.651,-56.99 281.441,-55.0634 293.647,-53.3582"/>
<polygon fill="black" stroke="black" points="253.751,-55.3978 244.331,-60.2478 254.72,-62.3304 253.751,-55.3978"/>
</g>
<!-- Node2 -->
<g id="node6" class="node"><title>Node2</title>
<g id="a_node6"><a xlink:href="group__defs__comp__type.html" target="_top" xlink:title="Type of Component.">
<polygon fill="white" stroke="black" points="280,-0.5 280,-19.5 386,-19.5 386,-0.5 280,-0.5"/>
<text text-anchor="middle" x="333" y="-7.5" font-family="Helvetica,sans-Serif" font-size="10.00">Type of Component.</text>
</a>
</g>
</g>
<!-- Node0&#45;&gt;Node2 -->
<g id="edge2" class="edge"><title>Node0&#45;&gt;Node2</title>
<path fill="none" stroke="black" d="M237.542,-47.4682C250.997,-41.3413 266.048,-34.6954 280,-29 287.92,-25.767 296.618,-22.4855 304.596,-19.58"/>
<polygon fill="black" stroke="black" points="235.695,-44.4649 228.066,-51.8167 238.615,-50.8271 235.695,-44.4649"/>
</g>
</g>
</svg>
