<?xml version="1.0" encoding="UTF-8" standalone="no"?>
<!DOCTYPE svg PUBLIC "-//W3C//DTD SVG 1.1//EN"
 "http://www.w3.org/Graphics/SVG/1.1/DTD/svg11.dtd">
<!-- Generated by graphviz version 2.38.0 (20140413.2041)
 -->
<!-- Title: Physics Simulation Library Pages: 1 -->
<svg width="398pt" height="104pt"
 viewBox="0.00 0.00 398.00 104.00" xmlns="http://www.w3.org/2000/svg" xmlns:xlink="http://www.w3.org/1999/xlink">
<g id="graph0" class="graph" transform="scale(1 1) rotate(0) translate(4 100)">
<title>Physics Simulation Library</title>
<polygon fill="white" stroke="none" points="-4,4 -4,-100 394,-100 394,4 -4,4"/>
<!-- Node4 -->
<g id="node1" class="node"><title>Node4</title>
<g id="a_node1"><a xlink:href="group__physicslib__functions.html" target="_top" xlink:title="Physics Library functions">
<polygon fill="white" stroke="black" points="263,-76.5 263,-95.5 390,-95.5 390,-76.5 263,-76.5"/>
<text text-anchor="middle" x="326.5" y="-83.5" font-family="Helvetica,sans-Serif" font-size="10.00">Physics Library functions</text>
</a>
</g>
</g>
<!-- Node1 -->
<g id="node2" class="node"><title>Node1</title>
<g id="a_node2"><a xlink:href="group__support.html" target="_top" xlink:title="Support Libraries">
<polygon fill="white" stroke="black" points="0,-38.5 0,-57.5 90,-57.5 90,-38.5 0,-38.5"/>
<text text-anchor="middle" x="45" y="-45.5" font-family="Helvetica,sans-Serif" font-size="10.00">Support Libraries</text>
</a>
</g>
</g>
<!-- Node0 -->
<g id="node4" class="node"><title>Node0</title>
<polygon fill="#bfbfbf" stroke="black" points="126,-33 126,-63 227,-63 227,-33 126,-33"/>
<text text-anchor="start" x="134" y="-51" font-family="Helvetica,sans-Serif" font-size="10.00">Physics Simulation</text>
<text text-anchor="middle" x="176.5" y="-40" font-family="Helvetica,sans-Serif" font-size="10.00"> Library</text>
</g>
<!-- Node1&#45;&gt;Node0 -->
<g id="edge1" class="edge"><title>Node1&#45;&gt;Node0</title>
<path fill="none" stroke="black" d="M100.316,-48C108.736,-48 117.399,-48 125.713,-48"/>
<polygon fill="black" stroke="black" points="100.204,-44.5001 90.2044,-48 100.204,-51.5001 100.204,-44.5001"/>
</g>
<!-- Node3 -->
<g id="node3" class="node"><title>Node3</title>
<g id="a_node3"><a xlink:href="group__physicslib__typedefs.html" target="_top" xlink:title="Physics typedefs">
<polygon fill="white" stroke="black" points="280.5,-38.5 280.5,-57.5 372.5,-57.5 372.5,-38.5 280.5,-38.5"/>
<text text-anchor="middle" x="326.5" y="-45.5" font-family="Helvetica,sans-Serif" font-size="10.00">Physics typedefs</text>
</a>
</g>
</g>
<!-- Node0&#45;&gt;Node4 -->
<g id="edge4" class="edge"><title>Node0&#45;&gt;Node4</title>
<path fill="none" stroke="black" d="M237.215,-63.3323C254.5,-67.7702 272.865,-72.4856 288.343,-76.4597"/>
<polygon fill="black" stroke="black" points="237.75,-59.8561 227.194,-60.7592 236.009,-66.6362 237.75,-59.8561"/>
</g>
<!-- Node0&#45;&gt;Node3 -->
<g id="edge3" class="edge"><title>Node0&#45;&gt;Node3</title>
<path fill="none" stroke="black" d="M237.423,-48C251.692,-48 266.685,-48 280.174,-48"/>
<polygon fill="black" stroke="black" points="237.194,-44.5001 227.194,-48 237.194,-51.5001 237.194,-44.5001"/>
</g>
<!-- Node2 -->
<g id="node5" class="node"><title>Node2</title>
<g id="a_node5"><a xlink:href="group__physicslib__constants.html" target="_top" xlink:title="Physics constants">
<polygon fill="white" stroke="black" points="277.5,-0.5 277.5,-19.5 375.5,-19.5 375.5,-0.5 277.5,-0.5"/>
<text text-anchor="middle" x="326.5" y="-7.5" font-family="Helvetica,sans-Serif" font-size="10.00">Physics constants</text>
</a>
</g>
</g>
<!-- Node0&#45;&gt;Node2 -->
<g id="edge2" class="edge"><title>Node0&#45;&gt;Node2</title>
<path fill="none" stroke="black" d="M237.215,-32.6677C254.5,-28.2298 272.865,-23.5144 288.343,-19.5403"/>
<polygon fill="black" stroke="black" points="236.009,-29.3638 227.194,-35.2408 237.75,-36.1439 236.009,-29.3638"/>
</g>
</g>
</svg>
