<?xml version="1.0" encoding="UTF-8" standalone="no"?>
<!DOCTYPE svg PUBLIC "-//W3C//DTD SVG 1.1//EN"
 "http://www.w3.org/Graphics/SVG/1.1/DTD/svg11.dtd">
<!-- Generated by graphviz version 2.38.0 (20140413.2041)
 -->
<!-- Title: DEM Library Pages: 1 -->
<svg width="356pt" height="154pt"
 viewBox="0.00 0.00 356.00 154.00" xmlns="http://www.w3.org/2000/svg" xmlns:xlink="http://www.w3.org/1999/xlink">
<g id="graph0" class="graph" transform="scale(1 1) rotate(0) translate(4 150)">
<title>DEM Library</title>
<polygon fill="white" stroke="none" points="-4,4 -4,-150 352,-150 352,4 -4,4"/>
<!-- Node0 -->
<g id="node1" class="node"><title>Node0</title>
<polygon fill="#bfbfbf" stroke="black" points="126,-66.5 126,-85.5 197,-85.5 197,-66.5 126,-66.5"/>
<text text-anchor="middle" x="161.5" y="-73.5" font-family="Helvetica,sans-Serif" font-size="10.00">DEM Library</text>
</g>
<!-- Node3 -->
<g id="node2" class="node"><title>Node3</title>
<g id="a_node2"><a xlink:href="group__demlib__constants.html" target="_top" xlink:title="DEM library constants">
<polygon fill="white" stroke="black" points="233.5,-126.5 233.5,-145.5 347.5,-145.5 347.5,-126.5 233.5,-126.5"/>
<text text-anchor="middle" x="290.5" y="-133.5" font-family="Helvetica,sans-Serif" font-size="10.00">DEM library constants</text>
</a>
</g>
</g>
<!-- Node0&#45;&gt;Node3 -->
<g id="edge3" class="edge"><title>Node0&#45;&gt;Node3</title>
<path fill="none" stroke="black" d="M185.508,-90.9744C198.989,-99.3379 216.55,-109.543 233,-117 240.729,-120.503 249.304,-123.712 257.389,-126.455"/>
<polygon fill="black" stroke="black" points="187.216,-87.9134 176.892,-85.535 183.48,-93.8327 187.216,-87.9134"/>
</g>
<!-- Node4 -->
<g id="node4" class="node"><title>Node4</title>
<g id="a_node4"><a xlink:href="group__demlib__typedefs.html" target="_top" xlink:title="DEM library typedefs">
<polygon fill="white" stroke="black" points="236,-88.5 236,-107.5 345,-107.5 345,-88.5 236,-88.5"/>
<text text-anchor="middle" x="290.5" y="-95.5" font-family="Helvetica,sans-Serif" font-size="10.00">DEM library typedefs</text>
</a>
</g>
</g>
<!-- Node0&#45;&gt;Node4 -->
<g id="edge4" class="edge"><title>Node0&#45;&gt;Node4</title>
<path fill="none" stroke="black" d="M207.3,-83.7607C216.501,-85.3545 226.277,-87.048 235.756,-88.69"/>
<polygon fill="black" stroke="black" points="207.654,-80.2699 197.203,-82.0116 206.459,-87.1672 207.654,-80.2699"/>
</g>
<!-- Node5 -->
<g id="node5" class="node"><title>Node5</title>
<g id="a_node5"><a xlink:href="group__demlib__functions.html" target="_top" xlink:title="DEM library function\l calls">
<polygon fill="white" stroke="black" points="237.5,-39 237.5,-69 343.5,-69 343.5,-39 237.5,-39"/>
<text text-anchor="start" x="245.5" y="-57" font-family="Helvetica,sans-Serif" font-size="10.00">DEM library function</text>
<text text-anchor="middle" x="290.5" y="-46" font-family="Helvetica,sans-Serif" font-size="10.00"> calls</text>
</a>
</g>
</g>
<!-- Node0&#45;&gt;Node5 -->
<g id="edge5" class="edge"><title>Node0&#45;&gt;Node5</title>
<path fill="none" stroke="black" d="M207.07,-68.2793C216.806,-66.5926 227.196,-64.7928 237.203,-63.0594"/>
<polygon fill="black" stroke="black" points="206.459,-64.8328 197.203,-69.9884 207.654,-71.7301 206.459,-64.8328"/>
</g>
<!-- Node2 -->
<g id="node6" class="node"><title>Node2</title>
<g id="a_node6"><a xlink:href="group__demlib__planets.html" target="_top" xlink:title="DEM Planetary bodies">
<polygon fill="white" stroke="black" points="233,-0.5 233,-19.5 348,-19.5 348,-0.5 233,-0.5"/>
<text text-anchor="middle" x="290.5" y="-7.5" font-family="Helvetica,sans-Serif" font-size="10.00">DEM Planetary bodies</text>
</a>
</g>
</g>
<!-- Node0&#45;&gt;Node2 -->
<g id="edge2" class="edge"><title>Node0&#45;&gt;Node2</title>
<path fill="none" stroke="black" d="M183.055,-60.1855C196.671,-50.2531 215.234,-37.7182 233,-29 240.339,-25.3983 248.53,-22.2102 256.346,-19.5233"/>
<polygon fill="black" stroke="black" points="180.812,-57.492 174.88,-66.2705 184.991,-63.1073 180.812,-57.492"/>
</g>
<!-- Node1 -->
<g id="node3" class="node"><title>Node1</title>
<g id="a_node3"><a xlink:href="group__support.html" target="_top" xlink:title="Support Libraries">
<polygon fill="white" stroke="black" points="0,-66.5 0,-85.5 90,-85.5 90,-66.5 0,-66.5"/>
<text text-anchor="middle" x="45" y="-73.5" font-family="Helvetica,sans-Serif" font-size="10.00">Support Libraries</text>
</a>
</g>
</g>
<!-- Node1&#45;&gt;Node0 -->
<g id="edge1" class="edge"><title>Node1&#45;&gt;Node0</title>
<path fill="none" stroke="black" d="M100.388,-76C109.084,-76 117.868,-76 125.935,-76"/>
<polygon fill="black" stroke="black" points="100.269,-72.5001 90.2687,-76 100.269,-79.5001 100.269,-72.5001"/>
</g>
</g>
</svg>
