<?xml version="1.0" encoding="UTF-8" standalone="no"?>
<!DOCTYPE svg PUBLIC "-//W3C//DTD SVG 1.1//EN"
 "http://www.w3.org/Graphics/SVG/1.1/DTD/svg11.dtd">
<!-- Generated by graphviz version 2.38.0 (20140413.2041)
 -->
<!-- Title: COSMOS Programs Pages: 1 -->
<svg width="281pt" height="104pt"
 viewBox="0.00 0.00 281.00 104.00" xmlns="http://www.w3.org/2000/svg" xmlns:xlink="http://www.w3.org/1999/xlink">
<g id="graph0" class="graph" transform="scale(1 1) rotate(0) translate(4 100)">
<title>COSMOS Programs</title>
<polygon fill="white" stroke="none" points="-4,4 -4,-100 277,-100 277,4 -4,4"/>
<!-- Node0 -->
<g id="node1" class="node"><title>Node0</title>
<polygon fill="#bfbfbf" stroke="black" points="0,-38.5 0,-57.5 106,-57.5 106,-38.5 0,-38.5"/>
<text text-anchor="middle" x="53" y="-45.5" font-family="Helvetica,sans-Serif" font-size="10.00">COSMOS Programs</text>
</g>
<!-- Node1 -->
<g id="node2" class="node"><title>Node1</title>
<g id="a_node2"><a xlink:href="group__agents.html" target="_top" xlink:title="Agent programs">
<polygon fill="white" stroke="black" points="164.5,-76.5 164.5,-95.5 250.5,-95.5 250.5,-76.5 164.5,-76.5"/>
<text text-anchor="middle" x="207.5" y="-83.5" font-family="Helvetica,sans-Serif" font-size="10.00">Agent programs</text>
</a>
</g>
</g>
<!-- Node0&#45;&gt;Node1 -->
<g id="edge1" class="edge"><title>Node0&#45;&gt;Node1</title>
<path fill="none" stroke="black" d="M102.318,-60.04C123.623,-65.3488 148.304,-71.4988 168.295,-76.4799"/>
<polygon fill="black" stroke="black" points="103.032,-56.6108 92.4822,-57.589 101.339,-63.4031 103.032,-56.6108"/>
</g>
<!-- Node3 -->
<g id="node3" class="node"><title>Node3</title>
<g id="a_node3"><a xlink:href="group__testing.html" target="_top" xlink:title="Test programs">
<polygon fill="white" stroke="black" points="167.5,-38.5 167.5,-57.5 247.5,-57.5 247.5,-38.5 167.5,-38.5"/>
<text text-anchor="middle" x="207.5" y="-45.5" font-family="Helvetica,sans-Serif" font-size="10.00">Test programs</text>
</a>
</g>
</g>
<!-- Node0&#45;&gt;Node3 -->
<g id="edge3" class="edge"><title>Node0&#45;&gt;Node3</title>
<path fill="none" stroke="black" d="M116.08,-48C133.352,-48 151.629,-48 167.196,-48"/>
<polygon fill="black" stroke="black" points="116.055,-44.5001 106.055,-48 116.055,-51.5001 116.055,-44.5001"/>
</g>
<!-- Node2 -->
<g id="node4" class="node"><title>Node2</title>
<g id="a_node4"><a xlink:href="group__general.html" target="_top" xlink:title="General purpose programs">
<polygon fill="white" stroke="black" points="142,-0.5 142,-19.5 273,-19.5 273,-0.5 142,-0.5"/>
<text text-anchor="middle" x="207.5" y="-7.5" font-family="Helvetica,sans-Serif" font-size="10.00">General purpose programs</text>
</a>
</g>
</g>
<!-- Node0&#45;&gt;Node2 -->
<g id="edge2" class="edge"><title>Node0&#45;&gt;Node2</title>
<path fill="none" stroke="black" d="M102.318,-35.96C123.623,-30.6512 148.304,-24.5012 168.295,-19.5201"/>
<polygon fill="black" stroke="black" points="101.339,-32.5969 92.4822,-38.411 103.032,-39.3892 101.339,-32.5969"/>
</g>
</g>
</svg>
