<?xml version="1.0" encoding="UTF-8" standalone="no"?>
<!DOCTYPE svg PUBLIC "-//W3C//DTD SVG 1.1//EN"
 "http://www.w3.org/Graphics/SVG/1.1/DTD/svg11.dtd">
<!-- Generated by graphviz version 2.38.0 (20140413.2041)
 -->
<!-- Title: General purpose programs Pages: 1 -->
<svg width="430pt" height="66pt"
 viewBox="0.00 0.00 430.00 66.00" xmlns="http://www.w3.org/2000/svg" xmlns:xlink="http://www.w3.org/1999/xlink">
<g id="graph0" class="graph" transform="scale(1 1) rotate(0) translate(4 62)">
<title>General purpose programs</title>
<polygon fill="white" stroke="none" points="-4,4 -4,-62 426,-62 426,4 -4,4"/>
<!-- Node1 -->
<g id="node1" class="node"><title>Node1</title>
<g id="a_node1"><a xlink:href="group__programs.html" target="_top" xlink:title="COSMOS Programs">
<polygon fill="white" stroke="black" points="0,-19.5 0,-38.5 106,-38.5 106,-19.5 0,-19.5"/>
<text text-anchor="middle" x="53" y="-26.5" font-family="Helvetica,sans-Serif" font-size="10.00">COSMOS Programs</text>
</a>
</g>
</g>
<!-- Node0 -->
<g id="node3" class="node"><title>Node0</title>
<polygon fill="#bfbfbf" stroke="black" points="142,-19.5 142,-38.5 273,-38.5 273,-19.5 142,-19.5"/>
<text text-anchor="middle" x="207.5" y="-26.5" font-family="Helvetica,sans-Serif" font-size="10.00">General purpose programs</text>
</g>
<!-- Node1&#45;&gt;Node0 -->
<g id="edge1" class="edge"><title>Node1&#45;&gt;Node0</title>
<path fill="none" stroke="black" d="M116.183,-29C124.605,-29 133.265,-29 141.732,-29"/>
<polygon fill="black" stroke="black" points="116.055,-25.5001 106.055,-29 116.055,-32.5001 116.055,-25.5001"/>
</g>
<!-- Node2 -->
<g id="node2" class="node"><title>Node2</title>
<g id="a_node2"><a xlink:href="group__agent__client.html" target="_top" xlink:title="Agent control program">
<polygon fill="white" stroke="black" points="309,-38.5 309,-57.5 422,-57.5 422,-38.5 309,-38.5"/>
<text text-anchor="middle" x="365.5" y="-45.5" font-family="Helvetica,sans-Serif" font-size="10.00">Agent control program</text>
</a>
</g>
</g>
<!-- Node0&#45;&gt;Node2 -->
<g id="edge2" class="edge"><title>Node0&#45;&gt;Node2</title>
<path fill="none" stroke="black" d="M283.264,-38.1059C291.791,-39.1444 300.369,-40.1891 308.59,-41.1905"/>
<polygon fill="black" stroke="black" points="283.653,-34.6274 273.303,-36.8926 282.806,-41.5761 283.653,-34.6274"/>
</g>
<!-- Node3 -->
<g id="node4" class="node"><title>Node3</title>
<g id="a_node4"><a xlink:href="group__agent.html" target="_top" xlink:title="Agent control program">
<polygon fill="white" stroke="black" points="309,-0.5 309,-19.5 422,-19.5 422,-0.5 309,-0.5"/>
<text text-anchor="middle" x="365.5" y="-7.5" font-family="Helvetica,sans-Serif" font-size="10.00">Agent control program</text>
</a>
</g>
</g>
<!-- Node0&#45;&gt;Node3 -->
<g id="edge3" class="edge"><title>Node0&#45;&gt;Node3</title>
<path fill="none" stroke="black" d="M283.264,-19.8941C291.791,-18.8556 300.369,-17.8109 308.59,-16.8095"/>
<polygon fill="black" stroke="black" points="282.806,-16.4239 273.303,-21.1074 283.653,-23.3726 282.806,-16.4239"/>
</g>
</g>
</svg>
