<?xml version="1.0" encoding="UTF-8" standalone="no"?>
<!DOCTYPE svg PUBLIC "-//W3C//DTD SVG 1.1//EN"
 "http://www.w3.org/Graphics/SVG/1.1/DTD/svg11.dtd">
<!-- Generated by graphviz version 2.38.0 (20140413.2041)
 -->
<!-- Title: JPL Ephemeris Library Pages: 1 -->
<svg width="415pt" height="116pt"
 viewBox="0.00 0.00 415.00 116.00" xmlns="http://www.w3.org/2000/svg" xmlns:xlink="http://www.w3.org/1999/xlink">
<g id="graph0" class="graph" transform="scale(1 1) rotate(0) translate(4 112)">
<title>JPL Ephemeris Library</title>
<polygon fill="white" stroke="none" points="-4,4 -4,-112 411,-112 411,4 -4,4"/>
<!-- Node3 -->
<g id="node1" class="node"><title>Node3</title>
<g id="a_node1"><a xlink:href="group__jpleph__contants.html" target="_top" xlink:title="JPL Ephemeris constants">
<polygon fill="white" stroke="black" points="278,-88.5 278,-107.5 407,-107.5 407,-88.5 278,-88.5"/>
<text text-anchor="middle" x="342.5" y="-95.5" font-family="Helvetica,sans-Serif" font-size="10.00">JPL Ephemeris constants</text>
</a>
</g>
</g>
<!-- Node0 -->
<g id="node2" class="node"><title>Node0</title>
<polygon fill="#bfbfbf" stroke="black" points="126,-44.5 126,-63.5 242,-63.5 242,-44.5 126,-44.5"/>
<text text-anchor="middle" x="184" y="-51.5" font-family="Helvetica,sans-Serif" font-size="10.00">JPL Ephemeris Library</text>
</g>
<!-- Node0&#45;&gt;Node3 -->
<g id="edge3" class="edge"><title>Node0&#45;&gt;Node3</title>
<path fill="none" stroke="black" d="M228.895,-66.3412C253.822,-73.3493 284.551,-81.9888 307.608,-88.4713"/>
<polygon fill="black" stroke="black" points="229.532,-62.8846 218.958,-63.5473 227.638,-69.6233 229.532,-62.8846"/>
</g>
<!-- Node2 -->
<g id="node4" class="node"><title>Node2</title>
<g id="a_node4"><a xlink:href="group__jpleph__functions.html" target="_top" xlink:title="JPL Ephemeris function\l declarations">
<polygon fill="white" stroke="black" points="282,-39 282,-69 403,-69 403,-39 282,-39"/>
<text text-anchor="start" x="290" y="-57" font-family="Helvetica,sans-Serif" font-size="10.00">JPL Ephemeris function</text>
<text text-anchor="middle" x="342.5" y="-46" font-family="Helvetica,sans-Serif" font-size="10.00"> declarations</text>
</a>
</g>
</g>
<!-- Node0&#45;&gt;Node2 -->
<g id="edge2" class="edge"><title>Node0&#45;&gt;Node2</title>
<path fill="none" stroke="black" d="M252.439,-54C262.191,-54 272.17,-54 281.757,-54"/>
<polygon fill="black" stroke="black" points="252.386,-50.5001 242.386,-54 252.386,-57.5001 252.386,-50.5001"/>
</g>
<!-- Node4 -->
<g id="node5" class="node"><title>Node4</title>
<g id="a_node5"><a xlink:href="group__jpleph__structs.html" target="_top" xlink:title="JPL Ephemeris structs">
<polygon fill="white" stroke="black" points="284.5,-0.5 284.5,-19.5 400.5,-19.5 400.5,-0.5 284.5,-0.5"/>
<text text-anchor="middle" x="342.5" y="-7.5" font-family="Helvetica,sans-Serif" font-size="10.00">JPL Ephemeris structs</text>
</a>
</g>
</g>
<!-- Node0&#45;&gt;Node4 -->
<g id="edge4" class="edge"><title>Node0&#45;&gt;Node4</title>
<path fill="none" stroke="black" d="M228.895,-41.6588C253.822,-34.6507 284.551,-26.0112 307.608,-19.5287"/>
<polygon fill="black" stroke="black" points="227.638,-38.3767 218.958,-44.4527 229.532,-45.1154 227.638,-38.3767"/>
</g>
<!-- Node1 -->
<g id="node3" class="node"><title>Node1</title>
<g id="a_node3"><a xlink:href="group__support.html" target="_top" xlink:title="Support Libraries">
<polygon fill="white" stroke="black" points="0,-44.5 0,-63.5 90,-63.5 90,-44.5 0,-44.5"/>
<text text-anchor="middle" x="45" y="-51.5" font-family="Helvetica,sans-Serif" font-size="10.00">Support Libraries</text>
</a>
</g>
</g>
<!-- Node1&#45;&gt;Node0 -->
<g id="edge1" class="edge"><title>Node1&#45;&gt;Node0</title>
<path fill="none" stroke="black" d="M100.229,-54C108.686,-54 117.446,-54 125.963,-54"/>
<polygon fill="black" stroke="black" points="100.102,-50.5001 90.1018,-54 100.102,-57.5001 100.102,-50.5001"/>
</g>
</g>
</svg>
