<?xml version="1.0" encoding="UTF-8" standalone="no"?>
<!DOCTYPE svg PUBLIC "-//W3C//DTD SVG 1.1//EN"
 "http://www.w3.org/Graphics/SVG/1.1/DTD/svg11.dtd">
<!-- Generated by graphviz version 2.38.0 (20140413.2041)
 -->
<!-- Title: File Transfer Library Pages: 1 -->
<svg width="391pt" height="104pt"
 viewBox="0.00 0.00 391.00 104.00" xmlns="http://www.w3.org/2000/svg" xmlns:xlink="http://www.w3.org/1999/xlink">
<g id="graph0" class="graph" transform="scale(1 1) rotate(0) translate(4 100)">
<title>File Transfer Library</title>
<polygon fill="white" stroke="none" points="-4,4 -4,-100 387,-100 387,4 -4,4"/>
<!-- Node3 -->
<g id="node1" class="node"><title>Node3</title>
<g id="a_node1"><a xlink:href="group__transferlib__typedefs.html" target="_top" xlink:title="File Transfer typedefs">
<polygon fill="white" stroke="black" points="268.5,-76.5 268.5,-95.5 380.5,-95.5 380.5,-76.5 268.5,-76.5"/>
<text text-anchor="middle" x="324.5" y="-83.5" font-family="Helvetica,sans-Serif" font-size="10.00">File Transfer typedefs</text>
</a>
</g>
</g>
<!-- Node4 -->
<g id="node2" class="node"><title>Node4</title>
<g id="a_node2"><a xlink:href="group__transferlib__functions.html" target="_top" xlink:title="File Transfer functions">
<polygon fill="white" stroke="black" points="267.5,-38.5 267.5,-57.5 381.5,-57.5 381.5,-38.5 267.5,-38.5"/>
<text text-anchor="middle" x="324.5" y="-45.5" font-family="Helvetica,sans-Serif" font-size="10.00">File Transfer functions</text>
</a>
</g>
</g>
<!-- Node1 -->
<g id="node3" class="node"><title>Node1</title>
<g id="a_node3"><a xlink:href="group__support.html" target="_top" xlink:title="Support Libraries">
<polygon fill="white" stroke="black" points="0,-38.5 0,-57.5 90,-57.5 90,-38.5 0,-38.5"/>
<text text-anchor="middle" x="45" y="-45.5" font-family="Helvetica,sans-Serif" font-size="10.00">Support Libraries</text>
</a>
</g>
</g>
<!-- Node0 -->
<g id="node5" class="node"><title>Node0</title>
<polygon fill="#bfbfbf" stroke="black" points="126,-38.5 126,-57.5 230,-57.5 230,-38.5 126,-38.5"/>
<text text-anchor="middle" x="178" y="-45.5" font-family="Helvetica,sans-Serif" font-size="10.00">File Transfer Library</text>
</g>
<!-- Node1&#45;&gt;Node0 -->
<g id="edge1" class="edge"><title>Node1&#45;&gt;Node0</title>
<path fill="none" stroke="black" d="M100.466,-48C108.892,-48 117.57,-48 125.918,-48"/>
<polygon fill="black" stroke="black" points="100.351,-44.5001 90.3506,-48 100.351,-51.5001 100.351,-44.5001"/>
</g>
<!-- Node2 -->
<g id="node4" class="node"><title>Node2</title>
<g id="a_node4"><a xlink:href="group__transferlib__constants.html" target="_top" xlink:title="File Transfer constants">
<polygon fill="white" stroke="black" points="266,-0.5 266,-19.5 383,-19.5 383,-0.5 266,-0.5"/>
<text text-anchor="middle" x="324.5" y="-7.5" font-family="Helvetica,sans-Serif" font-size="10.00">File Transfer constants</text>
</a>
</g>
</g>
<!-- Node0&#45;&gt;Node3 -->
<g id="edge3" class="edge"><title>Node0&#45;&gt;Node3</title>
<path fill="none" stroke="black" d="M225.333,-60.1843C245.394,-65.46 268.529,-71.5438 287.299,-76.4799"/>
<polygon fill="black" stroke="black" points="226.025,-56.7474 215.463,-57.589 224.244,-63.5173 226.025,-56.7474"/>
</g>
<!-- Node0&#45;&gt;Node4 -->
<g id="edge4" class="edge"><title>Node0&#45;&gt;Node4</title>
<path fill="none" stroke="black" d="M240.359,-48C249.336,-48 258.542,-48 267.406,-48"/>
<polygon fill="black" stroke="black" points="240.352,-44.5001 230.352,-48 240.352,-51.5001 240.352,-44.5001"/>
</g>
<!-- Node0&#45;&gt;Node2 -->
<g id="edge2" class="edge"><title>Node0&#45;&gt;Node2</title>
<path fill="none" stroke="black" d="M225.333,-35.8157C245.394,-30.54 268.529,-24.4562 287.299,-19.5201"/>
<polygon fill="black" stroke="black" points="224.244,-32.4827 215.463,-38.411 226.025,-39.2526 224.244,-32.4827"/>
</g>
</g>
</svg>
