<?xml version="1.0" encoding="UTF-8" standalone="no"?>
<!DOCTYPE svg PUBLIC "-//W3C//DTD SVG 1.1//EN"
 "http://www.w3.org/Graphics/SVG/1.1/DTD/svg11.dtd">
<!-- Generated by graphviz version 2.38.0 (20140413.2041)
 -->
<!-- Title: Device Libraries Pages: 1 -->
<svg width="344pt" height="127pt"
 viewBox="0.00 0.00 344.00 126.50" xmlns="http://www.w3.org/2000/svg" xmlns:xlink="http://www.w3.org/1999/xlink">
<g id="graph0" class="graph" transform="scale(1 1) rotate(0) translate(4 122.5)">
<title>Device Libraries</title>
<polygon fill="white" stroke="none" points="-4,4 -4,-122.5 340,-122.5 340,4 -4,4"/>
<!-- Node0 -->
<g id="node1" class="node"><title>Node0</title>
<polygon fill="#bfbfbf" stroke="black" points="106,-55 106,-74 193,-74 193,-55 106,-55"/>
<text text-anchor="middle" x="149.5" y="-62" font-family="Helvetica,sans-Serif" font-size="10.00">Device Libraries</text>
</g>
<!-- Node3 -->
<g id="node2" class="node"><title>Node3</title>
<g id="a_node2"><a xlink:href="group__acq__a35.html" target="_top" xlink:title="A35 camera support">
<polygon fill="white" stroke="black" points="230.5,-99 230.5,-118 334.5,-118 334.5,-99 230.5,-99"/>
<text text-anchor="middle" x="282.5" y="-106" font-family="Helvetica,sans-Serif" font-size="10.00">A35 camera support</text>
</a>
</g>
</g>
<!-- Node0&#45;&gt;Node3 -->
<g id="edge3" class="edge"><title>Node0&#45;&gt;Node3</title>
<path fill="none" stroke="black" d="M188.641,-77.3108C209.248,-84.2322 234.259,-92.6329 253.13,-98.9713"/>
<polygon fill="black" stroke="black" points="189.519,-73.9135 178.925,-74.0473 187.29,-80.5492 189.519,-73.9135"/>
</g>
<!-- Node4 -->
<g id="node3" class="node"><title>Node4</title>
<g id="a_node3"><a xlink:href="group__cssl__lib.html" target="_top" xlink:title="Simple Serial library\l support">
<polygon fill="white" stroke="black" points="230.5,-49.5 230.5,-79.5 334.5,-79.5 334.5,-49.5 230.5,-49.5"/>
<text text-anchor="start" x="238.5" y="-67.5" font-family="Helvetica,sans-Serif" font-size="10.00">Simple Serial library</text>
<text text-anchor="middle" x="282.5" y="-56.5" font-family="Helvetica,sans-Serif" font-size="10.00"> support</text>
</a>
</g>
</g>
<!-- Node0&#45;&gt;Node4 -->
<g id="edge4" class="edge"><title>Node0&#45;&gt;Node4</title>
<path fill="none" stroke="black" d="M203.221,-64.5C212.062,-64.5 221.226,-64.5 230.035,-64.5"/>
<polygon fill="black" stroke="black" points="203.032,-61.0001 193.032,-64.5 203.032,-68.0001 203.032,-61.0001"/>
</g>
<!-- Node2 -->
<g id="node4" class="node"><title>Node2</title>
<g id="a_node4"><a xlink:href="group___device_cpu.html" target="_top" xlink:title="Generic CPU device\l library.">
<polygon fill="white" stroke="black" points="229,-0.5 229,-30.5 336,-30.5 336,-0.5 229,-0.5"/>
<text text-anchor="start" x="237" y="-18.5" font-family="Helvetica,sans-Serif" font-size="10.00">Generic CPU device</text>
<text text-anchor="middle" x="282.5" y="-7.5" font-family="Helvetica,sans-Serif" font-size="10.00"> library.</text>
</a>
</g>
</g>
<!-- Node0&#45;&gt;Node2 -->
<g id="edge2" class="edge"><title>Node0&#45;&gt;Node2</title>
<path fill="none" stroke="black" d="M185.703,-51.3325C202.845,-44.9205 223.538,-37.1803 241.299,-30.537"/>
<polygon fill="black" stroke="black" points="184.209,-48.1543 176.069,-54.936 186.662,-54.7107 184.209,-48.1543"/>
</g>
<!-- Node1 -->
<g id="node5" class="node"><title>Node1</title>
<g id="a_node5"><a xlink:href="group__libraries.html" target="_top" xlink:title="API libraries">
<polygon fill="white" stroke="black" points="0,-55 0,-74 70,-74 70,-55 0,-55"/>
<text text-anchor="middle" x="35" y="-62" font-family="Helvetica,sans-Serif" font-size="10.00">API libraries</text>
</a>
</g>
</g>
<!-- Node1&#45;&gt;Node0 -->
<g id="edge1" class="edge"><title>Node1&#45;&gt;Node0</title>
<path fill="none" stroke="black" d="M80.1164,-64.5C88.5623,-64.5 97.3913,-64.5 105.792,-64.5"/>
<polygon fill="black" stroke="black" points="80.059,-61.0001 70.059,-64.5 80.059,-68.0001 80.059,-61.0001"/>
</g>
</g>
</svg>
