<?xml version="1.0" encoding="UTF-8" standalone="no"?>
<!DOCTYPE svg PUBLIC "-//W3C//DTD SVG 1.1//EN"
 "http://www.w3.org/Graphics/SVG/1.1/DTD/svg11.dtd">
<!-- Generated by graphviz version 2.38.0 (20140413.2041)
 -->
<!-- Title: Constants defining Node types. Pages: 1 -->
<svg width="401pt" height="268pt"
 viewBox="0.00 0.00 401.00 268.00" xmlns="http://www.w3.org/2000/svg" xmlns:xlink="http://www.w3.org/1999/xlink">
<g id="graph0" class="graph" transform="scale(1 1) rotate(0) translate(4 264)">
<title>Constants defining Node types.</title>
<polygon fill="white" stroke="none" points="-4,4 -4,-264 397,-264 397,4 -4,4"/>
<!-- Node3 -->
<g id="node1" class="node"><title>Node3</title>
<g id="a_node1"><a xlink:href="group__defs__event__flag.html" target="_top" xlink:title="Constants defining\l Event flags.">
<polygon fill="white" stroke="black" points="287.5,-229.5 287.5,-259.5 385.5,-259.5 385.5,-229.5 287.5,-229.5"/>
<text text-anchor="start" x="295.5" y="-247.5" font-family="Helvetica,sans-Serif" font-size="10.00">Constants defining</text>
<text text-anchor="middle" x="336.5" y="-236.5" font-family="Helvetica,sans-Serif" font-size="10.00"> Event flags.</text>
</a>
</g>
</g>
<!-- Node1 -->
<g id="node2" class="node"><title>Node1</title>
<g id="a_node2"><a xlink:href="group__defs.html" target="_top" xlink:title="COSMOS Definitions">
<polygon fill="white" stroke="black" points="0,-132 0,-151 110,-151 110,-132 0,-132"/>
<text text-anchor="middle" x="55" y="-139" font-family="Helvetica,sans-Serif" font-size="10.00">COSMOS Definitions</text>
</a>
</g>
</g>
<!-- Node0 -->
<g id="node3" class="node"><title>Node0</title>
<polygon fill="#bfbfbf" stroke="black" points="146,-126.5 146,-156.5 244,-156.5 244,-126.5 146,-126.5"/>
<text text-anchor="start" x="154" y="-144.5" font-family="Helvetica,sans-Serif" font-size="10.00">Constants defining</text>
<text text-anchor="middle" x="195" y="-133.5" font-family="Helvetica,sans-Serif" font-size="10.00"> Node types.</text>
</g>
<!-- Node1&#45;&gt;Node0 -->
<g id="edge1" class="edge"><title>Node1&#45;&gt;Node0</title>
<path fill="none" stroke="black" d="M120.196,-141.5C128.824,-141.5 137.554,-141.5 145.84,-141.5"/>
<polygon fill="black" stroke="black" points="120.145,-138 110.145,-141.5 120.145,-145 120.145,-138"/>
</g>
<!-- Node0&#45;&gt;Node3 -->
<g id="edge3" class="edge"><title>Node0&#45;&gt;Node3</title>
<path fill="none" stroke="black" d="M215.773,-163.942C231.79,-181.109 255.627,-204.481 280,-220.5 285,-223.786 290.526,-226.799 296.094,-229.497"/>
<polygon fill="black" stroke="black" points="218.326,-161.547 208.99,-156.539 213.165,-166.276 218.326,-161.547"/>
</g>
<!-- Node4 -->
<g id="node4" class="node"><title>Node4</title>
<g id="a_node4"><a xlink:href="group__defs__event__type.html" target="_top" xlink:title="Constants defining\l Event types.">
<polygon fill="white" stroke="black" points="287.5,-180.5 287.5,-210.5 385.5,-210.5 385.5,-180.5 287.5,-180.5"/>
<text text-anchor="start" x="295.5" y="-198.5" font-family="Helvetica,sans-Serif" font-size="10.00">Constants defining</text>
<text text-anchor="middle" x="336.5" y="-187.5" font-family="Helvetica,sans-Serif" font-size="10.00"> Event types.</text>
</a>
</g>
</g>
<!-- Node0&#45;&gt;Node4 -->
<g id="edge4" class="edge"><title>Node0&#45;&gt;Node4</title>
<path fill="none" stroke="black" d="M244.584,-160.307C261.52,-166.863 280.296,-174.131 296.366,-180.351"/>
<polygon fill="black" stroke="black" points="245.448,-156.888 234.859,-156.542 242.921,-163.416 245.448,-156.888"/>
</g>
<!-- Node6 -->
<g id="node5" class="node"><title>Node6</title>
<g id="a_node5"><a xlink:href="group__defs__physics.html" target="_top" xlink:title="Constants defining\l simulator propagation\l modes.">
<polygon fill="white" stroke="black" points="280,-121 280,-162 393,-162 393,-121 280,-121"/>
<text text-anchor="start" x="288" y="-150" font-family="Helvetica,sans-Serif" font-size="10.00">Constants defining</text>
<text text-anchor="start" x="288" y="-139" font-family="Helvetica,sans-Serif" font-size="10.00"> simulator propagation</text>
<text text-anchor="middle" x="336.5" y="-128" font-family="Helvetica,sans-Serif" font-size="10.00"> modes.</text>
</a>
</g>
</g>
<!-- Node0&#45;&gt;Node6 -->
<g id="edge6" class="edge"><title>Node0&#45;&gt;Node6</title>
<path fill="none" stroke="black" d="M254.172,-141.5C262.627,-141.5 271.317,-141.5 279.724,-141.5"/>
<polygon fill="black" stroke="black" points="254.008,-138 244.008,-141.5 254.008,-145 254.008,-138"/>
</g>
<!-- Node5 -->
<g id="node6" class="node"><title>Node5</title>
<g id="a_node6"><a xlink:href="group__defs___m_o_s_tpanels.html" target="_top" xlink:title="Constants denoting\l the different types\l of generic information\l panels in MOST.">
<polygon fill="white" stroke="black" points="280,-49.5 280,-101.5 393,-101.5 393,-49.5 280,-49.5"/>
<text text-anchor="start" x="288" y="-89.5" font-family="Helvetica,sans-Serif" font-size="10.00">Constants denoting</text>
<text text-anchor="start" x="288" y="-78.5" font-family="Helvetica,sans-Serif" font-size="10.00"> the different types</text>
<text text-anchor="start" x="288" y="-67.5" font-family="Helvetica,sans-Serif" font-size="10.00"> of generic information</text>
<text text-anchor="middle" x="336.5" y="-56.5" font-family="Helvetica,sans-Serif" font-size="10.00"> panels in MOST.</text>
</a>
</g>
</g>
<!-- Node0&#45;&gt;Node5 -->
<g id="edge5" class="edge"><title>Node0&#45;&gt;Node5</title>
<path fill="none" stroke="black" d="M237.081,-122.064C250.643,-115.647 265.955,-108.403 280.392,-101.573"/>
<polygon fill="black" stroke="black" points="235.547,-118.918 228.004,-126.358 238.54,-125.245 235.547,-118.918"/>
</g>
<!-- Node2 -->
<g id="node7" class="node"><title>Node2</title>
<g id="a_node7"><a xlink:href="group__defs__node__flag.html" target="_top" xlink:title="Constants defining\l Node flags.">
<polygon fill="white" stroke="black" points="287.5,-0.5 287.5,-30.5 385.5,-30.5 385.5,-0.5 287.5,-0.5"/>
<text text-anchor="start" x="295.5" y="-18.5" font-family="Helvetica,sans-Serif" font-size="10.00">Constants defining</text>
<text text-anchor="middle" x="336.5" y="-7.5" font-family="Helvetica,sans-Serif" font-size="10.00"> Node flags.</text>
</a>
</g>
</g>
<!-- Node0&#45;&gt;Node2 -->
<g id="edge2" class="edge"><title>Node0&#45;&gt;Node2</title>
<path fill="none" stroke="black" d="M210.713,-117.769C225.763,-95.1245 250.999,-61.3192 280,-39.5 284.446,-36.155 289.43,-33.1664 294.538,-30.5299"/>
<polygon fill="black" stroke="black" points="207.599,-116.139 205.09,-126.432 213.47,-119.95 207.599,-116.139"/>
</g>
</g>
</svg>
