<?xml version="1.0" encoding="UTF-8" standalone="no"?>
<!DOCTYPE svg PUBLIC "-//W3C//DTD SVG 1.1//EN"
 "http://www.w3.org/Graphics/SVG/1.1/DTD/svg11.dtd">
<!-- Generated by graphviz version 2.38.0 (20140413.2041)
 -->
<!-- Title: Constants denoting the different types of generic information panels in MOST. Pages: 1 -->
<svg width="255pt" height="61pt"
 viewBox="0.00 0.00 255.00 61.00" xmlns="http://www.w3.org/2000/svg" xmlns:xlink="http://www.w3.org/1999/xlink">
<g id="graph0" class="graph" transform="scale(1 1) rotate(0) translate(4 57)">
<title>Constants denoting the different types of generic information panels in MOST.</title>
<polygon fill="white" stroke="none" points="-4,4 -4,-57 251,-57 251,4 -4,4"/>
<!-- Node1 -->
<g id="node1" class="node"><title>Node1</title>
<g id="a_node1"><a xlink:href="group__defs__node__type.html" target="_top" xlink:title="Constants defining\l Node types.">
<polygon fill="white" stroke="black" points="0,-11.5 0,-41.5 98,-41.5 98,-11.5 0,-11.5"/>
<text text-anchor="start" x="8" y="-29.5" font-family="Helvetica,sans-Serif" font-size="10.00">Constants defining</text>
<text text-anchor="middle" x="49" y="-18.5" font-family="Helvetica,sans-Serif" font-size="10.00"> Node types.</text>
</a>
</g>
</g>
<!-- Node0 -->
<g id="node2" class="node"><title>Node0</title>
<polygon fill="#bfbfbf" stroke="black" points="134,-0.5 134,-52.5 247,-52.5 247,-0.5 134,-0.5"/>
<text text-anchor="start" x="142" y="-40.5" font-family="Helvetica,sans-Serif" font-size="10.00">Constants denoting</text>
<text text-anchor="start" x="142" y="-29.5" font-family="Helvetica,sans-Serif" font-size="10.00"> the different types</text>
<text text-anchor="start" x="142" y="-18.5" font-family="Helvetica,sans-Serif" font-size="10.00"> of generic information</text>
<text text-anchor="middle" x="190.5" y="-7.5" font-family="Helvetica,sans-Serif" font-size="10.00"> panels in MOST.</text>
</g>
<!-- Node1&#45;&gt;Node0 -->
<g id="edge1" class="edge"><title>Node1&#45;&gt;Node0</title>
<path fill="none" stroke="black" d="M108.172,-26.5C116.627,-26.5 125.317,-26.5 133.724,-26.5"/>
<polygon fill="black" stroke="black" points="108.008,-23.0001 98.008,-26.5 108.008,-30.0001 108.008,-23.0001"/>
</g>
</g>
</svg>
