<?xml version="1.0" encoding="UTF-8" standalone="no"?>
<!DOCTYPE svg PUBLIC "-//W3C//DTD SVG 1.1//EN"
 "http://www.w3.org/Graphics/SVG/1.1/DTD/svg11.dtd">
<!-- Generated by graphviz version 2.38.0 (20140413.2041)
 -->
<!-- Title: Coordinate conversion library Pages: 1 -->
<svg width="398pt" height="137pt"
 viewBox="0.00 0.00 398.00 137.00" xmlns="http://www.w3.org/2000/svg" xmlns:xlink="http://www.w3.org/1999/xlink">
<g id="graph0" class="graph" transform="scale(1 1) rotate(0) translate(4 133)">
<title>Coordinate conversion library</title>
<polygon fill="white" stroke="none" points="-4,4 -4,-133 394,-133 394,4 -4,4"/>
<!-- Node1 -->
<g id="node1" class="node"><title>Node1</title>
<g id="a_node1"><a xlink:href="group__support.html" target="_top" xlink:title="Support Libraries">
<polygon fill="white" stroke="black" points="0,-55 0,-74 90,-74 90,-55 0,-55"/>
<text text-anchor="middle" x="45" y="-62" font-family="Helvetica,sans-Serif" font-size="10.00">Support Libraries</text>
</a>
</g>
</g>
<!-- Node0 -->
<g id="node5" class="node"><title>Node0</title>
<polygon fill="#bfbfbf" stroke="black" points="126,-49.5 126,-79.5 240,-79.5 240,-49.5 126,-49.5"/>
<text text-anchor="start" x="134" y="-67.5" font-family="Helvetica,sans-Serif" font-size="10.00">Coordinate conversion</text>
<text text-anchor="middle" x="183" y="-56.5" font-family="Helvetica,sans-Serif" font-size="10.00"> library</text>
</g>
<!-- Node1&#45;&gt;Node0 -->
<g id="edge1" class="edge"><title>Node1&#45;&gt;Node0</title>
<path fill="none" stroke="black" d="M100.192,-64.5C108.569,-64.5 117.238,-64.5 125.66,-64.5"/>
<polygon fill="black" stroke="black" points="100.155,-61.0001 90.1553,-64.5 100.155,-68.0001 100.155,-61.0001"/>
</g>
<!-- Node4 -->
<g id="node2" class="node"><title>Node4</title>
<g id="a_node2"><a xlink:href="group__convertlib__functions.html" target="_top" xlink:title="Coordinate conversion\l functions">
<polygon fill="white" stroke="black" points="276,-98.5 276,-128.5 390,-128.5 390,-98.5 276,-98.5"/>
<text text-anchor="start" x="284" y="-116.5" font-family="Helvetica,sans-Serif" font-size="10.00">Coordinate conversion</text>
<text text-anchor="middle" x="333" y="-105.5" font-family="Helvetica,sans-Serif" font-size="10.00"> functions</text>
</a>
</g>
</g>
<!-- Node3 -->
<g id="node3" class="node"><title>Node3</title>
<g id="a_node3"><a xlink:href="group__convertlib__typedefs.html" target="_top" xlink:title="Coordinate conversion\l typedefs">
<polygon fill="white" stroke="black" points="276,-49.5 276,-79.5 390,-79.5 390,-49.5 276,-49.5"/>
<text text-anchor="start" x="284" y="-67.5" font-family="Helvetica,sans-Serif" font-size="10.00">Coordinate conversion</text>
<text text-anchor="middle" x="333" y="-56.5" font-family="Helvetica,sans-Serif" font-size="10.00"> typedefs</text>
</a>
</g>
</g>
<!-- Node2 -->
<g id="node4" class="node"><title>Node2</title>
<g id="a_node4"><a xlink:href="group__convertlib__constants.html" target="_top" xlink:title="Coordinate conversion\l constants">
<polygon fill="white" stroke="black" points="276,-0.5 276,-30.5 390,-30.5 390,-0.5 276,-0.5"/>
<text text-anchor="start" x="284" y="-18.5" font-family="Helvetica,sans-Serif" font-size="10.00">Coordinate conversion</text>
<text text-anchor="middle" x="333" y="-7.5" font-family="Helvetica,sans-Serif" font-size="10.00"> constants</text>
</a>
</g>
</g>
<!-- Node0&#45;&gt;Node4 -->
<g id="edge4" class="edge"><title>Node0&#45;&gt;Node4</title>
<path fill="none" stroke="black" d="M239.15,-82.7591C254.76,-87.9273 271.569,-93.4924 286.538,-98.4484"/>
<polygon fill="black" stroke="black" points="240.206,-79.4219 229.613,-79.6014 238.006,-86.0672 240.206,-79.4219"/>
</g>
<!-- Node0&#45;&gt;Node3 -->
<g id="edge3" class="edge"><title>Node0&#45;&gt;Node3</title>
<path fill="none" stroke="black" d="M250.558,-64.5C258.984,-64.5 267.539,-64.5 275.782,-64.5"/>
<polygon fill="black" stroke="black" points="250.375,-61.0001 240.375,-64.5 250.375,-68.0001 250.375,-61.0001"/>
</g>
<!-- Node0&#45;&gt;Node2 -->
<g id="edge2" class="edge"><title>Node0&#45;&gt;Node2</title>
<path fill="none" stroke="black" d="M239.15,-46.2409C254.76,-41.0727 271.569,-35.5076 286.538,-30.5516"/>
<polygon fill="black" stroke="black" points="238.006,-42.9328 229.613,-49.3986 240.206,-49.5781 238.006,-42.9328"/>
</g>
</g>
</svg>
