<?xml version="1.0" encoding="UTF-8" standalone="no"?>
<!DOCTYPE svg PUBLIC "-//W3C//DTD SVG 1.1//EN"
 "http://www.w3.org/Graphics/SVG/1.1/DTD/svg11.dtd">
<!-- Generated by graphviz version 2.38.0 (20140413.2041)
 -->
<!-- Title: String handling library Pages: 1 -->
<svg width="404pt" height="28pt"
 viewBox="0.00 0.00 404.00 28.00" xmlns="http://www.w3.org/2000/svg" xmlns:xlink="http://www.w3.org/1999/xlink">
<g id="graph0" class="graph" transform="scale(1 1) rotate(0) translate(4 24)">
<title>String handling library</title>
<polygon fill="white" stroke="none" points="-4,4 -4,-24 400,-24 400,4 -4,4"/>
<!-- Node1 -->
<g id="node1" class="node"><title>Node1</title>
<g id="a_node1"><a xlink:href="group__support.html" target="_top" xlink:title="Support Libraries">
<polygon fill="white" stroke="black" points="0,-0.5 0,-19.5 90,-19.5 90,-0.5 0,-0.5"/>
<text text-anchor="middle" x="45" y="-7.5" font-family="Helvetica,sans-Serif" font-size="10.00">Support Libraries</text>
</a>
</g>
</g>
<!-- Node0 -->
<g id="node2" class="node"><title>Node0</title>
<polygon fill="#bfbfbf" stroke="black" points="126,-0.5 126,-19.5 236,-19.5 236,-0.5 126,-0.5"/>
<text text-anchor="middle" x="181" y="-7.5" font-family="Helvetica,sans-Serif" font-size="10.00">String handling library</text>
</g>
<!-- Node1&#45;&gt;Node0 -->
<g id="edge1" class="edge"><title>Node1&#45;&gt;Node0</title>
<path fill="none" stroke="black" d="M100.378,-10C108.826,-10 117.553,-10 125.993,-10"/>
<polygon fill="black" stroke="black" points="100.248,-6.5001 90.248,-10 100.248,-13.5001 100.248,-6.5001"/>
</g>
<!-- Node2 -->
<g id="node3" class="node"><title>Node2</title>
<g id="a_node3"><a xlink:href="group__stringlib__functions.html" target="_top" xlink:title="String handling functions">
<polygon fill="white" stroke="black" points="272,-0.5 272,-19.5 396,-19.5 396,-0.5 272,-0.5"/>
<text text-anchor="middle" x="334" y="-7.5" font-family="Helvetica,sans-Serif" font-size="10.00">String handling functions</text>
</a>
</g>
</g>
<!-- Node0&#45;&gt;Node2 -->
<g id="edge2" class="edge"><title>Node0&#45;&gt;Node2</title>
<path fill="none" stroke="black" d="M246.296,-10C254.768,-10 263.432,-10 271.849,-10"/>
<polygon fill="black" stroke="black" points="246.088,-6.5001 236.088,-10 246.088,-13.5001 246.088,-6.5001"/>
</g>
</g>
</svg>
