<?xml version="1.0" encoding="UTF-8" standalone="no"?>
<!DOCTYPE svg PUBLIC "-//W3C//DTD SVG 1.1//EN"
 "http://www.w3.org/Graphics/SVG/1.1/DTD/svg11.dtd">
<!-- Generated by graphviz version 2.38.0 (20140413.2041)
 -->
<!-- Title: GigE Vision support. Pages: 1 -->
<svg width="288pt" height="389pt"
 viewBox="0.00 0.00 288.00 389.00" xmlns="http://www.w3.org/2000/svg" xmlns:xlink="http://www.w3.org/1999/xlink">
<g id="graph0" class="graph" transform="scale(1 1) rotate(0) translate(4 385)">
<title>GigE Vision support.</title>
<polygon fill="white" stroke="none" points="-4,4 -4,-385 284,-385 284,4 -4,4"/>
<!-- Node4 -->
<g id="node1" class="node"><title>Node4</title>
<g id="a_node1"><a xlink:href="group__gige__prosilica__constants.html" target="_top" xlink:title="GigE Vision Prosilica\l constants">
<polygon fill="white" stroke="black" points="157,-350.5 157,-380.5 266,-380.5 266,-350.5 157,-350.5"/>
<text text-anchor="start" x="165" y="-368.5" font-family="Helvetica,sans-Serif" font-size="10.00">GigE Vision Prosilica</text>
<text text-anchor="middle" x="211.5" y="-357.5" font-family="Helvetica,sans-Serif" font-size="10.00"> constants</text>
</a>
</g>
</g>
<!-- Node2 -->
<g id="node2" class="node"><title>Node2</title>
<g id="a_node2"><a xlink:href="group__gige__ack__constants.html" target="_top" xlink:title="GigE Vision Acknowledge\l constants">
<polygon fill="white" stroke="black" points="146.5,-301.5 146.5,-331.5 276.5,-331.5 276.5,-301.5 146.5,-301.5"/>
<text text-anchor="start" x="154.5" y="-319.5" font-family="Helvetica,sans-Serif" font-size="10.00">GigE Vision Acknowledge</text>
<text text-anchor="middle" x="211.5" y="-308.5" font-family="Helvetica,sans-Serif" font-size="10.00"> constants</text>
</a>
</g>
</g>
<!-- Node7 -->
<g id="node3" class="node"><title>Node7</title>
<g id="a_node3"><a xlink:href="group__gige__a35__constants.html" target="_top" xlink:title="GigE Vision A35 constants">
<polygon fill="white" stroke="black" points="144.5,-263 144.5,-282 278.5,-282 278.5,-263 144.5,-263"/>
<text text-anchor="middle" x="211.5" y="-270" font-family="Helvetica,sans-Serif" font-size="10.00">GigE Vision A35 constants</text>
</a>
</g>
</g>
<!-- Node6 -->
<g id="node4" class="node"><title>Node6</title>
<g id="a_node4"><a xlink:href="group__gige__functions.html" target="_top" xlink:title="GigE Vision functions">
<polygon fill="white" stroke="black" points="156,-225 156,-244 267,-244 267,-225 156,-225"/>
<text text-anchor="middle" x="211.5" y="-232" font-family="Helvetica,sans-Serif" font-size="10.00">GigE Vision functions</text>
</a>
</g>
</g>
<!-- Node0 -->
<g id="node5" class="node"><title>Node0</title>
<polygon fill="#bfbfbf" stroke="black" points="0,-187 0,-206 107,-206 107,-187 0,-187"/>
<text text-anchor="middle" x="53.5" y="-194" font-family="Helvetica,sans-Serif" font-size="10.00">GigE Vision support.</text>
</g>
<!-- Node0&#45;&gt;Node4 -->
<g id="edge4" class="edge"><title>Node0&#45;&gt;Node4</title>
<path fill="none" stroke="black" d="M61.3414,-215.751C73.2425,-246.585 100.613,-307.068 143,-341.5 147.248,-344.95 152.029,-347.924 157.036,-350.482"/>
<polygon fill="black" stroke="black" points="64.5451,-214.325 57.7777,-206.173 57.9845,-216.765 64.5451,-214.325"/>
</g>
<!-- Node0&#45;&gt;Node2 -->
<g id="edge2" class="edge"><title>Node0&#45;&gt;Node2</title>
<path fill="none" stroke="black" d="M67.0248,-214.359C82.632,-235.434 111.158,-270.283 143,-291.5 148.616,-295.242 154.866,-298.517 161.233,-301.357"/>
<polygon fill="black" stroke="black" points="69.854,-212.299 61.155,-206.251 64.1838,-216.404 69.854,-212.299"/>
</g>
<!-- Node0&#45;&gt;Node7 -->
<g id="edge7" class="edge"><title>Node0&#45;&gt;Node7</title>
<path fill="none" stroke="black" d="M74.938,-212.181C92.2574,-224.835 118.169,-242.313 143,-253.5 151.214,-257.2 160.319,-260.349 169.114,-262.956"/>
<polygon fill="black" stroke="black" points="76.8275,-209.225 66.7155,-206.063 72.6487,-214.84 76.8275,-209.225"/>
</g>
<!-- Node0&#45;&gt;Node6 -->
<g id="edge6" class="edge"><title>Node0&#45;&gt;Node6</title>
<path fill="none" stroke="black" d="M103.632,-208.468C125.493,-213.793 150.876,-219.976 171.418,-224.98"/>
<polygon fill="black" stroke="black" points="104.41,-205.055 93.8654,-206.089 102.753,-211.856 104.41,-205.055"/>
</g>
<!-- Node5 -->
<g id="node6" class="node"><title>Node5</title>
<g id="a_node6"><a xlink:href="group__gige__typedefs.html" target="_top" xlink:title="GigE Vision type definitions">
<polygon fill="white" stroke="black" points="143,-187 143,-206 280,-206 280,-187 143,-187"/>
<text text-anchor="middle" x="211.5" y="-194" font-family="Helvetica,sans-Serif" font-size="10.00">GigE Vision type definitions</text>
</a>
</g>
</g>
<!-- Node0&#45;&gt;Node5 -->
<g id="edge5" class="edge"><title>Node0&#45;&gt;Node5</title>
<path fill="none" stroke="black" d="M117.377,-196.5C125.747,-196.5 134.359,-196.5 142.806,-196.5"/>
<polygon fill="black" stroke="black" points="117.315,-193 107.314,-196.5 117.314,-200 117.315,-193"/>
</g>
<!-- Node8 -->
<g id="node7" class="node"><title>Node8</title>
<g id="a_node7"><a xlink:href="group__gige__pt1000__constants.html" target="_top" xlink:title="GigE Vision PT1000\l&#45;CL4 constants">
<polygon fill="white" stroke="black" points="159,-137.5 159,-167.5 264,-167.5 264,-137.5 159,-137.5"/>
<text text-anchor="start" x="167" y="-155.5" font-family="Helvetica,sans-Serif" font-size="10.00">GigE Vision PT1000</text>
<text text-anchor="middle" x="211.5" y="-144.5" font-family="Helvetica,sans-Serif" font-size="10.00">&#45;CL4 constants</text>
</a>
</g>
</g>
<!-- Node0&#45;&gt;Node8 -->
<g id="edge8" class="edge"><title>Node0&#45;&gt;Node8</title>
<path fill="none" stroke="black" d="M98.1621,-184.185C117.026,-178.864 139.238,-172.599 158.91,-167.051"/>
<polygon fill="black" stroke="black" points="97.024,-180.869 88.3497,-186.953 98.9243,-187.607 97.024,-180.869"/>
</g>
<!-- Node9 -->
<g id="node8" class="node"><title>Node9</title>
<g id="a_node8"><a xlink:href="group__sinclair__functions.html" target="_top" xlink:title="Sinclair_functions">
<polygon fill="white" stroke="black" points="164.5,-99 164.5,-118 258.5,-118 258.5,-99 164.5,-99"/>
<text text-anchor="middle" x="211.5" y="-106" font-family="Helvetica,sans-Serif" font-size="10.00">Sinclair_functions</text>
</a>
</g>
</g>
<!-- Node0&#45;&gt;Node9 -->
<g id="edge9" class="edge"><title>Node0&#45;&gt;Node9</title>
<path fill="none" stroke="black" d="M71.7247,-180.135C88.6618,-164.841 115.854,-142.344 143,-128.5 151.166,-124.335 160.341,-120.894 169.233,-118.11"/>
<polygon fill="black" stroke="black" points="69.262,-177.645 64.2791,-186.995 74.0051,-182.793 69.262,-177.645"/>
</g>
<!-- Node1 -->
<g id="node9" class="node"><title>Node1</title>
<g id="a_node9"><a xlink:href="group__gige__cmd__constants.html" target="_top" xlink:title="GigE Vision Command\l constants">
<polygon fill="white" stroke="black" points="153.5,-49.5 153.5,-79.5 269.5,-79.5 269.5,-49.5 153.5,-49.5"/>
<text text-anchor="start" x="161.5" y="-67.5" font-family="Helvetica,sans-Serif" font-size="10.00">GigE Vision Command</text>
<text text-anchor="middle" x="211.5" y="-56.5" font-family="Helvetica,sans-Serif" font-size="10.00"> constants</text>
</a>
</g>
</g>
<!-- Node0&#45;&gt;Node1 -->
<g id="edge1" class="edge"><title>Node0&#45;&gt;Node1</title>
<path fill="none" stroke="black" d="M65.3886,-178.08C80.1938,-154.495 108.789,-113.781 143,-89.5 148.299,-85.739 154.231,-82.4743 160.319,-79.6597"/>
<polygon fill="black" stroke="black" points="62.3082,-176.409 60.0757,-186.766 68.2796,-180.062 62.3082,-176.409"/>
</g>
<!-- Node3 -->
<g id="node10" class="node"><title>Node3</title>
<g id="a_node10"><a xlink:href="group__gige__reg__constants.html" target="_top" xlink:title="GigE Vision Register\l constants">
<polygon fill="white" stroke="black" points="157.5,-0.5 157.5,-30.5 265.5,-30.5 265.5,-0.5 157.5,-0.5"/>
<text text-anchor="start" x="165.5" y="-18.5" font-family="Helvetica,sans-Serif" font-size="10.00">GigE Vision Register</text>
<text text-anchor="middle" x="211.5" y="-7.5" font-family="Helvetica,sans-Serif" font-size="10.00"> constants</text>
</a>
</g>
</g>
<!-- Node0&#45;&gt;Node3 -->
<g id="edge3" class="edge"><title>Node0&#45;&gt;Node3</title>
<path fill="none" stroke="black" d="M60.5164,-177.236C71.6452,-144.619 98.4593,-78.378 143,-40.5 147.474,-36.695 152.581,-33.4445 157.937,-30.6731"/>
<polygon fill="black" stroke="black" points="57.1314,-176.326 57.3407,-186.919 63.7828,-178.508 57.1314,-176.326"/>
</g>
</g>
</svg>
