<?xml version="1.0" encoding="UTF-8" standalone="no"?>
<!DOCTYPE svg PUBLIC "-//W3C//DTD SVG 1.1//EN"
 "http://www.w3.org/Graphics/SVG/1.1/DTD/svg11.dtd">
<!-- Generated by graphviz version 2.38.0 (20140413.2041)
 -->
<!-- Title: Matrix and vector math library Pages: 1 -->
<svg width="400pt" height="104pt"
 viewBox="0.00 0.00 400.00 104.00" xmlns="http://www.w3.org/2000/svg" xmlns:xlink="http://www.w3.org/1999/xlink">
<g id="graph0" class="graph" transform="scale(1 1) rotate(0) translate(4 100)">
<title>Matrix and vector math library</title>
<polygon fill="white" stroke="none" points="-4,4 -4,-100 396,-100 396,4 -4,4"/>
<!-- Node4 -->
<g id="node1" class="node"><title>Node4</title>
<g id="a_node1"><a xlink:href="group__mathlib__functions.html" target="_top" xlink:title="Math library functions">
<polygon fill="white" stroke="black" points="280.5,-76.5 280.5,-95.5 390.5,-95.5 390.5,-76.5 280.5,-76.5"/>
<text text-anchor="middle" x="335.5" y="-83.5" font-family="Helvetica,sans-Serif" font-size="10.00">Math library functions</text>
</a>
</g>
</g>
<!-- Node1 -->
<g id="node2" class="node"><title>Node1</title>
<g id="a_node2"><a xlink:href="group__support.html" target="_top" xlink:title="Support Libraries">
<polygon fill="white" stroke="black" points="0,-38.5 0,-57.5 90,-57.5 90,-38.5 0,-38.5"/>
<text text-anchor="middle" x="45" y="-45.5" font-family="Helvetica,sans-Serif" font-size="10.00">Support Libraries</text>
</a>
</g>
</g>
<!-- Node0 -->
<g id="node3" class="node"><title>Node0</title>
<polygon fill="#bfbfbf" stroke="black" points="126,-33 126,-63 243,-63 243,-33 126,-33"/>
<text text-anchor="start" x="134" y="-51" font-family="Helvetica,sans-Serif" font-size="10.00">Matrix and vector math</text>
<text text-anchor="middle" x="184.5" y="-40" font-family="Helvetica,sans-Serif" font-size="10.00"> library</text>
</g>
<!-- Node1&#45;&gt;Node0 -->
<g id="edge1" class="edge"><title>Node1&#45;&gt;Node0</title>
<path fill="none" stroke="black" d="M100.286,-48C108.653,-48 117.321,-48 125.76,-48"/>
<polygon fill="black" stroke="black" points="100.263,-44.5001 90.2627,-48 100.263,-51.5001 100.263,-44.5001"/>
</g>
<!-- Node0&#45;&gt;Node4 -->
<g id="edge4" class="edge"><title>Node0&#45;&gt;Node4</title>
<path fill="none" stroke="black" d="M252.928,-65.1963C267.997,-69.0395 283.456,-72.982 296.808,-76.3872"/>
<polygon fill="black" stroke="black" points="253.662,-61.7717 243.107,-62.6918 251.932,-68.5545 253.662,-61.7717"/>
</g>
<!-- Node2 -->
<g id="node4" class="node"><title>Node2</title>
<g id="a_node4"><a xlink:href="group__mathlib__constants.html" target="_top" xlink:title="Math library constants">
<polygon fill="white" stroke="black" points="279,-38.5 279,-57.5 392,-57.5 392,-38.5 279,-38.5"/>
<text text-anchor="middle" x="335.5" y="-45.5" font-family="Helvetica,sans-Serif" font-size="10.00">Math library constants</text>
</a>
</g>
</g>
<!-- Node0&#45;&gt;Node2 -->
<g id="edge2" class="edge"><title>Node0&#45;&gt;Node2</title>
<path fill="none" stroke="black" d="M253.307,-48C261.741,-48 270.289,-48 278.516,-48"/>
<polygon fill="black" stroke="black" points="253.107,-44.5001 243.107,-48 253.107,-51.5001 253.107,-44.5001"/>
</g>
<!-- Node3 -->
<g id="node5" class="node"><title>Node3</title>
<g id="a_node5"><a xlink:href="group__mathlib__typedefs.html" target="_top" xlink:title="Math library typedefs">
<polygon fill="white" stroke="black" points="281.5,-0.5 281.5,-19.5 389.5,-19.5 389.5,-0.5 281.5,-0.5"/>
<text text-anchor="middle" x="335.5" y="-7.5" font-family="Helvetica,sans-Serif" font-size="10.00">Math library typedefs</text>
</a>
</g>
</g>
<!-- Node0&#45;&gt;Node3 -->
<g id="edge3" class="edge"><title>Node0&#45;&gt;Node3</title>
<path fill="none" stroke="black" d="M252.928,-30.8037C267.997,-26.9605 283.456,-23.018 296.808,-19.6128"/>
<polygon fill="black" stroke="black" points="251.932,-27.4455 243.107,-33.3082 253.662,-34.2283 251.932,-27.4455"/>
</g>
</g>
</svg>
