<?xml version="1.0" encoding="UTF-8" standalone="no"?>
<!DOCTYPE svg PUBLIC "-//W3C//DTD SVG 1.1//EN"
 "http://www.w3.org/Graphics/SVG/1.1/DTD/svg11.dtd">
<!-- Generated by graphviz version 2.38.0 (20140413.2041)
 -->
<!-- Title: Data Management Pages: 1 -->
<svg width="401pt" height="88pt"
 viewBox="0.00 0.00 401.00 88.00" xmlns="http://www.w3.org/2000/svg" xmlns:xlink="http://www.w3.org/1999/xlink">
<g id="graph0" class="graph" transform="scale(1 1) rotate(0) translate(4 84)">
<title>Data Management</title>
<polygon fill="white" stroke="none" points="-4,4 -4,-84 397,-84 397,4 -4,4"/>
<!-- Node0 -->
<g id="node1" class="node"><title>Node0</title>
<polygon fill="#bfbfbf" stroke="black" points="126,-30 126,-49 223,-49 223,-30 126,-30"/>
<text text-anchor="middle" x="174.5" y="-37" font-family="Helvetica,sans-Serif" font-size="10.00">Data Management</text>
</g>
<!-- Node2 -->
<g id="node3" class="node"><title>Node2</title>
<g id="a_node3"><a xlink:href="group__datalib__statics.html" target="_top" xlink:title="Static variables for\l Data functions.">
<polygon fill="white" stroke="black" points="277,-49.5 277,-79.5 375,-79.5 375,-49.5 277,-49.5"/>
<text text-anchor="start" x="285" y="-67.5" font-family="Helvetica,sans-Serif" font-size="10.00">Static variables for</text>
<text text-anchor="middle" x="326" y="-56.5" font-family="Helvetica,sans-Serif" font-size="10.00"> Data functions.</text>
</a>
</g>
</g>
<!-- Node0&#45;&gt;Node2 -->
<g id="edge2" class="edge"><title>Node0&#45;&gt;Node2</title>
<path fill="none" stroke="black" d="M233.079,-49.1285C247.58,-51.5535 262.993,-54.1309 276.97,-56.4683"/>
<polygon fill="black" stroke="black" points="233.654,-45.6762 223.214,-47.4789 232.5,-52.5804 233.654,-45.6762"/>
</g>
<!-- Node3 -->
<g id="node4" class="node"><title>Node3</title>
<g id="a_node4"><a xlink:href="group__datalib__functions.html" target="_top" xlink:title="Data Management function\l declarations">
<polygon fill="white" stroke="black" points="259,-0.5 259,-30.5 393,-30.5 393,-0.5 259,-0.5"/>
<text text-anchor="start" x="267" y="-18.5" font-family="Helvetica,sans-Serif" font-size="10.00">Data Management function</text>
<text text-anchor="middle" x="326" y="-7.5" font-family="Helvetica,sans-Serif" font-size="10.00"> declarations</text>
</a>
</g>
</g>
<!-- Node0&#45;&gt;Node3 -->
<g id="edge3" class="edge"><title>Node0&#45;&gt;Node3</title>
<path fill="none" stroke="black" d="M233.281,-30.2242C241.681,-28.8756 250.384,-27.4785 258.933,-26.106"/>
<polygon fill="black" stroke="black" points="232.533,-26.7994 223.214,-31.8403 233.642,-33.7109 232.533,-26.7994"/>
</g>
<!-- Node1 -->
<g id="node2" class="node"><title>Node1</title>
<g id="a_node2"><a xlink:href="group__support.html" target="_top" xlink:title="Support Libraries">
<polygon fill="white" stroke="black" points="0,-30 0,-49 90,-49 90,-30 0,-30"/>
<text text-anchor="middle" x="45" y="-37" font-family="Helvetica,sans-Serif" font-size="10.00">Support Libraries</text>
</a>
</g>
</g>
<!-- Node1&#45;&gt;Node0 -->
<g id="edge1" class="edge"><title>Node1&#45;&gt;Node0</title>
<path fill="none" stroke="black" d="M100.409,-39.5C108.875,-39.5 117.565,-39.5 125.865,-39.5"/>
<polygon fill="black" stroke="black" points="100.236,-36.0001 90.2355,-39.5 100.235,-43.0001 100.236,-36.0001"/>
</g>
</g>
</svg>
