<?xml version="1.0" encoding="UTF-8" standalone="no"?>
<!DOCTYPE svg PUBLIC "-//W3C//DTD SVG 1.1//EN"
 "http://www.w3.org/Graphics/SVG/1.1/DTD/svg11.dtd">
<!-- Generated by graphviz version 2.38.0 (20140413.2041)
 -->
<!-- Title: gs232b_lib.cpp Pages: 1 -->
<!--zoomable 554 -->
<svg id="main" version="1.1" xmlns="http://www.w3.org/2000/svg" xmlns:xlink="http://www.w3.org/1999/xlink" xml:space="preserve" onload="init(evt)">
<style type="text/css"><![CDATA[
.edge:hover path { stroke: red; }
.edge:hover polygon { stroke: red; fill: red; }
]]></style>
<script type="text/javascript"><![CDATA[
var edges = document.getElementsByTagName('g');
if (edges && edges.length) {
  for (var i=0;i<edges.length;i++) {
    if (edges[i].id.substr(0,4)=='edge') {
      edges[i].setAttribute('class','edge');
    }
  }
}
]]></script>
        <defs>
                <circle id="rim" cx="0" cy="0" r="7"/>
                <circle id="rim2" cx="0" cy="0" r="3.5"/>
                <g id="zoomPlus">
                        <use xlink:href="#rim" fill="#404040">
                                <set attributeName="fill" to="#808080" begin="zoomplus.mouseover" end="zoomplus.mouseout"/>
                        </use>
                        <path d="M-4,0h8M0,-4v8" fill="none" stroke="white" stroke-width="1.5" pointer-events="none"/>
                </g>
                <g id="zoomMin">
                        <use xlink:href="#rim" fill="#404040">
                                <set attributeName="fill" to="#808080" begin="zoomminus.mouseover" end="zoomminus.mouseout"/>
                        </use>
                        <path d="M-4,0h8" fill="none" stroke="white" stroke-width="1.5" pointer-events="none"/>
                </g>
                <g id="dirArrow">
                        <path fill="none" stroke="white" stroke-width="1.5" d="M0,-3.0v7 M-2.5,-0.5L0,-3.0L2.5,-0.5"/>
                </g>
               <g id="resetDef">
                       <use xlink:href="#rim2" fill="#404040">
                               <set attributeName="fill" to="#808080" begin="reset.mouseover" end="reset.mouseout"/>
                       </use>
               </g>
        </defs>

<script type="text/javascript">
var viewWidth = 1816;
var viewHeight = 554;
var sectionId = 'dynsection-0';
</script>
<script xlink:href="svgpan.js"/>
<svg id="graph" class="graph">
<g id="viewport">
<title>gs232b_lib.cpp</title>
<polygon fill="white" stroke="none" points="-4,4 -4,-550 1812,-550 1812,4 -4,4"/>
<!-- Node1 -->
<g id="node1" class="node"><title>Node1</title>
<polygon fill="#bfbfbf" stroke="black" points="850,-526.5 850,-545.5 932,-545.5 932,-526.5 850,-526.5"/>
<text text-anchor="middle" x="891" y="-533.5" font-family="Helvetica,sans-Serif" font-size="10.00">gs232b_lib.cpp</text>
</g>
<!-- Node2 -->
<g id="node2" class="node"><title>Node2</title>
<g id="a_node2"><a xlink:href="config_cosmos_8h.html" target="_top" xlink:title="Headers and definitions common to all COSMOS. ">
<polygon fill="white" stroke="black" points="731.5,-112.5 731.5,-131.5 854.5,-131.5 854.5,-112.5 731.5,-112.5"/>
<text text-anchor="middle" x="793" y="-119.5" font-family="Helvetica,sans-Serif" font-size="10.00">support/configCosmos.h</text>
</a>
</g>
</g>
<!-- Node1&#45;&gt;Node2 -->
<g id="edge1" class="edge"><title>Node1&#45;&gt;Node2</title>
<path fill="none" stroke="midnightblue" d="M902.124,-526.31C924.105,-508.065 971,-463.359 971,-414 971,-414 971,-414 971,-233 971,-202.501 971.051,-189.069 949,-168 934.548,-154.191 888.229,-141.871 849.787,-133.629"/>
<polygon fill="midnightblue" stroke="midnightblue" points="850.204,-130.14 839.699,-131.518 848.77,-136.992 850.204,-130.14"/>
</g>
<!-- Node11 -->
<g id="node11" class="node"><title>Node11</title>
<polygon fill="white" stroke="#bfbfbf" points="1762,-56.5 1762,-75.5 1808,-75.5 1808,-56.5 1762,-56.5"/>
<text text-anchor="middle" x="1785" y="-63.5" font-family="Helvetica,sans-Serif" font-size="10.00">cstring</text>
</g>
<!-- Node1&#45;&gt;Node11 -->
<g id="edge77" class="edge"><title>Node1&#45;&gt;Node11</title>
<path fill="none" stroke="midnightblue" d="M932.183,-532.362C1083.5,-522.131 1600,-482.21 1600,-414 1600,-414 1600,-414 1600,-177 1600,-141.983 1699.16,-99.2802 1752.28,-78.9138"/>
<polygon fill="midnightblue" stroke="midnightblue" points="1753.83,-82.0724 1761.94,-75.2624 1751.35,-75.5246 1753.83,-82.0724"/>
</g>
<!-- Node12 -->
<g id="node12" class="node"><title>Node12</title>
<polygon fill="white" stroke="#bfbfbf" points="16,-56.5 16,-75.5 60,-75.5 60,-56.5 16,-56.5"/>
<text text-anchor="middle" x="38" y="-63.5" font-family="Helvetica,sans-Serif" font-size="10.00">cmath</text>
</g>
<!-- Node1&#45;&gt;Node12 -->
<g id="edge78" class="edge"><title>Node1&#45;&gt;Node12</title>
<path fill="none" stroke="midnightblue" d="M849.812,-533.806C674.58,-528.192 0,-500.932 0,-414 0,-414 0,-414 0,-177 0,-142.813 16.6005,-105.764 27.8573,-84.5707"/>
<polygon fill="midnightblue" stroke="midnightblue" points="30.9473,-86.2151 32.7163,-75.769 24.8191,-82.832 30.9473,-86.2151"/>
</g>
<!-- Node35 -->
<g id="node35" class="node"><title>Node35</title>
<g id="a_node35"><a xlink:href="gs232b__lib_8h.html" target="_top" xlink:title="GS&#45;232B controller includes. ">
<polygon fill="white" stroke="black" points="706,-459.5 706,-489.5 820,-489.5 820,-459.5 706,-459.5"/>
<text text-anchor="start" x="714" y="-477.5" font-family="Helvetica,sans-Serif" font-size="10.00">device/general/gs232b</text>
<text text-anchor="middle" x="763" y="-466.5" font-family="Helvetica,sans-Serif" font-size="10.00">_lib.h</text>
</a>
</g>
</g>
<!-- Node1&#45;&gt;Node35 -->
<g id="edge43" class="edge"><title>Node1&#45;&gt;Node35</title>
<path fill="none" stroke="midnightblue" d="M872.661,-526.475C854.434,-518.002 825.897,-504.737 802.503,-493.863"/>
<polygon fill="midnightblue" stroke="midnightblue" points="803.711,-490.564 793.167,-489.523 800.76,-496.912 803.711,-490.564"/>
</g>
<!-- Node3 -->
<g id="node3" class="node"><title>Node3</title>
<polygon fill="white" stroke="#bfbfbf" points="1077.5,-56.5 1077.5,-75.5 1122.5,-75.5 1122.5,-56.5 1077.5,-56.5"/>
<text text-anchor="middle" x="1100" y="-63.5" font-family="Helvetica,sans-Serif" font-size="10.00">climits</text>
</g>
<!-- Node2&#45;&gt;Node3 -->
<g id="edge2" class="edge"><title>Node2&#45;&gt;Node3</title>
<path fill="none" stroke="midnightblue" d="M854.541,-112.942C908.226,-105.455 988.361,-93.1848 1067.24,-75.9467"/>
<polygon fill="midnightblue" stroke="midnightblue" points="1068.35,-79.2868 1077.35,-73.7076 1066.83,-72.4524 1068.35,-79.2868"/>
</g>
<!-- Node4 -->
<g id="node4" class="node"><title>Node4</title>
<polygon fill="white" stroke="#bfbfbf" points="1140.5,-56.5 1140.5,-75.5 1187.5,-75.5 1187.5,-56.5 1140.5,-56.5"/>
<text text-anchor="middle" x="1164" y="-63.5" font-family="Helvetica,sans-Serif" font-size="10.00">csignal</text>
</g>
<!-- Node2&#45;&gt;Node4 -->
<g id="edge3" class="edge"><title>Node2&#45;&gt;Node4</title>
<path fill="none" stroke="midnightblue" d="M854.62,-113.013C939.629,-101.966 1086.57,-82.7603 1130.24,-75.6634"/>
<polygon fill="midnightblue" stroke="midnightblue" points="1131.07,-79.0719 1140.3,-73.8721 1129.84,-72.1804 1131.07,-79.0719"/>
</g>
<!-- Node5 -->
<g id="node5" class="node"><title>Node5</title>
<polygon fill="white" stroke="#bfbfbf" points="188,-56.5 188,-75.5 234,-75.5 234,-56.5 188,-56.5"/>
<text text-anchor="middle" x="211" y="-63.5" font-family="Helvetica,sans-Serif" font-size="10.00">cstdint</text>
</g>
<!-- Node2&#45;&gt;Node5 -->
<g id="edge4" class="edge"><title>Node2&#45;&gt;Node5</title>
<path fill="none" stroke="midnightblue" d="M731.461,-119.82C631.101,-117.052 425.969,-107.875 244.301,-75.9003"/>
<polygon fill="midnightblue" stroke="midnightblue" points="244.758,-72.4266 234.298,-74.1122 243.526,-79.3174 244.758,-72.4266"/>
</g>
<!-- Node6 -->
<g id="node6" class="node"><title>Node6</title>
<polygon fill="white" stroke="#bfbfbf" points="1688,-56.5 1688,-75.5 1744,-75.5 1744,-56.5 1688,-56.5"/>
<text text-anchor="middle" x="1716" y="-63.5" font-family="Helvetica,sans-Serif" font-size="10.00">cinttypes</text>
</g>
<!-- Node2&#45;&gt;Node6 -->
<g id="edge5" class="edge"><title>Node2&#45;&gt;Node6</title>
<path fill="none" stroke="midnightblue" d="M854.806,-112.769C857.573,-112.49 860.314,-112.232 863,-112 1222.46,-80.9681 1316.14,-121.959 1674,-76 1675.25,-75.8397 1676.51,-75.6614 1677.79,-75.4683"/>
<polygon fill="midnightblue" stroke="midnightblue" points="1678.4,-78.9156 1687.64,-73.7463 1677.19,-72.0201 1678.4,-78.9156"/>
</g>
<!-- Node7 -->
<g id="node7" class="node"><title>Node7</title>
<polygon fill="white" stroke="#bfbfbf" points="320.5,-56.5 320.5,-75.5 363.5,-75.5 363.5,-56.5 320.5,-56.5"/>
<text text-anchor="middle" x="342" y="-63.5" font-family="Helvetica,sans-Serif" font-size="10.00">cstdio</text>
</g>
<!-- Node2&#45;&gt;Node7 -->
<g id="edge6" class="edge"><title>Node2&#45;&gt;Node7</title>
<path fill="none" stroke="midnightblue" d="M731.455,-117.993C650.974,-113.27 505.596,-102.029 373.407,-75.9575"/>
<polygon fill="midnightblue" stroke="midnightblue" points="374.002,-72.5072 363.509,-73.9721 372.625,-79.3705 374.002,-72.5072"/>
</g>
<!-- Node8 -->
<g id="node8" class="node"><title>Node8</title>
<polygon fill="white" stroke="#bfbfbf" points="381.5,-56.5 381.5,-75.5 430.5,-75.5 430.5,-56.5 381.5,-56.5"/>
<text text-anchor="middle" x="406" y="-63.5" font-family="Helvetica,sans-Serif" font-size="10.00">cstddef</text>
</g>
<!-- Node2&#45;&gt;Node8 -->
<g id="edge7" class="edge"><title>Node2&#45;&gt;Node8</title>
<path fill="none" stroke="midnightblue" d="M731.185,-115.784C662.35,-109.384 547.678,-96.9652 440.766,-76.1326"/>
<polygon fill="midnightblue" stroke="midnightblue" points="441.267,-72.6639 430.778,-74.1569 439.909,-79.5308 441.267,-72.6639"/>
</g>
<!-- Node9 -->
<g id="node9" class="node"><title>Node9</title>
<polygon fill="white" stroke="#bfbfbf" points="448.5,-56.5 448.5,-75.5 493.5,-75.5 493.5,-56.5 448.5,-56.5"/>
<text text-anchor="middle" x="471" y="-63.5" font-family="Helvetica,sans-Serif" font-size="10.00">cstdlib</text>
</g>
<!-- Node2&#45;&gt;Node9 -->
<g id="edge8" class="edge"><title>Node2&#45;&gt;Node9</title>
<path fill="none" stroke="midnightblue" d="M731.222,-113.603C674.485,-106.314 587.941,-93.952 503.642,-75.9019"/>
<polygon fill="midnightblue" stroke="midnightblue" points="504.156,-72.4321 493.641,-73.7311 502.671,-79.2728 504.156,-72.4321"/>
</g>
<!-- Node10 -->
<g id="node10" class="node"><title>Node10</title>
<polygon fill="white" stroke="#bfbfbf" points="512,-56.5 512,-75.5 556,-75.5 556,-56.5 512,-56.5"/>
<text text-anchor="middle" x="534" y="-63.5" font-family="Helvetica,sans-Serif" font-size="10.00">cerrno</text>
</g>
<!-- Node2&#45;&gt;Node10 -->
<g id="edge9" class="edge"><title>Node2&#45;&gt;Node10</title>
<path fill="none" stroke="midnightblue" d="M743.358,-112.498C699.16,-104.637 632.565,-92.0811 566.092,-76.1058"/>
<polygon fill="midnightblue" stroke="midnightblue" points="566.832,-72.6838 556.288,-73.7242 565.179,-79.486 566.832,-72.6838"/>
</g>
<!-- Node2&#45;&gt;Node11 -->
<g id="edge10" class="edge"><title>Node2&#45;&gt;Node11</title>
<path fill="none" stroke="midnightblue" d="M854.805,-112.756C857.573,-112.481 860.314,-112.227 863,-112 1254.2,-79.0028 1360.25,-137.036 1751.83,-75.7892"/>
<polygon fill="midnightblue" stroke="midnightblue" points="1752.39,-79.2439 1761.72,-74.2261 1751.3,-72.3297 1752.39,-79.2439"/>
</g>
<!-- Node2&#45;&gt;Node12 -->
<g id="edge11" class="edge"><title>Node2&#45;&gt;Node12</title>
<path fill="none" stroke="midnightblue" d="M731.399,-118.287C611.159,-112.699 336.849,-98.5055 107,-76 94.9412,-74.8193 81.7401,-73.1823 70.1428,-71.6277"/>
<polygon fill="midnightblue" stroke="midnightblue" points="70.4049,-68.131 60.0218,-70.2388 69.4531,-75.066 70.4049,-68.131"/>
</g>
<!-- Node13 -->
<g id="node13" class="node"><title>Node13</title>
<polygon fill="white" stroke="#bfbfbf" points="574.5,-56.5 574.5,-75.5 619.5,-75.5 619.5,-56.5 574.5,-56.5"/>
<text text-anchor="middle" x="597" y="-63.5" font-family="Helvetica,sans-Serif" font-size="10.00">iosfwd</text>
</g>
<!-- Node2&#45;&gt;Node13 -->
<g id="edge12" class="edge"><title>Node2&#45;&gt;Node13</title>
<path fill="none" stroke="midnightblue" d="M761.544,-112.433C730.452,-103.95 681.276,-90.497 629.429,-76.1064"/>
<polygon fill="midnightblue" stroke="midnightblue" points="630.293,-72.7138 619.721,-73.4094 628.419,-79.4584 630.293,-72.7138"/>
</g>
<!-- Node14 -->
<g id="node14" class="node"><title>Node14</title>
<polygon fill="white" stroke="#bfbfbf" points="116,-56.5 116,-75.5 170,-75.5 170,-56.5 116,-56.5"/>
<text text-anchor="middle" x="143" y="-63.5" font-family="Helvetica,sans-Serif" font-size="10.00">iostream</text>
</g>
<!-- Node2&#45;&gt;Node14 -->
<g id="edge13" class="edge"><title>Node2&#45;&gt;Node14</title>
<path fill="none" stroke="midnightblue" d="M731.154,-119.973C621.764,-117.392 386.974,-108.421 180.162,-75.9018"/>
<polygon fill="midnightblue" stroke="midnightblue" points="180.45,-72.4036 170.024,-74.285 179.348,-79.3163 180.45,-72.4036"/>
</g>
<!-- Node15 -->
<g id="node15" class="node"><title>Node15</title>
<polygon fill="white" stroke="#bfbfbf" points="638,-56.5 638,-75.5 690,-75.5 690,-56.5 638,-56.5"/>
<text text-anchor="middle" x="664" y="-63.5" font-family="Helvetica,sans-Serif" font-size="10.00">sstream</text>
</g>
<!-- Node2&#45;&gt;Node15 -->
<g id="edge14" class="edge"><title>Node2&#45;&gt;Node15</title>
<path fill="none" stroke="midnightblue" d="M772.56,-112.444C751.33,-103.557 717.901,-89.5632 693.745,-79.4514"/>
<polygon fill="midnightblue" stroke="midnightblue" points="694.921,-76.1493 684.345,-75.5164 692.218,-82.6064 694.921,-76.1493"/>
</g>
<!-- Node16 -->
<g id="node16" class="node"><title>Node16</title>
<polygon fill="white" stroke="#bfbfbf" points="708.5,-56.5 708.5,-75.5 749.5,-75.5 749.5,-56.5 708.5,-56.5"/>
<text text-anchor="middle" x="729" y="-63.5" font-family="Helvetica,sans-Serif" font-size="10.00">regex</text>
</g>
<!-- Node2&#45;&gt;Node16 -->
<g id="edge15" class="edge"><title>Node2&#45;&gt;Node16</title>
<path fill="none" stroke="midnightblue" d="M782.717,-112.324C773.164,-104.263 758.72,-92.0765 747.216,-82.3695"/>
<polygon fill="midnightblue" stroke="midnightblue" points="749.37,-79.6076 739.47,-75.8339 744.856,-84.9577 749.37,-79.6076"/>
</g>
<!-- Node17 -->
<g id="node17" class="node"><title>Node17</title>
<polygon fill="white" stroke="#bfbfbf" points="252,-56.5 252,-75.5 302,-75.5 302,-56.5 252,-56.5"/>
<text text-anchor="middle" x="277" y="-63.5" font-family="Helvetica,sans-Serif" font-size="10.00">iomanip</text>
</g>
<!-- Node2&#45;&gt;Node17 -->
<g id="edge16" class="edge"><title>Node2&#45;&gt;Node17</title>
<path fill="none" stroke="midnightblue" d="M731.313,-118.513C641.19,-114.16 468.202,-103.078 312.385,-75.9628"/>
<polygon fill="midnightblue" stroke="midnightblue" points="312.604,-72.4473 302.147,-74.1535 311.386,-79.3405 312.604,-72.4473"/>
</g>
<!-- Node18 -->
<g id="node18" class="node"><title>Node18</title>
<polygon fill="white" stroke="#bfbfbf" points="767.5,-56.5 767.5,-75.5 818.5,-75.5 818.5,-56.5 767.5,-56.5"/>
<text text-anchor="middle" x="793" y="-63.5" font-family="Helvetica,sans-Serif" font-size="10.00">unistd.h</text>
</g>
<!-- Node2&#45;&gt;Node18 -->
<g id="edge17" class="edge"><title>Node2&#45;&gt;Node18</title>
<path fill="none" stroke="midnightblue" d="M793,-112.083C793,-105.006 793,-94.8611 793,-85.9865"/>
<polygon fill="midnightblue" stroke="midnightblue" points="796.5,-85.751 793,-75.7511 789.5,-85.7511 796.5,-85.751"/>
</g>
<!-- Node19 -->
<g id="node19" class="node"><title>Node19</title>
<polygon fill="white" stroke="#bfbfbf" points="837,-56.5 837,-75.5 881,-75.5 881,-56.5 837,-56.5"/>
<text text-anchor="middle" x="859" y="-63.5" font-family="Helvetica,sans-Serif" font-size="10.00">fcntl.h</text>
</g>
<!-- Node2&#45;&gt;Node19 -->
<g id="edge18" class="edge"><title>Node2&#45;&gt;Node19</title>
<path fill="none" stroke="midnightblue" d="M803.604,-112.324C813.456,-104.263 828.351,-92.0765 840.215,-82.3695"/>
<polygon fill="midnightblue" stroke="midnightblue" points="842.68,-84.8752 848.203,-75.8339 838.247,-79.4575 842.68,-84.8752"/>
</g>
<!-- Node20 -->
<g id="node20" class="node"><title>Node20</title>
<polygon fill="white" stroke="#bfbfbf" points="899,-56.5 899,-75.5 939,-75.5 939,-56.5 899,-56.5"/>
<text text-anchor="middle" x="919" y="-63.5" font-family="Helvetica,sans-Serif" font-size="10.00">limits</text>
</g>
<!-- Node2&#45;&gt;Node20 -->
<g id="edge19" class="edge"><title>Node2&#45;&gt;Node20</title>
<path fill="none" stroke="midnightblue" d="M812.965,-112.444C833.609,-103.596 866.063,-89.6875 889.632,-79.5865"/>
<polygon fill="midnightblue" stroke="midnightblue" points="891.316,-82.6727 899.128,-75.5164 888.558,-76.2387 891.316,-82.6727"/>
</g>
<!-- Node21 -->
<g id="node21" class="node"><title>Node21</title>
<polygon fill="white" stroke="#bfbfbf" points="1312.5,-0.5 1312.5,-19.5 1353.5,-19.5 1353.5,-0.5 1312.5,-0.5"/>
<text text-anchor="middle" x="1333" y="-7.5" font-family="Helvetica,sans-Serif" font-size="10.00">string</text>
</g>
<!-- Node2&#45;&gt;Node21 -->
<g id="edge20" class="edge"><title>Node2&#45;&gt;Node21</title>
<path fill="none" stroke="midnightblue" d="M854.817,-112.886C857.581,-112.576 860.319,-112.278 863,-112 913.332,-106.772 1278.44,-108.765 1317,-76 1330.13,-64.8468 1333.42,-44.8194 1333.86,-29.9325"/>
<polygon fill="midnightblue" stroke="midnightblue" points="1337.36,-29.7476 1333.76,-19.7826 1330.36,-29.8166 1337.36,-29.7476"/>
</g>
<!-- Node22 -->
<g id="node22" class="node"><title>Node22</title>
<polygon fill="white" stroke="#bfbfbf" points="1089,-0.5 1089,-19.5 1133,-19.5 1133,-0.5 1089,-0.5"/>
<text text-anchor="middle" x="1111" y="-7.5" font-family="Helvetica,sans-Serif" font-size="10.00">vector</text>
</g>
<!-- Node2&#45;&gt;Node22 -->
<g id="edge21" class="edge"><title>Node2&#45;&gt;Node22</title>
<path fill="none" stroke="midnightblue" d="M854.828,-112.982C857.589,-112.646 860.323,-112.317 863,-112 936.916,-103.254 1146.28,-131.387 1196,-76 1216.64,-53.0111 1174.59,-32.4608 1142.6,-20.8816"/>
<polygon fill="midnightblue" stroke="midnightblue" points="1143.66,-17.5474 1133.07,-17.5833 1141.37,-24.1623 1143.66,-17.5474"/>
</g>
<!-- Node23 -->
<g id="node23" class="node"><title>Node23</title>
<polygon fill="white" stroke="#bfbfbf" points="957.5,-56.5 957.5,-75.5 998.5,-75.5 998.5,-56.5 957.5,-56.5"/>
<text text-anchor="middle" x="978" y="-63.5" font-family="Helvetica,sans-Serif" font-size="10.00">stack</text>
</g>
<!-- Node2&#45;&gt;Node23 -->
<g id="edge22" class="edge"><title>Node2&#45;&gt;Node23</title>
<path fill="none" stroke="midnightblue" d="M822.737,-112.452C852.006,-104.019 898.225,-90.6541 947.466,-76.1385"/>
<polygon fill="midnightblue" stroke="midnightblue" points="948.75,-79.4088 957.35,-73.2212 946.769,-72.6952 948.75,-79.4088"/>
</g>
<!-- Node24 -->
<g id="node24" class="node"><title>Node24</title>
<polygon fill="white" stroke="#bfbfbf" points="1016.5,-56.5 1016.5,-75.5 1059.5,-75.5 1059.5,-56.5 1016.5,-56.5"/>
<text text-anchor="middle" x="1038" y="-63.5" font-family="Helvetica,sans-Serif" font-size="10.00">deque</text>
</g>
<!-- Node2&#45;&gt;Node24 -->
<g id="edge23" class="edge"><title>Node2&#45;&gt;Node24</title>
<path fill="none" stroke="midnightblue" d="M838.315,-112.5C879.664,-104.513 942.649,-91.7729 1006.53,-75.9621"/>
<polygon fill="midnightblue" stroke="midnightblue" points="1007.52,-79.3226 1016.38,-73.5031 1005.83,-72.5313 1007.52,-79.3226"/>
</g>
<!-- Node25 -->
<g id="node25" class="node"><title>Node25</title>
<polygon fill="white" stroke="#bfbfbf" points="1594,-0.5 1594,-19.5 1638,-19.5 1638,-0.5 1594,-0.5"/>
<text text-anchor="middle" x="1616" y="-7.5" font-family="Helvetica,sans-Serif" font-size="10.00">mutex</text>
</g>
<!-- Node2&#45;&gt;Node25 -->
<g id="edge24" class="edge"><title>Node2&#45;&gt;Node25</title>
<path fill="none" stroke="midnightblue" d="M854.808,-112.788C857.575,-112.504 860.315,-112.239 863,-112 942.784,-104.887 1515.8,-119.594 1583,-76 1599.06,-65.58 1607.66,-44.7764 1612.01,-29.5002"/>
<polygon fill="midnightblue" stroke="midnightblue" points="1615.46,-30.1299 1614.48,-19.5812 1608.67,-28.4435 1615.46,-30.1299"/>
</g>
<!-- Node26 -->
<g id="node26" class="node"><title>Node26</title>
<polygon fill="white" stroke="#bfbfbf" points="1532,-0.5 1532,-19.5 1576,-19.5 1576,-0.5 1532,-0.5"/>
<text text-anchor="middle" x="1554" y="-7.5" font-family="Helvetica,sans-Serif" font-size="10.00">thread</text>
</g>
<!-- Node2&#45;&gt;Node26 -->
<g id="edge25" class="edge"><title>Node2&#45;&gt;Node26</title>
<path fill="none" stroke="midnightblue" d="M854.808,-112.792C857.575,-112.507 860.315,-112.241 863,-112 901.895,-108.507 1538.1,-104.312 1565,-76 1576.79,-63.5951 1571.05,-43.5113 1564.25,-28.9478"/>
<polygon fill="midnightblue" stroke="midnightblue" points="1567.27,-27.1782 1559.56,-19.9096 1561.06,-30.3987 1567.27,-27.1782"/>
</g>
<!-- Node27 -->
<g id="node27" class="node"><title>Node27</title>
<polygon fill="white" stroke="#bfbfbf" points="1656.5,-0.5 1656.5,-19.5 1751.5,-19.5 1751.5,-0.5 1656.5,-0.5"/>
<text text-anchor="middle" x="1704" y="-7.5" font-family="Helvetica,sans-Serif" font-size="10.00">condition_variable</text>
</g>
<!-- Node2&#45;&gt;Node27 -->
<g id="edge26" class="edge"><title>Node2&#45;&gt;Node27</title>
<path fill="none" stroke="midnightblue" d="M854.808,-112.783C857.574,-112.5 860.315,-112.237 863,-112 1027.66,-97.4485 1448.93,-127.533 1606,-76 1637.51,-65.6625 1668.48,-42.2773 1686.92,-26.5623"/>
<polygon fill="midnightblue" stroke="midnightblue" points="1689.7,-28.7796 1694.91,-19.5545 1685.08,-23.5168 1689.7,-28.7796"/>
</g>
<!-- Node28 -->
<g id="node28" class="node"><title>Node28</title>
<polygon fill="white" stroke="#bfbfbf" points="1424.5,-0.5 1424.5,-19.5 1467.5,-19.5 1467.5,-0.5 1424.5,-0.5"/>
<text text-anchor="middle" x="1446" y="-7.5" font-family="Helvetica,sans-Serif" font-size="10.00">queue</text>
</g>
<!-- Node2&#45;&gt;Node28 -->
<g id="edge27" class="edge"><title>Node2&#45;&gt;Node28</title>
<path fill="none" stroke="midnightblue" d="M854.815,-112.861C857.58,-112.557 860.318,-112.269 863,-112 974.065,-100.879 1259.97,-116.468 1364,-76 1391.1,-65.4561 1416.38,-42.6794 1431.51,-27.0934"/>
<polygon fill="midnightblue" stroke="midnightblue" points="1434.16,-29.386 1438.45,-19.7013 1429.06,-24.593 1434.16,-29.386"/>
</g>
<!-- Node29 -->
<g id="node29" class="node"><title>Node29</title>
<polygon fill="white" stroke="#bfbfbf" points="1371.5,-0.5 1371.5,-19.5 1406.5,-19.5 1406.5,-0.5 1371.5,-0.5"/>
<text text-anchor="middle" x="1389" y="-7.5" font-family="Helvetica,sans-Serif" font-size="10.00">map</text>
</g>
<!-- Node2&#45;&gt;Node29 -->
<g id="edge28" class="edge"><title>Node2&#45;&gt;Node29</title>
<path fill="none" stroke="midnightblue" d="M854.816,-112.874C857.581,-112.567 860.318,-112.274 863,-112 968.311,-101.247 1244.63,-125.873 1338,-76 1357.51,-65.5782 1372.02,-44.124 1380.48,-28.7118"/>
<polygon fill="midnightblue" stroke="midnightblue" points="1383.69,-30.1261 1385.15,-19.6329 1377.46,-26.9225 1383.69,-30.1261"/>
</g>
<!-- Node30 -->
<g id="node30" class="node"><title>Node30</title>
<g id="a_node30"><a xlink:href="cosmos-defs_8h.html" target="_top" xlink:title="COSMOS definitions Definitions specific to the COSMOS environement. ">
<polygon fill="white" stroke="black" points="1440,-56.5 1440,-75.5 1556,-75.5 1556,-56.5 1440,-56.5"/>
<text text-anchor="middle" x="1498" y="-63.5" font-family="Helvetica,sans-Serif" font-size="10.00">support/cosmos&#45;defs.h</text>
</a>
</g>
</g>
<!-- Node2&#45;&gt;Node30 -->
<g id="edge29" class="edge"><title>Node2&#45;&gt;Node30</title>
<path fill="none" stroke="midnightblue" d="M854.812,-112.835C857.578,-112.538 860.317,-112.258 863,-112 1112.58,-88.0007 1176.38,-99.5606 1426,-76 1427.27,-75.8801 1428.55,-75.7557 1429.84,-75.6272"/>
<polygon fill="midnightblue" stroke="midnightblue" points="1430.3,-79.099 1439.87,-74.572 1429.56,-72.1374 1430.3,-79.099"/>
</g>
<!-- Node32 -->
<g id="node32" class="node"><title>Node32</title>
<g id="a_node32"><a xlink:href="json11_8hpp.html" target="_top" xlink:title="json11.hpp">
<polygon fill="white" stroke="black" points="1244,-56.5 1244,-75.5 1308,-75.5 1308,-56.5 1244,-56.5"/>
<text text-anchor="middle" x="1276" y="-63.5" font-family="Helvetica,sans-Serif" font-size="10.00">json11.hpp</text>
</a>
</g>
</g>
<!-- Node2&#45;&gt;Node32 -->
<g id="edge37" class="edge"><title>Node2&#45;&gt;Node32</title>
<path fill="none" stroke="midnightblue" d="M854.824,-112.949C857.586,-112.621 860.322,-112.303 863,-112 1025.85,-93.5479 1067.84,-99.7618 1230,-76 1231.27,-75.8142 1232.55,-75.6172 1233.85,-75.411"/>
<polygon fill="midnightblue" stroke="midnightblue" points="1234.63,-78.8282 1243.9,-73.6867 1233.45,-71.9291 1234.63,-78.8282"/>
</g>
<!-- Node30&#45;&gt;Node22 -->
<g id="edge31" class="edge"><title>Node30&#45;&gt;Node22</title>
<path fill="none" stroke="midnightblue" d="M1439.89,-60.473C1371.1,-54.4877 1253.03,-42.2465 1143.17,-19.9571"/>
<polygon fill="midnightblue" stroke="midnightblue" points="1143.75,-16.5026 1133.25,-17.9114 1142.33,-23.3585 1143.75,-16.5026"/>
</g>
<!-- Node30&#45;&gt;Node25 -->
<g id="edge35" class="edge"><title>Node30&#45;&gt;Node25</title>
<path fill="none" stroke="midnightblue" d="M1516.7,-56.4435C1535.94,-47.6356 1566.15,-33.8116 1588.2,-23.722"/>
<polygon fill="midnightblue" stroke="midnightblue" points="1589.75,-26.8603 1597.39,-19.5164 1586.84,-20.4951 1589.75,-26.8603"/>
</g>
<!-- Node30&#45;&gt;Node26 -->
<g id="edge34" class="edge"><title>Node30&#45;&gt;Node26</title>
<path fill="none" stroke="midnightblue" d="M1507,-56.324C1515.19,-48.4196 1527.51,-36.5482 1537.47,-26.9377"/>
<polygon fill="midnightblue" stroke="midnightblue" points="1540.07,-29.2947 1544.84,-19.8339 1535.21,-24.2558 1540.07,-29.2947"/>
</g>
<!-- Node30&#45;&gt;Node27 -->
<g id="edge36" class="edge"><title>Node30&#45;&gt;Node27</title>
<path fill="none" stroke="midnightblue" d="M1530.64,-56.4435C1566.05,-47.1616 1622.71,-32.3093 1661.55,-22.127"/>
<polygon fill="midnightblue" stroke="midnightblue" points="1662.73,-25.4378 1671.51,-19.5164 1660.95,-18.6666 1662.73,-25.4378"/>
</g>
<!-- Node30&#45;&gt;Node28 -->
<g id="edge33" class="edge"><title>Node30&#45;&gt;Node28</title>
<path fill="none" stroke="midnightblue" d="M1489.41,-56.083C1481.84,-48.2195 1470.62,-36.5688 1461.49,-27.0813"/>
<polygon fill="midnightblue" stroke="midnightblue" points="1463.88,-24.5266 1454.43,-19.7511 1458.84,-29.3821 1463.88,-24.5266"/>
</g>
<!-- Node30&#45;&gt;Node29 -->
<g id="edge30" class="edge"><title>Node30&#45;&gt;Node29</title>
<path fill="none" stroke="midnightblue" d="M1480.49,-56.324C1462.93,-47.6247 1435.67,-34.1202 1415.47,-24.113"/>
<polygon fill="midnightblue" stroke="midnightblue" points="1416.98,-20.9575 1406.47,-19.6545 1413.88,-27.23 1416.98,-20.9575"/>
</g>
<!-- Node31 -->
<g id="node31" class="node"><title>Node31</title>
<polygon fill="white" stroke="#bfbfbf" points="1485.5,-0.5 1485.5,-19.5 1514.5,-19.5 1514.5,-0.5 1485.5,-0.5"/>
<text text-anchor="middle" x="1500" y="-7.5" font-family="Helvetica,sans-Serif" font-size="10.00">list</text>
</g>
<!-- Node30&#45;&gt;Node31 -->
<g id="edge32" class="edge"><title>Node30&#45;&gt;Node31</title>
<path fill="none" stroke="midnightblue" d="M1498.33,-56.083C1498.59,-49.0059 1498.97,-38.8611 1499.3,-29.9865"/>
<polygon fill="midnightblue" stroke="midnightblue" points="1502.8,-29.8738 1499.68,-19.7511 1495.81,-29.6147 1502.8,-29.8738"/>
</g>
<!-- Node32&#45;&gt;Node21 -->
<g id="edge38" class="edge"><title>Node32&#45;&gt;Node21</title>
<path fill="none" stroke="midnightblue" d="M1285.16,-56.324C1293.5,-48.4196 1306.03,-36.5482 1316.18,-26.9377"/>
<polygon fill="midnightblue" stroke="midnightblue" points="1318.82,-29.2522 1323.68,-19.8339 1314.01,-24.1705 1318.82,-29.2522"/>
</g>
<!-- Node32&#45;&gt;Node22 -->
<g id="edge39" class="edge"><title>Node32&#45;&gt;Node22</title>
<path fill="none" stroke="midnightblue" d="M1249.86,-56.4435C1220.75,-46.9171 1173.71,-31.5228 1142.57,-21.3321"/>
<polygon fill="midnightblue" stroke="midnightblue" points="1143.65,-18.0044 1133.06,-18.2203 1141.48,-24.6572 1143.65,-18.0044"/>
</g>
<!-- Node32&#45;&gt;Node29 -->
<g id="edge40" class="edge"><title>Node32&#45;&gt;Node29</title>
<path fill="none" stroke="midnightblue" d="M1293.91,-56.4435C1312.25,-47.6751 1341.01,-33.9355 1362.09,-23.8579"/>
<polygon fill="midnightblue" stroke="midnightblue" points="1363.67,-26.9862 1371.18,-19.5164 1360.65,-20.6703 1363.67,-26.9862"/>
</g>
<!-- Node33 -->
<g id="node33" class="node"><title>Node33</title>
<polygon fill="white" stroke="#bfbfbf" points="1151,-0.5 1151,-19.5 1203,-19.5 1203,-0.5 1151,-0.5"/>
<text text-anchor="middle" x="1177" y="-7.5" font-family="Helvetica,sans-Serif" font-size="10.00">memory</text>
</g>
<!-- Node32&#45;&gt;Node33 -->
<g id="edge41" class="edge"><title>Node32&#45;&gt;Node33</title>
<path fill="none" stroke="midnightblue" d="M1260.09,-56.324C1244.36,-47.7428 1220.06,-34.486 1201.79,-24.5224"/>
<polygon fill="midnightblue" stroke="midnightblue" points="1203.32,-21.3704 1192.87,-19.6545 1199.97,-27.5157 1203.32,-21.3704"/>
</g>
<!-- Node34 -->
<g id="node34" class="node"><title>Node34</title>
<polygon fill="white" stroke="#bfbfbf" points="1221.5,-0.5 1221.5,-19.5 1294.5,-19.5 1294.5,-0.5 1221.5,-0.5"/>
<text text-anchor="middle" x="1258" y="-7.5" font-family="Helvetica,sans-Serif" font-size="10.00">initializer_list</text>
</g>
<!-- Node32&#45;&gt;Node34 -->
<g id="edge42" class="edge"><title>Node32&#45;&gt;Node34</title>
<path fill="none" stroke="midnightblue" d="M1273.03,-56.083C1270.62,-48.8486 1267.14,-38.4087 1264.13,-29.3968"/>
<polygon fill="midnightblue" stroke="midnightblue" points="1267.4,-28.1311 1260.92,-19.7511 1260.76,-30.3447 1267.4,-28.1311"/>
</g>
<!-- Node35&#45;&gt;Node2 -->
<g id="edge44" class="edge"><title>Node35&#45;&gt;Node2</title>
<path fill="none" stroke="midnightblue" d="M760.572,-459.356C755.442,-427.308 744.63,-346.754 753,-280 759.423,-228.773 777.199,-170.294 786.746,-141.297"/>
<polygon fill="midnightblue" stroke="midnightblue" points="790.102,-142.298 789.961,-131.704 783.464,-140.074 790.102,-142.298"/>
</g>
<!-- Node36 -->
<g id="node36" class="node"><title>Node36</title>
<g id="a_node36"><a xlink:href="mathlib_8h.html" target="_top" xlink:title="mathlib include file ">
<polygon fill="white" stroke="black" points="488.5,-403.5 488.5,-422.5 569.5,-422.5 569.5,-403.5 488.5,-403.5"/>
<text text-anchor="middle" x="529" y="-410.5" font-family="Helvetica,sans-Serif" font-size="10.00">math/mathlib.h</text>
</a>
</g>
</g>
<!-- Node35&#45;&gt;Node36 -->
<g id="edge45" class="edge"><title>Node35&#45;&gt;Node36</title>
<path fill="none" stroke="midnightblue" d="M707.842,-459.475C666.414,-448.941 610.47,-434.716 572.252,-424.998"/>
<polygon fill="midnightblue" stroke="midnightblue" points="573.008,-421.579 562.454,-422.506 571.283,-428.363 573.008,-421.579"/>
</g>
<!-- Node37 -->
<g id="node37" class="node"><title>Node37</title>
<g id="a_node37"><a xlink:href="cosmos-errno_8h.html" target="_top" xlink:title="COSMOS Error Codes. ">
<polygon fill="white" stroke="black" points="821.5,-168.5 821.5,-187.5 940.5,-187.5 940.5,-168.5 821.5,-168.5"/>
<text text-anchor="middle" x="881" y="-175.5" font-family="Helvetica,sans-Serif" font-size="10.00">support/cosmos&#45;errno.h</text>
</a>
</g>
</g>
<!-- Node35&#45;&gt;Node37 -->
<g id="edge69" class="edge"><title>Node35&#45;&gt;Node37</title>
<path fill="none" stroke="midnightblue" d="M820.08,-460.026C869.467,-444.573 933,-413.841 933,-358 933,-358 933,-358 933,-294.5 933,-261.93 927.087,-253.366 913,-224 908.189,-213.971 901.165,-203.789 894.923,-195.652"/>
<polygon fill="midnightblue" stroke="midnightblue" points="897.573,-193.361 888.598,-187.731 892.102,-197.729 897.573,-193.361"/>
</g>
<!-- Node43 -->
<g id="node43" class="node"><title>Node43</title>
<g id="a_node43"><a xlink:href="cssl__lib_8h.html" target="_top" xlink:title="Simple Serial library header file. ">
<polygon fill="white" stroke="black" points="762.5,-280.5 762.5,-310.5 863.5,-310.5 863.5,-280.5 762.5,-280.5"/>
<text text-anchor="start" x="770.5" y="-298.5" font-family="Helvetica,sans-Serif" font-size="10.00">device/general/cssl</text>
<text text-anchor="middle" x="813" y="-287.5" font-family="Helvetica,sans-Serif" font-size="10.00">_lib.h</text>
</a>
</g>
</g>
<!-- Node35&#45;&gt;Node43 -->
<g id="edge70" class="edge"><title>Node35&#45;&gt;Node43</title>
<path fill="none" stroke="midnightblue" d="M767.007,-459.315C775.528,-429.15 795.532,-358.338 806.13,-320.819"/>
<polygon fill="midnightblue" stroke="midnightblue" points="809.623,-321.328 808.974,-310.753 802.887,-319.425 809.623,-321.328"/>
</g>
<!-- Node45 -->
<g id="node45" class="node"><title>Node45</title>
<polygon fill="white" stroke="#bfbfbf" points="424,-403.5 424,-422.5 470,-422.5 470,-403.5 424,-403.5"/>
<text text-anchor="middle" x="447" y="-410.5" font-family="Helvetica,sans-Serif" font-size="10.00">stdio.h</text>
</g>
<!-- Node35&#45;&gt;Node45 -->
<g id="edge76" class="edge"><title>Node35&#45;&gt;Node45</title>
<path fill="none" stroke="midnightblue" d="M705.821,-465.024C650.424,-456.431 563.885,-442.006 479.957,-423.036"/>
<polygon fill="midnightblue" stroke="midnightblue" points="480.531,-419.577 470.003,-420.761 478.972,-426.401 480.531,-419.577"/>
</g>
<!-- Node36&#45;&gt;Node2 -->
<g id="edge46" class="edge"><title>Node36&#45;&gt;Node2</title>
<path fill="none" stroke="midnightblue" d="M526.847,-403.371C522.272,-384.253 512,-336.834 512,-296.5 512,-296.5 512,-296.5 512,-233 512,-185.537 652.769,-150.156 735.039,-133.531"/>
<polygon fill="midnightblue" stroke="midnightblue" points="735.888,-136.931 745.014,-131.549 734.523,-130.065 735.888,-136.931"/>
</g>
<!-- Node36&#45;&gt;Node12 -->
<g id="edge67" class="edge"><title>Node36&#45;&gt;Node12</title>
<path fill="none" stroke="midnightblue" d="M488.318,-404.602C421.489,-392.434 294.843,-369.307 285,-367 173.85,-340.951 38,-410.662 38,-296.5 38,-296.5 38,-296.5 38,-177 38,-144.948 38,-107.643 38,-85.7489"/>
<polygon fill="midnightblue" stroke="midnightblue" points="41.5001,-85.5577 38,-75.5578 34.5001,-85.5578 41.5001,-85.5577"/>
</g>
<!-- Node36&#45;&gt;Node14 -->
<g id="edge68" class="edge"><title>Node36&#45;&gt;Node14</title>
<path fill="none" stroke="midnightblue" d="M491.858,-403.432C403.478,-382.527 188,-328.299 188,-296.5 188,-296.5 188,-296.5 188,-177 188,-141.93 168.163,-104.939 154.831,-84.037"/>
<polygon fill="midnightblue" stroke="midnightblue" points="157.7,-82.031 149.257,-75.6305 151.866,-85.8991 157.7,-82.031"/>
</g>
<!-- Node36&#45;&gt;Node37 -->
<g id="edge47" class="edge"><title>Node36&#45;&gt;Node37</title>
<path fill="none" stroke="midnightblue" d="M562.111,-403.495C587.555,-396.102 622.973,-383.912 651,-367 732.376,-317.897 734.263,-281.419 810,-224 825.073,-212.573 843.082,-201.182 857.192,-192.719"/>
<polygon fill="midnightblue" stroke="midnightblue" points="859.004,-195.714 865.83,-187.61 855.441,-189.689 859.004,-195.714"/>
</g>
<!-- Node39 -->
<g id="node39" class="node"><title>Node39</title>
<g id="a_node39"><a xlink:href="math_2constants_8h.html" target="_top" xlink:title="constants.h">
<polygon fill="white" stroke="black" points="340,-168.5 340,-187.5 408,-187.5 408,-168.5 340,-168.5"/>
<text text-anchor="middle" x="374" y="-175.5" font-family="Helvetica,sans-Serif" font-size="10.00">constants.h</text>
</a>
</g>
</g>
<!-- Node36&#45;&gt;Node39 -->
<g id="edge50" class="edge"><title>Node36&#45;&gt;Node39</title>
<path fill="none" stroke="midnightblue" d="M519.148,-403.187C509.644,-394.454 495.105,-380.469 484,-367 442.046,-316.116 432.25,-302.075 401,-244 392.776,-228.717 385.367,-210.384 380.399,-197.09"/>
<polygon fill="midnightblue" stroke="midnightblue" points="383.678,-195.865 376.97,-187.664 377.1,-198.258 383.678,-195.865"/>
</g>
<!-- Node40 -->
<g id="node40" class="node"><title>Node40</title>
<g id="a_node40"><a xlink:href="vector_8h.html" target="_top" xlink:title="vector.h">
<polygon fill="white" stroke="black" points="410,-224.5 410,-243.5 462,-243.5 462,-224.5 410,-224.5"/>
<text text-anchor="middle" x="436" y="-231.5" font-family="Helvetica,sans-Serif" font-size="10.00">vector.h</text>
</a>
</g>
</g>
<!-- Node36&#45;&gt;Node40 -->
<g id="edge53" class="edge"><title>Node36&#45;&gt;Node40</title>
<path fill="none" stroke="midnightblue" d="M522.38,-403.315C515.778,-394.451 505.558,-380.164 498,-367 475.398,-327.631 454.043,-278.659 443.275,-252.846"/>
<polygon fill="midnightblue" stroke="midnightblue" points="446.502,-251.49 439.452,-243.582 440.031,-254.161 446.502,-251.49"/>
</g>
<!-- Node41 -->
<g id="node41" class="node"><title>Node41</title>
<g id="a_node41"><a xlink:href="matrix_8h.html" target="_top" xlink:title="matrix.h">
<polygon fill="white" stroke="black" points="540,-286 540,-305 592,-305 592,-286 540,-286"/>
<text text-anchor="middle" x="566" y="-293" font-family="Helvetica,sans-Serif" font-size="10.00">matrix.h</text>
</a>
</g>
</g>
<!-- Node36&#45;&gt;Node41 -->
<g id="edge60" class="edge"><title>Node36&#45;&gt;Node41</title>
<path fill="none" stroke="midnightblue" d="M531.781,-403.319C537.754,-384.673 551.923,-340.443 560.031,-315.132"/>
<polygon fill="midnightblue" stroke="midnightblue" points="563.469,-315.873 563.187,-305.282 556.803,-313.738 563.469,-315.873"/>
</g>
<!-- Node42 -->
<g id="node42" class="node"><title>Node42</title>
<g id="a_node42"><a xlink:href="rotation_8h.html" target="_top" xlink:title="rotation.h">
<polygon fill="white" stroke="black" points="585.5,-347.5 585.5,-366.5 642.5,-366.5 642.5,-347.5 585.5,-347.5"/>
<text text-anchor="middle" x="614" y="-354.5" font-family="Helvetica,sans-Serif" font-size="10.00">rotation.h</text>
</a>
</g>
</g>
<!-- Node36&#45;&gt;Node42 -->
<g id="edge63" class="edge"><title>Node36&#45;&gt;Node42</title>
<path fill="none" stroke="midnightblue" d="M542.657,-403.324C555.916,-394.9 576.268,-381.971 591.846,-372.074"/>
<polygon fill="midnightblue" stroke="midnightblue" points="593.813,-374.971 600.377,-366.655 590.06,-369.063 593.813,-374.971"/>
</g>
<!-- Node37&#45;&gt;Node2 -->
<g id="edge48" class="edge"><title>Node37&#45;&gt;Node2</title>
<path fill="none" stroke="midnightblue" d="M866.861,-168.324C853.134,-159.9 832.064,-146.971 815.936,-137.074"/>
<polygon fill="midnightblue" stroke="midnightblue" points="817.457,-133.902 807.104,-131.655 813.796,-139.868 817.457,-133.902"/>
</g>
<!-- Node38 -->
<g id="node38" class="node"><title>Node38</title>
<polygon fill="white" stroke="#bfbfbf" points="872.5,-112.5 872.5,-131.5 919.5,-131.5 919.5,-112.5 872.5,-112.5"/>
<text text-anchor="middle" x="896" y="-119.5" font-family="Helvetica,sans-Serif" font-size="10.00">errno.h</text>
</g>
<!-- Node37&#45;&gt;Node38 -->
<g id="edge49" class="edge"><title>Node37&#45;&gt;Node38</title>
<path fill="none" stroke="midnightblue" d="M883.477,-168.083C885.486,-160.849 888.386,-150.409 890.89,-141.397"/>
<polygon fill="midnightblue" stroke="midnightblue" points="894.265,-142.323 893.569,-131.751 887.52,-140.449 894.265,-142.323"/>
</g>
<!-- Node39&#45;&gt;Node2 -->
<g id="edge51" class="edge"><title>Node39&#45;&gt;Node2</title>
<path fill="none" stroke="midnightblue" d="M408.289,-172.581C476.39,-163.804 629.974,-144.01 721.152,-132.26"/>
<polygon fill="midnightblue" stroke="midnightblue" points="721.664,-135.723 731.135,-130.973 720.769,-128.78 721.664,-135.723"/>
</g>
<!-- Node39&#45;&gt;Node5 -->
<g id="edge52" class="edge"><title>Node39&#45;&gt;Node5</title>
<path fill="none" stroke="midnightblue" d="M361.21,-168.368C333.239,-149.492 266.398,-104.385 232.096,-81.2367"/>
<polygon fill="midnightblue" stroke="midnightblue" points="233.978,-78.2841 223.731,-75.5914 230.062,-84.0865 233.978,-78.2841"/>
</g>
<!-- Node40&#45;&gt;Node2 -->
<g id="edge54" class="edge"><title>Node40&#45;&gt;Node2</title>
<path fill="none" stroke="midnightblue" d="M441.601,-224.084C451.202,-209.641 472.274,-181.4 498,-168 535.741,-148.342 646.518,-135.383 721.057,-128.621"/>
<polygon fill="midnightblue" stroke="midnightblue" points="721.672,-132.08 731.323,-127.707 721.052,-125.107 721.672,-132.08"/>
</g>
<!-- Node40&#45;&gt;Node12 -->
<g id="edge58" class="edge"><title>Node40&#45;&gt;Node12</title>
<path fill="none" stroke="midnightblue" d="M409.759,-232.561C339.642,-230.917 149.866,-223.24 100,-188 81.8083,-175.144 56.7388,-115.47 44.8222,-85.0034"/>
<polygon fill="midnightblue" stroke="midnightblue" points="48.0491,-83.6434 41.1886,-75.5697 41.5169,-86.1595 48.0491,-83.6434"/>
</g>
<!-- Node40&#45;&gt;Node14 -->
<g id="edge56" class="edge"><title>Node40&#45;&gt;Node14</title>
<path fill="none" stroke="midnightblue" d="M412.959,-224.41C391.336,-216.051 358.322,-202.517 331,-188 267.397,-154.207 197.227,-105.832 163.424,-81.768"/>
<polygon fill="midnightblue" stroke="midnightblue" points="165.059,-78.6336 154.89,-75.6576 160.983,-84.3251 165.059,-78.6336"/>
</g>
<!-- Node40&#45;&gt;Node17 -->
<g id="edge57" class="edge"><title>Node40&#45;&gt;Node17</title>
<path fill="none" stroke="midnightblue" d="M435.25,-224.227C433.742,-210.956 429.347,-185.476 417,-168 388.005,-126.963 336.942,-96.3573 305.151,-80.1211"/>
<polygon fill="midnightblue" stroke="midnightblue" points="306.463,-76.8644 295.95,-75.5479 303.347,-83.1329 306.463,-76.8644"/>
</g>
<!-- Node40&#45;&gt;Node22 -->
<g id="edge59" class="edge"><title>Node40&#45;&gt;Node22</title>
<path fill="none" stroke="midnightblue" d="M409.946,-229.213C316.568,-214.692 9.28354,-158.194 107,-56 141.365,-20.0601 910.864,-12.4437 1078.82,-11.2075"/>
<polygon fill="midnightblue" stroke="midnightblue" points="1079.02,-14.7062 1088.99,-11.135 1078.97,-7.70637 1079.02,-14.7062"/>
</g>
<!-- Node40&#45;&gt;Node39 -->
<g id="edge55" class="edge"><title>Node40&#45;&gt;Node39</title>
<path fill="none" stroke="midnightblue" d="M426.039,-224.324C416.873,-216.341 403.063,-204.313 391.972,-194.653"/>
<polygon fill="midnightblue" stroke="midnightblue" points="393.982,-191.762 384.143,-187.834 389.385,-197.041 393.982,-191.762"/>
</g>
<!-- Node41&#45;&gt;Node2 -->
<g id="edge61" class="edge"><title>Node41&#45;&gt;Node2</title>
<path fill="none" stroke="midnightblue" d="M568.827,-285.95C576.797,-263.176 601.67,-200.567 644,-168 666.314,-150.832 695.146,-140.185 721.493,-133.594"/>
<polygon fill="midnightblue" stroke="midnightblue" points="722.513,-136.95 731.451,-131.262 720.916,-130.135 722.513,-136.95"/>
</g>
<!-- Node41&#45;&gt;Node40 -->
<g id="edge62" class="edge"><title>Node41&#45;&gt;Node40</title>
<path fill="none" stroke="midnightblue" d="M547.374,-285.975C525.557,-275.99 489.196,-259.348 463.983,-247.807"/>
<polygon fill="midnightblue" stroke="midnightblue" points="465.141,-244.488 454.591,-243.509 462.228,-250.853 465.141,-244.488"/>
</g>
<!-- Node42&#45;&gt;Node2 -->
<g id="edge64" class="edge"><title>Node42&#45;&gt;Node2</title>
<path fill="none" stroke="midnightblue" d="M615.818,-347.33C622.312,-318.304 646.915,-223.26 701,-168 715.586,-153.097 736.117,-142.404 754.084,-135.192"/>
<polygon fill="midnightblue" stroke="midnightblue" points="755.632,-138.349 763.748,-131.539 753.156,-131.801 755.632,-138.349"/>
</g>
<!-- Node42&#45;&gt;Node40 -->
<g id="edge65" class="edge"><title>Node42&#45;&gt;Node40</title>
<path fill="none" stroke="midnightblue" d="M615.262,-347.206C616.974,-331.575 618.093,-298.834 601,-280 568.351,-244.025 510.035,-235.654 472.199,-234.296"/>
<polygon fill="midnightblue" stroke="midnightblue" points="472.18,-230.795 462.108,-234.083 472.032,-237.794 472.18,-230.795"/>
</g>
<!-- Node42&#45;&gt;Node41 -->
<g id="edge66" class="edge"><title>Node42&#45;&gt;Node41</title>
<path fill="none" stroke="midnightblue" d="M607.123,-347.475C599.851,-338.462 588.205,-324.025 579.159,-312.812"/>
<polygon fill="midnightblue" stroke="midnightblue" points="581.867,-310.595 572.864,-305.009 576.419,-314.99 581.867,-310.595"/>
</g>
<!-- Node43&#45;&gt;Node2 -->
<g id="edge71" class="edge"><title>Node43&#45;&gt;Node2</title>
<path fill="none" stroke="midnightblue" d="M811.212,-280.381C808.645,-259.995 803.805,-221.124 800,-188 798.217,-172.476 796.327,-154.851 794.961,-141.874"/>
<polygon fill="midnightblue" stroke="midnightblue" points="798.433,-141.417 793.911,-131.836 791.471,-142.146 798.433,-141.417"/>
</g>
<!-- Node44 -->
<g id="node44" class="node"><title>Node44</title>
<g id="a_node44"><a xlink:href="sliplib_8h.html" target="_top" xlink:title="COSMOS SLIP support include file. ">
<polygon fill="white" stroke="black" points="819.5,-224.5 819.5,-243.5 904.5,-243.5 904.5,-224.5 819.5,-224.5"/>
<text text-anchor="middle" x="862" y="-231.5" font-family="Helvetica,sans-Serif" font-size="10.00">support/sliplib.h</text>
</a>
</g>
</g>
<!-- Node43&#45;&gt;Node44 -->
<g id="edge72" class="edge"><title>Node43&#45;&gt;Node44</title>
<path fill="none" stroke="midnightblue" d="M824.612,-280.399C831.733,-271.753 840.883,-260.642 848.349,-251.576"/>
<polygon fill="midnightblue" stroke="midnightblue" points="851.215,-253.602 854.87,-243.658 845.811,-249.152 851.215,-253.602"/>
</g>
<!-- Node44&#45;&gt;Node2 -->
<g id="edge73" class="edge"><title>Node44&#45;&gt;Node2</title>
<path fill="none" stroke="midnightblue" d="M848.626,-224.195C837.303,-216.075 821.447,-203.029 812,-188 803.103,-173.847 798.228,-155.364 795.652,-141.727"/>
<polygon fill="midnightblue" stroke="midnightblue" points="799.065,-140.913 793.99,-131.613 792.158,-142.048 799.065,-140.913"/>
</g>
<!-- Node44&#45;&gt;Node11 -->
<g id="edge75" class="edge"><title>Node44&#45;&gt;Node11</title>
<path fill="none" stroke="midnightblue" d="M904.504,-227.05C1031.92,-208.889 1421.78,-150.947 1752.24,-75.988"/>
<polygon fill="midnightblue" stroke="midnightblue" points="1753.03,-79.3987 1762,-73.7653 1751.47,-72.5734 1753.03,-79.3987"/>
</g>
<!-- Node44&#45;&gt;Node37 -->
<g id="edge74" class="edge"><title>Node44&#45;&gt;Node37</title>
<path fill="none" stroke="midnightblue" d="M865.137,-224.083C867.683,-216.849 871.356,-206.409 874.527,-197.397"/>
<polygon fill="midnightblue" stroke="midnightblue" points="877.903,-198.346 877.921,-187.751 871.3,-196.023 877.903,-198.346"/>
</g>
</g>
</svg>
        <g id="navigator" transform="translate(0 0)" fill="#404254">
                <rect fill="#f2f5e9" fill-opacity="0.5" stroke="#606060" stroke-width=".5" x="0" y="0" width="60" height="60"/>
                <use id="zoomplus" xlink:href="#zoomPlus" x="17" y="9" onmousedown="handleZoom(evt,'in')"/>
                <use id="zoomminus" xlink:href="#zoomMin" x="42" y="9" onmousedown="handleZoom(evt,'out')"/>
                <use id="reset" xlink:href="#resetDef" x="30" y="36" onmousedown="handleReset()"/>
                <g id="arrowUp" xlink:href="#dirArrow" transform="translate(30 24)" onmousedown="handlePan(0,-1)">
                  <use xlink:href="#rim" fill="#404040">
                        <set attributeName="fill" to="#808080" begin="arrowUp.mouseover" end="arrowUp.mouseout"/>
                  </use>
                  <path fill="none" stroke="white" stroke-width="1.5" d="M0,-3.0v7 M-2.5,-0.5L0,-3.0L2.5,-0.5"/>
                </g>
                <g id="arrowRight" xlink:href="#dirArrow" transform="rotate(90) translate(36 -43)" onmousedown="handlePan(1,0)">
                  <use xlink:href="#rim" fill="#404040">
                        <set attributeName="fill" to="#808080" begin="arrowRight.mouseover" end="arrowRight.mouseout"/>
                  </use>
                  <path fill="none" stroke="white" stroke-width="1.5" d="M0,-3.0v7 M-2.5,-0.5L0,-3.0L2.5,-0.5"/>
                </g>
                <g id="arrowDown" xlink:href="#dirArrow" transform="rotate(180) translate(-30 -48)" onmousedown="handlePan(0,1)">
                  <use xlink:href="#rim" fill="#404040">
                        <set attributeName="fill" to="#808080" begin="arrowDown.mouseover" end="arrowDown.mouseout"/>
                  </use>
                  <path fill="none" stroke="white" stroke-width="1.5" d="M0,-3.0v7 M-2.5,-0.5L0,-3.0L2.5,-0.5"/>
                </g>
                <g id="arrowLeft" xlink:href="#dirArrow" transform="rotate(270) translate(-36 17)" onmousedown="handlePan(-1,0)">
                  <use xlink:href="#rim" fill="#404040">
                        <set attributeName="fill" to="#808080" begin="arrowLeft.mouseover" end="arrowLeft.mouseout"/>
                  </use>
                  <path fill="none" stroke="white" stroke-width="1.5" d="M0,-3.0v7 M-2.5,-0.5L0,-3.0L2.5,-0.5"/>
                </g>
        </g>
        <svg viewBox="0 0 15 15" width="100%" height="30px" preserveAspectRatio="xMaxYMin meet">
         <g id="arrow_out" transform="scale(0.3 0.3)">
          <a xlink:href="gs232b__lib_8cpp__incl_org.svg" target="_base">
           <rect id="button" ry="5" rx="5" y="6" x="6" height="38" width="38"
                fill="#f2f5e9" fill-opacity="0.5" stroke="#606060" stroke-width="1.0"/>
           <path id="arrow"
             d="M 11.500037,31.436501 C 11.940474,20.09759 22.043105,11.32322 32.158766,21.979434 L 37.068811,17.246167 C 37.068811,17.246167 37.088388,32 37.088388,32 L 22.160133,31.978069 C 22.160133,31.978069 26.997745,27.140456 26.997745,27.140456 C 18.528582,18.264221 13.291696,25.230495 11.500037,31.436501 z"
             style="fill:#404040;"/>
          </a>
         </g>
        </svg>
</svg>
