<?xml version="1.0" encoding="UTF-8" standalone="no"?>
<!DOCTYPE svg PUBLIC "-//W3C//DTD SVG 1.1//EN"
 "http://www.w3.org/Graphics/SVG/1.1/DTD/svg11.dtd">
<!-- Generated by graphviz version 2.38.0 (20140413.2041)
 -->
<!-- Title: gzguts.h Pages: 1 -->
<svg width="338pt" height="84pt"
 viewBox="0.00 0.00 338.00 84.00" xmlns="http://www.w3.org/2000/svg" xmlns:xlink="http://www.w3.org/1999/xlink">
<g id="graph0" class="graph" transform="scale(1 1) rotate(0) translate(4 80)">
<title>gzguts.h</title>
<polygon fill="white" stroke="none" points="-4,4 -4,-80 334,-80 334,4 -4,4"/>
<!-- Node1 -->
<g id="node1" class="node"><title>Node1</title>
<polygon fill="#bfbfbf" stroke="black" points="140.5,-56.5 140.5,-75.5 194.5,-75.5 194.5,-56.5 140.5,-56.5"/>
<text text-anchor="middle" x="167.5" y="-63.5" font-family="Helvetica,sans-Serif" font-size="10.00">gzguts.h</text>
</g>
<!-- Node2 -->
<g id="node2" class="node"><title>Node2</title>
<g id="a_node2"><a xlink:href="gzclose_8c.html" target="_top" xlink:title="gzclose.c">
<polygon fill="white" stroke="black" points="0,-0.5 0,-19.5 59,-19.5 59,-0.5 0,-0.5"/>
<text text-anchor="middle" x="29.5" y="-7.5" font-family="Helvetica,sans-Serif" font-size="10.00">gzclose.c</text>
</a>
</g>
</g>
<!-- Node1&#45;&gt;Node2 -->
<g id="edge1" class="edge"><title>Node1&#45;&gt;Node2</title>
<path fill="none" stroke="midnightblue" d="M136.251,-52.772C110.329,-42.6287 74.1375,-28.4669 51.2642,-19.5164"/>
<polygon fill="midnightblue" stroke="midnightblue" points="135.046,-56.0588 145.633,-56.4435 137.596,-49.5401 135.046,-56.0588"/>
</g>
<!-- Node3 -->
<g id="node3" class="node"><title>Node3</title>
<g id="a_node3"><a xlink:href="gzlib_8c.html" target="_top" xlink:title="gzlib.c">
<polygon fill="white" stroke="black" points="77,-0.5 77,-19.5 122,-19.5 122,-0.5 77,-0.5"/>
<text text-anchor="middle" x="99.5" y="-7.5" font-family="Helvetica,sans-Serif" font-size="10.00">gzlib.c</text>
</a>
</g>
</g>
<!-- Node1&#45;&gt;Node3 -->
<g id="edge2" class="edge"><title>Node1&#45;&gt;Node3</title>
<path fill="none" stroke="midnightblue" d="M148.738,-50.1008C136.5,-40.3824 120.941,-28.0269 110.624,-19.8339"/>
<polygon fill="midnightblue" stroke="midnightblue" points="146.567,-52.846 156.575,-56.324 150.92,-47.3642 146.567,-52.846"/>
</g>
<!-- Node4 -->
<g id="node4" class="node"><title>Node4</title>
<g id="a_node4"><a xlink:href="gzread_8c.html" target="_top" xlink:title="gzread.c">
<polygon fill="white" stroke="black" points="140.5,-0.5 140.5,-19.5 194.5,-19.5 194.5,-0.5 140.5,-0.5"/>
<text text-anchor="middle" x="167.5" y="-7.5" font-family="Helvetica,sans-Serif" font-size="10.00">gzread.c</text>
</a>
</g>
</g>
<!-- Node1&#45;&gt;Node4 -->
<g id="edge3" class="edge"><title>Node1&#45;&gt;Node4</title>
<path fill="none" stroke="midnightblue" d="M167.5,-45.8045C167.5,-36.9102 167.5,-26.7798 167.5,-19.7511"/>
<polygon fill="midnightblue" stroke="midnightblue" points="164,-46.083 167.5,-56.083 171,-46.083 164,-46.083"/>
</g>
<!-- Node5 -->
<g id="node5" class="node"><title>Node5</title>
<g id="a_node5"><a xlink:href="gzwrite_8c.html" target="_top" xlink:title="gzwrite.c">
<polygon fill="white" stroke="black" points="212.5,-0.5 212.5,-19.5 268.5,-19.5 268.5,-0.5 212.5,-0.5"/>
<text text-anchor="middle" x="240.5" y="-7.5" font-family="Helvetica,sans-Serif" font-size="10.00">gzwrite.c</text>
</a>
</g>
</g>
<!-- Node1&#45;&gt;Node5 -->
<g id="edge4" class="edge"><title>Node1&#45;&gt;Node5</title>
<path fill="none" stroke="midnightblue" d="M187.642,-50.1008C200.779,-40.3824 217.482,-28.0269 228.558,-19.8339"/>
<polygon fill="midnightblue" stroke="midnightblue" points="185.187,-47.5631 179.229,-56.324 189.35,-53.1907 185.187,-47.5631"/>
</g>
<!-- Node6 -->
<g id="node6" class="node"><title>Node6</title>
<g id="a_node6"><a xlink:href="zutil_8c.html" target="_top" xlink:title="zutil.c">
<polygon fill="white" stroke="black" points="287,-0.5 287,-19.5 330,-19.5 330,-0.5 287,-0.5"/>
<text text-anchor="middle" x="308.5" y="-7.5" font-family="Helvetica,sans-Serif" font-size="10.00">zutil.c</text>
</a>
</g>
</g>
<!-- Node1&#45;&gt;Node6 -->
<g id="edge5" class="edge"><title>Node1&#45;&gt;Node6</title>
<path fill="none" stroke="midnightblue" d="M199.488,-52.7491C226.145,-42.5401 263.401,-28.2721 286.726,-19.339"/>
<polygon fill="midnightblue" stroke="midnightblue" points="197.929,-49.5985 189.842,-56.4435 200.432,-56.1355 197.929,-49.5985"/>
</g>
</g>
</svg>
