<?xml version="1.0" encoding="UTF-8" standalone="no"?>
<!DOCTYPE svg PUBLIC "-//W3C//DTD SVG 1.1//EN"
 "http://www.w3.org/Graphics/SVG/1.1/DTD/svg11.dtd">
<!-- Generated by graphviz version 2.38.0 (20140413.2041)
 -->
<!-- Title: i2c.h Pages: 1 -->
<!--zoomable 207 -->
<svg id="main" version="1.1" xmlns="http://www.w3.org/2000/svg" xmlns:xlink="http://www.w3.org/1999/xlink" xml:space="preserve" onload="init(evt)">
<style type="text/css"><![CDATA[
.edge:hover path { stroke: red; }
.edge:hover polygon { stroke: red; fill: red; }
]]></style>
<script type="text/javascript"><![CDATA[
var edges = document.getElementsByTagName('g');
if (edges && edges.length) {
  for (var i=0;i<edges.length;i++) {
    if (edges[i].id.substr(0,4)=='edge') {
      edges[i].setAttribute('class','edge');
    }
  }
}
]]></script>
        <defs>
                <circle id="rim" cx="0" cy="0" r="7"/>
                <circle id="rim2" cx="0" cy="0" r="3.5"/>
                <g id="zoomPlus">
                        <use xlink:href="#rim" fill="#404040">
                                <set attributeName="fill" to="#808080" begin="zoomplus.mouseover" end="zoomplus.mouseout"/>
                        </use>
                        <path d="M-4,0h8M0,-4v8" fill="none" stroke="white" stroke-width="1.5" pointer-events="none"/>
                </g>
                <g id="zoomMin">
                        <use xlink:href="#rim" fill="#404040">
                                <set attributeName="fill" to="#808080" begin="zoomminus.mouseover" end="zoomminus.mouseout"/>
                        </use>
                        <path d="M-4,0h8" fill="none" stroke="white" stroke-width="1.5" pointer-events="none"/>
                </g>
                <g id="dirArrow">
                        <path fill="none" stroke="white" stroke-width="1.5" d="M0,-3.0v7 M-2.5,-0.5L0,-3.0L2.5,-0.5"/>
                </g>
               <g id="resetDef">
                       <use xlink:href="#rim2" fill="#404040">
                               <set attributeName="fill" to="#808080" begin="reset.mouseover" end="reset.mouseout"/>
                       </use>
               </g>
        </defs>

<script type="text/javascript">
var viewWidth = 1763;
var viewHeight = 207;
var sectionId = 'dynsection-0';
</script>
<script xlink:href="svgpan.js"/>
<svg id="graph" class="graph">
<g id="viewport">
<title>i2c.h</title>
<polygon fill="white" stroke="none" points="-4,4 -4,-203 1759,-203 1759,4 -4,4"/>
<!-- Node1 -->
<g id="node1" class="node"><title>Node1</title>
<polygon fill="#bfbfbf" stroke="black" points="981.5,-179.5 981.5,-198.5 1019.5,-198.5 1019.5,-179.5 981.5,-179.5"/>
<text text-anchor="middle" x="1000.5" y="-186.5" font-family="Helvetica,sans-Serif" font-size="10.00">i2c.h</text>
</g>
<!-- Node2 -->
<g id="node2" class="node"><title>Node2</title>
<g id="a_node2"><a xlink:href="config_cosmos_8h.html" target="_top" xlink:title="Headers and definitions common to all COSMOS. ">
<polygon fill="white" stroke="black" points="876,-118 876,-137 999,-137 999,-118 876,-118"/>
<text text-anchor="middle" x="937.5" y="-125" font-family="Helvetica,sans-Serif" font-size="10.00">support/configCosmos.h</text>
</a>
</g>
</g>
<!-- Node1&#45;&gt;Node2 -->
<g id="edge1" class="edge"><title>Node1&#45;&gt;Node2</title>
<path fill="none" stroke="midnightblue" d="M991.474,-179.475C981.743,-170.285 966.042,-155.456 954.077,-144.156"/>
<polygon fill="midnightblue" stroke="midnightblue" points="956.183,-141.331 946.51,-137.009 951.377,-146.42 956.183,-141.331"/>
</g>
<!-- Node35 -->
<g id="node35" class="node"><title>Node35</title>
<g id="a_node35"><a xlink:href="i2c-dev-smbus_8h.html" target="_top" xlink:title="device/i2c/i2c&#45;dev\l&#45;smbus.h">
<polygon fill="white" stroke="black" points="1017,-112.5 1017,-142.5 1112,-142.5 1112,-112.5 1017,-112.5"/>
<text text-anchor="start" x="1025" y="-130.5" font-family="Helvetica,sans-Serif" font-size="10.00">device/i2c/i2c&#45;dev</text>
<text text-anchor="middle" x="1064.5" y="-119.5" font-family="Helvetica,sans-Serif" font-size="10.00">&#45;smbus.h</text>
</a>
</g>
</g>
<!-- Node1&#45;&gt;Node35 -->
<g id="edge43" class="edge"><title>Node1&#45;&gt;Node35</title>
<path fill="none" stroke="midnightblue" d="M1009.67,-179.475C1018.09,-171.643 1030.92,-159.714 1042.06,-149.366"/>
<polygon fill="midnightblue" stroke="midnightblue" points="1044.48,-151.895 1049.42,-142.523 1039.71,-146.769 1044.48,-151.895"/>
</g>
<!-- Node3 -->
<g id="node3" class="node"><title>Node3</title>
<polygon fill="white" stroke="#bfbfbf" points="0,-56.5 0,-75.5 45,-75.5 45,-56.5 0,-56.5"/>
<text text-anchor="middle" x="22.5" y="-63.5" font-family="Helvetica,sans-Serif" font-size="10.00">climits</text>
</g>
<!-- Node2&#45;&gt;Node3 -->
<g id="edge2" class="edge"><title>Node2&#45;&gt;Node3</title>
<path fill="none" stroke="midnightblue" d="M875.996,-124.791C705.897,-119.784 230.679,-103.82 54.9409,-75.8281"/>
<polygon fill="midnightblue" stroke="midnightblue" points="55.4878,-72.371 45.0493,-74.1843 54.3402,-79.2763 55.4878,-72.371"/>
</g>
<!-- Node4 -->
<g id="node4" class="node"><title>Node4</title>
<polygon fill="white" stroke="#bfbfbf" points="63,-56.5 63,-75.5 110,-75.5 110,-56.5 63,-56.5"/>
<text text-anchor="middle" x="86.5" y="-63.5" font-family="Helvetica,sans-Serif" font-size="10.00">csignal</text>
</g>
<!-- Node2&#45;&gt;Node4 -->
<g id="edge3" class="edge"><title>Node2&#45;&gt;Node4</title>
<path fill="none" stroke="midnightblue" d="M875.963,-126.977C740.642,-127.106 407.137,-122.386 120.347,-75.7533"/>
<polygon fill="midnightblue" stroke="midnightblue" points="120.6,-72.248 110.165,-74.0767 119.463,-79.155 120.6,-72.248"/>
</g>
<!-- Node5 -->
<g id="node5" class="node"><title>Node5</title>
<polygon fill="white" stroke="#bfbfbf" points="128.5,-56.5 128.5,-75.5 174.5,-75.5 174.5,-56.5 128.5,-56.5"/>
<text text-anchor="middle" x="151.5" y="-63.5" font-family="Helvetica,sans-Serif" font-size="10.00">cstdint</text>
</g>
<!-- Node2&#45;&gt;Node5 -->
<g id="edge4" class="edge"><title>Node2&#45;&gt;Node5</title>
<path fill="none" stroke="midnightblue" d="M875.907,-126.676C748.263,-126.113 445.695,-119.963 184.832,-75.8726"/>
<polygon fill="midnightblue" stroke="midnightblue" points="185.238,-72.3912 174.791,-74.1529 184.056,-79.2907 185.238,-72.3912"/>
</g>
<!-- Node6 -->
<g id="node6" class="node"><title>Node6</title>
<polygon fill="white" stroke="#bfbfbf" points="192.5,-56.5 192.5,-75.5 248.5,-75.5 248.5,-56.5 192.5,-56.5"/>
<text text-anchor="middle" x="220.5" y="-63.5" font-family="Helvetica,sans-Serif" font-size="10.00">cinttypes</text>
</g>
<!-- Node2&#45;&gt;Node6 -->
<g id="edge5" class="edge"><title>Node2&#45;&gt;Node6</title>
<path fill="none" stroke="midnightblue" d="M875.803,-125.176C756.099,-121.889 484.254,-110.904 258.5,-76 258.399,-75.9845 258.299,-75.9688 258.198,-75.953"/>
<polygon fill="midnightblue" stroke="midnightblue" points="259.093,-72.5592 248.624,-74.1847 257.822,-79.4428 259.093,-72.5592"/>
</g>
<!-- Node7 -->
<g id="node7" class="node"><title>Node7</title>
<polygon fill="white" stroke="#bfbfbf" points="267,-56.5 267,-75.5 310,-75.5 310,-56.5 267,-56.5"/>
<text text-anchor="middle" x="288.5" y="-63.5" font-family="Helvetica,sans-Serif" font-size="10.00">cstdio</text>
</g>
<!-- Node2&#45;&gt;Node7 -->
<g id="edge6" class="edge"><title>Node2&#45;&gt;Node7</title>
<path fill="none" stroke="midnightblue" d="M875.56,-125.545C765.389,-122.952 528.215,-113.336 319.943,-75.6709"/>
<polygon fill="midnightblue" stroke="midnightblue" points="320.515,-72.2176 310.047,-73.8561 319.252,-79.1027 320.515,-72.2176"/>
</g>
<!-- Node8 -->
<g id="node8" class="node"><title>Node8</title>
<polygon fill="white" stroke="#bfbfbf" points="328,-56.5 328,-75.5 377,-75.5 377,-56.5 328,-56.5"/>
<text text-anchor="middle" x="352.5" y="-63.5" font-family="Helvetica,sans-Serif" font-size="10.00">cstddef</text>
</g>
<!-- Node2&#45;&gt;Node8 -->
<g id="edge7" class="edge"><title>Node2&#45;&gt;Node8</title>
<path fill="none" stroke="midnightblue" d="M875.902,-124.219C775.435,-119.761 570.035,-107.574 387.336,-75.8425"/>
<polygon fill="midnightblue" stroke="midnightblue" points="387.731,-72.3582 377.276,-74.0711 386.517,-79.2522 387.731,-72.3582"/>
</g>
<!-- Node9 -->
<g id="node9" class="node"><title>Node9</title>
<polygon fill="white" stroke="#bfbfbf" points="395,-56.5 395,-75.5 440,-75.5 440,-56.5 395,-56.5"/>
<text text-anchor="middle" x="417.5" y="-63.5" font-family="Helvetica,sans-Serif" font-size="10.00">cstdlib</text>
</g>
<!-- Node2&#45;&gt;Node9 -->
<g id="edge8" class="edge"><title>Node2&#45;&gt;Node9</title>
<path fill="none" stroke="midnightblue" d="M875.764,-123.502C784.587,-118.329 608.549,-105.491 450.043,-75.7654"/>
<polygon fill="midnightblue" stroke="midnightblue" points="450.589,-72.3066 440.111,-73.876 449.281,-79.1832 450.589,-72.3066"/>
</g>
<!-- Node10 -->
<g id="node10" class="node"><title>Node10</title>
<polygon fill="white" stroke="#bfbfbf" points="458.5,-56.5 458.5,-75.5 502.5,-75.5 502.5,-56.5 458.5,-56.5"/>
<text text-anchor="middle" x="480.5" y="-63.5" font-family="Helvetica,sans-Serif" font-size="10.00">cerrno</text>
</g>
<!-- Node2&#45;&gt;Node10 -->
<g id="edge9" class="edge"><title>Node2&#45;&gt;Node10</title>
<path fill="none" stroke="midnightblue" d="M875.976,-122.4C794.736,-116.28 647.201,-102.723 512.806,-75.9661"/>
<polygon fill="midnightblue" stroke="midnightblue" points="513.237,-72.4825 502.742,-73.9324 511.85,-79.3439 513.237,-72.4825"/>
</g>
<!-- Node11 -->
<g id="node11" class="node"><title>Node11</title>
<polygon fill="white" stroke="#bfbfbf" points="520.5,-56.5 520.5,-75.5 566.5,-75.5 566.5,-56.5 520.5,-56.5"/>
<text text-anchor="middle" x="543.5" y="-63.5" font-family="Helvetica,sans-Serif" font-size="10.00">cstring</text>
</g>
<!-- Node2&#45;&gt;Node11 -->
<g id="edge10" class="edge"><title>Node2&#45;&gt;Node11</title>
<path fill="none" stroke="midnightblue" d="M875.894,-120.479C805.624,-113.037 687.191,-98.7475 576.8,-76.035"/>
<polygon fill="midnightblue" stroke="midnightblue" points="577.332,-72.5708 566.828,-73.9555 575.903,-79.4233 577.332,-72.5708"/>
</g>
<!-- Node12 -->
<g id="node12" class="node"><title>Node12</title>
<polygon fill="white" stroke="#bfbfbf" points="584.5,-56.5 584.5,-75.5 628.5,-75.5 628.5,-56.5 584.5,-56.5"/>
<text text-anchor="middle" x="606.5" y="-63.5" font-family="Helvetica,sans-Serif" font-size="10.00">cmath</text>
</g>
<!-- Node2&#45;&gt;Node12 -->
<g id="edge11" class="edge"><title>Node2&#45;&gt;Node12</title>
<path fill="none" stroke="midnightblue" d="M875.853,-118.054C817.328,-109.592 726.753,-95.3462 638.693,-75.819"/>
<polygon fill="midnightblue" stroke="midnightblue" points="639.326,-72.374 628.802,-73.6007 637.794,-79.2044 639.326,-72.374"/>
</g>
<!-- Node13 -->
<g id="node13" class="node"><title>Node13</title>
<polygon fill="white" stroke="#bfbfbf" points="647,-56.5 647,-75.5 692,-75.5 692,-56.5 647,-56.5"/>
<text text-anchor="middle" x="669.5" y="-63.5" font-family="Helvetica,sans-Serif" font-size="10.00">iosfwd</text>
</g>
<!-- Node2&#45;&gt;Node13 -->
<g id="edge12" class="edge"><title>Node2&#45;&gt;Node13</title>
<path fill="none" stroke="midnightblue" d="M893.378,-117.928C847.866,-108.892 774.634,-93.8154 701.961,-75.9875"/>
<polygon fill="midnightblue" stroke="midnightblue" points="702.726,-72.5714 692.179,-73.5699 701.047,-79.3669 702.726,-72.5714"/>
</g>
<!-- Node14 -->
<g id="node14" class="node"><title>Node14</title>
<polygon fill="white" stroke="#bfbfbf" points="710.5,-56.5 710.5,-75.5 764.5,-75.5 764.5,-56.5 710.5,-56.5"/>
<text text-anchor="middle" x="737.5" y="-63.5" font-family="Helvetica,sans-Serif" font-size="10.00">iostream</text>
</g>
<!-- Node2&#45;&gt;Node14 -->
<g id="edge13" class="edge"><title>Node2&#45;&gt;Node14</title>
<path fill="none" stroke="midnightblue" d="M908.845,-117.975C873.448,-107.445 813.166,-89.5107 774.357,-77.965"/>
<polygon fill="midnightblue" stroke="midnightblue" points="775.083,-74.5295 764.5,-75.0326 773.087,-81.2389 775.083,-74.5295"/>
</g>
<!-- Node15 -->
<g id="node15" class="node"><title>Node15</title>
<polygon fill="white" stroke="#bfbfbf" points="782.5,-56.5 782.5,-75.5 834.5,-75.5 834.5,-56.5 782.5,-56.5"/>
<text text-anchor="middle" x="808.5" y="-63.5" font-family="Helvetica,sans-Serif" font-size="10.00">sstream</text>
</g>
<!-- Node2&#45;&gt;Node15 -->
<g id="edge14" class="edge"><title>Node2&#45;&gt;Node15</title>
<path fill="none" stroke="midnightblue" d="M919.017,-117.975C897.368,-107.99 861.287,-91.3476 836.268,-79.8075"/>
<polygon fill="midnightblue" stroke="midnightblue" points="837.495,-76.5193 826.948,-75.5091 834.563,-82.8757 837.495,-76.5193"/>
</g>
<!-- Node16 -->
<g id="node16" class="node"><title>Node16</title>
<polygon fill="white" stroke="#bfbfbf" points="853,-56.5 853,-75.5 894,-75.5 894,-56.5 853,-56.5"/>
<text text-anchor="middle" x="873.5" y="-63.5" font-family="Helvetica,sans-Serif" font-size="10.00">regex</text>
</g>
<!-- Node2&#45;&gt;Node16 -->
<g id="edge15" class="edge"><title>Node2&#45;&gt;Node16</title>
<path fill="none" stroke="midnightblue" d="M928.33,-117.975C918.35,-108.697 902.188,-93.6706 889.991,-82.331"/>
<polygon fill="midnightblue" stroke="midnightblue" points="892.36,-79.7547 882.653,-75.5091 887.593,-84.8814 892.36,-79.7547"/>
</g>
<!-- Node17 -->
<g id="node17" class="node"><title>Node17</title>
<polygon fill="white" stroke="#bfbfbf" points="912.5,-56.5 912.5,-75.5 962.5,-75.5 962.5,-56.5 912.5,-56.5"/>
<text text-anchor="middle" x="937.5" y="-63.5" font-family="Helvetica,sans-Serif" font-size="10.00">iomanip</text>
</g>
<!-- Node2&#45;&gt;Node17 -->
<g id="edge16" class="edge"><title>Node2&#45;&gt;Node17</title>
<path fill="none" stroke="midnightblue" d="M937.5,-117.975C937.5,-109.58 937.5,-96.4806 937.5,-85.6631"/>
<polygon fill="midnightblue" stroke="midnightblue" points="941,-85.5091 937.5,-75.5091 934,-85.5091 941,-85.5091"/>
</g>
<!-- Node18 -->
<g id="node18" class="node"><title>Node18</title>
<polygon fill="white" stroke="#bfbfbf" points="981,-56.5 981,-75.5 1032,-75.5 1032,-56.5 981,-56.5"/>
<text text-anchor="middle" x="1006.5" y="-63.5" font-family="Helvetica,sans-Serif" font-size="10.00">unistd.h</text>
</g>
<!-- Node2&#45;&gt;Node18 -->
<g id="edge17" class="edge"><title>Node2&#45;&gt;Node18</title>
<path fill="none" stroke="midnightblue" d="M947.386,-117.975C958.146,-108.697 975.571,-93.6706 988.721,-82.331"/>
<polygon fill="midnightblue" stroke="midnightblue" points="991.345,-84.6902 996.632,-75.5091 986.773,-79.389 991.345,-84.6902"/>
</g>
<!-- Node19 -->
<g id="node19" class="node"><title>Node19</title>
<polygon fill="white" stroke="#bfbfbf" points="1050.5,-56.5 1050.5,-75.5 1094.5,-75.5 1094.5,-56.5 1050.5,-56.5"/>
<text text-anchor="middle" x="1072.5" y="-63.5" font-family="Helvetica,sans-Serif" font-size="10.00">fcntl.h</text>
</g>
<!-- Node2&#45;&gt;Node19 -->
<g id="edge18" class="edge"><title>Node2&#45;&gt;Node19</title>
<path fill="none" stroke="midnightblue" d="M956.842,-117.975C979.599,-107.945 1017.59,-91.2002 1043.79,-79.6546"/>
<polygon fill="midnightblue" stroke="midnightblue" points="1045.45,-82.7449 1053.19,-75.5091 1042.63,-76.3395 1045.45,-82.7449"/>
</g>
<!-- Node20 -->
<g id="node20" class="node"><title>Node20</title>
<polygon fill="white" stroke="#bfbfbf" points="1112.5,-56.5 1112.5,-75.5 1152.5,-75.5 1152.5,-56.5 1112.5,-56.5"/>
<text text-anchor="middle" x="1132.5" y="-63.5" font-family="Helvetica,sans-Serif" font-size="10.00">limits</text>
</g>
<!-- Node2&#45;&gt;Node20 -->
<g id="edge19" class="edge"><title>Node2&#45;&gt;Node20</title>
<path fill="none" stroke="midnightblue" d="M965.712,-117.97C996.88,-108.535 1048.81,-92.7794 1102.53,-76.2863"/>
<polygon fill="midnightblue" stroke="midnightblue" points="1103.69,-79.5914 1112.22,-73.3087 1101.64,-72.9001 1103.69,-79.5914"/>
</g>
<!-- Node21 -->
<g id="node21" class="node"><title>Node21</title>
<polygon fill="white" stroke="#bfbfbf" points="1714,-0.5 1714,-19.5 1755,-19.5 1755,-0.5 1714,-0.5"/>
<text text-anchor="middle" x="1734.5" y="-7.5" font-family="Helvetica,sans-Serif" font-size="10.00">string</text>
</g>
<!-- Node2&#45;&gt;Node21 -->
<g id="edge20" class="edge"><title>Node2&#45;&gt;Node21</title>
<path fill="none" stroke="midnightblue" d="M974.184,-117.98C985.166,-115.708 997.274,-113.477 1008.5,-112 1272.04,-77.3194 1349.11,-146.143 1605.5,-76 1624.29,-70.8598 1627.12,-64.8003 1644.5,-56 1665.8,-45.2125 1690.01,-33.1157 1707.96,-24.1832"/>
<polygon fill="midnightblue" stroke="midnightblue" points="1709.83,-27.1623 1717.22,-19.5746 1706.71,-20.895 1709.83,-27.1623"/>
</g>
<!-- Node22 -->
<g id="node22" class="node"><title>Node22</title>
<polygon fill="white" stroke="#bfbfbf" points="1436.5,-0.5 1436.5,-19.5 1480.5,-19.5 1480.5,-0.5 1436.5,-0.5"/>
<text text-anchor="middle" x="1458.5" y="-7.5" font-family="Helvetica,sans-Serif" font-size="10.00">vector</text>
</g>
<!-- Node2&#45;&gt;Node22 -->
<g id="edge21" class="edge"><title>Node2&#45;&gt;Node22</title>
<path fill="none" stroke="midnightblue" d="M975.311,-117.935C985.998,-115.744 997.667,-113.567 1008.5,-112 1100.77,-98.65 1349.53,-128.614 1426.5,-76 1442.04,-65.376 1450.35,-44.9563 1454.57,-29.8267"/>
<polygon fill="midnightblue" stroke="midnightblue" points="1458.01,-30.504 1456.96,-19.9606 1451.2,-28.8528 1458.01,-30.504"/>
</g>
<!-- Node23 -->
<g id="node23" class="node"><title>Node23</title>
<polygon fill="white" stroke="#bfbfbf" points="1653,-56.5 1653,-75.5 1694,-75.5 1694,-56.5 1653,-56.5"/>
<text text-anchor="middle" x="1673.5" y="-63.5" font-family="Helvetica,sans-Serif" font-size="10.00">stack</text>
</g>
<!-- Node2&#45;&gt;Node23 -->
<g id="edge22" class="edge"><title>Node2&#45;&gt;Node23</title>
<path fill="none" stroke="midnightblue" d="M974.181,-117.957C985.163,-115.685 997.272,-113.46 1008.5,-112 1286.62,-75.8468 1361.38,-119.127 1638.5,-76 1639.97,-75.7709 1641.47,-75.5068 1642.98,-75.2162"/>
<polygon fill="midnightblue" stroke="midnightblue" points="1643.91,-78.5953 1652.91,-73.0038 1642.39,-71.7629 1643.91,-78.5953"/>
</g>
<!-- Node24 -->
<g id="node24" class="node"><title>Node24</title>
<polygon fill="white" stroke="#bfbfbf" points="1712,-56.5 1712,-75.5 1755,-75.5 1755,-56.5 1712,-56.5"/>
<text text-anchor="middle" x="1733.5" y="-63.5" font-family="Helvetica,sans-Serif" font-size="10.00">deque</text>
</g>
<!-- Node2&#45;&gt;Node24 -->
<g id="edge23" class="edge"><title>Node2&#45;&gt;Node24</title>
<path fill="none" stroke="midnightblue" d="M973.81,-117.996C984.889,-115.696 997.143,-113.446 1008.5,-112 1312.03,-73.3652 1396.92,-127.628 1701.68,-75.9243"/>
<polygon fill="midnightblue" stroke="midnightblue" points="1702.43,-79.3477 1711.69,-74.2023 1701.24,-72.4491 1702.43,-79.3477"/>
</g>
<!-- Node25 -->
<g id="node25" class="node"><title>Node25</title>
<polygon fill="white" stroke="#bfbfbf" points="1090.5,-0.5 1090.5,-19.5 1134.5,-19.5 1134.5,-0.5 1090.5,-0.5"/>
<text text-anchor="middle" x="1112.5" y="-7.5" font-family="Helvetica,sans-Serif" font-size="10.00">mutex</text>
</g>
<!-- Node2&#45;&gt;Node25 -->
<g id="edge24" class="edge"><title>Node2&#45;&gt;Node25</title>
<path fill="none" stroke="midnightblue" d="M978.193,-117.995C1041.98,-104.571 1158.61,-79.6145 1161.5,-76 1175.21,-58.8494 1154.23,-38.5707 1135.61,-25.2803"/>
<polygon fill="midnightblue" stroke="midnightblue" points="1137.34,-22.2244 1127.09,-19.532 1133.42,-28.0269 1137.34,-22.2244"/>
</g>
<!-- Node26 -->
<g id="node26" class="node"><title>Node26</title>
<polygon fill="white" stroke="#bfbfbf" points="1152.5,-0.5 1152.5,-19.5 1196.5,-19.5 1196.5,-0.5 1152.5,-0.5"/>
<text text-anchor="middle" x="1174.5" y="-7.5" font-family="Helvetica,sans-Serif" font-size="10.00">thread</text>
</g>
<!-- Node2&#45;&gt;Node26 -->
<g id="edge25" class="edge"><title>Node2&#45;&gt;Node26</title>
<path fill="none" stroke="midnightblue" d="M978.865,-117.966C1047.3,-103.822 1176.71,-76.9725 1177.5,-76 1187.94,-63.1382 1185.43,-43.6866 1181.39,-29.4132"/>
<polygon fill="midnightblue" stroke="midnightblue" points="1184.64,-28.1023 1178.19,-19.7025 1178,-30.2956 1184.64,-28.1023"/>
</g>
<!-- Node27 -->
<g id="node27" class="node"><title>Node27</title>
<polygon fill="white" stroke="#bfbfbf" points="1215,-0.5 1215,-19.5 1310,-19.5 1310,-0.5 1215,-0.5"/>
<text text-anchor="middle" x="1262.5" y="-7.5" font-family="Helvetica,sans-Serif" font-size="10.00">condition_variable</text>
</g>
<!-- Node2&#45;&gt;Node27 -->
<g id="edge26" class="edge"><title>Node2&#45;&gt;Node27</title>
<path fill="none" stroke="midnightblue" d="M978.784,-117.994C988.525,-116.008 998.875,-113.914 1008.5,-112 1091.08,-95.5757 1119.7,-114.659 1194.5,-76 1217.06,-64.3414 1237.3,-42.8671 1249.72,-27.8011"/>
<polygon fill="midnightblue" stroke="midnightblue" points="1252.6,-29.7998 1256.08,-19.7937 1247.12,-25.4439 1252.6,-29.7998"/>
</g>
<!-- Node28 -->
<g id="node28" class="node"><title>Node28</title>
<polygon fill="white" stroke="#bfbfbf" points="1375,-0.5 1375,-19.5 1418,-19.5 1418,-0.5 1375,-0.5"/>
<text text-anchor="middle" x="1396.5" y="-7.5" font-family="Helvetica,sans-Serif" font-size="10.00">queue</text>
</g>
<!-- Node2&#45;&gt;Node28 -->
<g id="edge27" class="edge"><title>Node2&#45;&gt;Node28</title>
<path fill="none" stroke="midnightblue" d="M975.314,-117.96C986.001,-115.77 997.67,-113.587 1008.5,-112 1052.76,-105.514 1379.32,-109.016 1409.5,-76 1421.11,-63.3021 1414.73,-43.2675 1407.41,-28.7957"/>
<polygon fill="midnightblue" stroke="midnightblue" points="1410.33,-26.8498 1402.4,-19.824 1404.22,-30.2617 1410.33,-26.8498"/>
</g>
<!-- Node29 -->
<g id="node29" class="node"><title>Node29</title>
<polygon fill="white" stroke="#bfbfbf" points="1499,-0.5 1499,-19.5 1534,-19.5 1534,-0.5 1499,-0.5"/>
<text text-anchor="middle" x="1516.5" y="-7.5" font-family="Helvetica,sans-Serif" font-size="10.00">map</text>
</g>
<!-- Node2&#45;&gt;Node29 -->
<g id="edge28" class="edge"><title>Node2&#45;&gt;Node29</title>
<path fill="none" stroke="midnightblue" d="M974.938,-117.98C985.725,-115.763 997.54,-113.562 1008.5,-112 1105.62,-98.1601 1359.01,-116.204 1448.5,-76 1471.91,-65.482 1492.21,-43.3817 1504.39,-27.8835"/>
<polygon fill="midnightblue" stroke="midnightblue" points="1507.36,-29.7518 1510.58,-19.6588 1501.77,-25.5395 1507.36,-29.7518"/>
</g>
<!-- Node30 -->
<g id="node30" class="node"><title>Node30</title>
<g id="a_node30"><a xlink:href="cosmos-defs_8h.html" target="_top" xlink:title="COSMOS definitions Definitions specific to the COSMOS environement. ">
<polygon fill="white" stroke="black" points="1284.5,-56.5 1284.5,-75.5 1400.5,-75.5 1400.5,-56.5 1284.5,-56.5"/>
<text text-anchor="middle" x="1342.5" y="-63.5" font-family="Helvetica,sans-Serif" font-size="10.00">support/cosmos&#45;defs.h</text>
</a>
</g>
</g>
<!-- Node2&#45;&gt;Node30 -->
<g id="edge29" class="edge"><title>Node2&#45;&gt;Node30</title>
<path fill="none" stroke="midnightblue" d="M976.844,-117.972C987.121,-115.88 998.204,-113.743 1008.5,-112 1058.13,-103.598 1191.94,-86.16 1274.35,-75.6293"/>
<polygon fill="midnightblue" stroke="midnightblue" points="1274.9,-79.0868 1284.38,-74.3488 1274.02,-72.1431 1274.9,-79.0868"/>
</g>
<!-- Node32 -->
<g id="node32" class="node"><title>Node32</title>
<g id="a_node32"><a xlink:href="json11_8hpp.html" target="_top" xlink:title="json11.hpp">
<polygon fill="white" stroke="black" points="1532.5,-56.5 1532.5,-75.5 1596.5,-75.5 1596.5,-56.5 1532.5,-56.5"/>
<text text-anchor="middle" x="1564.5" y="-63.5" font-family="Helvetica,sans-Serif" font-size="10.00">json11.hpp</text>
</a>
</g>
</g>
<!-- Node2&#45;&gt;Node32 -->
<g id="edge37" class="edge"><title>Node2&#45;&gt;Node32</title>
<path fill="none" stroke="midnightblue" d="M974.56,-117.977C985.445,-115.733 997.406,-113.518 1008.5,-112 1233.63,-81.2001 1293.24,-105.872 1518.5,-76 1519.77,-75.8315 1521.06,-75.6497 1522.36,-75.4568"/>
<polygon fill="midnightblue" stroke="midnightblue" points="1523.11,-78.8794 1532.41,-73.7995 1521.98,-71.9726 1523.11,-78.8794"/>
</g>
<!-- Node30&#45;&gt;Node22 -->
<g id="edge31" class="edge"><title>Node30&#45;&gt;Node22</title>
<path fill="none" stroke="midnightblue" d="M1360.88,-56.4435C1379.72,-47.6751 1409.23,-33.9355 1430.88,-23.8579"/>
<polygon fill="midnightblue" stroke="midnightblue" points="1432.62,-26.9098 1440.21,-19.5164 1429.66,-20.5637 1432.62,-26.9098"/>
</g>
<!-- Node30&#45;&gt;Node25 -->
<g id="edge35" class="edge"><title>Node30&#45;&gt;Node25</title>
<path fill="none" stroke="midnightblue" d="M1301.55,-56.4926C1263.32,-48.384 1204.48,-35.4763 1144.78,-20.2195"/>
<polygon fill="midnightblue" stroke="midnightblue" points="1145.36,-16.7554 1134.81,-17.6501 1143.62,-23.5341 1145.36,-16.7554"/>
</g>
<!-- Node30&#45;&gt;Node26 -->
<g id="edge34" class="edge"><title>Node30&#45;&gt;Node26</title>
<path fill="none" stroke="midnightblue" d="M1315.88,-56.4435C1286.16,-46.8902 1238.08,-31.436 1206.38,-21.2461"/>
<polygon fill="midnightblue" stroke="midnightblue" points="1207.29,-17.8649 1196.7,-18.1368 1205.15,-24.5291 1207.29,-17.8649"/>
</g>
<!-- Node30&#45;&gt;Node27 -->
<g id="edge36" class="edge"><title>Node30&#45;&gt;Node27</title>
<path fill="none" stroke="midnightblue" d="M1329.65,-56.324C1317.28,-47.979 1298.37,-35.2122 1283.76,-25.3524"/>
<polygon fill="midnightblue" stroke="midnightblue" points="1285.57,-22.3483 1275.32,-19.6545 1281.65,-28.1503 1285.57,-22.3483"/>
</g>
<!-- Node30&#45;&gt;Node28 -->
<g id="edge33" class="edge"><title>Node30&#45;&gt;Node28</title>
<path fill="none" stroke="midnightblue" d="M1351.42,-56.083C1359.28,-48.2195 1370.93,-36.5688 1380.42,-27.0813"/>
<polygon fill="midnightblue" stroke="midnightblue" points="1383.15,-29.2971 1387.75,-19.7511 1378.2,-24.3473 1383.15,-29.2971"/>
</g>
<!-- Node30&#45;&gt;Node29 -->
<g id="edge30" class="edge"><title>Node30&#45;&gt;Node29</title>
<path fill="none" stroke="midnightblue" d="M1371.02,-56.4967C1398.77,-48.1726 1442.36,-34.9676 1489.1,-20.0708"/>
<polygon fill="midnightblue" stroke="midnightblue" points="1490.34,-23.3483 1498.8,-16.9689 1488.21,-16.6809 1490.34,-23.3483"/>
</g>
<!-- Node31 -->
<g id="node31" class="node"><title>Node31</title>
<polygon fill="white" stroke="#bfbfbf" points="1328,-0.5 1328,-19.5 1357,-19.5 1357,-0.5 1328,-0.5"/>
<text text-anchor="middle" x="1342.5" y="-7.5" font-family="Helvetica,sans-Serif" font-size="10.00">list</text>
</g>
<!-- Node30&#45;&gt;Node31 -->
<g id="edge32" class="edge"><title>Node30&#45;&gt;Node31</title>
<path fill="none" stroke="midnightblue" d="M1342.5,-56.083C1342.5,-49.0059 1342.5,-38.8611 1342.5,-29.9865"/>
<polygon fill="midnightblue" stroke="midnightblue" points="1346,-29.751 1342.5,-19.7511 1339,-29.7511 1346,-29.751"/>
</g>
<!-- Node32&#45;&gt;Node21 -->
<g id="edge38" class="edge"><title>Node32&#45;&gt;Node21</title>
<path fill="none" stroke="midnightblue" d="M1591.44,-56.4435C1622.1,-46.7024 1672.08,-30.826 1704.12,-20.6512"/>
<polygon fill="midnightblue" stroke="midnightblue" points="1705.37,-23.9263 1713.84,-17.5631 1703.25,-17.2548 1705.37,-23.9263"/>
</g>
<!-- Node32&#45;&gt;Node22 -->
<g id="edge39" class="edge"><title>Node32&#45;&gt;Node22</title>
<path fill="none" stroke="midnightblue" d="M1547.47,-56.324C1530.47,-47.6641 1504.12,-34.2424 1484.51,-24.249"/>
<polygon fill="midnightblue" stroke="midnightblue" points="1485.99,-21.0752 1475.49,-19.6545 1482.81,-27.3125 1485.99,-21.0752"/>
</g>
<!-- Node32&#45;&gt;Node29 -->
<g id="edge40" class="edge"><title>Node32&#45;&gt;Node29</title>
<path fill="none" stroke="midnightblue" d="M1556.57,-56.083C1549.65,-48.2982 1539.43,-36.8015 1531.05,-27.3665"/>
<polygon fill="midnightblue" stroke="midnightblue" points="1533.54,-24.8999 1524.28,-19.7511 1528.31,-29.5505 1533.54,-24.8999"/>
</g>
<!-- Node33 -->
<g id="node33" class="node"><title>Node33</title>
<polygon fill="white" stroke="#bfbfbf" points="1552.5,-0.5 1552.5,-19.5 1604.5,-19.5 1604.5,-0.5 1552.5,-0.5"/>
<text text-anchor="middle" x="1578.5" y="-7.5" font-family="Helvetica,sans-Serif" font-size="10.00">memory</text>
</g>
<!-- Node32&#45;&gt;Node33 -->
<g id="edge41" class="edge"><title>Node32&#45;&gt;Node33</title>
<path fill="none" stroke="midnightblue" d="M1566.81,-56.083C1568.67,-48.9272 1571.34,-38.6353 1573.65,-29.6911"/>
<polygon fill="midnightblue" stroke="midnightblue" points="1577.11,-30.3094 1576.23,-19.7511 1570.33,-28.5527 1577.11,-30.3094"/>
</g>
<!-- Node34 -->
<g id="node34" class="node"><title>Node34</title>
<polygon fill="white" stroke="#bfbfbf" points="1623,-0.5 1623,-19.5 1696,-19.5 1696,-0.5 1623,-0.5"/>
<text text-anchor="middle" x="1659.5" y="-7.5" font-family="Helvetica,sans-Serif" font-size="10.00">initializer_list</text>
</g>
<!-- Node32&#45;&gt;Node34 -->
<g id="edge42" class="edge"><title>Node32&#45;&gt;Node34</title>
<path fill="none" stroke="midnightblue" d="M1579.76,-56.324C1594.72,-47.8215 1617.75,-34.7288 1635.23,-24.7975"/>
<polygon fill="midnightblue" stroke="midnightblue" points="1637.31,-27.639 1644.27,-19.6545 1633.85,-21.5534 1637.31,-27.639"/>
</g>
</g>
</svg>
        <g id="navigator" transform="translate(0 0)" fill="#404254">
                <rect fill="#f2f5e9" fill-opacity="0.5" stroke="#606060" stroke-width=".5" x="0" y="0" width="60" height="60"/>
                <use id="zoomplus" xlink:href="#zoomPlus" x="17" y="9" onmousedown="handleZoom(evt,'in')"/>
                <use id="zoomminus" xlink:href="#zoomMin" x="42" y="9" onmousedown="handleZoom(evt,'out')"/>
                <use id="reset" xlink:href="#resetDef" x="30" y="36" onmousedown="handleReset()"/>
                <g id="arrowUp" xlink:href="#dirArrow" transform="translate(30 24)" onmousedown="handlePan(0,-1)">
                  <use xlink:href="#rim" fill="#404040">
                        <set attributeName="fill" to="#808080" begin="arrowUp.mouseover" end="arrowUp.mouseout"/>
                  </use>
                  <path fill="none" stroke="white" stroke-width="1.5" d="M0,-3.0v7 M-2.5,-0.5L0,-3.0L2.5,-0.5"/>
                </g>
                <g id="arrowRight" xlink:href="#dirArrow" transform="rotate(90) translate(36 -43)" onmousedown="handlePan(1,0)">
                  <use xlink:href="#rim" fill="#404040">
                        <set attributeName="fill" to="#808080" begin="arrowRight.mouseover" end="arrowRight.mouseout"/>
                  </use>
                  <path fill="none" stroke="white" stroke-width="1.5" d="M0,-3.0v7 M-2.5,-0.5L0,-3.0L2.5,-0.5"/>
                </g>
                <g id="arrowDown" xlink:href="#dirArrow" transform="rotate(180) translate(-30 -48)" onmousedown="handlePan(0,1)">
                  <use xlink:href="#rim" fill="#404040">
                        <set attributeName="fill" to="#808080" begin="arrowDown.mouseover" end="arrowDown.mouseout"/>
                  </use>
                  <path fill="none" stroke="white" stroke-width="1.5" d="M0,-3.0v7 M-2.5,-0.5L0,-3.0L2.5,-0.5"/>
                </g>
                <g id="arrowLeft" xlink:href="#dirArrow" transform="rotate(270) translate(-36 17)" onmousedown="handlePan(-1,0)">
                  <use xlink:href="#rim" fill="#404040">
                        <set attributeName="fill" to="#808080" begin="arrowLeft.mouseover" end="arrowLeft.mouseout"/>
                  </use>
                  <path fill="none" stroke="white" stroke-width="1.5" d="M0,-3.0v7 M-2.5,-0.5L0,-3.0L2.5,-0.5"/>
                </g>
        </g>
        <svg viewBox="0 0 15 15" width="100%" height="30px" preserveAspectRatio="xMaxYMin meet">
         <g id="arrow_out" transform="scale(0.3 0.3)">
          <a xlink:href="i2c_8h__incl_org.svg" target="_base">
           <rect id="button" ry="5" rx="5" y="6" x="6" height="38" width="38"
                fill="#f2f5e9" fill-opacity="0.5" stroke="#606060" stroke-width="1.0"/>
           <path id="arrow"
             d="M 11.500037,31.436501 C 11.940474,20.09759 22.043105,11.32322 32.158766,21.979434 L 37.068811,17.246167 C 37.068811,17.246167 37.088388,32 37.088388,32 L 22.160133,31.978069 C 22.160133,31.978069 26.997745,27.140456 26.997745,27.140456 C 18.528582,18.264221 13.291696,25.230495 11.500037,31.436501 z"
             style="fill:#404040;"/>
          </a>
         </g>
        </svg>
</svg>
