<?xml version="1.0" encoding="UTF-8" standalone="no"?>
<!DOCTYPE svg PUBLIC "-//W3C//DTD SVG 1.1//EN"
 "http://www.w3.org/Graphics/SVG/1.1/DTD/svg11.dtd">
<!-- Generated by graphviz version 2.38.0 (20140413.2041)
 -->
<!-- Title: ic9100_lib.h Pages: 1 -->
<!--zoomable 364 -->
<svg id="main" version="1.1" xmlns="http://www.w3.org/2000/svg" xmlns:xlink="http://www.w3.org/1999/xlink" xml:space="preserve" onload="init(evt)">
<style type="text/css"><![CDATA[
.edge:hover path { stroke: red; }
.edge:hover polygon { stroke: red; fill: red; }
]]></style>
<script type="text/javascript"><![CDATA[
var edges = document.getElementsByTagName('g');
if (edges && edges.length) {
  for (var i=0;i<edges.length;i++) {
    if (edges[i].id.substr(0,4)=='edge') {
      edges[i].setAttribute('class','edge');
    }
  }
}
]]></script>
        <defs>
                <circle id="rim" cx="0" cy="0" r="7"/>
                <circle id="rim2" cx="0" cy="0" r="3.5"/>
                <g id="zoomPlus">
                        <use xlink:href="#rim" fill="#404040">
                                <set attributeName="fill" to="#808080" begin="zoomplus.mouseover" end="zoomplus.mouseout"/>
                        </use>
                        <path d="M-4,0h8M0,-4v8" fill="none" stroke="white" stroke-width="1.5" pointer-events="none"/>
                </g>
                <g id="zoomMin">
                        <use xlink:href="#rim" fill="#404040">
                                <set attributeName="fill" to="#808080" begin="zoomminus.mouseover" end="zoomminus.mouseout"/>
                        </use>
                        <path d="M-4,0h8" fill="none" stroke="white" stroke-width="1.5" pointer-events="none"/>
                </g>
                <g id="dirArrow">
                        <path fill="none" stroke="white" stroke-width="1.5" d="M0,-3.0v7 M-2.5,-0.5L0,-3.0L2.5,-0.5"/>
                </g>
               <g id="resetDef">
                       <use xlink:href="#rim2" fill="#404040">
                               <set attributeName="fill" to="#808080" begin="reset.mouseover" end="reset.mouseout"/>
                       </use>
               </g>
        </defs>

<script type="text/javascript">
var viewWidth = 1763;
var viewHeight = 364;
var sectionId = 'dynsection-0';
</script>
<script xlink:href="svgpan.js"/>
<svg id="graph" class="graph">
<g id="viewport">
<title>ic9100_lib.h</title>
<polygon fill="white" stroke="none" points="-4,4 -4,-360 1759,-360 1759,4 -4,4"/>
<!-- Node1 -->
<g id="node1" class="node"><title>Node1</title>
<polygon fill="#bfbfbf" stroke="black" points="761,-336.5 761,-355.5 829,-355.5 829,-336.5 761,-336.5"/>
<text text-anchor="middle" x="795" y="-343.5" font-family="Helvetica,sans-Serif" font-size="10.00">ic9100_lib.h</text>
</g>
<!-- Node2 -->
<g id="node2" class="node"><title>Node2</title>
<g id="a_node2"><a xlink:href="config_cosmos_8h.html" target="_top" xlink:title="Headers and definitions common to all COSMOS. ">
<polygon fill="white" stroke="black" points="848.5,-112.5 848.5,-131.5 971.5,-131.5 971.5,-112.5 848.5,-112.5"/>
<text text-anchor="middle" x="910" y="-119.5" font-family="Helvetica,sans-Serif" font-size="10.00">support/configCosmos.h</text>
</a>
</g>
</g>
<!-- Node1&#45;&gt;Node2 -->
<g id="edge1" class="edge"><title>Node1&#45;&gt;Node2</title>
<path fill="none" stroke="midnightblue" d="M789.362,-336.481C783.946,-327.745 776.136,-313.556 773,-300 770.996,-291.34 771.213,-288.707 773,-280 783.997,-226.421 785.964,-207.305 824,-168 837.91,-153.626 857.411,-142.907 874.327,-135.543"/>
<polygon fill="midnightblue" stroke="midnightblue" points="876.01,-138.636 883.926,-131.594 873.346,-132.162 876.01,-138.636"/>
</g>
<!-- Node35 -->
<g id="node35" class="node"><title>Node35</title>
<g id="a_node35"><a xlink:href="serialclass_8h.html" target="_top" xlink:title="device/serial/serialclass.h">
<polygon fill="white" stroke="black" points="781.5,-280.5 781.5,-299.5 910.5,-299.5 910.5,-280.5 781.5,-280.5"/>
<text text-anchor="middle" x="846" y="-287.5" font-family="Helvetica,sans-Serif" font-size="10.00">device/serial/serialclass.h</text>
</a>
</g>
</g>
<!-- Node1&#45;&gt;Node35 -->
<g id="edge43" class="edge"><title>Node1&#45;&gt;Node35</title>
<path fill="none" stroke="midnightblue" d="M803.422,-336.083C810.848,-328.22 821.852,-316.569 830.812,-307.081"/>
<polygon fill="midnightblue" stroke="midnightblue" points="833.413,-309.424 837.735,-299.751 828.324,-304.618 833.413,-309.424"/>
</g>
<!-- Node3 -->
<g id="node3" class="node"><title>Node3</title>
<polygon fill="white" stroke="#bfbfbf" points="1580.5,-56.5 1580.5,-75.5 1625.5,-75.5 1625.5,-56.5 1580.5,-56.5"/>
<text text-anchor="middle" x="1603" y="-63.5" font-family="Helvetica,sans-Serif" font-size="10.00">climits</text>
</g>
<!-- Node2&#45;&gt;Node3 -->
<g id="edge2" class="edge"><title>Node2&#45;&gt;Node3</title>
<path fill="none" stroke="midnightblue" d="M971.546,-112.949C974.742,-112.609 977.907,-112.29 981,-112 1239.68,-87.7524 1310.91,-120.119 1570.35,-75.9175"/>
<polygon fill="midnightblue" stroke="midnightblue" points="1571.19,-79.3239 1580.45,-74.1741 1570,-72.4259 1571.19,-79.3239"/>
</g>
<!-- Node4 -->
<g id="node4" class="node"><title>Node4</title>
<polygon fill="white" stroke="#bfbfbf" points="1643.5,-56.5 1643.5,-75.5 1690.5,-75.5 1690.5,-56.5 1643.5,-56.5"/>
<text text-anchor="middle" x="1667" y="-63.5" font-family="Helvetica,sans-Serif" font-size="10.00">csignal</text>
</g>
<!-- Node2&#45;&gt;Node4 -->
<g id="edge3" class="edge"><title>Node2&#45;&gt;Node4</title>
<path fill="none" stroke="midnightblue" d="M971.544,-112.927C974.74,-112.593 977.906,-112.281 981,-112 1267.66,-85.975 1346.07,-122.848 1633.49,-75.9029"/>
<polygon fill="midnightblue" stroke="midnightblue" points="1634.07,-79.3546 1643.37,-74.2706 1632.93,-72.4483 1634.07,-79.3546"/>
</g>
<!-- Node5 -->
<g id="node5" class="node"><title>Node5</title>
<polygon fill="white" stroke="#bfbfbf" points="1709,-56.5 1709,-75.5 1755,-75.5 1755,-56.5 1709,-56.5"/>
<text text-anchor="middle" x="1732" y="-63.5" font-family="Helvetica,sans-Serif" font-size="10.00">cstdint</text>
</g>
<!-- Node2&#45;&gt;Node5 -->
<g id="edge4" class="edge"><title>Node2&#45;&gt;Node5</title>
<path fill="none" stroke="midnightblue" d="M971.543,-112.908C974.739,-112.579 977.906,-112.273 981,-112 1296.45,-84.1503 1382.48,-126.747 1698.81,-75.8129"/>
<polygon fill="midnightblue" stroke="midnightblue" points="1699.41,-79.2615 1708.72,-74.1995 1698.28,-72.3525 1699.41,-79.2615"/>
</g>
<!-- Node6 -->
<g id="node6" class="node"><title>Node6</title>
<polygon fill="white" stroke="#bfbfbf" points="64,-56.5 64,-75.5 120,-75.5 120,-56.5 64,-56.5"/>
<text text-anchor="middle" x="92" y="-63.5" font-family="Helvetica,sans-Serif" font-size="10.00">cinttypes</text>
</g>
<!-- Node2&#45;&gt;Node6 -->
<g id="edge5" class="edge"><title>Node2&#45;&gt;Node6</title>
<path fill="none" stroke="midnightblue" d="M848.233,-113.336C843.421,-112.845 838.634,-112.392 834,-112 524.735,-85.8216 441.244,-120.515 130.383,-75.9114"/>
<polygon fill="midnightblue" stroke="midnightblue" points="130.574,-72.4026 120.175,-74.4302 129.569,-79.33 130.574,-72.4026"/>
</g>
<!-- Node7 -->
<g id="node7" class="node"><title>Node7</title>
<polygon fill="white" stroke="#bfbfbf" points="138.5,-56.5 138.5,-75.5 181.5,-75.5 181.5,-56.5 138.5,-56.5"/>
<text text-anchor="middle" x="160" y="-63.5" font-family="Helvetica,sans-Serif" font-size="10.00">cstdio</text>
</g>
<!-- Node2&#45;&gt;Node7 -->
<g id="edge6" class="edge"><title>Node2&#45;&gt;Node7</title>
<path fill="none" stroke="midnightblue" d="M848.231,-113.361C843.419,-112.865 838.633,-112.403 834,-112 551.758,-87.4234 474.169,-124.639 191.939,-75.9598"/>
<polygon fill="midnightblue" stroke="midnightblue" points="192.265,-72.4638 181.812,-74.1916 191.061,-79.3595 192.265,-72.4638"/>
</g>
<!-- Node8 -->
<g id="node8" class="node"><title>Node8</title>
<polygon fill="white" stroke="#bfbfbf" points="199.5,-56.5 199.5,-75.5 248.5,-75.5 248.5,-56.5 199.5,-56.5"/>
<text text-anchor="middle" x="224" y="-63.5" font-family="Helvetica,sans-Serif" font-size="10.00">cstddef</text>
</g>
<!-- Node2&#45;&gt;Node8 -->
<g id="edge7" class="edge"><title>Node2&#45;&gt;Node8</title>
<path fill="none" stroke="midnightblue" d="M848.228,-113.394C843.417,-112.891 838.631,-112.418 834,-112 581.348,-89.1764 512.231,-117.29 258.622,-75.9598"/>
<polygon fill="midnightblue" stroke="midnightblue" points="259.183,-72.5051 248.746,-74.3308 258.043,-79.4118 259.183,-72.5051"/>
</g>
<!-- Node9 -->
<g id="node9" class="node"><title>Node9</title>
<polygon fill="white" stroke="#bfbfbf" points="266.5,-56.5 266.5,-75.5 311.5,-75.5 311.5,-56.5 266.5,-56.5"/>
<text text-anchor="middle" x="289" y="-63.5" font-family="Helvetica,sans-Serif" font-size="10.00">cstdlib</text>
</g>
<!-- Node2&#45;&gt;Node9 -->
<g id="edge8" class="edge"><title>Node2&#45;&gt;Node9</title>
<path fill="none" stroke="midnightblue" d="M848.224,-113.434C843.414,-112.922 838.63,-112.436 834,-112 609.67,-90.8582 547.924,-114.457 321.456,-75.6805"/>
<polygon fill="midnightblue" stroke="midnightblue" points="322.045,-72.2305 311.594,-73.9707 320.849,-79.1276 322.045,-72.2305"/>
</g>
<!-- Node10 -->
<g id="node10" class="node"><title>Node10</title>
<polygon fill="white" stroke="#bfbfbf" points="330,-56.5 330,-75.5 374,-75.5 374,-56.5 330,-56.5"/>
<text text-anchor="middle" x="352" y="-63.5" font-family="Helvetica,sans-Serif" font-size="10.00">cerrno</text>
</g>
<!-- Node2&#45;&gt;Node10 -->
<g id="edge9" class="edge"><title>Node2&#45;&gt;Node10</title>
<path fill="none" stroke="midnightblue" d="M848.22,-113.484C843.411,-112.96 838.628,-112.459 834,-112 637.122,-92.4923 582.543,-111.582 384.089,-75.8376"/>
<polygon fill="midnightblue" stroke="midnightblue" points="384.688,-72.3891 374.222,-74.0369 383.431,-79.2754 384.688,-72.3891"/>
</g>
<!-- Node11 -->
<g id="node11" class="node"><title>Node11</title>
<polygon fill="white" stroke="#bfbfbf" points="0,-56.5 0,-75.5 46,-75.5 46,-56.5 0,-56.5"/>
<text text-anchor="middle" x="23" y="-63.5" font-family="Helvetica,sans-Serif" font-size="10.00">cstring</text>
</g>
<!-- Node2&#45;&gt;Node11 -->
<g id="edge10" class="edge"><title>Node2&#45;&gt;Node11</title>
<path fill="none" stroke="midnightblue" d="M848.235,-113.311C843.423,-112.826 838.635,-112.381 834,-112 491.863,-83.8727 398.919,-130.377 56.2335,-75.8119"/>
<polygon fill="midnightblue" stroke="midnightblue" points="56.7102,-72.3437 46.2811,-74.2101 55.5979,-79.2547 56.7102,-72.3437"/>
</g>
<!-- Node12 -->
<g id="node12" class="node"><title>Node12</title>
<polygon fill="white" stroke="#bfbfbf" points="392,-56.5 392,-75.5 436,-75.5 436,-56.5 392,-56.5"/>
<text text-anchor="middle" x="414" y="-63.5" font-family="Helvetica,sans-Serif" font-size="10.00">cmath</text>
</g>
<!-- Node2&#45;&gt;Node12 -->
<g id="edge11" class="edge"><title>Node2&#45;&gt;Node12</title>
<path fill="none" stroke="midnightblue" d="M848.213,-113.549C843.405,-113.01 838.625,-112.488 834,-112 664.534,-94.1272 617.328,-107.822 446.076,-75.8644"/>
<polygon fill="midnightblue" stroke="midnightblue" points="446.704,-72.4214 436.228,-74.0025 445.404,-79.2995 446.704,-72.4214"/>
</g>
<!-- Node13 -->
<g id="node13" class="node"><title>Node13</title>
<polygon fill="white" stroke="#bfbfbf" points="454.5,-56.5 454.5,-75.5 499.5,-75.5 499.5,-56.5 454.5,-56.5"/>
<text text-anchor="middle" x="477" y="-63.5" font-family="Helvetica,sans-Serif" font-size="10.00">iosfwd</text>
</g>
<!-- Node2&#45;&gt;Node13 -->
<g id="edge12" class="edge"><title>Node2&#45;&gt;Node13</title>
<path fill="none" stroke="midnightblue" d="M848.203,-113.642C843.397,-113.082 838.62,-112.529 834,-112 692.86,-95.8263 653.41,-103.406 509.69,-75.8138"/>
<polygon fill="midnightblue" stroke="midnightblue" points="510.1,-72.328 499.615,-73.8554 508.764,-79.1994 510.1,-72.328"/>
</g>
<!-- Node14 -->
<g id="node14" class="node"><title>Node14</title>
<polygon fill="white" stroke="#bfbfbf" points="518,-56.5 518,-75.5 572,-75.5 572,-56.5 518,-56.5"/>
<text text-anchor="middle" x="545" y="-63.5" font-family="Helvetica,sans-Serif" font-size="10.00">iostream</text>
</g>
<!-- Node2&#45;&gt;Node14 -->
<g id="edge13" class="edge"><title>Node2&#45;&gt;Node14</title>
<path fill="none" stroke="midnightblue" d="M848.288,-113.377C771.891,-103.805 645.089,-87.4463 581.984,-75.9695"/>
<polygon fill="midnightblue" stroke="midnightblue" points="582.531,-72.5112 572.056,-74.1001 581.236,-79.3903 582.531,-72.5112"/>
</g>
<!-- Node15 -->
<g id="node15" class="node"><title>Node15</title>
<polygon fill="white" stroke="#bfbfbf" points="590,-56.5 590,-75.5 642,-75.5 642,-56.5 590,-56.5"/>
<text text-anchor="middle" x="616" y="-63.5" font-family="Helvetica,sans-Serif" font-size="10.00">sstream</text>
</g>
<!-- Node2&#45;&gt;Node15 -->
<g id="edge14" class="edge"><title>Node2&#45;&gt;Node15</title>
<path fill="none" stroke="midnightblue" d="M854.417,-112.496C804.267,-104.555 728.266,-91.8549 652.497,-75.9662"/>
<polygon fill="midnightblue" stroke="midnightblue" points="652.803,-72.4535 642.295,-73.8069 651.354,-79.3018 652.803,-72.4535"/>
</g>
<!-- Node16 -->
<g id="node16" class="node"><title>Node16</title>
<polygon fill="white" stroke="#bfbfbf" points="660.5,-56.5 660.5,-75.5 701.5,-75.5 701.5,-56.5 660.5,-56.5"/>
<text text-anchor="middle" x="681" y="-63.5" font-family="Helvetica,sans-Serif" font-size="10.00">regex</text>
</g>
<!-- Node2&#45;&gt;Node16 -->
<g id="edge15" class="edge"><title>Node2&#45;&gt;Node16</title>
<path fill="none" stroke="midnightblue" d="M868.252,-112.437C829.976,-104.39 771.527,-91.6133 711.619,-76.016"/>
<polygon fill="midnightblue" stroke="midnightblue" points="712.165,-72.5406 701.604,-73.3852 710.387,-79.311 712.165,-72.5406"/>
</g>
<!-- Node17 -->
<g id="node17" class="node"><title>Node17</title>
<polygon fill="white" stroke="#bfbfbf" points="720,-56.5 720,-75.5 770,-75.5 770,-56.5 720,-56.5"/>
<text text-anchor="middle" x="745" y="-63.5" font-family="Helvetica,sans-Serif" font-size="10.00">iomanip</text>
</g>
<!-- Node2&#45;&gt;Node17 -->
<g id="edge16" class="edge"><title>Node2&#45;&gt;Node17</title>
<path fill="none" stroke="midnightblue" d="M883.855,-112.444C855.731,-103.239 810.868,-88.5568 779.781,-78.3829"/>
<polygon fill="midnightblue" stroke="midnightblue" points="780.803,-75.0349 770.211,-75.2508 778.626,-81.6876 780.803,-75.0349"/>
</g>
<!-- Node18 -->
<g id="node18" class="node"><title>Node18</title>
<polygon fill="white" stroke="#bfbfbf" points="788.5,-56.5 788.5,-75.5 839.5,-75.5 839.5,-56.5 788.5,-56.5"/>
<text text-anchor="middle" x="814" y="-63.5" font-family="Helvetica,sans-Serif" font-size="10.00">unistd.h</text>
</g>
<!-- Node2&#45;&gt;Node18 -->
<g id="edge17" class="edge"><title>Node2&#45;&gt;Node18</title>
<path fill="none" stroke="midnightblue" d="M894.576,-112.324C879.46,-103.822 856.185,-90.7288 838.529,-80.7975"/>
<polygon fill="midnightblue" stroke="midnightblue" points="839.817,-77.5066 829.386,-75.6545 836.386,-83.6077 839.817,-77.5066"/>
</g>
<!-- Node19 -->
<g id="node19" class="node"><title>Node19</title>
<polygon fill="white" stroke="#bfbfbf" points="858,-56.5 858,-75.5 902,-75.5 902,-56.5 858,-56.5"/>
<text text-anchor="middle" x="880" y="-63.5" font-family="Helvetica,sans-Serif" font-size="10.00">fcntl.h</text>
</g>
<!-- Node2&#45;&gt;Node19 -->
<g id="edge18" class="edge"><title>Node2&#45;&gt;Node19</title>
<path fill="none" stroke="midnightblue" d="M905.046,-112.083C900.896,-104.613 894.847,-93.7244 889.733,-84.5199"/>
<polygon fill="midnightblue" stroke="midnightblue" points="892.778,-82.7929 884.862,-75.7511 886.659,-86.1924 892.778,-82.7929"/>
</g>
<!-- Node20 -->
<g id="node20" class="node"><title>Node20</title>
<polygon fill="white" stroke="#bfbfbf" points="920,-56.5 920,-75.5 960,-75.5 960,-56.5 920,-56.5"/>
<text text-anchor="middle" x="940" y="-63.5" font-family="Helvetica,sans-Serif" font-size="10.00">limits</text>
</g>
<!-- Node2&#45;&gt;Node20 -->
<g id="edge19" class="edge"><title>Node2&#45;&gt;Node20</title>
<path fill="none" stroke="midnightblue" d="M914.954,-112.083C919.104,-104.613 925.153,-93.7244 930.267,-84.5199"/>
<polygon fill="midnightblue" stroke="midnightblue" points="933.341,-86.1924 935.138,-75.7511 927.222,-82.7929 933.341,-86.1924"/>
</g>
<!-- Node21 -->
<g id="node21" class="node"><title>Node21</title>
<polygon fill="white" stroke="#bfbfbf" points="1521.5,-0.5 1521.5,-19.5 1562.5,-19.5 1562.5,-0.5 1521.5,-0.5"/>
<text text-anchor="middle" x="1542" y="-7.5" font-family="Helvetica,sans-Serif" font-size="10.00">string</text>
</g>
<!-- Node2&#45;&gt;Node21 -->
<g id="edge20" class="edge"><title>Node2&#45;&gt;Node21</title>
<path fill="none" stroke="midnightblue" d="M971.555,-113.033C974.748,-112.671 977.911,-112.324 981,-112 1172.61,-91.8811 1227.76,-128.966 1413,-76 1431.73,-70.6448 1434.62,-64.8003 1452,-56 1473.3,-45.2125 1497.51,-33.1157 1515.46,-24.1832"/>
<polygon fill="midnightblue" stroke="midnightblue" points="1517.33,-27.1623 1524.72,-19.5746 1514.21,-20.895 1517.33,-27.1623"/>
</g>
<!-- Node22 -->
<g id="node22" class="node"><title>Node22</title>
<polygon fill="white" stroke="#bfbfbf" points="1244,-0.5 1244,-19.5 1288,-19.5 1288,-0.5 1244,-0.5"/>
<text text-anchor="middle" x="1266" y="-7.5" font-family="Helvetica,sans-Serif" font-size="10.00">vector</text>
</g>
<!-- Node2&#45;&gt;Node22 -->
<g id="edge21" class="edge"><title>Node2&#45;&gt;Node22</title>
<path fill="none" stroke="midnightblue" d="M971.591,-113.183C1064.09,-101.34 1228.71,-79.8195 1234,-76 1249.26,-64.9749 1257.61,-44.6231 1261.92,-29.6191"/>
<polygon fill="midnightblue" stroke="midnightblue" points="1265.33,-30.4009 1264.38,-19.8488 1258.55,-28.6903 1265.33,-30.4009"/>
</g>
<!-- Node23 -->
<g id="node23" class="node"><title>Node23</title>
<polygon fill="white" stroke="#bfbfbf" points="1460.5,-56.5 1460.5,-75.5 1501.5,-75.5 1501.5,-56.5 1460.5,-56.5"/>
<text text-anchor="middle" x="1481" y="-63.5" font-family="Helvetica,sans-Serif" font-size="10.00">stack</text>
</g>
<!-- Node2&#45;&gt;Node23 -->
<g id="edge22" class="edge"><title>Node2&#45;&gt;Node23</title>
<path fill="none" stroke="midnightblue" d="M971.553,-113.011C974.746,-112.655 977.91,-112.315 981,-112 1187.21,-90.9602 1241.51,-109.94 1446,-76 1447.47,-75.756 1448.97,-75.4798 1450.48,-75.1795"/>
<polygon fill="midnightblue" stroke="midnightblue" points="1451.42,-78.5551 1460.4,-72.9334 1449.87,-71.7278 1451.42,-78.5551"/>
</g>
<!-- Node24 -->
<g id="node24" class="node"><title>Node24</title>
<polygon fill="white" stroke="#bfbfbf" points="1519.5,-56.5 1519.5,-75.5 1562.5,-75.5 1562.5,-56.5 1519.5,-56.5"/>
<text text-anchor="middle" x="1541" y="-63.5" font-family="Helvetica,sans-Serif" font-size="10.00">deque</text>
</g>
<!-- Node2&#45;&gt;Node24 -->
<g id="edge23" class="edge"><title>Node2&#45;&gt;Node24</title>
<path fill="none" stroke="midnightblue" d="M971.549,-112.975C974.743,-112.628 977.908,-112.301 981,-112 1212.66,-89.4687 1276.89,-117.373 1509.07,-75.987"/>
<polygon fill="midnightblue" stroke="midnightblue" points="1509.96,-79.3827 1519.18,-74.1605 1508.72,-72.4943 1509.96,-79.3827"/>
</g>
<!-- Node25 -->
<g id="node25" class="node"><title>Node25</title>
<polygon fill="white" stroke="#bfbfbf" points="898,-0.5 898,-19.5 942,-19.5 942,-0.5 898,-0.5"/>
<text text-anchor="middle" x="920" y="-7.5" font-family="Helvetica,sans-Serif" font-size="10.00">mutex</text>
</g>
<!-- Node2&#45;&gt;Node25 -->
<g id="edge24" class="edge"><title>Node2&#45;&gt;Node25</title>
<path fill="none" stroke="midnightblue" d="M928.984,-112.398C942.886,-104.954 960.714,-92.741 969,-76 978.395,-57.0176 959.995,-37.9829 943.125,-25.4633"/>
<polygon fill="midnightblue" stroke="midnightblue" points="944.808,-22.3714 934.597,-19.545 940.817,-28.1221 944.808,-22.3714"/>
</g>
<!-- Node26 -->
<g id="node26" class="node"><title>Node26</title>
<polygon fill="white" stroke="#bfbfbf" points="960,-0.5 960,-19.5 1004,-19.5 1004,-0.5 960,-0.5"/>
<text text-anchor="middle" x="982" y="-7.5" font-family="Helvetica,sans-Serif" font-size="10.00">thread</text>
</g>
<!-- Node2&#45;&gt;Node26 -->
<g id="edge25" class="edge"><title>Node2&#45;&gt;Node26</title>
<path fill="none" stroke="midnightblue" d="M936.929,-112.356C953.719,-105.411 973.978,-93.8247 984,-76 991.946,-61.8673 990.348,-43.1358 987.413,-29.4125"/>
<polygon fill="midnightblue" stroke="midnightblue" points="990.79,-28.4903 984.929,-19.664 984.007,-30.2186 990.79,-28.4903"/>
</g>
<!-- Node27 -->
<g id="node27" class="node"><title>Node27</title>
<polygon fill="white" stroke="#bfbfbf" points="1022.5,-0.5 1022.5,-19.5 1117.5,-19.5 1117.5,-0.5 1022.5,-0.5"/>
<text text-anchor="middle" x="1070" y="-7.5" font-family="Helvetica,sans-Serif" font-size="10.00">condition_variable</text>
</g>
<!-- Node2&#45;&gt;Node27 -->
<g id="edge26" class="edge"><title>Node2&#45;&gt;Node27</title>
<path fill="none" stroke="midnightblue" d="M931.315,-112.401C950.175,-104.324 978.032,-91.2241 1000,-76 1020.74,-61.6284 1041.55,-41.3814 1055.02,-27.3184"/>
<polygon fill="midnightblue" stroke="midnightblue" points="1057.75,-29.5266 1062.05,-19.8441 1052.65,-24.7311 1057.75,-29.5266"/>
</g>
<!-- Node28 -->
<g id="node28" class="node"><title>Node28</title>
<polygon fill="white" stroke="#bfbfbf" points="1182.5,-0.5 1182.5,-19.5 1225.5,-19.5 1225.5,-0.5 1182.5,-0.5"/>
<text text-anchor="middle" x="1204" y="-7.5" font-family="Helvetica,sans-Serif" font-size="10.00">queue</text>
</g>
<!-- Node2&#45;&gt;Node28 -->
<g id="edge27" class="edge"><title>Node2&#45;&gt;Node28</title>
<path fill="none" stroke="midnightblue" d="M971.852,-112.96C1060.36,-101.311 1213,-80.6236 1217,-76 1228.25,-62.9821 1221.93,-43.0012 1214.72,-28.6295"/>
<polygon fill="midnightblue" stroke="midnightblue" points="1217.7,-26.7843 1209.79,-19.7305 1211.57,-30.1746 1217.7,-26.7843"/>
</g>
<!-- Node29 -->
<g id="node29" class="node"><title>Node29</title>
<polygon fill="white" stroke="#bfbfbf" points="1306.5,-0.5 1306.5,-19.5 1341.5,-19.5 1341.5,-0.5 1306.5,-0.5"/>
<text text-anchor="middle" x="1324" y="-7.5" font-family="Helvetica,sans-Serif" font-size="10.00">map</text>
</g>
<!-- Node2&#45;&gt;Node29 -->
<g id="edge28" class="edge"><title>Node2&#45;&gt;Node29</title>
<path fill="none" stroke="midnightblue" d="M971.51,-113.121C1070.52,-100.423 1254.4,-76.7636 1256,-76 1279.15,-64.9267 1299.51,-42.9529 1311.77,-27.6352"/>
<polygon fill="midnightblue" stroke="midnightblue" points="1314.69,-29.5777 1318.02,-19.5182 1309.15,-25.3085 1314.69,-29.5777"/>
</g>
<!-- Node30 -->
<g id="node30" class="node"><title>Node30</title>
<g id="a_node30"><a xlink:href="cosmos-defs_8h.html" target="_top" xlink:title="COSMOS definitions Definitions specific to the COSMOS environement. ">
<polygon fill="white" stroke="black" points="1092,-56.5 1092,-75.5 1208,-75.5 1208,-56.5 1092,-56.5"/>
<text text-anchor="middle" x="1150" y="-63.5" font-family="Helvetica,sans-Serif" font-size="10.00">support/cosmos&#45;defs.h</text>
</a>
</g>
</g>
<!-- Node2&#45;&gt;Node30 -->
<g id="edge29" class="edge"><title>Node2&#45;&gt;Node30</title>
<path fill="none" stroke="midnightblue" d="M948.029,-112.444C989.808,-103.043 1056.98,-87.9291 1102.27,-77.7393"/>
<polygon fill="midnightblue" stroke="midnightblue" points="1103.16,-81.1263 1112.15,-75.5164 1101.62,-74.297 1103.16,-81.1263"/>
</g>
<!-- Node32 -->
<g id="node32" class="node"><title>Node32</title>
<g id="a_node32"><a xlink:href="json11_8hpp.html" target="_top" xlink:title="json11.hpp">
<polygon fill="white" stroke="black" points="1340,-56.5 1340,-75.5 1404,-75.5 1404,-56.5 1340,-56.5"/>
<text text-anchor="middle" x="1372" y="-63.5" font-family="Helvetica,sans-Serif" font-size="10.00">json11.hpp</text>
</a>
</g>
</g>
<!-- Node2&#45;&gt;Node32 -->
<g id="edge37" class="edge"><title>Node2&#45;&gt;Node32</title>
<path fill="none" stroke="midnightblue" d="M971.563,-113.112C974.754,-112.729 977.914,-112.357 981,-112 1134.15,-94.3054 1173.53,-98.8235 1326,-76 1327.27,-75.8103 1328.55,-75.6098 1329.85,-75.4006"/>
<polygon fill="midnightblue" stroke="midnightblue" points="1330.64,-78.8166 1339.89,-73.6611 1329.44,-71.9193 1330.64,-78.8166"/>
</g>
<!-- Node30&#45;&gt;Node22 -->
<g id="edge31" class="edge"><title>Node30&#45;&gt;Node22</title>
<path fill="none" stroke="midnightblue" d="M1168.38,-56.4435C1187.22,-47.6751 1216.73,-33.9355 1238.38,-23.8579"/>
<polygon fill="midnightblue" stroke="midnightblue" points="1240.12,-26.9098 1247.71,-19.5164 1237.16,-20.5637 1240.12,-26.9098"/>
</g>
<!-- Node30&#45;&gt;Node25 -->
<g id="edge35" class="edge"><title>Node30&#45;&gt;Node25</title>
<path fill="none" stroke="midnightblue" d="M1109.05,-56.4926C1070.82,-48.384 1011.98,-35.4763 952.281,-20.2195"/>
<polygon fill="midnightblue" stroke="midnightblue" points="952.864,-16.7554 942.307,-17.6501 951.118,-23.5341 952.864,-16.7554"/>
</g>
<!-- Node30&#45;&gt;Node26 -->
<g id="edge34" class="edge"><title>Node30&#45;&gt;Node26</title>
<path fill="none" stroke="midnightblue" d="M1123.38,-56.4435C1093.66,-46.8902 1045.58,-31.436 1013.88,-21.2461"/>
<polygon fill="midnightblue" stroke="midnightblue" points="1014.79,-17.8649 1004.2,-18.1368 1012.65,-24.5291 1014.79,-17.8649"/>
</g>
<!-- Node30&#45;&gt;Node27 -->
<g id="edge36" class="edge"><title>Node30&#45;&gt;Node27</title>
<path fill="none" stroke="midnightblue" d="M1137.15,-56.324C1124.78,-47.979 1105.87,-35.2122 1091.26,-25.3524"/>
<polygon fill="midnightblue" stroke="midnightblue" points="1093.07,-22.3483 1082.82,-19.6545 1089.15,-28.1503 1093.07,-22.3483"/>
</g>
<!-- Node30&#45;&gt;Node28 -->
<g id="edge33" class="edge"><title>Node30&#45;&gt;Node28</title>
<path fill="none" stroke="midnightblue" d="M1158.92,-56.083C1166.78,-48.2195 1178.43,-36.5688 1187.92,-27.0813"/>
<polygon fill="midnightblue" stroke="midnightblue" points="1190.65,-29.2971 1195.25,-19.7511 1185.7,-24.3473 1190.65,-29.2971"/>
</g>
<!-- Node30&#45;&gt;Node29 -->
<g id="edge30" class="edge"><title>Node30&#45;&gt;Node29</title>
<path fill="none" stroke="midnightblue" d="M1178.52,-56.4967C1206.27,-48.1726 1249.86,-34.9676 1296.6,-20.0708"/>
<polygon fill="midnightblue" stroke="midnightblue" points="1297.84,-23.3483 1306.3,-16.9689 1295.71,-16.6809 1297.84,-23.3483"/>
</g>
<!-- Node31 -->
<g id="node31" class="node"><title>Node31</title>
<polygon fill="white" stroke="#bfbfbf" points="1135.5,-0.5 1135.5,-19.5 1164.5,-19.5 1164.5,-0.5 1135.5,-0.5"/>
<text text-anchor="middle" x="1150" y="-7.5" font-family="Helvetica,sans-Serif" font-size="10.00">list</text>
</g>
<!-- Node30&#45;&gt;Node31 -->
<g id="edge32" class="edge"><title>Node30&#45;&gt;Node31</title>
<path fill="none" stroke="midnightblue" d="M1150,-56.083C1150,-49.0059 1150,-38.8611 1150,-29.9865"/>
<polygon fill="midnightblue" stroke="midnightblue" points="1153.5,-29.751 1150,-19.7511 1146.5,-29.7511 1153.5,-29.751"/>
</g>
<!-- Node32&#45;&gt;Node21 -->
<g id="edge38" class="edge"><title>Node32&#45;&gt;Node21</title>
<path fill="none" stroke="midnightblue" d="M1398.94,-56.4435C1429.6,-46.7024 1479.58,-30.826 1511.62,-20.6512"/>
<polygon fill="midnightblue" stroke="midnightblue" points="1512.87,-23.9263 1521.34,-17.5631 1510.75,-17.2548 1512.87,-23.9263"/>
</g>
<!-- Node32&#45;&gt;Node22 -->
<g id="edge39" class="edge"><title>Node32&#45;&gt;Node22</title>
<path fill="none" stroke="midnightblue" d="M1354.97,-56.324C1337.97,-47.6641 1311.62,-34.2424 1292.01,-24.249"/>
<polygon fill="midnightblue" stroke="midnightblue" points="1293.49,-21.0752 1282.99,-19.6545 1290.31,-27.3125 1293.49,-21.0752"/>
</g>
<!-- Node32&#45;&gt;Node29 -->
<g id="edge40" class="edge"><title>Node32&#45;&gt;Node29</title>
<path fill="none" stroke="midnightblue" d="M1364.07,-56.083C1357.15,-48.2982 1346.93,-36.8015 1338.55,-27.3665"/>
<polygon fill="midnightblue" stroke="midnightblue" points="1341.04,-24.8999 1331.78,-19.7511 1335.81,-29.5505 1341.04,-24.8999"/>
</g>
<!-- Node33 -->
<g id="node33" class="node"><title>Node33</title>
<polygon fill="white" stroke="#bfbfbf" points="1360,-0.5 1360,-19.5 1412,-19.5 1412,-0.5 1360,-0.5"/>
<text text-anchor="middle" x="1386" y="-7.5" font-family="Helvetica,sans-Serif" font-size="10.00">memory</text>
</g>
<!-- Node32&#45;&gt;Node33 -->
<g id="edge41" class="edge"><title>Node32&#45;&gt;Node33</title>
<path fill="none" stroke="midnightblue" d="M1374.31,-56.083C1376.17,-48.9272 1378.84,-38.6353 1381.15,-29.6911"/>
<polygon fill="midnightblue" stroke="midnightblue" points="1384.61,-30.3094 1383.73,-19.7511 1377.83,-28.5527 1384.61,-30.3094"/>
</g>
<!-- Node34 -->
<g id="node34" class="node"><title>Node34</title>
<polygon fill="white" stroke="#bfbfbf" points="1430.5,-0.5 1430.5,-19.5 1503.5,-19.5 1503.5,-0.5 1430.5,-0.5"/>
<text text-anchor="middle" x="1467" y="-7.5" font-family="Helvetica,sans-Serif" font-size="10.00">initializer_list</text>
</g>
<!-- Node32&#45;&gt;Node34 -->
<g id="edge42" class="edge"><title>Node32&#45;&gt;Node34</title>
<path fill="none" stroke="midnightblue" d="M1387.26,-56.324C1402.22,-47.8215 1425.25,-34.7288 1442.73,-24.7975"/>
<polygon fill="midnightblue" stroke="midnightblue" points="1444.81,-27.639 1451.77,-19.6545 1441.35,-21.5534 1444.81,-27.639"/>
</g>
<!-- Node35&#45;&gt;Node2 -->
<g id="edge44" class="edge"><title>Node35&#45;&gt;Node2</title>
<path fill="none" stroke="midnightblue" d="M833.794,-280.495C818.298,-268.564 794.635,-245.859 804,-224 820.745,-184.916 860.865,-153.785 886.663,-136.902"/>
<polygon fill="midnightblue" stroke="midnightblue" points="888.557,-139.845 895.129,-131.534 884.809,-133.933 888.557,-139.845"/>
</g>
<!-- Node36 -->
<g id="node36" class="node"><title>Node36</title>
<g id="a_node36"><a xlink:href="sliplib_8h.html" target="_top" xlink:title="COSMOS SLIP support include file. ">
<polygon fill="white" stroke="black" points="812.5,-224.5 812.5,-243.5 897.5,-243.5 897.5,-224.5 812.5,-224.5"/>
<text text-anchor="middle" x="855" y="-231.5" font-family="Helvetica,sans-Serif" font-size="10.00">support/sliplib.h</text>
</a>
</g>
</g>
<!-- Node35&#45;&gt;Node36 -->
<g id="edge45" class="edge"><title>Node35&#45;&gt;Node36</title>
<path fill="none" stroke="midnightblue" d="M847.486,-280.083C848.679,-272.927 850.394,-262.635 851.885,-253.691"/>
<polygon fill="midnightblue" stroke="midnightblue" points="855.35,-254.19 853.541,-243.751 848.445,-253.04 855.35,-254.19"/>
</g>
<!-- Node37 -->
<g id="node37" class="node"><title>Node37</title>
<g id="a_node37"><a xlink:href="cosmos-errno_8h.html" target="_top" xlink:title="COSMOS Error Codes. ">
<polygon fill="white" stroke="black" points="886.5,-168.5 886.5,-187.5 1005.5,-187.5 1005.5,-168.5 886.5,-168.5"/>
<text text-anchor="middle" x="946" y="-175.5" font-family="Helvetica,sans-Serif" font-size="10.00">support/cosmos&#45;errno.h</text>
</a>
</g>
</g>
<!-- Node35&#45;&gt;Node37 -->
<g id="edge51" class="edge"><title>Node35&#45;&gt;Node37</title>
<path fill="none" stroke="midnightblue" d="M860.842,-280.403C874.062,-272.234 893.367,-258.996 907,-244 919.839,-229.877 930.648,-210.894 937.606,-197.091"/>
<polygon fill="midnightblue" stroke="midnightblue" points="940.94,-198.237 942.146,-187.711 934.639,-195.187 940.94,-198.237"/>
</g>
<!-- Node36&#45;&gt;Node2 -->
<g id="edge46" class="edge"><title>Node36&#45;&gt;Node2</title>
<path fill="none" stroke="midnightblue" d="M857.251,-224.271C860.731,-211.488 868.067,-187.121 878,-168 883.128,-158.129 890.181,-147.962 896.361,-139.794"/>
<polygon fill="midnightblue" stroke="midnightblue" points="899.189,-141.859 902.592,-131.826 893.675,-137.548 899.189,-141.859"/>
</g>
<!-- Node36&#45;&gt;Node11 -->
<g id="edge50" class="edge"><title>Node36&#45;&gt;Node11</title>
<path fill="none" stroke="midnightblue" d="M812.243,-225.857C693.544,-205.762 349.901,-145.788 56.0087,-76.09"/>
<polygon fill="midnightblue" stroke="midnightblue" points="56.5529,-72.6218 46.0143,-73.7114 54.9322,-79.4316 56.5529,-72.6218"/>
</g>
<!-- Node36&#45;&gt;Node37 -->
<g id="edge47" class="edge"><title>Node36&#45;&gt;Node37</title>
<path fill="none" stroke="midnightblue" d="M869.621,-224.324C883.949,-215.822 906.013,-202.729 922.749,-192.797"/>
<polygon fill="midnightblue" stroke="midnightblue" points="924.602,-195.768 931.416,-187.655 921.03,-189.748 924.602,-195.768"/>
</g>
<!-- Node37&#45;&gt;Node2 -->
<g id="edge48" class="edge"><title>Node37&#45;&gt;Node2</title>
<path fill="none" stroke="midnightblue" d="M940.055,-168.083C935.023,-160.534 927.663,-149.495 921.487,-140.23"/>
<polygon fill="midnightblue" stroke="midnightblue" points="924.293,-138.13 915.834,-131.751 918.469,-142.013 924.293,-138.13"/>
</g>
<!-- Node38 -->
<g id="node38" class="node"><title>Node38</title>
<polygon fill="white" stroke="#bfbfbf" points="989.5,-112.5 989.5,-131.5 1036.5,-131.5 1036.5,-112.5 989.5,-112.5"/>
<text text-anchor="middle" x="1013" y="-119.5" font-family="Helvetica,sans-Serif" font-size="10.00">errno.h</text>
</g>
<!-- Node37&#45;&gt;Node38 -->
<g id="edge49" class="edge"><title>Node37&#45;&gt;Node38</title>
<path fill="none" stroke="midnightblue" d="M956.765,-168.324C966.766,-160.263 981.887,-148.077 993.93,-138.369"/>
<polygon fill="midnightblue" stroke="midnightblue" points="996.45,-140.834 1002.04,-131.834 992.057,-135.384 996.45,-140.834"/>
</g>
</g>
</svg>
        <g id="navigator" transform="translate(0 0)" fill="#404254">
                <rect fill="#f2f5e9" fill-opacity="0.5" stroke="#606060" stroke-width=".5" x="0" y="0" width="60" height="60"/>
                <use id="zoomplus" xlink:href="#zoomPlus" x="17" y="9" onmousedown="handleZoom(evt,'in')"/>
                <use id="zoomminus" xlink:href="#zoomMin" x="42" y="9" onmousedown="handleZoom(evt,'out')"/>
                <use id="reset" xlink:href="#resetDef" x="30" y="36" onmousedown="handleReset()"/>
                <g id="arrowUp" xlink:href="#dirArrow" transform="translate(30 24)" onmousedown="handlePan(0,-1)">
                  <use xlink:href="#rim" fill="#404040">
                        <set attributeName="fill" to="#808080" begin="arrowUp.mouseover" end="arrowUp.mouseout"/>
                  </use>
                  <path fill="none" stroke="white" stroke-width="1.5" d="M0,-3.0v7 M-2.5,-0.5L0,-3.0L2.5,-0.5"/>
                </g>
                <g id="arrowRight" xlink:href="#dirArrow" transform="rotate(90) translate(36 -43)" onmousedown="handlePan(1,0)">
                  <use xlink:href="#rim" fill="#404040">
                        <set attributeName="fill" to="#808080" begin="arrowRight.mouseover" end="arrowRight.mouseout"/>
                  </use>
                  <path fill="none" stroke="white" stroke-width="1.5" d="M0,-3.0v7 M-2.5,-0.5L0,-3.0L2.5,-0.5"/>
                </g>
                <g id="arrowDown" xlink:href="#dirArrow" transform="rotate(180) translate(-30 -48)" onmousedown="handlePan(0,1)">
                  <use xlink:href="#rim" fill="#404040">
                        <set attributeName="fill" to="#808080" begin="arrowDown.mouseover" end="arrowDown.mouseout"/>
                  </use>
                  <path fill="none" stroke="white" stroke-width="1.5" d="M0,-3.0v7 M-2.5,-0.5L0,-3.0L2.5,-0.5"/>
                </g>
                <g id="arrowLeft" xlink:href="#dirArrow" transform="rotate(270) translate(-36 17)" onmousedown="handlePan(-1,0)">
                  <use xlink:href="#rim" fill="#404040">
                        <set attributeName="fill" to="#808080" begin="arrowLeft.mouseover" end="arrowLeft.mouseout"/>
                  </use>
                  <path fill="none" stroke="white" stroke-width="1.5" d="M0,-3.0v7 M-2.5,-0.5L0,-3.0L2.5,-0.5"/>
                </g>
        </g>
        <svg viewBox="0 0 15 15" width="100%" height="30px" preserveAspectRatio="xMaxYMin meet">
         <g id="arrow_out" transform="scale(0.3 0.3)">
          <a xlink:href="ic9100__lib_8h__incl_org.svg" target="_base">
           <rect id="button" ry="5" rx="5" y="6" x="6" height="38" width="38"
                fill="#f2f5e9" fill-opacity="0.5" stroke="#606060" stroke-width="1.0"/>
           <path id="arrow"
             d="M 11.500037,31.436501 C 11.940474,20.09759 22.043105,11.32322 32.158766,21.979434 L 37.068811,17.246167 C 37.068811,17.246167 37.088388,32 37.088388,32 L 22.160133,31.978069 C 22.160133,31.978069 26.997745,27.140456 26.997745,27.140456 C 18.528582,18.264221 13.291696,25.230495 11.500037,31.436501 z"
             style="fill:#404040;"/>
          </a>
         </g>
        </svg>
</svg>
