<?xml version="1.0" encoding="UTF-8" standalone="no"?>
<!DOCTYPE svg PUBLIC "-//W3C//DTD SVG 1.1//EN"
 "http://www.w3.org/Graphics/SVG/1.1/DTD/svg11.dtd">
<!-- Generated by graphviz version 2.38.0 (20140413.2041)
 -->
<!-- Title: ic9100_lib.h Pages: 1 -->
<svg width="369pt" height="84pt"
 viewBox="0.00 0.00 368.50 84.00" xmlns="http://www.w3.org/2000/svg" xmlns:xlink="http://www.w3.org/1999/xlink">
<g id="graph0" class="graph" transform="scale(1 1) rotate(0) translate(4 80)">
<title>ic9100_lib.h</title>
<polygon fill="white" stroke="none" points="-4,4 -4,-80 364.5,-80 364.5,4 -4,4"/>
<!-- Node1 -->
<g id="node1" class="node"><title>Node1</title>
<polygon fill="#bfbfbf" stroke="black" points="151.5,-56.5 151.5,-75.5 219.5,-75.5 219.5,-56.5 151.5,-56.5"/>
<text text-anchor="middle" x="185.5" y="-63.5" font-family="Helvetica,sans-Serif" font-size="10.00">ic9100_lib.h</text>
</g>
<!-- Node2 -->
<g id="node2" class="node"><title>Node2</title>
<g id="a_node2"><a xlink:href="ic9100__lib_8cpp.html" target="_top" xlink:title="ic9100_lib.cpp">
<polygon fill="white" stroke="black" points="0,-0.5 0,-19.5 79,-19.5 79,-0.5 0,-0.5"/>
<text text-anchor="middle" x="39.5" y="-7.5" font-family="Helvetica,sans-Serif" font-size="10.00">ic9100_lib.cpp</text>
</a>
</g>
</g>
<!-- Node1&#45;&gt;Node2 -->
<g id="edge1" class="edge"><title>Node1&#45;&gt;Node2</title>
<path fill="none" stroke="midnightblue" d="M152.801,-52.9058C125.352,-42.7536 86.8318,-28.5063 62.5259,-19.5164"/>
<polygon fill="midnightblue" stroke="midnightblue" points="151.773,-56.2572 162.366,-56.4435 154.201,-49.6919 151.773,-56.2572"/>
</g>
<!-- Node3 -->
<g id="node3" class="node"><title>Node3</title>
<g id="a_node3"><a xlink:href="add__radio_8cpp.html" target="_top" xlink:title="add_radio.cpp">
<polygon fill="white" stroke="black" points="97,-0.5 97,-19.5 174,-19.5 174,-0.5 97,-0.5"/>
<text text-anchor="middle" x="135.5" y="-7.5" font-family="Helvetica,sans-Serif" font-size="10.00">add_radio.cpp</text>
</a>
</g>
</g>
<!-- Node1&#45;&gt;Node3 -->
<g id="edge2" class="edge"><title>Node1&#45;&gt;Node3</title>
<path fill="none" stroke="midnightblue" d="M170.424,-48.7175C161.611,-39.1997 150.834,-27.5608 143.603,-19.7511"/>
<polygon fill="midnightblue" stroke="midnightblue" points="167.881,-51.1233 177.244,-56.083 173.018,-46.3674 167.881,-51.1233"/>
</g>
<!-- Node4 -->
<g id="node4" class="node"><title>Node4</title>
<g id="a_node4"><a xlink:href="agent__radio_8cpp.html" target="_top" xlink:title="Agent Radio for Satellite Ground Station. ">
<polygon fill="white" stroke="black" points="192.5,-0.5 192.5,-19.5 278.5,-19.5 278.5,-0.5 192.5,-0.5"/>
<text text-anchor="middle" x="235.5" y="-7.5" font-family="Helvetica,sans-Serif" font-size="10.00">agent_radio.cpp</text>
</a>
</g>
</g>
<!-- Node1&#45;&gt;Node4 -->
<g id="edge3" class="edge"><title>Node1&#45;&gt;Node4</title>
<path fill="none" stroke="midnightblue" d="M200.576,-48.7175C209.389,-39.1997 220.166,-27.5608 227.397,-19.7511"/>
<polygon fill="midnightblue" stroke="midnightblue" points="197.982,-46.3674 193.756,-56.083 203.119,-51.1233 197.982,-46.3674"/>
</g>
<!-- Node5 -->
<g id="node5" class="node"><title>Node5</title>
<g id="a_node5"><a xlink:href="ic9100_8cpp.html" target="_top" xlink:title="ic9100.cpp">
<polygon fill="white" stroke="black" points="296.5,-0.5 296.5,-19.5 360.5,-19.5 360.5,-0.5 296.5,-0.5"/>
<text text-anchor="middle" x="328.5" y="-7.5" font-family="Helvetica,sans-Serif" font-size="10.00">ic9100.cpp</text>
</a>
</g>
</g>
<!-- Node1&#45;&gt;Node5 -->
<g id="edge4" class="edge"><title>Node1&#45;&gt;Node5</title>
<path fill="none" stroke="midnightblue" d="M217.527,-52.9058C244.412,-42.7536 282.141,-28.5063 305.947,-19.5164"/>
<polygon fill="midnightblue" stroke="midnightblue" points="216.278,-49.6364 208.159,-56.4435 218.75,-56.1851 216.278,-49.6364"/>
</g>
</g>
</svg>
