<?xml version="1.0" encoding="UTF-8" standalone="no"?>
<!DOCTYPE svg PUBLIC "-//W3C//DTD SVG 1.1//EN"
 "http://www.w3.org/Graphics/SVG/1.1/DTD/svg11.dtd">
<!-- Generated by graphviz version 2.38.0 (20140413.2041)
 -->
<!-- Title: inffast.c Pages: 1 -->
<svg width="305pt" height="252pt"
 viewBox="0.00 0.00 305.00 252.00" xmlns="http://www.w3.org/2000/svg" xmlns:xlink="http://www.w3.org/1999/xlink">
<g id="graph0" class="graph" transform="scale(1 1) rotate(0) translate(4 248)">
<title>inffast.c</title>
<polygon fill="white" stroke="none" points="-4,4 -4,-248 301,-248 301,4 -4,4"/>
<!-- Node1 -->
<g id="node1" class="node"><title>Node1</title>
<polygon fill="#bfbfbf" stroke="black" points="139,-224.5 139,-243.5 191,-243.5 191,-224.5 139,-224.5"/>
<text text-anchor="middle" x="165" y="-231.5" font-family="Helvetica,sans-Serif" font-size="10.00">inffast.c</text>
</g>
<!-- Node2 -->
<g id="node2" class="node"><title>Node2</title>
<g id="a_node2"><a xlink:href="zutil_8h.html" target="_top" xlink:title="zutil.h">
<polygon fill="white" stroke="black" points="39.5,-168.5 39.5,-187.5 82.5,-187.5 82.5,-168.5 39.5,-168.5"/>
<text text-anchor="middle" x="61" y="-175.5" font-family="Helvetica,sans-Serif" font-size="10.00">zutil.h</text>
</a>
</g>
</g>
<!-- Node1&#45;&gt;Node2 -->
<g id="edge1" class="edge"><title>Node1&#45;&gt;Node2</title>
<path fill="none" stroke="midnightblue" d="M148.291,-224.324C131.688,-215.703 105.998,-202.364 86.7795,-192.386"/>
<polygon fill="midnightblue" stroke="midnightblue" points="88.1558,-189.156 77.6679,-187.655 84.93,-195.369 88.1558,-189.156"/>
</g>
<!-- Node7 -->
<g id="node7" class="node"><title>Node7</title>
<g id="a_node7"><a xlink:href="inftrees_8h.html" target="_top" xlink:title="inftrees.h">
<polygon fill="white" stroke="black" points="100.5,-168.5 100.5,-187.5 157.5,-187.5 157.5,-168.5 100.5,-168.5"/>
<text text-anchor="middle" x="129" y="-175.5" font-family="Helvetica,sans-Serif" font-size="10.00">inftrees.h</text>
</a>
</g>
</g>
<!-- Node1&#45;&gt;Node7 -->
<g id="edge6" class="edge"><title>Node1&#45;&gt;Node7</title>
<path fill="none" stroke="midnightblue" d="M159.055,-224.083C154.023,-216.534 146.663,-205.495 140.487,-196.23"/>
<polygon fill="midnightblue" stroke="midnightblue" points="143.293,-194.13 134.834,-187.751 137.469,-198.013 143.293,-194.13"/>
</g>
<!-- Node8 -->
<g id="node8" class="node"><title>Node8</title>
<g id="a_node8"><a xlink:href="inflate_8h.html" target="_top" xlink:title="inflate.h">
<polygon fill="white" stroke="black" points="175.5,-168.5 175.5,-187.5 226.5,-187.5 226.5,-168.5 175.5,-168.5"/>
<text text-anchor="middle" x="201" y="-175.5" font-family="Helvetica,sans-Serif" font-size="10.00">inflate.h</text>
</a>
</g>
</g>
<!-- Node1&#45;&gt;Node8 -->
<g id="edge7" class="edge"><title>Node1&#45;&gt;Node8</title>
<path fill="none" stroke="midnightblue" d="M170.945,-224.083C175.977,-216.534 183.337,-205.495 189.513,-196.23"/>
<polygon fill="midnightblue" stroke="midnightblue" points="192.531,-198.013 195.166,-187.751 186.707,-194.13 192.531,-198.013"/>
</g>
<!-- Node9 -->
<g id="node9" class="node"><title>Node9</title>
<g id="a_node9"><a xlink:href="inffast_8h.html" target="_top" xlink:title="inffast.h">
<polygon fill="white" stroke="black" points="245,-168.5 245,-187.5 297,-187.5 297,-168.5 245,-168.5"/>
<text text-anchor="middle" x="271" y="-175.5" font-family="Helvetica,sans-Serif" font-size="10.00">inffast.h</text>
</a>
</g>
</g>
<!-- Node1&#45;&gt;Node9 -->
<g id="edge8" class="edge"><title>Node1&#45;&gt;Node9</title>
<path fill="none" stroke="midnightblue" d="M182.031,-224.324C199.03,-215.664 225.376,-202.242 244.993,-192.249"/>
<polygon fill="midnightblue" stroke="midnightblue" points="246.69,-195.312 254.012,-187.655 243.512,-189.075 246.69,-195.312"/>
</g>
<!-- Node3 -->
<g id="node3" class="node"><title>Node3</title>
<g id="a_node3"><a xlink:href="zlib_8h.html" target="_top" xlink:title="thirdparty/zlib/zlib.h">
<polygon fill="white" stroke="black" points="10.5,-112.5 10.5,-131.5 111.5,-131.5 111.5,-112.5 10.5,-112.5"/>
<text text-anchor="middle" x="61" y="-119.5" font-family="Helvetica,sans-Serif" font-size="10.00">thirdparty/zlib/zlib.h</text>
</a>
</g>
</g>
<!-- Node2&#45;&gt;Node3 -->
<g id="edge2" class="edge"><title>Node2&#45;&gt;Node3</title>
<path fill="none" stroke="midnightblue" d="M61,-168.083C61,-161.006 61,-150.861 61,-141.986"/>
<polygon fill="midnightblue" stroke="midnightblue" points="64.5001,-141.751 61,-131.751 57.5001,-141.751 64.5001,-141.751"/>
</g>
<!-- Node4 -->
<g id="node4" class="node"><title>Node4</title>
<g id="a_node4"><a xlink:href="zconf_8h.html" target="_top" xlink:title="zconf.h">
<polygon fill="white" stroke="black" points="36.5,-56.5 36.5,-75.5 85.5,-75.5 85.5,-56.5 36.5,-56.5"/>
<text text-anchor="middle" x="61" y="-63.5" font-family="Helvetica,sans-Serif" font-size="10.00">zconf.h</text>
</a>
</g>
</g>
<!-- Node3&#45;&gt;Node4 -->
<g id="edge3" class="edge"><title>Node3&#45;&gt;Node4</title>
<path fill="none" stroke="midnightblue" d="M61,-112.083C61,-105.006 61,-94.8611 61,-85.9865"/>
<polygon fill="midnightblue" stroke="midnightblue" points="64.5001,-85.751 61,-75.7511 57.5001,-85.7511 64.5001,-85.751"/>
</g>
<!-- Node5 -->
<g id="node5" class="node"><title>Node5</title>
<polygon fill="white" stroke="#bfbfbf" points="0,-0.5 0,-19.5 52,-19.5 52,-0.5 0,-0.5"/>
<text text-anchor="middle" x="26" y="-7.5" font-family="Helvetica,sans-Serif" font-size="10.00">stdarg.h</text>
</g>
<!-- Node4&#45;&gt;Node5 -->
<g id="edge4" class="edge"><title>Node4&#45;&gt;Node5</title>
<path fill="none" stroke="midnightblue" d="M55.2205,-56.083C50.3276,-48.5341 43.1726,-37.4948 37.1674,-28.2298"/>
<polygon fill="midnightblue" stroke="midnightblue" points="40.048,-26.239 31.672,-19.7511 34.174,-30.0463 40.048,-26.239"/>
</g>
<!-- Node6 -->
<g id="node6" class="node"><title>Node6</title>
<polygon fill="white" stroke="#bfbfbf" points="70.5,-0.5 70.5,-19.5 121.5,-19.5 121.5,-0.5 70.5,-0.5"/>
<text text-anchor="middle" x="96" y="-7.5" font-family="Helvetica,sans-Serif" font-size="10.00">unistd.h</text>
</g>
<!-- Node4&#45;&gt;Node6 -->
<g id="edge5" class="edge"><title>Node4&#45;&gt;Node6</title>
<path fill="none" stroke="midnightblue" d="M66.7795,-56.083C71.6724,-48.5341 78.8274,-37.4948 84.8326,-28.2298"/>
<polygon fill="midnightblue" stroke="midnightblue" points="87.826,-30.0463 90.328,-19.7511 81.952,-26.239 87.826,-30.0463"/>
</g>
</g>
</svg>
