<?xml version="1.0" encoding="UTF-8" standalone="no"?>
<!DOCTYPE svg PUBLIC "-//W3C//DTD SVG 1.1//EN"
 "http://www.w3.org/Graphics/SVG/1.1/DTD/svg11.dtd">
<!-- Generated by graphviz version 2.38.0 (20140413.2041)
 -->
<!-- Title: Graphical Class Hierarchy Pages: 1 -->
<svg width="258pt" height="104pt"
 viewBox="0.00 0.00 258.00 104.00" xmlns="http://www.w3.org/2000/svg" xmlns:xlink="http://www.w3.org/1999/xlink">
<g id="graph0" class="graph" transform="scale(1 1) rotate(0) translate(4 100)">
<title>Graphical Class Hierarchy</title>
<polygon fill="white" stroke="none" points="-4,4 -4,-100 254,-100 254,4 -4,4"/>
<!-- Node1 -->
<g id="node1" class="node"><title>Node1</title>
<polygon fill="white" stroke="#bfbfbf" points="0,-38.5 0,-57.5 41,-57.5 41,-38.5 0,-38.5"/>
<text text-anchor="middle" x="20.5" y="-45.5" font-family="Helvetica,sans-Serif" font-size="10.00">Panel</text>
</g>
<!-- Node2 -->
<g id="node2" class="node"><title>Node2</title>
<g id="a_node2"><a xlink:href="classimu__stream__plot2_1_1_bound_control_box.html" target="_top" xlink:title="imu_stream_plot2.BoundControlBox">
<polygon fill="white" stroke="black" points="77,-76.5 77,-95.5 250,-95.5 250,-76.5 77,-76.5"/>
<text text-anchor="middle" x="163.5" y="-83.5" font-family="Helvetica,sans-Serif" font-size="10.00">imu_stream_plot2.BoundControlBox</text>
</a>
</g>
</g>
<!-- Node1&#45;&gt;Node2 -->
<g id="edge1" class="edge"><title>Node1&#45;&gt;Node2</title>
<path fill="none" stroke="midnightblue" d="M50.5712,-58.6321C59.0331,-61.5414 68.3328,-64.5616 77,-67 89.2956,-70.4593 102.728,-73.694 115.226,-76.4792"/>
<polygon fill="midnightblue" stroke="midnightblue" points="51.7056,-55.321 41.1108,-55.3092 49.3858,-61.9254 51.7056,-55.321"/>
</g>
<!-- Node3 -->
<g id="node3" class="node"><title>Node3</title>
<g id="a_node3"><a xlink:href="classimu__stream__plot_1_1_bound_control_box.html" target="_top" xlink:title="imu_stream_plot.BoundControlBox">
<polygon fill="white" stroke="black" points="79.5,-38.5 79.5,-57.5 247.5,-57.5 247.5,-38.5 79.5,-38.5"/>
<text text-anchor="middle" x="163.5" y="-45.5" font-family="Helvetica,sans-Serif" font-size="10.00">imu_stream_plot.BoundControlBox</text>
</a>
</g>
</g>
<!-- Node1&#45;&gt;Node3 -->
<g id="edge2" class="edge"><title>Node1&#45;&gt;Node3</title>
<path fill="none" stroke="midnightblue" d="M51.1061,-48C59.5575,-48 69.2072,-48 79.2124,-48"/>
<polygon fill="midnightblue" stroke="midnightblue" points="51.1055,-44.5001 41.1054,-48 51.1054,-51.5001 51.1055,-44.5001"/>
</g>
<!-- Node4 -->
<g id="node4" class="node"><title>Node4</title>
<g id="a_node4"><a xlink:href="classplot_data_1_1_bound_control_box.html" target="_top" xlink:title="plotData.BoundControlBox">
<polygon fill="white" stroke="black" points="97,-0.5 97,-19.5 230,-19.5 230,-0.5 97,-0.5"/>
<text text-anchor="middle" x="163.5" y="-7.5" font-family="Helvetica,sans-Serif" font-size="10.00">plotData.BoundControlBox</text>
</a>
</g>
</g>
<!-- Node1&#45;&gt;Node4 -->
<g id="edge3" class="edge"><title>Node1&#45;&gt;Node4</title>
<path fill="none" stroke="midnightblue" d="M50.5712,-37.3679C59.0331,-34.4586 68.3328,-31.4384 77,-29 89.2956,-25.5407 102.728,-22.306 115.226,-19.5208"/>
<polygon fill="midnightblue" stroke="midnightblue" points="49.3858,-34.0746 41.1108,-40.6908 51.7056,-40.679 49.3858,-34.0746"/>
</g>
</g>
</svg>
