<?xml version="1.0" encoding="UTF-8" standalone="no"?>
<!DOCTYPE svg PUBLIC "-//W3C//DTD SVG 1.1//EN"
 "http://www.w3.org/Graphics/SVG/1.1/DTD/svg11.dtd">
<!-- Generated by graphviz version 2.38.0 (20140413.2041)
 -->
<!-- Title: Graphical Class Hierarchy Pages: 1 -->
<svg width="358pt" height="382pt"
 viewBox="0.00 0.00 358.00 382.00" xmlns="http://www.w3.org/2000/svg" xmlns:xlink="http://www.w3.org/1999/xlink">
<g id="graph0" class="graph" transform="scale(1 1) rotate(0) translate(4 378)">
<title>Graphical Class Hierarchy</title>
<polygon fill="white" stroke="none" points="-4,4 -4,-378 354,-378 354,4 -4,4"/>
<!-- Node1 -->
<g id="node1" class="node"><title>Node1</title>
<g id="a_node1"><a xlink:href="class_cosmos_1_1_physics_1_1_propagator.html" target="_top" xlink:title="Cosmos::Physics::Propagator">
<polygon fill="white" stroke="black" points="0,-177 0,-196 148,-196 148,-177 0,-177"/>
<text text-anchor="middle" x="74" y="-184" font-family="Helvetica,sans-Serif" font-size="10.00">Cosmos::Physics::Propagator</text>
</a>
</g>
</g>
<!-- Node2 -->
<g id="node2" class="node"><title>Node2</title>
<g id="a_node2"><a xlink:href="class_cosmos_1_1_physics_1_1_electrical_propagator.html" target="_top" xlink:title="Cosmos::Physics::Electrical\lPropagator">
<polygon fill="white" stroke="black" points="196.5,-343.5 196.5,-373.5 337.5,-373.5 337.5,-343.5 196.5,-343.5"/>
<text text-anchor="start" x="204.5" y="-361.5" font-family="Helvetica,sans-Serif" font-size="10.00">Cosmos::Physics::Electrical</text>
<text text-anchor="middle" x="267" y="-350.5" font-family="Helvetica,sans-Serif" font-size="10.00">Propagator</text>
</a>
</g>
</g>
<!-- Node1&#45;&gt;Node2 -->
<g id="edge1" class="edge"><title>Node1&#45;&gt;Node2</title>
<path fill="none" stroke="midnightblue" d="M83.6582,-205.158C99.2181,-236.627 134.921,-300.171 184,-334.5 188.862,-337.901 194.207,-340.825 199.764,-343.338"/>
<polygon fill="midnightblue" stroke="midnightblue" points="86.8118,-203.64 79.3226,-196.146 80.5038,-206.675 86.8118,-203.64"/>
</g>
<!-- Node3 -->
<g id="node3" class="node"><title>Node3</title>
<g id="a_node3"><a xlink:href="class_cosmos_1_1_physics_1_1_gauss_jackson_position_propagator.html" target="_top" xlink:title="Cosmos::Physics::GaussJackson\lPositionPropagator">
<polygon fill="white" stroke="black" points="184,-294.5 184,-324.5 350,-324.5 350,-294.5 184,-294.5"/>
<text text-anchor="start" x="192" y="-312.5" font-family="Helvetica,sans-Serif" font-size="10.00">Cosmos::Physics::GaussJackson</text>
<text text-anchor="middle" x="267" y="-301.5" font-family="Helvetica,sans-Serif" font-size="10.00">PositionPropagator</text>
</a>
</g>
</g>
<!-- Node1&#45;&gt;Node3 -->
<g id="edge2" class="edge"><title>Node1&#45;&gt;Node3</title>
<path fill="none" stroke="midnightblue" d="M89.5116,-203.846C108.875,-225.916 145.247,-263.77 184,-285.5 190.081,-288.91 196.693,-291.876 203.436,-294.448"/>
<polygon fill="midnightblue" stroke="midnightblue" points="92.1301,-201.523 82.9539,-196.227 86.8246,-206.09 92.1301,-201.523"/>
</g>
<!-- Node4 -->
<g id="node4" class="node"><title>Node4</title>
<g id="a_node4"><a xlink:href="class_cosmos_1_1_physics_1_1_inertial_attitude_propagator.html" target="_top" xlink:title="Cosmos::Physics::Inertial\lAttitudePropagator">
<polygon fill="white" stroke="black" points="202,-245.5 202,-275.5 332,-275.5 332,-245.5 202,-245.5"/>
<text text-anchor="start" x="210" y="-263.5" font-family="Helvetica,sans-Serif" font-size="10.00">Cosmos::Physics::Inertial</text>
<text text-anchor="middle" x="267" y="-252.5" font-family="Helvetica,sans-Serif" font-size="10.00">AttitudePropagator</text>
</a>
</g>
</g>
<!-- Node1&#45;&gt;Node4 -->
<g id="edge3" class="edge"><title>Node1&#45;&gt;Node4</title>
<path fill="none" stroke="midnightblue" d="M102.543,-200.488C124.303,-211.205 155.627,-225.904 184,-236.5 192.477,-239.666 201.569,-242.685 210.503,-245.449"/>
<polygon fill="midnightblue" stroke="midnightblue" points="104.065,-197.335 93.5523,-196.017 100.948,-203.603 104.065,-197.335"/>
</g>
<!-- Node5 -->
<g id="node5" class="node"><title>Node5</title>
<g id="a_node5"><a xlink:href="class_cosmos_1_1_physics_1_1_inertial_position_propagator.html" target="_top" xlink:title="Cosmos::Physics::Inertial\lPositionPropagator">
<polygon fill="white" stroke="black" points="202,-196.5 202,-226.5 332,-226.5 332,-196.5 202,-196.5"/>
<text text-anchor="start" x="210" y="-214.5" font-family="Helvetica,sans-Serif" font-size="10.00">Cosmos::Physics::Inertial</text>
<text text-anchor="middle" x="267" y="-203.5" font-family="Helvetica,sans-Serif" font-size="10.00">PositionPropagator</text>
</a>
</g>
</g>
<!-- Node1&#45;&gt;Node5 -->
<g id="edge4" class="edge"><title>Node1&#45;&gt;Node5</title>
<path fill="none" stroke="midnightblue" d="M157.876,-197.348C172.617,-199.277 187.767,-201.26 201.886,-203.108"/>
<polygon fill="midnightblue" stroke="midnightblue" points="158.123,-193.85 147.754,-196.023 157.215,-200.791 158.123,-193.85"/>
</g>
<!-- Node6 -->
<g id="node6" class="node"><title>Node6</title>
<g id="a_node6"><a xlink:href="class_cosmos_1_1_physics_1_1_iterative_attitude_propagator.html" target="_top" xlink:title="Cosmos::Physics::Iterative\lAttitudePropagator">
<polygon fill="white" stroke="black" points="199,-147.5 199,-177.5 335,-177.5 335,-147.5 199,-147.5"/>
<text text-anchor="start" x="207" y="-165.5" font-family="Helvetica,sans-Serif" font-size="10.00">Cosmos::Physics::Iterative</text>
<text text-anchor="middle" x="267" y="-154.5" font-family="Helvetica,sans-Serif" font-size="10.00">AttitudePropagator</text>
</a>
</g>
</g>
<!-- Node1&#45;&gt;Node6 -->
<g id="edge5" class="edge"><title>Node1&#45;&gt;Node6</title>
<path fill="none" stroke="midnightblue" d="M158.333,-176.029C171.919,-174.322 185.84,-172.572 198.971,-170.923"/>
<polygon fill="midnightblue" stroke="midnightblue" points="157.512,-172.604 148.026,-177.324 158.385,-179.55 157.512,-172.604"/>
</g>
<!-- Node7 -->
<g id="node7" class="node"><title>Node7</title>
<g id="a_node7"><a xlink:href="class_cosmos_1_1_physics_1_1_iterative_position_propagator.html" target="_top" xlink:title="Cosmos::Physics::Iterative\lPositionPropagator">
<polygon fill="white" stroke="black" points="199,-98.5 199,-128.5 335,-128.5 335,-98.5 199,-98.5"/>
<text text-anchor="start" x="207" y="-116.5" font-family="Helvetica,sans-Serif" font-size="10.00">Cosmos::Physics::Iterative</text>
<text text-anchor="middle" x="267" y="-105.5" font-family="Helvetica,sans-Serif" font-size="10.00">PositionPropagator</text>
</a>
</g>
</g>
<!-- Node1&#45;&gt;Node7 -->
<g id="edge6" class="edge"><title>Node1&#45;&gt;Node7</title>
<path fill="none" stroke="midnightblue" d="M104.118,-172.546C125.853,-162.409 156.431,-148.732 184,-138.5 193.349,-135.03 203.421,-131.665 213.197,-128.586"/>
<polygon fill="midnightblue" stroke="midnightblue" points="102.356,-169.507 94.7963,-176.929 105.335,-175.841 102.356,-169.507"/>
</g>
<!-- Node8 -->
<g id="node8" class="node"><title>Node8</title>
<g id="a_node8"><a xlink:href="class_cosmos_1_1_physics_1_1_l_v_l_h_attitude_propagator.html" target="_top" xlink:title="Cosmos::Physics::LVLHAttitude\lPropagator">
<polygon fill="white" stroke="black" points="187.5,-49.5 187.5,-79.5 346.5,-79.5 346.5,-49.5 187.5,-49.5"/>
<text text-anchor="start" x="195.5" y="-67.5" font-family="Helvetica,sans-Serif" font-size="10.00">Cosmos::Physics::LVLHAttitude</text>
<text text-anchor="middle" x="267" y="-56.5" font-family="Helvetica,sans-Serif" font-size="10.00">Propagator</text>
</a>
</g>
</g>
<!-- Node1&#45;&gt;Node8 -->
<g id="edge7" class="edge"><title>Node1&#45;&gt;Node8</title>
<path fill="none" stroke="midnightblue" d="M90.183,-168.968C109.801,-147.348 145.975,-110.848 184,-89.5 190.748,-85.7113 198.139,-82.4303 205.631,-79.607"/>
<polygon fill="midnightblue" stroke="midnightblue" points="87.3158,-166.925 83.2802,-176.721 92.544,-171.58 87.3158,-166.925"/>
</g>
<!-- Node9 -->
<g id="node9" class="node"><title>Node9</title>
<g id="a_node9"><a xlink:href="class_cosmos_1_1_physics_1_1_thermal_propagator.html" target="_top" xlink:title="Cosmos::Physics::Thermal\lPropagator">
<polygon fill="white" stroke="black" points="199,-0.5 199,-30.5 335,-30.5 335,-0.5 199,-0.5"/>
<text text-anchor="start" x="207" y="-18.5" font-family="Helvetica,sans-Serif" font-size="10.00">Cosmos::Physics::Thermal</text>
<text text-anchor="middle" x="267" y="-7.5" font-family="Helvetica,sans-Serif" font-size="10.00">Propagator</text>
</a>
</g>
</g>
<!-- Node1&#45;&gt;Node9 -->
<g id="edge8" class="edge"><title>Node1&#45;&gt;Node9</title>
<path fill="none" stroke="midnightblue" d="M84.2019,-167.299C100.146,-136.061 135.873,-74.3312 184,-40.5 189.479,-36.6484 195.566,-33.3785 201.877,-30.6046"/>
<polygon fill="midnightblue" stroke="midnightblue" points="80.8764,-166.126 79.5638,-176.64 87.1461,-169.24 80.8764,-166.126"/>
</g>
</g>
</svg>
