<?xml version="1.0" encoding="UTF-8" standalone="no"?>
<!DOCTYPE svg PUBLIC "-//W3C//DTD SVG 1.1//EN"
 "http://www.w3.org/Graphics/SVG/1.1/DTD/svg11.dtd">
<!-- Generated by graphviz version 2.38.0 (20140413.2041)
 -->
<!-- Title: Graphical Class Hierarchy Pages: 1 -->
<svg width="415pt" height="372pt"
 viewBox="0.00 0.00 415.00 371.50" xmlns="http://www.w3.org/2000/svg" xmlns:xlink="http://www.w3.org/1999/xlink">
<g id="graph0" class="graph" transform="scale(1 1) rotate(0) translate(4 367.5)">
<title>Graphical Class Hierarchy</title>
<polygon fill="white" stroke="none" points="-4,4 -4,-367.5 411,-367.5 411,4 -4,4"/>
<!-- Node1 -->
<g id="node1" class="node"><title>Node1</title>
<g id="a_node1"><a xlink:href="classjson11_1_1_json_value.html" target="_top" xlink:title="json11::JsonValue">
<polygon fill="white" stroke="black" points="0,-177 0,-196 97,-196 97,-177 0,-177"/>
<text text-anchor="middle" x="48.5" y="-184" font-family="Helvetica,sans-Serif" font-size="10.00">json11::JsonValue</text>
</a>
</g>
</g>
<!-- Node2 -->
<g id="node2" class="node"><title>Node2</title>
<g id="a_node2"><a xlink:href="classjson11_1_1_value.html" target="_top" xlink:title="json11::Value\&lt; tag, T \&gt;">
<polygon fill="white" stroke="black" points="139,-344 139,-363 258,-363 258,-344 139,-344"/>
<text text-anchor="middle" x="198.5" y="-351" font-family="Helvetica,sans-Serif" font-size="10.00">json11::Value&lt; tag, T &gt;</text>
</a>
</g>
</g>
<!-- Node1&#45;&gt;Node2 -->
<g id="edge1" class="edge"><title>Node1&#45;&gt;Node2</title>
<path fill="none" stroke="midnightblue" d="M55.1711,-205.953C65.4164,-237.652 90.036,-300.336 133,-334.5 137.843,-338.351 143.445,-341.421 149.284,-343.87"/>
<polygon fill="midnightblue" stroke="midnightblue" points="58.4331,-204.654 52.1402,-196.13 51.7443,-206.718 58.4331,-204.654"/>
</g>
<!-- Node3 -->
<g id="node3" class="node"><title>Node3</title>
<g id="a_node3"><a xlink:href="classjson11_1_1_value.html" target="_top" xlink:title="json11::Value\&lt; Json\l::ARRAY, Json::array \&gt;">
<polygon fill="white" stroke="black" points="137.5,-294.5 137.5,-324.5 259.5,-324.5 259.5,-294.5 137.5,-294.5"/>
<text text-anchor="start" x="145.5" y="-312.5" font-family="Helvetica,sans-Serif" font-size="10.00">json11::Value&lt; Json</text>
<text text-anchor="middle" x="198.5" y="-301.5" font-family="Helvetica,sans-Serif" font-size="10.00">::ARRAY, Json::array &gt;</text>
</a>
</g>
</g>
<!-- Node1&#45;&gt;Node3 -->
<g id="edge2" class="edge"><title>Node1&#45;&gt;Node3</title>
<path fill="none" stroke="midnightblue" d="M60.6701,-204.78C74.9457,-226.749 101.604,-263.408 133,-285.5 137.788,-288.869 143.106,-291.828 148.576,-294.41"/>
<polygon fill="midnightblue" stroke="midnightblue" points="63.4748,-202.666 55.1709,-196.086 57.559,-206.408 63.4748,-202.666"/>
</g>
<!-- Node5 -->
<g id="node5" class="node"><title>Node5</title>
<g id="a_node5"><a xlink:href="classjson11_1_1_value.html" target="_top" xlink:title="json11::Value\&lt; Json\l::BOOL, bool \&gt;">
<polygon fill="white" stroke="black" points="145.5,-245.5 145.5,-275.5 251.5,-275.5 251.5,-245.5 145.5,-245.5"/>
<text text-anchor="start" x="153.5" y="-263.5" font-family="Helvetica,sans-Serif" font-size="10.00">json11::Value&lt; Json</text>
<text text-anchor="middle" x="198.5" y="-252.5" font-family="Helvetica,sans-Serif" font-size="10.00">::BOOL, bool &gt;</text>
</a>
</g>
</g>
<!-- Node1&#45;&gt;Node5 -->
<g id="edge4" class="edge"><title>Node1&#45;&gt;Node5</title>
<path fill="none" stroke="midnightblue" d="M73.0812,-201.717C89.5065,-211.97 112.127,-225.411 133,-235.5 140.245,-239.002 148.115,-242.383 155.788,-245.467"/>
<polygon fill="midnightblue" stroke="midnightblue" points="74.5099,-198.479 64.1862,-196.098 70.7715,-204.398 74.5099,-198.479"/>
</g>
<!-- Node7 -->
<g id="node7" class="node"><title>Node7</title>
<g id="a_node7"><a xlink:href="classjson11_1_1_value.html" target="_top" xlink:title="json11::Value\&lt; Json\l::NUL, NullStruct \&gt;">
<polygon fill="white" stroke="black" points="145.5,-196.5 145.5,-226.5 251.5,-226.5 251.5,-196.5 145.5,-196.5"/>
<text text-anchor="start" x="153.5" y="-214.5" font-family="Helvetica,sans-Serif" font-size="10.00">json11::Value&lt; Json</text>
<text text-anchor="middle" x="198.5" y="-203.5" font-family="Helvetica,sans-Serif" font-size="10.00">::NUL, NullStruct &gt;</text>
</a>
</g>
</g>
<!-- Node1&#45;&gt;Node7 -->
<g id="edge6" class="edge"><title>Node1&#45;&gt;Node7</title>
<path fill="none" stroke="midnightblue" d="M107.078,-196.226C119.683,-198.355 132.958,-200.598 145.337,-202.689"/>
<polygon fill="midnightblue" stroke="midnightblue" points="107.586,-192.762 97.1428,-194.548 106.42,-199.665 107.586,-192.762"/>
</g>
<!-- Node9 -->
<g id="node9" class="node"><title>Node9</title>
<g id="a_node9"><a xlink:href="classjson11_1_1_value.html" target="_top" xlink:title="json11::Value\&lt; Json\l::NUMBER, double \&gt;">
<polygon fill="white" stroke="black" points="143.5,-147.5 143.5,-177.5 253.5,-177.5 253.5,-147.5 143.5,-147.5"/>
<text text-anchor="start" x="151.5" y="-165.5" font-family="Helvetica,sans-Serif" font-size="10.00">json11::Value&lt; Json</text>
<text text-anchor="middle" x="198.5" y="-154.5" font-family="Helvetica,sans-Serif" font-size="10.00">::NUMBER, double &gt;</text>
</a>
</g>
</g>
<!-- Node1&#45;&gt;Node9 -->
<g id="edge8" class="edge"><title>Node1&#45;&gt;Node9</title>
<path fill="none" stroke="midnightblue" d="M107.35,-177.119C119.171,-175.202 131.571,-173.191 143.26,-171.296"/>
<polygon fill="midnightblue" stroke="midnightblue" points="106.454,-173.718 97.1428,-178.774 107.574,-180.628 106.454,-173.718"/>
</g>
<!-- Node11 -->
<g id="node11" class="node"><title>Node11</title>
<g id="a_node11"><a xlink:href="classjson11_1_1_value.html" target="_top" xlink:title="json11::Value\&lt; Json\l::NUMBER, int \&gt;">
<polygon fill="white" stroke="black" points="145.5,-98.5 145.5,-128.5 251.5,-128.5 251.5,-98.5 145.5,-98.5"/>
<text text-anchor="start" x="153.5" y="-116.5" font-family="Helvetica,sans-Serif" font-size="10.00">json11::Value&lt; Json</text>
<text text-anchor="middle" x="198.5" y="-105.5" font-family="Helvetica,sans-Serif" font-size="10.00">::NUMBER, int &gt;</text>
</a>
</g>
</g>
<!-- Node1&#45;&gt;Node11 -->
<g id="edge10" class="edge"><title>Node1&#45;&gt;Node11</title>
<path fill="none" stroke="midnightblue" d="M73.0379,-171.193C89.4439,-160.9 112.059,-147.447 133,-137.5 139.583,-134.373 146.691,-131.373 153.701,-128.618"/>
<polygon fill="midnightblue" stroke="midnightblue" points="70.718,-168.52 64.1554,-176.838 74.4726,-174.428 70.718,-168.52"/>
</g>
<!-- Node13 -->
<g id="node13" class="node"><title>Node13</title>
<g id="a_node13"><a xlink:href="classjson11_1_1_value.html" target="_top" xlink:title="json11::Value\&lt; Json\l::OBJECT, Json::object \&gt;">
<polygon fill="white" stroke="black" points="133,-49.5 133,-79.5 264,-79.5 264,-49.5 133,-49.5"/>
<text text-anchor="start" x="141" y="-67.5" font-family="Helvetica,sans-Serif" font-size="10.00">json11::Value&lt; Json</text>
<text text-anchor="middle" x="198.5" y="-56.5" font-family="Helvetica,sans-Serif" font-size="10.00">::OBJECT, Json::object &gt;</text>
</a>
</g>
</g>
<!-- Node1&#45;&gt;Node13 -->
<g id="edge12" class="edge"><title>Node1&#45;&gt;Node13</title>
<path fill="none" stroke="midnightblue" d="M60.9335,-168.076C75.3049,-146.297 101.894,-110.272 133,-88.5 137.796,-85.1429 143.12,-82.1917 148.593,-79.614"/>
<polygon fill="midnightblue" stroke="midnightblue" points="57.8429,-166.411 55.381,-176.716 63.7318,-170.196 57.8429,-166.411"/>
</g>
<!-- Node15 -->
<g id="node15" class="node"><title>Node15</title>
<g id="a_node15"><a xlink:href="classjson11_1_1_value.html" target="_top" xlink:title="json11::Value\&lt; Json\l::STRING, string \&gt;">
<polygon fill="white" stroke="black" points="145.5,-0.5 145.5,-30.5 251.5,-30.5 251.5,-0.5 145.5,-0.5"/>
<text text-anchor="start" x="153.5" y="-18.5" font-family="Helvetica,sans-Serif" font-size="10.00">json11::Value&lt; Json</text>
<text text-anchor="middle" x="198.5" y="-7.5" font-family="Helvetica,sans-Serif" font-size="10.00">::STRING, string &gt;</text>
</a>
</g>
</g>
<!-- Node1&#45;&gt;Node15 -->
<g id="edge14" class="edge"><title>Node1&#45;&gt;Node15</title>
<path fill="none" stroke="midnightblue" d="M55.6352,-167.057C66.4133,-135.902 91.6156,-74.7284 133,-39.5 137.003,-36.0923 141.536,-33.1471 146.297,-30.6059"/>
<polygon fill="midnightblue" stroke="midnightblue" points="52.2519,-166.14 52.4215,-176.733 58.8951,-168.346 52.2519,-166.14"/>
</g>
<!-- Node4 -->
<g id="node4" class="node"><title>Node4</title>
<g id="a_node4"><a xlink:href="classjson11_1_1_json_array.html" target="_top" xlink:title="json11::JsonArray">
<polygon fill="white" stroke="black" points="306,-300 306,-319 401,-319 401,-300 306,-300"/>
<text text-anchor="middle" x="353.5" y="-307" font-family="Helvetica,sans-Serif" font-size="10.00">json11::JsonArray</text>
</a>
</g>
</g>
<!-- Node3&#45;&gt;Node4 -->
<g id="edge3" class="edge"><title>Node3&#45;&gt;Node4</title>
<path fill="none" stroke="midnightblue" d="M269.746,-309.5C282.001,-309.5 294.471,-309.5 305.887,-309.5"/>
<polygon fill="midnightblue" stroke="midnightblue" points="269.531,-306 259.531,-309.5 269.53,-313 269.531,-306"/>
</g>
<!-- Node6 -->
<g id="node6" class="node"><title>Node6</title>
<g id="a_node6"><a xlink:href="classjson11_1_1_json_boolean.html" target="_top" xlink:title="json11::JsonBoolean">
<polygon fill="white" stroke="black" points="300,-251 300,-270 407,-270 407,-251 300,-251"/>
<text text-anchor="middle" x="353.5" y="-258" font-family="Helvetica,sans-Serif" font-size="10.00">json11::JsonBoolean</text>
</a>
</g>
</g>
<!-- Node5&#45;&gt;Node6 -->
<g id="edge5" class="edge"><title>Node5&#45;&gt;Node6</title>
<path fill="none" stroke="midnightblue" d="M261.759,-260.5C274.449,-260.5 287.68,-260.5 299.99,-260.5"/>
<polygon fill="midnightblue" stroke="midnightblue" points="261.726,-257 251.726,-260.5 261.726,-264 261.726,-257"/>
</g>
<!-- Node8 -->
<g id="node8" class="node"><title>Node8</title>
<g id="a_node8"><a xlink:href="classjson11_1_1_json_null.html" target="_top" xlink:title="json11::JsonNull">
<polygon fill="white" stroke="black" points="309,-202 309,-221 398,-221 398,-202 309,-202"/>
<text text-anchor="middle" x="353.5" y="-209" font-family="Helvetica,sans-Serif" font-size="10.00">json11::JsonNull</text>
</a>
</g>
</g>
<!-- Node7&#45;&gt;Node8 -->
<g id="edge7" class="edge"><title>Node7&#45;&gt;Node8</title>
<path fill="none" stroke="midnightblue" d="M261.889,-211.5C277.577,-211.5 294.086,-211.5 308.652,-211.5"/>
<polygon fill="midnightblue" stroke="midnightblue" points="261.726,-208 251.726,-211.5 261.726,-215 261.726,-208"/>
</g>
<!-- Node10 -->
<g id="node10" class="node"><title>Node10</title>
<g id="a_node10"><a xlink:href="classjson11_1_1_json_double.html" target="_top" xlink:title="json11::JsonDouble">
<polygon fill="white" stroke="black" points="302,-153 302,-172 405,-172 405,-153 302,-153"/>
<text text-anchor="middle" x="353.5" y="-160" font-family="Helvetica,sans-Serif" font-size="10.00">json11::JsonDouble</text>
</a>
</g>
</g>
<!-- Node9&#45;&gt;Node10 -->
<g id="edge9" class="edge"><title>Node9&#45;&gt;Node10</title>
<path fill="none" stroke="midnightblue" d="M263.918,-162.5C276.599,-162.5 289.734,-162.5 301.882,-162.5"/>
<polygon fill="midnightblue" stroke="midnightblue" points="263.873,-159 253.873,-162.5 263.873,-166 263.873,-159"/>
</g>
<!-- Node12 -->
<g id="node12" class="node"><title>Node12</title>
<g id="a_node12"><a xlink:href="classjson11_1_1_json_int.html" target="_top" xlink:title="json11::JsonInt">
<polygon fill="white" stroke="black" points="312,-104 312,-123 395,-123 395,-104 312,-104"/>
<text text-anchor="middle" x="353.5" y="-111" font-family="Helvetica,sans-Serif" font-size="10.00">json11::JsonInt</text>
</a>
</g>
</g>
<!-- Node11&#45;&gt;Node12 -->
<g id="edge11" class="edge"><title>Node11&#45;&gt;Node12</title>
<path fill="none" stroke="midnightblue" d="M261.993,-113.5C278.724,-113.5 296.379,-113.5 311.61,-113.5"/>
<polygon fill="midnightblue" stroke="midnightblue" points="261.726,-110 251.726,-113.5 261.726,-117 261.726,-110"/>
</g>
<!-- Node14 -->
<g id="node14" class="node"><title>Node14</title>
<g id="a_node14"><a xlink:href="classjson11_1_1_json_object.html" target="_top" xlink:title="json11::JsonObject">
<polygon fill="white" stroke="black" points="303,-55 303,-74 404,-74 404,-55 303,-55"/>
<text text-anchor="middle" x="353.5" y="-62" font-family="Helvetica,sans-Serif" font-size="10.00">json11::JsonObject</text>
</a>
</g>
</g>
<!-- Node13&#45;&gt;Node14 -->
<g id="edge13" class="edge"><title>Node13&#45;&gt;Node14</title>
<path fill="none" stroke="midnightblue" d="M274.402,-64.5C284.051,-64.5 293.733,-64.5 302.835,-64.5"/>
<polygon fill="midnightblue" stroke="midnightblue" points="274.386,-61.0001 264.386,-64.5 274.386,-68.0001 274.386,-61.0001"/>
</g>
<!-- Node16 -->
<g id="node16" class="node"><title>Node16</title>
<g id="a_node16"><a xlink:href="classjson11_1_1_json_string.html" target="_top" xlink:title="json11::JsonString">
<polygon fill="white" stroke="black" points="304.5,-6 304.5,-25 402.5,-25 402.5,-6 304.5,-6"/>
<text text-anchor="middle" x="353.5" y="-13" font-family="Helvetica,sans-Serif" font-size="10.00">json11::JsonString</text>
</a>
</g>
</g>
<!-- Node15&#45;&gt;Node16 -->
<g id="edge15" class="edge"><title>Node15&#45;&gt;Node16</title>
<path fill="none" stroke="midnightblue" d="M261.895,-15.5C276.062,-15.5 290.899,-15.5 304.368,-15.5"/>
<polygon fill="midnightblue" stroke="midnightblue" points="261.726,-12.0001 251.726,-15.5 261.726,-19.0001 261.726,-12.0001"/>
</g>
</g>
</svg>
