<?xml version="1.0" encoding="UTF-8" standalone="no"?>
<!DOCTYPE svg PUBLIC "-//W3C//DTD SVG 1.1//EN"
 "http://www.w3.org/Graphics/SVG/1.1/DTD/svg11.dtd">
<!-- Generated by graphviz version 2.38.0 (20140413.2041)
 -->
<!-- Title: Graphical Class Hierarchy Pages: 1 -->
<svg width="177pt" height="104pt"
 viewBox="0.00 0.00 177.00 104.00" xmlns="http://www.w3.org/2000/svg" xmlns:xlink="http://www.w3.org/1999/xlink">
<g id="graph0" class="graph" transform="scale(1 1) rotate(0) translate(4 100)">
<title>Graphical Class Hierarchy</title>
<polygon fill="white" stroke="none" points="-4,4 -4,-100 173,-100 173,4 -4,4"/>
<!-- Node1 -->
<g id="node1" class="node"><title>Node1</title>
<polygon fill="white" stroke="#bfbfbf" points="0,-38.5 0,-57.5 55,-57.5 55,-38.5 0,-38.5"/>
<text text-anchor="middle" x="27.5" y="-45.5" font-family="Helvetica,sans-Serif" font-size="10.00">QWidget</text>
</g>
<!-- Node2 -->
<g id="node2" class="node"><title>Node2</title>
<g id="a_node2"><a xlink:href="classeci2kep__test.html" target="_top" xlink:title="eci2kep_test">
<polygon fill="white" stroke="black" points="94,-76.5 94,-95.5 166,-95.5 166,-76.5 94,-76.5"/>
<text text-anchor="middle" x="130" y="-83.5" font-family="Helvetica,sans-Serif" font-size="10.00">eci2kep_test</text>
</a>
</g>
</g>
<!-- Node1&#45;&gt;Node2 -->
<g id="edge1" class="edge"><title>Node1&#45;&gt;Node2</title>
<path fill="none" stroke="midnightblue" d="M63.5813,-61.2646C76.7751,-66.2533 91.5085,-71.8241 103.648,-76.4141"/>
<polygon fill="midnightblue" stroke="midnightblue" points="64.452,-57.852 53.8604,-57.589 61.9762,-64.3996 64.452,-57.852"/>
</g>
<!-- Node3 -->
<g id="node3" class="node"><title>Node3</title>
<g id="a_node3"><a xlink:href="classrearth__test.html" target="_top" xlink:title="rearth_test">
<polygon fill="white" stroke="black" points="98.5,-38.5 98.5,-57.5 161.5,-57.5 161.5,-38.5 98.5,-38.5"/>
<text text-anchor="middle" x="130" y="-45.5" font-family="Helvetica,sans-Serif" font-size="10.00">rearth_test</text>
</a>
</g>
</g>
<!-- Node1&#45;&gt;Node3 -->
<g id="edge2" class="edge"><title>Node1&#45;&gt;Node3</title>
<path fill="none" stroke="midnightblue" d="M65.2267,-48C76.085,-48 87.8535,-48 98.2899,-48"/>
<polygon fill="midnightblue" stroke="midnightblue" points="65.1683,-44.5001 55.1683,-48 65.1683,-51.5001 65.1683,-44.5001"/>
</g>
<!-- Node4 -->
<g id="node4" class="node"><title>Node4</title>
<g id="a_node4"><a xlink:href="class_test_container.html" target="_top" xlink:title="TestContainer">
<polygon fill="white" stroke="black" points="91,-0.5 91,-19.5 169,-19.5 169,-0.5 91,-0.5"/>
<text text-anchor="middle" x="130" y="-7.5" font-family="Helvetica,sans-Serif" font-size="10.00">TestContainer</text>
</a>
</g>
</g>
<!-- Node1&#45;&gt;Node4 -->
<g id="edge3" class="edge"><title>Node1&#45;&gt;Node4</title>
<path fill="none" stroke="midnightblue" d="M63.5813,-34.7354C76.7751,-29.7467 91.5085,-24.1759 103.648,-19.5859"/>
<polygon fill="midnightblue" stroke="midnightblue" points="61.9762,-31.6004 53.8604,-38.411 64.452,-38.148 61.9762,-31.6004"/>
</g>
</g>
</svg>
