<?xml version="1.0" encoding="UTF-8" standalone="no"?>
<!DOCTYPE svg PUBLIC "-//W3C//DTD SVG 1.1//EN"
 "http://www.w3.org/Graphics/SVG/1.1/DTD/svg11.dtd">
<!-- Generated by graphviz version 2.38.0 (20140413.2041)
 -->
<!-- Title: Graphical Class Hierarchy Pages: 1 -->
<svg width="305pt" height="186pt"
 viewBox="0.00 0.00 305.00 186.00" xmlns="http://www.w3.org/2000/svg" xmlns:xlink="http://www.w3.org/1999/xlink">
<g id="graph0" class="graph" transform="scale(1 1) rotate(0) translate(4 182)">
<title>Graphical Class Hierarchy</title>
<polygon fill="white" stroke="none" points="-4,4 -4,-182 301,-182 301,4 -4,4"/>
<!-- Node1 -->
<g id="node1" class="node"><title>Node1</title>
<g id="a_node1"><a xlink:href="class_cosmos_1_1_math_1_1_vectors_1_1_vector.html" target="_top" xlink:title="Vector Class. ">
<polygon fill="white" stroke="black" points="0,-73.5 0,-103.5 121,-103.5 121,-73.5 0,-73.5"/>
<text text-anchor="start" x="8" y="-91.5" font-family="Helvetica,sans-Serif" font-size="10.00">Cosmos::Math::Vectors</text>
<text text-anchor="middle" x="60.5" y="-80.5" font-family="Helvetica,sans-Serif" font-size="10.00">::Vector</text>
</a>
</g>
</g>
<!-- Node2 -->
<g id="node2" class="node"><title>Node2</title>
<g id="a_node2"><a xlink:href="class_cosmos_1_1_math_1_1_quaternions_1_1_quaternion.html" target="_top" xlink:title="Cosmos::Math::Quaternions\l::Quaternion">
<polygon fill="white" stroke="black" points="157,-147.5 157,-177.5 297,-177.5 297,-147.5 157,-147.5"/>
<text text-anchor="start" x="165" y="-165.5" font-family="Helvetica,sans-Serif" font-size="10.00">Cosmos::Math::Quaternions</text>
<text text-anchor="middle" x="227" y="-154.5" font-family="Helvetica,sans-Serif" font-size="10.00">::Quaternion</text>
</a>
</g>
</g>
<!-- Node1&#45;&gt;Node2 -->
<g id="edge1" class="edge"><title>Node1&#45;&gt;Node2</title>
<path fill="none" stroke="midnightblue" d="M96.6201,-108.478C114.408,-118.185 136.525,-129.637 157,-138.5 164.216,-141.624 171.985,-144.642 179.614,-147.423"/>
<polygon fill="midnightblue" stroke="midnightblue" points="98.1912,-105.347 87.7442,-103.583 94.8111,-111.477 98.1912,-105.347"/>
</g>
<!-- Node3 -->
<g id="node3" class="node"><title>Node3</title>
<g id="a_node3"><a xlink:href="class_cosmos_1_1_math_1_1_vectors_1_1euler_vector.html" target="_top" xlink:title="Cosmos::Math::Vectors\l::eulerVector">
<polygon fill="white" stroke="black" points="166.5,-98.5 166.5,-128.5 287.5,-128.5 287.5,-98.5 166.5,-98.5"/>
<text text-anchor="start" x="174.5" y="-116.5" font-family="Helvetica,sans-Serif" font-size="10.00">Cosmos::Math::Vectors</text>
<text text-anchor="middle" x="227" y="-105.5" font-family="Helvetica,sans-Serif" font-size="10.00">::eulerVector</text>
</a>
</g>
</g>
<!-- Node1&#45;&gt;Node3 -->
<g id="edge2" class="edge"><title>Node1&#45;&gt;Node3</title>
<path fill="none" stroke="midnightblue" d="M131.479,-99.1351C143.126,-100.905 155.11,-102.726 166.466,-104.452"/>
<polygon fill="midnightblue" stroke="midnightblue" points="131.766,-95.6386 121.354,-97.5963 130.714,-102.559 131.766,-95.6386"/>
</g>
<!-- Node4 -->
<g id="node4" class="node"><title>Node4</title>
<g id="a_node4"><a xlink:href="class_cosmos_1_1_math_1_1_vectors_1_1geodetic_vector.html" target="_top" xlink:title="Cosmos::Math::Vectors\l::geodeticVector">
<polygon fill="white" stroke="black" points="166.5,-49.5 166.5,-79.5 287.5,-79.5 287.5,-49.5 166.5,-49.5"/>
<text text-anchor="start" x="174.5" y="-67.5" font-family="Helvetica,sans-Serif" font-size="10.00">Cosmos::Math::Vectors</text>
<text text-anchor="middle" x="227" y="-56.5" font-family="Helvetica,sans-Serif" font-size="10.00">::geodeticVector</text>
</a>
</g>
</g>
<!-- Node1&#45;&gt;Node4 -->
<g id="edge3" class="edge"><title>Node1&#45;&gt;Node4</title>
<path fill="none" stroke="midnightblue" d="M131.479,-78.2903C143.126,-76.591 155.11,-74.8426 166.466,-73.1858"/>
<polygon fill="midnightblue" stroke="midnightblue" points="130.744,-74.8605 121.354,-79.7676 131.754,-81.7871 130.744,-74.8605"/>
</g>
<!-- Node5 -->
<g id="node5" class="node"><title>Node5</title>
<g id="a_node5"><a xlink:href="class_cosmos_1_1_math_1_1_vectors_1_1spherical_vector.html" target="_top" xlink:title="Cosmos::Math::Vectors\l::sphericalVector">
<polygon fill="white" stroke="black" points="166.5,-0.5 166.5,-30.5 287.5,-30.5 287.5,-0.5 166.5,-0.5"/>
<text text-anchor="start" x="174.5" y="-18.5" font-family="Helvetica,sans-Serif" font-size="10.00">Cosmos::Math::Vectors</text>
<text text-anchor="middle" x="227" y="-7.5" font-family="Helvetica,sans-Serif" font-size="10.00">::sphericalVector</text>
</a>
</g>
</g>
<!-- Node1&#45;&gt;Node5 -->
<g id="edge4" class="edge"><title>Node1&#45;&gt;Node5</title>
<path fill="none" stroke="midnightblue" d="M98.7765,-68.4793C116.231,-59.4388 137.443,-48.9227 157,-40.5 164.957,-37.0729 173.556,-33.7025 181.893,-30.6005"/>
<polygon fill="midnightblue" stroke="midnightblue" points="96.7419,-65.5934 89.5006,-73.3273 99.9844,-71.7972 96.7419,-65.5934"/>
</g>
</g>
</svg>
