<?xml version="1.0" encoding="UTF-8" standalone="no"?>
<!DOCTYPE svg PUBLIC "-//W3C//DTD SVG 1.1//EN"
 "http://www.w3.org/Graphics/SVG/1.1/DTD/svg11.dtd">
<!-- Generated by graphviz version 2.38.0 (20140413.2041)
 -->
<!-- Title: jdct.h Pages: 1 -->
<svg width="751pt" height="84pt"
 viewBox="0.00 0.00 751.00 84.00" xmlns="http://www.w3.org/2000/svg" xmlns:xlink="http://www.w3.org/1999/xlink">
<g id="graph0" class="graph" transform="scale(1 1) rotate(0) translate(4 80)">
<title>jdct.h</title>
<polygon fill="white" stroke="none" points="-4,4 -4,-80 747,-80 747,4 -4,4"/>
<!-- Node1 -->
<g id="node1" class="node"><title>Node1</title>
<polygon fill="#bfbfbf" stroke="black" points="358,-56.5 358,-75.5 399,-75.5 399,-56.5 358,-56.5"/>
<text text-anchor="middle" x="378.5" y="-63.5" font-family="Helvetica,sans-Serif" font-size="10.00">jdct.h</text>
</g>
<!-- Node2 -->
<g id="node2" class="node"><title>Node2</title>
<g id="a_node2"><a xlink:href="jcdctmgr_8cpp.html" target="_top" xlink:title="jcdctmgr.cpp">
<polygon fill="white" stroke="black" points="0,-0.5 0,-19.5 73,-19.5 73,-0.5 0,-0.5"/>
<text text-anchor="middle" x="36.5" y="-7.5" font-family="Helvetica,sans-Serif" font-size="10.00">jcdctmgr.cpp</text>
</a>
</g>
</g>
<!-- Node1&#45;&gt;Node2 -->
<g id="edge1" class="edge"><title>Node1&#45;&gt;Node2</title>
<path fill="none" stroke="midnightblue" d="M347.987,-60.8595C294.083,-53.4374 178.531,-37.0442 81.5,-20 78.832,-19.5313 76.0789,-19.0284 73.3104,-18.5086"/>
<polygon fill="midnightblue" stroke="midnightblue" points="347.539,-64.3307 357.922,-62.2218 348.49,-57.3956 347.539,-64.3307"/>
</g>
<!-- Node3 -->
<g id="node3" class="node"><title>Node3</title>
<g id="a_node3"><a xlink:href="jddctmgr_8cpp.html" target="_top" xlink:title="jddctmgr.cpp">
<polygon fill="white" stroke="black" points="91,-0.5 91,-19.5 164,-19.5 164,-0.5 91,-0.5"/>
<text text-anchor="middle" x="127.5" y="-7.5" font-family="Helvetica,sans-Serif" font-size="10.00">jddctmgr.cpp</text>
</a>
</g>
</g>
<!-- Node1&#45;&gt;Node3 -->
<g id="edge2" class="edge"><title>Node1&#45;&gt;Node3</title>
<path fill="none" stroke="midnightblue" d="M347.942,-58.4259C301.692,-48.4755 214.048,-29.6199 164.338,-18.9253"/>
<polygon fill="midnightblue" stroke="midnightblue" points="347.447,-61.8993 357.96,-60.581 348.919,-55.0559 347.447,-61.8993"/>
</g>
<!-- Node4 -->
<g id="node4" class="node"><title>Node4</title>
<g id="a_node4"><a xlink:href="jfdctflt_8cpp.html" target="_top" xlink:title="jfdctflt.cpp">
<polygon fill="white" stroke="black" points="182.5,-0.5 182.5,-19.5 244.5,-19.5 244.5,-0.5 182.5,-0.5"/>
<text text-anchor="middle" x="213.5" y="-7.5" font-family="Helvetica,sans-Serif" font-size="10.00">jfdctflt.cpp</text>
</a>
</g>
</g>
<!-- Node1&#45;&gt;Node4 -->
<g id="edge3" class="edge"><title>Node1&#45;&gt;Node4</title>
<path fill="none" stroke="midnightblue" d="M348.058,-55.0372C316.884,-44.8348 268.943,-29.145 239.493,-19.5069"/>
<polygon fill="midnightblue" stroke="midnightblue" points="347.344,-58.486 357.936,-58.27 349.521,-51.8332 347.344,-58.486"/>
</g>
<!-- Node5 -->
<g id="node5" class="node"><title>Node5</title>
<g id="a_node5"><a xlink:href="jfdctfst_8cpp.html" target="_top" xlink:title="jfdctfst.cpp">
<polygon fill="white" stroke="black" points="263,-0.5 263,-19.5 328,-19.5 328,-0.5 263,-0.5"/>
<text text-anchor="middle" x="295.5" y="-7.5" font-family="Helvetica,sans-Serif" font-size="10.00">jfdctfst.cpp</text>
</a>
</g>
</g>
<!-- Node1&#45;&gt;Node5 -->
<g id="edge4" class="edge"><title>Node1&#45;&gt;Node5</title>
<path fill="none" stroke="midnightblue" d="M356.401,-50.6221C341.238,-40.7574 321.617,-27.9919 308.802,-19.6545"/>
<polygon fill="midnightblue" stroke="midnightblue" points="354.874,-53.8042 365.165,-56.324 358.691,-47.9367 354.874,-53.8042"/>
</g>
<!-- Node6 -->
<g id="node6" class="node"><title>Node6</title>
<g id="a_node6"><a xlink:href="jfdctint_8cpp.html" target="_top" xlink:title="jfdctint.cpp">
<polygon fill="white" stroke="black" points="346,-0.5 346,-19.5 411,-19.5 411,-0.5 346,-0.5"/>
<text text-anchor="middle" x="378.5" y="-7.5" font-family="Helvetica,sans-Serif" font-size="10.00">jfdctint.cpp</text>
</a>
</g>
</g>
<!-- Node1&#45;&gt;Node6 -->
<g id="edge5" class="edge"><title>Node1&#45;&gt;Node6</title>
<path fill="none" stroke="midnightblue" d="M378.5,-45.8045C378.5,-36.9102 378.5,-26.7798 378.5,-19.7511"/>
<polygon fill="midnightblue" stroke="midnightblue" points="375,-46.083 378.5,-56.083 382,-46.083 375,-46.083"/>
</g>
<!-- Node7 -->
<g id="node7" class="node"><title>Node7</title>
<g id="a_node7"><a xlink:href="jidctflt_8cpp.html" target="_top" xlink:title="jidctflt.cpp">
<polygon fill="white" stroke="black" points="429.5,-0.5 429.5,-19.5 491.5,-19.5 491.5,-0.5 429.5,-0.5"/>
<text text-anchor="middle" x="460.5" y="-7.5" font-family="Helvetica,sans-Serif" font-size="10.00">jidctflt.cpp</text>
</a>
</g>
</g>
<!-- Node1&#45;&gt;Node7 -->
<g id="edge6" class="edge"><title>Node1&#45;&gt;Node7</title>
<path fill="none" stroke="midnightblue" d="M400.333,-50.6221C415.313,-40.7574 434.697,-27.9919 447.358,-19.6545"/>
<polygon fill="midnightblue" stroke="midnightblue" points="398.101,-47.9009 391.675,-56.324 401.951,-53.7471 398.101,-47.9009"/>
</g>
<!-- Node8 -->
<g id="node8" class="node"><title>Node8</title>
<g id="a_node8"><a xlink:href="jidctfst_8cpp.html" target="_top" xlink:title="jidctfst.cpp">
<polygon fill="white" stroke="black" points="510,-0.5 510,-19.5 575,-19.5 575,-0.5 510,-0.5"/>
<text text-anchor="middle" x="542.5" y="-7.5" font-family="Helvetica,sans-Serif" font-size="10.00">jidctfst.cpp</text>
</a>
</g>
</g>
<!-- Node1&#45;&gt;Node8 -->
<g id="edge7" class="edge"><title>Node1&#45;&gt;Node8</title>
<path fill="none" stroke="midnightblue" d="M409.084,-54.9296C440.018,-44.744 487.317,-29.1699 516.5,-19.5611"/>
<polygon fill="midnightblue" stroke="midnightblue" points="407.674,-51.7089 399.271,-58.1609 409.864,-58.3577 407.674,-51.7089"/>
</g>
<!-- Node9 -->
<g id="node9" class="node"><title>Node9</title>
<g id="a_node9"><a xlink:href="jidctint_8cpp.html" target="_top" xlink:title="jidctint.cpp">
<polygon fill="white" stroke="black" points="593.5,-0.5 593.5,-19.5 657.5,-19.5 657.5,-0.5 593.5,-0.5"/>
<text text-anchor="middle" x="625.5" y="-7.5" font-family="Helvetica,sans-Serif" font-size="10.00">jidctint.cpp</text>
</a>
</g>
</g>
<!-- Node1&#45;&gt;Node9 -->
<g id="edge8" class="edge"><title>Node1&#45;&gt;Node9</title>
<path fill="none" stroke="midnightblue" d="M409.246,-58.2938C449.51,-49.5094 522.294,-33.6219 584.5,-20 587.348,-19.3764 590.306,-18.728 593.272,-18.0777"/>
<polygon fill="midnightblue" stroke="midnightblue" points="408.286,-54.9209 399.262,-60.472 409.778,-61.76 408.286,-54.9209"/>
</g>
<!-- Node10 -->
<g id="node10" class="node"><title>Node10</title>
<g id="a_node10"><a xlink:href="jidctred_8cpp.html" target="_top" xlink:title="jidctred.cpp">
<polygon fill="white" stroke="black" points="676,-0.5 676,-19.5 743,-19.5 743,-0.5 676,-0.5"/>
<text text-anchor="middle" x="709.5" y="-7.5" font-family="Helvetica,sans-Serif" font-size="10.00">jidctred.cpp</text>
</a>
</g>
</g>
<!-- Node1&#45;&gt;Node10 -->
<g id="edge9" class="edge"><title>Node1&#45;&gt;Node10</title>
<path fill="none" stroke="midnightblue" d="M409.211,-60.7298C461.96,-53.2773 573.118,-37.0563 666.5,-20 669.501,-19.4518 672.614,-18.8552 675.731,-18.2387"/>
<polygon fill="midnightblue" stroke="midnightblue" points="408.58,-57.2839 399.165,-62.1426 409.555,-64.2157 408.58,-57.2839"/>
</g>
</g>
</svg>
