<?xml version="1.0" encoding="UTF-8" standalone="no"?>
<!DOCTYPE svg PUBLIC "-//W3C//DTD SVG 1.1//EN"
 "http://www.w3.org/Graphics/SVG/1.1/DTD/svg11.dtd">
<!-- Generated by graphviz version 2.38.0 (20140413.2041)
 -->
<!-- Title: jerror.h Pages: 1 -->
<svg width="313pt" height="84pt"
 viewBox="0.00 0.00 313.00 84.00" xmlns="http://www.w3.org/2000/svg" xmlns:xlink="http://www.w3.org/1999/xlink">
<g id="graph0" class="graph" transform="scale(1 1) rotate(0) translate(4 80)">
<title>jerror.h</title>
<polygon fill="white" stroke="none" points="-4,4 -4,-80 309,-80 309,4 -4,4"/>
<!-- Node1 -->
<g id="node1" class="node"><title>Node1</title>
<polygon fill="#bfbfbf" stroke="black" points="127,-56.5 127,-75.5 174,-75.5 174,-56.5 127,-56.5"/>
<text text-anchor="middle" x="150.5" y="-63.5" font-family="Helvetica,sans-Serif" font-size="10.00">jerror.h</text>
</g>
<!-- Node2 -->
<g id="node2" class="node"><title>Node2</title>
<g id="a_node2"><a xlink:href="cdjpeg_8h.html" target="_top" xlink:title="cdjpeg.h">
<polygon fill="white" stroke="black" points="0,-0.5 0,-19.5 53,-19.5 53,-0.5 0,-0.5"/>
<text text-anchor="middle" x="26.5" y="-7.5" font-family="Helvetica,sans-Serif" font-size="10.00">cdjpeg.h</text>
</a>
</g>
</g>
<!-- Node1&#45;&gt;Node2 -->
<g id="edge1" class="edge"><title>Node1&#45;&gt;Node2</title>
<path fill="none" stroke="midnightblue" d="M121.493,-52.3678C98.2714,-42.2553 66.3375,-28.3486 46.0562,-19.5164"/>
<polygon fill="midnightblue" stroke="midnightblue" points="120.286,-55.6597 130.852,-56.4435 123.081,-49.2419 120.286,-55.6597"/>
</g>
<!-- Node3 -->
<g id="node3" class="node"><title>Node3</title>
<g id="a_node3"><a xlink:href="jdatadst_8cpp.html" target="_top" xlink:title="jdatadst.cpp">
<polygon fill="white" stroke="black" points="71.5,-0.5 71.5,-19.5 141.5,-19.5 141.5,-0.5 71.5,-0.5"/>
<text text-anchor="middle" x="106.5" y="-7.5" font-family="Helvetica,sans-Serif" font-size="10.00">jdatadst.cpp</text>
</a>
</g>
</g>
<!-- Node1&#45;&gt;Node3 -->
<g id="edge2" class="edge"><title>Node1&#45;&gt;Node3</title>
<path fill="none" stroke="midnightblue" d="M136.765,-48.144C129.099,-38.7357 119.867,-27.4046 113.631,-19.7511"/>
<polygon fill="midnightblue" stroke="midnightblue" points="134.204,-50.5415 143.234,-56.083 139.631,-46.1198 134.204,-50.5415"/>
</g>
<!-- Node4 -->
<g id="node4" class="node"><title>Node4</title>
<g id="a_node4"><a xlink:href="jdatasrc_8cpp.html" target="_top" xlink:title="jdatasrc.cpp">
<polygon fill="white" stroke="black" points="159.5,-0.5 159.5,-19.5 229.5,-19.5 229.5,-0.5 159.5,-0.5"/>
<text text-anchor="middle" x="194.5" y="-7.5" font-family="Helvetica,sans-Serif" font-size="10.00">jdatasrc.cpp</text>
</a>
</g>
</g>
<!-- Node1&#45;&gt;Node4 -->
<g id="edge3" class="edge"><title>Node1&#45;&gt;Node4</title>
<path fill="none" stroke="midnightblue" d="M164.235,-48.144C171.901,-38.7357 181.133,-27.4046 187.369,-19.7511"/>
<polygon fill="midnightblue" stroke="midnightblue" points="161.369,-46.1198 157.766,-56.083 166.796,-50.5415 161.369,-46.1198"/>
</g>
<!-- Node5 -->
<g id="node5" class="node"><title>Node5</title>
<g id="a_node5"><a xlink:href="jerror_8cpp.html" target="_top" xlink:title="jerror.cpp">
<polygon fill="white" stroke="black" points="248,-0.5 248,-19.5 305,-19.5 305,-0.5 248,-0.5"/>
<text text-anchor="middle" x="276.5" y="-7.5" font-family="Helvetica,sans-Serif" font-size="10.00">jerror.cpp</text>
</a>
</g>
</g>
<!-- Node1&#45;&gt;Node5 -->
<g id="edge4" class="edge"><title>Node1&#45;&gt;Node5</title>
<path fill="none" stroke="midnightblue" d="M179.66,-52.503C203.281,-42.3795 235.928,-28.388 256.628,-19.5164"/>
<polygon fill="midnightblue" stroke="midnightblue" points="178.278,-49.2873 170.465,-56.4435 181.035,-55.7213 178.278,-49.2873"/>
</g>
</g>
</svg>
