<?xml version="1.0" encoding="UTF-8" standalone="no"?>
<!DOCTYPE svg PUBLIC "-//W3C//DTD SVG 1.1//EN"
 "http://www.w3.org/Graphics/SVG/1.1/DTD/svg11.dtd">
<!-- Generated by graphviz version 2.38.0 (20140413.2041)
 -->
<!-- Title: jinclude.h Pages: 1 -->
<!--zoomable 84 -->
<svg id="main" version="1.1" xmlns="http://www.w3.org/2000/svg" xmlns:xlink="http://www.w3.org/1999/xlink" xml:space="preserve" onload="init(evt)">
<style type="text/css"><![CDATA[
.edge:hover path { stroke: red; }
.edge:hover polygon { stroke: red; fill: red; }
]]></style>
<script type="text/javascript"><![CDATA[
var edges = document.getElementsByTagName('g');
if (edges && edges.length) {
  for (var i=0;i<edges.length;i++) {
    if (edges[i].id.substr(0,4)=='edge') {
      edges[i].setAttribute('class','edge');
    }
  }
}
]]></script>
        <defs>
                <circle id="rim" cx="0" cy="0" r="7"/>
                <circle id="rim2" cx="0" cy="0" r="3.5"/>
                <g id="zoomPlus">
                        <use xlink:href="#rim" fill="#404040">
                                <set attributeName="fill" to="#808080" begin="zoomplus.mouseover" end="zoomplus.mouseout"/>
                        </use>
                        <path d="M-4,0h8M0,-4v8" fill="none" stroke="white" stroke-width="1.5" pointer-events="none"/>
                </g>
                <g id="zoomMin">
                        <use xlink:href="#rim" fill="#404040">
                                <set attributeName="fill" to="#808080" begin="zoomminus.mouseover" end="zoomminus.mouseout"/>
                        </use>
                        <path d="M-4,0h8" fill="none" stroke="white" stroke-width="1.5" pointer-events="none"/>
                </g>
                <g id="dirArrow">
                        <path fill="none" stroke="white" stroke-width="1.5" d="M0,-3.0v7 M-2.5,-0.5L0,-3.0L2.5,-0.5"/>
                </g>
               <g id="resetDef">
                       <use xlink:href="#rim2" fill="#404040">
                               <set attributeName="fill" to="#808080" begin="reset.mouseover" end="reset.mouseout"/>
                       </use>
               </g>
        </defs>

<script type="text/javascript">
var viewWidth = 4020;
var viewHeight = 84;
var sectionId = 'dynsection-1';
</script>
<script xlink:href="svgpan.js"/>
<svg id="graph" class="graph">
<g id="viewport">
<title>jinclude.h</title>
<polygon fill="white" stroke="none" points="-4,4 -4,-80 4015.5,-80 4015.5,4 -4,4"/>
<!-- Node1 -->
<g id="node1" class="node"><title>Node1</title>
<polygon fill="#bfbfbf" stroke="black" points="1986.5,-56.5 1986.5,-75.5 2044.5,-75.5 2044.5,-56.5 1986.5,-56.5"/>
<text text-anchor="middle" x="2015.5" y="-63.5" font-family="Helvetica,sans-Serif" font-size="10.00">jinclude.h</text>
</g>
<!-- Node2 -->
<g id="node2" class="node"><title>Node2</title>
<g id="a_node2"><a xlink:href="cdjpeg_8h.html" target="_top" xlink:title="cdjpeg.h">
<polygon fill="white" stroke="black" points="0,-0.5 0,-19.5 53,-19.5 53,-0.5 0,-0.5"/>
<text text-anchor="middle" x="26.5" y="-7.5" font-family="Helvetica,sans-Serif" font-size="10.00">cdjpeg.h</text>
</a>
</g>
</g>
<!-- Node1&#45;&gt;Node2 -->
<g id="edge1" class="edge"><title>Node1&#45;&gt;Node2</title>
<path fill="none" stroke="midnightblue" d="M1976.24,-64.6355C1717.14,-62.159 257.416,-47.0811 61.5,-20 58.7654,-19.622 55.9369,-19.1081 53.1275,-18.5161"/>
<polygon fill="midnightblue" stroke="midnightblue" points="1976.28,-68.136 1986.31,-64.7312 1976.35,-61.1363 1976.28,-68.136"/>
</g>
<!-- Node3 -->
<g id="node3" class="node"><title>Node3</title>
<g id="a_node3"><a xlink:href="jcapimin_8cpp.html" target="_top" xlink:title="jcapimin.cpp">
<polygon fill="white" stroke="black" points="71,-0.5 71,-19.5 142,-19.5 142,-0.5 71,-0.5"/>
<text text-anchor="middle" x="106.5" y="-7.5" font-family="Helvetica,sans-Serif" font-size="10.00">jcapimin.cpp</text>
</a>
</g>
</g>
<!-- Node1&#45;&gt;Node3 -->
<g id="edge2" class="edge"><title>Node1&#45;&gt;Node3</title>
<path fill="none" stroke="midnightblue" d="M1976.1,-65.0025C1741.1,-64.8733 522.117,-62.151 150.5,-20 147.866,-19.7012 145.155,-19.3231 142.435,-18.8919"/>
<polygon fill="midnightblue" stroke="midnightblue" points="1976.23,-68.5024 1986.23,-65.0067 1976.23,-61.5024 1976.23,-68.5024"/>
</g>
<!-- Node4 -->
<g id="node4" class="node"><title>Node4</title>
<g id="a_node4"><a xlink:href="jcapistd_8cpp.html" target="_top" xlink:title="jcapistd.cpp">
<polygon fill="white" stroke="black" points="160,-0.5 160,-19.5 229,-19.5 229,-0.5 160,-0.5"/>
<text text-anchor="middle" x="194.5" y="-7.5" font-family="Helvetica,sans-Serif" font-size="10.00">jcapistd.cpp</text>
</a>
</g>
</g>
<!-- Node1&#45;&gt;Node4 -->
<g id="edge3" class="edge"><title>Node1&#45;&gt;Node4</title>
<path fill="none" stroke="midnightblue" d="M1976.17,-64.948C1747.95,-64.5036 591.639,-60.2686 238.5,-20 235.556,-19.6643 232.517,-19.23 229.475,-18.7337"/>
<polygon fill="midnightblue" stroke="midnightblue" points="1976.33,-68.4482 1986.33,-64.9665 1976.34,-61.4482 1976.33,-68.4482"/>
</g>
<!-- Node5 -->
<g id="node5" class="node"><title>Node5</title>
<g id="a_node5"><a xlink:href="jccoefct_8cpp.html" target="_top" xlink:title="jccoefct.cpp">
<polygon fill="white" stroke="black" points="247.5,-0.5 247.5,-19.5 317.5,-19.5 317.5,-0.5 247.5,-0.5"/>
<text text-anchor="middle" x="282.5" y="-7.5" font-family="Helvetica,sans-Serif" font-size="10.00">jccoefct.cpp</text>
</a>
</g>
</g>
<!-- Node1&#45;&gt;Node5 -->
<g id="edge4" class="edge"><title>Node1&#45;&gt;Node5</title>
<path fill="none" stroke="midnightblue" d="M1976.03,-64.8874C1754.25,-64.1124 661.074,-58.3752 326.5,-20 323.711,-19.6801 320.837,-19.2723 317.956,-18.8075"/>
<polygon fill="midnightblue" stroke="midnightblue" points="1976.21,-68.3879 1986.22,-64.9216 1976.23,-61.388 1976.21,-68.3879"/>
</g>
<!-- Node6 -->
<g id="node6" class="node"><title>Node6</title>
<g id="a_node6"><a xlink:href="jccolor_8cpp.html" target="_top" xlink:title="jccolor.cpp">
<polygon fill="white" stroke="black" points="335.5,-0.5 335.5,-19.5 399.5,-19.5 399.5,-0.5 335.5,-0.5"/>
<text text-anchor="middle" x="367.5" y="-7.5" font-family="Helvetica,sans-Serif" font-size="10.00">jccolor.cpp</text>
</a>
</g>
</g>
<!-- Node1&#45;&gt;Node6 -->
<g id="edge5" class="edge"><title>Node1&#45;&gt;Node6</title>
<path fill="none" stroke="midnightblue" d="M1976.25,-64.9022C1761.39,-64.2151 725.708,-58.9054 408.5,-20 405.607,-19.6451 402.617,-19.1814 399.63,-18.6516"/>
<polygon fill="midnightblue" stroke="midnightblue" points="1976.42,-68.4026 1986.43,-64.9332 1976.44,-61.4027 1976.42,-68.4026"/>
</g>
<!-- Node7 -->
<g id="node7" class="node"><title>Node7</title>
<g id="a_node7"><a xlink:href="jcdctmgr_8cpp.html" target="_top" xlink:title="jcdctmgr.cpp">
<polygon fill="white" stroke="black" points="418,-0.5 418,-19.5 491,-19.5 491,-0.5 418,-0.5"/>
<text text-anchor="middle" x="454.5" y="-7.5" font-family="Helvetica,sans-Serif" font-size="10.00">jcdctmgr.cpp</text>
</a>
</g>
</g>
<!-- Node1&#45;&gt;Node7 -->
<g id="edge6" class="edge"><title>Node1&#45;&gt;Node7</title>
<path fill="none" stroke="midnightblue" d="M1976.2,-64.7265C1768.6,-63.1463 797.948,-54.0307 499.5,-20 496.809,-19.6931 494.038,-19.309 491.258,-18.8736"/>
<polygon fill="midnightblue" stroke="midnightblue" points="1976.3,-68.2273 1986.32,-64.8022 1976.35,-61.2275 1976.3,-68.2273"/>
</g>
<!-- Node8 -->
<g id="node8" class="node"><title>Node8</title>
<g id="a_node8"><a xlink:href="jchuff_8cpp.html" target="_top" xlink:title="jchuff.cpp">
<polygon fill="white" stroke="black" points="509,-0.5 509,-19.5 568,-19.5 568,-0.5 509,-0.5"/>
<text text-anchor="middle" x="538.5" y="-7.5" font-family="Helvetica,sans-Serif" font-size="10.00">jchuff.cpp</text>
</a>
</g>
</g>
<!-- Node1&#45;&gt;Node8 -->
<g id="edge7" class="edge"><title>Node1&#45;&gt;Node8</title>
<path fill="none" stroke="midnightblue" d="M1976.29,-64.8094C1775.32,-63.6745 859.171,-56.5502 577.5,-20 574.468,-19.6066 571.326,-19.0825 568.202,-18.4843"/>
<polygon fill="midnightblue" stroke="midnightblue" points="1976.37,-68.3097 1986.39,-64.8647 1976.41,-61.3098 1976.37,-68.3097"/>
</g>
<!-- Node9 -->
<g id="node9" class="node"><title>Node9</title>
<g id="a_node9"><a xlink:href="jcinit_8cpp.html" target="_top" xlink:title="jcinit.cpp">
<polygon fill="white" stroke="black" points="586.5,-0.5 586.5,-19.5 642.5,-19.5 642.5,-0.5 586.5,-0.5"/>
<text text-anchor="middle" x="614.5" y="-7.5" font-family="Helvetica,sans-Serif" font-size="10.00">jcinit.cpp</text>
</a>
</g>
</g>
<!-- Node1&#45;&gt;Node9 -->
<g id="edge8" class="edge"><title>Node1&#45;&gt;Node9</title>
<path fill="none" stroke="midnightblue" d="M1976.45,-64.7954C1782.08,-63.6114 917.597,-56.3583 651.5,-20 648.618,-19.6062 645.634,-19.0819 642.667,-18.4836"/>
<polygon fill="midnightblue" stroke="midnightblue" points="1976.47,-68.2954 1986.49,-64.8547 1976.52,-61.2956 1976.47,-68.2954"/>
</g>
<!-- Node10 -->
<g id="node10" class="node"><title>Node10</title>
<g id="a_node10"><a xlink:href="jcmainct_8cpp.html" target="_top" xlink:title="jcmainct.cpp">
<polygon fill="white" stroke="black" points="660.5,-0.5 660.5,-19.5 732.5,-19.5 732.5,-0.5 660.5,-0.5"/>
<text text-anchor="middle" x="696.5" y="-7.5" font-family="Helvetica,sans-Serif" font-size="10.00">jcmainct.cpp</text>
</a>
</g>
</g>
<!-- Node1&#45;&gt;Node10 -->
<g id="edge9" class="edge"><title>Node1&#45;&gt;Node10</title>
<path fill="none" stroke="midnightblue" d="M1976.11,-64.4694C1789.05,-61.8185 989.347,-48.9681 741.5,-20 738.651,-19.667 735.714,-19.2497 732.769,-18.7784"/>
<polygon fill="midnightblue" stroke="midnightblue" points="1976.25,-67.9717 1986.3,-64.6123 1976.35,-60.9724 1976.25,-67.9717"/>
</g>
<!-- Node11 -->
<g id="node11" class="node"><title>Node11</title>
<g id="a_node11"><a xlink:href="jcmarker_8cpp.html" target="_top" xlink:title="jcmarker.cpp">
<polygon fill="white" stroke="black" points="751,-0.5 751,-19.5 824,-19.5 824,-0.5 751,-0.5"/>
<text text-anchor="middle" x="787.5" y="-7.5" font-family="Helvetica,sans-Serif" font-size="10.00">jcmarker.cpp</text>
</a>
</g>
</g>
<!-- Node1&#45;&gt;Node11 -->
<g id="edge10" class="edge"><title>Node1&#45;&gt;Node11</title>
<path fill="none" stroke="midnightblue" d="M1976.09,-64.3458C1797.31,-61.2485 1061.4,-47.0685 832.5,-20 829.81,-19.6819 827.041,-19.2895 824.261,-18.8482"/>
<polygon fill="midnightblue" stroke="midnightblue" points="1976.28,-67.8495 1986.34,-64.5217 1976.4,-60.8505 1976.28,-67.8495"/>
</g>
<!-- Node12 -->
<g id="node12" class="node"><title>Node12</title>
<g id="a_node12"><a xlink:href="jcmaster_8cpp.html" target="_top" xlink:title="jcmaster.cpp">
<polygon fill="white" stroke="black" points="842,-0.5 842,-19.5 915,-19.5 915,-0.5 842,-0.5"/>
<text text-anchor="middle" x="878.5" y="-7.5" font-family="Helvetica,sans-Serif" font-size="10.00">jcmaster.cpp</text>
</a>
</g>
</g>
<!-- Node1&#45;&gt;Node12 -->
<g id="edge11" class="edge"><title>Node1&#45;&gt;Node12</title>
<path fill="none" stroke="midnightblue" d="M1976.14,-64.2031C1806.08,-60.6329 1133.53,-45.1743 923.5,-20 920.81,-19.6776 918.041,-19.2821 915.262,-18.8386"/>
<polygon fill="midnightblue" stroke="midnightblue" points="1976.31,-67.7073 1986.38,-64.4164 1976.45,-60.7088 1976.31,-67.7073"/>
</g>
<!-- Node13 -->
<g id="node13" class="node"><title>Node13</title>
<g id="a_node13"><a xlink:href="jcomapi_8cpp.html" target="_top" xlink:title="jcomapi.cpp">
<polygon fill="white" stroke="black" points="933,-0.5 933,-19.5 1002,-19.5 1002,-0.5 933,-0.5"/>
<text text-anchor="middle" x="967.5" y="-7.5" font-family="Helvetica,sans-Serif" font-size="10.00">jcomapi.cpp</text>
</a>
</g>
</g>
<!-- Node1&#45;&gt;Node13 -->
<g id="edge12" class="edge"><title>Node1&#45;&gt;Node13</title>
<path fill="none" stroke="midnightblue" d="M1975.93,-65.4504C1840.67,-66.5169 1384.51,-66.2174 1011.5,-20 1008.4,-19.6165 1005.2,-19.1331 1002,-18.5904"/>
<polygon fill="midnightblue" stroke="midnightblue" points="1976.23,-68.9479 1986.2,-65.3616 1976.17,-61.9482 1976.23,-68.9479"/>
</g>
<!-- Node14 -->
<g id="node14" class="node"><title>Node14</title>
<g id="a_node14"><a xlink:href="jcparam_8cpp.html" target="_top" xlink:title="jcparam.cpp">
<polygon fill="white" stroke="black" points="1020.5,-0.5 1020.5,-19.5 1090.5,-19.5 1090.5,-0.5 1020.5,-0.5"/>
<text text-anchor="middle" x="1055.5" y="-7.5" font-family="Helvetica,sans-Serif" font-size="10.00">jcparam.cpp</text>
</a>
</g>
</g>
<!-- Node1&#45;&gt;Node14 -->
<g id="edge13" class="edge"><title>Node1&#45;&gt;Node14</title>
<path fill="none" stroke="midnightblue" d="M1976.46,-65.2064C1849.52,-65.4248 1437.14,-62.5725 1099.5,-20 1096.72,-19.6489 1093.84,-19.2185 1090.96,-18.7381"/>
<polygon fill="midnightblue" stroke="midnightblue" points="1976.49,-68.7064 1986.48,-65.1815 1976.47,-61.7064 1976.49,-68.7064"/>
</g>
<!-- Node15 -->
<g id="node15" class="node"><title>Node15</title>
<g id="a_node15"><a xlink:href="jcphuff_8cpp.html" target="_top" xlink:title="jcphuff.cpp">
<polygon fill="white" stroke="black" points="1109,-0.5 1109,-19.5 1174,-19.5 1174,-0.5 1109,-0.5"/>
<text text-anchor="middle" x="1141.5" y="-7.5" font-family="Helvetica,sans-Serif" font-size="10.00">jcphuff.cpp</text>
</a>
</g>
</g>
<!-- Node1&#45;&gt;Node15 -->
<g id="edge14" class="edge"><title>Node1&#45;&gt;Node15</title>
<path fill="none" stroke="midnightblue" d="M1976.09,-65.0587C1856.37,-64.7686 1486.58,-60.414 1183.5,-20 1180.54,-19.6057 1177.49,-19.115 1174.43,-18.5674"/>
<polygon fill="midnightblue" stroke="midnightblue" points="1976.23,-68.5588 1986.24,-65.0748 1976.24,-61.5589 1976.23,-68.5588"/>
</g>
<!-- Node16 -->
<g id="node16" class="node"><title>Node16</title>
<g id="a_node16"><a xlink:href="jcprepct_8cpp.html" target="_top" xlink:title="jcprepct.cpp">
<polygon fill="white" stroke="black" points="1192.5,-0.5 1192.5,-19.5 1262.5,-19.5 1262.5,-0.5 1192.5,-0.5"/>
<text text-anchor="middle" x="1227.5" y="-7.5" font-family="Helvetica,sans-Serif" font-size="10.00">jcprepct.cpp</text>
</a>
</g>
</g>
<!-- Node1&#45;&gt;Node16 -->
<g id="edge15" class="edge"><title>Node1&#45;&gt;Node16</title>
<path fill="none" stroke="midnightblue" d="M1976.22,-64.5758C1865.11,-62.9567 1539.33,-55.3114 1271.5,-20 1268.72,-19.6331 1265.85,-19.1914 1262.97,-18.7032"/>
<polygon fill="midnightblue" stroke="midnightblue" points="1976.24,-68.0764 1986.29,-64.7144 1976.34,-61.0771 1976.24,-68.0764"/>
</g>
<!-- Node17 -->
<g id="node17" class="node"><title>Node17</title>
<g id="a_node17"><a xlink:href="jcsample_8cpp.html" target="_top" xlink:title="jcsample.cpp">
<polygon fill="white" stroke="black" points="1280.5,-0.5 1280.5,-19.5 1354.5,-19.5 1354.5,-0.5 1280.5,-0.5"/>
<text text-anchor="middle" x="1317.5" y="-7.5" font-family="Helvetica,sans-Serif" font-size="10.00">jcsample.cpp</text>
</a>
</g>
</g>
<!-- Node1&#45;&gt;Node17 -->
<g id="edge16" class="edge"><title>Node1&#45;&gt;Node17</title>
<path fill="none" stroke="midnightblue" d="M1976.35,-63.9939C1874.78,-61.017 1594.64,-50.4684 1363.5,-20 1360.6,-19.6172 1357.6,-19.164 1354.59,-18.6679"/>
<polygon fill="midnightblue" stroke="midnightblue" points="1976.36,-67.4954 1986.45,-64.282 1976.56,-60.4982 1976.36,-67.4954"/>
</g>
<!-- Node18 -->
<g id="node18" class="node"><title>Node18</title>
<g id="a_node18"><a xlink:href="jctrans_8cpp.html" target="_top" xlink:title="jctrans.cpp">
<polygon fill="white" stroke="black" points="1373,-0.5 1373,-19.5 1438,-19.5 1438,-0.5 1373,-0.5"/>
<text text-anchor="middle" x="1405.5" y="-7.5" font-family="Helvetica,sans-Serif" font-size="10.00">jctrans.cpp</text>
</a>
</g>
</g>
<!-- Node1&#45;&gt;Node18 -->
<g id="edge17" class="edge"><title>Node1&#45;&gt;Node18</title>
<path fill="none" stroke="midnightblue" d="M1976.28,-63.7512C1883.65,-60.3989 1644.23,-49.3786 1446.5,-20 1443.76,-19.593 1440.93,-19.1085 1438.1,-18.5786"/>
<polygon fill="midnightblue" stroke="midnightblue" points="1976.21,-67.2507 1986.33,-64.1052 1976.46,-60.2551 1976.21,-67.2507"/>
</g>
<!-- Node19 -->
<g id="node19" class="node"><title>Node19</title>
<g id="a_node19"><a xlink:href="jdapimin_8cpp.html" target="_top" xlink:title="jdapimin.cpp">
<polygon fill="white" stroke="black" points="1456,-0.5 1456,-19.5 1527,-19.5 1527,-0.5 1456,-0.5"/>
<text text-anchor="middle" x="1491.5" y="-7.5" font-family="Helvetica,sans-Serif" font-size="10.00">jdapimin.cpp</text>
</a>
</g>
</g>
<!-- Node1&#45;&gt;Node19 -->
<g id="edge18" class="edge"><title>Node1&#45;&gt;Node19</title>
<path fill="none" stroke="midnightblue" d="M1976.29,-62.7676C1894.19,-57.7759 1698.29,-44.2068 1535.5,-20 1532.88,-19.6101 1530.18,-19.165 1527.46,-18.6862"/>
<polygon fill="midnightblue" stroke="midnightblue" points="1976.23,-66.27 1986.42,-63.3748 1976.65,-59.2826 1976.23,-66.27"/>
</g>
<!-- Node20 -->
<g id="node20" class="node"><title>Node20</title>
<g id="a_node20"><a xlink:href="jdapistd_8cpp.html" target="_top" xlink:title="jdapistd.cpp">
<polygon fill="white" stroke="black" points="1545,-0.5 1545,-19.5 1614,-19.5 1614,-0.5 1545,-0.5"/>
<text text-anchor="middle" x="1579.5" y="-7.5" font-family="Helvetica,sans-Serif" font-size="10.00">jdapistd.cpp</text>
</a>
</g>
</g>
<!-- Node1&#45;&gt;Node20 -->
<g id="edge19" class="edge"><title>Node1&#45;&gt;Node20</title>
<path fill="none" stroke="midnightblue" d="M1976.13,-61.6294C1905.31,-55.3116 1751.87,-40.4567 1623.5,-20 1620.42,-19.5092 1617.23,-18.952 1614.04,-18.3612"/>
<polygon fill="midnightblue" stroke="midnightblue" points="1976.1,-65.1402 1986.37,-62.5345 1976.71,-58.1674 1976.1,-65.1402"/>
</g>
<!-- Node21 -->
<g id="node21" class="node"><title>Node21</title>
<g id="a_node21"><a xlink:href="jdatadst_8cpp.html" target="_top" xlink:title="jdatadst.cpp">
<polygon fill="white" stroke="black" points="1632.5,-0.5 1632.5,-19.5 1702.5,-19.5 1702.5,-0.5 1632.5,-0.5"/>
<text text-anchor="middle" x="1667.5" y="-7.5" font-family="Helvetica,sans-Serif" font-size="10.00">jdatadst.cpp</text>
</a>
</g>
</g>
<!-- Node1&#45;&gt;Node21 -->
<g id="edge20" class="edge"><title>Node1&#45;&gt;Node21</title>
<path fill="none" stroke="midnightblue" d="M1976.31,-59.8975C1918.3,-52.1873 1806.23,-36.6859 1711.5,-20 1708.58,-19.486 1705.56,-18.9263 1702.53,-18.3458"/>
<polygon fill="midnightblue" stroke="midnightblue" points="1976.12,-63.4033 1986.49,-61.2451 1977.04,-56.4637 1976.12,-63.4033"/>
</g>
<!-- Node22 -->
<g id="node22" class="node"><title>Node22</title>
<g id="a_node22"><a xlink:href="jdatasrc_8cpp.html" target="_top" xlink:title="jdatasrc.cpp">
<polygon fill="white" stroke="black" points="1720.5,-0.5 1720.5,-19.5 1790.5,-19.5 1790.5,-0.5 1720.5,-0.5"/>
<text text-anchor="middle" x="1755.5" y="-7.5" font-family="Helvetica,sans-Serif" font-size="10.00">jdatasrc.cpp</text>
</a>
</g>
</g>
<!-- Node1&#45;&gt;Node22 -->
<g id="edge21" class="edge"><title>Node1&#45;&gt;Node22</title>
<path fill="none" stroke="midnightblue" d="M1976.56,-56.9122C1926.14,-46.4409 1839.02,-28.3459 1790.57,-18.2834"/>
<polygon fill="midnightblue" stroke="midnightblue" points="1975.93,-60.356 1986.43,-58.9627 1977.35,-53.5022 1975.93,-60.356"/>
</g>
<!-- Node23 -->
<g id="node23" class="node"><title>Node23</title>
<g id="a_node23"><a xlink:href="jdcoefct_8cpp.html" target="_top" xlink:title="jdcoefct.cpp">
<polygon fill="white" stroke="black" points="1808.5,-0.5 1808.5,-19.5 1878.5,-19.5 1878.5,-0.5 1808.5,-0.5"/>
<text text-anchor="middle" x="1843.5" y="-7.5" font-family="Helvetica,sans-Serif" font-size="10.00">jdcoefct.cpp</text>
</a>
</g>
</g>
<!-- Node1&#45;&gt;Node23 -->
<g id="edge22" class="edge"><title>Node1&#45;&gt;Node23</title>
<path fill="none" stroke="midnightblue" d="M1978.67,-53.4363C1946.24,-43.2551 1899.76,-28.664 1870.63,-19.5164"/>
<polygon fill="midnightblue" stroke="midnightblue" points="1977.66,-56.7874 1988.25,-56.4435 1979.75,-50.1088 1977.66,-56.7874"/>
</g>
<!-- Node24 -->
<g id="node24" class="node"><title>Node24</title>
<g id="a_node24"><a xlink:href="jdcolor_8cpp.html" target="_top" xlink:title="jdcolor.cpp">
<polygon fill="white" stroke="black" points="1896.5,-0.5 1896.5,-19.5 1960.5,-19.5 1960.5,-0.5 1896.5,-0.5"/>
<text text-anchor="middle" x="1928.5" y="-7.5" font-family="Helvetica,sans-Serif" font-size="10.00">jdcolor.cpp</text>
</a>
</g>
</g>
<!-- Node1&#45;&gt;Node24 -->
<g id="edge23" class="edge"><title>Node1&#45;&gt;Node24</title>
<path fill="none" stroke="midnightblue" d="M1992.78,-50.9005C1976.83,-40.9986 1956,-28.0705 1942.44,-19.6545"/>
<polygon fill="midnightblue" stroke="midnightblue" points="1991.18,-54.024 2001.52,-56.324 1994.87,-48.0765 1991.18,-54.024"/>
</g>
<!-- Node25 -->
<g id="node25" class="node"><title>Node25</title>
<g id="a_node25"><a xlink:href="jddctmgr_8cpp.html" target="_top" xlink:title="jddctmgr.cpp">
<polygon fill="white" stroke="black" points="1979,-0.5 1979,-19.5 2052,-19.5 2052,-0.5 1979,-0.5"/>
<text text-anchor="middle" x="2015.5" y="-7.5" font-family="Helvetica,sans-Serif" font-size="10.00">jddctmgr.cpp</text>
</a>
</g>
</g>
<!-- Node1&#45;&gt;Node25 -->
<g id="edge24" class="edge"><title>Node1&#45;&gt;Node25</title>
<path fill="none" stroke="midnightblue" d="M2015.5,-45.8045C2015.5,-36.9102 2015.5,-26.7798 2015.5,-19.7511"/>
<polygon fill="midnightblue" stroke="midnightblue" points="2012,-46.083 2015.5,-56.083 2019,-46.083 2012,-46.083"/>
</g>
<!-- Node26 -->
<g id="node26" class="node"><title>Node26</title>
<g id="a_node26"><a xlink:href="jdhuff_8cpp.html" target="_top" xlink:title="jdhuff.cpp">
<polygon fill="white" stroke="black" points="2070,-0.5 2070,-19.5 2129,-19.5 2129,-0.5 2070,-0.5"/>
<text text-anchor="middle" x="2099.5" y="-7.5" font-family="Helvetica,sans-Serif" font-size="10.00">jdhuff.cpp</text>
</a>
</g>
</g>
<!-- Node1&#45;&gt;Node26 -->
<g id="edge25" class="edge"><title>Node1&#45;&gt;Node26</title>
<path fill="none" stroke="midnightblue" d="M2037.43,-50.9005C2052.84,-40.9986 2072.95,-28.0705 2086.04,-19.6545"/>
<polygon fill="midnightblue" stroke="midnightblue" points="2035.52,-47.9722 2029,-56.324 2039.3,-53.8605 2035.52,-47.9722"/>
</g>
<!-- Node27 -->
<g id="node27" class="node"><title>Node27</title>
<g id="a_node27"><a xlink:href="jdinput_8cpp.html" target="_top" xlink:title="jdinput.cpp">
<polygon fill="white" stroke="black" points="2147.5,-0.5 2147.5,-19.5 2211.5,-19.5 2211.5,-0.5 2147.5,-0.5"/>
<text text-anchor="middle" x="2179.5" y="-7.5" font-family="Helvetica,sans-Serif" font-size="10.00">jdinput.cpp</text>
</a>
</g>
</g>
<!-- Node1&#45;&gt;Node27 -->
<g id="edge26" class="edge"><title>Node1&#45;&gt;Node27</title>
<path fill="none" stroke="midnightblue" d="M2051.02,-53.3044C2081.92,-43.1294 2125.97,-28.6246 2153.64,-19.5164"/>
<polygon fill="midnightblue" stroke="midnightblue" points="2049.89,-49.9915 2041.49,-56.4435 2052.08,-56.6404 2049.89,-49.9915"/>
</g>
<!-- Node28 -->
<g id="node28" class="node"><title>Node28</title>
<g id="a_node28"><a xlink:href="jdmainct_8cpp.html" target="_top" xlink:title="jdmainct.cpp">
<polygon fill="white" stroke="black" points="2229.5,-0.5 2229.5,-19.5 2301.5,-19.5 2301.5,-0.5 2229.5,-0.5"/>
<text text-anchor="middle" x="2265.5" y="-7.5" font-family="Helvetica,sans-Serif" font-size="10.00">jdmainct.cpp</text>
</a>
</g>
</g>
<!-- Node1&#45;&gt;Node28 -->
<g id="edge27" class="edge"><title>Node1&#45;&gt;Node28</title>
<path fill="none" stroke="midnightblue" d="M2054.65,-56.5441C2102.49,-46.2108 2182.78,-28.8668 2229.26,-18.8277"/>
<polygon fill="midnightblue" stroke="midnightblue" points="2053.7,-53.1673 2044.67,-58.6998 2055.18,-60.0095 2053.7,-53.1673"/>
</g>
<!-- Node29 -->
<g id="node29" class="node"><title>Node29</title>
<g id="a_node29"><a xlink:href="jdmarker_8cpp.html" target="_top" xlink:title="jdmarker.cpp">
<polygon fill="white" stroke="black" points="2320,-0.5 2320,-19.5 2393,-19.5 2393,-0.5 2320,-0.5"/>
<text text-anchor="middle" x="2356.5" y="-7.5" font-family="Helvetica,sans-Serif" font-size="10.00">jdmarker.cpp</text>
</a>
</g>
</g>
<!-- Node1&#45;&gt;Node29 -->
<g id="edge28" class="edge"><title>Node1&#45;&gt;Node29</title>
<path fill="none" stroke="midnightblue" d="M2054.84,-59.533C2111.47,-51.5417 2219.21,-35.887 2310.5,-20 2313.55,-19.4699 2316.7,-18.8988 2319.87,-18.3106"/>
<polygon fill="midnightblue" stroke="midnightblue" points="2054.29,-56.0757 2044.88,-60.9342 2055.27,-63.0074 2054.29,-56.0757"/>
</g>
<!-- Node30 -->
<g id="node30" class="node"><title>Node30</title>
<g id="a_node30"><a xlink:href="jdmaster_8cpp.html" target="_top" xlink:title="jdmaster.cpp">
<polygon fill="white" stroke="black" points="2411,-0.5 2411,-19.5 2484,-19.5 2484,-0.5 2411,-0.5"/>
<text text-anchor="middle" x="2447.5" y="-7.5" font-family="Helvetica,sans-Serif" font-size="10.00">jdmaster.cpp</text>
</a>
</g>
</g>
<!-- Node1&#45;&gt;Node30 -->
<g id="edge29" class="edge"><title>Node1&#45;&gt;Node30</title>
<path fill="none" stroke="midnightblue" d="M2054.89,-61.492C2125.01,-55.0075 2276.03,-39.965 2402.5,-20 2405.18,-19.5776 2407.93,-19.1086 2410.71,-18.6129"/>
<polygon fill="midnightblue" stroke="midnightblue" points="2054.38,-58.0238 2044.74,-62.4225 2055.02,-64.9945 2054.38,-58.0238"/>
</g>
<!-- Node31 -->
<g id="node31" class="node"><title>Node31</title>
<g id="a_node31"><a xlink:href="jdmerge_8cpp.html" target="_top" xlink:title="jdmerge.cpp">
<polygon fill="white" stroke="black" points="2502.5,-0.5 2502.5,-19.5 2572.5,-19.5 2572.5,-0.5 2502.5,-0.5"/>
<text text-anchor="middle" x="2537.5" y="-7.5" font-family="Helvetica,sans-Serif" font-size="10.00">jdmerge.cpp</text>
</a>
</g>
</g>
<!-- Node1&#45;&gt;Node31 -->
<g id="edge30" class="edge"><title>Node1&#45;&gt;Node31</title>
<path fill="none" stroke="midnightblue" d="M2054.84,-62.7382C2136.78,-57.711 2331.59,-44.1089 2493.5,-20 2496.43,-19.5636 2499.46,-19.0585 2502.5,-18.5147"/>
<polygon fill="midnightblue" stroke="midnightblue" points="2054.5,-59.2524 2044.73,-63.35 2054.92,-66.2396 2054.5,-59.2524"/>
</g>
<!-- Node32 -->
<g id="node32" class="node"><title>Node32</title>
<g id="a_node32"><a xlink:href="jdphuff_8cpp.html" target="_top" xlink:title="jdphuff.cpp">
<polygon fill="white" stroke="black" points="2591,-0.5 2591,-19.5 2656,-19.5 2656,-0.5 2591,-0.5"/>
<text text-anchor="middle" x="2623.5" y="-7.5" font-family="Helvetica,sans-Serif" font-size="10.00">jdphuff.cpp</text>
</a>
</g>
</g>
<!-- Node1&#45;&gt;Node32 -->
<g id="edge31" class="edge"><title>Node1&#45;&gt;Node32</title>
<path fill="none" stroke="midnightblue" d="M2054.78,-63.659C2147.11,-60.1197 2384.94,-48.7455 2581.5,-20 2584.45,-19.5684 2587.51,-19.0519 2590.56,-18.4876"/>
<polygon fill="midnightblue" stroke="midnightblue" points="2054.38,-60.1717 2044.51,-64.0431 2054.64,-67.1668 2054.38,-60.1717"/>
</g>
<!-- Node33 -->
<g id="node33" class="node"><title>Node33</title>
<g id="a_node33"><a xlink:href="jdpostct_8cpp.html" target="_top" xlink:title="jdpostct.cpp">
<polygon fill="white" stroke="black" points="2674.5,-0.5 2674.5,-19.5 2744.5,-19.5 2744.5,-0.5 2674.5,-0.5"/>
<text text-anchor="middle" x="2709.5" y="-7.5" font-family="Helvetica,sans-Serif" font-size="10.00">jdpostct.cpp</text>
</a>
</g>
</g>
<!-- Node1&#45;&gt;Node33 -->
<g id="edge32" class="edge"><title>Node1&#45;&gt;Node33</title>
<path fill="none" stroke="midnightblue" d="M2054.9,-64.0913C2156.5,-61.3551 2435.47,-51.3478 2665.5,-20 2668.28,-19.621 2671.15,-19.1706 2674.03,-18.6764"/>
<polygon fill="midnightblue" stroke="midnightblue" points="2054.7,-60.5953 2044.79,-64.3551 2054.88,-67.593 2054.7,-60.5953"/>
</g>
<!-- Node34 -->
<g id="node34" class="node"><title>Node34</title>
<g id="a_node34"><a xlink:href="jdsample_8cpp.html" target="_top" xlink:title="jdsample.cpp">
<polygon fill="white" stroke="black" points="2762.5,-0.5 2762.5,-19.5 2836.5,-19.5 2836.5,-0.5 2762.5,-0.5"/>
<text text-anchor="middle" x="2799.5" y="-7.5" font-family="Helvetica,sans-Serif" font-size="10.00">jdsample.cpp</text>
</a>
</g>
</g>
<!-- Node1&#45;&gt;Node34 -->
<g id="edge33" class="edge"><title>Node1&#45;&gt;Node34</title>
<path fill="none" stroke="midnightblue" d="M2054.84,-64.4305C2165.37,-62.437 2487.99,-53.9172 2753.5,-20 2756.41,-19.6288 2759.4,-19.184 2762.41,-18.6937"/>
<polygon fill="midnightblue" stroke="midnightblue" points="2054.75,-60.9314 2044.81,-64.6037 2054.87,-67.9304 2054.75,-60.9314"/>
</g>
<!-- Node35 -->
<g id="node35" class="node"><title>Node35</title>
<g id="a_node35"><a xlink:href="jdtrans_8cpp.html" target="_top" xlink:title="jdtrans.cpp">
<polygon fill="white" stroke="black" points="2855,-0.5 2855,-19.5 2920,-19.5 2920,-0.5 2855,-0.5"/>
<text text-anchor="middle" x="2887.5" y="-7.5" font-family="Helvetica,sans-Serif" font-size="10.00">jdtrans.cpp</text>
</a>
</g>
</g>
<!-- Node1&#45;&gt;Node35 -->
<g id="edge34" class="edge"><title>Node1&#45;&gt;Node35</title>
<path fill="none" stroke="midnightblue" d="M2054.81,-65.0517C2174.25,-64.7417 2543.15,-60.3367 2845.5,-20 2848.46,-19.6055 2851.51,-19.1146 2854.57,-18.567"/>
<polygon fill="midnightblue" stroke="midnightblue" points="2054.68,-61.5518 2044.69,-65.0694 2054.7,-68.5518 2054.68,-61.5518"/>
</g>
<!-- Node36 -->
<g id="node36" class="node"><title>Node36</title>
<g id="a_node36"><a xlink:href="jerror_8cpp.html" target="_top" xlink:title="jerror.cpp">
<polygon fill="white" stroke="black" points="2938,-0.5 2938,-19.5 2995,-19.5 2995,-0.5 2938,-0.5"/>
<text text-anchor="middle" x="2966.5" y="-7.5" font-family="Helvetica,sans-Serif" font-size="10.00">jerror.cpp</text>
</a>
</g>
</g>
<!-- Node1&#45;&gt;Node36 -->
<g id="edge35" class="edge"><title>Node1&#45;&gt;Node36</title>
<path fill="none" stroke="midnightblue" d="M2054.95,-64.0532C2207.21,-60.2444 2756.76,-45.0304 2929.5,-20 2932.25,-19.6018 2935.09,-19.092 2937.92,-18.518"/>
<polygon fill="midnightblue" stroke="midnightblue" points="2054.59,-60.5609 2044.68,-64.3078 2054.76,-67.5587 2054.59,-60.5609"/>
</g>
<!-- Node37 -->
<g id="node37" class="node"><title>Node37</title>
<g id="a_node37"><a xlink:href="jfdctflt_8cpp.html" target="_top" xlink:title="jfdctflt.cpp">
<polygon fill="white" stroke="black" points="3013.5,-0.5 3013.5,-19.5 3075.5,-19.5 3075.5,-0.5 3013.5,-0.5"/>
<text text-anchor="middle" x="3044.5" y="-7.5" font-family="Helvetica,sans-Serif" font-size="10.00">jfdctflt.cpp</text>
</a>
</g>
</g>
<!-- Node1&#45;&gt;Node37 -->
<g id="edge36" class="edge"><title>Node1&#45;&gt;Node37</title>
<path fill="none" stroke="midnightblue" d="M2054.98,-64.1314C2215.06,-60.4665 2816.12,-45.2788 3004.5,-20 3007.32,-19.6213 3010.24,-19.1413 3013.15,-18.6007"/>
<polygon fill="midnightblue" stroke="midnightblue" points="2054.58,-60.6397 2044.66,-64.3658 2054.73,-67.6379 2054.58,-60.6397"/>
</g>
<!-- Node38 -->
<g id="node38" class="node"><title>Node38</title>
<g id="a_node38"><a xlink:href="jfdctfst_8cpp.html" target="_top" xlink:title="jfdctfst.cpp">
<polygon fill="white" stroke="black" points="3094,-0.5 3094,-19.5 3159,-19.5 3159,-0.5 3094,-0.5"/>
<text text-anchor="middle" x="3126.5" y="-7.5" font-family="Helvetica,sans-Serif" font-size="10.00">jfdctfst.cpp</text>
</a>
</g>
</g>
<!-- Node1&#45;&gt;Node38 -->
<g id="edge37" class="edge"><title>Node1&#45;&gt;Node38</title>
<path fill="none" stroke="midnightblue" d="M2054.59,-64.2404C2222,-60.8507 2879.3,-46.1148 3084.5,-20 3087.46,-19.6234 3090.52,-19.1448 3093.58,-18.6052"/>
<polygon fill="midnightblue" stroke="midnightblue" points="2054.43,-60.7428 2044.5,-64.4428 2054.57,-67.7413 2054.43,-60.7428"/>
</g>
<!-- Node39 -->
<g id="node39" class="node"><title>Node39</title>
<g id="a_node39"><a xlink:href="jfdctint_8cpp.html" target="_top" xlink:title="jfdctint.cpp">
<polygon fill="white" stroke="black" points="3177,-0.5 3177,-19.5 3242,-19.5 3242,-0.5 3177,-0.5"/>
<text text-anchor="middle" x="3209.5" y="-7.5" font-family="Helvetica,sans-Serif" font-size="10.00">jfdctint.cpp</text>
</a>
</g>
</g>
<!-- Node1&#45;&gt;Node39 -->
<g id="edge38" class="edge"><title>Node1&#45;&gt;Node39</title>
<path fill="none" stroke="midnightblue" d="M2054.79,-64.4014C2230.57,-61.5793 2946.03,-48.5301 3168.5,-20 3171.25,-19.6477 3174.08,-19.2018 3176.92,-18.6976"/>
<polygon fill="midnightblue" stroke="midnightblue" points="2054.64,-60.9032 2044.7,-64.5616 2054.75,-67.9023 2054.64,-60.9032"/>
</g>
<!-- Node40 -->
<g id="node40" class="node"><title>Node40</title>
<g id="a_node40"><a xlink:href="jidctflt_8cpp.html" target="_top" xlink:title="jidctflt.cpp">
<polygon fill="white" stroke="black" points="3260.5,-0.5 3260.5,-19.5 3322.5,-19.5 3322.5,-0.5 3260.5,-0.5"/>
<text text-anchor="middle" x="3291.5" y="-7.5" font-family="Helvetica,sans-Serif" font-size="10.00">jidctflt.cpp</text>
</a>
</g>
</g>
<!-- Node1&#45;&gt;Node40 -->
<g id="edge39" class="edge"><title>Node1&#45;&gt;Node40</title>
<path fill="none" stroke="midnightblue" d="M2054.9,-64.5462C2238.58,-62.2808 3011.92,-51.0429 3251.5,-20 3254.32,-19.6341 3257.24,-19.1629 3260.16,-18.6281"/>
<polygon fill="midnightblue" stroke="midnightblue" points="2054.59,-61.0497 2044.64,-64.671 2054.68,-68.0491 2054.59,-61.0497"/>
</g>
<!-- Node41 -->
<g id="node41" class="node"><title>Node41</title>
<g id="a_node41"><a xlink:href="jidctfst_8cpp.html" target="_top" xlink:title="jidctfst.cpp">
<polygon fill="white" stroke="black" points="3341,-0.5 3341,-19.5 3406,-19.5 3406,-0.5 3341,-0.5"/>
<text text-anchor="middle" x="3373.5" y="-7.5" font-family="Helvetica,sans-Serif" font-size="10.00">jidctfst.cpp</text>
</a>
</g>
</g>
<!-- Node1&#45;&gt;Node41 -->
<g id="edge40" class="edge"><title>Node1&#45;&gt;Node41</title>
<path fill="none" stroke="midnightblue" d="M2054.66,-64.5956C2245.04,-62.4872 3075,-51.6149 3331.5,-20 3334.46,-19.6351 3337.52,-19.1645 3340.58,-18.6302"/>
<polygon fill="midnightblue" stroke="midnightblue" points="2054.52,-61.0969 2044.56,-64.7059 2054.6,-68.0965 2054.52,-61.0969"/>
</g>
<!-- Node42 -->
<g id="node42" class="node"><title>Node42</title>
<g id="a_node42"><a xlink:href="jidctint_8cpp.html" target="_top" xlink:title="jidctint.cpp">
<polygon fill="white" stroke="black" points="3424.5,-0.5 3424.5,-19.5 3488.5,-19.5 3488.5,-0.5 3424.5,-0.5"/>
<text text-anchor="middle" x="3456.5" y="-7.5" font-family="Helvetica,sans-Serif" font-size="10.00">jidctint.cpp</text>
</a>
</g>
</g>
<!-- Node1&#45;&gt;Node42 -->
<g id="edge41" class="edge"><title>Node1&#45;&gt;Node42</title>
<path fill="none" stroke="midnightblue" d="M2054.92,-64.7127C2253.07,-63.1192 3141.67,-54.1597 3415.5,-20 3418.39,-19.6392 3421.38,-19.1713 3424.37,-18.6388"/>
<polygon fill="midnightblue" stroke="midnightblue" points="2054.66,-61.2145 2044.69,-64.7933 2054.71,-68.2143 2054.66,-61.2145"/>
</g>
<!-- Node43 -->
<g id="node43" class="node"><title>Node43</title>
<g id="a_node43"><a xlink:href="jidctred_8cpp.html" target="_top" xlink:title="jidctred.cpp">
<polygon fill="white" stroke="black" points="3507,-0.5 3507,-19.5 3574,-19.5 3574,-0.5 3507,-0.5"/>
<text text-anchor="middle" x="3540.5" y="-7.5" font-family="Helvetica,sans-Serif" font-size="10.00">jidctred.cpp</text>
</a>
</g>
</g>
<!-- Node1&#45;&gt;Node43 -->
<g id="edge42" class="edge"><title>Node1&#45;&gt;Node43</title>
<path fill="none" stroke="midnightblue" d="M2054.89,-64.7422C2259.89,-63.258 3206.36,-54.6149 3497.5,-20 3500.53,-19.6398 3503.66,-19.1725 3506.79,-18.6402"/>
<polygon fill="midnightblue" stroke="midnightblue" points="2054.58,-61.2442 2044.61,-64.8151 2054.63,-68.2441 2054.58,-61.2442"/>
</g>
<!-- Node44 -->
<g id="node44" class="node"><title>Node44</title>
<g id="a_node44"><a xlink:href="jmemmgr_8cpp.html" target="_top" xlink:title="jmemmgr.cpp">
<polygon fill="white" stroke="black" points="3592.5,-0.5 3592.5,-19.5 3668.5,-19.5 3668.5,-0.5 3592.5,-0.5"/>
<text text-anchor="middle" x="3630.5" y="-7.5" font-family="Helvetica,sans-Serif" font-size="10.00">jmemmgr.cpp</text>
</a>
</g>
</g>
<!-- Node1&#45;&gt;Node44 -->
<g id="edge43" class="edge"><title>Node1&#45;&gt;Node44</title>
<path fill="none" stroke="midnightblue" d="M2054.8,-64.7278C2266.6,-63.1309 3274.01,-53.8511 3583.5,-20 3586.39,-19.6838 3589.37,-19.2859 3592.36,-18.8344"/>
<polygon fill="midnightblue" stroke="midnightblue" points="2054.73,-61.2281 2044.76,-64.8022 2054.78,-68.2279 2054.73,-61.2281"/>
</g>
<!-- Node45 -->
<g id="node45" class="node"><title>Node45</title>
<g id="a_node45"><a xlink:href="jmemnobs_8cpp.html" target="_top" xlink:title="jmemnobs.cpp">
<polygon fill="white" stroke="black" points="3686.5,-0.5 3686.5,-19.5 3766.5,-19.5 3766.5,-0.5 3686.5,-0.5"/>
<text text-anchor="middle" x="3726.5" y="-7.5" font-family="Helvetica,sans-Serif" font-size="10.00">jmemnobs.cpp</text>
</a>
</g>
</g>
<!-- Node1&#45;&gt;Node45 -->
<g id="edge44" class="edge"><title>Node1&#45;&gt;Node45</title>
<path fill="none" stroke="midnightblue" d="M2054.67,-64.7622C2273.66,-63.3084 3348.09,-54.5021 3677.5,-20 3680.42,-19.6937 3683.44,-19.3099 3686.46,-18.8748"/>
<polygon fill="midnightblue" stroke="midnightblue" points="2054.59,-61.2626 2044.61,-64.8278 2054.63,-68.2625 2054.59,-61.2626"/>
</g>
<!-- Node46 -->
<g id="node46" class="node"><title>Node46</title>
<g id="a_node46"><a xlink:href="jquant1_8cpp.html" target="_top" xlink:title="jquant1.cpp">
<polygon fill="white" stroke="black" points="3785,-0.5 3785,-19.5 3852,-19.5 3852,-0.5 3785,-0.5"/>
<text text-anchor="middle" x="3818.5" y="-7.5" font-family="Helvetica,sans-Serif" font-size="10.00">jquant1.cpp</text>
</a>
</g>
</g>
<!-- Node1&#45;&gt;Node46 -->
<g id="edge45" class="edge"><title>Node1&#45;&gt;Node46</title>
<path fill="none" stroke="midnightblue" d="M2054.82,-64.9612C2281.73,-64.5908 3426.02,-60.7023 3775.5,-20 3778.53,-19.6471 3781.66,-19.1847 3784.79,-18.6557"/>
<polygon fill="midnightblue" stroke="midnightblue" points="2054.71,-61.4612 2044.71,-64.9763 2054.72,-68.4612 2054.71,-61.4612"/>
</g>
<!-- Node47 -->
<g id="node47" class="node"><title>Node47</title>
<g id="a_node47"><a xlink:href="jquant2_8cpp.html" target="_top" xlink:title="jquant2.cpp">
<polygon fill="white" stroke="black" points="3870,-0.5 3870,-19.5 3937,-19.5 3937,-0.5 3870,-0.5"/>
<text text-anchor="middle" x="3903.5" y="-7.5" font-family="Helvetica,sans-Serif" font-size="10.00">jquant2.cpp</text>
</a>
</g>
</g>
<!-- Node1&#45;&gt;Node47 -->
<g id="edge46" class="edge"><title>Node1&#45;&gt;Node47</title>
<path fill="none" stroke="midnightblue" d="M2054.88,-65.0409C2288.43,-65.1322 3494.07,-63.4599 3861.5,-20 3864.17,-19.6847 3866.91,-19.28 3869.66,-18.8175"/>
<polygon fill="midnightblue" stroke="midnightblue" points="2054.81,-61.541 2044.81,-65.0356 2054.8,-68.541 2054.81,-61.541"/>
</g>
<!-- Node48 -->
<g id="node48" class="node"><title>Node48</title>
<g id="a_node48"><a xlink:href="jutils_8cpp.html" target="_top" xlink:title="jutils.cpp">
<polygon fill="white" stroke="black" points="3955.5,-0.5 3955.5,-19.5 4011.5,-19.5 4011.5,-0.5 3955.5,-0.5"/>
<text text-anchor="middle" x="3983.5" y="-7.5" font-family="Helvetica,sans-Serif" font-size="10.00">jutils.cpp</text>
</a>
</g>
</g>
<!-- Node1&#45;&gt;Node48 -->
<g id="edge47" class="edge"><title>Node1&#45;&gt;Node48</title>
<path fill="none" stroke="midnightblue" d="M2054.8,-65.2362C2294.48,-66.5026 3561.78,-70.6704 3946.5,-20 3949.38,-19.6202 3952.37,-19.105 3955.34,-18.5123"/>
<polygon fill="midnightblue" stroke="midnightblue" points="2054.82,-61.7363 2044.8,-65.1818 2054.78,-68.7362 2054.82,-61.7363"/>
</g>
</g>
</svg>
        <g id="navigator" transform="translate(0 0)" fill="#404254">
                <rect fill="#f2f5e9" fill-opacity="0.5" stroke="#606060" stroke-width=".5" x="0" y="0" width="60" height="60"/>
                <use id="zoomplus" xlink:href="#zoomPlus" x="17" y="9" onmousedown="handleZoom(evt,'in')"/>
                <use id="zoomminus" xlink:href="#zoomMin" x="42" y="9" onmousedown="handleZoom(evt,'out')"/>
                <use id="reset" xlink:href="#resetDef" x="30" y="36" onmousedown="handleReset()"/>
                <g id="arrowUp" xlink:href="#dirArrow" transform="translate(30 24)" onmousedown="handlePan(0,-1)">
                  <use xlink:href="#rim" fill="#404040">
                        <set attributeName="fill" to="#808080" begin="arrowUp.mouseover" end="arrowUp.mouseout"/>
                  </use>
                  <path fill="none" stroke="white" stroke-width="1.5" d="M0,-3.0v7 M-2.5,-0.5L0,-3.0L2.5,-0.5"/>
                </g>
                <g id="arrowRight" xlink:href="#dirArrow" transform="rotate(90) translate(36 -43)" onmousedown="handlePan(1,0)">
                  <use xlink:href="#rim" fill="#404040">
                        <set attributeName="fill" to="#808080" begin="arrowRight.mouseover" end="arrowRight.mouseout"/>
                  </use>
                  <path fill="none" stroke="white" stroke-width="1.5" d="M0,-3.0v7 M-2.5,-0.5L0,-3.0L2.5,-0.5"/>
                </g>
                <g id="arrowDown" xlink:href="#dirArrow" transform="rotate(180) translate(-30 -48)" onmousedown="handlePan(0,1)">
                  <use xlink:href="#rim" fill="#404040">
                        <set attributeName="fill" to="#808080" begin="arrowDown.mouseover" end="arrowDown.mouseout"/>
                  </use>
                  <path fill="none" stroke="white" stroke-width="1.5" d="M0,-3.0v7 M-2.5,-0.5L0,-3.0L2.5,-0.5"/>
                </g>
                <g id="arrowLeft" xlink:href="#dirArrow" transform="rotate(270) translate(-36 17)" onmousedown="handlePan(-1,0)">
                  <use xlink:href="#rim" fill="#404040">
                        <set attributeName="fill" to="#808080" begin="arrowLeft.mouseover" end="arrowLeft.mouseout"/>
                  </use>
                  <path fill="none" stroke="white" stroke-width="1.5" d="M0,-3.0v7 M-2.5,-0.5L0,-3.0L2.5,-0.5"/>
                </g>
        </g>
        <svg viewBox="0 0 15 15" width="100%" height="30px" preserveAspectRatio="xMaxYMin meet">
         <g id="arrow_out" transform="scale(0.3 0.3)">
          <a xlink:href="jinclude_8h__dep__incl_org.svg" target="_base">
           <rect id="button" ry="5" rx="5" y="6" x="6" height="38" width="38"
                fill="#f2f5e9" fill-opacity="0.5" stroke="#606060" stroke-width="1.0"/>
           <path id="arrow"
             d="M 11.500037,31.436501 C 11.940474,20.09759 22.043105,11.32322 32.158766,21.979434 L 37.068811,17.246167 C 37.068811,17.246167 37.088388,32 37.088388,32 L 22.160133,31.978069 C 22.160133,31.978069 26.997745,27.140456 26.997745,27.140456 C 18.528582,18.264221 13.291696,25.230495 11.500037,31.436501 z"
             style="fill:#404040;"/>
          </a>
         </g>
        </svg>
</svg>
