<?xml version="1.0" encoding="UTF-8" standalone="no"?>
<!DOCTYPE svg PUBLIC "-//W3C//DTD SVG 1.1//EN"
 "http://www.w3.org/Graphics/SVG/1.1/DTD/svg11.dtd">
<!-- Generated by graphviz version 2.38.0 (20140413.2041)
 -->
<!-- Title: jmorecfg.h Pages: 1 -->
<!--zoomable 140 -->
<svg id="main" version="1.1" xmlns="http://www.w3.org/2000/svg" xmlns:xlink="http://www.w3.org/1999/xlink" xml:space="preserve" onload="init(evt)">
<style type="text/css"><![CDATA[
.edge:hover path { stroke: red; }
.edge:hover polygon { stroke: red; fill: red; }
]]></style>
<script type="text/javascript"><![CDATA[
var edges = document.getElementsByTagName('g');
if (edges && edges.length) {
  for (var i=0;i<edges.length;i++) {
    if (edges[i].id.substr(0,4)=='edge') {
      edges[i].setAttribute('class','edge');
    }
  }
}
]]></script>
        <defs>
                <circle id="rim" cx="0" cy="0" r="7"/>
                <circle id="rim2" cx="0" cy="0" r="3.5"/>
                <g id="zoomPlus">
                        <use xlink:href="#rim" fill="#404040">
                                <set attributeName="fill" to="#808080" begin="zoomplus.mouseover" end="zoomplus.mouseout"/>
                        </use>
                        <path d="M-4,0h8M0,-4v8" fill="none" stroke="white" stroke-width="1.5" pointer-events="none"/>
                </g>
                <g id="zoomMin">
                        <use xlink:href="#rim" fill="#404040">
                                <set attributeName="fill" to="#808080" begin="zoomminus.mouseover" end="zoomminus.mouseout"/>
                        </use>
                        <path d="M-4,0h8" fill="none" stroke="white" stroke-width="1.5" pointer-events="none"/>
                </g>
                <g id="dirArrow">
                        <path fill="none" stroke="white" stroke-width="1.5" d="M0,-3.0v7 M-2.5,-0.5L0,-3.0L2.5,-0.5"/>
                </g>
               <g id="resetDef">
                       <use xlink:href="#rim2" fill="#404040">
                               <set attributeName="fill" to="#808080" begin="reset.mouseover" end="reset.mouseout"/>
                       </use>
               </g>
        </defs>

<script type="text/javascript">
var viewWidth = 4107;
var viewHeight = 140;
var sectionId = 'dynsection-0';
</script>
<script xlink:href="svgpan.js"/>
<svg id="graph" class="graph">
<g id="viewport">
<title>jmorecfg.h</title>
<polygon fill="white" stroke="none" points="-4,4 -4,-136 4102.5,-136 4102.5,4 -4,4"/>
<!-- Node1 -->
<g id="node1" class="node"><title>Node1</title>
<polygon fill="#bfbfbf" stroke="black" points="2026.5,-112.5 2026.5,-131.5 2088.5,-131.5 2088.5,-112.5 2026.5,-112.5"/>
<text text-anchor="middle" x="2057.5" y="-119.5" font-family="Helvetica,sans-Serif" font-size="10.00">jmorecfg.h</text>
</g>
<!-- Node2 -->
<g id="node2" class="node"><title>Node2</title>
<g id="a_node2"><a xlink:href="jpeglib_8h.html" target="_top" xlink:title="jpeglib.h">
<polygon fill="white" stroke="black" points="2031,-56.5 2031,-75.5 2084,-75.5 2084,-56.5 2031,-56.5"/>
<text text-anchor="middle" x="2057.5" y="-63.5" font-family="Helvetica,sans-Serif" font-size="10.00">jpeglib.h</text>
</a>
</g>
</g>
<!-- Node1&#45;&gt;Node2 -->
<g id="edge1" class="edge"><title>Node1&#45;&gt;Node2</title>
<path fill="none" stroke="midnightblue" d="M2057.5,-101.805C2057.5,-92.9102 2057.5,-82.7798 2057.5,-75.7511"/>
<polygon fill="midnightblue" stroke="midnightblue" points="2054,-102.083 2057.5,-112.083 2061,-102.083 2054,-102.083"/>
</g>
<!-- Node3 -->
<g id="node3" class="node"><title>Node3</title>
<g id="a_node3"><a xlink:href="cdjpeg_8h.html" target="_top" xlink:title="cdjpeg.h">
<polygon fill="white" stroke="black" points="0,-0.5 0,-19.5 53,-19.5 53,-0.5 0,-0.5"/>
<text text-anchor="middle" x="26.5" y="-7.5" font-family="Helvetica,sans-Serif" font-size="10.00">cdjpeg.h</text>
</a>
</g>
</g>
<!-- Node2&#45;&gt;Node3 -->
<g id="edge2" class="edge"><title>Node2&#45;&gt;Node3</title>
<path fill="none" stroke="midnightblue" d="M2020.71,-64.6782C1765.46,-62.3788 262.485,-47.7322 61.5,-20 58.7653,-19.6227 55.9368,-19.1092 53.1274,-18.5175"/>
<polygon fill="midnightblue" stroke="midnightblue" points="2020.9,-68.18 2030.93,-64.7697 2020.96,-61.1802 2020.9,-68.18"/>
</g>
<!-- Node4 -->
<g id="node4" class="node"><title>Node4</title>
<g id="a_node4"><a xlink:href="jcapimin_8cpp.html" target="_top" xlink:title="jcapimin.cpp">
<polygon fill="white" stroke="black" points="71,-0.5 71,-19.5 142,-19.5 142,-0.5 71,-0.5"/>
<text text-anchor="middle" x="106.5" y="-7.5" font-family="Helvetica,sans-Serif" font-size="10.00">jcapimin.cpp</text>
</a>
</g>
</g>
<!-- Node2&#45;&gt;Node4 -->
<g id="edge3" class="edge"><title>Node2&#45;&gt;Node4</title>
<path fill="none" stroke="midnightblue" d="M2020.62,-65.0265C1788.99,-65.058 532.329,-63.2066 150.5,-20 147.866,-19.7019 145.155,-19.3243 142.435,-18.8934"/>
<polygon fill="midnightblue" stroke="midnightblue" points="2020.87,-68.5265 2030.87,-65.0238 2020.87,-61.5265 2020.87,-68.5265"/>
</g>
<!-- Node5 -->
<g id="node5" class="node"><title>Node5</title>
<g id="a_node5"><a xlink:href="jcapistd_8cpp.html" target="_top" xlink:title="jcapistd.cpp">
<polygon fill="white" stroke="black" points="160,-0.5 160,-19.5 229,-19.5 229,-0.5 160,-0.5"/>
<text text-anchor="middle" x="194.5" y="-7.5" font-family="Helvetica,sans-Serif" font-size="10.00">jcapistd.cpp</text>
</a>
</g>
</g>
<!-- Node2&#45;&gt;Node5 -->
<g id="edge4" class="edge"><title>Node2&#45;&gt;Node5</title>
<path fill="none" stroke="midnightblue" d="M2020.57,-64.9776C1795.11,-64.7067 601.743,-61.3133 238.5,-20 235.556,-19.6652 232.517,-19.2315 229.475,-18.7356"/>
<polygon fill="midnightblue" stroke="midnightblue" points="2020.86,-68.4779 2030.86,-64.9886 2020.87,-61.4779 2020.86,-68.4779"/>
</g>
<!-- Node6 -->
<g id="node6" class="node"><title>Node6</title>
<g id="a_node6"><a xlink:href="jccoefct_8cpp.html" target="_top" xlink:title="jccoefct.cpp">
<polygon fill="white" stroke="black" points="247.5,-0.5 247.5,-19.5 317.5,-19.5 317.5,-0.5 247.5,-0.5"/>
<text text-anchor="middle" x="282.5" y="-7.5" font-family="Helvetica,sans-Serif" font-size="10.00">jccoefct.cpp</text>
</a>
</g>
</g>
<!-- Node2&#45;&gt;Node6 -->
<g id="edge5" class="edge"><title>Node2&#45;&gt;Node6</title>
<path fill="none" stroke="midnightblue" d="M2020.65,-64.9241C1801.86,-64.3398 671.25,-59.4295 326.5,-20 323.711,-19.681 320.837,-19.2738 317.956,-18.8095"/>
<polygon fill="midnightblue" stroke="midnightblue" points="2020.94,-68.4247 2030.95,-64.9501 2020.95,-61.4247 2020.94,-68.4247"/>
</g>
<!-- Node7 -->
<g id="node7" class="node"><title>Node7</title>
<g id="a_node7"><a xlink:href="jccolor_8cpp.html" target="_top" xlink:title="jccolor.cpp">
<polygon fill="white" stroke="black" points="335.5,-0.5 335.5,-19.5 399.5,-19.5 399.5,-0.5 335.5,-0.5"/>
<text text-anchor="middle" x="367.5" y="-7.5" font-family="Helvetica,sans-Serif" font-size="10.00">jccolor.cpp</text>
</a>
</g>
</g>
<!-- Node2&#45;&gt;Node7 -->
<g id="edge6" class="edge"><title>Node2&#45;&gt;Node7</title>
<path fill="none" stroke="midnightblue" d="M2020.71,-64.9404C1808.18,-64.4532 735.753,-60.0191 408.5,-20 405.607,-19.6462 402.616,-19.1832 399.63,-18.6538"/>
<polygon fill="midnightblue" stroke="midnightblue" points="2020.72,-68.4403 2030.73,-64.9618 2020.73,-61.4403 2020.72,-68.4403"/>
</g>
<!-- Node8 -->
<g id="node8" class="node"><title>Node8</title>
<g id="a_node8"><a xlink:href="jcdctmgr_8cpp.html" target="_top" xlink:title="jcdctmgr.cpp">
<polygon fill="white" stroke="black" points="418,-0.5 418,-19.5 491,-19.5 491,-0.5 418,-0.5"/>
<text text-anchor="middle" x="454.5" y="-7.5" font-family="Helvetica,sans-Serif" font-size="10.00">jcdctmgr.cpp</text>
</a>
</g>
</g>
<!-- Node2&#45;&gt;Node8 -->
<g id="edge7" class="edge"><title>Node2&#45;&gt;Node8</title>
<path fill="none" stroke="midnightblue" d="M2020.51,-64.7783C1814.6,-63.4156 807.887,-55.0391 499.5,-20 496.808,-19.6942 494.038,-19.3109 491.257,-18.876"/>
<polygon fill="midnightblue" stroke="midnightblue" points="2020.76,-68.2799 2030.78,-64.8448 2020.81,-61.28 2020.76,-68.2799"/>
</g>
<!-- Node9 -->
<g id="node9" class="node"><title>Node9</title>
<g id="a_node9"><a xlink:href="jchuff_8cpp.html" target="_top" xlink:title="jchuff.cpp">
<polygon fill="white" stroke="black" points="509,-0.5 509,-19.5 568,-19.5 568,-0.5 509,-0.5"/>
<text text-anchor="middle" x="538.5" y="-7.5" font-family="Helvetica,sans-Serif" font-size="10.00">jchuff.cpp</text>
</a>
</g>
</g>
<!-- Node2&#45;&gt;Node9 -->
<g id="edge8" class="edge"><title>Node2&#45;&gt;Node9</title>
<path fill="none" stroke="midnightblue" d="M2020.78,-64.8611C1821.6,-63.9592 869.14,-57.7123 577.5,-20 574.468,-19.6079 571.326,-19.0847 568.201,-18.4871"/>
<polygon fill="midnightblue" stroke="midnightblue" points="2020.98,-68.3619 2031,-64.9056 2021.01,-61.362 2020.98,-68.3619"/>
</g>
<!-- Node10 -->
<g id="node10" class="node"><title>Node10</title>
<g id="a_node10"><a xlink:href="jcinit_8cpp.html" target="_top" xlink:title="jcinit.cpp">
<polygon fill="white" stroke="black" points="586.5,-0.5 586.5,-19.5 642.5,-19.5 642.5,-0.5 586.5,-0.5"/>
<text text-anchor="middle" x="614.5" y="-7.5" font-family="Helvetica,sans-Serif" font-size="10.00">jcinit.cpp</text>
</a>
</g>
</g>
<!-- Node2&#45;&gt;Node10 -->
<g id="edge9" class="edge"><title>Node2&#45;&gt;Node10</title>
<path fill="none" stroke="midnightblue" d="M2020.78,-64.8514C1827.6,-63.9133 927.445,-57.5655 651.5,-20 648.618,-19.6076 645.633,-19.0843 642.667,-18.4865"/>
<polygon fill="midnightblue" stroke="midnightblue" points="2020.95,-68.3521 2030.97,-64.8989 2020.99,-61.3522 2020.95,-68.3521"/>
</g>
<!-- Node11 -->
<g id="node11" class="node"><title>Node11</title>
<g id="a_node11"><a xlink:href="jcmainct_8cpp.html" target="_top" xlink:title="jcmainct.cpp">
<polygon fill="white" stroke="black" points="660.5,-0.5 660.5,-19.5 732.5,-19.5 732.5,-0.5 660.5,-0.5"/>
<text text-anchor="middle" x="696.5" y="-7.5" font-family="Helvetica,sans-Serif" font-size="10.00">jcmainct.cpp</text>
</a>
</g>
</g>
<!-- Node2&#45;&gt;Node11 -->
<g id="edge10" class="edge"><title>Node2&#45;&gt;Node11</title>
<path fill="none" stroke="midnightblue" d="M2020.81,-64.5553C1835.3,-62.1835 999.334,-49.9883 741.5,-20 738.651,-19.6686 735.713,-19.2525 732.768,-18.782"/>
<polygon fill="midnightblue" stroke="midnightblue" points="2020.83,-68.0557 2030.87,-64.6824 2020.91,-61.0563 2020.83,-68.0557"/>
</g>
<!-- Node12 -->
<g id="node12" class="node"><title>Node12</title>
<g id="a_node12"><a xlink:href="jcmarker_8cpp.html" target="_top" xlink:title="jcmarker.cpp">
<polygon fill="white" stroke="black" points="751,-0.5 751,-19.5 824,-19.5 824,-0.5 751,-0.5"/>
<text text-anchor="middle" x="787.5" y="-7.5" font-family="Helvetica,sans-Serif" font-size="10.00">jcmarker.cpp</text>
</a>
</g>
</g>
<!-- Node2&#45;&gt;Node12 -->
<g id="edge11" class="edge"><title>Node2&#45;&gt;Node12</title>
<path fill="none" stroke="midnightblue" d="M2020.83,-64.4483C1843.25,-61.6547 1071.35,-48.087 832.5,-20 829.81,-19.6836 827.04,-19.2925 824.26,-18.8522"/>
<polygon fill="midnightblue" stroke="midnightblue" points="2020.91,-67.9498 2030.96,-64.606 2021.02,-60.9507 2020.91,-67.9498"/>
</g>
<!-- Node13 -->
<g id="node13" class="node"><title>Node13</title>
<g id="a_node13"><a xlink:href="jcmaster_8cpp.html" target="_top" xlink:title="jcmaster.cpp">
<polygon fill="white" stroke="black" points="842,-0.5 842,-19.5 915,-19.5 915,-0.5 842,-0.5"/>
<text text-anchor="middle" x="878.5" y="-7.5" font-family="Helvetica,sans-Serif" font-size="10.00">jcmaster.cpp</text>
</a>
</g>
</g>
<!-- Node2&#45;&gt;Node13 -->
<g id="edge12" class="edge"><title>Node2&#45;&gt;Node13</title>
<path fill="none" stroke="midnightblue" d="M2020.6,-64.3195C1850.79,-61.0673 1143.29,-46.1743 923.5,-20 920.81,-19.6797 918.041,-19.2857 915.261,-18.8432"/>
<polygon fill="midnightblue" stroke="midnightblue" points="2020.71,-67.8221 2030.78,-64.5127 2020.85,-60.8234 2020.71,-67.8221"/>
</g>
<!-- Node14 -->
<g id="node14" class="node"><title>Node14</title>
<g id="a_node14"><a xlink:href="jcomapi_8cpp.html" target="_top" xlink:title="jcomapi.cpp">
<polygon fill="white" stroke="black" points="933,-0.5 933,-19.5 1002,-19.5 1002,-0.5 933,-0.5"/>
<text text-anchor="middle" x="967.5" y="-7.5" font-family="Helvetica,sans-Serif" font-size="10.00">jcomapi.cpp</text>
</a>
</g>
</g>
<!-- Node2&#45;&gt;Node14 -->
<g id="edge13" class="edge"><title>Node2&#45;&gt;Node14</title>
<path fill="none" stroke="midnightblue" d="M2020.13,-64.1889C1857.78,-60.542 1212.76,-44.754 1011.5,-20 1008.4,-19.6193 1005.2,-19.1378 1002,-18.5964"/>
<polygon fill="midnightblue" stroke="midnightblue" points="2020.47,-67.6972 2030.55,-64.421 2020.63,-60.699 2020.47,-67.6972"/>
</g>
<!-- Node15 -->
<g id="node15" class="node"><title>Node15</title>
<g id="a_node15"><a xlink:href="jcparam_8cpp.html" target="_top" xlink:title="jcparam.cpp">
<polygon fill="white" stroke="black" points="1020.5,-0.5 1020.5,-19.5 1090.5,-19.5 1090.5,-0.5 1020.5,-0.5"/>
<text text-anchor="middle" x="1055.5" y="-7.5" font-family="Helvetica,sans-Serif" font-size="10.00">jcparam.cpp</text>
</a>
</g>
</g>
<!-- Node2&#45;&gt;Node15 -->
<g id="edge14" class="edge"><title>Node2&#45;&gt;Node15</title>
<path fill="none" stroke="midnightblue" d="M2020.66,-65.3152C1892.75,-65.9749 1456.25,-64.5924 1099.5,-20 1096.71,-19.6519 1093.84,-19.2236 1090.96,-18.7448"/>
<polygon fill="midnightblue" stroke="midnightblue" points="2020.72,-68.8149 2030.7,-65.2556 2020.68,-61.8151 2020.72,-68.8149"/>
</g>
<!-- Node16 -->
<g id="node16" class="node"><title>Node16</title>
<g id="a_node16"><a xlink:href="jcphuff_8cpp.html" target="_top" xlink:title="jcphuff.cpp">
<polygon fill="white" stroke="black" points="1109,-0.5 1109,-19.5 1174,-19.5 1174,-0.5 1109,-0.5"/>
<text text-anchor="middle" x="1141.5" y="-7.5" font-family="Helvetica,sans-Serif" font-size="10.00">jcphuff.cpp</text>
</a>
</g>
</g>
<!-- Node2&#45;&gt;Node16 -->
<g id="edge15" class="edge"><title>Node2&#45;&gt;Node16</title>
<path fill="none" stroke="midnightblue" d="M2020.74,-65.2002C1900.16,-65.4112 1505.91,-62.5666 1183.5,-20 1180.54,-19.6096 1177.48,-19.1214 1174.43,-18.5756"/>
<polygon fill="midnightblue" stroke="midnightblue" points="2020.91,-68.6998 2030.9,-65.1737 2020.89,-61.6999 2020.91,-68.6998"/>
</g>
<!-- Node17 -->
<g id="node17" class="node"><title>Node17</title>
<g id="a_node17"><a xlink:href="jcprepct_8cpp.html" target="_top" xlink:title="jcprepct.cpp">
<polygon fill="white" stroke="black" points="1192.5,-0.5 1192.5,-19.5 1262.5,-19.5 1262.5,-0.5 1192.5,-0.5"/>
<text text-anchor="middle" x="1227.5" y="-7.5" font-family="Helvetica,sans-Serif" font-size="10.00">jcprepct.cpp</text>
</a>
</g>
</g>
<!-- Node2&#45;&gt;Node17 -->
<g id="edge16" class="edge"><title>Node2&#45;&gt;Node17</title>
<path fill="none" stroke="midnightblue" d="M2020.77,-64.7796C1908.22,-63.7017 1558.4,-57.355 1271.5,-20 1268.72,-19.6376 1265.85,-19.1991 1262.97,-18.7132"/>
<polygon fill="midnightblue" stroke="midnightblue" points="2020.88,-68.2806 2030.91,-64.8683 2020.94,-61.2809 2020.88,-68.2806"/>
</g>
<!-- Node18 -->
<g id="node18" class="node"><title>Node18</title>
<g id="a_node18"><a xlink:href="jcsample_8cpp.html" target="_top" xlink:title="jcsample.cpp">
<polygon fill="white" stroke="black" points="1280.5,-0.5 1280.5,-19.5 1354.5,-19.5 1354.5,-0.5 1280.5,-0.5"/>
<text text-anchor="middle" x="1317.5" y="-7.5" font-family="Helvetica,sans-Serif" font-size="10.00">jcsample.cpp</text>
</a>
</g>
</g>
<!-- Node2&#45;&gt;Node18 -->
<g id="edge17" class="edge"><title>Node2&#45;&gt;Node18</title>
<path fill="none" stroke="midnightblue" d="M2020.65,-64.2755C1916.84,-61.8767 1613.29,-52.3981 1363.5,-20 1360.59,-19.6232 1357.6,-19.1744 1354.59,-18.6813"/>
<polygon fill="midnightblue" stroke="midnightblue" points="2020.83,-67.7804 2030.91,-64.5043 2020.99,-60.7821 2020.83,-67.7804"/>
</g>
<!-- Node19 -->
<g id="node19" class="node"><title>Node19</title>
<g id="a_node19"><a xlink:href="jctrans_8cpp.html" target="_top" xlink:title="jctrans.cpp">
<polygon fill="white" stroke="black" points="1373,-0.5 1373,-19.5 1438,-19.5 1438,-0.5 1373,-0.5"/>
<text text-anchor="middle" x="1405.5" y="-7.5" font-family="Helvetica,sans-Serif" font-size="10.00">jctrans.cpp</text>
</a>
</g>
</g>
<!-- Node2&#45;&gt;Node19 -->
<g id="edge18" class="edge"><title>Node2&#45;&gt;Node19</title>
<path fill="none" stroke="midnightblue" d="M2020.57,-64.1131C1925.13,-61.4248 1662.62,-51.5146 1446.5,-20 1443.76,-19.6004 1440.93,-19.1211 1438.1,-18.5947"/>
<polygon fill="midnightblue" stroke="midnightblue" points="2020.76,-67.6194 2030.85,-64.3925 2020.95,-60.622 2020.76,-67.6194"/>
</g>
<!-- Node20 -->
<g id="node20" class="node"><title>Node20</title>
<g id="a_node20"><a xlink:href="jdapimin_8cpp.html" target="_top" xlink:title="jdapimin.cpp">
<polygon fill="white" stroke="black" points="1456,-0.5 1456,-19.5 1527,-19.5 1527,-0.5 1456,-0.5"/>
<text text-anchor="middle" x="1491.5" y="-7.5" font-family="Helvetica,sans-Serif" font-size="10.00">jdapimin.cpp</text>
</a>
</g>
</g>
<!-- Node2&#45;&gt;Node20 -->
<g id="edge19" class="edge"><title>Node2&#45;&gt;Node20</title>
<path fill="none" stroke="midnightblue" d="M2020.51,-63.2853C1934.84,-58.9936 1716.36,-46.2028 1535.5,-20 1532.88,-19.6199 1530.17,-19.182 1527.46,-18.7084"/>
<polygon fill="midnightblue" stroke="midnightblue" points="2020.6,-66.7939 2030.76,-63.7897 2020.94,-59.8023 2020.6,-66.7939"/>
</g>
<!-- Node21 -->
<g id="node21" class="node"><title>Node21</title>
<g id="a_node21"><a xlink:href="jdapistd_8cpp.html" target="_top" xlink:title="jdapistd.cpp">
<polygon fill="white" stroke="black" points="1545,-0.5 1545,-19.5 1614,-19.5 1614,-0.5 1545,-0.5"/>
<text text-anchor="middle" x="1579.5" y="-7.5" font-family="Helvetica,sans-Serif" font-size="10.00">jdapistd.cpp</text>
</a>
</g>
</g>
<!-- Node2&#45;&gt;Node21 -->
<g id="edge20" class="edge"><title>Node2&#45;&gt;Node21</title>
<path fill="none" stroke="midnightblue" d="M2020.64,-62.4091C1945.59,-56.8637 1769.79,-42.4901 1623.5,-20 1620.42,-19.5261 1617.22,-18.9806 1614.03,-18.3974"/>
<polygon fill="midnightblue" stroke="midnightblue" points="2020.74,-65.9254 2030.96,-63.1632 2021.25,-58.944 2020.74,-65.9254"/>
</g>
<!-- Node22 -->
<g id="node22" class="node"><title>Node22</title>
<g id="a_node22"><a xlink:href="jdatadst_8cpp.html" target="_top" xlink:title="jdatadst.cpp">
<polygon fill="white" stroke="black" points="1632.5,-0.5 1632.5,-19.5 1702.5,-19.5 1702.5,-0.5 1632.5,-0.5"/>
<text text-anchor="middle" x="1667.5" y="-7.5" font-family="Helvetica,sans-Serif" font-size="10.00">jdatadst.cpp</text>
</a>
</g>
</g>
<!-- Node2&#45;&gt;Node22 -->
<g id="edge21" class="edge"><title>Node2&#45;&gt;Node22</title>
<path fill="none" stroke="midnightblue" d="M2020.65,-61.0948C1957.27,-54.1801 1823.61,-38.7313 1711.5,-20 1708.58,-19.5117 1705.55,-18.9701 1702.52,-18.4018"/>
<polygon fill="midnightblue" stroke="midnightblue" points="2020.61,-64.6106 2030.92,-62.2081 2021.36,-57.6513 2020.61,-64.6106"/>
</g>
<!-- Node23 -->
<g id="node23" class="node"><title>Node23</title>
<g id="a_node23"><a xlink:href="jdatasrc_8cpp.html" target="_top" xlink:title="jdatasrc.cpp">
<polygon fill="white" stroke="black" points="1720.5,-0.5 1720.5,-19.5 1790.5,-19.5 1790.5,-0.5 1720.5,-0.5"/>
<text text-anchor="middle" x="1755.5" y="-7.5" font-family="Helvetica,sans-Serif" font-size="10.00">jdatasrc.cpp</text>
</a>
</g>
</g>
<!-- Node2&#45;&gt;Node23 -->
<g id="edge22" class="edge"><title>Node2&#45;&gt;Node23</title>
<path fill="none" stroke="midnightblue" d="M2020.68,-58.9242C1970.57,-50.5756 1878.12,-34.8933 1799.5,-20 1796.59,-19.4485 1793.57,-18.8625 1790.55,-18.2642"/>
<polygon fill="midnightblue" stroke="midnightblue" points="2020.27,-62.4044 2030.71,-60.5914 2021.42,-55.4991 2020.27,-62.4044"/>
</g>
<!-- Node24 -->
<g id="node24" class="node"><title>Node24</title>
<g id="a_node24"><a xlink:href="jdcoefct_8cpp.html" target="_top" xlink:title="jdcoefct.cpp">
<polygon fill="white" stroke="black" points="1808.5,-0.5 1808.5,-19.5 1878.5,-19.5 1878.5,-0.5 1808.5,-0.5"/>
<text text-anchor="middle" x="1843.5" y="-7.5" font-family="Helvetica,sans-Serif" font-size="10.00">jdcoefct.cpp</text>
</a>
</g>
</g>
<!-- Node2&#45;&gt;Node24 -->
<g id="edge23" class="edge"><title>Node2&#45;&gt;Node24</title>
<path fill="none" stroke="midnightblue" d="M2020.88,-55.7595C1980.57,-45.5886 1916.32,-29.3755 1877.21,-19.5069"/>
<polygon fill="midnightblue" stroke="midnightblue" points="2020.28,-59.2169 2030.83,-58.27 2021.99,-52.4297 2020.28,-59.2169"/>
</g>
<!-- Node25 -->
<g id="node25" class="node"><title>Node25</title>
<g id="a_node25"><a xlink:href="jdcolor_8cpp.html" target="_top" xlink:title="jdcolor.cpp">
<polygon fill="white" stroke="black" points="1896.5,-0.5 1896.5,-19.5 1960.5,-19.5 1960.5,-0.5 1896.5,-0.5"/>
<text text-anchor="middle" x="1928.5" y="-7.5" font-family="Helvetica,sans-Serif" font-size="10.00">jdcolor.cpp</text>
</a>
</g>
</g>
<!-- Node2&#45;&gt;Node25 -->
<g id="edge24" class="edge"><title>Node2&#45;&gt;Node25</title>
<path fill="none" stroke="midnightblue" d="M2027.65,-52.503C2003.46,-42.3795 1970.04,-28.388 1948.84,-19.5164"/>
<polygon fill="midnightblue" stroke="midnightblue" points="2026.48,-55.8106 2037.06,-56.4435 2029.19,-49.3536 2026.48,-55.8106"/>
</g>
<!-- Node26 -->
<g id="node26" class="node"><title>Node26</title>
<g id="a_node26"><a xlink:href="jddctmgr_8cpp.html" target="_top" xlink:title="jddctmgr.cpp">
<polygon fill="white" stroke="black" points="1979,-0.5 1979,-19.5 2052,-19.5 2052,-0.5 1979,-0.5"/>
<text text-anchor="middle" x="2015.5" y="-7.5" font-family="Helvetica,sans-Serif" font-size="10.00">jddctmgr.cpp</text>
</a>
</g>
</g>
<!-- Node2&#45;&gt;Node26 -->
<g id="edge25" class="edge"><title>Node2&#45;&gt;Node26</title>
<path fill="none" stroke="midnightblue" d="M2044.39,-48.144C2037.07,-38.7357 2028.26,-27.4046 2022.31,-19.7511"/>
<polygon fill="midnightblue" stroke="midnightblue" points="2041.66,-50.3383 2050.56,-56.083 2047.19,-46.0406 2041.66,-50.3383"/>
</g>
<!-- Node27 -->
<g id="node27" class="node"><title>Node27</title>
<g id="a_node27"><a xlink:href="jdhuff_8cpp.html" target="_top" xlink:title="jdhuff.cpp">
<polygon fill="white" stroke="black" points="2070,-0.5 2070,-19.5 2129,-19.5 2129,-0.5 2070,-0.5"/>
<text text-anchor="middle" x="2099.5" y="-7.5" font-family="Helvetica,sans-Serif" font-size="10.00">jdhuff.cpp</text>
</a>
</g>
</g>
<!-- Node2&#45;&gt;Node27 -->
<g id="edge26" class="edge"><title>Node2&#45;&gt;Node27</title>
<path fill="none" stroke="midnightblue" d="M2070.61,-48.144C2077.93,-38.7357 2086.74,-27.4046 2092.69,-19.7511"/>
<polygon fill="midnightblue" stroke="midnightblue" points="2067.81,-46.0406 2064.44,-56.083 2073.34,-50.3383 2067.81,-46.0406"/>
</g>
<!-- Node28 -->
<g id="node28" class="node"><title>Node28</title>
<g id="a_node28"><a xlink:href="jdinput_8cpp.html" target="_top" xlink:title="jdinput.cpp">
<polygon fill="white" stroke="black" points="2147.5,-0.5 2147.5,-19.5 2211.5,-19.5 2211.5,-0.5 2147.5,-0.5"/>
<text text-anchor="middle" x="2179.5" y="-7.5" font-family="Helvetica,sans-Serif" font-size="10.00">jdinput.cpp</text>
</a>
</g>
</g>
<!-- Node2&#45;&gt;Node28 -->
<g id="edge27" class="edge"><title>Node2&#45;&gt;Node28</title>
<path fill="none" stroke="midnightblue" d="M2086.04,-52.3678C2108.89,-42.2553 2140.31,-28.3486 2160.26,-19.5164"/>
<polygon fill="midnightblue" stroke="midnightblue" points="2084.56,-49.1955 2076.83,-56.4435 2087.39,-55.5965 2084.56,-49.1955"/>
</g>
<!-- Node29 -->
<g id="node29" class="node"><title>Node29</title>
<g id="a_node29"><a xlink:href="jdmainct_8cpp.html" target="_top" xlink:title="jdmainct.cpp">
<polygon fill="white" stroke="black" points="2229.5,-0.5 2229.5,-19.5 2301.5,-19.5 2301.5,-0.5 2229.5,-0.5"/>
<text text-anchor="middle" x="2265.5" y="-7.5" font-family="Helvetica,sans-Serif" font-size="10.00">jdmainct.cpp</text>
</a>
</g>
</g>
<!-- Node2&#45;&gt;Node29 -->
<g id="edge28" class="edge"><title>Node2&#45;&gt;Node29</title>
<path fill="none" stroke="midnightblue" d="M2093.96,-55.5341C2133.17,-45.3559 2194.93,-29.3199 2232.67,-19.5225"/>
<polygon fill="midnightblue" stroke="midnightblue" points="2093.07,-52.1504 2084.27,-58.051 2094.83,-58.9258 2093.07,-52.1504"/>
</g>
<!-- Node30 -->
<g id="node30" class="node"><title>Node30</title>
<g id="a_node30"><a xlink:href="jdmarker_8cpp.html" target="_top" xlink:title="jdmarker.cpp">
<polygon fill="white" stroke="black" points="2320,-0.5 2320,-19.5 2393,-19.5 2393,-0.5 2320,-0.5"/>
<text text-anchor="middle" x="2356.5" y="-7.5" font-family="Helvetica,sans-Serif" font-size="10.00">jdmarker.cpp</text>
</a>
</g>
</g>
<!-- Node2&#45;&gt;Node30 -->
<g id="edge29" class="edge"><title>Node2&#45;&gt;Node30</title>
<path fill="none" stroke="midnightblue" d="M2093.97,-58.7154C2143.18,-50.1908 2233.53,-34.3741 2310.5,-20 2313.54,-19.4324 2316.69,-18.8349 2319.85,-18.2291"/>
<polygon fill="midnightblue" stroke="midnightblue" points="2093.37,-55.2668 2084.12,-60.4206 2094.57,-62.1643 2093.37,-55.2668"/>
</g>
<!-- Node31 -->
<g id="node31" class="node"><title>Node31</title>
<g id="a_node31"><a xlink:href="jdmaster_8cpp.html" target="_top" xlink:title="jdmaster.cpp">
<polygon fill="white" stroke="black" points="2411,-0.5 2411,-19.5 2484,-19.5 2484,-0.5 2411,-0.5"/>
<text text-anchor="middle" x="2447.5" y="-7.5" font-family="Helvetica,sans-Serif" font-size="10.00">jdmaster.cpp</text>
</a>
</g>
</g>
<!-- Node2&#45;&gt;Node31 -->
<g id="edge30" class="edge"><title>Node2&#45;&gt;Node31</title>
<path fill="none" stroke="midnightblue" d="M2094.72,-60.9825C2158.09,-53.9539 2290.95,-38.4082 2402.5,-20 2405.17,-19.5589 2407.93,-19.0763 2410.7,-18.5709"/>
<polygon fill="midnightblue" stroke="midnightblue" points="2093.99,-57.5414 2084.43,-62.1157 2094.75,-64.4993 2093.99,-57.5414"/>
</g>
<!-- Node32 -->
<g id="node32" class="node"><title>Node32</title>
<g id="a_node32"><a xlink:href="jdmerge_8cpp.html" target="_top" xlink:title="jdmerge.cpp">
<polygon fill="white" stroke="black" points="2502.5,-0.5 2502.5,-19.5 2572.5,-19.5 2572.5,-0.5 2502.5,-0.5"/>
<text text-anchor="middle" x="2537.5" y="-7.5" font-family="Helvetica,sans-Serif" font-size="10.00">jdmerge.cpp</text>
</a>
</g>
</g>
<!-- Node2&#45;&gt;Node32 -->
<g id="edge31" class="edge"><title>Node2&#45;&gt;Node32</title>
<path fill="none" stroke="midnightblue" d="M2094.53,-62.4206C2169.92,-56.8959 2346.54,-42.558 2493.5,-20 2496.43,-19.5505 2499.46,-19.0361 2502.49,-18.486"/>
<polygon fill="midnightblue" stroke="midnightblue" points="2093.88,-58.9585 2084.16,-63.1716 2094.39,-65.9402 2093.88,-58.9585"/>
</g>
<!-- Node33 -->
<g id="node33" class="node"><title>Node33</title>
<g id="a_node33"><a xlink:href="jdphuff_8cpp.html" target="_top" xlink:title="jdphuff.cpp">
<polygon fill="white" stroke="black" points="2591,-0.5 2591,-19.5 2656,-19.5 2656,-0.5 2591,-0.5"/>
<text text-anchor="middle" x="2623.5" y="-7.5" font-family="Helvetica,sans-Serif" font-size="10.00">jdphuff.cpp</text>
</a>
</g>
</g>
<!-- Node2&#45;&gt;Node33 -->
<g id="edge32" class="edge"><title>Node2&#45;&gt;Node33</title>
<path fill="none" stroke="midnightblue" d="M2094.08,-63.4393C2179.71,-59.4424 2399.67,-47.1795 2581.5,-20 2584.45,-19.559 2587.5,-19.0361 2590.56,-18.4677"/>
<polygon fill="midnightblue" stroke="midnightblue" points="2093.91,-59.9434 2084.08,-63.8968 2094.23,-66.936 2093.91,-59.9434"/>
</g>
<!-- Node34 -->
<g id="node34" class="node"><title>Node34</title>
<g id="a_node34"><a xlink:href="jdpostct_8cpp.html" target="_top" xlink:title="jdpostct.cpp">
<polygon fill="white" stroke="black" points="2674.5,-0.5 2674.5,-19.5 2744.5,-19.5 2744.5,-0.5 2674.5,-0.5"/>
<text text-anchor="middle" x="2709.5" y="-7.5" font-family="Helvetica,sans-Serif" font-size="10.00">jdpostct.cpp</text>
</a>
</g>
</g>
<!-- Node2&#45;&gt;Node34 -->
<g id="edge33" class="edge"><title>Node2&#45;&gt;Node34</title>
<path fill="none" stroke="midnightblue" d="M2094.55,-63.9074C2189.74,-60.7438 2450.48,-49.8237 2665.5,-20 2668.28,-19.6144 2671.15,-19.1592 2674.03,-18.6617"/>
<polygon fill="midnightblue" stroke="midnightblue" points="2094.18,-60.4176 2084.3,-64.2393 2094.41,-67.4139 2094.18,-60.4176"/>
</g>
<!-- Node35 -->
<g id="node35" class="node"><title>Node35</title>
<g id="a_node35"><a xlink:href="jdsample_8cpp.html" target="_top" xlink:title="jdsample.cpp">
<polygon fill="white" stroke="black" points="2762.5,-0.5 2762.5,-19.5 2836.5,-19.5 2836.5,-0.5 2762.5,-0.5"/>
<text text-anchor="middle" x="2799.5" y="-7.5" font-family="Helvetica,sans-Serif" font-size="10.00">jdsample.cpp</text>
</a>
</g>
</g>
<!-- Node2&#45;&gt;Node35 -->
<g id="edge34" class="edge"><title>Node2&#45;&gt;Node35</title>
<path fill="none" stroke="midnightblue" d="M2094.46,-64.2827C2198.57,-61.9025 2502.99,-52.4678 2753.5,-20 2756.41,-19.6235 2759.4,-19.1749 2762.41,-18.6819"/>
<polygon fill="midnightblue" stroke="midnightblue" points="2094.09,-60.7899 2084.17,-64.5096 2094.24,-67.7882 2094.09,-60.7899"/>
</g>
<!-- Node36 -->
<g id="node36" class="node"><title>Node36</title>
<g id="a_node36"><a xlink:href="jdtrans_8cpp.html" target="_top" xlink:title="jdtrans.cpp">
<polygon fill="white" stroke="black" points="2855,-0.5 2855,-19.5 2920,-19.5 2920,-0.5 2855,-0.5"/>
<text text-anchor="middle" x="2887.5" y="-7.5" font-family="Helvetica,sans-Serif" font-size="10.00">jdtrans.cpp</text>
</a>
</g>
</g>
<!-- Node2&#45;&gt;Node36 -->
<g id="edge35" class="edge"><title>Node2&#45;&gt;Node36</title>
<path fill="none" stroke="midnightblue" d="M2094.34,-64.9069C2207.22,-64.1919 2558.05,-58.7704 2845.5,-20 2848.46,-19.6013 2851.51,-19.1074 2854.57,-18.5579"/>
<polygon fill="midnightblue" stroke="midnightblue" points="2094.15,-61.4078 2084.17,-64.9624 2094.19,-68.4077 2094.15,-61.4078"/>
</g>
<!-- Node37 -->
<g id="node37" class="node"><title>Node37</title>
<g id="a_node37"><a xlink:href="jerror_8cpp.html" target="_top" xlink:title="jerror.cpp">
<polygon fill="white" stroke="black" points="2938,-0.5 2938,-19.5 2995,-19.5 2995,-0.5 2938,-0.5"/>
<text text-anchor="middle" x="2966.5" y="-7.5" font-family="Helvetica,sans-Serif" font-size="10.00">jerror.cpp</text>
</a>
</g>
</g>
<!-- Node2&#45;&gt;Node37 -->
<g id="edge36" class="edge"><title>Node2&#45;&gt;Node37</title>
<path fill="none" stroke="midnightblue" d="M2094.22,-65.5502C2214.68,-66.835 2608.44,-66.9097 2929.5,-20 2932.25,-19.5986 2935.09,-19.0866 2937.92,-18.5112"/>
<polygon fill="midnightblue" stroke="midnightblue" points="2094.11,-62.0488 2084.07,-65.4318 2094.03,-69.0483 2094.11,-62.0488"/>
</g>
<!-- Node38 -->
<g id="node38" class="node"><title>Node38</title>
<g id="a_node38"><a xlink:href="jfdctflt_8cpp.html" target="_top" xlink:title="jfdctflt.cpp">
<polygon fill="white" stroke="black" points="3013.5,-0.5 3013.5,-19.5 3075.5,-19.5 3075.5,-0.5 3013.5,-0.5"/>
<text text-anchor="middle" x="3044.5" y="-7.5" font-family="Helvetica,sans-Serif" font-size="10.00">jfdctflt.cpp</text>
</a>
</g>
</g>
<!-- Node2&#45;&gt;Node38 -->
<g id="edge37" class="edge"><title>Node2&#45;&gt;Node38</title>
<path fill="none" stroke="midnightblue" d="M2094.34,-65.5421C2221.37,-66.925 2652.65,-67.5751 3004.5,-20 3007.32,-19.6185 3010.24,-19.1365 3013.15,-18.5947"/>
<polygon fill="midnightblue" stroke="midnightblue" points="2094.05,-62.0386 2084.01,-65.4205 2093.97,-69.0381 2094.05,-62.0386"/>
</g>
<!-- Node39 -->
<g id="node39" class="node"><title>Node39</title>
<g id="a_node39"><a xlink:href="jfdctfst_8cpp.html" target="_top" xlink:title="jfdctfst.cpp">
<polygon fill="white" stroke="black" points="3094,-0.5 3094,-19.5 3159,-19.5 3159,-0.5 3094,-0.5"/>
<text text-anchor="middle" x="3126.5" y="-7.5" font-family="Helvetica,sans-Serif" font-size="10.00">jfdctfst.cpp</text>
</a>
</g>
</g>
<!-- Node2&#45;&gt;Node39 -->
<g id="edge38" class="edge"><title>Node2&#45;&gt;Node39</title>
<path fill="none" stroke="midnightblue" d="M2094.72,-64.2045C2255.01,-60.6499 2887.23,-45.2777 3084.5,-20 3087.46,-19.6209 3090.52,-19.1405 3093.57,-18.5998"/>
<polygon fill="midnightblue" stroke="midnightblue" points="2094.35,-60.7117 2084.43,-64.4308 2094.5,-67.71 2094.35,-60.7117"/>
</g>
<!-- Node40 -->
<g id="node40" class="node"><title>Node40</title>
<g id="a_node40"><a xlink:href="jfdctint_8cpp.html" target="_top" xlink:title="jfdctint.cpp">
<polygon fill="white" stroke="black" points="3177,-0.5 3177,-19.5 3242,-19.5 3242,-0.5 3177,-0.5"/>
<text text-anchor="middle" x="3209.5" y="-7.5" font-family="Helvetica,sans-Serif" font-size="10.00">jfdctint.cpp</text>
</a>
</g>
</g>
<!-- Node2&#45;&gt;Node40 -->
<g id="edge39" class="edge"><title>Node2&#45;&gt;Node40</title>
<path fill="none" stroke="midnightblue" d="M2094.2,-64.3803C2261.59,-61.4214 2953.65,-47.7134 3168.5,-20 3171.25,-19.6457 3174.08,-19.1983 3176.92,-18.6932"/>
<polygon fill="midnightblue" stroke="midnightblue" points="2094.11,-60.8814 2084.17,-64.5559 2094.23,-67.8804 2094.11,-60.8814"/>
</g>
<!-- Node41 -->
<g id="node41" class="node"><title>Node41</title>
<g id="a_node41"><a xlink:href="jidctflt_8cpp.html" target="_top" xlink:title="jidctflt.cpp">
<polygon fill="white" stroke="black" points="3260.5,-0.5 3260.5,-19.5 3322.5,-19.5 3322.5,-0.5 3260.5,-0.5"/>
<text text-anchor="middle" x="3291.5" y="-7.5" font-family="Helvetica,sans-Serif" font-size="10.00">jidctflt.cpp</text>
</a>
</g>
</g>
<!-- Node2&#45;&gt;Node41 -->
<g id="edge40" class="edge"><title>Node2&#45;&gt;Node41</title>
<path fill="none" stroke="midnightblue" d="M2094.36,-64.523C2269.61,-62.1157 3019.54,-50.2058 3251.5,-20 3254.32,-19.6323 3257.24,-19.1598 3260.15,-18.6242"/>
<polygon fill="midnightblue" stroke="midnightblue" points="2094.07,-61.0265 2084.12,-64.6617 2094.17,-68.0258 2094.07,-61.0265"/>
</g>
<!-- Node42 -->
<g id="node42" class="node"><title>Node42</title>
<g id="a_node42"><a xlink:href="jidctfst_8cpp.html" target="_top" xlink:title="jidctfst.cpp">
<polygon fill="white" stroke="black" points="3341,-0.5 3341,-19.5 3406,-19.5 3406,-0.5 3341,-0.5"/>
<text text-anchor="middle" x="3373.5" y="-7.5" font-family="Helvetica,sans-Serif" font-size="10.00">jidctfst.cpp</text>
</a>
</g>
</g>
<!-- Node2&#45;&gt;Node42 -->
<g id="edge41" class="edge"><title>Node2&#45;&gt;Node42</title>
<path fill="none" stroke="midnightblue" d="M2094.18,-64.5754C2276.08,-62.3365 3082.63,-50.8163 3331.5,-20 3334.46,-19.6334 3337.52,-19.1617 3340.58,-18.6266"/>
<polygon fill="midnightblue" stroke="midnightblue" points="2094.02,-61.077 2084.06,-64.6982 2094.1,-68.0765 2094.02,-61.077"/>
</g>
<!-- Node43 -->
<g id="node43" class="node"><title>Node43</title>
<g id="a_node43"><a xlink:href="jidctint_8cpp.html" target="_top" xlink:title="jidctint.cpp">
<polygon fill="white" stroke="black" points="3424.5,-0.5 3424.5,-19.5 3488.5,-19.5 3488.5,-0.5 3424.5,-0.5"/>
<text text-anchor="middle" x="3456.5" y="-7.5" font-family="Helvetica,sans-Serif" font-size="10.00">jidctint.cpp</text>
</a>
</g>
</g>
<!-- Node2&#45;&gt;Node43 -->
<g id="edge42" class="edge"><title>Node2&#45;&gt;Node43</title>
<path fill="none" stroke="midnightblue" d="M2094.45,-64.69C2284.06,-62.96 3149.3,-53.3427 3415.5,-20 3418.39,-19.6377 3421.38,-19.1689 3424.37,-18.6357"/>
<polygon fill="midnightblue" stroke="midnightblue" points="2094.15,-61.1925 2084.18,-64.782 2094.21,-68.1922 2094.15,-61.1925"/>
</g>
<!-- Node44 -->
<g id="node44" class="node"><title>Node44</title>
<g id="a_node44"><a xlink:href="jidctred_8cpp.html" target="_top" xlink:title="jidctred.cpp">
<polygon fill="white" stroke="black" points="3507,-0.5 3507,-19.5 3574,-19.5 3574,-0.5 3507,-0.5"/>
<text text-anchor="middle" x="3540.5" y="-7.5" font-family="Helvetica,sans-Serif" font-size="10.00">jidctred.cpp</text>
</a>
</g>
</g>
<!-- Node2&#45;&gt;Node44 -->
<g id="edge43" class="edge"><title>Node2&#45;&gt;Node44</title>
<path fill="none" stroke="midnightblue" d="M2094.16,-64.7244C2289.92,-63.1204 3213.85,-53.8524 3497.5,-20 3500.53,-19.6385 3503.66,-19.1702 3506.79,-18.6373"/>
<polygon fill="midnightblue" stroke="midnightblue" points="2094.07,-61.2249 2084.1,-64.8053 2094.13,-68.2247 2094.07,-61.2249"/>
</g>
<!-- Node45 -->
<g id="node45" class="node"><title>Node45</title>
<g id="a_node45"><a xlink:href="jmemmgr_8cpp.html" target="_top" xlink:title="jmemmgr.cpp">
<polygon fill="white" stroke="black" points="3592.5,-0.5 3592.5,-19.5 3668.5,-19.5 3668.5,-0.5 3592.5,-0.5"/>
<text text-anchor="middle" x="3630.5" y="-7.5" font-family="Helvetica,sans-Serif" font-size="10.00">jmemmgr.cpp</text>
</a>
</g>
</g>
<!-- Node2&#45;&gt;Node45 -->
<g id="edge44" class="edge"><title>Node2&#45;&gt;Node45</title>
<path fill="none" stroke="midnightblue" d="M2094.38,-64.7124C2297.5,-63.0067 3281.64,-53.1377 3583.5,-20 3586.39,-19.6827 3589.37,-19.2839 3592.36,-18.8319"/>
<polygon fill="midnightblue" stroke="midnightblue" points="2094.2,-61.2136 2084.23,-64.7962 2094.26,-68.2133 2094.2,-61.2136"/>
</g>
<!-- Node46 -->
<g id="node46" class="node"><title>Node46</title>
<g id="a_node46"><a xlink:href="jmemnobs_8cpp.html" target="_top" xlink:title="jmemnobs.cpp">
<polygon fill="white" stroke="black" points="3686.5,-0.5 3686.5,-19.5 3766.5,-19.5 3766.5,-0.5 3686.5,-0.5"/>
<text text-anchor="middle" x="3726.5" y="-7.5" font-family="Helvetica,sans-Serif" font-size="10.00">jmemnobs.cpp</text>
</a>
</g>
</g>
<!-- Node2&#45;&gt;Node46 -->
<g id="edge45" class="edge"><title>Node2&#45;&gt;Node46</title>
<path fill="none" stroke="midnightblue" d="M2094.28,-64.7483C2304.48,-63.193 3355.71,-53.8184 3677.5,-20 3680.42,-19.6926 3683.44,-19.3082 3686.46,-18.8725"/>
<polygon fill="midnightblue" stroke="midnightblue" points="2094.06,-61.2497 2084.08,-64.8224 2094.11,-68.2495 2094.06,-61.2497"/>
</g>
<!-- Node47 -->
<g id="node47" class="node"><title>Node47</title>
<g id="a_node47"><a xlink:href="jpeg__rw_8cpp.html" target="_top" xlink:title="jpeg_rw.cpp">
<polygon fill="white" stroke="black" points="3785,-0.5 3785,-19.5 3854,-19.5 3854,-0.5 3785,-0.5"/>
<text text-anchor="middle" x="3819.5" y="-7.5" font-family="Helvetica,sans-Serif" font-size="10.00">jpeg_rw.cpp</text>
</a>
</g>
</g>
<!-- Node2&#45;&gt;Node47 -->
<g id="edge46" class="edge"><title>Node2&#45;&gt;Node47</title>
<path fill="none" stroke="midnightblue" d="M2094.42,-64.9155C2312.42,-64.2828 3433.52,-59.1464 3775.5,-20 3778.44,-19.663 3781.48,-19.2278 3784.52,-18.7309"/>
<polygon fill="midnightblue" stroke="midnightblue" points="2094.15,-61.4161 2084.16,-64.9438 2094.17,-68.4161 2094.15,-61.4161"/>
</g>
<!-- Node48 -->
<g id="node48" class="node"><title>Node48</title>
<g id="a_node48"><a xlink:href="jquant1_8cpp.html" target="_top" xlink:title="jquant1.cpp">
<polygon fill="white" stroke="black" points="3872,-0.5 3872,-19.5 3939,-19.5 3939,-0.5 3872,-0.5"/>
<text text-anchor="middle" x="3905.5" y="-7.5" font-family="Helvetica,sans-Serif" font-size="10.00">jquant1.cpp</text>
</a>
</g>
</g>
<!-- Node2&#45;&gt;Node48 -->
<g id="edge47" class="edge"><title>Node2&#45;&gt;Node48</title>
<path fill="none" stroke="midnightblue" d="M2094.53,-65.0167C2319.31,-64.9764 3503.24,-62.7097 3863.5,-20 3866.17,-19.6839 3868.91,-19.2788 3871.66,-18.8159"/>
<polygon fill="midnightblue" stroke="midnightblue" points="2094.26,-61.5166 2084.26,-65.0171 2094.26,-68.5166 2094.26,-61.5166"/>
</g>
<!-- Node49 -->
<g id="node49" class="node"><title>Node49</title>
<g id="a_node49"><a xlink:href="jquant2_8cpp.html" target="_top" xlink:title="jquant2.cpp">
<polygon fill="white" stroke="black" points="3957,-0.5 3957,-19.5 4024,-19.5 4024,-0.5 3957,-0.5"/>
<text text-anchor="middle" x="3990.5" y="-7.5" font-family="Helvetica,sans-Serif" font-size="10.00">jquant2.cpp</text>
</a>
</g>
</g>
<!-- Node2&#45;&gt;Node49 -->
<g id="edge48" class="edge"><title>Node2&#45;&gt;Node49</title>
<path fill="none" stroke="midnightblue" d="M2094.44,-65.0647C2325.12,-65.3268 3570.28,-64.6243 3948.5,-20 3951.17,-19.6854 3953.91,-19.2814 3956.67,-18.8192"/>
<polygon fill="midnightblue" stroke="midnightblue" points="2094.23,-61.5646 2084.23,-65.0517 2094.22,-68.5646 2094.23,-61.5646"/>
</g>
<!-- Node50 -->
<g id="node50" class="node"><title>Node50</title>
<g id="a_node50"><a xlink:href="jutils_8cpp.html" target="_top" xlink:title="jutils.cpp">
<polygon fill="white" stroke="black" points="4042.5,-0.5 4042.5,-19.5 4098.5,-19.5 4098.5,-0.5 4042.5,-0.5"/>
<text text-anchor="middle" x="4070.5" y="-7.5" font-family="Helvetica,sans-Serif" font-size="10.00">jutils.cpp</text>
</a>
</g>
</g>
<!-- Node2&#45;&gt;Node50 -->
<g id="edge49" class="edge"><title>Node2&#45;&gt;Node50</title>
<path fill="none" stroke="midnightblue" d="M2094.32,-64.6402C2348.15,-62.0961 3834.46,-46.1614 4033.5,-20 4036.38,-19.6209 4039.37,-19.1063 4042.34,-18.5139"/>
<polygon fill="midnightblue" stroke="midnightblue" points="2094.11,-61.1419 2084.15,-64.7415 2094.18,-68.1416 2094.11,-61.1419"/>
</g>
</g>
</svg>
        <g id="navigator" transform="translate(0 0)" fill="#404254">
                <rect fill="#f2f5e9" fill-opacity="0.5" stroke="#606060" stroke-width=".5" x="0" y="0" width="60" height="60"/>
                <use id="zoomplus" xlink:href="#zoomPlus" x="17" y="9" onmousedown="handleZoom(evt,'in')"/>
                <use id="zoomminus" xlink:href="#zoomMin" x="42" y="9" onmousedown="handleZoom(evt,'out')"/>
                <use id="reset" xlink:href="#resetDef" x="30" y="36" onmousedown="handleReset()"/>
                <g id="arrowUp" xlink:href="#dirArrow" transform="translate(30 24)" onmousedown="handlePan(0,-1)">
                  <use xlink:href="#rim" fill="#404040">
                        <set attributeName="fill" to="#808080" begin="arrowUp.mouseover" end="arrowUp.mouseout"/>
                  </use>
                  <path fill="none" stroke="white" stroke-width="1.5" d="M0,-3.0v7 M-2.5,-0.5L0,-3.0L2.5,-0.5"/>
                </g>
                <g id="arrowRight" xlink:href="#dirArrow" transform="rotate(90) translate(36 -43)" onmousedown="handlePan(1,0)">
                  <use xlink:href="#rim" fill="#404040">
                        <set attributeName="fill" to="#808080" begin="arrowRight.mouseover" end="arrowRight.mouseout"/>
                  </use>
                  <path fill="none" stroke="white" stroke-width="1.5" d="M0,-3.0v7 M-2.5,-0.5L0,-3.0L2.5,-0.5"/>
                </g>
                <g id="arrowDown" xlink:href="#dirArrow" transform="rotate(180) translate(-30 -48)" onmousedown="handlePan(0,1)">
                  <use xlink:href="#rim" fill="#404040">
                        <set attributeName="fill" to="#808080" begin="arrowDown.mouseover" end="arrowDown.mouseout"/>
                  </use>
                  <path fill="none" stroke="white" stroke-width="1.5" d="M0,-3.0v7 M-2.5,-0.5L0,-3.0L2.5,-0.5"/>
                </g>
                <g id="arrowLeft" xlink:href="#dirArrow" transform="rotate(270) translate(-36 17)" onmousedown="handlePan(-1,0)">
                  <use xlink:href="#rim" fill="#404040">
                        <set attributeName="fill" to="#808080" begin="arrowLeft.mouseover" end="arrowLeft.mouseout"/>
                  </use>
                  <path fill="none" stroke="white" stroke-width="1.5" d="M0,-3.0v7 M-2.5,-0.5L0,-3.0L2.5,-0.5"/>
                </g>
        </g>
        <svg viewBox="0 0 15 15" width="100%" height="30px" preserveAspectRatio="xMaxYMin meet">
         <g id="arrow_out" transform="scale(0.3 0.3)">
          <a xlink:href="jmorecfg_8h__dep__incl_org.svg" target="_base">
           <rect id="button" ry="5" rx="5" y="6" x="6" height="38" width="38"
                fill="#f2f5e9" fill-opacity="0.5" stroke="#606060" stroke-width="1.0"/>
           <path id="arrow"
             d="M 11.500037,31.436501 C 11.940474,20.09759 22.043105,11.32322 32.158766,21.979434 L 37.068811,17.246167 C 37.068811,17.246167 37.088388,32 37.088388,32 L 22.160133,31.978069 C 22.160133,31.978069 26.997745,27.140456 26.997745,27.140456 C 18.528582,18.264221 13.291696,25.230495 11.500037,31.436501 z"
             style="fill:#404040;"/>
          </a>
         </g>
        </svg>
</svg>
