<?xml version="1.0" encoding="UTF-8" standalone="no"?>
<!DOCTYPE svg PUBLIC "-//W3C//DTD SVG 1.1//EN"
 "http://www.w3.org/Graphics/SVG/1.1/DTD/svg11.dtd">
<!-- Generated by graphviz version 2.38.0 (20140413.2041)
 -->
<!-- Title: jpeglib.h Pages: 1 -->
<svg width="336pt" height="84pt"
 viewBox="0.00 0.00 335.50 84.00" xmlns="http://www.w3.org/2000/svg" xmlns:xlink="http://www.w3.org/1999/xlink">
<g id="graph0" class="graph" transform="scale(1 1) rotate(0) translate(4 80)">
<title>jpeglib.h</title>
<polygon fill="white" stroke="none" points="-4,4 -4,-80 331.5,-80 331.5,4 -4,4"/>
<!-- Node1 -->
<g id="node1" class="node"><title>Node1</title>
<polygon fill="#bfbfbf" stroke="black" points="126.5,-56.5 126.5,-75.5 179.5,-75.5 179.5,-56.5 126.5,-56.5"/>
<text text-anchor="middle" x="153" y="-63.5" font-family="Helvetica,sans-Serif" font-size="10.00">jpeglib.h</text>
</g>
<!-- Node2 -->
<g id="node2" class="node"><title>Node2</title>
<polygon fill="white" stroke="#bfbfbf" points="0,-0.5 0,-19.5 44,-19.5 44,-0.5 0,-0.5"/>
<text text-anchor="middle" x="22" y="-7.5" font-family="Helvetica,sans-Serif" font-size="10.00">vector</text>
</g>
<!-- Node1&#45;&gt;Node2 -->
<g id="edge1" class="edge"><title>Node1&#45;&gt;Node2</title>
<path fill="none" stroke="midnightblue" d="M132.243,-56.4435C110.684,-47.5566 76.7367,-33.5632 52.2062,-23.4514"/>
<polygon fill="midnightblue" stroke="midnightblue" points="53.2394,-20.0917 42.6602,-19.5164 50.5717,-26.5634 53.2394,-20.0917"/>
</g>
<!-- Node3 -->
<g id="node3" class="node"><title>Node3</title>
<polygon fill="white" stroke="#bfbfbf" points="62.5,-0.5 62.5,-19.5 111.5,-19.5 111.5,-0.5 62.5,-0.5"/>
<text text-anchor="middle" x="87" y="-7.5" font-family="Helvetica,sans-Serif" font-size="10.00">stdint.h</text>
</g>
<!-- Node1&#45;&gt;Node3 -->
<g id="edge2" class="edge"><title>Node1&#45;&gt;Node3</title>
<path fill="none" stroke="midnightblue" d="M142.396,-56.324C132.544,-48.2631 117.649,-36.0765 105.785,-26.3695"/>
<polygon fill="midnightblue" stroke="midnightblue" points="107.753,-23.4575 97.797,-19.8339 103.32,-28.8752 107.753,-23.4575"/>
</g>
<!-- Node4 -->
<g id="node4" class="node"><title>Node4</title>
<polygon fill="white" stroke="#bfbfbf" points="130,-0.5 130,-19.5 176,-19.5 176,-0.5 130,-0.5"/>
<text text-anchor="middle" x="153" y="-7.5" font-family="Helvetica,sans-Serif" font-size="10.00">stdio.h</text>
</g>
<!-- Node1&#45;&gt;Node4 -->
<g id="edge3" class="edge"><title>Node1&#45;&gt;Node4</title>
<path fill="none" stroke="midnightblue" d="M153,-56.083C153,-49.0059 153,-38.8611 153,-29.9865"/>
<polygon fill="midnightblue" stroke="midnightblue" points="156.5,-29.751 153,-19.7511 149.5,-29.7511 156.5,-29.751"/>
</g>
<!-- Node5 -->
<g id="node5" class="node"><title>Node5</title>
<g id="a_node5"><a xlink:href="jmorecfg_8h.html" target="_top" xlink:title="jmorecfg.h">
<polygon fill="white" stroke="black" points="194,-0.5 194,-19.5 256,-19.5 256,-0.5 194,-0.5"/>
<text text-anchor="middle" x="225" y="-7.5" font-family="Helvetica,sans-Serif" font-size="10.00">jmorecfg.h</text>
</a>
</g>
</g>
<!-- Node1&#45;&gt;Node5 -->
<g id="edge4" class="edge"><title>Node1&#45;&gt;Node5</title>
<path fill="none" stroke="midnightblue" d="M164.568,-56.324C175.42,-48.1849 191.881,-35.8395 204.883,-26.0874"/>
<polygon fill="midnightblue" stroke="midnightblue" points="207.321,-28.6339 213.221,-19.8339 203.121,-23.0339 207.321,-28.6339"/>
</g>
<!-- Node6 -->
<g id="node6" class="node"><title>Node6</title>
<g id="a_node6"><a xlink:href="jconfig_8h.html" target="_top" xlink:title="jconfig.h">
<polygon fill="white" stroke="black" points="274.5,-0.5 274.5,-19.5 327.5,-19.5 327.5,-0.5 274.5,-0.5"/>
<text text-anchor="middle" x="301" y="-7.5" font-family="Helvetica,sans-Serif" font-size="10.00">jconfig.h</text>
</a>
</g>
</g>
<!-- Node1&#45;&gt;Node6 -->
<g id="edge5" class="edge"><title>Node1&#45;&gt;Node6</title>
<path fill="none" stroke="midnightblue" d="M176.451,-56.4435C201.133,-47.4381 240.185,-33.1891 267.977,-23.049"/>
<polygon fill="midnightblue" stroke="midnightblue" points="269.464,-26.2321 277.659,-19.5164 267.065,-19.6561 269.464,-26.2321"/>
</g>
</g>
</svg>
