<?xml version="1.0" encoding="UTF-8" standalone="no"?>
<!DOCTYPE svg PUBLIC "-//W3C//DTD SVG 1.1//EN"
 "http://www.w3.org/Graphics/SVG/1.1/DTD/svg11.dtd">
<!-- Generated by graphviz version 2.38.0 (20140413.2041)
 -->
<!-- Title: jpeg_rw.cpp Pages: 1 -->
<svg width="351pt" height="140pt"
 viewBox="0.00 0.00 350.50 140.00" xmlns="http://www.w3.org/2000/svg" xmlns:xlink="http://www.w3.org/1999/xlink">
<g id="graph0" class="graph" transform="scale(1 1) rotate(0) translate(4 136)">
<title>jpeg_rw.cpp</title>
<polygon fill="white" stroke="none" points="-4,4 -4,-136 346.5,-136 346.5,4 -4,4"/>
<!-- Node1 -->
<g id="node1" class="node"><title>Node1</title>
<polygon fill="#bfbfbf" stroke="black" points="77.5,-112.5 77.5,-131.5 146.5,-131.5 146.5,-112.5 77.5,-112.5"/>
<text text-anchor="middle" x="112" y="-119.5" font-family="Helvetica,sans-Serif" font-size="10.00">jpeg_rw.cpp</text>
</g>
<!-- Node2 -->
<g id="node2" class="node"><title>Node2</title>
<polygon fill="white" stroke="#bfbfbf" points="0,-0.5 0,-19.5 46,-19.5 46,-0.5 0,-0.5"/>
<text text-anchor="middle" x="23" y="-7.5" font-family="Helvetica,sans-Serif" font-size="10.00">stdio.h</text>
</g>
<!-- Node1&#45;&gt;Node2 -->
<g id="edge1" class="edge"><title>Node1&#45;&gt;Node2</title>
<path fill="none" stroke="midnightblue" d="M77.4332,-115.318C54.6152,-109.579 26.3685,-98.2221 12,-76 2.98718,-62.0609 7.71689,-43.0536 13.5108,-29.1944"/>
<polygon fill="midnightblue" stroke="midnightblue" points="16.8545,-30.3081 17.9388,-19.7689 10.5188,-27.3316 16.8545,-30.3081"/>
</g>
<!-- Node3 -->
<g id="node3" class="node"><title>Node3</title>
<polygon fill="white" stroke="#bfbfbf" points="21,-56.5 21,-75.5 69,-75.5 69,-56.5 21,-56.5"/>
<text text-anchor="middle" x="45" y="-63.5" font-family="Helvetica,sans-Serif" font-size="10.00">stdlib.h</text>
</g>
<!-- Node1&#45;&gt;Node3 -->
<g id="edge2" class="edge"><title>Node1&#45;&gt;Node3</title>
<path fill="none" stroke="midnightblue" d="M101.235,-112.324C91.2339,-104.263 76.1135,-92.0765 64.0695,-82.3695"/>
<polygon fill="midnightblue" stroke="midnightblue" points="65.9429,-79.3841 55.9606,-75.8339 61.5502,-84.8343 65.9429,-79.3841"/>
</g>
<!-- Node4 -->
<g id="node4" class="node"><title>Node4</title>
<polygon fill="white" stroke="#bfbfbf" points="87.5,-56.5 87.5,-75.5 136.5,-75.5 136.5,-56.5 87.5,-56.5"/>
<text text-anchor="middle" x="112" y="-63.5" font-family="Helvetica,sans-Serif" font-size="10.00">string.h</text>
</g>
<!-- Node1&#45;&gt;Node4 -->
<g id="edge3" class="edge"><title>Node1&#45;&gt;Node4</title>
<path fill="none" stroke="midnightblue" d="M112,-112.083C112,-105.006 112,-94.8611 112,-85.9865"/>
<polygon fill="midnightblue" stroke="midnightblue" points="115.5,-85.751 112,-75.7511 108.5,-85.7511 115.5,-85.751"/>
</g>
<!-- Node5 -->
<g id="node5" class="node"><title>Node5</title>
<g id="a_node5"><a xlink:href="jpeglib_8h.html" target="_top" xlink:title="jpeglib.h">
<polygon fill="white" stroke="black" points="154.5,-56.5 154.5,-75.5 207.5,-75.5 207.5,-56.5 154.5,-56.5"/>
<text text-anchor="middle" x="181" y="-63.5" font-family="Helvetica,sans-Serif" font-size="10.00">jpeglib.h</text>
</a>
</g>
</g>
<!-- Node1&#45;&gt;Node5 -->
<g id="edge4" class="edge"><title>Node1&#45;&gt;Node5</title>
<path fill="none" stroke="midnightblue" d="M123.086,-112.324C133.486,-104.185 149.261,-91.8395 161.722,-82.0874"/>
<polygon fill="midnightblue" stroke="midnightblue" points="163.994,-84.7533 169.712,-75.8339 159.68,-79.2407 163.994,-84.7533"/>
</g>
<!-- Node10 -->
<g id="node10" class="node"><title>Node10</title>
<polygon fill="white" stroke="#bfbfbf" points="226,-56.5 226,-75.5 280,-75.5 280,-56.5 226,-56.5"/>
<text text-anchor="middle" x="253" y="-63.5" font-family="Helvetica,sans-Serif" font-size="10.00">setjmp.h</text>
</g>
<!-- Node1&#45;&gt;Node10 -->
<g id="edge10" class="edge"><title>Node1&#45;&gt;Node10</title>
<path fill="none" stroke="midnightblue" d="M134.342,-112.444C157.753,-103.478 194.736,-89.314 221.19,-79.1827"/>
<polygon fill="midnightblue" stroke="midnightblue" points="222.676,-82.3615 230.763,-75.5164 220.172,-75.8245 222.676,-82.3615"/>
</g>
<!-- Node5&#45;&gt;Node2 -->
<g id="edge7" class="edge"><title>Node5&#45;&gt;Node2</title>
<path fill="none" stroke="midnightblue" d="M155.964,-56.4435C128.837,-47.1721 85.4472,-32.3427 55.6574,-22.1614"/>
<polygon fill="midnightblue" stroke="midnightblue" points="56.7138,-18.8237 46.1193,-18.9015 54.4499,-25.4476 56.7138,-18.8237"/>
</g>
<!-- Node6 -->
<g id="node6" class="node"><title>Node6</title>
<polygon fill="white" stroke="#bfbfbf" points="79,-0.5 79,-19.5 123,-19.5 123,-0.5 79,-0.5"/>
<text text-anchor="middle" x="101" y="-7.5" font-family="Helvetica,sans-Serif" font-size="10.00">vector</text>
</g>
<!-- Node5&#45;&gt;Node6 -->
<g id="edge5" class="edge"><title>Node5&#45;&gt;Node6</title>
<path fill="none" stroke="midnightblue" d="M168.147,-56.324C155.784,-47.979 136.87,-35.2122 122.263,-25.3524"/>
<polygon fill="midnightblue" stroke="midnightblue" points="124.068,-22.3483 113.821,-19.6545 120.152,-28.1503 124.068,-22.3483"/>
</g>
<!-- Node7 -->
<g id="node7" class="node"><title>Node7</title>
<polygon fill="white" stroke="#bfbfbf" points="141.5,-0.5 141.5,-19.5 190.5,-19.5 190.5,-0.5 141.5,-0.5"/>
<text text-anchor="middle" x="166" y="-7.5" font-family="Helvetica,sans-Serif" font-size="10.00">stdint.h</text>
</g>
<!-- Node5&#45;&gt;Node7 -->
<g id="edge6" class="edge"><title>Node5&#45;&gt;Node7</title>
<path fill="none" stroke="midnightblue" d="M178.523,-56.083C176.514,-48.8486 173.614,-38.4087 171.11,-29.3968"/>
<polygon fill="midnightblue" stroke="midnightblue" points="174.48,-28.4495 168.431,-19.7511 167.735,-30.323 174.48,-28.4495"/>
</g>
<!-- Node8 -->
<g id="node8" class="node"><title>Node8</title>
<g id="a_node8"><a xlink:href="jmorecfg_8h.html" target="_top" xlink:title="jmorecfg.h">
<polygon fill="white" stroke="black" points="209,-0.5 209,-19.5 271,-19.5 271,-0.5 209,-0.5"/>
<text text-anchor="middle" x="240" y="-7.5" font-family="Helvetica,sans-Serif" font-size="10.00">jmorecfg.h</text>
</a>
</g>
</g>
<!-- Node5&#45;&gt;Node8 -->
<g id="edge8" class="edge"><title>Node5&#45;&gt;Node8</title>
<path fill="none" stroke="midnightblue" d="M190.479,-56.324C199.201,-48.3414 212.343,-36.3128 222.898,-26.6529"/>
<polygon fill="midnightblue" stroke="midnightblue" points="225.334,-29.1674 230.348,-19.8339 220.608,-24.0036 225.334,-29.1674"/>
</g>
<!-- Node9 -->
<g id="node9" class="node"><title>Node9</title>
<g id="a_node9"><a xlink:href="jconfig_8h.html" target="_top" xlink:title="jconfig.h">
<polygon fill="white" stroke="black" points="289.5,-0.5 289.5,-19.5 342.5,-19.5 342.5,-0.5 289.5,-0.5"/>
<text text-anchor="middle" x="316" y="-7.5" font-family="Helvetica,sans-Serif" font-size="10.00">jconfig.h</text>
</a>
</g>
</g>
<!-- Node5&#45;&gt;Node9 -->
<g id="edge9" class="edge"><title>Node5&#45;&gt;Node9</title>
<path fill="none" stroke="midnightblue" d="M202.391,-56.4435C224.707,-47.5171 259.903,-33.4387 285.208,-23.3168"/>
<polygon fill="midnightblue" stroke="midnightblue" points="286.724,-26.4801 294.709,-19.5164 284.124,-19.9807 286.724,-26.4801"/>
</g>
</g>
</svg>
