<?xml version="1.0" encoding="UTF-8" standalone="no"?>
<!DOCTYPE svg PUBLIC "-//W3C//DTD SVG 1.1//EN"
 "http://www.w3.org/Graphics/SVG/1.1/DTD/svg11.dtd">
<!-- Generated by graphviz version 2.38.0 (20140413.2041)
 -->
<!-- Title: jpleph.cpp Pages: 1 -->
<!--zoomable 308 -->
<svg id="main" version="1.1" xmlns="http://www.w3.org/2000/svg" xmlns:xlink="http://www.w3.org/1999/xlink" xml:space="preserve" onload="init(evt)">
<style type="text/css"><![CDATA[
.edge:hover path { stroke: red; }
.edge:hover polygon { stroke: red; fill: red; }
]]></style>
<script type="text/javascript"><![CDATA[
var edges = document.getElementsByTagName('g');
if (edges && edges.length) {
  for (var i=0;i<edges.length;i++) {
    if (edges[i].id.substr(0,4)=='edge') {
      edges[i].setAttribute('class','edge');
    }
  }
}
]]></script>
        <defs>
                <circle id="rim" cx="0" cy="0" r="7"/>
                <circle id="rim2" cx="0" cy="0" r="3.5"/>
                <g id="zoomPlus">
                        <use xlink:href="#rim" fill="#404040">
                                <set attributeName="fill" to="#808080" begin="zoomplus.mouseover" end="zoomplus.mouseout"/>
                        </use>
                        <path d="M-4,0h8M0,-4v8" fill="none" stroke="white" stroke-width="1.5" pointer-events="none"/>
                </g>
                <g id="zoomMin">
                        <use xlink:href="#rim" fill="#404040">
                                <set attributeName="fill" to="#808080" begin="zoomminus.mouseover" end="zoomminus.mouseout"/>
                        </use>
                        <path d="M-4,0h8" fill="none" stroke="white" stroke-width="1.5" pointer-events="none"/>
                </g>
                <g id="dirArrow">
                        <path fill="none" stroke="white" stroke-width="1.5" d="M0,-3.0v7 M-2.5,-0.5L0,-3.0L2.5,-0.5"/>
                </g>
               <g id="resetDef">
                       <use xlink:href="#rim2" fill="#404040">
                               <set attributeName="fill" to="#808080" begin="reset.mouseover" end="reset.mouseout"/>
                       </use>
               </g>
        </defs>

<script type="text/javascript">
var viewWidth = 1764;
var viewHeight = 308;
var sectionId = 'dynsection-0';
</script>
<script xlink:href="svgpan.js"/>
<svg id="graph" class="graph">
<g id="viewport">
<title>jpleph.cpp</title>
<polygon fill="white" stroke="none" points="-4,4 -4,-304 1759.5,-304 1759.5,4 -4,4"/>
<!-- Node1 -->
<g id="node1" class="node"><title>Node1</title>
<polygon fill="#bfbfbf" stroke="black" points="739.5,-280.5 739.5,-299.5 800.5,-299.5 800.5,-280.5 739.5,-280.5"/>
<text text-anchor="middle" x="770" y="-287.5" font-family="Helvetica,sans-Serif" font-size="10.00">jpleph.cpp</text>
</g>
<!-- Node2 -->
<g id="node2" class="node"><title>Node2</title>
<g id="a_node2"><a xlink:href="config_cosmos_8h.html" target="_top" xlink:title="Headers and definitions common to all COSMOS. ">
<polygon fill="white" stroke="black" points="762.5,-112.5 762.5,-131.5 885.5,-131.5 885.5,-112.5 762.5,-112.5"/>
<text text-anchor="middle" x="824" y="-119.5" font-family="Helvetica,sans-Serif" font-size="10.00">support/configCosmos.h</text>
</a>
</g>
</g>
<!-- Node1&#45;&gt;Node2 -->
<g id="edge1" class="edge"><title>Node1&#45;&gt;Node2</title>
<path fill="none" stroke="midnightblue" d="M764.97,-280.143C758.5,-267.608 748.69,-243.993 754,-224 763.111,-189.693 789.946,-157.318 807.619,-138.854"/>
<polygon fill="midnightblue" stroke="midnightblue" points="810.238,-141.184 814.776,-131.61 805.258,-136.264 810.238,-141.184"/>
</g>
<!-- Node11 -->
<g id="node11" class="node"><title>Node11</title>
<polygon fill="white" stroke="#bfbfbf" points="0,-56.5 0,-75.5 46,-75.5 46,-56.5 0,-56.5"/>
<text text-anchor="middle" x="23" y="-63.5" font-family="Helvetica,sans-Serif" font-size="10.00">cstring</text>
</g>
<!-- Node1&#45;&gt;Node11 -->
<g id="edge45" class="edge"><title>Node1&#45;&gt;Node11</title>
<path fill="none" stroke="midnightblue" d="M739.476,-283.089C699.897,-275.215 628.847,-260.361 569,-244 371.799,-190.087 140.004,-108.908 55.7161,-78.7908"/>
<polygon fill="midnightblue" stroke="midnightblue" points="56.7751,-75.4524 46.1806,-75.3763 54.4153,-82.0427 56.7751,-75.4524"/>
</g>
<!-- Node12 -->
<g id="node12" class="node"><title>Node12</title>
<polygon fill="white" stroke="#bfbfbf" points="64,-56.5 64,-75.5 108,-75.5 108,-56.5 64,-56.5"/>
<text text-anchor="middle" x="86" y="-63.5" font-family="Helvetica,sans-Serif" font-size="10.00">cmath</text>
</g>
<!-- Node1&#45;&gt;Node12 -->
<g id="edge44" class="edge"><title>Node1&#45;&gt;Node12</title>
<path fill="none" stroke="midnightblue" d="M743.606,-280.433C636.48,-245.665 234.348,-115.148 117.825,-77.3293"/>
<polygon fill="midnightblue" stroke="midnightblue" points="118.664,-73.9217 108.071,-74.1636 116.503,-80.5798 118.664,-73.9217"/>
</g>
<!-- Node35 -->
<g id="node35" class="node"><title>Node35</title>
<polygon fill="white" stroke="#bfbfbf" points="939,-168.5 939,-187.5 985,-187.5 985,-168.5 939,-168.5"/>
<text text-anchor="middle" x="962" y="-175.5" font-family="Helvetica,sans-Serif" font-size="10.00">stdio.h</text>
</g>
<!-- Node1&#45;&gt;Node35 -->
<g id="edge43" class="edge"><title>Node1&#45;&gt;Node35</title>
<path fill="none" stroke="midnightblue" d="M787.767,-280.473C805.711,-271.732 834.115,-257.538 858,-244 887.206,-227.446 919.886,-206.627 940.682,-193.076"/>
<polygon fill="midnightblue" stroke="midnightblue" points="942.635,-195.981 949.084,-187.575 938.801,-190.124 942.635,-195.981"/>
</g>
<!-- Node36 -->
<g id="node36" class="node"><title>Node36</title>
<polygon fill="white" stroke="#bfbfbf" points="905,-224.5 905,-243.5 953,-243.5 953,-224.5 905,-224.5"/>
<text text-anchor="middle" x="929" y="-231.5" font-family="Helvetica,sans-Serif" font-size="10.00">stdlib.h</text>
</g>
<!-- Node1&#45;&gt;Node36 -->
<g id="edge46" class="edge"><title>Node1&#45;&gt;Node36</title>
<path fill="none" stroke="midnightblue" d="M795.194,-280.444C822.257,-271.252 865.404,-256.599 895.355,-246.426"/>
<polygon fill="midnightblue" stroke="midnightblue" points="896.621,-249.693 904.965,-243.163 894.37,-243.065 896.621,-249.693"/>
</g>
<!-- Node37 -->
<g id="node37" class="node"><title>Node37</title>
<g id="a_node37"><a xlink:href="jpleph_8h.html" target="_top" xlink:title="JPL Ephemeris Support header file. ">
<polygon fill="white" stroke="black" points="763,-224.5 763,-243.5 849,-243.5 849,-224.5 763,-224.5"/>
<text text-anchor="middle" x="806" y="-231.5" font-family="Helvetica,sans-Serif" font-size="10.00">support/jpleph.h</text>
</a>
</g>
</g>
<!-- Node1&#45;&gt;Node37 -->
<g id="edge47" class="edge"><title>Node1&#45;&gt;Node37</title>
<path fill="none" stroke="midnightblue" d="M775.945,-280.083C780.977,-272.534 788.337,-261.495 794.513,-252.23"/>
<polygon fill="midnightblue" stroke="midnightblue" points="797.531,-254.013 800.166,-243.751 791.707,-250.13 797.531,-254.013"/>
</g>
<!-- Node3 -->
<g id="node3" class="node"><title>Node3</title>
<polygon fill="white" stroke="#bfbfbf" points="1378.5,-56.5 1378.5,-75.5 1423.5,-75.5 1423.5,-56.5 1378.5,-56.5"/>
<text text-anchor="middle" x="1401" y="-63.5" font-family="Helvetica,sans-Serif" font-size="10.00">climits</text>
</g>
<!-- Node2&#45;&gt;Node3 -->
<g id="edge2" class="edge"><title>Node2&#45;&gt;Node3</title>
<path fill="none" stroke="midnightblue" d="M885.552,-113.005C888.746,-112.65 891.91,-112.313 895,-112 1102.35,-91.0142 1159.88,-113.007 1368.4,-75.9444"/>
<polygon fill="midnightblue" stroke="midnightblue" points="1369.22,-79.3524 1378.44,-74.1345 1367.98,-72.4633 1369.22,-79.3524"/>
</g>
<!-- Node4 -->
<g id="node4" class="node"><title>Node4</title>
<polygon fill="white" stroke="#bfbfbf" points="1441.5,-56.5 1441.5,-75.5 1488.5,-75.5 1488.5,-56.5 1441.5,-56.5"/>
<text text-anchor="middle" x="1465" y="-63.5" font-family="Helvetica,sans-Serif" font-size="10.00">csignal</text>
</g>
<!-- Node2&#45;&gt;Node4 -->
<g id="edge3" class="edge"><title>Node2&#45;&gt;Node4</title>
<path fill="none" stroke="midnightblue" d="M885.549,-112.971C888.743,-112.626 891.908,-112.299 895,-112 1130.27,-89.2371 1195.07,-115.911 1431.43,-75.9395"/>
<polygon fill="midnightblue" stroke="midnightblue" points="1432.09,-79.3769 1441.36,-74.2386 1430.91,-72.4774 1432.09,-79.3769"/>
</g>
<!-- Node5 -->
<g id="node5" class="node"><title>Node5</title>
<polygon fill="white" stroke="#bfbfbf" points="1507,-56.5 1507,-75.5 1553,-75.5 1553,-56.5 1507,-56.5"/>
<text text-anchor="middle" x="1530" y="-63.5" font-family="Helvetica,sans-Serif" font-size="10.00">cstdint</text>
</g>
<!-- Node2&#45;&gt;Node5 -->
<g id="edge4" class="edge"><title>Node2&#45;&gt;Node5</title>
<path fill="none" stroke="midnightblue" d="M885.546,-112.944C888.741,-112.606 891.907,-112.288 895,-112 1159.06,-87.4091 1231.49,-119.792 1496.79,-75.8377"/>
<polygon fill="midnightblue" stroke="midnightblue" points="1497.43,-79.2791 1506.71,-74.1729 1496.27,-72.3756 1497.43,-79.2791"/>
</g>
<!-- Node6 -->
<g id="node6" class="node"><title>Node6</title>
<polygon fill="white" stroke="#bfbfbf" points="1571,-56.5 1571,-75.5 1627,-75.5 1627,-56.5 1571,-56.5"/>
<text text-anchor="middle" x="1599" y="-63.5" font-family="Helvetica,sans-Serif" font-size="10.00">cinttypes</text>
</g>
<!-- Node2&#45;&gt;Node6 -->
<g id="edge5" class="edge"><title>Node2&#45;&gt;Node6</title>
<path fill="none" stroke="midnightblue" d="M885.544,-112.923C888.74,-112.59 891.906,-112.279 895,-112 1187.35,-85.6156 1266.52,-118.513 1560.72,-75.9029"/>
<polygon fill="midnightblue" stroke="midnightblue" points="1561.44,-79.3347 1570.82,-74.4216 1560.42,-72.4086 1561.44,-79.3347"/>
</g>
<!-- Node7 -->
<g id="node7" class="node"><title>Node7</title>
<polygon fill="white" stroke="#bfbfbf" points="1645.5,-56.5 1645.5,-75.5 1688.5,-75.5 1688.5,-56.5 1645.5,-56.5"/>
<text text-anchor="middle" x="1667" y="-63.5" font-family="Helvetica,sans-Serif" font-size="10.00">cstdio</text>
</g>
<!-- Node2&#45;&gt;Node7 -->
<g id="edge6" class="edge"><title>Node2&#45;&gt;Node7</title>
<path fill="none" stroke="midnightblue" d="M885.542,-112.902C888.738,-112.575 891.906,-112.271 895,-112 1220.1,-83.5413 1308.97,-129.379 1635.25,-75.6516"/>
<polygon fill="midnightblue" stroke="midnightblue" points="1636.18,-79.0451 1645.47,-73.9494 1635.03,-72.1403 1636.18,-79.0451"/>
</g>
<!-- Node8 -->
<g id="node8" class="node"><title>Node8</title>
<polygon fill="white" stroke="#bfbfbf" points="1706.5,-56.5 1706.5,-75.5 1755.5,-75.5 1755.5,-56.5 1706.5,-56.5"/>
<text text-anchor="middle" x="1731" y="-63.5" font-family="Helvetica,sans-Serif" font-size="10.00">cstddef</text>
</g>
<!-- Node2&#45;&gt;Node8 -->
<g id="edge7" class="edge"><title>Node2&#45;&gt;Node8</title>
<path fill="none" stroke="midnightblue" d="M885.541,-112.888C888.738,-112.564 891.905,-112.265 895,-112 1247.64,-81.795 1343.3,-130.42 1696.28,-75.9363"/>
<polygon fill="midnightblue" stroke="midnightblue" points="1696.92,-79.3784 1706.26,-74.3785 1695.84,-72.4621 1696.92,-79.3784"/>
</g>
<!-- Node9 -->
<g id="node9" class="node"><title>Node9</title>
<polygon fill="white" stroke="#bfbfbf" points="126.5,-56.5 126.5,-75.5 171.5,-75.5 171.5,-56.5 126.5,-56.5"/>
<text text-anchor="middle" x="149" y="-63.5" font-family="Helvetica,sans-Serif" font-size="10.00">cstdlib</text>
</g>
<!-- Node2&#45;&gt;Node9 -->
<g id="edge8" class="edge"><title>Node2&#45;&gt;Node9</title>
<path fill="none" stroke="midnightblue" d="M762.283,-118.291C627.412,-112.118 308.98,-96.0902 181.522,-75.6421"/>
<polygon fill="midnightblue" stroke="midnightblue" points="182.036,-72.1796 171.594,-73.9712 180.874,-79.0825 182.036,-72.1796"/>
</g>
<!-- Node10 -->
<g id="node10" class="node"><title>Node10</title>
<polygon fill="white" stroke="#bfbfbf" points="190,-56.5 190,-75.5 234,-75.5 234,-56.5 190,-56.5"/>
<text text-anchor="middle" x="212" y="-63.5" font-family="Helvetica,sans-Serif" font-size="10.00">cerrno</text>
</g>
<!-- Node2&#45;&gt;Node10 -->
<g id="edge9" class="edge"><title>Node2&#45;&gt;Node10</title>
<path fill="none" stroke="midnightblue" d="M762.407,-120.366C657.572,-118.386 437.806,-110.32 244.29,-75.8646"/>
<polygon fill="midnightblue" stroke="midnightblue" points="244.684,-72.3791 234.22,-74.0433 243.438,-79.2674 244.684,-72.3791"/>
</g>
<!-- Node2&#45;&gt;Node11 -->
<g id="edge10" class="edge"><title>Node2&#45;&gt;Node11</title>
<path fill="none" stroke="midnightblue" d="M762.191,-121.878C632.55,-122.748 322.836,-119.744 56.1534,-75.8233"/>
<polygon fill="midnightblue" stroke="midnightblue" points="56.7265,-72.3706 46.2867,-74.1762 55.5739,-79.2751 56.7265,-72.3706"/>
</g>
<!-- Node2&#45;&gt;Node12 -->
<g id="edge11" class="edge"><title>Node2&#45;&gt;Node12</title>
<path fill="none" stroke="midnightblue" d="M762.273,-118.807C617.48,-113.39 258.309,-98.2976 118.306,-75.7849"/>
<polygon fill="midnightblue" stroke="midnightblue" points="118.657,-72.2947 108.214,-74.0809 117.491,-79.197 118.657,-72.2947"/>
</g>
<!-- Node13 -->
<g id="node13" class="node"><title>Node13</title>
<polygon fill="white" stroke="#bfbfbf" points="252.5,-56.5 252.5,-75.5 297.5,-75.5 297.5,-56.5 252.5,-56.5"/>
<text text-anchor="middle" x="275" y="-63.5" font-family="Helvetica,sans-Serif" font-size="10.00">iosfwd</text>
</g>
<!-- Node2&#45;&gt;Node13 -->
<g id="edge12" class="edge"><title>Node2&#45;&gt;Node13</title>
<path fill="none" stroke="midnightblue" d="M762.223,-119.358C666.61,-115.996 477.037,-106.067 307.455,-75.7135"/>
<polygon fill="midnightblue" stroke="midnightblue" points="308.068,-72.2675 297.603,-73.9226 306.816,-79.1547 308.068,-72.2675"/>
</g>
<!-- Node14 -->
<g id="node14" class="node"><title>Node14</title>
<polygon fill="white" stroke="#bfbfbf" points="316,-56.5 316,-75.5 370,-75.5 370,-56.5 316,-56.5"/>
<text text-anchor="middle" x="343" y="-63.5" font-family="Helvetica,sans-Serif" font-size="10.00">iostream</text>
</g>
<!-- Node2&#45;&gt;Node14 -->
<g id="edge13" class="edge"><title>Node2&#45;&gt;Node14</title>
<path fill="none" stroke="midnightblue" d="M762.434,-117.589C678.222,-112.301 522.301,-100.29 380.241,-75.9755"/>
<polygon fill="midnightblue" stroke="midnightblue" points="380.489,-72.4663 370.037,-74.2036 379.291,-79.3631 380.489,-72.4663"/>
</g>
<!-- Node15 -->
<g id="node15" class="node"><title>Node15</title>
<polygon fill="white" stroke="#bfbfbf" points="388,-56.5 388,-75.5 440,-75.5 440,-56.5 388,-56.5"/>
<text text-anchor="middle" x="414" y="-63.5" font-family="Helvetica,sans-Serif" font-size="10.00">sstream</text>
</g>
<!-- Node2&#45;&gt;Node15 -->
<g id="edge14" class="edge"><title>Node2&#45;&gt;Node15</title>
<path fill="none" stroke="midnightblue" d="M762.236,-116.111C689.709,-109.807 565.671,-97.2718 450.349,-76.0367"/>
<polygon fill="midnightblue" stroke="midnightblue" points="450.762,-72.5534 440.29,-74.1577 449.477,-79.4344 450.762,-72.5534"/>
</g>
<!-- Node16 -->
<g id="node16" class="node"><title>Node16</title>
<polygon fill="white" stroke="#bfbfbf" points="458.5,-56.5 458.5,-75.5 499.5,-75.5 499.5,-56.5 458.5,-56.5"/>
<text text-anchor="middle" x="479" y="-63.5" font-family="Helvetica,sans-Serif" font-size="10.00">regex</text>
</g>
<!-- Node2&#45;&gt;Node16 -->
<g id="edge15" class="edge"><title>Node2&#45;&gt;Node16</title>
<path fill="none" stroke="midnightblue" d="M762.241,-114.94C700.557,-108.266 602.95,-96.0241 509.459,-75.7854"/>
<polygon fill="midnightblue" stroke="midnightblue" points="510.069,-72.336 499.55,-73.6066 508.565,-79.1727 510.069,-72.336"/>
</g>
<!-- Node17 -->
<g id="node17" class="node"><title>Node17</title>
<polygon fill="white" stroke="#bfbfbf" points="518,-56.5 518,-75.5 568,-75.5 568,-56.5 518,-56.5"/>
<text text-anchor="middle" x="543" y="-63.5" font-family="Helvetica,sans-Serif" font-size="10.00">iomanip</text>
</g>
<!-- Node2&#45;&gt;Node17 -->
<g id="edge16" class="edge"><title>Node2&#45;&gt;Node17</title>
<path fill="none" stroke="midnightblue" d="M770.273,-112.463C722.329,-104.562 650.01,-91.9541 578.308,-76.1558"/>
<polygon fill="midnightblue" stroke="midnightblue" points="578.719,-72.6617 568.197,-73.9056 577.198,-79.4945 578.719,-72.6617"/>
</g>
<!-- Node18 -->
<g id="node18" class="node"><title>Node18</title>
<polygon fill="white" stroke="#bfbfbf" points="586.5,-56.5 586.5,-75.5 637.5,-75.5 637.5,-56.5 586.5,-56.5"/>
<text text-anchor="middle" x="612" y="-63.5" font-family="Helvetica,sans-Serif" font-size="10.00">unistd.h</text>
</g>
<!-- Node2&#45;&gt;Node18 -->
<g id="edge17" class="edge"><title>Node2&#45;&gt;Node18</title>
<path fill="none" stroke="midnightblue" d="M790.39,-112.484C756.729,-103.949 703.18,-90.3534 647.326,-76.0781"/>
<polygon fill="midnightblue" stroke="midnightblue" points="648.168,-72.6808 637.612,-73.5946 646.433,-79.4626 648.168,-72.6808"/>
</g>
<!-- Node19 -->
<g id="node19" class="node"><title>Node19</title>
<polygon fill="white" stroke="#bfbfbf" points="656,-56.5 656,-75.5 700,-75.5 700,-56.5 656,-56.5"/>
<text text-anchor="middle" x="678" y="-63.5" font-family="Helvetica,sans-Serif" font-size="10.00">fcntl.h</text>
</g>
<!-- Node2&#45;&gt;Node19 -->
<g id="edge18" class="edge"><title>Node2&#45;&gt;Node19</title>
<path fill="none" stroke="midnightblue" d="M800.866,-112.444C776.231,-103.332 737.084,-88.8531 709.614,-78.6929"/>
<polygon fill="midnightblue" stroke="midnightblue" points="710.663,-75.3493 700.07,-75.1629 708.235,-81.9146 710.663,-75.3493"/>
</g>
<!-- Node20 -->
<g id="node20" class="node"><title>Node20</title>
<polygon fill="white" stroke="#bfbfbf" points="718,-56.5 718,-75.5 758,-75.5 758,-56.5 718,-56.5"/>
<text text-anchor="middle" x="738" y="-63.5" font-family="Helvetica,sans-Serif" font-size="10.00">limits</text>
</g>
<!-- Node2&#45;&gt;Node20 -->
<g id="edge19" class="edge"><title>Node2&#45;&gt;Node20</title>
<path fill="none" stroke="midnightblue" d="M810.183,-112.324C796.767,-103.9 776.176,-90.9709 760.414,-81.0741"/>
<polygon fill="midnightblue" stroke="midnightblue" points="762.113,-78.0081 751.783,-75.6545 758.391,-83.9364 762.113,-78.0081"/>
</g>
<!-- Node21 -->
<g id="node21" class="node"><title>Node21</title>
<polygon fill="white" stroke="#bfbfbf" points="1319.5,-0.5 1319.5,-19.5 1360.5,-19.5 1360.5,-0.5 1319.5,-0.5"/>
<text text-anchor="middle" x="1340" y="-7.5" font-family="Helvetica,sans-Serif" font-size="10.00">string</text>
</g>
<!-- Node2&#45;&gt;Node21 -->
<g id="edge20" class="edge"><title>Node2&#45;&gt;Node21</title>
<path fill="none" stroke="midnightblue" d="M885.568,-113.147C888.757,-112.756 891.916,-112.371 895,-112 1035.34,-95.1118 1075.7,-116.913 1211,-76 1229.65,-70.3618 1232.62,-64.8003 1250,-56 1271.3,-45.2125 1295.51,-33.1157 1313.46,-24.1832"/>
<polygon fill="midnightblue" stroke="midnightblue" points="1315.33,-27.1623 1322.72,-19.5746 1312.21,-20.895 1315.33,-27.1623"/>
</g>
<!-- Node22 -->
<g id="node22" class="node"><title>Node22</title>
<polygon fill="white" stroke="#bfbfbf" points="1042,-0.5 1042,-19.5 1086,-19.5 1086,-0.5 1042,-0.5"/>
<text text-anchor="middle" x="1064" y="-7.5" font-family="Helvetica,sans-Serif" font-size="10.00">vector</text>
</g>
<!-- Node2&#45;&gt;Node22 -->
<g id="edge21" class="edge"><title>Node2&#45;&gt;Node22</title>
<path fill="none" stroke="midnightblue" d="M873.946,-112.456C931.149,-102.311 1018.61,-85.5667 1031,-76 1045.99,-64.4232 1054.73,-44.1648 1059.41,-29.3335"/>
<polygon fill="midnightblue" stroke="midnightblue" points="1062.78,-30.2695 1062.13,-19.695 1056.04,-28.3704 1062.78,-30.2695"/>
</g>
<!-- Node23 -->
<g id="node23" class="node"><title>Node23</title>
<polygon fill="white" stroke="#bfbfbf" points="1258.5,-56.5 1258.5,-75.5 1299.5,-75.5 1299.5,-56.5 1258.5,-56.5"/>
<text text-anchor="middle" x="1279" y="-63.5" font-family="Helvetica,sans-Serif" font-size="10.00">stack</text>
</g>
<!-- Node2&#45;&gt;Node23 -->
<g id="edge22" class="edge"><title>Node2&#45;&gt;Node23</title>
<path fill="none" stroke="midnightblue" d="M885.563,-113.107C888.754,-112.726 891.914,-112.355 895,-112 1049.91,-94.1941 1090.51,-103.493 1244,-76 1245.47,-75.7373 1246.96,-75.4458 1248.47,-75.1333"/>
<polygon fill="midnightblue" stroke="midnightblue" points="1249.43,-78.5042 1258.38,-72.8444 1247.85,-71.6836 1249.43,-78.5042"/>
</g>
<!-- Node24 -->
<g id="node24" class="node"><title>Node24</title>
<polygon fill="white" stroke="#bfbfbf" points="1317.5,-56.5 1317.5,-75.5 1360.5,-75.5 1360.5,-56.5 1317.5,-56.5"/>
<text text-anchor="middle" x="1339" y="-63.5" font-family="Helvetica,sans-Serif" font-size="10.00">deque</text>
</g>
<!-- Node2&#45;&gt;Node24 -->
<g id="edge23" class="edge"><title>Node2&#45;&gt;Node24</title>
<path fill="none" stroke="midnightblue" d="M885.556,-113.047C888.749,-112.681 891.911,-112.33 895,-112 1075.42,-92.728 1125.84,-110.085 1307.31,-75.9913"/>
<polygon fill="midnightblue" stroke="midnightblue" points="1308.01,-79.421 1317.17,-74.1114 1306.7,-72.5447 1308.01,-79.421"/>
</g>
<!-- Node25 -->
<g id="node25" class="node"><title>Node25</title>
<polygon fill="white" stroke="#bfbfbf" points="696,-0.5 696,-19.5 740,-19.5 740,-0.5 696,-0.5"/>
<text text-anchor="middle" x="718" y="-7.5" font-family="Helvetica,sans-Serif" font-size="10.00">mutex</text>
</g>
<!-- Node2&#45;&gt;Node25 -->
<g id="edge24" class="edge"><title>Node2&#45;&gt;Node25</title>
<path fill="none" stroke="midnightblue" d="M816.904,-112.324C806.392,-99.6071 785.883,-75.3214 767,-56 757.01,-45.7779 745.228,-34.9231 735.721,-26.436"/>
<polygon fill="midnightblue" stroke="midnightblue" points="737.866,-23.6607 728.055,-19.6626 733.231,-28.9066 737.866,-23.6607"/>
</g>
<!-- Node26 -->
<g id="node26" class="node"><title>Node26</title>
<polygon fill="white" stroke="#bfbfbf" points="758,-0.5 758,-19.5 802,-19.5 802,-0.5 758,-0.5"/>
<text text-anchor="middle" x="780" y="-7.5" font-family="Helvetica,sans-Serif" font-size="10.00">thread</text>
</g>
<!-- Node2&#45;&gt;Node26 -->
<g id="edge25" class="edge"><title>Node2&#45;&gt;Node26</title>
<path fill="none" stroke="midnightblue" d="M820.919,-112.099C816.515,-99.5131 808.061,-75.8371 800,-56 796.334,-46.9781 791.971,-37.0758 788.257,-28.8626"/>
<polygon fill="midnightblue" stroke="midnightblue" points="791.342,-27.1945 784,-19.5561 784.977,-30.1059 791.342,-27.1945"/>
</g>
<!-- Node27 -->
<g id="node27" class="node"><title>Node27</title>
<polygon fill="white" stroke="#bfbfbf" points="820.5,-0.5 820.5,-19.5 915.5,-19.5 915.5,-0.5 820.5,-0.5"/>
<text text-anchor="middle" x="868" y="-7.5" font-family="Helvetica,sans-Serif" font-size="10.00">condition_variable</text>
</g>
<!-- Node2&#45;&gt;Node27 -->
<g id="edge26" class="edge"><title>Node2&#45;&gt;Node27</title>
<path fill="none" stroke="midnightblue" d="M827.453,-112.368C834.617,-94.4563 851.231,-52.9233 860.821,-28.9482"/>
<polygon fill="midnightblue" stroke="midnightblue" points="864.099,-30.1761 864.563,-19.5914 857.6,-27.5763 864.099,-30.1761"/>
</g>
<!-- Node28 -->
<g id="node28" class="node"><title>Node28</title>
<polygon fill="white" stroke="#bfbfbf" points="980.5,-0.5 980.5,-19.5 1023.5,-19.5 1023.5,-0.5 980.5,-0.5"/>
<text text-anchor="middle" x="1002" y="-7.5" font-family="Helvetica,sans-Serif" font-size="10.00">queue</text>
</g>
<!-- Node2&#45;&gt;Node28 -->
<g id="edge27" class="edge"><title>Node2&#45;&gt;Node28</title>
<path fill="none" stroke="midnightblue" d="M874.485,-112.422C928.05,-102.809 1006.2,-87.1177 1015,-76 1025.68,-62.5114 1019.45,-42.6096 1012.42,-28.3852"/>
<polygon fill="midnightblue" stroke="midnightblue" points="1015.49,-26.6951 1007.63,-19.5931 1009.34,-30.0478 1015.49,-26.6951"/>
</g>
<!-- Node29 -->
<g id="node29" class="node"><title>Node29</title>
<polygon fill="white" stroke="#bfbfbf" points="1104.5,-0.5 1104.5,-19.5 1139.5,-19.5 1139.5,-0.5 1104.5,-0.5"/>
<text text-anchor="middle" x="1122" y="-7.5" font-family="Helvetica,sans-Serif" font-size="10.00">map</text>
</g>
<!-- Node2&#45;&gt;Node29 -->
<g id="edge28" class="edge"><title>Node2&#45;&gt;Node29</title>
<path fill="none" stroke="midnightblue" d="M885.65,-112.817C943.207,-104.475 1024.4,-90.7024 1053,-76 1075.76,-64.302 1096.32,-42.8361 1108.97,-27.7829"/>
<polygon fill="midnightblue" stroke="midnightblue" points="1111.87,-29.7556 1115.45,-19.7831 1106.44,-25.3477 1111.87,-29.7556"/>
</g>
<!-- Node30 -->
<g id="node30" class="node"><title>Node30</title>
<g id="a_node30"><a xlink:href="cosmos-defs_8h.html" target="_top" xlink:title="COSMOS definitions Definitions specific to the COSMOS environement. ">
<polygon fill="white" stroke="black" points="890,-56.5 890,-75.5 1006,-75.5 1006,-56.5 890,-56.5"/>
<text text-anchor="middle" x="948" y="-63.5" font-family="Helvetica,sans-Serif" font-size="10.00">support/cosmos&#45;defs.h</text>
</a>
</g>
</g>
<!-- Node2&#45;&gt;Node30 -->
<g id="edge29" class="edge"><title>Node2&#45;&gt;Node30</title>
<path fill="none" stroke="midnightblue" d="M843.648,-112.444C863.965,-103.596 895.903,-89.6875 919.098,-79.5865"/>
<polygon fill="midnightblue" stroke="midnightblue" points="920.673,-82.7181 928.444,-75.5164 917.878,-76.3002 920.673,-82.7181"/>
</g>
<!-- Node32 -->
<g id="node32" class="node"><title>Node32</title>
<g id="a_node32"><a xlink:href="json11_8hpp.html" target="_top" xlink:title="json11.hpp">
<polygon fill="white" stroke="black" points="1138,-56.5 1138,-75.5 1202,-75.5 1202,-56.5 1138,-56.5"/>
<text text-anchor="middle" x="1170" y="-63.5" font-family="Helvetica,sans-Serif" font-size="10.00">json11.hpp</text>
</a>
</g>
</g>
<!-- Node2&#45;&gt;Node32 -->
<g id="edge37" class="edge"><title>Node2&#45;&gt;Node32</title>
<path fill="none" stroke="midnightblue" d="M885.606,-112.573C946.342,-104.073 1041.74,-90.209 1124,-76 1125.26,-75.7818 1126.54,-75.5565 1127.84,-75.3256"/>
<polygon fill="midnightblue" stroke="midnightblue" points="1128.66,-78.7323 1137.86,-73.4761 1127.39,-71.8485 1128.66,-78.7323"/>
</g>
<!-- Node30&#45;&gt;Node22 -->
<g id="edge31" class="edge"><title>Node30&#45;&gt;Node22</title>
<path fill="none" stroke="midnightblue" d="M966.381,-56.4435C985.216,-47.6751 1014.73,-33.9355 1036.38,-23.8579"/>
<polygon fill="midnightblue" stroke="midnightblue" points="1038.12,-26.9098 1045.71,-19.5164 1035.16,-20.5637 1038.12,-26.9098"/>
</g>
<!-- Node30&#45;&gt;Node25 -->
<g id="edge35" class="edge"><title>Node30&#45;&gt;Node25</title>
<path fill="none" stroke="midnightblue" d="M907.047,-56.4926C868.821,-48.384 809.978,-35.4763 750.281,-20.2195"/>
<polygon fill="midnightblue" stroke="midnightblue" points="750.864,-16.7554 740.307,-17.6501 749.118,-23.5341 750.864,-16.7554"/>
</g>
<!-- Node30&#45;&gt;Node26 -->
<g id="edge34" class="edge"><title>Node30&#45;&gt;Node26</title>
<path fill="none" stroke="midnightblue" d="M921.38,-56.4435C891.659,-46.8902 843.579,-31.436 811.877,-21.2461"/>
<polygon fill="midnightblue" stroke="midnightblue" points="812.795,-17.8649 802.203,-18.1368 810.653,-24.5291 812.795,-17.8649"/>
</g>
<!-- Node30&#45;&gt;Node27 -->
<g id="edge36" class="edge"><title>Node30&#45;&gt;Node27</title>
<path fill="none" stroke="midnightblue" d="M935.147,-56.324C922.784,-47.979 903.87,-35.2122 889.263,-25.3524"/>
<polygon fill="midnightblue" stroke="midnightblue" points="891.068,-22.3483 880.821,-19.6545 887.152,-28.1503 891.068,-22.3483"/>
</g>
<!-- Node30&#45;&gt;Node28 -->
<g id="edge33" class="edge"><title>Node30&#45;&gt;Node28</title>
<path fill="none" stroke="midnightblue" d="M956.917,-56.083C964.78,-48.2195 976.431,-36.5688 985.919,-27.0813"/>
<polygon fill="midnightblue" stroke="midnightblue" points="988.653,-29.2971 993.249,-19.7511 983.703,-24.3473 988.653,-29.2971"/>
</g>
<!-- Node30&#45;&gt;Node29 -->
<g id="edge30" class="edge"><title>Node30&#45;&gt;Node29</title>
<path fill="none" stroke="midnightblue" d="M976.52,-56.4967C1004.27,-48.1726 1047.86,-34.9676 1094.6,-20.0708"/>
<polygon fill="midnightblue" stroke="midnightblue" points="1095.84,-23.3483 1104.3,-16.9689 1093.71,-16.6809 1095.84,-23.3483"/>
</g>
<!-- Node31 -->
<g id="node31" class="node"><title>Node31</title>
<polygon fill="white" stroke="#bfbfbf" points="933.5,-0.5 933.5,-19.5 962.5,-19.5 962.5,-0.5 933.5,-0.5"/>
<text text-anchor="middle" x="948" y="-7.5" font-family="Helvetica,sans-Serif" font-size="10.00">list</text>
</g>
<!-- Node30&#45;&gt;Node31 -->
<g id="edge32" class="edge"><title>Node30&#45;&gt;Node31</title>
<path fill="none" stroke="midnightblue" d="M948,-56.083C948,-49.0059 948,-38.8611 948,-29.9865"/>
<polygon fill="midnightblue" stroke="midnightblue" points="951.5,-29.751 948,-19.7511 944.5,-29.7511 951.5,-29.751"/>
</g>
<!-- Node32&#45;&gt;Node21 -->
<g id="edge38" class="edge"><title>Node32&#45;&gt;Node21</title>
<path fill="none" stroke="midnightblue" d="M1196.94,-56.4435C1227.6,-46.7024 1277.58,-30.826 1309.62,-20.6512"/>
<polygon fill="midnightblue" stroke="midnightblue" points="1310.87,-23.9263 1319.34,-17.5631 1308.75,-17.2548 1310.87,-23.9263"/>
</g>
<!-- Node32&#45;&gt;Node22 -->
<g id="edge39" class="edge"><title>Node32&#45;&gt;Node22</title>
<path fill="none" stroke="midnightblue" d="M1152.97,-56.324C1135.97,-47.6641 1109.62,-34.2424 1090.01,-24.249"/>
<polygon fill="midnightblue" stroke="midnightblue" points="1091.49,-21.0752 1080.99,-19.6545 1088.31,-27.3125 1091.49,-21.0752"/>
</g>
<!-- Node32&#45;&gt;Node29 -->
<g id="edge40" class="edge"><title>Node32&#45;&gt;Node29</title>
<path fill="none" stroke="midnightblue" d="M1162.07,-56.083C1155.15,-48.2982 1144.93,-36.8015 1136.55,-27.3665"/>
<polygon fill="midnightblue" stroke="midnightblue" points="1139.04,-24.8999 1129.78,-19.7511 1133.81,-29.5505 1139.04,-24.8999"/>
</g>
<!-- Node33 -->
<g id="node33" class="node"><title>Node33</title>
<polygon fill="white" stroke="#bfbfbf" points="1158,-0.5 1158,-19.5 1210,-19.5 1210,-0.5 1158,-0.5"/>
<text text-anchor="middle" x="1184" y="-7.5" font-family="Helvetica,sans-Serif" font-size="10.00">memory</text>
</g>
<!-- Node32&#45;&gt;Node33 -->
<g id="edge41" class="edge"><title>Node32&#45;&gt;Node33</title>
<path fill="none" stroke="midnightblue" d="M1172.31,-56.083C1174.17,-48.9272 1176.84,-38.6353 1179.15,-29.6911"/>
<polygon fill="midnightblue" stroke="midnightblue" points="1182.61,-30.3094 1181.73,-19.7511 1175.83,-28.5527 1182.61,-30.3094"/>
</g>
<!-- Node34 -->
<g id="node34" class="node"><title>Node34</title>
<polygon fill="white" stroke="#bfbfbf" points="1228.5,-0.5 1228.5,-19.5 1301.5,-19.5 1301.5,-0.5 1228.5,-0.5"/>
<text text-anchor="middle" x="1265" y="-7.5" font-family="Helvetica,sans-Serif" font-size="10.00">initializer_list</text>
</g>
<!-- Node32&#45;&gt;Node34 -->
<g id="edge42" class="edge"><title>Node32&#45;&gt;Node34</title>
<path fill="none" stroke="midnightblue" d="M1185.26,-56.324C1200.22,-47.8215 1223.25,-34.7288 1240.73,-24.7975"/>
<polygon fill="midnightblue" stroke="midnightblue" points="1242.81,-27.639 1249.77,-19.6545 1239.35,-21.5534 1242.81,-27.639"/>
</g>
<!-- Node37&#45;&gt;Node2 -->
<g id="edge48" class="edge"><title>Node37&#45;&gt;Node2</title>
<path fill="none" stroke="midnightblue" d="M801.36,-224.449C795.169,-211.888 785.68,-187.794 792,-168 795.341,-157.538 802.1,-147.428 808.549,-139.45"/>
<polygon fill="midnightblue" stroke="midnightblue" points="811.348,-141.564 815.249,-131.714 806.056,-136.981 811.348,-141.564"/>
</g>
<!-- Node37&#45;&gt;Node35 -->
<g id="edge52" class="edge"><title>Node37&#45;&gt;Node35</title>
<path fill="none" stroke="midnightblue" d="M830.719,-224.444C857.31,-215.239 899.726,-200.556 929.117,-190.383"/>
<polygon fill="midnightblue" stroke="midnightblue" points="930.618,-193.567 938.923,-186.988 928.328,-186.952 930.618,-193.567"/>
</g>
<!-- Node38 -->
<g id="node38" class="node"><title>Node38</title>
<g id="a_node38"><a xlink:href="cosmos-errno_8h.html" target="_top" xlink:title="COSMOS Error Codes. ">
<polygon fill="white" stroke="black" points="801.5,-168.5 801.5,-187.5 920.5,-187.5 920.5,-168.5 801.5,-168.5"/>
<text text-anchor="middle" x="861" y="-175.5" font-family="Helvetica,sans-Serif" font-size="10.00">support/cosmos&#45;errno.h</text>
</a>
</g>
</g>
<!-- Node37&#45;&gt;Node38 -->
<g id="edge49" class="edge"><title>Node37&#45;&gt;Node38</title>
<path fill="none" stroke="midnightblue" d="M815.082,-224.083C823.171,-216.141 835.195,-204.335 844.91,-194.797"/>
<polygon fill="midnightblue" stroke="midnightblue" points="847.403,-197.254 852.087,-187.751 842.499,-192.26 847.403,-197.254"/>
</g>
<!-- Node38&#45;&gt;Node2 -->
<g id="edge50" class="edge"><title>Node38&#45;&gt;Node2</title>
<path fill="none" stroke="midnightblue" d="M854.89,-168.083C849.718,-160.534 842.154,-149.495 835.806,-140.23"/>
<polygon fill="midnightblue" stroke="midnightblue" points="838.536,-138.022 829.996,-131.751 832.761,-141.979 838.536,-138.022"/>
</g>
<!-- Node39 -->
<g id="node39" class="node"><title>Node39</title>
<polygon fill="white" stroke="#bfbfbf" points="903.5,-112.5 903.5,-131.5 950.5,-131.5 950.5,-112.5 903.5,-112.5"/>
<text text-anchor="middle" x="927" y="-119.5" font-family="Helvetica,sans-Serif" font-size="10.00">errno.h</text>
</g>
<!-- Node38&#45;&gt;Node39 -->
<g id="edge51" class="edge"><title>Node38&#45;&gt;Node39</title>
<path fill="none" stroke="midnightblue" d="M871.604,-168.324C881.456,-160.263 896.351,-148.077 908.215,-138.369"/>
<polygon fill="midnightblue" stroke="midnightblue" points="910.68,-140.875 916.203,-131.834 906.247,-135.457 910.68,-140.875"/>
</g>
</g>
</svg>
        <g id="navigator" transform="translate(0 0)" fill="#404254">
                <rect fill="#f2f5e9" fill-opacity="0.5" stroke="#606060" stroke-width=".5" x="0" y="0" width="60" height="60"/>
                <use id="zoomplus" xlink:href="#zoomPlus" x="17" y="9" onmousedown="handleZoom(evt,'in')"/>
                <use id="zoomminus" xlink:href="#zoomMin" x="42" y="9" onmousedown="handleZoom(evt,'out')"/>
                <use id="reset" xlink:href="#resetDef" x="30" y="36" onmousedown="handleReset()"/>
                <g id="arrowUp" xlink:href="#dirArrow" transform="translate(30 24)" onmousedown="handlePan(0,-1)">
                  <use xlink:href="#rim" fill="#404040">
                        <set attributeName="fill" to="#808080" begin="arrowUp.mouseover" end="arrowUp.mouseout"/>
                  </use>
                  <path fill="none" stroke="white" stroke-width="1.5" d="M0,-3.0v7 M-2.5,-0.5L0,-3.0L2.5,-0.5"/>
                </g>
                <g id="arrowRight" xlink:href="#dirArrow" transform="rotate(90) translate(36 -43)" onmousedown="handlePan(1,0)">
                  <use xlink:href="#rim" fill="#404040">
                        <set attributeName="fill" to="#808080" begin="arrowRight.mouseover" end="arrowRight.mouseout"/>
                  </use>
                  <path fill="none" stroke="white" stroke-width="1.5" d="M0,-3.0v7 M-2.5,-0.5L0,-3.0L2.5,-0.5"/>
                </g>
                <g id="arrowDown" xlink:href="#dirArrow" transform="rotate(180) translate(-30 -48)" onmousedown="handlePan(0,1)">
                  <use xlink:href="#rim" fill="#404040">
                        <set attributeName="fill" to="#808080" begin="arrowDown.mouseover" end="arrowDown.mouseout"/>
                  </use>
                  <path fill="none" stroke="white" stroke-width="1.5" d="M0,-3.0v7 M-2.5,-0.5L0,-3.0L2.5,-0.5"/>
                </g>
                <g id="arrowLeft" xlink:href="#dirArrow" transform="rotate(270) translate(-36 17)" onmousedown="handlePan(-1,0)">
                  <use xlink:href="#rim" fill="#404040">
                        <set attributeName="fill" to="#808080" begin="arrowLeft.mouseover" end="arrowLeft.mouseout"/>
                  </use>
                  <path fill="none" stroke="white" stroke-width="1.5" d="M0,-3.0v7 M-2.5,-0.5L0,-3.0L2.5,-0.5"/>
                </g>
        </g>
        <svg viewBox="0 0 15 15" width="100%" height="30px" preserveAspectRatio="xMaxYMin meet">
         <g id="arrow_out" transform="scale(0.3 0.3)">
          <a xlink:href="jpleph_8cpp__incl_org.svg" target="_base">
           <rect id="button" ry="5" rx="5" y="6" x="6" height="38" width="38"
                fill="#f2f5e9" fill-opacity="0.5" stroke="#606060" stroke-width="1.0"/>
           <path id="arrow"
             d="M 11.500037,31.436501 C 11.940474,20.09759 22.043105,11.32322 32.158766,21.979434 L 37.068811,17.246167 C 37.068811,17.246167 37.088388,32 37.088388,32 L 22.160133,31.978069 C 22.160133,31.978069 26.997745,27.140456 26.997745,27.140456 C 18.528582,18.264221 13.291696,25.230495 11.500037,31.436501 z"
             style="fill:#404040;"/>
          </a>
         </g>
        </svg>
</svg>
