<?xml version="1.0" encoding="UTF-8" standalone="no"?>
<!DOCTYPE svg PUBLIC "-//W3C//DTD SVG 1.1//EN"
 "http://www.w3.org/Graphics/SVG/1.1/DTD/svg11.dtd">
<!-- Generated by graphviz version 2.38.0 (20140413.2041)
 -->
<!-- Title: jquant2.cpp Pages: 1 -->
<svg width="540pt" height="140pt"
 viewBox="0.00 0.00 539.50 140.00" xmlns="http://www.w3.org/2000/svg" xmlns:xlink="http://www.w3.org/1999/xlink">
<g id="graph0" class="graph" transform="scale(1 1) rotate(0) translate(4 136)">
<title>jquant2.cpp</title>
<polygon fill="white" stroke="none" points="-4,4 -4,-136 535.5,-136 535.5,4 -4,4"/>
<!-- Node1 -->
<g id="node1" class="node"><title>Node1</title>
<polygon fill="#bfbfbf" stroke="black" points="236.5,-112.5 236.5,-131.5 303.5,-131.5 303.5,-112.5 236.5,-112.5"/>
<text text-anchor="middle" x="270" y="-119.5" font-family="Helvetica,sans-Serif" font-size="10.00">jquant2.cpp</text>
</g>
<!-- Node2 -->
<g id="node2" class="node"><title>Node2</title>
<g id="a_node2"><a xlink:href="jinclude_8h.html" target="_top" xlink:title="jinclude.h">
<polygon fill="white" stroke="black" points="296,-56.5 296,-75.5 354,-75.5 354,-56.5 296,-56.5"/>
<text text-anchor="middle" x="325" y="-63.5" font-family="Helvetica,sans-Serif" font-size="10.00">jinclude.h</text>
</a>
</g>
</g>
<!-- Node1&#45;&gt;Node2 -->
<g id="edge1" class="edge"><title>Node1&#45;&gt;Node2</title>
<path fill="none" stroke="midnightblue" d="M279.082,-112.083C287.171,-104.141 299.195,-92.3354 308.91,-82.7973"/>
<polygon fill="midnightblue" stroke="midnightblue" points="311.403,-85.2545 316.087,-75.7511 306.499,-80.2595 311.403,-85.2545"/>
</g>
<!-- Node8 -->
<g id="node8" class="node"><title>Node8</title>
<g id="a_node8"><a xlink:href="jpeglib_8h.html" target="_top" xlink:title="jpeglib.h">
<polygon fill="white" stroke="black" points="189.5,-56.5 189.5,-75.5 242.5,-75.5 242.5,-56.5 189.5,-56.5"/>
<text text-anchor="middle" x="216" y="-63.5" font-family="Helvetica,sans-Serif" font-size="10.00">jpeglib.h</text>
</a>
</g>
</g>
<!-- Node1&#45;&gt;Node8 -->
<g id="edge7" class="edge"><title>Node1&#45;&gt;Node8</title>
<path fill="none" stroke="midnightblue" d="M261.083,-112.083C253.22,-104.22 241.569,-92.5688 232.081,-83.0813"/>
<polygon fill="midnightblue" stroke="midnightblue" points="234.297,-80.3473 224.751,-75.7511 229.347,-85.2971 234.297,-80.3473"/>
</g>
<!-- Node3 -->
<g id="node3" class="node"><title>Node3</title>
<g id="a_node3"><a xlink:href="jconfig_8h.html" target="_top" xlink:title="jconfig.h">
<polygon fill="white" stroke="black" points="210.5,-0.5 210.5,-19.5 263.5,-19.5 263.5,-0.5 210.5,-0.5"/>
<text text-anchor="middle" x="237" y="-7.5" font-family="Helvetica,sans-Serif" font-size="10.00">jconfig.h</text>
</a>
</g>
</g>
<!-- Node2&#45;&gt;Node3 -->
<g id="edge2" class="edge"><title>Node2&#45;&gt;Node3</title>
<path fill="none" stroke="midnightblue" d="M310.861,-56.324C297.134,-47.9002 276.064,-34.9709 259.936,-25.0741"/>
<polygon fill="midnightblue" stroke="midnightblue" points="261.457,-21.9016 251.104,-19.6545 257.796,-27.8678 261.457,-21.9016"/>
</g>
<!-- Node4 -->
<g id="node4" class="node"><title>Node4</title>
<polygon fill="white" stroke="#bfbfbf" points="346,-0.5 346,-19.5 398,-19.5 398,-0.5 346,-0.5"/>
<text text-anchor="middle" x="372" y="-7.5" font-family="Helvetica,sans-Serif" font-size="10.00">stddef.h</text>
</g>
<!-- Node2&#45;&gt;Node4 -->
<g id="edge3" class="edge"><title>Node2&#45;&gt;Node4</title>
<path fill="none" stroke="midnightblue" d="M332.761,-56.083C339.537,-48.2982 349.543,-36.8015 357.755,-27.3665"/>
<polygon fill="midnightblue" stroke="midnightblue" points="360.458,-29.592 364.383,-19.7511 355.178,-24.9963 360.458,-29.592"/>
</g>
<!-- Node5 -->
<g id="node5" class="node"><title>Node5</title>
<polygon fill="white" stroke="#bfbfbf" points="416,-0.5 416,-19.5 464,-19.5 464,-0.5 416,-0.5"/>
<text text-anchor="middle" x="440" y="-7.5" font-family="Helvetica,sans-Serif" font-size="10.00">stdlib.h</text>
</g>
<!-- Node2&#45;&gt;Node5 -->
<g id="edge4" class="edge"><title>Node2&#45;&gt;Node5</title>
<path fill="none" stroke="midnightblue" d="M343.222,-56.4435C361.896,-47.6751 391.156,-33.9355 412.617,-23.8579"/>
<polygon fill="midnightblue" stroke="midnightblue" points="414.299,-26.935 421.863,-19.5164 411.324,-20.5988 414.299,-26.935"/>
</g>
<!-- Node6 -->
<g id="node6" class="node"><title>Node6</title>
<polygon fill="white" stroke="#bfbfbf" points="282,-0.5 282,-19.5 328,-19.5 328,-0.5 282,-0.5"/>
<text text-anchor="middle" x="305" y="-7.5" font-family="Helvetica,sans-Serif" font-size="10.00">stdio.h</text>
</g>
<!-- Node2&#45;&gt;Node6 -->
<g id="edge5" class="edge"><title>Node2&#45;&gt;Node6</title>
<path fill="none" stroke="midnightblue" d="M321.697,-56.083C319.018,-48.8486 315.151,-38.4087 311.814,-29.3968"/>
<polygon fill="midnightblue" stroke="midnightblue" points="314.996,-27.9129 308.241,-19.7511 308.432,-30.3442 314.996,-27.9129"/>
</g>
<!-- Node7 -->
<g id="node7" class="node"><title>Node7</title>
<polygon fill="white" stroke="#bfbfbf" points="482.5,-0.5 482.5,-19.5 531.5,-19.5 531.5,-0.5 482.5,-0.5"/>
<text text-anchor="middle" x="507" y="-7.5" font-family="Helvetica,sans-Serif" font-size="10.00">string.h</text>
</g>
<!-- Node2&#45;&gt;Node7 -->
<g id="edge6" class="edge"><title>Node2&#45;&gt;Node7</title>
<path fill="none" stroke="midnightblue" d="M353.838,-56.4435C386.133,-46.8617 438.435,-31.3435 472.775,-21.1548"/>
<polygon fill="midnightblue" stroke="midnightblue" points="473.791,-24.5041 482.382,-18.3042 471.8,-17.7933 473.791,-24.5041"/>
</g>
<!-- Node8&#45;&gt;Node3 -->
<g id="edge12" class="edge"><title>Node8&#45;&gt;Node3</title>
<path fill="none" stroke="midnightblue" d="M219.468,-56.083C222.312,-48.77 226.429,-38.1814 229.96,-29.1034"/>
<polygon fill="midnightblue" stroke="midnightblue" points="233.234,-30.3397 233.597,-19.7511 226.71,-27.8025 233.234,-30.3397"/>
</g>
<!-- Node8&#45;&gt;Node6 -->
<g id="edge10" class="edge"><title>Node8&#45;&gt;Node6</title>
<path fill="none" stroke="midnightblue" d="M230.299,-56.324C244.183,-47.9002 265.492,-34.9709 281.804,-25.0741"/>
<polygon fill="midnightblue" stroke="midnightblue" points="284.002,-27.8341 290.736,-19.6545 280.371,-21.8495 284.002,-27.8341"/>
</g>
<!-- Node9 -->
<g id="node9" class="node"><title>Node9</title>
<polygon fill="white" stroke="#bfbfbf" points="0,-0.5 0,-19.5 44,-19.5 44,-0.5 0,-0.5"/>
<text text-anchor="middle" x="22" y="-7.5" font-family="Helvetica,sans-Serif" font-size="10.00">vector</text>
</g>
<!-- Node8&#45;&gt;Node9 -->
<g id="edge8" class="edge"><title>Node8&#45;&gt;Node9</title>
<path fill="none" stroke="midnightblue" d="M189.431,-57.7806C158.971,-49.4788 107.3,-35.3196 53.6803,-20.1666"/>
<polygon fill="midnightblue" stroke="midnightblue" points="54.5804,-16.7839 44.0052,-17.4274 52.6736,-23.5192 54.5804,-16.7839"/>
</g>
<!-- Node10 -->
<g id="node10" class="node"><title>Node10</title>
<polygon fill="white" stroke="#bfbfbf" points="62.5,-0.5 62.5,-19.5 111.5,-19.5 111.5,-0.5 62.5,-0.5"/>
<text text-anchor="middle" x="87" y="-7.5" font-family="Helvetica,sans-Serif" font-size="10.00">stdint.h</text>
</g>
<!-- Node8&#45;&gt;Node10 -->
<g id="edge9" class="edge"><title>Node8&#45;&gt;Node10</title>
<path fill="none" stroke="midnightblue" d="M195.56,-56.4435C174.33,-47.5566 140.901,-33.5632 116.745,-23.4514"/>
<polygon fill="midnightblue" stroke="midnightblue" points="117.921,-20.1493 107.345,-19.5164 115.218,-26.6064 117.921,-20.1493"/>
</g>
<!-- Node11 -->
<g id="node11" class="node"><title>Node11</title>
<g id="a_node11"><a xlink:href="jmorecfg_8h.html" target="_top" xlink:title="jmorecfg.h">
<polygon fill="white" stroke="black" points="130,-0.5 130,-19.5 192,-19.5 192,-0.5 130,-0.5"/>
<text text-anchor="middle" x="161" y="-7.5" font-family="Helvetica,sans-Serif" font-size="10.00">jmorecfg.h</text>
</a>
</g>
</g>
<!-- Node8&#45;&gt;Node11 -->
<g id="edge11" class="edge"><title>Node8&#45;&gt;Node11</title>
<path fill="none" stroke="midnightblue" d="M206.918,-56.083C198.829,-48.1409 186.805,-36.3354 177.09,-26.7973"/>
<polygon fill="midnightblue" stroke="midnightblue" points="179.501,-24.2595 169.913,-19.7511 174.597,-29.2545 179.501,-24.2595"/>
</g>
</g>
</svg>
