<?xml version="1.0" encoding="UTF-8" standalone="no"?>
<!DOCTYPE svg PUBLIC "-//W3C//DTD SVG 1.1//EN"
 "http://www.w3.org/Graphics/SVG/1.1/DTD/svg11.dtd">
<!-- Generated by graphviz version 2.38.0 (20140413.2041)
 -->
<!-- Title: json11.cpp Pages: 1 -->
<svg width="493pt" height="140pt"
 viewBox="0.00 0.00 492.50 140.00" xmlns="http://www.w3.org/2000/svg" xmlns:xlink="http://www.w3.org/1999/xlink">
<g id="graph0" class="graph" transform="scale(1 1) rotate(0) translate(4 136)">
<title>json11.cpp</title>
<polygon fill="white" stroke="none" points="-4,4 -4,-136 488.5,-136 488.5,4 -4,4"/>
<!-- Node1 -->
<g id="node1" class="node"><title>Node1</title>
<polygon fill="#bfbfbf" stroke="black" points="278.5,-112.5 278.5,-131.5 342.5,-131.5 342.5,-112.5 278.5,-112.5"/>
<text text-anchor="middle" x="310.5" y="-119.5" font-family="Helvetica,sans-Serif" font-size="10.00">json11.cpp</text>
</g>
<!-- Node2 -->
<g id="node2" class="node"><title>Node2</title>
<g id="a_node2"><a xlink:href="json11_8hpp.html" target="_top" xlink:title="json11.hpp">
<polygon fill="white" stroke="black" points="107.5,-56.5 107.5,-75.5 171.5,-75.5 171.5,-56.5 107.5,-56.5"/>
<text text-anchor="middle" x="139.5" y="-63.5" font-family="Helvetica,sans-Serif" font-size="10.00">json11.hpp</text>
</a>
</g>
</g>
<!-- Node1&#45;&gt;Node2 -->
<g id="edge1" class="edge"><title>Node1&#45;&gt;Node2</title>
<path fill="none" stroke="midnightblue" d="M283.405,-112.444C254.512,-103.32 208.575,-88.8133 176.395,-78.6509"/>
<polygon fill="midnightblue" stroke="midnightblue" points="177.059,-75.1903 166.469,-75.5164 174.951,-81.8654 177.059,-75.1903"/>
</g>
<!-- Node8 -->
<g id="node8" class="node"><title>Node8</title>
<polygon fill="white" stroke="#bfbfbf" points="190,-56.5 190,-75.5 239,-75.5 239,-56.5 190,-56.5"/>
<text text-anchor="middle" x="214.5" y="-63.5" font-family="Helvetica,sans-Serif" font-size="10.00">cassert</text>
</g>
<!-- Node1&#45;&gt;Node8 -->
<g id="edge7" class="edge"><title>Node1&#45;&gt;Node8</title>
<path fill="none" stroke="midnightblue" d="M295.076,-112.324C279.96,-103.822 256.685,-90.7288 239.029,-80.7975"/>
<polygon fill="midnightblue" stroke="midnightblue" points="240.317,-77.5066 229.886,-75.6545 236.886,-83.6077 240.317,-77.5066"/>
</g>
<!-- Node9 -->
<g id="node9" class="node"><title>Node9</title>
<polygon fill="white" stroke="#bfbfbf" points="257.5,-56.5 257.5,-75.5 301.5,-75.5 301.5,-56.5 257.5,-56.5"/>
<text text-anchor="middle" x="279.5" y="-63.5" font-family="Helvetica,sans-Serif" font-size="10.00">cmath</text>
</g>
<!-- Node1&#45;&gt;Node9 -->
<g id="edge8" class="edge"><title>Node1&#45;&gt;Node9</title>
<path fill="none" stroke="midnightblue" d="M305.381,-112.083C301.092,-104.613 294.842,-93.7244 289.558,-84.5199"/>
<polygon fill="midnightblue" stroke="midnightblue" points="292.538,-82.6811 284.524,-75.7511 286.467,-86.1662 292.538,-82.6811"/>
</g>
<!-- Node10 -->
<g id="node10" class="node"><title>Node10</title>
<polygon fill="white" stroke="#bfbfbf" points="320,-56.5 320,-75.5 365,-75.5 365,-56.5 320,-56.5"/>
<text text-anchor="middle" x="342.5" y="-63.5" font-family="Helvetica,sans-Serif" font-size="10.00">cstdlib</text>
</g>
<!-- Node1&#45;&gt;Node10 -->
<g id="edge9" class="edge"><title>Node1&#45;&gt;Node10</title>
<path fill="none" stroke="midnightblue" d="M315.784,-112.083C320.211,-104.613 326.663,-93.7244 332.118,-84.5199"/>
<polygon fill="midnightblue" stroke="midnightblue" points="335.227,-86.1383 337.314,-75.7511 329.205,-82.5697 335.227,-86.1383"/>
</g>
<!-- Node11 -->
<g id="node11" class="node"><title>Node11</title>
<polygon fill="white" stroke="#bfbfbf" points="383,-56.5 383,-75.5 426,-75.5 426,-56.5 383,-56.5"/>
<text text-anchor="middle" x="404.5" y="-63.5" font-family="Helvetica,sans-Serif" font-size="10.00">cstdio</text>
</g>
<!-- Node1&#45;&gt;Node11 -->
<g id="edge10" class="edge"><title>Node1&#45;&gt;Node11</title>
<path fill="none" stroke="midnightblue" d="M325.603,-112.324C340.403,-103.822 363.194,-90.7288 380.482,-80.7975"/>
<polygon fill="midnightblue" stroke="midnightblue" points="382.507,-83.6707 389.435,-75.6545 379.02,-77.6009 382.507,-83.6707"/>
</g>
<!-- Node12 -->
<g id="node12" class="node"><title>Node12</title>
<polygon fill="white" stroke="#bfbfbf" points="444.5,-56.5 444.5,-75.5 484.5,-75.5 484.5,-56.5 444.5,-56.5"/>
<text text-anchor="middle" x="464.5" y="-63.5" font-family="Helvetica,sans-Serif" font-size="10.00">limits</text>
</g>
<!-- Node1&#45;&gt;Node12 -->
<g id="edge11" class="edge"><title>Node1&#45;&gt;Node12</title>
<path fill="none" stroke="midnightblue" d="M334.902,-112.444C361.91,-102.973 405.458,-87.7032 434.521,-77.512"/>
<polygon fill="midnightblue" stroke="midnightblue" points="435.868,-80.7487 444.147,-74.1368 433.552,-74.143 435.868,-80.7487"/>
</g>
<!-- Node3 -->
<g id="node3" class="node"><title>Node3</title>
<polygon fill="white" stroke="#bfbfbf" points="0,-0.5 0,-19.5 41,-19.5 41,-0.5 0,-0.5"/>
<text text-anchor="middle" x="20.5" y="-7.5" font-family="Helvetica,sans-Serif" font-size="10.00">string</text>
</g>
<!-- Node2&#45;&gt;Node3 -->
<g id="edge2" class="edge"><title>Node2&#45;&gt;Node3</title>
<path fill="none" stroke="midnightblue" d="M120.644,-56.4435C101.234,-47.6356 70.7699,-33.8116 48.5355,-23.722"/>
<polygon fill="midnightblue" stroke="midnightblue" points="49.8203,-20.4615 39.2677,-19.5164 46.9277,-26.836 49.8203,-20.4615"/>
</g>
<!-- Node4 -->
<g id="node4" class="node"><title>Node4</title>
<polygon fill="white" stroke="#bfbfbf" points="59.5,-0.5 59.5,-19.5 103.5,-19.5 103.5,-0.5 59.5,-0.5"/>
<text text-anchor="middle" x="81.5" y="-7.5" font-family="Helvetica,sans-Serif" font-size="10.00">vector</text>
</g>
<!-- Node2&#45;&gt;Node4 -->
<g id="edge3" class="edge"><title>Node2&#45;&gt;Node4</title>
<path fill="none" stroke="midnightblue" d="M130.181,-56.324C121.607,-48.3414 108.688,-36.3128 98.3124,-26.6529"/>
<polygon fill="midnightblue" stroke="midnightblue" points="100.692,-24.0865 90.9883,-19.8339 95.9223,-29.2098 100.692,-24.0865"/>
</g>
<!-- Node5 -->
<g id="node5" class="node"><title>Node5</title>
<polygon fill="white" stroke="#bfbfbf" points="122,-0.5 122,-19.5 157,-19.5 157,-0.5 122,-0.5"/>
<text text-anchor="middle" x="139.5" y="-7.5" font-family="Helvetica,sans-Serif" font-size="10.00">map</text>
</g>
<!-- Node2&#45;&gt;Node5 -->
<g id="edge4" class="edge"><title>Node2&#45;&gt;Node5</title>
<path fill="none" stroke="midnightblue" d="M139.5,-56.083C139.5,-49.0059 139.5,-38.8611 139.5,-29.9865"/>
<polygon fill="midnightblue" stroke="midnightblue" points="143,-29.751 139.5,-19.7511 136,-29.7511 143,-29.751"/>
</g>
<!-- Node6 -->
<g id="node6" class="node"><title>Node6</title>
<polygon fill="white" stroke="#bfbfbf" points="175.5,-0.5 175.5,-19.5 227.5,-19.5 227.5,-0.5 175.5,-0.5"/>
<text text-anchor="middle" x="201.5" y="-7.5" font-family="Helvetica,sans-Serif" font-size="10.00">memory</text>
</g>
<!-- Node2&#45;&gt;Node6 -->
<g id="edge5" class="edge"><title>Node2&#45;&gt;Node6</title>
<path fill="none" stroke="midnightblue" d="M149.461,-56.324C158.627,-48.3414 172.437,-36.3128 183.528,-26.6529"/>
<polygon fill="midnightblue" stroke="midnightblue" points="186.115,-29.041 191.357,-19.8339 181.518,-23.7624 186.115,-29.041"/>
</g>
<!-- Node7 -->
<g id="node7" class="node"><title>Node7</title>
<polygon fill="white" stroke="#bfbfbf" points="246,-0.5 246,-19.5 319,-19.5 319,-0.5 246,-0.5"/>
<text text-anchor="middle" x="282.5" y="-7.5" font-family="Helvetica,sans-Serif" font-size="10.00">initializer_list</text>
</g>
<!-- Node2&#45;&gt;Node7 -->
<g id="edge6" class="edge"><title>Node2&#45;&gt;Node7</title>
<path fill="none" stroke="midnightblue" d="M162.159,-56.4435C185.902,-47.4776 223.409,-33.314 250.238,-23.1827"/>
<polygon fill="midnightblue" stroke="midnightblue" points="251.829,-26.3235 259.947,-19.5164 249.356,-19.7749 251.829,-26.3235"/>
</g>
</g>
</svg>
