<?xml version="1.0" encoding="UTF-8" standalone="no"?>
<!DOCTYPE svg PUBLIC "-//W3C//DTD SVG 1.1//EN"
 "http://www.w3.org/Graphics/SVG/1.1/DTD/svg11.dtd">
<!-- Generated by graphviz version 2.38.0 (20140413.2041)
 -->
<!-- Title: json2tab.cpp Pages: 1 -->
<svg width="1785pt" height="420pt"
 viewBox="0.00 0.00 1785.22 420.00" xmlns="http://www.w3.org/2000/svg" xmlns:xlink="http://www.w3.org/1999/xlink">
<g id="graph0" class="graph" transform="scale(1 1) rotate(0) translate(4 416)">
<title>json2tab.cpp</title>
<polygon fill="white" stroke="none" points="-4,4 -4,-416 1781.22,-416 1781.22,4 -4,4"/>
<!-- Node1 -->
<g id="node1" class="node"><title>Node1</title>
<polygon fill="#bfbfbf" stroke="black" points="944.5,-392.5 944.5,-411.5 1016.5,-411.5 1016.5,-392.5 944.5,-392.5"/>
<text text-anchor="middle" x="980.5" y="-399.5" font-family="Helvetica,sans-Serif" font-size="10.00">json2tab.cpp</text>
</g>
<!-- Node2 -->
<g id="node2" class="node"><title>Node2</title>
<g id="a_node2"><a xlink:href="config_cosmos_8h.html" target="_top" xlink:title="Headers and definitions common to all COSMOS. ">
<polygon fill="white" stroke="black" points="889,-112.5 889,-131.5 1012,-131.5 1012,-112.5 889,-112.5"/>
<text text-anchor="middle" x="950.5" y="-119.5" font-family="Helvetica,sans-Serif" font-size="10.00">support/configCosmos.h</text>
</a>
</g>
</g>
<!-- Node1&#45;&gt;Node2 -->
<g id="edge1" class="edge"><title>Node1&#45;&gt;Node2</title>
<path fill="none" stroke="midnightblue" d="M997.676,-392.412C1011.45,-384.681 1030.27,-372.074 1041.5,-356 1058.74,-331.327 1060.5,-321.098 1060.5,-291 1060.5,-291 1060.5,-291 1060.5,-233 1060.5,-186.91 1011.62,-153.387 979.026,-136.158"/>
<polygon fill="midnightblue" stroke="midnightblue" points="980.414,-132.938 969.913,-131.536 977.248,-139.181 980.414,-132.938"/>
</g>
<!-- Node35 -->
<g id="node35" class="node"><title>Node35</title>
<g id="a_node35"><a xlink:href="jsonclass_8h.html" target="_top" xlink:title="support/jsonclass.h">
<polygon fill="white" stroke="black" points="850,-224.5 850,-243.5 951,-243.5 951,-224.5 850,-224.5"/>
<text text-anchor="middle" x="900.5" y="-231.5" font-family="Helvetica,sans-Serif" font-size="10.00">support/jsonclass.h</text>
</a>
</g>
</g>
<!-- Node1&#45;&gt;Node35 -->
<g id="edge43" class="edge"><title>Node1&#45;&gt;Node35</title>
<path fill="none" stroke="midnightblue" d="M962.2,-392.467C948.16,-384.921 929.537,-372.538 919.5,-356 900.078,-323.999 898.383,-278.792 899.219,-253.674"/>
<polygon fill="midnightblue" stroke="midnightblue" points="902.715,-253.831 899.726,-243.666 895.724,-253.476 902.715,-253.831"/>
</g>
<!-- Node38 -->
<g id="node38" class="node"><title>Node38</title>
<g id="a_node38"><a xlink:href="jsonobject_8h.html" target="_top" xlink:title="support/jsonobject.h">
<polygon fill="white" stroke="black" points="928.5,-336.5 928.5,-355.5 1032.5,-355.5 1032.5,-336.5 928.5,-336.5"/>
<text text-anchor="middle" x="980.5" y="-343.5" font-family="Helvetica,sans-Serif" font-size="10.00">support/jsonobject.h</text>
</a>
</g>
</g>
<!-- Node1&#45;&gt;Node38 -->
<g id="edge48" class="edge"><title>Node1&#45;&gt;Node38</title>
<path fill="none" stroke="midnightblue" d="M980.5,-392.083C980.5,-385.006 980.5,-374.861 980.5,-365.986"/>
<polygon fill="midnightblue" stroke="midnightblue" points="984,-365.751 980.5,-355.751 977,-365.751 984,-365.751"/>
</g>
<!-- Node3 -->
<g id="node3" class="node"><title>Node3</title>
<polygon fill="white" stroke="#bfbfbf" points="1304,-56.5 1304,-75.5 1349,-75.5 1349,-56.5 1304,-56.5"/>
<text text-anchor="middle" x="1326.5" y="-63.5" font-family="Helvetica,sans-Serif" font-size="10.00">climits</text>
</g>
<!-- Node2&#45;&gt;Node3 -->
<g id="edge2" class="edge"><title>Node2&#45;&gt;Node3</title>
<path fill="none" stroke="midnightblue" d="M1012.05,-114.826C1080.22,-107.525 1193.22,-94.0476 1289.5,-76 1290.96,-75.726 1292.45,-75.4306 1293.96,-75.1197"/>
<polygon fill="midnightblue" stroke="midnightblue" points="1294.89,-78.4984 1303.88,-72.9057 1293.36,-71.6662 1294.89,-78.4984"/>
</g>
<!-- Node4 -->
<g id="node4" class="node"><title>Node4</title>
<polygon fill="white" stroke="#bfbfbf" points="1367,-56.5 1367,-75.5 1414,-75.5 1414,-56.5 1367,-56.5"/>
<text text-anchor="middle" x="1390.5" y="-63.5" font-family="Helvetica,sans-Serif" font-size="10.00">csignal</text>
</g>
<!-- Node2&#45;&gt;Node4 -->
<g id="edge3" class="edge"><title>Node2&#45;&gt;Node4</title>
<path fill="none" stroke="midnightblue" d="M1012.31,-117.181C1090.43,-111.685 1229.07,-99.703 1356.85,-75.8267"/>
<polygon fill="midnightblue" stroke="midnightblue" points="1357.64,-79.2392 1366.81,-73.9363 1356.33,-72.3619 1357.64,-79.2392"/>
</g>
<!-- Node5 -->
<g id="node5" class="node"><title>Node5</title>
<polygon fill="white" stroke="#bfbfbf" points="1506.5,-56.5 1506.5,-75.5 1552.5,-75.5 1552.5,-56.5 1506.5,-56.5"/>
<text text-anchor="middle" x="1529.5" y="-63.5" font-family="Helvetica,sans-Serif" font-size="10.00">cstdint</text>
</g>
<!-- Node2&#45;&gt;Node5 -->
<g id="edge4" class="edge"><title>Node2&#45;&gt;Node5</title>
<path fill="none" stroke="midnightblue" d="M1012.11,-119.779C1112.08,-116.955 1315.78,-107.703 1496.26,-75.8899"/>
<polygon fill="midnightblue" stroke="midnightblue" points="1496.98,-79.3184 1506.2,-74.111 1495.74,-72.4279 1496.98,-79.3184"/>
</g>
<!-- Node6 -->
<g id="node6" class="node"><title>Node6</title>
<polygon fill="white" stroke="#bfbfbf" points="1432.5,-56.5 1432.5,-75.5 1488.5,-75.5 1488.5,-56.5 1432.5,-56.5"/>
<text text-anchor="middle" x="1460.5" y="-63.5" font-family="Helvetica,sans-Serif" font-size="10.00">cinttypes</text>
</g>
<!-- Node2&#45;&gt;Node6 -->
<g id="edge5" class="edge"><title>Node2&#45;&gt;Node6</title>
<path fill="none" stroke="midnightblue" d="M1012.32,-117.823C1102.84,-112.559 1276.52,-100.129 1422.5,-76 1422.6,-75.9834 1422.7,-75.9667 1422.8,-75.9499"/>
<polygon fill="midnightblue" stroke="midnightblue" points="1423.2,-79.4368 1432.37,-74.1184 1421.89,-72.5617 1423.2,-79.4368"/>
</g>
<!-- Node7 -->
<g id="node7" class="node"><title>Node7</title>
<polygon fill="white" stroke="#bfbfbf" points="0,-56.5 0,-75.5 43,-75.5 43,-56.5 0,-56.5"/>
<text text-anchor="middle" x="21.5" y="-63.5" font-family="Helvetica,sans-Serif" font-size="10.00">cstdio</text>
</g>
<!-- Node2&#45;&gt;Node7 -->
<g id="edge6" class="edge"><title>Node2&#45;&gt;Node7</title>
<path fill="none" stroke="midnightblue" d="M888.959,-112.883C885.763,-112.56 882.595,-112.263 879.5,-112 515.79,-81.0945 416.484,-136.378 53.3041,-75.9066"/>
<polygon fill="midnightblue" stroke="midnightblue" points="53.7484,-72.4322 43.3062,-74.2239 52.5866,-79.3351 53.7484,-72.4322"/>
</g>
<!-- Node8 -->
<g id="node8" class="node"><title>Node8</title>
<polygon fill="white" stroke="#bfbfbf" points="61,-56.5 61,-75.5 110,-75.5 110,-56.5 61,-56.5"/>
<text text-anchor="middle" x="85.5" y="-63.5" font-family="Helvetica,sans-Serif" font-size="10.00">cstddef</text>
</g>
<!-- Node2&#45;&gt;Node8 -->
<g id="edge7" class="edge"><title>Node2&#45;&gt;Node8</title>
<path fill="none" stroke="midnightblue" d="M888.958,-112.898C885.762,-112.571 882.595,-112.269 879.5,-112 545.465,-82.9733 454.715,-127.968 120.208,-75.9395"/>
<polygon fill="midnightblue" stroke="midnightblue" points="120.662,-72.468 110.24,-74.3717 119.574,-79.383 120.662,-72.468"/>
</g>
<!-- Node9 -->
<g id="node9" class="node"><title>Node9</title>
<polygon fill="white" stroke="#bfbfbf" points="128,-56.5 128,-75.5 173,-75.5 173,-56.5 128,-56.5"/>
<text text-anchor="middle" x="150.5" y="-63.5" font-family="Helvetica,sans-Serif" font-size="10.00">cstdlib</text>
</g>
<!-- Node2&#45;&gt;Node9 -->
<g id="edge8" class="edge"><title>Node2&#45;&gt;Node9</title>
<path fill="none" stroke="midnightblue" d="M888.957,-112.914C885.761,-112.583 882.594,-112.276 879.5,-112 573.852,-84.7727 490.372,-125.412 183.172,-75.676"/>
<polygon fill="midnightblue" stroke="midnightblue" points="183.52,-72.1863 173.085,-74.0236 182.388,-79.0942 183.52,-72.1863"/>
</g>
<!-- Node10 -->
<g id="node10" class="node"><title>Node10</title>
<polygon fill="white" stroke="#bfbfbf" points="191.5,-56.5 191.5,-75.5 235.5,-75.5 235.5,-56.5 191.5,-56.5"/>
<text text-anchor="middle" x="213.5" y="-63.5" font-family="Helvetica,sans-Serif" font-size="10.00">cerrno</text>
</g>
<!-- Node2&#45;&gt;Node10 -->
<g id="edge9" class="edge"><title>Node2&#45;&gt;Node10</title>
<path fill="none" stroke="midnightblue" d="M888.955,-112.933C885.76,-112.597 882.593,-112.283 879.5,-112 601.302,-86.5129 524.903,-122.84 245.728,-75.8083"/>
<polygon fill="midnightblue" stroke="midnightblue" points="246.157,-72.331 235.711,-74.0998 244.98,-79.2313 246.157,-72.331"/>
</g>
<!-- Node11 -->
<g id="node11" class="node"><title>Node11</title>
<polygon fill="white" stroke="#bfbfbf" points="253.5,-56.5 253.5,-75.5 299.5,-75.5 299.5,-56.5 253.5,-56.5"/>
<text text-anchor="middle" x="276.5" y="-63.5" font-family="Helvetica,sans-Serif" font-size="10.00">cstring</text>
</g>
<!-- Node2&#45;&gt;Node11 -->
<g id="edge10" class="edge"><title>Node2&#45;&gt;Node11</title>
<path fill="none" stroke="midnightblue" d="M888.953,-112.957C885.758,-112.615 882.592,-112.293 879.5,-112 629.691,-88.316 560.981,-117.862 309.948,-75.8847"/>
<polygon fill="midnightblue" stroke="midnightblue" points="310.233,-72.3831 299.789,-74.1637 309.064,-79.2848 310.233,-72.3831"/>
</g>
<!-- Node12 -->
<g id="node12" class="node"><title>Node12</title>
<polygon fill="white" stroke="#bfbfbf" points="1570.5,-56.5 1570.5,-75.5 1614.5,-75.5 1614.5,-56.5 1570.5,-56.5"/>
<text text-anchor="middle" x="1592.5" y="-63.5" font-family="Helvetica,sans-Serif" font-size="10.00">cmath</text>
</g>
<!-- Node2&#45;&gt;Node12 -->
<g id="edge11" class="edge"><title>Node2&#45;&gt;Node12</title>
<path fill="none" stroke="midnightblue" d="M1012.17,-120.7C1121.23,-119.246 1355.17,-111.982 1560.23,-75.8521"/>
<polygon fill="midnightblue" stroke="midnightblue" points="1561.05,-79.2604 1570.28,-74.0537 1559.82,-72.3698 1561.05,-79.2604"/>
</g>
<!-- Node13 -->
<g id="node13" class="node"><title>Node13</title>
<polygon fill="white" stroke="#bfbfbf" points="318,-56.5 318,-75.5 363,-75.5 363,-56.5 318,-56.5"/>
<text text-anchor="middle" x="340.5" y="-63.5" font-family="Helvetica,sans-Serif" font-size="10.00">iosfwd</text>
</g>
<!-- Node2&#45;&gt;Node13 -->
<g id="edge12" class="edge"><title>Node2&#45;&gt;Node13</title>
<path fill="none" stroke="midnightblue" d="M888.95,-112.987C885.756,-112.637 882.591,-112.305 879.5,-112 657.987,-90.1129 596.83,-114.059 373.178,-75.7198"/>
<polygon fill="midnightblue" stroke="midnightblue" points="373.546,-72.2314 363.095,-73.9683 372.348,-79.1281 373.546,-72.2314"/>
</g>
<!-- Node14 -->
<g id="node14" class="node"><title>Node14</title>
<polygon fill="white" stroke="#bfbfbf" points="1632.5,-56.5 1632.5,-75.5 1686.5,-75.5 1686.5,-56.5 1632.5,-56.5"/>
<text text-anchor="middle" x="1659.5" y="-63.5" font-family="Helvetica,sans-Serif" font-size="10.00">iostream</text>
</g>
<!-- Node2&#45;&gt;Node14 -->
<g id="edge13" class="edge"><title>Node2&#45;&gt;Node14</title>
<path fill="none" stroke="midnightblue" d="M1012.15,-120.54C1129.41,-118.869 1392.64,-111.304 1622.59,-75.849"/>
<polygon fill="midnightblue" stroke="midnightblue" points="1623.14,-79.306 1632.48,-74.3039 1622.06,-72.3899 1623.14,-79.306"/>
</g>
<!-- Node15 -->
<g id="node15" class="node"><title>Node15</title>
<polygon fill="white" stroke="#bfbfbf" points="381.5,-56.5 381.5,-75.5 433.5,-75.5 433.5,-56.5 381.5,-56.5"/>
<text text-anchor="middle" x="407.5" y="-63.5" font-family="Helvetica,sans-Serif" font-size="10.00">sstream</text>
</g>
<!-- Node2&#45;&gt;Node15 -->
<g id="edge14" class="edge"><title>Node2&#45;&gt;Node15</title>
<path fill="none" stroke="midnightblue" d="M888.946,-113.029C885.753,-112.669 882.589,-112.323 879.5,-112 688.893,-92.0779 636.404,-107.84 443.654,-75.9222"/>
<polygon fill="midnightblue" stroke="midnightblue" points="444.212,-72.467 433.771,-74.2645 443.054,-79.3706 444.212,-72.467"/>
</g>
<!-- Node16 -->
<g id="node16" class="node"><title>Node16</title>
<polygon fill="white" stroke="#bfbfbf" points="452,-56.5 452,-75.5 493,-75.5 493,-56.5 452,-56.5"/>
<text text-anchor="middle" x="472.5" y="-63.5" font-family="Helvetica,sans-Serif" font-size="10.00">regex</text>
</g>
<!-- Node2&#45;&gt;Node16 -->
<g id="edge15" class="edge"><title>Node2&#45;&gt;Node16</title>
<path fill="none" stroke="midnightblue" d="M888.94,-113.078C885.749,-112.704 882.587,-112.343 879.5,-112 715.045,-93.7501 668.762,-108.582 503.308,-76.0133"/>
<polygon fill="midnightblue" stroke="midnightblue" points="503.768,-72.5362 493.276,-74.0099 502.397,-79.4007 503.768,-72.5362"/>
</g>
<!-- Node17 -->
<g id="node17" class="node"><title>Node17</title>
<polygon fill="white" stroke="#bfbfbf" points="1704.5,-56.5 1704.5,-75.5 1754.5,-75.5 1754.5,-56.5 1704.5,-56.5"/>
<text text-anchor="middle" x="1729.5" y="-63.5" font-family="Helvetica,sans-Serif" font-size="10.00">iomanip</text>
</g>
<!-- Node2&#45;&gt;Node17 -->
<g id="edge16" class="edge"><title>Node2&#45;&gt;Node17</title>
<path fill="none" stroke="midnightblue" d="M1012.28,-121.393C1138.86,-121.305 1436.75,-116.524 1694.45,-75.8347"/>
<polygon fill="midnightblue" stroke="midnightblue" points="1695.05,-79.2835 1704.37,-74.2472 1693.94,-72.3714 1695.05,-79.2835"/>
</g>
<!-- Node18 -->
<g id="node18" class="node"><title>Node18</title>
<polygon fill="white" stroke="#bfbfbf" points="511,-56.5 511,-75.5 562,-75.5 562,-56.5 511,-56.5"/>
<text text-anchor="middle" x="536.5" y="-63.5" font-family="Helvetica,sans-Serif" font-size="10.00">unistd.h</text>
</g>
<!-- Node2&#45;&gt;Node18 -->
<g id="edge17" class="edge"><title>Node2&#45;&gt;Node18</title>
<path fill="none" stroke="midnightblue" d="M888.931,-113.158C885.742,-112.764 882.583,-112.376 879.5,-112 745.897,-95.7246 708.723,-100.956 572.041,-75.8498"/>
<polygon fill="midnightblue" stroke="midnightblue" points="572.496,-72.3746 562.025,-73.989 571.218,-79.2568 572.496,-72.3746"/>
</g>
<!-- Node19 -->
<g id="node19" class="node"><title>Node19</title>
<polygon fill="white" stroke="#bfbfbf" points="580.5,-56.5 580.5,-75.5 624.5,-75.5 624.5,-56.5 580.5,-56.5"/>
<text text-anchor="middle" x="602.5" y="-63.5" font-family="Helvetica,sans-Serif" font-size="10.00">fcntl.h</text>
</g>
<!-- Node2&#45;&gt;Node19 -->
<g id="edge18" class="edge"><title>Node2&#45;&gt;Node19</title>
<path fill="none" stroke="midnightblue" d="M888.673,-112.703C810.338,-102.123 680.794,-84.3795 634.783,-75.8711"/>
<polygon fill="midnightblue" stroke="midnightblue" points="635.247,-72.3947 624.755,-73.8699 633.877,-79.2593 635.247,-72.3947"/>
</g>
<!-- Node20 -->
<g id="node20" class="node"><title>Node20</title>
<polygon fill="white" stroke="#bfbfbf" points="642.5,-56.5 642.5,-75.5 682.5,-75.5 682.5,-56.5 642.5,-56.5"/>
<text text-anchor="middle" x="662.5" y="-63.5" font-family="Helvetica,sans-Serif" font-size="10.00">limits</text>
</g>
<!-- Node2&#45;&gt;Node20 -->
<g id="edge19" class="edge"><title>Node2&#45;&gt;Node20</title>
<path fill="none" stroke="midnightblue" d="M894.741,-112.494C843.102,-104.292 764.286,-90.9491 696.5,-76 695.225,-75.7189 693.927,-75.422 692.617,-75.1139"/>
<polygon fill="midnightblue" stroke="midnightblue" points="693.118,-71.6318 682.568,-72.6091 691.425,-78.424 693.118,-71.6318"/>
</g>
<!-- Node21 -->
<g id="node21" class="node"><title>Node21</title>
<polygon fill="white" stroke="#bfbfbf" points="1134,-0.5 1134,-19.5 1175,-19.5 1175,-0.5 1134,-0.5"/>
<text text-anchor="middle" x="1154.5" y="-7.5" font-family="Helvetica,sans-Serif" font-size="10.00">string</text>
</g>
<!-- Node2&#45;&gt;Node21 -->
<g id="edge20" class="edge"><title>Node2&#45;&gt;Node21</title>
<path fill="none" stroke="midnightblue" d="M1002.14,-112.489C1031.77,-105.887 1068.7,-94.622 1097.5,-76 1116.73,-63.5657 1133.29,-42.8636 1143.52,-28.166"/>
<polygon fill="midnightblue" stroke="midnightblue" points="1146.65,-29.7803 1149.3,-19.522 1140.84,-25.8893 1146.65,-29.7803"/>
</g>
<!-- Node22 -->
<g id="node22" class="node"><title>Node22</title>
<polygon fill="white" stroke="#bfbfbf" points="1355.5,-0.5 1355.5,-19.5 1399.5,-19.5 1399.5,-0.5 1355.5,-0.5"/>
<text text-anchor="middle" x="1377.5" y="-7.5" font-family="Helvetica,sans-Serif" font-size="10.00">vector</text>
</g>
<!-- Node2&#45;&gt;Node22 -->
<g id="edge21" class="edge"><title>Node2&#45;&gt;Node22</title>
<path fill="none" stroke="midnightblue" d="M1012.03,-118.206C1074.86,-113.917 1174.55,-103.11 1256.5,-76 1259.05,-75.1571 1317.88,-43.3399 1352.55,-24.54"/>
<polygon fill="midnightblue" stroke="midnightblue" points="1354.5,-27.4636 1361.63,-19.6192 1351.17,-21.3104 1354.5,-27.4636"/>
</g>
<!-- Node23 -->
<g id="node23" class="node"><title>Node23</title>
<polygon fill="white" stroke="#bfbfbf" points="777,-56.5 777,-75.5 818,-75.5 818,-56.5 777,-56.5"/>
<text text-anchor="middle" x="797.5" y="-63.5" font-family="Helvetica,sans-Serif" font-size="10.00">stack</text>
</g>
<!-- Node2&#45;&gt;Node23 -->
<g id="edge22" class="edge"><title>Node2&#45;&gt;Node23</title>
<path fill="none" stroke="midnightblue" d="M926.257,-112.444C899.574,-103.026 856.645,-87.8746 827.772,-77.6842"/>
<polygon fill="midnightblue" stroke="midnightblue" points="828.79,-74.332 818.195,-74.3042 826.46,-80.9329 828.79,-74.332"/>
</g>
<!-- Node24 -->
<g id="node24" class="node"><title>Node24</title>
<polygon fill="white" stroke="#bfbfbf" points="836,-56.5 836,-75.5 879,-75.5 879,-56.5 836,-56.5"/>
<text text-anchor="middle" x="857.5" y="-63.5" font-family="Helvetica,sans-Serif" font-size="10.00">deque</text>
</g>
<!-- Node2&#45;&gt;Node24 -->
<g id="edge23" class="edge"><title>Node2&#45;&gt;Node24</title>
<path fill="none" stroke="midnightblue" d="M935.558,-112.324C920.915,-103.822 898.366,-90.7288 881.262,-80.7975"/>
<polygon fill="midnightblue" stroke="midnightblue" points="882.81,-77.6491 872.405,-75.6545 879.295,-83.7027 882.81,-77.6491"/>
</g>
<!-- Node25 -->
<g id="node25" class="node"><title>Node25</title>
<polygon fill="white" stroke="#bfbfbf" points="700.5,-0.5 700.5,-19.5 744.5,-19.5 744.5,-0.5 700.5,-0.5"/>
<text text-anchor="middle" x="722.5" y="-7.5" font-family="Helvetica,sans-Serif" font-size="10.00">mutex</text>
</g>
<!-- Node2&#45;&gt;Node25 -->
<g id="edge24" class="edge"><title>Node2&#45;&gt;Node25</title>
<path fill="none" stroke="midnightblue" d="M891.809,-112.434C843.679,-104.467 780.231,-91.5109 759.5,-76 743.939,-64.3571 733.926,-44.1099 728.293,-29.2994"/>
<polygon fill="midnightblue" stroke="midnightblue" points="731.538,-27.9734 724.949,-19.6766 724.926,-30.2714 731.538,-27.9734"/>
</g>
<!-- Node26 -->
<g id="node26" class="node"><title>Node26</title>
<polygon fill="white" stroke="#bfbfbf" points="785.5,-0.5 785.5,-19.5 829.5,-19.5 829.5,-0.5 785.5,-0.5"/>
<text text-anchor="middle" x="807.5" y="-7.5" font-family="Helvetica,sans-Serif" font-size="10.00">thread</text>
</g>
<!-- Node2&#45;&gt;Node26 -->
<g id="edge25" class="edge"><title>Node2&#45;&gt;Node26</title>
<path fill="none" stroke="midnightblue" d="M903.04,-112.45C851.687,-102.72 775.952,-86.7824 767.5,-76 754.9,-59.9267 771.973,-39.6457 787.555,-26.0503"/>
<polygon fill="midnightblue" stroke="midnightblue" points="789.894,-28.6583 795.402,-19.6079 785.452,-23.248 789.894,-28.6583"/>
</g>
<!-- Node27 -->
<g id="node27" class="node"><title>Node27</title>
<polygon fill="white" stroke="#bfbfbf" points="860,-0.5 860,-19.5 955,-19.5 955,-0.5 860,-0.5"/>
<text text-anchor="middle" x="907.5" y="-7.5" font-family="Helvetica,sans-Serif" font-size="10.00">condition_variable</text>
</g>
<!-- Node2&#45;&gt;Node27 -->
<g id="edge26" class="edge"><title>Node2&#45;&gt;Node27</title>
<path fill="none" stroke="midnightblue" d="M945.163,-112.296C939.887,-103.417 931.849,-89.1181 926.5,-76 920.258,-60.6906 915.14,-42.5869 911.795,-29.3785"/>
<polygon fill="midnightblue" stroke="midnightblue" points="915.182,-28.4925 909.417,-19.6035 908.38,-30.1476 915.182,-28.4925"/>
</g>
<!-- Node28 -->
<g id="node28" class="node"><title>Node28</title>
<polygon fill="white" stroke="#bfbfbf" points="1020,-0.5 1020,-19.5 1063,-19.5 1063,-0.5 1020,-0.5"/>
<text text-anchor="middle" x="1041.5" y="-7.5" font-family="Helvetica,sans-Serif" font-size="10.00">queue</text>
</g>
<!-- Node2&#45;&gt;Node28 -->
<g id="edge27" class="edge"><title>Node2&#45;&gt;Node28</title>
<path fill="none" stroke="midnightblue" d="M1003.82,-112.431C1025.16,-106.1 1047.68,-95.101 1060.5,-76 1070.19,-61.5656 1062.35,-42.1187 1053.99,-28.2664"/>
<polygon fill="midnightblue" stroke="midnightblue" points="1056.77,-26.1165 1048.33,-19.7004 1050.92,-29.9739 1056.77,-26.1165"/>
</g>
<!-- Node29 -->
<g id="node29" class="node"><title>Node29</title>
<polygon fill="white" stroke="#bfbfbf" points="1081,-0.5 1081,-19.5 1116,-19.5 1116,-0.5 1081,-0.5"/>
<text text-anchor="middle" x="1098.5" y="-7.5" font-family="Helvetica,sans-Serif" font-size="10.00">map</text>
</g>
<!-- Node2&#45;&gt;Node29 -->
<g id="edge28" class="edge"><title>Node2&#45;&gt;Node29</title>
<path fill="none" stroke="midnightblue" d="M1007.22,-112.47C1031.69,-106.133 1058.91,-95.1186 1077.5,-76 1089.5,-63.6557 1094.65,-44.4062 1096.85,-30.0545"/>
<polygon fill="midnightblue" stroke="midnightblue" points="1100.36,-30.1624 1098.06,-19.8202 1093.41,-29.3393 1100.36,-30.1624"/>
</g>
<!-- Node30 -->
<g id="node30" class="node"><title>Node30</title>
<g id="a_node30"><a xlink:href="cosmos-defs_8h.html" target="_top" xlink:title="COSMOS definitions Definitions specific to the COSMOS environement. ">
<polygon fill="white" stroke="black" points="935.5,-56.5 935.5,-75.5 1051.5,-75.5 1051.5,-56.5 935.5,-56.5"/>
<text text-anchor="middle" x="993.5" y="-63.5" font-family="Helvetica,sans-Serif" font-size="10.00">support/cosmos&#45;defs.h</text>
</a>
</g>
</g>
<!-- Node2&#45;&gt;Node30 -->
<g id="edge29" class="edge"><title>Node2&#45;&gt;Node30</title>
<path fill="none" stroke="midnightblue" d="M957.601,-112.083C963.737,-104.377 972.77,-93.0333 980.239,-83.6531"/>
<polygon fill="midnightblue" stroke="midnightblue" points="983.04,-85.7542 986.532,-75.7511 977.564,-81.3936 983.04,-85.7542"/>
</g>
<!-- Node32 -->
<g id="node32" class="node"><title>Node32</title>
<g id="a_node32"><a xlink:href="json11_8hpp.html" target="_top" xlink:title="json11.hpp">
<polygon fill="white" stroke="black" points="1183.5,-56.5 1183.5,-75.5 1247.5,-75.5 1247.5,-56.5 1183.5,-56.5"/>
<text text-anchor="middle" x="1215.5" y="-63.5" font-family="Helvetica,sans-Serif" font-size="10.00">json11.hpp</text>
</a>
</g>
</g>
<!-- Node2&#45;&gt;Node32 -->
<g id="edge37" class="edge"><title>Node2&#45;&gt;Node32</title>
<path fill="none" stroke="midnightblue" d="M992.49,-112.444C1041.95,-102.365 1123.64,-85.719 1173.22,-75.6151"/>
<polygon fill="midnightblue" stroke="midnightblue" points="1174.19,-78.9894 1183.29,-73.5631 1172.79,-72.1303 1174.19,-78.9894"/>
</g>
<!-- Node30&#45;&gt;Node22 -->
<g id="edge31" class="edge"><title>Node30&#45;&gt;Node22</title>
<path fill="none" stroke="midnightblue" d="M1051.55,-60.2162C1119.62,-54.0184 1235.95,-41.5998 1345.34,-19.7236"/>
<polygon fill="midnightblue" stroke="midnightblue" points="1346.12,-23.1367 1355.22,-17.7169 1344.73,-16.2767 1346.12,-23.1367"/>
</g>
<!-- Node30&#45;&gt;Node25 -->
<g id="edge35" class="edge"><title>Node30&#45;&gt;Node25</title>
<path fill="none" stroke="midnightblue" d="M950.559,-56.4435C896.054,-45.5826 803.273,-27.0949 754.55,-17.3864"/>
<polygon fill="midnightblue" stroke="midnightblue" points="755.061,-13.9193 744.569,-15.3976 753.693,-20.7844 755.061,-13.9193"/>
</g>
<!-- Node30&#45;&gt;Node26 -->
<g id="edge34" class="edge"><title>Node30&#45;&gt;Node26</title>
<path fill="none" stroke="midnightblue" d="M964.028,-56.4435C929.998,-46.5639 874.231,-30.3734 839.26,-20.2208"/>
<polygon fill="midnightblue" stroke="midnightblue" points="840.133,-16.8296 829.553,-17.4026 838.181,-23.552 840.133,-16.8296"/>
</g>
<!-- Node30&#45;&gt;Node27 -->
<g id="edge36" class="edge"><title>Node30&#45;&gt;Node27</title>
<path fill="none" stroke="midnightblue" d="M979.683,-56.324C966.267,-47.9002 945.676,-34.9709 929.914,-25.0741"/>
<polygon fill="midnightblue" stroke="midnightblue" points="931.613,-22.0081 921.283,-19.6545 927.891,-27.9364 931.613,-22.0081"/>
</g>
<!-- Node30&#45;&gt;Node28 -->
<g id="edge33" class="edge"><title>Node30&#45;&gt;Node28</title>
<path fill="none" stroke="midnightblue" d="M1001.43,-56.083C1008.35,-48.2982 1018.57,-36.8015 1026.95,-27.3665"/>
<polygon fill="midnightblue" stroke="midnightblue" points="1029.69,-29.5505 1033.72,-19.7511 1024.46,-24.8999 1029.69,-29.5505"/>
</g>
<!-- Node30&#45;&gt;Node29 -->
<g id="edge30" class="edge"><title>Node30&#45;&gt;Node29</title>
<path fill="none" stroke="midnightblue" d="M1010.37,-56.324C1027.21,-47.6641 1053.31,-34.2424 1072.74,-24.249"/>
<polygon fill="midnightblue" stroke="midnightblue" points="1074.38,-27.3405 1081.67,-19.6545 1071.18,-21.1155 1074.38,-27.3405"/>
</g>
<!-- Node31 -->
<g id="node31" class="node"><title>Node31</title>
<polygon fill="white" stroke="#bfbfbf" points="973,-0.5 973,-19.5 1002,-19.5 1002,-0.5 973,-0.5"/>
<text text-anchor="middle" x="987.5" y="-7.5" font-family="Helvetica,sans-Serif" font-size="10.00">list</text>
</g>
<!-- Node30&#45;&gt;Node31 -->
<g id="edge32" class="edge"><title>Node30&#45;&gt;Node31</title>
<path fill="none" stroke="midnightblue" d="M992.509,-56.083C991.714,-48.9272 990.571,-38.6353 989.577,-29.6911"/>
<polygon fill="midnightblue" stroke="midnightblue" points="993.055,-29.3034 988.472,-19.7511 986.098,-30.0765 993.055,-29.3034"/>
</g>
<!-- Node32&#45;&gt;Node21 -->
<g id="edge38" class="edge"><title>Node32&#45;&gt;Node21</title>
<path fill="none" stroke="midnightblue" d="M1205.7,-56.324C1196.68,-48.3414 1183.09,-36.3128 1172.18,-26.6529"/>
<polygon fill="midnightblue" stroke="midnightblue" points="1174.29,-23.8416 1164.48,-19.8339 1169.65,-29.083 1174.29,-23.8416"/>
</g>
<!-- Node32&#45;&gt;Node22 -->
<g id="edge39" class="edge"><title>Node32&#45;&gt;Node22</title>
<path fill="none" stroke="midnightblue" d="M1241.17,-56.4435C1269.46,-47.0118 1315.02,-31.8282 1345.59,-21.6375"/>
<polygon fill="midnightblue" stroke="midnightblue" points="1346.95,-24.8711 1355.33,-18.3884 1344.74,-18.2304 1346.95,-24.8711"/>
</g>
<!-- Node32&#45;&gt;Node29 -->
<g id="edge40" class="edge"><title>Node32&#45;&gt;Node29</title>
<path fill="none" stroke="midnightblue" d="M1196.96,-56.4435C1177.65,-47.532 1147.22,-33.4856 1125.3,-23.3674"/>
<polygon fill="midnightblue" stroke="midnightblue" points="1126.73,-20.1757 1116.19,-19.1629 1123.8,-26.5314 1126.73,-20.1757"/>
</g>
<!-- Node33 -->
<g id="node33" class="node"><title>Node33</title>
<polygon fill="white" stroke="#bfbfbf" points="1193.5,-0.5 1193.5,-19.5 1245.5,-19.5 1245.5,-0.5 1193.5,-0.5"/>
<text text-anchor="middle" x="1219.5" y="-7.5" font-family="Helvetica,sans-Serif" font-size="10.00">memory</text>
</g>
<!-- Node32&#45;&gt;Node33 -->
<g id="edge41" class="edge"><title>Node32&#45;&gt;Node33</title>
<path fill="none" stroke="midnightblue" d="M1216.16,-56.083C1216.68,-49.0059 1217.44,-38.8611 1218.09,-29.9865"/>
<polygon fill="midnightblue" stroke="midnightblue" points="1221.6,-29.9823 1218.85,-19.7511 1214.62,-29.4652 1221.6,-29.9823"/>
</g>
<!-- Node34 -->
<g id="node34" class="node"><title>Node34</title>
<polygon fill="white" stroke="#bfbfbf" points="1264,-0.5 1264,-19.5 1337,-19.5 1337,-0.5 1264,-0.5"/>
<text text-anchor="middle" x="1300.5" y="-7.5" font-family="Helvetica,sans-Serif" font-size="10.00">initializer_list</text>
</g>
<!-- Node32&#45;&gt;Node34 -->
<g id="edge42" class="edge"><title>Node32&#45;&gt;Node34</title>
<path fill="none" stroke="midnightblue" d="M1229.16,-56.324C1242.42,-47.9002 1262.77,-34.9709 1278.35,-25.0741"/>
<polygon fill="midnightblue" stroke="midnightblue" points="1280.31,-27.9711 1286.88,-19.6545 1276.56,-22.0626 1280.31,-27.9711"/>
</g>
<!-- Node35&#45;&gt;Node2 -->
<g id="edge44" class="edge"><title>Node35&#45;&gt;Node2</title>
<path fill="none" stroke="midnightblue" d="M904.841,-224.432C909.37,-215.421 916.618,-200.801 922.5,-188 929.706,-172.319 937.433,-154.278 942.941,-141.188"/>
<polygon fill="midnightblue" stroke="midnightblue" points="946.199,-142.467 946.829,-131.891 939.742,-139.766 946.199,-142.467"/>
</g>
<!-- Node36 -->
<g id="node36" class="node"><title>Node36</title>
<g id="a_node36"><a xlink:href="cosmos-errno_8h.html" target="_top" xlink:title="COSMOS Error Codes. ">
<polygon fill="white" stroke="black" points="795,-168.5 795,-187.5 914,-187.5 914,-168.5 795,-168.5"/>
<text text-anchor="middle" x="854.5" y="-175.5" font-family="Helvetica,sans-Serif" font-size="10.00">support/cosmos&#45;errno.h</text>
</a>
</g>
</g>
<!-- Node35&#45;&gt;Node36 -->
<g id="edge45" class="edge"><title>Node35&#45;&gt;Node36</title>
<path fill="none" stroke="midnightblue" d="M892.904,-224.083C886.273,-216.298 876.479,-204.801 868.442,-195.367"/>
<polygon fill="midnightblue" stroke="midnightblue" points="871.104,-193.094 861.955,-187.751 865.775,-197.633 871.104,-193.094"/>
</g>
<!-- Node36&#45;&gt;Node2 -->
<g id="edge46" class="edge"><title>Node36&#45;&gt;Node2</title>
<path fill="none" stroke="midnightblue" d="M869.924,-168.324C885.04,-159.822 908.315,-146.729 925.971,-136.797"/>
<polygon fill="midnightblue" stroke="midnightblue" points="928.114,-139.608 935.114,-131.655 924.683,-133.507 928.114,-139.608"/>
</g>
<!-- Node37 -->
<g id="node37" class="node"><title>Node37</title>
<polygon fill="white" stroke="#bfbfbf" points="824,-112.5 824,-131.5 871,-131.5 871,-112.5 824,-112.5"/>
<text text-anchor="middle" x="847.5" y="-119.5" font-family="Helvetica,sans-Serif" font-size="10.00">errno.h</text>
</g>
<!-- Node36&#45;&gt;Node37 -->
<g id="edge47" class="edge"><title>Node36&#45;&gt;Node37</title>
<path fill="none" stroke="midnightblue" d="M853.344,-168.083C852.416,-160.927 851.082,-150.635 849.923,-141.691"/>
<polygon fill="midnightblue" stroke="midnightblue" points="853.391,-141.218 848.634,-131.751 846.449,-142.118 853.391,-141.218"/>
</g>
<!-- Node39 -->
<g id="node39" class="node"><title>Node39</title>
<g id="a_node39"><a xlink:href="jsonvalue_8h.html" target="_top" xlink:title="support/jsonvalue.h">
<polygon fill="white" stroke="black" points="930,-280.5 930,-299.5 1031,-299.5 1031,-280.5 930,-280.5"/>
<text text-anchor="middle" x="980.5" y="-287.5" font-family="Helvetica,sans-Serif" font-size="10.00">support/jsonvalue.h</text>
</a>
</g>
</g>
<!-- Node38&#45;&gt;Node39 -->
<g id="edge49" class="edge"><title>Node38&#45;&gt;Node39</title>
<path fill="none" stroke="midnightblue" d="M980.5,-336.083C980.5,-329.006 980.5,-318.861 980.5,-309.986"/>
<polygon fill="midnightblue" stroke="midnightblue" points="984,-309.751 980.5,-299.751 977,-309.751 984,-309.751"/>
</g>
<!-- Node39&#45;&gt;Node2 -->
<g id="edge50" class="edge"><title>Node39&#45;&gt;Node2</title>
<path fill="none" stroke="midnightblue" d="M978.887,-280.075C974.165,-253.945 960.297,-177.211 953.857,-141.577"/>
<polygon fill="midnightblue" stroke="midnightblue" points="957.271,-140.786 952.048,-131.568 950.383,-142.031 957.271,-140.786"/>
</g>
<!-- Node40 -->
<g id="node40" class="node"><title>Node40</title>
<g id="a_node40"><a xlink:href="vector_8h.html" target="_top" xlink:title="math/vector.h">
<polygon fill="white" stroke="black" points="1554,-224.5 1554,-243.5 1631,-243.5 1631,-224.5 1554,-224.5"/>
<text text-anchor="middle" x="1592.5" y="-231.5" font-family="Helvetica,sans-Serif" font-size="10.00">math/vector.h</text>
</a>
</g>
</g>
<!-- Node39&#45;&gt;Node40 -->
<g id="edge51" class="edge"><title>Node39&#45;&gt;Node40</title>
<path fill="none" stroke="midnightblue" d="M1031.1,-284.535C1146.77,-274.329 1429.3,-249.4 1543.45,-239.328"/>
<polygon fill="midnightblue" stroke="midnightblue" points="1543.99,-242.794 1553.64,-238.429 1543.37,-235.821 1543.99,-242.794"/>
</g>
<!-- Node40&#45;&gt;Node2 -->
<g id="edge52" class="edge"><title>Node40&#45;&gt;Node2</title>
<path fill="none" stroke="midnightblue" d="M1553.79,-226.367C1445.83,-207.87 1140.86,-155.617 1010.65,-133.306"/>
<polygon fill="midnightblue" stroke="midnightblue" points="1010.91,-129.799 1000.46,-131.56 1009.73,-136.699 1010.91,-129.799"/>
</g>
<!-- Node40&#45;&gt;Node12 -->
<g id="edge58" class="edge"><title>Node40&#45;&gt;Node12</title>
<path fill="none" stroke="midnightblue" d="M1592.5,-224.075C1592.5,-197.945 1592.5,-121.211 1592.5,-85.577"/>
<polygon fill="midnightblue" stroke="midnightblue" points="1596,-85.5681 1592.5,-75.5681 1589,-85.5681 1596,-85.5681"/>
</g>
<!-- Node40&#45;&gt;Node14 -->
<g id="edge56" class="edge"><title>Node40&#45;&gt;Node14</title>
<path fill="none" stroke="midnightblue" d="M1596.1,-224.075C1606.69,-197.832 1637.89,-120.545 1652.19,-85.1165"/>
<polygon fill="midnightblue" stroke="midnightblue" points="1655.54,-86.1513 1656.04,-75.5681 1649.05,-83.5313 1655.54,-86.1513"/>
</g>
<!-- Node40&#45;&gt;Node17 -->
<g id="edge57" class="edge"><title>Node40&#45;&gt;Node17</title>
<path fill="none" stroke="midnightblue" d="M1599.87,-224.075C1621.9,-197.38 1687.52,-117.865 1716.03,-83.3218"/>
<polygon fill="midnightblue" stroke="midnightblue" points="1718.76,-85.5086 1722.43,-75.5681 1713.36,-81.0529 1718.76,-85.5086"/>
</g>
<!-- Node40&#45;&gt;Node22 -->
<g id="edge59" class="edge"><title>Node40&#45;&gt;Node22</title>
<path fill="none" stroke="midnightblue" d="M1612.86,-224.401C1669.87,-199.191 1823.16,-123.02 1763.5,-56 1740.09,-29.6992 1498.17,-16.3686 1409.68,-12.3445"/>
<polygon fill="midnightblue" stroke="midnightblue" points="1409.83,-8.84744 1399.68,-11.8997 1409.51,-15.8405 1409.83,-8.84744"/>
</g>
<!-- Node41 -->
<g id="node41" class="node"><title>Node41</title>
<g id="a_node41"><a xlink:href="math_2constants_8h.html" target="_top" xlink:title="constants.h">
<polygon fill="white" stroke="black" points="1495.5,-168.5 1495.5,-187.5 1563.5,-187.5 1563.5,-168.5 1495.5,-168.5"/>
<text text-anchor="middle" x="1529.5" y="-175.5" font-family="Helvetica,sans-Serif" font-size="10.00">constants.h</text>
</a>
</g>
</g>
<!-- Node40&#45;&gt;Node41 -->
<g id="edge53" class="edge"><title>Node40&#45;&gt;Node41</title>
<path fill="none" stroke="midnightblue" d="M1582.38,-224.324C1572.97,-216.263 1558.76,-204.077 1547.43,-194.369"/>
<polygon fill="midnightblue" stroke="midnightblue" points="1549.68,-191.684 1539.81,-187.834 1545.12,-196.999 1549.68,-191.684"/>
</g>
<!-- Node41&#45;&gt;Node2 -->
<g id="edge54" class="edge"><title>Node41&#45;&gt;Node2</title>
<path fill="none" stroke="midnightblue" d="M1495.44,-173.824C1403.37,-165.237 1148.01,-141.42 1022.29,-129.696"/>
<polygon fill="midnightblue" stroke="midnightblue" points="1022.29,-126.18 1012.01,-128.736 1021.64,-133.15 1022.29,-126.18"/>
</g>
<!-- Node41&#45;&gt;Node5 -->
<g id="edge55" class="edge"><title>Node41&#45;&gt;Node5</title>
<path fill="none" stroke="midnightblue" d="M1529.5,-168.368C1529.5,-150.617 1529.5,-109.666 1529.5,-85.5974"/>
<polygon fill="midnightblue" stroke="midnightblue" points="1533,-85.5914 1529.5,-75.5914 1526,-85.5915 1533,-85.5914"/>
</g>
</g>
</svg>
