<?xml version="1.0" encoding="UTF-8" standalone="no"?>
<!DOCTYPE svg PUBLIC "-//W3C//DTD SVG 1.1//EN"
 "http://www.w3.org/Graphics/SVG/1.1/DTD/svg11.dtd">
<!-- Generated by graphviz version 2.38.0 (20140413.2041)
 -->
<!-- Title: json11.hpp Pages: 1 -->
<svg width="327pt" height="84pt"
 viewBox="0.00 0.00 327.00 84.00" xmlns="http://www.w3.org/2000/svg" xmlns:xlink="http://www.w3.org/1999/xlink">
<g id="graph0" class="graph" transform="scale(1 1) rotate(0) translate(4 80)">
<title>json11.hpp</title>
<polygon fill="white" stroke="none" points="-4,4 -4,-80 323,-80 323,4 -4,4"/>
<!-- Node1 -->
<g id="node1" class="node"><title>Node1</title>
<polygon fill="#bfbfbf" stroke="black" points="107.5,-56.5 107.5,-75.5 171.5,-75.5 171.5,-56.5 107.5,-56.5"/>
<text text-anchor="middle" x="139.5" y="-63.5" font-family="Helvetica,sans-Serif" font-size="10.00">json11.hpp</text>
</g>
<!-- Node2 -->
<g id="node2" class="node"><title>Node2</title>
<polygon fill="white" stroke="#bfbfbf" points="0,-0.5 0,-19.5 41,-19.5 41,-0.5 0,-0.5"/>
<text text-anchor="middle" x="20.5" y="-7.5" font-family="Helvetica,sans-Serif" font-size="10.00">string</text>
</g>
<!-- Node1&#45;&gt;Node2 -->
<g id="edge1" class="edge"><title>Node1&#45;&gt;Node2</title>
<path fill="none" stroke="midnightblue" d="M120.644,-56.4435C101.234,-47.6356 70.7699,-33.8116 48.5355,-23.722"/>
<polygon fill="midnightblue" stroke="midnightblue" points="49.8203,-20.4615 39.2677,-19.5164 46.9277,-26.836 49.8203,-20.4615"/>
</g>
<!-- Node3 -->
<g id="node3" class="node"><title>Node3</title>
<polygon fill="white" stroke="#bfbfbf" points="59.5,-0.5 59.5,-19.5 103.5,-19.5 103.5,-0.5 59.5,-0.5"/>
<text text-anchor="middle" x="81.5" y="-7.5" font-family="Helvetica,sans-Serif" font-size="10.00">vector</text>
</g>
<!-- Node1&#45;&gt;Node3 -->
<g id="edge2" class="edge"><title>Node1&#45;&gt;Node3</title>
<path fill="none" stroke="midnightblue" d="M130.181,-56.324C121.607,-48.3414 108.688,-36.3128 98.3124,-26.6529"/>
<polygon fill="midnightblue" stroke="midnightblue" points="100.692,-24.0865 90.9883,-19.8339 95.9223,-29.2098 100.692,-24.0865"/>
</g>
<!-- Node4 -->
<g id="node4" class="node"><title>Node4</title>
<polygon fill="white" stroke="#bfbfbf" points="122,-0.5 122,-19.5 157,-19.5 157,-0.5 122,-0.5"/>
<text text-anchor="middle" x="139.5" y="-7.5" font-family="Helvetica,sans-Serif" font-size="10.00">map</text>
</g>
<!-- Node1&#45;&gt;Node4 -->
<g id="edge3" class="edge"><title>Node1&#45;&gt;Node4</title>
<path fill="none" stroke="midnightblue" d="M139.5,-56.083C139.5,-49.0059 139.5,-38.8611 139.5,-29.9865"/>
<polygon fill="midnightblue" stroke="midnightblue" points="143,-29.751 139.5,-19.7511 136,-29.7511 143,-29.751"/>
</g>
<!-- Node5 -->
<g id="node5" class="node"><title>Node5</title>
<polygon fill="white" stroke="#bfbfbf" points="175.5,-0.5 175.5,-19.5 227.5,-19.5 227.5,-0.5 175.5,-0.5"/>
<text text-anchor="middle" x="201.5" y="-7.5" font-family="Helvetica,sans-Serif" font-size="10.00">memory</text>
</g>
<!-- Node1&#45;&gt;Node5 -->
<g id="edge4" class="edge"><title>Node1&#45;&gt;Node5</title>
<path fill="none" stroke="midnightblue" d="M149.461,-56.324C158.627,-48.3414 172.437,-36.3128 183.528,-26.6529"/>
<polygon fill="midnightblue" stroke="midnightblue" points="186.115,-29.041 191.357,-19.8339 181.518,-23.7624 186.115,-29.041"/>
</g>
<!-- Node6 -->
<g id="node6" class="node"><title>Node6</title>
<polygon fill="white" stroke="#bfbfbf" points="246,-0.5 246,-19.5 319,-19.5 319,-0.5 246,-0.5"/>
<text text-anchor="middle" x="282.5" y="-7.5" font-family="Helvetica,sans-Serif" font-size="10.00">initializer_list</text>
</g>
<!-- Node1&#45;&gt;Node6 -->
<g id="edge5" class="edge"><title>Node1&#45;&gt;Node6</title>
<path fill="none" stroke="midnightblue" d="M162.159,-56.4435C185.902,-47.4776 223.409,-33.314 250.238,-23.1827"/>
<polygon fill="midnightblue" stroke="midnightblue" points="251.829,-26.3235 259.947,-19.5164 249.356,-19.7749 251.829,-26.3235"/>
</g>
</g>
</svg>
