<?xml version="1.0" encoding="UTF-8" standalone="no"?>
<!DOCTYPE svg PUBLIC "-//W3C//DTD SVG 1.1//EN"
 "http://www.w3.org/Graphics/SVG/1.1/DTD/svg11.dtd">
<!-- Generated by graphviz version 2.38.0 (20140413.2041)
 -->
<!-- Title: kisslib.cpp Pages: 1 -->
<!--zoomable 364 -->
<svg id="main" version="1.1" xmlns="http://www.w3.org/2000/svg" xmlns:xlink="http://www.w3.org/1999/xlink" xml:space="preserve" onload="init(evt)">
<style type="text/css"><![CDATA[
.edge:hover path { stroke: red; }
.edge:hover polygon { stroke: red; fill: red; }
]]></style>
<script type="text/javascript"><![CDATA[
var edges = document.getElementsByTagName('g');
if (edges && edges.length) {
  for (var i=0;i<edges.length;i++) {
    if (edges[i].id.substr(0,4)=='edge') {
      edges[i].setAttribute('class','edge');
    }
  }
}
]]></script>
        <defs>
                <circle id="rim" cx="0" cy="0" r="7"/>
                <circle id="rim2" cx="0" cy="0" r="3.5"/>
                <g id="zoomPlus">
                        <use xlink:href="#rim" fill="#404040">
                                <set attributeName="fill" to="#808080" begin="zoomplus.mouseover" end="zoomplus.mouseout"/>
                        </use>
                        <path d="M-4,0h8M0,-4v8" fill="none" stroke="white" stroke-width="1.5" pointer-events="none"/>
                </g>
                <g id="zoomMin">
                        <use xlink:href="#rim" fill="#404040">
                                <set attributeName="fill" to="#808080" begin="zoomminus.mouseover" end="zoomminus.mouseout"/>
                        </use>
                        <path d="M-4,0h8" fill="none" stroke="white" stroke-width="1.5" pointer-events="none"/>
                </g>
                <g id="dirArrow">
                        <path fill="none" stroke="white" stroke-width="1.5" d="M0,-3.0v7 M-2.5,-0.5L0,-3.0L2.5,-0.5"/>
                </g>
               <g id="resetDef">
                       <use xlink:href="#rim2" fill="#404040">
                               <set attributeName="fill" to="#808080" begin="reset.mouseover" end="reset.mouseout"/>
                       </use>
               </g>
        </defs>

<script type="text/javascript">
var viewWidth = 1765;
var viewHeight = 364;
var sectionId = 'dynsection-0';
</script>
<script xlink:href="svgpan.js"/>
<svg id="graph" class="graph">
<g id="viewport">
<title>kisslib.cpp</title>
<polygon fill="white" stroke="none" points="-4,4 -4,-360 1761,-360 1761,4 -4,4"/>
<!-- Node1 -->
<g id="node1" class="node"><title>Node1</title>
<polygon fill="#bfbfbf" stroke="black" points="899.5,-336.5 899.5,-355.5 962.5,-355.5 962.5,-336.5 899.5,-336.5"/>
<text text-anchor="middle" x="931" y="-343.5" font-family="Helvetica,sans-Serif" font-size="10.00">kisslib.cpp</text>
</g>
<!-- Node2 -->
<g id="node2" class="node"><title>Node2</title>
<g id="a_node2"><a xlink:href="config_cosmos_8h.html" target="_top" xlink:title="Headers and definitions common to all COSMOS. ">
<polygon fill="white" stroke="black" points="914.5,-112.5 914.5,-131.5 1037.5,-131.5 1037.5,-112.5 914.5,-112.5"/>
<text text-anchor="middle" x="976" y="-119.5" font-family="Helvetica,sans-Serif" font-size="10.00">support/configCosmos.h</text>
</a>
</g>
</g>
<!-- Node1&#45;&gt;Node2 -->
<g id="edge1" class="edge"><title>Node1&#45;&gt;Node2</title>
<path fill="none" stroke="midnightblue" d="M932.764,-336.297C939.385,-303.633 962.851,-187.866 972.157,-141.957"/>
<polygon fill="midnightblue" stroke="midnightblue" points="975.643,-142.38 974.199,-131.884 968.782,-140.989 975.643,-142.38"/>
</g>
<!-- Node35 -->
<g id="node35" class="node"><title>Node35</title>
<g id="a_node35"><a xlink:href="kisslib_8h.html" target="_top" xlink:title="device/general/kisslib.h">
<polygon fill="white" stroke="black" points="957.5,-280.5 957.5,-299.5 1076.5,-299.5 1076.5,-280.5 957.5,-280.5"/>
<text text-anchor="middle" x="1017" y="-287.5" font-family="Helvetica,sans-Serif" font-size="10.00">device/general/kisslib.h</text>
</a>
</g>
</g>
<!-- Node1&#45;&gt;Node35 -->
<g id="edge43" class="edge"><title>Node1&#45;&gt;Node35</title>
<path fill="none" stroke="midnightblue" d="M944.817,-336.324C958.233,-327.9 978.824,-314.971 994.586,-305.074"/>
<polygon fill="midnightblue" stroke="midnightblue" points="996.609,-307.936 1003.22,-299.655 992.887,-302.008 996.609,-307.936"/>
</g>
<!-- Node3 -->
<g id="node3" class="node"><title>Node3</title>
<polygon fill="white" stroke="#bfbfbf" points="1647.5,-56.5 1647.5,-75.5 1692.5,-75.5 1692.5,-56.5 1647.5,-56.5"/>
<text text-anchor="middle" x="1670" y="-63.5" font-family="Helvetica,sans-Serif" font-size="10.00">climits</text>
</g>
<!-- Node2&#45;&gt;Node3 -->
<g id="edge2" class="edge"><title>Node2&#45;&gt;Node3</title>
<path fill="none" stroke="midnightblue" d="M1037.77,-113.392C1042.58,-112.889 1047.37,-112.417 1052,-112 1309.67,-88.7784 1377.2,-114.725 1633,-76 1634.47,-75.7774 1635.97,-75.5243 1637.48,-75.248"/>
<polygon fill="midnightblue" stroke="midnightblue" points="1638.36,-78.6393 1647.43,-73.1605 1636.92,-71.7884 1638.36,-78.6393"/>
</g>
<!-- Node4 -->
<g id="node4" class="node"><title>Node4</title>
<polygon fill="white" stroke="#bfbfbf" points="72.5,-56.5 72.5,-75.5 119.5,-75.5 119.5,-56.5 72.5,-56.5"/>
<text text-anchor="middle" x="96" y="-63.5" font-family="Helvetica,sans-Serif" font-size="10.00">csignal</text>
</g>
<!-- Node2&#45;&gt;Node4 -->
<g id="edge3" class="edge"><title>Node2&#45;&gt;Node4</title>
<path fill="none" stroke="midnightblue" d="M914.235,-113.313C909.423,-112.828 904.635,-112.382 900,-112 561.459,-84.0868 469.637,-128.567 129.785,-75.7125"/>
<polygon fill="midnightblue" stroke="midnightblue" points="130.08,-72.2159 119.658,-74.1202 128.993,-79.131 130.08,-72.2159"/>
</g>
<!-- Node5 -->
<g id="node5" class="node"><title>Node5</title>
<polygon fill="white" stroke="#bfbfbf" points="138,-56.5 138,-75.5 184,-75.5 184,-56.5 138,-56.5"/>
<text text-anchor="middle" x="161" y="-63.5" font-family="Helvetica,sans-Serif" font-size="10.00">cstdint</text>
</g>
<!-- Node2&#45;&gt;Node5 -->
<g id="edge4" class="edge"><title>Node2&#45;&gt;Node5</title>
<path fill="none" stroke="midnightblue" d="M914.233,-113.335C909.421,-112.845 904.634,-112.392 900,-112 589.858,-85.7699 505.293,-126.027 194.489,-75.8635"/>
<polygon fill="midnightblue" stroke="midnightblue" points="194.717,-72.3544 184.283,-74.1972 193.588,-79.2629 194.717,-72.3544"/>
</g>
<!-- Node6 -->
<g id="node6" class="node"><title>Node6</title>
<polygon fill="white" stroke="#bfbfbf" points="202,-56.5 202,-75.5 258,-75.5 258,-56.5 202,-56.5"/>
<text text-anchor="middle" x="230" y="-63.5" font-family="Helvetica,sans-Serif" font-size="10.00">cinttypes</text>
</g>
<!-- Node2&#45;&gt;Node6 -->
<g id="edge5" class="edge"><title>Node2&#45;&gt;Node6</title>
<path fill="none" stroke="midnightblue" d="M914.231,-113.366C909.419,-112.869 904.633,-112.406 900,-112 622.576,-87.7076 547.472,-116.775 268.199,-75.8969"/>
<polygon fill="midnightblue" stroke="midnightblue" points="268.582,-72.4156 258.177,-74.413 267.557,-79.3401 268.582,-72.4156"/>
</g>
<!-- Node7 -->
<g id="node7" class="node"><title>Node7</title>
<polygon fill="white" stroke="#bfbfbf" points="276.5,-56.5 276.5,-75.5 319.5,-75.5 319.5,-56.5 276.5,-56.5"/>
<text text-anchor="middle" x="298" y="-63.5" font-family="Helvetica,sans-Serif" font-size="10.00">cstdio</text>
</g>
<!-- Node2&#45;&gt;Node7 -->
<g id="edge6" class="edge"><title>Node2&#45;&gt;Node7</title>
<path fill="none" stroke="midnightblue" d="M914.228,-113.397C909.417,-112.893 904.631,-112.42 900,-112 649.659,-89.3166 580.553,-120.059 329.957,-75.9804"/>
<polygon fill="midnightblue" stroke="midnightblue" points="330.274,-72.4819 319.815,-74.1734 329.046,-79.3733 330.274,-72.4819"/>
</g>
<!-- Node8 -->
<g id="node8" class="node"><title>Node8</title>
<polygon fill="white" stroke="#bfbfbf" points="337.5,-56.5 337.5,-75.5 386.5,-75.5 386.5,-56.5 337.5,-56.5"/>
<text text-anchor="middle" x="362" y="-63.5" font-family="Helvetica,sans-Serif" font-size="10.00">cstddef</text>
</g>
<!-- Node2&#45;&gt;Node8 -->
<g id="edge7" class="edge"><title>Node2&#45;&gt;Node8</title>
<path fill="none" stroke="midnightblue" d="M914.224,-113.44C909.414,-112.926 904.63,-112.439 900,-112 679.272,-91.0745 618.588,-113.117 396.752,-76.0016"/>
<polygon fill="midnightblue" stroke="midnightblue" points="397.194,-72.5268 386.75,-74.3067 396.025,-79.4284 397.194,-72.5268"/>
</g>
<!-- Node9 -->
<g id="node9" class="node"><title>Node9</title>
<polygon fill="white" stroke="#bfbfbf" points="404.5,-56.5 404.5,-75.5 449.5,-75.5 449.5,-56.5 404.5,-56.5"/>
<text text-anchor="middle" x="427" y="-63.5" font-family="Helvetica,sans-Serif" font-size="10.00">cstdlib</text>
</g>
<!-- Node2&#45;&gt;Node9 -->
<g id="edge8" class="edge"><title>Node2&#45;&gt;Node9</title>
<path fill="none" stroke="midnightblue" d="M914.219,-113.493C909.41,-112.967 904.627,-112.463 900,-112 707.572,-92.7585 654.31,-110.184 459.584,-75.7278"/>
<polygon fill="midnightblue" stroke="midnightblue" points="460.061,-72.2575 449.6,-73.938 458.825,-79.1477 460.061,-72.2575"/>
</g>
<!-- Node10 -->
<g id="node10" class="node"><title>Node10</title>
<polygon fill="white" stroke="#bfbfbf" points="468,-56.5 468,-75.5 512,-75.5 512,-56.5 468,-56.5"/>
<text text-anchor="middle" x="490" y="-63.5" font-family="Helvetica,sans-Serif" font-size="10.00">cerrno</text>
</g>
<!-- Node2&#45;&gt;Node10 -->
<g id="edge9" class="edge"><title>Node2&#45;&gt;Node10</title>
<path fill="none" stroke="midnightblue" d="M914.212,-113.562C909.404,-113.02 904.624,-112.493 900,-112 735.038,-94.4003 688.989,-107.205 522.334,-75.9187"/>
<polygon fill="midnightblue" stroke="midnightblue" points="522.707,-72.4269 512.229,-73.9959 521.399,-79.3035 522.707,-72.4269"/>
</g>
<!-- Node11 -->
<g id="node11" class="node"><title>Node11</title>
<polygon fill="white" stroke="#bfbfbf" points="1711,-56.5 1711,-75.5 1757,-75.5 1757,-56.5 1711,-56.5"/>
<text text-anchor="middle" x="1734" y="-63.5" font-family="Helvetica,sans-Serif" font-size="10.00">cstring</text>
</g>
<!-- Node2&#45;&gt;Node11 -->
<g id="edge10" class="edge"><title>Node2&#45;&gt;Node11</title>
<path fill="none" stroke="midnightblue" d="M1037.77,-113.358C1042.58,-112.863 1047.37,-112.402 1052,-112 1336.87,-87.2684 1414.77,-122.605 1700.46,-75.8818"/>
<polygon fill="midnightblue" stroke="midnightblue" points="1701.42,-79.271 1710.71,-74.1848 1700.28,-72.365 1701.42,-79.271"/>
</g>
<!-- Node12 -->
<g id="node12" class="node"><title>Node12</title>
<polygon fill="white" stroke="#bfbfbf" points="530,-56.5 530,-75.5 574,-75.5 574,-56.5 530,-56.5"/>
<text text-anchor="middle" x="552" y="-63.5" font-family="Helvetica,sans-Serif" font-size="10.00">cmath</text>
</g>
<!-- Node2&#45;&gt;Node12 -->
<g id="edge11" class="edge"><title>Node2&#45;&gt;Node12</title>
<path fill="none" stroke="midnightblue" d="M914.201,-113.658C909.396,-113.095 904.619,-112.537 900,-112 762.745,-96.0548 724.416,-102.897 584.105,-75.687"/>
<polygon fill="midnightblue" stroke="midnightblue" points="584.756,-72.2481 574.269,-73.7567 583.408,-79.117 584.756,-72.2481"/>
</g>
<!-- Node13 -->
<g id="node13" class="node"><title>Node13</title>
<polygon fill="white" stroke="#bfbfbf" points="592.5,-56.5 592.5,-75.5 637.5,-75.5 637.5,-56.5 592.5,-56.5"/>
<text text-anchor="middle" x="615" y="-63.5" font-family="Helvetica,sans-Serif" font-size="10.00">iosfwd</text>
</g>
<!-- Node2&#45;&gt;Node13 -->
<g id="edge12" class="edge"><title>Node2&#45;&gt;Node13</title>
<path fill="none" stroke="midnightblue" d="M914.245,-113.589C837.803,-104.246 710.949,-88.1436 647.6,-75.806"/>
<polygon fill="midnightblue" stroke="midnightblue" points="648.127,-72.3416 637.63,-73.7823 646.734,-79.2017 648.127,-72.3416"/>
</g>
<!-- Node14 -->
<g id="node14" class="node"><title>Node14</title>
<polygon fill="white" stroke="#bfbfbf" points="0,-56.5 0,-75.5 54,-75.5 54,-56.5 0,-56.5"/>
<text text-anchor="middle" x="27" y="-63.5" font-family="Helvetica,sans-Serif" font-size="10.00">iostream</text>
</g>
<!-- Node2&#45;&gt;Node14 -->
<g id="edge13" class="edge"><title>Node2&#45;&gt;Node14</title>
<path fill="none" stroke="midnightblue" d="M914.237,-113.294C909.424,-112.813 904.635,-112.374 900,-112 532.212,-82.3556 433.273,-128.577 64.1715,-75.8412"/>
<polygon fill="midnightblue" stroke="midnightblue" points="64.4076,-72.3391 54.0101,-74.3743 63.4074,-79.2673 64.4076,-72.3391"/>
</g>
<!-- Node15 -->
<g id="node15" class="node"><title>Node15</title>
<polygon fill="white" stroke="#bfbfbf" points="656,-56.5 656,-75.5 708,-75.5 708,-56.5 656,-56.5"/>
<text text-anchor="middle" x="682" y="-63.5" font-family="Helvetica,sans-Serif" font-size="10.00">sstream</text>
</g>
<!-- Node2&#45;&gt;Node15 -->
<g id="edge14" class="edge"><title>Node2&#45;&gt;Node15</title>
<path fill="none" stroke="midnightblue" d="M920.417,-112.496C870.267,-104.555 794.266,-91.8549 718.497,-75.9662"/>
<polygon fill="midnightblue" stroke="midnightblue" points="718.803,-72.4535 708.295,-73.8069 717.354,-79.3018 718.803,-72.4535"/>
</g>
<!-- Node16 -->
<g id="node16" class="node"><title>Node16</title>
<polygon fill="white" stroke="#bfbfbf" points="726.5,-56.5 726.5,-75.5 767.5,-75.5 767.5,-56.5 726.5,-56.5"/>
<text text-anchor="middle" x="747" y="-63.5" font-family="Helvetica,sans-Serif" font-size="10.00">regex</text>
</g>
<!-- Node2&#45;&gt;Node16 -->
<g id="edge15" class="edge"><title>Node2&#45;&gt;Node16</title>
<path fill="none" stroke="midnightblue" d="M934.252,-112.437C895.976,-104.39 837.527,-91.6133 777.619,-76.016"/>
<polygon fill="midnightblue" stroke="midnightblue" points="778.165,-72.5406 767.604,-73.3852 776.387,-79.311 778.165,-72.5406"/>
</g>
<!-- Node17 -->
<g id="node17" class="node"><title>Node17</title>
<polygon fill="white" stroke="#bfbfbf" points="786,-56.5 786,-75.5 836,-75.5 836,-56.5 786,-56.5"/>
<text text-anchor="middle" x="811" y="-63.5" font-family="Helvetica,sans-Serif" font-size="10.00">iomanip</text>
</g>
<!-- Node2&#45;&gt;Node17 -->
<g id="edge16" class="edge"><title>Node2&#45;&gt;Node17</title>
<path fill="none" stroke="midnightblue" d="M949.855,-112.444C921.731,-103.239 876.868,-88.5568 845.781,-78.3829"/>
<polygon fill="midnightblue" stroke="midnightblue" points="846.803,-75.0349 836.211,-75.2508 844.626,-81.6876 846.803,-75.0349"/>
</g>
<!-- Node18 -->
<g id="node18" class="node"><title>Node18</title>
<polygon fill="white" stroke="#bfbfbf" points="854.5,-56.5 854.5,-75.5 905.5,-75.5 905.5,-56.5 854.5,-56.5"/>
<text text-anchor="middle" x="880" y="-63.5" font-family="Helvetica,sans-Serif" font-size="10.00">unistd.h</text>
</g>
<!-- Node2&#45;&gt;Node18 -->
<g id="edge17" class="edge"><title>Node2&#45;&gt;Node18</title>
<path fill="none" stroke="midnightblue" d="M960.576,-112.324C945.46,-103.822 922.185,-90.7288 904.529,-80.7975"/>
<polygon fill="midnightblue" stroke="midnightblue" points="905.817,-77.5066 895.386,-75.6545 902.386,-83.6077 905.817,-77.5066"/>
</g>
<!-- Node19 -->
<g id="node19" class="node"><title>Node19</title>
<polygon fill="white" stroke="#bfbfbf" points="924,-56.5 924,-75.5 968,-75.5 968,-56.5 924,-56.5"/>
<text text-anchor="middle" x="946" y="-63.5" font-family="Helvetica,sans-Serif" font-size="10.00">fcntl.h</text>
</g>
<!-- Node2&#45;&gt;Node19 -->
<g id="edge18" class="edge"><title>Node2&#45;&gt;Node19</title>
<path fill="none" stroke="midnightblue" d="M971.046,-112.083C966.896,-104.613 960.847,-93.7244 955.733,-84.5199"/>
<polygon fill="midnightblue" stroke="midnightblue" points="958.778,-82.7929 950.862,-75.7511 952.659,-86.1924 958.778,-82.7929"/>
</g>
<!-- Node20 -->
<g id="node20" class="node"><title>Node20</title>
<polygon fill="white" stroke="#bfbfbf" points="986,-56.5 986,-75.5 1026,-75.5 1026,-56.5 986,-56.5"/>
<text text-anchor="middle" x="1006" y="-63.5" font-family="Helvetica,sans-Serif" font-size="10.00">limits</text>
</g>
<!-- Node2&#45;&gt;Node20 -->
<g id="edge19" class="edge"><title>Node2&#45;&gt;Node20</title>
<path fill="none" stroke="midnightblue" d="M980.954,-112.083C985.104,-104.613 991.153,-93.7244 996.267,-84.5199"/>
<polygon fill="midnightblue" stroke="midnightblue" points="999.341,-86.1924 1001.14,-75.7511 993.222,-82.7929 999.341,-86.1924"/>
</g>
<!-- Node21 -->
<g id="node21" class="node"><title>Node21</title>
<polygon fill="white" stroke="#bfbfbf" points="1696.5,-0.5 1696.5,-19.5 1737.5,-19.5 1737.5,-0.5 1696.5,-0.5"/>
<text text-anchor="middle" x="1717" y="-7.5" font-family="Helvetica,sans-Serif" font-size="10.00">string</text>
</g>
<!-- Node2&#45;&gt;Node21 -->
<g id="edge20" class="edge"><title>Node2&#45;&gt;Node21</title>
<path fill="none" stroke="midnightblue" d="M1037.77,-113.411C1042.58,-112.904 1047.37,-112.426 1052,-112 1173.53,-100.82 1482.93,-110.47 1600,-76 1609.9,-73.0855 1662.39,-42.9228 1693.6,-24.7273"/>
<polygon fill="midnightblue" stroke="midnightblue" points="1695.66,-27.5749 1702.53,-19.508 1692.13,-21.531 1695.66,-27.5749"/>
</g>
<!-- Node22 -->
<g id="node22" class="node"><title>Node22</title>
<polygon fill="white" stroke="#bfbfbf" points="1419,-0.5 1419,-19.5 1463,-19.5 1463,-0.5 1419,-0.5"/>
<text text-anchor="middle" x="1441" y="-7.5" font-family="Helvetica,sans-Serif" font-size="10.00">vector</text>
</g>
<!-- Node2&#45;&gt;Node22 -->
<g id="edge21" class="edge"><title>Node2&#45;&gt;Node22</title>
<path fill="none" stroke="midnightblue" d="M1037.79,-113.576C1042.6,-113.031 1047.38,-112.5 1052,-112 1133.69,-103.168 1356,-127.533 1420,-76 1433.69,-64.9761 1438.57,-44.9283 1440.25,-30.0013"/>
<polygon fill="midnightblue" stroke="midnightblue" points="1443.75,-30.0503 1441,-19.819 1436.77,-29.533 1443.75,-30.0503"/>
</g>
<!-- Node23 -->
<g id="node23" class="node"><title>Node23</title>
<polygon fill="white" stroke="#bfbfbf" points="1120.5,-56.5 1120.5,-75.5 1161.5,-75.5 1161.5,-56.5 1120.5,-56.5"/>
<text text-anchor="middle" x="1141" y="-63.5" font-family="Helvetica,sans-Serif" font-size="10.00">stack</text>
</g>
<!-- Node2&#45;&gt;Node23 -->
<g id="edge22" class="edge"><title>Node2&#45;&gt;Node23</title>
<path fill="none" stroke="midnightblue" d="M1002.14,-112.444C1031.54,-102.825 1079.21,-87.2238 1110.33,-77.0372"/>
<polygon fill="midnightblue" stroke="midnightblue" points="1111.79,-80.2435 1120.2,-73.8067 1109.61,-73.5907 1111.79,-80.2435"/>
</g>
<!-- Node24 -->
<g id="node24" class="node"><title>Node24</title>
<polygon fill="white" stroke="#bfbfbf" points="1179.5,-56.5 1179.5,-75.5 1222.5,-75.5 1222.5,-56.5 1179.5,-56.5"/>
<text text-anchor="middle" x="1201" y="-63.5" font-family="Helvetica,sans-Serif" font-size="10.00">deque</text>
</g>
<!-- Node2&#45;&gt;Node24 -->
<g id="edge23" class="edge"><title>Node2&#45;&gt;Node24</title>
<path fill="none" stroke="midnightblue" d="M1016.52,-112.449C1054.01,-104.361 1111.48,-91.5117 1169.69,-76.2308"/>
<polygon fill="midnightblue" stroke="midnightblue" points="1170.65,-79.5988 1179.42,-73.6566 1168.85,-72.8318 1170.65,-79.5988"/>
</g>
<!-- Node25 -->
<g id="node25" class="node"><title>Node25</title>
<polygon fill="white" stroke="#bfbfbf" points="1042,-0.5 1042,-19.5 1086,-19.5 1086,-0.5 1042,-0.5"/>
<text text-anchor="middle" x="1064" y="-7.5" font-family="Helvetica,sans-Serif" font-size="10.00">mutex</text>
</g>
<!-- Node2&#45;&gt;Node25 -->
<g id="edge24" class="edge"><title>Node2&#45;&gt;Node25</title>
<path fill="none" stroke="midnightblue" d="M991.284,-112.357C1004.33,-104.34 1022.85,-91.3551 1035,-76 1046.01,-62.0843 1053.8,-43.3263 1058.51,-29.538"/>
<polygon fill="midnightblue" stroke="midnightblue" points="1061.93,-30.3235 1061.63,-19.7329 1055.26,-28.199 1061.93,-30.3235"/>
</g>
<!-- Node26 -->
<g id="node26" class="node"><title>Node26</title>
<polygon fill="white" stroke="#bfbfbf" points="1124,-0.5 1124,-19.5 1168,-19.5 1168,-0.5 1124,-0.5"/>
<text text-anchor="middle" x="1146" y="-7.5" font-family="Helvetica,sans-Serif" font-size="10.00">thread</text>
</g>
<!-- Node2&#45;&gt;Node26 -->
<g id="edge25" class="edge"><title>Node2&#45;&gt;Node26</title>
<path fill="none" stroke="midnightblue" d="M992.325,-112.338C1008.5,-103.606 1033.86,-89.5224 1055,-76 1080.44,-59.7285 1108.56,-39.2333 1126.71,-25.6543"/>
<polygon fill="midnightblue" stroke="midnightblue" points="1128.88,-28.4024 1134.77,-19.5927 1124.67,-22.8093 1128.88,-28.4024"/>
</g>
<!-- Node27 -->
<g id="node27" class="node"><title>Node27</title>
<polygon fill="white" stroke="#bfbfbf" points="1197.5,-0.5 1197.5,-19.5 1292.5,-19.5 1292.5,-0.5 1197.5,-0.5"/>
<text text-anchor="middle" x="1245" y="-7.5" font-family="Helvetica,sans-Serif" font-size="10.00">condition_variable</text>
</g>
<!-- Node2&#45;&gt;Node27 -->
<g id="edge26" class="edge"><title>Node2&#45;&gt;Node27</title>
<path fill="none" stroke="midnightblue" d="M1034.23,-112.455C1107.57,-101.446 1224.93,-82.9078 1232,-76 1244.08,-64.1974 1246.58,-44.5638 1246.52,-29.9574"/>
<polygon fill="midnightblue" stroke="midnightblue" points="1250,-29.3991 1246.05,-19.5669 1243,-29.7144 1250,-29.3991"/>
</g>
<!-- Node28 -->
<g id="node28" class="node"><title>Node28</title>
<polygon fill="white" stroke="#bfbfbf" points="1357.5,-0.5 1357.5,-19.5 1400.5,-19.5 1400.5,-0.5 1357.5,-0.5"/>
<text text-anchor="middle" x="1379" y="-7.5" font-family="Helvetica,sans-Serif" font-size="10.00">queue</text>
</g>
<!-- Node2&#45;&gt;Node28 -->
<g id="edge27" class="edge"><title>Node2&#45;&gt;Node28</title>
<path fill="none" stroke="midnightblue" d="M1037.79,-113.599C1042.6,-113.049 1047.38,-112.51 1052,-112 1091.08,-107.688 1377.65,-105.18 1404,-76 1416.35,-62.3263 1405.14,-41.9019 1394.04,-27.6074"/>
<polygon fill="midnightblue" stroke="midnightblue" points="1396.46,-25.0409 1387.36,-19.6144 1391.09,-29.5311 1396.46,-25.0409"/>
</g>
<!-- Node29 -->
<g id="node29" class="node"><title>Node29</title>
<polygon fill="white" stroke="#bfbfbf" points="1481.5,-0.5 1481.5,-19.5 1516.5,-19.5 1516.5,-0.5 1481.5,-0.5"/>
<text text-anchor="middle" x="1499" y="-7.5" font-family="Helvetica,sans-Serif" font-size="10.00">map</text>
</g>
<!-- Node2&#45;&gt;Node29 -->
<g id="edge28" class="edge"><title>Node2&#45;&gt;Node29</title>
<path fill="none" stroke="midnightblue" d="M1037.79,-113.55C1042.59,-113.011 1047.38,-112.488 1052,-112 1138.11,-102.908 1362.53,-114.686 1440,-76 1461.23,-65.3998 1478.46,-43.6524 1488.7,-28.2367"/>
<polygon fill="midnightblue" stroke="midnightblue" points="1491.77,-29.9363 1494.15,-19.6127 1485.85,-26.1975 1491.77,-29.9363"/>
</g>
<!-- Node30 -->
<g id="node30" class="node"><title>Node30</title>
<g id="a_node30"><a xlink:href="cosmos-defs_8h.html" target="_top" xlink:title="COSMOS definitions Definitions specific to the COSMOS environement. ">
<polygon fill="white" stroke="black" points="1279,-56.5 1279,-75.5 1395,-75.5 1395,-56.5 1279,-56.5"/>
<text text-anchor="middle" x="1337" y="-63.5" font-family="Helvetica,sans-Serif" font-size="10.00">support/cosmos&#45;defs.h</text>
</a>
</g>
</g>
<!-- Node2&#45;&gt;Node30 -->
<g id="edge29" class="edge"><title>Node2&#45;&gt;Node30</title>
<path fill="none" stroke="midnightblue" d="M1033.2,-112.444C1097.5,-102.826 1201.78,-87.2275 1269.87,-77.0409"/>
<polygon fill="midnightblue" stroke="midnightblue" points="1270.69,-80.4574 1280.07,-75.5164 1269.66,-73.5344 1270.69,-80.4574"/>
</g>
<!-- Node32 -->
<g id="node32" class="node"><title>Node32</title>
<g id="a_node32"><a xlink:href="json11_8hpp.html" target="_top" xlink:title="json11.hpp">
<polygon fill="white" stroke="black" points="1527,-56.5 1527,-75.5 1591,-75.5 1591,-56.5 1527,-56.5"/>
<text text-anchor="middle" x="1559" y="-63.5" font-family="Helvetica,sans-Serif" font-size="10.00">json11.hpp</text>
</a>
</g>
</g>
<!-- Node2&#45;&gt;Node32 -->
<g id="edge37" class="edge"><title>Node2&#45;&gt;Node32</title>
<path fill="none" stroke="midnightblue" d="M1037.78,-113.475C1042.59,-112.953 1047.37,-112.455 1052,-112 1256.53,-91.9119 1309.37,-103.777 1513,-76 1514.27,-75.8268 1515.56,-75.6408 1516.86,-75.4443"/>
<polygon fill="midnightblue" stroke="midnightblue" points="1517.62,-78.8654 1526.91,-73.7687 1516.47,-71.9607 1517.62,-78.8654"/>
</g>
<!-- Node30&#45;&gt;Node22 -->
<g id="edge31" class="edge"><title>Node30&#45;&gt;Node22</title>
<path fill="none" stroke="midnightblue" d="M1353.71,-56.324C1370.31,-47.7034 1396,-34.3643 1415.22,-24.3855"/>
<polygon fill="midnightblue" stroke="midnightblue" points="1417.07,-27.3689 1424.33,-19.6545 1413.84,-21.1565 1417.07,-27.3689"/>
</g>
<!-- Node30&#45;&gt;Node25 -->
<g id="edge35" class="edge"><title>Node30&#45;&gt;Node25</title>
<path fill="none" stroke="midnightblue" d="M1293.74,-56.4435C1238.83,-45.5826 1145.37,-27.0949 1096.29,-17.3864"/>
<polygon fill="midnightblue" stroke="midnightblue" points="1096.72,-13.9046 1086.23,-15.3976 1095.36,-20.7716 1096.72,-13.9046"/>
</g>
<!-- Node30&#45;&gt;Node26 -->
<g id="edge34" class="edge"><title>Node30&#45;&gt;Node26</title>
<path fill="none" stroke="midnightblue" d="M1306.74,-56.4435C1271.6,-46.5098 1213.9,-30.1958 1178.03,-20.0544"/>
<polygon fill="midnightblue" stroke="midnightblue" points="1178.66,-16.5964 1168.08,-17.2437 1176.75,-23.3324 1178.66,-16.5964"/>
</g>
<!-- Node30&#45;&gt;Node27 -->
<g id="edge36" class="edge"><title>Node30&#45;&gt;Node27</title>
<path fill="none" stroke="midnightblue" d="M1322.22,-56.324C1307.73,-47.8215 1285.43,-34.7288 1268.51,-24.7975"/>
<polygon fill="midnightblue" stroke="midnightblue" points="1270.14,-21.6981 1259.74,-19.6545 1266.6,-27.735 1270.14,-21.6981"/>
</g>
<!-- Node30&#45;&gt;Node28 -->
<g id="edge33" class="edge"><title>Node30&#45;&gt;Node28</title>
<path fill="none" stroke="midnightblue" d="M1343.94,-56.083C1349.93,-48.3768 1358.75,-37.0333 1366.05,-27.6531"/>
<polygon fill="midnightblue" stroke="midnightblue" points="1368.82,-29.7934 1372.19,-19.7511 1363.29,-25.4958 1368.82,-29.7934"/>
</g>
<!-- Node30&#45;&gt;Node29 -->
<g id="edge30" class="edge"><title>Node30&#45;&gt;Node29</title>
<path fill="none" stroke="midnightblue" d="M1362.67,-56.4435C1392.49,-46.5041 1441.47,-30.1771 1471.89,-20.037"/>
<polygon fill="midnightblue" stroke="midnightblue" points="1473.06,-23.3363 1481.44,-16.8536 1470.85,-16.6955 1473.06,-23.3363"/>
</g>
<!-- Node31 -->
<g id="node31" class="node"><title>Node31</title>
<polygon fill="white" stroke="#bfbfbf" points="1310.5,-0.5 1310.5,-19.5 1339.5,-19.5 1339.5,-0.5 1310.5,-0.5"/>
<text text-anchor="middle" x="1325" y="-7.5" font-family="Helvetica,sans-Serif" font-size="10.00">list</text>
</g>
<!-- Node30&#45;&gt;Node31 -->
<g id="edge32" class="edge"><title>Node30&#45;&gt;Node31</title>
<path fill="none" stroke="midnightblue" d="M1335.02,-56.083C1333.43,-48.9272 1331.14,-38.6353 1329.15,-29.6911"/>
<polygon fill="midnightblue" stroke="midnightblue" points="1332.53,-28.7537 1326.94,-19.7511 1325.7,-30.2722 1332.53,-28.7537"/>
</g>
<!-- Node32&#45;&gt;Node21 -->
<g id="edge38" class="edge"><title>Node32&#45;&gt;Node21</title>
<path fill="none" stroke="midnightblue" d="M1584.04,-56.4435C1611.87,-46.9316 1656.81,-31.5697 1686.63,-21.3787"/>
<polygon fill="midnightblue" stroke="midnightblue" points="1687.79,-24.6829 1696.12,-18.1368 1685.52,-18.059 1687.79,-24.6829"/>
</g>
<!-- Node32&#45;&gt;Node22 -->
<g id="edge39" class="edge"><title>Node32&#45;&gt;Node22</title>
<path fill="none" stroke="midnightblue" d="M1540.3,-56.4435C1521.06,-47.6356 1490.85,-33.8116 1468.8,-23.722"/>
<polygon fill="midnightblue" stroke="midnightblue" points="1470.16,-20.4951 1459.61,-19.5164 1467.25,-26.8603 1470.16,-20.4951"/>
</g>
<!-- Node32&#45;&gt;Node29 -->
<g id="edge40" class="edge"><title>Node32&#45;&gt;Node29</title>
<path fill="none" stroke="midnightblue" d="M1549.36,-56.324C1540.49,-48.3414 1527.13,-36.3128 1516.39,-26.6529"/>
<polygon fill="midnightblue" stroke="midnightblue" points="1518.59,-23.922 1508.82,-19.8339 1513.91,-29.1251 1518.59,-23.922"/>
</g>
<!-- Node33 -->
<g id="node33" class="node"><title>Node33</title>
<polygon fill="white" stroke="#bfbfbf" points="1535,-0.5 1535,-19.5 1587,-19.5 1587,-0.5 1535,-0.5"/>
<text text-anchor="middle" x="1561" y="-7.5" font-family="Helvetica,sans-Serif" font-size="10.00">memory</text>
</g>
<!-- Node32&#45;&gt;Node33 -->
<g id="edge41" class="edge"><title>Node32&#45;&gt;Node33</title>
<path fill="none" stroke="midnightblue" d="M1559.33,-56.083C1559.59,-49.0059 1559.97,-38.8611 1560.3,-29.9865"/>
<polygon fill="midnightblue" stroke="midnightblue" points="1563.8,-29.8738 1560.68,-19.7511 1556.81,-29.6147 1563.8,-29.8738"/>
</g>
<!-- Node34 -->
<g id="node34" class="node"><title>Node34</title>
<polygon fill="white" stroke="#bfbfbf" points="1605.5,-0.5 1605.5,-19.5 1678.5,-19.5 1678.5,-0.5 1605.5,-0.5"/>
<text text-anchor="middle" x="1642" y="-7.5" font-family="Helvetica,sans-Serif" font-size="10.00">initializer_list</text>
</g>
<!-- Node32&#45;&gt;Node34 -->
<g id="edge42" class="edge"><title>Node32&#45;&gt;Node34</title>
<path fill="none" stroke="midnightblue" d="M1572.34,-56.324C1585.16,-47.979 1604.78,-35.2122 1619.94,-25.3524"/>
<polygon fill="midnightblue" stroke="midnightblue" points="1622.22,-28.0417 1628.7,-19.6545 1618.41,-22.1742 1622.22,-28.0417"/>
</g>
<!-- Node35&#45;&gt;Node2 -->
<g id="edge44" class="edge"><title>Node35&#45;&gt;Node2</title>
<path fill="none" stroke="midnightblue" d="M1014.8,-280.075C1008.34,-253.945 989.389,-177.211 980.588,-141.577"/>
<polygon fill="midnightblue" stroke="midnightblue" points="983.912,-140.437 978.116,-131.568 977.116,-142.116 983.912,-140.437"/>
</g>
<!-- Node35&#45;&gt;Node11 -->
<g id="edge52" class="edge"><title>Node35&#45;&gt;Node11</title>
<path fill="none" stroke="midnightblue" d="M1044.67,-280.433C1157.07,-245.63 1579.34,-114.885 1701.01,-77.2154"/>
<polygon fill="midnightblue" stroke="midnightblue" points="1702.35,-80.4647 1710.86,-74.1636 1700.28,-73.7779 1702.35,-80.4647"/>
</g>
<!-- Node35&#45;&gt;Node14 -->
<g id="edge53" class="edge"><title>Node35&#45;&gt;Node14</title>
<path fill="none" stroke="midnightblue" d="M976.928,-280.433C846.795,-252.533 424.137,-161.283 63.9432,-76.1809"/>
<polygon fill="midnightblue" stroke="midnightblue" points="64.646,-72.7507 54.1089,-73.8553 63.035,-79.5628 64.646,-72.7507"/>
</g>
<!-- Node36 -->
<g id="node36" class="node"><title>Node36</title>
<g id="a_node36"><a xlink:href="cosmos-errno_8h.html" target="_top" xlink:title="COSMOS Error Codes. ">
<polygon fill="white" stroke="black" points="1092.5,-168.5 1092.5,-187.5 1211.5,-187.5 1211.5,-168.5 1092.5,-168.5"/>
<text text-anchor="middle" x="1152" y="-175.5" font-family="Helvetica,sans-Serif" font-size="10.00">support/cosmos&#45;errno.h</text>
</a>
</g>
</g>
<!-- Node35&#45;&gt;Node36 -->
<g id="edge45" class="edge"><title>Node35&#45;&gt;Node36</title>
<path fill="none" stroke="midnightblue" d="M1043.37,-280.398C1063.06,-273.021 1089.76,-260.895 1109,-244 1124.05,-230.781 1136.08,-211.109 1143.54,-196.871"/>
<polygon fill="midnightblue" stroke="midnightblue" points="1146.82,-198.145 1148.15,-187.634 1140.55,-195.021 1146.82,-198.145"/>
</g>
<!-- Node38 -->
<g id="node38" class="node"><title>Node38</title>
<g id="a_node38"><a xlink:href="sliplib_8h.html" target="_top" xlink:title="COSMOS SLIP support include file. ">
<polygon fill="white" stroke="black" points="1014.5,-224.5 1014.5,-243.5 1099.5,-243.5 1099.5,-224.5 1014.5,-224.5"/>
<text text-anchor="middle" x="1057" y="-231.5" font-family="Helvetica,sans-Serif" font-size="10.00">support/sliplib.h</text>
</a>
</g>
</g>
<!-- Node35&#45;&gt;Node38 -->
<g id="edge48" class="edge"><title>Node35&#45;&gt;Node38</title>
<path fill="none" stroke="midnightblue" d="M1023.61,-280.083C1029.26,-272.455 1037.54,-261.264 1044.45,-251.941"/>
<polygon fill="midnightblue" stroke="midnightblue" points="1047.38,-253.87 1050.52,-243.751 1041.75,-249.703 1047.38,-253.87"/>
</g>
<!-- Node36&#45;&gt;Node2 -->
<g id="edge46" class="edge"><title>Node36&#45;&gt;Node2</title>
<path fill="none" stroke="midnightblue" d="M1124.11,-168.444C1094.25,-159.28 1046.69,-144.688 1013.54,-134.519"/>
<polygon fill="midnightblue" stroke="midnightblue" points="1014.34,-131.104 1003.76,-131.516 1012.29,-137.796 1014.34,-131.104"/>
</g>
<!-- Node37 -->
<g id="node37" class="node"><title>Node37</title>
<polygon fill="white" stroke="#bfbfbf" points="1128.5,-112.5 1128.5,-131.5 1175.5,-131.5 1175.5,-112.5 1128.5,-112.5"/>
<text text-anchor="middle" x="1152" y="-119.5" font-family="Helvetica,sans-Serif" font-size="10.00">errno.h</text>
</g>
<!-- Node36&#45;&gt;Node37 -->
<g id="edge47" class="edge"><title>Node36&#45;&gt;Node37</title>
<path fill="none" stroke="midnightblue" d="M1152,-168.083C1152,-161.006 1152,-150.861 1152,-141.986"/>
<polygon fill="midnightblue" stroke="midnightblue" points="1155.5,-141.751 1152,-131.751 1148.5,-141.751 1155.5,-141.751"/>
</g>
<!-- Node38&#45;&gt;Node2 -->
<g id="edge49" class="edge"><title>Node38&#45;&gt;Node2</title>
<path fill="none" stroke="midnightblue" d="M1050.64,-224.368C1037.22,-206.135 1005.77,-163.426 988.279,-139.675"/>
<polygon fill="midnightblue" stroke="midnightblue" points="991.074,-137.568 982.326,-131.591 985.438,-141.719 991.074,-137.568"/>
</g>
<!-- Node38&#45;&gt;Node11 -->
<g id="edge51" class="edge"><title>Node38&#45;&gt;Node11</title>
<path fill="none" stroke="midnightblue" d="M1058.33,-224.463C1062.48,-201.228 1077.51,-136.93 1120,-112 1229.14,-47.9606 1558.32,-95.326 1700.78,-75.6984"/>
<polygon fill="midnightblue" stroke="midnightblue" points="1701.36,-79.1505 1710.71,-74.167 1700.3,-72.2323 1701.36,-79.1505"/>
</g>
<!-- Node38&#45;&gt;Node36 -->
<g id="edge50" class="edge"><title>Node38&#45;&gt;Node36</title>
<path fill="none" stroke="midnightblue" d="M1072.26,-224.324C1087.22,-215.822 1110.25,-202.729 1127.73,-192.797"/>
<polygon fill="midnightblue" stroke="midnightblue" points="1129.81,-195.639 1136.77,-187.655 1126.35,-189.553 1129.81,-195.639"/>
</g>
</g>
</svg>
        <g id="navigator" transform="translate(0 0)" fill="#404254">
                <rect fill="#f2f5e9" fill-opacity="0.5" stroke="#606060" stroke-width=".5" x="0" y="0" width="60" height="60"/>
                <use id="zoomplus" xlink:href="#zoomPlus" x="17" y="9" onmousedown="handleZoom(evt,'in')"/>
                <use id="zoomminus" xlink:href="#zoomMin" x="42" y="9" onmousedown="handleZoom(evt,'out')"/>
                <use id="reset" xlink:href="#resetDef" x="30" y="36" onmousedown="handleReset()"/>
                <g id="arrowUp" xlink:href="#dirArrow" transform="translate(30 24)" onmousedown="handlePan(0,-1)">
                  <use xlink:href="#rim" fill="#404040">
                        <set attributeName="fill" to="#808080" begin="arrowUp.mouseover" end="arrowUp.mouseout"/>
                  </use>
                  <path fill="none" stroke="white" stroke-width="1.5" d="M0,-3.0v7 M-2.5,-0.5L0,-3.0L2.5,-0.5"/>
                </g>
                <g id="arrowRight" xlink:href="#dirArrow" transform="rotate(90) translate(36 -43)" onmousedown="handlePan(1,0)">
                  <use xlink:href="#rim" fill="#404040">
                        <set attributeName="fill" to="#808080" begin="arrowRight.mouseover" end="arrowRight.mouseout"/>
                  </use>
                  <path fill="none" stroke="white" stroke-width="1.5" d="M0,-3.0v7 M-2.5,-0.5L0,-3.0L2.5,-0.5"/>
                </g>
                <g id="arrowDown" xlink:href="#dirArrow" transform="rotate(180) translate(-30 -48)" onmousedown="handlePan(0,1)">
                  <use xlink:href="#rim" fill="#404040">
                        <set attributeName="fill" to="#808080" begin="arrowDown.mouseover" end="arrowDown.mouseout"/>
                  </use>
                  <path fill="none" stroke="white" stroke-width="1.5" d="M0,-3.0v7 M-2.5,-0.5L0,-3.0L2.5,-0.5"/>
                </g>
                <g id="arrowLeft" xlink:href="#dirArrow" transform="rotate(270) translate(-36 17)" onmousedown="handlePan(-1,0)">
                  <use xlink:href="#rim" fill="#404040">
                        <set attributeName="fill" to="#808080" begin="arrowLeft.mouseover" end="arrowLeft.mouseout"/>
                  </use>
                  <path fill="none" stroke="white" stroke-width="1.5" d="M0,-3.0v7 M-2.5,-0.5L0,-3.0L2.5,-0.5"/>
                </g>
        </g>
        <svg viewBox="0 0 15 15" width="100%" height="30px" preserveAspectRatio="xMaxYMin meet">
         <g id="arrow_out" transform="scale(0.3 0.3)">
          <a xlink:href="kisslib_8cpp__incl_org.svg" target="_base">
           <rect id="button" ry="5" rx="5" y="6" x="6" height="38" width="38"
                fill="#f2f5e9" fill-opacity="0.5" stroke="#606060" stroke-width="1.0"/>
           <path id="arrow"
             d="M 11.500037,31.436501 C 11.940474,20.09759 22.043105,11.32322 32.158766,21.979434 L 37.068811,17.246167 C 37.068811,17.246167 37.088388,32 37.088388,32 L 22.160133,31.978069 C 22.160133,31.978069 26.997745,27.140456 26.997745,27.140456 C 18.528582,18.264221 13.291696,25.230495 11.500037,31.436501 z"
             style="fill:#404040;"/>
          </a>
         </g>
        </svg>
</svg>
