<?xml version="1.0" encoding="UTF-8" standalone="no"?>
<!DOCTYPE svg PUBLIC "-//W3C//DTD SVG 1.1//EN"
 "http://www.w3.org/Graphics/SVG/1.1/DTD/svg11.dtd">
<!-- Generated by graphviz version 2.38.0 (20140413.2041)
 -->
<!-- Title: kisslib.h Pages: 1 -->
<svg width="1764pt" height="308pt"
 viewBox="0.00 0.00 1763.50 308.00" xmlns="http://www.w3.org/2000/svg" xmlns:xlink="http://www.w3.org/1999/xlink">
<g id="graph0" class="graph" transform="scale(1 1) rotate(0) translate(4 304)">
<title>kisslib.h</title>
<polygon fill="white" stroke="none" points="-4,4 -4,-304 1759.5,-304 1759.5,4 -4,4"/>
<!-- Node1 -->
<g id="node1" class="node"><title>Node1</title>
<polygon fill="#bfbfbf" stroke="black" points="1088,-280.5 1088,-299.5 1141,-299.5 1141,-280.5 1088,-280.5"/>
<text text-anchor="middle" x="1114.5" y="-287.5" font-family="Helvetica,sans-Serif" font-size="10.00">kisslib.h</text>
</g>
<!-- Node2 -->
<g id="node2" class="node"><title>Node2</title>
<g id="a_node2"><a xlink:href="config_cosmos_8h.html" target="_top" xlink:title="Headers and definitions common to all COSMOS. ">
<polygon fill="white" stroke="black" points="894,-112.5 894,-131.5 1017,-131.5 1017,-112.5 894,-112.5"/>
<text text-anchor="middle" x="955.5" y="-119.5" font-family="Helvetica,sans-Serif" font-size="10.00">support/configCosmos.h</text>
</a>
</g>
</g>
<!-- Node1&#45;&gt;Node2 -->
<g id="edge1" class="edge"><title>Node1&#45;&gt;Node2</title>
<path fill="none" stroke="midnightblue" d="M1102.16,-280.47C1090.8,-272.153 1074,-258.647 1062.5,-244 1039.05,-214.143 1048.82,-196.287 1023.5,-168 1011.99,-155.145 996.03,-144.331 982.462,-136.528"/>
<polygon fill="midnightblue" stroke="midnightblue" points="983.985,-133.371 973.536,-131.619 980.612,-139.505 983.985,-133.371"/>
</g>
<!-- Node11 -->
<g id="node11" class="node"><title>Node11</title>
<polygon fill="white" stroke="#bfbfbf" points="1637.5,-56.5 1637.5,-75.5 1683.5,-75.5 1683.5,-56.5 1637.5,-56.5"/>
<text text-anchor="middle" x="1660.5" y="-63.5" font-family="Helvetica,sans-Serif" font-size="10.00">cstring</text>
</g>
<!-- Node1&#45;&gt;Node11 -->
<g id="edge50" class="edge"><title>Node1&#45;&gt;Node11</title>
<path fill="none" stroke="midnightblue" d="M1127.14,-280.469C1169.97,-251.976 1314.25,-159.239 1446.5,-112 1523.74,-84.4103 1547.66,-94.802 1627.5,-76 1627.6,-75.9762 1627.7,-75.9523 1627.8,-75.9282"/>
<polygon fill="midnightblue" stroke="midnightblue" points="1628.63,-79.3304 1637.47,-73.5006 1626.92,-72.5411 1628.63,-79.3304"/>
</g>
<!-- Node14 -->
<g id="node14" class="node"><title>Node14</title>
<polygon fill="white" stroke="#bfbfbf" points="1701.5,-56.5 1701.5,-75.5 1755.5,-75.5 1755.5,-56.5 1701.5,-56.5"/>
<text text-anchor="middle" x="1728.5" y="-63.5" font-family="Helvetica,sans-Serif" font-size="10.00">iostream</text>
</g>
<!-- Node1&#45;&gt;Node14 -->
<g id="edge51" class="edge"><title>Node1&#45;&gt;Node14</title>
<path fill="none" stroke="midnightblue" d="M1138.19,-280.433C1232.98,-246.163 1585.03,-118.872 1695.27,-79.013"/>
<polygon fill="midnightblue" stroke="midnightblue" points="1696.66,-82.2328 1704.88,-75.5411 1694.28,-75.6499 1696.66,-82.2328"/>
</g>
<!-- Node35 -->
<g id="node35" class="node"><title>Node35</title>
<g id="a_node35"><a xlink:href="cosmos-errno_8h.html" target="_top" xlink:title="COSMOS Error Codes. ">
<polygon fill="white" stroke="black" points="896,-168.5 896,-187.5 1015,-187.5 1015,-168.5 896,-168.5"/>
<text text-anchor="middle" x="955.5" y="-175.5" font-family="Helvetica,sans-Serif" font-size="10.00">support/cosmos&#45;errno.h</text>
</a>
</g>
</g>
<!-- Node1&#45;&gt;Node35 -->
<g id="edge43" class="edge"><title>Node1&#45;&gt;Node35</title>
<path fill="none" stroke="midnightblue" d="M1095.2,-280.376C1077.47,-272.092 1050.8,-258.695 1029.5,-244 1008.08,-229.229 985.987,-209.057 971.583,-195.121"/>
<polygon fill="midnightblue" stroke="midnightblue" points="973.64,-192.236 964.053,-187.724 968.734,-197.229 973.64,-192.236"/>
</g>
<!-- Node37 -->
<g id="node37" class="node"><title>Node37</title>
<g id="a_node37"><a xlink:href="sliplib_8h.html" target="_top" xlink:title="COSMOS SLIP support include file. ">
<polygon fill="white" stroke="black" points="1072,-224.5 1072,-243.5 1157,-243.5 1157,-224.5 1072,-224.5"/>
<text text-anchor="middle" x="1114.5" y="-231.5" font-family="Helvetica,sans-Serif" font-size="10.00">support/sliplib.h</text>
</a>
</g>
</g>
<!-- Node1&#45;&gt;Node37 -->
<g id="edge46" class="edge"><title>Node1&#45;&gt;Node37</title>
<path fill="none" stroke="midnightblue" d="M1114.5,-280.083C1114.5,-273.006 1114.5,-262.861 1114.5,-253.986"/>
<polygon fill="midnightblue" stroke="midnightblue" points="1118,-253.751 1114.5,-243.751 1111,-253.751 1118,-253.751"/>
</g>
<!-- Node3 -->
<g id="node3" class="node"><title>Node3</title>
<polygon fill="white" stroke="#bfbfbf" points="1309,-56.5 1309,-75.5 1354,-75.5 1354,-56.5 1309,-56.5"/>
<text text-anchor="middle" x="1331.5" y="-63.5" font-family="Helvetica,sans-Serif" font-size="10.00">climits</text>
</g>
<!-- Node2&#45;&gt;Node3 -->
<g id="edge2" class="edge"><title>Node2&#45;&gt;Node3</title>
<path fill="none" stroke="midnightblue" d="M1017.15,-115.637C1084.17,-109.202 1194.53,-96.8447 1298.8,-75.8571"/>
<polygon fill="midnightblue" stroke="midnightblue" points="1299.78,-79.2306 1308.87,-73.799 1298.37,-72.3724 1299.78,-79.2306"/>
</g>
<!-- Node4 -->
<g id="node4" class="node"><title>Node4</title>
<polygon fill="white" stroke="#bfbfbf" points="1372,-56.5 1372,-75.5 1419,-75.5 1419,-56.5 1372,-56.5"/>
<text text-anchor="middle" x="1395.5" y="-63.5" font-family="Helvetica,sans-Serif" font-size="10.00">csignal</text>
</g>
<!-- Node2&#45;&gt;Node4 -->
<g id="edge3" class="edge"><title>Node2&#45;&gt;Node4</title>
<path fill="none" stroke="midnightblue" d="M1017.31,-117.181C1095.43,-111.685 1234.07,-99.703 1361.85,-75.8267"/>
<polygon fill="midnightblue" stroke="midnightblue" points="1362.64,-79.2392 1371.81,-73.9363 1361.33,-72.3619 1362.64,-79.2392"/>
</g>
<!-- Node5 -->
<g id="node5" class="node"><title>Node5</title>
<polygon fill="white" stroke="#bfbfbf" points="1437.5,-56.5 1437.5,-75.5 1483.5,-75.5 1483.5,-56.5 1437.5,-56.5"/>
<text text-anchor="middle" x="1460.5" y="-63.5" font-family="Helvetica,sans-Serif" font-size="10.00">cstdint</text>
</g>
<!-- Node2&#45;&gt;Node5 -->
<g id="edge4" class="edge"><title>Node2&#45;&gt;Node5</title>
<path fill="none" stroke="midnightblue" d="M1017.06,-118.496C1105.66,-114.149 1274.3,-103.11 1427.13,-75.7193"/>
<polygon fill="midnightblue" stroke="midnightblue" points="1427.97,-79.1255 1437.18,-73.8914 1426.71,-72.2387 1427.97,-79.1255"/>
</g>
<!-- Node6 -->
<g id="node6" class="node"><title>Node6</title>
<polygon fill="white" stroke="#bfbfbf" points="1501.5,-56.5 1501.5,-75.5 1557.5,-75.5 1557.5,-56.5 1501.5,-56.5"/>
<text text-anchor="middle" x="1529.5" y="-63.5" font-family="Helvetica,sans-Serif" font-size="10.00">cinttypes</text>
</g>
<!-- Node2&#45;&gt;Node6 -->
<g id="edge5" class="edge"><title>Node2&#45;&gt;Node6</title>
<path fill="none" stroke="midnightblue" d="M1017.1,-117.045C1134.12,-109.339 1385.57,-91.8105 1491.25,-75.9158"/>
<polygon fill="midnightblue" stroke="midnightblue" points="1491.98,-79.3446 1501.31,-74.3338 1490.89,-72.4295 1491.98,-79.3446"/>
</g>
<!-- Node7 -->
<g id="node7" class="node"><title>Node7</title>
<polygon fill="white" stroke="#bfbfbf" points="1576,-56.5 1576,-75.5 1619,-75.5 1619,-56.5 1576,-56.5"/>
<text text-anchor="middle" x="1597.5" y="-63.5" font-family="Helvetica,sans-Serif" font-size="10.00">cstdio</text>
</g>
<!-- Node2&#45;&gt;Node7 -->
<g id="edge6" class="edge"><title>Node2&#45;&gt;Node7</title>
<path fill="none" stroke="midnightblue" d="M1017.19,-117.192C1155.26,-108.567 1482.95,-87.5045 1566.08,-75.4778"/>
<polygon fill="midnightblue" stroke="midnightblue" points="1566.65,-78.9327 1575.96,-73.8787 1565.53,-72.0228 1566.65,-78.9327"/>
</g>
<!-- Node8 -->
<g id="node8" class="node"><title>Node8</title>
<polygon fill="white" stroke="#bfbfbf" points="0,-56.5 0,-75.5 49,-75.5 49,-56.5 0,-56.5"/>
<text text-anchor="middle" x="24.5" y="-63.5" font-family="Helvetica,sans-Serif" font-size="10.00">cstddef</text>
</g>
<!-- Node2&#45;&gt;Node8 -->
<g id="edge7" class="edge"><title>Node2&#45;&gt;Node8</title>
<path fill="none" stroke="midnightblue" d="M893.959,-112.883C890.763,-112.561 887.595,-112.263 884.5,-112 521.23,-81.1222 422.773,-131.821 59.2456,-75.937"/>
<polygon fill="midnightblue" stroke="midnightblue" points="59.6568,-72.4589 49.2379,-74.382 58.582,-79.3759 59.6568,-72.4589"/>
</g>
<!-- Node9 -->
<g id="node9" class="node"><title>Node9</title>
<polygon fill="white" stroke="#bfbfbf" points="67,-56.5 67,-75.5 112,-75.5 112,-56.5 67,-56.5"/>
<text text-anchor="middle" x="89.5" y="-63.5" font-family="Helvetica,sans-Serif" font-size="10.00">cstdlib</text>
</g>
<!-- Node2&#45;&gt;Node9 -->
<g id="edge8" class="edge"><title>Node2&#45;&gt;Node9</title>
<path fill="none" stroke="midnightblue" d="M893.958,-112.897C890.762,-112.571 887.595,-112.269 884.5,-112 549.587,-82.9179 458.392,-129.383 122.104,-75.6554"/>
<polygon fill="midnightblue" stroke="midnightblue" points="122.513,-72.1762 112.083,-74.0364 121.397,-79.0866 122.513,-72.1762"/>
</g>
<!-- Node10 -->
<g id="node10" class="node"><title>Node10</title>
<polygon fill="white" stroke="#bfbfbf" points="130.5,-56.5 130.5,-75.5 174.5,-75.5 174.5,-56.5 130.5,-56.5"/>
<text text-anchor="middle" x="152.5" y="-63.5" font-family="Helvetica,sans-Serif" font-size="10.00">cerrno</text>
</g>
<!-- Node2&#45;&gt;Node10 -->
<g id="edge9" class="edge"><title>Node2&#45;&gt;Node10</title>
<path fill="none" stroke="midnightblue" d="M893.957,-112.913C890.761,-112.582 887.594,-112.275 884.5,-112 577.098,-84.662 492.931,-126.91 184.825,-75.8122"/>
<polygon fill="midnightblue" stroke="midnightblue" points="185.149,-72.3178 174.708,-74.1144 183.991,-79.2213 185.149,-72.3178"/>
</g>
<!-- Node2&#45;&gt;Node11 -->
<g id="edge10" class="edge"><title>Node2&#45;&gt;Node11</title>
<path fill="none" stroke="midnightblue" d="M1017.28,-117.568C1165.72,-109.227 1536.23,-87.8036 1627.11,-75.5013"/>
<polygon fill="midnightblue" stroke="midnightblue" points="1627.83,-78.9318 1637.19,-73.9746 1626.78,-72.0107 1627.83,-78.9318"/>
</g>
<!-- Node12 -->
<g id="node12" class="node"><title>Node12</title>
<polygon fill="white" stroke="#bfbfbf" points="192.5,-56.5 192.5,-75.5 236.5,-75.5 236.5,-56.5 192.5,-56.5"/>
<text text-anchor="middle" x="214.5" y="-63.5" font-family="Helvetica,sans-Serif" font-size="10.00">cmath</text>
</g>
<!-- Node2&#45;&gt;Node12 -->
<g id="edge11" class="edge"><title>Node2&#45;&gt;Node12</title>
<path fill="none" stroke="midnightblue" d="M893.955,-112.932C890.76,-112.596 887.593,-112.283 884.5,-112 604.551,-86.4023 527.673,-123.082 246.789,-75.8178"/>
<polygon fill="midnightblue" stroke="midnightblue" points="247.156,-72.33 236.71,-74.1008 245.981,-79.2306 247.156,-72.33"/>
</g>
<!-- Node13 -->
<g id="node13" class="node"><title>Node13</title>
<polygon fill="white" stroke="#bfbfbf" points="255,-56.5 255,-75.5 300,-75.5 300,-56.5 255,-56.5"/>
<text text-anchor="middle" x="277.5" y="-63.5" font-family="Helvetica,sans-Serif" font-size="10.00">iosfwd</text>
</g>
<!-- Node2&#45;&gt;Node13 -->
<g id="edge12" class="edge"><title>Node2&#45;&gt;Node13</title>
<path fill="none" stroke="midnightblue" d="M893.953,-112.955C890.758,-112.614 887.592,-112.293 884.5,-112 632.818,-88.1939 563.684,-118.124 309.97,-75.6663"/>
<polygon fill="midnightblue" stroke="midnightblue" points="310.535,-72.2122 300.09,-73.9923 309.365,-79.1138 310.535,-72.2122"/>
</g>
<!-- Node2&#45;&gt;Node14 -->
<g id="edge13" class="edge"><title>Node2&#45;&gt;Node14</title>
<path fill="none" stroke="midnightblue" d="M1017.06,-121.052C1142.41,-120.335 1436.3,-114.445 1691.28,-75.8841"/>
<polygon fill="midnightblue" stroke="midnightblue" points="1692.13,-79.2957 1701.48,-74.321 1691.07,-72.3765 1692.13,-79.2957"/>
</g>
<!-- Node15 -->
<g id="node15" class="node"><title>Node15</title>
<polygon fill="white" stroke="#bfbfbf" points="318.5,-56.5 318.5,-75.5 370.5,-75.5 370.5,-56.5 318.5,-56.5"/>
<text text-anchor="middle" x="344.5" y="-63.5" font-family="Helvetica,sans-Serif" font-size="10.00">sstream</text>
</g>
<!-- Node2&#45;&gt;Node15 -->
<g id="edge14" class="edge"><title>Node2&#45;&gt;Node15</title>
<path fill="none" stroke="midnightblue" d="M893.95,-112.988C890.756,-112.638 887.591,-112.306 884.5,-112 663.86,-90.168 603.352,-111.522 380.799,-75.922"/>
<polygon fill="midnightblue" stroke="midnightblue" points="381.197,-72.4408 370.765,-74.2962 380.077,-79.3507 381.197,-72.4408"/>
</g>
<!-- Node16 -->
<g id="node16" class="node"><title>Node16</title>
<polygon fill="white" stroke="#bfbfbf" points="389,-56.5 389,-75.5 430,-75.5 430,-56.5 389,-56.5"/>
<text text-anchor="middle" x="409.5" y="-63.5" font-family="Helvetica,sans-Serif" font-size="10.00">regex</text>
</g>
<!-- Node2&#45;&gt;Node16 -->
<g id="edge15" class="edge"><title>Node2&#45;&gt;Node16</title>
<path fill="none" stroke="midnightblue" d="M893.946,-113.024C890.753,-112.664 887.59,-112.321 884.5,-112 690.413,-91.8584 636.286,-112.02 440.076,-75.6661"/>
<polygon fill="midnightblue" stroke="midnightblue" points="440.49,-72.1828 430.016,-73.7762 439.198,-79.0625 440.49,-72.1828"/>
</g>
<!-- Node17 -->
<g id="node17" class="node"><title>Node17</title>
<polygon fill="white" stroke="#bfbfbf" points="448.5,-56.5 448.5,-75.5 498.5,-75.5 498.5,-56.5 448.5,-56.5"/>
<text text-anchor="middle" x="473.5" y="-63.5" font-family="Helvetica,sans-Serif" font-size="10.00">iomanip</text>
</g>
<!-- Node2&#45;&gt;Node17 -->
<g id="edge16" class="edge"><title>Node2&#45;&gt;Node17</title>
<path fill="none" stroke="midnightblue" d="M893.94,-113.079C890.749,-112.705 887.587,-112.343 884.5,-112 720.479,-93.7774 674.955,-105.169 508.728,-75.9429"/>
<polygon fill="midnightblue" stroke="midnightblue" points="509.107,-72.4555 498.648,-74.1475 507.88,-79.347 509.107,-72.4555"/>
</g>
<!-- Node18 -->
<g id="node18" class="node"><title>Node18</title>
<polygon fill="white" stroke="#bfbfbf" points="517,-56.5 517,-75.5 568,-75.5 568,-56.5 517,-56.5"/>
<text text-anchor="middle" x="542.5" y="-63.5" font-family="Helvetica,sans-Serif" font-size="10.00">unistd.h</text>
</g>
<!-- Node2&#45;&gt;Node18 -->
<g id="edge17" class="edge"><title>Node2&#45;&gt;Node18</title>
<path fill="none" stroke="midnightblue" d="M893.931,-113.16C890.742,-112.765 887.583,-112.376 884.5,-112 751.328,-95.7518 714.278,-100.904 578.011,-75.8451"/>
<polygon fill="midnightblue" stroke="midnightblue" points="578.497,-72.3755 568.025,-73.9879 577.217,-79.2575 578.497,-72.3755"/>
</g>
<!-- Node19 -->
<g id="node19" class="node"><title>Node19</title>
<polygon fill="white" stroke="#bfbfbf" points="586.5,-56.5 586.5,-75.5 630.5,-75.5 630.5,-56.5 586.5,-56.5"/>
<text text-anchor="middle" x="608.5" y="-63.5" font-family="Helvetica,sans-Serif" font-size="10.00">fcntl.h</text>
</g>
<!-- Node2&#45;&gt;Node19 -->
<g id="edge18" class="edge"><title>Node2&#45;&gt;Node19</title>
<path fill="none" stroke="midnightblue" d="M893.868,-112.7C815.78,-102.117 686.646,-84.3693 640.758,-75.8678"/>
<polygon fill="midnightblue" stroke="midnightblue" points="641.247,-72.3965 630.755,-73.8687 639.875,-79.2608 641.247,-72.3965"/>
</g>
<!-- Node20 -->
<g id="node20" class="node"><title>Node20</title>
<polygon fill="white" stroke="#bfbfbf" points="648.5,-56.5 648.5,-75.5 688.5,-75.5 688.5,-56.5 648.5,-56.5"/>
<text text-anchor="middle" x="668.5" y="-63.5" font-family="Helvetica,sans-Serif" font-size="10.00">limits</text>
</g>
<!-- Node2&#45;&gt;Node20 -->
<g id="edge19" class="edge"><title>Node2&#45;&gt;Node20</title>
<path fill="none" stroke="midnightblue" d="M899.962,-112.478C848.527,-104.265 770.022,-90.915 702.5,-76 701.226,-75.7185 699.927,-75.4212 698.617,-75.1129"/>
<polygon fill="midnightblue" stroke="midnightblue" points="699.119,-71.6308 688.569,-72.6068 697.425,-78.4228 699.119,-71.6308"/>
</g>
<!-- Node21 -->
<g id="node21" class="node"><title>Node21</title>
<polygon fill="white" stroke="#bfbfbf" points="585,-0.5 585,-19.5 626,-19.5 626,-0.5 585,-0.5"/>
<text text-anchor="middle" x="605.5" y="-7.5" font-family="Helvetica,sans-Serif" font-size="10.00">string</text>
</g>
<!-- Node2&#45;&gt;Node21 -->
<g id="edge20" class="edge"><title>Node2&#45;&gt;Node21</title>
<path fill="none" stroke="midnightblue" d="M893.538,-113.112C848.747,-106.266 787.265,-94.4931 735.5,-76 717.527,-69.5792 714.518,-64.6383 697.5,-56 675.862,-45.017 651.149,-32.9554 632.788,-24.0864"/>
<polygon fill="midnightblue" stroke="midnightblue" points="634.087,-20.8272 623.559,-19.6387 631.048,-27.1331 634.087,-20.8272"/>
</g>
<!-- Node22 -->
<g id="node22" class="node"><title>Node22</title>
<polygon fill="white" stroke="#bfbfbf" points="806.5,-0.5 806.5,-19.5 850.5,-19.5 850.5,-0.5 806.5,-0.5"/>
<text text-anchor="middle" x="828.5" y="-7.5" font-family="Helvetica,sans-Serif" font-size="10.00">vector</text>
</g>
<!-- Node2&#45;&gt;Node22 -->
<g id="edge21" class="edge"><title>Node2&#45;&gt;Node22</title>
<path fill="none" stroke="midnightblue" d="M945.535,-112.368C924.112,-93.8137 873.427,-49.9129 846.323,-26.4376"/>
<polygon fill="midnightblue" stroke="midnightblue" points="848.27,-23.4929 838.419,-19.5914 843.687,-28.7841 848.27,-23.4929"/>
</g>
<!-- Node23 -->
<g id="node23" class="node"><title>Node23</title>
<polygon fill="white" stroke="#bfbfbf" points="1189,-56.5 1189,-75.5 1230,-75.5 1230,-56.5 1189,-56.5"/>
<text text-anchor="middle" x="1209.5" y="-63.5" font-family="Helvetica,sans-Serif" font-size="10.00">stack</text>
</g>
<!-- Node2&#45;&gt;Node23 -->
<g id="edge22" class="edge"><title>Node2&#45;&gt;Node23</title>
<path fill="none" stroke="midnightblue" d="M1000.52,-112.42C1044.89,-103.805 1114.56,-89.8563 1174.5,-76 1175.95,-75.6644 1177.44,-75.3136 1178.93,-74.9533"/>
<polygon fill="midnightblue" stroke="midnightblue" points="1179.95,-78.3065 1188.81,-72.4985 1178.26,-71.5131 1179.95,-78.3065"/>
</g>
<!-- Node24 -->
<g id="node24" class="node"><title>Node24</title>
<polygon fill="white" stroke="#bfbfbf" points="1248,-56.5 1248,-75.5 1291,-75.5 1291,-56.5 1248,-56.5"/>
<text text-anchor="middle" x="1269.5" y="-63.5" font-family="Helvetica,sans-Serif" font-size="10.00">deque</text>
</g>
<!-- Node2&#45;&gt;Node24 -->
<g id="edge23" class="edge"><title>Node2&#45;&gt;Node24</title>
<path fill="none" stroke="midnightblue" d="M1017.2,-113.449C1072.56,-106.162 1156.16,-93.8969 1237.95,-75.8689"/>
<polygon fill="midnightblue" stroke="midnightblue" points="1238.91,-79.2391 1247.91,-73.6417 1237.39,-72.4078 1238.91,-79.2391"/>
</g>
<!-- Node25 -->
<g id="node25" class="node"><title>Node25</title>
<polygon fill="white" stroke="#bfbfbf" points="922.5,-0.5 922.5,-19.5 966.5,-19.5 966.5,-0.5 922.5,-0.5"/>
<text text-anchor="middle" x="944.5" y="-7.5" font-family="Helvetica,sans-Serif" font-size="10.00">mutex</text>
</g>
<!-- Node2&#45;&gt;Node25 -->
<g id="edge24" class="edge"><title>Node2&#45;&gt;Node25</title>
<path fill="none" stroke="midnightblue" d="M949.133,-112.232C943.24,-103.532 934.893,-89.5719 931.5,-76 927.619,-60.4742 931.79,-42.6358 936.411,-29.5787"/>
<polygon fill="midnightblue" stroke="midnightblue" points="939.819,-30.4777 940.231,-19.8909 933.307,-27.9097 939.819,-30.4777"/>
</g>
<!-- Node26 -->
<g id="node26" class="node"><title>Node26</title>
<polygon fill="white" stroke="#bfbfbf" points="1030.5,-0.5 1030.5,-19.5 1074.5,-19.5 1074.5,-0.5 1030.5,-0.5"/>
<text text-anchor="middle" x="1052.5" y="-7.5" font-family="Helvetica,sans-Serif" font-size="10.00">thread</text>
</g>
<!-- Node2&#45;&gt;Node26 -->
<g id="edge25" class="edge"><title>Node2&#45;&gt;Node26</title>
<path fill="none" stroke="midnightblue" d="M1008.82,-112.431C1030.16,-106.1 1052.68,-95.101 1065.5,-76 1074.89,-62.0068 1069.29,-42.7511 1062.76,-28.8336"/>
<polygon fill="midnightblue" stroke="midnightblue" points="1065.78,-27.0472 1058.06,-19.7947 1059.57,-30.2806 1065.78,-27.0472"/>
</g>
<!-- Node27 -->
<g id="node27" class="node"><title>Node27</title>
<polygon fill="white" stroke="#bfbfbf" points="1093,-0.5 1093,-19.5 1188,-19.5 1188,-0.5 1093,-0.5"/>
<text text-anchor="middle" x="1140.5" y="-7.5" font-family="Helvetica,sans-Serif" font-size="10.00">condition_variable</text>
</g>
<!-- Node2&#45;&gt;Node27 -->
<g id="edge26" class="edge"><title>Node2&#45;&gt;Node27</title>
<path fill="none" stroke="midnightblue" d="M995.068,-112.451C1021.39,-105.498 1055.9,-93.8665 1082.5,-76 1101.45,-63.2731 1118.22,-42.958 1128.79,-28.4268"/>
<polygon fill="midnightblue" stroke="midnightblue" points="1131.92,-30.0485 1134.8,-19.8509 1126.19,-26.0303 1131.92,-30.0485"/>
</g>
<!-- Node28 -->
<g id="node28" class="node"><title>Node28</title>
<polygon fill="white" stroke="#bfbfbf" points="1206,-0.5 1206,-19.5 1249,-19.5 1249,-0.5 1206,-0.5"/>
<text text-anchor="middle" x="1227.5" y="-7.5" font-family="Helvetica,sans-Serif" font-size="10.00">queue</text>
</g>
<!-- Node2&#45;&gt;Node28 -->
<g id="edge27" class="edge"><title>Node2&#45;&gt;Node28</title>
<path fill="none" stroke="midnightblue" d="M992.166,-112.436C1023.42,-104.599 1069.22,-91.8285 1107.5,-76 1143.07,-61.2921 1181.81,-39.079 1205.38,-24.8068"/>
<polygon fill="midnightblue" stroke="midnightblue" points="1207.22,-27.7847 1213.92,-19.5791 1203.57,-21.8142 1207.22,-27.7847"/>
</g>
<!-- Node29 -->
<g id="node29" class="node"><title>Node29</title>
<polygon fill="white" stroke="#bfbfbf" points="869,-0.5 869,-19.5 904,-19.5 904,-0.5 869,-0.5"/>
<text text-anchor="middle" x="886.5" y="-7.5" font-family="Helvetica,sans-Serif" font-size="10.00">map</text>
</g>
<!-- Node2&#45;&gt;Node29 -->
<g id="edge28" class="edge"><title>Node2&#45;&gt;Node29</title>
<path fill="none" stroke="midnightblue" d="M949.887,-112.407C944.006,-103.377 934.524,-88.7404 926.5,-76 916.484,-60.0967 905.287,-41.8616 897.293,-28.761"/>
<polygon fill="midnightblue" stroke="midnightblue" points="900.067,-26.5878 891.877,-19.8675 894.089,-30.2288 900.067,-26.5878"/>
</g>
<!-- Node30 -->
<g id="node30" class="node"><title>Node30</title>
<g id="a_node30"><a xlink:href="cosmos-defs_8h.html" target="_top" xlink:title="COSMOS definitions Definitions specific to the COSMOS environement. ">
<polygon fill="white" stroke="black" points="940.5,-56.5 940.5,-75.5 1056.5,-75.5 1056.5,-56.5 940.5,-56.5"/>
<text text-anchor="middle" x="998.5" y="-63.5" font-family="Helvetica,sans-Serif" font-size="10.00">support/cosmos&#45;defs.h</text>
</a>
</g>
</g>
<!-- Node2&#45;&gt;Node30 -->
<g id="edge29" class="edge"><title>Node2&#45;&gt;Node30</title>
<path fill="none" stroke="midnightblue" d="M962.601,-112.083C968.737,-104.377 977.77,-93.0333 985.239,-83.6531"/>
<polygon fill="midnightblue" stroke="midnightblue" points="988.04,-85.7542 991.532,-75.7511 982.564,-81.3936 988.04,-85.7542"/>
</g>
<!-- Node32 -->
<g id="node32" class="node"><title>Node32</title>
<g id="a_node32"><a xlink:href="json11_8hpp.html" target="_top" xlink:title="json11.hpp">
<polygon fill="white" stroke="black" points="744.5,-56.5 744.5,-75.5 808.5,-75.5 808.5,-56.5 744.5,-56.5"/>
<text text-anchor="middle" x="776.5" y="-63.5" font-family="Helvetica,sans-Serif" font-size="10.00">json11.hpp</text>
</a>
</g>
</g>
<!-- Node2&#45;&gt;Node32 -->
<g id="edge37" class="edge"><title>Node2&#45;&gt;Node32</title>
<path fill="none" stroke="midnightblue" d="M927.137,-112.444C896.762,-103.28 848.39,-88.6876 814.684,-78.5192"/>
<polygon fill="midnightblue" stroke="midnightblue" points="815.315,-75.0538 804.73,-75.5164 813.293,-81.7555 815.315,-75.0538"/>
</g>
<!-- Node30&#45;&gt;Node22 -->
<g id="edge31" class="edge"><title>Node30&#45;&gt;Node22</title>
<path fill="none" stroke="midnightblue" d="M971.563,-56.4435C941.403,-46.8634 892.562,-31.3492 860.486,-21.1604"/>
<polygon fill="midnightblue" stroke="midnightblue" points="861.296,-17.7454 850.706,-18.0537 859.177,-24.4169 861.296,-17.7454"/>
</g>
<!-- Node30&#45;&gt;Node25 -->
<g id="edge35" class="edge"><title>Node30&#45;&gt;Node25</title>
<path fill="none" stroke="midnightblue" d="M989.583,-56.083C981.72,-48.2195 970.069,-36.5688 960.581,-27.0813"/>
<polygon fill="midnightblue" stroke="midnightblue" points="962.797,-24.3473 953.251,-19.7511 957.847,-29.2971 962.797,-24.3473"/>
</g>
<!-- Node30&#45;&gt;Node26 -->
<g id="edge34" class="edge"><title>Node30&#45;&gt;Node26</title>
<path fill="none" stroke="midnightblue" d="M1007.42,-56.083C1015.28,-48.2195 1026.93,-36.5688 1036.42,-27.0813"/>
<polygon fill="midnightblue" stroke="midnightblue" points="1039.15,-29.2971 1043.75,-19.7511 1034.2,-24.3473 1039.15,-29.2971"/>
</g>
<!-- Node30&#45;&gt;Node27 -->
<g id="edge36" class="edge"><title>Node30&#45;&gt;Node27</title>
<path fill="none" stroke="midnightblue" d="M1021,-56.4435C1044.58,-47.4776 1081.82,-33.314 1108.46,-23.1827"/>
<polygon fill="midnightblue" stroke="midnightblue" points="1110,-26.3424 1118.1,-19.5164 1107.51,-19.7995 1110,-26.3424"/>
</g>
<!-- Node30&#45;&gt;Node28 -->
<g id="edge33" class="edge"><title>Node30&#45;&gt;Node28</title>
<path fill="none" stroke="midnightblue" d="M1039.24,-56.4762C1077.28,-48.356 1135.82,-35.4396 1195.83,-20.0506"/>
<polygon fill="midnightblue" stroke="midnightblue" points="1197.06,-23.3488 1205.86,-17.4579 1195.31,-16.5714 1197.06,-23.3488"/>
</g>
<!-- Node30&#45;&gt;Node29 -->
<g id="edge30" class="edge"><title>Node30&#45;&gt;Node29</title>
<path fill="none" stroke="midnightblue" d="M980.505,-56.324C962.356,-47.5732 934.121,-33.9603 913.33,-23.9357"/>
<polygon fill="midnightblue" stroke="midnightblue" points="914.609,-20.6668 904.081,-19.4765 911.568,-26.9722 914.609,-20.6668"/>
</g>
<!-- Node31 -->
<g id="node31" class="node"><title>Node31</title>
<polygon fill="white" stroke="#bfbfbf" points="984,-0.5 984,-19.5 1013,-19.5 1013,-0.5 984,-0.5"/>
<text text-anchor="middle" x="998.5" y="-7.5" font-family="Helvetica,sans-Serif" font-size="10.00">list</text>
</g>
<!-- Node30&#45;&gt;Node31 -->
<g id="edge32" class="edge"><title>Node30&#45;&gt;Node31</title>
<path fill="none" stroke="midnightblue" d="M998.5,-56.083C998.5,-49.0059 998.5,-38.8611 998.5,-29.9865"/>
<polygon fill="midnightblue" stroke="midnightblue" points="1002,-29.751 998.5,-19.7511 995,-29.7511 1002,-29.751"/>
</g>
<!-- Node32&#45;&gt;Node21 -->
<g id="edge38" class="edge"><title>Node32&#45;&gt;Node21</title>
<path fill="none" stroke="midnightblue" d="M749.405,-56.4435C718.473,-46.6756 668.005,-30.7385 635.796,-20.5673"/>
<polygon fill="midnightblue" stroke="midnightblue" points="636.618,-17.1565 626.028,-17.4826 634.51,-23.8316 636.618,-17.1565"/>
</g>
<!-- Node32&#45;&gt;Node22 -->
<g id="edge39" class="edge"><title>Node32&#45;&gt;Node22</title>
<path fill="none" stroke="midnightblue" d="M785.087,-56.083C792.659,-48.2195 803.878,-36.5688 813.014,-27.0813"/>
<polygon fill="midnightblue" stroke="midnightblue" points="815.658,-29.3821 820.073,-19.7511 810.615,-24.5266 815.658,-29.3821"/>
</g>
<!-- Node32&#45;&gt;Node29 -->
<g id="edge40" class="edge"><title>Node32&#45;&gt;Node29</title>
<path fill="none" stroke="midnightblue" d="M794.173,-56.324C811.894,-47.6247 839.403,-34.1202 859.788,-24.113"/>
<polygon fill="midnightblue" stroke="midnightblue" points="861.436,-27.2031 868.87,-19.6545 858.351,-20.9195 861.436,-27.2031"/>
</g>
<!-- Node33 -->
<g id="node33" class="node"><title>Node33</title>
<polygon fill="white" stroke="#bfbfbf" points="644.5,-0.5 644.5,-19.5 696.5,-19.5 696.5,-0.5 644.5,-0.5"/>
<text text-anchor="middle" x="670.5" y="-7.5" font-family="Helvetica,sans-Serif" font-size="10.00">memory</text>
</g>
<!-- Node32&#45;&gt;Node33 -->
<g id="edge41" class="edge"><title>Node32&#45;&gt;Node33</title>
<path fill="none" stroke="midnightblue" d="M759.469,-56.324C742.47,-47.6641 716.124,-34.2424 696.507,-24.249"/>
<polygon fill="midnightblue" stroke="midnightblue" points="697.988,-21.0752 687.488,-19.6545 694.81,-27.3125 697.988,-21.0752"/>
</g>
<!-- Node34 -->
<g id="node34" class="node"><title>Node34</title>
<polygon fill="white" stroke="#bfbfbf" points="715,-0.5 715,-19.5 788,-19.5 788,-0.5 715,-0.5"/>
<text text-anchor="middle" x="751.5" y="-7.5" font-family="Helvetica,sans-Serif" font-size="10.00">initializer_list</text>
</g>
<!-- Node32&#45;&gt;Node34 -->
<g id="edge42" class="edge"><title>Node32&#45;&gt;Node34</title>
<path fill="none" stroke="midnightblue" d="M772.372,-56.083C768.986,-48.77 764.084,-38.1814 759.881,-29.1034"/>
<polygon fill="midnightblue" stroke="midnightblue" points="762.929,-27.3553 755.551,-19.7511 756.577,-30.2962 762.929,-27.3553"/>
</g>
<!-- Node35&#45;&gt;Node2 -->
<g id="edge44" class="edge"><title>Node35&#45;&gt;Node2</title>
<path fill="none" stroke="midnightblue" d="M955.5,-168.083C955.5,-161.006 955.5,-150.861 955.5,-141.986"/>
<polygon fill="midnightblue" stroke="midnightblue" points="959,-141.751 955.5,-131.751 952,-141.751 959,-141.751"/>
</g>
<!-- Node36 -->
<g id="node36" class="node"><title>Node36</title>
<polygon fill="white" stroke="#bfbfbf" points="829,-112.5 829,-131.5 876,-131.5 876,-112.5 829,-112.5"/>
<text text-anchor="middle" x="852.5" y="-119.5" font-family="Helvetica,sans-Serif" font-size="10.00">errno.h</text>
</g>
<!-- Node35&#45;&gt;Node36 -->
<g id="edge45" class="edge"><title>Node35&#45;&gt;Node36</title>
<path fill="none" stroke="midnightblue" d="M938.951,-168.324C922.508,-159.703 897.065,-146.364 878.032,-136.386"/>
<polygon fill="midnightblue" stroke="midnightblue" points="879.489,-133.198 869.008,-131.655 876.239,-139.398 879.489,-133.198"/>
</g>
<!-- Node37&#45;&gt;Node2 -->
<g id="edge47" class="edge"><title>Node37&#45;&gt;Node2</title>
<path fill="none" stroke="midnightblue" d="M1108.79,-224.345C1099.47,-210.771 1079.76,-184.341 1057.5,-168 1037.92,-153.63 1013.03,-142.537 992.743,-134.96"/>
<polygon fill="midnightblue" stroke="midnightblue" points="993.79,-131.616 983.195,-131.524 991.419,-138.203 993.79,-131.616"/>
</g>
<!-- Node37&#45;&gt;Node11 -->
<g id="edge49" class="edge"><title>Node37&#45;&gt;Node11</title>
<path fill="none" stroke="midnightblue" d="M1116.54,-224.348C1122.48,-201.388 1142.04,-138.843 1184.5,-112 1265.46,-60.8232 1514.5,-91.0974 1627.05,-75.5286"/>
<polygon fill="midnightblue" stroke="midnightblue" points="1627.85,-78.946 1637.19,-73.9326 1626.76,-72.0312 1627.85,-78.946"/>
</g>
<!-- Node37&#45;&gt;Node35 -->
<g id="edge48" class="edge"><title>Node37&#45;&gt;Node35</title>
<path fill="none" stroke="midnightblue" d="M1089.31,-224.444C1062.56,-215.359 1020.1,-200.939 990.195,-190.783"/>
<polygon fill="midnightblue" stroke="midnightblue" points="991.171,-187.418 980.576,-187.516 988.919,-194.046 991.171,-187.418"/>
</g>
</g>
</svg>
