<?xml version="1.0" encoding="UTF-8" standalone="no"?>
<!DOCTYPE svg PUBLIC "-//W3C//DTD SVG 1.1//EN"
 "http://www.w3.org/Graphics/SVG/1.1/DTD/svg11.dtd">
<!-- Generated by graphviz version 2.38.0 (20140413.2041)
 -->
<!-- Title: kisslib.h Pages: 1 -->
<svg width="529pt" height="84pt"
 viewBox="0.00 0.00 528.50 84.00" xmlns="http://www.w3.org/2000/svg" xmlns:xlink="http://www.w3.org/1999/xlink">
<g id="graph0" class="graph" transform="scale(1 1) rotate(0) translate(4 80)">
<title>kisslib.h</title>
<polygon fill="white" stroke="none" points="-4,4 -4,-80 524.5,-80 524.5,4 -4,4"/>
<!-- Node1 -->
<g id="node1" class="node"><title>Node1</title>
<polygon fill="#bfbfbf" stroke="black" points="190,-56.5 190,-75.5 243,-75.5 243,-56.5 190,-56.5"/>
<text text-anchor="middle" x="216.5" y="-63.5" font-family="Helvetica,sans-Serif" font-size="10.00">kisslib.h</text>
</g>
<!-- Node2 -->
<g id="node2" class="node"><title>Node2</title>
<g id="a_node2"><a xlink:href="kisslib_8cpp.html" target="_top" xlink:title="kisslib.cpp">
<polygon fill="white" stroke="black" points="0,-0.5 0,-19.5 63,-19.5 63,-0.5 0,-0.5"/>
<text text-anchor="middle" x="31.5" y="-7.5" font-family="Helvetica,sans-Serif" font-size="10.00">kisslib.cpp</text>
</a>
</g>
</g>
<!-- Node1&#45;&gt;Node2 -->
<g id="edge1" class="edge"><title>Node1&#45;&gt;Node2</title>
<path fill="none" stroke="midnightblue" d="M180.182,-54.3992C145.229,-44.1967 93.0469,-28.965 60.7037,-19.5243"/>
<polygon fill="midnightblue" stroke="midnightblue" points="179.414,-57.8209 189.994,-57.2631 181.375,-51.1013 179.414,-57.8209"/>
</g>
<!-- Node3 -->
<g id="node3" class="node"><title>Node3</title>
<g id="a_node3"><a xlink:href="kiss__recv_8cpp.html" target="_top" xlink:title="kiss_recv.cpp">
<polygon fill="white" stroke="black" points="81,-0.5 81,-19.5 158,-19.5 158,-0.5 81,-0.5"/>
<text text-anchor="middle" x="119.5" y="-7.5" font-family="Helvetica,sans-Serif" font-size="10.00">kiss_recv.cpp</text>
</a>
</g>
</g>
<!-- Node1&#45;&gt;Node3 -->
<g id="edge2" class="edge"><title>Node1&#45;&gt;Node3</title>
<path fill="none" stroke="midnightblue" d="M192.165,-51.4526C174.257,-41.4835 150.446,-28.2279 135.046,-19.6545"/>
<polygon fill="midnightblue" stroke="midnightblue" points="190.475,-54.5179 200.915,-56.324 193.88,-48.4018 190.475,-54.5179"/>
</g>
<!-- Node4 -->
<g id="node4" class="node"><title>Node4</title>
<g id="a_node4"><a xlink:href="kiss__send_8cpp.html" target="_top" xlink:title="kiss_send.cpp">
<polygon fill="white" stroke="black" points="176.5,-0.5 176.5,-19.5 256.5,-19.5 256.5,-0.5 176.5,-0.5"/>
<text text-anchor="middle" x="216.5" y="-7.5" font-family="Helvetica,sans-Serif" font-size="10.00">kiss_send.cpp</text>
</a>
</g>
</g>
<!-- Node1&#45;&gt;Node4 -->
<g id="edge3" class="edge"><title>Node1&#45;&gt;Node4</title>
<path fill="none" stroke="midnightblue" d="M216.5,-45.8045C216.5,-36.9102 216.5,-26.7798 216.5,-19.7511"/>
<polygon fill="midnightblue" stroke="midnightblue" points="213,-46.083 216.5,-56.083 220,-46.083 213,-46.083"/>
</g>
<!-- Node5 -->
<g id="node5" class="node"><title>Node5</title>
<g id="a_node5"><a xlink:href="agent__transmitter_8cpp.html" target="_top" xlink:title="agent_transmitter.cpp">
<polygon fill="white" stroke="black" points="275,-0.5 275,-19.5 386,-19.5 386,-0.5 275,-0.5"/>
<text text-anchor="middle" x="330.5" y="-7.5" font-family="Helvetica,sans-Serif" font-size="10.00">agent_transmitter.cpp</text>
</a>
</g>
</g>
<!-- Node1&#45;&gt;Node5 -->
<g id="edge4" class="edge"><title>Node1&#45;&gt;Node5</title>
<path fill="none" stroke="midnightblue" d="M243.742,-52.096C265.04,-42.0073 294.042,-28.2697 312.521,-19.5164"/>
<polygon fill="midnightblue" stroke="midnightblue" points="242.103,-48.9995 234.564,-56.4435 245.099,-55.3257 242.103,-48.9995"/>
</g>
<!-- Node6 -->
<g id="node6" class="node"><title>Node6</title>
<g id="a_node6"><a xlink:href="agent__transmitter2_8cpp.html" target="_top" xlink:title="agent_transmitter2.cpp">
<polygon fill="white" stroke="black" points="404.5,-0.5 404.5,-19.5 520.5,-19.5 520.5,-0.5 404.5,-0.5"/>
<text text-anchor="middle" x="462.5" y="-7.5" font-family="Helvetica,sans-Serif" font-size="10.00">agent_transmitter2.cpp</text>
</a>
</g>
</g>
<!-- Node1&#45;&gt;Node6 -->
<g id="edge5" class="edge"><title>Node1&#45;&gt;Node6</title>
<path fill="none" stroke="midnightblue" d="M253.096,-56.9667C298.855,-46.9221 376.849,-29.8014 423.641,-19.5299"/>
<polygon fill="midnightblue" stroke="midnightblue" points="252.312,-53.5555 243.295,-59.1183 253.813,-60.3927 252.312,-53.5555"/>
</g>
</g>
</svg>
