<?xml version="1.0" encoding="UTF-8" standalone="no"?>
<!DOCTYPE svg PUBLIC "-//W3C//DTD SVG 1.1//EN"
 "http://www.w3.org/Graphics/SVG/1.1/DTD/svg11.dtd">
<!-- Generated by graphviz version 2.38.0 (20140413.2041)
 -->
<!-- Title: kisstnc_lib.cpp Pages: 1 -->
<svg width="1764pt" height="442pt"
 viewBox="0.00 0.00 1763.50 442.00" xmlns="http://www.w3.org/2000/svg" xmlns:xlink="http://www.w3.org/1999/xlink">
<g id="graph0" class="graph" transform="scale(1 1) rotate(0) translate(4 438)">
<title>kisstnc_lib.cpp</title>
<polygon fill="white" stroke="none" points="-4,4 -4,-438 1759.5,-438 1759.5,4 -4,4"/>
<!-- Node1 -->
<g id="node1" class="node"><title>Node1</title>
<polygon fill="#bfbfbf" stroke="black" points="1112.5,-414.5 1112.5,-433.5 1194.5,-433.5 1194.5,-414.5 1112.5,-414.5"/>
<text text-anchor="middle" x="1153.5" y="-421.5" font-family="Helvetica,sans-Serif" font-size="10.00">kisstnc_lib.cpp</text>
</g>
<!-- Node2 -->
<g id="node2" class="node"><title>Node2</title>
<g id="a_node2"><a xlink:href="kisstnc__lib_8h.html" target="_top" xlink:title="KISSTNC controller includes. ">
<polygon fill="white" stroke="black" points="1096.5,-347.5 1096.5,-377.5 1210.5,-377.5 1210.5,-347.5 1096.5,-347.5"/>
<text text-anchor="start" x="1104.5" y="-365.5" font-family="Helvetica,sans-Serif" font-size="10.00">device/general/kisstnc</text>
<text text-anchor="middle" x="1153.5" y="-354.5" font-family="Helvetica,sans-Serif" font-size="10.00">_lib.h</text>
</a>
</g>
</g>
<!-- Node1&#45;&gt;Node2 -->
<g id="edge1" class="edge"><title>Node1&#45;&gt;Node2</title>
<path fill="none" stroke="midnightblue" d="M1153.5,-414.475C1153.5,-407.471 1153.5,-397.192 1153.5,-387.696"/>
<polygon fill="midnightblue" stroke="midnightblue" points="1157,-387.523 1153.5,-377.523 1150,-387.523 1157,-387.523"/>
</g>
<!-- Node3 -->
<g id="node3" class="node"><title>Node3</title>
<g id="a_node3"><a xlink:href="config_cosmos_8h.html" target="_top" xlink:title="Headers and definitions common to all COSMOS. ">
<polygon fill="white" stroke="black" points="914,-112.5 914,-131.5 1037,-131.5 1037,-112.5 914,-112.5"/>
<text text-anchor="middle" x="975.5" y="-119.5" font-family="Helvetica,sans-Serif" font-size="10.00">support/configCosmos.h</text>
</a>
</g>
</g>
<!-- Node2&#45;&gt;Node3 -->
<g id="edge2" class="edge"><title>Node2&#45;&gt;Node3</title>
<path fill="none" stroke="midnightblue" d="M1096.43,-355.51C1065.56,-349.301 1029.2,-336.672 1006.5,-311 963.802,-262.718 968.142,-179.026 972.652,-141.795"/>
<polygon fill="midnightblue" stroke="midnightblue" points="976.129,-142.202 974.005,-131.822 969.192,-141.261 976.129,-142.202"/>
</g>
<!-- Node36 -->
<g id="node36" class="node"><title>Node36</title>
<polygon fill="white" stroke="#bfbfbf" points="1269.5,-286 1269.5,-305 1315.5,-305 1315.5,-286 1269.5,-286"/>
<text text-anchor="middle" x="1292.5" y="-293" font-family="Helvetica,sans-Serif" font-size="10.00">stdio.h</text>
</g>
<!-- Node2&#45;&gt;Node36 -->
<g id="edge44" class="edge"><title>Node2&#45;&gt;Node36</title>
<path fill="none" stroke="midnightblue" d="M1183.66,-347.396C1207.94,-336.041 1241.78,-320.22 1265.25,-309.244"/>
<polygon fill="midnightblue" stroke="midnightblue" points="1266.73,-312.414 1274.31,-305.007 1263.77,-306.073 1266.73,-312.414"/>
</g>
<!-- Node37 -->
<g id="node37" class="node"><title>Node37</title>
<polygon fill="white" stroke="#bfbfbf" points="1174,-112.5 1174,-131.5 1221,-131.5 1221,-112.5 1174,-112.5"/>
<text text-anchor="middle" x="1197.5" y="-119.5" font-family="Helvetica,sans-Serif" font-size="10.00">errno.h</text>
</g>
<!-- Node2&#45;&gt;Node37 -->
<g id="edge45" class="edge"><title>Node2&#45;&gt;Node37</title>
<path fill="none" stroke="midnightblue" d="M1161.36,-347.216C1176.8,-318.254 1210.61,-250.083 1222.5,-188 1224.17,-179.27 1224.73,-176.605 1222.5,-168 1219.95,-158.175 1214.75,-148.212 1209.74,-140.166"/>
<polygon fill="midnightblue" stroke="midnightblue" points="1212.58,-138.114 1204.13,-131.725 1206.75,-141.99 1212.58,-138.114"/>
</g>
<!-- Node38 -->
<g id="node38" class="node"><title>Node38</title>
<g id="a_node38"><a xlink:href="cssl__lib_8h.html" target="_top" xlink:title="Simple Serial library header file. ">
<polygon fill="white" stroke="black" points="1015,-280.5 1015,-310.5 1116,-310.5 1116,-280.5 1015,-280.5"/>
<text text-anchor="start" x="1023" y="-298.5" font-family="Helvetica,sans-Serif" font-size="10.00">device/general/cssl</text>
<text text-anchor="middle" x="1065.5" y="-287.5" font-family="Helvetica,sans-Serif" font-size="10.00">_lib.h</text>
</a>
</g>
</g>
<!-- Node2&#45;&gt;Node38 -->
<g id="edge46" class="edge"><title>Node2&#45;&gt;Node38</title>
<path fill="none" stroke="midnightblue" d="M1134.41,-347.396C1122.18,-338.367 1106.13,-326.514 1092.6,-316.518"/>
<polygon fill="midnightblue" stroke="midnightblue" points="1094.68,-313.703 1084.56,-310.577 1090.52,-319.333 1094.68,-313.703"/>
</g>
<!-- Node40 -->
<g id="node40" class="node"><title>Node40</title>
<g id="a_node40"><a xlink:href="cosmos-errno_8h.html" target="_top" xlink:title="COSMOS Error Codes. ">
<polygon fill="white" stroke="black" points="1094,-168.5 1094,-187.5 1213,-187.5 1213,-168.5 1094,-168.5"/>
<text text-anchor="middle" x="1153.5" y="-175.5" font-family="Helvetica,sans-Serif" font-size="10.00">support/cosmos&#45;errno.h</text>
</a>
</g>
</g>
<!-- Node2&#45;&gt;Node40 -->
<g id="edge54" class="edge"><title>Node2&#45;&gt;Node40</title>
<path fill="none" stroke="midnightblue" d="M1153.5,-347.483C1153.5,-315.097 1153.5,-235.037 1153.5,-198.159"/>
<polygon fill="midnightblue" stroke="midnightblue" points="1157,-197.819 1153.5,-187.819 1150,-197.819 1157,-197.819"/>
</g>
<!-- Node4 -->
<g id="node4" class="node"><title>Node4</title>
<polygon fill="white" stroke="#bfbfbf" points="1646,-56.5 1646,-75.5 1691,-75.5 1691,-56.5 1646,-56.5"/>
<text text-anchor="middle" x="1668.5" y="-63.5" font-family="Helvetica,sans-Serif" font-size="10.00">climits</text>
</g>
<!-- Node3&#45;&gt;Node4 -->
<g id="edge3" class="edge"><title>Node3&#45;&gt;Node4</title>
<path fill="none" stroke="midnightblue" d="M1037.27,-113.389C1042.08,-112.887 1046.87,-112.416 1051.5,-112 1308.09,-88.9442 1378.63,-119.845 1635.93,-75.9052"/>
<polygon fill="midnightblue" stroke="midnightblue" points="1636.69,-79.3255 1645.95,-74.1728 1635.5,-72.4279 1636.69,-79.3255"/>
</g>
<!-- Node5 -->
<g id="node5" class="node"><title>Node5</title>
<polygon fill="white" stroke="#bfbfbf" points="0,-56.5 0,-75.5 47,-75.5 47,-56.5 0,-56.5"/>
<text text-anchor="middle" x="23.5" y="-63.5" font-family="Helvetica,sans-Serif" font-size="10.00">csignal</text>
</g>
<!-- Node3&#45;&gt;Node5 -->
<g id="edge4" class="edge"><title>Node3&#45;&gt;Node5</title>
<path fill="none" stroke="midnightblue" d="M913.829,-119.727C738.963,-115.846 241.279,-102.849 57.2552,-75.6703"/>
<polygon fill="midnightblue" stroke="midnightblue" points="57.5752,-72.1784 47.1586,-74.1136 56.5085,-79.0966 57.5752,-72.1784"/>
</g>
<!-- Node6 -->
<g id="node6" class="node"><title>Node6</title>
<polygon fill="white" stroke="#bfbfbf" points="65.5,-56.5 65.5,-75.5 111.5,-75.5 111.5,-56.5 65.5,-56.5"/>
<text text-anchor="middle" x="88.5" y="-63.5" font-family="Helvetica,sans-Serif" font-size="10.00">cstdint</text>
</g>
<!-- Node3&#45;&gt;Node6 -->
<g id="edge5" class="edge"><title>Node3&#45;&gt;Node6</title>
<path fill="none" stroke="midnightblue" d="M913.908,-119.53C747.783,-115.29 292.134,-101.761 121.857,-75.7991"/>
<polygon fill="midnightblue" stroke="midnightblue" points="122.21,-72.3113 111.784,-74.1924 121.108,-79.2239 122.21,-72.3113"/>
</g>
<!-- Node7 -->
<g id="node7" class="node"><title>Node7</title>
<polygon fill="white" stroke="#bfbfbf" points="129.5,-56.5 129.5,-75.5 185.5,-75.5 185.5,-56.5 129.5,-56.5"/>
<text text-anchor="middle" x="157.5" y="-63.5" font-family="Helvetica,sans-Serif" font-size="10.00">cinttypes</text>
</g>
<!-- Node3&#45;&gt;Node7 -->
<g id="edge6" class="edge"><title>Node3&#45;&gt;Node7</title>
<path fill="none" stroke="midnightblue" d="M913.854,-121.226C783.021,-120.888 467.951,-115.754 195.749,-75.9041"/>
<polygon fill="midnightblue" stroke="midnightblue" points="196.083,-72.4155 185.678,-74.4108 195.056,-79.3398 196.083,-72.4155"/>
</g>
<!-- Node8 -->
<g id="node8" class="node"><title>Node8</title>
<polygon fill="white" stroke="#bfbfbf" points="204,-56.5 204,-75.5 247,-75.5 247,-56.5 204,-56.5"/>
<text text-anchor="middle" x="225.5" y="-63.5" font-family="Helvetica,sans-Serif" font-size="10.00">cstdio</text>
</g>
<!-- Node3&#45;&gt;Node8 -->
<g id="edge7" class="edge"><title>Node3&#45;&gt;Node8</title>
<path fill="none" stroke="midnightblue" d="M913.774,-121.872C790.226,-122.596 503.9,-119.136 257.181,-75.9276"/>
<polygon fill="midnightblue" stroke="midnightblue" points="257.773,-72.478 247.315,-74.1745 256.548,-79.37 257.773,-72.478"/>
</g>
<!-- Node9 -->
<g id="node9" class="node"><title>Node9</title>
<polygon fill="white" stroke="#bfbfbf" points="265,-56.5 265,-75.5 314,-75.5 314,-56.5 265,-56.5"/>
<text text-anchor="middle" x="289.5" y="-63.5" font-family="Helvetica,sans-Serif" font-size="10.00">cstddef</text>
</g>
<!-- Node3&#45;&gt;Node9 -->
<g id="edge8" class="edge"><title>Node3&#45;&gt;Node9</title>
<path fill="none" stroke="midnightblue" d="M913.805,-120.79C799.139,-119.522 545.459,-112.595 324.417,-76.0206"/>
<polygon fill="midnightblue" stroke="midnightblue" points="324.691,-72.5176 314.249,-74.3131 323.531,-79.421 324.691,-72.5176"/>
</g>
<!-- Node10 -->
<g id="node10" class="node"><title>Node10</title>
<polygon fill="white" stroke="#bfbfbf" points="332,-56.5 332,-75.5 377,-75.5 377,-56.5 332,-56.5"/>
<text text-anchor="middle" x="354.5" y="-63.5" font-family="Helvetica,sans-Serif" font-size="10.00">cstdlib</text>
</g>
<!-- Node3&#45;&gt;Node10 -->
<g id="edge9" class="edge"><title>Node3&#45;&gt;Node10</title>
<path fill="none" stroke="midnightblue" d="M913.95,-120.293C808.015,-118.204 584.439,-109.977 387.07,-75.7107"/>
<polygon fill="midnightblue" stroke="midnightblue" points="387.553,-72.242 377.097,-73.9529 386.338,-79.1357 387.553,-72.242"/>
</g>
<!-- Node11 -->
<g id="node11" class="node"><title>Node11</title>
<polygon fill="white" stroke="#bfbfbf" points="395.5,-56.5 395.5,-75.5 439.5,-75.5 439.5,-56.5 395.5,-56.5"/>
<text text-anchor="middle" x="417.5" y="-63.5" font-family="Helvetica,sans-Serif" font-size="10.00">cerrno</text>
</g>
<!-- Node3&#45;&gt;Node11 -->
<g id="edge10" class="edge"><title>Node3&#45;&gt;Node11</title>
<path fill="none" stroke="midnightblue" d="M913.712,-119.667C816.614,-116.707 622.414,-107.301 449.755,-75.8769"/>
<polygon fill="midnightblue" stroke="midnightblue" points="450.194,-72.399 439.724,-74.0218 448.921,-79.2822 450.194,-72.399"/>
</g>
<!-- Node12 -->
<g id="node12" class="node"><title>Node12</title>
<polygon fill="white" stroke="#bfbfbf" points="1709.5,-56.5 1709.5,-75.5 1755.5,-75.5 1755.5,-56.5 1709.5,-56.5"/>
<text text-anchor="middle" x="1732.5" y="-63.5" font-family="Helvetica,sans-Serif" font-size="10.00">cstring</text>
</g>
<!-- Node3&#45;&gt;Node12 -->
<g id="edge11" class="edge"><title>Node3&#45;&gt;Node12</title>
<path fill="none" stroke="midnightblue" d="M1037.27,-113.358C1042.08,-112.863 1046.87,-112.402 1051.5,-112 1335.93,-87.2943 1413.71,-122.546 1698.98,-75.8795"/>
<polygon fill="midnightblue" stroke="midnightblue" points="1699.92,-79.2712 1709.21,-74.1846 1698.78,-72.3652 1699.92,-79.2712"/>
</g>
<!-- Node13 -->
<g id="node13" class="node"><title>Node13</title>
<polygon fill="white" stroke="#bfbfbf" points="457.5,-56.5 457.5,-75.5 501.5,-75.5 501.5,-56.5 457.5,-56.5"/>
<text text-anchor="middle" x="479.5" y="-63.5" font-family="Helvetica,sans-Serif" font-size="10.00">cmath</text>
</g>
<!-- Node3&#45;&gt;Node13 -->
<g id="edge12" class="edge"><title>Node3&#45;&gt;Node13</title>
<path fill="none" stroke="midnightblue" d="M913.838,-118.503C826.403,-114.194 661.371,-103.231 511.602,-75.6465"/>
<polygon fill="midnightblue" stroke="midnightblue" points="512.233,-72.2039 501.76,-73.8054 510.946,-79.0846 512.233,-72.2039"/>
</g>
<!-- Node14 -->
<g id="node14" class="node"><title>Node14</title>
<polygon fill="white" stroke="#bfbfbf" points="520,-56.5 520,-75.5 565,-75.5 565,-56.5 520,-56.5"/>
<text text-anchor="middle" x="542.5" y="-63.5" font-family="Helvetica,sans-Serif" font-size="10.00">iosfwd</text>
</g>
<!-- Node3&#45;&gt;Node14 -->
<g id="edge13" class="edge"><title>Node3&#45;&gt;Node14</title>
<path fill="none" stroke="midnightblue" d="M913.886,-117.206C836.844,-111.768 700.855,-99.8891 575.293,-75.8327"/>
<polygon fill="midnightblue" stroke="midnightblue" points="575.601,-72.3269 565.116,-73.8513 574.263,-79.1979 575.601,-72.3269"/>
</g>
<!-- Node15 -->
<g id="node15" class="node"><title>Node15</title>
<polygon fill="white" stroke="#bfbfbf" points="583.5,-56.5 583.5,-75.5 637.5,-75.5 637.5,-56.5 583.5,-56.5"/>
<text text-anchor="middle" x="610.5" y="-63.5" font-family="Helvetica,sans-Serif" font-size="10.00">iostream</text>
</g>
<!-- Node3&#45;&gt;Node15 -->
<g id="edge14" class="edge"><title>Node3&#45;&gt;Node15</title>
<path fill="none" stroke="midnightblue" d="M913.931,-114.609C849.722,-107.488 746.004,-94.7015 647.389,-75.9892"/>
<polygon fill="midnightblue" stroke="midnightblue" points="648.037,-72.5497 637.556,-74.1001 646.716,-79.424 648.037,-72.5497"/>
</g>
<!-- Node16 -->
<g id="node16" class="node"><title>Node16</title>
<polygon fill="white" stroke="#bfbfbf" points="655.5,-56.5 655.5,-75.5 707.5,-75.5 707.5,-56.5 655.5,-56.5"/>
<text text-anchor="middle" x="681.5" y="-63.5" font-family="Helvetica,sans-Serif" font-size="10.00">sstream</text>
</g>
<!-- Node3&#45;&gt;Node16 -->
<g id="edge15" class="edge"><title>Node3&#45;&gt;Node16</title>
<path fill="none" stroke="midnightblue" d="M919.917,-112.496C869.767,-104.555 793.766,-91.8549 717.997,-75.9662"/>
<polygon fill="midnightblue" stroke="midnightblue" points="718.303,-72.4535 707.795,-73.8069 716.854,-79.3018 718.303,-72.4535"/>
</g>
<!-- Node17 -->
<g id="node17" class="node"><title>Node17</title>
<polygon fill="white" stroke="#bfbfbf" points="726,-56.5 726,-75.5 767,-75.5 767,-56.5 726,-56.5"/>
<text text-anchor="middle" x="746.5" y="-63.5" font-family="Helvetica,sans-Serif" font-size="10.00">regex</text>
</g>
<!-- Node3&#45;&gt;Node17 -->
<g id="edge16" class="edge"><title>Node3&#45;&gt;Node17</title>
<path fill="none" stroke="midnightblue" d="M933.752,-112.437C895.476,-104.39 837.027,-91.6133 777.119,-76.016"/>
<polygon fill="midnightblue" stroke="midnightblue" points="777.665,-72.5406 767.104,-73.3852 775.887,-79.311 777.665,-72.5406"/>
</g>
<!-- Node18 -->
<g id="node18" class="node"><title>Node18</title>
<polygon fill="white" stroke="#bfbfbf" points="785.5,-56.5 785.5,-75.5 835.5,-75.5 835.5,-56.5 785.5,-56.5"/>
<text text-anchor="middle" x="810.5" y="-63.5" font-family="Helvetica,sans-Serif" font-size="10.00">iomanip</text>
</g>
<!-- Node3&#45;&gt;Node18 -->
<g id="edge17" class="edge"><title>Node3&#45;&gt;Node18</title>
<path fill="none" stroke="midnightblue" d="M949.355,-112.444C921.231,-103.239 876.368,-88.5568 845.281,-78.3829"/>
<polygon fill="midnightblue" stroke="midnightblue" points="846.303,-75.0349 835.711,-75.2508 844.126,-81.6876 846.303,-75.0349"/>
</g>
<!-- Node19 -->
<g id="node19" class="node"><title>Node19</title>
<polygon fill="white" stroke="#bfbfbf" points="854,-56.5 854,-75.5 905,-75.5 905,-56.5 854,-56.5"/>
<text text-anchor="middle" x="879.5" y="-63.5" font-family="Helvetica,sans-Serif" font-size="10.00">unistd.h</text>
</g>
<!-- Node3&#45;&gt;Node19 -->
<g id="edge18" class="edge"><title>Node3&#45;&gt;Node19</title>
<path fill="none" stroke="midnightblue" d="M960.076,-112.324C944.96,-103.822 921.685,-90.7288 904.029,-80.7975"/>
<polygon fill="midnightblue" stroke="midnightblue" points="905.317,-77.5066 894.886,-75.6545 901.886,-83.6077 905.317,-77.5066"/>
</g>
<!-- Node20 -->
<g id="node20" class="node"><title>Node20</title>
<polygon fill="white" stroke="#bfbfbf" points="923.5,-56.5 923.5,-75.5 967.5,-75.5 967.5,-56.5 923.5,-56.5"/>
<text text-anchor="middle" x="945.5" y="-63.5" font-family="Helvetica,sans-Serif" font-size="10.00">fcntl.h</text>
</g>
<!-- Node3&#45;&gt;Node20 -->
<g id="edge19" class="edge"><title>Node3&#45;&gt;Node20</title>
<path fill="none" stroke="midnightblue" d="M970.546,-112.083C966.396,-104.613 960.347,-93.7244 955.233,-84.5199"/>
<polygon fill="midnightblue" stroke="midnightblue" points="958.278,-82.7929 950.362,-75.7511 952.159,-86.1924 958.278,-82.7929"/>
</g>
<!-- Node21 -->
<g id="node21" class="node"><title>Node21</title>
<polygon fill="white" stroke="#bfbfbf" points="985.5,-56.5 985.5,-75.5 1025.5,-75.5 1025.5,-56.5 985.5,-56.5"/>
<text text-anchor="middle" x="1005.5" y="-63.5" font-family="Helvetica,sans-Serif" font-size="10.00">limits</text>
</g>
<!-- Node3&#45;&gt;Node21 -->
<g id="edge20" class="edge"><title>Node3&#45;&gt;Node21</title>
<path fill="none" stroke="midnightblue" d="M980.454,-112.083C984.604,-104.613 990.653,-93.7244 995.767,-84.5199"/>
<polygon fill="midnightblue" stroke="midnightblue" points="998.841,-86.1924 1000.64,-75.7511 992.722,-82.7929 998.841,-86.1924"/>
</g>
<!-- Node22 -->
<g id="node22" class="node"><title>Node22</title>
<polygon fill="white" stroke="#bfbfbf" points="1587,-0.5 1587,-19.5 1628,-19.5 1628,-0.5 1587,-0.5"/>
<text text-anchor="middle" x="1607.5" y="-7.5" font-family="Helvetica,sans-Serif" font-size="10.00">string</text>
</g>
<!-- Node3&#45;&gt;Node22 -->
<g id="edge21" class="edge"><title>Node3&#45;&gt;Node22</title>
<path fill="none" stroke="midnightblue" d="M1037.28,-113.507C1042.09,-112.978 1046.87,-112.469 1051.5,-112 1240.98,-92.7988 1295.41,-128.446 1478.5,-76 1497.23,-70.6358 1500.12,-64.8003 1517.5,-56 1538.8,-45.2125 1563.01,-33.1157 1580.96,-24.1832"/>
<polygon fill="midnightblue" stroke="midnightblue" points="1582.83,-27.1623 1590.22,-19.5746 1579.71,-20.895 1582.83,-27.1623"/>
</g>
<!-- Node23 -->
<g id="node23" class="node"><title>Node23</title>
<polygon fill="white" stroke="#bfbfbf" points="1309.5,-0.5 1309.5,-19.5 1353.5,-19.5 1353.5,-0.5 1309.5,-0.5"/>
<text text-anchor="middle" x="1331.5" y="-7.5" font-family="Helvetica,sans-Serif" font-size="10.00">vector</text>
</g>
<!-- Node3&#45;&gt;Node23 -->
<g id="edge22" class="edge"><title>Node3&#45;&gt;Node23</title>
<path fill="none" stroke="midnightblue" d="M1037.09,-113.183C1129.59,-101.34 1294.21,-79.8195 1299.5,-76 1314.76,-64.9749 1323.11,-44.6231 1327.42,-29.6191"/>
<polygon fill="midnightblue" stroke="midnightblue" points="1330.83,-30.4009 1329.88,-19.8488 1324.05,-28.6903 1330.83,-30.4009"/>
</g>
<!-- Node24 -->
<g id="node24" class="node"><title>Node24</title>
<polygon fill="white" stroke="#bfbfbf" points="1526,-56.5 1526,-75.5 1567,-75.5 1567,-56.5 1526,-56.5"/>
<text text-anchor="middle" x="1546.5" y="-63.5" font-family="Helvetica,sans-Serif" font-size="10.00">stack</text>
</g>
<!-- Node3&#45;&gt;Node24 -->
<g id="edge23" class="edge"><title>Node3&#45;&gt;Node24</title>
<path fill="none" stroke="midnightblue" d="M1037.28,-113.476C1042.09,-112.954 1046.87,-112.455 1051.5,-112 1255.59,-91.938 1309.21,-109.662 1511.5,-76 1512.97,-75.7554 1514.47,-75.4787 1515.98,-75.178"/>
<polygon fill="midnightblue" stroke="midnightblue" points="1516.92,-78.5534 1525.9,-72.9304 1515.37,-71.7264 1516.92,-78.5534"/>
</g>
<!-- Node25 -->
<g id="node25" class="node"><title>Node25</title>
<polygon fill="white" stroke="#bfbfbf" points="1585,-56.5 1585,-75.5 1628,-75.5 1628,-56.5 1585,-56.5"/>
<text text-anchor="middle" x="1606.5" y="-63.5" font-family="Helvetica,sans-Serif" font-size="10.00">deque</text>
</g>
<!-- Node3&#45;&gt;Node25 -->
<g id="edge24" class="edge"><title>Node3&#45;&gt;Node25</title>
<path fill="none" stroke="midnightblue" d="M1037.27,-113.426C1042.09,-112.915 1046.87,-112.433 1051.5,-112 1281.07,-90.5493 1344.6,-117.09 1574.66,-75.9728"/>
<polygon fill="midnightblue" stroke="midnightblue" points="1575.47,-79.3847 1584.68,-74.1588 1574.22,-72.4967 1575.47,-79.3847"/>
</g>
<!-- Node26 -->
<g id="node26" class="node"><title>Node26</title>
<polygon fill="white" stroke="#bfbfbf" points="963.5,-0.5 963.5,-19.5 1007.5,-19.5 1007.5,-0.5 963.5,-0.5"/>
<text text-anchor="middle" x="985.5" y="-7.5" font-family="Helvetica,sans-Serif" font-size="10.00">mutex</text>
</g>
<!-- Node3&#45;&gt;Node26 -->
<g id="edge25" class="edge"><title>Node3&#45;&gt;Node26</title>
<path fill="none" stroke="midnightblue" d="M994.484,-112.398C1008.39,-104.954 1026.21,-92.741 1034.5,-76 1043.9,-57.0176 1025.49,-37.9829 1008.62,-25.4633"/>
<polygon fill="midnightblue" stroke="midnightblue" points="1010.31,-22.3714 1000.1,-19.545 1006.32,-28.1221 1010.31,-22.3714"/>
</g>
<!-- Node27 -->
<g id="node27" class="node"><title>Node27</title>
<polygon fill="white" stroke="#bfbfbf" points="1025.5,-0.5 1025.5,-19.5 1069.5,-19.5 1069.5,-0.5 1025.5,-0.5"/>
<text text-anchor="middle" x="1047.5" y="-7.5" font-family="Helvetica,sans-Serif" font-size="10.00">thread</text>
</g>
<!-- Node3&#45;&gt;Node27 -->
<g id="edge26" class="edge"><title>Node3&#45;&gt;Node27</title>
<path fill="none" stroke="midnightblue" d="M1002.43,-112.356C1019.22,-105.411 1039.48,-93.8247 1049.5,-76 1057.45,-61.8673 1055.85,-43.1358 1052.91,-29.4125"/>
<polygon fill="midnightblue" stroke="midnightblue" points="1056.29,-28.4903 1050.43,-19.664 1049.51,-30.2186 1056.29,-28.4903"/>
</g>
<!-- Node28 -->
<g id="node28" class="node"><title>Node28</title>
<polygon fill="white" stroke="#bfbfbf" points="1088,-0.5 1088,-19.5 1183,-19.5 1183,-0.5 1088,-0.5"/>
<text text-anchor="middle" x="1135.5" y="-7.5" font-family="Helvetica,sans-Serif" font-size="10.00">condition_variable</text>
</g>
<!-- Node3&#45;&gt;Node28 -->
<g id="edge27" class="edge"><title>Node3&#45;&gt;Node28</title>
<path fill="none" stroke="midnightblue" d="M996.815,-112.401C1015.67,-104.324 1043.53,-91.2241 1065.5,-76 1086.24,-61.6284 1107.05,-41.3814 1120.52,-27.3184"/>
<polygon fill="midnightblue" stroke="midnightblue" points="1123.25,-29.5266 1127.55,-19.8441 1118.15,-24.7311 1123.25,-29.5266"/>
</g>
<!-- Node29 -->
<g id="node29" class="node"><title>Node29</title>
<polygon fill="white" stroke="#bfbfbf" points="1248,-0.5 1248,-19.5 1291,-19.5 1291,-0.5 1248,-0.5"/>
<text text-anchor="middle" x="1269.5" y="-7.5" font-family="Helvetica,sans-Serif" font-size="10.00">queue</text>
</g>
<!-- Node3&#45;&gt;Node29 -->
<g id="edge28" class="edge"><title>Node3&#45;&gt;Node29</title>
<path fill="none" stroke="midnightblue" d="M1037.35,-112.96C1125.86,-101.311 1278.5,-80.6236 1282.5,-76 1293.75,-62.9821 1287.43,-43.0012 1280.22,-28.6295"/>
<polygon fill="midnightblue" stroke="midnightblue" points="1283.2,-26.7843 1275.29,-19.7305 1277.07,-30.1746 1283.2,-26.7843"/>
</g>
<!-- Node30 -->
<g id="node30" class="node"><title>Node30</title>
<polygon fill="white" stroke="#bfbfbf" points="1372,-0.5 1372,-19.5 1407,-19.5 1407,-0.5 1372,-0.5"/>
<text text-anchor="middle" x="1389.5" y="-7.5" font-family="Helvetica,sans-Serif" font-size="10.00">map</text>
</g>
<!-- Node3&#45;&gt;Node30 -->
<g id="edge29" class="edge"><title>Node3&#45;&gt;Node30</title>
<path fill="none" stroke="midnightblue" d="M1037.14,-113.476C1134.89,-101.477 1315.14,-79.0422 1321.5,-76 1344.65,-64.9267 1365.01,-42.9529 1377.27,-27.6352"/>
<polygon fill="midnightblue" stroke="midnightblue" points="1380.19,-29.5777 1383.52,-19.5182 1374.65,-25.3085 1380.19,-29.5777"/>
</g>
<!-- Node31 -->
<g id="node31" class="node"><title>Node31</title>
<g id="a_node31"><a xlink:href="cosmos-defs_8h.html" target="_top" xlink:title="COSMOS definitions Definitions specific to the COSMOS environement. ">
<polygon fill="white" stroke="black" points="1157.5,-56.5 1157.5,-75.5 1273.5,-75.5 1273.5,-56.5 1157.5,-56.5"/>
<text text-anchor="middle" x="1215.5" y="-63.5" font-family="Helvetica,sans-Serif" font-size="10.00">support/cosmos&#45;defs.h</text>
</a>
</g>
</g>
<!-- Node3&#45;&gt;Node31 -->
<g id="edge30" class="edge"><title>Node3&#45;&gt;Node31</title>
<path fill="none" stroke="midnightblue" d="M1013.53,-112.444C1055.31,-103.043 1122.48,-87.9291 1167.77,-77.7393"/>
<polygon fill="midnightblue" stroke="midnightblue" points="1168.66,-81.1263 1177.65,-75.5164 1167.12,-74.297 1168.66,-81.1263"/>
</g>
<!-- Node33 -->
<g id="node33" class="node"><title>Node33</title>
<g id="a_node33"><a xlink:href="json11_8hpp.html" target="_top" xlink:title="json11.hpp">
<polygon fill="white" stroke="black" points="1405.5,-56.5 1405.5,-75.5 1469.5,-75.5 1469.5,-56.5 1405.5,-56.5"/>
<text text-anchor="middle" x="1437.5" y="-63.5" font-family="Helvetica,sans-Serif" font-size="10.00">json11.hpp</text>
</a>
</g>
</g>
<!-- Node3&#45;&gt;Node33 -->
<g id="edge38" class="edge"><title>Node3&#45;&gt;Node33</title>
<path fill="none" stroke="midnightblue" d="M1037.29,-113.617C1042.1,-113.063 1046.88,-112.518 1051.5,-112 1202.51,-95.0647 1241.24,-98.6104 1391.5,-76 1392.77,-75.8093 1394.05,-75.608 1395.35,-75.3981"/>
<polygon fill="midnightblue" stroke="midnightblue" points="1396.14,-78.8137 1405.39,-73.6548 1394.94,-71.9169 1396.14,-78.8137"/>
</g>
<!-- Node31&#45;&gt;Node23 -->
<g id="edge32" class="edge"><title>Node31&#45;&gt;Node23</title>
<path fill="none" stroke="midnightblue" d="M1233.88,-56.4435C1252.72,-47.6751 1282.23,-33.9355 1303.88,-23.8579"/>
<polygon fill="midnightblue" stroke="midnightblue" points="1305.62,-26.9098 1313.21,-19.5164 1302.66,-20.5637 1305.62,-26.9098"/>
</g>
<!-- Node31&#45;&gt;Node26 -->
<g id="edge36" class="edge"><title>Node31&#45;&gt;Node26</title>
<path fill="none" stroke="midnightblue" d="M1174.55,-56.4926C1136.32,-48.384 1077.48,-35.4763 1017.78,-20.2195"/>
<polygon fill="midnightblue" stroke="midnightblue" points="1018.36,-16.7554 1007.81,-17.6501 1016.62,-23.5341 1018.36,-16.7554"/>
</g>
<!-- Node31&#45;&gt;Node27 -->
<g id="edge35" class="edge"><title>Node31&#45;&gt;Node27</title>
<path fill="none" stroke="midnightblue" d="M1188.88,-56.4435C1159.16,-46.8902 1111.08,-31.436 1079.38,-21.2461"/>
<polygon fill="midnightblue" stroke="midnightblue" points="1080.29,-17.8649 1069.7,-18.1368 1078.15,-24.5291 1080.29,-17.8649"/>
</g>
<!-- Node31&#45;&gt;Node28 -->
<g id="edge37" class="edge"><title>Node31&#45;&gt;Node28</title>
<path fill="none" stroke="midnightblue" d="M1202.65,-56.324C1190.28,-47.979 1171.37,-35.2122 1156.76,-25.3524"/>
<polygon fill="midnightblue" stroke="midnightblue" points="1158.57,-22.3483 1148.32,-19.6545 1154.65,-28.1503 1158.57,-22.3483"/>
</g>
<!-- Node31&#45;&gt;Node29 -->
<g id="edge34" class="edge"><title>Node31&#45;&gt;Node29</title>
<path fill="none" stroke="midnightblue" d="M1224.42,-56.083C1232.28,-48.2195 1243.93,-36.5688 1253.42,-27.0813"/>
<polygon fill="midnightblue" stroke="midnightblue" points="1256.15,-29.2971 1260.75,-19.7511 1251.2,-24.3473 1256.15,-29.2971"/>
</g>
<!-- Node31&#45;&gt;Node30 -->
<g id="edge31" class="edge"><title>Node31&#45;&gt;Node30</title>
<path fill="none" stroke="midnightblue" d="M1244.02,-56.4967C1271.77,-48.1726 1315.36,-34.9676 1362.1,-20.0708"/>
<polygon fill="midnightblue" stroke="midnightblue" points="1363.34,-23.3483 1371.8,-16.9689 1361.21,-16.6809 1363.34,-23.3483"/>
</g>
<!-- Node32 -->
<g id="node32" class="node"><title>Node32</title>
<polygon fill="white" stroke="#bfbfbf" points="1201,-0.5 1201,-19.5 1230,-19.5 1230,-0.5 1201,-0.5"/>
<text text-anchor="middle" x="1215.5" y="-7.5" font-family="Helvetica,sans-Serif" font-size="10.00">list</text>
</g>
<!-- Node31&#45;&gt;Node32 -->
<g id="edge33" class="edge"><title>Node31&#45;&gt;Node32</title>
<path fill="none" stroke="midnightblue" d="M1215.5,-56.083C1215.5,-49.0059 1215.5,-38.8611 1215.5,-29.9865"/>
<polygon fill="midnightblue" stroke="midnightblue" points="1219,-29.751 1215.5,-19.7511 1212,-29.7511 1219,-29.751"/>
</g>
<!-- Node33&#45;&gt;Node22 -->
<g id="edge39" class="edge"><title>Node33&#45;&gt;Node22</title>
<path fill="none" stroke="midnightblue" d="M1464.44,-56.4435C1495.1,-46.7024 1545.08,-30.826 1577.12,-20.6512"/>
<polygon fill="midnightblue" stroke="midnightblue" points="1578.37,-23.9263 1586.84,-17.5631 1576.25,-17.2548 1578.37,-23.9263"/>
</g>
<!-- Node33&#45;&gt;Node23 -->
<g id="edge40" class="edge"><title>Node33&#45;&gt;Node23</title>
<path fill="none" stroke="midnightblue" d="M1420.47,-56.324C1403.47,-47.6641 1377.12,-34.2424 1357.51,-24.249"/>
<polygon fill="midnightblue" stroke="midnightblue" points="1358.99,-21.0752 1348.49,-19.6545 1355.81,-27.3125 1358.99,-21.0752"/>
</g>
<!-- Node33&#45;&gt;Node30 -->
<g id="edge41" class="edge"><title>Node33&#45;&gt;Node30</title>
<path fill="none" stroke="midnightblue" d="M1429.57,-56.083C1422.65,-48.2982 1412.43,-36.8015 1404.05,-27.3665"/>
<polygon fill="midnightblue" stroke="midnightblue" points="1406.54,-24.8999 1397.28,-19.7511 1401.31,-29.5505 1406.54,-24.8999"/>
</g>
<!-- Node34 -->
<g id="node34" class="node"><title>Node34</title>
<polygon fill="white" stroke="#bfbfbf" points="1425.5,-0.5 1425.5,-19.5 1477.5,-19.5 1477.5,-0.5 1425.5,-0.5"/>
<text text-anchor="middle" x="1451.5" y="-7.5" font-family="Helvetica,sans-Serif" font-size="10.00">memory</text>
</g>
<!-- Node33&#45;&gt;Node34 -->
<g id="edge42" class="edge"><title>Node33&#45;&gt;Node34</title>
<path fill="none" stroke="midnightblue" d="M1439.81,-56.083C1441.67,-48.9272 1444.34,-38.6353 1446.65,-29.6911"/>
<polygon fill="midnightblue" stroke="midnightblue" points="1450.11,-30.3094 1449.23,-19.7511 1443.33,-28.5527 1450.11,-30.3094"/>
</g>
<!-- Node35 -->
<g id="node35" class="node"><title>Node35</title>
<polygon fill="white" stroke="#bfbfbf" points="1496,-0.5 1496,-19.5 1569,-19.5 1569,-0.5 1496,-0.5"/>
<text text-anchor="middle" x="1532.5" y="-7.5" font-family="Helvetica,sans-Serif" font-size="10.00">initializer_list</text>
</g>
<!-- Node33&#45;&gt;Node35 -->
<g id="edge43" class="edge"><title>Node33&#45;&gt;Node35</title>
<path fill="none" stroke="midnightblue" d="M1452.76,-56.324C1467.72,-47.8215 1490.75,-34.7288 1508.23,-24.7975"/>
<polygon fill="midnightblue" stroke="midnightblue" points="1510.31,-27.639 1517.27,-19.6545 1506.85,-21.5534 1510.31,-27.639"/>
</g>
<!-- Node38&#45;&gt;Node3 -->
<g id="edge47" class="edge"><title>Node38&#45;&gt;Node3</title>
<path fill="none" stroke="midnightblue" d="M1047.26,-280.296C1036.4,-271.001 1023.11,-258.013 1014.5,-244 994.156,-210.898 983.35,-166.104 978.584,-141.352"/>
<polygon fill="midnightblue" stroke="midnightblue" points="982.027,-140.722 976.806,-131.503 975.138,-141.966 982.027,-140.722"/>
</g>
<!-- Node39 -->
<g id="node39" class="node"><title>Node39</title>
<g id="a_node39"><a xlink:href="sliplib_8h.html" target="_top" xlink:title="COSMOS SLIP support include file. ">
<polygon fill="white" stroke="black" points="1023,-224.5 1023,-243.5 1108,-243.5 1108,-224.5 1023,-224.5"/>
<text text-anchor="middle" x="1065.5" y="-231.5" font-family="Helvetica,sans-Serif" font-size="10.00">support/sliplib.h</text>
</a>
</g>
</g>
<!-- Node38&#45;&gt;Node39 -->
<g id="edge48" class="edge"><title>Node38&#45;&gt;Node39</title>
<path fill="none" stroke="midnightblue" d="M1065.5,-280.399C1065.5,-272.466 1065.5,-262.458 1065.5,-253.858"/>
<polygon fill="midnightblue" stroke="midnightblue" points="1069,-253.658 1065.5,-243.658 1062,-253.658 1069,-253.658"/>
</g>
<!-- Node39&#45;&gt;Node3 -->
<g id="edge49" class="edge"><title>Node39&#45;&gt;Node3</title>
<path fill="none" stroke="midnightblue" d="M1058.44,-224.368C1043.45,-206.055 1008.27,-163.049 988.887,-139.362"/>
<polygon fill="midnightblue" stroke="midnightblue" points="991.571,-137.115 982.529,-131.591 986.153,-141.547 991.571,-137.115"/>
</g>
<!-- Node39&#45;&gt;Node12 -->
<g id="edge53" class="edge"><title>Node39&#45;&gt;Node12</title>
<path fill="none" stroke="midnightblue" d="M1066.38,-224.201C1068.08,-210.896 1072.85,-185.372 1085.5,-168 1111.04,-132.912 1124.57,-126.431 1165.5,-112 1387.18,-33.8426 1463.56,-114.219 1699.31,-75.8181"/>
<polygon fill="midnightblue" stroke="midnightblue" points="1699.93,-79.2637 1709.21,-74.1521 1698.77,-72.3609 1699.93,-79.2637"/>
</g>
<!-- Node39&#45;&gt;Node40 -->
<g id="edge50" class="edge"><title>Node39&#45;&gt;Node40</title>
<path fill="none" stroke="midnightblue" d="M1079.64,-224.324C1093.37,-215.9 1114.44,-202.971 1130.56,-193.074"/>
<polygon fill="midnightblue" stroke="midnightblue" points="1132.7,-195.868 1139.4,-187.655 1129.04,-189.902 1132.7,-195.868"/>
</g>
<!-- Node40&#45;&gt;Node3 -->
<g id="edge51" class="edge"><title>Node40&#45;&gt;Node3</title>
<path fill="none" stroke="midnightblue" d="M1125.3,-168.444C1095.09,-159.28 1046.99,-144.688 1013.47,-134.519"/>
<polygon fill="midnightblue" stroke="midnightblue" points="1014.16,-131.07 1003.57,-131.516 1012.13,-137.769 1014.16,-131.07"/>
</g>
<!-- Node40&#45;&gt;Node37 -->
<g id="edge52" class="edge"><title>Node40&#45;&gt;Node37</title>
<path fill="none" stroke="midnightblue" d="M1160.77,-168.083C1167.04,-160.377 1176.29,-149.033 1183.93,-139.653"/>
<polygon fill="midnightblue" stroke="midnightblue" points="1186.77,-141.714 1190.37,-131.751 1181.34,-137.293 1186.77,-141.714"/>
</g>
</g>
</svg>
