<?xml version="1.0" encoding="UTF-8" standalone="no"?>
<!DOCTYPE svg PUBLIC "-//W3C//DTD SVG 1.1//EN"
 "http://www.w3.org/Graphics/SVG/1.1/DTD/svg11.dtd">
<!-- Generated by graphviz version 2.38.0 (20140413.2041)
 -->
<!-- Title: lsfit.cpp Pages: 1 -->
<!--zoomable 532 -->
<svg id="main" version="1.1" xmlns="http://www.w3.org/2000/svg" xmlns:xlink="http://www.w3.org/1999/xlink" xml:space="preserve" onload="init(evt)">
<style type="text/css"><![CDATA[
.edge:hover path { stroke: red; }
.edge:hover polygon { stroke: red; fill: red; }
]]></style>
<script type="text/javascript"><![CDATA[
var edges = document.getElementsByTagName('g');
if (edges && edges.length) {
  for (var i=0;i<edges.length;i++) {
    if (edges[i].id.substr(0,4)=='edge') {
      edges[i].setAttribute('class','edge');
    }
  }
}
]]></script>
        <defs>
                <circle id="rim" cx="0" cy="0" r="7"/>
                <circle id="rim2" cx="0" cy="0" r="3.5"/>
                <g id="zoomPlus">
                        <use xlink:href="#rim" fill="#404040">
                                <set attributeName="fill" to="#808080" begin="zoomplus.mouseover" end="zoomplus.mouseout"/>
                        </use>
                        <path d="M-4,0h8M0,-4v8" fill="none" stroke="white" stroke-width="1.5" pointer-events="none"/>
                </g>
                <g id="zoomMin">
                        <use xlink:href="#rim" fill="#404040">
                                <set attributeName="fill" to="#808080" begin="zoomminus.mouseover" end="zoomminus.mouseout"/>
                        </use>
                        <path d="M-4,0h8" fill="none" stroke="white" stroke-width="1.5" pointer-events="none"/>
                </g>
                <g id="dirArrow">
                        <path fill="none" stroke="white" stroke-width="1.5" d="M0,-3.0v7 M-2.5,-0.5L0,-3.0L2.5,-0.5"/>
                </g>
               <g id="resetDef">
                       <use xlink:href="#rim2" fill="#404040">
                               <set attributeName="fill" to="#808080" begin="reset.mouseover" end="reset.mouseout"/>
                       </use>
               </g>
        </defs>

<script type="text/javascript">
var viewWidth = 1801;
var viewHeight = 532;
var sectionId = 'dynsection-0';
</script>
<script xlink:href="svgpan.js"/>
<svg id="graph" class="graph">
<g id="viewport">
<title>lsfit.cpp</title>
<polygon fill="white" stroke="none" points="-4,4 -4,-528 1797,-528 1797,4 -4,4"/>
<!-- Node1 -->
<g id="node1" class="node"><title>Node1</title>
<polygon fill="#bfbfbf" stroke="black" points="1506.5,-504.5 1506.5,-523.5 1557.5,-523.5 1557.5,-504.5 1506.5,-504.5"/>
<text text-anchor="middle" x="1532" y="-511.5" font-family="Helvetica,sans-Serif" font-size="10.00">lsfit.cpp</text>
</g>
<!-- Node2 -->
<g id="node2" class="node"><title>Node2</title>
<g id="a_node2"><a xlink:href="lsfit_8h.html" target="_top" xlink:title="lsfit.h">
<polygon fill="white" stroke="black" points="1511.5,-448.5 1511.5,-467.5 1552.5,-467.5 1552.5,-448.5 1511.5,-448.5"/>
<text text-anchor="middle" x="1532" y="-455.5" font-family="Helvetica,sans-Serif" font-size="10.00">lsfit.h</text>
</a>
</g>
</g>
<!-- Node1&#45;&gt;Node2 -->
<g id="edge1" class="edge"><title>Node1&#45;&gt;Node2</title>
<path fill="none" stroke="midnightblue" d="M1532,-504.083C1532,-497.006 1532,-486.861 1532,-477.986"/>
<polygon fill="midnightblue" stroke="midnightblue" points="1535.5,-477.751 1532,-467.751 1528.5,-477.751 1535.5,-477.751"/>
</g>
<!-- Node3 -->
<g id="node3" class="node"><title>Node3</title>
<g id="a_node3"><a xlink:href="config_cosmos_8h.html" target="_top" xlink:title="Headers and definitions common to all COSMOS. ">
<polygon fill="white" stroke="black" points="990.5,-112.5 990.5,-131.5 1113.5,-131.5 1113.5,-112.5 990.5,-112.5"/>
<text text-anchor="middle" x="1052" y="-119.5" font-family="Helvetica,sans-Serif" font-size="10.00">support/configCosmos.h</text>
</a>
</g>
</g>
<!-- Node2&#45;&gt;Node3 -->
<g id="edge2" class="edge"><title>Node2&#45;&gt;Node3</title>
<path fill="none" stroke="midnightblue" d="M1552.68,-452.264C1594.03,-441.435 1683,-410.732 1683,-347 1683,-347 1683,-347 1683,-289 1683,-190.008 1589.4,-200.794 1496,-168 1429.16,-144.534 1231.29,-131.632 1123.66,-126.175"/>
<polygon fill="midnightblue" stroke="midnightblue" points="1123.7,-122.672 1113.54,-125.67 1123.35,-129.664 1123.7,-122.672"/>
</g>
<!-- Node6 -->
<g id="node6" class="node"><title>Node6</title>
<polygon fill="white" stroke="#bfbfbf" points="0,-56.5 0,-75.5 46,-75.5 46,-56.5 0,-56.5"/>
<text text-anchor="middle" x="23" y="-63.5" font-family="Helvetica,sans-Serif" font-size="10.00">cstdint</text>
</g>
<!-- Node2&#45;&gt;Node6 -->
<g id="edge69" class="edge"><title>Node2&#45;&gt;Node6</title>
<path fill="none" stroke="midnightblue" d="M1511.33,-456.35C1346.3,-451.029 249,-413.16 249,-347 249,-347 249,-347 249,-177 249,-155.72 117.785,-103.004 55.3183,-79.1131"/>
<polygon fill="midnightblue" stroke="midnightblue" points="56.5048,-75.8198 45.9138,-75.5356 54.0159,-82.3624 56.5048,-75.8198"/>
</g>
<!-- Node36 -->
<g id="node36" class="node"><title>Node36</title>
<g id="a_node36"><a xlink:href="vector_8h.html" target="_top" xlink:title="vector.h">
<polygon fill="white" stroke="black" points="1505,-224.5 1505,-243.5 1557,-243.5 1557,-224.5 1505,-224.5"/>
<text text-anchor="middle" x="1531" y="-231.5" font-family="Helvetica,sans-Serif" font-size="10.00">vector.h</text>
</a>
</g>
</g>
<!-- Node2&#45;&gt;Node36 -->
<g id="edge44" class="edge"><title>Node2&#45;&gt;Node36</title>
<path fill="none" stroke="midnightblue" d="M1532.38,-448.157C1533.43,-422.285 1536.15,-344.5 1534,-280 1533.71,-271.383 1533.12,-261.854 1532.53,-253.791"/>
<polygon fill="midnightblue" stroke="midnightblue" points="1536.01,-253.318 1531.75,-243.618 1529.03,-253.859 1536.01,-253.318"/>
</g>
<!-- Node38 -->
<g id="node38" class="node"><title>Node38</title>
<g id="a_node38"><a xlink:href="mathlib_8h.html" target="_top" xlink:title="mathlib include file ">
<polygon fill="white" stroke="black" points="1417.5,-392.5 1417.5,-411.5 1498.5,-411.5 1498.5,-392.5 1417.5,-392.5"/>
<text text-anchor="middle" x="1458" y="-399.5" font-family="Helvetica,sans-Serif" font-size="10.00">math/mathlib.h</text>
</a>
</g>
</g>
<!-- Node2&#45;&gt;Node38 -->
<g id="edge53" class="edge"><title>Node2&#45;&gt;Node38</title>
<path fill="none" stroke="midnightblue" d="M1520.11,-448.324C1508.85,-440.107 1491.71,-427.602 1478.29,-417.807"/>
<polygon fill="midnightblue" stroke="midnightblue" points="1480.25,-414.901 1470.11,-411.834 1476.12,-420.556 1480.25,-414.901"/>
</g>
<!-- Node4 -->
<g id="node4" class="node"><title>Node4</title>
<polygon fill="white" stroke="#bfbfbf" points="64.5,-56.5 64.5,-75.5 109.5,-75.5 109.5,-56.5 64.5,-56.5"/>
<text text-anchor="middle" x="87" y="-63.5" font-family="Helvetica,sans-Serif" font-size="10.00">climits</text>
</g>
<!-- Node3&#45;&gt;Node4 -->
<g id="edge3" class="edge"><title>Node3&#45;&gt;Node4</title>
<path fill="none" stroke="midnightblue" d="M990.388,-118.87C802.077,-112.248 240.112,-91.6084 119.784,-75.7294"/>
<polygon fill="midnightblue" stroke="midnightblue" points="119.951,-72.2159 109.545,-74.2082 118.922,-79.1399 119.951,-72.2159"/>
</g>
<!-- Node5 -->
<g id="node5" class="node"><title>Node5</title>
<polygon fill="white" stroke="#bfbfbf" points="127.5,-56.5 127.5,-75.5 174.5,-75.5 174.5,-56.5 127.5,-56.5"/>
<text text-anchor="middle" x="151" y="-63.5" font-family="Helvetica,sans-Serif" font-size="10.00">csignal</text>
</g>
<!-- Node3&#45;&gt;Node5 -->
<g id="edge4" class="edge"><title>Node3&#45;&gt;Node5</title>
<path fill="none" stroke="midnightblue" d="M990.497,-119.237C820.051,-114.121 344.01,-98.2123 189,-76 187.532,-75.7896 186.037,-75.5495 184.531,-75.2862"/>
<polygon fill="midnightblue" stroke="midnightblue" points="185.085,-71.8275 174.59,-73.2832 183.702,-78.6895 185.085,-71.8275"/>
</g>
<!-- Node3&#45;&gt;Node6 -->
<g id="edge5" class="edge"><title>Node3&#45;&gt;Node6</title>
<path fill="none" stroke="midnightblue" d="M990.193,-119.035C792.883,-112.65 184.02,-92.0516 56.4879,-75.6831"/>
<polygon fill="midnightblue" stroke="midnightblue" points="56.6774,-72.1744 46.2806,-74.2131 55.6796,-79.1029 56.6774,-72.1744"/>
</g>
<!-- Node7 -->
<g id="node7" class="node"><title>Node7</title>
<polygon fill="white" stroke="#bfbfbf" points="637,-56.5 637,-75.5 693,-75.5 693,-56.5 637,-56.5"/>
<text text-anchor="middle" x="665" y="-63.5" font-family="Helvetica,sans-Serif" font-size="10.00">cinttypes</text>
</g>
<!-- Node3&#45;&gt;Node7 -->
<g id="edge6" class="edge"><title>Node3&#45;&gt;Node7</title>
<path fill="none" stroke="midnightblue" d="M990.351,-115.161C922.307,-108.247 809.391,-95.3951 703.142,-76.0355"/>
<polygon fill="midnightblue" stroke="midnightblue" points="703.681,-72.576 693.212,-74.2033 702.411,-79.4598 703.681,-72.576"/>
</g>
<!-- Node8 -->
<g id="node8" class="node"><title>Node8</title>
<polygon fill="white" stroke="#bfbfbf" points="711.5,-56.5 711.5,-75.5 754.5,-75.5 754.5,-56.5 711.5,-56.5"/>
<text text-anchor="middle" x="733" y="-63.5" font-family="Helvetica,sans-Serif" font-size="10.00">cstdio</text>
</g>
<!-- Node3&#45;&gt;Node8 -->
<g id="edge7" class="edge"><title>Node3&#45;&gt;Node8</title>
<path fill="none" stroke="midnightblue" d="M990.368,-113.889C933.781,-106.799 847.503,-94.576 764.391,-76.0732"/>
<polygon fill="midnightblue" stroke="midnightblue" points="765.062,-72.6365 754.536,-73.8458 763.519,-79.4642 765.062,-72.6365"/>
</g>
<!-- Node9 -->
<g id="node9" class="node"><title>Node9</title>
<polygon fill="white" stroke="#bfbfbf" points="772.5,-56.5 772.5,-75.5 821.5,-75.5 821.5,-56.5 772.5,-56.5"/>
<text text-anchor="middle" x="797" y="-63.5" font-family="Helvetica,sans-Serif" font-size="10.00">cstddef</text>
</g>
<!-- Node3&#45;&gt;Node9 -->
<g id="edge8" class="edge"><title>Node3&#45;&gt;Node9</title>
<path fill="none" stroke="midnightblue" d="M1005.46,-112.496C962.604,-104.457 897.052,-91.6374 831.856,-76.3347"/>
<polygon fill="midnightblue" stroke="midnightblue" points="832.358,-72.8571 821.821,-73.9587 830.746,-79.6687 832.358,-72.8571"/>
</g>
<!-- Node10 -->
<g id="node10" class="node"><title>Node10</title>
<polygon fill="white" stroke="#bfbfbf" points="839.5,-56.5 839.5,-75.5 884.5,-75.5 884.5,-56.5 839.5,-56.5"/>
<text text-anchor="middle" x="862" y="-63.5" font-family="Helvetica,sans-Serif" font-size="10.00">cstdlib</text>
</g>
<!-- Node3&#45;&gt;Node10 -->
<g id="edge9" class="edge"><title>Node3&#45;&gt;Node10</title>
<path fill="none" stroke="midnightblue" d="M1021.89,-112.444C987.132,-102.564 930.166,-86.3734 894.444,-76.2208"/>
<polygon fill="midnightblue" stroke="midnightblue" points="895.104,-72.7698 884.528,-73.4026 893.19,-79.5032 895.104,-72.7698"/>
</g>
<!-- Node11 -->
<g id="node11" class="node"><title>Node11</title>
<polygon fill="white" stroke="#bfbfbf" points="903,-56.5 903,-75.5 947,-75.5 947,-56.5 903,-56.5"/>
<text text-anchor="middle" x="925" y="-63.5" font-family="Helvetica,sans-Serif" font-size="10.00">cerrno</text>
</g>
<!-- Node3&#45;&gt;Node11 -->
<g id="edge10" class="edge"><title>Node3&#45;&gt;Node11</title>
<path fill="none" stroke="midnightblue" d="M1031.88,-112.444C1010.98,-103.557 978.065,-89.5632 954.284,-79.4514"/>
<polygon fill="midnightblue" stroke="midnightblue" points="955.602,-76.2085 945.029,-75.5164 952.862,-82.6504 955.602,-76.2085"/>
</g>
<!-- Node12 -->
<g id="node12" class="node"><title>Node12</title>
<polygon fill="white" stroke="#bfbfbf" points="965,-56.5 965,-75.5 1011,-75.5 1011,-56.5 965,-56.5"/>
<text text-anchor="middle" x="988" y="-63.5" font-family="Helvetica,sans-Serif" font-size="10.00">cstring</text>
</g>
<!-- Node3&#45;&gt;Node12 -->
<g id="edge11" class="edge"><title>Node3&#45;&gt;Node12</title>
<path fill="none" stroke="midnightblue" d="M1041.72,-112.324C1032.16,-104.263 1017.72,-92.0765 1006.22,-82.3695"/>
<polygon fill="midnightblue" stroke="midnightblue" points="1008.37,-79.6076 998.47,-75.8339 1003.86,-84.9577 1008.37,-79.6076"/>
</g>
<!-- Node13 -->
<g id="node13" class="node"><title>Node13</title>
<polygon fill="white" stroke="#bfbfbf" points="1677,-56.5 1677,-75.5 1721,-75.5 1721,-56.5 1677,-56.5"/>
<text text-anchor="middle" x="1699" y="-63.5" font-family="Helvetica,sans-Serif" font-size="10.00">cmath</text>
</g>
<!-- Node3&#45;&gt;Node13 -->
<g id="edge12" class="edge"><title>Node3&#45;&gt;Node13</title>
<path fill="none" stroke="midnightblue" d="M1113.69,-117.255C1219.48,-110.594 1442.29,-95.5353 1630,-76 1642.05,-74.7458 1655.25,-73.0929 1666.85,-71.5462"/>
<polygon fill="midnightblue" stroke="midnightblue" points="1667.53,-74.9854 1676.97,-70.1701 1666.59,-68.0492 1667.53,-74.9854"/>
</g>
<!-- Node14 -->
<g id="node14" class="node"><title>Node14</title>
<polygon fill="white" stroke="#bfbfbf" points="1029.5,-56.5 1029.5,-75.5 1074.5,-75.5 1074.5,-56.5 1029.5,-56.5"/>
<text text-anchor="middle" x="1052" y="-63.5" font-family="Helvetica,sans-Serif" font-size="10.00">iosfwd</text>
</g>
<!-- Node3&#45;&gt;Node14 -->
<g id="edge13" class="edge"><title>Node3&#45;&gt;Node14</title>
<path fill="none" stroke="midnightblue" d="M1052,-112.083C1052,-105.006 1052,-94.8611 1052,-85.9865"/>
<polygon fill="midnightblue" stroke="midnightblue" points="1055.5,-85.751 1052,-75.7511 1048.5,-85.7511 1055.5,-85.751"/>
</g>
<!-- Node15 -->
<g id="node15" class="node"><title>Node15</title>
<polygon fill="white" stroke="#bfbfbf" points="1739,-56.5 1739,-75.5 1793,-75.5 1793,-56.5 1739,-56.5"/>
<text text-anchor="middle" x="1766" y="-63.5" font-family="Helvetica,sans-Serif" font-size="10.00">iostream</text>
</g>
<!-- Node3&#45;&gt;Node15 -->
<g id="edge14" class="edge"><title>Node3&#45;&gt;Node15</title>
<path fill="none" stroke="midnightblue" d="M1113.64,-120.583C1231.54,-118.989 1497.12,-111.55 1729.01,-75.8608"/>
<polygon fill="midnightblue" stroke="midnightblue" points="1729.64,-79.305 1738.98,-74.3054 1728.56,-72.3887 1729.64,-79.305"/>
</g>
<!-- Node16 -->
<g id="node16" class="node"><title>Node16</title>
<polygon fill="white" stroke="#bfbfbf" points="1093,-56.5 1093,-75.5 1145,-75.5 1145,-56.5 1093,-56.5"/>
<text text-anchor="middle" x="1119" y="-63.5" font-family="Helvetica,sans-Serif" font-size="10.00">sstream</text>
</g>
<!-- Node3&#45;&gt;Node16 -->
<g id="edge15" class="edge"><title>Node3&#45;&gt;Node16</title>
<path fill="none" stroke="midnightblue" d="M1062.76,-112.324C1072.77,-104.263 1087.89,-92.0765 1099.93,-82.3695"/>
<polygon fill="midnightblue" stroke="midnightblue" points="1102.45,-84.8343 1108.04,-75.8339 1098.06,-79.3841 1102.45,-84.8343"/>
</g>
<!-- Node17 -->
<g id="node17" class="node"><title>Node17</title>
<polygon fill="white" stroke="#bfbfbf" points="1163.5,-56.5 1163.5,-75.5 1204.5,-75.5 1204.5,-56.5 1163.5,-56.5"/>
<text text-anchor="middle" x="1184" y="-63.5" font-family="Helvetica,sans-Serif" font-size="10.00">regex</text>
</g>
<!-- Node3&#45;&gt;Node17 -->
<g id="edge16" class="edge"><title>Node3&#45;&gt;Node17</title>
<path fill="none" stroke="midnightblue" d="M1072.92,-112.444C1094.74,-103.517 1129.15,-89.4387 1153.89,-79.3168"/>
<polygon fill="midnightblue" stroke="midnightblue" points="1155.25,-82.5422 1163.18,-75.5164 1152.6,-76.0634 1155.25,-82.5422"/>
</g>
<!-- Node18 -->
<g id="node18" class="node"><title>Node18</title>
<polygon fill="white" stroke="#bfbfbf" points="1571,-56.5 1571,-75.5 1621,-75.5 1621,-56.5 1571,-56.5"/>
<text text-anchor="middle" x="1596" y="-63.5" font-family="Helvetica,sans-Serif" font-size="10.00">iomanip</text>
</g>
<!-- Node3&#45;&gt;Node18 -->
<g id="edge17" class="edge"><title>Node3&#45;&gt;Node18</title>
<path fill="none" stroke="midnightblue" d="M1113.75,-118.246C1209.26,-113.368 1398.36,-101.249 1557,-76 1558.27,-75.7973 1559.57,-75.5766 1560.87,-75.3417"/>
<polygon fill="midnightblue" stroke="midnightblue" points="1561.81,-78.7235 1570.92,-73.3226 1560.43,-71.8605 1561.81,-78.7235"/>
</g>
<!-- Node19 -->
<g id="node19" class="node"><title>Node19</title>
<polygon fill="white" stroke="#bfbfbf" points="1222.5,-56.5 1222.5,-75.5 1273.5,-75.5 1273.5,-56.5 1222.5,-56.5"/>
<text text-anchor="middle" x="1248" y="-63.5" font-family="Helvetica,sans-Serif" font-size="10.00">unistd.h</text>
</g>
<!-- Node3&#45;&gt;Node19 -->
<g id="edge18" class="edge"><title>Node3&#45;&gt;Node19</title>
<path fill="none" stroke="midnightblue" d="M1083.06,-112.444C1118.28,-102.739 1175.61,-86.9452 1212.55,-76.7661"/>
<polygon fill="midnightblue" stroke="midnightblue" points="1213.69,-80.0842 1222.4,-74.0537 1211.83,-73.3356 1213.69,-80.0842"/>
</g>
<!-- Node20 -->
<g id="node20" class="node"><title>Node20</title>
<polygon fill="white" stroke="#bfbfbf" points="1292,-56.5 1292,-75.5 1336,-75.5 1336,-56.5 1292,-56.5"/>
<text text-anchor="middle" x="1314" y="-63.5" font-family="Helvetica,sans-Serif" font-size="10.00">fcntl.h</text>
</g>
<!-- Node3&#45;&gt;Node20 -->
<g id="edge19" class="edge"><title>Node3&#45;&gt;Node20</title>
<path fill="none" stroke="midnightblue" d="M1101.6,-112.493C1146.16,-104.582 1213.57,-91.952 1281.64,-75.9165"/>
<polygon fill="midnightblue" stroke="midnightblue" points="1282.76,-79.2462 1291.68,-73.5261 1281.14,-72.4363 1282.76,-79.2462"/>
</g>
<!-- Node21 -->
<g id="node21" class="node"><title>Node21</title>
<polygon fill="white" stroke="#bfbfbf" points="1354,-56.5 1354,-75.5 1394,-75.5 1394,-56.5 1354,-56.5"/>
<text text-anchor="middle" x="1374" y="-63.5" font-family="Helvetica,sans-Serif" font-size="10.00">limits</text>
</g>
<!-- Node3&#45;&gt;Node21 -->
<g id="edge20" class="edge"><title>Node3&#45;&gt;Node21</title>
<path fill="none" stroke="midnightblue" d="M1113.67,-114.231C1171.1,-107.317 1259.18,-95.1599 1344.03,-75.9359"/>
<polygon fill="midnightblue" stroke="midnightblue" points="1344.86,-79.3357 1353.82,-73.6817 1343.29,-72.5141 1344.86,-79.3357"/>
</g>
<!-- Node22 -->
<g id="node22" class="node"><title>Node22</title>
<polygon fill="white" stroke="#bfbfbf" points="1144.5,-0.5 1144.5,-19.5 1185.5,-19.5 1185.5,-0.5 1144.5,-0.5"/>
<text text-anchor="middle" x="1165" y="-7.5" font-family="Helvetica,sans-Serif" font-size="10.00">string</text>
</g>
<!-- Node3&#45;&gt;Node22 -->
<g id="edge21" class="edge"><title>Node3&#45;&gt;Node22</title>
<path fill="none" stroke="midnightblue" d="M1113.96,-119.626C1235.55,-116.285 1496,-105.708 1523,-76 1568.26,-26.2094 1290.26,-14.2742 1195.69,-11.6706"/>
<polygon fill="midnightblue" stroke="midnightblue" points="1195.68,-8.16948 1185.6,-11.4095 1195.5,-15.1671 1195.68,-8.16948"/>
</g>
<!-- Node23 -->
<g id="node23" class="node"><title>Node23</title>
<polygon fill="white" stroke="#bfbfbf" points="534,-0.5 534,-19.5 578,-19.5 578,-0.5 534,-0.5"/>
<text text-anchor="middle" x="556" y="-7.5" font-family="Helvetica,sans-Serif" font-size="10.00">vector</text>
</g>
<!-- Node3&#45;&gt;Node23 -->
<g id="edge22" class="edge"><title>Node3&#45;&gt;Node23</title>
<path fill="none" stroke="midnightblue" d="M990.388,-120.077C862.046,-117.513 575.47,-108.208 546,-76 534.477,-63.407 539.823,-43.3548 546.265,-28.8502"/>
<polygon fill="midnightblue" stroke="midnightblue" points="549.418,-30.3708 550.706,-19.8547 543.141,-27.2719 549.418,-30.3708"/>
</g>
<!-- Node24 -->
<g id="node24" class="node"><title>Node24</title>
<polygon fill="white" stroke="#bfbfbf" points="1412.5,-56.5 1412.5,-75.5 1453.5,-75.5 1453.5,-56.5 1412.5,-56.5"/>
<text text-anchor="middle" x="1433" y="-63.5" font-family="Helvetica,sans-Serif" font-size="10.00">stack</text>
</g>
<!-- Node3&#45;&gt;Node24 -->
<g id="edge23" class="edge"><title>Node3&#45;&gt;Node24</title>
<path fill="none" stroke="midnightblue" d="M1113.7,-116.173C1182.07,-110.136 1295.66,-98.0635 1402.48,-75.7648"/>
<polygon fill="midnightblue" stroke="midnightblue" points="1403.4,-79.1461 1412.46,-73.6464 1401.95,-72.2986 1403.4,-79.1461"/>
</g>
<!-- Node25 -->
<g id="node25" class="node"><title>Node25</title>
<polygon fill="white" stroke="#bfbfbf" points="1471.5,-56.5 1471.5,-75.5 1514.5,-75.5 1514.5,-56.5 1471.5,-56.5"/>
<text text-anchor="middle" x="1493" y="-63.5" font-family="Helvetica,sans-Serif" font-size="10.00">deque</text>
</g>
<!-- Node3&#45;&gt;Node25 -->
<g id="edge24" class="edge"><title>Node3&#45;&gt;Node25</title>
<path fill="none" stroke="midnightblue" d="M1113.63,-117.573C1192.25,-112.462 1332.44,-100.866 1461.38,-75.7669"/>
<polygon fill="midnightblue" stroke="midnightblue" points="1462.31,-79.1522 1471.44,-73.7777 1460.95,-72.2853 1462.31,-79.1522"/>
</g>
<!-- Node26 -->
<g id="node26" class="node"><title>Node26</title>
<polygon fill="white" stroke="#bfbfbf" points="135,-0.5 135,-19.5 179,-19.5 179,-0.5 135,-0.5"/>
<text text-anchor="middle" x="157" y="-7.5" font-family="Helvetica,sans-Serif" font-size="10.00">mutex</text>
</g>
<!-- Node3&#45;&gt;Node26 -->
<g id="edge25" class="edge"><title>Node3&#45;&gt;Node26</title>
<path fill="none" stroke="midnightblue" d="M990.341,-119.397C815.221,-114.581 323.033,-99.1342 254,-76 222.781,-65.5379 192.13,-42.1863 173.893,-26.5123"/>
<polygon fill="midnightblue" stroke="midnightblue" points="175.8,-23.5263 165.99,-19.5247 171.163,-28.7706 175.8,-23.5263"/>
</g>
<!-- Node27 -->
<g id="node27" class="node"><title>Node27</title>
<polygon fill="white" stroke="#bfbfbf" points="197,-0.5 197,-19.5 241,-19.5 241,-0.5 197,-0.5"/>
<text text-anchor="middle" x="219" y="-7.5" font-family="Helvetica,sans-Serif" font-size="10.00">thread</text>
</g>
<!-- Node3&#45;&gt;Node27 -->
<g id="edge26" class="edge"><title>Node3&#45;&gt;Node27</title>
<path fill="none" stroke="midnightblue" d="M990.193,-118.527C813.873,-111.319 319.037,-89.9548 287,-76 263.469,-65.7505 243.203,-43.5891 231.06,-28.0036"/>
<polygon fill="midnightblue" stroke="midnightblue" points="233.671,-25.6499 224.886,-19.7268 228.06,-29.8352 233.671,-25.6499"/>
</g>
<!-- Node28 -->
<g id="node28" class="node"><title>Node28</title>
<polygon fill="white" stroke="#bfbfbf" points="259.5,-0.5 259.5,-19.5 354.5,-19.5 354.5,-0.5 259.5,-0.5"/>
<text text-anchor="middle" x="307" y="-7.5" font-family="Helvetica,sans-Serif" font-size="10.00">condition_variable</text>
</g>
<!-- Node3&#45;&gt;Node28 -->
<g id="edge27" class="edge"><title>Node3&#45;&gt;Node28</title>
<path fill="none" stroke="midnightblue" d="M990.449,-118.444C812.597,-110.916 309.837,-88.565 298,-76 286.321,-63.6033 291.352,-43.5181 297.559,-28.9521"/>
<polygon fill="midnightblue" stroke="midnightblue" points="300.724,-30.4465 301.854,-19.912 294.401,-27.4429 300.724,-30.4465"/>
</g>
<!-- Node29 -->
<g id="node29" class="node"><title>Node29</title>
<polygon fill="white" stroke="#bfbfbf" points="419.5,-0.5 419.5,-19.5 462.5,-19.5 462.5,-0.5 419.5,-0.5"/>
<text text-anchor="middle" x="441" y="-7.5" font-family="Helvetica,sans-Serif" font-size="10.00">queue</text>
</g>
<!-- Node3&#45;&gt;Node29 -->
<g id="edge28" class="edge"><title>Node3&#45;&gt;Node29</title>
<path fill="none" stroke="midnightblue" d="M990.235,-118.036C858.175,-111.383 556.849,-94.3933 514,-76 489.265,-65.3822 467.155,-42.9665 453.914,-27.4501"/>
<polygon fill="midnightblue" stroke="midnightblue" points="456.564,-25.1616 447.51,-19.6585 451.156,-29.6063 456.564,-25.1616"/>
</g>
<!-- Node30 -->
<g id="node30" class="node"><title>Node30</title>
<polygon fill="white" stroke="#bfbfbf" points="480.5,-0.5 480.5,-19.5 515.5,-19.5 515.5,-0.5 480.5,-0.5"/>
<text text-anchor="middle" x="498" y="-7.5" font-family="Helvetica,sans-Serif" font-size="10.00">map</text>
</g>
<!-- Node3&#45;&gt;Node30 -->
<g id="edge29" class="edge"><title>Node3&#45;&gt;Node30</title>
<path fill="none" stroke="midnightblue" d="M990.334,-118.783C861.716,-113.708 573.609,-99.8091 536,-76 519.292,-65.4226 509.061,-44.6476 503.486,-29.4212"/>
<polygon fill="midnightblue" stroke="midnightblue" points="506.683,-27.9385 500.224,-19.5398 500.035,-30.1329 506.683,-27.9385"/>
</g>
<!-- Node31 -->
<g id="node31" class="node"><title>Node31</title>
<g id="a_node31"><a xlink:href="cosmos-defs_8h.html" target="_top" xlink:title="COSMOS definitions Definitions specific to the COSMOS environement. ">
<polygon fill="white" stroke="black" points="307,-56.5 307,-75.5 423,-75.5 423,-56.5 307,-56.5"/>
<text text-anchor="middle" x="365" y="-63.5" font-family="Helvetica,sans-Serif" font-size="10.00">support/cosmos&#45;defs.h</text>
</a>
</g>
</g>
<!-- Node3&#45;&gt;Node31 -->
<g id="edge30" class="edge"><title>Node3&#45;&gt;Node31</title>
<path fill="none" stroke="midnightblue" d="M990.37,-117.54C879.506,-111.083 639.151,-96.0169 437,-76 435.731,-75.8743 434.449,-75.7445 433.158,-75.6111"/>
<polygon fill="midnightblue" stroke="midnightblue" points="433.449,-72.1221 423.13,-74.526 432.696,-79.0815 433.449,-72.1221"/>
</g>
<!-- Node33 -->
<g id="node33" class="node"><title>Node33</title>
<g id="a_node33"><a xlink:href="json11_8hpp.html" target="_top" xlink:title="json11.hpp">
<polygon fill="white" stroke="black" points="555,-56.5 555,-75.5 619,-75.5 619,-56.5 555,-56.5"/>
<text text-anchor="middle" x="587" y="-63.5" font-family="Helvetica,sans-Serif" font-size="10.00">json11.hpp</text>
</a>
</g>
</g>
<!-- Node3&#45;&gt;Node33 -->
<g id="edge38" class="edge"><title>Node3&#45;&gt;Node33</title>
<path fill="none" stroke="midnightblue" d="M990.277,-116.597C909.506,-110.357 763.405,-97.4355 629.215,-76.0347"/>
<polygon fill="midnightblue" stroke="midnightblue" points="629.595,-72.5506 619.165,-74.412 628.479,-79.4612 629.595,-72.5506"/>
</g>
<!-- Node31&#45;&gt;Node23 -->
<g id="edge32" class="edge"><title>Node31&#45;&gt;Node23</title>
<path fill="none" stroke="midnightblue" d="M395.265,-56.4435C430.401,-46.5098 488.104,-30.1958 523.974,-20.0544"/>
<polygon fill="midnightblue" stroke="midnightblue" points="525.245,-23.3324 533.916,-17.2437 523.341,-16.5964 525.245,-23.3324"/>
</g>
<!-- Node31&#45;&gt;Node26 -->
<g id="edge36" class="edge"><title>Node31&#45;&gt;Node26</title>
<path fill="none" stroke="midnightblue" d="M329.982,-56.4652C296.235,-48.1589 243.503,-34.9673 189.133,-20.2462"/>
<polygon fill="midnightblue" stroke="midnightblue" points="189.894,-16.826 179.326,-17.5788 188.057,-23.5807 189.894,-16.826"/>
</g>
<!-- Node31&#45;&gt;Node27 -->
<g id="edge35" class="edge"><title>Node31&#45;&gt;Node27</title>
<path fill="none" stroke="midnightblue" d="M341.866,-56.4435C317.231,-47.3322 278.084,-32.8531 250.614,-22.6929"/>
<polygon fill="midnightblue" stroke="midnightblue" points="251.663,-19.3493 241.07,-19.1629 249.235,-25.9146 251.663,-19.3493"/>
</g>
<!-- Node31&#45;&gt;Node28 -->
<g id="edge37" class="edge"><title>Node31&#45;&gt;Node28</title>
<path fill="none" stroke="midnightblue" d="M355.681,-56.324C347.107,-48.3414 334.188,-36.3128 323.812,-26.6529"/>
<polygon fill="midnightblue" stroke="midnightblue" points="326.192,-24.0865 316.488,-19.8339 321.422,-29.2098 326.192,-24.0865"/>
</g>
<!-- Node31&#45;&gt;Node29 -->
<g id="edge34" class="edge"><title>Node31&#45;&gt;Node29</title>
<path fill="none" stroke="midnightblue" d="M377.211,-56.324C388.776,-48.1066 406.375,-35.6017 420.161,-25.8069"/>
<polygon fill="midnightblue" stroke="midnightblue" points="422.443,-28.4791 428.567,-19.8339 418.388,-22.7729 422.443,-28.4791"/>
</g>
<!-- Node31&#45;&gt;Node30 -->
<g id="edge31" class="edge"><title>Node31&#45;&gt;Node30</title>
<path fill="none" stroke="midnightblue" d="M386.074,-56.4435C409.094,-47.097 446.026,-32.1023 471.117,-21.9151"/>
<polygon fill="midnightblue" stroke="midnightblue" points="472.474,-25.1417 480.422,-18.1368 469.84,-18.6559 472.474,-25.1417"/>
</g>
<!-- Node32 -->
<g id="node32" class="node"><title>Node32</title>
<polygon fill="white" stroke="#bfbfbf" points="372.5,-0.5 372.5,-19.5 401.5,-19.5 401.5,-0.5 372.5,-0.5"/>
<text text-anchor="middle" x="387" y="-7.5" font-family="Helvetica,sans-Serif" font-size="10.00">list</text>
</g>
<!-- Node31&#45;&gt;Node32 -->
<g id="edge33" class="edge"><title>Node31&#45;&gt;Node32</title>
<path fill="none" stroke="midnightblue" d="M368.633,-56.083C371.612,-48.77 375.926,-38.1814 379.625,-29.1034"/>
<polygon fill="midnightblue" stroke="midnightblue" points="382.903,-30.3326 383.435,-19.7511 376.42,-27.6914 382.903,-30.3326"/>
</g>
<!-- Node33&#45;&gt;Node22 -->
<g id="edge39" class="edge"><title>Node33&#45;&gt;Node22</title>
<path fill="none" stroke="midnightblue" d="M619.154,-57.5199C622.135,-56.9541 625.118,-56.4352 628,-56 819.231,-27.1288 1051.78,-15.5421 1134.22,-12.1511"/>
<polygon fill="midnightblue" stroke="midnightblue" points="1134.55,-15.6408 1144.4,-11.743 1134.27,-8.64643 1134.55,-15.6408"/>
</g>
<!-- Node33&#45;&gt;Node23 -->
<g id="edge40" class="edge"><title>Node33&#45;&gt;Node23</title>
<path fill="none" stroke="midnightblue" d="M581.881,-56.083C577.592,-48.6127 571.342,-37.7244 566.058,-28.5199"/>
<polygon fill="midnightblue" stroke="midnightblue" points="569.038,-26.6811 561.024,-19.7511 562.967,-30.1662 569.038,-26.6811"/>
</g>
<!-- Node33&#45;&gt;Node30 -->
<g id="edge41" class="edge"><title>Node33&#45;&gt;Node30</title>
<path fill="none" stroke="midnightblue" d="M572.701,-56.324C558.817,-47.9002 537.508,-34.9709 521.196,-25.0741"/>
<polygon fill="midnightblue" stroke="midnightblue" points="522.629,-21.8495 512.264,-19.6545 518.998,-27.8341 522.629,-21.8495"/>
</g>
<!-- Node34 -->
<g id="node34" class="node"><title>Node34</title>
<polygon fill="white" stroke="#bfbfbf" points="596,-0.5 596,-19.5 648,-19.5 648,-0.5 596,-0.5"/>
<text text-anchor="middle" x="622" y="-7.5" font-family="Helvetica,sans-Serif" font-size="10.00">memory</text>
</g>
<!-- Node33&#45;&gt;Node34 -->
<g id="edge42" class="edge"><title>Node33&#45;&gt;Node34</title>
<path fill="none" stroke="midnightblue" d="M592.78,-56.083C597.672,-48.5341 604.827,-37.4948 610.833,-28.2298"/>
<polygon fill="midnightblue" stroke="midnightblue" points="613.826,-30.0463 616.328,-19.7511 607.952,-26.239 613.826,-30.0463"/>
</g>
<!-- Node35 -->
<g id="node35" class="node"><title>Node35</title>
<polygon fill="white" stroke="#bfbfbf" points="666.5,-0.5 666.5,-19.5 739.5,-19.5 739.5,-0.5 666.5,-0.5"/>
<text text-anchor="middle" x="703" y="-7.5" font-family="Helvetica,sans-Serif" font-size="10.00">initializer_list</text>
</g>
<!-- Node33&#45;&gt;Node35 -->
<g id="edge43" class="edge"><title>Node33&#45;&gt;Node35</title>
<path fill="none" stroke="midnightblue" d="M605.381,-56.4435C624.216,-47.6751 653.731,-33.9355 675.379,-23.8579"/>
<polygon fill="midnightblue" stroke="midnightblue" points="677.117,-26.9098 684.705,-19.5164 674.162,-20.5637 677.117,-26.9098"/>
</g>
<!-- Node36&#45;&gt;Node3 -->
<g id="edge45" class="edge"><title>Node36&#45;&gt;Node3</title>
<path fill="none" stroke="midnightblue" d="M1525.77,-224.423C1516.41,-209.945 1495.29,-180.97 1469,-168 1409.99,-138.891 1226.46,-128.454 1123.64,-124.834"/>
<polygon fill="midnightblue" stroke="midnightblue" points="1123.76,-121.336 1113.65,-124.494 1123.52,-128.332 1123.76,-121.336"/>
</g>
<!-- Node36&#45;&gt;Node13 -->
<g id="edge51" class="edge"><title>Node36&#45;&gt;Node13</title>
<path fill="none" stroke="midnightblue" d="M1557.06,-225.497C1577.88,-218.474 1606.81,-206.292 1627,-188 1635.66,-180.15 1671.58,-116.467 1689.19,-84.7771"/>
<polygon fill="midnightblue" stroke="midnightblue" points="1692.42,-86.1674 1694.2,-75.7237 1686.29,-82.7759 1692.42,-86.1674"/>
</g>
<!-- Node36&#45;&gt;Node15 -->
<g id="edge49" class="edge"><title>Node36&#45;&gt;Node15</title>
<path fill="none" stroke="midnightblue" d="M1557.16,-226.449C1581.93,-219.464 1619.47,-206.798 1648,-188 1692.93,-158.397 1734.04,-109.117 1753.75,-83.5403"/>
<polygon fill="midnightblue" stroke="midnightblue" points="1756.55,-85.638 1759.8,-75.5531 1750.97,-81.4117 1756.55,-85.638"/>
</g>
<!-- Node36&#45;&gt;Node18 -->
<g id="edge50" class="edge"><title>Node36&#45;&gt;Node18</title>
<path fill="none" stroke="midnightblue" d="M1534.49,-224.075C1544.77,-197.832 1575.03,-120.545 1588.91,-85.1165"/>
<polygon fill="midnightblue" stroke="midnightblue" points="1592.26,-86.1559 1592.65,-75.5681 1585.74,-83.6036 1592.26,-86.1559"/>
</g>
<!-- Node36&#45;&gt;Node23 -->
<g id="edge52" class="edge"><title>Node36&#45;&gt;Node23</title>
<path fill="none" stroke="midnightblue" d="M1542.6,-224.455C1578.48,-197.06 1682.23,-110.063 1630,-56 1591.13,-15.7675 709.611,-28.1785 588.35,-19.2276"/>
<polygon fill="midnightblue" stroke="midnightblue" points="588.512,-15.7253 578.2,-18.1604 587.78,-22.687 588.512,-15.7253"/>
</g>
<!-- Node37 -->
<g id="node37" class="node"><title>Node37</title>
<g id="a_node37"><a xlink:href="math_2constants_8h.html" target="_top" xlink:title="constants.h">
<polygon fill="white" stroke="black" points="1086,-168.5 1086,-187.5 1154,-187.5 1154,-168.5 1086,-168.5"/>
<text text-anchor="middle" x="1120" y="-175.5" font-family="Helvetica,sans-Serif" font-size="10.00">constants.h</text>
</a>
</g>
</g>
<!-- Node36&#45;&gt;Node37 -->
<g id="edge46" class="edge"><title>Node36&#45;&gt;Node37</title>
<path fill="none" stroke="midnightblue" d="M1504.98,-229.581C1436.3,-220.558 1249.6,-196.028 1163.98,-184.778"/>
<polygon fill="midnightblue" stroke="midnightblue" points="1164.42,-181.306 1154.05,-183.474 1163.51,-188.247 1164.42,-181.306"/>
</g>
<!-- Node37&#45;&gt;Node3 -->
<g id="edge47" class="edge"><title>Node37&#45;&gt;Node3</title>
<path fill="none" stroke="midnightblue" d="M1109.07,-168.324C1098.83,-160.185 1083.28,-147.839 1071,-138.087"/>
<polygon fill="midnightblue" stroke="midnightblue" points="1073.13,-135.312 1063.12,-131.834 1068.78,-140.794 1073.13,-135.312"/>
</g>
<!-- Node37&#45;&gt;Node6 -->
<g id="edge48" class="edge"><title>Node37&#45;&gt;Node6</title>
<path fill="none" stroke="midnightblue" d="M1085.66,-175.984C953.312,-171.598 463.735,-151.067 56.2175,-75.9185"/>
<polygon fill="midnightblue" stroke="midnightblue" points="56.7755,-72.4623 46.3043,-74.0766 55.4967,-79.3445 56.7755,-72.4623"/>
</g>
<!-- Node38&#45;&gt;Node3 -->
<g id="edge54" class="edge"><title>Node38&#45;&gt;Node3</title>
<path fill="none" stroke="midnightblue" d="M1417.21,-398.633C1314.26,-391.548 1052,-366.127 1052,-291 1052,-291 1052,-291 1052,-233 1052,-200.948 1052,-163.643 1052,-141.749"/>
<polygon fill="midnightblue" stroke="midnightblue" points="1055.5,-141.558 1052,-131.558 1048.5,-141.558 1055.5,-141.558"/>
</g>
<!-- Node38&#45;&gt;Node13 -->
<g id="edge67" class="edge"><title>Node38&#45;&gt;Node13</title>
<path fill="none" stroke="midnightblue" d="M1470.22,-392.402C1482.02,-383.829 1500.09,-369.96 1514,-356 1581.41,-288.343 1597.16,-268.856 1648,-188 1669.26,-154.193 1685.3,-109.998 1693.31,-85.4595"/>
<polygon fill="midnightblue" stroke="midnightblue" points="1696.73,-86.2668 1696.42,-75.6765 1690.06,-84.1482 1696.73,-86.2668"/>
</g>
<!-- Node38&#45;&gt;Node15 -->
<g id="edge68" class="edge"><title>Node38&#45;&gt;Node15</title>
<path fill="none" stroke="midnightblue" d="M1476.77,-392.451C1493.63,-384.315 1518.65,-371.098 1538,-356 1588.19,-316.836 1698.74,-192.021 1737,-132 1746.43,-117.201 1754.33,-98.8153 1759.48,-85.3782"/>
<polygon fill="midnightblue" stroke="midnightblue" points="1762.83,-86.4192 1763.01,-75.8258 1756.26,-83.9946 1762.83,-86.4192"/>
</g>
<!-- Node38&#45;&gt;Node36 -->
<g id="edge59" class="edge"><title>Node38&#45;&gt;Node36</title>
<path fill="none" stroke="midnightblue" d="M1466.82,-392.469C1475.16,-383.945 1487.5,-370.11 1495,-356 1512.94,-322.254 1523.14,-278.337 1527.83,-253.764"/>
<polygon fill="midnightblue" stroke="midnightblue" points="1531.32,-254.124 1529.64,-243.662 1524.43,-252.884 1531.32,-254.124"/>
</g>
<!-- Node38&#45;&gt;Node37 -->
<g id="edge58" class="edge"><title>Node38&#45;&gt;Node37</title>
<path fill="none" stroke="midnightblue" d="M1417.27,-398.838C1351.77,-394.597 1226.96,-383.119 1193,-356 1142.61,-315.757 1126.67,-234.857 1121.9,-198.034"/>
<polygon fill="midnightblue" stroke="midnightblue" points="1125.34,-197.269 1120.72,-187.734 1118.39,-198.068 1125.34,-197.269"/>
</g>
<!-- Node39 -->
<g id="node39" class="node"><title>Node39</title>
<g id="a_node39"><a xlink:href="cosmos-errno_8h.html" target="_top" xlink:title="COSMOS Error Codes. ">
<polygon fill="white" stroke="black" points="1202.5,-336.5 1202.5,-355.5 1321.5,-355.5 1321.5,-336.5 1202.5,-336.5"/>
<text text-anchor="middle" x="1262" y="-343.5" font-family="Helvetica,sans-Serif" font-size="10.00">support/cosmos&#45;errno.h</text>
</a>
</g>
</g>
<!-- Node38&#45;&gt;Node39 -->
<g id="edge55" class="edge"><title>Node38&#45;&gt;Node39</title>
<path fill="none" stroke="midnightblue" d="M1426.94,-392.444C1393.4,-383.201 1339.8,-368.436 1302.86,-358.257"/>
<polygon fill="midnightblue" stroke="midnightblue" points="1303.48,-354.798 1292.91,-355.516 1301.62,-361.547 1303.48,-354.798"/>
</g>
<!-- Node41 -->
<g id="node41" class="node"><title>Node41</title>
<g id="a_node41"><a xlink:href="matrix_8h.html" target="_top" xlink:title="matrix.h">
<polygon fill="white" stroke="black" points="1375,-280.5 1375,-299.5 1427,-299.5 1427,-280.5 1375,-280.5"/>
<text text-anchor="middle" x="1401" y="-287.5" font-family="Helvetica,sans-Serif" font-size="10.00">matrix.h</text>
</a>
</g>
</g>
<!-- Node38&#45;&gt;Node41 -->
<g id="edge60" class="edge"><title>Node38&#45;&gt;Node41</title>
<path fill="none" stroke="midnightblue" d="M1448.59,-392.198C1440.01,-383.689 1427.55,-370.053 1420,-356 1412.18,-341.434 1407.22,-323.257 1404.33,-309.832"/>
<polygon fill="midnightblue" stroke="midnightblue" points="1407.74,-308.998 1402.38,-299.855 1400.87,-310.341 1407.74,-308.998"/>
</g>
<!-- Node42 -->
<g id="node42" class="node"><title>Node42</title>
<g id="a_node42"><a xlink:href="rotation_8h.html" target="_top" xlink:title="rotation.h">
<polygon fill="white" stroke="black" points="1429.5,-336.5 1429.5,-355.5 1486.5,-355.5 1486.5,-336.5 1429.5,-336.5"/>
<text text-anchor="middle" x="1458" y="-343.5" font-family="Helvetica,sans-Serif" font-size="10.00">rotation.h</text>
</a>
</g>
</g>
<!-- Node38&#45;&gt;Node42 -->
<g id="edge63" class="edge"><title>Node38&#45;&gt;Node42</title>
<path fill="none" stroke="midnightblue" d="M1458,-392.083C1458,-385.006 1458,-374.861 1458,-365.986"/>
<polygon fill="midnightblue" stroke="midnightblue" points="1461.5,-365.751 1458,-355.751 1454.5,-365.751 1461.5,-365.751"/>
</g>
<!-- Node39&#45;&gt;Node3 -->
<g id="edge56" class="edge"><title>Node39&#45;&gt;Node3</title>
<path fill="none" stroke="midnightblue" d="M1260.24,-336.259C1257.45,-323.462 1251.37,-299.077 1242,-280 1215.15,-225.32 1210.72,-205.866 1163,-168 1143.58,-152.587 1118.17,-141.769 1096.56,-134.61"/>
<polygon fill="midnightblue" stroke="midnightblue" points="1097.53,-131.245 1086.94,-131.575 1095.42,-137.92 1097.53,-131.245"/>
</g>
<!-- Node40 -->
<g id="node40" class="node"><title>Node40</title>
<polygon fill="white" stroke="#bfbfbf" points="1186.5,-280.5 1186.5,-299.5 1233.5,-299.5 1233.5,-280.5 1186.5,-280.5"/>
<text text-anchor="middle" x="1210" y="-287.5" font-family="Helvetica,sans-Serif" font-size="10.00">errno.h</text>
</g>
<!-- Node39&#45;&gt;Node40 -->
<g id="edge57" class="edge"><title>Node39&#45;&gt;Node40</title>
<path fill="none" stroke="midnightblue" d="M1253.41,-336.083C1245.84,-328.22 1234.62,-316.569 1225.49,-307.081"/>
<polygon fill="midnightblue" stroke="midnightblue" points="1227.88,-304.527 1218.43,-299.751 1222.84,-309.382 1227.88,-304.527"/>
</g>
<!-- Node41&#45;&gt;Node3 -->
<g id="edge61" class="edge"><title>Node41&#45;&gt;Node3</title>
<path fill="none" stroke="midnightblue" d="M1394.86,-280.267C1378.46,-257.653 1331.08,-196.935 1276,-168 1228.83,-143.219 1169.48,-132.054 1123.72,-127.039"/>
<polygon fill="midnightblue" stroke="midnightblue" points="1123.89,-123.538 1113.59,-126.004 1123.18,-130.502 1123.89,-123.538"/>
</g>
<!-- Node41&#45;&gt;Node36 -->
<g id="edge62" class="edge"><title>Node41&#45;&gt;Node36</title>
<path fill="none" stroke="midnightblue" d="M1421.6,-280.444C1442.99,-271.557 1476.68,-257.563 1501.02,-247.451"/>
<polygon fill="midnightblue" stroke="midnightblue" points="1502.61,-250.585 1510.5,-243.516 1499.92,-244.12 1502.61,-250.585"/>
</g>
<!-- Node42&#45;&gt;Node3 -->
<g id="edge64" class="edge"><title>Node42&#45;&gt;Node3</title>
<path fill="none" stroke="midnightblue" d="M1456.59,-336.354C1454.12,-323.248 1448.12,-297.981 1436,-280 1393.19,-216.478 1374.31,-200.615 1305,-168 1247.76,-141.065 1176.31,-130.163 1123.95,-125.795"/>
<polygon fill="midnightblue" stroke="midnightblue" points="1123.99,-122.288 1113.75,-125.006 1123.45,-129.267 1123.99,-122.288"/>
</g>
<!-- Node42&#45;&gt;Node36 -->
<g id="edge65" class="edge"><title>Node42&#45;&gt;Node36</title>
<path fill="none" stroke="midnightblue" d="M1463.73,-336.368C1475.78,-318.215 1503.92,-275.802 1519.72,-251.99"/>
<polygon fill="midnightblue" stroke="midnightblue" points="1522.69,-253.859 1525.3,-243.591 1516.85,-249.988 1522.69,-253.859"/>
</g>
<!-- Node42&#45;&gt;Node41 -->
<g id="edge66" class="edge"><title>Node42&#45;&gt;Node41</title>
<path fill="none" stroke="midnightblue" d="M1448.84,-336.324C1440.5,-328.42 1427.97,-316.548 1417.82,-306.938"/>
<polygon fill="midnightblue" stroke="midnightblue" points="1419.99,-304.171 1410.32,-299.834 1415.18,-309.252 1419.99,-304.171"/>
</g>
</g>
</svg>
        <g id="navigator" transform="translate(0 0)" fill="#404254">
                <rect fill="#f2f5e9" fill-opacity="0.5" stroke="#606060" stroke-width=".5" x="0" y="0" width="60" height="60"/>
                <use id="zoomplus" xlink:href="#zoomPlus" x="17" y="9" onmousedown="handleZoom(evt,'in')"/>
                <use id="zoomminus" xlink:href="#zoomMin" x="42" y="9" onmousedown="handleZoom(evt,'out')"/>
                <use id="reset" xlink:href="#resetDef" x="30" y="36" onmousedown="handleReset()"/>
                <g id="arrowUp" xlink:href="#dirArrow" transform="translate(30 24)" onmousedown="handlePan(0,-1)">
                  <use xlink:href="#rim" fill="#404040">
                        <set attributeName="fill" to="#808080" begin="arrowUp.mouseover" end="arrowUp.mouseout"/>
                  </use>
                  <path fill="none" stroke="white" stroke-width="1.5" d="M0,-3.0v7 M-2.5,-0.5L0,-3.0L2.5,-0.5"/>
                </g>
                <g id="arrowRight" xlink:href="#dirArrow" transform="rotate(90) translate(36 -43)" onmousedown="handlePan(1,0)">
                  <use xlink:href="#rim" fill="#404040">
                        <set attributeName="fill" to="#808080" begin="arrowRight.mouseover" end="arrowRight.mouseout"/>
                  </use>
                  <path fill="none" stroke="white" stroke-width="1.5" d="M0,-3.0v7 M-2.5,-0.5L0,-3.0L2.5,-0.5"/>
                </g>
                <g id="arrowDown" xlink:href="#dirArrow" transform="rotate(180) translate(-30 -48)" onmousedown="handlePan(0,1)">
                  <use xlink:href="#rim" fill="#404040">
                        <set attributeName="fill" to="#808080" begin="arrowDown.mouseover" end="arrowDown.mouseout"/>
                  </use>
                  <path fill="none" stroke="white" stroke-width="1.5" d="M0,-3.0v7 M-2.5,-0.5L0,-3.0L2.5,-0.5"/>
                </g>
                <g id="arrowLeft" xlink:href="#dirArrow" transform="rotate(270) translate(-36 17)" onmousedown="handlePan(-1,0)">
                  <use xlink:href="#rim" fill="#404040">
                        <set attributeName="fill" to="#808080" begin="arrowLeft.mouseover" end="arrowLeft.mouseout"/>
                  </use>
                  <path fill="none" stroke="white" stroke-width="1.5" d="M0,-3.0v7 M-2.5,-0.5L0,-3.0L2.5,-0.5"/>
                </g>
        </g>
        <svg viewBox="0 0 15 15" width="100%" height="30px" preserveAspectRatio="xMaxYMin meet">
         <g id="arrow_out" transform="scale(0.3 0.3)">
          <a xlink:href="lsfit_8cpp__incl_org.svg" target="_base">
           <rect id="button" ry="5" rx="5" y="6" x="6" height="38" width="38"
                fill="#f2f5e9" fill-opacity="0.5" stroke="#606060" stroke-width="1.0"/>
           <path id="arrow"
             d="M 11.500037,31.436501 C 11.940474,20.09759 22.043105,11.32322 32.158766,21.979434 L 37.068811,17.246167 C 37.068811,17.246167 37.088388,32 37.088388,32 L 22.160133,31.978069 C 22.160133,31.978069 26.997745,27.140456 26.997745,27.140456 C 18.528582,18.264221 13.291696,25.230495 11.500037,31.436501 z"
             style="fill:#404040;"/>
          </a>
         </g>
        </svg>
</svg>
