<?xml version="1.0" encoding="UTF-8" standalone="no"?>
<!DOCTYPE svg PUBLIC "-//W3C//DTD SVG 1.1//EN"
 "http://www.w3.org/Graphics/SVG/1.1/DTD/svg11.dtd">
<!-- Generated by graphviz version 2.38.0 (20140413.2041)
 -->
<!-- Title: mainwindow.cpp Pages: 1 -->
<svg width="1802pt" height="644pt"
 viewBox="0.00 0.00 1801.50 644.00" xmlns="http://www.w3.org/2000/svg" xmlns:xlink="http://www.w3.org/1999/xlink">
<g id="graph0" class="graph" transform="scale(1 1) rotate(0) translate(4 640)">
<title>mainwindow.cpp</title>
<polygon fill="white" stroke="none" points="-4,4 -4,-640 1797.5,-640 1797.5,4 -4,4"/>
<!-- Node1 -->
<g id="node1" class="node"><title>Node1</title>
<polygon fill="#bfbfbf" stroke="black" points="1024,-616.5 1024,-635.5 1113,-635.5 1113,-616.5 1024,-616.5"/>
<text text-anchor="middle" x="1068.5" y="-623.5" font-family="Helvetica,sans-Serif" font-size="10.00">mainwindow.cpp</text>
</g>
<!-- Node2 -->
<g id="node2" class="node"><title>Node2</title>
<g id="a_node2"><a xlink:href="mainwindow_8h.html" target="_top" xlink:title="mainwindow.h">
<polygon fill="white" stroke="black" points="913,-504.5 913,-523.5 992,-523.5 992,-504.5 913,-504.5"/>
<text text-anchor="middle" x="952.5" y="-511.5" font-family="Helvetica,sans-Serif" font-size="10.00">mainwindow.h</text>
</a>
</g>
</g>
<!-- Node1&#45;&gt;Node2 -->
<g id="edge1" class="edge"><title>Node1&#45;&gt;Node2</title>
<path fill="none" stroke="midnightblue" d="M1023.82,-617.021C1001.69,-610.721 976.541,-599.576 961.5,-580 951.422,-566.884 949.881,-547.738 950.434,-533.621"/>
<polygon fill="midnightblue" stroke="midnightblue" points="953.929,-533.827 951.205,-523.588 946.949,-533.291 953.929,-533.827"/>
</g>
<!-- Node4 -->
<g id="node4" class="node"><title>Node4</title>
<polygon fill="white" stroke="#bfbfbf" points="970.5,-560.5 970.5,-579.5 1062.5,-579.5 1062.5,-560.5 970.5,-560.5"/>
<text text-anchor="middle" x="1016.5" y="-567.5" font-family="Helvetica,sans-Serif" font-size="10.00">ui_mainwindow.h</text>
</g>
<!-- Node1&#45;&gt;Node4 -->
<g id="edge3" class="edge"><title>Node1&#45;&gt;Node4</title>
<path fill="none" stroke="midnightblue" d="M1059.91,-616.083C1052.34,-608.22 1041.12,-596.569 1031.99,-587.081"/>
<polygon fill="midnightblue" stroke="midnightblue" points="1034.38,-584.527 1024.93,-579.751 1029.34,-589.382 1034.38,-584.527"/>
</g>
<!-- Node5 -->
<g id="node5" class="node"><title>Node5</title>
<g id="a_node5"><a xlink:href="filepathdialog_8h.html" target="_top" xlink:title="filepathdialog.h">
<polygon fill="white" stroke="black" points="1080.5,-560.5 1080.5,-579.5 1162.5,-579.5 1162.5,-560.5 1080.5,-560.5"/>
<text text-anchor="middle" x="1121.5" y="-567.5" font-family="Helvetica,sans-Serif" font-size="10.00">filepathdialog.h</text>
</a>
</g>
</g>
<!-- Node1&#45;&gt;Node5 -->
<g id="edge4" class="edge"><title>Node1&#45;&gt;Node5</title>
<path fill="none" stroke="midnightblue" d="M1077.25,-616.083C1084.97,-608.22 1096.4,-596.569 1105.72,-587.081"/>
<polygon fill="midnightblue" stroke="midnightblue" points="1108.4,-589.34 1112.91,-579.751 1103.41,-584.436 1108.4,-589.34"/>
</g>
<!-- Node7 -->
<g id="node7" class="node"><title>Node7</title>
<g id="a_node7"><a xlink:href="testcontainer_8h.html" target="_top" xlink:title="testcontainer.h">
<polygon fill="white" stroke="black" points="1181,-560.5 1181,-579.5 1262,-579.5 1262,-560.5 1181,-560.5"/>
<text text-anchor="middle" x="1221.5" y="-567.5" font-family="Helvetica,sans-Serif" font-size="10.00">testcontainer.h</text>
</a>
</g>
</g>
<!-- Node1&#45;&gt;Node7 -->
<g id="edge6" class="edge"><title>Node1&#45;&gt;Node7</title>
<path fill="none" stroke="midnightblue" d="M1092.74,-616.444C1118.37,-607.399 1158.99,-593.064 1187.74,-582.916"/>
<polygon fill="midnightblue" stroke="midnightblue" points="1189.11,-586.145 1197.37,-579.516 1186.78,-579.544 1189.11,-586.145"/>
</g>
<!-- Node3 -->
<g id="node3" class="node"><title>Node3</title>
<polygon fill="white" stroke="#bfbfbf" points="912.5,-448.5 912.5,-467.5 992.5,-467.5 992.5,-448.5 912.5,-448.5"/>
<text text-anchor="middle" x="952.5" y="-455.5" font-family="Helvetica,sans-Serif" font-size="10.00">QMainWindow</text>
</g>
<!-- Node2&#45;&gt;Node3 -->
<g id="edge2" class="edge"><title>Node2&#45;&gt;Node3</title>
<path fill="none" stroke="midnightblue" d="M952.5,-504.083C952.5,-497.006 952.5,-486.861 952.5,-477.986"/>
<polygon fill="midnightblue" stroke="midnightblue" points="956,-477.751 952.5,-467.751 949,-477.751 956,-477.751"/>
</g>
<!-- Node6 -->
<g id="node6" class="node"><title>Node6</title>
<polygon fill="white" stroke="#bfbfbf" points="1031.5,-504.5 1031.5,-523.5 1083.5,-523.5 1083.5,-504.5 1031.5,-504.5"/>
<text text-anchor="middle" x="1057.5" y="-511.5" font-family="Helvetica,sans-Serif" font-size="10.00">QDialog</text>
</g>
<!-- Node5&#45;&gt;Node6 -->
<g id="edge5" class="edge"><title>Node5&#45;&gt;Node6</title>
<path fill="none" stroke="midnightblue" d="M1111.22,-560.324C1101.66,-552.263 1087.22,-540.077 1075.72,-530.369"/>
<polygon fill="midnightblue" stroke="midnightblue" points="1077.87,-527.608 1067.97,-523.834 1073.36,-532.958 1077.87,-527.608"/>
</g>
<!-- Node7&#45;&gt;Node2 -->
<g id="edge79" class="edge"><title>Node7&#45;&gt;Node2</title>
<path fill="none" stroke="midnightblue" d="M1180.94,-560.857C1133.05,-551.245 1053.44,-535.263 1001.98,-524.932"/>
<polygon fill="midnightblue" stroke="midnightblue" points="1002.57,-521.481 992.077,-522.945 1001.19,-528.345 1002.57,-521.481"/>
</g>
<!-- Node8 -->
<g id="node8" class="node"><title>Node8</title>
<polygon fill="white" stroke="#bfbfbf" points="1252,-504.5 1252,-523.5 1307,-523.5 1307,-504.5 1252,-504.5"/>
<text text-anchor="middle" x="1279.5" y="-511.5" font-family="Helvetica,sans-Serif" font-size="10.00">QWidget</text>
</g>
<!-- Node7&#45;&gt;Node8 -->
<g id="edge7" class="edge"><title>Node7&#45;&gt;Node8</title>
<path fill="none" stroke="midnightblue" d="M1230.82,-560.324C1239.39,-552.341 1252.31,-540.313 1262.69,-530.653"/>
<polygon fill="midnightblue" stroke="midnightblue" points="1265.08,-533.21 1270.01,-523.834 1260.31,-528.086 1265.08,-533.21"/>
</g>
<!-- Node9 -->
<g id="node9" class="node"><title>Node9</title>
<polygon fill="white" stroke="#bfbfbf" points="1325,-504.5 1325,-523.5 1396,-523.5 1396,-504.5 1325,-504.5"/>
<text text-anchor="middle" x="1360.5" y="-511.5" font-family="Helvetica,sans-Serif" font-size="10.00">QListWidget</text>
</g>
<!-- Node7&#45;&gt;Node9 -->
<g id="edge8" class="edge"><title>Node7&#45;&gt;Node9</title>
<path fill="none" stroke="midnightblue" d="M1243.52,-560.444C1266.6,-551.478 1303.06,-537.314 1329.14,-527.183"/>
<polygon fill="midnightblue" stroke="midnightblue" points="1330.52,-530.4 1338.58,-523.516 1327.99,-523.875 1330.52,-530.4"/>
</g>
<!-- Node10 -->
<g id="node10" class="node"><title>Node10</title>
<g id="a_node10"><a xlink:href="convertlib_8h.html" target="_top" xlink:title="convertlib include file A library providing functions for conversion between the various position and...">
<polygon fill="white" stroke="black" points="1102,-504.5 1102,-523.5 1169,-523.5 1169,-504.5 1102,-504.5"/>
<text text-anchor="middle" x="1135.5" y="-511.5" font-family="Helvetica,sans-Serif" font-size="10.00">convertlib.h</text>
</a>
</g>
</g>
<!-- Node7&#45;&gt;Node10 -->
<g id="edge9" class="edge"><title>Node7&#45;&gt;Node10</title>
<path fill="none" stroke="midnightblue" d="M1207.68,-560.324C1194.27,-551.9 1173.68,-538.971 1157.91,-529.074"/>
<polygon fill="midnightblue" stroke="midnightblue" points="1159.61,-526.008 1149.28,-523.655 1155.89,-531.936 1159.61,-526.008"/>
</g>
<!-- Node42 -->
<g id="node42" class="node"><title>Node42</title>
<g id="a_node42"><a xlink:href="mathlib_8h.html" target="_top" xlink:title="mathlib include file ">
<polygon fill="white" stroke="black" points="1383,-392.5 1383,-411.5 1464,-411.5 1464,-392.5 1383,-392.5"/>
<text text-anchor="middle" x="1423.5" y="-399.5" font-family="Helvetica,sans-Serif" font-size="10.00">math/mathlib.h</text>
</a>
</g>
</g>
<!-- Node7&#45;&gt;Node42 -->
<g id="edge77" class="edge"><title>Node7&#45;&gt;Node42</title>
<path fill="none" stroke="midnightblue" d="M1262.2,-564.339C1310.38,-557.952 1386.5,-544.838 1405.5,-524 1431.05,-495.975 1429.72,-448.172 1426.57,-421.819"/>
<polygon fill="midnightblue" stroke="midnightblue" points="1430,-421.075 1425.13,-411.663 1423.07,-422.054 1430,-421.075"/>
</g>
<!-- Node50 -->
<g id="node50" class="node"><title>Node50</title>
<polygon fill="white" stroke="#bfbfbf" points="1187.5,-504.5 1187.5,-523.5 1233.5,-523.5 1233.5,-504.5 1187.5,-504.5"/>
<text text-anchor="middle" x="1210.5" y="-511.5" font-family="Helvetica,sans-Serif" font-size="10.00">stdio.h</text>
</g>
<!-- Node7&#45;&gt;Node50 -->
<g id="edge78" class="edge"><title>Node7&#45;&gt;Node50</title>
<path fill="none" stroke="midnightblue" d="M1219.68,-560.083C1218.23,-552.927 1216.13,-542.635 1214.31,-533.691"/>
<polygon fill="midnightblue" stroke="midnightblue" points="1217.71,-532.851 1212.28,-523.751 1210.85,-534.248 1217.71,-532.851"/>
</g>
<!-- Node11 -->
<g id="node11" class="node"><title>Node11</title>
<g id="a_node11"><a xlink:href="config_cosmos_8h.html" target="_top" xlink:title="Headers and definitions common to all COSMOS. ">
<polygon fill="white" stroke="black" points="994,-112.5 994,-131.5 1117,-131.5 1117,-112.5 994,-112.5"/>
<text text-anchor="middle" x="1055.5" y="-119.5" font-family="Helvetica,sans-Serif" font-size="10.00">support/configCosmos.h</text>
</a>
</g>
</g>
<!-- Node10&#45;&gt;Node11 -->
<g id="edge10" class="edge"><title>Node10&#45;&gt;Node11</title>
<path fill="none" stroke="midnightblue" d="M1118.32,-504.412C1104.55,-496.681 1085.73,-484.074 1074.5,-468 1057.26,-443.327 1055.5,-433.098 1055.5,-403 1055.5,-403 1055.5,-403 1055.5,-233 1055.5,-200.948 1055.5,-163.643 1055.5,-141.749"/>
<polygon fill="midnightblue" stroke="midnightblue" points="1059,-141.558 1055.5,-131.558 1052,-141.558 1059,-141.558"/>
</g>
<!-- Node10&#45;&gt;Node42 -->
<g id="edge50" class="edge"><title>Node10&#45;&gt;Node42</title>
<path fill="none" stroke="midnightblue" d="M1158.1,-504.368C1208.99,-484.93 1332.72,-437.674 1391.49,-415.228"/>
<polygon fill="midnightblue" stroke="midnightblue" points="1392.91,-418.429 1401.01,-411.591 1390.42,-411.89 1392.91,-418.429"/>
</g>
<!-- Node49 -->
<g id="node49" class="node"><title>Node49</title>
<g id="a_node49"><a xlink:href="convertdef_8h.html" target="_top" xlink:title="support/convertdef.h">
<polygon fill="white" stroke="black" points="1083.5,-448.5 1083.5,-467.5 1189.5,-467.5 1189.5,-448.5 1083.5,-448.5"/>
<text text-anchor="middle" x="1136.5" y="-455.5" font-family="Helvetica,sans-Serif" font-size="10.00">support/convertdef.h</text>
</a>
</g>
</g>
<!-- Node10&#45;&gt;Node49 -->
<g id="edge74" class="edge"><title>Node10&#45;&gt;Node49</title>
<path fill="none" stroke="midnightblue" d="M1135.67,-504.083C1135.8,-497.006 1135.98,-486.861 1136.15,-477.986"/>
<polygon fill="midnightblue" stroke="midnightblue" points="1139.65,-477.814 1136.34,-467.751 1132.65,-477.685 1139.65,-477.814"/>
</g>
<!-- Node12 -->
<g id="node12" class="node"><title>Node12</title>
<polygon fill="white" stroke="#bfbfbf" points="635,-56.5 635,-75.5 680,-75.5 680,-56.5 635,-56.5"/>
<text text-anchor="middle" x="657.5" y="-63.5" font-family="Helvetica,sans-Serif" font-size="10.00">climits</text>
</g>
<!-- Node11&#45;&gt;Node12 -->
<g id="edge11" class="edge"><title>Node11&#45;&gt;Node12</title>
<path fill="none" stroke="midnightblue" d="M993.972,-116.492C922.821,-110.603 802.105,-98.5296 690.19,-76.0724"/>
<polygon fill="midnightblue" stroke="midnightblue" points="690.58,-72.58 680.082,-74.0106 689.181,-79.4388 690.58,-72.58"/>
</g>
<!-- Node13 -->
<g id="node13" class="node"><title>Node13</title>
<polygon fill="white" stroke="#bfbfbf" points="698,-56.5 698,-75.5 745,-75.5 745,-56.5 698,-56.5"/>
<text text-anchor="middle" x="721.5" y="-63.5" font-family="Helvetica,sans-Serif" font-size="10.00">csignal</text>
</g>
<!-- Node11&#45;&gt;Node13 -->
<g id="edge12" class="edge"><title>Node11&#45;&gt;Node13</title>
<path fill="none" stroke="midnightblue" d="M993.726,-113.927C934.821,-106.694 843.478,-94.2097 755.133,-75.9086"/>
<polygon fill="midnightblue" stroke="midnightblue" points="755.718,-72.4552 745.212,-73.8259 754.279,-79.3059 755.718,-72.4552"/>
</g>
<!-- Node14 -->
<g id="node14" class="node"><title>Node14</title>
<polygon fill="white" stroke="#bfbfbf" points="1507.5,-56.5 1507.5,-75.5 1553.5,-75.5 1553.5,-56.5 1507.5,-56.5"/>
<text text-anchor="middle" x="1530.5" y="-63.5" font-family="Helvetica,sans-Serif" font-size="10.00">cstdint</text>
</g>
<!-- Node11&#45;&gt;Node14 -->
<g id="edge13" class="edge"><title>Node11&#45;&gt;Node14</title>
<path fill="none" stroke="midnightblue" d="M1117.16,-117.323C1202.27,-111.645 1360.35,-98.9243 1493.5,-76 1494.75,-75.7855 1496.01,-75.5528 1497.29,-75.3058"/>
<polygon fill="midnightblue" stroke="midnightblue" points="1498.07,-78.7181 1507.11,-73.1983 1496.6,-71.8739 1498.07,-78.7181"/>
</g>
<!-- Node15 -->
<g id="node15" class="node"><title>Node15</title>
<polygon fill="white" stroke="#bfbfbf" points="763.5,-56.5 763.5,-75.5 819.5,-75.5 819.5,-56.5 763.5,-56.5"/>
<text text-anchor="middle" x="791.5" y="-63.5" font-family="Helvetica,sans-Serif" font-size="10.00">cinttypes</text>
</g>
<!-- Node11&#45;&gt;Node15 -->
<g id="edge14" class="edge"><title>Node11&#45;&gt;Node15</title>
<path fill="none" stroke="midnightblue" d="M1009.29,-112.442C965.494,-104.195 897.615,-91.0664 829.761,-76.2087"/>
<polygon fill="midnightblue" stroke="midnightblue" points="830.272,-72.7373 819.753,-74.0044 828.766,-79.5735 830.272,-72.7373"/>
</g>
<!-- Node16 -->
<g id="node16" class="node"><title>Node16</title>
<polygon fill="white" stroke="#bfbfbf" points="838,-56.5 838,-75.5 881,-75.5 881,-56.5 838,-56.5"/>
<text text-anchor="middle" x="859.5" y="-63.5" font-family="Helvetica,sans-Serif" font-size="10.00">cstdio</text>
</g>
<!-- Node11&#45;&gt;Node16 -->
<g id="edge15" class="edge"><title>Node11&#45;&gt;Node16</title>
<path fill="none" stroke="midnightblue" d="M1022.98,-112.461C991.495,-104.13 942.16,-90.9202 891.017,-76.3842"/>
<polygon fill="midnightblue" stroke="midnightblue" points="891.686,-72.9357 881.11,-73.5581 889.766,-79.6672 891.686,-72.9357"/>
</g>
<!-- Node17 -->
<g id="node17" class="node"><title>Node17</title>
<polygon fill="white" stroke="#bfbfbf" points="899,-56.5 899,-75.5 948,-75.5 948,-56.5 899,-56.5"/>
<text text-anchor="middle" x="923.5" y="-63.5" font-family="Helvetica,sans-Serif" font-size="10.00">cstddef</text>
</g>
<!-- Node11&#45;&gt;Node17 -->
<g id="edge16" class="edge"><title>Node11&#45;&gt;Node17</title>
<path fill="none" stroke="midnightblue" d="M1034.58,-112.444C1012.76,-103.517 978.35,-89.4387 953.608,-79.3168"/>
<polygon fill="midnightblue" stroke="midnightblue" points="954.899,-76.0634 944.318,-75.5164 952.248,-82.5422 954.899,-76.0634"/>
</g>
<!-- Node18 -->
<g id="node18" class="node"><title>Node18</title>
<polygon fill="white" stroke="#bfbfbf" points="966,-56.5 966,-75.5 1011,-75.5 1011,-56.5 966,-56.5"/>
<text text-anchor="middle" x="988.5" y="-63.5" font-family="Helvetica,sans-Serif" font-size="10.00">cstdlib</text>
</g>
<!-- Node11&#45;&gt;Node18 -->
<g id="edge17" class="edge"><title>Node11&#45;&gt;Node18</title>
<path fill="none" stroke="midnightblue" d="M1044.74,-112.324C1034.73,-104.263 1019.61,-92.0765 1007.57,-82.3695"/>
<polygon fill="midnightblue" stroke="midnightblue" points="1009.44,-79.3841 999.461,-75.8339 1005.05,-84.8343 1009.44,-79.3841"/>
</g>
<!-- Node19 -->
<g id="node19" class="node"><title>Node19</title>
<polygon fill="white" stroke="#bfbfbf" points="1029.5,-56.5 1029.5,-75.5 1073.5,-75.5 1073.5,-56.5 1029.5,-56.5"/>
<text text-anchor="middle" x="1051.5" y="-63.5" font-family="Helvetica,sans-Serif" font-size="10.00">cerrno</text>
</g>
<!-- Node11&#45;&gt;Node19 -->
<g id="edge18" class="edge"><title>Node11&#45;&gt;Node19</title>
<path fill="none" stroke="midnightblue" d="M1054.84,-112.083C1054.32,-105.006 1053.56,-94.8611 1052.91,-85.9865"/>
<polygon fill="midnightblue" stroke="midnightblue" points="1056.38,-85.4652 1052.15,-75.7511 1049.4,-85.9823 1056.38,-85.4652"/>
</g>
<!-- Node20 -->
<g id="node20" class="node"><title>Node20</title>
<polygon fill="white" stroke="#bfbfbf" points="1211.5,-56.5 1211.5,-75.5 1257.5,-75.5 1257.5,-56.5 1211.5,-56.5"/>
<text text-anchor="middle" x="1234.5" y="-63.5" font-family="Helvetica,sans-Serif" font-size="10.00">cstring</text>
</g>
<!-- Node11&#45;&gt;Node20 -->
<g id="edge19" class="edge"><title>Node11&#45;&gt;Node20</title>
<path fill="none" stroke="midnightblue" d="M1083.86,-112.444C1115.85,-102.795 1167.78,-87.1273 1201.54,-76.9429"/>
<polygon fill="midnightblue" stroke="midnightblue" points="1202.83,-80.2101 1211.39,-73.971 1200.81,-73.5084 1202.83,-80.2101"/>
</g>
<!-- Node21 -->
<g id="node21" class="node"><title>Node21</title>
<polygon fill="white" stroke="#bfbfbf" points="1749.5,-56.5 1749.5,-75.5 1793.5,-75.5 1793.5,-56.5 1749.5,-56.5"/>
<text text-anchor="middle" x="1771.5" y="-63.5" font-family="Helvetica,sans-Serif" font-size="10.00">cmath</text>
</g>
<!-- Node11&#45;&gt;Node21 -->
<g id="edge20" class="edge"><title>Node11&#45;&gt;Node21</title>
<path fill="none" stroke="midnightblue" d="M1117.44,-121.405C1236.53,-121.215 1505.61,-116.09 1739.24,-75.8319"/>
<polygon fill="midnightblue" stroke="midnightblue" points="1740.04,-79.2457 1749.29,-74.0753 1738.83,-72.3503 1740.04,-79.2457"/>
</g>
<!-- Node22 -->
<g id="node22" class="node"><title>Node22</title>
<polygon fill="white" stroke="#bfbfbf" points="1276,-56.5 1276,-75.5 1321,-75.5 1321,-56.5 1276,-56.5"/>
<text text-anchor="middle" x="1298.5" y="-63.5" font-family="Helvetica,sans-Serif" font-size="10.00">iosfwd</text>
</g>
<!-- Node11&#45;&gt;Node22 -->
<g id="edge21" class="edge"><title>Node11&#45;&gt;Node22</title>
<path fill="none" stroke="midnightblue" d="M1099.74,-112.423C1140.47,-104.334 1202.77,-91.4781 1266.07,-75.9793"/>
<polygon fill="midnightblue" stroke="midnightblue" points="1266.95,-79.3665 1275.82,-73.5718 1265.27,-72.5705 1266.95,-79.3665"/>
</g>
<!-- Node23 -->
<g id="node23" class="node"><title>Node23</title>
<polygon fill="white" stroke="#bfbfbf" points="1677.5,-56.5 1677.5,-75.5 1731.5,-75.5 1731.5,-56.5 1677.5,-56.5"/>
<text text-anchor="middle" x="1704.5" y="-63.5" font-family="Helvetica,sans-Serif" font-size="10.00">iostream</text>
</g>
<!-- Node11&#45;&gt;Node23 -->
<g id="edge22" class="edge"><title>Node11&#45;&gt;Node23</title>
<path fill="none" stroke="midnightblue" d="M1117.27,-117.039C1222.66,-110.086 1443.93,-94.6372 1630.5,-76 1642.55,-74.7961 1655.68,-73.2696 1667.49,-71.8173"/>
<polygon fill="midnightblue" stroke="midnightblue" points="1667.98,-75.2836 1677.47,-70.5702 1667.11,-68.3377 1667.98,-75.2836"/>
</g>
<!-- Node24 -->
<g id="node24" class="node"><title>Node24</title>
<polygon fill="white" stroke="#bfbfbf" points="1339.5,-56.5 1339.5,-75.5 1391.5,-75.5 1391.5,-56.5 1339.5,-56.5"/>
<text text-anchor="middle" x="1365.5" y="-63.5" font-family="Helvetica,sans-Serif" font-size="10.00">sstream</text>
</g>
<!-- Node11&#45;&gt;Node24 -->
<g id="edge23" class="edge"><title>Node11&#45;&gt;Node24</title>
<path fill="none" stroke="midnightblue" d="M1117.23,-112.512C1170.86,-104.771 1250.82,-92.3539 1329.15,-76.1371"/>
<polygon fill="midnightblue" stroke="midnightblue" points="1330.12,-79.5103 1339.19,-74.0355 1328.68,-72.6588 1330.12,-79.5103"/>
</g>
<!-- Node25 -->
<g id="node25" class="node"><title>Node25</title>
<polygon fill="white" stroke="#bfbfbf" points="1410,-56.5 1410,-75.5 1451,-75.5 1451,-56.5 1410,-56.5"/>
<text text-anchor="middle" x="1430.5" y="-63.5" font-family="Helvetica,sans-Serif" font-size="10.00">regex</text>
</g>
<!-- Node11&#45;&gt;Node25 -->
<g id="edge24" class="edge"><title>Node11&#45;&gt;Node25</title>
<path fill="none" stroke="midnightblue" d="M1117.08,-115.997C1184.39,-109.85 1295.47,-97.722 1400.17,-75.7291"/>
<polygon fill="midnightblue" stroke="midnightblue" points="1400.91,-79.1507 1409.96,-73.6403 1399.45,-72.3049 1400.91,-79.1507"/>
</g>
<!-- Node26 -->
<g id="node26" class="node"><title>Node26</title>
<polygon fill="white" stroke="#bfbfbf" points="1571.5,-56.5 1571.5,-75.5 1621.5,-75.5 1621.5,-56.5 1571.5,-56.5"/>
<text text-anchor="middle" x="1596.5" y="-63.5" font-family="Helvetica,sans-Serif" font-size="10.00">iomanip</text>
</g>
<!-- Node11&#45;&gt;Node26 -->
<g id="edge25" class="edge"><title>Node11&#45;&gt;Node26</title>
<path fill="none" stroke="midnightblue" d="M1117.2,-118.909C1211.23,-114.978 1396.04,-104.329 1561.49,-75.8875"/>
<polygon fill="midnightblue" stroke="midnightblue" points="1562.11,-79.3333 1571.35,-74.1665 1560.9,-72.4375 1562.11,-79.3333"/>
</g>
<!-- Node27 -->
<g id="node27" class="node"><title>Node27</title>
<polygon fill="white" stroke="#bfbfbf" points="0,-56.5 0,-75.5 51,-75.5 51,-56.5 0,-56.5"/>
<text text-anchor="middle" x="25.5" y="-63.5" font-family="Helvetica,sans-Serif" font-size="10.00">unistd.h</text>
</g>
<!-- Node11&#45;&gt;Node27 -->
<g id="edge26" class="edge"><title>Node11&#45;&gt;Node27</title>
<path fill="none" stroke="midnightblue" d="M993.822,-119.878C809.054,-116.258 261.052,-103.569 61.4624,-75.752"/>
<polygon fill="midnightblue" stroke="midnightblue" points="61.7704,-72.2601 51.3713,-74.2873 60.7648,-79.1876 61.7704,-72.2601"/>
</g>
<!-- Node28 -->
<g id="node28" class="node"><title>Node28</title>
<polygon fill="white" stroke="#bfbfbf" points="69.5,-56.5 69.5,-75.5 113.5,-75.5 113.5,-56.5 69.5,-56.5"/>
<text text-anchor="middle" x="91.5" y="-63.5" font-family="Helvetica,sans-Serif" font-size="10.00">fcntl.h</text>
</g>
<!-- Node11&#45;&gt;Node28 -->
<g id="edge27" class="edge"><title>Node11&#45;&gt;Node28</title>
<path fill="none" stroke="midnightblue" d="M993.833,-119.91C817.038,-116.491 309.732,-104.557 123.648,-75.7312"/>
<polygon fill="midnightblue" stroke="midnightblue" points="124.137,-72.265 113.707,-74.1229 123.019,-79.1751 124.137,-72.265"/>
</g>
<!-- Node29 -->
<g id="node29" class="node"><title>Node29</title>
<polygon fill="white" stroke="#bfbfbf" points="131.5,-56.5 131.5,-75.5 171.5,-75.5 171.5,-56.5 131.5,-56.5"/>
<text text-anchor="middle" x="151.5" y="-63.5" font-family="Helvetica,sans-Serif" font-size="10.00">limits</text>
</g>
<!-- Node11&#45;&gt;Node29 -->
<g id="edge28" class="edge"><title>Node11&#45;&gt;Node29</title>
<path fill="none" stroke="midnightblue" d="M993.775,-119.469C822.132,-114.948 341.556,-100.42 185.5,-76 184.244,-75.8035 182.968,-75.5795 181.683,-75.3337"/>
<polygon fill="midnightblue" stroke="midnightblue" points="182.375,-71.902 171.851,-73.1195 180.837,-78.731 182.375,-71.902"/>
</g>
<!-- Node30 -->
<g id="node30" class="node"><title>Node30</title>
<polygon fill="white" stroke="#bfbfbf" points="1330,-0.5 1330,-19.5 1371,-19.5 1371,-0.5 1330,-0.5"/>
<text text-anchor="middle" x="1350.5" y="-7.5" font-family="Helvetica,sans-Serif" font-size="10.00">string</text>
</g>
<!-- Node11&#45;&gt;Node30 -->
<g id="edge29" class="edge"><title>Node11&#45;&gt;Node30</title>
<path fill="none" stroke="midnightblue" d="M1117.06,-118.6C1224.73,-113.765 1438.03,-101.105 1460.5,-76 1487.09,-46.2873 1422.1,-26.2523 1381.03,-16.9547"/>
<polygon fill="midnightblue" stroke="midnightblue" points="1381.69,-13.5163 1371.17,-14.8229 1380.21,-20.3581 1381.69,-13.5163"/>
</g>
<!-- Node31 -->
<g id="node31" class="node"><title>Node31</title>
<polygon fill="white" stroke="#bfbfbf" points="1109.5,-0.5 1109.5,-19.5 1153.5,-19.5 1153.5,-0.5 1109.5,-0.5"/>
<text text-anchor="middle" x="1131.5" y="-7.5" font-family="Helvetica,sans-Serif" font-size="10.00">vector</text>
</g>
<!-- Node11&#45;&gt;Node31 -->
<g id="edge30" class="edge"><title>Node11&#45;&gt;Node31</title>
<path fill="none" stroke="midnightblue" d="M1061.46,-112.368C1074.01,-94.2153 1103.31,-51.8015 1119.76,-27.9902"/>
<polygon fill="midnightblue" stroke="midnightblue" points="1122.76,-29.8083 1125.56,-19.5914 1117,-25.8292 1122.76,-29.8083"/>
</g>
<!-- Node32 -->
<g id="node32" class="node"><title>Node32</title>
<polygon fill="white" stroke="#bfbfbf" points="266,-56.5 266,-75.5 307,-75.5 307,-56.5 266,-56.5"/>
<text text-anchor="middle" x="286.5" y="-63.5" font-family="Helvetica,sans-Serif" font-size="10.00">stack</text>
</g>
<!-- Node11&#45;&gt;Node32 -->
<g id="edge31" class="edge"><title>Node11&#45;&gt;Node32</title>
<path fill="none" stroke="midnightblue" d="M993.986,-119.161C844.358,-114.389 463.531,-100.375 317.371,-75.8795"/>
<polygon fill="midnightblue" stroke="midnightblue" points="317.715,-72.3863 307.26,-74.0977 316.5,-79.2801 317.715,-72.3863"/>
</g>
<!-- Node33 -->
<g id="node33" class="node"><title>Node33</title>
<polygon fill="white" stroke="#bfbfbf" points="325,-56.5 325,-75.5 368,-75.5 368,-56.5 325,-56.5"/>
<text text-anchor="middle" x="346.5" y="-63.5" font-family="Helvetica,sans-Serif" font-size="10.00">deque</text>
</g>
<!-- Node11&#45;&gt;Node33 -->
<g id="edge32" class="edge"><title>Node11&#45;&gt;Node33</title>
<path fill="none" stroke="midnightblue" d="M993.85,-120.54C874.905,-118.845 605.765,-111.085 382.5,-76 381.028,-75.7687 379.529,-75.5058 378.018,-75.2188"/>
<polygon fill="midnightblue" stroke="midnightblue" points="378.589,-71.7612 368.074,-73.0565 377.102,-78.6014 378.589,-71.7612"/>
</g>
<!-- Node34 -->
<g id="node34" class="node"><title>Node34</title>
<polygon fill="white" stroke="#bfbfbf" points="520.5,-0.5 520.5,-19.5 564.5,-19.5 564.5,-0.5 520.5,-0.5"/>
<text text-anchor="middle" x="542.5" y="-7.5" font-family="Helvetica,sans-Serif" font-size="10.00">mutex</text>
</g>
<!-- Node11&#45;&gt;Node34 -->
<g id="edge33" class="edge"><title>Node11&#45;&gt;Node34</title>
<path fill="none" stroke="midnightblue" d="M993.803,-119.816C887.624,-116.953 675.304,-107.373 608.5,-76 585.623,-65.2565 565.961,-43.2076 554.188,-27.7827"/>
<polygon fill="midnightblue" stroke="midnightblue" points="556.933,-25.6062 548.204,-19.6017 551.283,-29.7392 556.933,-25.6062"/>
</g>
<!-- Node35 -->
<g id="node35" class="node"><title>Node35</title>
<polygon fill="white" stroke="#bfbfbf" points="182.5,-0.5 182.5,-19.5 226.5,-19.5 226.5,-0.5 182.5,-0.5"/>
<text text-anchor="middle" x="204.5" y="-7.5" font-family="Helvetica,sans-Serif" font-size="10.00">thread</text>
</g>
<!-- Node11&#45;&gt;Node35 -->
<g id="edge34" class="edge"><title>Node11&#45;&gt;Node35</title>
<path fill="none" stroke="midnightblue" d="M993.761,-120.726C816.001,-119.499 311.588,-112.779 247.5,-76 229.574,-65.7127 217.731,-44.5601 211.094,-29.171"/>
<polygon fill="midnightblue" stroke="midnightblue" points="214.257,-27.6506 207.32,-19.6421 207.748,-30.2283 214.257,-27.6506"/>
</g>
<!-- Node36 -->
<g id="node36" class="node"><title>Node36</title>
<polygon fill="white" stroke="#bfbfbf" points="256,-0.5 256,-19.5 351,-19.5 351,-0.5 256,-0.5"/>
<text text-anchor="middle" x="303.5" y="-7.5" font-family="Helvetica,sans-Serif" font-size="10.00">condition_variable</text>
</g>
<!-- Node11&#45;&gt;Node36 -->
<g id="edge35" class="edge"><title>Node11&#45;&gt;Node36</title>
<path fill="none" stroke="midnightblue" d="M993.752,-119.813C810.637,-115.995 281.732,-102.693 256.5,-76 241.402,-60.0277 262.785,-39.0438 281.405,-25.2987"/>
<polygon fill="midnightblue" stroke="midnightblue" points="283.445,-28.1428 289.625,-19.5367 279.427,-22.4108 283.445,-28.1428"/>
</g>
<!-- Node37 -->
<g id="node37" class="node"><title>Node37</title>
<polygon fill="white" stroke="#bfbfbf" points="391,-0.5 391,-19.5 434,-19.5 434,-0.5 391,-0.5"/>
<text text-anchor="middle" x="412.5" y="-7.5" font-family="Helvetica,sans-Serif" font-size="10.00">queue</text>
</g>
<!-- Node11&#45;&gt;Node37 -->
<g id="edge36" class="edge"><title>Node11&#45;&gt;Node37</title>
<path fill="none" stroke="midnightblue" d="M993.888,-121.217C841.318,-121.126 455.352,-116.823 415.5,-76 403.804,-64.0186 404.646,-44.1221 407.428,-29.4922"/>
<polygon fill="midnightblue" stroke="midnightblue" points="410.884,-30.0843 409.758,-19.5495 404.068,-28.487 410.884,-30.0843"/>
</g>
<!-- Node38 -->
<g id="node38" class="node"><title>Node38</title>
<polygon fill="white" stroke="#bfbfbf" points="589,-0.5 589,-19.5 624,-19.5 624,-0.5 589,-0.5"/>
<text text-anchor="middle" x="606.5" y="-7.5" font-family="Helvetica,sans-Serif" font-size="10.00">map</text>
</g>
<!-- Node11&#45;&gt;Node38 -->
<g id="edge37" class="edge"><title>Node11&#45;&gt;Node38</title>
<path fill="none" stroke="midnightblue" d="M993.938,-118.318C881.801,-112.889 653.2,-99.112 625.5,-76 612.12,-64.8361 607.864,-44.8104 606.653,-29.9268"/>
<polygon fill="midnightblue" stroke="midnightblue" points="610.143,-29.6209 606.219,-19.7796 603.149,-29.92 610.143,-29.6209"/>
</g>
<!-- Node39 -->
<g id="node39" class="node"><title>Node39</title>
<g id="a_node39"><a xlink:href="cosmos-defs_8h.html" target="_top" xlink:title="COSMOS definitions Definitions specific to the COSMOS environement. ">
<polygon fill="white" stroke="black" points="424.5,-56.5 424.5,-75.5 540.5,-75.5 540.5,-56.5 424.5,-56.5"/>
<text text-anchor="middle" x="482.5" y="-63.5" font-family="Helvetica,sans-Serif" font-size="10.00">support/cosmos&#45;defs.h</text>
</a>
</g>
</g>
<!-- Node11&#45;&gt;Node39 -->
<g id="edge38" class="edge"><title>Node11&#45;&gt;Node39</title>
<path fill="none" stroke="midnightblue" d="M993.729,-116.147C899.083,-108.555 712.531,-92.9689 554.5,-76 553.232,-75.8638 551.951,-75.7243 550.661,-75.582"/>
<polygon fill="midnightblue" stroke="midnightblue" points="550.97,-72.0946 540.639,-74.4434 550.18,-79.0499 550.97,-72.0946"/>
</g>
<!-- Node41 -->
<g id="node41" class="node"><title>Node41</title>
<g id="a_node41"><a xlink:href="json11_8hpp.html" target="_top" xlink:title="json11.hpp">
<polygon fill="white" stroke="red" points="1129.5,-56.5 1129.5,-75.5 1193.5,-75.5 1193.5,-56.5 1129.5,-56.5"/>
<text text-anchor="middle" x="1161.5" y="-63.5" font-family="Helvetica,sans-Serif" font-size="10.00">json11.hpp</text>
</a>
</g>
</g>
<!-- Node11&#45;&gt;Node41 -->
<g id="edge46" class="edge"><title>Node11&#45;&gt;Node41</title>
<path fill="none" stroke="midnightblue" d="M1072.53,-112.324C1089.53,-103.664 1115.88,-90.2424 1135.49,-80.249"/>
<polygon fill="midnightblue" stroke="midnightblue" points="1137.19,-83.3125 1144.51,-75.6545 1134.01,-77.0752 1137.19,-83.3125"/>
</g>
<!-- Node39&#45;&gt;Node31 -->
<g id="edge40" class="edge"><title>Node39&#45;&gt;Node31</title>
<path fill="none" stroke="midnightblue" d="M540.666,-60.1603C673.634,-49.0967 996.286,-22.2504 1099.31,-13.6783"/>
<polygon fill="midnightblue" stroke="midnightblue" points="1099.73,-17.1556 1109.41,-12.8383 1099.15,-10.1797 1099.73,-17.1556"/>
</g>
<!-- Node39&#45;&gt;Node34 -->
<g id="edge44" class="edge"><title>Node39&#45;&gt;Node34</title>
<path fill="none" stroke="midnightblue" d="M492.14,-56.324C501.01,-48.3414 514.375,-36.3128 525.108,-26.6529"/>
<polygon fill="midnightblue" stroke="midnightblue" points="527.593,-29.1251 532.685,-19.8339 522.91,-23.922 527.593,-29.1251"/>
</g>
<!-- Node39&#45;&gt;Node35 -->
<g id="edge43" class="edge"><title>Node39&#45;&gt;Node35</title>
<path fill="none" stroke="midnightblue" d="M435.869,-56.4311C388.219,-47.5992 312.114,-33.2839 246.5,-20 243.284,-19.3489 239.933,-18.6558 236.588,-17.9543"/>
<polygon fill="midnightblue" stroke="midnightblue" points="237.222,-14.511 226.713,-15.8583 235.769,-21.3584 237.222,-14.511"/>
</g>
<!-- Node39&#45;&gt;Node36 -->
<g id="edge45" class="edge"><title>Node39&#45;&gt;Node36</title>
<path fill="none" stroke="midnightblue" d="M454.137,-56.4435C423.762,-47.2801 375.39,-32.6876 341.684,-22.5192"/>
<polygon fill="midnightblue" stroke="midnightblue" points="342.315,-19.0538 331.73,-19.5164 340.293,-25.7555 342.315,-19.0538"/>
</g>
<!-- Node39&#45;&gt;Node37 -->
<g id="edge42" class="edge"><title>Node39&#45;&gt;Node37</title>
<path fill="none" stroke="midnightblue" d="M471.253,-56.324C460.703,-48.1849 444.699,-35.8395 432.058,-26.0874"/>
<polygon fill="midnightblue" stroke="midnightblue" points="434.007,-23.1707 423.951,-19.8339 429.731,-28.7132 434.007,-23.1707"/>
</g>
<!-- Node39&#45;&gt;Node38 -->
<g id="edge39" class="edge"><title>Node39&#45;&gt;Node38</title>
<path fill="none" stroke="midnightblue" d="M502.148,-56.4435C523.062,-47.3359 556.292,-32.865 579.621,-22.7053"/>
<polygon fill="midnightblue" stroke="midnightblue" points="581.178,-25.845 588.949,-18.6433 578.383,-19.4271 581.178,-25.845"/>
</g>
<!-- Node40 -->
<g id="node40" class="node"><title>Node40</title>
<polygon fill="white" stroke="#bfbfbf" points="468,-0.5 468,-19.5 497,-19.5 497,-0.5 468,-0.5"/>
<text text-anchor="middle" x="482.5" y="-7.5" font-family="Helvetica,sans-Serif" font-size="10.00">list</text>
</g>
<!-- Node39&#45;&gt;Node40 -->
<g id="edge41" class="edge"><title>Node39&#45;&gt;Node40</title>
<path fill="none" stroke="midnightblue" d="M482.5,-56.083C482.5,-49.0059 482.5,-38.8611 482.5,-29.9865"/>
<polygon fill="midnightblue" stroke="midnightblue" points="486,-29.751 482.5,-19.7511 479,-29.7511 486,-29.751"/>
</g>
<!-- Node41&#45;&gt;Node30 -->
<g id="edge47" class="edge"><title>Node41&#45;&gt;Node30</title>
<path fill="none" stroke="midnightblue" d="M1191.45,-56.4435C1226.59,-46.4015 1284.56,-29.8394 1319.96,-19.7251"/>
<polygon fill="midnightblue" stroke="midnightblue" points="1321.09,-23.0434 1329.74,-16.9308 1319.17,-16.3127 1321.09,-23.0434"/>
</g>
<!-- Node41&#45;&gt;Node31 -->
<g id="edge48" class="edge"><title>Node41&#45;&gt;Node31</title>
<path fill="none" stroke="midnightblue" d="M1156.55,-56.083C1152.4,-48.6127 1146.35,-37.7244 1141.23,-28.5199"/>
<polygon fill="midnightblue" stroke="midnightblue" points="1144.28,-26.7929 1136.36,-19.7511 1138.16,-30.1924 1144.28,-26.7929"/>
</g>
<!-- Node41&#45;&gt;Node38 -->
<g id="edge49" class="edge"><title>Node41&#45;&gt;Node38</title>
<path fill="none" stroke="midnightblue" d="M1129.23,-61.1819C1114.92,-59.5256 1097.88,-57.6026 1082.5,-56 912.485,-38.2808 707.986,-19.9502 634.494,-13.4575"/>
<polygon fill="midnightblue" stroke="midnightblue" points="634.503,-9.94481 624.234,-12.5529 633.888,-16.9178 634.503,-9.94481"/>
</g>
<!-- Node42&#45;&gt;Node11 -->
<g id="edge51" class="edge"><title>Node42&#45;&gt;Node11</title>
<path fill="none" stroke="midnightblue" d="M1382.86,-401.93C1333.27,-401.213 1248.61,-393.85 1188.5,-356 1158.11,-336.864 1140.5,-326.912 1140.5,-291 1140.5,-291 1140.5,-291 1140.5,-233 1140.5,-201.886 1133.33,-192.772 1114.5,-168 1105.06,-155.577 1091.34,-144.836 1079.51,-136.966"/>
<polygon fill="midnightblue" stroke="midnightblue" points="1081.25,-133.926 1070.93,-131.527 1077.51,-139.838 1081.25,-133.926"/>
</g>
<!-- Node42&#45;&gt;Node21 -->
<g id="edge72" class="edge"><title>Node42&#45;&gt;Node21</title>
<path fill="none" stroke="midnightblue" d="M1464.1,-396.846C1555.9,-386.331 1771.5,-354.838 1771.5,-291 1771.5,-291 1771.5,-291 1771.5,-177 1771.5,-144.948 1771.5,-107.643 1771.5,-85.7489"/>
<polygon fill="midnightblue" stroke="midnightblue" points="1775,-85.5577 1771.5,-75.5578 1768,-85.5578 1775,-85.5577"/>
</g>
<!-- Node42&#45;&gt;Node23 -->
<g id="edge73" class="edge"><title>Node42&#45;&gt;Node23</title>
<path fill="none" stroke="midnightblue" d="M1464.03,-395.326C1548.06,-382.421 1733.5,-347.536 1733.5,-291 1733.5,-291 1733.5,-291 1733.5,-177 1733.5,-143.716 1720.93,-106.584 1712.34,-85.0939"/>
<polygon fill="midnightblue" stroke="midnightblue" points="1715.48,-83.5254 1708.41,-75.6354 1709.02,-86.2128 1715.48,-83.5254"/>
</g>
<!-- Node43 -->
<g id="node43" class="node"><title>Node43</title>
<g id="a_node43"><a xlink:href="cosmos-errno_8h.html" target="_top" xlink:title="COSMOS Error Codes. ">
<polygon fill="white" stroke="black" points="1198,-336.5 1198,-355.5 1317,-355.5 1317,-336.5 1198,-336.5"/>
<text text-anchor="middle" x="1257.5" y="-343.5" font-family="Helvetica,sans-Serif" font-size="10.00">support/cosmos&#45;errno.h</text>
</a>
</g>
</g>
<!-- Node42&#45;&gt;Node43 -->
<g id="edge52" class="edge"><title>Node42&#45;&gt;Node43</title>
<path fill="none" stroke="midnightblue" d="M1397.2,-392.444C1369.15,-383.32 1324.56,-368.813 1293.32,-358.651"/>
<polygon fill="midnightblue" stroke="midnightblue" points="1294.27,-355.282 1283.68,-355.516 1292.11,-361.938 1294.27,-355.282"/>
</g>
<!-- Node45 -->
<g id="node45" class="node"><title>Node45</title>
<g id="a_node45"><a xlink:href="math_2constants_8h.html" target="_top" xlink:title="constants.h">
<polygon fill="white" stroke="black" points="1431.5,-168.5 1431.5,-187.5 1499.5,-187.5 1499.5,-168.5 1431.5,-168.5"/>
<text text-anchor="middle" x="1465.5" y="-175.5" font-family="Helvetica,sans-Serif" font-size="10.00">constants.h</text>
</a>
</g>
</g>
<!-- Node42&#45;&gt;Node45 -->
<g id="edge55" class="edge"><title>Node42&#45;&gt;Node45</title>
<path fill="none" stroke="midnightblue" d="M1425.15,-392.297C1431.33,-359.633 1453.23,-243.866 1461.91,-197.957"/>
<polygon fill="midnightblue" stroke="midnightblue" points="1465.4,-198.36 1463.82,-187.884 1458.52,-197.059 1465.4,-198.36"/>
</g>
<!-- Node46 -->
<g id="node46" class="node"><title>Node46</title>
<g id="a_node46"><a xlink:href="vector_8h.html" target="_top" xlink:title="vector.h">
<polygon fill="white" stroke="black" points="1511.5,-224.5 1511.5,-243.5 1563.5,-243.5 1563.5,-224.5 1511.5,-224.5"/>
<text text-anchor="middle" x="1537.5" y="-231.5" font-family="Helvetica,sans-Serif" font-size="10.00">vector.h</text>
</a>
</g>
</g>
<!-- Node42&#45;&gt;Node46 -->
<g id="edge58" class="edge"><title>Node42&#45;&gt;Node46</title>
<path fill="none" stroke="midnightblue" d="M1435.84,-392.472C1447.21,-384.156 1464,-370.651 1475.5,-356 1501.27,-323.167 1521.02,-277.959 1530.77,-253.138"/>
<polygon fill="midnightblue" stroke="midnightblue" points="1534.13,-254.155 1534.43,-243.565 1527.59,-251.656 1534.13,-254.155"/>
</g>
<!-- Node47 -->
<g id="node47" class="node"><title>Node47</title>
<g id="a_node47"><a xlink:href="matrix_8h.html" target="_top" xlink:title="matrix.h">
<polygon fill="white" stroke="black" points="1367.5,-280.5 1367.5,-299.5 1419.5,-299.5 1419.5,-280.5 1367.5,-280.5"/>
<text text-anchor="middle" x="1393.5" y="-287.5" font-family="Helvetica,sans-Serif" font-size="10.00">matrix.h</text>
</a>
</g>
</g>
<!-- Node42&#45;&gt;Node47 -->
<g id="edge65" class="edge"><title>Node42&#45;&gt;Node47</title>
<path fill="none" stroke="midnightblue" d="M1421.15,-392.368C1416.28,-374.537 1405.04,-333.295 1398.48,-309.272"/>
<polygon fill="midnightblue" stroke="midnightblue" points="1401.85,-308.318 1395.84,-299.591 1395.1,-310.16 1401.85,-308.318"/>
</g>
<!-- Node48 -->
<g id="node48" class="node"><title>Node48</title>
<g id="a_node48"><a xlink:href="rotation_8h.html" target="_top" xlink:title="rotation.h">
<polygon fill="white" stroke="black" points="1338,-336.5 1338,-355.5 1395,-355.5 1395,-336.5 1338,-336.5"/>
<text text-anchor="middle" x="1366.5" y="-343.5" font-family="Helvetica,sans-Serif" font-size="10.00">rotation.h</text>
</a>
</g>
</g>
<!-- Node42&#45;&gt;Node48 -->
<g id="edge68" class="edge"><title>Node42&#45;&gt;Node48</title>
<path fill="none" stroke="midnightblue" d="M1414.34,-392.324C1406,-384.42 1393.47,-372.548 1383.32,-362.938"/>
<polygon fill="midnightblue" stroke="midnightblue" points="1385.49,-360.171 1375.82,-355.834 1380.68,-365.252 1385.49,-360.171"/>
</g>
<!-- Node43&#45;&gt;Node11 -->
<g id="edge53" class="edge"><title>Node43&#45;&gt;Node11</title>
<path fill="none" stroke="midnightblue" d="M1255.79,-336.23C1253.08,-323.396 1247.09,-298.966 1237.5,-280 1209.54,-224.709 1202.68,-206.95 1154.5,-168 1136.54,-153.48 1113.14,-142.562 1093.6,-135.118"/>
<polygon fill="midnightblue" stroke="midnightblue" points="1094.66,-131.781 1084.07,-131.642 1092.26,-138.357 1094.66,-131.781"/>
</g>
<!-- Node44 -->
<g id="node44" class="node"><title>Node44</title>
<polygon fill="white" stroke="#bfbfbf" points="1182,-280.5 1182,-299.5 1229,-299.5 1229,-280.5 1182,-280.5"/>
<text text-anchor="middle" x="1205.5" y="-287.5" font-family="Helvetica,sans-Serif" font-size="10.00">errno.h</text>
</g>
<!-- Node43&#45;&gt;Node44 -->
<g id="edge54" class="edge"><title>Node43&#45;&gt;Node44</title>
<path fill="none" stroke="midnightblue" d="M1248.91,-336.083C1241.34,-328.22 1230.12,-316.569 1220.99,-307.081"/>
<polygon fill="midnightblue" stroke="midnightblue" points="1223.38,-304.527 1213.93,-299.751 1218.34,-309.382 1223.38,-304.527"/>
</g>
<!-- Node45&#45;&gt;Node11 -->
<g id="edge56" class="edge"><title>Node45&#45;&gt;Node11</title>
<path fill="none" stroke="midnightblue" d="M1431.25,-172.489C1364.63,-163.714 1216.34,-144.183 1127.26,-132.451"/>
<polygon fill="midnightblue" stroke="midnightblue" points="1127.6,-128.966 1117.23,-131.131 1126.69,-135.906 1127.6,-128.966"/>
</g>
<!-- Node45&#45;&gt;Node14 -->
<g id="edge57" class="edge"><title>Node45&#45;&gt;Node14</title>
<path fill="none" stroke="midnightblue" d="M1470.6,-168.368C1481.28,-150.296 1506.17,-108.176 1520.27,-84.3074"/>
<polygon fill="midnightblue" stroke="midnightblue" points="1523.35,-85.9813 1525.42,-75.5914 1517.32,-82.4201 1523.35,-85.9813"/>
</g>
<!-- Node46&#45;&gt;Node11 -->
<g id="edge59" class="edge"><title>Node46&#45;&gt;Node11</title>
<path fill="none" stroke="midnightblue" d="M1536.36,-224.095C1534,-209.668 1527.14,-181.449 1508.5,-168 1478.34,-146.233 1247.55,-132.145 1127.53,-126.213"/>
<polygon fill="midnightblue" stroke="midnightblue" points="1127.48,-122.706 1117.32,-125.715 1127.14,-129.698 1127.48,-122.706"/>
</g>
<!-- Node46&#45;&gt;Node21 -->
<g id="edge63" class="edge"><title>Node46&#45;&gt;Node21</title>
<path fill="none" stroke="midnightblue" d="M1563.9,-226.27C1588.46,-219.226 1625.39,-206.58 1653.5,-188 1698.39,-158.332 1739.52,-109.08 1759.24,-83.5247"/>
<polygon fill="midnightblue" stroke="midnightblue" points="1762.04,-85.6268 1765.29,-75.5445 1756.46,-81.3961 1762.04,-85.6268"/>
</g>
<!-- Node46&#45;&gt;Node23 -->
<g id="edge61" class="edge"><title>Node46&#45;&gt;Node23</title>
<path fill="none" stroke="midnightblue" d="M1563.59,-225.53C1584.43,-218.526 1613.37,-206.354 1633.5,-188 1642.11,-180.152 1677.5,-116.468 1694.84,-84.7775"/>
<polygon fill="midnightblue" stroke="midnightblue" points="1698.06,-86.1789 1699.77,-75.7239 1691.91,-82.8268 1698.06,-86.1789"/>
</g>
<!-- Node46&#45;&gt;Node26 -->
<g id="edge62" class="edge"><title>Node46&#45;&gt;Node26</title>
<path fill="none" stroke="midnightblue" d="M1540.67,-224.075C1550,-197.832 1577.47,-120.545 1590.06,-85.1165"/>
<polygon fill="midnightblue" stroke="midnightblue" points="1593.4,-86.1628 1593.45,-75.5681 1586.81,-83.8185 1593.4,-86.1628"/>
</g>
<!-- Node46&#45;&gt;Node31 -->
<g id="edge64" class="edge"><title>Node46&#45;&gt;Node31</title>
<path fill="none" stroke="midnightblue" d="M1548.71,-224.316C1582.87,-196.868 1680.38,-110.579 1630.5,-56 1614.7,-38.7153 1272.36,-18.6665 1164.05,-12.7358"/>
<polygon fill="midnightblue" stroke="midnightblue" points="1163.92,-9.22347 1153.74,-12.1754 1163.54,-16.2132 1163.92,-9.22347"/>
</g>
<!-- Node46&#45;&gt;Node45 -->
<g id="edge60" class="edge"><title>Node46&#45;&gt;Node45</title>
<path fill="none" stroke="midnightblue" d="M1525.93,-224.324C1515.08,-216.185 1498.62,-203.839 1485.62,-194.087"/>
<polygon fill="midnightblue" stroke="midnightblue" points="1487.38,-191.034 1477.28,-187.834 1483.18,-196.634 1487.38,-191.034"/>
</g>
<!-- Node47&#45;&gt;Node11 -->
<g id="edge66" class="edge"><title>Node47&#45;&gt;Node11</title>
<path fill="none" stroke="midnightblue" d="M1392.35,-280.252C1388.89,-257.601 1376.32,-196.803 1338.5,-168 1306.18,-143.384 1199.92,-131.862 1127.21,-126.745"/>
<polygon fill="midnightblue" stroke="midnightblue" points="1127.4,-123.25 1117.19,-126.064 1126.93,-130.233 1127.4,-123.25"/>
</g>
<!-- Node47&#45;&gt;Node46 -->
<g id="edge67" class="edge"><title>Node47&#45;&gt;Node46</title>
<path fill="none" stroke="midnightblue" d="M1416.32,-280.444C1440.33,-271.438 1478.33,-257.189 1505.37,-247.049"/>
<polygon fill="midnightblue" stroke="midnightblue" points="1506.66,-250.305 1514.79,-243.516 1504.2,-243.751 1506.66,-250.305"/>
</g>
<!-- Node48&#45;&gt;Node11 -->
<g id="edge69" class="edge"><title>Node48&#45;&gt;Node11</title>
<path fill="none" stroke="midnightblue" d="M1359.68,-336.317C1337.11,-308.129 1261.67,-218.111 1180.5,-168 1155.92,-152.825 1125.47,-141.728 1100.78,-134.35"/>
<polygon fill="midnightblue" stroke="midnightblue" points="1101.51,-130.918 1090.93,-131.512 1099.57,-137.644 1101.51,-130.918"/>
</g>
<!-- Node48&#45;&gt;Node46 -->
<g id="edge70" class="edge"><title>Node48&#45;&gt;Node46</title>
<path fill="none" stroke="midnightblue" d="M1379.92,-336.368C1409.26,-317.492 1479.38,-272.385 1515.37,-249.237"/>
<polygon fill="midnightblue" stroke="midnightblue" points="1517.63,-251.945 1524.14,-243.591 1513.84,-246.058 1517.63,-251.945"/>
</g>
<!-- Node48&#45;&gt;Node47 -->
<g id="edge71" class="edge"><title>Node48&#45;&gt;Node47</title>
<path fill="none" stroke="midnightblue" d="M1370.96,-336.083C1374.65,-328.691 1380.02,-317.953 1384.59,-308.811"/>
<polygon fill="midnightblue" stroke="midnightblue" points="1387.78,-310.261 1389.12,-299.751 1381.52,-307.13 1387.78,-310.261"/>
</g>
<!-- Node49&#45;&gt;Node11 -->
<g id="edge75" class="edge"><title>Node49&#45;&gt;Node11</title>
<path fill="none" stroke="midnightblue" d="M1131.64,-448.473C1121.82,-430.386 1100.5,-386.585 1100.5,-347 1100.5,-347 1100.5,-347 1100.5,-233 1100.5,-197.93 1080.66,-160.939 1067.33,-140.037"/>
<polygon fill="midnightblue" stroke="midnightblue" points="1070.2,-138.031 1061.76,-131.63 1064.37,-141.899 1070.2,-138.031"/>
</g>
<!-- Node49&#45;&gt;Node42 -->
<g id="edge76" class="edge"><title>Node49&#45;&gt;Node42</title>
<path fill="none" stroke="midnightblue" d="M1181.98,-448.444C1233.95,-438.665 1318.78,-422.704 1372.83,-412.534"/>
<polygon fill="midnightblue" stroke="midnightblue" points="1373.7,-415.932 1382.88,-410.643 1372.4,-409.053 1373.7,-415.932"/>
</g>
</g>
</svg>
