<?xml version="1.0" encoding="UTF-8" standalone="no"?>
<!DOCTYPE svg PUBLIC "-//W3C//DTD SVG 1.1//EN"
 "http://www.w3.org/Graphics/SVG/1.1/DTD/svg11.dtd">
<!-- Generated by graphviz version 2.38.0 (20140413.2041)
 -->
<!-- Title: mainwindow.h Pages: 1 -->
<svg width="391pt" height="196pt"
 viewBox="0.00 0.00 390.50 196.00" xmlns="http://www.w3.org/2000/svg" xmlns:xlink="http://www.w3.org/1999/xlink">
<g id="graph0" class="graph" transform="scale(1 1) rotate(0) translate(4 192)">
<title>mainwindow.h</title>
<polygon fill="white" stroke="none" points="-4,4 -4,-192 386.5,-192 386.5,4 -4,4"/>
<!-- Node1 -->
<g id="node1" class="node"><title>Node1</title>
<polygon fill="#bfbfbf" stroke="black" points="195.5,-168.5 195.5,-187.5 274.5,-187.5 274.5,-168.5 195.5,-168.5"/>
<text text-anchor="middle" x="235" y="-175.5" font-family="Helvetica,sans-Serif" font-size="10.00">mainwindow.h</text>
</g>
<!-- Node2 -->
<g id="node2" class="node"><title>Node2</title>
<g id="a_node2"><a xlink:href="testcontainer_8h.html" target="_top" xlink:title="testcontainer.h">
<polygon fill="white" stroke="black" points="160.5,-112.5 160.5,-131.5 241.5,-131.5 241.5,-112.5 160.5,-112.5"/>
<text text-anchor="middle" x="201" y="-119.5" font-family="Helvetica,sans-Serif" font-size="10.00">testcontainer.h</text>
</a>
</g>
</g>
<!-- Node1&#45;&gt;Node2 -->
<g id="edge1" class="edge"><title>Node1&#45;&gt;Node2</title>
<path fill="none" stroke="midnightblue" d="M224.023,-159.566C218.173,-150.275 211.23,-139.248 206.51,-131.751"/>
<polygon fill="midnightblue" stroke="midnightblue" points="221.096,-161.486 229.386,-168.083 227.019,-157.756 221.096,-161.486"/>
</g>
<!-- Node5 -->
<g id="node5" class="node"><title>Node5</title>
<g id="a_node5"><a xlink:href="testcontainer_8cpp.html" target="_top" xlink:title="testcontainer.cpp">
<polygon fill="white" stroke="black" points="100,-0.5 100,-19.5 192,-19.5 192,-0.5 100,-0.5"/>
<text text-anchor="middle" x="146" y="-7.5" font-family="Helvetica,sans-Serif" font-size="10.00">testcontainer.cpp</text>
</a>
</g>
</g>
<!-- Node1&#45;&gt;Node5 -->
<g id="edge12" class="edge"><title>Node1&#45;&gt;Node5</title>
<path fill="none" stroke="midnightblue" d="M189.655,-165.489C146.977,-151.953 85.6155,-124.864 58,-76 42.6274,-48.799 83.3468,-29.7166 114.419,-19.5506"/>
<polygon fill="midnightblue" stroke="midnightblue" points="188.677,-168.85 199.263,-168.41 190.713,-162.153 188.677,-168.85"/>
</g>
<!-- Node6 -->
<g id="node6" class="node"><title>Node6</title>
<g id="a_node6"><a xlink:href="mainwindow_8cpp.html" target="_top" xlink:title="mainwindow.cpp">
<polygon fill="white" stroke="black" points="293.5,-56.5 293.5,-75.5 382.5,-75.5 382.5,-56.5 293.5,-56.5"/>
<text text-anchor="middle" x="338" y="-63.5" font-family="Helvetica,sans-Serif" font-size="10.00">mainwindow.cpp</text>
</a>
</g>
</g>
<!-- Node1&#45;&gt;Node6 -->
<g id="edge11" class="edge"><title>Node1&#45;&gt;Node6</title>
<path fill="none" stroke="midnightblue" d="M247.806,-160.36C258.396,-146.907 274.067,-127.693 289,-112 301.739,-98.6123 317.695,-84.3811 327.87,-75.5903"/>
<polygon fill="midnightblue" stroke="midnightblue" points="245.025,-158.234 241.639,-168.273 250.546,-162.537 245.025,-158.234"/>
</g>
<!-- Node9 -->
<g id="node9" class="node"><title>Node9</title>
<g id="a_node9"><a xlink:href="libraries_2support_2convert__test__gui_2main_8cpp.html" target="_top" xlink:title="main.cpp">
<polygon fill="white" stroke="black" points="298,-112.5 298,-131.5 354,-131.5 354,-112.5 298,-112.5"/>
<text text-anchor="middle" x="326" y="-119.5" font-family="Helvetica,sans-Serif" font-size="10.00">main.cpp</text>
</a>
</g>
</g>
<!-- Node1&#45;&gt;Node9 -->
<g id="edge10" class="edge"><title>Node1&#45;&gt;Node9</title>
<path fill="none" stroke="midnightblue" d="M258.294,-163.177C275.039,-153.241 297.1,-140.149 311.416,-131.655"/>
<polygon fill="midnightblue" stroke="midnightblue" points="256.434,-160.211 249.621,-168.324 260.007,-166.231 256.434,-160.211"/>
</g>
<!-- Node3 -->
<g id="node3" class="node"><title>Node3</title>
<g id="a_node3"><a xlink:href="eci2kep__test_8h.html" target="_top" xlink:title="eci2kep_test.h">
<polygon fill="white" stroke="black" points="195,-56.5 195,-75.5 275,-75.5 275,-56.5 195,-56.5"/>
<text text-anchor="middle" x="235" y="-63.5" font-family="Helvetica,sans-Serif" font-size="10.00">eci2kep_test.h</text>
</a>
</g>
</g>
<!-- Node2&#45;&gt;Node3 -->
<g id="edge2" class="edge"><title>Node2&#45;&gt;Node3</title>
<path fill="none" stroke="midnightblue" d="M211.977,-103.566C217.827,-94.2747 224.77,-83.2484 229.49,-75.7511"/>
<polygon fill="midnightblue" stroke="midnightblue" points="208.981,-101.756 206.614,-112.083 214.904,-105.486 208.981,-101.756"/>
</g>
<!-- Node2&#45;&gt;Node5 -->
<g id="edge9" class="edge"><title>Node2&#45;&gt;Node5</title>
<path fill="none" stroke="midnightblue" d="M192.16,-103.32C180.185,-79.3697 159.274,-37.5484 150.296,-19.5914"/>
<polygon fill="midnightblue" stroke="midnightblue" points="189.082,-104.989 196.684,-112.368 195.343,-101.859 189.082,-104.989"/>
</g>
<!-- Node2&#45;&gt;Node6 -->
<g id="edge5" class="edge"><title>Node2&#45;&gt;Node6</title>
<path fill="none" stroke="midnightblue" d="M232.023,-108.772C257.757,-98.6287 293.686,-84.4669 316.394,-75.5164"/>
<polygon fill="midnightblue" stroke="midnightblue" points="230.728,-105.52 222.708,-112.444 233.295,-112.033 230.728,-105.52"/>
</g>
<!-- Node7 -->
<g id="node7" class="node"><title>Node7</title>
<g id="a_node7"><a xlink:href="rearth__test_8h.html" target="_top" xlink:title="rearth_test.h">
<polygon fill="white" stroke="black" points="67.5,-56.5 67.5,-75.5 138.5,-75.5 138.5,-56.5 67.5,-56.5"/>
<text text-anchor="middle" x="103" y="-63.5" font-family="Helvetica,sans-Serif" font-size="10.00">rearth_test.h</text>
</a>
</g>
</g>
<!-- Node2&#45;&gt;Node7 -->
<g id="edge6" class="edge"><title>Node2&#45;&gt;Node7</title>
<path fill="none" stroke="midnightblue" d="M176.414,-107.453C158.322,-97.4835 134.265,-84.2279 118.706,-75.6545"/>
<polygon fill="midnightblue" stroke="midnightblue" points="174.807,-110.563 185.255,-112.324 178.185,-104.432 174.807,-110.563"/>
</g>
<!-- Node4 -->
<g id="node4" class="node"><title>Node4</title>
<g id="a_node4"><a xlink:href="eci2kep__test_8cpp.html" target="_top" xlink:title="eci2kep_test.cpp">
<polygon fill="white" stroke="black" points="210.5,-0.5 210.5,-19.5 301.5,-19.5 301.5,-0.5 210.5,-0.5"/>
<text text-anchor="middle" x="256" y="-7.5" font-family="Helvetica,sans-Serif" font-size="10.00">eci2kep_test.cpp</text>
</a>
</g>
</g>
<!-- Node3&#45;&gt;Node4 -->
<g id="edge3" class="edge"><title>Node3&#45;&gt;Node4</title>
<path fill="none" stroke="midnightblue" d="M242.121,-46.6897C245.66,-37.589 249.772,-27.0141 252.597,-19.7511"/>
<polygon fill="midnightblue" stroke="midnightblue" points="238.83,-45.4944 238.468,-56.083 245.354,-48.0315 238.83,-45.4944"/>
</g>
<!-- Node3&#45;&gt;Node5 -->
<g id="edge4" class="edge"><title>Node3&#45;&gt;Node5</title>
<path fill="none" stroke="midnightblue" d="M211.762,-50.9005C195.442,-40.9986 174.135,-28.0705 160.264,-19.6545"/>
<polygon fill="midnightblue" stroke="midnightblue" points="210.336,-54.1289 220.701,-56.324 213.967,-48.1444 210.336,-54.1289"/>
</g>
<!-- Node7&#45;&gt;Node5 -->
<g id="edge8" class="edge"><title>Node7&#45;&gt;Node5</title>
<path fill="none" stroke="midnightblue" d="M116.422,-48.144C123.914,-38.7357 132.937,-27.4046 139.032,-19.7511"/>
<polygon fill="midnightblue" stroke="midnightblue" points="113.592,-46.0799 110.101,-56.083 119.068,-50.4404 113.592,-46.0799"/>
</g>
<!-- Node8 -->
<g id="node8" class="node"><title>Node8</title>
<g id="a_node8"><a xlink:href="rearth__test_8cpp.html" target="_top" xlink:title="rearth_test.cpp">
<polygon fill="white" stroke="black" points="0,-0.5 0,-19.5 82,-19.5 82,-0.5 0,-0.5"/>
<text text-anchor="middle" x="41" y="-7.5" font-family="Helvetica,sans-Serif" font-size="10.00">rearth_test.cpp</text>
</a>
</g>
</g>
<!-- Node7&#45;&gt;Node8 -->
<g id="edge7" class="edge"><title>Node7&#45;&gt;Node8</title>
<path fill="none" stroke="midnightblue" d="M85.2464,-49.5372C74.1915,-39.9087 60.3685,-27.8694 51.1426,-19.8339"/>
<polygon fill="midnightblue" stroke="midnightblue" points="83.199,-52.3954 93.0386,-56.324 87.7965,-47.1168 83.199,-52.3954"/>
</g>
</g>
</svg>
