<?xml version="1.0" encoding="UTF-8" standalone="no"?>
<!DOCTYPE svg PUBLIC "-//W3C//DTD SVG 1.1//EN"
 "http://www.w3.org/Graphics/SVG/1.1/DTD/svg11.dtd">
<!-- Generated by graphviz version 2.38.0 (20140413.2041)
 -->
<!-- Title: constants.h Pages: 1 -->
<svg width="1763pt" height="196pt"
 viewBox="0.00 0.00 1763.00 196.00" xmlns="http://www.w3.org/2000/svg" xmlns:xlink="http://www.w3.org/1999/xlink">
<g id="graph0" class="graph" transform="scale(1 1) rotate(0) translate(4 192)">
<title>constants.h</title>
<polygon fill="white" stroke="none" points="-4,4 -4,-192 1759,-192 1759,4 -4,4"/>
<!-- Node1 -->
<g id="node1" class="node"><title>Node1</title>
<polygon fill="#bfbfbf" stroke="black" points="632,-168.5 632,-187.5 700,-187.5 700,-168.5 632,-168.5"/>
<text text-anchor="middle" x="666" y="-175.5" font-family="Helvetica,sans-Serif" font-size="10.00">constants.h</text>
</g>
<!-- Node2 -->
<g id="node2" class="node"><title>Node2</title>
<g id="a_node2"><a xlink:href="config_cosmos_8h.html" target="_top" xlink:title="Headers and definitions common to all COSMOS. ">
<polygon fill="white" stroke="black" points="838.5,-112.5 838.5,-131.5 961.5,-131.5 961.5,-112.5 838.5,-112.5"/>
<text text-anchor="middle" x="900" y="-119.5" font-family="Helvetica,sans-Serif" font-size="10.00">support/configCosmos.h</text>
</a>
</g>
</g>
<!-- Node1&#45;&gt;Node2 -->
<g id="edge1" class="edge"><title>Node1&#45;&gt;Node2</title>
<path fill="none" stroke="midnightblue" d="M700.026,-169.148C740.328,-159.847 807.694,-144.301 852.967,-133.854"/>
<polygon fill="midnightblue" stroke="midnightblue" points="853.882,-137.235 862.839,-131.576 852.308,-130.414 853.882,-137.235"/>
</g>
<!-- Node5 -->
<g id="node5" class="node"><title>Node5</title>
<polygon fill="white" stroke="#bfbfbf" points="0,-56.5 0,-75.5 46,-75.5 46,-56.5 0,-56.5"/>
<text text-anchor="middle" x="23" y="-63.5" font-family="Helvetica,sans-Serif" font-size="10.00">cstdint</text>
</g>
<!-- Node1&#45;&gt;Node5 -->
<g id="edge43" class="edge"><title>Node1&#45;&gt;Node5</title>
<path fill="none" stroke="midnightblue" d="M631.967,-172.717C540.295,-160.896 280.528,-125.524 56.3184,-76.0999"/>
<polygon fill="midnightblue" stroke="midnightblue" points="56.864,-72.6359 46.3432,-73.8864 55.3475,-79.4697 56.864,-72.6359"/>
</g>
<!-- Node3 -->
<g id="node3" class="node"><title>Node3</title>
<polygon fill="white" stroke="#bfbfbf" points="1570.5,-56.5 1570.5,-75.5 1615.5,-75.5 1615.5,-56.5 1570.5,-56.5"/>
<text text-anchor="middle" x="1593" y="-63.5" font-family="Helvetica,sans-Serif" font-size="10.00">climits</text>
</g>
<!-- Node2&#45;&gt;Node3 -->
<g id="edge2" class="edge"><title>Node2&#45;&gt;Node3</title>
<path fill="none" stroke="midnightblue" d="M961.682,-121.202C1077.63,-120.63 1335.93,-114.829 1560.46,-75.9129"/>
<polygon fill="midnightblue" stroke="midnightblue" points="1561.2,-79.3351 1570.45,-74.1553 1559.99,-72.441 1561.2,-79.3351"/>
</g>
<!-- Node4 -->
<g id="node4" class="node"><title>Node4</title>
<polygon fill="white" stroke="#bfbfbf" points="1633.5,-56.5 1633.5,-75.5 1680.5,-75.5 1680.5,-56.5 1633.5,-56.5"/>
<text text-anchor="middle" x="1657" y="-63.5" font-family="Helvetica,sans-Serif" font-size="10.00">csignal</text>
</g>
<!-- Node2&#45;&gt;Node4 -->
<g id="edge3" class="edge"><title>Node2&#45;&gt;Node4</title>
<path fill="none" stroke="midnightblue" d="M961.61,-121.559C1085.64,-121.736 1374.19,-117.362 1623.4,-75.9321"/>
<polygon fill="midnightblue" stroke="midnightblue" points="1624.08,-79.3656 1633.36,-74.2517 1622.92,-72.463 1624.08,-79.3656"/>
</g>
<!-- Node2&#45;&gt;Node5 -->
<g id="edge4" class="edge"><title>Node2&#45;&gt;Node5</title>
<path fill="none" stroke="midnightblue" d="M838.221,-119.481C673.288,-115.149 224.297,-101.475 56.228,-75.7805"/>
<polygon fill="midnightblue" stroke="midnightblue" points="56.7115,-72.3134 46.2843,-74.1907 55.6063,-79.2256 56.7115,-72.3134"/>
</g>
<!-- Node6 -->
<g id="node6" class="node"><title>Node6</title>
<polygon fill="white" stroke="#bfbfbf" points="1699,-56.5 1699,-75.5 1755,-75.5 1755,-56.5 1699,-56.5"/>
<text text-anchor="middle" x="1727" y="-63.5" font-family="Helvetica,sans-Serif" font-size="10.00">cinttypes</text>
</g>
<!-- Node2&#45;&gt;Node6 -->
<g id="edge5" class="edge"><title>Node2&#45;&gt;Node6</title>
<path fill="none" stroke="midnightblue" d="M961.596,-121.284C1093.47,-121.073 1412.87,-116.19 1688.62,-75.9219"/>
<polygon fill="midnightblue" stroke="midnightblue" points="1689.44,-79.3384 1698.82,-74.4128 1688.42,-72.4138 1689.44,-79.3384"/>
</g>
<!-- Node7 -->
<g id="node7" class="node"><title>Node7</title>
<polygon fill="white" stroke="#bfbfbf" points="64.5,-56.5 64.5,-75.5 107.5,-75.5 107.5,-56.5 64.5,-56.5"/>
<text text-anchor="middle" x="86" y="-63.5" font-family="Helvetica,sans-Serif" font-size="10.00">cstdio</text>
</g>
<!-- Node2&#45;&gt;Node7 -->
<g id="edge6" class="edge"><title>Node2&#45;&gt;Node7</title>
<path fill="none" stroke="midnightblue" d="M838.369,-119.326C682.293,-114.795 273.387,-101.033 118.108,-75.9357"/>
<polygon fill="midnightblue" stroke="midnightblue" points="118.257,-72.411 107.812,-74.1877 117.085,-79.3122 118.257,-72.411"/>
</g>
<!-- Node8 -->
<g id="node8" class="node"><title>Node8</title>
<polygon fill="white" stroke="#bfbfbf" points="125.5,-56.5 125.5,-75.5 174.5,-75.5 174.5,-56.5 125.5,-56.5"/>
<text text-anchor="middle" x="150" y="-63.5" font-family="Helvetica,sans-Serif" font-size="10.00">cstddef</text>
</g>
<!-- Node2&#45;&gt;Node8 -->
<g id="edge7" class="edge"><title>Node2&#45;&gt;Node8</title>
<path fill="none" stroke="midnightblue" d="M838.14,-121.335C715.062,-121.09 430.84,-115.963 184.949,-76.0113"/>
<polygon fill="midnightblue" stroke="midnightblue" points="185.182,-72.5027 174.746,-74.3298 184.044,-79.4095 185.182,-72.5027"/>
</g>
<!-- Node9 -->
<g id="node9" class="node"><title>Node9</title>
<polygon fill="white" stroke="#bfbfbf" points="192.5,-56.5 192.5,-75.5 237.5,-75.5 237.5,-56.5 192.5,-56.5"/>
<text text-anchor="middle" x="215" y="-63.5" font-family="Helvetica,sans-Serif" font-size="10.00">cstdlib</text>
</g>
<!-- Node2&#45;&gt;Node9 -->
<g id="edge8" class="edge"><title>Node2&#45;&gt;Node9</title>
<path fill="none" stroke="midnightblue" d="M838.278,-120.95C723.51,-119.944 469.564,-113.427 247.477,-75.6786"/>
<polygon fill="midnightblue" stroke="midnightblue" points="248.043,-72.2246 237.594,-73.9743 246.853,-79.1228 248.043,-72.2246"/>
</g>
<!-- Node10 -->
<g id="node10" class="node"><title>Node10</title>
<polygon fill="white" stroke="#bfbfbf" points="256,-56.5 256,-75.5 300,-75.5 300,-56.5 256,-56.5"/>
<text text-anchor="middle" x="278" y="-63.5" font-family="Helvetica,sans-Serif" font-size="10.00">cerrno</text>
</g>
<!-- Node2&#45;&gt;Node10 -->
<g id="edge9" class="edge"><title>Node2&#45;&gt;Node10</title>
<path fill="none" stroke="midnightblue" d="M838.211,-120.478C731.872,-118.668 507.47,-110.853 310.187,-75.8434"/>
<polygon fill="midnightblue" stroke="midnightblue" points="310.682,-72.3762 300.22,-74.0469 309.44,-79.2652 310.682,-72.3762"/>
</g>
<!-- Node11 -->
<g id="node11" class="node"><title>Node11</title>
<polygon fill="white" stroke="#bfbfbf" points="318,-56.5 318,-75.5 364,-75.5 364,-56.5 318,-56.5"/>
<text text-anchor="middle" x="341" y="-63.5" font-family="Helvetica,sans-Serif" font-size="10.00">cstring</text>
</g>
<!-- Node2&#45;&gt;Node11 -->
<g id="edge10" class="edge"><title>Node2&#45;&gt;Node11</title>
<path fill="none" stroke="midnightblue" d="M838.242,-119.502C741.185,-116.321 547.04,-106.615 374.333,-75.9142"/>
<polygon fill="midnightblue" stroke="midnightblue" points="374.762,-72.4353 364.3,-74.1024 373.518,-79.3239 374.762,-72.4353"/>
</g>
<!-- Node12 -->
<g id="node12" class="node"><title>Node12</title>
<polygon fill="white" stroke="#bfbfbf" points="382,-56.5 382,-75.5 426,-75.5 426,-56.5 382,-56.5"/>
<text text-anchor="middle" x="404" y="-63.5" font-family="Helvetica,sans-Serif" font-size="10.00">cmath</text>
</g>
<!-- Node2&#45;&gt;Node12 -->
<g id="edge11" class="edge"><title>Node2&#45;&gt;Node12</title>
<path fill="none" stroke="midnightblue" d="M838.338,-118.503C750.903,-114.194 585.871,-103.231 436.102,-75.6465"/>
<polygon fill="midnightblue" stroke="midnightblue" points="436.733,-72.2039 426.26,-73.8054 435.446,-79.0846 436.733,-72.2039"/>
</g>
<!-- Node13 -->
<g id="node13" class="node"><title>Node13</title>
<polygon fill="white" stroke="#bfbfbf" points="444.5,-56.5 444.5,-75.5 489.5,-75.5 489.5,-56.5 444.5,-56.5"/>
<text text-anchor="middle" x="467" y="-63.5" font-family="Helvetica,sans-Serif" font-size="10.00">iosfwd</text>
</g>
<!-- Node2&#45;&gt;Node13 -->
<g id="edge12" class="edge"><title>Node2&#45;&gt;Node13</title>
<path fill="none" stroke="midnightblue" d="M838.386,-117.206C761.344,-111.768 625.355,-99.8891 499.793,-75.8327"/>
<polygon fill="midnightblue" stroke="midnightblue" points="500.101,-72.3269 489.616,-73.8513 498.763,-79.1979 500.101,-72.3269"/>
</g>
<!-- Node14 -->
<g id="node14" class="node"><title>Node14</title>
<polygon fill="white" stroke="#bfbfbf" points="508,-56.5 508,-75.5 562,-75.5 562,-56.5 508,-56.5"/>
<text text-anchor="middle" x="535" y="-63.5" font-family="Helvetica,sans-Serif" font-size="10.00">iostream</text>
</g>
<!-- Node2&#45;&gt;Node14 -->
<g id="edge13" class="edge"><title>Node2&#45;&gt;Node14</title>
<path fill="none" stroke="midnightblue" d="M838.431,-114.609C774.222,-107.488 670.504,-94.7015 571.889,-75.9892"/>
<polygon fill="midnightblue" stroke="midnightblue" points="572.537,-72.5497 562.056,-74.1001 571.216,-79.424 572.537,-72.5497"/>
</g>
<!-- Node15 -->
<g id="node15" class="node"><title>Node15</title>
<polygon fill="white" stroke="#bfbfbf" points="580,-56.5 580,-75.5 632,-75.5 632,-56.5 580,-56.5"/>
<text text-anchor="middle" x="606" y="-63.5" font-family="Helvetica,sans-Serif" font-size="10.00">sstream</text>
</g>
<!-- Node2&#45;&gt;Node15 -->
<g id="edge14" class="edge"><title>Node2&#45;&gt;Node15</title>
<path fill="none" stroke="midnightblue" d="M844.417,-112.496C794.267,-104.555 718.266,-91.8549 642.497,-75.9662"/>
<polygon fill="midnightblue" stroke="midnightblue" points="642.803,-72.4535 632.295,-73.8069 641.354,-79.3018 642.803,-72.4535"/>
</g>
<!-- Node16 -->
<g id="node16" class="node"><title>Node16</title>
<polygon fill="white" stroke="#bfbfbf" points="650.5,-56.5 650.5,-75.5 691.5,-75.5 691.5,-56.5 650.5,-56.5"/>
<text text-anchor="middle" x="671" y="-63.5" font-family="Helvetica,sans-Serif" font-size="10.00">regex</text>
</g>
<!-- Node2&#45;&gt;Node16 -->
<g id="edge15" class="edge"><title>Node2&#45;&gt;Node16</title>
<path fill="none" stroke="midnightblue" d="M858.252,-112.437C819.976,-104.39 761.527,-91.6133 701.619,-76.016"/>
<polygon fill="midnightblue" stroke="midnightblue" points="702.165,-72.5406 691.604,-73.3852 700.387,-79.311 702.165,-72.5406"/>
</g>
<!-- Node17 -->
<g id="node17" class="node"><title>Node17</title>
<polygon fill="white" stroke="#bfbfbf" points="710,-56.5 710,-75.5 760,-75.5 760,-56.5 710,-56.5"/>
<text text-anchor="middle" x="735" y="-63.5" font-family="Helvetica,sans-Serif" font-size="10.00">iomanip</text>
</g>
<!-- Node2&#45;&gt;Node17 -->
<g id="edge16" class="edge"><title>Node2&#45;&gt;Node17</title>
<path fill="none" stroke="midnightblue" d="M873.855,-112.444C845.731,-103.239 800.868,-88.5568 769.781,-78.3829"/>
<polygon fill="midnightblue" stroke="midnightblue" points="770.803,-75.0349 760.211,-75.2508 768.626,-81.6876 770.803,-75.0349"/>
</g>
<!-- Node18 -->
<g id="node18" class="node"><title>Node18</title>
<polygon fill="white" stroke="#bfbfbf" points="778.5,-56.5 778.5,-75.5 829.5,-75.5 829.5,-56.5 778.5,-56.5"/>
<text text-anchor="middle" x="804" y="-63.5" font-family="Helvetica,sans-Serif" font-size="10.00">unistd.h</text>
</g>
<!-- Node2&#45;&gt;Node18 -->
<g id="edge17" class="edge"><title>Node2&#45;&gt;Node18</title>
<path fill="none" stroke="midnightblue" d="M884.576,-112.324C869.46,-103.822 846.185,-90.7288 828.529,-80.7975"/>
<polygon fill="midnightblue" stroke="midnightblue" points="829.817,-77.5066 819.386,-75.6545 826.386,-83.6077 829.817,-77.5066"/>
</g>
<!-- Node19 -->
<g id="node19" class="node"><title>Node19</title>
<polygon fill="white" stroke="#bfbfbf" points="848,-56.5 848,-75.5 892,-75.5 892,-56.5 848,-56.5"/>
<text text-anchor="middle" x="870" y="-63.5" font-family="Helvetica,sans-Serif" font-size="10.00">fcntl.h</text>
</g>
<!-- Node2&#45;&gt;Node19 -->
<g id="edge18" class="edge"><title>Node2&#45;&gt;Node19</title>
<path fill="none" stroke="midnightblue" d="M895.046,-112.083C890.896,-104.613 884.847,-93.7244 879.733,-84.5199"/>
<polygon fill="midnightblue" stroke="midnightblue" points="882.778,-82.7929 874.862,-75.7511 876.659,-86.1924 882.778,-82.7929"/>
</g>
<!-- Node20 -->
<g id="node20" class="node"><title>Node20</title>
<polygon fill="white" stroke="#bfbfbf" points="910,-56.5 910,-75.5 950,-75.5 950,-56.5 910,-56.5"/>
<text text-anchor="middle" x="930" y="-63.5" font-family="Helvetica,sans-Serif" font-size="10.00">limits</text>
</g>
<!-- Node2&#45;&gt;Node20 -->
<g id="edge19" class="edge"><title>Node2&#45;&gt;Node20</title>
<path fill="none" stroke="midnightblue" d="M904.954,-112.083C909.104,-104.613 915.153,-93.7244 920.267,-84.5199"/>
<polygon fill="midnightblue" stroke="midnightblue" points="923.341,-86.1924 925.138,-75.7511 917.222,-82.7929 923.341,-86.1924"/>
</g>
<!-- Node21 -->
<g id="node21" class="node"><title>Node21</title>
<polygon fill="white" stroke="#bfbfbf" points="1511.5,-0.5 1511.5,-19.5 1552.5,-19.5 1552.5,-0.5 1511.5,-0.5"/>
<text text-anchor="middle" x="1532" y="-7.5" font-family="Helvetica,sans-Serif" font-size="10.00">string</text>
</g>
<!-- Node2&#45;&gt;Node21 -->
<g id="edge20" class="edge"><title>Node2&#45;&gt;Node21</title>
<path fill="none" stroke="midnightblue" d="M961.628,-118.436C1077.1,-113.146 1321.72,-99.5066 1403,-76 1421.71,-70.5879 1424.62,-64.8003 1442,-56 1463.3,-45.2125 1487.51,-33.1157 1505.46,-24.1832"/>
<polygon fill="midnightblue" stroke="midnightblue" points="1507.33,-27.1623 1514.72,-19.5746 1504.21,-20.895 1507.33,-27.1623"/>
</g>
<!-- Node22 -->
<g id="node22" class="node"><title>Node22</title>
<polygon fill="white" stroke="#bfbfbf" points="1234,-0.5 1234,-19.5 1278,-19.5 1278,-0.5 1234,-0.5"/>
<text text-anchor="middle" x="1256" y="-7.5" font-family="Helvetica,sans-Serif" font-size="10.00">vector</text>
</g>
<!-- Node2&#45;&gt;Node22 -->
<g id="edge21" class="edge"><title>Node2&#45;&gt;Node22</title>
<path fill="none" stroke="midnightblue" d="M961.534,-119.213C1043.58,-115.707 1183.2,-105.475 1224,-76 1239.26,-64.9749 1247.61,-44.6231 1251.92,-29.6191"/>
<polygon fill="midnightblue" stroke="midnightblue" points="1255.33,-30.4009 1254.38,-19.8488 1248.55,-28.6903 1255.33,-30.4009"/>
</g>
<!-- Node23 -->
<g id="node23" class="node"><title>Node23</title>
<polygon fill="white" stroke="#bfbfbf" points="1450.5,-56.5 1450.5,-75.5 1491.5,-75.5 1491.5,-56.5 1450.5,-56.5"/>
<text text-anchor="middle" x="1471" y="-63.5" font-family="Helvetica,sans-Serif" font-size="10.00">stack</text>
</g>
<!-- Node2&#45;&gt;Node23 -->
<g id="edge22" class="edge"><title>Node2&#45;&gt;Node23</title>
<path fill="none" stroke="midnightblue" d="M961.511,-119.191C1061.6,-115.498 1265.67,-104.84 1436,-76 1437.47,-75.7512 1438.97,-75.4712 1440.48,-75.1678"/>
<polygon fill="midnightblue" stroke="midnightblue" points="1441.42,-78.5421 1450.4,-72.9107 1439.87,-71.7166 1441.42,-78.5421"/>
</g>
<!-- Node24 -->
<g id="node24" class="node"><title>Node24</title>
<polygon fill="white" stroke="#bfbfbf" points="1509.5,-56.5 1509.5,-75.5 1552.5,-75.5 1552.5,-56.5 1509.5,-56.5"/>
<text text-anchor="middle" x="1531" y="-63.5" font-family="Helvetica,sans-Serif" font-size="10.00">deque</text>
</g>
<!-- Node2&#45;&gt;Node24 -->
<g id="edge23" class="edge"><title>Node2&#45;&gt;Node24</title>
<path fill="none" stroke="midnightblue" d="M961.56,-120.771C1069.2,-119.417 1298.52,-112.296 1499.05,-76.0055"/>
<polygon fill="midnightblue" stroke="midnightblue" points="1499.98,-79.3935 1509.18,-74.1425 1498.71,-72.5089 1499.98,-79.3935"/>
</g>
<!-- Node25 -->
<g id="node25" class="node"><title>Node25</title>
<polygon fill="white" stroke="#bfbfbf" points="888,-0.5 888,-19.5 932,-19.5 932,-0.5 888,-0.5"/>
<text text-anchor="middle" x="910" y="-7.5" font-family="Helvetica,sans-Serif" font-size="10.00">mutex</text>
</g>
<!-- Node2&#45;&gt;Node25 -->
<g id="edge24" class="edge"><title>Node2&#45;&gt;Node25</title>
<path fill="none" stroke="midnightblue" d="M918.984,-112.398C932.886,-104.954 950.714,-92.741 959,-76 968.395,-57.0176 949.995,-37.9829 933.125,-25.4633"/>
<polygon fill="midnightblue" stroke="midnightblue" points="934.808,-22.3714 924.597,-19.545 930.817,-28.1221 934.808,-22.3714"/>
</g>
<!-- Node26 -->
<g id="node26" class="node"><title>Node26</title>
<polygon fill="white" stroke="#bfbfbf" points="950,-0.5 950,-19.5 994,-19.5 994,-0.5 950,-0.5"/>
<text text-anchor="middle" x="972" y="-7.5" font-family="Helvetica,sans-Serif" font-size="10.00">thread</text>
</g>
<!-- Node2&#45;&gt;Node26 -->
<g id="edge25" class="edge"><title>Node2&#45;&gt;Node26</title>
<path fill="none" stroke="midnightblue" d="M926.929,-112.356C943.719,-105.411 963.978,-93.8247 974,-76 981.946,-61.8673 980.348,-43.1358 977.413,-29.4125"/>
<polygon fill="midnightblue" stroke="midnightblue" points="980.79,-28.4903 974.929,-19.664 974.007,-30.2186 980.79,-28.4903"/>
</g>
<!-- Node27 -->
<g id="node27" class="node"><title>Node27</title>
<polygon fill="white" stroke="#bfbfbf" points="1012.5,-0.5 1012.5,-19.5 1107.5,-19.5 1107.5,-0.5 1012.5,-0.5"/>
<text text-anchor="middle" x="1060" y="-7.5" font-family="Helvetica,sans-Serif" font-size="10.00">condition_variable</text>
</g>
<!-- Node2&#45;&gt;Node27 -->
<g id="edge26" class="edge"><title>Node2&#45;&gt;Node27</title>
<path fill="none" stroke="midnightblue" d="M921.315,-112.401C940.175,-104.324 968.032,-91.2241 990,-76 1010.74,-61.6284 1031.55,-41.3814 1045.02,-27.3184"/>
<polygon fill="midnightblue" stroke="midnightblue" points="1047.75,-29.5266 1052.05,-19.8441 1042.65,-24.7311 1047.75,-29.5266"/>
</g>
<!-- Node28 -->
<g id="node28" class="node"><title>Node28</title>
<polygon fill="white" stroke="#bfbfbf" points="1172.5,-0.5 1172.5,-19.5 1215.5,-19.5 1215.5,-0.5 1172.5,-0.5"/>
<text text-anchor="middle" x="1194" y="-7.5" font-family="Helvetica,sans-Serif" font-size="10.00">queue</text>
</g>
<!-- Node2&#45;&gt;Node28 -->
<g id="edge27" class="edge"><title>Node2&#45;&gt;Node28</title>
<path fill="none" stroke="midnightblue" d="M961.781,-121.077C1042.14,-119.709 1175.96,-111.919 1207,-76 1218.25,-62.9821 1211.93,-43.0012 1204.72,-28.6295"/>
<polygon fill="midnightblue" stroke="midnightblue" points="1207.7,-26.7843 1199.79,-19.7305 1201.57,-30.1746 1207.7,-26.7843"/>
</g>
<!-- Node29 -->
<g id="node29" class="node"><title>Node29</title>
<polygon fill="white" stroke="#bfbfbf" points="1296.5,-0.5 1296.5,-19.5 1331.5,-19.5 1331.5,-0.5 1296.5,-0.5"/>
<text text-anchor="middle" x="1314" y="-7.5" font-family="Helvetica,sans-Serif" font-size="10.00">map</text>
</g>
<!-- Node2&#45;&gt;Node29 -->
<g id="edge28" class="edge"><title>Node2&#45;&gt;Node29</title>
<path fill="none" stroke="midnightblue" d="M961.802,-117.584C1047.42,-112.072 1197.09,-99.3905 1246,-76 1269.15,-64.9267 1289.51,-42.9529 1301.77,-27.6352"/>
<polygon fill="midnightblue" stroke="midnightblue" points="1304.69,-29.5777 1308.02,-19.5182 1299.15,-25.3085 1304.69,-29.5777"/>
</g>
<!-- Node30 -->
<g id="node30" class="node"><title>Node30</title>
<g id="a_node30"><a xlink:href="cosmos-defs_8h.html" target="_top" xlink:title="COSMOS definitions Definitions specific to the COSMOS environement. ">
<polygon fill="white" stroke="black" points="1082,-56.5 1082,-75.5 1198,-75.5 1198,-56.5 1082,-56.5"/>
<text text-anchor="middle" x="1140" y="-63.5" font-family="Helvetica,sans-Serif" font-size="10.00">support/cosmos&#45;defs.h</text>
</a>
</g>
</g>
<!-- Node2&#45;&gt;Node30 -->
<g id="edge29" class="edge"><title>Node2&#45;&gt;Node30</title>
<path fill="none" stroke="midnightblue" d="M938.029,-112.444C979.808,-103.043 1046.98,-87.9291 1092.27,-77.7393"/>
<polygon fill="midnightblue" stroke="midnightblue" points="1093.16,-81.1263 1102.15,-75.5164 1091.62,-74.297 1093.16,-81.1263"/>
</g>
<!-- Node32 -->
<g id="node32" class="node"><title>Node32</title>
<g id="a_node32"><a xlink:href="json11_8hpp.html" target="_top" xlink:title="json11.hpp">
<polygon fill="white" stroke="black" points="1330,-56.5 1330,-75.5 1394,-75.5 1394,-56.5 1330,-56.5"/>
<text text-anchor="middle" x="1362" y="-63.5" font-family="Helvetica,sans-Serif" font-size="10.00">json11.hpp</text>
</a>
</g>
</g>
<!-- Node2&#45;&gt;Node32 -->
<g id="edge37" class="edge"><title>Node2&#45;&gt;Node32</title>
<path fill="none" stroke="midnightblue" d="M961.535,-116C1042.91,-109.009 1190.67,-95.0037 1316,-76 1317.27,-75.8079 1318.55,-75.6053 1319.85,-75.3943"/>
<polygon fill="midnightblue" stroke="midnightblue" points="1320.64,-78.8095 1329.89,-73.6455 1319.44,-71.9133 1320.64,-78.8095"/>
</g>
<!-- Node30&#45;&gt;Node22 -->
<g id="edge31" class="edge"><title>Node30&#45;&gt;Node22</title>
<path fill="none" stroke="midnightblue" d="M1158.38,-56.4435C1177.22,-47.6751 1206.73,-33.9355 1228.38,-23.8579"/>
<polygon fill="midnightblue" stroke="midnightblue" points="1230.12,-26.9098 1237.71,-19.5164 1227.16,-20.5637 1230.12,-26.9098"/>
</g>
<!-- Node30&#45;&gt;Node25 -->
<g id="edge35" class="edge"><title>Node30&#45;&gt;Node25</title>
<path fill="none" stroke="midnightblue" d="M1099.05,-56.4926C1060.82,-48.384 1001.98,-35.4763 942.281,-20.2195"/>
<polygon fill="midnightblue" stroke="midnightblue" points="942.864,-16.7554 932.307,-17.6501 941.118,-23.5341 942.864,-16.7554"/>
</g>
<!-- Node30&#45;&gt;Node26 -->
<g id="edge34" class="edge"><title>Node30&#45;&gt;Node26</title>
<path fill="none" stroke="midnightblue" d="M1113.38,-56.4435C1083.66,-46.8902 1035.58,-31.436 1003.88,-21.2461"/>
<polygon fill="midnightblue" stroke="midnightblue" points="1004.79,-17.8649 994.203,-18.1368 1002.65,-24.5291 1004.79,-17.8649"/>
</g>
<!-- Node30&#45;&gt;Node27 -->
<g id="edge36" class="edge"><title>Node30&#45;&gt;Node27</title>
<path fill="none" stroke="midnightblue" d="M1127.15,-56.324C1114.78,-47.979 1095.87,-35.2122 1081.26,-25.3524"/>
<polygon fill="midnightblue" stroke="midnightblue" points="1083.07,-22.3483 1072.82,-19.6545 1079.15,-28.1503 1083.07,-22.3483"/>
</g>
<!-- Node30&#45;&gt;Node28 -->
<g id="edge33" class="edge"><title>Node30&#45;&gt;Node28</title>
<path fill="none" stroke="midnightblue" d="M1148.92,-56.083C1156.78,-48.2195 1168.43,-36.5688 1177.92,-27.0813"/>
<polygon fill="midnightblue" stroke="midnightblue" points="1180.65,-29.2971 1185.25,-19.7511 1175.7,-24.3473 1180.65,-29.2971"/>
</g>
<!-- Node30&#45;&gt;Node29 -->
<g id="edge30" class="edge"><title>Node30&#45;&gt;Node29</title>
<path fill="none" stroke="midnightblue" d="M1168.52,-56.4967C1196.27,-48.1726 1239.86,-34.9676 1286.6,-20.0708"/>
<polygon fill="midnightblue" stroke="midnightblue" points="1287.84,-23.3483 1296.3,-16.9689 1285.71,-16.6809 1287.84,-23.3483"/>
</g>
<!-- Node31 -->
<g id="node31" class="node"><title>Node31</title>
<polygon fill="white" stroke="#bfbfbf" points="1125.5,-0.5 1125.5,-19.5 1154.5,-19.5 1154.5,-0.5 1125.5,-0.5"/>
<text text-anchor="middle" x="1140" y="-7.5" font-family="Helvetica,sans-Serif" font-size="10.00">list</text>
</g>
<!-- Node30&#45;&gt;Node31 -->
<g id="edge32" class="edge"><title>Node30&#45;&gt;Node31</title>
<path fill="none" stroke="midnightblue" d="M1140,-56.083C1140,-49.0059 1140,-38.8611 1140,-29.9865"/>
<polygon fill="midnightblue" stroke="midnightblue" points="1143.5,-29.751 1140,-19.7511 1136.5,-29.7511 1143.5,-29.751"/>
</g>
<!-- Node32&#45;&gt;Node21 -->
<g id="edge38" class="edge"><title>Node32&#45;&gt;Node21</title>
<path fill="none" stroke="midnightblue" d="M1388.94,-56.4435C1419.6,-46.7024 1469.58,-30.826 1501.62,-20.6512"/>
<polygon fill="midnightblue" stroke="midnightblue" points="1502.87,-23.9263 1511.34,-17.5631 1500.75,-17.2548 1502.87,-23.9263"/>
</g>
<!-- Node32&#45;&gt;Node22 -->
<g id="edge39" class="edge"><title>Node32&#45;&gt;Node22</title>
<path fill="none" stroke="midnightblue" d="M1344.97,-56.324C1327.97,-47.6641 1301.62,-34.2424 1282.01,-24.249"/>
<polygon fill="midnightblue" stroke="midnightblue" points="1283.49,-21.0752 1272.99,-19.6545 1280.31,-27.3125 1283.49,-21.0752"/>
</g>
<!-- Node32&#45;&gt;Node29 -->
<g id="edge40" class="edge"><title>Node32&#45;&gt;Node29</title>
<path fill="none" stroke="midnightblue" d="M1354.07,-56.083C1347.15,-48.2982 1336.93,-36.8015 1328.55,-27.3665"/>
<polygon fill="midnightblue" stroke="midnightblue" points="1331.04,-24.8999 1321.78,-19.7511 1325.81,-29.5505 1331.04,-24.8999"/>
</g>
<!-- Node33 -->
<g id="node33" class="node"><title>Node33</title>
<polygon fill="white" stroke="#bfbfbf" points="1350,-0.5 1350,-19.5 1402,-19.5 1402,-0.5 1350,-0.5"/>
<text text-anchor="middle" x="1376" y="-7.5" font-family="Helvetica,sans-Serif" font-size="10.00">memory</text>
</g>
<!-- Node32&#45;&gt;Node33 -->
<g id="edge41" class="edge"><title>Node32&#45;&gt;Node33</title>
<path fill="none" stroke="midnightblue" d="M1364.31,-56.083C1366.17,-48.9272 1368.84,-38.6353 1371.15,-29.6911"/>
<polygon fill="midnightblue" stroke="midnightblue" points="1374.61,-30.3094 1373.73,-19.7511 1367.83,-28.5527 1374.61,-30.3094"/>
</g>
<!-- Node34 -->
<g id="node34" class="node"><title>Node34</title>
<polygon fill="white" stroke="#bfbfbf" points="1420.5,-0.5 1420.5,-19.5 1493.5,-19.5 1493.5,-0.5 1420.5,-0.5"/>
<text text-anchor="middle" x="1457" y="-7.5" font-family="Helvetica,sans-Serif" font-size="10.00">initializer_list</text>
</g>
<!-- Node32&#45;&gt;Node34 -->
<g id="edge42" class="edge"><title>Node32&#45;&gt;Node34</title>
<path fill="none" stroke="midnightblue" d="M1377.26,-56.324C1392.22,-47.8215 1415.25,-34.7288 1432.73,-24.7975"/>
<polygon fill="midnightblue" stroke="midnightblue" points="1434.81,-27.639 1441.77,-19.6545 1431.35,-21.5534 1434.81,-27.639"/>
</g>
</g>
</svg>
