<?xml version="1.0" encoding="UTF-8" standalone="no"?>
<!DOCTYPE svg PUBLIC "-//W3C//DTD SVG 1.1//EN"
 "http://www.w3.org/Graphics/SVG/1.1/DTD/svg11.dtd">
<!-- Generated by graphviz version 2.38.0 (20140413.2041)
 -->
<!-- Title: microstrain_imu_simple.cpp Pages: 1 -->
<svg width="1838pt" height="532pt"
 viewBox="0.00 0.00 1838.00 532.00" xmlns="http://www.w3.org/2000/svg" xmlns:xlink="http://www.w3.org/1999/xlink">
<g id="graph0" class="graph" transform="scale(1 1) rotate(0) translate(4 528)">
<title>microstrain_imu_simple.cpp</title>
<polygon fill="white" stroke="none" points="-4,4 -4,-528 1834,-528 1834,4 -4,4"/>
<!-- Node1 -->
<g id="node1" class="node"><title>Node1</title>
<polygon fill="#bfbfbf" stroke="black" points="1565,-504.5 1565,-523.5 1703,-523.5 1703,-504.5 1565,-504.5"/>
<text text-anchor="middle" x="1634" y="-511.5" font-family="Helvetica,sans-Serif" font-size="10.00">microstrain_imu_simple.cpp</text>
</g>
<!-- Node2 -->
<g id="node2" class="node"><title>Node2</title>
<polygon fill="white" stroke="#bfbfbf" points="1738,-56.5 1738,-75.5 1792,-75.5 1792,-56.5 1738,-56.5"/>
<text text-anchor="middle" x="1765" y="-63.5" font-family="Helvetica,sans-Serif" font-size="10.00">iostream</text>
</g>
<!-- Node1&#45;&gt;Node2 -->
<g id="edge1" class="edge"><title>Node1&#45;&gt;Node2</title>
<path fill="none" stroke="midnightblue" d="M1634,-504.442C1634,-485.936 1634,-440.812 1634,-403 1634,-403 1634,-403 1634,-177 1634,-127.036 1690.58,-95.2346 1729.37,-79.3027"/>
<polygon fill="midnightblue" stroke="midnightblue" points="1730.78,-82.5098 1738.81,-75.5928 1728.22,-75.9955 1730.78,-82.5098"/>
</g>
<!-- Node3 -->
<g id="node3" class="node"><title>Node3</title>
<polygon fill="white" stroke="#bfbfbf" points="1552,-392.5 1552,-411.5 1596,-411.5 1596,-392.5 1552,-392.5"/>
<text text-anchor="middle" x="1574" y="-399.5" font-family="Helvetica,sans-Serif" font-size="10.00">time.h</text>
</g>
<!-- Node1&#45;&gt;Node3 -->
<g id="edge2" class="edge"><title>Node1&#45;&gt;Node3</title>
<path fill="none" stroke="midnightblue" d="M1629.29,-504.368C1619.48,-486.376 1596.66,-444.55 1583.61,-420.627"/>
<polygon fill="midnightblue" stroke="midnightblue" points="1586.55,-418.694 1578.69,-411.591 1580.4,-422.046 1586.55,-418.694"/>
</g>
<!-- Node4 -->
<g id="node4" class="node"><title>Node4</title>
<polygon fill="white" stroke="#bfbfbf" points="1662,-448.5 1662,-467.5 1750,-467.5 1750,-448.5 1662,-448.5"/>
<text text-anchor="middle" x="1706" y="-455.5" font-family="Helvetica,sans-Serif" font-size="10.00">microstrain_lib.h</text>
</g>
<!-- Node1&#45;&gt;Node4 -->
<g id="edge3" class="edge"><title>Node1&#45;&gt;Node4</title>
<path fill="none" stroke="midnightblue" d="M1645.57,-504.324C1656.42,-496.185 1672.88,-483.839 1685.88,-474.087"/>
<polygon fill="midnightblue" stroke="midnightblue" points="1688.32,-476.634 1694.22,-467.834 1684.12,-471.034 1688.32,-476.634"/>
</g>
<!-- Node5 -->
<g id="node5" class="node"><title>Node5</title>
<g id="a_node5"><a xlink:href="timelib_8h.html" target="_top" xlink:title="timelib include file A library providing functions for handling various types of time. ">
<polygon fill="white" stroke="black" points="1370.5,-448.5 1370.5,-467.5 1423.5,-467.5 1423.5,-448.5 1370.5,-448.5"/>
<text text-anchor="middle" x="1397" y="-455.5" font-family="Helvetica,sans-Serif" font-size="10.00">timelib.h</text>
</a>
</g>
</g>
<!-- Node1&#45;&gt;Node5 -->
<g id="edge4" class="edge"><title>Node1&#45;&gt;Node5</title>
<path fill="none" stroke="midnightblue" d="M1596.45,-504.444C1551.76,-494.263 1477.67,-477.38 1433.47,-467.309"/>
<polygon fill="midnightblue" stroke="midnightblue" points="1434.24,-463.896 1423.71,-465.086 1432.69,-470.721 1434.24,-463.896"/>
</g>
<!-- Node50 -->
<g id="node50" class="node"><title>Node50</title>
<polygon fill="white" stroke="#bfbfbf" points="1768,-448.5 1768,-467.5 1830,-467.5 1830,-448.5 1768,-448.5"/>
<text text-anchor="middle" x="1799" y="-455.5" font-family="Helvetica,sans-Serif" font-size="10.00">sys/time.h</text>
</g>
<!-- Node1&#45;&gt;Node50 -->
<g id="edge83" class="edge"><title>Node1&#45;&gt;Node50</title>
<path fill="none" stroke="midnightblue" d="M1660.14,-504.444C1688.02,-495.32 1732.35,-480.813 1763.4,-470.651"/>
<polygon fill="midnightblue" stroke="midnightblue" points="1764.56,-473.953 1772.98,-467.516 1762.38,-467.3 1764.56,-473.953"/>
</g>
<!-- Node5&#45;&gt;Node3 -->
<g id="edge78" class="edge"><title>Node5&#45;&gt;Node3</title>
<path fill="none" stroke="midnightblue" d="M1423.88,-448.799C1455.61,-439.119 1508.31,-423.041 1542.08,-412.738"/>
<polygon fill="midnightblue" stroke="midnightblue" points="1543.37,-416.005 1551.91,-409.739 1541.32,-409.31 1543.37,-416.005"/>
</g>
<!-- Node6 -->
<g id="node6" class="node"><title>Node6</title>
<g id="a_node6"><a xlink:href="config_cosmos_8h.html" target="_top" xlink:title="Headers and definitions common to all COSMOS. ">
<polygon fill="white" stroke="black" points="923.5,-112.5 923.5,-131.5 1046.5,-131.5 1046.5,-112.5 923.5,-112.5"/>
<text text-anchor="middle" x="985" y="-119.5" font-family="Helvetica,sans-Serif" font-size="10.00">support/configCosmos.h</text>
</a>
</g>
</g>
<!-- Node5&#45;&gt;Node6 -->
<g id="edge5" class="edge"><title>Node5&#45;&gt;Node6</title>
<path fill="none" stroke="midnightblue" d="M1400,-448.138C1408.64,-420.885 1431.04,-336.727 1399,-280 1331.46,-160.408 1156.52,-131.275 1057.01,-124.586"/>
<polygon fill="midnightblue" stroke="midnightblue" points="1056.93,-121.075 1046.73,-123.957 1056.5,-128.061 1056.93,-121.075"/>
</g>
<!-- Node16 -->
<g id="node16" class="node"><title>Node16</title>
<polygon fill="white" stroke="#bfbfbf" points="0,-56.5 0,-75.5 44,-75.5 44,-56.5 0,-56.5"/>
<text text-anchor="middle" x="22" y="-63.5" font-family="Helvetica,sans-Serif" font-size="10.00">cmath</text>
</g>
<!-- Node5&#45;&gt;Node16 -->
<g id="edge77" class="edge"><title>Node5&#45;&gt;Node16</title>
<path fill="none" stroke="midnightblue" d="M1370.35,-456.169C1185.96,-450.246 107,-412.781 107,-347 107,-347 107,-347 107,-177 107,-135.765 69.1386,-100.574 43.9535,-81.7262"/>
<polygon fill="midnightblue" stroke="midnightblue" points="45.8185,-78.7563 35.6567,-75.758 41.7308,-84.4388 45.8185,-78.7563"/>
</g>
<!-- Node38 -->
<g id="node38" class="node"><title>Node38</title>
<g id="a_node38"><a xlink:href="elapsedtime_8h.html" target="_top" xlink:title="Elapsed Time header file. ">
<polygon fill="white" stroke="black" points="1485.5,-168.5 1485.5,-187.5 1598.5,-187.5 1598.5,-168.5 1485.5,-168.5"/>
<text text-anchor="middle" x="1542" y="-175.5" font-family="Helvetica,sans-Serif" font-size="10.00">support/elapsedtime.h</text>
</a>
</g>
</g>
<!-- Node5&#45;&gt;Node38 -->
<g id="edge47" class="edge"><title>Node5&#45;&gt;Node38</title>
<path fill="none" stroke="midnightblue" d="M1417.27,-448.399C1433.42,-440.738 1455.78,-428.234 1471,-412 1493.3,-388.216 1505,-379.602 1505,-347 1505,-347 1505,-347 1505,-289 1505,-254.889 1521.18,-217.787 1532.14,-196.568"/>
<polygon fill="midnightblue" stroke="midnightblue" points="1535.36,-197.976 1537.01,-187.51 1529.19,-194.662 1535.36,-197.976"/>
</g>
<!-- Node39 -->
<g id="node39" class="node"><title>Node39</title>
<polygon fill="white" stroke="#bfbfbf" points="1453.5,-112.5 1453.5,-131.5 1494.5,-131.5 1494.5,-112.5 1453.5,-112.5"/>
<text text-anchor="middle" x="1474" y="-119.5" font-family="Helvetica,sans-Serif" font-size="10.00">ctime</text>
</g>
<!-- Node5&#45;&gt;Node39 -->
<g id="edge81" class="edge"><title>Node5&#45;&gt;Node39</title>
<path fill="none" stroke="midnightblue" d="M1405.6,-448.465C1422.19,-431.039 1457,-389.419 1457,-347 1457,-347 1457,-347 1457,-233 1457,-200.583 1464.3,-163.415 1469.33,-141.644"/>
<polygon fill="midnightblue" stroke="midnightblue" points="1472.77,-142.31 1471.71,-131.769 1465.97,-140.674 1472.77,-142.31"/>
</g>
<!-- Node41 -->
<g id="node41" class="node"><title>Node41</title>
<g id="a_node41"><a xlink:href="mathlib_8h.html" target="_top" xlink:title="mathlib include file ">
<polygon fill="white" stroke="black" points="1098.5,-392.5 1098.5,-411.5 1179.5,-411.5 1179.5,-392.5 1098.5,-392.5"/>
<text text-anchor="middle" x="1139" y="-399.5" font-family="Helvetica,sans-Serif" font-size="10.00">math/mathlib.h</text>
</a>
</g>
</g>
<!-- Node5&#45;&gt;Node41 -->
<g id="edge53" class="edge"><title>Node5&#45;&gt;Node41</title>
<path fill="none" stroke="midnightblue" d="M1370.36,-451.424C1327.91,-442.539 1244.17,-425.013 1189.94,-413.661"/>
<polygon fill="midnightblue" stroke="midnightblue" points="1190.34,-410.171 1179.84,-411.548 1188.91,-417.022 1190.34,-410.171"/>
</g>
<!-- Node43 -->
<g id="node43" class="node"><title>Node43</title>
<polygon fill="white" stroke="#bfbfbf" points="1343.5,-280.5 1343.5,-299.5 1390.5,-299.5 1390.5,-280.5 1343.5,-280.5"/>
<text text-anchor="middle" x="1367" y="-287.5" font-family="Helvetica,sans-Serif" font-size="10.00">errno.h</text>
</g>
<!-- Node5&#45;&gt;Node43 -->
<g id="edge79" class="edge"><title>Node5&#45;&gt;Node43</title>
<path fill="none" stroke="midnightblue" d="M1395.39,-448.075C1390.66,-421.945 1376.8,-345.211 1370.36,-309.577"/>
<polygon fill="midnightblue" stroke="midnightblue" points="1373.77,-308.786 1368.55,-299.568 1366.88,-310.031 1373.77,-308.786"/>
</g>
<!-- Node48 -->
<g id="node48" class="node"><title>Node48</title>
<polygon fill="white" stroke="#bfbfbf" points="981,-392.5 981,-411.5 1027,-411.5 1027,-392.5 981,-392.5"/>
<text text-anchor="middle" x="1004" y="-399.5" font-family="Helvetica,sans-Serif" font-size="10.00">stdio.h</text>
</g>
<!-- Node5&#45;&gt;Node48 -->
<g id="edge80" class="edge"><title>Node5&#45;&gt;Node48</title>
<path fill="none" stroke="midnightblue" d="M1370.06,-455.033C1311.29,-450.448 1167.08,-437.596 1037.42,-412.02"/>
<polygon fill="midnightblue" stroke="midnightblue" points="1037.81,-408.529 1027.32,-409.996 1036.44,-415.393 1037.81,-408.529"/>
</g>
<!-- Node49 -->
<g id="node49" class="node"><title>Node49</title>
<polygon fill="white" stroke="#bfbfbf" points="1045.5,-392.5 1045.5,-411.5 1080.5,-411.5 1080.5,-392.5 1045.5,-392.5"/>
<text text-anchor="middle" x="1063" y="-399.5" font-family="Helvetica,sans-Serif" font-size="10.00">ratio</text>
</g>
<!-- Node5&#45;&gt;Node49 -->
<g id="edge82" class="edge"><title>Node5&#45;&gt;Node49</title>
<path fill="none" stroke="midnightblue" d="M1370.31,-454.805C1318.07,-450.147 1198.65,-437.72 1090.53,-412.01"/>
<polygon fill="midnightblue" stroke="midnightblue" points="1091.31,-408.599 1080.77,-409.646 1089.66,-415.402 1091.31,-408.599"/>
</g>
<!-- Node6&#45;&gt;Node2 -->
<g id="edge17" class="edge"><title>Node6&#45;&gt;Node2</title>
<path fill="none" stroke="midnightblue" d="M1046.51,-115.903C1063.51,-114.56 1081.97,-113.163 1099,-112 1376.59,-93.0499 1448.36,-113.947 1724,-76 1725.26,-75.8267 1726.54,-75.6352 1727.82,-75.4289"/>
<polygon fill="midnightblue" stroke="midnightblue" points="1728.55,-78.8535 1737.76,-73.6104 1727.29,-71.9678 1728.55,-78.8535"/>
</g>
<!-- Node7 -->
<g id="node7" class="node"><title>Node7</title>
<polygon fill="white" stroke="#bfbfbf" points="1203.5,-56.5 1203.5,-75.5 1248.5,-75.5 1248.5,-56.5 1203.5,-56.5"/>
<text text-anchor="middle" x="1226" y="-63.5" font-family="Helvetica,sans-Serif" font-size="10.00">climits</text>
</g>
<!-- Node6&#45;&gt;Node7 -->
<g id="edge6" class="edge"><title>Node6&#45;&gt;Node7</title>
<path fill="none" stroke="midnightblue" d="M1028.41,-112.472C1068.66,-104.383 1130.41,-91.5086 1193.23,-76.0664"/>
<polygon fill="midnightblue" stroke="midnightblue" points="1194.46,-79.369 1203.32,-73.5663 1192.77,-72.5746 1194.46,-79.369"/>
</g>
<!-- Node8 -->
<g id="node8" class="node"><title>Node8</title>
<polygon fill="white" stroke="#bfbfbf" points="1266.5,-56.5 1266.5,-75.5 1313.5,-75.5 1313.5,-56.5 1266.5,-56.5"/>
<text text-anchor="middle" x="1290" y="-63.5" font-family="Helvetica,sans-Serif" font-size="10.00">csignal</text>
</g>
<!-- Node6&#45;&gt;Node8 -->
<g id="edge7" class="edge"><title>Node6&#45;&gt;Node8</title>
<path fill="none" stroke="midnightblue" d="M1046.65,-112.638C1099.73,-105.02 1178.55,-92.7178 1256.31,-75.9563"/>
<polygon fill="midnightblue" stroke="midnightblue" points="1257.25,-79.3325 1266.28,-73.7812 1255.76,-72.4933 1257.25,-79.3325"/>
</g>
<!-- Node9 -->
<g id="node9" class="node"><title>Node9</title>
<polygon fill="white" stroke="#bfbfbf" points="62,-56.5 62,-75.5 108,-75.5 108,-56.5 62,-56.5"/>
<text text-anchor="middle" x="85" y="-63.5" font-family="Helvetica,sans-Serif" font-size="10.00">cstdint</text>
</g>
<!-- Node6&#45;&gt;Node9 -->
<g id="edge8" class="edge"><title>Node6&#45;&gt;Node9</title>
<path fill="none" stroke="midnightblue" d="M923.398,-119.586C755.444,-115.454 291.121,-102.107 118.262,-75.7832"/>
<polygon fill="midnightblue" stroke="midnightblue" points="118.71,-72.3104 108.284,-74.1946 117.609,-79.2234 118.71,-72.3104"/>
</g>
<!-- Node10 -->
<g id="node10" class="node"><title>Node10</title>
<polygon fill="white" stroke="#bfbfbf" points="308,-56.5 308,-75.5 364,-75.5 364,-56.5 308,-56.5"/>
<text text-anchor="middle" x="336" y="-63.5" font-family="Helvetica,sans-Serif" font-size="10.00">cinttypes</text>
</g>
<!-- Node6&#45;&gt;Node10 -->
<g id="edge9" class="edge"><title>Node6&#45;&gt;Node10</title>
<path fill="none" stroke="midnightblue" d="M923.226,-113.419C918.415,-112.91 913.63,-112.429 909,-112 674.511,-90.2554 610.712,-111.745 374.121,-75.9063"/>
<polygon fill="midnightblue" stroke="midnightblue" points="374.597,-72.4385 364.182,-74.3827 373.536,-79.3577 374.597,-72.4385"/>
</g>
<!-- Node11 -->
<g id="node11" class="node"><title>Node11</title>
<polygon fill="white" stroke="#bfbfbf" points="382.5,-56.5 382.5,-75.5 425.5,-75.5 425.5,-56.5 382.5,-56.5"/>
<text text-anchor="middle" x="404" y="-63.5" font-family="Helvetica,sans-Serif" font-size="10.00">cstdio</text>
</g>
<!-- Node6&#45;&gt;Node11 -->
<g id="edge10" class="edge"><title>Node6&#45;&gt;Node11</title>
<path fill="none" stroke="midnightblue" d="M923.222,-113.463C918.412,-112.944 913.629,-112.449 909,-112 701.566,-91.8662 643.951,-113.932 435.846,-75.9925"/>
<polygon fill="midnightblue" stroke="midnightblue" points="436.291,-72.5156 425.821,-74.1402 435.019,-79.399 436.291,-72.5156"/>
</g>
<!-- Node12 -->
<g id="node12" class="node"><title>Node12</title>
<polygon fill="white" stroke="#bfbfbf" points="443.5,-56.5 443.5,-75.5 492.5,-75.5 492.5,-56.5 443.5,-56.5"/>
<text text-anchor="middle" x="468" y="-63.5" font-family="Helvetica,sans-Serif" font-size="10.00">cstddef</text>
</g>
<!-- Node6&#45;&gt;Node12 -->
<g id="edge11" class="edge"><title>Node6&#45;&gt;Node12</title>
<path fill="none" stroke="midnightblue" d="M923.215,-113.527C918.407,-112.993 913.626,-112.478 909,-112 731.197,-93.6321 681.958,-107.553 502.782,-76.0466"/>
<polygon fill="midnightblue" stroke="midnightblue" points="503.217,-72.5692 492.758,-74.261 501.989,-79.4607 503.217,-72.5692"/>
</g>
<!-- Node13 -->
<g id="node13" class="node"><title>Node13</title>
<polygon fill="white" stroke="#bfbfbf" points="510.5,-56.5 510.5,-75.5 555.5,-75.5 555.5,-56.5 510.5,-56.5"/>
<text text-anchor="middle" x="533" y="-63.5" font-family="Helvetica,sans-Serif" font-size="10.00">cstdlib</text>
</g>
<!-- Node6&#45;&gt;Node13 -->
<g id="edge12" class="edge"><title>Node6&#45;&gt;Node13</title>
<path fill="none" stroke="midnightblue" d="M923.206,-113.611C918.4,-113.058 913.622,-112.515 909,-112 759.506,-95.3268 717.761,-104.499 565.784,-75.8173"/>
<polygon fill="midnightblue" stroke="midnightblue" points="566.091,-72.3127 555.612,-73.8727 564.777,-79.1882 566.091,-72.3127"/>
</g>
<!-- Node14 -->
<g id="node14" class="node"><title>Node14</title>
<polygon fill="white" stroke="#bfbfbf" points="574,-56.5 574,-75.5 618,-75.5 618,-56.5 574,-56.5"/>
<text text-anchor="middle" x="596" y="-63.5" font-family="Helvetica,sans-Serif" font-size="10.00">cerrno</text>
</g>
<!-- Node6&#45;&gt;Node14 -->
<g id="edge13" class="edge"><title>Node6&#45;&gt;Node14</title>
<path fill="none" stroke="midnightblue" d="M923.331,-113.504C833.623,-102.567 673.583,-82.9195 628.166,-75.6755"/>
<polygon fill="midnightblue" stroke="midnightblue" points="628.704,-72.2163 618.246,-73.9133 627.479,-79.1084 628.704,-72.2163"/>
</g>
<!-- Node15 -->
<g id="node15" class="node"><title>Node15</title>
<polygon fill="white" stroke="#bfbfbf" points="636,-56.5 636,-75.5 682,-75.5 682,-56.5 636,-56.5"/>
<text text-anchor="middle" x="659" y="-63.5" font-family="Helvetica,sans-Serif" font-size="10.00">cstring</text>
</g>
<!-- Node6&#45;&gt;Node15 -->
<g id="edge14" class="edge"><title>Node6&#45;&gt;Node15</title>
<path fill="none" stroke="midnightblue" d="M923.222,-113.777C865.67,-106.543 777.342,-94.1563 692.168,-76.0393"/>
<polygon fill="midnightblue" stroke="midnightblue" points="692.849,-72.6058 682.336,-73.9191 691.373,-79.4485 692.849,-72.6058"/>
</g>
<!-- Node6&#45;&gt;Node16 -->
<g id="edge15" class="edge"><title>Node6&#45;&gt;Node16</title>
<path fill="none" stroke="midnightblue" d="M923.178,-118.856C734.931,-112.214 174.761,-91.574 54.4494,-75.6486"/>
<polygon fill="midnightblue" stroke="midnightblue" points="54.6132,-72.1345 44.2066,-74.1228 53.5818,-79.0581 54.6132,-72.1345"/>
</g>
<!-- Node17 -->
<g id="node17" class="node"><title>Node17</title>
<polygon fill="white" stroke="#bfbfbf" points="700.5,-56.5 700.5,-75.5 745.5,-75.5 745.5,-56.5 700.5,-56.5"/>
<text text-anchor="middle" x="723" y="-63.5" font-family="Helvetica,sans-Serif" font-size="10.00">iosfwd</text>
</g>
<!-- Node6&#45;&gt;Node17 -->
<g id="edge16" class="edge"><title>Node6&#45;&gt;Node17</title>
<path fill="none" stroke="midnightblue" d="M935.398,-112.493C890.839,-104.582 823.433,-91.952 755.665,-75.9975"/>
<polygon fill="midnightblue" stroke="midnightblue" points="756.205,-72.5284 745.666,-73.6196 754.585,-79.3385 756.205,-72.5284"/>
</g>
<!-- Node18 -->
<g id="node18" class="node"><title>Node18</title>
<polygon fill="white" stroke="#bfbfbf" points="764,-56.5 764,-75.5 816,-75.5 816,-56.5 764,-56.5"/>
<text text-anchor="middle" x="790" y="-63.5" font-family="Helvetica,sans-Serif" font-size="10.00">sstream</text>
</g>
<!-- Node6&#45;&gt;Node18 -->
<g id="edge18" class="edge"><title>Node6&#45;&gt;Node18</title>
<path fill="none" stroke="midnightblue" d="M954.102,-112.444C919.254,-102.793 862.663,-87.122 825.886,-76.9377"/>
<polygon fill="midnightblue" stroke="midnightblue" points="826.645,-73.5161 816.073,-74.2203 824.777,-80.2622 826.645,-73.5161"/>
</g>
<!-- Node19 -->
<g id="node19" class="node"><title>Node19</title>
<polygon fill="white" stroke="#bfbfbf" points="834.5,-56.5 834.5,-75.5 875.5,-75.5 875.5,-56.5 834.5,-56.5"/>
<text text-anchor="middle" x="855" y="-63.5" font-family="Helvetica,sans-Serif" font-size="10.00">regex</text>
</g>
<!-- Node6&#45;&gt;Node19 -->
<g id="edge19" class="edge"><title>Node6&#45;&gt;Node19</title>
<path fill="none" stroke="midnightblue" d="M964.401,-112.444C943.007,-103.557 909.319,-89.5632 884.976,-79.4514"/>
<polygon fill="midnightblue" stroke="midnightblue" points="886.08,-76.1203 875.503,-75.5164 883.395,-82.5848 886.08,-76.1203"/>
</g>
<!-- Node20 -->
<g id="node20" class="node"><title>Node20</title>
<polygon fill="white" stroke="#bfbfbf" points="126,-56.5 126,-75.5 176,-75.5 176,-56.5 126,-56.5"/>
<text text-anchor="middle" x="151" y="-63.5" font-family="Helvetica,sans-Serif" font-size="10.00">iomanip</text>
</g>
<!-- Node6&#45;&gt;Node20 -->
<g id="edge20" class="edge"><title>Node6&#45;&gt;Node20</title>
<path fill="none" stroke="midnightblue" d="M923.234,-113.33C918.421,-112.841 913.634,-112.39 909,-112 590.171,-85.1713 506.896,-120.145 190,-76 188.722,-75.822 187.425,-75.6226 186.118,-75.4056"/>
<polygon fill="midnightblue" stroke="midnightblue" points="186.535,-71.9218 176.054,-73.4682 185.212,-78.7956 186.535,-71.9218"/>
</g>
<!-- Node21 -->
<g id="node21" class="node"><title>Node21</title>
<polygon fill="white" stroke="#bfbfbf" points="893.5,-56.5 893.5,-75.5 944.5,-75.5 944.5,-56.5 893.5,-56.5"/>
<text text-anchor="middle" x="919" y="-63.5" font-family="Helvetica,sans-Serif" font-size="10.00">unistd.h</text>
</g>
<!-- Node6&#45;&gt;Node21 -->
<g id="edge21" class="edge"><title>Node6&#45;&gt;Node21</title>
<path fill="none" stroke="midnightblue" d="M974.396,-112.324C964.544,-104.263 949.649,-92.0765 937.785,-82.3695"/>
<polygon fill="midnightblue" stroke="midnightblue" points="939.753,-79.4575 929.797,-75.8339 935.32,-84.8752 939.753,-79.4575"/>
</g>
<!-- Node22 -->
<g id="node22" class="node"><title>Node22</title>
<polygon fill="white" stroke="#bfbfbf" points="963,-56.5 963,-75.5 1007,-75.5 1007,-56.5 963,-56.5"/>
<text text-anchor="middle" x="985" y="-63.5" font-family="Helvetica,sans-Serif" font-size="10.00">fcntl.h</text>
</g>
<!-- Node6&#45;&gt;Node22 -->
<g id="edge22" class="edge"><title>Node6&#45;&gt;Node22</title>
<path fill="none" stroke="midnightblue" d="M985,-112.083C985,-105.006 985,-94.8611 985,-85.9865"/>
<polygon fill="midnightblue" stroke="midnightblue" points="988.5,-85.751 985,-75.7511 981.5,-85.7511 988.5,-85.751"/>
</g>
<!-- Node23 -->
<g id="node23" class="node"><title>Node23</title>
<polygon fill="white" stroke="#bfbfbf" points="1025,-56.5 1025,-75.5 1065,-75.5 1065,-56.5 1025,-56.5"/>
<text text-anchor="middle" x="1045" y="-63.5" font-family="Helvetica,sans-Serif" font-size="10.00">limits</text>
</g>
<!-- Node6&#45;&gt;Node23 -->
<g id="edge23" class="edge"><title>Node6&#45;&gt;Node23</title>
<path fill="none" stroke="midnightblue" d="M994.64,-112.324C1003.51,-104.341 1016.87,-92.3128 1027.61,-82.6529"/>
<polygon fill="midnightblue" stroke="midnightblue" points="1030.09,-85.1251 1035.18,-75.8339 1025.41,-79.922 1030.09,-85.1251"/>
</g>
<!-- Node24 -->
<g id="node24" class="node"><title>Node24</title>
<polygon fill="white" stroke="#bfbfbf" points="1771.5,-0.5 1771.5,-19.5 1812.5,-19.5 1812.5,-0.5 1771.5,-0.5"/>
<text text-anchor="middle" x="1792" y="-7.5" font-family="Helvetica,sans-Serif" font-size="10.00">string</text>
</g>
<!-- Node6&#45;&gt;Node24 -->
<g id="edge24" class="edge"><title>Node6&#45;&gt;Node24</title>
<path fill="none" stroke="midnightblue" d="M1046.52,-115.939C1063.51,-114.596 1081.97,-113.19 1099,-112 1230.48,-102.813 1565.74,-116.995 1691,-76 1708.03,-70.4257 1747.73,-43.0324 1771.97,-25.6338"/>
<polygon fill="midnightblue" stroke="midnightblue" points="1774.08,-28.429 1780.13,-19.735 1769.98,-22.7554 1774.08,-28.429"/>
</g>
<!-- Node25 -->
<g id="node25" class="node"><title>Node25</title>
<polygon fill="white" stroke="#bfbfbf" points="1547,-0.5 1547,-19.5 1591,-19.5 1591,-0.5 1547,-0.5"/>
<text text-anchor="middle" x="1569" y="-7.5" font-family="Helvetica,sans-Serif" font-size="10.00">vector</text>
</g>
<!-- Node6&#45;&gt;Node25 -->
<g id="edge25" class="edge"><title>Node6&#45;&gt;Node25</title>
<path fill="none" stroke="midnightblue" d="M1046.78,-113.497C1051.59,-112.97 1056.37,-112.464 1061,-112 1157.95,-102.269 1408.7,-114.997 1498,-76 1522.07,-65.4889 1543.34,-43.387 1556.18,-27.8866"/>
<polygon fill="midnightblue" stroke="midnightblue" points="1559.24,-29.6655 1562.73,-19.6606 1553.76,-25.308 1559.24,-29.6655"/>
</g>
<!-- Node26 -->
<g id="node26" class="node"><title>Node26</title>
<polygon fill="white" stroke="#bfbfbf" points="1083.5,-56.5 1083.5,-75.5 1124.5,-75.5 1124.5,-56.5 1083.5,-56.5"/>
<text text-anchor="middle" x="1104" y="-63.5" font-family="Helvetica,sans-Serif" font-size="10.00">stack</text>
</g>
<!-- Node6&#45;&gt;Node26 -->
<g id="edge26" class="edge"><title>Node6&#45;&gt;Node26</title>
<path fill="none" stroke="midnightblue" d="M1003.86,-112.444C1023.27,-103.636 1053.73,-89.8116 1075.96,-79.722"/>
<polygon fill="midnightblue" stroke="midnightblue" points="1077.57,-82.836 1085.23,-75.5164 1074.68,-76.4615 1077.57,-82.836"/>
</g>
<!-- Node27 -->
<g id="node27" class="node"><title>Node27</title>
<polygon fill="white" stroke="#bfbfbf" points="1142.5,-56.5 1142.5,-75.5 1185.5,-75.5 1185.5,-56.5 1142.5,-56.5"/>
<text text-anchor="middle" x="1164" y="-63.5" font-family="Helvetica,sans-Serif" font-size="10.00">deque</text>
</g>
<!-- Node6&#45;&gt;Node27 -->
<g id="edge27" class="edge"><title>Node6&#45;&gt;Node27</title>
<path fill="none" stroke="midnightblue" d="M1013.36,-112.444C1045.79,-102.66 1098.74,-86.6884 1132.44,-76.5194"/>
<polygon fill="midnightblue" stroke="midnightblue" points="1133.68,-79.8022 1142.24,-73.5631 1131.66,-73.1005 1133.68,-79.8022"/>
</g>
<!-- Node28 -->
<g id="node28" class="node"><title>Node28</title>
<polygon fill="white" stroke="#bfbfbf" points="1191,-0.5 1191,-19.5 1235,-19.5 1235,-0.5 1191,-0.5"/>
<text text-anchor="middle" x="1213" y="-7.5" font-family="Helvetica,sans-Serif" font-size="10.00">mutex</text>
</g>
<!-- Node6&#45;&gt;Node28 -->
<g id="edge28" class="edge"><title>Node6&#45;&gt;Node28</title>
<path fill="none" stroke="midnightblue" d="M923.23,-113.377C918.418,-112.877 913.632,-112.411 909,-112 841.369,-106.005 345.574,-125.403 299,-76 292.903,-69.5321 292.871,-62.4381 299,-56 314.527,-39.6898 1019.86,-16.9614 1180.62,-11.9869"/>
<polygon fill="midnightblue" stroke="midnightblue" points="1180.94,-15.4789 1190.83,-11.6724 1180.72,-8.48224 1180.94,-15.4789"/>
</g>
<!-- Node29 -->
<g id="node29" class="node"><title>Node29</title>
<polygon fill="white" stroke="#bfbfbf" points="1428,-0.5 1428,-19.5 1472,-19.5 1472,-0.5 1428,-0.5"/>
<text text-anchor="middle" x="1450" y="-7.5" font-family="Helvetica,sans-Serif" font-size="10.00">thread</text>
</g>
<!-- Node6&#45;&gt;Node29 -->
<g id="edge29" class="edge"><title>Node6&#45;&gt;Node29</title>
<path fill="none" stroke="midnightblue" d="M1046.79,-113.541C1051.59,-113.004 1056.37,-112.484 1061,-112 1104.94,-107.402 1427.21,-108.625 1457,-76 1468.33,-63.5908 1464.21,-43.7926 1458.73,-29.3035"/>
<polygon fill="midnightblue" stroke="midnightblue" points="1461.84,-27.6895 1454.69,-19.8731 1455.41,-30.4437 1461.84,-27.6895"/>
</g>
<!-- Node30 -->
<g id="node30" class="node"><title>Node30</title>
<polygon fill="white" stroke="#bfbfbf" points="279.5,-0.5 279.5,-19.5 374.5,-19.5 374.5,-0.5 279.5,-0.5"/>
<text text-anchor="middle" x="327" y="-7.5" font-family="Helvetica,sans-Serif" font-size="10.00">condition_variable</text>
</g>
<!-- Node6&#45;&gt;Node30 -->
<g id="edge30" class="edge"><title>Node6&#45;&gt;Node30</title>
<path fill="none" stroke="midnightblue" d="M923.231,-113.358C918.42,-112.862 913.633,-112.402 909,-112 836.827,-105.737 307.791,-128.621 258,-76 240.169,-57.1555 270.462,-36.872 296.373,-24.0673"/>
<polygon fill="midnightblue" stroke="midnightblue" points="298.071,-27.1359 305.623,-19.7047 295.085,-20.8046 298.071,-27.1359"/>
</g>
<!-- Node31 -->
<g id="node31" class="node"><title>Node31</title>
<polygon fill="white" stroke="#bfbfbf" points="883.5,-0.5 883.5,-19.5 926.5,-19.5 926.5,-0.5 883.5,-0.5"/>
<text text-anchor="middle" x="905" y="-7.5" font-family="Helvetica,sans-Serif" font-size="10.00">queue</text>
</g>
<!-- Node6&#45;&gt;Node31 -->
<g id="edge31" class="edge"><title>Node6&#45;&gt;Node31</title>
<path fill="none" stroke="midnightblue" d="M923.231,-113.361C918.419,-112.865 913.633,-112.404 909,-112 837.714,-105.79 315.163,-127.993 266,-76 259.893,-69.5413 259.939,-62.5024 266,-56 307.679,-11.2828 749.102,-10.1832 872.89,-10.7638"/>
<polygon fill="midnightblue" stroke="midnightblue" points="873.191,-14.2654 883.21,-10.8198 873.229,-7.26547 873.191,-14.2654"/>
</g>
<!-- Node32 -->
<g id="node32" class="node"><title>Node32</title>
<polygon fill="white" stroke="#bfbfbf" points="1493.5,-0.5 1493.5,-19.5 1528.5,-19.5 1528.5,-0.5 1493.5,-0.5"/>
<text text-anchor="middle" x="1511" y="-7.5" font-family="Helvetica,sans-Serif" font-size="10.00">map</text>
</g>
<!-- Node6&#45;&gt;Node32 -->
<g id="edge32" class="edge"><title>Node6&#45;&gt;Node32</title>
<path fill="none" stroke="midnightblue" d="M1046.78,-113.52C1051.59,-112.988 1056.37,-112.475 1061,-112 1152.86,-102.569 1397.55,-126.289 1475,-76 1491.37,-65.3727 1500.96,-44.6068 1506.07,-29.3962"/>
<polygon fill="midnightblue" stroke="midnightblue" points="1509.51,-30.1107 1509.03,-19.5267 1502.81,-28.0987 1509.51,-30.1107"/>
</g>
<!-- Node33 -->
<g id="node33" class="node"><title>Node33</title>
<g id="a_node33"><a xlink:href="cosmos-defs_8h.html" target="_top" xlink:title="COSMOS definitions Definitions specific to the COSMOS environement. ">
<polygon fill="white" stroke="black" points="1332,-56.5 1332,-75.5 1448,-75.5 1448,-56.5 1332,-56.5"/>
<text text-anchor="middle" x="1390" y="-63.5" font-family="Helvetica,sans-Serif" font-size="10.00">support/cosmos&#45;defs.h</text>
</a>
</g>
</g>
<!-- Node6&#45;&gt;Node33 -->
<g id="edge33" class="edge"><title>Node6&#45;&gt;Node33</title>
<path fill="none" stroke="midnightblue" d="M1046.51,-112.799C1120.63,-102.916 1244.79,-86.362 1321.78,-76.0957"/>
<polygon fill="midnightblue" stroke="midnightblue" points="1322.41,-79.5432 1331.86,-74.7521 1321.48,-72.6046 1322.41,-79.5432"/>
</g>
<!-- Node35 -->
<g id="node35" class="node"><title>Node35</title>
<g id="a_node35"><a xlink:href="json11_8hpp.html" target="_top" xlink:title="json11.hpp">
<polygon fill="white" stroke="black" points="1618,-56.5 1618,-75.5 1682,-75.5 1682,-56.5 1618,-56.5"/>
<text text-anchor="middle" x="1650" y="-63.5" font-family="Helvetica,sans-Serif" font-size="10.00">json11.hpp</text>
</a>
</g>
</g>
<!-- Node6&#45;&gt;Node35 -->
<g id="edge41" class="edge"><title>Node6&#45;&gt;Node35</title>
<path fill="none" stroke="midnightblue" d="M1046.53,-116.122C1063.53,-114.779 1081.98,-113.328 1099,-112 1306.54,-95.8082 1358.71,-95.0907 1566,-76 1579.48,-74.7583 1594.17,-73.2417 1607.43,-71.8099"/>
<polygon fill="midnightblue" stroke="midnightblue" points="1608.15,-75.252 1617.71,-70.6868 1607.39,-68.2934 1608.15,-75.252"/>
</g>
<!-- Node33&#45;&gt;Node25 -->
<g id="edge35" class="edge"><title>Node33&#45;&gt;Node25</title>
<path fill="none" stroke="midnightblue" d="M1418.36,-56.4435C1450.7,-46.6872 1503.44,-30.7764 1537.17,-20.6036"/>
<polygon fill="midnightblue" stroke="midnightblue" points="1538.41,-23.883 1546.98,-17.6439 1536.39,-17.1813 1538.41,-23.883"/>
</g>
<!-- Node33&#45;&gt;Node28 -->
<g id="edge39" class="edge"><title>Node33&#45;&gt;Node28</title>
<path fill="none" stroke="midnightblue" d="M1361.95,-56.4435C1330.06,-46.7141 1278.11,-30.8642 1244.76,-20.688"/>
<polygon fill="midnightblue" stroke="midnightblue" points="1245.63,-17.2955 1235.04,-17.7251 1243.59,-23.9909 1245.63,-17.2955"/>
</g>
<!-- Node33&#45;&gt;Node29 -->
<g id="edge38" class="edge"><title>Node33&#45;&gt;Node29</title>
<path fill="none" stroke="midnightblue" d="M1399.64,-56.324C1408.51,-48.3414 1421.87,-36.3128 1432.61,-26.6529"/>
<polygon fill="midnightblue" stroke="midnightblue" points="1435.09,-29.1251 1440.18,-19.8339 1430.41,-23.922 1435.09,-29.1251"/>
</g>
<!-- Node33&#45;&gt;Node30 -->
<g id="edge40" class="edge"><title>Node33&#45;&gt;Node30</title>
<path fill="none" stroke="midnightblue" d="M1331.8,-56.9606C1328.49,-56.6079 1325.2,-56.2838 1322,-56 966.727,-24.5148 538.029,-14.5529 384.853,-11.8704"/>
<polygon fill="midnightblue" stroke="midnightblue" points="384.794,-8.369 374.736,-11.6969 384.674,-15.368 384.794,-8.369"/>
</g>
<!-- Node33&#45;&gt;Node31 -->
<g id="edge37" class="edge"><title>Node33&#45;&gt;Node31</title>
<path fill="none" stroke="midnightblue" d="M1331.77,-57.1997C1328.47,-56.7861 1325.19,-56.3835 1322,-56 1178.57,-38.7722 1007.02,-21.2212 937.062,-14.194"/>
<polygon fill="midnightblue" stroke="midnightblue" points="937.026,-10.6729 926.727,-13.1582 936.328,-17.6381 937.026,-10.6729"/>
</g>
<!-- Node33&#45;&gt;Node32 -->
<g id="edge34" class="edge"><title>Node33&#45;&gt;Node32</title>
<path fill="none" stroke="midnightblue" d="M1409.17,-56.4435C1429.37,-47.4283 1461.35,-33.1583 1484.08,-23.0161"/>
<polygon fill="midnightblue" stroke="midnightblue" points="1485.78,-26.0867 1493.49,-18.8151 1482.93,-19.6944 1485.78,-26.0867"/>
</g>
<!-- Node34 -->
<g id="node34" class="node"><title>Node34</title>
<polygon fill="white" stroke="#bfbfbf" points="1375.5,-0.5 1375.5,-19.5 1404.5,-19.5 1404.5,-0.5 1375.5,-0.5"/>
<text text-anchor="middle" x="1390" y="-7.5" font-family="Helvetica,sans-Serif" font-size="10.00">list</text>
</g>
<!-- Node33&#45;&gt;Node34 -->
<g id="edge36" class="edge"><title>Node33&#45;&gt;Node34</title>
<path fill="none" stroke="midnightblue" d="M1390,-56.083C1390,-49.0059 1390,-38.8611 1390,-29.9865"/>
<polygon fill="midnightblue" stroke="midnightblue" points="1393.5,-29.751 1390,-19.7511 1386.5,-29.7511 1393.5,-29.751"/>
</g>
<!-- Node35&#45;&gt;Node24 -->
<g id="edge42" class="edge"><title>Node35&#45;&gt;Node24</title>
<path fill="none" stroke="midnightblue" d="M1672.5,-56.4435C1696.63,-47.2666 1735.08,-32.6446 1761.83,-22.4744"/>
<polygon fill="midnightblue" stroke="midnightblue" points="1763.35,-25.6411 1771.45,-18.8151 1760.86,-19.0982 1763.35,-25.6411"/>
</g>
<!-- Node35&#45;&gt;Node25 -->
<g id="edge43" class="edge"><title>Node35&#45;&gt;Node25</title>
<path fill="none" stroke="midnightblue" d="M1636.99,-56.324C1624.47,-47.979 1605.32,-35.2122 1590.53,-25.3524"/>
<polygon fill="midnightblue" stroke="midnightblue" points="1592.24,-22.2894 1581.98,-19.6545 1588.36,-28.1137 1592.24,-22.2894"/>
</g>
<!-- Node35&#45;&gt;Node32 -->
<g id="edge44" class="edge"><title>Node35&#45;&gt;Node32</title>
<path fill="none" stroke="midnightblue" d="M1627.98,-56.4435C1603.54,-46.9502 1564.1,-31.6297 1537.87,-21.4385"/>
<polygon fill="midnightblue" stroke="midnightblue" points="1539.11,-18.1655 1528.52,-17.8067 1536.57,-24.6904 1539.11,-18.1655"/>
</g>
<!-- Node36 -->
<g id="node36" class="node"><title>Node36</title>
<polygon fill="white" stroke="#bfbfbf" points="1701,-0.5 1701,-19.5 1753,-19.5 1753,-0.5 1701,-0.5"/>
<text text-anchor="middle" x="1727" y="-7.5" font-family="Helvetica,sans-Serif" font-size="10.00">memory</text>
</g>
<!-- Node35&#45;&gt;Node36 -->
<g id="edge45" class="edge"><title>Node35&#45;&gt;Node36</title>
<path fill="none" stroke="midnightblue" d="M1662.37,-56.324C1674.16,-48.0577 1692.13,-35.4527 1706.14,-25.6322"/>
<polygon fill="midnightblue" stroke="midnightblue" points="1708.48,-28.2619 1714.66,-19.6545 1704.46,-22.5307 1708.48,-28.2619"/>
</g>
<!-- Node37 -->
<g id="node37" class="node"><title>Node37</title>
<polygon fill="white" stroke="#bfbfbf" points="1609.5,-0.5 1609.5,-19.5 1682.5,-19.5 1682.5,-0.5 1609.5,-0.5"/>
<text text-anchor="middle" x="1646" y="-7.5" font-family="Helvetica,sans-Serif" font-size="10.00">initializer_list</text>
</g>
<!-- Node35&#45;&gt;Node37 -->
<g id="edge46" class="edge"><title>Node35&#45;&gt;Node37</title>
<path fill="none" stroke="midnightblue" d="M1649.34,-56.083C1648.82,-49.0059 1648.06,-38.8611 1647.41,-29.9865"/>
<polygon fill="midnightblue" stroke="midnightblue" points="1650.88,-29.4652 1646.65,-19.7511 1643.9,-29.9823 1650.88,-29.4652"/>
</g>
<!-- Node38&#45;&gt;Node2 -->
<g id="edge49" class="edge"><title>Node38&#45;&gt;Node2</title>
<path fill="none" stroke="midnightblue" d="M1540.34,-168.102C1538.3,-154.194 1536.69,-127.315 1551,-112 1604.63,-54.6223 1647.2,-92.4196 1724,-76 1725.24,-75.7343 1726.51,-75.4631 1727.78,-75.1883"/>
<polygon fill="midnightblue" stroke="midnightblue" points="1728.63,-78.5855 1737.66,-73.0446 1727.15,-71.7447 1728.63,-78.5855"/>
</g>
<!-- Node38&#45;&gt;Node6 -->
<g id="edge48" class="edge"><title>Node38&#45;&gt;Node6</title>
<path fill="none" stroke="midnightblue" d="M1485.27,-171.5C1383.22,-161.607 1168.93,-140.832 1056.82,-129.963"/>
<polygon fill="midnightblue" stroke="midnightblue" points="1056.92,-126.456 1046.63,-128.975 1056.24,-133.423 1056.92,-126.456"/>
</g>
<!-- Node38&#45;&gt;Node24 -->
<g id="edge50" class="edge"><title>Node38&#45;&gt;Node24</title>
<path fill="none" stroke="midnightblue" d="M1598.77,-172.854C1660.31,-164.977 1755.8,-142.147 1801,-76 1810.32,-62.3586 1806.19,-43.3116 1800.86,-29.3622"/>
<polygon fill="midnightblue" stroke="midnightblue" points="1803.94,-27.6517 1796.75,-19.8626 1797.51,-30.4303 1803.94,-27.6517"/>
</g>
<!-- Node38&#45;&gt;Node39 -->
<g id="edge51" class="edge"><title>Node38&#45;&gt;Node39</title>
<path fill="none" stroke="midnightblue" d="M1531.07,-168.324C1520.83,-160.185 1505.28,-147.839 1493,-138.087"/>
<polygon fill="midnightblue" stroke="midnightblue" points="1495.13,-135.312 1485.12,-131.834 1490.78,-140.794 1495.13,-135.312"/>
</g>
<!-- Node40 -->
<g id="node40" class="node"><title>Node40</title>
<polygon fill="white" stroke="#bfbfbf" points="1560,-112.5 1560,-131.5 1606,-131.5 1606,-112.5 1560,-112.5"/>
<text text-anchor="middle" x="1583" y="-119.5" font-family="Helvetica,sans-Serif" font-size="10.00">chrono</text>
</g>
<!-- Node38&#45;&gt;Node40 -->
<g id="edge52" class="edge"><title>Node38&#45;&gt;Node40</title>
<path fill="none" stroke="midnightblue" d="M1548.77,-168.083C1554.56,-160.455 1563.06,-149.264 1570.14,-139.941"/>
<polygon fill="midnightblue" stroke="midnightblue" points="1573.1,-141.832 1576.36,-131.751 1567.52,-137.599 1573.1,-141.832"/>
</g>
<!-- Node41&#45;&gt;Node2 -->
<g id="edge76" class="edge"><title>Node41&#45;&gt;Node2</title>
<path fill="none" stroke="midnightblue" d="M1179.62,-398.152C1213.77,-393.848 1262.14,-383.052 1295,-356 1324.31,-331.87 1314.91,-312.816 1334,-280 1378.88,-202.857 1368.38,-159.402 1444,-112 1549.56,-45.8283 1599.16,-96.7773 1722,-76 1723.92,-75.6757 1725.88,-75.3266 1727.86,-74.961"/>
<polygon fill="midnightblue" stroke="midnightblue" points="1728.62,-78.3793 1737.76,-73.0329 1727.28,-71.5083 1728.62,-78.3793"/>
</g>
<!-- Node41&#45;&gt;Node6 -->
<g id="edge54" class="edge"><title>Node41&#45;&gt;Node6</title>
<path fill="none" stroke="midnightblue" d="M1139.53,-392.286C1140.51,-372.097 1141.54,-320.738 1130,-280 1114.72,-226.066 1111.65,-207.628 1072,-168 1057.62,-153.63 1037.7,-142.868 1020.55,-135.478"/>
<polygon fill="midnightblue" stroke="midnightblue" points="1021.42,-132.051 1010.84,-131.515 1018.77,-138.533 1021.42,-132.051"/>
</g>
<!-- Node41&#45;&gt;Node16 -->
<g id="edge75" class="edge"><title>Node41&#45;&gt;Node16</title>
<path fill="none" stroke="midnightblue" d="M1098.38,-393.473C1095.21,-392.952 1092.05,-392.454 1089,-392 993.832,-377.86 229,-387.212 229,-291 229,-291 229,-291 229,-177 229,-137.841 112.022,-95.3942 53.9396,-76.7322"/>
<polygon fill="midnightblue" stroke="midnightblue" points="54.7427,-73.3153 44.1526,-73.6338 52.6299,-79.9888 54.7427,-73.3153"/>
</g>
<!-- Node42 -->
<g id="node42" class="node"><title>Node42</title>
<g id="a_node42"><a xlink:href="cosmos-errno_8h.html" target="_top" xlink:title="COSMOS Error Codes. ">
<polygon fill="white" stroke="black" points="1167.5,-336.5 1167.5,-355.5 1286.5,-355.5 1286.5,-336.5 1167.5,-336.5"/>
<text text-anchor="middle" x="1227" y="-343.5" font-family="Helvetica,sans-Serif" font-size="10.00">support/cosmos&#45;errno.h</text>
</a>
</g>
</g>
<!-- Node41&#45;&gt;Node42 -->
<g id="edge55" class="edge"><title>Node41&#45;&gt;Node42</title>
<path fill="none" stroke="midnightblue" d="M1153.14,-392.324C1166.87,-383.9 1187.94,-370.971 1204.06,-361.074"/>
<polygon fill="midnightblue" stroke="midnightblue" points="1206.2,-363.868 1212.9,-355.655 1202.54,-357.902 1206.2,-363.868"/>
</g>
<!-- Node44 -->
<g id="node44" class="node"><title>Node44</title>
<g id="a_node44"><a xlink:href="math_2constants_8h.html" target="_top" xlink:title="constants.h">
<polygon fill="white" stroke="black" points="799,-168.5 799,-187.5 867,-187.5 867,-168.5 799,-168.5"/>
<text text-anchor="middle" x="833" y="-175.5" font-family="Helvetica,sans-Serif" font-size="10.00">constants.h</text>
</a>
</g>
</g>
<!-- Node41&#45;&gt;Node44 -->
<g id="edge58" class="edge"><title>Node41&#45;&gt;Node44</title>
<path fill="none" stroke="midnightblue" d="M1100.96,-392.419C1062.16,-383.21 1005.03,-368.253 986,-356 918.883,-312.788 864.648,-231.612 843.07,-196.225"/>
<polygon fill="midnightblue" stroke="midnightblue" points="846.004,-194.312 837.866,-187.528 839.997,-197.906 846.004,-194.312"/>
</g>
<!-- Node45 -->
<g id="node45" class="node"><title>Node45</title>
<g id="a_node45"><a xlink:href="vector_8h.html" target="_top" xlink:title="vector.h">
<polygon fill="white" stroke="black" points="958,-224.5 958,-243.5 1010,-243.5 1010,-224.5 958,-224.5"/>
<text text-anchor="middle" x="984" y="-231.5" font-family="Helvetica,sans-Serif" font-size="10.00">vector.h</text>
</a>
</g>
</g>
<!-- Node41&#45;&gt;Node45 -->
<g id="edge61" class="edge"><title>Node41&#45;&gt;Node45</title>
<path fill="none" stroke="midnightblue" d="M1098.4,-392.739C1062.42,-384.565 1013.67,-371.113 1001,-356 976.666,-326.968 978.009,-279.562 981.047,-253.543"/>
<polygon fill="midnightblue" stroke="midnightblue" points="984.529,-253.91 982.429,-243.525 977.595,-252.953 984.529,-253.91"/>
</g>
<!-- Node46 -->
<g id="node46" class="node"><title>Node46</title>
<g id="a_node46"><a xlink:href="matrix_8h.html" target="_top" xlink:title="matrix.h">
<polygon fill="white" stroke="black" points="1069,-280.5 1069,-299.5 1121,-299.5 1121,-280.5 1069,-280.5"/>
<text text-anchor="middle" x="1095" y="-287.5" font-family="Helvetica,sans-Serif" font-size="10.00">matrix.h</text>
</a>
</g>
</g>
<!-- Node41&#45;&gt;Node46 -->
<g id="edge68" class="edge"><title>Node41&#45;&gt;Node46</title>
<path fill="none" stroke="midnightblue" d="M1135.55,-392.368C1128.38,-374.456 1111.77,-332.923 1102.18,-308.948"/>
<polygon fill="midnightblue" stroke="midnightblue" points="1105.4,-307.576 1098.44,-299.591 1098.9,-310.176 1105.4,-307.576"/>
</g>
<!-- Node47 -->
<g id="node47" class="node"><title>Node47</title>
<g id="a_node47"><a xlink:href="rotation_8h.html" target="_top" xlink:title="rotation.h">
<polygon fill="white" stroke="black" points="1010.5,-336.5 1010.5,-355.5 1067.5,-355.5 1067.5,-336.5 1010.5,-336.5"/>
<text text-anchor="middle" x="1039" y="-343.5" font-family="Helvetica,sans-Serif" font-size="10.00">rotation.h</text>
</a>
</g>
</g>
<!-- Node41&#45;&gt;Node47 -->
<g id="edge71" class="edge"><title>Node41&#45;&gt;Node47</title>
<path fill="none" stroke="midnightblue" d="M1122.93,-392.324C1107.04,-383.743 1082.49,-370.486 1064.04,-360.522"/>
<polygon fill="midnightblue" stroke="midnightblue" points="1065.49,-357.326 1055.03,-355.655 1062.16,-363.486 1065.49,-357.326"/>
</g>
<!-- Node42&#45;&gt;Node6 -->
<g id="edge56" class="edge"><title>Node42&#45;&gt;Node6</title>
<path fill="none" stroke="midnightblue" d="M1228.93,-336.188C1234.63,-307.604 1248.28,-216.511 1203,-168 1183.33,-146.924 1112.53,-135.129 1056.88,-128.956"/>
<polygon fill="midnightblue" stroke="midnightblue" points="1057,-125.449 1046.68,-127.868 1056.26,-132.409 1057,-125.449"/>
</g>
<!-- Node42&#45;&gt;Node43 -->
<g id="edge57" class="edge"><title>Node42&#45;&gt;Node43</title>
<path fill="none" stroke="midnightblue" d="M1249.18,-336.444C1272.43,-327.478 1309.15,-313.314 1335.42,-303.183"/>
<polygon fill="midnightblue" stroke="midnightblue" points="1336.85,-306.381 1344.92,-299.516 1334.33,-299.85 1336.85,-306.381"/>
</g>
<!-- Node44&#45;&gt;Node6 -->
<g id="edge59" class="edge"><title>Node44&#45;&gt;Node6</title>
<path fill="none" stroke="midnightblue" d="M857.085,-168.444C882.545,-159.399 922.894,-145.064 951.459,-134.916"/>
<polygon fill="midnightblue" stroke="midnightblue" points="952.777,-138.162 961.028,-131.516 950.433,-131.566 952.777,-138.162"/>
</g>
<!-- Node44&#45;&gt;Node9 -->
<g id="edge60" class="edge"><title>Node44&#45;&gt;Node9</title>
<path fill="none" stroke="midnightblue" d="M810.702,-168.5C771.956,-154.138 689.406,-125.332 617,-112 401.096,-72.2454 338.304,-113.124 118.214,-75.8536"/>
<polygon fill="midnightblue" stroke="midnightblue" points="118.743,-72.3933 108.293,-74.1391 117.551,-79.291 118.743,-72.3933"/>
</g>
<!-- Node45&#45;&gt;Node2 -->
<g id="edge64" class="edge"><title>Node45&#45;&gt;Node2</title>
<path fill="none" stroke="midnightblue" d="M1004.77,-224.388C1060.21,-201.799 1216.75,-140.621 1353,-112 1514.26,-78.1244 1559.12,-100.916 1722,-76 1723.92,-75.7059 1725.89,-75.3811 1727.87,-75.0347"/>
<polygon fill="midnightblue" stroke="midnightblue" points="1728.61,-78.4575 1737.78,-73.1635 1727.31,-71.579 1728.61,-78.4575"/>
</g>
<!-- Node45&#45;&gt;Node6 -->
<g id="edge62" class="edge"><title>Node45&#45;&gt;Node6</title>
<path fill="none" stroke="midnightblue" d="M984.078,-224.368C984.24,-206.617 984.612,-165.666 984.831,-141.597"/>
<polygon fill="midnightblue" stroke="midnightblue" points="988.331,-141.623 984.922,-131.591 981.331,-141.559 988.331,-141.623"/>
</g>
<!-- Node45&#45;&gt;Node16 -->
<g id="edge66" class="edge"><title>Node45&#45;&gt;Node16</title>
<path fill="none" stroke="midnightblue" d="M957.706,-228.752C819.82,-206.454 181.985,-102.996 54.1256,-75.9642"/>
<polygon fill="midnightblue" stroke="midnightblue" points="54.7887,-72.5265 44.2706,-73.7993 53.2867,-79.3634 54.7887,-72.5265"/>
</g>
<!-- Node45&#45;&gt;Node20 -->
<g id="edge65" class="edge"><title>Node45&#45;&gt;Node20</title>
<path fill="none" stroke="midnightblue" d="M972.275,-224.448C953.048,-210.777 913.223,-183.923 876,-168 617.048,-57.2257 529.552,-100.849 249,-76 228.275,-74.1643 205.092,-72.0386 186.478,-70.314"/>
<polygon fill="midnightblue" stroke="midnightblue" points="186.658,-66.8158 176.377,-69.376 186.011,-73.7858 186.658,-66.8158"/>
</g>
<!-- Node45&#45;&gt;Node25 -->
<g id="edge67" class="edge"><title>Node45&#45;&gt;Node25</title>
<path fill="none" stroke="midnightblue" d="M997.756,-224.362C1019.36,-211.044 1062.82,-185.235 1102,-168 1173.27,-136.647 1192.21,-129.863 1268,-112 1381.55,-85.2372 1429.96,-139.229 1528,-76 1544.94,-65.0714 1556.17,-44.3938 1562.53,-29.2861"/>
<polygon fill="midnightblue" stroke="midnightblue" points="1565.81,-30.4942 1566.16,-19.905 1559.28,-27.9671 1565.81,-30.4942"/>
</g>
<!-- Node45&#45;&gt;Node44 -->
<g id="edge63" class="edge"><title>Node45&#45;&gt;Node44</title>
<path fill="none" stroke="midnightblue" d="M960.074,-224.444C934.781,-215.399 894.698,-201.064 866.32,-190.916"/>
<polygon fill="midnightblue" stroke="midnightblue" points="867.409,-187.588 856.814,-187.516 865.052,-194.179 867.409,-187.588"/>
</g>
<!-- Node46&#45;&gt;Node6 -->
<g id="edge69" class="edge"><title>Node46&#45;&gt;Node6</title>
<path fill="none" stroke="midnightblue" d="M1093.7,-280.196C1090.2,-258.921 1078.84,-203.831 1051,-168 1040.87,-154.958 1025.88,-144.312 1012.74,-136.655"/>
<polygon fill="midnightblue" stroke="midnightblue" points="1014.05,-133.379 1003.6,-131.616 1010.67,-139.509 1014.05,-133.379"/>
</g>
<!-- Node46&#45;&gt;Node45 -->
<g id="edge70" class="edge"><title>Node46&#45;&gt;Node45</title>
<path fill="none" stroke="midnightblue" d="M1077.17,-280.324C1059.28,-271.625 1031.52,-258.12 1010.95,-248.113"/>
<polygon fill="midnightblue" stroke="midnightblue" points="1012.31,-244.882 1001.79,-243.655 1009.25,-251.177 1012.31,-244.882"/>
</g>
<!-- Node47&#45;&gt;Node6 -->
<g id="edge72" class="edge"><title>Node47&#45;&gt;Node6</title>
<path fill="none" stroke="midnightblue" d="M1038.06,-336.395C1035.78,-316.436 1029.35,-265.526 1019,-224 1011.6,-194.326 999.584,-160.865 991.995,-140.878"/>
<polygon fill="midnightblue" stroke="midnightblue" points="995.246,-139.581 988.385,-131.508 988.714,-142.098 995.246,-139.581"/>
</g>
<!-- Node47&#45;&gt;Node45 -->
<g id="edge73" class="edge"><title>Node47&#45;&gt;Node45</title>
<path fill="none" stroke="midnightblue" d="M1034.68,-336.368C1025.69,-318.376 1004.78,-276.55 992.813,-252.627"/>
<polygon fill="midnightblue" stroke="midnightblue" points="995.898,-250.97 988.296,-243.591 989.637,-254.101 995.898,-250.97"/>
</g>
<!-- Node47&#45;&gt;Node46 -->
<g id="edge74" class="edge"><title>Node47&#45;&gt;Node46</title>
<path fill="none" stroke="midnightblue" d="M1048,-336.324C1056.19,-328.42 1068.51,-316.548 1078.47,-306.938"/>
<polygon fill="midnightblue" stroke="midnightblue" points="1081.07,-309.295 1085.84,-299.834 1076.21,-304.256 1081.07,-309.295"/>
</g>
</g>
</svg>
