<?xml version="1.0" encoding="UTF-8" standalone="no"?>
<!DOCTYPE svg PUBLIC "-//W3C//DTD SVG 1.1//EN"
 "http://www.w3.org/Graphics/SVG/1.1/DTD/svg11.dtd">
<!-- Generated by graphviz version 2.38.0 (20140413.2041)
 -->
<!-- Title: objlib.h Pages: 1 -->
<svg width="3515pt" height="364pt"
 viewBox="0.00 0.00 3515.00 364.00" xmlns="http://www.w3.org/2000/svg" xmlns:xlink="http://www.w3.org/1999/xlink">
<g id="graph0" class="graph" transform="scale(1 1) rotate(0) translate(4 360)">
<title>objlib.h</title>
<polygon fill="white" stroke="none" points="-4,4 -4,-360 3511,-360 3511,4 -4,4"/>
<!-- Node1 -->
<g id="node1" class="node"><title>Node1</title>
<polygon fill="#bfbfbf" stroke="black" points="3367.5,-336.5 3367.5,-355.5 3414.5,-355.5 3414.5,-336.5 3367.5,-336.5"/>
<text text-anchor="middle" x="3391" y="-343.5" font-family="Helvetica,sans-Serif" font-size="10.00">objlib.h</text>
</g>
<!-- Node2 -->
<g id="node2" class="node"><title>Node2</title>
<g id="a_node2"><a xlink:href="jsondef_8h.html" target="_top" xlink:title="jsondef.h">
<polygon fill="white" stroke="black" points="2812,-280.5 2812,-299.5 2868,-299.5 2868,-280.5 2812,-280.5"/>
<text text-anchor="middle" x="2840" y="-287.5" font-family="Helvetica,sans-Serif" font-size="10.00">jsondef.h</text>
</a>
</g>
</g>
<!-- Node1&#45;&gt;Node2 -->
<g id="edge1" class="edge"><title>Node1&#45;&gt;Node2</title>
<path fill="none" stroke="midnightblue" d="M3357.12,-341.68C3256.51,-331.82 2960.73,-302.832 2868.08,-293.752"/>
<polygon fill="midnightblue" stroke="midnightblue" points="3357.03,-345.188 3367.32,-342.68 3357.71,-338.221 3357.03,-345.188"/>
</g>
<!-- Node46 -->
<g id="node46" class="node"><title>Node46</title>
<g id="a_node46"><a xlink:href="objlib_8cpp.html" target="_top" xlink:title="objlib.cpp">
<polygon fill="white" stroke="black" points="3170,-168.5 3170,-187.5 3228,-187.5 3228,-168.5 3170,-168.5"/>
<text text-anchor="middle" x="3199" y="-175.5" font-family="Helvetica,sans-Serif" font-size="10.00">objlib.cpp</text>
</a>
</g>
</g>
<!-- Node1&#45;&gt;Node46 -->
<g id="edge75" class="edge"><title>Node1&#45;&gt;Node46</title>
<path fill="none" stroke="midnightblue" d="M3393.83,-326.213C3396.67,-299.9 3397.49,-252.143 3372,-224 3352.88,-202.897 3272.29,-188.926 3228.17,-182.706"/>
<polygon fill="midnightblue" stroke="midnightblue" points="3390.33,-325.987 3392.52,-336.353 3397.28,-326.884 3390.33,-325.987"/>
</g>
<!-- Node50 -->
<g id="node50" class="node"><title>Node50</title>
<g id="a_node50"><a xlink:href="cubesat2obj_8cpp.html" target="_top" xlink:title="cubesat2obj.cpp">
<polygon fill="white" stroke="black" points="3419,-280.5 3419,-299.5 3507,-299.5 3507,-280.5 3419,-280.5"/>
<text text-anchor="middle" x="3463" y="-287.5" font-family="Helvetica,sans-Serif" font-size="10.00">cubesat2obj.cpp</text>
</a>
</g>
</g>
<!-- Node1&#45;&gt;Node50 -->
<g id="edge76" class="edge"><title>Node1&#45;&gt;Node50</title>
<path fill="none" stroke="midnightblue" d="M3410.87,-330.101C3423.82,-320.382 3440.3,-308.027 3451.22,-299.834"/>
<polygon fill="midnightblue" stroke="midnightblue" points="3408.47,-327.524 3402.57,-336.324 3412.67,-333.124 3408.47,-327.524"/>
</g>
<!-- Node3 -->
<g id="node3" class="node"><title>Node3</title>
<g id="a_node3"><a xlink:href="agent__calc_8cpp.html" target="_top" xlink:title="Demonstration calculator Agent. ">
<polygon fill="white" stroke="black" points="3348.5,-56.5 3348.5,-75.5 3431.5,-75.5 3431.5,-56.5 3348.5,-56.5"/>
<text text-anchor="middle" x="3390" y="-63.5" font-family="Helvetica,sans-Serif" font-size="10.00">agent_calc.cpp</text>
</a>
</g>
</g>
<!-- Node2&#45;&gt;Node3 -->
<g id="edge2" class="edge"><title>Node2&#45;&gt;Node3</title>
<path fill="none" stroke="midnightblue" d="M2878.43,-288.525C2994.71,-286.71 3336.95,-278.462 3372,-244 3419.35,-197.442 3399.86,-104.242 3392.41,-75.5833"/>
<polygon fill="midnightblue" stroke="midnightblue" points="2878.16,-285.028 2868.22,-288.676 2878.27,-292.027 2878.16,-285.028"/>
</g>
<!-- Node4 -->
<g id="node4" class="node"><title>Node4</title>
<g id="a_node4"><a xlink:href="agentclass_8h.html" target="_top" xlink:title="Agent Server and Client header file. ">
<polygon fill="white" stroke="red" points="1717,-112.5 1717,-131.5 1789,-131.5 1789,-112.5 1717,-112.5"/>
<text text-anchor="middle" x="1753" y="-119.5" font-family="Helvetica,sans-Serif" font-size="10.00">agentclass.h</text>
</a>
</g>
</g>
<!-- Node2&#45;&gt;Node4 -->
<g id="edge3" class="edge"><title>Node2&#45;&gt;Node4</title>
<path fill="none" stroke="midnightblue" d="M2801.84,-283.172C2632.97,-257.384 1954.08,-153.708 1789.21,-128.53"/>
<polygon fill="midnightblue" stroke="midnightblue" points="2801.35,-286.638 2811.76,-284.688 2802.4,-279.718 2801.35,-286.638"/>
</g>
<!-- Node35 -->
<g id="node35" class="node"><title>Node35</title>
<g id="a_node35"><a xlink:href="netperf__listen_8cpp.html" target="_top" xlink:title="netperf_listen.cpp">
<polygon fill="white" stroke="black" points="0,-56.5 0,-75.5 94,-75.5 94,-56.5 0,-56.5"/>
<text text-anchor="middle" x="47" y="-63.5" font-family="Helvetica,sans-Serif" font-size="10.00">netperf_listen.cpp</text>
</a>
</g>
</g>
<!-- Node2&#45;&gt;Node35 -->
<g id="edge72" class="edge"><title>Node2&#45;&gt;Node35</title>
<path fill="none" stroke="midnightblue" d="M2801.28,-288.597C2640.75,-286.738 2011.83,-277.59 1496,-244 1238.45,-227.229 1174.59,-215.843 918,-188 710.616,-165.496 658.579,-160.975 452,-132 322.24,-113.8 169.786,-88.1833 94.2953,-75.2137"/>
<polygon fill="midnightblue" stroke="midnightblue" points="2801.55,-292.1 2811.59,-288.714 2801.63,-285.101 2801.55,-292.1"/>
</g>
<!-- Node36 -->
<g id="node36" class="node"><title>Node36</title>
<g id="a_node36"><a xlink:href="netperf__send_8cpp.html" target="_top" xlink:title="netperf_send.cpp">
<polygon fill="white" stroke="black" points="112,-56.5 112,-75.5 204,-75.5 204,-56.5 112,-56.5"/>
<text text-anchor="middle" x="158" y="-63.5" font-family="Helvetica,sans-Serif" font-size="10.00">netperf_send.cpp</text>
</a>
</g>
</g>
<!-- Node2&#45;&gt;Node36 -->
<g id="edge73" class="edge"><title>Node2&#45;&gt;Node36</title>
<path fill="none" stroke="midnightblue" d="M2801.86,-288.002C2664.58,-284.275 2182.76,-270.034 1786,-244 1262.09,-209.623 1131.17,-195.56 610,-132 433.119,-110.428 389.159,-102.834 213,-76 210.13,-75.5629 207.178,-75.1046 204.202,-74.6362"/>
<polygon fill="midnightblue" stroke="midnightblue" points="2801.79,-291.501 2811.88,-288.272 2801.98,-284.504 2801.79,-291.501"/>
</g>
<!-- Node37 -->
<g id="node37" class="node"><title>Node37</title>
<g id="a_node37"><a xlink:href="udp__send_8cpp.html" target="_top" xlink:title="udp_send.cpp">
<polygon fill="white" stroke="black" points="222.5,-56.5 222.5,-75.5 299.5,-75.5 299.5,-56.5 222.5,-56.5"/>
<text text-anchor="middle" x="261" y="-63.5" font-family="Helvetica,sans-Serif" font-size="10.00">udp_send.cpp</text>
</a>
</g>
</g>
<!-- Node2&#45;&gt;Node37 -->
<g id="edge74" class="edge"><title>Node2&#45;&gt;Node37</title>
<path fill="none" stroke="midnightblue" d="M2801.78,-287.243C2569.08,-276.246 1319.26,-212.863 309,-76 305.975,-75.5902 302.852,-75.1177 299.718,-74.6083"/>
<polygon fill="midnightblue" stroke="midnightblue" points="2801.63,-290.74 2811.78,-287.713 2801.96,-283.748 2801.63,-290.74"/>
</g>
<!-- Node38 -->
<g id="node38" class="node"><title>Node38</title>
<g id="a_node38"><a xlink:href="devicedisk_8h.html" target="_top" xlink:title="devicedisk.h">
<polygon fill="white" stroke="red" points="2728.5,-112.5 2728.5,-131.5 2799.5,-131.5 2799.5,-112.5 2728.5,-112.5"/>
<text text-anchor="middle" x="2764" y="-119.5" font-family="Helvetica,sans-Serif" font-size="10.00">devicedisk.h</text>
</a>
</g>
</g>
<!-- Node2&#45;&gt;Node38 -->
<g id="edge39" class="edge"><title>Node2&#45;&gt;Node38</title>
<path fill="none" stroke="midnightblue" d="M2801.54,-287.613C2739.93,-284.494 2623.43,-274.601 2598,-244 2553.89,-190.931 2671.3,-148.957 2731.26,-131.625"/>
<polygon fill="midnightblue" stroke="midnightblue" points="2801.5,-291.115 2811.65,-288.089 2801.83,-284.123 2801.5,-291.115"/>
</g>
<!-- Node39 -->
<g id="node39" class="node"><title>Node39</title>
<g id="a_node39"><a xlink:href="ic9100__lib_8cpp.html" target="_top" xlink:title="ic9100_lib.cpp">
<polygon fill="white" stroke="black" points="2607.5,-224.5 2607.5,-243.5 2686.5,-243.5 2686.5,-224.5 2607.5,-224.5"/>
<text text-anchor="middle" x="2647" y="-231.5" font-family="Helvetica,sans-Serif" font-size="10.00">ic9100_lib.cpp</text>
</a>
</g>
</g>
<!-- Node2&#45;&gt;Node39 -->
<g id="edge42" class="edge"><title>Node2&#45;&gt;Node39</title>
<path fill="none" stroke="midnightblue" d="M2802.18,-278.418C2765.78,-268.233 2711.43,-253.026 2677.65,-243.576"/>
<polygon fill="midnightblue" stroke="midnightblue" points="2801.36,-281.824 2811.94,-281.148 2803.25,-275.083 2801.36,-281.824"/>
</g>
<!-- Node40 -->
<g id="node40" class="node"><title>Node40</title>
<g id="a_node40"><a xlink:href="usrp__lib_8cpp.html" target="_top" xlink:title="usrp_lib.cpp">
<polygon fill="white" stroke="black" points="2704.5,-224.5 2704.5,-243.5 2773.5,-243.5 2773.5,-224.5 2704.5,-224.5"/>
<text text-anchor="middle" x="2739" y="-231.5" font-family="Helvetica,sans-Serif" font-size="10.00">usrp_lib.cpp</text>
</a>
</g>
</g>
<!-- Node2&#45;&gt;Node40 -->
<g id="edge43" class="edge"><title>Node2&#45;&gt;Node40</title>
<path fill="none" stroke="midnightblue" d="M2814.92,-275.59C2796.24,-265.605 2771.3,-252.267 2755.19,-243.655"/>
<polygon fill="midnightblue" stroke="midnightblue" points="2813.3,-278.696 2823.77,-280.324 2816.6,-272.522 2813.3,-278.696"/>
</g>
<!-- Node41 -->
<g id="node41" class="node"><title>Node41</title>
<g id="a_node41"><a xlink:href="physicsclass_8h.html" target="_top" xlink:title="physicsclass.h">
<polygon fill="white" stroke="red" points="2763,-168.5 2763,-187.5 2845,-187.5 2845,-168.5 2763,-168.5"/>
<text text-anchor="middle" x="2804" y="-175.5" font-family="Helvetica,sans-Serif" font-size="10.00">physicsclass.h</text>
</a>
</g>
</g>
<!-- Node2&#45;&gt;Node41 -->
<g id="edge44" class="edge"><title>Node2&#45;&gt;Node41</title>
<path fill="none" stroke="midnightblue" d="M2834,-270.674C2826.13,-246.625 2812.64,-205.388 2806.81,-187.591"/>
<polygon fill="midnightblue" stroke="midnightblue" points="2830.74,-271.953 2837.18,-280.368 2837.39,-269.776 2830.74,-271.953"/>
</g>
<!-- Node42 -->
<g id="node42" class="node"><title>Node42</title>
<g id="a_node42"><a xlink:href="physicslib_8h.html" target="_top" xlink:title="Orbit library include file. ">
<polygon fill="white" stroke="red" points="3132,-112.5 3132,-131.5 3200,-131.5 3200,-112.5 3132,-112.5"/>
<text text-anchor="middle" x="3166" y="-119.5" font-family="Helvetica,sans-Serif" font-size="10.00">physicslib.h</text>
</a>
</g>
</g>
<!-- Node2&#45;&gt;Node42 -->
<g id="edge45" class="edge"><title>Node2&#45;&gt;Node42</title>
<path fill="none" stroke="midnightblue" d="M2878.3,-282.415C2916.27,-275.257 2975.73,-262.334 3025,-244 3043.26,-237.207 3045.63,-230.487 3064,-224 3138.05,-197.846 3187.45,-248.928 3237,-188 3255.45,-165.311 3215.5,-143.268 3188.37,-131.59"/>
<polygon fill="midnightblue" stroke="midnightblue" points="2877.39,-279.024 2868.19,-284.281 2878.66,-285.908 2877.39,-279.024"/>
</g>
<!-- Node43 -->
<g id="node43" class="node"><title>Node43</title>
<g id="a_node43"><a xlink:href="convertlib_8cpp.html" target="_top" xlink:title="Coordinate conversion library source file. ">
<polygon fill="white" stroke="black" points="2868.5,-224.5 2868.5,-243.5 2945.5,-243.5 2945.5,-224.5 2868.5,-224.5"/>
<text text-anchor="middle" x="2907" y="-231.5" font-family="Helvetica,sans-Serif" font-size="10.00">convertlib.cpp</text>
</a>
</g>
</g>
<!-- Node2&#45;&gt;Node43 -->
<g id="edge50" class="edge"><title>Node2&#45;&gt;Node43</title>
<path fill="none" stroke="midnightblue" d="M2858.83,-273.82C2870.84,-264.145 2885.97,-251.948 2896.04,-243.834"/>
<polygon fill="midnightblue" stroke="midnightblue" points="2856.35,-271.324 2850.76,-280.324 2860.75,-276.774 2856.35,-271.324"/>
</g>
<!-- Node44 -->
<g id="node44" class="node"><title>Node44</title>
<g id="a_node44"><a xlink:href="datalib_8h.html" target="_top" xlink:title="Data Management header file. ">
<polygon fill="white" stroke="red" points="2963.5,-224.5 2963.5,-243.5 3016.5,-243.5 3016.5,-224.5 2963.5,-224.5"/>
<text text-anchor="middle" x="2990" y="-231.5" font-family="Helvetica,sans-Serif" font-size="10.00">datalib.h</text>
</a>
</g>
</g>
<!-- Node2&#45;&gt;Node44 -->
<g id="edge51" class="edge"><title>Node2&#45;&gt;Node44</title>
<path fill="none" stroke="midnightblue" d="M2873.22,-277.039C2901.45,-266.879 2941.26,-252.546 2966.34,-243.516"/>
<polygon fill="midnightblue" stroke="midnightblue" points="2871.99,-273.763 2863.77,-280.444 2874.36,-280.349 2871.99,-273.763"/>
</g>
<!-- Node45 -->
<g id="node45" class="node"><title>Node45</title>
<g id="a_node45"><a xlink:href="jsonlib_8h.html" target="_top" xlink:title="JSON Support definitions. ">
<polygon fill="white" stroke="red" points="2908.5,-168.5 2908.5,-187.5 2961.5,-187.5 2961.5,-168.5 2908.5,-168.5"/>
<text text-anchor="middle" x="2935" y="-175.5" font-family="Helvetica,sans-Serif" font-size="10.00">jsonlib.h</text>
</a>
</g>
</g>
<!-- Node2&#45;&gt;Node45 -->
<g id="edge68" class="edge"><title>Node2&#45;&gt;Node45</title>
<path fill="none" stroke="midnightblue" d="M2841.78,-270.126C2843.93,-256.164 2848.64,-237.335 2859,-224 2872.36,-206.803 2894.28,-194.838 2911.15,-187.592"/>
<polygon fill="midnightblue" stroke="midnightblue" points="2838.31,-269.729 2840.56,-280.083 2845.25,-270.586 2838.31,-269.729"/>
</g>
<!-- Node47 -->
<g id="node47" class="node"><title>Node47</title>
<g id="a_node47"><a xlink:href="ax25__recv_8cpp.html" target="_top" xlink:title="ax25_recv.cpp">
<polygon fill="white" stroke="black" points="3073,-224.5 3073,-243.5 3153,-243.5 3153,-224.5 3073,-224.5"/>
<text text-anchor="middle" x="3113" y="-231.5" font-family="Helvetica,sans-Serif" font-size="10.00">ax25_recv.cpp</text>
</a>
</g>
</g>
<!-- Node2&#45;&gt;Node47 -->
<g id="edge69" class="edge"><title>Node2&#45;&gt;Node47</title>
<path fill="none" stroke="midnightblue" d="M2878.2,-281.443C2929.51,-271.295 3020.27,-253.343 3072.65,-242.982"/>
<polygon fill="midnightblue" stroke="midnightblue" points="2877.32,-278.05 2868.19,-283.424 2878.68,-284.917 2877.32,-278.05"/>
</g>
<!-- Node48 -->
<g id="node48" class="node"><title>Node48</title>
<g id="a_node48"><a xlink:href="kiss__recv_8cpp.html" target="_top" xlink:title="kiss_recv.cpp">
<polygon fill="white" stroke="black" points="3171.5,-224.5 3171.5,-243.5 3248.5,-243.5 3248.5,-224.5 3171.5,-224.5"/>
<text text-anchor="middle" x="3210" y="-231.5" font-family="Helvetica,sans-Serif" font-size="10.00">kiss_recv.cpp</text>
</a>
</g>
</g>
<!-- Node2&#45;&gt;Node48 -->
<g id="edge70" class="edge"><title>Node2&#45;&gt;Node48</title>
<path fill="none" stroke="midnightblue" d="M2878.27,-284.237C2938.68,-276.586 3059.79,-260.715 3162,-244 3165.01,-243.507 3168.13,-242.975 3171.25,-242.425"/>
<polygon fill="midnightblue" stroke="midnightblue" points="2877.55,-280.8 2868.06,-285.524 2878.42,-287.745 2877.55,-280.8"/>
</g>
<!-- Node49 -->
<g id="node49" class="node"><title>Node49</title>
<g id="a_node49"><a xlink:href="devstruc__size_8cpp.html" target="_top" xlink:title="devstruc_size.cpp">
<polygon fill="white" stroke="black" points="3267,-224.5 3267,-243.5 3363,-243.5 3363,-224.5 3267,-224.5"/>
<text text-anchor="middle" x="3315" y="-231.5" font-family="Helvetica,sans-Serif" font-size="10.00">devstruc_size.cpp</text>
</a>
</g>
</g>
<!-- Node2&#45;&gt;Node49 -->
<g id="edge71" class="edge"><title>Node2&#45;&gt;Node49</title>
<path fill="none" stroke="midnightblue" d="M2878.55,-285.443C2952.22,-278.514 3118,-262.274 3257,-244 3260.23,-243.575 3263.56,-243.116 3266.92,-242.637"/>
<polygon fill="midnightblue" stroke="midnightblue" points="2878,-281.98 2868.37,-286.397 2878.65,-288.949 2878,-281.98"/>
</g>
<!-- Node4&#45;&gt;Node3 -->
<g id="edge11" class="edge"><title>Node4&#45;&gt;Node3</title>
<path fill="none" stroke="midnightblue" d="M1799.25,-120.602C2026.77,-118.504 3028.78,-107.602 3339,-76 3342.04,-75.6902 3345.17,-75.3039 3348.32,-74.867"/>
<polygon fill="midnightblue" stroke="midnightblue" points="1798.97,-117.104 1789,-120.695 1799.03,-124.104 1798.97,-117.104"/>
</g>
<!-- Node5 -->
<g id="node5" class="node"><title>Node5</title>
<g id="a_node5"><a xlink:href="agent__001_8cpp.html" target="_top" xlink:title="agent_001.cpp">
<polygon fill="white" stroke="black" points="1664,-56.5 1664,-75.5 1744,-75.5 1744,-56.5 1664,-56.5"/>
<text text-anchor="middle" x="1704" y="-63.5" font-family="Helvetica,sans-Serif" font-size="10.00">agent_001.cpp</text>
</a>
</g>
</g>
<!-- Node4&#45;&gt;Node5 -->
<g id="edge4" class="edge"><title>Node4&#45;&gt;Node5</title>
<path fill="none" stroke="midnightblue" d="M1737.97,-104.431C1729.38,-94.9673 1718.96,-83.4827 1711.94,-75.7511"/>
<polygon fill="midnightblue" stroke="midnightblue" points="1735.6,-107.029 1744.91,-112.083 1740.78,-102.325 1735.6,-107.029"/>
</g>
<!-- Node6 -->
<g id="node6" class="node"><title>Node6</title>
<g id="a_node6"><a xlink:href="agent__002_8cpp.html" target="_top" xlink:title="agent_002.cpp">
<polygon fill="white" stroke="black" points="1762,-56.5 1762,-75.5 1842,-75.5 1842,-56.5 1762,-56.5"/>
<text text-anchor="middle" x="1802" y="-63.5" font-family="Helvetica,sans-Serif" font-size="10.00">agent_002.cpp</text>
</a>
</g>
</g>
<!-- Node4&#45;&gt;Node6 -->
<g id="edge5" class="edge"><title>Node4&#45;&gt;Node6</title>
<path fill="none" stroke="midnightblue" d="M1768.03,-104.431C1776.62,-94.9673 1787.04,-83.4827 1794.06,-75.7511"/>
<polygon fill="midnightblue" stroke="midnightblue" points="1765.22,-102.325 1761.09,-112.083 1770.4,-107.029 1765.22,-102.325"/>
</g>
<!-- Node7 -->
<g id="node7" class="node"><title>Node7</title>
<g id="a_node7"><a xlink:href="agent__004_8cpp.html" target="_top" xlink:title="agent_004.cpp">
<polygon fill="white" stroke="black" points="1860,-56.5 1860,-75.5 1940,-75.5 1940,-56.5 1860,-56.5"/>
<text text-anchor="middle" x="1900" y="-63.5" font-family="Helvetica,sans-Serif" font-size="10.00">agent_004.cpp</text>
</a>
</g>
</g>
<!-- Node4&#45;&gt;Node7 -->
<g id="edge6" class="edge"><title>Node4&#45;&gt;Node7</title>
<path fill="none" stroke="midnightblue" d="M1785.92,-108.906C1813.56,-98.7536 1852.34,-84.5063 1876.82,-75.5164"/>
<polygon fill="midnightblue" stroke="midnightblue" points="1784.47,-105.71 1776.29,-112.444 1786.89,-112.281 1784.47,-105.71"/>
</g>
<!-- Node8 -->
<g id="node8" class="node"><title>Node8</title>
<g id="a_node8"><a xlink:href="agent__005_8cpp.html" target="_top" xlink:title="agent_005.cpp">
<polygon fill="white" stroke="black" points="1958,-56.5 1958,-75.5 2038,-75.5 2038,-56.5 1958,-56.5"/>
<text text-anchor="middle" x="1998" y="-63.5" font-family="Helvetica,sans-Serif" font-size="10.00">agent_005.cpp</text>
</a>
</g>
</g>
<!-- Node4&#45;&gt;Node8 -->
<g id="edge7" class="edge"><title>Node4&#45;&gt;Node8</title>
<path fill="none" stroke="midnightblue" d="M1798.92,-110.879C1845.18,-100.683 1915.76,-85.1268 1959.27,-75.536"/>
<polygon fill="midnightblue" stroke="midnightblue" points="1798.16,-107.462 1789.15,-113.032 1799.67,-114.298 1798.16,-107.462"/>
</g>
<!-- Node9 -->
<g id="node9" class="node"><title>Node9</title>
<g id="a_node9"><a xlink:href="agent__006_8cpp.html" target="_top" xlink:title="agent_006.cpp">
<polygon fill="white" stroke="black" points="2056,-56.5 2056,-75.5 2136,-75.5 2136,-56.5 2056,-56.5"/>
<text text-anchor="middle" x="2096" y="-63.5" font-family="Helvetica,sans-Serif" font-size="10.00">agent_006.cpp</text>
</a>
</g>
</g>
<!-- Node4&#45;&gt;Node9 -->
<g id="edge8" class="edge"><title>Node4&#45;&gt;Node9</title>
<path fill="none" stroke="midnightblue" d="M1799.21,-114.361C1857.18,-105.934 1959.58,-90.7161 2047,-76 2049.9,-75.5119 2052.89,-74.9946 2055.91,-74.4646"/>
<polygon fill="midnightblue" stroke="midnightblue" points="1798.66,-110.905 1789.26,-115.804 1799.66,-117.832 1798.66,-110.905"/>
</g>
<!-- Node10 -->
<g id="node10" class="node"><title>Node10</title>
<g id="a_node10"><a xlink:href="agent__008_8cpp.html" target="_top" xlink:title="agent_008.cpp">
<polygon fill="white" stroke="black" points="2154,-56.5 2154,-75.5 2234,-75.5 2234,-56.5 2154,-56.5"/>
<text text-anchor="middle" x="2194" y="-63.5" font-family="Helvetica,sans-Serif" font-size="10.00">agent_008.cpp</text>
</a>
</g>
</g>
<!-- Node4&#45;&gt;Node10 -->
<g id="edge9" class="edge"><title>Node4&#45;&gt;Node10</title>
<path fill="none" stroke="midnightblue" d="M1799.34,-116.701C1872.83,-109.653 2020.53,-94.5543 2145,-76 2147.91,-75.5664 2150.91,-75.0893 2153.93,-74.5878"/>
<polygon fill="midnightblue" stroke="midnightblue" points="1798.67,-113.248 1789.05,-117.681 1799.33,-120.217 1798.67,-113.248"/>
</g>
<!-- Node11 -->
<g id="node11" class="node"><title>Node11</title>
<g id="a_node11"><a xlink:href="agent__add__soh_8cpp.html" target="_top" xlink:title="agent_add_soh.cpp">
<polygon fill="white" stroke="black" points="2252.5,-56.5 2252.5,-75.5 2353.5,-75.5 2353.5,-56.5 2252.5,-56.5"/>
<text text-anchor="middle" x="2303" y="-63.5" font-family="Helvetica,sans-Serif" font-size="10.00">agent_add_soh.cpp</text>
</a>
</g>
</g>
<!-- Node4&#45;&gt;Node11 -->
<g id="edge10" class="edge"><title>Node4&#45;&gt;Node11</title>
<path fill="none" stroke="midnightblue" d="M1799.1,-117.652C1886.06,-111.141 2080.21,-95.6681 2243,-76 2246.03,-75.6336 2249.15,-75.2347 2252.29,-74.8154"/>
<polygon fill="midnightblue" stroke="midnightblue" points="1798.75,-114.169 1789.04,-118.402 1799.27,-121.149 1798.75,-114.169"/>
</g>
<!-- Node12 -->
<g id="node12" class="node"><title>Node12</title>
<g id="a_node12"><a xlink:href="agent__cpu__device__test_8cpp.html" target="_top" xlink:title="agent_cpu_device_test.cpp">
<polygon fill="white" stroke="black" points="2372,-56.5 2372,-75.5 2508,-75.5 2508,-56.5 2372,-56.5"/>
<text text-anchor="middle" x="2440" y="-63.5" font-family="Helvetica,sans-Serif" font-size="10.00">agent_cpu_device_test.cpp</text>
</a>
</g>
</g>
<!-- Node4&#45;&gt;Node12 -->
<g id="edge12" class="edge"><title>Node4&#45;&gt;Node12</title>
<path fill="none" stroke="midnightblue" d="M1799.33,-118.229C1901.19,-111.994 2152.26,-95.8408 2362,-76 2365.26,-75.6919 2368.59,-75.3625 2371.95,-75.0184"/>
<polygon fill="midnightblue" stroke="midnightblue" points="1798.85,-114.752 1789.08,-118.854 1799.27,-121.739 1798.85,-114.752"/>
</g>
<!-- Node13 -->
<g id="node13" class="node"><title>Node13</title>
<g id="a_node13"><a xlink:href="agent__scoot_8cpp.html" target="_top" xlink:title="agent_scoot.cpp">
<polygon fill="white" stroke="black" points="2526.5,-56.5 2526.5,-75.5 2615.5,-75.5 2615.5,-56.5 2526.5,-56.5"/>
<text text-anchor="middle" x="2571" y="-63.5" font-family="Helvetica,sans-Serif" font-size="10.00">agent_scoot.cpp</text>
</a>
</g>
</g>
<!-- Node4&#45;&gt;Node13 -->
<g id="edge13" class="edge"><title>Node4&#45;&gt;Node13</title>
<path fill="none" stroke="midnightblue" d="M1799.55,-119.981C1919.04,-116.991 2246.24,-106.449 2517,-76 2520.02,-75.6601 2523.13,-75.2646 2526.26,-74.8326"/>
<polygon fill="midnightblue" stroke="midnightblue" points="1799.22,-116.488 1789.3,-120.231 1799.39,-123.486 1799.22,-116.488"/>
</g>
<!-- Node14 -->
<g id="node14" class="node"><title>Node14</title>
<g id="a_node14"><a xlink:href="queen_8cpp.html" target="_top" xlink:title="queen.cpp">
<polygon fill="white" stroke="black" points="2633,-56.5 2633,-75.5 2695,-75.5 2695,-56.5 2633,-56.5"/>
<text text-anchor="middle" x="2664" y="-63.5" font-family="Helvetica,sans-Serif" font-size="10.00">queen.cpp</text>
</a>
</g>
</g>
<!-- Node4&#45;&gt;Node14 -->
<g id="edge14" class="edge"><title>Node4&#45;&gt;Node14</title>
<path fill="none" stroke="midnightblue" d="M1799.34,-121.363C1929.8,-121.791 2311.08,-118.97 2624,-76 2626.82,-75.6127 2629.74,-75.1266 2632.65,-74.5822"/>
<polygon fill="midnightblue" stroke="midnightblue" points="1799.31,-117.862 1789.3,-121.321 1799.28,-124.862 1799.31,-117.862"/>
</g>
<!-- Node15 -->
<g id="node15" class="node"><title>Node15</title>
<g id="a_node15"><a xlink:href="worker__01_8cpp.html" target="_top" xlink:title="worker_01.cpp">
<polygon fill="white" stroke="black" points="318,-56.5 318,-75.5 398,-75.5 398,-56.5 318,-56.5"/>
<text text-anchor="middle" x="358" y="-63.5" font-family="Helvetica,sans-Serif" font-size="10.00">worker_01.cpp</text>
</a>
</g>
</g>
<!-- Node4&#45;&gt;Node15 -->
<g id="edge15" class="edge"><title>Node4&#45;&gt;Node15</title>
<path fill="none" stroke="midnightblue" d="M1706.68,-119.86C1485.05,-114.349 538.219,-90.1652 407,-76 404.076,-75.6844 401.065,-75.2938 398.041,-74.8539"/>
<polygon fill="midnightblue" stroke="midnightblue" points="1706.59,-123.359 1716.68,-120.108 1706.77,-116.361 1706.59,-123.359"/>
</g>
<!-- Node16 -->
<g id="node16" class="node"><title>Node16</title>
<g id="a_node16"><a xlink:href="worker__02_8cpp.html" target="_top" xlink:title="worker_02.cpp">
<polygon fill="white" stroke="black" points="416,-56.5 416,-75.5 496,-75.5 496,-56.5 416,-56.5"/>
<text text-anchor="middle" x="456" y="-63.5" font-family="Helvetica,sans-Serif" font-size="10.00">worker_02.cpp</text>
</a>
</g>
</g>
<!-- Node4&#45;&gt;Node16 -->
<g id="edge16" class="edge"><title>Node4&#45;&gt;Node16</title>
<path fill="none" stroke="midnightblue" d="M1706.69,-119.731C1495.19,-113.878 626.008,-89.2234 505,-76 502.077,-75.6805 499.066,-75.2872 496.041,-74.8452"/>
<polygon fill="midnightblue" stroke="midnightblue" points="1706.74,-123.233 1716.84,-120.011 1706.94,-116.236 1706.74,-123.233"/>
</g>
<!-- Node17 -->
<g id="node17" class="node"><title>Node17</title>
<g id="a_node17"><a xlink:href="worker__03_8cpp.html" target="_top" xlink:title="worker_03.cpp">
<polygon fill="white" stroke="black" points="514,-56.5 514,-75.5 594,-75.5 594,-56.5 514,-56.5"/>
<text text-anchor="middle" x="554" y="-63.5" font-family="Helvetica,sans-Serif" font-size="10.00">worker_03.cpp</text>
</a>
</g>
</g>
<!-- Node4&#45;&gt;Node17 -->
<g id="edge17" class="edge"><title>Node4&#45;&gt;Node17</title>
<path fill="none" stroke="midnightblue" d="M1706.87,-120.074C1520.49,-116.197 822.512,-100.328 603,-76 600.077,-75.6761 597.066,-75.2794 594.043,-74.8351"/>
<polygon fill="midnightblue" stroke="midnightblue" points="1706.82,-123.574 1716.89,-120.281 1706.96,-116.575 1706.82,-123.574"/>
</g>
<!-- Node18 -->
<g id="node18" class="node"><title>Node18</title>
<g id="a_node18"><a xlink:href="agent__receive_8cpp.html" target="_top" xlink:title="agent_receive.cpp">
<polygon fill="white" stroke="black" points="612,-56.5 612,-75.5 708,-75.5 708,-56.5 612,-56.5"/>
<text text-anchor="middle" x="660" y="-63.5" font-family="Helvetica,sans-Serif" font-size="10.00">agent_receive.cpp</text>
</a>
</g>
</g>
<!-- Node4&#45;&gt;Node18 -->
<g id="edge18" class="edge"><title>Node4&#45;&gt;Node18</title>
<path fill="none" stroke="midnightblue" d="M1706.69,-119.687C1532.02,-114.626 913.172,-95.6839 717,-76 714.109,-75.7099 711.142,-75.3701 708.152,-74.9955"/>
<polygon fill="midnightblue" stroke="midnightblue" points="1706.73,-123.189 1716.83,-119.98 1706.93,-116.192 1706.73,-123.189"/>
</g>
<!-- Node19 -->
<g id="node19" class="node"><title>Node19</title>
<g id="a_node19"><a xlink:href="agent__send_8cpp.html" target="_top" xlink:title="agent_send.cpp">
<polygon fill="white" stroke="black" points="726,-56.5 726,-75.5 812,-75.5 812,-56.5 726,-56.5"/>
<text text-anchor="middle" x="769" y="-63.5" font-family="Helvetica,sans-Serif" font-size="10.00">agent_send.cpp</text>
</a>
</g>
</g>
<!-- Node4&#45;&gt;Node19 -->
<g id="edge19" class="edge"><title>Node4&#45;&gt;Node19</title>
<path fill="none" stroke="midnightblue" d="M1706.82,-120.779C1570.74,-119.696 1159.58,-113.33 821,-76 818.086,-75.6787 815.088,-75.2971 812.072,-74.8753"/>
<polygon fill="midnightblue" stroke="midnightblue" points="1706.86,-124.279 1716.89,-120.853 1706.92,-117.279 1706.86,-124.279"/>
</g>
<!-- Node20 -->
<g id="node20" class="node"><title>Node20</title>
<g id="a_node20"><a xlink:href="daughter__01_8cpp.html" target="_top" xlink:title="daughter_01.cpp">
<polygon fill="white" stroke="black" points="830.5,-56.5 830.5,-75.5 919.5,-75.5 919.5,-56.5 830.5,-56.5"/>
<text text-anchor="middle" x="875" y="-63.5" font-family="Helvetica,sans-Serif" font-size="10.00">daughter_01.cpp</text>
</a>
</g>
</g>
<!-- Node4&#45;&gt;Node20 -->
<g id="edge20" class="edge"><title>Node4&#45;&gt;Node20</title>
<path fill="none" stroke="midnightblue" d="M1706.65,-120.317C1580.97,-118.068 1223.34,-109.022 928,-76 925.31,-75.6992 922.55,-75.3511 919.769,-74.9703"/>
<polygon fill="midnightblue" stroke="midnightblue" points="1706.63,-123.817 1716.69,-120.491 1706.75,-116.818 1706.63,-123.817"/>
</g>
<!-- Node21 -->
<g id="node21" class="node"><title>Node21</title>
<g id="a_node21"><a xlink:href="daughter__02_8cpp.html" target="_top" xlink:title="daughter_02.cpp">
<polygon fill="white" stroke="black" points="937.5,-56.5 937.5,-75.5 1026.5,-75.5 1026.5,-56.5 937.5,-56.5"/>
<text text-anchor="middle" x="982" y="-63.5" font-family="Helvetica,sans-Serif" font-size="10.00">daughter_02.cpp</text>
</a>
</g>
</g>
<!-- Node4&#45;&gt;Node21 -->
<g id="edge21" class="edge"><title>Node4&#45;&gt;Node21</title>
<path fill="none" stroke="midnightblue" d="M1706.48,-119.786C1591.96,-116.428 1287.35,-105.251 1035,-76 1032.31,-75.6884 1029.55,-75.3318 1026.77,-74.9446"/>
<polygon fill="midnightblue" stroke="midnightblue" points="1706.55,-123.289 1716.64,-120.078 1706.75,-116.292 1706.55,-123.289"/>
</g>
<!-- Node22 -->
<g id="node22" class="node"><title>Node22</title>
<g id="a_node22"><a xlink:href="daughter__03_8cpp.html" target="_top" xlink:title="daughter_03.cpp">
<polygon fill="white" stroke="black" points="1044.5,-56.5 1044.5,-75.5 1133.5,-75.5 1133.5,-56.5 1044.5,-56.5"/>
<text text-anchor="middle" x="1089" y="-63.5" font-family="Helvetica,sans-Serif" font-size="10.00">daughter_03.cpp</text>
</a>
</g>
</g>
<!-- Node4&#45;&gt;Node22 -->
<g id="edge22" class="edge"><title>Node4&#45;&gt;Node22</title>
<path fill="none" stroke="midnightblue" d="M1706.43,-119.077C1604.06,-114.519 1351.82,-101.484 1142,-76 1139.31,-75.6737 1136.55,-75.3058 1133.78,-74.9099"/>
<polygon fill="midnightblue" stroke="midnightblue" points="1706.58,-122.587 1716.73,-119.529 1706.89,-115.594 1706.58,-122.587"/>
</g>
<!-- Node23 -->
<g id="node23" class="node"><title>Node23</title>
<g id="a_node23"><a xlink:href="daughter__04_8cpp.html" target="_top" xlink:title="daughter_04.cpp">
<polygon fill="white" stroke="black" points="1151.5,-56.5 1151.5,-75.5 1240.5,-75.5 1240.5,-56.5 1151.5,-56.5"/>
<text text-anchor="middle" x="1196" y="-63.5" font-family="Helvetica,sans-Serif" font-size="10.00">daughter_04.cpp</text>
</a>
</g>
</g>
<!-- Node4&#45;&gt;Node23 -->
<g id="edge23" class="edge"><title>Node4&#45;&gt;Node23</title>
<path fill="none" stroke="midnightblue" d="M1706.81,-118.104C1617.94,-112.261 1417.03,-97.7331 1249,-76 1246.32,-75.6528 1243.56,-75.2688 1240.78,-74.8607"/>
<polygon fill="midnightblue" stroke="midnightblue" points="1706.63,-121.6 1716.84,-118.758 1707.09,-114.615 1706.63,-121.6"/>
</g>
<!-- Node24 -->
<g id="node24" class="node"><title>Node24</title>
<g id="a_node24"><a xlink:href="mothership_8cpp.html" target="_top" xlink:title="mothership.cpp">
<polygon fill="white" stroke="black" points="1258.5,-56.5 1258.5,-75.5 1341.5,-75.5 1341.5,-56.5 1258.5,-56.5"/>
<text text-anchor="middle" x="1300" y="-63.5" font-family="Helvetica,sans-Serif" font-size="10.00">mothership.cpp</text>
</a>
</g>
</g>
<!-- Node4&#45;&gt;Node24 -->
<g id="edge24" class="edge"><title>Node4&#45;&gt;Node24</title>
<path fill="none" stroke="midnightblue" d="M1706.7,-116.846C1631.63,-109.882 1478.75,-94.7538 1350,-76 1347.29,-75.6059 1344.51,-75.1752 1341.71,-74.7227"/>
<polygon fill="midnightblue" stroke="midnightblue" points="1706.49,-120.341 1716.77,-117.774 1707.13,-113.371 1706.49,-120.341"/>
</g>
<!-- Node25 -->
<g id="node25" class="node"><title>Node25</title>
<g id="a_node25"><a xlink:href="propagator__simple_8cpp.html" target="_top" xlink:title="propagator_simple.cpp">
<polygon fill="white" stroke="black" points="3215.5,-56.5 3215.5,-75.5 3330.5,-75.5 3330.5,-56.5 3215.5,-56.5"/>
<text text-anchor="middle" x="3273" y="-63.5" font-family="Helvetica,sans-Serif" font-size="10.00">propagator_simple.cpp</text>
</a>
</g>
</g>
<!-- Node4&#45;&gt;Node25 -->
<g id="edge25" class="edge"><title>Node4&#45;&gt;Node25</title>
<path fill="none" stroke="midnightblue" d="M1799.21,-121.291C1979.59,-122.061 2653.59,-121.536 3206,-76 3209.04,-75.7493 3212.16,-75.4567 3215.3,-75.1333"/>
<polygon fill="midnightblue" stroke="midnightblue" points="1799.04,-117.79 1789.02,-121.243 1799.01,-124.79 1799.04,-117.79"/>
</g>
<!-- Node26 -->
<g id="node26" class="node"><title>Node26</title>
<g id="a_node26"><a xlink:href="agentclass_8cpp.html" target="_top" xlink:title="Agent support functions. ">
<polygon fill="white" stroke="black" points="1359.5,-56.5 1359.5,-75.5 1442.5,-75.5 1442.5,-56.5 1359.5,-56.5"/>
<text text-anchor="middle" x="1401" y="-63.5" font-family="Helvetica,sans-Serif" font-size="10.00">agentclass.cpp</text>
</a>
</g>
</g>
<!-- Node4&#45;&gt;Node26 -->
<g id="edge26" class="edge"><title>Node4&#45;&gt;Node26</title>
<path fill="none" stroke="midnightblue" d="M1706.51,-114.517C1647.15,-106.136 1541.3,-90.8511 1451,-76 1448.3,-75.5563 1445.52,-75.088 1442.73,-74.6077"/>
<polygon fill="midnightblue" stroke="midnightblue" points="1706.29,-118.021 1716.68,-115.95 1707.27,-111.089 1706.29,-118.021"/>
</g>
<!-- Node27 -->
<g id="node27" class="node"><title>Node27</title>
<g id="a_node27"><a xlink:href="command__queue_8h.html" target="_top" xlink:title="Command Queue Class. ">
<polygon fill="white" stroke="red" points="2926.5,-56.5 2926.5,-75.5 3025.5,-75.5 3025.5,-56.5 2926.5,-56.5"/>
<text text-anchor="middle" x="2976" y="-63.5" font-family="Helvetica,sans-Serif" font-size="10.00">command_queue.h</text>
</a>
</g>
</g>
<!-- Node4&#45;&gt;Node27 -->
<g id="edge27" class="edge"><title>Node4&#45;&gt;Node27</title>
<path fill="none" stroke="midnightblue" d="M1799.57,-121.081C1957.06,-120.954 2484.04,-117.259 2917,-76 2920.09,-75.7051 2923.27,-75.3557 2926.48,-74.9687"/>
<polygon fill="midnightblue" stroke="midnightblue" points="1799.3,-117.581 1789.31,-121.085 1799.31,-124.581 1799.3,-117.581"/>
</g>
<!-- Node28 -->
<g id="node28" class="node"><title>Node28</title>
<g id="a_node28"><a xlink:href="scheduler_8h.html" target="_top" xlink:title="Scheduler Class. ">
<polygon fill="white" stroke="red" points="1460.5,-56.5 1460.5,-75.5 1527.5,-75.5 1527.5,-56.5 1460.5,-56.5"/>
<text text-anchor="middle" x="1494" y="-63.5" font-family="Helvetica,sans-Serif" font-size="10.00">scheduler.h</text>
</a>
</g>
</g>
<!-- Node4&#45;&gt;Node28 -->
<g id="edge28" class="edge"><title>Node4&#45;&gt;Node28</title>
<path fill="none" stroke="midnightblue" d="M1707.13,-111.436C1655.69,-100.711 1573.48,-83.5712 1527.65,-74.0163"/>
<polygon fill="midnightblue" stroke="midnightblue" points="1706.48,-114.877 1716.99,-113.492 1707.91,-108.024 1706.48,-114.877"/>
</g>
<!-- Node29 -->
<g id="node29" class="node"><title>Node29</title>
<g id="a_node29"><a xlink:href="acq__a35_8cpp.html" target="_top" xlink:title="acq_a35.cpp">
<polygon fill="white" stroke="black" points="1549,-0.5 1549,-19.5 1621,-19.5 1621,-0.5 1549,-0.5"/>
<text text-anchor="middle" x="1585" y="-7.5" font-family="Helvetica,sans-Serif" font-size="10.00">acq_a35.cpp</text>
</a>
</g>
</g>
<!-- Node4&#45;&gt;Node29 -->
<g id="edge29" class="edge"><title>Node4&#45;&gt;Node29</title>
<path fill="none" stroke="midnightblue" d="M1706.75,-115.729C1659.57,-109.286 1591.06,-96.619 1575,-76 1562.09,-59.4242 1572.91,-33.097 1580.01,-19.5991"/>
<polygon fill="midnightblue" stroke="midnightblue" points="1706.39,-119.212 1716.76,-117.047 1707.31,-112.271 1706.39,-119.212"/>
</g>
<!-- Node30 -->
<g id="node30" class="node"><title>Node30</title>
<g id="a_node30"><a xlink:href="acq__a35_8h.html" target="_top" xlink:title="acq_a35.h">
<polygon fill="white" stroke="black" points="1584,-56.5 1584,-75.5 1646,-75.5 1646,-56.5 1584,-56.5"/>
<text text-anchor="middle" x="1615" y="-63.5" font-family="Helvetica,sans-Serif" font-size="10.00">acq_a35.h</text>
</a>
</g>
</g>
<!-- Node4&#45;&gt;Node30 -->
<g id="edge30" class="edge"><title>Node4&#45;&gt;Node30</title>
<path fill="none" stroke="midnightblue" d="M1721.75,-108.772C1695.83,-98.6287 1659.64,-84.4669 1636.76,-75.5164"/>
<polygon fill="midnightblue" stroke="midnightblue" points="1720.55,-112.059 1731.13,-112.444 1723.1,-105.54 1720.55,-112.059"/>
</g>
<!-- Node31 -->
<g id="node31" class="node"><title>Node31</title>
<g id="a_node31"><a xlink:href="agent-2-0_8cpp.html" target="_top" xlink:title="agent&#45;2&#45;0.cpp">
<polygon fill="white" stroke="black" points="3121,-56.5 3121,-75.5 3197,-75.5 3197,-56.5 3121,-56.5"/>
<text text-anchor="middle" x="3159" y="-63.5" font-family="Helvetica,sans-Serif" font-size="10.00">agent&#45;2&#45;0.cpp</text>
</a>
</g>
</g>
<!-- Node4&#45;&gt;Node31 -->
<g id="edge32" class="edge"><title>Node4&#45;&gt;Node31</title>
<path fill="none" stroke="midnightblue" d="M1799.44,-120.411C2006.69,-117.638 2848.54,-104.785 3111,-76 3114.2,-75.6488 3117.51,-75.2035 3120.83,-74.6998"/>
<polygon fill="midnightblue" stroke="midnightblue" points="1799.16,-116.915 1789.21,-120.547 1799.25,-123.914 1799.16,-116.915"/>
</g>
<!-- Node32 -->
<g id="node32" class="node"><title>Node32</title>
<g id="a_node32"><a xlink:href="agent_8cpp.html" target="_top" xlink:title="Agent control program source. ">
<polygon fill="white" stroke="black" points="3043.5,-56.5 3043.5,-75.5 3102.5,-75.5 3102.5,-56.5 3043.5,-56.5"/>
<text text-anchor="middle" x="3073" y="-63.5" font-family="Helvetica,sans-Serif" font-size="10.00">agent.cpp</text>
</a>
</g>
</g>
<!-- Node4&#45;&gt;Node32 -->
<g id="edge33" class="edge"><title>Node4&#45;&gt;Node32</title>
<path fill="none" stroke="midnightblue" d="M1799.41,-120.562C1999.35,-118.489 2788.12,-108.384 3034,-76 3037.03,-75.6007 3040.17,-75.0729 3043.3,-74.4724"/>
<polygon fill="midnightblue" stroke="midnightblue" points="1799.21,-117.063 1789.25,-120.665 1799.29,-124.063 1799.21,-117.063"/>
</g>
<!-- Node33 -->
<g id="node33" class="node"><title>Node33</title>
<g id="a_node33"><a xlink:href="agent__cpu-2-0_8cpp.html" target="_top" xlink:title="agent_cpu&#45;2&#45;0.cpp">
<polygon fill="white" stroke="black" points="2712.5,-56.5 2712.5,-75.5 2809.5,-75.5 2809.5,-56.5 2712.5,-56.5"/>
<text text-anchor="middle" x="2761" y="-63.5" font-family="Helvetica,sans-Serif" font-size="10.00">agent_cpu&#45;2&#45;0.cpp</text>
</a>
</g>
</g>
<!-- Node4&#45;&gt;Node33 -->
<g id="edge34" class="edge"><title>Node4&#45;&gt;Node33</title>
<path fill="none" stroke="midnightblue" d="M1799.61,-120.597C1937.91,-119.013 2357.85,-111.41 2704,-76 2706.69,-75.7247 2709.45,-75.4074 2712.23,-75.06"/>
<polygon fill="midnightblue" stroke="midnightblue" points="1799.35,-117.099 1789.38,-120.709 1799.42,-124.099 1799.35,-117.099"/>
</g>
<!-- Node34 -->
<g id="node34" class="node"><title>Node34</title>
<g id="a_node34"><a xlink:href="agent__cpu_8cpp.html" target="_top" xlink:title="agent_cpu.cpp">
<polygon fill="white" stroke="black" points="2828,-56.5 2828,-75.5 2908,-75.5 2908,-56.5 2828,-56.5"/>
<text text-anchor="middle" x="2868" y="-63.5" font-family="Helvetica,sans-Serif" font-size="10.00">agent_cpu.cpp</text>
</a>
</g>
</g>
<!-- Node4&#45;&gt;Node34 -->
<g id="edge35" class="edge"><title>Node4&#45;&gt;Node34</title>
<path fill="none" stroke="midnightblue" d="M1799.6,-121.285C1948.51,-121.713 2425.96,-119.363 2818,-76 2821.24,-75.6412 2824.59,-75.1982 2827.95,-74.7027"/>
<polygon fill="midnightblue" stroke="midnightblue" points="1799.47,-117.784 1789.46,-121.25 1799.44,-124.784 1799.47,-117.784"/>
</g>
<!-- Node4&#45;&gt;Node35 -->
<g id="edge36" class="edge"><title>Node4&#45;&gt;Node35</title>
<path fill="none" stroke="midnightblue" d="M1706.78,-120.565C1473.82,-118.249 426.852,-106.306 103,-76 100.157,-75.7339 97.2391,-75.4127 94.3004,-75.0521"/>
<polygon fill="midnightblue" stroke="midnightblue" points="1706.9,-124.067 1716.94,-120.665 1706.97,-117.067 1706.9,-124.067"/>
</g>
<!-- Node4&#45;&gt;Node36 -->
<g id="edge37" class="edge"><title>Node4&#45;&gt;Node36</title>
<path fill="none" stroke="midnightblue" d="M1706.65,-120.478C1482.99,-117.831 513.749,-104.872 213,-76 210.111,-75.7226 207.143,-75.3867 204.155,-75.0096"/>
<polygon fill="midnightblue" stroke="midnightblue" points="1706.69,-123.978 1716.73,-120.596 1706.77,-116.979 1706.69,-123.978"/>
</g>
<!-- Node4&#45;&gt;Node37 -->
<g id="edge38" class="edge"><title>Node4&#45;&gt;Node37</title>
<path fill="none" stroke="midnightblue" d="M1706.71,-119.983C1475.42,-114.843 450.435,-91.3705 309,-76 305.966,-75.6702 302.835,-75.2552 299.696,-74.7855"/>
<polygon fill="midnightblue" stroke="midnightblue" points="1706.73,-123.484 1716.81,-120.207 1706.89,-116.486 1706.73,-123.484"/>
</g>
<!-- Node30&#45;&gt;Node29 -->
<g id="edge31" class="edge"><title>Node30&#45;&gt;Node29</title>
<path fill="none" stroke="midnightblue" d="M1605.15,-47.2747C1600.03,-38.0454 1593.98,-27.1703 1589.86,-19.7511"/>
<polygon fill="midnightblue" stroke="midnightblue" points="1602.13,-49.0412 1610.05,-56.083 1608.25,-45.6416 1602.13,-49.0412"/>
</g>
<!-- Node38&#45;&gt;Node33 -->
<g id="edge40" class="edge"><title>Node38&#45;&gt;Node33</title>
<path fill="none" stroke="midnightblue" d="M2762.93,-101.805C2762.44,-92.9102 2761.88,-82.7798 2761.49,-75.7511"/>
<polygon fill="midnightblue" stroke="midnightblue" points="2759.46,-102.293 2763.5,-112.083 2766.44,-101.904 2759.46,-102.293"/>
</g>
<!-- Node38&#45;&gt;Node34 -->
<g id="edge41" class="edge"><title>Node38&#45;&gt;Node34</title>
<path fill="none" stroke="midnightblue" d="M2789.83,-107.59C2809.06,-97.6052 2834.74,-84.2672 2851.33,-75.6545"/>
<polygon fill="midnightblue" stroke="midnightblue" points="2787.97,-104.61 2780.71,-112.324 2791.2,-110.822 2787.97,-104.61"/>
</g>
<!-- Node42&#45;&gt;Node3 -->
<g id="edge46" class="edge"><title>Node42&#45;&gt;Node3</title>
<path fill="none" stroke="midnightblue" d="M3209.76,-110.45C3252.05,-100.255 3315.31,-85.0047 3354.55,-75.5467"/>
<polygon fill="midnightblue" stroke="midnightblue" points="3208.92,-107.052 3200.02,-112.799 3210.56,-113.857 3208.92,-107.052"/>
</g>
<!-- Node42&#45;&gt;Node25 -->
<g id="edge47" class="edge"><title>Node42&#45;&gt;Node25</title>
<path fill="none" stroke="midnightblue" d="M3192.3,-107.726C3212.11,-97.7271 3238.71,-84.3065 3255.85,-75.6545"/>
<polygon fill="midnightblue" stroke="midnightblue" points="3190.54,-104.694 3183.19,-112.324 3193.7,-110.943 3190.54,-104.694"/>
</g>
<!-- Node42&#45;&gt;Node31 -->
<g id="edge48" class="edge"><title>Node42&#45;&gt;Node31</title>
<path fill="none" stroke="midnightblue" d="M3163.55,-102.101C3162.39,-93.1357 3161.06,-82.8579 3160.13,-75.7511"/>
<polygon fill="midnightblue" stroke="midnightblue" points="3160.09,-102.616 3164.84,-112.083 3167.03,-101.716 3160.09,-102.616"/>
</g>
<!-- Node42&#45;&gt;Node32 -->
<g id="edge49" class="edge"><title>Node42&#45;&gt;Node32</title>
<path fill="none" stroke="midnightblue" d="M3142.19,-107.177C3125.08,-97.2407 3102.53,-84.1492 3087.9,-75.6545"/>
<polygon fill="midnightblue" stroke="midnightblue" points="3140.65,-110.329 3151.06,-112.324 3144.17,-104.276 3140.65,-110.329"/>
</g>
<!-- Node44&#45;&gt;Node25 -->
<g id="edge52" class="edge"><title>Node44&#45;&gt;Node25</title>
<path fill="none" stroke="midnightblue" d="M3025.87,-221.017C3071.06,-204.935 3149.93,-173.521 3209,-132 3232.84,-115.244 3255.47,-88.9957 3266.32,-75.5564"/>
<polygon fill="midnightblue" stroke="midnightblue" points="3024.5,-217.789 3016.22,-224.401 3026.82,-224.395 3024.5,-217.789"/>
</g>
<!-- Node44&#45;&gt;Node31 -->
<g id="edge66" class="edge"><title>Node44&#45;&gt;Node31</title>
<path fill="none" stroke="midnightblue" d="M3006.64,-216.651C3041.98,-181.939 3123.47,-101.898 3150.28,-75.5681"/>
<polygon fill="midnightblue" stroke="midnightblue" points="3003.77,-214.571 2999.09,-224.075 3008.67,-219.565 3003.77,-214.571"/>
</g>
<!-- Node44&#45;&gt;Node32 -->
<g id="edge67" class="edge"><title>Node44&#45;&gt;Node32</title>
<path fill="none" stroke="midnightblue" d="M2999.07,-214.856C3016.87,-179.252 3055.77,-101.453 3068.72,-75.5681"/>
<polygon fill="midnightblue" stroke="midnightblue" points="2995.8,-213.566 2994.46,-224.075 3002.07,-216.696 2995.8,-213.566"/>
</g>
<!-- Node44&#45;&gt;Node38 -->
<g id="edge53" class="edge"><title>Node44&#45;&gt;Node38</title>
<path fill="none" stroke="midnightblue" d="M2963.04,-219.878C2916.2,-197.078 2821.02,-150.751 2781.65,-131.591"/>
<polygon fill="midnightblue" stroke="midnightblue" points="2961.74,-223.139 2972.27,-224.368 2964.81,-216.845 2961.74,-223.139"/>
</g>
<!-- Node44&#45;&gt;Node41 -->
<g id="edge54" class="edge"><title>Node44&#45;&gt;Node41</title>
<path fill="none" stroke="midnightblue" d="M2953.49,-222.399C2918.34,-212.197 2865.88,-196.965 2833.36,-187.524"/>
<polygon fill="midnightblue" stroke="midnightblue" points="2952.77,-225.836 2963.35,-225.263 2954.72,-219.114 2952.77,-225.836"/>
</g>
<!-- Node44&#45;&gt;Node45 -->
<g id="edge55" class="edge"><title>Node44&#45;&gt;Node45</title>
<path fill="none" stroke="midnightblue" d="M2968.4,-217.82C2957.48,-208.145 2945.39,-195.948 2938.85,-187.834"/>
<polygon fill="midnightblue" stroke="midnightblue" points="2966.16,-220.512 2976.05,-224.324 2970.7,-215.179 2966.16,-220.512"/>
</g>
<!-- Node44&#45;&gt;Node46 -->
<g id="edge65" class="edge"><title>Node44&#45;&gt;Node46</title>
<path fill="none" stroke="midnightblue" d="M3026.7,-223.517C3067.46,-212.985 3132.43,-196.199 3169.86,-186.53"/>
<polygon fill="midnightblue" stroke="midnightblue" points="3025.7,-220.161 3016.9,-226.051 3027.45,-226.938 3025.7,-220.161"/>
</g>
<!-- Node45&#45;&gt;Node3 -->
<g id="edge56" class="edge"><title>Node45&#45;&gt;Node3</title>
<path fill="none" stroke="midnightblue" d="M2971.73,-173.122C3024.72,-167.042 3125.44,-153.672 3209,-132 3268.95,-116.45 3337.06,-89.3067 3370.02,-75.5358"/>
<polygon fill="midnightblue" stroke="midnightblue" points="2971.33,-169.644 2961.79,-174.241 2972.11,-176.6 2971.33,-169.644"/>
</g>
<!-- Node45&#45;&gt;Node4 -->
<g id="edge58" class="edge"><title>Node45&#45;&gt;Node4</title>
<path fill="none" stroke="midnightblue" d="M2898.28,-172.371C2884.42,-170.769 2868.5,-169.101 2854,-168 2436.24,-136.293 1927.5,-125.902 1789.17,-123.561"/>
<polygon fill="midnightblue" stroke="midnightblue" points="2898.07,-175.871 2908.41,-173.573 2898.89,-168.919 2898.07,-175.871"/>
</g>
<!-- Node45&#45;&gt;Node25 -->
<g id="edge57" class="edge"><title>Node45&#45;&gt;Node25</title>
<path fill="none" stroke="midnightblue" d="M2968.52,-164.942C3006.01,-151.563 3068.63,-129.548 3123,-112 3164.53,-98.598 3212.94,-84.3127 3243.29,-75.5196"/>
<polygon fill="midnightblue" stroke="midnightblue" points="2966.87,-161.812 2958.64,-168.475 2969.23,-168.403 2966.87,-161.812"/>
</g>
<!-- Node45&#45;&gt;Node27 -->
<g id="edge59" class="edge"><title>Node45&#45;&gt;Node27</title>
<path fill="none" stroke="midnightblue" d="M2932.72,-157.903C2931.87,-144.582 2932.26,-126.642 2938,-112 2943.75,-97.3397 2956.33,-84.0331 2965.45,-75.7567"/>
<polygon fill="midnightblue" stroke="midnightblue" points="2929.27,-158.585 2933.67,-168.221 2936.24,-157.941 2929.27,-158.585"/>
</g>
<!-- Node45&#45;&gt;Node31 -->
<g id="edge61" class="edge"><title>Node45&#45;&gt;Node31</title>
<path fill="none" stroke="midnightblue" d="M2957.93,-163.283C2981.24,-149.574 3018.57,-128.255 3052,-112 3080.63,-98.0758 3114.68,-84.1979 3136.55,-75.6131"/>
<polygon fill="midnightblue" stroke="midnightblue" points="2955.97,-160.378 2949.14,-168.482 2959.53,-166.402 2955.97,-160.378"/>
</g>
<!-- Node45&#45;&gt;Node32 -->
<g id="edge62" class="edge"><title>Node45&#45;&gt;Node32</title>
<path fill="none" stroke="midnightblue" d="M2942.81,-159.035C2949.77,-144.743 2961.16,-125.044 2976,-112 2995.66,-94.7164 3023.09,-82.8206 3043.76,-75.6207"/>
<polygon fill="midnightblue" stroke="midnightblue" points="2939.54,-157.767 2938.53,-168.314 2945.9,-160.698 2939.54,-157.767"/>
</g>
<!-- Node45&#45;&gt;Node33 -->
<g id="edge63" class="edge"><title>Node45&#45;&gt;Node33</title>
<path fill="none" stroke="midnightblue" d="M2912.87,-163.009C2876.34,-139.919 2804.52,-94.5104 2774.59,-75.5914"/>
<polygon fill="midnightblue" stroke="midnightblue" points="2911.02,-165.983 2921.35,-168.368 2914.76,-160.066 2911.02,-165.983"/>
</g>
<!-- Node45&#45;&gt;Node34 -->
<g id="edge64" class="edge"><title>Node45&#45;&gt;Node34</title>
<path fill="none" stroke="midnightblue" d="M2924.43,-159.64C2909.87,-135.744 2884.22,-93.6286 2873.23,-75.5914"/>
<polygon fill="midnightblue" stroke="midnightblue" points="2921.55,-161.649 2929.74,-168.368 2927.53,-158.007 2921.55,-161.649"/>
</g>
<!-- Node45&#45;&gt;Node44 -->
<g id="edge60" class="edge"><title>Node45&#45;&gt;Node44</title>
<path fill="none" stroke="midnightblue" d="M2956.66,-194.233C2967.53,-203.866 2979.54,-215.984 2986.08,-224.083"/>
<polygon fill="midnightblue" stroke="midnightblue" points="2958.93,-191.567 2949.04,-187.751 2954.39,-196.898 2958.93,-191.567"/>
</g>
</g>
</svg>
