<?xml version="1.0" encoding="UTF-8" standalone="no"?>
<!DOCTYPE svg PUBLIC "-//W3C//DTD SVG 1.1//EN"
 "http://www.w3.org/Graphics/SVG/1.1/DTD/svg11.dtd">
<!-- Generated by graphviz version 2.38.0 (20140413.2041)
 -->
<!-- Title: objlib.h Pages: 1 -->
<svg width="1785pt" height="476pt"
 viewBox="0.00 0.00 1784.92 476.00" xmlns="http://www.w3.org/2000/svg" xmlns:xlink="http://www.w3.org/1999/xlink">
<g id="graph0" class="graph" transform="scale(1 1) rotate(0) translate(4 472)">
<title>objlib.h</title>
<polygon fill="white" stroke="none" points="-4,4 -4,-472 1780.92,-472 1780.92,4 -4,4"/>
<!-- Node1 -->
<g id="node1" class="node"><title>Node1</title>
<polygon fill="#bfbfbf" stroke="black" points="1211.42,-448.5 1211.42,-467.5 1258.42,-467.5 1258.42,-448.5 1211.42,-448.5"/>
<text text-anchor="middle" x="1234.92" y="-455.5" font-family="Helvetica,sans-Serif" font-size="10.00">objlib.h</text>
</g>
<!-- Node2 -->
<g id="node2" class="node"><title>Node2</title>
<g id="a_node2"><a xlink:href="config_cosmos_8h.html" target="_top" xlink:title="Headers and definitions common to all COSMOS. ">
<polygon fill="white" stroke="black" points="885.418,-112.5 885.418,-131.5 1008.42,-131.5 1008.42,-112.5 885.418,-112.5"/>
<text text-anchor="middle" x="946.918" y="-119.5" font-family="Helvetica,sans-Serif" font-size="10.00">support/configCosmos.h</text>
</a>
</g>
</g>
<!-- Node1&#45;&gt;Node2 -->
<g id="edge1" class="edge"><title>Node1&#45;&gt;Node2</title>
<path fill="none" stroke="midnightblue" d="M1211.4,-454.264C1136.42,-444.896 907.918,-411.09 907.918,-347 907.918,-347 907.918,-347 907.918,-233 907.918,-198.716 924.956,-161.698 936.509,-140.537"/>
<polygon fill="midnightblue" stroke="midnightblue" points="939.604,-142.175 941.496,-131.75 933.516,-138.72 939.604,-142.175"/>
</g>
<!-- Node35 -->
<g id="node35" class="node"><title>Node35</title>
<g id="a_node35"><a xlink:href="mathlib_8h.html" target="_top" xlink:title="mathlib include file ">
<polygon fill="white" stroke="black" points="1194.42,-392.5 1194.42,-411.5 1275.42,-411.5 1275.42,-392.5 1194.42,-392.5"/>
<text text-anchor="middle" x="1234.92" y="-399.5" font-family="Helvetica,sans-Serif" font-size="10.00">math/mathlib.h</text>
</a>
</g>
</g>
<!-- Node1&#45;&gt;Node35 -->
<g id="edge43" class="edge"><title>Node1&#45;&gt;Node35</title>
<path fill="none" stroke="midnightblue" d="M1234.92,-448.083C1234.92,-441.006 1234.92,-430.861 1234.92,-421.986"/>
<polygon fill="midnightblue" stroke="midnightblue" points="1238.42,-421.751 1234.92,-411.751 1231.42,-421.751 1238.42,-421.751"/>
</g>
<!-- Node39 -->
<g id="node39" class="node"><title>Node39</title>
<g id="a_node39"><a xlink:href="vector_8h.html" target="_top" xlink:title="vector.h">
<polygon fill="white" stroke="black" points="1300.92,-224.5 1300.92,-243.5 1352.92,-243.5 1352.92,-224.5 1300.92,-224.5"/>
<text text-anchor="middle" x="1326.92" y="-231.5" font-family="Helvetica,sans-Serif" font-size="10.00">vector.h</text>
</a>
</g>
</g>
<!-- Node1&#45;&gt;Node39 -->
<g id="edge67" class="edge"><title>Node1&#45;&gt;Node39</title>
<path fill="none" stroke="midnightblue" d="M1247.55,-448.432C1258.64,-440.284 1274.45,-427.058 1283.92,-412 1315.84,-361.232 1324.06,-288.55 1326.18,-254.28"/>
<polygon fill="midnightblue" stroke="midnightblue" points="1329.7,-254.022 1326.71,-243.859 1322.71,-253.671 1329.7,-254.022"/>
</g>
<!-- Node3 -->
<g id="node3" class="node"><title>Node3</title>
<polygon fill="white" stroke="#bfbfbf" points="975.418,-56.5 975.418,-75.5 1020.42,-75.5 1020.42,-56.5 975.418,-56.5"/>
<text text-anchor="middle" x="997.918" y="-63.5" font-family="Helvetica,sans-Serif" font-size="10.00">climits</text>
</g>
<!-- Node2&#45;&gt;Node3 -->
<g id="edge2" class="edge"><title>Node2&#45;&gt;Node3</title>
<path fill="none" stroke="midnightblue" d="M955.34,-112.083C962.767,-104.22 973.77,-92.5688 982.731,-83.0813"/>
<polygon fill="midnightblue" stroke="midnightblue" points="985.332,-85.4244 989.653,-75.7511 980.243,-80.618 985.332,-85.4244"/>
</g>
<!-- Node4 -->
<g id="node4" class="node"><title>Node4</title>
<polygon fill="white" stroke="#bfbfbf" points="1038.42,-56.5 1038.42,-75.5 1085.42,-75.5 1085.42,-56.5 1038.42,-56.5"/>
<text text-anchor="middle" x="1061.92" y="-63.5" font-family="Helvetica,sans-Serif" font-size="10.00">csignal</text>
</g>
<!-- Node2&#45;&gt;Node4 -->
<g id="edge3" class="edge"><title>Node2&#45;&gt;Node4</title>
<path fill="none" stroke="midnightblue" d="M965.14,-112.444C983.814,-103.675 1013.07,-89.9355 1034.54,-79.8579"/>
<polygon fill="midnightblue" stroke="midnightblue" points="1036.22,-82.935 1043.78,-75.5164 1033.24,-76.5988 1036.22,-82.935"/>
</g>
<!-- Node5 -->
<g id="node5" class="node"><title>Node5</title>
<polygon fill="white" stroke="#bfbfbf" points="1528.92,-56.5 1528.92,-75.5 1574.92,-75.5 1574.92,-56.5 1528.92,-56.5"/>
<text text-anchor="middle" x="1551.92" y="-63.5" font-family="Helvetica,sans-Serif" font-size="10.00">cstdint</text>
</g>
<!-- Node2&#45;&gt;Node5 -->
<g id="edge4" class="edge"><title>Node2&#45;&gt;Node5</title>
<path fill="none" stroke="midnightblue" d="M1008.66,-119.331C1113.38,-115.783 1332.27,-105.258 1514.92,-76 1516.17,-75.8 1517.44,-75.5797 1518.71,-75.3432"/>
<polygon fill="midnightblue" stroke="midnightblue" points="1519.48,-78.7595 1528.54,-73.2819 1518.04,-71.9085 1519.48,-78.7595"/>
</g>
<!-- Node6 -->
<g id="node6" class="node"><title>Node6</title>
<polygon fill="white" stroke="#bfbfbf" points="1103.92,-56.5 1103.92,-75.5 1159.92,-75.5 1159.92,-56.5 1103.92,-56.5"/>
<text text-anchor="middle" x="1131.92" y="-63.5" font-family="Helvetica,sans-Serif" font-size="10.00">cinttypes</text>
</g>
<!-- Node2&#45;&gt;Node6 -->
<g id="edge5" class="edge"><title>Node2&#45;&gt;Node6</title>
<path fill="none" stroke="midnightblue" d="M976.232,-112.444C1008.04,-103.159 1058.94,-88.3022 1093.82,-78.1197"/>
<polygon fill="midnightblue" stroke="midnightblue" points="1095.03,-81.4127 1103.65,-75.2508 1093.07,-74.6931 1095.03,-81.4127"/>
</g>
<!-- Node7 -->
<g id="node7" class="node"><title>Node7</title>
<polygon fill="white" stroke="#bfbfbf" points="1178.42,-56.5 1178.42,-75.5 1221.42,-75.5 1221.42,-56.5 1178.42,-56.5"/>
<text text-anchor="middle" x="1199.92" y="-63.5" font-family="Helvetica,sans-Serif" font-size="10.00">cstdio</text>
</g>
<!-- Node2&#45;&gt;Node7 -->
<g id="edge6" class="edge"><title>Node2&#45;&gt;Node7</title>
<path fill="none" stroke="midnightblue" d="M994.808,-112.475C1037.74,-104.568 1102.63,-91.9648 1168.2,-76.0072"/>
<polygon fill="midnightblue" stroke="midnightblue" points="1169.42,-79.3101 1178.3,-73.5234 1167.75,-72.5126 1169.42,-79.3101"/>
</g>
<!-- Node8 -->
<g id="node8" class="node"><title>Node8</title>
<polygon fill="white" stroke="#bfbfbf" points="1239.42,-56.5 1239.42,-75.5 1288.42,-75.5 1288.42,-56.5 1239.42,-56.5"/>
<text text-anchor="middle" x="1263.92" y="-63.5" font-family="Helvetica,sans-Serif" font-size="10.00">cstddef</text>
</g>
<!-- Node2&#45;&gt;Node8 -->
<g id="edge7" class="edge"><title>Node2&#45;&gt;Node8</title>
<path fill="none" stroke="midnightblue" d="M1008.52,-113.034C1063.83,-105.467 1147.39,-93.0132 1229.15,-75.9782"/>
<polygon fill="midnightblue" stroke="midnightblue" points="1230.04,-79.3662 1239.11,-73.8781 1228.6,-72.5168 1230.04,-79.3662"/>
</g>
<!-- Node9 -->
<g id="node9" class="node"><title>Node9</title>
<polygon fill="white" stroke="#bfbfbf" points="1427.42,-56.5 1427.42,-75.5 1472.42,-75.5 1472.42,-56.5 1427.42,-56.5"/>
<text text-anchor="middle" x="1449.92" y="-63.5" font-family="Helvetica,sans-Serif" font-size="10.00">cstdlib</text>
</g>
<!-- Node2&#45;&gt;Node9 -->
<g id="edge8" class="edge"><title>Node2&#45;&gt;Node9</title>
<path fill="none" stroke="midnightblue" d="M1008.75,-118.619C1097.3,-114.432 1265.36,-103.597 1417.33,-75.757"/>
<polygon fill="midnightblue" stroke="midnightblue" points="1418.12,-79.1692 1427.31,-73.8985 1416.84,-72.2874 1418.12,-79.1692"/>
</g>
<!-- Node10 -->
<g id="node10" class="node"><title>Node10</title>
<polygon fill="white" stroke="#bfbfbf" points="20.9184,-56.5 20.9184,-75.5 64.9184,-75.5 64.9184,-56.5 20.9184,-56.5"/>
<text text-anchor="middle" x="42.9184" y="-63.5" font-family="Helvetica,sans-Serif" font-size="10.00">cerrno</text>
</g>
<!-- Node2&#45;&gt;Node10 -->
<g id="edge9" class="edge"><title>Node2&#45;&gt;Node10</title>
<path fill="none" stroke="midnightblue" d="M885.259,-119.673C716.573,-115.753 249.049,-102.883 75.1639,-75.7522"/>
<polygon fill="midnightblue" stroke="midnightblue" points="75.5598,-72.2706 65.1265,-74.1139 74.4321,-79.1792 75.5598,-72.2706"/>
</g>
<!-- Node11 -->
<g id="node11" class="node"><title>Node11</title>
<polygon fill="white" stroke="#bfbfbf" points="82.9184,-56.5 82.9184,-75.5 128.918,-75.5 128.918,-56.5 82.9184,-56.5"/>
<text text-anchor="middle" x="105.918" y="-63.5" font-family="Helvetica,sans-Serif" font-size="10.00">cstring</text>
</g>
<!-- Node2&#45;&gt;Node11 -->
<g id="edge10" class="edge"><title>Node2&#45;&gt;Node11</title>
<path fill="none" stroke="midnightblue" d="M885.133,-119.311C725.349,-114.671 300.328,-100.521 139.415,-75.826"/>
<polygon fill="midnightblue" stroke="midnightblue" points="139.633,-72.3161 129.204,-74.1842 138.521,-79.2273 139.633,-72.3161"/>
</g>
<!-- Node12 -->
<g id="node12" class="node"><title>Node12</title>
<polygon fill="white" stroke="#bfbfbf" points="1732.92,-56.5 1732.92,-75.5 1776.92,-75.5 1776.92,-56.5 1732.92,-56.5"/>
<text text-anchor="middle" x="1754.92" y="-63.5" font-family="Helvetica,sans-Serif" font-size="10.00">cmath</text>
</g>
<!-- Node2&#45;&gt;Node12 -->
<g id="edge11" class="edge"><title>Node2&#45;&gt;Node12</title>
<path fill="none" stroke="midnightblue" d="M1008.56,-119.219C1163.65,-114.456 1568.04,-100.232 1722.46,-75.797"/>
<polygon fill="midnightblue" stroke="midnightblue" points="1723.42,-79.1871 1732.71,-74.0965 1722.27,-72.2817 1723.42,-79.1871"/>
</g>
<!-- Node13 -->
<g id="node13" class="node"><title>Node13</title>
<polygon fill="white" stroke="#bfbfbf" points="147.418,-56.5 147.418,-75.5 192.418,-75.5 192.418,-56.5 147.418,-56.5"/>
<text text-anchor="middle" x="169.918" y="-63.5" font-family="Helvetica,sans-Serif" font-size="10.00">iosfwd</text>
</g>
<!-- Node2&#45;&gt;Node13 -->
<g id="edge12" class="edge"><title>Node2&#45;&gt;Node13</title>
<path fill="none" stroke="midnightblue" d="M885.089,-121.708C758.414,-122.2 460.357,-118.43 202.437,-75.6676"/>
<polygon fill="midnightblue" stroke="midnightblue" points="202.95,-72.2047 192.508,-73.9986 201.789,-79.1079 202.95,-72.2047"/>
</g>
<!-- Node14 -->
<g id="node14" class="node"><title>Node14</title>
<polygon fill="white" stroke="#bfbfbf" points="1660.92,-56.5 1660.92,-75.5 1714.92,-75.5 1714.92,-56.5 1660.92,-56.5"/>
<text text-anchor="middle" x="1687.92" y="-63.5" font-family="Helvetica,sans-Serif" font-size="10.00">iostream</text>
</g>
<!-- Node2&#45;&gt;Node14 -->
<g id="edge13" class="edge"><title>Node2&#45;&gt;Node14</title>
<path fill="none" stroke="midnightblue" d="M1008.62,-120.807C1130.03,-119.614 1408.46,-112.864 1650.84,-75.8688"/>
<polygon fill="midnightblue" stroke="midnightblue" points="1651.55,-79.3006 1660.9,-74.3129 1650.48,-72.3829 1651.55,-79.3006"/>
</g>
<!-- Node15 -->
<g id="node15" class="node"><title>Node15</title>
<polygon fill="white" stroke="#bfbfbf" points="210.918,-56.5 210.918,-75.5 262.918,-75.5 262.918,-56.5 210.918,-56.5"/>
<text text-anchor="middle" x="236.918" y="-63.5" font-family="Helvetica,sans-Serif" font-size="10.00">sstream</text>
</g>
<!-- Node2&#45;&gt;Node15 -->
<g id="edge14" class="edge"><title>Node2&#45;&gt;Node15</title>
<path fill="none" stroke="midnightblue" d="M885.064,-120.691C767.418,-119.276 503.345,-112.125 273.082,-75.889"/>
<polygon fill="midnightblue" stroke="midnightblue" points="273.608,-72.4287 263.182,-74.3095 272.505,-79.3413 273.608,-72.4287"/>
</g>
<!-- Node16 -->
<g id="node16" class="node"><title>Node16</title>
<polygon fill="white" stroke="#bfbfbf" points="281.418,-56.5 281.418,-75.5 322.418,-75.5 322.418,-56.5 281.418,-56.5"/>
<text text-anchor="middle" x="301.918" y="-63.5" font-family="Helvetica,sans-Serif" font-size="10.00">regex</text>
</g>
<!-- Node2&#45;&gt;Node16 -->
<g id="edge15" class="edge"><title>Node2&#45;&gt;Node16</title>
<path fill="none" stroke="midnightblue" d="M885.116,-121.119C775.258,-120.323 538.882,-114.068 332.785,-75.9642"/>
<polygon fill="midnightblue" stroke="midnightblue" points="333.158,-72.4732 322.684,-74.0664 331.865,-79.3528 333.158,-72.4732"/>
</g>
<!-- Node17 -->
<g id="node17" class="node"><title>Node17</title>
<polygon fill="white" stroke="#bfbfbf" points="1592.92,-56.5 1592.92,-75.5 1642.92,-75.5 1642.92,-56.5 1592.92,-56.5"/>
<text text-anchor="middle" x="1617.92" y="-63.5" font-family="Helvetica,sans-Serif" font-size="10.00">iomanip</text>
</g>
<!-- Node2&#45;&gt;Node17 -->
<g id="edge16" class="edge"><title>Node2&#45;&gt;Node17</title>
<path fill="none" stroke="midnightblue" d="M1008.86,-120.483C1121.52,-118.702 1367.44,-110.947 1582.87,-75.8555"/>
<polygon fill="midnightblue" stroke="midnightblue" points="1583.49,-79.3014 1592.78,-74.218 1582.35,-72.395 1583.49,-79.3014"/>
</g>
<!-- Node18 -->
<g id="node18" class="node"><title>Node18</title>
<polygon fill="white" stroke="#bfbfbf" points="340.418,-56.5 340.418,-75.5 391.418,-75.5 391.418,-56.5 340.418,-56.5"/>
<text text-anchor="middle" x="365.918" y="-63.5" font-family="Helvetica,sans-Serif" font-size="10.00">unistd.h</text>
</g>
<!-- Node2&#45;&gt;Node18 -->
<g id="edge17" class="edge"><title>Node2&#45;&gt;Node18</title>
<path fill="none" stroke="midnightblue" d="M885.084,-119.312C785.263,-115.841 582.399,-105.697 401.393,-75.7638"/>
<polygon fill="midnightblue" stroke="midnightblue" points="401.867,-72.2944 391.425,-74.0914 400.708,-79.1979 401.867,-72.2944"/>
</g>
<!-- Node19 -->
<g id="node19" class="node"><title>Node19</title>
<polygon fill="white" stroke="#bfbfbf" points="409.918,-56.5 409.918,-75.5 453.918,-75.5 453.918,-56.5 409.918,-56.5"/>
<text text-anchor="middle" x="431.918" y="-63.5" font-family="Helvetica,sans-Serif" font-size="10.00">fcntl.h</text>
</g>
<!-- Node2&#45;&gt;Node19 -->
<g id="edge18" class="edge"><title>Node2&#45;&gt;Node19</title>
<path fill="none" stroke="midnightblue" d="M885.274,-119.012C794.782,-115.272 620.67,-104.949 464.412,-75.9392"/>
<polygon fill="midnightblue" stroke="midnightblue" points="464.622,-72.4172 454.147,-74.0013 463.324,-79.2957 464.622,-72.4172"/>
</g>
<!-- Node20 -->
<g id="node20" class="node"><title>Node20</title>
<polygon fill="white" stroke="#bfbfbf" points="471.918,-56.5 471.918,-75.5 511.918,-75.5 511.918,-56.5 471.918,-56.5"/>
<text text-anchor="middle" x="491.918" y="-63.5" font-family="Helvetica,sans-Serif" font-size="10.00">limits</text>
</g>
<!-- Node2&#45;&gt;Node20 -->
<g id="edge19" class="edge"><title>Node2&#45;&gt;Node20</title>
<path fill="none" stroke="midnightblue" d="M885.139,-117.352C802.701,-111.812 652.416,-99.3622 525.918,-76 524.635,-75.763 523.329,-75.5028 522.013,-75.2249"/>
<polygon fill="midnightblue" stroke="midnightblue" points="522.477,-71.7382 511.94,-72.8413 520.865,-78.5501 522.477,-71.7382"/>
</g>
<!-- Node21 -->
<g id="node21" class="node"><title>Node21</title>
<polygon fill="white" stroke="#bfbfbf" points="1465.42,-0.5 1465.42,-19.5 1506.42,-19.5 1506.42,-0.5 1465.42,-0.5"/>
<text text-anchor="middle" x="1485.92" y="-7.5" font-family="Helvetica,sans-Serif" font-size="10.00">string</text>
</g>
<!-- Node2&#45;&gt;Node21 -->
<g id="edge20" class="edge"><title>Node2&#45;&gt;Node21</title>
<path fill="none" stroke="midnightblue" d="M1008.44,-120.208C1141.8,-117.876 1448.21,-108.951 1480.92,-76 1492.74,-64.0947 1492.55,-44.1862 1490.29,-29.5326"/>
<polygon fill="midnightblue" stroke="midnightblue" points="1493.7,-28.7057 1488.33,-19.5709 1486.83,-30.0589 1493.7,-28.7057"/>
</g>
<!-- Node22 -->
<g id="node22" class="node"><title>Node22</title>
<polygon fill="white" stroke="#bfbfbf" points="1085.92,-0.5 1085.92,-19.5 1129.92,-19.5 1129.92,-0.5 1085.92,-0.5"/>
<text text-anchor="middle" x="1107.92" y="-7.5" font-family="Helvetica,sans-Serif" font-size="10.00">vector</text>
</g>
<!-- Node2&#45;&gt;Node22 -->
<g id="edge21" class="edge"><title>Node2&#45;&gt;Node22</title>
<path fill="none" stroke="midnightblue" d="M946.993,-112.138C947.596,-98.2798 950.795,-71.4678 965.918,-56 994.994,-26.2625 1043.58,-16.1286 1075.69,-12.7038"/>
<polygon fill="midnightblue" stroke="midnightblue" points="1076.25,-16.1675 1085.89,-11.781 1075.62,-9.19594 1076.25,-16.1675"/>
</g>
<!-- Node23 -->
<g id="node23" class="node"><title>Node23</title>
<polygon fill="white" stroke="#bfbfbf" points="606.418,-56.5 606.418,-75.5 647.418,-75.5 647.418,-56.5 606.418,-56.5"/>
<text text-anchor="middle" x="626.918" y="-63.5" font-family="Helvetica,sans-Serif" font-size="10.00">stack</text>
</g>
<!-- Node2&#45;&gt;Node23 -->
<g id="edge22" class="edge"><title>Node2&#45;&gt;Node23</title>
<path fill="none" stroke="midnightblue" d="M885.386,-114.16C828.398,-107.222 741.194,-95.0753 657.633,-76.1417"/>
<polygon fill="midnightblue" stroke="midnightblue" points="658.257,-72.6939 647.727,-73.8607 656.687,-79.5154 658.257,-72.6939"/>
</g>
<!-- Node24 -->
<g id="node24" class="node"><title>Node24</title>
<polygon fill="white" stroke="#bfbfbf" points="665.418,-56.5 665.418,-75.5 708.418,-75.5 708.418,-56.5 665.418,-56.5"/>
<text text-anchor="middle" x="686.918" y="-63.5" font-family="Helvetica,sans-Serif" font-size="10.00">deque</text>
</g>
<!-- Node2&#45;&gt;Node24 -->
<g id="edge23" class="edge"><title>Node2&#45;&gt;Node24</title>
<path fill="none" stroke="midnightblue" d="M896.607,-112.436C852.206,-104.58 785.555,-92.0662 718.437,-75.9446"/>
<polygon fill="midnightblue" stroke="midnightblue" points="719.077,-72.4984 708.533,-73.54 717.425,-79.3008 719.077,-72.4984"/>
</g>
<!-- Node25 -->
<g id="node25" class="node"><title>Node25</title>
<polygon fill="white" stroke="#bfbfbf" points="822.918,-0.5 822.918,-19.5 866.918,-19.5 866.918,-0.5 822.918,-0.5"/>
<text text-anchor="middle" x="844.918" y="-7.5" font-family="Helvetica,sans-Serif" font-size="10.00">mutex</text>
</g>
<!-- Node2&#45;&gt;Node25 -->
<g id="edge24" class="edge"><title>Node2&#45;&gt;Node25</title>
<path fill="none" stroke="midnightblue" d="M938.915,-112.368C921.858,-93.9744 881.704,-50.6712 859.803,-27.0519"/>
<polygon fill="midnightblue" stroke="midnightblue" points="862.251,-24.5443 852.885,-19.5914 857.118,-29.3039 862.251,-24.5443"/>
</g>
<!-- Node26 -->
<g id="node26" class="node"><title>Node26</title>
<polygon fill="white" stroke="#bfbfbf" points="226.918,-0.5 226.918,-19.5 270.918,-19.5 270.918,-0.5 226.918,-0.5"/>
<text text-anchor="middle" x="248.918" y="-7.5" font-family="Helvetica,sans-Serif" font-size="10.00">thread</text>
</g>
<!-- Node2&#45;&gt;Node26 -->
<g id="edge25" class="edge"><title>Node2&#45;&gt;Node26</title>
<path fill="none" stroke="midnightblue" d="M885.326,-120.344C681.804,-117.879 42.0678,-107.635 11.9184,-76 -48.2425,-12.8741 138.728,-9.11354 216.566,-10.1631"/>
<polygon fill="midnightblue" stroke="midnightblue" points="216.729,-13.6663 226.787,-10.3375 216.849,-6.66737 216.729,-13.6663"/>
</g>
<!-- Node27 -->
<g id="node27" class="node"><title>Node27</title>
<polygon fill="white" stroke="#bfbfbf" points="518.418,-0.5 518.418,-19.5 613.418,-19.5 613.418,-0.5 518.418,-0.5"/>
<text text-anchor="middle" x="565.918" y="-7.5" font-family="Helvetica,sans-Serif" font-size="10.00">condition_variable</text>
</g>
<!-- Node2&#45;&gt;Node27 -->
<g id="edge26" class="edge"><title>Node2&#45;&gt;Node27</title>
<path fill="none" stroke="midnightblue" d="M885.37,-120.954C794.969,-119.641 632.2,-112.145 587.918,-76 574.239,-64.8341 569.025,-44.8087 567.059,-29.9258"/>
<polygon fill="midnightblue" stroke="midnightblue" points="570.526,-29.4065 566.103,-19.779 563.557,-30.0633 570.526,-29.4065"/>
</g>
<!-- Node28 -->
<g id="node28" class="node"><title>Node28</title>
<polygon fill="white" stroke="#bfbfbf" points="657.418,-0.5 657.418,-19.5 700.418,-19.5 700.418,-0.5 657.418,-0.5"/>
<text text-anchor="middle" x="678.918" y="-7.5" font-family="Helvetica,sans-Serif" font-size="10.00">queue</text>
</g>
<!-- Node2&#45;&gt;Node28 -->
<g id="edge27" class="edge"><title>Node2&#45;&gt;Node28</title>
<path fill="none" stroke="midnightblue" d="M885.405,-117.445C790.08,-111.301 615.633,-97.2748 596.918,-76 577.105,-53.4765 616.97,-32.9654 647.768,-21.2418"/>
<polygon fill="midnightblue" stroke="midnightblue" points="649.16,-24.4599 657.362,-17.7528 646.767,-17.8815 649.16,-24.4599"/>
</g>
<!-- Node29 -->
<g id="node29" class="node"><title>Node29</title>
<polygon fill="white" stroke="#bfbfbf" points="891.418,-0.5 891.418,-19.5 926.418,-19.5 926.418,-0.5 891.418,-0.5"/>
<text text-anchor="middle" x="908.918" y="-7.5" font-family="Helvetica,sans-Serif" font-size="10.00">map</text>
</g>
<!-- Node2&#45;&gt;Node29 -->
<g id="edge28" class="edge"><title>Node2&#45;&gt;Node29</title>
<path fill="none" stroke="midnightblue" d="M943.937,-112.368C937.777,-94.5366 923.53,-53.2953 915.23,-29.2717"/>
<polygon fill="midnightblue" stroke="midnightblue" points="918.46,-27.9005 911.886,-19.5914 911.843,-30.1862 918.46,-27.9005"/>
</g>
<!-- Node30 -->
<g id="node30" class="node"><title>Node30</title>
<g id="a_node30"><a xlink:href="cosmos-defs_8h.html" target="_top" xlink:title="COSMOS definitions Definitions specific to the COSMOS environement. ">
<polygon fill="white" stroke="black" points="726.918,-56.5 726.918,-75.5 842.918,-75.5 842.918,-56.5 726.918,-56.5"/>
<text text-anchor="middle" x="784.918" y="-63.5" font-family="Helvetica,sans-Serif" font-size="10.00">support/cosmos&#45;defs.h</text>
</a>
</g>
</g>
<!-- Node2&#45;&gt;Node30 -->
<g id="edge29" class="edge"><title>Node2&#45;&gt;Node30</title>
<path fill="none" stroke="midnightblue" d="M921.249,-112.444C893.996,-103.359 850.735,-88.9388 820.268,-78.7831"/>
<polygon fill="midnightblue" stroke="midnightblue" points="821.061,-75.3584 810.468,-75.5164 818.848,-81.9992 821.061,-75.3584"/>
</g>
<!-- Node32 -->
<g id="node32" class="node"><title>Node32</title>
<g id="a_node32"><a xlink:href="json11_8hpp.html" target="_top" xlink:title="json11.hpp">
<polygon fill="white" stroke="black" points="1344.92,-56.5 1344.92,-75.5 1408.92,-75.5 1408.92,-56.5 1344.92,-56.5"/>
<text text-anchor="middle" x="1376.92" y="-63.5" font-family="Helvetica,sans-Serif" font-size="10.00">json11.hpp</text>
</a>
</g>
</g>
<!-- Node2&#45;&gt;Node32 -->
<g id="edge37" class="edge"><title>Node2&#45;&gt;Node32</title>
<path fill="none" stroke="midnightblue" d="M1008.53,-113.263C1097.13,-102.136 1258.27,-81.9007 1334.62,-72.312"/>
<polygon fill="midnightblue" stroke="midnightblue" points="1335.33,-75.7505 1344.81,-71.0317 1334.46,-68.8051 1335.33,-75.7505"/>
</g>
<!-- Node30&#45;&gt;Node22 -->
<g id="edge31" class="edge"><title>Node30&#45;&gt;Node22</title>
<path fill="none" stroke="midnightblue" d="M836.099,-56.4435C903.279,-45.2122 1019.24,-25.8248 1075.47,-16.4242"/>
<polygon fill="midnightblue" stroke="midnightblue" points="1076.29,-19.8371 1085.57,-14.7359 1075.13,-12.9329 1076.29,-19.8371"/>
</g>
<!-- Node30&#45;&gt;Node25 -->
<g id="edge35" class="edge"><title>Node30&#45;&gt;Node25</title>
<path fill="none" stroke="midnightblue" d="M794.558,-56.324C803.428,-48.3414 816.793,-36.3128 827.526,-26.6529"/>
<polygon fill="midnightblue" stroke="midnightblue" points="830.011,-29.1251 835.103,-19.8339 825.329,-23.922 830.011,-29.1251"/>
</g>
<!-- Node30&#45;&gt;Node26 -->
<g id="edge34" class="edge"><title>Node30&#45;&gt;Node26</title>
<path fill="none" stroke="midnightblue" d="M726.697,-57.1551C723.39,-56.7529 720.113,-56.3649 716.918,-56 553.824,-37.3719 358.156,-20.2403 281.745,-13.7501"/>
<polygon fill="midnightblue" stroke="midnightblue" points="281.614,-10.2266 271.355,-12.8708 281.024,-17.2017 281.614,-10.2266"/>
</g>
<!-- Node30&#45;&gt;Node27 -->
<g id="edge36" class="edge"><title>Node30&#45;&gt;Node27</title>
<path fill="none" stroke="midnightblue" d="M750.217,-56.4435C712.334,-47.1024 651.569,-32.1194 610.256,-21.9326"/>
<polygon fill="midnightblue" stroke="midnightblue" points="611.004,-18.5123 600.457,-19.5164 609.329,-25.3088 611.004,-18.5123"/>
</g>
<!-- Node30&#45;&gt;Node28 -->
<g id="edge33" class="edge"><title>Node30&#45;&gt;Node28</title>
<path fill="none" stroke="midnightblue" d="M767.888,-56.324C750.889,-47.6641 724.542,-34.2424 704.926,-24.249"/>
<polygon fill="midnightblue" stroke="midnightblue" points="706.406,-21.0752 695.907,-19.6545 703.229,-27.3125 706.406,-21.0752"/>
</g>
<!-- Node30&#45;&gt;Node29 -->
<g id="edge30" class="edge"><title>Node30&#45;&gt;Node29</title>
<path fill="none" stroke="midnightblue" d="M804.567,-56.4435C825.48,-47.3359 858.71,-32.865 882.04,-22.7053"/>
<polygon fill="midnightblue" stroke="midnightblue" points="883.596,-25.845 891.367,-18.6433 880.801,-19.4271 883.596,-25.845"/>
</g>
<!-- Node31 -->
<g id="node31" class="node"><title>Node31</title>
<polygon fill="white" stroke="#bfbfbf" points="770.418,-0.5 770.418,-19.5 799.418,-19.5 799.418,-0.5 770.418,-0.5"/>
<text text-anchor="middle" x="784.918" y="-7.5" font-family="Helvetica,sans-Serif" font-size="10.00">list</text>
</g>
<!-- Node30&#45;&gt;Node31 -->
<g id="edge32" class="edge"><title>Node30&#45;&gt;Node31</title>
<path fill="none" stroke="midnightblue" d="M784.918,-56.083C784.918,-49.0059 784.918,-38.8611 784.918,-29.9865"/>
<polygon fill="midnightblue" stroke="midnightblue" points="788.418,-29.751 784.918,-19.7511 781.418,-29.7511 788.418,-29.751"/>
</g>
<!-- Node32&#45;&gt;Node21 -->
<g id="edge38" class="edge"><title>Node32&#45;&gt;Node21</title>
<path fill="none" stroke="midnightblue" d="M1394.43,-56.324C1411.99,-47.6247 1439.25,-34.1202 1459.45,-24.113"/>
<polygon fill="midnightblue" stroke="midnightblue" points="1461.04,-27.23 1468.45,-19.6545 1457.93,-20.9575 1461.04,-27.23"/>
</g>
<!-- Node32&#45;&gt;Node22 -->
<g id="edge39" class="edge"><title>Node32&#45;&gt;Node22</title>
<path fill="none" stroke="midnightblue" d="M1344.74,-58.54C1292.94,-48.1424 1191.67,-27.8131 1139.96,-17.4329"/>
<polygon fill="midnightblue" stroke="midnightblue" points="1140.51,-13.9723 1130.01,-15.4356 1139.13,-20.8354 1140.51,-13.9723"/>
</g>
<!-- Node32&#45;&gt;Node29 -->
<g id="edge40" class="edge"><title>Node32&#45;&gt;Node29</title>
<path fill="none" stroke="midnightblue" d="M1344.75,-61.2884C1257.59,-51.2316 1017.98,-23.5838 936.477,-14.1798"/>
<polygon fill="midnightblue" stroke="midnightblue" points="936.818,-10.6961 926.483,-13.0267 936.016,-17.65 936.818,-10.6961"/>
</g>
<!-- Node33 -->
<g id="node33" class="node"><title>Node33</title>
<polygon fill="white" stroke="#bfbfbf" points="1365.92,-0.5 1365.92,-19.5 1417.92,-19.5 1417.92,-0.5 1365.92,-0.5"/>
<text text-anchor="middle" x="1391.92" y="-7.5" font-family="Helvetica,sans-Serif" font-size="10.00">memory</text>
</g>
<!-- Node32&#45;&gt;Node33 -->
<g id="edge41" class="edge"><title>Node32&#45;&gt;Node33</title>
<path fill="none" stroke="midnightblue" d="M1379.4,-56.083C1381.4,-48.8486 1384.3,-38.4087 1386.81,-29.3968"/>
<polygon fill="midnightblue" stroke="midnightblue" points="1390.18,-30.323 1389.49,-19.7511 1383.44,-28.4495 1390.18,-30.323"/>
</g>
<!-- Node34 -->
<g id="node34" class="node"><title>Node34</title>
<polygon fill="white" stroke="#bfbfbf" points="1274.42,-0.5 1274.42,-19.5 1347.42,-19.5 1347.42,-0.5 1274.42,-0.5"/>
<text text-anchor="middle" x="1310.92" y="-7.5" font-family="Helvetica,sans-Serif" font-size="10.00">initializer_list</text>
</g>
<!-- Node32&#45;&gt;Node34 -->
<g id="edge42" class="edge"><title>Node32&#45;&gt;Node34</title>
<path fill="none" stroke="midnightblue" d="M1366.31,-56.324C1356.46,-48.2631 1341.57,-36.0765 1329.7,-26.3695"/>
<polygon fill="midnightblue" stroke="midnightblue" points="1331.67,-23.4575 1321.72,-19.8339 1327.24,-28.8752 1331.67,-23.4575"/>
</g>
<!-- Node35&#45;&gt;Node2 -->
<g id="edge44" class="edge"><title>Node35&#45;&gt;Node2</title>
<path fill="none" stroke="midnightblue" d="M1199.45,-392.498C1175.55,-385.516 1144.25,-373.832 1120.92,-356 1039.4,-293.685 977.646,-183.456 955.656,-140.669"/>
<polygon fill="midnightblue" stroke="midnightblue" points="958.67,-138.874 951.038,-131.525 952.422,-142.03 958.67,-138.874"/>
</g>
<!-- Node35&#45;&gt;Node12 -->
<g id="edge65" class="edge"><title>Node35&#45;&gt;Node12</title>
<path fill="none" stroke="midnightblue" d="M1275.54,-400.067C1389.16,-396.365 1701.92,-378.252 1701.92,-291 1701.92,-291 1701.92,-291 1701.92,-177 1701.92,-140.992 1725.25,-104.339 1740.96,-83.7501"/>
<polygon fill="midnightblue" stroke="midnightblue" points="1743.85,-85.7291 1747.32,-75.7193 1738.37,-81.3793 1743.85,-85.7291"/>
</g>
<!-- Node35&#45;&gt;Node14 -->
<g id="edge66" class="edge"><title>Node35&#45;&gt;Node14</title>
<path fill="none" stroke="midnightblue" d="M1273.56,-392.459C1340.02,-375.237 1468.92,-329.637 1468.92,-235 1468.92,-235 1468.92,-235 1468.92,-177 1468.92,-136.797 1588.26,-96.0063 1650.75,-77.4038"/>
<polygon fill="midnightblue" stroke="midnightblue" points="1652.01,-80.68 1660.62,-74.5073 1650.04,-73.9629 1652.01,-80.68"/>
</g>
<!-- Node36 -->
<g id="node36" class="node"><title>Node36</title>
<g id="a_node36"><a xlink:href="cosmos-errno_8h.html" target="_top" xlink:title="COSMOS Error Codes. ">
<polygon fill="white" stroke="black" points="936.418,-336.5 936.418,-355.5 1055.42,-355.5 1055.42,-336.5 936.418,-336.5"/>
<text text-anchor="middle" x="995.918" y="-343.5" font-family="Helvetica,sans-Serif" font-size="10.00">support/cosmos&#45;errno.h</text>
</a>
</g>
</g>
<!-- Node35&#45;&gt;Node36 -->
<g id="edge45" class="edge"><title>Node35&#45;&gt;Node36</title>
<path fill="none" stroke="midnightblue" d="M1197.05,-392.444C1155.44,-383.043 1088.55,-367.929 1043.45,-357.739"/>
<polygon fill="midnightblue" stroke="midnightblue" points="1044.14,-354.306 1033.61,-355.516 1042.59,-361.134 1044.14,-354.306"/>
</g>
<!-- Node38 -->
<g id="node38" class="node"><title>Node38</title>
<g id="a_node38"><a xlink:href="math_2constants_8h.html" target="_top" xlink:title="constants.h">
<polygon fill="white" stroke="black" points="1223.92,-168.5 1223.92,-187.5 1291.92,-187.5 1291.92,-168.5 1223.92,-168.5"/>
<text text-anchor="middle" x="1257.92" y="-175.5" font-family="Helvetica,sans-Serif" font-size="10.00">constants.h</text>
</a>
</g>
</g>
<!-- Node35&#45;&gt;Node38 -->
<g id="edge48" class="edge"><title>Node35&#45;&gt;Node38</title>
<path fill="none" stroke="midnightblue" d="M1235.82,-392.297C1239.2,-359.633 1251.2,-243.866 1255.95,-197.957"/>
<polygon fill="midnightblue" stroke="midnightblue" points="1259.45,-198.191 1257,-187.884 1252.49,-197.47 1259.45,-198.191"/>
</g>
<!-- Node35&#45;&gt;Node39 -->
<g id="edge51" class="edge"><title>Node35&#45;&gt;Node39</title>
<path fill="none" stroke="midnightblue" d="M1241.98,-392.36C1249.02,-383.53 1259.91,-369.27 1267.92,-356 1289.07,-320.97 1308.89,-277.256 1319.3,-253.123"/>
<polygon fill="midnightblue" stroke="midnightblue" points="1322.58,-254.358 1323.28,-243.787 1316.14,-251.614 1322.58,-254.358"/>
</g>
<!-- Node40 -->
<g id="node40" class="node"><title>Node40</title>
<g id="a_node40"><a xlink:href="matrix_8h.html" target="_top" xlink:title="matrix.h">
<polygon fill="white" stroke="black" points="1160.92,-280.5 1160.92,-299.5 1212.92,-299.5 1212.92,-280.5 1160.92,-280.5"/>
<text text-anchor="middle" x="1186.92" y="-287.5" font-family="Helvetica,sans-Serif" font-size="10.00">matrix.h</text>
</a>
</g>
</g>
<!-- Node35&#45;&gt;Node40 -->
<g id="edge58" class="edge"><title>Node35&#45;&gt;Node40</title>
<path fill="none" stroke="midnightblue" d="M1231.15,-392.368C1223.34,-374.456 1205.21,-332.923 1194.75,-308.948"/>
<polygon fill="midnightblue" stroke="midnightblue" points="1197.87,-307.357 1190.67,-299.591 1191.46,-310.157 1197.87,-307.357"/>
</g>
<!-- Node41 -->
<g id="node41" class="node"><title>Node41</title>
<g id="a_node41"><a xlink:href="rotation_8h.html" target="_top" xlink:title="rotation.h">
<polygon fill="white" stroke="black" points="1130.42,-336.5 1130.42,-355.5 1187.42,-355.5 1187.42,-336.5 1130.42,-336.5"/>
<text text-anchor="middle" x="1158.92" y="-343.5" font-family="Helvetica,sans-Serif" font-size="10.00">rotation.h</text>
</a>
</g>
</g>
<!-- Node35&#45;&gt;Node41 -->
<g id="edge61" class="edge"><title>Node35&#45;&gt;Node41</title>
<path fill="none" stroke="midnightblue" d="M1222.71,-392.324C1211.14,-384.107 1193.54,-371.602 1179.76,-361.807"/>
<polygon fill="midnightblue" stroke="midnightblue" points="1181.53,-358.773 1171.35,-355.834 1177.48,-364.479 1181.53,-358.773"/>
</g>
<!-- Node36&#45;&gt;Node2 -->
<g id="edge46" class="edge"><title>Node36&#45;&gt;Node2</title>
<path fill="none" stroke="midnightblue" d="M988.316,-336.398C981.214,-327.821 970.97,-313.949 965.918,-300 946.055,-245.153 945.153,-174.966 946.051,-141.873"/>
<polygon fill="midnightblue" stroke="midnightblue" points="949.551,-141.921 946.415,-131.801 942.556,-141.668 949.551,-141.921"/>
</g>
<!-- Node37 -->
<g id="node37" class="node"><title>Node37</title>
<polygon fill="white" stroke="#bfbfbf" points="975.418,-280.5 975.418,-299.5 1022.42,-299.5 1022.42,-280.5 975.418,-280.5"/>
<text text-anchor="middle" x="998.918" y="-287.5" font-family="Helvetica,sans-Serif" font-size="10.00">errno.h</text>
</g>
<!-- Node36&#45;&gt;Node37 -->
<g id="edge47" class="edge"><title>Node36&#45;&gt;Node37</title>
<path fill="none" stroke="midnightblue" d="M996.414,-336.083C996.807,-329.006 997.371,-318.861 997.864,-309.986"/>
<polygon fill="midnightblue" stroke="midnightblue" points="1001.37,-309.93 998.432,-299.751 994.383,-309.542 1001.37,-309.93"/>
</g>
<!-- Node38&#45;&gt;Node2 -->
<g id="edge49" class="edge"><title>Node38&#45;&gt;Node2</title>
<path fill="none" stroke="midnightblue" d="M1223.84,-170.542C1219.17,-169.676 1214.42,-168.808 1209.92,-168 1140.95,-155.635 1061.67,-142.173 1008.34,-133.226"/>
<polygon fill="midnightblue" stroke="midnightblue" points="1008.8,-129.755 998.364,-131.554 1007.65,-136.659 1008.8,-129.755"/>
</g>
<!-- Node38&#45;&gt;Node5 -->
<g id="edge50" class="edge"><title>Node38&#45;&gt;Node5</title>
<path fill="none" stroke="midnightblue" d="M1271.2,-168.49C1292.95,-154.879 1337.85,-128.105 1378.92,-112 1391.95,-106.891 1472.49,-86.6449 1518.95,-75.1263"/>
<polygon fill="midnightblue" stroke="midnightblue" points="1519.99,-78.4732 1528.86,-72.673 1518.31,-71.6782 1519.99,-78.4732"/>
</g>
<!-- Node39&#45;&gt;Node2 -->
<g id="edge52" class="edge"><title>Node39&#45;&gt;Node2</title>
<path fill="none" stroke="midnightblue" d="M1304.46,-224.383C1281.74,-215.572 1245.69,-201.325 1214.92,-188 1195.58,-179.624 1191.95,-174.558 1171.92,-168 1121.76,-151.58 1063.26,-140.104 1018.48,-132.851"/>
<polygon fill="midnightblue" stroke="midnightblue" points="1019,-129.389 1008.57,-131.278 1017.9,-136.302 1019,-129.389"/>
</g>
<!-- Node39&#45;&gt;Node12 -->
<g id="edge56" class="edge"><title>Node39&#45;&gt;Node12</title>
<path fill="none" stroke="midnightblue" d="M1349.03,-224.425C1419.84,-196.96 1641.2,-111.106 1723.6,-79.1468"/>
<polygon fill="midnightblue" stroke="midnightblue" points="1724.88,-82.4034 1732.94,-75.5241 1722.35,-75.877 1724.88,-82.4034"/>
</g>
<!-- Node39&#45;&gt;Node14 -->
<g id="edge54" class="edge"><title>Node39&#45;&gt;Node14</title>
<path fill="none" stroke="midnightblue" d="M1335.68,-224.155C1362.17,-197.499 1440.46,-119.326 1454.92,-112 1531.52,-73.1828 1562.71,-93.2618 1650.96,-76.0082"/>
<polygon fill="midnightblue" stroke="midnightblue" points="1651.75,-79.4184 1660.84,-73.9688 1650.33,-72.5629 1651.75,-79.4184"/>
</g>
<!-- Node39&#45;&gt;Node17 -->
<g id="edge55" class="edge"><title>Node39&#45;&gt;Node17</title>
<path fill="none" stroke="midnightblue" d="M1330.69,-224.296C1340.93,-201.751 1371.57,-141.185 1416.92,-112 1478.15,-72.5977 1507.62,-91.956 1582.8,-76.0558"/>
<polygon fill="midnightblue" stroke="midnightblue" points="1583.72,-79.4358 1592.7,-73.8148 1582.17,-72.6085 1583.72,-79.4358"/>
</g>
<!-- Node39&#45;&gt;Node22 -->
<g id="edge57" class="edge"><title>Node39&#45;&gt;Node22</title>
<path fill="none" stroke="midnightblue" d="M1328.44,-224.202C1332.84,-195.662 1342.5,-104.69 1296.92,-56 1275.86,-33.5092 1188.61,-20.202 1140.36,-14.4245"/>
<polygon fill="midnightblue" stroke="midnightblue" points="1140.47,-10.9133 1130.13,-13.2422 1139.66,-17.867 1140.47,-10.9133"/>
</g>
<!-- Node39&#45;&gt;Node38 -->
<g id="edge53" class="edge"><title>Node39&#45;&gt;Node38</title>
<path fill="none" stroke="midnightblue" d="M1315.83,-224.324C1305.43,-216.185 1289.66,-203.839 1277.2,-194.087"/>
<polygon fill="midnightblue" stroke="midnightblue" points="1279.24,-191.241 1269.21,-187.834 1274.92,-196.753 1279.24,-191.241"/>
</g>
<!-- Node40&#45;&gt;Node2 -->
<g id="edge59" class="edge"><title>Node40&#45;&gt;Node2</title>
<path fill="none" stroke="midnightblue" d="M1185.79,-280.427C1182.39,-258.197 1170.14,-198.328 1133.92,-168 1101.95,-141.238 1056.69,-129.876 1018.71,-125.259"/>
<polygon fill="midnightblue" stroke="midnightblue" points="1019.03,-121.773 1008.71,-124.176 1018.28,-128.733 1019.03,-121.773"/>
</g>
<!-- Node40&#45;&gt;Node39 -->
<g id="edge60" class="edge"><title>Node40&#45;&gt;Node39</title>
<path fill="none" stroke="midnightblue" d="M1209.1,-280.444C1232.35,-271.478 1269.07,-257.314 1295.33,-247.183"/>
<polygon fill="midnightblue" stroke="midnightblue" points="1296.77,-250.381 1304.84,-243.516 1294.25,-243.85 1296.77,-250.381"/>
</g>
<!-- Node41&#45;&gt;Node2 -->
<g id="edge62" class="edge"><title>Node41&#45;&gt;Node2</title>
<path fill="none" stroke="midnightblue" d="M1156.87,-336.079C1149.25,-303.633 1121.66,-192.521 1095.92,-168 1075.01,-148.082 1045.59,-136.951 1018.41,-130.743"/>
<polygon fill="midnightblue" stroke="midnightblue" points="1019.02,-127.295 1008.51,-128.671 1017.58,-134.147 1019.02,-127.295"/>
</g>
<!-- Node41&#45;&gt;Node39 -->
<g id="edge63" class="edge"><title>Node41&#45;&gt;Node39</title>
<path fill="none" stroke="midnightblue" d="M1172.1,-336.368C1200.93,-317.492 1269.82,-272.385 1305.18,-249.237"/>
<polygon fill="midnightblue" stroke="midnightblue" points="1307.35,-251.997 1313.8,-243.591 1303.51,-246.141 1307.35,-251.997"/>
</g>
<!-- Node41&#45;&gt;Node40 -->
<g id="edge64" class="edge"><title>Node41&#45;&gt;Node40</title>
<path fill="none" stroke="midnightblue" d="M1163.54,-336.083C1167.37,-328.691 1172.94,-317.953 1177.68,-308.811"/>
<polygon fill="midnightblue" stroke="midnightblue" points="1180.88,-310.24 1182.38,-299.751 1174.67,-307.018 1180.88,-310.24"/>
</g>
</g>
</svg>
