<?xml version="1.0" encoding="UTF-8" standalone="no"?>
<!DOCTYPE svg PUBLIC "-//W3C//DTD SVG 1.1//EN"
 "http://www.w3.org/Graphics/SVG/1.1/DTD/svg11.dtd">
<!-- Generated by graphviz version 2.38.0 (20140413.2041)
 -->
<!-- Title: physicsdef.h Pages: 1 -->
<!--zoomable 532 -->
<svg id="main" version="1.1" xmlns="http://www.w3.org/2000/svg" xmlns:xlink="http://www.w3.org/1999/xlink" xml:space="preserve" onload="init(evt)">
<style type="text/css"><![CDATA[
.edge:hover path { stroke: red; }
.edge:hover polygon { stroke: red; fill: red; }
]]></style>
<script type="text/javascript"><![CDATA[
var edges = document.getElementsByTagName('g');
if (edges && edges.length) {
  for (var i=0;i<edges.length;i++) {
    if (edges[i].id.substr(0,4)=='edge') {
      edges[i].setAttribute('class','edge');
    }
  }
}
]]></script>
        <defs>
                <circle id="rim" cx="0" cy="0" r="7"/>
                <circle id="rim2" cx="0" cy="0" r="3.5"/>
                <g id="zoomPlus">
                        <use xlink:href="#rim" fill="#404040">
                                <set attributeName="fill" to="#808080" begin="zoomplus.mouseover" end="zoomplus.mouseout"/>
                        </use>
                        <path d="M-4,0h8M0,-4v8" fill="none" stroke="white" stroke-width="1.5" pointer-events="none"/>
                </g>
                <g id="zoomMin">
                        <use xlink:href="#rim" fill="#404040">
                                <set attributeName="fill" to="#808080" begin="zoomminus.mouseover" end="zoomminus.mouseout"/>
                        </use>
                        <path d="M-4,0h8" fill="none" stroke="white" stroke-width="1.5" pointer-events="none"/>
                </g>
                <g id="dirArrow">
                        <path fill="none" stroke="white" stroke-width="1.5" d="M0,-3.0v7 M-2.5,-0.5L0,-3.0L2.5,-0.5"/>
                </g>
               <g id="resetDef">
                       <use xlink:href="#rim2" fill="#404040">
                               <set attributeName="fill" to="#808080" begin="reset.mouseover" end="reset.mouseout"/>
                       </use>
               </g>
        </defs>

<script type="text/javascript">
var viewWidth = 1869;
var viewHeight = 532;
var sectionId = 'dynsection-0';
</script>
<script xlink:href="svgpan.js"/>
<svg id="graph" class="graph">
<g id="viewport">
<title>physicsdef.h</title>
<polygon fill="white" stroke="none" points="-4,4 -4,-528 1864.5,-528 1864.5,4 -4,4"/>
<!-- Node1 -->
<g id="node1" class="node"><title>Node1</title>
<polygon fill="#bfbfbf" stroke="black" points="1185.5,-504.5 1185.5,-523.5 1257.5,-523.5 1257.5,-504.5 1185.5,-504.5"/>
<text text-anchor="middle" x="1221.5" y="-511.5" font-family="Helvetica,sans-Serif" font-size="10.00">physicsdef.h</text>
</g>
<!-- Node2 -->
<g id="node2" class="node"><title>Node2</title>
<g id="a_node2"><a xlink:href="config_cosmos_8h.html" target="_top" xlink:title="Headers and definitions common to all COSMOS. ">
<polygon fill="white" stroke="black" points="1029,-112.5 1029,-131.5 1152,-131.5 1152,-112.5 1029,-112.5"/>
<text text-anchor="middle" x="1090.5" y="-119.5" font-family="Helvetica,sans-Serif" font-size="10.00">support/configCosmos.h</text>
</a>
</g>
</g>
<!-- Node1&#45;&gt;Node2 -->
<g id="edge1" class="edge"><title>Node1&#45;&gt;Node2</title>
<path fill="none" stroke="midnightblue" d="M1185.28,-508.972C1128.89,-500.469 1026.5,-475.102 1026.5,-403 1026.5,-403 1026.5,-403 1026.5,-233 1026.5,-195.327 1054.89,-159.04 1073.85,-139.005"/>
<polygon fill="midnightblue" stroke="midnightblue" points="1076.54,-141.27 1081.06,-131.689 1071.55,-136.36 1076.54,-141.27"/>
</g>
<!-- Node35 -->
<g id="node35" class="node"><title>Node35</title>
<g id="a_node35"><a xlink:href="vector_8h.html" target="_top" xlink:title="math/vector.h">
<polygon fill="white" stroke="black" points="1426,-224.5 1426,-243.5 1503,-243.5 1503,-224.5 1426,-224.5"/>
<text text-anchor="middle" x="1464.5" y="-231.5" font-family="Helvetica,sans-Serif" font-size="10.00">math/vector.h</text>
</a>
</g>
</g>
<!-- Node1&#45;&gt;Node35 -->
<g id="edge43" class="edge"><title>Node1&#45;&gt;Node35</title>
<path fill="none" stroke="midnightblue" d="M1257.66,-506.714C1333.55,-492.493 1502.5,-454.997 1502.5,-403 1502.5,-403 1502.5,-403 1502.5,-345 1502.5,-310.813 1485.9,-273.764 1474.64,-252.571"/>
<polygon fill="midnightblue" stroke="midnightblue" points="1477.68,-250.832 1469.78,-243.769 1471.55,-254.215 1477.68,-250.832"/>
</g>
<!-- Node37 -->
<g id="node37" class="node"><title>Node37</title>
<g id="a_node37"><a xlink:href="convertdef_8h.html" target="_top" xlink:title="support/convertdef.h">
<polygon fill="white" stroke="black" points="1168.5,-448.5 1168.5,-467.5 1274.5,-467.5 1274.5,-448.5 1168.5,-448.5"/>
<text text-anchor="middle" x="1221.5" y="-455.5" font-family="Helvetica,sans-Serif" font-size="10.00">support/convertdef.h</text>
</a>
</g>
</g>
<!-- Node1&#45;&gt;Node37 -->
<g id="edge52" class="edge"><title>Node1&#45;&gt;Node37</title>
<path fill="none" stroke="midnightblue" d="M1221.5,-504.083C1221.5,-497.006 1221.5,-486.861 1221.5,-477.986"/>
<polygon fill="midnightblue" stroke="midnightblue" points="1225,-477.751 1221.5,-467.751 1218,-477.751 1225,-477.751"/>
</g>
<!-- Node3 -->
<g id="node3" class="node"><title>Node3</title>
<polygon fill="white" stroke="#bfbfbf" points="1288,-56.5 1288,-75.5 1333,-75.5 1333,-56.5 1288,-56.5"/>
<text text-anchor="middle" x="1310.5" y="-63.5" font-family="Helvetica,sans-Serif" font-size="10.00">climits</text>
</g>
<!-- Node2&#45;&gt;Node3 -->
<g id="edge2" class="edge"><title>Node2&#45;&gt;Node3</title>
<path fill="none" stroke="midnightblue" d="M1125.36,-112.444C1167.36,-102.135 1237.35,-84.9561 1278.18,-74.934"/>
<polygon fill="midnightblue" stroke="midnightblue" points="1279.02,-78.3317 1287.89,-72.5488 1277.35,-71.5335 1279.02,-78.3317"/>
</g>
<!-- Node4 -->
<g id="node4" class="node"><title>Node4</title>
<polygon fill="white" stroke="#bfbfbf" points="1351,-56.5 1351,-75.5 1398,-75.5 1398,-56.5 1351,-56.5"/>
<text text-anchor="middle" x="1374.5" y="-63.5" font-family="Helvetica,sans-Serif" font-size="10.00">csignal</text>
</g>
<!-- Node2&#45;&gt;Node4 -->
<g id="edge3" class="edge"><title>Node2&#45;&gt;Node4</title>
<path fill="none" stroke="midnightblue" d="M1146.12,-112.484C1194.98,-104.674 1268.16,-92.1799 1340.97,-75.951"/>
<polygon fill="midnightblue" stroke="midnightblue" points="1341.78,-79.3549 1350.77,-73.7426 1340.25,-72.526 1341.78,-79.3549"/>
</g>
<!-- Node5 -->
<g id="node5" class="node"><title>Node5</title>
<polygon fill="white" stroke="#bfbfbf" points="1612.5,-56.5 1612.5,-75.5 1658.5,-75.5 1658.5,-56.5 1612.5,-56.5"/>
<text text-anchor="middle" x="1635.5" y="-63.5" font-family="Helvetica,sans-Serif" font-size="10.00">cstdint</text>
</g>
<!-- Node2&#45;&gt;Node5 -->
<g id="edge4" class="edge"><title>Node2&#45;&gt;Node5</title>
<path fill="none" stroke="midnightblue" d="M1152.26,-118.524C1248.26,-114.003 1438.85,-102.335 1598.5,-76 1599.75,-75.7942 1601.02,-75.569 1602.29,-75.3283"/>
<polygon fill="midnightblue" stroke="midnightblue" points="1603.06,-78.743 1612.12,-73.2486 1601.61,-71.8947 1603.06,-78.743"/>
</g>
<!-- Node6 -->
<g id="node6" class="node"><title>Node6</title>
<polygon fill="white" stroke="#bfbfbf" points="353.5,-56.5 353.5,-75.5 409.5,-75.5 409.5,-56.5 353.5,-56.5"/>
<text text-anchor="middle" x="381.5" y="-63.5" font-family="Helvetica,sans-Serif" font-size="10.00">cinttypes</text>
</g>
<!-- Node2&#45;&gt;Node6 -->
<g id="edge5" class="edge"><title>Node2&#45;&gt;Node6</title>
<path fill="none" stroke="midnightblue" d="M1028.96,-120.404C911.966,-118.504 649.383,-110.572 419.894,-75.9453"/>
<polygon fill="midnightblue" stroke="midnightblue" points="420.096,-72.4356 409.682,-74.3833 419.038,-79.3551 420.096,-72.4356"/>
</g>
<!-- Node7 -->
<g id="node7" class="node"><title>Node7</title>
<polygon fill="white" stroke="#bfbfbf" points="428,-56.5 428,-75.5 471,-75.5 471,-56.5 428,-56.5"/>
<text text-anchor="middle" x="449.5" y="-63.5" font-family="Helvetica,sans-Serif" font-size="10.00">cstdio</text>
</g>
<!-- Node2&#45;&gt;Node7 -->
<g id="edge6" class="edge"><title>Node2&#45;&gt;Node7</title>
<path fill="none" stroke="midnightblue" d="M1028.8,-120.877C919.692,-119.699 685.673,-112.852 481.335,-75.9815"/>
<polygon fill="midnightblue" stroke="midnightblue" points="481.787,-72.5061 471.32,-74.1457 480.525,-79.3914 481.787,-72.5061"/>
</g>
<!-- Node8 -->
<g id="node8" class="node"><title>Node8</title>
<polygon fill="white" stroke="#bfbfbf" points="489,-56.5 489,-75.5 538,-75.5 538,-56.5 489,-56.5"/>
<text text-anchor="middle" x="513.5" y="-63.5" font-family="Helvetica,sans-Serif" font-size="10.00">cstddef</text>
</g>
<!-- Node2&#45;&gt;Node8 -->
<g id="edge7" class="edge"><title>Node2&#45;&gt;Node8</title>
<path fill="none" stroke="midnightblue" d="M1028.84,-119.581C929.318,-116.484 727.102,-106.858 548.111,-76.0007"/>
<polygon fill="midnightblue" stroke="midnightblue" points="548.709,-72.5523 538.256,-74.2758 547.502,-79.4475 548.709,-72.5523"/>
</g>
<!-- Node9 -->
<g id="node9" class="node"><title>Node9</title>
<polygon fill="white" stroke="#bfbfbf" points="556,-56.5 556,-75.5 601,-75.5 601,-56.5 556,-56.5"/>
<text text-anchor="middle" x="578.5" y="-63.5" font-family="Helvetica,sans-Serif" font-size="10.00">cstdlib</text>
</g>
<!-- Node2&#45;&gt;Node9 -->
<g id="edge8" class="edge"><title>Node2&#45;&gt;Node9</title>
<path fill="none" stroke="midnightblue" d="M1028.63,-118.772C938.709,-114.748 766.627,-104.086 611.311,-75.7928"/>
<polygon fill="midnightblue" stroke="midnightblue" points="611.576,-72.2825 601.106,-73.9036 610.302,-79.1655 611.576,-72.2825"/>
</g>
<!-- Node10 -->
<g id="node10" class="node"><title>Node10</title>
<polygon fill="white" stroke="#bfbfbf" points="619.5,-56.5 619.5,-75.5 663.5,-75.5 663.5,-56.5 619.5,-56.5"/>
<text text-anchor="middle" x="641.5" y="-63.5" font-family="Helvetica,sans-Serif" font-size="10.00">cerrno</text>
</g>
<!-- Node2&#45;&gt;Node10 -->
<g id="edge9" class="edge"><title>Node2&#45;&gt;Node10</title>
<path fill="none" stroke="midnightblue" d="M1028.72,-117.743C948.706,-112.773 804.872,-101.281 673.569,-75.8939"/>
<polygon fill="midnightblue" stroke="midnightblue" points="674.223,-72.4556 663.736,-73.9617 672.873,-79.3242 674.223,-72.4556"/>
</g>
<!-- Node11 -->
<g id="node11" class="node"><title>Node11</title>
<polygon fill="white" stroke="#bfbfbf" points="681.5,-56.5 681.5,-75.5 727.5,-75.5 727.5,-56.5 681.5,-56.5"/>
<text text-anchor="middle" x="704.5" y="-63.5" font-family="Helvetica,sans-Serif" font-size="10.00">cstring</text>
</g>
<!-- Node2&#45;&gt;Node11 -->
<g id="edge10" class="edge"><title>Node2&#45;&gt;Node11</title>
<path fill="none" stroke="midnightblue" d="M1028.97,-115.958C960.152,-109.697 845.263,-97.3905 737.857,-76.0172"/>
<polygon fill="midnightblue" stroke="midnightblue" points="738.317,-72.5394 727.821,-73.9889 736.93,-79.4006 738.317,-72.5394"/>
</g>
<!-- Node12 -->
<g id="node12" class="node"><title>Node12</title>
<polygon fill="white" stroke="#bfbfbf" points="1744.5,-56.5 1744.5,-75.5 1788.5,-75.5 1788.5,-56.5 1744.5,-56.5"/>
<text text-anchor="middle" x="1766.5" y="-63.5" font-family="Helvetica,sans-Serif" font-size="10.00">cmath</text>
</g>
<!-- Node2&#45;&gt;Node12 -->
<g id="edge11" class="edge"><title>Node2&#45;&gt;Node12</title>
<path fill="none" stroke="midnightblue" d="M1152.4,-121.042C1266.18,-120.171 1516.15,-113.856 1734.25,-75.8396"/>
<polygon fill="midnightblue" stroke="midnightblue" points="1735.05,-79.2532 1744.28,-74.0642 1733.83,-72.3603 1735.05,-79.2532"/>
</g>
<!-- Node13 -->
<g id="node13" class="node"><title>Node13</title>
<polygon fill="white" stroke="#bfbfbf" points="746,-56.5 746,-75.5 791,-75.5 791,-56.5 746,-56.5"/>
<text text-anchor="middle" x="768.5" y="-63.5" font-family="Helvetica,sans-Serif" font-size="10.00">iosfwd</text>
</g>
<!-- Node2&#45;&gt;Node13 -->
<g id="edge12" class="edge"><title>Node2&#45;&gt;Node13</title>
<path fill="none" stroke="midnightblue" d="M1028.72,-113.603C971.985,-106.314 885.441,-93.952 801.142,-75.9019"/>
<polygon fill="midnightblue" stroke="midnightblue" points="801.656,-72.4321 791.141,-73.7311 800.171,-79.2728 801.656,-72.4321"/>
</g>
<!-- Node14 -->
<g id="node14" class="node"><title>Node14</title>
<polygon fill="white" stroke="#bfbfbf" points="1806.5,-56.5 1806.5,-75.5 1860.5,-75.5 1860.5,-56.5 1806.5,-56.5"/>
<text text-anchor="middle" x="1833.5" y="-63.5" font-family="Helvetica,sans-Serif" font-size="10.00">iostream</text>
</g>
<!-- Node2&#45;&gt;Node14 -->
<g id="edge13" class="edge"><title>Node2&#45;&gt;Node14</title>
<path fill="none" stroke="midnightblue" d="M1152.38,-120.821C1274.13,-119.653 1553.35,-112.945 1796.4,-75.8726"/>
<polygon fill="midnightblue" stroke="midnightblue" points="1797.13,-79.3002 1806.48,-74.3134 1796.06,-72.3824 1797.13,-79.3002"/>
</g>
<!-- Node15 -->
<g id="node15" class="node"><title>Node15</title>
<polygon fill="white" stroke="#bfbfbf" points="809.5,-56.5 809.5,-75.5 861.5,-75.5 861.5,-56.5 809.5,-56.5"/>
<text text-anchor="middle" x="835.5" y="-63.5" font-family="Helvetica,sans-Serif" font-size="10.00">sstream</text>
</g>
<!-- Node2&#45;&gt;Node15 -->
<g id="edge14" class="edge"><title>Node2&#45;&gt;Node15</title>
<path fill="none" stroke="midnightblue" d="M1045.27,-112.434C1002.87,-104.251 937.484,-91.2387 871.932,-76.247"/>
<polygon fill="midnightblue" stroke="midnightblue" points="872.369,-72.7561 861.839,-73.923 870.798,-79.5776 872.369,-72.7561"/>
</g>
<!-- Node16 -->
<g id="node16" class="node"><title>Node16</title>
<polygon fill="white" stroke="#bfbfbf" points="880,-56.5 880,-75.5 921,-75.5 921,-56.5 880,-56.5"/>
<text text-anchor="middle" x="900.5" y="-63.5" font-family="Helvetica,sans-Serif" font-size="10.00">regex</text>
</g>
<!-- Node2&#45;&gt;Node16 -->
<g id="edge15" class="edge"><title>Node2&#45;&gt;Node16</title>
<path fill="none" stroke="midnightblue" d="M1058.96,-112.468C1028.41,-104.143 980.559,-90.9377 930.728,-76.309"/>
<polygon fill="midnightblue" stroke="midnightblue" points="931.655,-72.9333 921.073,-73.4638 929.676,-79.6478 931.655,-72.9333"/>
</g>
<!-- Node17 -->
<g id="node17" class="node"><title>Node17</title>
<polygon fill="white" stroke="#bfbfbf" points="1676.5,-56.5 1676.5,-75.5 1726.5,-75.5 1726.5,-56.5 1676.5,-56.5"/>
<text text-anchor="middle" x="1701.5" y="-63.5" font-family="Helvetica,sans-Serif" font-size="10.00">iomanip</text>
</g>
<!-- Node2&#45;&gt;Node17 -->
<g id="edge16" class="edge"><title>Node2&#45;&gt;Node17</title>
<path fill="none" stroke="midnightblue" d="M1152.01,-119.848C1256.17,-117.101 1473.91,-107.921 1666.35,-75.8888"/>
<polygon fill="midnightblue" stroke="midnightblue" points="1667.08,-79.314 1676.36,-74.1971 1665.92,-72.4118 1667.08,-79.314"/>
</g>
<!-- Node18 -->
<g id="node18" class="node"><title>Node18</title>
<polygon fill="white" stroke="#bfbfbf" points="939,-56.5 939,-75.5 990,-75.5 990,-56.5 939,-56.5"/>
<text text-anchor="middle" x="964.5" y="-63.5" font-family="Helvetica,sans-Serif" font-size="10.00">unistd.h</text>
</g>
<!-- Node2&#45;&gt;Node18 -->
<g id="edge17" class="edge"><title>Node2&#45;&gt;Node18</title>
<path fill="none" stroke="midnightblue" d="M1070.53,-112.444C1049.89,-103.596 1017.44,-89.6875 993.868,-79.5865"/>
<polygon fill="midnightblue" stroke="midnightblue" points="994.942,-76.2387 984.372,-75.5164 992.184,-82.6727 994.942,-76.2387"/>
</g>
<!-- Node19 -->
<g id="node19" class="node"><title>Node19</title>
<polygon fill="white" stroke="#bfbfbf" points="1008.5,-56.5 1008.5,-75.5 1052.5,-75.5 1052.5,-56.5 1008.5,-56.5"/>
<text text-anchor="middle" x="1030.5" y="-63.5" font-family="Helvetica,sans-Serif" font-size="10.00">fcntl.h</text>
</g>
<!-- Node2&#45;&gt;Node19 -->
<g id="edge18" class="edge"><title>Node2&#45;&gt;Node19</title>
<path fill="none" stroke="midnightblue" d="M1080.86,-112.324C1071.99,-104.341 1058.63,-92.3128 1047.89,-82.6529"/>
<polygon fill="midnightblue" stroke="midnightblue" points="1050.09,-79.922 1040.32,-75.8339 1045.41,-85.1251 1050.09,-79.922"/>
</g>
<!-- Node20 -->
<g id="node20" class="node"><title>Node20</title>
<polygon fill="white" stroke="#bfbfbf" points="1070.5,-56.5 1070.5,-75.5 1110.5,-75.5 1110.5,-56.5 1070.5,-56.5"/>
<text text-anchor="middle" x="1090.5" y="-63.5" font-family="Helvetica,sans-Serif" font-size="10.00">limits</text>
</g>
<!-- Node2&#45;&gt;Node20 -->
<g id="edge19" class="edge"><title>Node2&#45;&gt;Node20</title>
<path fill="none" stroke="midnightblue" d="M1090.5,-112.083C1090.5,-105.006 1090.5,-94.8611 1090.5,-85.9865"/>
<polygon fill="midnightblue" stroke="midnightblue" points="1094,-85.751 1090.5,-75.7511 1087,-85.7511 1094,-85.751"/>
</g>
<!-- Node21 -->
<g id="node21" class="node"><title>Node21</title>
<polygon fill="white" stroke="#bfbfbf" points="1603,-0.5 1603,-19.5 1644,-19.5 1644,-0.5 1603,-0.5"/>
<text text-anchor="middle" x="1623.5" y="-7.5" font-family="Helvetica,sans-Serif" font-size="10.00">string</text>
</g>
<!-- Node2&#45;&gt;Node21 -->
<g id="edge20" class="edge"><title>Node2&#45;&gt;Node21</title>
<path fill="none" stroke="midnightblue" d="M1152.29,-120.688C1264.04,-119.222 1494.73,-111.804 1565.5,-76 1586.51,-65.3708 1603.42,-43.6296 1613.44,-28.2233"/>
<polygon fill="midnightblue" stroke="midnightblue" points="1616.49,-29.9518 1618.77,-19.6053 1610.53,-26.2714 1616.49,-29.9518"/>
</g>
<!-- Node22 -->
<g id="node22" class="node"><title>Node22</title>
<polygon fill="white" stroke="#bfbfbf" points="1379.5,-0.5 1379.5,-19.5 1423.5,-19.5 1423.5,-0.5 1379.5,-0.5"/>
<text text-anchor="middle" x="1401.5" y="-7.5" font-family="Helvetica,sans-Serif" font-size="10.00">vector</text>
</g>
<!-- Node2&#45;&gt;Node22 -->
<g id="edge21" class="edge"><title>Node2&#45;&gt;Node22</title>
<path fill="none" stroke="midnightblue" d="M1152.32,-121.38C1234.82,-120.415 1374.27,-113.146 1406.5,-76 1417.48,-63.3427 1414.09,-43.5834 1409.27,-29.1712"/>
<polygon fill="midnightblue" stroke="midnightblue" points="1412.53,-27.898 1405.7,-19.8 1405.99,-30.3908 1412.53,-27.898"/>
</g>
<!-- Node23 -->
<g id="node23" class="node"><title>Node23</title>
<polygon fill="white" stroke="#bfbfbf" points="1129,-56.5 1129,-75.5 1170,-75.5 1170,-56.5 1129,-56.5"/>
<text text-anchor="middle" x="1149.5" y="-63.5" font-family="Helvetica,sans-Serif" font-size="10.00">stack</text>
</g>
<!-- Node2&#45;&gt;Node23 -->
<g id="edge22" class="edge"><title>Node2&#45;&gt;Node23</title>
<path fill="none" stroke="midnightblue" d="M1099.98,-112.324C1108.7,-104.341 1121.84,-92.3128 1132.4,-82.6529"/>
<polygon fill="midnightblue" stroke="midnightblue" points="1134.83,-85.1674 1139.85,-75.8339 1130.11,-80.0036 1134.83,-85.1674"/>
</g>
<!-- Node24 -->
<g id="node24" class="node"><title>Node24</title>
<polygon fill="white" stroke="#bfbfbf" points="1188,-56.5 1188,-75.5 1231,-75.5 1231,-56.5 1188,-56.5"/>
<text text-anchor="middle" x="1209.5" y="-63.5" font-family="Helvetica,sans-Serif" font-size="10.00">deque</text>
</g>
<!-- Node2&#45;&gt;Node24 -->
<g id="edge23" class="edge"><title>Node2&#45;&gt;Node24</title>
<path fill="none" stroke="midnightblue" d="M1109.36,-112.444C1128.77,-103.636 1159.23,-89.8116 1181.46,-79.722"/>
<polygon fill="midnightblue" stroke="midnightblue" points="1183.07,-82.836 1190.73,-75.5164 1180.18,-76.4615 1183.07,-82.836"/>
</g>
<!-- Node25 -->
<g id="node25" class="node"><title>Node25</title>
<polygon fill="white" stroke="#bfbfbf" points="174.5,-0.5 174.5,-19.5 218.5,-19.5 218.5,-0.5 174.5,-0.5"/>
<text text-anchor="middle" x="196.5" y="-7.5" font-family="Helvetica,sans-Serif" font-size="10.00">mutex</text>
</g>
<!-- Node2&#45;&gt;Node25 -->
<g id="edge24" class="edge"><title>Node2&#45;&gt;Node25</title>
<path fill="none" stroke="midnightblue" d="M1028.98,-120.288C828.014,-117.663 202.037,-107.021 172.5,-76 159.86,-62.7254 170.77,-42.225 181.673,-27.8036"/>
<polygon fill="midnightblue" stroke="midnightblue" points="184.649,-29.6925 188.251,-19.7287 179.221,-25.2717 184.649,-29.6925"/>
</g>
<!-- Node26 -->
<g id="node26" class="node"><title>Node26</title>
<polygon fill="white" stroke="#bfbfbf" points="282.5,-0.5 282.5,-19.5 326.5,-19.5 326.5,-0.5 282.5,-0.5"/>
<text text-anchor="middle" x="304.5" y="-7.5" font-family="Helvetica,sans-Serif" font-size="10.00">thread</text>
</g>
<!-- Node2&#45;&gt;Node26 -->
<g id="edge25" class="edge"><title>Node2&#45;&gt;Node26</title>
<path fill="none" stroke="midnightblue" d="M1152.11,-113.972C1205.79,-105.539 1270.54,-88.3047 1239.5,-56 1206.03,-21.1748 447.942,-27.4851 336.94,-19.2287"/>
<polygon fill="midnightblue" stroke="midnightblue" points="337.016,-15.7173 326.703,-18.1459 336.279,-22.6785 337.016,-15.7173"/>
</g>
<!-- Node27 -->
<g id="node27" class="node"><title>Node27</title>
<polygon fill="white" stroke="#bfbfbf" points="0,-0.5 0,-19.5 95,-19.5 95,-0.5 0,-0.5"/>
<text text-anchor="middle" x="47.5" y="-7.5" font-family="Helvetica,sans-Serif" font-size="10.00">condition_variable</text>
</g>
<!-- Node2&#45;&gt;Node27 -->
<g id="edge26" class="edge"><title>Node2&#45;&gt;Node27</title>
<path fill="none" stroke="midnightblue" d="M1028.8,-120.003C831.963,-116.556 227.002,-103.795 143.5,-76 112.482,-65.675 82.1792,-42.2865 64.1705,-26.5673"/>
<polygon fill="midnightblue" stroke="midnightblue" points="66.146,-23.6371 56.3681,-19.5575 61.4678,-28.8442 66.146,-23.6371"/>
</g>
<!-- Node28 -->
<g id="node28" class="node"><title>Node28</title>
<polygon fill="white" stroke="#bfbfbf" points="113,-0.5 113,-19.5 156,-19.5 156,-0.5 113,-0.5"/>
<text text-anchor="middle" x="134.5" y="-7.5" font-family="Helvetica,sans-Serif" font-size="10.00">queue</text>
</g>
<!-- Node2&#45;&gt;Node28 -->
<g id="edge27" class="edge"><title>Node2&#45;&gt;Node28</title>
<path fill="none" stroke="midnightblue" d="M1028.83,-119.773C827.334,-115.535 199.202,-100.416 163.5,-76 148.07,-65.4474 140.749,-44.6679 137.342,-29.4337"/>
<polygon fill="midnightblue" stroke="midnightblue" points="140.771,-28.7324 135.493,-19.5463 133.891,-30.0194 140.771,-28.7324"/>
</g>
<!-- Node29 -->
<g id="node29" class="node"><title>Node29</title>
<polygon fill="white" stroke="#bfbfbf" points="345,-0.5 345,-19.5 380,-19.5 380,-0.5 345,-0.5"/>
<text text-anchor="middle" x="362.5" y="-7.5" font-family="Helvetica,sans-Serif" font-size="10.00">map</text>
</g>
<!-- Node2&#45;&gt;Node29 -->
<g id="edge28" class="edge"><title>Node2&#45;&gt;Node29</title>
<path fill="none" stroke="midnightblue" d="M1028.85,-119.558C854.304,-115.176 367.833,-100.783 344.5,-76 332.385,-63.1319 340.813,-42.8421 349.772,-28.3555"/>
<polygon fill="midnightblue" stroke="midnightblue" points="352.843,-30.06 355.525,-19.8101 347.037,-26.1508 352.843,-30.06"/>
</g>
<!-- Node30 -->
<g id="node30" class="node"><title>Node30</title>
<g id="a_node30"><a xlink:href="cosmos-defs_8h.html" target="_top" xlink:title="COSMOS definitions Definitions specific to the COSMOS environement. ">
<polygon fill="white" stroke="black" points="181.5,-56.5 181.5,-75.5 297.5,-75.5 297.5,-56.5 181.5,-56.5"/>
<text text-anchor="middle" x="239.5" y="-63.5" font-family="Helvetica,sans-Serif" font-size="10.00">support/cosmos&#45;defs.h</text>
</a>
</g>
</g>
<!-- Node2&#45;&gt;Node30 -->
<g id="edge29" class="edge"><title>Node2&#45;&gt;Node30</title>
<path fill="none" stroke="midnightblue" d="M1028.8,-118.834C896.924,-113.899 577.943,-100.321 311.5,-76 310.23,-75.8841 308.947,-75.7632 307.656,-75.638"/>
<polygon fill="midnightblue" stroke="midnightblue" points="307.929,-72.1477 297.623,-74.6028 307.211,-79.1108 307.929,-72.1477"/>
</g>
<!-- Node32 -->
<g id="node32" class="node"><title>Node32</title>
<g id="a_node32"><a xlink:href="json11_8hpp.html" target="_top" xlink:title="json11.hpp">
<polygon fill="white" stroke="black" points="1492.5,-56.5 1492.5,-75.5 1556.5,-75.5 1556.5,-56.5 1492.5,-56.5"/>
<text text-anchor="middle" x="1524.5" y="-63.5" font-family="Helvetica,sans-Serif" font-size="10.00">json11.hpp</text>
</a>
</g>
</g>
<!-- Node2&#45;&gt;Node32 -->
<g id="edge37" class="edge"><title>Node2&#45;&gt;Node32</title>
<path fill="none" stroke="midnightblue" d="M1152.22,-113.32C1241.62,-102.196 1404.88,-81.8841 1482,-72.2886"/>
<polygon fill="midnightblue" stroke="midnightblue" points="1482.8,-75.7158 1492.29,-71.0078 1481.93,-68.7694 1482.8,-75.7158"/>
</g>
<!-- Node30&#45;&gt;Node22 -->
<g id="edge31" class="edge"><title>Node30&#45;&gt;Node22</title>
<path fill="none" stroke="midnightblue" d="M297.508,-59.5793C312.783,-58.2748 329.254,-56.9775 344.5,-56 748.315,-30.1098 1239.9,-15.454 1369.14,-11.8705"/>
<polygon fill="midnightblue" stroke="midnightblue" points="1369.27,-15.3684 1379.17,-11.5946 1369.07,-8.37103 1369.27,-15.3684"/>
</g>
<!-- Node30&#45;&gt;Node25 -->
<g id="edge35" class="edge"><title>Node30&#45;&gt;Node25</title>
<path fill="none" stroke="midnightblue" d="M232.399,-56.083C226.263,-48.3768 217.23,-37.0333 209.761,-27.6531"/>
<polygon fill="midnightblue" stroke="midnightblue" points="212.436,-25.3936 203.468,-19.7511 206.96,-29.7542 212.436,-25.3936"/>
</g>
<!-- Node30&#45;&gt;Node26 -->
<g id="edge34" class="edge"><title>Node30&#45;&gt;Node26</title>
<path fill="none" stroke="midnightblue" d="M249.943,-56.324C259.646,-48.2631 274.315,-36.0765 286,-26.3695"/>
<polygon fill="midnightblue" stroke="midnightblue" points="288.411,-28.9163 293.867,-19.8339 283.938,-23.532 288.411,-28.9163"/>
</g>
<!-- Node30&#45;&gt;Node27 -->
<g id="edge36" class="edge"><title>Node30&#45;&gt;Node27</title>
<path fill="none" stroke="midnightblue" d="M209.077,-56.4435C176.215,-47.2011 123.715,-32.4356 87.5256,-22.2572"/>
<polygon fill="midnightblue" stroke="midnightblue" points="88.3548,-18.8547 77.7806,-19.5164 86.4595,-25.5932 88.3548,-18.8547"/>
</g>
<!-- Node30&#45;&gt;Node28 -->
<g id="edge33" class="edge"><title>Node30&#45;&gt;Node28</title>
<path fill="none" stroke="midnightblue" d="M222.63,-56.324C205.791,-47.6641 179.693,-34.2424 160.262,-24.249"/>
<polygon fill="midnightblue" stroke="midnightblue" points="161.822,-21.1155 151.328,-19.6545 158.62,-27.3405 161.822,-21.1155"/>
</g>
<!-- Node30&#45;&gt;Node29 -->
<g id="edge30" class="edge"><title>Node30&#45;&gt;Node29</title>
<path fill="none" stroke="midnightblue" d="M258.99,-56.4435C279.616,-47.3879 312.32,-33.0302 335.44,-22.8799"/>
<polygon fill="midnightblue" stroke="midnightblue" points="336.949,-26.0398 344.699,-18.8151 334.136,-19.6303 336.949,-26.0398"/>
</g>
<!-- Node31 -->
<g id="node31" class="node"><title>Node31</title>
<polygon fill="white" stroke="#bfbfbf" points="236,-0.5 236,-19.5 265,-19.5 265,-0.5 236,-0.5"/>
<text text-anchor="middle" x="250.5" y="-7.5" font-family="Helvetica,sans-Serif" font-size="10.00">list</text>
</g>
<!-- Node30&#45;&gt;Node31 -->
<g id="edge32" class="edge"><title>Node30&#45;&gt;Node31</title>
<path fill="none" stroke="midnightblue" d="M241.316,-56.083C242.774,-48.9272 244.871,-38.6353 246.693,-29.6911"/>
<polygon fill="midnightblue" stroke="midnightblue" points="250.151,-30.2485 248.717,-19.7511 243.292,-28.8512 250.151,-30.2485"/>
</g>
<!-- Node32&#45;&gt;Node21 -->
<g id="edge38" class="edge"><title>Node32&#45;&gt;Node21</title>
<path fill="none" stroke="midnightblue" d="M1540.41,-56.324C1556.14,-47.7428 1580.44,-34.486 1598.71,-24.5224"/>
<polygon fill="midnightblue" stroke="midnightblue" points="1600.53,-27.5157 1607.63,-19.6545 1597.18,-21.3704 1600.53,-27.5157"/>
</g>
<!-- Node32&#45;&gt;Node22 -->
<g id="edge39" class="edge"><title>Node32&#45;&gt;Node22</title>
<path fill="none" stroke="midnightblue" d="M1505.01,-56.4435C1484.86,-47.5961 1453.18,-33.6875 1430.17,-23.5865"/>
<polygon fill="midnightblue" stroke="midnightblue" points="1431.46,-20.3316 1420.9,-19.5164 1428.65,-26.7411 1431.46,-20.3316"/>
</g>
<!-- Node32&#45;&gt;Node29 -->
<g id="edge40" class="edge"><title>Node32&#45;&gt;Node29</title>
<path fill="none" stroke="midnightblue" d="M1492.47,-62.2692C1468.74,-60.3168 1435.62,-57.7378 1406.5,-56 1003.03,-31.9244 511.099,-15.671 390.273,-11.8597"/>
<polygon fill="midnightblue" stroke="midnightblue" points="390.16,-8.35456 380.056,-11.5393 389.941,-15.3511 390.16,-8.35456"/>
</g>
<!-- Node33 -->
<g id="node33" class="node"><title>Node33</title>
<polygon fill="white" stroke="#bfbfbf" points="1441.5,-0.5 1441.5,-19.5 1493.5,-19.5 1493.5,-0.5 1441.5,-0.5"/>
<text text-anchor="middle" x="1467.5" y="-7.5" font-family="Helvetica,sans-Serif" font-size="10.00">memory</text>
</g>
<!-- Node32&#45;&gt;Node33 -->
<g id="edge41" class="edge"><title>Node32&#45;&gt;Node33</title>
<path fill="none" stroke="midnightblue" d="M1515.34,-56.324C1507,-48.4196 1494.47,-36.5482 1484.32,-26.9377"/>
<polygon fill="midnightblue" stroke="midnightblue" points="1486.49,-24.1705 1476.82,-19.8339 1481.68,-29.2522 1486.49,-24.1705"/>
</g>
<!-- Node34 -->
<g id="node34" class="node"><title>Node34</title>
<polygon fill="white" stroke="#bfbfbf" points="1512,-0.5 1512,-19.5 1585,-19.5 1585,-0.5 1512,-0.5"/>
<text text-anchor="middle" x="1548.5" y="-7.5" font-family="Helvetica,sans-Serif" font-size="10.00">initializer_list</text>
</g>
<!-- Node32&#45;&gt;Node34 -->
<g id="edge42" class="edge"><title>Node32&#45;&gt;Node34</title>
<path fill="none" stroke="midnightblue" d="M1528.46,-56.083C1531.71,-48.77 1536.42,-38.1814 1540.45,-29.1034"/>
<polygon fill="midnightblue" stroke="midnightblue" points="1543.75,-30.3107 1544.61,-19.7511 1537.35,-27.4677 1543.75,-30.3107"/>
</g>
<!-- Node35&#45;&gt;Node2 -->
<g id="edge44" class="edge"><title>Node35&#45;&gt;Node2</title>
<path fill="none" stroke="midnightblue" d="M1459.55,-224.058C1451.02,-209.578 1432.05,-181.285 1407.5,-168 1366.36,-145.741 1242.3,-133.3 1162.13,-127.388"/>
<polygon fill="midnightblue" stroke="midnightblue" points="1162.32,-123.893 1152.1,-126.665 1161.82,-130.875 1162.32,-123.893"/>
</g>
<!-- Node35&#45;&gt;Node12 -->
<g id="edge50" class="edge"><title>Node35&#45;&gt;Node12</title>
<path fill="none" stroke="midnightblue" d="M1476.85,-224.478C1515.75,-197.666 1633.62,-116.539 1642.5,-112 1658.92,-103.605 1703.77,-87.9601 1734.77,-77.5115"/>
<polygon fill="midnightblue" stroke="midnightblue" points="1735.92,-80.8152 1744.29,-74.3174 1733.7,-74.1784 1735.92,-80.8152"/>
</g>
<!-- Node35&#45;&gt;Node14 -->
<g id="edge48" class="edge"><title>Node35&#45;&gt;Node14</title>
<path fill="none" stroke="midnightblue" d="M1483.56,-224.425C1544.17,-197.159 1732.7,-112.348 1804.93,-79.8506"/>
<polygon fill="midnightblue" stroke="midnightblue" points="1806.65,-82.9182 1814.33,-75.6237 1803.77,-76.5344 1806.65,-82.9182"/>
</g>
<!-- Node35&#45;&gt;Node17 -->
<g id="edge49" class="edge"><title>Node35&#45;&gt;Node17</title>
<path fill="none" stroke="midnightblue" d="M1471.79,-224.262C1490.22,-202.656 1540.9,-146.019 1593.5,-112 1616.28,-97.268 1644.68,-85.6603 1666.64,-77.9263"/>
<polygon fill="midnightblue" stroke="midnightblue" points="1667.91,-81.1936 1676.24,-74.6481 1665.64,-74.5696 1667.91,-81.1936"/>
</g>
<!-- Node35&#45;&gt;Node22 -->
<g id="edge51" class="edge"><title>Node35&#45;&gt;Node22</title>
<path fill="none" stroke="midnightblue" d="M1463.32,-224.309C1459.63,-198.216 1447.13,-118.503 1424.5,-56 1421.1,-46.6159 1416.18,-36.6867 1411.77,-28.5494"/>
<polygon fill="midnightblue" stroke="midnightblue" points="1414.72,-26.6632 1406.76,-19.6697 1408.62,-30.0999 1414.72,-26.6632"/>
</g>
<!-- Node36 -->
<g id="node36" class="node"><title>Node36</title>
<g id="a_node36"><a xlink:href="math_2constants_8h.html" target="_top" xlink:title="constants.h">
<polygon fill="white" stroke="black" points="1330.5,-168.5 1330.5,-187.5 1398.5,-187.5 1398.5,-168.5 1330.5,-168.5"/>
<text text-anchor="middle" x="1364.5" y="-175.5" font-family="Helvetica,sans-Serif" font-size="10.00">constants.h</text>
</a>
</g>
</g>
<!-- Node35&#45;&gt;Node36 -->
<g id="edge45" class="edge"><title>Node35&#45;&gt;Node36</title>
<path fill="none" stroke="midnightblue" d="M1448.43,-224.324C1432.54,-215.743 1407.99,-202.486 1389.54,-192.522"/>
<polygon fill="midnightblue" stroke="midnightblue" points="1390.99,-189.326 1380.53,-187.655 1387.66,-195.486 1390.99,-189.326"/>
</g>
<!-- Node36&#45;&gt;Node2 -->
<g id="edge46" class="edge"><title>Node36&#45;&gt;Node2</title>
<path fill="none" stroke="midnightblue" d="M1330.35,-170.27C1283.49,-161.034 1198.79,-144.341 1143.61,-133.467"/>
<polygon fill="midnightblue" stroke="midnightblue" points="1144.15,-130.007 1133.66,-131.507 1142.8,-136.875 1144.15,-130.007"/>
</g>
<!-- Node36&#45;&gt;Node5 -->
<g id="edge47" class="edge"><title>Node36&#45;&gt;Node5</title>
<path fill="none" stroke="midnightblue" d="M1385.76,-168.368C1433.55,-148.97 1549.59,-101.87 1605.03,-79.3673"/>
<polygon fill="midnightblue" stroke="midnightblue" points="1606.38,-82.5955 1614.33,-75.5914 1603.75,-76.1095 1606.38,-82.5955"/>
</g>
<!-- Node37&#45;&gt;Node2 -->
<g id="edge53" class="edge"><title>Node37&#45;&gt;Node2</title>
<path fill="none" stroke="midnightblue" d="M1184.29,-448.424C1137.87,-435.259 1064.5,-405.242 1064.5,-347 1064.5,-347 1064.5,-347 1064.5,-233 1064.5,-199.929 1075.77,-162.729 1083.47,-141.168"/>
<polygon fill="midnightblue" stroke="midnightblue" points="1086.79,-142.268 1086.99,-131.675 1080.23,-139.831 1086.79,-142.268"/>
</g>
<!-- Node38 -->
<g id="node38" class="node"><title>Node38</title>
<g id="a_node38"><a xlink:href="mathlib_8h.html" target="_top" xlink:title="mathlib include file ">
<polygon fill="white" stroke="black" points="1295,-392.5 1295,-411.5 1376,-411.5 1376,-392.5 1295,-392.5"/>
<text text-anchor="middle" x="1335.5" y="-399.5" font-family="Helvetica,sans-Serif" font-size="10.00">math/mathlib.h</text>
</a>
</g>
</g>
<!-- Node37&#45;&gt;Node38 -->
<g id="edge54" class="edge"><title>Node37&#45;&gt;Node38</title>
<path fill="none" stroke="midnightblue" d="M1239.56,-448.444C1258.07,-439.675 1287.08,-425.935 1308.36,-415.858"/>
<polygon fill="midnightblue" stroke="midnightblue" points="1309.98,-418.96 1317.52,-411.516 1306.99,-412.634 1309.98,-418.96"/>
</g>
<!-- Node38&#45;&gt;Node2 -->
<g id="edge55" class="edge"><title>Node38&#45;&gt;Node2</title>
<path fill="none" stroke="midnightblue" d="M1294.91,-397.406C1240.07,-391.743 1146.3,-378.954 1121.5,-356 1099.41,-335.554 1102.5,-321.098 1102.5,-291 1102.5,-291 1102.5,-291 1102.5,-233 1102.5,-200.758 1097.34,-163.512 1093.79,-141.681"/>
<polygon fill="midnightblue" stroke="midnightblue" points="1097.19,-140.798 1092.07,-131.523 1090.29,-141.967 1097.19,-140.798"/>
</g>
<!-- Node38&#45;&gt;Node12 -->
<g id="edge68" class="edge"><title>Node38&#45;&gt;Node12</title>
<path fill="none" stroke="midnightblue" d="M1376.31,-397.411C1471.55,-387.91 1700.5,-358.093 1700.5,-291 1700.5,-291 1700.5,-291 1700.5,-177 1700.5,-138.857 1730.04,-102.517 1749.59,-82.6396"/>
<polygon fill="midnightblue" stroke="midnightblue" points="1752.06,-85.1232 1756.76,-75.6282 1747.17,-80.1194 1752.06,-85.1232"/>
</g>
<!-- Node38&#45;&gt;Node14 -->
<g id="edge69" class="edge"><title>Node38&#45;&gt;Node14</title>
<path fill="none" stroke="midnightblue" d="M1376.18,-400.549C1494.06,-398.155 1827.5,-383.23 1827.5,-291 1827.5,-291 1827.5,-291 1827.5,-177 1827.5,-144.9 1830.08,-107.61 1831.86,-85.7319"/>
<polygon fill="midnightblue" stroke="midnightblue" points="1835.36,-85.8083 1832.72,-75.5491 1828.39,-85.2189 1835.36,-85.8083"/>
</g>
<!-- Node38&#45;&gt;Node35 -->
<g id="edge60" class="edge"><title>Node38&#45;&gt;Node35</title>
<path fill="none" stroke="midnightblue" d="M1355.09,-392.351C1370.67,-384.663 1392.15,-372.146 1406.5,-356 1434,-325.054 1451.27,-278.767 1459.26,-253.348"/>
<polygon fill="midnightblue" stroke="midnightblue" points="1462.68,-254.136 1462.2,-243.552 1455.97,-252.123 1462.68,-254.136"/>
</g>
<!-- Node38&#45;&gt;Node36 -->
<g id="edge59" class="edge"><title>Node38&#45;&gt;Node36</title>
<path fill="none" stroke="midnightblue" d="M1345.94,-392.245C1354.92,-383.969 1367.25,-370.663 1372.5,-356 1392.17,-301.105 1378.32,-230.452 1369.81,-197.481"/>
<polygon fill="midnightblue" stroke="midnightblue" points="1373.18,-196.553 1367.18,-187.821 1366.43,-198.389 1373.18,-196.553"/>
</g>
<!-- Node39 -->
<g id="node39" class="node"><title>Node39</title>
<g id="a_node39"><a xlink:href="cosmos-errno_8h.html" target="_top" xlink:title="COSMOS Error Codes. ">
<polygon fill="white" stroke="black" points="1131,-336.5 1131,-355.5 1250,-355.5 1250,-336.5 1131,-336.5"/>
<text text-anchor="middle" x="1190.5" y="-343.5" font-family="Helvetica,sans-Serif" font-size="10.00">support/cosmos&#45;errno.h</text>
</a>
</g>
</g>
<!-- Node38&#45;&gt;Node39 -->
<g id="edge56" class="edge"><title>Node38&#45;&gt;Node39</title>
<path fill="none" stroke="midnightblue" d="M1312.52,-392.444C1288.34,-383.438 1250.08,-369.189 1222.85,-359.049"/>
<polygon fill="midnightblue" stroke="midnightblue" points="1223.96,-355.727 1213.37,-355.516 1221.52,-362.286 1223.96,-355.727"/>
</g>
<!-- Node41 -->
<g id="node41" class="node"><title>Node41</title>
<g id="a_node41"><a xlink:href="matrix_8h.html" target="_top" xlink:title="matrix.h">
<polygon fill="white" stroke="black" points="1300.5,-280.5 1300.5,-299.5 1352.5,-299.5 1352.5,-280.5 1300.5,-280.5"/>
<text text-anchor="middle" x="1326.5" y="-287.5" font-family="Helvetica,sans-Serif" font-size="10.00">matrix.h</text>
</a>
</g>
</g>
<!-- Node38&#45;&gt;Node41 -->
<g id="edge61" class="edge"><title>Node38&#45;&gt;Node41</title>
<path fill="none" stroke="midnightblue" d="M1324.79,-392.305C1315.56,-384.069 1302.91,-370.789 1297.5,-356 1291.36,-339.216 1301.41,-320.651 1311.32,-307.673"/>
<polygon fill="midnightblue" stroke="midnightblue" points="1314.27,-309.604 1317.96,-299.673 1308.88,-305.135 1314.27,-309.604"/>
</g>
<!-- Node42 -->
<g id="node42" class="node"><title>Node42</title>
<g id="a_node42"><a xlink:href="rotation_8h.html" target="_top" xlink:title="rotation.h">
<polygon fill="white" stroke="black" points="1307,-336.5 1307,-355.5 1364,-355.5 1364,-336.5 1307,-336.5"/>
<text text-anchor="middle" x="1335.5" y="-343.5" font-family="Helvetica,sans-Serif" font-size="10.00">rotation.h</text>
</a>
</g>
</g>
<!-- Node38&#45;&gt;Node42 -->
<g id="edge64" class="edge"><title>Node38&#45;&gt;Node42</title>
<path fill="none" stroke="midnightblue" d="M1335.5,-392.083C1335.5,-385.006 1335.5,-374.861 1335.5,-365.986"/>
<polygon fill="midnightblue" stroke="midnightblue" points="1339,-365.751 1335.5,-355.751 1332,-365.751 1339,-365.751"/>
</g>
<!-- Node39&#45;&gt;Node2 -->
<g id="edge57" class="edge"><title>Node39&#45;&gt;Node2</title>
<path fill="none" stroke="midnightblue" d="M1183.27,-336.173C1176.39,-327.429 1166.14,-313.437 1159.5,-300 1132.16,-244.687 1141.63,-224.353 1116.5,-168 1112.27,-158.523 1106.6,-148.48 1101.63,-140.291"/>
<polygon fill="midnightblue" stroke="midnightblue" points="1104.51,-138.303 1096.25,-131.676 1098.58,-142.011 1104.51,-138.303"/>
</g>
<!-- Node40 -->
<g id="node40" class="node"><title>Node40</title>
<polygon fill="white" stroke="#bfbfbf" points="1169,-280.5 1169,-299.5 1216,-299.5 1216,-280.5 1169,-280.5"/>
<text text-anchor="middle" x="1192.5" y="-287.5" font-family="Helvetica,sans-Serif" font-size="10.00">errno.h</text>
</g>
<!-- Node39&#45;&gt;Node40 -->
<g id="edge58" class="edge"><title>Node39&#45;&gt;Node40</title>
<path fill="none" stroke="midnightblue" d="M1190.83,-336.083C1191.09,-329.006 1191.47,-318.861 1191.8,-309.986"/>
<polygon fill="midnightblue" stroke="midnightblue" points="1195.3,-309.874 1192.18,-299.751 1188.31,-309.615 1195.3,-309.874"/>
</g>
<!-- Node41&#45;&gt;Node2 -->
<g id="edge62" class="edge"><title>Node41&#45;&gt;Node2</title>
<path fill="none" stroke="midnightblue" d="M1324.98,-280.433C1320.56,-258.22 1305.64,-198.388 1268.5,-168 1238.86,-143.751 1197.84,-132.351 1162.64,-127.081"/>
<polygon fill="midnightblue" stroke="midnightblue" points="1162.79,-123.568 1152.41,-125.693 1161.85,-130.505 1162.79,-123.568"/>
</g>
<!-- Node41&#45;&gt;Node35 -->
<g id="edge63" class="edge"><title>Node41&#45;&gt;Node35</title>
<path fill="none" stroke="midnightblue" d="M1348.37,-280.444C1371.28,-271.478 1407.48,-257.314 1433.37,-247.183"/>
<polygon fill="midnightblue" stroke="midnightblue" points="1434.7,-250.42 1442.74,-243.516 1432.15,-243.901 1434.7,-250.42"/>
</g>
<!-- Node42&#45;&gt;Node2 -->
<g id="edge65" class="edge"><title>Node42&#45;&gt;Node2</title>
<path fill="none" stroke="midnightblue" d="M1325.9,-336.297C1288.92,-302.796 1155.48,-181.88 1107.68,-138.569"/>
<polygon fill="midnightblue" stroke="midnightblue" points="1109.8,-135.764 1100.04,-131.643 1105.1,-140.951 1109.8,-135.764"/>
</g>
<!-- Node42&#45;&gt;Node35 -->
<g id="edge66" class="edge"><title>Node42&#45;&gt;Node35</title>
<path fill="none" stroke="midnightblue" d="M1345.62,-336.368C1367.48,-317.733 1419.31,-273.532 1446.75,-250.134"/>
<polygon fill="midnightblue" stroke="midnightblue" points="1449.09,-252.743 1454.42,-243.591 1444.54,-247.417 1449.09,-252.743"/>
</g>
<!-- Node42&#45;&gt;Node41 -->
<g id="edge67" class="edge"><title>Node42&#45;&gt;Node41</title>
<path fill="none" stroke="midnightblue" d="M1334.01,-336.083C1332.82,-328.927 1331.11,-318.635 1329.62,-309.691"/>
<polygon fill="midnightblue" stroke="midnightblue" points="1333.05,-309.04 1327.96,-299.751 1326.15,-310.19 1333.05,-309.04"/>
</g>
</g>
</svg>
        <g id="navigator" transform="translate(0 0)" fill="#404254">
                <rect fill="#f2f5e9" fill-opacity="0.5" stroke="#606060" stroke-width=".5" x="0" y="0" width="60" height="60"/>
                <use id="zoomplus" xlink:href="#zoomPlus" x="17" y="9" onmousedown="handleZoom(evt,'in')"/>
                <use id="zoomminus" xlink:href="#zoomMin" x="42" y="9" onmousedown="handleZoom(evt,'out')"/>
                <use id="reset" xlink:href="#resetDef" x="30" y="36" onmousedown="handleReset()"/>
                <g id="arrowUp" xlink:href="#dirArrow" transform="translate(30 24)" onmousedown="handlePan(0,-1)">
                  <use xlink:href="#rim" fill="#404040">
                        <set attributeName="fill" to="#808080" begin="arrowUp.mouseover" end="arrowUp.mouseout"/>
                  </use>
                  <path fill="none" stroke="white" stroke-width="1.5" d="M0,-3.0v7 M-2.5,-0.5L0,-3.0L2.5,-0.5"/>
                </g>
                <g id="arrowRight" xlink:href="#dirArrow" transform="rotate(90) translate(36 -43)" onmousedown="handlePan(1,0)">
                  <use xlink:href="#rim" fill="#404040">
                        <set attributeName="fill" to="#808080" begin="arrowRight.mouseover" end="arrowRight.mouseout"/>
                  </use>
                  <path fill="none" stroke="white" stroke-width="1.5" d="M0,-3.0v7 M-2.5,-0.5L0,-3.0L2.5,-0.5"/>
                </g>
                <g id="arrowDown" xlink:href="#dirArrow" transform="rotate(180) translate(-30 -48)" onmousedown="handlePan(0,1)">
                  <use xlink:href="#rim" fill="#404040">
                        <set attributeName="fill" to="#808080" begin="arrowDown.mouseover" end="arrowDown.mouseout"/>
                  </use>
                  <path fill="none" stroke="white" stroke-width="1.5" d="M0,-3.0v7 M-2.5,-0.5L0,-3.0L2.5,-0.5"/>
                </g>
                <g id="arrowLeft" xlink:href="#dirArrow" transform="rotate(270) translate(-36 17)" onmousedown="handlePan(-1,0)">
                  <use xlink:href="#rim" fill="#404040">
                        <set attributeName="fill" to="#808080" begin="arrowLeft.mouseover" end="arrowLeft.mouseout"/>
                  </use>
                  <path fill="none" stroke="white" stroke-width="1.5" d="M0,-3.0v7 M-2.5,-0.5L0,-3.0L2.5,-0.5"/>
                </g>
        </g>
        <svg viewBox="0 0 15 15" width="100%" height="30px" preserveAspectRatio="xMaxYMin meet">
         <g id="arrow_out" transform="scale(0.3 0.3)">
          <a xlink:href="physicsdef_8h__incl_org.svg" target="_base">
           <rect id="button" ry="5" rx="5" y="6" x="6" height="38" width="38"
                fill="#f2f5e9" fill-opacity="0.5" stroke="#606060" stroke-width="1.0"/>
           <path id="arrow"
             d="M 11.500037,31.436501 C 11.940474,20.09759 22.043105,11.32322 32.158766,21.979434 L 37.068811,17.246167 C 37.068811,17.246167 37.088388,32 37.088388,32 L 22.160133,31.978069 C 22.160133,31.978069 26.997745,27.140456 26.997745,27.140456 C 18.528582,18.264221 13.291696,25.230495 11.500037,31.436501 z"
             style="fill:#404040;"/>
          </a>
         </g>
        </svg>
</svg>
