<?xml version="1.0" encoding="UTF-8" standalone="no"?>
<!DOCTYPE svg PUBLIC "-//W3C//DTD SVG 1.1//EN"
 "http://www.w3.org/Graphics/SVG/1.1/DTD/svg11.dtd">
<!-- Generated by graphviz version 2.38.0 (20140413.2041)
 -->
<!-- Title: playground.cpp Pages: 1 -->
<svg width="2001pt" height="532pt"
 viewBox="0.00 0.00 2001.00 532.00" xmlns="http://www.w3.org/2000/svg" xmlns:xlink="http://www.w3.org/1999/xlink">
<g id="graph0" class="graph" transform="scale(1 1) rotate(0) translate(4 528)">
<title>playground.cpp</title>
<polygon fill="white" stroke="none" points="-4,4 -4,-528 1997,-528 1997,4 -4,4"/>
<!-- Node1 -->
<g id="node1" class="node"><title>Node1</title>
<polygon fill="#bfbfbf" stroke="black" points="1050.5,-504.5 1050.5,-523.5 1133.5,-523.5 1133.5,-504.5 1050.5,-504.5"/>
<text text-anchor="middle" x="1092" y="-511.5" font-family="Helvetica,sans-Serif" font-size="10.00">playground.cpp</text>
</g>
<!-- Node2 -->
<g id="node2" class="node"><title>Node2</title>
<polygon fill="white" stroke="#bfbfbf" points="68,-56.5 68,-75.5 122,-75.5 122,-56.5 68,-56.5"/>
<text text-anchor="middle" x="95" y="-63.5" font-family="Helvetica,sans-Serif" font-size="10.00">iostream</text>
</g>
<!-- Node1&#45;&gt;Node2 -->
<g id="edge1" class="edge"><title>Node1&#45;&gt;Node2</title>
<path fill="none" stroke="midnightblue" d="M1050.35,-512.791C863.058,-511.311 108,-499.37 108,-403 108,-403 108,-403 108,-177 108,-144.576 102.361,-107.146 98.5105,-85.3688"/>
<polygon fill="midnightblue" stroke="midnightblue" points="101.95,-84.7196 96.6995,-75.5172 95.0652,-85.9853 101.95,-84.7196"/>
</g>
<!-- Node3 -->
<g id="node3" class="node"><title>Node3</title>
<polygon fill="white" stroke="#bfbfbf" points="0,-56.5 0,-75.5 50,-75.5 50,-56.5 0,-56.5"/>
<text text-anchor="middle" x="25" y="-63.5" font-family="Helvetica,sans-Serif" font-size="10.00">iomanip</text>
</g>
<!-- Node1&#45;&gt;Node3 -->
<g id="edge2" class="edge"><title>Node1&#45;&gt;Node3</title>
<path fill="none" stroke="midnightblue" d="M1050.33,-513.142C853.796,-513.273 29,-507.595 29,-403 29,-403 29,-403 29,-177 29,-144.927 27.2807,-107.628 26.0965,-85.7413"/>
<polygon fill="midnightblue" stroke="midnightblue" points="29.5796,-85.3413 25.5229,-75.5539 22.5907,-85.7349 29.5796,-85.3413"/>
</g>
<!-- Node4 -->
<g id="node4" class="node"><title>Node4</title>
<g id="a_node4"><a xlink:href="mathlib_8h.html" target="_top" xlink:title="mathlib include file ">
<polygon fill="white" stroke="black" points="687.5,-392.5 687.5,-411.5 768.5,-411.5 768.5,-392.5 687.5,-392.5"/>
<text text-anchor="middle" x="728" y="-399.5" font-family="Helvetica,sans-Serif" font-size="10.00">math/mathlib.h</text>
</a>
</g>
</g>
<!-- Node1&#45;&gt;Node4 -->
<g id="edge3" class="edge"><title>Node1&#45;&gt;Node4</title>
<path fill="none" stroke="midnightblue" d="M1063.74,-504.46C998.89,-484.862 839.342,-436.647 766,-414.483"/>
<polygon fill="midnightblue" stroke="midnightblue" points="766.827,-411.077 756.242,-411.535 764.802,-417.778 766.827,-411.077"/>
</g>
<!-- Node42 -->
<g id="node42" class="node"><title>Node42</title>
<g id="a_node42"><a xlink:href="stringlib_8h.html" target="_top" xlink:title="stringlib include file A library providing functions for handling various types of string...">
<polygon fill="white" stroke="black" points="1345,-392.5 1345,-411.5 1439,-411.5 1439,-392.5 1345,-392.5"/>
<text text-anchor="middle" x="1392" y="-399.5" font-family="Helvetica,sans-Serif" font-size="10.00">support/stringlib.h</text>
</a>
</g>
</g>
<!-- Node1&#45;&gt;Node42 -->
<g id="edge68" class="edge"><title>Node1&#45;&gt;Node42</title>
<path fill="none" stroke="midnightblue" d="M1133.66,-508.486C1175.92,-502.846 1242.53,-490.997 1296,-468 1325.56,-455.289 1355.63,-433.111 1374.05,-418.242"/>
<polygon fill="midnightblue" stroke="midnightblue" points="1376.62,-420.665 1382.11,-411.604 1372.16,-415.263 1376.62,-420.665"/>
</g>
<!-- Node45 -->
<g id="node45" class="node"><title>Node45</title>
<g id="a_node45"><a xlink:href="devicecpu_8h.html" target="_top" xlink:title="devicecpu include file. ">
<polygon fill="white" stroke="black" points="1168.5,-448.5 1168.5,-467.5 1287.5,-467.5 1287.5,-448.5 1168.5,-448.5"/>
<text text-anchor="middle" x="1228" y="-455.5" font-family="Helvetica,sans-Serif" font-size="10.00">device/cpu/devicecpu.h</text>
</a>
</g>
</g>
<!-- Node1&#45;&gt;Node45 -->
<g id="edge77" class="edge"><title>Node1&#45;&gt;Node45</title>
<path fill="none" stroke="midnightblue" d="M1113.55,-504.444C1136.03,-495.517 1171.49,-481.439 1196.98,-471.317"/>
<polygon fill="midnightblue" stroke="midnightblue" points="1198.55,-474.46 1206.55,-467.516 1195.97,-467.954 1198.55,-474.46"/>
</g>
<!-- Node48 -->
<g id="node48" class="node"><title>Node48</title>
<g id="a_node48"><a xlink:href="elapsedtime_8h.html" target="_top" xlink:title="Elapsed Time header file. ">
<polygon fill="white" stroke="black" points="1849.5,-168.5 1849.5,-187.5 1962.5,-187.5 1962.5,-168.5 1849.5,-168.5"/>
<text text-anchor="middle" x="1906" y="-175.5" font-family="Helvetica,sans-Serif" font-size="10.00">support/elapsedtime.h</text>
</a>
</g>
</g>
<!-- Node1&#45;&gt;Node48 -->
<g id="edge82" class="edge"><title>Node1&#45;&gt;Node48</title>
<path fill="none" stroke="midnightblue" d="M1133.64,-511.635C1296.57,-505.748 1882,-479.292 1882,-403 1882,-403 1882,-403 1882,-289 1882,-256.059 1892.4,-218.818 1899.51,-197.214"/>
<polygon fill="midnightblue" stroke="midnightblue" points="1902.84,-198.294 1902.76,-187.699 1896.22,-196.028 1902.84,-198.294"/>
</g>
<!-- Node4&#45;&gt;Node2 -->
<g id="edge67" class="edge"><title>Node4&#45;&gt;Node2</title>
<path fill="none" stroke="midnightblue" d="M687.285,-399.307C588.497,-394.844 338.389,-381.328 259,-356 203.803,-338.39 146,-348.938 146,-291 146,-291 146,-291 146,-177 146,-141.244 123.546,-104.508 108.436,-83.8357"/>
<polygon fill="midnightblue" stroke="midnightblue" points="111.144,-81.6137 102.307,-75.7686 105.57,-85.8485 111.144,-81.6137"/>
</g>
<!-- Node5 -->
<g id="node5" class="node"><title>Node5</title>
<g id="a_node5"><a xlink:href="config_cosmos_8h.html" target="_top" xlink:title="Headers and definitions common to all COSMOS. ">
<polygon fill="white" stroke="black" points="853.5,-112.5 853.5,-131.5 976.5,-131.5 976.5,-112.5 853.5,-112.5"/>
<text text-anchor="middle" x="915" y="-119.5" font-family="Helvetica,sans-Serif" font-size="10.00">support/configCosmos.h</text>
</a>
</g>
</g>
<!-- Node4&#45;&gt;Node5 -->
<g id="edge4" class="edge"><title>Node4&#45;&gt;Node5</title>
<path fill="none" stroke="midnightblue" d="M740.225,-392.215C751.56,-383.718 768.508,-370.09 781,-356 843.082,-285.977 890.129,-182.677 907.6,-141.207"/>
<polygon fill="midnightblue" stroke="midnightblue" points="910.884,-142.424 911.48,-131.846 904.417,-139.744 910.884,-142.424"/>
</g>
<!-- Node15 -->
<g id="node15" class="node"><title>Node15</title>
<polygon fill="white" stroke="#bfbfbf" points="140,-56.5 140,-75.5 184,-75.5 184,-56.5 140,-56.5"/>
<text text-anchor="middle" x="162" y="-63.5" font-family="Helvetica,sans-Serif" font-size="10.00">cmath</text>
</g>
<!-- Node4&#45;&gt;Node15 -->
<g id="edge66" class="edge"><title>Node4&#45;&gt;Node15</title>
<path fill="none" stroke="midnightblue" d="M687.083,-400.69C567.668,-398.693 228,-384.77 228,-291 228,-291 228,-291 228,-177 228,-138.857 198.46,-102.517 178.906,-82.6396"/>
<polygon fill="midnightblue" stroke="midnightblue" points="181.334,-80.1194 171.739,-75.6282 176.439,-85.1232 181.334,-80.1194"/>
</g>
<!-- Node36 -->
<g id="node36" class="node"><title>Node36</title>
<g id="a_node36"><a xlink:href="cosmos-errno_8h.html" target="_top" xlink:title="COSMOS Error Codes. ">
<polygon fill="white" stroke="black" points="989.5,-336.5 989.5,-355.5 1108.5,-355.5 1108.5,-336.5 989.5,-336.5"/>
<text text-anchor="middle" x="1049" y="-343.5" font-family="Helvetica,sans-Serif" font-size="10.00">support/cosmos&#45;errno.h</text>
</a>
</g>
</g>
<!-- Node4&#45;&gt;Node36 -->
<g id="edge46" class="edge"><title>Node4&#45;&gt;Node36</title>
<path fill="none" stroke="midnightblue" d="M768.655,-394.161C824.142,-384.827 924.03,-368.023 988.375,-357.199"/>
<polygon fill="midnightblue" stroke="midnightblue" points="989.103,-360.625 998.384,-355.515 987.942,-353.722 989.103,-360.625"/>
</g>
<!-- Node38 -->
<g id="node38" class="node"><title>Node38</title>
<g id="a_node38"><a xlink:href="math_2constants_8h.html" target="_top" xlink:title="constants.h">
<polygon fill="white" stroke="black" points="683,-168.5 683,-187.5 751,-187.5 751,-168.5 683,-168.5"/>
<text text-anchor="middle" x="717" y="-175.5" font-family="Helvetica,sans-Serif" font-size="10.00">constants.h</text>
</a>
</g>
</g>
<!-- Node4&#45;&gt;Node38 -->
<g id="edge49" class="edge"><title>Node4&#45;&gt;Node38</title>
<path fill="none" stroke="midnightblue" d="M717.286,-392.305C708.062,-384.069 695.409,-370.789 690,-356 669.671,-300.417 694.515,-229.607 708.584,-196.964"/>
<polygon fill="midnightblue" stroke="midnightblue" points="711.806,-198.332 712.702,-187.775 705.419,-195.469 711.806,-198.332"/>
</g>
<!-- Node39 -->
<g id="node39" class="node"><title>Node39</title>
<g id="a_node39"><a xlink:href="vector_8h.html" target="_top" xlink:title="vector.h">
<polygon fill="white" stroke="black" points="591,-224.5 591,-243.5 643,-243.5 643,-224.5 591,-224.5"/>
<text text-anchor="middle" x="617" y="-231.5" font-family="Helvetica,sans-Serif" font-size="10.00">vector.h</text>
</a>
</g>
</g>
<!-- Node4&#45;&gt;Node39 -->
<g id="edge52" class="edge"><title>Node4&#45;&gt;Node39</title>
<path fill="none" stroke="midnightblue" d="M706.872,-392.366C691.066,-384.904 670.017,-372.683 657,-356 632.923,-325.141 623.021,-279.15 619.2,-253.677"/>
<polygon fill="midnightblue" stroke="midnightblue" points="622.64,-252.992 617.844,-243.544 615.702,-253.92 622.64,-252.992"/>
</g>
<!-- Node40 -->
<g id="node40" class="node"><title>Node40</title>
<g id="a_node40"><a xlink:href="matrix_8h.html" target="_top" xlink:title="matrix.h">
<polygon fill="white" stroke="black" points="737,-280.5 737,-299.5 789,-299.5 789,-280.5 737,-280.5"/>
<text text-anchor="middle" x="763" y="-287.5" font-family="Helvetica,sans-Serif" font-size="10.00">matrix.h</text>
</a>
</g>
</g>
<!-- Node4&#45;&gt;Node40 -->
<g id="edge59" class="edge"><title>Node4&#45;&gt;Node40</title>
<path fill="none" stroke="midnightblue" d="M738.438,-392.245C747.424,-383.969 759.746,-370.663 765,-356 770.356,-341.054 769.224,-322.914 767.116,-309.6"/>
<polygon fill="midnightblue" stroke="midnightblue" points="770.545,-308.896 765.237,-299.727 763.668,-310.205 770.545,-308.896"/>
</g>
<!-- Node41 -->
<g id="node41" class="node"><title>Node41</title>
<g id="a_node41"><a xlink:href="rotation_8h.html" target="_top" xlink:title="rotation.h">
<polygon fill="white" stroke="black" points="699.5,-336.5 699.5,-355.5 756.5,-355.5 756.5,-336.5 699.5,-336.5"/>
<text text-anchor="middle" x="728" y="-343.5" font-family="Helvetica,sans-Serif" font-size="10.00">rotation.h</text>
</a>
</g>
</g>
<!-- Node4&#45;&gt;Node41 -->
<g id="edge62" class="edge"><title>Node4&#45;&gt;Node41</title>
<path fill="none" stroke="midnightblue" d="M728,-392.083C728,-385.006 728,-374.861 728,-365.986"/>
<polygon fill="midnightblue" stroke="midnightblue" points="731.5,-365.751 728,-355.751 724.5,-365.751 731.5,-365.751"/>
</g>
<!-- Node5&#45;&gt;Node2 -->
<g id="edge16" class="edge"><title>Node5&#45;&gt;Node2</title>
<path fill="none" stroke="midnightblue" d="M853.349,-121.377C722.13,-121.333 405.55,-116.737 132.133,-75.8638"/>
<polygon fill="midnightblue" stroke="midnightblue" points="132.428,-72.3687 122.016,-74.3318 131.38,-79.2897 132.428,-72.3687"/>
</g>
<!-- Node5&#45;&gt;Node3 -->
<g id="edge19" class="edge"><title>Node5&#45;&gt;Node3</title>
<path fill="none" stroke="midnightblue" d="M853.356,-119.411C687.086,-114.868 231.02,-100.635 60.2326,-75.8046"/>
<polygon fill="midnightblue" stroke="midnightblue" points="60.5401,-72.3113 50.1279,-74.2696 59.4888,-79.2319 60.5401,-72.3113"/>
</g>
<!-- Node6 -->
<g id="node6" class="node"><title>Node6</title>
<polygon fill="white" stroke="#bfbfbf" points="690.5,-56.5 690.5,-75.5 735.5,-75.5 735.5,-56.5 690.5,-56.5"/>
<text text-anchor="middle" x="713" y="-63.5" font-family="Helvetica,sans-Serif" font-size="10.00">climits</text>
</g>
<!-- Node5&#45;&gt;Node6 -->
<g id="edge5" class="edge"><title>Node5&#45;&gt;Node6</title>
<path fill="none" stroke="midnightblue" d="M881.511,-112.454C849.011,-104.101 798.05,-90.8487 745.496,-76.3695"/>
<polygon fill="midnightblue" stroke="midnightblue" points="746.239,-72.9439 735.668,-73.6526 744.374,-79.6908 746.239,-72.9439"/>
</g>
<!-- Node7 -->
<g id="node7" class="node"><title>Node7</title>
<polygon fill="white" stroke="#bfbfbf" points="753.5,-56.5 753.5,-75.5 800.5,-75.5 800.5,-56.5 753.5,-56.5"/>
<text text-anchor="middle" x="777" y="-63.5" font-family="Helvetica,sans-Serif" font-size="10.00">csignal</text>
</g>
<!-- Node5&#45;&gt;Node7 -->
<g id="edge6" class="edge"><title>Node5&#45;&gt;Node7</title>
<path fill="none" stroke="midnightblue" d="M893.133,-112.444C870.221,-103.478 834.025,-89.314 808.134,-79.1827"/>
<polygon fill="midnightblue" stroke="midnightblue" points="809.352,-75.9011 798.764,-75.5164 806.801,-82.4198 809.352,-75.9011"/>
</g>
<!-- Node8 -->
<g id="node8" class="node"><title>Node8</title>
<polygon fill="white" stroke="#bfbfbf" points="202,-56.5 202,-75.5 248,-75.5 248,-56.5 202,-56.5"/>
<text text-anchor="middle" x="225" y="-63.5" font-family="Helvetica,sans-Serif" font-size="10.00">cstdint</text>
</g>
<!-- Node5&#45;&gt;Node8 -->
<g id="edge7" class="edge"><title>Node5&#45;&gt;Node8</title>
<path fill="none" stroke="midnightblue" d="M853.396,-120.232C737.118,-118.015 477.611,-109.404 262,-76 260.751,-75.8064 259.481,-75.5915 258.202,-75.3596"/>
<polygon fill="midnightblue" stroke="midnightblue" points="258.87,-71.9238 248.368,-73.3188 257.448,-78.7777 258.87,-71.9238"/>
</g>
<!-- Node9 -->
<g id="node9" class="node"><title>Node9</title>
<polygon fill="white" stroke="#bfbfbf" points="819,-56.5 819,-75.5 875,-75.5 875,-56.5 819,-56.5"/>
<text text-anchor="middle" x="847" y="-63.5" font-family="Helvetica,sans-Serif" font-size="10.00">cinttypes</text>
</g>
<!-- Node5&#45;&gt;Node9 -->
<g id="edge8" class="edge"><title>Node5&#45;&gt;Node9</title>
<path fill="none" stroke="midnightblue" d="M904.075,-112.324C893.825,-104.185 878.279,-91.8395 865.999,-82.0874"/>
<polygon fill="midnightblue" stroke="midnightblue" points="868.132,-79.3119 858.124,-75.8339 863.779,-84.7937 868.132,-79.3119"/>
</g>
<!-- Node10 -->
<g id="node10" class="node"><title>Node10</title>
<polygon fill="white" stroke="#bfbfbf" points="893.5,-56.5 893.5,-75.5 936.5,-75.5 936.5,-56.5 893.5,-56.5"/>
<text text-anchor="middle" x="915" y="-63.5" font-family="Helvetica,sans-Serif" font-size="10.00">cstdio</text>
</g>
<!-- Node5&#45;&gt;Node10 -->
<g id="edge9" class="edge"><title>Node5&#45;&gt;Node10</title>
<path fill="none" stroke="midnightblue" d="M915,-112.083C915,-105.006 915,-94.8611 915,-85.9865"/>
<polygon fill="midnightblue" stroke="midnightblue" points="918.5,-85.751 915,-75.7511 911.5,-85.7511 918.5,-85.751"/>
</g>
<!-- Node11 -->
<g id="node11" class="node"><title>Node11</title>
<polygon fill="white" stroke="#bfbfbf" points="954.5,-56.5 954.5,-75.5 1003.5,-75.5 1003.5,-56.5 954.5,-56.5"/>
<text text-anchor="middle" x="979" y="-63.5" font-family="Helvetica,sans-Serif" font-size="10.00">cstddef</text>
</g>
<!-- Node5&#45;&gt;Node11 -->
<g id="edge10" class="edge"><title>Node5&#45;&gt;Node11</title>
<path fill="none" stroke="midnightblue" d="M925.283,-112.324C934.836,-104.263 949.28,-92.0765 960.784,-82.3695"/>
<polygon fill="midnightblue" stroke="midnightblue" points="963.144,-84.9577 968.53,-75.8339 958.63,-79.6076 963.144,-84.9577"/>
</g>
<!-- Node12 -->
<g id="node12" class="node"><title>Node12</title>
<polygon fill="white" stroke="#bfbfbf" points="1021.5,-56.5 1021.5,-75.5 1066.5,-75.5 1066.5,-56.5 1021.5,-56.5"/>
<text text-anchor="middle" x="1044" y="-63.5" font-family="Helvetica,sans-Serif" font-size="10.00">cstdlib</text>
</g>
<!-- Node5&#45;&gt;Node12 -->
<g id="edge11" class="edge"><title>Node5&#45;&gt;Node12</title>
<path fill="none" stroke="midnightblue" d="M935.44,-112.444C956.67,-103.557 990.099,-89.5632 1014.25,-79.4514"/>
<polygon fill="midnightblue" stroke="midnightblue" points="1015.78,-82.6064 1023.66,-75.5164 1013.08,-76.1493 1015.78,-82.6064"/>
</g>
<!-- Node13 -->
<g id="node13" class="node"><title>Node13</title>
<polygon fill="white" stroke="#bfbfbf" points="1085,-56.5 1085,-75.5 1129,-75.5 1129,-56.5 1085,-56.5"/>
<text text-anchor="middle" x="1107" y="-63.5" font-family="Helvetica,sans-Serif" font-size="10.00">cerrno</text>
</g>
<!-- Node5&#45;&gt;Node13 -->
<g id="edge12" class="edge"><title>Node5&#45;&gt;Node13</title>
<path fill="none" stroke="midnightblue" d="M945.423,-112.444C980.743,-102.51 1038.75,-86.1958 1074.81,-76.0544"/>
<polygon fill="midnightblue" stroke="midnightblue" points="1076.12,-79.3205 1084.8,-73.2437 1074.23,-72.582 1076.12,-79.3205"/>
</g>
<!-- Node14 -->
<g id="node14" class="node"><title>Node14</title>
<polygon fill="white" stroke="#bfbfbf" points="1147,-56.5 1147,-75.5 1193,-75.5 1193,-56.5 1147,-56.5"/>
<text text-anchor="middle" x="1170" y="-63.5" font-family="Helvetica,sans-Serif" font-size="10.00">cstring</text>
</g>
<!-- Node5&#45;&gt;Node14 -->
<g id="edge13" class="edge"><title>Node5&#45;&gt;Node14</title>
<path fill="none" stroke="midnightblue" d="M962.644,-112.458C1005.74,-104.491 1071.14,-91.8058 1136.86,-76.1335"/>
<polygon fill="midnightblue" stroke="midnightblue" points="1138.08,-79.4403 1146.98,-73.6966 1136.44,-72.6348 1138.08,-79.4403"/>
</g>
<!-- Node5&#45;&gt;Node15 -->
<g id="edge14" class="edge"><title>Node5&#45;&gt;Node15</title>
<path fill="none" stroke="midnightblue" d="M853.134,-121.707C729.301,-122.136 442.278,-118.173 194.137,-75.8033"/>
<polygon fill="midnightblue" stroke="midnightblue" points="194.664,-72.3424 184.213,-74.0845 193.469,-79.2398 194.664,-72.3424"/>
</g>
<!-- Node16 -->
<g id="node16" class="node"><title>Node16</title>
<polygon fill="white" stroke="#bfbfbf" points="1331.5,-56.5 1331.5,-75.5 1376.5,-75.5 1376.5,-56.5 1331.5,-56.5"/>
<text text-anchor="middle" x="1354" y="-63.5" font-family="Helvetica,sans-Serif" font-size="10.00">iosfwd</text>
</g>
<!-- Node5&#45;&gt;Node16 -->
<g id="edge15" class="edge"><title>Node5&#45;&gt;Node16</title>
<path fill="none" stroke="midnightblue" d="M976.842,-117.33C1054.98,-111.99 1193.66,-100.174 1321.42,-75.7876"/>
<polygon fill="midnightblue" stroke="midnightblue" points="1322.23,-79.1956 1331.38,-73.856 1320.9,-72.3236 1322.23,-79.1956"/>
</g>
<!-- Node17 -->
<g id="node17" class="node"><title>Node17</title>
<polygon fill="white" stroke="#bfbfbf" points="1741,-56.5 1741,-75.5 1793,-75.5 1793,-56.5 1741,-56.5"/>
<text text-anchor="middle" x="1767" y="-63.5" font-family="Helvetica,sans-Serif" font-size="10.00">sstream</text>
</g>
<!-- Node5&#45;&gt;Node17 -->
<g id="edge17" class="edge"><title>Node5&#45;&gt;Node17</title>
<path fill="none" stroke="midnightblue" d="M976.709,-121.062C1112.84,-120.438 1448.89,-114.72 1727,-76 1728.27,-75.8233 1729.56,-75.627 1730.86,-75.4146"/>
<polygon fill="midnightblue" stroke="midnightblue" points="1731.68,-78.8206 1740.86,-73.5337 1730.39,-71.9411 1731.68,-78.8206"/>
</g>
<!-- Node18 -->
<g id="node18" class="node"><title>Node18</title>
<polygon fill="white" stroke="#bfbfbf" points="1394.5,-56.5 1394.5,-75.5 1435.5,-75.5 1435.5,-56.5 1394.5,-56.5"/>
<text text-anchor="middle" x="1415" y="-63.5" font-family="Helvetica,sans-Serif" font-size="10.00">regex</text>
</g>
<!-- Node5&#45;&gt;Node18 -->
<g id="edge18" class="edge"><title>Node5&#45;&gt;Node18</title>
<path fill="none" stroke="midnightblue" d="M976.767,-118.941C1065.21,-115.143 1233,-104.785 1384.52,-75.6796"/>
<polygon fill="midnightblue" stroke="midnightblue" points="1385.33,-79.0872 1394.48,-73.7353 1383.99,-72.217 1385.33,-79.0872"/>
</g>
<!-- Node19 -->
<g id="node19" class="node"><title>Node19</title>
<polygon fill="white" stroke="#bfbfbf" points="1453.5,-56.5 1453.5,-75.5 1504.5,-75.5 1504.5,-56.5 1453.5,-56.5"/>
<text text-anchor="middle" x="1479" y="-63.5" font-family="Helvetica,sans-Serif" font-size="10.00">unistd.h</text>
</g>
<!-- Node5&#45;&gt;Node19 -->
<g id="edge20" class="edge"><title>Node5&#45;&gt;Node19</title>
<path fill="none" stroke="midnightblue" d="M976.651,-119.244C1074.05,-115.706 1269.5,-105.514 1443.38,-76.0042"/>
<polygon fill="midnightblue" stroke="midnightblue" points="1444.23,-79.411 1453.49,-74.2637 1443.04,-72.5127 1444.23,-79.411"/>
</g>
<!-- Node20 -->
<g id="node20" class="node"><title>Node20</title>
<polygon fill="white" stroke="#bfbfbf" points="1523,-56.5 1523,-75.5 1567,-75.5 1567,-56.5 1523,-56.5"/>
<text text-anchor="middle" x="1545" y="-63.5" font-family="Helvetica,sans-Serif" font-size="10.00">fcntl.h</text>
</g>
<!-- Node5&#45;&gt;Node20 -->
<g id="edge21" class="edge"><title>Node5&#45;&gt;Node20</title>
<path fill="none" stroke="midnightblue" d="M976.755,-120.568C1084.17,-118.901 1312.3,-111.306 1512.66,-75.8684"/>
<polygon fill="midnightblue" stroke="midnightblue" points="1513.56,-79.2629 1522.78,-74.0497 1512.32,-72.3733 1513.56,-79.2629"/>
</g>
<!-- Node21 -->
<g id="node21" class="node"><title>Node21</title>
<polygon fill="white" stroke="#bfbfbf" points="1585,-56.5 1585,-75.5 1625,-75.5 1625,-56.5 1585,-56.5"/>
<text text-anchor="middle" x="1605" y="-63.5" font-family="Helvetica,sans-Serif" font-size="10.00">limits</text>
</g>
<!-- Node5&#45;&gt;Node21 -->
<g id="edge22" class="edge"><title>Node5&#45;&gt;Node21</title>
<path fill="none" stroke="midnightblue" d="M976.656,-121.563C1092.54,-121.59 1350.63,-116.754 1574.89,-75.7575"/>
<polygon fill="midnightblue" stroke="midnightblue" points="1575.68,-79.1716 1584.87,-73.905 1574.4,-72.2892 1575.68,-79.1716"/>
</g>
<!-- Node22 -->
<g id="node22" class="node"><title>Node22</title>
<polygon fill="white" stroke="#bfbfbf" points="1746.5,-0.5 1746.5,-19.5 1787.5,-19.5 1787.5,-0.5 1746.5,-0.5"/>
<text text-anchor="middle" x="1767" y="-7.5" font-family="Helvetica,sans-Serif" font-size="10.00">string</text>
</g>
<!-- Node5&#45;&gt;Node22 -->
<g id="edge23" class="edge"><title>Node5&#45;&gt;Node22</title>
<path fill="none" stroke="midnightblue" d="M976.588,-119.765C1149.05,-115.983 1628.49,-103.129 1694,-76 1718.87,-65.7015 1740.95,-43.2094 1754.14,-27.5887"/>
<polygon fill="midnightblue" stroke="midnightblue" points="1756.93,-29.7065 1760.52,-19.7386 1751.5,-25.2919 1756.93,-29.7065"/>
</g>
<!-- Node23 -->
<g id="node23" class="node"><title>Node23</title>
<polygon fill="white" stroke="#bfbfbf" points="621,-0.5 621,-19.5 665,-19.5 665,-0.5 621,-0.5"/>
<text text-anchor="middle" x="643" y="-7.5" font-family="Helvetica,sans-Serif" font-size="10.00">vector</text>
</g>
<!-- Node5&#45;&gt;Node23 -->
<g id="edge24" class="edge"><title>Node5&#45;&gt;Node23</title>
<path fill="none" stroke="midnightblue" d="M853.474,-114.956C793.728,-108.077 708.184,-95.2379 681,-76 665.03,-64.698 654.745,-44.3931 648.956,-29.4758"/>
<polygon fill="midnightblue" stroke="midnightblue" points="652.156,-28.029 645.518,-19.7716 645.558,-30.3664 652.156,-28.029"/>
</g>
<!-- Node24 -->
<g id="node24" class="node"><title>Node24</title>
<polygon fill="white" stroke="#bfbfbf" points="1643.5,-56.5 1643.5,-75.5 1684.5,-75.5 1684.5,-56.5 1643.5,-56.5"/>
<text text-anchor="middle" x="1664" y="-63.5" font-family="Helvetica,sans-Serif" font-size="10.00">stack</text>
</g>
<!-- Node5&#45;&gt;Node24 -->
<g id="edge25" class="edge"><title>Node5&#45;&gt;Node24</title>
<path fill="none" stroke="midnightblue" d="M976.641,-121.864C1100.02,-122.572 1385.95,-119.087 1633.59,-75.5917"/>
<polygon fill="midnightblue" stroke="midnightblue" points="1634.26,-79.0269 1643.49,-73.8269 1633.03,-72.1355 1634.26,-79.0269"/>
</g>
<!-- Node25 -->
<g id="node25" class="node"><title>Node25</title>
<polygon fill="white" stroke="#bfbfbf" points="342.5,-56.5 342.5,-75.5 385.5,-75.5 385.5,-56.5 342.5,-56.5"/>
<text text-anchor="middle" x="364" y="-63.5" font-family="Helvetica,sans-Serif" font-size="10.00">deque</text>
</g>
<!-- Node5&#45;&gt;Node25 -->
<g id="edge26" class="edge"><title>Node5&#45;&gt;Node25</title>
<path fill="none" stroke="midnightblue" d="M853.165,-118.75C756.076,-114.51 562.205,-103.187 400,-76 398.531,-75.7537 397.033,-75.4785 395.524,-75.1816"/>
<polygon fill="midnightblue" stroke="midnightblue" points="396.105,-71.7256 385.586,-72.9838 394.594,-78.5605 396.105,-71.7256"/>
</g>
<!-- Node26 -->
<g id="node26" class="node"><title>Node26</title>
<polygon fill="white" stroke="#bfbfbf" points="538,-0.5 538,-19.5 582,-19.5 582,-0.5 538,-0.5"/>
<text text-anchor="middle" x="560" y="-7.5" font-family="Helvetica,sans-Serif" font-size="10.00">mutex</text>
</g>
<!-- Node5&#45;&gt;Node26 -->
<g id="edge27" class="edge"><title>Node5&#45;&gt;Node26</title>
<path fill="none" stroke="midnightblue" d="M853.36,-117.199C800.284,-112.296 722.447,-101.157 659,-76 628.145,-63.7657 596.836,-41.1136 577.916,-26.0477"/>
<polygon fill="midnightblue" stroke="midnightblue" points="579.875,-23.1296 569.91,-19.5321 575.456,-28.5589 579.875,-23.1296"/>
</g>
<!-- Node27 -->
<g id="node27" class="node"><title>Node27</title>
<polygon fill="white" stroke="#bfbfbf" points="254,-0.5 254,-19.5 298,-19.5 298,-0.5 254,-0.5"/>
<text text-anchor="middle" x="276" y="-7.5" font-family="Helvetica,sans-Serif" font-size="10.00">thread</text>
</g>
<!-- Node5&#45;&gt;Node27 -->
<g id="edge28" class="edge"><title>Node5&#45;&gt;Node27</title>
<path fill="none" stroke="midnightblue" d="M853.274,-119.196C711.151,-114.631 369.47,-101.157 324,-76 305.07,-65.5265 291.528,-44.0829 283.752,-28.6873"/>
<polygon fill="midnightblue" stroke="midnightblue" points="286.907,-27.1716 279.476,-19.6196 280.576,-30.1572 286.907,-27.1716"/>
</g>
<!-- Node28 -->
<g id="node28" class="node"><title>Node28</title>
<polygon fill="white" stroke="#bfbfbf" points="316.5,-0.5 316.5,-19.5 411.5,-19.5 411.5,-0.5 316.5,-0.5"/>
<text text-anchor="middle" x="364" y="-7.5" font-family="Helvetica,sans-Serif" font-size="10.00">condition_variable</text>
</g>
<!-- Node5&#45;&gt;Node28 -->
<g id="edge29" class="edge"><title>Node5&#45;&gt;Node28</title>
<path fill="none" stroke="midnightblue" d="M853.407,-120.855C710.879,-119.878 367.809,-113.604 333,-76 319.815,-61.7559 334.023,-40.8829 347.248,-26.6597"/>
<polygon fill="midnightblue" stroke="midnightblue" points="349.763,-29.0941 354.315,-19.5265 344.79,-24.1677 349.763,-29.0941"/>
</g>
<!-- Node29 -->
<g id="node29" class="node"><title>Node29</title>
<polygon fill="white" stroke="#bfbfbf" points="429.5,-0.5 429.5,-19.5 472.5,-19.5 472.5,-0.5 429.5,-0.5"/>
<text text-anchor="middle" x="451" y="-7.5" font-family="Helvetica,sans-Serif" font-size="10.00">queue</text>
</g>
<!-- Node5&#45;&gt;Node29 -->
<g id="edge30" class="edge"><title>Node5&#45;&gt;Node29</title>
<path fill="none" stroke="midnightblue" d="M853.497,-119.784C729.908,-116.7 460.804,-106.521 433,-76 421.098,-62.9347 429.488,-42.6802 438.379,-28.2558"/>
<polygon fill="midnightblue" stroke="midnightblue" points="441.419,-30.0067 444.086,-19.7531 435.607,-26.1056 441.419,-30.0067"/>
</g>
<!-- Node30 -->
<g id="node30" class="node"><title>Node30</title>
<polygon fill="white" stroke="#bfbfbf" points="1191.5,-0.5 1191.5,-19.5 1226.5,-19.5 1226.5,-0.5 1191.5,-0.5"/>
<text text-anchor="middle" x="1209" y="-7.5" font-family="Helvetica,sans-Serif" font-size="10.00">map</text>
</g>
<!-- Node5&#45;&gt;Node30 -->
<g id="edge31" class="edge"><title>Node5&#45;&gt;Node30</title>
<path fill="none" stroke="midnightblue" d="M976.778,-119.824C1051.77,-117.003 1171.95,-107.538 1202,-76 1213.48,-63.952 1214.11,-44.382 1212.55,-29.8588"/>
<polygon fill="midnightblue" stroke="midnightblue" points="1216,-29.3203 1211.07,-19.9448 1209.08,-30.3513 1216,-29.3203"/>
</g>
<!-- Node31 -->
<g id="node31" class="node"><title>Node31</title>
<g id="a_node31"><a xlink:href="cosmos-defs_8h.html" target="_top" xlink:title="COSMOS definitions Definitions specific to the COSMOS environement. ">
<polygon fill="white" stroke="black" points="442,-56.5 442,-75.5 558,-75.5 558,-56.5 442,-56.5"/>
<text text-anchor="middle" x="500" y="-63.5" font-family="Helvetica,sans-Serif" font-size="10.00">support/cosmos&#45;defs.h</text>
</a>
</g>
</g>
<!-- Node5&#45;&gt;Node31 -->
<g id="edge32" class="edge"><title>Node5&#45;&gt;Node31</title>
<path fill="none" stroke="midnightblue" d="M853.318,-112.974C777.146,-103.062 647.963,-86.253 568.695,-75.9387"/>
<polygon fill="midnightblue" stroke="midnightblue" points="568.698,-72.4095 558.33,-74.5899 567.794,-79.351 568.698,-72.4095"/>
</g>
<!-- Node33 -->
<g id="node33" class="node"><title>Node33</title>
<g id="a_node33"><a xlink:href="json11_8hpp.html" target="_top" xlink:title="json11.hpp">
<polygon fill="white" stroke="black" points="1249,-56.5 1249,-75.5 1313,-75.5 1313,-56.5 1249,-56.5"/>
<text text-anchor="middle" x="1281" y="-63.5" font-family="Helvetica,sans-Serif" font-size="10.00">json11.hpp</text>
</a>
</g>
</g>
<!-- Node5&#45;&gt;Node33 -->
<g id="edge40" class="edge"><title>Node5&#45;&gt;Node33</title>
<path fill="none" stroke="midnightblue" d="M976.795,-113.307C1041.36,-105.036 1145.51,-91.0358 1235,-76 1236.26,-75.7876 1237.55,-75.5673 1238.84,-75.3409"/>
<polygon fill="midnightblue" stroke="midnightblue" points="1239.66,-78.7496 1248.87,-73.5139 1238.4,-71.8629 1239.66,-78.7496"/>
</g>
<!-- Node31&#45;&gt;Node23 -->
<g id="edge34" class="edge"><title>Node31&#45;&gt;Node23</title>
<path fill="none" stroke="midnightblue" d="M522.659,-56.4435C546.542,-47.4249 584.351,-33.1472 611.211,-23.0043"/>
<polygon fill="midnightblue" stroke="midnightblue" points="612.798,-26.1461 620.917,-19.339 610.325,-19.5975 612.798,-26.1461"/>
</g>
<!-- Node31&#45;&gt;Node26 -->
<g id="edge38" class="edge"><title>Node31&#45;&gt;Node26</title>
<path fill="none" stroke="midnightblue" d="M509.64,-56.324C518.51,-48.3414 531.875,-36.3128 542.608,-26.6529"/>
<polygon fill="midnightblue" stroke="midnightblue" points="545.093,-29.1251 550.185,-19.8339 540.41,-23.922 545.093,-29.1251"/>
</g>
<!-- Node31&#45;&gt;Node27 -->
<g id="edge37" class="edge"><title>Node31&#45;&gt;Node27</title>
<path fill="none" stroke="midnightblue" d="M460.666,-56.4759C423.621,-48.3037 366.363,-35.3044 308.056,-20.1777"/>
<polygon fill="midnightblue" stroke="midnightblue" points="308.872,-16.7734 298.312,-17.6321 307.102,-23.5461 308.872,-16.7734"/>
</g>
<!-- Node31&#45;&gt;Node28 -->
<g id="edge39" class="edge"><title>Node31&#45;&gt;Node28</title>
<path fill="none" stroke="midnightblue" d="M478.45,-56.4435C455.969,-47.5171 420.512,-33.4387 395.02,-23.3168"/>
<polygon fill="midnightblue" stroke="midnightblue" points="396.035,-19.9539 385.449,-19.5164 393.451,-26.4598 396.035,-19.9539"/>
</g>
<!-- Node31&#45;&gt;Node29 -->
<g id="edge36" class="edge"><title>Node31&#45;&gt;Node29</title>
<path fill="none" stroke="midnightblue" d="M491.909,-56.083C484.845,-48.2982 474.412,-36.8015 465.851,-27.3665"/>
<polygon fill="midnightblue" stroke="midnightblue" points="468.253,-24.8047 458.941,-19.7511 463.069,-29.5087 468.253,-24.8047"/>
</g>
<!-- Node31&#45;&gt;Node30 -->
<g id="edge33" class="edge"><title>Node31&#45;&gt;Node30</title>
<path fill="none" stroke="midnightblue" d="M558.02,-60.581C702.877,-49.5482 1076.3,-21.1072 1181.21,-13.1164"/>
<polygon fill="midnightblue" stroke="midnightblue" points="1181.62,-16.5959 1191.32,-12.3465 1181.08,-9.61615 1181.62,-16.5959"/>
</g>
<!-- Node32 -->
<g id="node32" class="node"><title>Node32</title>
<polygon fill="white" stroke="#bfbfbf" points="490.5,-0.5 490.5,-19.5 519.5,-19.5 519.5,-0.5 490.5,-0.5"/>
<text text-anchor="middle" x="505" y="-7.5" font-family="Helvetica,sans-Serif" font-size="10.00">list</text>
</g>
<!-- Node31&#45;&gt;Node32 -->
<g id="edge35" class="edge"><title>Node31&#45;&gt;Node32</title>
<path fill="none" stroke="midnightblue" d="M500.826,-56.083C501.481,-49.0059 502.42,-38.8611 503.242,-29.9865"/>
<polygon fill="midnightblue" stroke="midnightblue" points="506.753,-30.0312 504.19,-19.7511 499.783,-29.3858 506.753,-30.0312"/>
</g>
<!-- Node33&#45;&gt;Node22 -->
<g id="edge41" class="edge"><title>Node33&#45;&gt;Node22</title>
<path fill="none" stroke="midnightblue" d="M1313.16,-57.5728C1316.14,-56.9958 1319.12,-56.4599 1322,-56 1476.62,-31.2959 1663.76,-17.5897 1736.25,-12.8833"/>
<polygon fill="midnightblue" stroke="midnightblue" points="1736.73,-16.3597 1746.49,-12.2293 1736.29,-9.37397 1736.73,-16.3597"/>
</g>
<!-- Node33&#45;&gt;Node23 -->
<g id="edge42" class="edge"><title>Node33&#45;&gt;Node23</title>
<path fill="none" stroke="midnightblue" d="M1248.74,-61.0802C1234.43,-59.4051 1217.39,-57.4955 1202,-56 1001.97,-36.5595 761.073,-19.2122 675.27,-13.2222"/>
<polygon fill="midnightblue" stroke="midnightblue" points="675.346,-9.71913 665.127,-12.5167 674.86,-16.7023 675.346,-9.71913"/>
</g>
<!-- Node33&#45;&gt;Node30 -->
<g id="edge43" class="edge"><title>Node33&#45;&gt;Node30</title>
<path fill="none" stroke="midnightblue" d="M1269.43,-56.324C1258.58,-48.1849 1242.12,-35.8395 1229.12,-26.0874"/>
<polygon fill="midnightblue" stroke="midnightblue" points="1230.88,-23.0339 1220.78,-19.8339 1226.68,-28.6339 1230.88,-23.0339"/>
</g>
<!-- Node34 -->
<g id="node34" class="node"><title>Node34</title>
<polygon fill="white" stroke="#bfbfbf" points="1336,-0.5 1336,-19.5 1388,-19.5 1388,-0.5 1336,-0.5"/>
<text text-anchor="middle" x="1362" y="-7.5" font-family="Helvetica,sans-Serif" font-size="10.00">memory</text>
</g>
<!-- Node33&#45;&gt;Node34 -->
<g id="edge44" class="edge"><title>Node33&#45;&gt;Node34</title>
<path fill="none" stroke="midnightblue" d="M1294.01,-56.324C1306.53,-47.979 1325.68,-35.2122 1340.47,-25.3524"/>
<polygon fill="midnightblue" stroke="midnightblue" points="1342.64,-28.1137 1349.02,-19.6545 1338.76,-22.2894 1342.64,-28.1137"/>
</g>
<!-- Node35 -->
<g id="node35" class="node"><title>Node35</title>
<polygon fill="white" stroke="#bfbfbf" points="1244.5,-0.5 1244.5,-19.5 1317.5,-19.5 1317.5,-0.5 1244.5,-0.5"/>
<text text-anchor="middle" x="1281" y="-7.5" font-family="Helvetica,sans-Serif" font-size="10.00">initializer_list</text>
</g>
<!-- Node33&#45;&gt;Node35 -->
<g id="edge45" class="edge"><title>Node33&#45;&gt;Node35</title>
<path fill="none" stroke="midnightblue" d="M1281,-56.083C1281,-49.0059 1281,-38.8611 1281,-29.9865"/>
<polygon fill="midnightblue" stroke="midnightblue" points="1284.5,-29.751 1281,-19.7511 1277.5,-29.7511 1284.5,-29.751"/>
</g>
<!-- Node36&#45;&gt;Node5 -->
<g id="edge47" class="edge"><title>Node36&#45;&gt;Node5</title>
<path fill="none" stroke="midnightblue" d="M1043.75,-336.297C1023.82,-303.286 952.667,-185.404 925.576,-140.522"/>
<polygon fill="midnightblue" stroke="midnightblue" points="928.526,-138.636 920.362,-131.884 922.533,-142.254 928.526,-138.636"/>
</g>
<!-- Node37 -->
<g id="node37" class="node"><title>Node37</title>
<polygon fill="white" stroke="#bfbfbf" points="1079.5,-280.5 1079.5,-299.5 1126.5,-299.5 1126.5,-280.5 1079.5,-280.5"/>
<text text-anchor="middle" x="1103" y="-287.5" font-family="Helvetica,sans-Serif" font-size="10.00">errno.h</text>
</g>
<!-- Node36&#45;&gt;Node37 -->
<g id="edge48" class="edge"><title>Node36&#45;&gt;Node37</title>
<path fill="none" stroke="midnightblue" d="M1057.92,-336.083C1065.78,-328.22 1077.43,-316.569 1086.92,-307.081"/>
<polygon fill="midnightblue" stroke="midnightblue" points="1089.65,-309.297 1094.25,-299.751 1084.7,-304.347 1089.65,-309.297"/>
</g>
<!-- Node38&#45;&gt;Node5 -->
<g id="edge50" class="edge"><title>Node38&#45;&gt;Node5</title>
<path fill="none" stroke="midnightblue" d="M748.374,-168.444C782.263,-159.201 836.403,-144.436 873.724,-134.257"/>
<polygon fill="midnightblue" stroke="midnightblue" points="875.046,-137.524 883.773,-131.516 873.205,-130.771 875.046,-137.524"/>
</g>
<!-- Node38&#45;&gt;Node8 -->
<g id="edge51" class="edge"><title>Node38&#45;&gt;Node8</title>
<path fill="none" stroke="midnightblue" d="M682.64,-169.232C628.363,-156.977 519.446,-132.445 427,-112 353.712,-95.7919 335.138,-92.8713 262,-76 260.732,-75.7074 259.44,-75.4067 258.135,-75.1007"/>
<polygon fill="midnightblue" stroke="midnightblue" points="258.612,-71.6162 248.072,-72.702 256.988,-78.4254 258.612,-71.6162"/>
</g>
<!-- Node39&#45;&gt;Node2 -->
<g id="edge55" class="edge"><title>Node39&#45;&gt;Node2</title>
<path fill="none" stroke="midnightblue" d="M590.737,-226.848C556.682,-218.715 495.539,-203.585 444,-188 325.963,-152.307 188.337,-101.964 127.151,-79.1187"/>
<polygon fill="midnightblue" stroke="midnightblue" points="128.252,-75.7937 117.66,-75.5663 125.798,-82.3496 128.252,-75.7937"/>
</g>
<!-- Node39&#45;&gt;Node3 -->
<g id="edge56" class="edge"><title>Node39&#45;&gt;Node3</title>
<path fill="none" stroke="midnightblue" d="M590.666,-229.277C546.487,-222.753 454.828,-208.019 379,-188 257.351,-155.884 117.106,-103.088 56.0647,-79.299"/>
<polygon fill="midnightblue" stroke="midnightblue" points="57.2113,-75.9892 46.6234,-75.6042 54.6602,-82.5078 57.2113,-75.9892"/>
</g>
<!-- Node39&#45;&gt;Node5 -->
<g id="edge53" class="edge"><title>Node39&#45;&gt;Node5</title>
<path fill="none" stroke="midnightblue" d="M622.013,-224.177C630.644,-209.869 649.742,-181.816 674,-168 725.729,-138.537 792.871,-127.836 843.144,-124.19"/>
<polygon fill="midnightblue" stroke="midnightblue" points="843.53,-127.672 853.283,-123.533 843.078,-120.687 843.53,-127.672"/>
</g>
<!-- Node39&#45;&gt;Node15 -->
<g id="edge57" class="edge"><title>Node39&#45;&gt;Node15</title>
<path fill="none" stroke="midnightblue" d="M593.495,-224.425C517.701,-196.772 279.672,-109.931 193.52,-78.4996"/>
<polygon fill="midnightblue" stroke="midnightblue" points="194.615,-75.1733 184.021,-75.0339 192.215,-81.7493 194.615,-75.1733"/>
</g>
<!-- Node39&#45;&gt;Node23 -->
<g id="edge58" class="edge"><title>Node39&#45;&gt;Node23</title>
<path fill="none" stroke="midnightblue" d="M618.019,-224.297C621.845,-191.633 635.403,-75.8661 640.78,-29.9573"/>
<polygon fill="midnightblue" stroke="midnightblue" points="644.272,-30.223 641.96,-19.8837 637.32,-29.4087 644.272,-30.223"/>
</g>
<!-- Node39&#45;&gt;Node38 -->
<g id="edge54" class="edge"><title>Node39&#45;&gt;Node38</title>
<path fill="none" stroke="midnightblue" d="M633.067,-224.324C648.958,-215.743 673.507,-202.486 691.958,-192.522"/>
<polygon fill="midnightblue" stroke="midnightblue" points="693.837,-195.486 700.973,-187.655 690.511,-189.326 693.837,-195.486"/>
</g>
<!-- Node40&#45;&gt;Node5 -->
<g id="edge60" class="edge"><title>Node40&#45;&gt;Node5</title>
<path fill="none" stroke="midnightblue" d="M763.433,-280.443C764.979,-258.765 771.951,-201.062 803,-168 818.294,-151.714 840.275,-141.188 860.72,-134.45"/>
<polygon fill="midnightblue" stroke="midnightblue" points="861.746,-137.796 870.286,-131.525 859.7,-131.102 861.746,-137.796"/>
</g>
<!-- Node40&#45;&gt;Node39 -->
<g id="edge61" class="edge"><title>Node40&#45;&gt;Node39</title>
<path fill="none" stroke="midnightblue" d="M739.866,-280.444C715.518,-271.438 676.993,-257.189 649.577,-247.049"/>
<polygon fill="midnightblue" stroke="midnightblue" points="650.619,-243.703 640.026,-243.516 648.191,-250.268 650.619,-243.703"/>
</g>
<!-- Node41&#45;&gt;Node5 -->
<g id="edge63" class="edge"><title>Node41&#45;&gt;Node5</title>
<path fill="none" stroke="midnightblue" d="M748.529,-336.465C764.158,-328.988 785.114,-316.7 798,-300 835.693,-251.151 802.7,-216.375 841,-168 852.025,-154.075 868.631,-143.419 883.321,-135.981"/>
<polygon fill="midnightblue" stroke="midnightblue" points="885.094,-139.013 892.619,-131.555 882.085,-132.693 885.094,-139.013"/>
</g>
<!-- Node41&#45;&gt;Node39 -->
<g id="edge64" class="edge"><title>Node41&#45;&gt;Node39</title>
<path fill="none" stroke="midnightblue" d="M719.29,-336.368C700.648,-317.894 656.65,-274.293 632.887,-250.744"/>
<polygon fill="midnightblue" stroke="midnightblue" points="635.236,-248.144 625.67,-243.591 630.309,-253.117 635.236,-248.144"/>
</g>
<!-- Node41&#45;&gt;Node40 -->
<g id="edge65" class="edge"><title>Node41&#45;&gt;Node40</title>
<path fill="none" stroke="midnightblue" d="M733.78,-336.083C738.672,-328.534 745.827,-317.495 751.833,-308.23"/>
<polygon fill="midnightblue" stroke="midnightblue" points="754.826,-310.046 757.328,-299.751 748.952,-306.239 754.826,-310.046"/>
</g>
<!-- Node42&#45;&gt;Node5 -->
<g id="edge69" class="edge"><title>Node42&#45;&gt;Node5</title>
<path fill="none" stroke="midnightblue" d="M1377.7,-392.401C1352.54,-376.058 1303,-337.92 1303,-291 1303,-291 1303,-291 1303,-233 1303,-168.074 1099.36,-139.488 987.143,-128.664"/>
<polygon fill="midnightblue" stroke="midnightblue" points="987.193,-125.154 976.909,-127.702 986.537,-132.123 987.193,-125.154"/>
</g>
<!-- Node42&#45;&gt;Node17 -->
<g id="edge76" class="edge"><title>Node42&#45;&gt;Node17</title>
<path fill="none" stroke="midnightblue" d="M1439.16,-393.904C1493.97,-382.673 1577,-355.084 1577,-291 1577,-291 1577,-291 1577,-177 1577,-141.477 1677.73,-99.3665 1732.5,-79.0944"/>
<polygon fill="midnightblue" stroke="midnightblue" points="1733.97,-82.2861 1742.16,-75.5698 1731.57,-75.7103 1733.97,-82.2861"/>
</g>
<!-- Node42&#45;&gt;Node22 -->
<g id="edge75" class="edge"><title>Node42&#45;&gt;Node22</title>
<path fill="none" stroke="midnightblue" d="M1439.14,-398.866C1550.58,-392.54 1821,-369.138 1821,-291 1821,-291 1821,-291 1821,-121 1821,-90.9022 1815.7,-82.7971 1802,-56 1796.72,-45.6666 1788.93,-35.3578 1782.04,-27.2193"/>
<polygon fill="midnightblue" stroke="midnightblue" points="1784.57,-24.7968 1775.33,-19.6137 1779.32,-29.4279 1784.57,-24.7968"/>
</g>
<!-- Node42&#45;&gt;Node37 -->
<g id="edge74" class="edge"><title>Node42&#45;&gt;Node37</title>
<path fill="none" stroke="midnightblue" d="M1369.32,-392.368C1318.25,-372.93 1194.1,-325.674 1135.13,-303.228"/>
<polygon fill="midnightblue" stroke="midnightblue" points="1136.16,-299.878 1125.57,-299.591 1133.67,-306.42 1136.16,-299.878"/>
</g>
<!-- Node43 -->
<g id="node43" class="node"><title>Node43</title>
<g id="a_node43"><a xlink:href="jsonobject_8h.html" target="_top" xlink:title="support/jsonobject.h">
<polygon fill="white" stroke="black" points="867,-336.5 867,-355.5 971,-355.5 971,-336.5 867,-336.5"/>
<text text-anchor="middle" x="919" y="-343.5" font-family="Helvetica,sans-Serif" font-size="10.00">support/jsonobject.h</text>
</a>
</g>
</g>
<!-- Node42&#45;&gt;Node43 -->
<g id="edge70" class="edge"><title>Node42&#45;&gt;Node43</title>
<path fill="none" stroke="midnightblue" d="M1344.98,-393.238C1341.94,-392.8 1338.93,-392.383 1336,-392 1181.55,-371.797 1139.53,-375.448 981.314,-356.11"/>
<polygon fill="midnightblue" stroke="midnightblue" points="981.575,-352.616 971.222,-354.865 980.718,-359.563 981.575,-352.616"/>
</g>
<!-- Node44 -->
<g id="node44" class="node"><title>Node44</title>
<g id="a_node44"><a xlink:href="jsonvalue_8h.html" target="_top" xlink:title="support/jsonvalue.h">
<polygon fill="white" stroke="black" points="883.5,-280.5 883.5,-299.5 984.5,-299.5 984.5,-280.5 883.5,-280.5"/>
<text text-anchor="middle" x="934" y="-287.5" font-family="Helvetica,sans-Serif" font-size="10.00">support/jsonvalue.h</text>
</a>
</g>
</g>
<!-- Node43&#45;&gt;Node44 -->
<g id="edge71" class="edge"><title>Node43&#45;&gt;Node44</title>
<path fill="none" stroke="midnightblue" d="M921.477,-336.083C923.486,-328.849 926.386,-318.409 928.89,-309.397"/>
<polygon fill="midnightblue" stroke="midnightblue" points="932.265,-310.323 931.569,-299.751 925.52,-308.449 932.265,-310.323"/>
</g>
<!-- Node44&#45;&gt;Node5 -->
<g id="edge72" class="edge"><title>Node44&#45;&gt;Node5</title>
<path fill="none" stroke="midnightblue" d="M932.978,-280.075C929.988,-253.945 921.205,-177.211 917.126,-141.577"/>
<polygon fill="midnightblue" stroke="midnightblue" points="920.595,-141.105 915.981,-131.568 913.641,-141.901 920.595,-141.105"/>
</g>
<!-- Node44&#45;&gt;Node39 -->
<g id="edge73" class="edge"><title>Node44&#45;&gt;Node39</title>
<path fill="none" stroke="midnightblue" d="M883.77,-280.444C819.509,-269.497 709.765,-250.802 653.149,-241.158"/>
<polygon fill="midnightblue" stroke="midnightblue" points="653.664,-237.695 643.219,-239.466 652.489,-244.596 653.664,-237.695"/>
</g>
<!-- Node45&#45;&gt;Node5 -->
<g id="edge78" class="edge"><title>Node45&#45;&gt;Node5</title>
<path fill="none" stroke="midnightblue" d="M1219.92,-448.343C1212.27,-439.725 1200.95,-425.823 1194,-412 1180.48,-385.108 1175,-377.098 1175,-347 1175,-347 1175,-347 1175,-233 1175,-150.914 1063.72,-129.152 986.761,-123.917"/>
<polygon fill="midnightblue" stroke="midnightblue" points="986.808,-120.414 976.616,-123.308 986.389,-127.401 986.808,-120.414"/>
</g>
<!-- Node45&#45;&gt;Node42 -->
<g id="edge79" class="edge"><title>Node45&#45;&gt;Node42</title>
<path fill="none" stroke="midnightblue" d="M1253.99,-448.444C1281.7,-439.32 1325.75,-424.813 1356.62,-414.651"/>
<polygon fill="midnightblue" stroke="midnightblue" points="1357.73,-417.968 1366.14,-411.516 1355.54,-411.32 1357.73,-417.968"/>
</g>
<!-- Node46 -->
<g id="node46" class="node"><title>Node46</title>
<polygon fill="white" stroke="#bfbfbf" points="1203,-392.5 1203,-411.5 1253,-411.5 1253,-392.5 1203,-392.5"/>
<text text-anchor="middle" x="1228" y="-399.5" font-family="Helvetica,sans-Serif" font-size="10.00">fstream</text>
</g>
<!-- Node45&#45;&gt;Node46 -->
<g id="edge80" class="edge"><title>Node45&#45;&gt;Node46</title>
<path fill="none" stroke="midnightblue" d="M1228,-448.083C1228,-441.006 1228,-430.861 1228,-421.986"/>
<polygon fill="midnightblue" stroke="midnightblue" points="1231.5,-421.751 1228,-411.751 1224.5,-421.751 1231.5,-421.751"/>
</g>
<!-- Node47 -->
<g id="node47" class="node"><title>Node47</title>
<polygon fill="white" stroke="#bfbfbf" points="1271,-392.5 1271,-411.5 1327,-411.5 1327,-392.5 1271,-392.5"/>
<text text-anchor="middle" x="1299" y="-399.5" font-family="Helvetica,sans-Serif" font-size="10.00">algorithm</text>
</g>
<!-- Node45&#45;&gt;Node47 -->
<g id="edge81" class="edge"><title>Node45&#45;&gt;Node47</title>
<path fill="none" stroke="midnightblue" d="M1239.41,-448.324C1250.11,-440.185 1266.34,-427.839 1279.16,-418.087"/>
<polygon fill="midnightblue" stroke="midnightblue" points="1281.54,-420.673 1287.39,-411.834 1277.31,-415.102 1281.54,-420.673"/>
</g>
<!-- Node48&#45;&gt;Node2 -->
<g id="edge84" class="edge"><title>Node48&#45;&gt;Node2</title>
<path fill="none" stroke="midnightblue" d="M1849.26,-175.316C1690.43,-170.446 1227.84,-155.198 844,-132 530.122,-113.03 446.508,-126.864 132.343,-75.9512"/>
<polygon fill="midnightblue" stroke="midnightblue" points="132.459,-72.4241 122.026,-74.2696 131.333,-79.3329 132.459,-72.4241"/>
</g>
<!-- Node48&#45;&gt;Node5 -->
<g id="edge83" class="edge"><title>Node48&#45;&gt;Node5</title>
<path fill="none" stroke="midnightblue" d="M1849.16,-173.903C1679.14,-164.638 1174.68,-137.15 986.682,-126.906"/>
<polygon fill="midnightblue" stroke="midnightblue" points="986.806,-123.408 976.63,-126.358 986.425,-130.397 986.806,-123.408"/>
</g>
<!-- Node48&#45;&gt;Node22 -->
<g id="edge85" class="edge"><title>Node48&#45;&gt;Node22</title>
<path fill="none" stroke="midnightblue" d="M1900.78,-168.397C1895.32,-159.358 1886.49,-144.715 1879,-132 1859.18,-98.376 1861.76,-84.4113 1835,-56 1823.09,-43.3571 1806.98,-32.4968 1793.43,-24.6143"/>
<polygon fill="midnightblue" stroke="midnightblue" points="1794.97,-21.4696 1784.54,-19.6477 1791.56,-27.5806 1794.97,-21.4696"/>
</g>
<!-- Node49 -->
<g id="node49" class="node"><title>Node49</title>
<polygon fill="white" stroke="#bfbfbf" points="1887.5,-112.5 1887.5,-131.5 1928.5,-131.5 1928.5,-112.5 1887.5,-112.5"/>
<text text-anchor="middle" x="1908" y="-119.5" font-family="Helvetica,sans-Serif" font-size="10.00">ctime</text>
</g>
<!-- Node48&#45;&gt;Node49 -->
<g id="edge86" class="edge"><title>Node48&#45;&gt;Node49</title>
<path fill="none" stroke="midnightblue" d="M1906.33,-168.083C1906.59,-161.006 1906.97,-150.861 1907.3,-141.986"/>
<polygon fill="midnightblue" stroke="midnightblue" points="1910.8,-141.874 1907.68,-131.751 1903.81,-141.615 1910.8,-141.874"/>
</g>
<!-- Node50 -->
<g id="node50" class="node"><title>Node50</title>
<polygon fill="white" stroke="#bfbfbf" points="1947,-112.5 1947,-131.5 1993,-131.5 1993,-112.5 1947,-112.5"/>
<text text-anchor="middle" x="1970" y="-119.5" font-family="Helvetica,sans-Serif" font-size="10.00">chrono</text>
</g>
<!-- Node48&#45;&gt;Node50 -->
<g id="edge87" class="edge"><title>Node48&#45;&gt;Node50</title>
<path fill="none" stroke="midnightblue" d="M1916.28,-168.324C1925.84,-160.263 1940.28,-148.077 1951.78,-138.369"/>
<polygon fill="midnightblue" stroke="midnightblue" points="1954.14,-140.958 1959.53,-131.834 1949.63,-135.608 1954.14,-140.958"/>
</g>
</g>
</svg>
