<?xml version="1.0" encoding="UTF-8" standalone="no"?>
<!DOCTYPE svg PUBLIC "-//W3C//DTD SVG 1.1//EN"
 "http://www.w3.org/Graphics/SVG/1.1/DTD/svg11.dtd">
<!-- Generated by graphviz version 2.38.0 (20140413.2041)
 -->
<!-- Title: pngconf.h Pages: 1 -->
<svg width="324pt" height="84pt"
 viewBox="0.00 0.00 324.00 84.00" xmlns="http://www.w3.org/2000/svg" xmlns:xlink="http://www.w3.org/1999/xlink">
<g id="graph0" class="graph" transform="scale(1 1) rotate(0) translate(4 80)">
<title>pngconf.h</title>
<polygon fill="white" stroke="none" points="-4,4 -4,-80 320,-80 320,4 -4,4"/>
<!-- Node1 -->
<g id="node1" class="node"><title>Node1</title>
<polygon fill="#bfbfbf" stroke="black" points="129.5,-56.5 129.5,-75.5 188.5,-75.5 188.5,-56.5 129.5,-56.5"/>
<text text-anchor="middle" x="159" y="-63.5" font-family="Helvetica,sans-Serif" font-size="10.00">pngconf.h</text>
</g>
<!-- Node2 -->
<g id="node2" class="node"><title>Node2</title>
<polygon fill="white" stroke="#bfbfbf" points="0,-0.5 0,-19.5 48,-19.5 48,-0.5 0,-0.5"/>
<text text-anchor="middle" x="24" y="-7.5" font-family="Helvetica,sans-Serif" font-size="10.00">limits.h</text>
</g>
<!-- Node1&#45;&gt;Node2 -->
<g id="edge1" class="edge"><title>Node1&#45;&gt;Node2</title>
<path fill="none" stroke="midnightblue" d="M137.609,-56.4435C115.293,-47.5171 80.0968,-33.4387 54.792,-23.3168"/>
<polygon fill="midnightblue" stroke="midnightblue" points="55.8757,-19.9807 45.2911,-19.5164 53.276,-26.4801 55.8757,-19.9807"/>
</g>
<!-- Node3 -->
<g id="node3" class="node"><title>Node3</title>
<polygon fill="white" stroke="#bfbfbf" points="66,-0.5 66,-19.5 118,-19.5 118,-0.5 66,-0.5"/>
<text text-anchor="middle" x="92" y="-7.5" font-family="Helvetica,sans-Serif" font-size="10.00">stddef.h</text>
</g>
<!-- Node1&#45;&gt;Node3 -->
<g id="edge2" class="edge"><title>Node1&#45;&gt;Node3</title>
<path fill="none" stroke="midnightblue" d="M148.235,-56.324C138.234,-48.2631 123.113,-36.0765 111.07,-26.3695"/>
<polygon fill="midnightblue" stroke="midnightblue" points="112.943,-23.3841 102.961,-19.8339 108.55,-28.8343 112.943,-23.3841"/>
</g>
<!-- Node4 -->
<g id="node4" class="node"><title>Node4</title>
<polygon fill="white" stroke="#bfbfbf" points="136,-0.5 136,-19.5 182,-19.5 182,-0.5 136,-0.5"/>
<text text-anchor="middle" x="159" y="-7.5" font-family="Helvetica,sans-Serif" font-size="10.00">stdio.h</text>
</g>
<!-- Node1&#45;&gt;Node4 -->
<g id="edge3" class="edge"><title>Node1&#45;&gt;Node4</title>
<path fill="none" stroke="midnightblue" d="M159,-56.083C159,-49.0059 159,-38.8611 159,-29.9865"/>
<polygon fill="midnightblue" stroke="midnightblue" points="162.5,-29.751 159,-19.7511 155.5,-29.7511 162.5,-29.751"/>
</g>
<!-- Node5 -->
<g id="node5" class="node"><title>Node5</title>
<polygon fill="white" stroke="#bfbfbf" points="200,-0.5 200,-19.5 254,-19.5 254,-0.5 200,-0.5"/>
<text text-anchor="middle" x="227" y="-7.5" font-family="Helvetica,sans-Serif" font-size="10.00">setjmp.h</text>
</g>
<!-- Node1&#45;&gt;Node5 -->
<g id="edge4" class="edge"><title>Node1&#45;&gt;Node5</title>
<path fill="none" stroke="midnightblue" d="M169.925,-56.324C180.175,-48.1849 195.721,-35.8395 208.001,-26.0874"/>
<polygon fill="midnightblue" stroke="midnightblue" points="210.221,-28.7937 215.876,-19.8339 205.868,-23.3119 210.221,-28.7937"/>
</g>
<!-- Node6 -->
<g id="node6" class="node"><title>Node6</title>
<polygon fill="white" stroke="#bfbfbf" points="272,-0.5 272,-19.5 316,-19.5 316,-0.5 272,-0.5"/>
<text text-anchor="middle" x="294" y="-7.5" font-family="Helvetica,sans-Serif" font-size="10.00">time.h</text>
</g>
<!-- Node1&#45;&gt;Node6 -->
<g id="edge5" class="edge"><title>Node1&#45;&gt;Node6</title>
<path fill="none" stroke="midnightblue" d="M180.391,-56.4435C202.707,-47.5171 237.903,-33.4387 263.208,-23.3168"/>
<polygon fill="midnightblue" stroke="midnightblue" points="264.724,-26.4801 272.709,-19.5164 262.124,-19.9807 264.724,-26.4801"/>
</g>
</g>
</svg>
