<?xml version="1.0" encoding="UTF-8" standalone="no"?>
<!DOCTYPE svg PUBLIC "-//W3C//DTD SVG 1.1//EN"
 "http://www.w3.org/Graphics/SVG/1.1/DTD/svg11.dtd">
<!-- Generated by graphviz version 2.38.0 (20140413.2041)
 -->
<!-- Title: pnglibconf.h Pages: 1 -->
<!--zoomable 196 -->
<svg id="main" version="1.1" xmlns="http://www.w3.org/2000/svg" xmlns:xlink="http://www.w3.org/1999/xlink" xml:space="preserve" onload="init(evt)">
<style type="text/css"><![CDATA[
.edge:hover path { stroke: red; }
.edge:hover polygon { stroke: red; fill: red; }
]]></style>
<script type="text/javascript"><![CDATA[
var edges = document.getElementsByTagName('g');
if (edges && edges.length) {
  for (var i=0;i<edges.length;i++) {
    if (edges[i].id.substr(0,4)=='edge') {
      edges[i].setAttribute('class','edge');
    }
  }
}
]]></script>
        <defs>
                <circle id="rim" cx="0" cy="0" r="7"/>
                <circle id="rim2" cx="0" cy="0" r="3.5"/>
                <g id="zoomPlus">
                        <use xlink:href="#rim" fill="#404040">
                                <set attributeName="fill" to="#808080" begin="zoomplus.mouseover" end="zoomplus.mouseout"/>
                        </use>
                        <path d="M-4,0h8M0,-4v8" fill="none" stroke="white" stroke-width="1.5" pointer-events="none"/>
                </g>
                <g id="zoomMin">
                        <use xlink:href="#rim" fill="#404040">
                                <set attributeName="fill" to="#808080" begin="zoomminus.mouseover" end="zoomminus.mouseout"/>
                        </use>
                        <path d="M-4,0h8" fill="none" stroke="white" stroke-width="1.5" pointer-events="none"/>
                </g>
                <g id="dirArrow">
                        <path fill="none" stroke="white" stroke-width="1.5" d="M0,-3.0v7 M-2.5,-0.5L0,-3.0L2.5,-0.5"/>
                </g>
               <g id="resetDef">
                       <use xlink:href="#rim2" fill="#404040">
                               <set attributeName="fill" to="#808080" begin="reset.mouseover" end="reset.mouseout"/>
                       </use>
               </g>
        </defs>

<script type="text/javascript">
var viewWidth = 1130;
var viewHeight = 196;
var sectionId = 'dynsection-0';
</script>
<script xlink:href="svgpan.js"/>
<svg id="graph" class="graph">
<g id="viewport">
<title>pnglibconf.h</title>
<polygon fill="white" stroke="none" points="-4,4 -4,-192 1126,-192 1126,4 -4,4"/>
<!-- Node1 -->
<g id="node1" class="node"><title>Node1</title>
<polygon fill="#bfbfbf" stroke="black" points="539,-168.5 539,-187.5 608,-187.5 608,-168.5 539,-168.5"/>
<text text-anchor="middle" x="573.5" y="-175.5" font-family="Helvetica,sans-Serif" font-size="10.00">pnglibconf.h</text>
</g>
<!-- Node2 -->
<g id="node2" class="node"><title>Node2</title>
<g id="a_node2"><a xlink:href="pngpriv_8h.html" target="_top" xlink:title="pngpriv.h">
<polygon fill="white" stroke="black" points="521.5,-56.5 521.5,-75.5 577.5,-75.5 577.5,-56.5 521.5,-56.5"/>
<text text-anchor="middle" x="549.5" y="-63.5" font-family="Helvetica,sans-Serif" font-size="10.00">pngpriv.h</text>
</a>
</g>
</g>
<!-- Node1&#45;&gt;Node2 -->
<g id="edge1" class="edge"><title>Node1&#45;&gt;Node2</title>
<path fill="none" stroke="midnightblue" d="M569.43,-158.348C564.174,-134.254 555.24,-93.3079 551.374,-75.5914"/>
<polygon fill="midnightblue" stroke="midnightblue" points="566.065,-159.344 571.617,-168.368 572.905,-157.852 566.065,-159.344"/>
</g>
<!-- Node18 -->
<g id="node18" class="node"><title>Node18</title>
<g id="a_node18"><a xlink:href="png_8h.html" target="_top" xlink:title="png.h">
<polygon fill="white" stroke="black" points="578,-112.5 578,-131.5 619,-131.5 619,-112.5 578,-112.5"/>
<text text-anchor="middle" x="598.5" y="-119.5" font-family="Helvetica,sans-Serif" font-size="10.00">png.h</text>
</a>
</g>
</g>
<!-- Node1&#45;&gt;Node18 -->
<g id="edge17" class="edge"><title>Node1&#45;&gt;Node18</title>
<path fill="none" stroke="midnightblue" d="M581.841,-158.983C586.085,-149.817 591.05,-139.092 594.449,-131.751"/>
<polygon fill="midnightblue" stroke="midnightblue" points="578.653,-157.538 577.628,-168.083 585.006,-160.479 578.653,-157.538"/>
</g>
<!-- Node3 -->
<g id="node3" class="node"><title>Node3</title>
<g id="a_node3"><a xlink:href="png_8c.html" target="_top" xlink:title="png.c">
<polygon fill="white" stroke="black" points="0,-0.5 0,-19.5 41,-19.5 41,-0.5 0,-0.5"/>
<text text-anchor="middle" x="20.5" y="-7.5" font-family="Helvetica,sans-Serif" font-size="10.00">png.c</text>
</a>
</g>
</g>
<!-- Node2&#45;&gt;Node3 -->
<g id="edge2" class="edge"><title>Node2&#45;&gt;Node3</title>
<path fill="none" stroke="midnightblue" d="M511.262,-64.1714C427.191,-61.7796 220.245,-52.7681 50.5,-20 47.4033,-19.4022 44.1699,-18.6133 41.0207,-17.7506"/>
<polygon fill="midnightblue" stroke="midnightblue" points="511.271,-67.6728 521.362,-64.4433 511.46,-60.6753 511.271,-67.6728"/>
</g>
<!-- Node4 -->
<g id="node4" class="node"><title>Node4</title>
<g id="a_node4"><a xlink:href="pngerror_8c.html" target="_top" xlink:title="pngerror.c">
<polygon fill="white" stroke="black" points="59.5,-0.5 59.5,-19.5 119.5,-19.5 119.5,-0.5 59.5,-0.5"/>
<text text-anchor="middle" x="89.5" y="-7.5" font-family="Helvetica,sans-Serif" font-size="10.00">pngerror.c</text>
</a>
</g>
</g>
<!-- Node2&#45;&gt;Node4 -->
<g id="edge3" class="edge"><title>Node2&#45;&gt;Node4</title>
<path fill="none" stroke="midnightblue" d="M510.987,-62.4415C436.658,-57.16 268.408,-43.5327 128.5,-20 125.622,-19.5159 122.638,-18.9484 119.662,-18.3379"/>
<polygon fill="midnightblue" stroke="midnightblue" points="511.037,-65.9535 521.257,-63.1604 511.526,-58.9706 511.037,-65.9535"/>
</g>
<!-- Node5 -->
<g id="node5" class="node"><title>Node5</title>
<g id="a_node5"><a xlink:href="pngget_8c.html" target="_top" xlink:title="pngget.c">
<polygon fill="white" stroke="black" points="137.5,-0.5 137.5,-19.5 191.5,-19.5 191.5,-0.5 137.5,-0.5"/>
<text text-anchor="middle" x="164.5" y="-7.5" font-family="Helvetica,sans-Serif" font-size="10.00">pngget.c</text>
</a>
</g>
</g>
<!-- Node2&#45;&gt;Node5 -->
<g id="edge4" class="edge"><title>Node2&#45;&gt;Node5</title>
<path fill="none" stroke="midnightblue" d="M511.169,-61.5357C446.676,-55.3773 312.525,-41.1506 200.5,-20 197.588,-19.4502 194.56,-18.8074 191.552,-18.1228"/>
<polygon fill="midnightblue" stroke="midnightblue" points="510.993,-65.0345 521.277,-62.489 511.65,-58.0654 510.993,-65.0345"/>
</g>
<!-- Node6 -->
<g id="node6" class="node"><title>Node6</title>
<g id="a_node6"><a xlink:href="pngmem_8c.html" target="_top" xlink:title="pngmem.c">
<polygon fill="white" stroke="black" points="209.5,-0.5 209.5,-19.5 271.5,-19.5 271.5,-0.5 209.5,-0.5"/>
<text text-anchor="middle" x="240.5" y="-7.5" font-family="Helvetica,sans-Serif" font-size="10.00">pngmem.c</text>
</a>
</g>
</g>
<!-- Node2&#45;&gt;Node6 -->
<g id="edge5" class="edge"><title>Node2&#45;&gt;Node6</title>
<path fill="none" stroke="midnightblue" d="M510.965,-59.2427C458.629,-51.2666 362.226,-36.0172 280.5,-20 277.706,-19.4524 274.808,-18.8562 271.908,-18.24"/>
<polygon fill="midnightblue" stroke="midnightblue" points="510.723,-62.746 521.135,-60.7855 511.773,-55.8252 510.723,-62.746"/>
</g>
<!-- Node7 -->
<g id="node7" class="node"><title>Node7</title>
<g id="a_node7"><a xlink:href="pngpread_8c.html" target="_top" xlink:title="pngpread.c">
<polygon fill="white" stroke="black" points="290,-0.5 290,-19.5 355,-19.5 355,-0.5 290,-0.5"/>
<text text-anchor="middle" x="322.5" y="-7.5" font-family="Helvetica,sans-Serif" font-size="10.00">pngpread.c</text>
</a>
</g>
</g>
<!-- Node2&#45;&gt;Node7 -->
<g id="edge6" class="edge"><title>Node2&#45;&gt;Node7</title>
<path fill="none" stroke="midnightblue" d="M511.232,-55.8967C467.45,-45.4815 396.494,-28.602 355.193,-18.7771"/>
<polygon fill="midnightblue" stroke="midnightblue" points="510.671,-59.3607 521.209,-58.27 512.291,-52.5507 510.671,-59.3607"/>
</g>
<!-- Node8 -->
<g id="node8" class="node"><title>Node8</title>
<g id="a_node8"><a xlink:href="pngread_8c.html" target="_top" xlink:title="pngread.c">
<polygon fill="white" stroke="black" points="373,-0.5 373,-19.5 432,-19.5 432,-0.5 373,-0.5"/>
<text text-anchor="middle" x="402.5" y="-7.5" font-family="Helvetica,sans-Serif" font-size="10.00">pngread.c</text>
</a>
</g>
</g>
<!-- Node2&#45;&gt;Node8 -->
<g id="edge7" class="edge"><title>Node2&#45;&gt;Node8</title>
<path fill="none" stroke="midnightblue" d="M516.577,-52.9058C488.94,-42.7536 450.156,-28.5063 425.684,-19.5164"/>
<polygon fill="midnightblue" stroke="midnightblue" points="515.614,-56.2806 526.207,-56.4435 518.028,-49.71 515.614,-56.2806"/>
</g>
<!-- Node9 -->
<g id="node9" class="node"><title>Node9</title>
<g id="a_node9"><a xlink:href="pngrio_8c.html" target="_top" xlink:title="pngrio.c">
<polygon fill="white" stroke="black" points="450,-0.5 450,-19.5 501,-19.5 501,-0.5 450,-0.5"/>
<text text-anchor="middle" x="475.5" y="-7.5" font-family="Helvetica,sans-Serif" font-size="10.00">pngrio.c</text>
</a>
</g>
</g>
<!-- Node2&#45;&gt;Node9 -->
<g id="edge8" class="edge"><title>Node2&#45;&gt;Node9</title>
<path fill="none" stroke="midnightblue" d="M529.466,-50.3804C516.091,-40.6204 498.941,-28.1057 487.606,-19.8339"/>
<polygon fill="midnightblue" stroke="midnightblue" points="527.47,-53.2565 537.611,-56.324 531.596,-47.602 527.47,-53.2565"/>
</g>
<!-- Node10 -->
<g id="node10" class="node"><title>Node10</title>
<g id="a_node10"><a xlink:href="pngrtran_8c.html" target="_top" xlink:title="pngrtran.c">
<polygon fill="white" stroke="black" points="519.5,-0.5 519.5,-19.5 579.5,-19.5 579.5,-0.5 519.5,-0.5"/>
<text text-anchor="middle" x="549.5" y="-7.5" font-family="Helvetica,sans-Serif" font-size="10.00">pngrtran.c</text>
</a>
</g>
</g>
<!-- Node2&#45;&gt;Node10 -->
<g id="edge9" class="edge"><title>Node2&#45;&gt;Node10</title>
<path fill="none" stroke="midnightblue" d="M549.5,-45.8045C549.5,-36.9102 549.5,-26.7798 549.5,-19.7511"/>
<polygon fill="midnightblue" stroke="midnightblue" points="546,-46.083 549.5,-56.083 553,-46.083 546,-46.083"/>
</g>
<!-- Node11 -->
<g id="node11" class="node"><title>Node11</title>
<g id="a_node11"><a xlink:href="pngrutil_8c.html" target="_top" xlink:title="pngrutil.c">
<polygon fill="white" stroke="black" points="597.5,-0.5 597.5,-19.5 653.5,-19.5 653.5,-0.5 597.5,-0.5"/>
<text text-anchor="middle" x="625.5" y="-7.5" font-family="Helvetica,sans-Serif" font-size="10.00">pngrutil.c</text>
</a>
</g>
</g>
<!-- Node2&#45;&gt;Node11 -->
<g id="edge10" class="edge"><title>Node2&#45;&gt;Node11</title>
<path fill="none" stroke="midnightblue" d="M570.076,-50.3804C583.812,-40.6204 601.425,-28.1057 613.067,-19.8339"/>
<polygon fill="midnightblue" stroke="midnightblue" points="567.835,-47.6787 561.711,-56.324 571.89,-53.385 567.835,-47.6787"/>
</g>
<!-- Node12 -->
<g id="node12" class="node"><title>Node12</title>
<g id="a_node12"><a xlink:href="pngset_8c.html" target="_top" xlink:title="pngset.c">
<polygon fill="white" stroke="black" points="671.5,-0.5 671.5,-19.5 725.5,-19.5 725.5,-0.5 671.5,-0.5"/>
<text text-anchor="middle" x="698.5" y="-7.5" font-family="Helvetica,sans-Serif" font-size="10.00">pngset.c</text>
</a>
</g>
</g>
<!-- Node2&#45;&gt;Node12 -->
<g id="edge11" class="edge"><title>Node2&#45;&gt;Node12</title>
<path fill="none" stroke="midnightblue" d="M582.871,-52.9058C610.884,-42.7536 650.196,-28.5063 675.001,-19.5164"/>
<polygon fill="midnightblue" stroke="midnightblue" points="581.319,-49.7456 573.109,-56.4435 583.704,-56.3267 581.319,-49.7456"/>
</g>
<!-- Node13 -->
<g id="node13" class="node"><title>Node13</title>
<g id="a_node13"><a xlink:href="pngtrans_8c.html" target="_top" xlink:title="pngtrans.c">
<polygon fill="white" stroke="black" points="743.5,-0.5 743.5,-19.5 805.5,-19.5 805.5,-0.5 743.5,-0.5"/>
<text text-anchor="middle" x="774.5" y="-7.5" font-family="Helvetica,sans-Serif" font-size="10.00">pngtrans.c</text>
</a>
</g>
</g>
<!-- Node2&#45;&gt;Node13 -->
<g id="edge12" class="edge"><title>Node2&#45;&gt;Node13</title>
<path fill="none" stroke="midnightblue" d="M587.507,-55.7631C648.093,-41.1534 707.801,-26.8942 743.223,-18.4495"/>
<polygon fill="midnightblue" stroke="midnightblue" points="586.679,-52.3622 577.779,-58.11 588.321,-59.167 586.679,-52.3622"/>
</g>
<!-- Node14 -->
<g id="node14" class="node"><title>Node14</title>
<g id="a_node14"><a xlink:href="pngwio_8c.html" target="_top" xlink:title="pngwio.c">
<polygon fill="white" stroke="black" points="823.5,-0.5 823.5,-19.5 879.5,-19.5 879.5,-0.5 823.5,-0.5"/>
<text text-anchor="middle" x="851.5" y="-7.5" font-family="Helvetica,sans-Serif" font-size="10.00">pngwio.c</text>
</a>
</g>
</g>
<!-- Node2&#45;&gt;Node14 -->
<g id="edge13" class="edge"><title>Node2&#45;&gt;Node14</title>
<path fill="none" stroke="midnightblue" d="M587.744,-55.8921C688.84,-36.1033 717.051,-39.511 814.5,-20 817.352,-19.4289 820.317,-18.7883 823.271,-18.1189"/>
<polygon fill="midnightblue" stroke="midnightblue" points="586.855,-52.5002 577.729,-57.8811 588.219,-59.3661 586.855,-52.5002"/>
</g>
<!-- Node15 -->
<g id="node15" class="node"><title>Node15</title>
<g id="a_node15"><a xlink:href="pngwrite_8c.html" target="_top" xlink:title="pngwrite.c">
<polygon fill="white" stroke="black" points="897.5,-0.5 897.5,-19.5 959.5,-19.5 959.5,-0.5 897.5,-0.5"/>
<text text-anchor="middle" x="928.5" y="-7.5" font-family="Helvetica,sans-Serif" font-size="10.00">pngwrite.c</text>
</a>
</g>
</g>
<!-- Node2&#45;&gt;Node15 -->
<g id="edge14" class="edge"><title>Node2&#45;&gt;Node15</title>
<path fill="none" stroke="midnightblue" d="M587.908,-55.9454C721.326,-32.494 758.528,-42.3079 888.5,-20 891.306,-19.5184 894.212,-18.9675 897.118,-18.3808"/>
<polygon fill="midnightblue" stroke="midnightblue" points="586.935,-52.5637 577.707,-57.7695 588.167,-59.4544 586.935,-52.5637"/>
</g>
<!-- Node16 -->
<g id="node16" class="node"><title>Node16</title>
<g id="a_node16"><a xlink:href="pngwtran_8c.html" target="_top" xlink:title="pngwtran.c">
<polygon fill="white" stroke="black" points="978,-0.5 978,-19.5 1043,-19.5 1043,-0.5 978,-0.5"/>
<text text-anchor="middle" x="1010.5" y="-7.5" font-family="Helvetica,sans-Serif" font-size="10.00">pngwtran.c</text>
</a>
</g>
</g>
<!-- Node2&#45;&gt;Node16 -->
<g id="edge15" class="edge"><title>Node2&#45;&gt;Node16</title>
<path fill="none" stroke="midnightblue" d="M587.664,-56.0389C756.447,-28.4485 803.159,-45.4165 968.5,-20 971.448,-19.5468 974.501,-19.0155 977.552,-18.4415"/>
<polygon fill="midnightblue" stroke="midnightblue" points="586.985,-52.6037 577.695,-57.6968 588.133,-59.5089 586.985,-52.6037"/>
</g>
<!-- Node17 -->
<g id="node17" class="node"><title>Node17</title>
<g id="a_node17"><a xlink:href="pngwutil_8c.html" target="_top" xlink:title="pngwutil.c">
<polygon fill="white" stroke="black" points="1061,-0.5 1061,-19.5 1122,-19.5 1122,-0.5 1061,-0.5"/>
<text text-anchor="middle" x="1091.5" y="-7.5" font-family="Helvetica,sans-Serif" font-size="10.00">pngwutil.c</text>
</a>
</g>
</g>
<!-- Node2&#45;&gt;Node17 -->
<g id="edge16" class="edge"><title>Node2&#45;&gt;Node17</title>
<path fill="none" stroke="midnightblue" d="M587.601,-56.0843C793.417,-24.2087 850.374,-50.9516 1052.5,-20 1055.25,-19.5793 1058.09,-19.0703 1060.93,-18.5109"/>
<polygon fill="midnightblue" stroke="midnightblue" points="587.02,-52.6326 577.687,-57.647 588.11,-59.5473 587.02,-52.6326"/>
</g>
<!-- Node18&#45;&gt;Node2 -->
<g id="edge18" class="edge"><title>Node18&#45;&gt;Node2</title>
<path fill="none" stroke="midnightblue" d="M583.466,-104.431C574.878,-94.9673 564.457,-83.4827 557.441,-75.7511"/>
<polygon fill="midnightblue" stroke="midnightblue" points="581.097,-107.029 590.409,-112.083 586.281,-102.325 581.097,-107.029"/>
</g>
<!-- Node19 -->
<g id="node19" class="node"><title>Node19</title>
<g id="a_node19"><a xlink:href="pngtest_8c.html" target="_top" xlink:title="pngtest.c">
<polygon fill="white" stroke="black" points="596,-56.5 596,-75.5 653,-75.5 653,-56.5 596,-56.5"/>
<text text-anchor="middle" x="624.5" y="-63.5" font-family="Helvetica,sans-Serif" font-size="10.00">pngtest.c</text>
</a>
</g>
</g>
<!-- Node18&#45;&gt;Node19 -->
<g id="edge19" class="edge"><title>Node18&#45;&gt;Node19</title>
<path fill="none" stroke="midnightblue" d="M607.175,-102.983C611.588,-93.8168 616.752,-83.0922 620.287,-75.7511"/>
<polygon fill="midnightblue" stroke="midnightblue" points="603.978,-101.555 602.793,-112.083 610.285,-104.591 603.978,-101.555"/>
</g>
</g>
</svg>
        <g id="navigator" transform="translate(0 0)" fill="#404254">
                <rect fill="#f2f5e9" fill-opacity="0.5" stroke="#606060" stroke-width=".5" x="0" y="0" width="60" height="60"/>
                <use id="zoomplus" xlink:href="#zoomPlus" x="17" y="9" onmousedown="handleZoom(evt,'in')"/>
                <use id="zoomminus" xlink:href="#zoomMin" x="42" y="9" onmousedown="handleZoom(evt,'out')"/>
                <use id="reset" xlink:href="#resetDef" x="30" y="36" onmousedown="handleReset()"/>
                <g id="arrowUp" xlink:href="#dirArrow" transform="translate(30 24)" onmousedown="handlePan(0,-1)">
                  <use xlink:href="#rim" fill="#404040">
                        <set attributeName="fill" to="#808080" begin="arrowUp.mouseover" end="arrowUp.mouseout"/>
                  </use>
                  <path fill="none" stroke="white" stroke-width="1.5" d="M0,-3.0v7 M-2.5,-0.5L0,-3.0L2.5,-0.5"/>
                </g>
                <g id="arrowRight" xlink:href="#dirArrow" transform="rotate(90) translate(36 -43)" onmousedown="handlePan(1,0)">
                  <use xlink:href="#rim" fill="#404040">
                        <set attributeName="fill" to="#808080" begin="arrowRight.mouseover" end="arrowRight.mouseout"/>
                  </use>
                  <path fill="none" stroke="white" stroke-width="1.5" d="M0,-3.0v7 M-2.5,-0.5L0,-3.0L2.5,-0.5"/>
                </g>
                <g id="arrowDown" xlink:href="#dirArrow" transform="rotate(180) translate(-30 -48)" onmousedown="handlePan(0,1)">
                  <use xlink:href="#rim" fill="#404040">
                        <set attributeName="fill" to="#808080" begin="arrowDown.mouseover" end="arrowDown.mouseout"/>
                  </use>
                  <path fill="none" stroke="white" stroke-width="1.5" d="M0,-3.0v7 M-2.5,-0.5L0,-3.0L2.5,-0.5"/>
                </g>
                <g id="arrowLeft" xlink:href="#dirArrow" transform="rotate(270) translate(-36 17)" onmousedown="handlePan(-1,0)">
                  <use xlink:href="#rim" fill="#404040">
                        <set attributeName="fill" to="#808080" begin="arrowLeft.mouseover" end="arrowLeft.mouseout"/>
                  </use>
                  <path fill="none" stroke="white" stroke-width="1.5" d="M0,-3.0v7 M-2.5,-0.5L0,-3.0L2.5,-0.5"/>
                </g>
        </g>
        <svg viewBox="0 0 15 15" width="100%" height="30px" preserveAspectRatio="xMaxYMin meet">
         <g id="arrow_out" transform="scale(0.3 0.3)">
          <a xlink:href="pnglibconf_8h__dep__incl_org.svg" target="_base">
           <rect id="button" ry="5" rx="5" y="6" x="6" height="38" width="38"
                fill="#f2f5e9" fill-opacity="0.5" stroke="#606060" stroke-width="1.0"/>
           <path id="arrow"
             d="M 11.500037,31.436501 C 11.940474,20.09759 22.043105,11.32322 32.158766,21.979434 L 37.068811,17.246167 C 37.068811,17.246167 37.088388,32 37.088388,32 L 22.160133,31.978069 C 22.160133,31.978069 26.997745,27.140456 26.997745,27.140456 C 18.528582,18.264221 13.291696,25.230495 11.500037,31.436501 z"
             style="fill:#404040;"/>
          </a>
         </g>
        </svg>
</svg>
