<?xml version="1.0" encoding="UTF-8" standalone="no"?>
<!DOCTYPE svg PUBLIC "-//W3C//DTD SVG 1.1//EN"
 "http://www.w3.org/Graphics/SVG/1.1/DTD/svg11.dtd">
<!-- Generated by graphviz version 2.38.0 (20140413.2041)
 -->
<!-- Title: pngrio.c Pages: 1 -->
<!--zoomable 308 -->
<svg id="main" version="1.1" xmlns="http://www.w3.org/2000/svg" xmlns:xlink="http://www.w3.org/1999/xlink" xml:space="preserve" onload="init(evt)">
<style type="text/css"><![CDATA[
.edge:hover path { stroke: red; }
.edge:hover polygon { stroke: red; fill: red; }
]]></style>
<script type="text/javascript"><![CDATA[
var edges = document.getElementsByTagName('g');
if (edges && edges.length) {
  for (var i=0;i<edges.length;i++) {
    if (edges[i].id.substr(0,4)=='edge') {
      edges[i].setAttribute('class','edge');
    }
  }
}
]]></script>
        <defs>
                <circle id="rim" cx="0" cy="0" r="7"/>
                <circle id="rim2" cx="0" cy="0" r="3.5"/>
                <g id="zoomPlus">
                        <use xlink:href="#rim" fill="#404040">
                                <set attributeName="fill" to="#808080" begin="zoomplus.mouseover" end="zoomplus.mouseout"/>
                        </use>
                        <path d="M-4,0h8M0,-4v8" fill="none" stroke="white" stroke-width="1.5" pointer-events="none"/>
                </g>
                <g id="zoomMin">
                        <use xlink:href="#rim" fill="#404040">
                                <set attributeName="fill" to="#808080" begin="zoomminus.mouseover" end="zoomminus.mouseout"/>
                        </use>
                        <path d="M-4,0h8" fill="none" stroke="white" stroke-width="1.5" pointer-events="none"/>
                </g>
                <g id="dirArrow">
                        <path fill="none" stroke="white" stroke-width="1.5" d="M0,-3.0v7 M-2.5,-0.5L0,-3.0L2.5,-0.5"/>
                </g>
               <g id="resetDef">
                       <use xlink:href="#rim2" fill="#404040">
                               <set attributeName="fill" to="#808080" begin="reset.mouseover" end="reset.mouseout"/>
                       </use>
               </g>
        </defs>

<script type="text/javascript">
var viewWidth = 593;
var viewHeight = 308;
var sectionId = 'dynsection-0';
</script>
<script xlink:href="svgpan.js"/>
<svg id="graph" class="graph">
<g id="viewport">
<title>pngrio.c</title>
<polygon fill="white" stroke="none" points="-4,4 -4,-304 588.5,-304 588.5,4 -4,4"/>
<!-- Node1 -->
<g id="node1" class="node"><title>Node1</title>
<polygon fill="#bfbfbf" stroke="black" points="228.5,-280.5 228.5,-299.5 279.5,-299.5 279.5,-280.5 228.5,-280.5"/>
<text text-anchor="middle" x="254" y="-287.5" font-family="Helvetica,sans-Serif" font-size="10.00">pngrio.c</text>
</g>
<!-- Node2 -->
<g id="node2" class="node"><title>Node2</title>
<g id="a_node2"><a xlink:href="pngpriv_8h.html" target="_top" xlink:title="pngpriv.h">
<polygon fill="white" stroke="black" points="226,-224.5 226,-243.5 282,-243.5 282,-224.5 226,-224.5"/>
<text text-anchor="middle" x="254" y="-231.5" font-family="Helvetica,sans-Serif" font-size="10.00">pngpriv.h</text>
</a>
</g>
</g>
<!-- Node1&#45;&gt;Node2 -->
<g id="edge1" class="edge"><title>Node1&#45;&gt;Node2</title>
<path fill="none" stroke="midnightblue" d="M254,-280.083C254,-273.006 254,-262.861 254,-253.986"/>
<polygon fill="midnightblue" stroke="midnightblue" points="257.5,-253.751 254,-243.751 250.5,-253.751 257.5,-253.751"/>
</g>
<!-- Node3 -->
<g id="node3" class="node"><title>Node3</title>
<polygon fill="white" stroke="#bfbfbf" points="0,-168.5 0,-187.5 48,-187.5 48,-168.5 0,-168.5"/>
<text text-anchor="middle" x="24" y="-175.5" font-family="Helvetica,sans-Serif" font-size="10.00">stdlib.h</text>
</g>
<!-- Node2&#45;&gt;Node3 -->
<g id="edge2" class="edge"><title>Node2&#45;&gt;Node3</title>
<path fill="none" stroke="midnightblue" d="M225.856,-226.958C189.418,-219.051 123.717,-204.512 58.204,-188.224"/>
<polygon fill="midnightblue" stroke="midnightblue" points="58.6705,-184.733 48.1201,-185.703 56.9724,-191.524 58.6705,-184.733"/>
</g>
<!-- Node4 -->
<g id="node4" class="node"><title>Node4</title>
<polygon fill="white" stroke="#bfbfbf" points="66.5,-168.5 66.5,-187.5 115.5,-187.5 115.5,-168.5 66.5,-168.5"/>
<text text-anchor="middle" x="91" y="-175.5" font-family="Helvetica,sans-Serif" font-size="10.00">string.h</text>
</g>
<!-- Node2&#45;&gt;Node4 -->
<g id="edge3" class="edge"><title>Node2&#45;&gt;Node4</title>
<path fill="none" stroke="midnightblue" d="M228.172,-224.444C200.428,-215.252 156.196,-200.599 125.491,-190.426"/>
<polygon fill="midnightblue" stroke="midnightblue" points="126.233,-186.985 115.64,-187.163 124.032,-193.63 126.233,-186.985"/>
</g>
<!-- Node5 -->
<g id="node5" class="node"><title>Node5</title>
<g id="a_node5"><a xlink:href="pnglibconf_8h.html" target="_top" xlink:title="pnglibconf.h">
<polygon fill="white" stroke="black" points="92.5,-112.5 92.5,-131.5 161.5,-131.5 161.5,-112.5 92.5,-112.5"/>
<text text-anchor="middle" x="127" y="-119.5" font-family="Helvetica,sans-Serif" font-size="10.00">pnglibconf.h</text>
</a>
</g>
</g>
<!-- Node2&#45;&gt;Node5 -->
<g id="edge4" class="edge"><title>Node2&#45;&gt;Node5</title>
<path fill="none" stroke="midnightblue" d="M226.705,-224.457C207.123,-217.236 181.104,-205.28 163,-188 149.318,-174.94 139.499,-155.518 133.606,-141.305"/>
<polygon fill="midnightblue" stroke="midnightblue" points="136.741,-139.706 129.867,-131.644 130.213,-142.233 136.741,-139.706"/>
</g>
<!-- Node6 -->
<g id="node6" class="node"><title>Node6</title>
<g id="a_node6"><a xlink:href="png_8h.html" target="_top" xlink:title="png.h">
<polygon fill="white" stroke="black" points="172.5,-168.5 172.5,-187.5 213.5,-187.5 213.5,-168.5 172.5,-168.5"/>
<text text-anchor="middle" x="193" y="-175.5" font-family="Helvetica,sans-Serif" font-size="10.00">png.h</text>
</a>
</g>
</g>
<!-- Node2&#45;&gt;Node6 -->
<g id="edge5" class="edge"><title>Node2&#45;&gt;Node6</title>
<path fill="none" stroke="midnightblue" d="M244.199,-224.324C235.182,-216.341 221.594,-204.313 210.682,-194.653"/>
<polygon fill="midnightblue" stroke="midnightblue" points="212.787,-191.842 202.979,-187.834 208.147,-197.083 212.787,-191.842"/>
</g>
<!-- Node13 -->
<g id="node13" class="node"><title>Node13</title>
<polygon fill="white" stroke="#bfbfbf" points="232,-168.5 232,-187.5 276,-187.5 276,-168.5 232,-168.5"/>
<text text-anchor="middle" x="254" y="-175.5" font-family="Helvetica,sans-Serif" font-size="10.00">float.h</text>
</g>
<!-- Node2&#45;&gt;Node13 -->
<g id="edge13" class="edge"><title>Node2&#45;&gt;Node13</title>
<path fill="none" stroke="midnightblue" d="M254,-224.083C254,-217.006 254,-206.861 254,-197.986"/>
<polygon fill="midnightblue" stroke="midnightblue" points="257.5,-197.751 254,-187.751 250.5,-197.751 257.5,-197.751"/>
</g>
<!-- Node14 -->
<g id="node14" class="node"><title>Node14</title>
<polygon fill="white" stroke="#bfbfbf" points="294.5,-168.5 294.5,-187.5 341.5,-187.5 341.5,-168.5 294.5,-168.5"/>
<text text-anchor="middle" x="318" y="-175.5" font-family="Helvetica,sans-Serif" font-size="10.00">math.h</text>
</g>
<!-- Node2&#45;&gt;Node14 -->
<g id="edge14" class="edge"><title>Node2&#45;&gt;Node14</title>
<path fill="none" stroke="midnightblue" d="M264.283,-224.324C273.836,-216.263 288.28,-204.077 299.784,-194.369"/>
<polygon fill="midnightblue" stroke="midnightblue" points="302.144,-196.958 307.53,-187.834 297.63,-191.608 302.144,-196.958"/>
</g>
<!-- Node15 -->
<g id="node15" class="node"><title>Node15</title>
<g id="a_node15"><a xlink:href="pngstruct_8h.html" target="_top" xlink:title="pngstruct.h">
<polygon fill="white" stroke="black" points="359.5,-168.5 359.5,-187.5 424.5,-187.5 424.5,-168.5 359.5,-168.5"/>
<text text-anchor="middle" x="392" y="-175.5" font-family="Helvetica,sans-Serif" font-size="10.00">pngstruct.h</text>
</a>
</g>
</g>
<!-- Node2&#45;&gt;Node15 -->
<g id="edge15" class="edge"><title>Node2&#45;&gt;Node15</title>
<path fill="none" stroke="midnightblue" d="M275.867,-224.444C298.779,-215.478 334.975,-201.314 360.866,-191.183"/>
<polygon fill="midnightblue" stroke="midnightblue" points="362.199,-194.42 370.236,-187.516 359.648,-187.901 362.199,-194.42"/>
</g>
<!-- Node20 -->
<g id="node20" class="node"><title>Node20</title>
<g id="a_node20"><a xlink:href="pnginfo_8h.html" target="_top" xlink:title="pnginfo.h">
<polygon fill="white" stroke="black" points="443,-168.5 443,-187.5 499,-187.5 499,-168.5 443,-168.5"/>
<text text-anchor="middle" x="471" y="-175.5" font-family="Helvetica,sans-Serif" font-size="10.00">pnginfo.h</text>
</a>
</g>
</g>
<!-- Node2&#45;&gt;Node20 -->
<g id="edge20" class="edge"><title>Node2&#45;&gt;Node20</title>
<path fill="none" stroke="midnightblue" d="M282.369,-225.94C320.977,-216.333 390.168,-199.115 433.162,-188.416"/>
<polygon fill="midnightblue" stroke="midnightblue" points="434.109,-191.787 442.968,-185.976 432.419,-184.994 434.109,-191.787"/>
</g>
<!-- Node21 -->
<g id="node21" class="node"><title>Node21</title>
<g id="a_node21"><a xlink:href="pngdebug_8h.html" target="_top" xlink:title="pngdebug.h">
<polygon fill="white" stroke="black" points="517.5,-168.5 517.5,-187.5 584.5,-187.5 584.5,-168.5 517.5,-168.5"/>
<text text-anchor="middle" x="551" y="-175.5" font-family="Helvetica,sans-Serif" font-size="10.00">pngdebug.h</text>
</a>
</g>
</g>
<!-- Node2&#45;&gt;Node21 -->
<g id="edge21" class="edge"><title>Node2&#45;&gt;Node21</title>
<path fill="none" stroke="midnightblue" d="M282.243,-228.29C327.492,-220.681 419.268,-204.988 507.333,-188.08"/>
<polygon fill="midnightblue" stroke="midnightblue" points="508.062,-191.504 517.219,-186.174 506.737,-184.63 508.062,-191.504"/>
</g>
<!-- Node6&#45;&gt;Node5 -->
<g id="edge6" class="edge"><title>Node6&#45;&gt;Node5</title>
<path fill="none" stroke="midnightblue" d="M182.396,-168.324C172.544,-160.263 157.649,-148.077 145.785,-138.369"/>
<polygon fill="midnightblue" stroke="midnightblue" points="147.753,-135.457 137.797,-131.834 143.32,-140.875 147.753,-135.457"/>
</g>
<!-- Node7 -->
<g id="node7" class="node"><title>Node7</title>
<g id="a_node7"><a xlink:href="pngconf_8h.html" target="_top" xlink:title="pngconf.h">
<polygon fill="white" stroke="black" points="179.5,-112.5 179.5,-131.5 238.5,-131.5 238.5,-112.5 179.5,-112.5"/>
<text text-anchor="middle" x="209" y="-119.5" font-family="Helvetica,sans-Serif" font-size="10.00">pngconf.h</text>
</a>
</g>
</g>
<!-- Node6&#45;&gt;Node7 -->
<g id="edge7" class="edge"><title>Node6&#45;&gt;Node7</title>
<path fill="none" stroke="midnightblue" d="M195.642,-168.083C197.786,-160.849 200.879,-150.409 203.549,-141.397"/>
<polygon fill="midnightblue" stroke="midnightblue" points="206.922,-142.333 206.407,-131.751 200.21,-140.345 206.922,-142.333"/>
</g>
<!-- Node8 -->
<g id="node8" class="node"><title>Node8</title>
<polygon fill="white" stroke="#bfbfbf" points="41,-56.5 41,-75.5 89,-75.5 89,-56.5 41,-56.5"/>
<text text-anchor="middle" x="65" y="-63.5" font-family="Helvetica,sans-Serif" font-size="10.00">limits.h</text>
</g>
<!-- Node7&#45;&gt;Node8 -->
<g id="edge8" class="edge"><title>Node7&#45;&gt;Node8</title>
<path fill="none" stroke="midnightblue" d="M186.183,-112.444C162.168,-103.438 124.171,-89.1891 97.1308,-79.049"/>
<polygon fill="midnightblue" stroke="midnightblue" points="98.3027,-75.7506 87.7105,-75.5164 95.8448,-82.3049 98.3027,-75.7506"/>
</g>
<!-- Node9 -->
<g id="node9" class="node"><title>Node9</title>
<polygon fill="white" stroke="#bfbfbf" points="107,-56.5 107,-75.5 159,-75.5 159,-56.5 107,-56.5"/>
<text text-anchor="middle" x="133" y="-63.5" font-family="Helvetica,sans-Serif" font-size="10.00">stddef.h</text>
</g>
<!-- Node7&#45;&gt;Node9 -->
<g id="edge9" class="edge"><title>Node7&#45;&gt;Node9</title>
<path fill="none" stroke="midnightblue" d="M196.789,-112.324C185.224,-104.107 167.625,-91.6017 153.839,-81.8069"/>
<polygon fill="midnightblue" stroke="midnightblue" points="155.612,-78.7729 145.433,-75.8339 151.557,-84.4791 155.612,-78.7729"/>
</g>
<!-- Node10 -->
<g id="node10" class="node"><title>Node10</title>
<polygon fill="white" stroke="#bfbfbf" points="177,-56.5 177,-75.5 223,-75.5 223,-56.5 177,-56.5"/>
<text text-anchor="middle" x="200" y="-63.5" font-family="Helvetica,sans-Serif" font-size="10.00">stdio.h</text>
</g>
<!-- Node7&#45;&gt;Node10 -->
<g id="edge10" class="edge"><title>Node7&#45;&gt;Node10</title>
<path fill="none" stroke="midnightblue" d="M207.514,-112.083C206.321,-104.927 204.606,-94.6353 203.115,-85.6911"/>
<polygon fill="midnightblue" stroke="midnightblue" points="206.555,-85.0396 201.459,-75.7511 199.65,-86.1904 206.555,-85.0396"/>
</g>
<!-- Node11 -->
<g id="node11" class="node"><title>Node11</title>
<polygon fill="white" stroke="#bfbfbf" points="241,-56.5 241,-75.5 295,-75.5 295,-56.5 241,-56.5"/>
<text text-anchor="middle" x="268" y="-63.5" font-family="Helvetica,sans-Serif" font-size="10.00">setjmp.h</text>
</g>
<!-- Node7&#45;&gt;Node11 -->
<g id="edge11" class="edge"><title>Node7&#45;&gt;Node11</title>
<path fill="none" stroke="midnightblue" d="M218.479,-112.324C227.201,-104.341 240.343,-92.3128 250.898,-82.6529"/>
<polygon fill="midnightblue" stroke="midnightblue" points="253.334,-85.1674 258.348,-75.8339 248.608,-80.0036 253.334,-85.1674"/>
</g>
<!-- Node12 -->
<g id="node12" class="node"><title>Node12</title>
<polygon fill="white" stroke="#bfbfbf" points="313,-56.5 313,-75.5 357,-75.5 357,-56.5 313,-56.5"/>
<text text-anchor="middle" x="335" y="-63.5" font-family="Helvetica,sans-Serif" font-size="10.00">time.h</text>
</g>
<!-- Node7&#45;&gt;Node12 -->
<g id="edge12" class="edge"><title>Node7&#45;&gt;Node12</title>
<path fill="none" stroke="midnightblue" d="M228.965,-112.444C249.609,-103.596 282.063,-89.6875 305.632,-79.5865"/>
<polygon fill="midnightblue" stroke="midnightblue" points="307.316,-82.6727 315.128,-75.5164 304.558,-76.2387 307.316,-82.6727"/>
</g>
<!-- Node16 -->
<g id="node16" class="node"><title>Node16</title>
<g id="a_node16"><a xlink:href="zlib_8h.html" target="_top" xlink:title="thirdparty/zlib/zlib.h">
<polygon fill="white" stroke="black" points="341.5,-112.5 341.5,-131.5 442.5,-131.5 442.5,-112.5 341.5,-112.5"/>
<text text-anchor="middle" x="392" y="-119.5" font-family="Helvetica,sans-Serif" font-size="10.00">thirdparty/zlib/zlib.h</text>
</a>
</g>
</g>
<!-- Node15&#45;&gt;Node16 -->
<g id="edge16" class="edge"><title>Node15&#45;&gt;Node16</title>
<path fill="none" stroke="midnightblue" d="M392,-168.083C392,-161.006 392,-150.861 392,-141.986"/>
<polygon fill="midnightblue" stroke="midnightblue" points="395.5,-141.751 392,-131.751 388.5,-141.751 395.5,-141.751"/>
</g>
<!-- Node17 -->
<g id="node17" class="node"><title>Node17</title>
<g id="a_node17"><a xlink:href="zconf_8h.html" target="_top" xlink:title="zconf.h">
<polygon fill="white" stroke="black" points="375.5,-56.5 375.5,-75.5 424.5,-75.5 424.5,-56.5 375.5,-56.5"/>
<text text-anchor="middle" x="400" y="-63.5" font-family="Helvetica,sans-Serif" font-size="10.00">zconf.h</text>
</a>
</g>
</g>
<!-- Node16&#45;&gt;Node17 -->
<g id="edge17" class="edge"><title>Node16&#45;&gt;Node17</title>
<path fill="none" stroke="midnightblue" d="M393.321,-112.083C394.381,-104.927 395.906,-94.6353 397.231,-85.6911"/>
<polygon fill="midnightblue" stroke="midnightblue" points="400.7,-86.1561 398.704,-75.7511 393.776,-85.1302 400.7,-86.1561"/>
</g>
<!-- Node18 -->
<g id="node18" class="node"><title>Node18</title>
<polygon fill="white" stroke="#bfbfbf" points="339,-0.5 339,-19.5 391,-19.5 391,-0.5 339,-0.5"/>
<text text-anchor="middle" x="365" y="-7.5" font-family="Helvetica,sans-Serif" font-size="10.00">stdarg.h</text>
</g>
<!-- Node17&#45;&gt;Node18 -->
<g id="edge18" class="edge"><title>Node17&#45;&gt;Node18</title>
<path fill="none" stroke="midnightblue" d="M394.22,-56.083C389.328,-48.5341 382.173,-37.4948 376.167,-28.2298"/>
<polygon fill="midnightblue" stroke="midnightblue" points="379.048,-26.239 370.672,-19.7511 373.174,-30.0463 379.048,-26.239"/>
</g>
<!-- Node19 -->
<g id="node19" class="node"><title>Node19</title>
<polygon fill="white" stroke="#bfbfbf" points="409.5,-0.5 409.5,-19.5 460.5,-19.5 460.5,-0.5 409.5,-0.5"/>
<text text-anchor="middle" x="435" y="-7.5" font-family="Helvetica,sans-Serif" font-size="10.00">unistd.h</text>
</g>
<!-- Node17&#45;&gt;Node19 -->
<g id="edge19" class="edge"><title>Node17&#45;&gt;Node19</title>
<path fill="none" stroke="midnightblue" d="M405.78,-56.083C410.672,-48.5341 417.827,-37.4948 423.833,-28.2298"/>
<polygon fill="midnightblue" stroke="midnightblue" points="426.826,-30.0463 429.328,-19.7511 420.952,-26.239 426.826,-30.0463"/>
</g>
</g>
</svg>
        <g id="navigator" transform="translate(0 0)" fill="#404254">
                <rect fill="#f2f5e9" fill-opacity="0.5" stroke="#606060" stroke-width=".5" x="0" y="0" width="60" height="60"/>
                <use id="zoomplus" xlink:href="#zoomPlus" x="17" y="9" onmousedown="handleZoom(evt,'in')"/>
                <use id="zoomminus" xlink:href="#zoomMin" x="42" y="9" onmousedown="handleZoom(evt,'out')"/>
                <use id="reset" xlink:href="#resetDef" x="30" y="36" onmousedown="handleReset()"/>
                <g id="arrowUp" xlink:href="#dirArrow" transform="translate(30 24)" onmousedown="handlePan(0,-1)">
                  <use xlink:href="#rim" fill="#404040">
                        <set attributeName="fill" to="#808080" begin="arrowUp.mouseover" end="arrowUp.mouseout"/>
                  </use>
                  <path fill="none" stroke="white" stroke-width="1.5" d="M0,-3.0v7 M-2.5,-0.5L0,-3.0L2.5,-0.5"/>
                </g>
                <g id="arrowRight" xlink:href="#dirArrow" transform="rotate(90) translate(36 -43)" onmousedown="handlePan(1,0)">
                  <use xlink:href="#rim" fill="#404040">
                        <set attributeName="fill" to="#808080" begin="arrowRight.mouseover" end="arrowRight.mouseout"/>
                  </use>
                  <path fill="none" stroke="white" stroke-width="1.5" d="M0,-3.0v7 M-2.5,-0.5L0,-3.0L2.5,-0.5"/>
                </g>
                <g id="arrowDown" xlink:href="#dirArrow" transform="rotate(180) translate(-30 -48)" onmousedown="handlePan(0,1)">
                  <use xlink:href="#rim" fill="#404040">
                        <set attributeName="fill" to="#808080" begin="arrowDown.mouseover" end="arrowDown.mouseout"/>
                  </use>
                  <path fill="none" stroke="white" stroke-width="1.5" d="M0,-3.0v7 M-2.5,-0.5L0,-3.0L2.5,-0.5"/>
                </g>
                <g id="arrowLeft" xlink:href="#dirArrow" transform="rotate(270) translate(-36 17)" onmousedown="handlePan(-1,0)">
                  <use xlink:href="#rim" fill="#404040">
                        <set attributeName="fill" to="#808080" begin="arrowLeft.mouseover" end="arrowLeft.mouseout"/>
                  </use>
                  <path fill="none" stroke="white" stroke-width="1.5" d="M0,-3.0v7 M-2.5,-0.5L0,-3.0L2.5,-0.5"/>
                </g>
        </g>
        <svg viewBox="0 0 15 15" width="100%" height="30px" preserveAspectRatio="xMaxYMin meet">
         <g id="arrow_out" transform="scale(0.3 0.3)">
          <a xlink:href="pngrio_8c__incl_org.svg" target="_base">
           <rect id="button" ry="5" rx="5" y="6" x="6" height="38" width="38"
                fill="#f2f5e9" fill-opacity="0.5" stroke="#606060" stroke-width="1.0"/>
           <path id="arrow"
             d="M 11.500037,31.436501 C 11.940474,20.09759 22.043105,11.32322 32.158766,21.979434 L 37.068811,17.246167 C 37.068811,17.246167 37.088388,32 37.088388,32 L 22.160133,31.978069 C 22.160133,31.978069 26.997745,27.140456 26.997745,27.140456 C 18.528582,18.264221 13.291696,25.230495 11.500037,31.436501 z"
             style="fill:#404040;"/>
          </a>
         </g>
        </svg>
</svg>
