<?xml version="1.0" encoding="UTF-8" standalone="no"?>
<!DOCTYPE svg PUBLIC "-//W3C//DTD SVG 1.1//EN"
 "http://www.w3.org/Graphics/SVG/1.1/DTD/svg11.dtd">
<!-- Generated by graphviz version 2.38.0 (20140413.2041)
 -->
<!-- Title: print_utils.cpp Pages: 1 -->
<svg width="1830pt" height="532pt"
 viewBox="0.00 0.00 1829.94 532.00" xmlns="http://www.w3.org/2000/svg" xmlns:xlink="http://www.w3.org/1999/xlink">
<g id="graph0" class="graph" transform="scale(1 1) rotate(0) translate(4 528)">
<title>print_utils.cpp</title>
<polygon fill="white" stroke="none" points="-4,4 -4,-528 1825.94,-528 1825.94,4 -4,4"/>
<!-- Node1 -->
<g id="node1" class="node"><title>Node1</title>
<polygon fill="#bfbfbf" stroke="black" points="1107.5,-504.5 1107.5,-523.5 1184.5,-523.5 1184.5,-504.5 1107.5,-504.5"/>
<text text-anchor="middle" x="1146" y="-511.5" font-family="Helvetica,sans-Serif" font-size="10.00">print_utils.cpp</text>
</g>
<!-- Node2 -->
<g id="node2" class="node"><title>Node2</title>
<g id="a_node2"><a xlink:href="config_cosmos_8h.html" target="_top" xlink:title="Headers and definitions common to all COSMOS. ">
<polygon fill="white" stroke="black" points="1029.5,-112.5 1029.5,-131.5 1152.5,-131.5 1152.5,-112.5 1029.5,-112.5"/>
<text text-anchor="middle" x="1091" y="-119.5" font-family="Helvetica,sans-Serif" font-size="10.00">support/configCosmos.h</text>
</a>
</g>
</g>
<!-- Node1&#45;&gt;Node2 -->
<g id="edge1" class="edge"><title>Node1&#45;&gt;Node2</title>
<path fill="none" stroke="midnightblue" d="M1127.36,-504.441C1096.71,-488.932 1039,-453.087 1039,-403 1039,-403 1039,-403 1039,-233 1039,-197.119 1061.89,-160.424 1077.3,-139.793"/>
<polygon fill="midnightblue" stroke="midnightblue" points="1080.18,-141.789 1083.55,-131.744 1074.65,-137.497 1080.18,-141.789"/>
</g>
<!-- Node35 -->
<g id="node35" class="node"><title>Node35</title>
<g id="a_node35"><a xlink:href="print__utils_8h.html" target="_top" xlink:title="support/print_utils.h">
<polygon fill="white" stroke="black" points="1202,-448.5 1202,-467.5 1304,-467.5 1304,-448.5 1202,-448.5"/>
<text text-anchor="middle" x="1253" y="-455.5" font-family="Helvetica,sans-Serif" font-size="10.00">support/print_utils.h</text>
</a>
</g>
</g>
<!-- Node1&#45;&gt;Node35 -->
<g id="edge43" class="edge"><title>Node1&#45;&gt;Node35</title>
<path fill="none" stroke="midnightblue" d="M1163.19,-504.324C1180.35,-495.664 1206.95,-482.242 1226.75,-472.249"/>
<polygon fill="midnightblue" stroke="midnightblue" points="1228.5,-475.285 1235.85,-467.655 1225.35,-469.035 1228.5,-475.285"/>
</g>
<!-- Node3 -->
<g id="node3" class="node"><title>Node3</title>
<polygon fill="white" stroke="#bfbfbf" points="611.5,-56.5 611.5,-75.5 656.5,-75.5 656.5,-56.5 611.5,-56.5"/>
<text text-anchor="middle" x="634" y="-63.5" font-family="Helvetica,sans-Serif" font-size="10.00">climits</text>
</g>
<!-- Node2&#45;&gt;Node3 -->
<g id="edge2" class="edge"><title>Node2&#45;&gt;Node3</title>
<path fill="none" stroke="midnightblue" d="M1029.21,-113.602C1024.4,-113.051 1019.62,-112.511 1015,-112 862.911,-95.1741 820.305,-105.456 666.843,-76.0572"/>
<polygon fill="midnightblue" stroke="midnightblue" points="667.055,-72.5332 656.572,-74.0626 665.721,-79.4049 667.055,-72.5332"/>
</g>
<!-- Node4 -->
<g id="node4" class="node"><title>Node4</title>
<polygon fill="white" stroke="#bfbfbf" points="674.5,-56.5 674.5,-75.5 721.5,-75.5 721.5,-56.5 674.5,-56.5"/>
<text text-anchor="middle" x="698" y="-63.5" font-family="Helvetica,sans-Serif" font-size="10.00">csignal</text>
</g>
<!-- Node2&#45;&gt;Node4 -->
<g id="edge3" class="edge"><title>Node2&#45;&gt;Node4</title>
<path fill="none" stroke="midnightblue" d="M1029.39,-113.529C939.276,-102.572 777.965,-82.8355 731.818,-75.6392"/>
<polygon fill="midnightblue" stroke="midnightblue" points="732.147,-72.1444 721.698,-73.8952 730.958,-79.0427 732.147,-72.1444"/>
</g>
<!-- Node5 -->
<g id="node5" class="node"><title>Node5</title>
<polygon fill="white" stroke="#bfbfbf" points="1575,-56.5 1575,-75.5 1621,-75.5 1621,-56.5 1575,-56.5"/>
<text text-anchor="middle" x="1598" y="-63.5" font-family="Helvetica,sans-Serif" font-size="10.00">cstdint</text>
</g>
<!-- Node2&#45;&gt;Node5 -->
<g id="edge4" class="edge"><title>Node2&#45;&gt;Node5</title>
<path fill="none" stroke="midnightblue" d="M1152.6,-118.699C1241.69,-114.593 1411.71,-103.839 1564.65,-75.9395"/>
<polygon fill="midnightblue" stroke="midnightblue" points="1565.5,-79.341 1574.7,-74.0768 1564.23,-72.4583 1565.5,-79.341"/>
</g>
<!-- Node6 -->
<g id="node6" class="node"><title>Node6</title>
<polygon fill="white" stroke="#bfbfbf" points="740,-56.5 740,-75.5 796,-75.5 796,-56.5 740,-56.5"/>
<text text-anchor="middle" x="768" y="-63.5" font-family="Helvetica,sans-Serif" font-size="10.00">cinttypes</text>
</g>
<!-- Node2&#45;&gt;Node6 -->
<g id="edge5" class="edge"><title>Node2&#45;&gt;Node6</title>
<path fill="none" stroke="midnightblue" d="M1029.37,-112.802C973.542,-105.036 888.825,-92.4079 806.282,-76.1243"/>
<polygon fill="midnightblue" stroke="midnightblue" points="806.72,-72.6428 796.228,-74.1205 805.351,-79.5078 806.72,-72.6428"/>
</g>
<!-- Node7 -->
<g id="node7" class="node"><title>Node7</title>
<polygon fill="white" stroke="#bfbfbf" points="814.5,-56.5 814.5,-75.5 857.5,-75.5 857.5,-56.5 814.5,-56.5"/>
<text text-anchor="middle" x="836" y="-63.5" font-family="Helvetica,sans-Serif" font-size="10.00">cstdio</text>
</g>
<!-- Node2&#45;&gt;Node7 -->
<g id="edge6" class="edge"><title>Node2&#45;&gt;Node7</title>
<path fill="none" stroke="midnightblue" d="M1041.54,-112.491C997.992,-104.688 932.674,-92.2334 867.583,-76.2264"/>
<polygon fill="midnightblue" stroke="midnightblue" points="868.112,-72.7515 857.563,-73.7333 866.422,-79.5444 868.112,-72.7515"/>
</g>
<!-- Node8 -->
<g id="node8" class="node"><title>Node8</title>
<polygon fill="white" stroke="#bfbfbf" points="875.5,-56.5 875.5,-75.5 924.5,-75.5 924.5,-56.5 875.5,-56.5"/>
<text text-anchor="middle" x="900" y="-63.5" font-family="Helvetica,sans-Serif" font-size="10.00">cstddef</text>
</g>
<!-- Node2&#45;&gt;Node8 -->
<g id="edge7" class="edge"><title>Node2&#45;&gt;Node8</title>
<path fill="none" stroke="midnightblue" d="M1060.74,-112.444C1026.46,-102.753 970.713,-86.9921 934.704,-76.8115"/>
<polygon fill="midnightblue" stroke="midnightblue" points="935.232,-73.3236 924.657,-73.971 933.327,-80.0596 935.232,-73.3236"/>
</g>
<!-- Node9 -->
<g id="node9" class="node"><title>Node9</title>
<polygon fill="white" stroke="#bfbfbf" points="942.5,-56.5 942.5,-75.5 987.5,-75.5 987.5,-56.5 942.5,-56.5"/>
<text text-anchor="middle" x="965" y="-63.5" font-family="Helvetica,sans-Serif" font-size="10.00">cstdlib</text>
</g>
<!-- Node2&#45;&gt;Node9 -->
<g id="edge8" class="edge"><title>Node2&#45;&gt;Node9</title>
<path fill="none" stroke="midnightblue" d="M1071.03,-112.444C1050.39,-103.596 1017.94,-89.6875 994.368,-79.5865"/>
<polygon fill="midnightblue" stroke="midnightblue" points="995.442,-76.2387 984.872,-75.5164 992.684,-82.6727 995.442,-76.2387"/>
</g>
<!-- Node10 -->
<g id="node10" class="node"><title>Node10</title>
<polygon fill="white" stroke="#bfbfbf" points="1006,-56.5 1006,-75.5 1050,-75.5 1050,-56.5 1006,-56.5"/>
<text text-anchor="middle" x="1028" y="-63.5" font-family="Helvetica,sans-Serif" font-size="10.00">cerrno</text>
</g>
<!-- Node2&#45;&gt;Node10 -->
<g id="edge9" class="edge"><title>Node2&#45;&gt;Node10</title>
<path fill="none" stroke="midnightblue" d="M1080.88,-112.324C1071.47,-104.263 1057.26,-92.0765 1045.93,-82.3695"/>
<polygon fill="midnightblue" stroke="midnightblue" points="1048.18,-79.6844 1038.31,-75.8339 1043.62,-84.9993 1048.18,-79.6844"/>
</g>
<!-- Node11 -->
<g id="node11" class="node"><title>Node11</title>
<polygon fill="white" stroke="#bfbfbf" points="1068,-56.5 1068,-75.5 1114,-75.5 1114,-56.5 1068,-56.5"/>
<text text-anchor="middle" x="1091" y="-63.5" font-family="Helvetica,sans-Serif" font-size="10.00">cstring</text>
</g>
<!-- Node2&#45;&gt;Node11 -->
<g id="edge10" class="edge"><title>Node2&#45;&gt;Node11</title>
<path fill="none" stroke="midnightblue" d="M1091,-112.083C1091,-105.006 1091,-94.8611 1091,-85.9865"/>
<polygon fill="midnightblue" stroke="midnightblue" points="1094.5,-85.751 1091,-75.7511 1087.5,-85.7511 1094.5,-85.751"/>
</g>
<!-- Node12 -->
<g id="node12" class="node"><title>Node12</title>
<polygon fill="white" stroke="#bfbfbf" points="1677,-56.5 1677,-75.5 1721,-75.5 1721,-56.5 1677,-56.5"/>
<text text-anchor="middle" x="1699" y="-63.5" font-family="Helvetica,sans-Serif" font-size="10.00">cmath</text>
</g>
<!-- Node2&#45;&gt;Node12 -->
<g id="edge11" class="edge"><title>Node2&#45;&gt;Node12</title>
<path fill="none" stroke="midnightblue" d="M1152.52,-116.797C1252.7,-109.743 1457.27,-94.4658 1630,-76 1642.05,-74.712 1655.25,-73.0518 1666.85,-71.5088"/>
<polygon fill="midnightblue" stroke="midnightblue" points="1667.53,-74.9484 1676.97,-70.1386 1666.59,-68.0116 1667.53,-74.9484"/>
</g>
<!-- Node13 -->
<g id="node13" class="node"><title>Node13</title>
<polygon fill="white" stroke="#bfbfbf" points="1132.5,-56.5 1132.5,-75.5 1177.5,-75.5 1177.5,-56.5 1132.5,-56.5"/>
<text text-anchor="middle" x="1155" y="-63.5" font-family="Helvetica,sans-Serif" font-size="10.00">iosfwd</text>
</g>
<!-- Node2&#45;&gt;Node13 -->
<g id="edge12" class="edge"><title>Node2&#45;&gt;Node13</title>
<path fill="none" stroke="midnightblue" d="M1101.28,-112.324C1110.84,-104.263 1125.28,-92.0765 1136.78,-82.3695"/>
<polygon fill="midnightblue" stroke="midnightblue" points="1139.14,-84.9577 1144.53,-75.8339 1134.63,-79.6076 1139.14,-84.9577"/>
</g>
<!-- Node14 -->
<g id="node14" class="node"><title>Node14</title>
<polygon fill="white" stroke="#bfbfbf" points="1739,-56.5 1739,-75.5 1793,-75.5 1793,-56.5 1739,-56.5"/>
<text text-anchor="middle" x="1766" y="-63.5" font-family="Helvetica,sans-Serif" font-size="10.00">iostream</text>
</g>
<!-- Node2&#45;&gt;Node14 -->
<g id="edge13" class="edge"><title>Node2&#45;&gt;Node14</title>
<path fill="none" stroke="midnightblue" d="M1152.64,-120.228C1265.37,-118.04 1512.32,-109.65 1729.01,-75.8691"/>
<polygon fill="midnightblue" stroke="midnightblue" points="1729.65,-79.3118 1738.98,-74.2935 1728.55,-72.3976 1729.65,-79.3118"/>
</g>
<!-- Node15 -->
<g id="node15" class="node"><title>Node15</title>
<polygon fill="white" stroke="#bfbfbf" points="0,-56.5 0,-75.5 52,-75.5 52,-56.5 0,-56.5"/>
<text text-anchor="middle" x="26" y="-63.5" font-family="Helvetica,sans-Serif" font-size="10.00">sstream</text>
</g>
<!-- Node2&#45;&gt;Node15 -->
<g id="edge14" class="edge"><title>Node2&#45;&gt;Node15</title>
<path fill="none" stroke="midnightblue" d="M1029.24,-113.268C1024.43,-112.793 1019.64,-112.362 1015,-112 594.199,-79.1555 484.541,-130.555 66,-76 64.7295,-75.8344 63.4399,-75.6476 62.1402,-75.4434"/>
<polygon fill="midnightblue" stroke="midnightblue" points="62.5954,-71.9684 52.127,-73.6001 61.3281,-78.8528 62.5954,-71.9684"/>
</g>
<!-- Node16 -->
<g id="node16" class="node"><title>Node16</title>
<polygon fill="white" stroke="#bfbfbf" points="1278.5,-56.5 1278.5,-75.5 1319.5,-75.5 1319.5,-56.5 1278.5,-56.5"/>
<text text-anchor="middle" x="1299" y="-63.5" font-family="Helvetica,sans-Serif" font-size="10.00">regex</text>
</g>
<!-- Node2&#45;&gt;Node16 -->
<g id="edge15" class="edge"><title>Node2&#45;&gt;Node16</title>
<path fill="none" stroke="midnightblue" d="M1126.58,-112.491C1160.56,-104.258 1213.43,-91.1698 1268.45,-76.0593"/>
<polygon fill="midnightblue" stroke="midnightblue" points="1269.67,-79.3525 1278.38,-73.3162 1267.81,-72.6052 1269.67,-79.3525"/>
</g>
<!-- Node17 -->
<g id="node17" class="node"><title>Node17</title>
<polygon fill="white" stroke="#bfbfbf" points="1507,-56.5 1507,-75.5 1557,-75.5 1557,-56.5 1507,-56.5"/>
<text text-anchor="middle" x="1532" y="-63.5" font-family="Helvetica,sans-Serif" font-size="10.00">iomanip</text>
</g>
<!-- Node2&#45;&gt;Node17 -->
<g id="edge16" class="edge"><title>Node2&#45;&gt;Node17</title>
<path fill="none" stroke="midnightblue" d="M1152.6,-116.326C1231.76,-109.812 1373.24,-96.4513 1493,-76 1494.27,-75.7829 1495.56,-75.5499 1496.87,-75.3046"/>
<polygon fill="midnightblue" stroke="midnightblue" points="1497.82,-78.6816 1506.91,-73.2381 1496.41,-71.8252 1497.82,-78.6816"/>
</g>
<!-- Node18 -->
<g id="node18" class="node"><title>Node18</title>
<polygon fill="white" stroke="#bfbfbf" points="1337.5,-56.5 1337.5,-75.5 1388.5,-75.5 1388.5,-56.5 1337.5,-56.5"/>
<text text-anchor="middle" x="1363" y="-63.5" font-family="Helvetica,sans-Serif" font-size="10.00">unistd.h</text>
</g>
<!-- Node2&#45;&gt;Node18 -->
<g id="edge17" class="edge"><title>Node2&#45;&gt;Node18</title>
<path fill="none" stroke="midnightblue" d="M1141.13,-112.444C1187.07,-104.386 1257.18,-91.5462 1327.51,-75.9892"/>
<polygon fill="midnightblue" stroke="midnightblue" points="1328.43,-79.3691 1337.43,-73.7763 1326.91,-72.537 1328.43,-79.3691"/>
</g>
<!-- Node19 -->
<g id="node19" class="node"><title>Node19</title>
<polygon fill="white" stroke="#bfbfbf" points="1407,-56.5 1407,-75.5 1451,-75.5 1451,-56.5 1407,-56.5"/>
<text text-anchor="middle" x="1429" y="-63.5" font-family="Helvetica,sans-Serif" font-size="10.00">fcntl.h</text>
</g>
<!-- Node2&#45;&gt;Node19 -->
<g id="edge18" class="edge"><title>Node2&#45;&gt;Node19</title>
<path fill="none" stroke="midnightblue" d="M1152.66,-114.286C1212.57,-107.232 1306.24,-94.8022 1396.82,-75.7692"/>
<polygon fill="midnightblue" stroke="midnightblue" points="1397.66,-79.1695 1406.71,-73.6623 1396.2,-72.3232 1397.66,-79.1695"/>
</g>
<!-- Node20 -->
<g id="node20" class="node"><title>Node20</title>
<polygon fill="white" stroke="#bfbfbf" points="108,-56.5 108,-75.5 148,-75.5 148,-56.5 108,-56.5"/>
<text text-anchor="middle" x="128" y="-63.5" font-family="Helvetica,sans-Serif" font-size="10.00">limits</text>
</g>
<!-- Node2&#45;&gt;Node20 -->
<g id="edge19" class="edge"><title>Node2&#45;&gt;Node20</title>
<path fill="none" stroke="midnightblue" d="M1029.24,-113.289C1024.42,-112.809 1019.64,-112.371 1015,-112 637.893,-81.8038 534.88,-140.068 158.203,-75.7152"/>
<polygon fill="midnightblue" stroke="midnightblue" points="158.567,-72.2265 148.118,-73.9743 157.377,-79.1245 158.567,-72.2265"/>
</g>
<!-- Node21 -->
<g id="node21" class="node"><title>Node21</title>
<polygon fill="white" stroke="#bfbfbf" points="1458.5,-0.5 1458.5,-19.5 1499.5,-19.5 1499.5,-0.5 1458.5,-0.5"/>
<text text-anchor="middle" x="1479" y="-7.5" font-family="Helvetica,sans-Serif" font-size="10.00">string</text>
</g>
<!-- Node2&#45;&gt;Node21 -->
<g id="edge20" class="edge"><title>Node2&#45;&gt;Node21</title>
<path fill="none" stroke="midnightblue" d="M1152.54,-121.435C1245.3,-120.809 1414.92,-114.269 1460,-76 1473.28,-64.7222 1477.56,-44.7145 1478.8,-29.8663"/>
<polygon fill="midnightblue" stroke="midnightblue" points="1482.3,-29.8956 1479.25,-19.7475 1475.31,-29.5791 1482.3,-29.8956"/>
</g>
<!-- Node22 -->
<g id="node22" class="node"><title>Node22</title>
<polygon fill="white" stroke="#bfbfbf" points="855,-0.5 855,-19.5 899,-19.5 899,-0.5 855,-0.5"/>
<text text-anchor="middle" x="877" y="-7.5" font-family="Helvetica,sans-Serif" font-size="10.00">vector</text>
</g>
<!-- Node2&#45;&gt;Node22 -->
<g id="edge21" class="edge"><title>Node2&#45;&gt;Node22</title>
<path fill="none" stroke="midnightblue" d="M1029.22,-113.522C1024.41,-112.989 1019.63,-112.475 1015,-112 969.178,-107.291 633.125,-109.956 602,-76 595.994,-69.4474 596.244,-62.7739 602,-56 632.786,-19.7673 778.415,-12.6453 844.385,-11.2914"/>
<polygon fill="midnightblue" stroke="midnightblue" points="844.69,-14.7867 854.628,-11.1149 844.569,-7.78777 844.69,-14.7867"/>
</g>
<!-- Node23 -->
<g id="node23" class="node"><title>Node23</title>
<polygon fill="white" stroke="#bfbfbf" points="166.5,-56.5 166.5,-75.5 207.5,-75.5 207.5,-56.5 166.5,-56.5"/>
<text text-anchor="middle" x="187" y="-63.5" font-family="Helvetica,sans-Serif" font-size="10.00">stack</text>
</g>
<!-- Node2&#45;&gt;Node23 -->
<g id="edge22" class="edge"><title>Node2&#45;&gt;Node23</title>
<path fill="none" stroke="midnightblue" d="M1029.24,-113.305C1024.42,-112.821 1019.63,-112.378 1015,-112 663.994,-83.3475 567.943,-136.184 217.66,-75.8626"/>
<polygon fill="midnightblue" stroke="midnightblue" points="218.204,-72.4048 207.752,-74.1381 217.004,-79.3011 218.204,-72.4048"/>
</g>
<!-- Node24 -->
<g id="node24" class="node"><title>Node24</title>
<polygon fill="white" stroke="#bfbfbf" points="225.5,-56.5 225.5,-75.5 268.5,-75.5 268.5,-56.5 225.5,-56.5"/>
<text text-anchor="middle" x="247" y="-63.5" font-family="Helvetica,sans-Serif" font-size="10.00">deque</text>
</g>
<!-- Node2&#45;&gt;Node24 -->
<g id="edge23" class="edge"><title>Node2&#45;&gt;Node24</title>
<path fill="none" stroke="midnightblue" d="M1029.23,-113.326C1024.42,-112.838 1019.63,-112.388 1015,-112 690.408,-84.8313 605.211,-123.729 283,-76 281.526,-75.7817 280.025,-75.5294 278.513,-75.251"/>
<polygon fill="midnightblue" stroke="midnightblue" points="279.076,-71.7921 268.564,-73.1195 277.609,-78.6368 279.076,-71.7921"/>
</g>
<!-- Node25 -->
<g id="node25" class="node"><title>Node25</title>
<polygon fill="white" stroke="#bfbfbf" points="129,-0.5 129,-19.5 173,-19.5 173,-0.5 129,-0.5"/>
<text text-anchor="middle" x="151" y="-7.5" font-family="Helvetica,sans-Serif" font-size="10.00">mutex</text>
</g>
<!-- Node2&#45;&gt;Node25 -->
<g id="edge24" class="edge"><title>Node2&#45;&gt;Node25</title>
<path fill="none" stroke="midnightblue" d="M1029.24,-113.275C1024.42,-112.798 1019.64,-112.365 1015,-112 964.229,-108.002 134.297,-112.712 99,-76 83.2078,-59.575 106.593,-38.7261 126.888,-25.133"/>
<polygon fill="midnightblue" stroke="midnightblue" points="129.002,-27.9361 135.557,-19.6129 125.242,-22.0314 129.002,-27.9361"/>
</g>
<!-- Node26 -->
<g id="node26" class="node"><title>Node26</title>
<polygon fill="white" stroke="#bfbfbf" points="253,-0.5 253,-19.5 297,-19.5 297,-0.5 253,-0.5"/>
<text text-anchor="middle" x="275" y="-7.5" font-family="Helvetica,sans-Serif" font-size="10.00">thread</text>
</g>
<!-- Node2&#45;&gt;Node26 -->
<g id="edge25" class="edge"><title>Node2&#45;&gt;Node26</title>
<path fill="none" stroke="midnightblue" d="M1029.23,-113.349C1024.42,-112.855 1019.63,-112.398 1015,-112 866.001,-99.2 480.261,-135.362 343,-76 319.443,-65.8121 299.182,-43.6367 287.048,-28.0312"/>
<polygon fill="midnightblue" stroke="midnightblue" points="289.658,-25.6751 280.88,-19.7424 284.042,-29.8543 289.658,-25.6751"/>
</g>
<!-- Node27 -->
<g id="node27" class="node"><title>Node27</title>
<polygon fill="white" stroke="#bfbfbf" points="315.5,-0.5 315.5,-19.5 410.5,-19.5 410.5,-0.5 315.5,-0.5"/>
<text text-anchor="middle" x="363" y="-7.5" font-family="Helvetica,sans-Serif" font-size="10.00">condition_variable</text>
</g>
<!-- Node2&#45;&gt;Node27 -->
<g id="edge26" class="edge"><title>Node2&#45;&gt;Node27</title>
<path fill="none" stroke="midnightblue" d="M1029.23,-113.353C1024.42,-112.859 1019.63,-112.4 1015,-112 941.719,-105.672 404.576,-129.406 354,-76 342.289,-63.6337 347.325,-43.5434 353.543,-28.9679"/>
<polygon fill="midnightblue" stroke="midnightblue" points="356.711,-30.4549 357.844,-19.9209 350.389,-27.449 356.711,-30.4549"/>
</g>
<!-- Node28 -->
<g id="node28" class="node"><title>Node28</title>
<polygon fill="white" stroke="#bfbfbf" points="475.5,-0.5 475.5,-19.5 518.5,-19.5 518.5,-0.5 475.5,-0.5"/>
<text text-anchor="middle" x="497" y="-7.5" font-family="Helvetica,sans-Serif" font-size="10.00">queue</text>
</g>
<!-- Node2&#45;&gt;Node28 -->
<g id="edge27" class="edge"><title>Node2&#45;&gt;Node28</title>
<path fill="none" stroke="midnightblue" d="M1029.22,-113.49C1024.41,-112.965 1019.63,-112.461 1015,-112 916.498,-102.178 662.145,-114.624 571,-76 546.026,-65.4168 523.589,-42.9928 510.135,-27.4651"/>
<polygon fill="midnightblue" stroke="midnightblue" points="512.72,-25.1007 503.625,-19.6671 507.346,-29.5868 512.72,-25.1007"/>
</g>
<!-- Node29 -->
<g id="node29" class="node"><title>Node29</title>
<polygon fill="white" stroke="#bfbfbf" points="536.5,-0.5 536.5,-19.5 571.5,-19.5 571.5,-0.5 536.5,-0.5"/>
<text text-anchor="middle" x="554" y="-7.5" font-family="Helvetica,sans-Serif" font-size="10.00">map</text>
</g>
<!-- Node2&#45;&gt;Node29 -->
<g id="edge28" class="edge"><title>Node2&#45;&gt;Node29</title>
<path fill="none" stroke="midnightblue" d="M1029.22,-113.513C1024.41,-112.982 1019.63,-112.472 1015,-112 921.587,-102.478 673.94,-125.257 594,-76 576.769,-65.3826 565.859,-44.2938 559.863,-29.0099"/>
<polygon fill="midnightblue" stroke="midnightblue" points="563.144,-27.7915 556.478,-19.5561 556.553,-30.1507 563.144,-27.7915"/>
</g>
<!-- Node30 -->
<g id="node30" class="node"><title>Node30</title>
<g id="a_node30"><a xlink:href="cosmos-defs_8h.html" target="_top" xlink:title="COSMOS definitions Definitions specific to the COSMOS environement. ">
<polygon fill="white" stroke="black" points="363,-56.5 363,-75.5 479,-75.5 479,-56.5 363,-56.5"/>
<text text-anchor="middle" x="421" y="-63.5" font-family="Helvetica,sans-Serif" font-size="10.00">support/cosmos&#45;defs.h</text>
</a>
</g>
</g>
<!-- Node2&#45;&gt;Node30 -->
<g id="edge29" class="edge"><title>Node2&#45;&gt;Node30</title>
<path fill="none" stroke="midnightblue" d="M1029.23,-113.428C1024.41,-112.917 1019.63,-112.434 1015,-112 783.462,-90.3196 724.467,-98.4308 493,-76 491.73,-75.877 490.449,-75.7496 489.158,-75.6184"/>
<polygon fill="midnightblue" stroke="midnightblue" points="489.443,-72.1291 479.128,-74.547 488.7,-79.0895 489.443,-72.1291"/>
</g>
<!-- Node32 -->
<g id="node32" class="node"><title>Node32</title>
<g id="a_node32"><a xlink:href="json11_8hpp.html" target="_top" xlink:title="json11.hpp">
<polygon fill="white" stroke="black" points="1196,-56.5 1196,-75.5 1260,-75.5 1260,-56.5 1196,-56.5"/>
<text text-anchor="middle" x="1228" y="-63.5" font-family="Helvetica,sans-Serif" font-size="10.00">json11.hpp</text>
</a>
</g>
</g>
<!-- Node2&#45;&gt;Node32 -->
<g id="edge37" class="edge"><title>Node2&#45;&gt;Node32</title>
<path fill="none" stroke="midnightblue" d="M1112.71,-112.444C1135.35,-103.517 1171.07,-89.4387 1196.75,-79.3168"/>
<polygon fill="midnightblue" stroke="midnightblue" points="1198.37,-82.4397 1206.39,-75.5164 1195.81,-75.9273 1198.37,-82.4397"/>
</g>
<!-- Node30&#45;&gt;Node22 -->
<g id="edge31" class="edge"><title>Node30&#45;&gt;Node22</title>
<path fill="none" stroke="midnightblue" d="M479.216,-58.106C576.446,-46.592 768.711,-23.8237 844.857,-14.8064"/>
<polygon fill="midnightblue" stroke="midnightblue" points="845.29,-18.2797 854.809,-13.6279 844.466,-11.3283 845.29,-18.2797"/>
</g>
<!-- Node30&#45;&gt;Node25 -->
<g id="edge35" class="edge"><title>Node30&#45;&gt;Node25</title>
<path fill="none" stroke="midnightblue" d="M378.218,-56.4435C324.052,-45.6103 231.946,-27.1892 183.304,-17.4609"/>
<polygon fill="midnightblue" stroke="midnightblue" points="183.823,-13.9955 173.331,-15.4662 182.451,-20.8595 183.823,-13.9955"/>
</g>
<!-- Node30&#45;&gt;Node26 -->
<g id="edge34" class="edge"><title>Node30&#45;&gt;Node26</title>
<path fill="none" stroke="midnightblue" d="M397.866,-56.4435C373.231,-47.3322 334.084,-32.8531 306.614,-22.6929"/>
<polygon fill="midnightblue" stroke="midnightblue" points="307.663,-19.3493 297.07,-19.1629 305.235,-25.9146 307.663,-19.3493"/>
</g>
<!-- Node30&#45;&gt;Node27 -->
<g id="edge36" class="edge"><title>Node30&#45;&gt;Node27</title>
<path fill="none" stroke="midnightblue" d="M411.681,-56.324C403.107,-48.3414 390.188,-36.3128 379.812,-26.6529"/>
<polygon fill="midnightblue" stroke="midnightblue" points="382.192,-24.0865 372.488,-19.8339 377.422,-29.2098 382.192,-24.0865"/>
</g>
<!-- Node30&#45;&gt;Node28 -->
<g id="edge33" class="edge"><title>Node30&#45;&gt;Node28</title>
<path fill="none" stroke="midnightblue" d="M433.211,-56.324C444.776,-48.1066 462.375,-35.6017 476.161,-25.8069"/>
<polygon fill="midnightblue" stroke="midnightblue" points="478.443,-28.4791 484.567,-19.8339 474.388,-22.7729 478.443,-28.4791"/>
</g>
<!-- Node30&#45;&gt;Node29 -->
<g id="edge30" class="edge"><title>Node30&#45;&gt;Node29</title>
<path fill="none" stroke="midnightblue" d="M442.074,-56.4435C465.094,-47.097 502.026,-32.1023 527.117,-21.9151"/>
<polygon fill="midnightblue" stroke="midnightblue" points="528.474,-25.1417 536.422,-18.1368 525.84,-18.6559 528.474,-25.1417"/>
</g>
<!-- Node31 -->
<g id="node31" class="node"><title>Node31</title>
<polygon fill="white" stroke="#bfbfbf" points="428.5,-0.5 428.5,-19.5 457.5,-19.5 457.5,-0.5 428.5,-0.5"/>
<text text-anchor="middle" x="443" y="-7.5" font-family="Helvetica,sans-Serif" font-size="10.00">list</text>
</g>
<!-- Node30&#45;&gt;Node31 -->
<g id="edge32" class="edge"><title>Node30&#45;&gt;Node31</title>
<path fill="none" stroke="midnightblue" d="M424.633,-56.083C427.612,-48.77 431.926,-38.1814 435.625,-29.1034"/>
<polygon fill="midnightblue" stroke="midnightblue" points="438.903,-30.3326 439.435,-19.7511 432.42,-27.6914 438.903,-30.3326"/>
</g>
<!-- Node32&#45;&gt;Node21 -->
<g id="edge38" class="edge"><title>Node32&#45;&gt;Node21</title>
<path fill="none" stroke="midnightblue" d="M1260.23,-57.9102C1263.19,-57.2624 1266.15,-56.6179 1269,-56 1332.86,-42.1496 1407.7,-26.1743 1448.56,-17.4738"/>
<polygon fill="midnightblue" stroke="midnightblue" points="1449.37,-20.8785 1458.43,-15.3733 1447.92,-14.0319 1449.37,-20.8785"/>
</g>
<!-- Node32&#45;&gt;Node22 -->
<g id="edge39" class="edge"><title>Node32&#45;&gt;Node22</title>
<path fill="none" stroke="midnightblue" d="M1195.94,-57.9005C1192.59,-57.2273 1189.23,-56.5805 1186,-56 1085.5,-37.9343 965.606,-22.0916 909.267,-14.9809"/>
<polygon fill="midnightblue" stroke="midnightblue" points="909.546,-11.4885 899.188,-13.7166 908.675,-18.4341 909.546,-11.4885"/>
</g>
<!-- Node32&#45;&gt;Node29 -->
<g id="edge40" class="edge"><title>Node32&#45;&gt;Node29</title>
<path fill="none" stroke="midnightblue" d="M1195.98,-57.6555C1192.62,-57.0301 1189.25,-56.4614 1186,-56 953.907,-23.0354 670.257,-13.7696 581.73,-11.5902"/>
<polygon fill="midnightblue" stroke="midnightblue" points="581.768,-8.09025 571.689,-11.3533 581.603,-15.0883 581.768,-8.09025"/>
</g>
<!-- Node33 -->
<g id="node33" class="node"><title>Node33</title>
<polygon fill="white" stroke="#bfbfbf" points="1242,-0.5 1242,-19.5 1294,-19.5 1294,-0.5 1242,-0.5"/>
<text text-anchor="middle" x="1268" y="-7.5" font-family="Helvetica,sans-Serif" font-size="10.00">memory</text>
</g>
<!-- Node32&#45;&gt;Node33 -->
<g id="edge41" class="edge"><title>Node32&#45;&gt;Node33</title>
<path fill="none" stroke="midnightblue" d="M1234.61,-56.083C1240.26,-48.4554 1248.54,-37.2645 1255.45,-27.9408"/>
<polygon fill="midnightblue" stroke="midnightblue" points="1258.38,-29.87 1261.52,-19.7511 1252.75,-25.7034 1258.38,-29.87"/>
</g>
<!-- Node34 -->
<g id="node34" class="node"><title>Node34</title>
<polygon fill="white" stroke="#bfbfbf" points="1150.5,-0.5 1150.5,-19.5 1223.5,-19.5 1223.5,-0.5 1150.5,-0.5"/>
<text text-anchor="middle" x="1187" y="-7.5" font-family="Helvetica,sans-Serif" font-size="10.00">initializer_list</text>
</g>
<!-- Node32&#45;&gt;Node34 -->
<g id="edge42" class="edge"><title>Node32&#45;&gt;Node34</title>
<path fill="none" stroke="midnightblue" d="M1221.23,-56.083C1215.44,-48.4554 1206.94,-37.2645 1199.86,-27.9408"/>
<polygon fill="midnightblue" stroke="midnightblue" points="1202.48,-25.5991 1193.64,-19.7511 1196.9,-29.8321 1202.48,-25.5991"/>
</g>
<!-- Node35&#45;&gt;Node2 -->
<g id="edge44" class="edge"><title>Node35&#45;&gt;Node2</title>
<path fill="none" stroke="midnightblue" d="M1224.41,-448.487C1183.99,-434.482 1115,-402.455 1115,-347 1115,-347 1115,-347 1115,-233 1115,-200.059 1104.6,-162.818 1097.49,-141.214"/>
<polygon fill="midnightblue" stroke="midnightblue" points="1100.78,-140.028 1094.24,-131.699 1094.16,-142.294 1100.78,-140.028"/>
</g>
<!-- Node35&#45;&gt;Node14 -->
<g id="edge69" class="edge"><title>Node35&#45;&gt;Node14</title>
<path fill="none" stroke="midnightblue" d="M1304.3,-457.139C1437.31,-456.126 1783,-444.146 1783,-347 1783,-347 1783,-347 1783,-177 1783,-144.583 1775.7,-107.415 1770.67,-85.6439"/>
<polygon fill="midnightblue" stroke="midnightblue" points="1774.03,-84.6736 1768.29,-75.769 1767.23,-86.3102 1774.03,-84.6736"/>
</g>
<!-- Node35&#45;&gt;Node15 -->
<g id="edge71" class="edge"><title>Node35&#45;&gt;Node15</title>
<path fill="none" stroke="midnightblue" d="M1204.91,-448.401C1152.8,-435.991 1077,-407.535 1077,-347 1077,-347 1077,-347 1077,-289 1077,-235.976 247.282,-101.918 62.2768,-72.6855"/>
<polygon fill="midnightblue" stroke="midnightblue" points="62.6653,-69.2036 52.2421,-71.1029 61.5748,-76.1181 62.6653,-69.2036"/>
</g>
<!-- Node35&#45;&gt;Node21 -->
<g id="edge70" class="edge"><title>Node35&#45;&gt;Node21</title>
<path fill="none" stroke="midnightblue" d="M1304.16,-457.857C1443.77,-458.833 1821,-451.775 1821,-347 1821,-347 1821,-347 1821,-121 1821,-90.9022 1824.78,-75.6739 1802,-56 1758.7,-18.5977 1582.42,-12.2048 1510.14,-11.1706"/>
<polygon fill="midnightblue" stroke="midnightblue" points="1509.91,-7.6677 1499.87,-11.0502 1509.82,-14.6672 1509.91,-7.6677"/>
</g>
<!-- Node36 -->
<g id="node36" class="node"><title>Node36</title>
<g id="a_node36"><a xlink:href="mathlib_8h.html" target="_top" xlink:title="mathlib include file ">
<polygon fill="white" stroke="black" points="1348.5,-392.5 1348.5,-411.5 1429.5,-411.5 1429.5,-392.5 1348.5,-392.5"/>
<text text-anchor="middle" x="1389" y="-399.5" font-family="Helvetica,sans-Serif" font-size="10.00">math/mathlib.h</text>
</a>
</g>
</g>
<!-- Node35&#45;&gt;Node36 -->
<g id="edge45" class="edge"><title>Node35&#45;&gt;Node36</title>
<path fill="none" stroke="midnightblue" d="M1274.55,-448.444C1297.03,-439.517 1332.49,-425.439 1357.98,-415.317"/>
<polygon fill="midnightblue" stroke="midnightblue" points="1359.55,-418.46 1367.55,-411.516 1356.97,-411.954 1359.55,-418.46"/>
</g>
<!-- Node36&#45;&gt;Node2 -->
<g id="edge46" class="edge"><title>Node36&#45;&gt;Node2</title>
<path fill="none" stroke="midnightblue" d="M1348.43,-399.862C1280.95,-395.575 1153,-376.21 1153,-291 1153,-291 1153,-291 1153,-233 1153,-195.622 1125.5,-159.237 1107.13,-139.104"/>
<polygon fill="midnightblue" stroke="midnightblue" points="1109.57,-136.594 1100.15,-131.747 1104.49,-141.412 1109.57,-136.594"/>
</g>
<!-- Node36&#45;&gt;Node12 -->
<g id="edge67" class="edge"><title>Node36&#45;&gt;Node12</title>
<path fill="none" stroke="midnightblue" d="M1429.6,-395.667C1515.33,-383.267 1707,-349.053 1707,-291 1707,-291 1707,-291 1707,-233 1707,-179.529 1702.81,-116.481 1700.49,-85.7443"/>
<polygon fill="midnightblue" stroke="midnightblue" points="1703.97,-85.3336 1699.71,-75.6336 1696.99,-85.8739 1703.97,-85.3336"/>
</g>
<!-- Node36&#45;&gt;Node14 -->
<g id="edge68" class="edge"><title>Node36&#45;&gt;Node14</title>
<path fill="none" stroke="midnightblue" d="M1429.51,-399.932C1483.26,-397.247 1580.19,-387.95 1656,-356 1701.14,-336.976 1745,-339.982 1745,-291 1745,-291 1745,-291 1745,-177 1745,-144.384 1754.02,-107.278 1760.23,-85.5732"/>
<polygon fill="midnightblue" stroke="midnightblue" points="1763.67,-86.3151 1763.17,-75.7319 1756.96,-84.3156 1763.67,-86.3151"/>
</g>
<!-- Node37 -->
<g id="node37" class="node"><title>Node37</title>
<g id="a_node37"><a xlink:href="cosmos-errno_8h.html" target="_top" xlink:title="COSMOS Error Codes. ">
<polygon fill="white" stroke="black" points="1329.5,-336.5 1329.5,-355.5 1448.5,-355.5 1448.5,-336.5 1329.5,-336.5"/>
<text text-anchor="middle" x="1389" y="-343.5" font-family="Helvetica,sans-Serif" font-size="10.00">support/cosmos&#45;errno.h</text>
</a>
</g>
</g>
<!-- Node36&#45;&gt;Node37 -->
<g id="edge47" class="edge"><title>Node36&#45;&gt;Node37</title>
<path fill="none" stroke="midnightblue" d="M1389,-392.083C1389,-385.006 1389,-374.861 1389,-365.986"/>
<polygon fill="midnightblue" stroke="midnightblue" points="1392.5,-365.751 1389,-355.751 1385.5,-365.751 1392.5,-365.751"/>
</g>
<!-- Node39 -->
<g id="node39" class="node"><title>Node39</title>
<g id="a_node39"><a xlink:href="math_2constants_8h.html" target="_top" xlink:title="constants.h">
<polygon fill="white" stroke="black" points="1497,-168.5 1497,-187.5 1565,-187.5 1565,-168.5 1497,-168.5"/>
<text text-anchor="middle" x="1531" y="-175.5" font-family="Helvetica,sans-Serif" font-size="10.00">constants.h</text>
</a>
</g>
</g>
<!-- Node36&#45;&gt;Node39 -->
<g id="edge50" class="edge"><title>Node36&#45;&gt;Node39</title>
<path fill="none" stroke="midnightblue" d="M1418.17,-392.398C1437.09,-385.422 1460.95,-373.785 1476,-356 1515.78,-308.99 1526.82,-233.355 1529.86,-198.161"/>
<polygon fill="midnightblue" stroke="midnightblue" points="1533.37,-198.104 1530.61,-187.875 1526.39,-197.592 1533.37,-198.104"/>
</g>
<!-- Node40 -->
<g id="node40" class="node"><title>Node40</title>
<g id="a_node40"><a xlink:href="vector_8h.html" target="_top" xlink:title="vector.h">
<polygon fill="white" stroke="black" points="1451,-224.5 1451,-243.5 1503,-243.5 1503,-224.5 1451,-224.5"/>
<text text-anchor="middle" x="1477" y="-231.5" font-family="Helvetica,sans-Serif" font-size="10.00">vector.h</text>
</a>
</g>
</g>
<!-- Node36&#45;&gt;Node40 -->
<g id="edge53" class="edge"><title>Node36&#45;&gt;Node40</title>
<path fill="none" stroke="midnightblue" d="M1410.62,-392.367C1426.06,-385.039 1445.99,-372.988 1457,-356 1477.38,-324.545 1479.19,-279.134 1478.33,-253.834"/>
<polygon fill="midnightblue" stroke="midnightblue" points="1481.82,-253.552 1477.81,-243.747 1474.83,-253.916 1481.82,-253.552"/>
</g>
<!-- Node41 -->
<g id="node41" class="node"><title>Node41</title>
<g id="a_node41"><a xlink:href="matrix_8h.html" target="_top" xlink:title="matrix.h">
<polygon fill="white" stroke="black" points="1219,-280.5 1219,-299.5 1271,-299.5 1271,-280.5 1219,-280.5"/>
<text text-anchor="middle" x="1245" y="-287.5" font-family="Helvetica,sans-Serif" font-size="10.00">matrix.h</text>
</a>
</g>
</g>
<!-- Node36&#45;&gt;Node41 -->
<g id="edge60" class="edge"><title>Node36&#45;&gt;Node41</title>
<path fill="none" stroke="midnightblue" d="M1348.36,-400.609C1314.62,-397.861 1268.5,-387.971 1245,-356 1235.3,-342.8 1236.6,-323.665 1239.54,-309.573"/>
<polygon fill="midnightblue" stroke="midnightblue" points="1243.02,-310.116 1242.08,-299.563 1236.23,-308.397 1243.02,-310.116"/>
</g>
<!-- Node42 -->
<g id="node42" class="node"><title>Node42</title>
<g id="a_node42"><a xlink:href="rotation_8h.html" target="_top" xlink:title="rotation.h">
<polygon fill="white" stroke="black" points="1254.5,-336.5 1254.5,-355.5 1311.5,-355.5 1311.5,-336.5 1254.5,-336.5"/>
<text text-anchor="middle" x="1283" y="-343.5" font-family="Helvetica,sans-Serif" font-size="10.00">rotation.h</text>
</a>
</g>
</g>
<!-- Node36&#45;&gt;Node42 -->
<g id="edge63" class="edge"><title>Node36&#45;&gt;Node42</title>
<path fill="none" stroke="midnightblue" d="M1371.97,-392.324C1354.97,-383.664 1328.62,-370.242 1309.01,-360.249"/>
<polygon fill="midnightblue" stroke="midnightblue" points="1310.49,-357.075 1299.99,-355.655 1307.31,-363.312 1310.49,-357.075"/>
</g>
<!-- Node37&#45;&gt;Node2 -->
<g id="edge48" class="edge"><title>Node37&#45;&gt;Node2</title>
<path fill="none" stroke="midnightblue" d="M1381.87,-336.089C1355.79,-303.679 1265.11,-192.677 1227,-168 1202.1,-151.88 1170.89,-141.013 1144.64,-134.003"/>
<polygon fill="midnightblue" stroke="midnightblue" points="1145.41,-130.586 1134.85,-131.503 1143.67,-137.368 1145.41,-130.586"/>
</g>
<!-- Node38 -->
<g id="node38" class="node"><title>Node38</title>
<polygon fill="white" stroke="#bfbfbf" points="1365.5,-280.5 1365.5,-299.5 1412.5,-299.5 1412.5,-280.5 1365.5,-280.5"/>
<text text-anchor="middle" x="1389" y="-287.5" font-family="Helvetica,sans-Serif" font-size="10.00">errno.h</text>
</g>
<!-- Node37&#45;&gt;Node38 -->
<g id="edge49" class="edge"><title>Node37&#45;&gt;Node38</title>
<path fill="none" stroke="midnightblue" d="M1389,-336.083C1389,-329.006 1389,-318.861 1389,-309.986"/>
<polygon fill="midnightblue" stroke="midnightblue" points="1392.5,-309.751 1389,-299.751 1385.5,-309.751 1392.5,-309.751"/>
</g>
<!-- Node39&#45;&gt;Node2 -->
<g id="edge51" class="edge"><title>Node39&#45;&gt;Node2</title>
<path fill="none" stroke="midnightblue" d="M1496.84,-172.808C1425.44,-164.045 1259.08,-143.628 1162.98,-131.834"/>
<polygon fill="midnightblue" stroke="midnightblue" points="1163.12,-128.325 1152.77,-130.581 1162.27,-135.273 1163.12,-128.325"/>
</g>
<!-- Node39&#45;&gt;Node5 -->
<g id="edge52" class="edge"><title>Node39&#45;&gt;Node5</title>
<path fill="none" stroke="midnightblue" d="M1536.26,-168.368C1547.27,-150.296 1572.92,-108.176 1587.46,-84.3074"/>
<polygon fill="midnightblue" stroke="midnightblue" points="1590.55,-85.9526 1592.77,-75.5914 1584.58,-82.3112 1590.55,-85.9526"/>
</g>
<!-- Node40&#45;&gt;Node2 -->
<g id="edge54" class="edge"><title>Node40&#45;&gt;Node2</title>
<path fill="none" stroke="midnightblue" d="M1458.69,-224.496C1428.77,-210.892 1367.32,-184.13 1313,-168 1261.59,-152.732 1201.95,-140.961 1157.44,-133.293"/>
<polygon fill="midnightblue" stroke="midnightblue" points="1157.77,-129.8 1147.33,-131.577 1156.6,-136.701 1157.77,-129.8"/>
</g>
<!-- Node40&#45;&gt;Node12 -->
<g id="edge58" class="edge"><title>Node40&#45;&gt;Node12</title>
<path fill="none" stroke="midnightblue" d="M1503.15,-229.218C1531.31,-224.029 1576.21,-212.409 1607,-188 1638.31,-163.18 1630.23,-143.345 1655,-112 1663.19,-101.629 1673.47,-91.0117 1682.03,-82.6962"/>
<polygon fill="midnightblue" stroke="midnightblue" points="1684.47,-85.2084 1689.3,-75.7797 1679.64,-80.1371 1684.47,-85.2084"/>
</g>
<!-- Node40&#45;&gt;Node14 -->
<g id="edge56" class="edge"><title>Node40&#45;&gt;Node14</title>
<path fill="none" stroke="midnightblue" d="M1503.17,-229.018C1534.97,-223.379 1589.5,-211.082 1631,-188 1681.66,-159.826 1729.3,-109.561 1752.05,-83.5746"/>
<polygon fill="midnightblue" stroke="midnightblue" points="1754.9,-85.6219 1758.77,-75.7597 1749.6,-81.0551 1754.9,-85.6219"/>
</g>
<!-- Node40&#45;&gt;Node17 -->
<g id="edge57" class="edge"><title>Node40&#45;&gt;Node17</title>
<path fill="none" stroke="midnightblue" d="M1477.78,-224.436C1479.07,-211.859 1482.12,-187.746 1488,-168 1497.01,-137.715 1512.72,-104.457 1522.72,-84.6743"/>
<polygon fill="midnightblue" stroke="midnightblue" points="1525.91,-86.1381 1527.37,-75.6449 1519.68,-82.9345 1525.91,-86.1381"/>
</g>
<!-- Node40&#45;&gt;Node22 -->
<g id="edge59" class="edge"><title>Node40&#45;&gt;Node22</title>
<path fill="none" stroke="midnightblue" d="M1503.27,-226.087C1524.55,-219.353 1554.16,-207.271 1574,-188 1596.86,-165.801 1651.85,-79.1935 1630,-56 1617.45,-42.6738 1052,-18.2818 909.389,-12.334"/>
<polygon fill="midnightblue" stroke="midnightblue" points="909.258,-8.82563 899.122,-11.9072 908.968,-15.8196 909.258,-8.82563"/>
</g>
<!-- Node40&#45;&gt;Node39 -->
<g id="edge55" class="edge"><title>Node40&#45;&gt;Node39</title>
<path fill="none" stroke="midnightblue" d="M1485.92,-224.083C1493.78,-216.22 1505.43,-204.569 1514.92,-195.081"/>
<polygon fill="midnightblue" stroke="midnightblue" points="1517.65,-197.297 1522.25,-187.751 1512.7,-192.347 1517.65,-197.297"/>
</g>
<!-- Node41&#45;&gt;Node2 -->
<g id="edge61" class="edge"><title>Node41&#45;&gt;Node2</title>
<path fill="none" stroke="midnightblue" d="M1244.58,-280.432C1243.06,-258.727 1236.15,-200.968 1205,-168 1189.61,-151.711 1167.59,-141.208 1146.99,-134.488"/>
<polygon fill="midnightblue" stroke="midnightblue" points="1147.94,-131.116 1137.35,-131.572 1145.91,-137.816 1147.94,-131.116"/>
</g>
<!-- Node41&#45;&gt;Node40 -->
<g id="edge62" class="edge"><title>Node41&#45;&gt;Node40</title>
<path fill="none" stroke="midnightblue" d="M1271.16,-282.91C1312.78,-273.223 1394.17,-254.28 1441.17,-243.34"/>
<polygon fill="midnightblue" stroke="midnightblue" points="1441.99,-246.743 1450.93,-241.067 1440.4,-239.925 1441.99,-246.743"/>
</g>
<!-- Node42&#45;&gt;Node2 -->
<g id="edge64" class="edge"><title>Node42&#45;&gt;Node2</title>
<path fill="none" stroke="midnightblue" d="M1260.92,-336.372C1244.7,-328.981 1223.26,-316.849 1210,-300 1171.85,-251.509 1205.58,-216.149 1167,-168 1155.75,-153.963 1138.85,-143.342 1123.85,-135.953"/>
<polygon fill="midnightblue" stroke="midnightblue" points="1124.88,-132.576 1114.34,-131.561 1121.95,-138.931 1124.88,-132.576"/>
</g>
<!-- Node42&#45;&gt;Node40 -->
<g id="edge65" class="edge"><title>Node42&#45;&gt;Node40</title>
<path fill="none" stroke="midnightblue" d="M1290.73,-336.288C1303.24,-322.636 1329.25,-296.101 1356,-280 1382.67,-263.951 1416.01,-252.072 1440.93,-244.562"/>
<polygon fill="midnightblue" stroke="midnightblue" points="1442.1,-247.868 1450.72,-241.707 1440.14,-241.148 1442.1,-247.868"/>
</g>
<!-- Node42&#45;&gt;Node41 -->
<g id="edge66" class="edge"><title>Node42&#45;&gt;Node41</title>
<path fill="none" stroke="midnightblue" d="M1276.73,-336.083C1271.36,-328.455 1263.48,-317.264 1256.92,-307.941"/>
<polygon fill="midnightblue" stroke="midnightblue" points="1259.78,-305.915 1251.16,-299.751 1254.05,-309.943 1259.78,-305.915"/>
</g>
</g>
</svg>
