<?xml version="1.0" encoding="UTF-8" standalone="no"?>
<!DOCTYPE svg PUBLIC "-//W3C//DTD SVG 1.1//EN"
 "http://www.w3.org/Graphics/SVG/1.1/DTD/svg11.dtd">
<!-- Generated by graphviz version 2.38.0 (20140413.2041)
 -->
<!-- Title: print_utils.h Pages: 1 -->
<svg width="432pt" height="84pt"
 viewBox="0.00 0.00 431.50 84.00" xmlns="http://www.w3.org/2000/svg" xmlns:xlink="http://www.w3.org/1999/xlink">
<g id="graph0" class="graph" transform="scale(1 1) rotate(0) translate(4 80)">
<title>print_utils.h</title>
<polygon fill="white" stroke="none" points="-4,4 -4,-80 427.5,-80 427.5,4 -4,4"/>
<!-- Node1 -->
<g id="node1" class="node"><title>Node1</title>
<polygon fill="#bfbfbf" stroke="black" points="190,-56.5 190,-75.5 257,-75.5 257,-56.5 190,-56.5"/>
<text text-anchor="middle" x="223.5" y="-63.5" font-family="Helvetica,sans-Serif" font-size="10.00">print_utils.h</text>
</g>
<!-- Node2 -->
<g id="node2" class="node"><title>Node2</title>
<g id="a_node2"><a xlink:href="propagator__simple_8cpp.html" target="_top" xlink:title="propagator_simple.cpp">
<polygon fill="white" stroke="black" points="0,-0.5 0,-19.5 115,-19.5 115,-0.5 0,-0.5"/>
<text text-anchor="middle" x="57.5" y="-7.5" font-family="Helvetica,sans-Serif" font-size="10.00">propagator_simple.cpp</text>
</a>
</g>
</g>
<!-- Node1&#45;&gt;Node2 -->
<g id="edge1" class="edge"><title>Node1&#45;&gt;Node2</title>
<path fill="none" stroke="midnightblue" d="M187.547,-53.3044C156.268,-43.1294 111.679,-28.6246 83.6801,-19.5164"/>
<polygon fill="midnightblue" stroke="midnightblue" points="186.605,-56.6783 197.197,-56.4435 188.77,-50.0217 186.605,-56.6783"/>
</g>
<!-- Node3 -->
<g id="node3" class="node"><title>Node3</title>
<g id="a_node3"><a xlink:href="print__utils_8cpp.html" target="_top" xlink:title="print_utils.cpp">
<polygon fill="white" stroke="black" points="133,-0.5 133,-19.5 210,-19.5 210,-0.5 133,-0.5"/>
<text text-anchor="middle" x="171.5" y="-7.5" font-family="Helvetica,sans-Serif" font-size="10.00">print_utils.cpp</text>
</a>
</g>
</g>
<!-- Node1&#45;&gt;Node3 -->
<g id="edge2" class="edge"><title>Node1&#45;&gt;Node3</title>
<path fill="none" stroke="midnightblue" d="M207.821,-48.7175C198.655,-39.1997 187.447,-27.5608 179.927,-19.7511"/>
<polygon fill="midnightblue" stroke="midnightblue" points="205.456,-51.3075 214.913,-56.083 210.498,-46.452 205.456,-51.3075"/>
</g>
<!-- Node4 -->
<g id="node4" class="node"><title>Node4</title>
<g id="a_node4"><a xlink:href="agent__cpu-2-0_8cpp.html" target="_top" xlink:title="agent_cpu&#45;2&#45;0.cpp">
<polygon fill="white" stroke="black" points="228,-0.5 228,-19.5 325,-19.5 325,-0.5 228,-0.5"/>
<text text-anchor="middle" x="276.5" y="-7.5" font-family="Helvetica,sans-Serif" font-size="10.00">agent_cpu&#45;2&#45;0.cpp</text>
</a>
</g>
</g>
<!-- Node1&#45;&gt;Node4 -->
<g id="edge3" class="edge"><title>Node1&#45;&gt;Node4</title>
<path fill="none" stroke="midnightblue" d="M239.481,-48.7175C248.822,-39.1997 260.246,-27.5608 267.911,-19.7511"/>
<polygon fill="midnightblue" stroke="midnightblue" points="236.759,-46.4945 232.252,-56.083 241.754,-51.3978 236.759,-46.4945"/>
</g>
<!-- Node5 -->
<g id="node5" class="node"><title>Node5</title>
<g id="a_node5"><a xlink:href="agent__cpu_8cpp.html" target="_top" xlink:title="agent_cpu.cpp">
<polygon fill="white" stroke="black" points="343.5,-0.5 343.5,-19.5 423.5,-19.5 423.5,-0.5 343.5,-0.5"/>
<text text-anchor="middle" x="383.5" y="-7.5" font-family="Helvetica,sans-Serif" font-size="10.00">agent_cpu.cpp</text>
</a>
</g>
</g>
<!-- Node1&#45;&gt;Node5 -->
<g id="edge4" class="edge"><title>Node1&#45;&gt;Node5</title>
<path fill="none" stroke="midnightblue" d="M258.546,-53.172C288.674,-43.0039 331.396,-28.5852 358.266,-19.5164"/>
<polygon fill="midnightblue" stroke="midnightblue" points="257.208,-49.9295 248.852,-56.4435 259.447,-56.5619 257.208,-49.9295"/>
</g>
</g>
</svg>
