<?xml version="1.0" encoding="UTF-8" standalone="no"?>
<!DOCTYPE svg PUBLIC "-//W3C//DTD SVG 1.1//EN"
 "http://www.w3.org/Graphics/SVG/1.1/DTD/svg11.dtd">
<!-- Generated by graphviz version 2.38.0 (20140413.2041)
 -->
<!-- Title: prkx2su_lib.h Pages: 1 -->
<!--zoomable 476 -->
<svg id="main" version="1.1" xmlns="http://www.w3.org/2000/svg" xmlns:xlink="http://www.w3.org/1999/xlink" xml:space="preserve" onload="init(evt)">
<style type="text/css"><![CDATA[
.edge:hover path { stroke: red; }
.edge:hover polygon { stroke: red; fill: red; }
]]></style>
<script type="text/javascript"><![CDATA[
var edges = document.getElementsByTagName('g');
if (edges && edges.length) {
  for (var i=0;i<edges.length;i++) {
    if (edges[i].id.substr(0,4)=='edge') {
      edges[i].setAttribute('class','edge');
    }
  }
}
]]></script>
        <defs>
                <circle id="rim" cx="0" cy="0" r="7"/>
                <circle id="rim2" cx="0" cy="0" r="3.5"/>
                <g id="zoomPlus">
                        <use xlink:href="#rim" fill="#404040">
                                <set attributeName="fill" to="#808080" begin="zoomplus.mouseover" end="zoomplus.mouseout"/>
                        </use>
                        <path d="M-4,0h8M0,-4v8" fill="none" stroke="white" stroke-width="1.5" pointer-events="none"/>
                </g>
                <g id="zoomMin">
                        <use xlink:href="#rim" fill="#404040">
                                <set attributeName="fill" to="#808080" begin="zoomminus.mouseover" end="zoomminus.mouseout"/>
                        </use>
                        <path d="M-4,0h8" fill="none" stroke="white" stroke-width="1.5" pointer-events="none"/>
                </g>
                <g id="dirArrow">
                        <path fill="none" stroke="white" stroke-width="1.5" d="M0,-3.0v7 M-2.5,-0.5L0,-3.0L2.5,-0.5"/>
                </g>
               <g id="resetDef">
                       <use xlink:href="#rim2" fill="#404040">
                               <set attributeName="fill" to="#808080" begin="reset.mouseover" end="reset.mouseout"/>
                       </use>
               </g>
        </defs>

<script type="text/javascript">
var viewWidth = 1801;
var viewHeight = 476;
var sectionId = 'dynsection-0';
</script>
<script xlink:href="svgpan.js"/>
<svg id="graph" class="graph">
<g id="viewport">
<title>prkx2su_lib.h</title>
<polygon fill="white" stroke="none" points="-4,4 -4,-472 1797,-472 1797,4 -4,4"/>
<!-- Node1 -->
<g id="node1" class="node"><title>Node1</title>
<polygon fill="#bfbfbf" stroke="black" points="1160,-448.5 1160,-467.5 1234,-467.5 1234,-448.5 1160,-448.5"/>
<text text-anchor="middle" x="1197" y="-455.5" font-family="Helvetica,sans-Serif" font-size="10.00">prkx2su_lib.h</text>
</g>
<!-- Node2 -->
<g id="node2" class="node"><title>Node2</title>
<g id="a_node2"><a xlink:href="config_cosmos_8h.html" target="_top" xlink:title="Headers and definitions common to all COSMOS. ">
<polygon fill="white" stroke="black" points="1000.5,-112.5 1000.5,-131.5 1123.5,-131.5 1123.5,-112.5 1000.5,-112.5"/>
<text text-anchor="middle" x="1062" y="-119.5" font-family="Helvetica,sans-Serif" font-size="10.00">support/configCosmos.h</text>
</a>
</g>
</g>
<!-- Node1&#45;&gt;Node2 -->
<g id="edge1" class="edge"><title>Node1&#45;&gt;Node2</title>
<path fill="none" stroke="midnightblue" d="M1197,-448.442C1197,-429.936 1197,-384.812 1197,-347 1197,-347 1197,-347 1197,-233 1197,-182.307 1139.09,-150.83 1099.12,-135.144"/>
<polygon fill="midnightblue" stroke="midnightblue" points="1100.24,-131.824 1089.65,-131.584 1097.78,-138.377 1100.24,-131.824"/>
</g>
<!-- Node35 -->
<g id="node35" class="node"><title>Node35</title>
<g id="a_node35"><a xlink:href="mathlib_8h.html" target="_top" xlink:title="mathlib include file ">
<polygon fill="white" stroke="black" points="1314.5,-392.5 1314.5,-411.5 1395.5,-411.5 1395.5,-392.5 1314.5,-392.5"/>
<text text-anchor="middle" x="1355" y="-399.5" font-family="Helvetica,sans-Serif" font-size="10.00">math/mathlib.h</text>
</a>
</g>
</g>
<!-- Node1&#45;&gt;Node35 -->
<g id="edge43" class="edge"><title>Node1&#45;&gt;Node35</title>
<path fill="none" stroke="midnightblue" d="M1222.04,-448.444C1248.62,-439.359 1290.81,-424.939 1320.52,-414.783"/>
<polygon fill="midnightblue" stroke="midnightblue" points="1321.75,-418.062 1330.08,-411.516 1319.49,-411.439 1321.75,-418.062"/>
</g>
<!-- Node36 -->
<g id="node36" class="node"><title>Node36</title>
<g id="a_node36"><a xlink:href="cosmos-errno_8h.html" target="_top" xlink:title="COSMOS Error Codes. ">
<polygon fill="white" stroke="black" points="1002.5,-168.5 1002.5,-187.5 1121.5,-187.5 1121.5,-168.5 1002.5,-168.5"/>
<text text-anchor="middle" x="1062" y="-175.5" font-family="Helvetica,sans-Serif" font-size="10.00">support/cosmos&#45;errno.h</text>
</a>
</g>
</g>
<!-- Node1&#45;&gt;Node36 -->
<g id="edge67" class="edge"><title>Node1&#45;&gt;Node36</title>
<path fill="none" stroke="midnightblue" d="M1176.36,-448.421C1143.5,-433.231 1083,-398.293 1083,-347 1083,-347 1083,-347 1083,-289 1083,-256.384 1073.98,-219.278 1067.77,-197.573"/>
<polygon fill="midnightblue" stroke="midnightblue" points="1071.04,-196.316 1064.83,-187.732 1064.33,-198.315 1071.04,-196.316"/>
</g>
<!-- Node42 -->
<g id="node42" class="node"><title>Node42</title>
<g id="a_node42"><a xlink:href="serialclass_8h.html" target="_top" xlink:title="device/serial/serialclass.h">
<polygon fill="white" stroke="black" points="925.5,-280.5 925.5,-299.5 1054.5,-299.5 1054.5,-280.5 925.5,-280.5"/>
<text text-anchor="middle" x="990" y="-287.5" font-family="Helvetica,sans-Serif" font-size="10.00">device/serial/serialclass.h</text>
</a>
</g>
</g>
<!-- Node1&#45;&gt;Node42 -->
<g id="edge68" class="edge"><title>Node1&#45;&gt;Node42</title>
<path fill="none" stroke="midnightblue" d="M1159.98,-450.655C1132.59,-444.477 1095.59,-432.864 1069,-412 1033.44,-384.099 1008.8,-335.535 997.326,-309.214"/>
<polygon fill="midnightblue" stroke="midnightblue" points="1000.44,-307.58 993.339,-299.714 993.982,-310.289 1000.44,-307.58"/>
</g>
<!-- Node44 -->
<g id="node44" class="node"><title>Node44</title>
<polygon fill="white" stroke="#bfbfbf" points="1414,-392.5 1414,-411.5 1460,-411.5 1460,-392.5 1414,-392.5"/>
<text text-anchor="middle" x="1437" y="-399.5" font-family="Helvetica,sans-Serif" font-size="10.00">stdio.h</text>
</g>
<!-- Node1&#45;&gt;Node44 -->
<g id="edge75" class="edge"><title>Node1&#45;&gt;Node44</title>
<path fill="none" stroke="midnightblue" d="M1234.15,-449.533C1275.69,-441.043 1344.88,-426.477 1404,-412 1404.1,-411.975 1404.2,-411.95 1404.3,-411.926"/>
<polygon fill="midnightblue" stroke="midnightblue" points="1405.14,-415.323 1413.96,-409.448 1403.4,-408.543 1405.14,-415.323"/>
</g>
<!-- Node3 -->
<g id="node3" class="node"><title>Node3</title>
<polygon fill="white" stroke="#bfbfbf" points="1405.5,-56.5 1405.5,-75.5 1450.5,-75.5 1450.5,-56.5 1405.5,-56.5"/>
<text text-anchor="middle" x="1428" y="-63.5" font-family="Helvetica,sans-Serif" font-size="10.00">climits</text>
</g>
<!-- Node2&#45;&gt;Node3 -->
<g id="edge2" class="edge"><title>Node2&#45;&gt;Node3</title>
<path fill="none" stroke="midnightblue" d="M1123.69,-115.307C1188.88,-108.703 1294.79,-96.3056 1395.35,-75.8577"/>
<polygon fill="midnightblue" stroke="midnightblue" points="1396.29,-79.2375 1405.37,-73.7881 1394.87,-72.3821 1396.29,-79.2375"/>
</g>
<!-- Node4 -->
<g id="node4" class="node"><title>Node4</title>
<polygon fill="white" stroke="#bfbfbf" points="64.5,-56.5 64.5,-75.5 111.5,-75.5 111.5,-56.5 64.5,-56.5"/>
<text text-anchor="middle" x="88" y="-63.5" font-family="Helvetica,sans-Serif" font-size="10.00">csignal</text>
</g>
<!-- Node2&#45;&gt;Node4 -->
<g id="edge3" class="edge"><title>Node2&#45;&gt;Node4</title>
<path fill="none" stroke="midnightblue" d="M1000.46,-112.876C997.263,-112.555 994.095,-112.26 991,-112 607.574,-79.7776 507.168,-128.579 126,-76 124.531,-75.7973 123.035,-75.5636 121.529,-75.3056"/>
<polygon fill="midnightblue" stroke="midnightblue" points="122.076,-71.846 111.585,-73.3222 120.707,-78.7107 122.076,-71.846"/>
</g>
<!-- Node5 -->
<g id="node5" class="node"><title>Node5</title>
<polygon fill="white" stroke="#bfbfbf" points="1575,-56.5 1575,-75.5 1621,-75.5 1621,-56.5 1575,-56.5"/>
<text text-anchor="middle" x="1598" y="-63.5" font-family="Helvetica,sans-Serif" font-size="10.00">cstdint</text>
</g>
<!-- Node2&#45;&gt;Node5 -->
<g id="edge4" class="edge"><title>Node2&#45;&gt;Node5</title>
<path fill="none" stroke="midnightblue" d="M1123.79,-119.162C1217.36,-115.572 1400.6,-105.386 1564.43,-75.9651"/>
<polygon fill="midnightblue" stroke="midnightblue" points="1565.49,-79.3304 1574.7,-74.0917 1564.23,-72.4442 1565.49,-79.3304"/>
</g>
<!-- Node6 -->
<g id="node6" class="node"><title>Node6</title>
<polygon fill="white" stroke="#bfbfbf" points="574,-56.5 574,-75.5 630,-75.5 630,-56.5 574,-56.5"/>
<text text-anchor="middle" x="602" y="-63.5" font-family="Helvetica,sans-Serif" font-size="10.00">cinttypes</text>
</g>
<!-- Node2&#45;&gt;Node6 -->
<g id="edge5" class="edge"><title>Node2&#45;&gt;Node6</title>
<path fill="none" stroke="midnightblue" d="M1000.44,-113.104C997.247,-112.724 994.086,-112.353 991,-112 837.964,-94.4775 795.707,-102.308 640.122,-75.979"/>
<polygon fill="midnightblue" stroke="midnightblue" points="640.646,-72.5178 630.199,-74.2798 639.465,-79.4174 640.646,-72.5178"/>
</g>
<!-- Node7 -->
<g id="node7" class="node"><title>Node7</title>
<polygon fill="white" stroke="#bfbfbf" points="648.5,-56.5 648.5,-75.5 691.5,-75.5 691.5,-56.5 648.5,-56.5"/>
<text text-anchor="middle" x="670" y="-63.5" font-family="Helvetica,sans-Serif" font-size="10.00">cstdio</text>
</g>
<!-- Node2&#45;&gt;Node7 -->
<g id="edge6" class="edge"><title>Node2&#45;&gt;Node7</title>
<path fill="none" stroke="midnightblue" d="M1000.43,-113.184C997.239,-112.782 994.082,-112.386 991,-112 864.974,-96.2171 829.326,-102.477 701.685,-76.0605"/>
<polygon fill="midnightblue" stroke="midnightblue" points="702.024,-72.5555 691.518,-73.9283 700.587,-79.4065 702.024,-72.5555"/>
</g>
<!-- Node8 -->
<g id="node8" class="node"><title>Node8</title>
<polygon fill="white" stroke="#bfbfbf" points="709.5,-56.5 709.5,-75.5 758.5,-75.5 758.5,-56.5 709.5,-56.5"/>
<text text-anchor="middle" x="734" y="-63.5" font-family="Helvetica,sans-Serif" font-size="10.00">cstddef</text>
</g>
<!-- Node2&#45;&gt;Node8 -->
<g id="edge7" class="edge"><title>Node2&#45;&gt;Node8</title>
<path fill="none" stroke="midnightblue" d="M1000.68,-112.493C932.159,-102.847 824.444,-87.2333 768.864,-76.1692"/>
<polygon fill="midnightblue" stroke="midnightblue" points="769.293,-72.684 758.792,-74.0895 767.877,-79.5394 769.293,-72.684"/>
</g>
<!-- Node9 -->
<g id="node9" class="node"><title>Node9</title>
<polygon fill="white" stroke="#bfbfbf" points="776.5,-56.5 776.5,-75.5 821.5,-75.5 821.5,-56.5 776.5,-56.5"/>
<text text-anchor="middle" x="799" y="-63.5" font-family="Helvetica,sans-Serif" font-size="10.00">cstdlib</text>
</g>
<!-- Node2&#45;&gt;Node9 -->
<g id="edge8" class="edge"><title>Node2&#45;&gt;Node9</title>
<path fill="none" stroke="midnightblue" d="M1011.73,-112.43C966.965,-104.524 899.504,-91.9367 831.674,-75.9978"/>
<polygon fill="midnightblue" stroke="midnightblue" points="832.204,-72.5264 821.666,-73.6219 830.587,-79.3372 832.204,-72.5264"/>
</g>
<!-- Node10 -->
<g id="node10" class="node"><title>Node10</title>
<polygon fill="white" stroke="#bfbfbf" points="840,-56.5 840,-75.5 884,-75.5 884,-56.5 840,-56.5"/>
<text text-anchor="middle" x="862" y="-63.5" font-family="Helvetica,sans-Serif" font-size="10.00">cerrno</text>
</g>
<!-- Node2&#45;&gt;Node10 -->
<g id="edge9" class="edge"><title>Node2&#45;&gt;Node10</title>
<path fill="none" stroke="midnightblue" d="M1028.91,-112.422C996.795,-104.046 946.434,-90.7754 894.121,-76.2705"/>
<polygon fill="midnightblue" stroke="midnightblue" points="894.906,-72.8561 884.334,-73.5486 893.031,-79.6001 894.906,-72.8561"/>
</g>
<!-- Node11 -->
<g id="node11" class="node"><title>Node11</title>
<polygon fill="white" stroke="#bfbfbf" points="0,-56.5 0,-75.5 46,-75.5 46,-56.5 0,-56.5"/>
<text text-anchor="middle" x="23" y="-63.5" font-family="Helvetica,sans-Serif" font-size="10.00">cstring</text>
</g>
<!-- Node2&#45;&gt;Node11 -->
<g id="edge10" class="edge"><title>Node2&#45;&gt;Node11</title>
<path fill="none" stroke="midnightblue" d="M1000.46,-112.864C997.264,-112.546 994.096,-112.255 991,-112 579.443,-78.0665 468.023,-139.797 56.3679,-75.8155"/>
<polygon fill="midnightblue" stroke="midnightblue" points="56.6995,-72.3248 46.2777,-74.2316 55.6139,-79.2401 56.6995,-72.3248"/>
</g>
<!-- Node12 -->
<g id="node12" class="node"><title>Node12</title>
<polygon fill="white" stroke="#bfbfbf" points="1749,-56.5 1749,-75.5 1793,-75.5 1793,-56.5 1749,-56.5"/>
<text text-anchor="middle" x="1771" y="-63.5" font-family="Helvetica,sans-Serif" font-size="10.00">cmath</text>
</g>
<!-- Node2&#45;&gt;Node12 -->
<g id="edge11" class="edge"><title>Node2&#45;&gt;Node12</title>
<path fill="none" stroke="midnightblue" d="M1123.77,-121.345C1241.88,-121.041 1507.82,-115.714 1738.85,-75.8143"/>
<polygon fill="midnightblue" stroke="midnightblue" points="1739.54,-79.2472 1748.78,-74.0735 1738.33,-72.3523 1739.54,-79.2472"/>
</g>
<!-- Node13 -->
<g id="node13" class="node"><title>Node13</title>
<polygon fill="white" stroke="#bfbfbf" points="902.5,-56.5 902.5,-75.5 947.5,-75.5 947.5,-56.5 902.5,-56.5"/>
<text text-anchor="middle" x="925" y="-63.5" font-family="Helvetica,sans-Serif" font-size="10.00">iosfwd</text>
</g>
<!-- Node2&#45;&gt;Node13 -->
<g id="edge12" class="edge"><title>Node2&#45;&gt;Node13</title>
<path fill="none" stroke="midnightblue" d="M1040.29,-112.444C1017.65,-103.517 981.928,-89.4387 956.248,-79.3168"/>
<polygon fill="midnightblue" stroke="midnightblue" points="957.193,-75.9273 946.606,-75.5164 954.626,-82.4397 957.193,-75.9273"/>
</g>
<!-- Node14 -->
<g id="node14" class="node"><title>Node14</title>
<polygon fill="white" stroke="#bfbfbf" points="1677,-56.5 1677,-75.5 1731,-75.5 1731,-56.5 1677,-56.5"/>
<text text-anchor="middle" x="1704" y="-63.5" font-family="Helvetica,sans-Serif" font-size="10.00">iostream</text>
</g>
<!-- Node2&#45;&gt;Node14 -->
<g id="edge13" class="edge"><title>Node2&#45;&gt;Node14</title>
<path fill="none" stroke="midnightblue" d="M1123.85,-116.953C1228.29,-109.929 1446.19,-94.4506 1630,-76 1642.05,-74.7903 1655.18,-73.2623 1666.99,-71.8104"/>
<polygon fill="midnightblue" stroke="midnightblue" points="1667.48,-75.2767 1676.97,-70.5639 1666.61,-68.3307 1667.48,-75.2767"/>
</g>
<!-- Node15 -->
<g id="node15" class="node"><title>Node15</title>
<polygon fill="white" stroke="#bfbfbf" points="966,-56.5 966,-75.5 1018,-75.5 1018,-56.5 966,-56.5"/>
<text text-anchor="middle" x="992" y="-63.5" font-family="Helvetica,sans-Serif" font-size="10.00">sstream</text>
</g>
<!-- Node2&#45;&gt;Node15 -->
<g id="edge14" class="edge"><title>Node2&#45;&gt;Node15</title>
<path fill="none" stroke="midnightblue" d="M1050.75,-112.324C1040.2,-104.185 1024.2,-91.8395 1011.56,-82.0874"/>
<polygon fill="midnightblue" stroke="midnightblue" points="1013.51,-79.1707 1003.45,-75.8339 1009.23,-84.7132 1013.51,-79.1707"/>
</g>
<!-- Node16 -->
<g id="node16" class="node"><title>Node16</title>
<polygon fill="white" stroke="#bfbfbf" points="1036.5,-56.5 1036.5,-75.5 1077.5,-75.5 1077.5,-56.5 1036.5,-56.5"/>
<text text-anchor="middle" x="1057" y="-63.5" font-family="Helvetica,sans-Serif" font-size="10.00">regex</text>
</g>
<!-- Node2&#45;&gt;Node16 -->
<g id="edge15" class="edge"><title>Node2&#45;&gt;Node16</title>
<path fill="none" stroke="midnightblue" d="M1061.17,-112.083C1060.52,-105.006 1059.58,-94.8611 1058.76,-85.9865"/>
<polygon fill="midnightblue" stroke="midnightblue" points="1062.22,-85.3858 1057.81,-75.7511 1055.25,-86.0312 1062.22,-85.3858"/>
</g>
<!-- Node17 -->
<g id="node17" class="node"><title>Node17</title>
<polygon fill="white" stroke="#bfbfbf" points="1507,-56.5 1507,-75.5 1557,-75.5 1557,-56.5 1507,-56.5"/>
<text text-anchor="middle" x="1532" y="-63.5" font-family="Helvetica,sans-Serif" font-size="10.00">iomanip</text>
</g>
<!-- Node2&#45;&gt;Node17 -->
<g id="edge16" class="edge"><title>Node2&#45;&gt;Node17</title>
<path fill="none" stroke="midnightblue" d="M1123.7,-116.951C1207.66,-110.896 1362.4,-97.8029 1493,-76 1494.27,-75.7876 1495.57,-75.5587 1496.87,-75.3168"/>
<polygon fill="midnightblue" stroke="midnightblue" points="1497.82,-78.6954 1506.92,-73.2659 1496.42,-71.8368 1497.82,-78.6954"/>
</g>
<!-- Node18 -->
<g id="node18" class="node"><title>Node18</title>
<polygon fill="white" stroke="#bfbfbf" points="1095.5,-56.5 1095.5,-75.5 1146.5,-75.5 1146.5,-56.5 1095.5,-56.5"/>
<text text-anchor="middle" x="1121" y="-63.5" font-family="Helvetica,sans-Serif" font-size="10.00">unistd.h</text>
</g>
<!-- Node2&#45;&gt;Node18 -->
<g id="edge17" class="edge"><title>Node2&#45;&gt;Node18</title>
<path fill="none" stroke="midnightblue" d="M1071.48,-112.324C1080.2,-104.341 1093.34,-92.3128 1103.9,-82.6529"/>
<polygon fill="midnightblue" stroke="midnightblue" points="1106.33,-85.1674 1111.35,-75.8339 1101.61,-80.0036 1106.33,-85.1674"/>
</g>
<!-- Node19 -->
<g id="node19" class="node"><title>Node19</title>
<polygon fill="white" stroke="#bfbfbf" points="1165,-56.5 1165,-75.5 1209,-75.5 1209,-56.5 1165,-56.5"/>
<text text-anchor="middle" x="1187" y="-63.5" font-family="Helvetica,sans-Serif" font-size="10.00">fcntl.h</text>
</g>
<!-- Node2&#45;&gt;Node19 -->
<g id="edge18" class="edge"><title>Node2&#45;&gt;Node19</title>
<path fill="none" stroke="midnightblue" d="M1081.81,-112.444C1102.29,-103.596 1134.48,-89.6875 1157.86,-79.5865"/>
<polygon fill="midnightblue" stroke="midnightblue" points="1159.49,-82.6953 1167.29,-75.5164 1156.72,-76.2692 1159.49,-82.6953"/>
</g>
<!-- Node20 -->
<g id="node20" class="node"><title>Node20</title>
<polygon fill="white" stroke="#bfbfbf" points="1227,-56.5 1227,-75.5 1267,-75.5 1267,-56.5 1227,-56.5"/>
<text text-anchor="middle" x="1247" y="-63.5" font-family="Helvetica,sans-Serif" font-size="10.00">limits</text>
</g>
<!-- Node2&#45;&gt;Node20 -->
<g id="edge19" class="edge"><title>Node2&#45;&gt;Node20</title>
<path fill="none" stroke="midnightblue" d="M1092.25,-112.468C1121.75,-104.106 1168.13,-90.8455 1216.94,-76.2764"/>
<polygon fill="midnightblue" stroke="midnightblue" points="1218.16,-79.5665 1226.73,-73.3462 1216.15,-72.8604 1218.16,-79.5665"/>
</g>
<!-- Node21 -->
<g id="node21" class="node"><title>Node21</title>
<polygon fill="white" stroke="#bfbfbf" points="1076.5,-0.5 1076.5,-19.5 1117.5,-19.5 1117.5,-0.5 1076.5,-0.5"/>
<text text-anchor="middle" x="1097" y="-7.5" font-family="Helvetica,sans-Serif" font-size="10.00">string</text>
</g>
<!-- Node2&#45;&gt;Node21 -->
<g id="edge20" class="edge"><title>Node2&#45;&gt;Node21</title>
<path fill="none" stroke="midnightblue" d="M1123.6,-118.45C1229.55,-113.425 1437.08,-100.543 1459,-76 1504.36,-25.2124 1222.87,-13.9333 1127.67,-11.5832"/>
<polygon fill="midnightblue" stroke="midnightblue" points="1127.6,-8.08076 1117.52,-11.3495 1127.43,-15.0789 1127.6,-8.08076"/>
</g>
<!-- Node22 -->
<g id="node22" class="node"><title>Node22</title>
<polygon fill="white" stroke="#bfbfbf" points="472,-0.5 472,-19.5 516,-19.5 516,-0.5 472,-0.5"/>
<text text-anchor="middle" x="494" y="-7.5" font-family="Helvetica,sans-Serif" font-size="10.00">vector</text>
</g>
<!-- Node2&#45;&gt;Node22 -->
<g id="edge21" class="edge"><title>Node2&#45;&gt;Node22</title>
<path fill="none" stroke="midnightblue" d="M1000.45,-112.986C997.256,-112.637 994.091,-112.305 991,-112 934.688,-106.44 521.572,-117.402 483,-76 471.336,-63.4807 477.047,-43.4161 483.817,-28.8884"/>
<polygon fill="midnightblue" stroke="midnightblue" points="486.992,-30.3671 488.473,-19.8762 480.773,-27.1543 486.992,-30.3671"/>
</g>
<!-- Node23 -->
<g id="node23" class="node"><title>Node23</title>
<polygon fill="white" stroke="#bfbfbf" points="1285.5,-56.5 1285.5,-75.5 1326.5,-75.5 1326.5,-56.5 1285.5,-56.5"/>
<text text-anchor="middle" x="1306" y="-63.5" font-family="Helvetica,sans-Serif" font-size="10.00">stack</text>
</g>
<!-- Node2&#45;&gt;Node23 -->
<g id="edge22" class="edge"><title>Node2&#45;&gt;Node23</title>
<path fill="none" stroke="midnightblue" d="M1108.18,-112.456C1149.57,-104.535 1212.13,-91.9232 1275.62,-75.9181"/>
<polygon fill="midnightblue" stroke="midnightblue" points="1276.58,-79.2863 1285.41,-73.4266 1274.85,-72.5029 1276.58,-79.2863"/>
</g>
<!-- Node24 -->
<g id="node24" class="node"><title>Node24</title>
<polygon fill="white" stroke="#bfbfbf" points="1344.5,-56.5 1344.5,-75.5 1387.5,-75.5 1387.5,-56.5 1344.5,-56.5"/>
<text text-anchor="middle" x="1366" y="-63.5" font-family="Helvetica,sans-Serif" font-size="10.00">deque</text>
</g>
<!-- Node2&#45;&gt;Node24 -->
<g id="edge23" class="edge"><title>Node2&#45;&gt;Node24</title>
<path fill="none" stroke="midnightblue" d="M1123.67,-112.976C1176.98,-105.552 1256.26,-93.356 1334.39,-75.8951"/>
<polygon fill="midnightblue" stroke="midnightblue" points="1335.43,-79.249 1344.41,-73.6258 1333.88,-72.4221 1335.43,-79.249"/>
</g>
<!-- Node25 -->
<g id="node25" class="node"><title>Node25</title>
<polygon fill="white" stroke="#bfbfbf" points="73,-0.5 73,-19.5 117,-19.5 117,-0.5 73,-0.5"/>
<text text-anchor="middle" x="95" y="-7.5" font-family="Helvetica,sans-Serif" font-size="10.00">mutex</text>
</g>
<!-- Node2&#45;&gt;Node25 -->
<g id="edge24" class="edge"><title>Node2&#45;&gt;Node25</title>
<path fill="none" stroke="midnightblue" d="M1000.46,-112.889C997.262,-112.565 994.095,-112.265 991,-112 813.914,-96.812 360.841,-131.522 192,-76 160.722,-65.7146 130.087,-42.3154 111.87,-26.5831"/>
<polygon fill="midnightblue" stroke="midnightblue" points="113.775,-23.5942 103.976,-19.567 109.125,-28.8263 113.775,-23.5942"/>
</g>
<!-- Node26 -->
<g id="node26" class="node"><title>Node26</title>
<polygon fill="white" stroke="#bfbfbf" points="135,-0.5 135,-19.5 179,-19.5 179,-0.5 135,-0.5"/>
<text text-anchor="middle" x="157" y="-7.5" font-family="Helvetica,sans-Serif" font-size="10.00">thread</text>
</g>
<!-- Node2&#45;&gt;Node26 -->
<g id="edge25" class="edge"><title>Node2&#45;&gt;Node26</title>
<path fill="none" stroke="midnightblue" d="M1000.46,-112.896C997.262,-112.57 994.095,-112.268 991,-112 906.114,-104.637 303.315,-109.565 225,-76 201.409,-65.8894 181.156,-43.6964 169.033,-28.0658"/>
<polygon fill="midnightblue" stroke="midnightblue" points="171.641,-25.7067 162.871,-19.762 166.02,-29.8782 171.641,-25.7067"/>
</g>
<!-- Node27 -->
<g id="node27" class="node"><title>Node27</title>
<polygon fill="white" stroke="#bfbfbf" points="197.5,-0.5 197.5,-19.5 292.5,-19.5 292.5,-0.5 197.5,-0.5"/>
<text text-anchor="middle" x="245" y="-7.5" font-family="Helvetica,sans-Serif" font-size="10.00">condition_variable</text>
</g>
<!-- Node2&#45;&gt;Node27 -->
<g id="edge26" class="edge"><title>Node2&#45;&gt;Node27</title>
<path fill="none" stroke="midnightblue" d="M1000.46,-112.899C997.262,-112.572 994.095,-112.269 991,-112 949.111,-108.353 264.016,-106.431 235,-76 223.221,-63.6466 228.61,-43.5541 235.132,-28.9745"/>
<polygon fill="midnightblue" stroke="midnightblue" points="238.314,-30.4372 239.632,-19.9246 232.046,-27.3208 238.314,-30.4372"/>
</g>
<!-- Node28 -->
<g id="node28" class="node"><title>Node28</title>
<polygon fill="white" stroke="#bfbfbf" points="357.5,-0.5 357.5,-19.5 400.5,-19.5 400.5,-0.5 357.5,-0.5"/>
<text text-anchor="middle" x="379" y="-7.5" font-family="Helvetica,sans-Serif" font-size="10.00">queue</text>
</g>
<!-- Node2&#45;&gt;Node28 -->
<g id="edge27" class="edge"><title>Node2&#45;&gt;Node28</title>
<path fill="none" stroke="midnightblue" d="M1000.45,-112.97C997.257,-112.625 994.092,-112.299 991,-112 871.291,-100.433 561.751,-122.885 451,-76 426.401,-65.5862 404.642,-43.1217 391.649,-27.5387"/>
<polygon fill="midnightblue" stroke="midnightblue" points="394.357,-25.3208 385.37,-19.7097 388.896,-29.7005 394.357,-25.3208"/>
</g>
<!-- Node29 -->
<g id="node29" class="node"><title>Node29</title>
<polygon fill="white" stroke="#bfbfbf" points="418.5,-0.5 418.5,-19.5 453.5,-19.5 453.5,-0.5 418.5,-0.5"/>
<text text-anchor="middle" x="436" y="-7.5" font-family="Helvetica,sans-Serif" font-size="10.00">map</text>
</g>
<!-- Node2&#45;&gt;Node29 -->
<g id="edge28" class="edge"><title>Node2&#45;&gt;Node29</title>
<path fill="none" stroke="midnightblue" d="M1000.45,-112.981C997.256,-112.633 994.091,-112.303 991,-112 933.581,-106.37 521.841,-106.712 473,-76 456.371,-65.5431 446.475,-44.7462 441.161,-29.4817"/>
<polygon fill="midnightblue" stroke="midnightblue" points="444.389,-28.0763 438.071,-19.5715 437.706,-30.1601 444.389,-28.0763"/>
</g>
<!-- Node30 -->
<g id="node30" class="node"><title>Node30</title>
<g id="a_node30"><a xlink:href="cosmos-defs_8h.html" target="_top" xlink:title="COSMOS definitions Definitions specific to the COSMOS environement. ">
<polygon fill="white" stroke="black" points="244,-56.5 244,-75.5 360,-75.5 360,-56.5 244,-56.5"/>
<text text-anchor="middle" x="302" y="-63.5" font-family="Helvetica,sans-Serif" font-size="10.00">support/cosmos&#45;defs.h</text>
</a>
</g>
</g>
<!-- Node2&#45;&gt;Node30 -->
<g id="edge29" class="edge"><title>Node2&#45;&gt;Node30</title>
<path fill="none" stroke="midnightblue" d="M1000.45,-112.939C997.259,-112.602 994.093,-112.286 991,-112 717.478,-86.7138 647.544,-101.049 374,-76 372.73,-75.8837 371.448,-75.7625 370.156,-75.637"/>
<polygon fill="midnightblue" stroke="midnightblue" points="370.43,-72.1468 360.123,-74.5999 369.71,-79.1097 370.43,-72.1468"/>
</g>
<!-- Node32 -->
<g id="node32" class="node"><title>Node32</title>
<g id="a_node32"><a xlink:href="json11_8hpp.html" target="_top" xlink:title="json11.hpp">
<polygon fill="white" stroke="black" points="492,-56.5 492,-75.5 556,-75.5 556,-56.5 492,-56.5"/>
<text text-anchor="middle" x="524" y="-63.5" font-family="Helvetica,sans-Serif" font-size="10.00">json11.hpp</text>
</a>
</g>
</g>
<!-- Node2&#45;&gt;Node32 -->
<g id="edge37" class="edge"><title>Node2&#45;&gt;Node32</title>
<path fill="none" stroke="midnightblue" d="M1000.44,-113.037C997.252,-112.674 994.089,-112.326 991,-112 805.271,-92.3894 754.591,-104.017 566.112,-75.9769"/>
<polygon fill="midnightblue" stroke="midnightblue" points="566.564,-72.5056 556.154,-74.4779 565.522,-79.4276 566.564,-72.5056"/>
</g>
<!-- Node30&#45;&gt;Node22 -->
<g id="edge31" class="edge"><title>Node30&#45;&gt;Node22</title>
<path fill="none" stroke="midnightblue" d="M332.423,-56.4435C367.743,-46.5098 425.748,-30.1958 461.806,-20.0544"/>
<polygon fill="midnightblue" stroke="midnightblue" points="463.121,-23.3205 471.8,-17.2437 461.226,-16.582 463.121,-23.3205"/>
</g>
<!-- Node30&#45;&gt;Node25 -->
<g id="edge35" class="edge"><title>Node30&#45;&gt;Node25</title>
<path fill="none" stroke="midnightblue" d="M267.183,-56.4495C233.629,-48.1314 181.197,-34.9306 127.088,-20.2372"/>
<polygon fill="midnightblue" stroke="midnightblue" points="127.895,-16.8297 117.327,-17.5751 126.053,-23.583 127.895,-16.8297"/>
</g>
<!-- Node30&#45;&gt;Node26 -->
<g id="edge34" class="edge"><title>Node30&#45;&gt;Node26</title>
<path fill="none" stroke="midnightblue" d="M279.024,-56.4435C254.701,-47.3851 216.131,-33.0213 188.875,-22.8705"/>
<polygon fill="midnightblue" stroke="midnightblue" points="189.984,-19.5491 179.392,-19.339 187.541,-26.109 189.984,-19.5491"/>
</g>
<!-- Node30&#45;&gt;Node27 -->
<g id="edge36" class="edge"><title>Node30&#45;&gt;Node27</title>
<path fill="none" stroke="midnightblue" d="M292.842,-56.324C284.499,-48.4196 271.968,-36.5482 261.823,-26.9377"/>
<polygon fill="midnightblue" stroke="midnightblue" points="263.991,-24.1705 254.325,-19.8339 259.177,-29.2522 263.991,-24.1705"/>
</g>
<!-- Node30&#45;&gt;Node28 -->
<g id="edge33" class="edge"><title>Node30&#45;&gt;Node28</title>
<path fill="none" stroke="midnightblue" d="M314.371,-56.324C326.158,-48.0577 344.132,-35.4527 358.136,-25.6322"/>
<polygon fill="midnightblue" stroke="midnightblue" points="360.482,-28.2619 366.659,-19.6545 356.462,-22.5307 360.482,-28.2619"/>
</g>
<!-- Node30&#45;&gt;Node29 -->
<g id="edge30" class="edge"><title>Node30&#45;&gt;Node29</title>
<path fill="none" stroke="midnightblue" d="M323.233,-56.4435C346.426,-47.097 383.635,-32.1023 408.914,-21.9151"/>
<polygon fill="midnightblue" stroke="midnightblue" points="410.323,-25.121 418.29,-18.1368 407.707,-18.6283 410.323,-25.121"/>
</g>
<!-- Node31 -->
<g id="node31" class="node"><title>Node31</title>
<polygon fill="white" stroke="#bfbfbf" points="310.5,-0.5 310.5,-19.5 339.5,-19.5 339.5,-0.5 310.5,-0.5"/>
<text text-anchor="middle" x="325" y="-7.5" font-family="Helvetica,sans-Serif" font-size="10.00">list</text>
</g>
<!-- Node30&#45;&gt;Node31 -->
<g id="edge32" class="edge"><title>Node30&#45;&gt;Node31</title>
<path fill="none" stroke="midnightblue" d="M305.798,-56.083C308.913,-48.77 313.423,-38.1814 317.289,-29.1034"/>
<polygon fill="midnightblue" stroke="midnightblue" points="320.574,-30.3229 321.273,-19.7511 314.134,-27.5798 320.574,-30.3229"/>
</g>
<!-- Node32&#45;&gt;Node21 -->
<g id="edge38" class="edge"><title>Node32&#45;&gt;Node21</title>
<path fill="none" stroke="midnightblue" d="M556.154,-57.5223C559.135,-56.956 562.118,-56.4363 565,-56 754.232,-27.3548 984.297,-15.6435 1066.22,-12.1845"/>
<polygon fill="midnightblue" stroke="midnightblue" points="1066.5,-15.6763 1076.35,-11.7677 1066.21,-8.68218 1066.5,-15.6763"/>
</g>
<!-- Node32&#45;&gt;Node22 -->
<g id="edge39" class="edge"><title>Node32&#45;&gt;Node22</title>
<path fill="none" stroke="midnightblue" d="M519.046,-56.083C514.896,-48.6127 508.847,-37.7244 503.733,-28.5199"/>
<polygon fill="midnightblue" stroke="midnightblue" points="506.778,-26.7929 498.862,-19.7511 500.659,-30.1924 506.778,-26.7929"/>
</g>
<!-- Node32&#45;&gt;Node29 -->
<g id="edge40" class="edge"><title>Node32&#45;&gt;Node29</title>
<path fill="none" stroke="midnightblue" d="M509.861,-56.324C496.134,-47.9002 475.064,-34.9709 458.936,-25.0741"/>
<polygon fill="midnightblue" stroke="midnightblue" points="460.457,-21.9016 450.104,-19.6545 456.796,-27.8678 460.457,-21.9016"/>
</g>
<!-- Node33 -->
<g id="node33" class="node"><title>Node33</title>
<polygon fill="white" stroke="#bfbfbf" points="534,-0.5 534,-19.5 586,-19.5 586,-0.5 534,-0.5"/>
<text text-anchor="middle" x="560" y="-7.5" font-family="Helvetica,sans-Serif" font-size="10.00">memory</text>
</g>
<!-- Node32&#45;&gt;Node33 -->
<g id="edge41" class="edge"><title>Node32&#45;&gt;Node33</title>
<path fill="none" stroke="midnightblue" d="M529.945,-56.083C534.977,-48.5341 542.337,-37.4948 548.513,-28.2298"/>
<polygon fill="midnightblue" stroke="midnightblue" points="551.531,-30.0131 554.166,-19.7511 545.707,-26.1301 551.531,-30.0131"/>
</g>
<!-- Node34 -->
<g id="node34" class="node"><title>Node34</title>
<polygon fill="white" stroke="#bfbfbf" points="604.5,-0.5 604.5,-19.5 677.5,-19.5 677.5,-0.5 604.5,-0.5"/>
<text text-anchor="middle" x="641" y="-7.5" font-family="Helvetica,sans-Serif" font-size="10.00">initializer_list</text>
</g>
<!-- Node32&#45;&gt;Node34 -->
<g id="edge42" class="edge"><title>Node32&#45;&gt;Node34</title>
<path fill="none" stroke="midnightblue" d="M542.539,-56.4435C561.623,-47.6356 591.575,-33.8116 613.436,-23.722"/>
<polygon fill="midnightblue" stroke="midnightblue" points="614.935,-26.8849 622.548,-19.5164 612.001,-20.5292 614.935,-26.8849"/>
</g>
<!-- Node35&#45;&gt;Node2 -->
<g id="edge44" class="edge"><title>Node35&#45;&gt;Node2</title>
<path fill="none" stroke="midnightblue" d="M1339.48,-392.353C1312.78,-376.203 1261,-338.729 1261,-291 1261,-291 1261,-291 1261,-233 1261,-172.951 1190.74,-145.426 1133.71,-132.975"/>
<polygon fill="midnightblue" stroke="midnightblue" points="1134.1,-129.482 1123.6,-130.892 1132.69,-136.338 1134.1,-129.482"/>
</g>
<!-- Node35&#45;&gt;Node12 -->
<g id="edge65" class="edge"><title>Node35&#45;&gt;Node12</title>
<path fill="none" stroke="midnightblue" d="M1395.69,-393.679C1466.48,-380.942 1604.84,-356.046 1605,-356 1677.89,-334.71 1763,-366.932 1763,-291 1763,-291 1763,-291 1763,-177 1763,-144.863 1766.44,-107.584 1768.81,-85.7187"/>
<polygon fill="midnightblue" stroke="midnightblue" points="1772.31,-85.8715 1769.95,-75.5424 1765.36,-85.0874 1772.31,-85.8715"/>
</g>
<!-- Node35&#45;&gt;Node14 -->
<g id="edge66" class="edge"><title>Node35&#45;&gt;Node14</title>
<path fill="none" stroke="midnightblue" d="M1395.84,-392.742C1489.35,-373.27 1711,-323.668 1711,-291 1711,-291 1711,-291 1711,-177 1711,-144.883 1707.99,-107.598 1705.92,-85.7258"/>
<polygon fill="midnightblue" stroke="midnightblue" points="1709.38,-85.1543 1704.92,-75.546 1702.41,-85.8412 1709.38,-85.1543"/>
</g>
<!-- Node35&#45;&gt;Node36 -->
<g id="edge45" class="edge"><title>Node35&#45;&gt;Node36</title>
<path fill="none" stroke="midnightblue" d="M1326.53,-392.36C1303.89,-384.752 1271.99,-372.34 1247,-356 1173.91,-308.216 1104.06,-229.541 1075.51,-195.522"/>
<polygon fill="midnightblue" stroke="midnightblue" points="1077.96,-192.986 1068.88,-187.526 1072.57,-197.456 1077.96,-192.986"/>
</g>
<!-- Node38 -->
<g id="node38" class="node"><title>Node38</title>
<g id="a_node38"><a xlink:href="math_2constants_8h.html" target="_top" xlink:title="constants.h">
<polygon fill="white" stroke="black" points="1539,-168.5 1539,-187.5 1607,-187.5 1607,-168.5 1539,-168.5"/>
<text text-anchor="middle" x="1573" y="-175.5" font-family="Helvetica,sans-Serif" font-size="10.00">constants.h</text>
</a>
</g>
</g>
<!-- Node35&#45;&gt;Node38 -->
<g id="edge48" class="edge"><title>Node35&#45;&gt;Node38</title>
<path fill="none" stroke="midnightblue" d="M1378.16,-392.444C1396.76,-384.809 1422.84,-372.319 1442,-356 1498.42,-307.944 1544.51,-231.167 1563.57,-196.728"/>
<polygon fill="midnightblue" stroke="midnightblue" points="1566.7,-198.292 1568.4,-187.835 1560.55,-194.948 1566.7,-198.292"/>
</g>
<!-- Node39 -->
<g id="node39" class="node"><title>Node39</title>
<g id="a_node39"><a xlink:href="vector_8h.html" target="_top" xlink:title="vector.h">
<polygon fill="white" stroke="black" points="1447,-224.5 1447,-243.5 1499,-243.5 1499,-224.5 1447,-224.5"/>
<text text-anchor="middle" x="1473" y="-231.5" font-family="Helvetica,sans-Serif" font-size="10.00">vector.h</text>
</a>
</g>
</g>
<!-- Node35&#45;&gt;Node39 -->
<g id="edge51" class="edge"><title>Node35&#45;&gt;Node39</title>
<path fill="none" stroke="midnightblue" d="M1373.07,-392.346C1387.66,-384.576 1407.86,-371.948 1421,-356 1446.71,-324.795 1461.71,-278.966 1468.53,-253.605"/>
<polygon fill="midnightblue" stroke="midnightblue" points="1471.95,-254.36 1471.03,-243.805 1465.17,-252.63 1471.95,-254.36"/>
</g>
<!-- Node40 -->
<g id="node40" class="node"><title>Node40</title>
<g id="a_node40"><a xlink:href="matrix_8h.html" target="_top" xlink:title="matrix.h">
<polygon fill="white" stroke="black" points="1302,-280.5 1302,-299.5 1354,-299.5 1354,-280.5 1302,-280.5"/>
<text text-anchor="middle" x="1328" y="-287.5" font-family="Helvetica,sans-Serif" font-size="10.00">matrix.h</text>
</a>
</g>
</g>
<!-- Node35&#45;&gt;Node40 -->
<g id="edge58" class="edge"><title>Node35&#45;&gt;Node40</title>
<path fill="none" stroke="midnightblue" d="M1352.88,-392.368C1348.52,-374.617 1338.47,-333.666 1332.56,-309.597"/>
<polygon fill="midnightblue" stroke="midnightblue" points="1335.89,-308.469 1330.11,-299.591 1329.09,-310.137 1335.89,-308.469"/>
</g>
<!-- Node41 -->
<g id="node41" class="node"><title>Node41</title>
<g id="a_node41"><a xlink:href="rotation_8h.html" target="_top" xlink:title="rotation.h">
<polygon fill="white" stroke="black" points="1355.5,-336.5 1355.5,-355.5 1412.5,-355.5 1412.5,-336.5 1355.5,-336.5"/>
<text text-anchor="middle" x="1384" y="-343.5" font-family="Helvetica,sans-Serif" font-size="10.00">rotation.h</text>
</a>
</g>
</g>
<!-- Node35&#45;&gt;Node41 -->
<g id="edge61" class="edge"><title>Node35&#45;&gt;Node41</title>
<path fill="none" stroke="midnightblue" d="M1359.79,-392.083C1363.76,-384.691 1369.53,-373.953 1374.43,-364.811"/>
<polygon fill="midnightblue" stroke="midnightblue" points="1377.65,-366.217 1379.3,-355.751 1371.49,-362.905 1377.65,-366.217"/>
</g>
<!-- Node36&#45;&gt;Node2 -->
<g id="edge46" class="edge"><title>Node36&#45;&gt;Node2</title>
<path fill="none" stroke="midnightblue" d="M1062,-168.083C1062,-161.006 1062,-150.861 1062,-141.986"/>
<polygon fill="midnightblue" stroke="midnightblue" points="1065.5,-141.751 1062,-131.751 1058.5,-141.751 1065.5,-141.751"/>
</g>
<!-- Node37 -->
<g id="node37" class="node"><title>Node37</title>
<polygon fill="white" stroke="#bfbfbf" points="935.5,-112.5 935.5,-131.5 982.5,-131.5 982.5,-112.5 935.5,-112.5"/>
<text text-anchor="middle" x="959" y="-119.5" font-family="Helvetica,sans-Serif" font-size="10.00">errno.h</text>
</g>
<!-- Node36&#45;&gt;Node37 -->
<g id="edge47" class="edge"><title>Node36&#45;&gt;Node37</title>
<path fill="none" stroke="midnightblue" d="M1045.45,-168.324C1029.01,-159.703 1003.57,-146.364 984.532,-136.386"/>
<polygon fill="midnightblue" stroke="midnightblue" points="985.989,-133.198 975.508,-131.655 982.739,-139.398 985.989,-133.198"/>
</g>
<!-- Node38&#45;&gt;Node2 -->
<g id="edge49" class="edge"><title>Node38&#45;&gt;Node2</title>
<path fill="none" stroke="midnightblue" d="M1538.68,-173.373C1456.22,-164.659 1245.54,-142.395 1133.92,-130.6"/>
<polygon fill="midnightblue" stroke="midnightblue" points="1134.07,-127.097 1123.76,-129.526 1133.33,-134.058 1134.07,-127.097"/>
</g>
<!-- Node38&#45;&gt;Node5 -->
<g id="edge50" class="edge"><title>Node38&#45;&gt;Node5</title>
<path fill="none" stroke="midnightblue" d="M1574.96,-168.368C1579,-150.617 1588.3,-109.666 1593.77,-85.5974"/>
<polygon fill="midnightblue" stroke="midnightblue" points="1597.24,-86.1185 1596.05,-75.5914 1590.42,-84.567 1597.24,-86.1185"/>
</g>
<!-- Node39&#45;&gt;Node2 -->
<g id="edge52" class="edge"><title>Node39&#45;&gt;Node2</title>
<path fill="none" stroke="midnightblue" d="M1466.07,-224.498C1453.82,-210.134 1426.8,-181.325 1397,-168 1351.31,-147.569 1217.79,-134.387 1133.76,-127.864"/>
<polygon fill="midnightblue" stroke="midnightblue" points="1134.01,-124.372 1123.77,-127.101 1133.47,-131.352 1134.01,-124.372"/>
</g>
<!-- Node39&#45;&gt;Node12 -->
<g id="edge56" class="edge"><title>Node39&#45;&gt;Node12</title>
<path fill="none" stroke="midnightblue" d="M1499.18,-229.82C1533.16,-224.843 1593.49,-213.061 1639,-188 1689.4,-160.247 1735.92,-109.379 1757.83,-83.3246"/>
<polygon fill="midnightblue" stroke="midnightblue" points="1760.61,-85.4481 1764.28,-75.5092 1755.21,-80.9902 1760.61,-85.4481"/>
</g>
<!-- Node39&#45;&gt;Node14 -->
<g id="edge54" class="edge"><title>Node39&#45;&gt;Node14</title>
<path fill="none" stroke="midnightblue" d="M1499.2,-230.565C1530.14,-226.482 1581.71,-215.753 1616,-188 1646.17,-163.585 1635.51,-142.892 1659,-112 1667.09,-101.361 1677.58,-90.7289 1686.4,-82.4723"/>
<polygon fill="midnightblue" stroke="midnightblue" points="1688.88,-84.9492 1693.91,-75.6257 1684.16,-79.7761 1688.88,-84.9492"/>
</g>
<!-- Node39&#45;&gt;Node17 -->
<g id="edge55" class="edge"><title>Node39&#45;&gt;Node17</title>
<path fill="none" stroke="midnightblue" d="M1476.17,-224.075C1485.5,-197.832 1512.97,-120.545 1525.56,-85.1165"/>
<polygon fill="midnightblue" stroke="midnightblue" points="1528.9,-86.1628 1528.95,-75.5681 1522.31,-83.8185 1528.9,-86.1628"/>
</g>
<!-- Node39&#45;&gt;Node22 -->
<g id="edge57" class="edge"><title>Node39&#45;&gt;Node22</title>
<path fill="none" stroke="midnightblue" d="M1480.1,-224.326C1490.61,-211.612 1511.13,-187.33 1530,-168 1576.62,-120.254 1676.41,-103.949 1630,-56 1588.74,-13.3755 653.011,-28.4952 526.514,-19.2432"/>
<polygon fill="midnightblue" stroke="midnightblue" points="526.509,-15.7238 516.2,-18.1657 525.782,-22.6859 526.509,-15.7238"/>
</g>
<!-- Node39&#45;&gt;Node38 -->
<g id="edge53" class="edge"><title>Node39&#45;&gt;Node38</title>
<path fill="none" stroke="midnightblue" d="M1489.07,-224.324C1504.96,-215.743 1529.51,-202.486 1547.96,-192.522"/>
<polygon fill="midnightblue" stroke="midnightblue" points="1549.84,-195.486 1556.97,-187.655 1546.51,-189.326 1549.84,-195.486"/>
</g>
<!-- Node40&#45;&gt;Node2 -->
<g id="edge59" class="edge"><title>Node40&#45;&gt;Node2</title>
<path fill="none" stroke="midnightblue" d="M1326.92,-280.368C1323.63,-257.998 1311.64,-197.819 1275,-168 1253.52,-150.519 1186.83,-138.305 1133.73,-131.057"/>
<polygon fill="midnightblue" stroke="midnightblue" points="1134.02,-127.565 1123.64,-129.717 1133.1,-134.504 1134.02,-127.565"/>
</g>
<!-- Node40&#45;&gt;Node39 -->
<g id="edge60" class="edge"><title>Node40&#45;&gt;Node39</title>
<path fill="none" stroke="midnightblue" d="M1350.98,-280.444C1375.16,-271.438 1413.42,-257.189 1440.65,-247.049"/>
<polygon fill="midnightblue" stroke="midnightblue" points="1441.98,-250.286 1450.13,-243.516 1439.54,-243.727 1441.98,-250.286"/>
</g>
<!-- Node41&#45;&gt;Node2 -->
<g id="edge62" class="edge"><title>Node41&#45;&gt;Node2</title>
<path fill="none" stroke="midnightblue" d="M1382.7,-336.103C1377.85,-306.452 1357.92,-210.48 1298,-168 1272.03,-149.586 1193.1,-137.131 1133.62,-130.076"/>
<polygon fill="midnightblue" stroke="midnightblue" points="1133.84,-126.579 1123.5,-128.906 1133.03,-133.532 1133.84,-126.579"/>
</g>
<!-- Node41&#45;&gt;Node39 -->
<g id="edge63" class="edge"><title>Node41&#45;&gt;Node39</title>
<path fill="none" stroke="midnightblue" d="M1390.98,-336.368C1405.74,-318.135 1440.29,-275.426 1459.51,-251.675"/>
<polygon fill="midnightblue" stroke="midnightblue" points="1462.48,-253.567 1466.05,-243.591 1457.04,-249.164 1462.48,-253.567"/>
</g>
<!-- Node41&#45;&gt;Node40 -->
<g id="edge64" class="edge"><title>Node41&#45;&gt;Node40</title>
<path fill="none" stroke="midnightblue" d="M1375,-336.324C1366.81,-328.42 1354.49,-316.548 1344.53,-306.938"/>
<polygon fill="midnightblue" stroke="midnightblue" points="1346.79,-304.256 1337.16,-299.834 1341.93,-309.295 1346.79,-304.256"/>
</g>
<!-- Node42&#45;&gt;Node2 -->
<g id="edge69" class="edge"><title>Node42&#45;&gt;Node2</title>
<path fill="none" stroke="midnightblue" d="M1012.92,-280.394C1045.87,-266.617 1105.36,-236.159 1130,-188 1141.18,-166.149 1115.8,-147.551 1092.93,-135.918"/>
<polygon fill="midnightblue" stroke="midnightblue" points="1094.25,-132.672 1083.72,-131.517 1091.23,-138.988 1094.25,-132.672"/>
</g>
<!-- Node42&#45;&gt;Node36 -->
<g id="edge74" class="edge"><title>Node42&#45;&gt;Node36</title>
<path fill="none" stroke="midnightblue" d="M997.361,-280.316C1004.73,-271.452 1016.2,-257.165 1025,-244 1035.35,-228.516 1045.72,-209.977 1052.83,-196.668"/>
<polygon fill="midnightblue" stroke="midnightblue" points="1056.02,-198.126 1057.59,-187.647 1049.83,-194.862 1056.02,-198.126"/>
</g>
<!-- Node43 -->
<g id="node43" class="node"><title>Node43</title>
<g id="a_node43"><a xlink:href="sliplib_8h.html" target="_top" xlink:title="COSMOS SLIP support include file. ">
<polygon fill="white" stroke="black" points="931.5,-224.5 931.5,-243.5 1016.5,-243.5 1016.5,-224.5 931.5,-224.5"/>
<text text-anchor="middle" x="974" y="-231.5" font-family="Helvetica,sans-Serif" font-size="10.00">support/sliplib.h</text>
</a>
</g>
</g>
<!-- Node42&#45;&gt;Node43 -->
<g id="edge70" class="edge"><title>Node42&#45;&gt;Node43</title>
<path fill="none" stroke="midnightblue" d="M987.358,-280.083C985.214,-272.849 982.121,-262.409 979.451,-253.397"/>
<polygon fill="midnightblue" stroke="midnightblue" points="982.79,-252.345 976.593,-243.751 976.078,-254.333 982.79,-252.345"/>
</g>
<!-- Node43&#45;&gt;Node2 -->
<g id="edge71" class="edge"><title>Node43&#45;&gt;Node2</title>
<path fill="none" stroke="midnightblue" d="M974.648,-224.153C976.023,-210.785 980.245,-185.18 993,-168 1003.04,-154.472 1018.46,-143.865 1032.17,-136.355"/>
<polygon fill="midnightblue" stroke="midnightblue" points="1034.02,-139.342 1041.3,-131.653 1030.81,-133.118 1034.02,-139.342"/>
</g>
<!-- Node43&#45;&gt;Node11 -->
<g id="edge73" class="edge"><title>Node43&#45;&gt;Node11</title>
<path fill="none" stroke="midnightblue" d="M931.088,-227.304C800.597,-209.637 397.134,-152.462 56.1622,-76.0798"/>
<polygon fill="midnightblue" stroke="midnightblue" points="56.8709,-72.6518 46.3465,-73.8717 55.3345,-79.4811 56.8709,-72.6518"/>
</g>
<!-- Node43&#45;&gt;Node36 -->
<g id="edge72" class="edge"><title>Node43&#45;&gt;Node36</title>
<path fill="none" stroke="midnightblue" d="M988.139,-224.324C1001.87,-215.9 1022.94,-202.971 1039.06,-193.074"/>
<polygon fill="midnightblue" stroke="midnightblue" points="1041.2,-195.868 1047.9,-187.655 1037.54,-189.902 1041.2,-195.868"/>
</g>
</g>
</svg>
        <g id="navigator" transform="translate(0 0)" fill="#404254">
                <rect fill="#f2f5e9" fill-opacity="0.5" stroke="#606060" stroke-width=".5" x="0" y="0" width="60" height="60"/>
                <use id="zoomplus" xlink:href="#zoomPlus" x="17" y="9" onmousedown="handleZoom(evt,'in')"/>
                <use id="zoomminus" xlink:href="#zoomMin" x="42" y="9" onmousedown="handleZoom(evt,'out')"/>
                <use id="reset" xlink:href="#resetDef" x="30" y="36" onmousedown="handleReset()"/>
                <g id="arrowUp" xlink:href="#dirArrow" transform="translate(30 24)" onmousedown="handlePan(0,-1)">
                  <use xlink:href="#rim" fill="#404040">
                        <set attributeName="fill" to="#808080" begin="arrowUp.mouseover" end="arrowUp.mouseout"/>
                  </use>
                  <path fill="none" stroke="white" stroke-width="1.5" d="M0,-3.0v7 M-2.5,-0.5L0,-3.0L2.5,-0.5"/>
                </g>
                <g id="arrowRight" xlink:href="#dirArrow" transform="rotate(90) translate(36 -43)" onmousedown="handlePan(1,0)">
                  <use xlink:href="#rim" fill="#404040">
                        <set attributeName="fill" to="#808080" begin="arrowRight.mouseover" end="arrowRight.mouseout"/>
                  </use>
                  <path fill="none" stroke="white" stroke-width="1.5" d="M0,-3.0v7 M-2.5,-0.5L0,-3.0L2.5,-0.5"/>
                </g>
                <g id="arrowDown" xlink:href="#dirArrow" transform="rotate(180) translate(-30 -48)" onmousedown="handlePan(0,1)">
                  <use xlink:href="#rim" fill="#404040">
                        <set attributeName="fill" to="#808080" begin="arrowDown.mouseover" end="arrowDown.mouseout"/>
                  </use>
                  <path fill="none" stroke="white" stroke-width="1.5" d="M0,-3.0v7 M-2.5,-0.5L0,-3.0L2.5,-0.5"/>
                </g>
                <g id="arrowLeft" xlink:href="#dirArrow" transform="rotate(270) translate(-36 17)" onmousedown="handlePan(-1,0)">
                  <use xlink:href="#rim" fill="#404040">
                        <set attributeName="fill" to="#808080" begin="arrowLeft.mouseover" end="arrowLeft.mouseout"/>
                  </use>
                  <path fill="none" stroke="white" stroke-width="1.5" d="M0,-3.0v7 M-2.5,-0.5L0,-3.0L2.5,-0.5"/>
                </g>
        </g>
        <svg viewBox="0 0 15 15" width="100%" height="30px" preserveAspectRatio="xMaxYMin meet">
         <g id="arrow_out" transform="scale(0.3 0.3)">
          <a xlink:href="prkx2su__lib_8h__incl_org.svg" target="_base">
           <rect id="button" ry="5" rx="5" y="6" x="6" height="38" width="38"
                fill="#f2f5e9" fill-opacity="0.5" stroke="#606060" stroke-width="1.0"/>
           <path id="arrow"
             d="M 11.500037,31.436501 C 11.940474,20.09759 22.043105,11.32322 32.158766,21.979434 L 37.068811,17.246167 C 37.068811,17.246167 37.088388,32 37.088388,32 L 22.160133,31.978069 C 22.160133,31.978069 26.997745,27.140456 26.997745,27.140456 C 18.528582,18.264221 13.291696,25.230495 11.500037,31.436501 z"
             style="fill:#404040;"/>
          </a>
         </g>
        </svg>
</svg>
