<?xml version="1.0" encoding="UTF-8" standalone="no"?>
<!DOCTYPE svg PUBLIC "-//W3C//DTD SVG 1.1//EN"
 "http://www.w3.org/Graphics/SVG/1.1/DTD/svg11.dtd">
<!-- Generated by graphviz version 2.38.0 (20140413.2041)
 -->
<!-- Title: prkx2su_lib.cpp Pages: 1 -->
<svg width="1802pt" height="543pt"
 viewBox="0.00 0.00 1802.00 543.00" xmlns="http://www.w3.org/2000/svg" xmlns:xlink="http://www.w3.org/1999/xlink">
<g id="graph0" class="graph" transform="scale(1 1) rotate(0) translate(4 539)">
<title>prkx2su_lib.cpp</title>
<polygon fill="white" stroke="none" points="-4,4 -4,-539 1798,-539 1798,4 -4,4"/>
<!-- Node1 -->
<g id="node1" class="node"><title>Node1</title>
<polygon fill="#bfbfbf" stroke="black" points="787.5,-515.5 787.5,-534.5 872.5,-534.5 872.5,-515.5 787.5,-515.5"/>
<text text-anchor="middle" x="830" y="-522.5" font-family="Helvetica,sans-Serif" font-size="10.00">prkx2su_lib.cpp</text>
</g>
<!-- Node2 -->
<g id="node2" class="node"><title>Node2</title>
<g id="a_node2"><a xlink:href="config_cosmos_8h.html" target="_top" xlink:title="Headers and definitions common to all COSMOS. ">
<polygon fill="white" stroke="black" points="666.5,-112.5 666.5,-131.5 789.5,-131.5 789.5,-112.5 666.5,-112.5"/>
<text text-anchor="middle" x="728" y="-119.5" font-family="Helvetica,sans-Serif" font-size="10.00">support/configCosmos.h</text>
</a>
</g>
</g>
<!-- Node1&#45;&gt;Node2 -->
<g id="edge1" class="edge"><title>Node1&#45;&gt;Node2</title>
<path fill="none" stroke="midnightblue" d="M843.468,-515.499C869.46,-497.926 924,-454.872 924,-403 924,-403 924,-403 924,-233 924,-174.012 855.652,-146.332 799.678,-133.555"/>
<polygon fill="midnightblue" stroke="midnightblue" points="800.26,-130.1 789.747,-131.411 798.783,-136.942 800.26,-130.1"/>
</g>
<!-- Node11 -->
<g id="node11" class="node"><title>Node11</title>
<polygon fill="white" stroke="#bfbfbf" points="1748,-56.5 1748,-75.5 1794,-75.5 1794,-56.5 1748,-56.5"/>
<text text-anchor="middle" x="1771" y="-63.5" font-family="Helvetica,sans-Serif" font-size="10.00">cstring</text>
</g>
<!-- Node1&#45;&gt;Node11 -->
<g id="edge78" class="edge"><title>Node1&#45;&gt;Node11</title>
<path fill="none" stroke="midnightblue" d="M872.63,-521.645C1031.22,-512.328 1578,-474.982 1578,-403 1578,-403 1578,-403 1578,-177 1578,-140.602 1682.92,-98.0781 1738.04,-78.2488"/>
<polygon fill="midnightblue" stroke="midnightblue" points="1739.46,-81.4583 1747.72,-74.8169 1737.12,-74.8609 1739.46,-81.4583"/>
</g>
<!-- Node12 -->
<g id="node12" class="node"><title>Node12</title>
<polygon fill="white" stroke="#bfbfbf" points="0,-56.5 0,-75.5 44,-75.5 44,-56.5 0,-56.5"/>
<text text-anchor="middle" x="22" y="-63.5" font-family="Helvetica,sans-Serif" font-size="10.00">cmath</text>
</g>
<!-- Node1&#45;&gt;Node12 -->
<g id="edge79" class="edge"><title>Node1&#45;&gt;Node12</title>
<path fill="none" stroke="midnightblue" d="M787.466,-522.157C621.024,-514.39 23,-481.051 23,-403 23,-403 23,-403 23,-177 23,-144.947 22.5702,-107.642 22.2741,-85.7484"/>
<polygon fill="midnightblue" stroke="midnightblue" points="25.7712,-85.5073 22.1307,-75.5575 18.7719,-85.6058 25.7712,-85.5073"/>
</g>
<!-- Node35 -->
<g id="node35" class="node"><title>Node35</title>
<g id="a_node35"><a xlink:href="prkx2su__lib_8h.html" target="_top" xlink:title="prkx2su controller includes ">
<polygon fill="white" stroke="black" points="653.5,-448.5 653.5,-478.5 770.5,-478.5 770.5,-448.5 653.5,-448.5"/>
<text text-anchor="start" x="661.5" y="-466.5" font-family="Helvetica,sans-Serif" font-size="10.00">device/general/prkx2su</text>
<text text-anchor="middle" x="712" y="-455.5" font-family="Helvetica,sans-Serif" font-size="10.00">_lib.h</text>
</a>
</g>
</g>
<!-- Node1&#45;&gt;Node35 -->
<g id="edge43" class="edge"><title>Node1&#45;&gt;Node35</title>
<path fill="none" stroke="midnightblue" d="M813.093,-515.475C796.44,-507.078 770.45,-493.973 748.993,-483.153"/>
<polygon fill="midnightblue" stroke="midnightblue" points="750.315,-479.9 739.81,-478.523 747.164,-486.151 750.315,-479.9"/>
</g>
<!-- Node3 -->
<g id="node3" class="node"><title>Node3</title>
<polygon fill="white" stroke="#bfbfbf" points="1554.5,-56.5 1554.5,-75.5 1599.5,-75.5 1599.5,-56.5 1554.5,-56.5"/>
<text text-anchor="middle" x="1577" y="-63.5" font-family="Helvetica,sans-Serif" font-size="10.00">climits</text>
</g>
<!-- Node2&#45;&gt;Node3 -->
<g id="edge2" class="edge"><title>Node2&#45;&gt;Node3</title>
<path fill="none" stroke="midnightblue" d="M789.807,-112.782C792.574,-112.5 795.315,-112.237 798,-112 1125.7,-83.0832 1215.1,-128.389 1544.11,-75.7028"/>
<polygon fill="midnightblue" stroke="midnightblue" points="1545.1,-79.0878 1554.42,-74.0335 1543.99,-72.1779 1545.1,-79.0878"/>
</g>
<!-- Node4 -->
<g id="node4" class="node"><title>Node4</title>
<polygon fill="white" stroke="#bfbfbf" points="1021.5,-56.5 1021.5,-75.5 1068.5,-75.5 1068.5,-56.5 1021.5,-56.5"/>
<text text-anchor="middle" x="1045" y="-63.5" font-family="Helvetica,sans-Serif" font-size="10.00">csignal</text>
</g>
<!-- Node2&#45;&gt;Node4 -->
<g id="edge3" class="edge"><title>Node2&#45;&gt;Node4</title>
<path fill="none" stroke="midnightblue" d="M786.721,-112.468C852.664,-102.759 956.594,-87.0451 1011.34,-75.8966"/>
<polygon fill="midnightblue" stroke="midnightblue" points="1012.22,-79.2872 1021.28,-73.8008 1010.78,-72.4376 1012.22,-79.2872"/>
</g>
<!-- Node5 -->
<g id="node5" class="node"><title>Node5</title>
<polygon fill="white" stroke="#bfbfbf" points="202,-56.5 202,-75.5 248,-75.5 248,-56.5 202,-56.5"/>
<text text-anchor="middle" x="225" y="-63.5" font-family="Helvetica,sans-Serif" font-size="10.00">cstdint</text>
</g>
<!-- Node2&#45;&gt;Node5 -->
<g id="edge4" class="edge"><title>Node2&#45;&gt;Node5</title>
<path fill="none" stroke="midnightblue" d="M666.195,-117.838C576.604,-112.621 405.655,-100.281 262,-76 260.753,-75.7893 259.486,-75.5598 258.209,-75.3156"/>
<polygon fill="midnightblue" stroke="midnightblue" points="258.894,-71.8829 248.384,-73.2202 257.434,-78.729 258.894,-71.8829"/>
</g>
<!-- Node6 -->
<g id="node6" class="node"><title>Node6</title>
<polygon fill="white" stroke="#bfbfbf" points="1087,-56.5 1087,-75.5 1143,-75.5 1143,-56.5 1087,-56.5"/>
<text text-anchor="middle" x="1115" y="-63.5" font-family="Helvetica,sans-Serif" font-size="10.00">cinttypes</text>
</g>
<!-- Node2&#45;&gt;Node6 -->
<g id="edge5" class="edge"><title>Node2&#45;&gt;Node6</title>
<path fill="none" stroke="midnightblue" d="M789.612,-113.076C889.336,-100.248 1075.24,-76.3207 1077,-76 1077.1,-75.9818 1077.2,-75.9634 1077.3,-75.945"/>
<polygon fill="midnightblue" stroke="midnightblue" points="1077.74,-79.4271 1086.85,-74.0131 1076.35,-72.5661 1077.74,-79.4271"/>
</g>
<!-- Node7 -->
<g id="node7" class="node"><title>Node7</title>
<polygon fill="white" stroke="#bfbfbf" points="1161.5,-56.5 1161.5,-75.5 1204.5,-75.5 1204.5,-56.5 1161.5,-56.5"/>
<text text-anchor="middle" x="1183" y="-63.5" font-family="Helvetica,sans-Serif" font-size="10.00">cstdio</text>
</g>
<!-- Node2&#45;&gt;Node7 -->
<g id="edge6" class="edge"><title>Node2&#45;&gt;Node7</title>
<path fill="none" stroke="midnightblue" d="M789.826,-112.961C792.587,-112.63 795.322,-112.308 798,-112 951.885,-94.2858 995.003,-105.68 1151.46,-75.736"/>
<polygon fill="midnightblue" stroke="midnightblue" points="1152.29,-79.1406 1161.44,-73.8001 1150.96,-72.2688 1152.29,-79.1406"/>
</g>
<!-- Node8 -->
<g id="node8" class="node"><title>Node8</title>
<polygon fill="white" stroke="#bfbfbf" points="1222.5,-56.5 1222.5,-75.5 1271.5,-75.5 1271.5,-56.5 1222.5,-56.5"/>
<text text-anchor="middle" x="1247" y="-63.5" font-family="Helvetica,sans-Serif" font-size="10.00">cstddef</text>
</g>
<!-- Node2&#45;&gt;Node8 -->
<g id="edge7" class="edge"><title>Node2&#45;&gt;Node8</title>
<path fill="none" stroke="midnightblue" d="M789.82,-112.911C792.583,-112.594 795.32,-112.288 798,-112 978.839,-92.5395 1028.87,-107.267 1212.25,-75.8182"/>
<polygon fill="midnightblue" stroke="midnightblue" points="1212.97,-79.2456 1222.23,-74.0853 1211.78,-72.3489 1212.97,-79.2456"/>
</g>
<!-- Node9 -->
<g id="node9" class="node"><title>Node9</title>
<polygon fill="white" stroke="#bfbfbf" points="1289.5,-56.5 1289.5,-75.5 1334.5,-75.5 1334.5,-56.5 1289.5,-56.5"/>
<text text-anchor="middle" x="1312" y="-63.5" font-family="Helvetica,sans-Serif" font-size="10.00">cstdlib</text>
</g>
<!-- Node2&#45;&gt;Node9 -->
<g id="edge8" class="edge"><title>Node2&#45;&gt;Node9</title>
<path fill="none" stroke="midnightblue" d="M789.816,-112.871C792.58,-112.564 795.318,-112.272 798,-112 1008.48,-90.6238 1066.69,-112.581 1279.48,-75.7003"/>
<polygon fill="midnightblue" stroke="midnightblue" points="1280.16,-79.1348 1289.4,-73.9578 1278.95,-72.2404 1280.16,-79.1348"/>
</g>
<!-- Node10 -->
<g id="node10" class="node"><title>Node10</title>
<polygon fill="white" stroke="#bfbfbf" points="1353,-56.5 1353,-75.5 1397,-75.5 1397,-56.5 1353,-56.5"/>
<text text-anchor="middle" x="1375" y="-63.5" font-family="Helvetica,sans-Serif" font-size="10.00">cerrno</text>
</g>
<!-- Node2&#45;&gt;Node10 -->
<g id="edge9" class="edge"><title>Node2&#45;&gt;Node10</title>
<path fill="none" stroke="midnightblue" d="M789.813,-112.842C792.578,-112.543 795.317,-112.261 798,-112 1036.31,-88.8319 1101.96,-116.313 1342.65,-75.6264"/>
<polygon fill="midnightblue" stroke="midnightblue" points="1343.49,-79.0328 1352.76,-73.8949 1342.31,-72.1332 1343.49,-79.0328"/>
</g>
<!-- Node2&#45;&gt;Node11 -->
<g id="edge10" class="edge"><title>Node2&#45;&gt;Node11</title>
<path fill="none" stroke="midnightblue" d="M789.805,-112.749C792.572,-112.475 795.314,-112.224 798,-112 1211.29,-77.5873 1322.96,-138.42 1737.54,-75.614"/>
<polygon fill="midnightblue" stroke="midnightblue" points="1738.35,-79.0314 1747.71,-74.0591 1737.29,-72.1119 1738.35,-79.0314"/>
</g>
<!-- Node2&#45;&gt;Node12 -->
<g id="edge11" class="edge"><title>Node2&#45;&gt;Node12</title>
<path fill="none" stroke="midnightblue" d="M666.04,-121.318C548.216,-120.958 283.854,-115.525 54.0938,-75.8055"/>
<polygon fill="midnightblue" stroke="midnightblue" points="54.6696,-72.3532 44.2152,-74.0727 53.4601,-79.2479 54.6696,-72.3532"/>
</g>
<!-- Node13 -->
<g id="node13" class="node"><title>Node13</title>
<polygon fill="white" stroke="#bfbfbf" points="1491.5,-56.5 1491.5,-75.5 1536.5,-75.5 1536.5,-56.5 1491.5,-56.5"/>
<text text-anchor="middle" x="1514" y="-63.5" font-family="Helvetica,sans-Serif" font-size="10.00">iosfwd</text>
</g>
<!-- Node2&#45;&gt;Node13 -->
<g id="edge12" class="edge"><title>Node2&#45;&gt;Node13</title>
<path fill="none" stroke="midnightblue" d="M789.809,-112.798C792.575,-112.511 795.315,-112.243 798,-112 1098.97,-84.7122 1178,-119.902 1477,-76 1478.47,-75.7839 1479.97,-75.5363 1481.48,-75.2643"/>
<polygon fill="midnightblue" stroke="midnightblue" points="1482.36,-78.6573 1491.43,-73.193 1480.93,-71.8041 1482.36,-78.6573"/>
</g>
<!-- Node14 -->
<g id="node14" class="node"><title>Node14</title>
<polygon fill="white" stroke="#bfbfbf" points="62,-56.5 62,-75.5 116,-75.5 116,-56.5 62,-56.5"/>
<text text-anchor="middle" x="89" y="-63.5" font-family="Helvetica,sans-Serif" font-size="10.00">iostream</text>
</g>
<!-- Node2&#45;&gt;Node14 -->
<g id="edge13" class="edge"><title>Node2&#45;&gt;Node14</title>
<path fill="none" stroke="midnightblue" d="M666.396,-119.862C558.592,-117.116 328.705,-107.903 125.963,-75.8732"/>
<polygon fill="midnightblue" stroke="midnightblue" points="126.452,-72.4071 116.024,-74.2811 125.345,-79.3189 126.452,-72.4071"/>
</g>
<!-- Node15 -->
<g id="node15" class="node"><title>Node15</title>
<polygon fill="white" stroke="#bfbfbf" points="1618,-56.5 1618,-75.5 1670,-75.5 1670,-56.5 1618,-56.5"/>
<text text-anchor="middle" x="1644" y="-63.5" font-family="Helvetica,sans-Serif" font-size="10.00">sstream</text>
</g>
<!-- Node2&#45;&gt;Node15 -->
<g id="edge14" class="edge"><title>Node2&#45;&gt;Node15</title>
<path fill="none" stroke="midnightblue" d="M789.806,-112.769C792.573,-112.49 795.314,-112.232 798,-112 1153.69,-81.2841 1249.64,-127.096 1607.65,-75.6722"/>
<polygon fill="midnightblue" stroke="midnightblue" points="1608.38,-79.1025 1617.78,-74.2019 1607.38,-72.1751 1608.38,-79.1025"/>
</g>
<!-- Node16 -->
<g id="node16" class="node"><title>Node16</title>
<polygon fill="white" stroke="#bfbfbf" points="1688.5,-56.5 1688.5,-75.5 1729.5,-75.5 1729.5,-56.5 1688.5,-56.5"/>
<text text-anchor="middle" x="1709" y="-63.5" font-family="Helvetica,sans-Serif" font-size="10.00">regex</text>
</g>
<!-- Node2&#45;&gt;Node16 -->
<g id="edge15" class="edge"><title>Node2&#45;&gt;Node16</title>
<path fill="none" stroke="midnightblue" d="M789.805,-112.757C792.573,-112.482 795.314,-112.227 798,-112 1185.15,-79.2641 1290.72,-139.762 1678.1,-75.6596"/>
<polygon fill="midnightblue" stroke="midnightblue" points="1678.89,-79.0756 1688.18,-73.9743 1677.74,-72.1715 1678.89,-79.0756"/>
</g>
<!-- Node17 -->
<g id="node17" class="node"><title>Node17</title>
<polygon fill="white" stroke="#bfbfbf" points="134,-56.5 134,-75.5 184,-75.5 184,-56.5 134,-56.5"/>
<text text-anchor="middle" x="159" y="-63.5" font-family="Helvetica,sans-Serif" font-size="10.00">iomanip</text>
</g>
<!-- Node2&#45;&gt;Node17 -->
<g id="edge16" class="edge"><title>Node2&#45;&gt;Node17</title>
<path fill="none" stroke="midnightblue" d="M666.174,-119.306C567.949,-115.846 370.196,-105.746 194.106,-75.8941"/>
<polygon fill="midnightblue" stroke="midnightblue" points="194.591,-72.4263 184.143,-74.1797 193.404,-79.3249 194.591,-72.4263"/>
</g>
<!-- Node18 -->
<g id="node18" class="node"><title>Node18</title>
<polygon fill="white" stroke="#bfbfbf" points="380.5,-56.5 380.5,-75.5 431.5,-75.5 431.5,-56.5 380.5,-56.5"/>
<text text-anchor="middle" x="406" y="-63.5" font-family="Helvetica,sans-Serif" font-size="10.00">unistd.h</text>
</g>
<!-- Node2&#45;&gt;Node18 -->
<g id="edge17" class="edge"><title>Node2&#45;&gt;Node18</title>
<path fill="none" stroke="midnightblue" d="M666.387,-113.086C610.281,-105.483 524.978,-92.9361 441.458,-75.9148"/>
<polygon fill="midnightblue" stroke="midnightblue" points="442.049,-72.463 431.548,-73.8719 440.636,-79.3188 442.049,-72.463"/>
</g>
<!-- Node19 -->
<g id="node19" class="node"><title>Node19</title>
<polygon fill="white" stroke="#bfbfbf" points="450,-56.5 450,-75.5 494,-75.5 494,-56.5 450,-56.5"/>
<text text-anchor="middle" x="472" y="-63.5" font-family="Helvetica,sans-Serif" font-size="10.00">fcntl.h</text>
</g>
<!-- Node2&#45;&gt;Node19 -->
<g id="edge18" class="edge"><title>Node2&#45;&gt;Node19</title>
<path fill="none" stroke="midnightblue" d="M679.017,-112.447C635.493,-104.568 569.957,-92.0232 504.385,-76.1827"/>
<polygon fill="midnightblue" stroke="midnightblue" points="504.835,-72.6897 494.29,-73.7174 503.174,-79.4898 504.835,-72.6897"/>
</g>
<!-- Node20 -->
<g id="node20" class="node"><title>Node20</title>
<polygon fill="white" stroke="#bfbfbf" points="512,-56.5 512,-75.5 552,-75.5 552,-56.5 512,-56.5"/>
<text text-anchor="middle" x="532" y="-63.5" font-family="Helvetica,sans-Serif" font-size="10.00">limits</text>
</g>
<!-- Node2&#45;&gt;Node20 -->
<g id="edge19" class="edge"><title>Node2&#45;&gt;Node20</title>
<path fill="none" stroke="midnightblue" d="M694.944,-112.486C663.157,-104.211 613.535,-91.069 561.911,-76.1896"/>
<polygon fill="midnightblue" stroke="midnightblue" points="562.831,-72.8123 552.252,-73.3919 560.884,-79.536 562.831,-72.8123"/>
</g>
<!-- Node21 -->
<g id="node21" class="node"><title>Node21</title>
<polygon fill="white" stroke="#bfbfbf" points="1373.5,-0.5 1373.5,-19.5 1414.5,-19.5 1414.5,-0.5 1373.5,-0.5"/>
<text text-anchor="middle" x="1394" y="-7.5" font-family="Helvetica,sans-Serif" font-size="10.00">string</text>
</g>
<!-- Node2&#45;&gt;Node21 -->
<g id="edge20" class="edge"><title>Node2&#45;&gt;Node21</title>
<path fill="none" stroke="midnightblue" d="M789.81,-112.813C792.576,-112.522 795.316,-112.249 798,-112 867.372,-105.554 1376.17,-126.659 1424,-76 1437.12,-62.0997 1423.65,-41.4381 1410.8,-27.1579"/>
<polygon fill="midnightblue" stroke="midnightblue" points="1412.97,-24.3642 1403.51,-19.5867 1407.92,-29.2186 1412.97,-24.3642"/>
</g>
<!-- Node22 -->
<g id="node22" class="node"><title>Node22</title>
<polygon fill="white" stroke="#bfbfbf" points="695,-0.5 695,-19.5 739,-19.5 739,-0.5 695,-0.5"/>
<text text-anchor="middle" x="717" y="-7.5" font-family="Helvetica,sans-Serif" font-size="10.00">vector</text>
</g>
<!-- Node2&#45;&gt;Node22 -->
<g id="edge21" class="edge"><title>Node2&#45;&gt;Node22</title>
<path fill="none" stroke="midnightblue" d="M726.132,-112.421C724.25,-103.402 721.424,-88.7755 720,-76 718.277,-60.5433 717.539,-42.9127 717.226,-29.9166"/>
<polygon fill="midnightblue" stroke="midnightblue" points="720.724,-29.7954 717.045,-19.8599 713.725,-29.9211 720.724,-29.7954"/>
</g>
<!-- Node23 -->
<g id="node23" class="node"><title>Node23</title>
<polygon fill="white" stroke="#bfbfbf" points="570.5,-56.5 570.5,-75.5 611.5,-75.5 611.5,-56.5 570.5,-56.5"/>
<text text-anchor="middle" x="591" y="-63.5" font-family="Helvetica,sans-Serif" font-size="10.00">stack</text>
</g>
<!-- Node2&#45;&gt;Node23 -->
<g id="edge22" class="edge"><title>Node2&#45;&gt;Node23</title>
<path fill="none" stroke="midnightblue" d="M706.292,-112.444C683.379,-103.412 647.086,-89.1067 621.346,-78.9612"/>
<polygon fill="midnightblue" stroke="midnightblue" points="622.297,-75.5738 611.71,-75.1629 619.73,-82.0862 622.297,-75.5738"/>
</g>
<!-- Node24 -->
<g id="node24" class="node"><title>Node24</title>
<polygon fill="white" stroke="#bfbfbf" points="629.5,-56.5 629.5,-75.5 672.5,-75.5 672.5,-56.5 629.5,-56.5"/>
<text text-anchor="middle" x="651" y="-63.5" font-family="Helvetica,sans-Serif" font-size="10.00">deque</text>
</g>
<!-- Node2&#45;&gt;Node24 -->
<g id="edge23" class="edge"><title>Node2&#45;&gt;Node24</title>
<path fill="none" stroke="midnightblue" d="M715.629,-112.324C703.842,-104.058 685.868,-91.4527 671.864,-81.6322"/>
<polygon fill="midnightblue" stroke="midnightblue" points="673.538,-78.5307 663.341,-75.6545 669.518,-84.2619 673.538,-78.5307"/>
</g>
<!-- Node25 -->
<g id="node25" class="node"><title>Node25</title>
<polygon fill="white" stroke="#bfbfbf" points="824,-0.5 824,-19.5 868,-19.5 868,-0.5 824,-0.5"/>
<text text-anchor="middle" x="846" y="-7.5" font-family="Helvetica,sans-Serif" font-size="10.00">mutex</text>
</g>
<!-- Node2&#45;&gt;Node25 -->
<g id="edge24" class="edge"><title>Node2&#45;&gt;Node25</title>
<path fill="none" stroke="midnightblue" d="M789.511,-114.247C813.717,-108.233 839.214,-96.9808 854,-76 863.499,-62.5209 859.667,-43.4524 854.561,-29.4537"/>
<polygon fill="midnightblue" stroke="midnightblue" points="857.669,-27.8116 850.607,-19.9136 851.202,-30.4917 857.669,-27.8116"/>
</g>
<!-- Node26 -->
<g id="node26" class="node"><title>Node26</title>
<polygon fill="white" stroke="#bfbfbf" points="1243,-0.5 1243,-19.5 1287,-19.5 1287,-0.5 1243,-0.5"/>
<text text-anchor="middle" x="1265" y="-7.5" font-family="Helvetica,sans-Serif" font-size="10.00">thread</text>
</g>
<!-- Node2&#45;&gt;Node26 -->
<g id="edge25" class="edge"><title>Node2&#45;&gt;Node26</title>
<path fill="none" stroke="midnightblue" d="M789.811,-112.819C792.577,-112.527 795.316,-112.252 798,-112 865.378,-105.681 1359.58,-125.247 1406,-76 1440.68,-39.2062 1348.84,-21.4343 1297.27,-14.5627"/>
<polygon fill="midnightblue" stroke="midnightblue" points="1297.59,-11.0766 1287.23,-13.2951 1296.72,-18.0213 1297.59,-11.0766"/>
</g>
<!-- Node27 -->
<g id="node27" class="node"><title>Node27</title>
<polygon fill="white" stroke="#bfbfbf" points="297.5,-0.5 297.5,-19.5 392.5,-19.5 392.5,-0.5 297.5,-0.5"/>
<text text-anchor="middle" x="345" y="-7.5" font-family="Helvetica,sans-Serif" font-size="10.00">condition_variable</text>
</g>
<!-- Node2&#45;&gt;Node27 -->
<g id="edge26" class="edge"><title>Node2&#45;&gt;Node27</title>
<path fill="none" stroke="midnightblue" d="M666.261,-121.925C572.774,-121.974 401.554,-116.348 358,-76 345.487,-64.4079 343.106,-44.4498 343.319,-29.6992"/>
<polygon fill="midnightblue" stroke="midnightblue" points="346.816,-29.8337 343.862,-19.6591 339.827,-29.4552 346.816,-29.8337"/>
</g>
<!-- Node28 -->
<g id="node28" class="node"><title>Node28</title>
<polygon fill="white" stroke="#bfbfbf" points="548.5,-0.5 548.5,-19.5 591.5,-19.5 591.5,-0.5 548.5,-0.5"/>
<text text-anchor="middle" x="570" y="-7.5" font-family="Helvetica,sans-Serif" font-size="10.00">queue</text>
</g>
<!-- Node2&#45;&gt;Node28 -->
<g id="edge27" class="edge"><title>Node2&#45;&gt;Node28</title>
<path fill="none" stroke="midnightblue" d="M666.439,-117.609C569.482,-111.633 390.187,-97.7576 371,-76 323.082,-21.6622 470.442,-12.5355 538.024,-11.1574"/>
<polygon fill="midnightblue" stroke="midnightblue" points="538.2,-14.6551 548.144,-10.997 538.089,-7.65598 538.2,-14.6551"/>
</g>
<!-- Node29 -->
<g id="node29" class="node"><title>Node29</title>
<polygon fill="white" stroke="#bfbfbf" points="891.5,-0.5 891.5,-19.5 926.5,-19.5 926.5,-0.5 891.5,-0.5"/>
<text text-anchor="middle" x="909" y="-7.5" font-family="Helvetica,sans-Serif" font-size="10.00">map</text>
</g>
<!-- Node2&#45;&gt;Node29 -->
<g id="edge28" class="edge"><title>Node2&#45;&gt;Node29</title>
<path fill="none" stroke="midnightblue" d="M787.285,-112.483C815.006,-106.114 847.093,-95.07 871,-76 886.295,-63.7998 896.694,-43.647 902.695,-29.0109"/>
<polygon fill="midnightblue" stroke="midnightblue" points="906.02,-30.1125 906.294,-19.5212 899.475,-27.6304 906.02,-30.1125"/>
</g>
<!-- Node30 -->
<g id="node30" class="node"><title>Node30</title>
<g id="a_node30"><a xlink:href="cosmos-defs_8h.html" target="_top" xlink:title="COSMOS definitions Definitions specific to the COSMOS environement. ">
<polygon fill="white" stroke="black" points="729,-56.5 729,-75.5 845,-75.5 845,-56.5 729,-56.5"/>
<text text-anchor="middle" x="787" y="-63.5" font-family="Helvetica,sans-Serif" font-size="10.00">support/cosmos&#45;defs.h</text>
</a>
</g>
</g>
<!-- Node2&#45;&gt;Node30 -->
<g id="edge29" class="edge"><title>Node2&#45;&gt;Node30</title>
<path fill="none" stroke="midnightblue" d="M737.479,-112.324C746.201,-104.341 759.343,-92.3128 769.898,-82.6529"/>
<polygon fill="midnightblue" stroke="midnightblue" points="772.334,-85.1674 777.348,-75.8339 767.608,-80.0036 772.334,-85.1674"/>
</g>
<!-- Node32 -->
<g id="node32" class="node"><title>Node32</title>
<g id="a_node32"><a xlink:href="json11_8hpp.html" target="_top" xlink:title="json11.hpp">
<polygon fill="white" stroke="black" points="939,-56.5 939,-75.5 1003,-75.5 1003,-56.5 939,-56.5"/>
<text text-anchor="middle" x="971" y="-63.5" font-family="Helvetica,sans-Serif" font-size="10.00">json11.hpp</text>
</a>
</g>
</g>
<!-- Node2&#45;&gt;Node32 -->
<g id="edge37" class="edge"><title>Node2&#45;&gt;Node32</title>
<path fill="none" stroke="midnightblue" d="M766.504,-112.444C810.797,-102.601 883.277,-86.494 928.994,-76.3346"/>
<polygon fill="midnightblue" stroke="midnightblue" points="929.882,-79.7229 938.884,-74.1368 928.363,-72.8895 929.882,-79.7229"/>
</g>
<!-- Node30&#45;&gt;Node22 -->
<g id="edge31" class="edge"><title>Node30&#45;&gt;Node22</title>
<path fill="none" stroke="midnightblue" d="M775.753,-56.324C765.203,-48.1849 749.199,-35.8395 736.558,-26.0874"/>
<polygon fill="midnightblue" stroke="midnightblue" points="738.507,-23.1707 728.451,-19.8339 734.231,-28.7132 738.507,-23.1707"/>
</g>
<!-- Node30&#45;&gt;Node25 -->
<g id="edge35" class="edge"><title>Node30&#45;&gt;Node25</title>
<path fill="none" stroke="midnightblue" d="M796.479,-56.324C805.201,-48.3414 818.343,-36.3128 828.898,-26.6529"/>
<polygon fill="midnightblue" stroke="midnightblue" points="831.334,-29.1674 836.348,-19.8339 826.608,-24.0036 831.334,-29.1674"/>
</g>
<!-- Node30&#45;&gt;Node26 -->
<g id="edge34" class="edge"><title>Node30&#45;&gt;Node26</title>
<path fill="none" stroke="midnightblue" d="M845.134,-58.4325C946.601,-46.9697 1152.81,-23.6743 1232.53,-14.6686"/>
<polygon fill="midnightblue" stroke="midnightblue" points="1233.37,-18.096 1242.91,-13.4955 1232.58,-11.1402 1233.37,-18.096"/>
</g>
<!-- Node30&#45;&gt;Node27 -->
<g id="edge36" class="edge"><title>Node30&#45;&gt;Node27</title>
<path fill="none" stroke="midnightblue" d="M728.762,-57.8849C643.838,-47.5096 486.963,-28.3439 402.474,-18.0217"/>
<polygon fill="midnightblue" stroke="midnightblue" points="402.889,-14.5465 392.539,-16.8079 402.04,-21.4948 402.889,-14.5465"/>
</g>
<!-- Node30&#45;&gt;Node28 -->
<g id="edge33" class="edge"><title>Node30&#45;&gt;Node28</title>
<path fill="none" stroke="midnightblue" d="M752.616,-56.4435C711.059,-46.1023 641.716,-28.8465 601.499,-18.8384"/>
<polygon fill="midnightblue" stroke="midnightblue" points="602.245,-15.4174 591.695,-16.3989 600.554,-22.2102 602.245,-15.4174"/>
</g>
<!-- Node30&#45;&gt;Node29 -->
<g id="edge30" class="edge"><title>Node30&#45;&gt;Node29</title>
<path fill="none" stroke="midnightblue" d="M806.331,-56.4435C826.79,-47.3879 859.228,-33.0302 882.16,-22.8799"/>
<polygon fill="midnightblue" stroke="midnightblue" points="883.616,-26.0631 891.344,-18.8151 880.783,-19.6621 883.616,-26.0631"/>
</g>
<!-- Node31 -->
<g id="node31" class="node"><title>Node31</title>
<polygon fill="white" stroke="#bfbfbf" points="772.5,-0.5 772.5,-19.5 801.5,-19.5 801.5,-0.5 772.5,-0.5"/>
<text text-anchor="middle" x="787" y="-7.5" font-family="Helvetica,sans-Serif" font-size="10.00">list</text>
</g>
<!-- Node30&#45;&gt;Node31 -->
<g id="edge32" class="edge"><title>Node30&#45;&gt;Node31</title>
<path fill="none" stroke="midnightblue" d="M787,-56.083C787,-49.0059 787,-38.8611 787,-29.9865"/>
<polygon fill="midnightblue" stroke="midnightblue" points="790.5,-29.751 787,-19.7511 783.5,-29.7511 790.5,-29.751"/>
</g>
<!-- Node32&#45;&gt;Node21 -->
<g id="edge38" class="edge"><title>Node32&#45;&gt;Node21</title>
<path fill="none" stroke="midnightblue" d="M1003.17,-57.6234C1006.15,-57.0358 1009.13,-56.4836 1012,-56 1079.61,-44.6255 1284.53,-22.5458 1362.99,-14.2527"/>
<polygon fill="midnightblue" stroke="midnightblue" points="1363.61,-17.7062 1373.19,-13.1766 1362.88,-10.7449 1363.61,-17.7062"/>
</g>
<!-- Node32&#45;&gt;Node22 -->
<g id="edge39" class="edge"><title>Node32&#45;&gt;Node22</title>
<path fill="none" stroke="midnightblue" d="M938.831,-58.1609C890.079,-47.7963 798.013,-28.2231 749.227,-17.8514"/>
<polygon fill="midnightblue" stroke="midnightblue" points="749.73,-14.3803 739.221,-15.7242 748.275,-21.2272 749.73,-14.3803"/>
</g>
<!-- Node32&#45;&gt;Node29 -->
<g id="edge40" class="edge"><title>Node32&#45;&gt;Node29</title>
<path fill="none" stroke="midnightblue" d="M961.039,-56.324C951.873,-48.3414 938.063,-36.3128 926.972,-26.6529"/>
<polygon fill="midnightblue" stroke="midnightblue" points="928.982,-23.7624 919.143,-19.8339 924.385,-29.041 928.982,-23.7624"/>
</g>
<!-- Node33 -->
<g id="node33" class="node"><title>Node33</title>
<polygon fill="white" stroke="#bfbfbf" points="945,-0.5 945,-19.5 997,-19.5 997,-0.5 945,-0.5"/>
<text text-anchor="middle" x="971" y="-7.5" font-family="Helvetica,sans-Serif" font-size="10.00">memory</text>
</g>
<!-- Node32&#45;&gt;Node33 -->
<g id="edge41" class="edge"><title>Node32&#45;&gt;Node33</title>
<path fill="none" stroke="midnightblue" d="M971,-56.083C971,-49.0059 971,-38.8611 971,-29.9865"/>
<polygon fill="midnightblue" stroke="midnightblue" points="974.5,-29.751 971,-19.7511 967.5,-29.7511 974.5,-29.751"/>
</g>
<!-- Node34 -->
<g id="node34" class="node"><title>Node34</title>
<polygon fill="white" stroke="#bfbfbf" points="1015.5,-0.5 1015.5,-19.5 1088.5,-19.5 1088.5,-0.5 1015.5,-0.5"/>
<text text-anchor="middle" x="1052" y="-7.5" font-family="Helvetica,sans-Serif" font-size="10.00">initializer_list</text>
</g>
<!-- Node32&#45;&gt;Node34 -->
<g id="edge42" class="edge"><title>Node32&#45;&gt;Node34</title>
<path fill="none" stroke="midnightblue" d="M984.014,-56.324C996.532,-47.979 1015.68,-35.2122 1030.47,-25.3524"/>
<polygon fill="midnightblue" stroke="midnightblue" points="1032.64,-28.1137 1039.02,-19.6545 1028.76,-22.2894 1032.64,-28.1137"/>
</g>
<!-- Node35&#45;&gt;Node2 -->
<g id="edge44" class="edge"><title>Node35&#45;&gt;Node2</title>
<path fill="none" stroke="midnightblue" d="M688.121,-448.41C675.752,-439.662 661.837,-427.191 655,-412 651.352,-403.894 654.526,-400.876 655,-392 660.341,-292.017 633.893,-257.389 679,-168 685.037,-156.037 695.665,-145.675 705.484,-137.92"/>
<polygon fill="midnightblue" stroke="midnightblue" points="707.804,-140.557 713.769,-131.801 703.645,-134.927 707.804,-140.557"/>
</g>
<!-- Node36 -->
<g id="node36" class="node"><title>Node36</title>
<g id="a_node36"><a xlink:href="mathlib_8h.html" target="_top" xlink:title="mathlib include file ">
<polygon fill="white" stroke="black" points="386.5,-392.5 386.5,-411.5 467.5,-411.5 467.5,-392.5 386.5,-392.5"/>
<text text-anchor="middle" x="427" y="-399.5" font-family="Helvetica,sans-Serif" font-size="10.00">math/mathlib.h</text>
</a>
</g>
</g>
<!-- Node35&#45;&gt;Node36 -->
<g id="edge45" class="edge"><title>Node35&#45;&gt;Node36</title>
<path fill="none" stroke="midnightblue" d="M653.293,-450.244C601.462,-439.423 526.69,-423.813 477.488,-413.54"/>
<polygon fill="midnightblue" stroke="midnightblue" points="478.203,-410.114 467.699,-411.497 476.772,-416.967 478.203,-410.114"/>
</g>
<!-- Node37 -->
<g id="node37" class="node"><title>Node37</title>
<g id="a_node37"><a xlink:href="cosmos-errno_8h.html" target="_top" xlink:title="COSMOS Error Codes. ">
<polygon fill="white" stroke="black" points="694.5,-168.5 694.5,-187.5 813.5,-187.5 813.5,-168.5 694.5,-168.5"/>
<text text-anchor="middle" x="754" y="-175.5" font-family="Helvetica,sans-Serif" font-size="10.00">support/cosmos&#45;errno.h</text>
</a>
</g>
</g>
<!-- Node35&#45;&gt;Node37 -->
<g id="edge69" class="edge"><title>Node35&#45;&gt;Node37</title>
<path fill="none" stroke="midnightblue" d="M717.387,-448.148C725.003,-426.536 738,-384.202 738,-347 738,-347 738,-347 738,-289 738,-256.626 744.871,-219.445 749.607,-197.659"/>
<polygon fill="midnightblue" stroke="midnightblue" points="753.05,-198.303 751.842,-187.777 746.223,-196.759 753.05,-198.303"/>
</g>
<!-- Node43 -->
<g id="node43" class="node"><title>Node43</title>
<g id="a_node43"><a xlink:href="serialclass_8h.html" target="_top" xlink:title="device/serial/serialclass.h">
<polygon fill="white" stroke="black" points="766.5,-280.5 766.5,-299.5 895.5,-299.5 895.5,-280.5 766.5,-280.5"/>
<text text-anchor="middle" x="831" y="-287.5" font-family="Helvetica,sans-Serif" font-size="10.00">device/serial/serialclass.h</text>
</a>
</g>
</g>
<!-- Node35&#45;&gt;Node43 -->
<g id="edge70" class="edge"><title>Node35&#45;&gt;Node43</title>
<path fill="none" stroke="midnightblue" d="M723.912,-448.186C732.061,-438.221 742.98,-424.525 752,-412 777.901,-376.036 805.675,-332.087 820.403,-308.299"/>
<polygon fill="midnightblue" stroke="midnightblue" points="823.442,-310.039 825.708,-299.689 817.483,-306.367 823.442,-310.039"/>
</g>
<!-- Node45 -->
<g id="node45" class="node"><title>Node45</title>
<polygon fill="white" stroke="#bfbfbf" points="664,-392.5 664,-411.5 710,-411.5 710,-392.5 664,-392.5"/>
<text text-anchor="middle" x="687" y="-399.5" font-family="Helvetica,sans-Serif" font-size="10.00">stdio.h</text>
</g>
<!-- Node35&#45;&gt;Node45 -->
<g id="edge77" class="edge"><title>Node35&#45;&gt;Node45</title>
<path fill="none" stroke="midnightblue" d="M706.075,-448.399C702.63,-440.199 698.252,-429.781 694.56,-420.994"/>
<polygon fill="midnightblue" stroke="midnightblue" points="697.738,-419.521 690.638,-411.658 691.285,-422.233 697.738,-419.521"/>
</g>
<!-- Node36&#45;&gt;Node2 -->
<g id="edge46" class="edge"><title>Node36&#45;&gt;Node2</title>
<path fill="none" stroke="midnightblue" d="M453.915,-392.41C492.778,-378.126 560,-345.535 560,-291 560,-291 560,-291 560,-233 560,-177.227 625.607,-148.204 674.824,-134.278"/>
<polygon fill="midnightblue" stroke="midnightblue" points="675.989,-137.589 684.736,-131.611 674.17,-130.83 675.989,-137.589"/>
</g>
<!-- Node36&#45;&gt;Node12 -->
<g id="edge67" class="edge"><title>Node36&#45;&gt;Node12</title>
<path fill="none" stroke="midnightblue" d="M386.234,-400.211C332.162,-397.836 234.734,-388.88 159,-356 115.376,-337.06 74,-338.558 74,-291 74,-291 74,-291 74,-177 74,-141.119 51.106,-104.424 35.6996,-83.7932"/>
<polygon fill="midnightblue" stroke="midnightblue" points="38.3475,-81.4965 29.4503,-75.7441 32.8183,-85.7894 38.3475,-81.4965"/>
</g>
<!-- Node36&#45;&gt;Node14 -->
<g id="edge68" class="edge"><title>Node36&#45;&gt;Node14</title>
<path fill="none" stroke="midnightblue" d="M386.286,-395.251C302.379,-382.259 118,-347.303 118,-291 118,-291 118,-291 118,-177 118,-143.716 105.432,-106.584 96.8436,-85.0939"/>
<polygon fill="midnightblue" stroke="midnightblue" points="99.982,-83.5254 92.9111,-75.6354 93.5184,-86.2128 99.982,-83.5254"/>
</g>
<!-- Node36&#45;&gt;Node37 -->
<g id="edge47" class="edge"><title>Node36&#45;&gt;Node37</title>
<path fill="none" stroke="midnightblue" d="M467.508,-394.055C498.299,-387.524 540.862,-375.73 574,-356 647.977,-311.954 714.412,-231.281 741.319,-196.129"/>
<polygon fill="midnightblue" stroke="midnightblue" points="744.333,-197.946 747.562,-187.855 738.745,-193.729 744.333,-197.946"/>
</g>
<!-- Node39 -->
<g id="node39" class="node"><title>Node39</title>
<g id="a_node39"><a xlink:href="math_2constants_8h.html" target="_top" xlink:title="constants.h">
<polygon fill="white" stroke="black" points="342,-168.5 342,-187.5 410,-187.5 410,-168.5 342,-168.5"/>
<text text-anchor="middle" x="376" y="-175.5" font-family="Helvetica,sans-Serif" font-size="10.00">constants.h</text>
</a>
</g>
</g>
<!-- Node36&#45;&gt;Node39 -->
<g id="edge50" class="edge"><title>Node36&#45;&gt;Node39</title>
<path fill="none" stroke="midnightblue" d="M423.816,-392.476C417.485,-375.24 403.222,-334.913 395,-300 386.58,-264.247 380.872,-221.654 378.05,-197.728"/>
<polygon fill="midnightblue" stroke="midnightblue" points="381.505,-197.135 376.897,-187.595 374.55,-197.926 381.505,-197.135"/>
</g>
<!-- Node40 -->
<g id="node40" class="node"><title>Node40</title>
<g id="a_node40"><a xlink:href="vector_8h.html" target="_top" xlink:title="vector.h">
<polygon fill="white" stroke="black" points="296,-224.5 296,-243.5 348,-243.5 348,-224.5 296,-224.5"/>
<text text-anchor="middle" x="322" y="-231.5" font-family="Helvetica,sans-Serif" font-size="10.00">vector.h</text>
</a>
</g>
</g>
<!-- Node36&#45;&gt;Node40 -->
<g id="edge53" class="edge"><title>Node36&#45;&gt;Node40</title>
<path fill="none" stroke="midnightblue" d="M408.552,-392.415C393.991,-384.764 374.168,-372.266 362,-356 338.669,-324.812 328.511,-279.3 324.441,-253.912"/>
<polygon fill="midnightblue" stroke="midnightblue" points="327.872,-253.182 322.974,-243.787 320.944,-254.185 327.872,-253.182"/>
</g>
<!-- Node41 -->
<g id="node41" class="node"><title>Node41</title>
<g id="a_node41"><a xlink:href="matrix_8h.html" target="_top" xlink:title="matrix.h">
<polygon fill="white" stroke="black" points="404,-280.5 404,-299.5 456,-299.5 456,-280.5 404,-280.5"/>
<text text-anchor="middle" x="430" y="-287.5" font-family="Helvetica,sans-Serif" font-size="10.00">matrix.h</text>
</a>
</g>
</g>
<!-- Node36&#45;&gt;Node41 -->
<g id="edge60" class="edge"><title>Node36&#45;&gt;Node41</title>
<path fill="none" stroke="midnightblue" d="M427.235,-392.368C427.72,-374.617 428.836,-333.666 429.493,-309.597"/>
<polygon fill="midnightblue" stroke="midnightblue" points="432.992,-309.683 429.766,-299.591 425.994,-309.492 432.992,-309.683"/>
</g>
<!-- Node42 -->
<g id="node42" class="node"><title>Node42</title>
<g id="a_node42"><a xlink:href="rotation_8h.html" target="_top" xlink:title="rotation.h">
<polygon fill="white" stroke="black" points="455.5,-336.5 455.5,-355.5 512.5,-355.5 512.5,-336.5 455.5,-336.5"/>
<text text-anchor="middle" x="484" y="-343.5" font-family="Helvetica,sans-Serif" font-size="10.00">rotation.h</text>
</a>
</g>
</g>
<!-- Node36&#45;&gt;Node42 -->
<g id="edge63" class="edge"><title>Node36&#45;&gt;Node42</title>
<path fill="none" stroke="midnightblue" d="M436.158,-392.324C444.501,-384.42 457.032,-372.548 467.177,-362.938"/>
<polygon fill="midnightblue" stroke="midnightblue" points="469.823,-365.252 474.675,-355.834 465.009,-360.171 469.823,-365.252"/>
</g>
<!-- Node37&#45;&gt;Node2 -->
<g id="edge48" class="edge"><title>Node37&#45;&gt;Node2</title>
<path fill="none" stroke="midnightblue" d="M749.707,-168.083C746.148,-160.691 740.978,-149.953 736.576,-140.811"/>
<polygon fill="midnightblue" stroke="midnightblue" points="739.705,-139.243 732.213,-131.751 733.398,-142.279 739.705,-139.243"/>
</g>
<!-- Node38 -->
<g id="node38" class="node"><title>Node38</title>
<polygon fill="white" stroke="#bfbfbf" points="807.5,-112.5 807.5,-131.5 854.5,-131.5 854.5,-112.5 807.5,-112.5"/>
<text text-anchor="middle" x="831" y="-119.5" font-family="Helvetica,sans-Serif" font-size="10.00">errno.h</text>
</g>
<!-- Node37&#45;&gt;Node38 -->
<g id="edge49" class="edge"><title>Node37&#45;&gt;Node38</title>
<path fill="none" stroke="midnightblue" d="M766.371,-168.324C778.158,-160.058 796.132,-147.453 810.136,-137.632"/>
<polygon fill="midnightblue" stroke="midnightblue" points="812.482,-140.262 818.659,-131.655 808.462,-134.531 812.482,-140.262"/>
</g>
<!-- Node39&#45;&gt;Node2 -->
<g id="edge51" class="edge"><title>Node39&#45;&gt;Node2</title>
<path fill="none" stroke="midnightblue" d="M410.135,-170.714C415.441,-169.778 420.865,-168.845 426,-168 505.03,-155.002 595.968,-141.672 657.231,-132.93"/>
<polygon fill="midnightblue" stroke="midnightblue" points="657.773,-136.388 667.179,-131.513 656.786,-129.458 657.773,-136.388"/>
</g>
<!-- Node39&#45;&gt;Node5 -->
<g id="edge52" class="edge"><title>Node39&#45;&gt;Node5</title>
<path fill="none" stroke="midnightblue" d="M364.151,-168.368C338.35,-149.573 276.846,-104.768 244.95,-81.5334"/>
<polygon fill="midnightblue" stroke="midnightblue" points="246.937,-78.6506 236.794,-75.5914 242.816,-84.3085 246.937,-78.6506"/>
</g>
<!-- Node40&#45;&gt;Node2 -->
<g id="edge54" class="edge"><title>Node40&#45;&gt;Node2</title>
<path fill="none" stroke="midnightblue" d="M340.435,-224.486C376.721,-207.772 455.026,-171.944 468,-168 530.278,-149.068 603.522,-137.288 656.372,-130.554"/>
<polygon fill="midnightblue" stroke="midnightblue" points="656.837,-134.024 666.328,-129.315 655.972,-127.077 656.837,-134.024"/>
</g>
<!-- Node40&#45;&gt;Node12 -->
<g id="edge58" class="edge"><title>Node40&#45;&gt;Node12</title>
<path fill="none" stroke="midnightblue" d="M305.106,-224.366C287.702,-215.423 259.83,-200.967 236,-188 166.36,-150.105 85.1089,-103.496 45.7637,-80.771"/>
<polygon fill="midnightblue" stroke="midnightblue" points="47.1052,-77.5037 36.6962,-75.528 43.6012,-83.5636 47.1052,-77.5037"/>
</g>
<!-- Node40&#45;&gt;Node14 -->
<g id="edge56" class="edge"><title>Node40&#45;&gt;Node14</title>
<path fill="none" stroke="midnightblue" d="M310.113,-224.205C298.102,-215.255 279.073,-200.903 263,-188 222.174,-155.226 216.312,-141.411 173,-112 155.152,-99.8798 133.69,-88.4307 116.928,-80.1141"/>
<polygon fill="midnightblue" stroke="midnightblue" points="118.187,-76.8341 107.665,-75.5979 115.12,-83.1262 118.187,-76.8341"/>
</g>
<!-- Node40&#45;&gt;Node17 -->
<g id="edge57" class="edge"><title>Node40&#45;&gt;Node17</title>
<path fill="none" stroke="midnightblue" d="M314.78,-224.476C297.536,-204.264 252.304,-152.124 211,-112 200.296,-101.601 187.647,-90.6288 177.505,-82.122"/>
<polygon fill="midnightblue" stroke="midnightblue" points="179.603,-79.3153 169.673,-75.623 175.133,-84.7023 179.603,-79.3153"/>
</g>
<!-- Node40&#45;&gt;Node22 -->
<g id="edge59" class="edge"><title>Node40&#45;&gt;Node22</title>
<path fill="none" stroke="midnightblue" d="M321.288,-224.178C319.455,-194.763 317.977,-99.4518 371,-56 395.073,-36.2722 603.498,-19.2167 684.756,-13.2577"/>
<polygon fill="midnightblue" stroke="midnightblue" points="685.183,-16.7361 694.904,-12.523 684.677,-9.75438 685.183,-16.7361"/>
</g>
<!-- Node40&#45;&gt;Node39 -->
<g id="edge55" class="edge"><title>Node40&#45;&gt;Node39</title>
<path fill="none" stroke="midnightblue" d="M330.917,-224.083C338.78,-216.22 350.431,-204.569 359.919,-195.081"/>
<polygon fill="midnightblue" stroke="midnightblue" points="362.653,-197.297 367.249,-187.751 357.703,-192.347 362.653,-197.297"/>
</g>
<!-- Node41&#45;&gt;Node2 -->
<g id="edge61" class="edge"><title>Node41&#45;&gt;Node2</title>
<path fill="none" stroke="midnightblue" d="M432.901,-280.283C440.894,-257.706 465.506,-197.071 508,-168 551.375,-138.326 610.072,-127.426 655.928,-123.756"/>
<polygon fill="midnightblue" stroke="midnightblue" points="656.369,-127.233 666.099,-123.042 655.879,-120.251 656.369,-127.233"/>
</g>
<!-- Node41&#45;&gt;Node40 -->
<g id="edge62" class="edge"><title>Node41&#45;&gt;Node40</title>
<path fill="none" stroke="midnightblue" d="M412.648,-280.324C395.328,-271.664 368.485,-258.242 348.498,-248.249"/>
<polygon fill="midnightblue" stroke="midnightblue" points="349.819,-244.996 339.309,-243.655 346.688,-251.257 349.819,-244.996"/>
</g>
<!-- Node42&#45;&gt;Node2 -->
<g id="edge64" class="edge"><title>Node42&#45;&gt;Node2</title>
<path fill="none" stroke="midnightblue" d="M484.277,-336.459C485.682,-307.933 494.216,-215.106 546,-168 575.711,-140.973 619.066,-129.546 656.009,-124.959"/>
<polygon fill="midnightblue" stroke="midnightblue" points="656.682,-128.406 666.242,-123.839 655.921,-121.448 656.682,-128.406"/>
</g>
<!-- Node42&#45;&gt;Node40 -->
<g id="edge65" class="edge"><title>Node42&#45;&gt;Node40</title>
<path fill="none" stroke="midnightblue" d="M483.929,-336.134C483.331,-322.271 480.139,-295.453 465,-280 436.935,-251.354 390.85,-240.89 358.604,-237.097"/>
<polygon fill="midnightblue" stroke="midnightblue" points="358.546,-233.574 348.245,-236.05 357.842,-240.538 358.546,-233.574"/>
</g>
<!-- Node42&#45;&gt;Node41 -->
<g id="edge66" class="edge"><title>Node42&#45;&gt;Node41</title>
<path fill="none" stroke="midnightblue" d="M475.083,-336.083C467.22,-328.22 455.569,-316.569 446.081,-307.081"/>
<polygon fill="midnightblue" stroke="midnightblue" points="448.297,-304.347 438.751,-299.751 443.347,-309.297 448.297,-304.347"/>
</g>
<!-- Node43&#45;&gt;Node2 -->
<g id="edge71" class="edge"><title>Node43&#45;&gt;Node2</title>
<path fill="none" stroke="midnightblue" d="M806.56,-280.46C772.131,-266.941 710.685,-237 685,-188 675.619,-170.103 691.817,-150.966 706.943,-138.127"/>
<polygon fill="midnightblue" stroke="midnightblue" points="709.402,-140.643 715.066,-131.69 705.055,-135.157 709.402,-140.643"/>
</g>
<!-- Node43&#45;&gt;Node37 -->
<g id="edge76" class="edge"><title>Node43&#45;&gt;Node37</title>
<path fill="none" stroke="midnightblue" d="M823.526,-280.263C816.026,-271.358 804.285,-257.04 795,-244 783.791,-228.257 772.141,-209.521 764.137,-196.218"/>
<polygon fill="midnightblue" stroke="midnightblue" points="767.136,-194.413 759.012,-187.612 761.122,-197.995 767.136,-194.413"/>
</g>
<!-- Node44 -->
<g id="node44" class="node"><title>Node44</title>
<g id="a_node44"><a xlink:href="sliplib_8h.html" target="_top" xlink:title="COSMOS SLIP support include file. ">
<polygon fill="white" stroke="black" points="804.5,-224.5 804.5,-243.5 889.5,-243.5 889.5,-224.5 804.5,-224.5"/>
<text text-anchor="middle" x="847" y="-231.5" font-family="Helvetica,sans-Serif" font-size="10.00">support/sliplib.h</text>
</a>
</g>
</g>
<!-- Node43&#45;&gt;Node44 -->
<g id="edge72" class="edge"><title>Node43&#45;&gt;Node44</title>
<path fill="none" stroke="midnightblue" d="M833.642,-280.083C835.786,-272.849 838.879,-262.409 841.549,-253.397"/>
<polygon fill="midnightblue" stroke="midnightblue" points="844.922,-254.333 844.407,-243.751 838.21,-252.345 844.922,-254.333"/>
</g>
<!-- Node44&#45;&gt;Node2 -->
<g id="edge73" class="edge"><title>Node44&#45;&gt;Node2</title>
<path fill="none" stroke="midnightblue" d="M845.762,-224.345C843.406,-210.772 837.095,-184.342 822,-168 807.952,-152.791 787.68,-142.187 769.556,-135.111"/>
<polygon fill="midnightblue" stroke="midnightblue" points="770.635,-131.778 760.041,-131.631 768.23,-138.353 770.635,-131.778"/>
</g>
<!-- Node44&#45;&gt;Node11 -->
<g id="edge75" class="edge"><title>Node44&#45;&gt;Node11</title>
<path fill="none" stroke="midnightblue" d="M889.553,-226.036C1043.5,-200.758 1571.12,-113.375 1738,-76 1738.1,-75.9773 1738.2,-75.9545 1738.3,-75.9315"/>
<polygon fill="midnightblue" stroke="midnightblue" points="1739.1,-79.3391 1747.99,-73.5656 1737.44,-72.5391 1739.1,-79.3391"/>
</g>
<!-- Node44&#45;&gt;Node37 -->
<g id="edge74" class="edge"><title>Node44&#45;&gt;Node37</title>
<path fill="none" stroke="midnightblue" d="M832.058,-224.324C817.415,-215.822 794.866,-202.729 777.762,-192.797"/>
<polygon fill="midnightblue" stroke="midnightblue" points="779.31,-189.649 768.905,-187.655 775.795,-195.703 779.31,-189.649"/>
</g>
</g>
</svg>
