<?xml version="1.0" encoding="UTF-8" standalone="no"?>
<!DOCTYPE svg PUBLIC "-//W3C//DTD SVG 1.1//EN"
 "http://www.w3.org/Graphics/SVG/1.1/DTD/svg11.dtd">
<!-- Generated by graphviz version 2.38.0 (20140413.2041)
 -->
<!-- Title: rotation.cpp Pages: 1 -->
<!--zoomable 420 -->
<svg id="main" version="1.1" xmlns="http://www.w3.org/2000/svg" xmlns:xlink="http://www.w3.org/1999/xlink" xml:space="preserve" onload="init(evt)">
<style type="text/css"><![CDATA[
.edge:hover path { stroke: red; }
.edge:hover polygon { stroke: red; fill: red; }
]]></style>
<script type="text/javascript"><![CDATA[
var edges = document.getElementsByTagName('g');
if (edges && edges.length) {
  for (var i=0;i<edges.length;i++) {
    if (edges[i].id.substr(0,4)=='edge') {
      edges[i].setAttribute('class','edge');
    }
  }
}
]]></script>
        <defs>
                <circle id="rim" cx="0" cy="0" r="7"/>
                <circle id="rim2" cx="0" cy="0" r="3.5"/>
                <g id="zoomPlus">
                        <use xlink:href="#rim" fill="#404040">
                                <set attributeName="fill" to="#808080" begin="zoomplus.mouseover" end="zoomplus.mouseout"/>
                        </use>
                        <path d="M-4,0h8M0,-4v8" fill="none" stroke="white" stroke-width="1.5" pointer-events="none"/>
                </g>
                <g id="zoomMin">
                        <use xlink:href="#rim" fill="#404040">
                                <set attributeName="fill" to="#808080" begin="zoomminus.mouseover" end="zoomminus.mouseout"/>
                        </use>
                        <path d="M-4,0h8" fill="none" stroke="white" stroke-width="1.5" pointer-events="none"/>
                </g>
                <g id="dirArrow">
                        <path fill="none" stroke="white" stroke-width="1.5" d="M0,-3.0v7 M-2.5,-0.5L0,-3.0L2.5,-0.5"/>
                </g>
               <g id="resetDef">
                       <use xlink:href="#rim2" fill="#404040">
                               <set attributeName="fill" to="#808080" begin="reset.mouseover" end="reset.mouseout"/>
                       </use>
               </g>
        </defs>

<script type="text/javascript">
var viewWidth = 1776;
var viewHeight = 420;
var sectionId = 'dynsection-0';
</script>
<script xlink:href="svgpan.js"/>
<svg id="graph" class="graph">
<g id="viewport">
<title>rotation.cpp</title>
<polygon fill="white" stroke="none" points="-4,4 -4,-416 1771.93,-416 1771.93,4 -4,4"/>
<!-- Node1 -->
<g id="node1" class="node"><title>Node1</title>
<polygon fill="#bfbfbf" stroke="black" points="755,-392.5 755,-411.5 823,-411.5 823,-392.5 755,-392.5"/>
<text text-anchor="middle" x="789" y="-399.5" font-family="Helvetica,sans-Serif" font-size="10.00">rotation.cpp</text>
</g>
<!-- Node2 -->
<g id="node2" class="node"><title>Node2</title>
<g id="a_node2"><a xlink:href="rotation_8h.html" target="_top" xlink:title="rotation.h">
<polygon fill="white" stroke="black" points="760.5,-336.5 760.5,-355.5 817.5,-355.5 817.5,-336.5 760.5,-336.5"/>
<text text-anchor="middle" x="789" y="-343.5" font-family="Helvetica,sans-Serif" font-size="10.00">rotation.h</text>
</a>
</g>
</g>
<!-- Node1&#45;&gt;Node2 -->
<g id="edge1" class="edge"><title>Node1&#45;&gt;Node2</title>
<path fill="none" stroke="midnightblue" d="M789,-392.083C789,-385.006 789,-374.861 789,-365.986"/>
<polygon fill="midnightblue" stroke="midnightblue" points="792.5,-365.751 789,-355.751 785.5,-365.751 792.5,-365.751"/>
</g>
<!-- Node3 -->
<g id="node3" class="node"><title>Node3</title>
<g id="a_node3"><a xlink:href="config_cosmos_8h.html" target="_top" xlink:title="Headers and definitions common to all COSMOS. ">
<polygon fill="white" stroke="black" points="831.5,-112.5 831.5,-131.5 954.5,-131.5 954.5,-112.5 831.5,-112.5"/>
<text text-anchor="middle" x="893" y="-119.5" font-family="Helvetica,sans-Serif" font-size="10.00">support/configCosmos.h</text>
</a>
</g>
</g>
<!-- Node2&#45;&gt;Node3 -->
<g id="edge2" class="edge"><title>Node2&#45;&gt;Node3</title>
<path fill="none" stroke="midnightblue" d="M779.444,-336.45C770.912,-328.12 759.011,-314.604 754,-300 751.115,-291.592 751.262,-288.457 754,-280 774.79,-215.776 838.39,-162.22 871.875,-137.573"/>
<polygon fill="midnightblue" stroke="midnightblue" points="874.005,-140.352 880.078,-131.671 869.917,-134.67 874.005,-140.352"/>
</g>
<!-- Node36 -->
<g id="node36" class="node"><title>Node36</title>
<g id="a_node36"><a xlink:href="vector_8h.html" target="_top" xlink:title="vector.h">
<polygon fill="white" stroke="black" points="823,-224.5 823,-243.5 875,-243.5 875,-224.5 823,-224.5"/>
<text text-anchor="middle" x="849" y="-231.5" font-family="Helvetica,sans-Serif" font-size="10.00">vector.h</text>
</a>
</g>
</g>
<!-- Node2&#45;&gt;Node36 -->
<g id="edge44" class="edge"><title>Node2&#45;&gt;Node36</title>
<path fill="none" stroke="midnightblue" d="M797.079,-336.252C804.78,-327.566 816.31,-313.616 824,-300 832.361,-285.195 839.08,-267.042 843.438,-253.686"/>
<polygon fill="midnightblue" stroke="midnightblue" points="846.893,-254.363 846.528,-243.774 840.21,-252.28 846.893,-254.363"/>
</g>
<!-- Node38 -->
<g id="node38" class="node"><title>Node38</title>
<g id="a_node38"><a xlink:href="matrix_8h.html" target="_top" xlink:title="matrix.h">
<polygon fill="white" stroke="black" points="763,-280.5 763,-299.5 815,-299.5 815,-280.5 763,-280.5"/>
<text text-anchor="middle" x="789" y="-287.5" font-family="Helvetica,sans-Serif" font-size="10.00">matrix.h</text>
</a>
</g>
</g>
<!-- Node2&#45;&gt;Node38 -->
<g id="edge53" class="edge"><title>Node2&#45;&gt;Node38</title>
<path fill="none" stroke="midnightblue" d="M789,-336.083C789,-329.006 789,-318.861 789,-309.986"/>
<polygon fill="midnightblue" stroke="midnightblue" points="792.5,-309.751 789,-299.751 785.5,-309.751 792.5,-309.751"/>
</g>
<!-- Node4 -->
<g id="node4" class="node"><title>Node4</title>
<polygon fill="white" stroke="#bfbfbf" points="697.5,-56.5 697.5,-75.5 742.5,-75.5 742.5,-56.5 697.5,-56.5"/>
<text text-anchor="middle" x="720" y="-63.5" font-family="Helvetica,sans-Serif" font-size="10.00">climits</text>
</g>
<!-- Node3&#45;&gt;Node4 -->
<g id="edge3" class="edge"><title>Node3&#45;&gt;Node4</title>
<path fill="none" stroke="midnightblue" d="M865.588,-112.444C834.896,-102.863 785.193,-87.3492 752.551,-77.1604"/>
<polygon fill="midnightblue" stroke="midnightblue" points="753.187,-73.6924 742.598,-74.0537 751.101,-80.3744 753.187,-73.6924"/>
</g>
<!-- Node5 -->
<g id="node5" class="node"><title>Node5</title>
<polygon fill="white" stroke="#bfbfbf" points="760.5,-56.5 760.5,-75.5 807.5,-75.5 807.5,-56.5 760.5,-56.5"/>
<text text-anchor="middle" x="784" y="-63.5" font-family="Helvetica,sans-Serif" font-size="10.00">csignal</text>
</g>
<!-- Node3&#45;&gt;Node5 -->
<g id="edge4" class="edge"><title>Node3&#45;&gt;Node5</title>
<path fill="none" stroke="midnightblue" d="M875.487,-112.324C857.928,-103.625 830.669,-90.1202 810.469,-80.113"/>
<polygon fill="midnightblue" stroke="midnightblue" points="811.984,-76.9575 801.469,-75.6545 808.876,-83.23 811.984,-76.9575"/>
</g>
<!-- Node6 -->
<g id="node6" class="node"><title>Node6</title>
<polygon fill="white" stroke="#bfbfbf" points="1636,-56.5 1636,-75.5 1682,-75.5 1682,-56.5 1636,-56.5"/>
<text text-anchor="middle" x="1659" y="-63.5" font-family="Helvetica,sans-Serif" font-size="10.00">cstdint</text>
</g>
<!-- Node3&#45;&gt;Node6 -->
<g id="edge5" class="edge"><title>Node3&#45;&gt;Node6</title>
<path fill="none" stroke="midnightblue" d="M954.887,-121.627C1080.18,-121.942 1372.75,-117.825 1625.6,-75.8704"/>
<polygon fill="midnightblue" stroke="midnightblue" points="1626.43,-79.2797 1635.71,-74.1685 1625.27,-72.3767 1626.43,-79.2797"/>
</g>
<!-- Node7 -->
<g id="node7" class="node"><title>Node7</title>
<polygon fill="white" stroke="#bfbfbf" points="1308,-56.5 1308,-75.5 1364,-75.5 1364,-56.5 1308,-56.5"/>
<text text-anchor="middle" x="1336" y="-63.5" font-family="Helvetica,sans-Serif" font-size="10.00">cinttypes</text>
</g>
<!-- Node3&#45;&gt;Node7 -->
<g id="edge6" class="edge"><title>Node3&#45;&gt;Node7</title>
<path fill="none" stroke="midnightblue" d="M954.744,-115.989C1033.71,-109.142 1174.55,-95.4507 1294,-76 1295.24,-75.7977 1296.5,-75.5831 1297.77,-75.3584"/>
<polygon fill="midnightblue" stroke="midnightblue" points="1298.44,-78.795 1307.61,-73.484 1297.13,-71.9189 1298.44,-78.795"/>
</g>
<!-- Node8 -->
<g id="node8" class="node"><title>Node8</title>
<polygon fill="white" stroke="#bfbfbf" points="1382.5,-56.5 1382.5,-75.5 1425.5,-75.5 1425.5,-56.5 1382.5,-56.5"/>
<text text-anchor="middle" x="1404" y="-63.5" font-family="Helvetica,sans-Serif" font-size="10.00">cstdio</text>
</g>
<!-- Node3&#45;&gt;Node8 -->
<g id="edge7" class="edge"><title>Node3&#45;&gt;Node8</title>
<path fill="none" stroke="midnightblue" d="M954.516,-118.951C1044.37,-115.14 1216.77,-104.737 1372.23,-75.7581"/>
<polygon fill="midnightblue" stroke="midnightblue" points="1373.27,-79.1232 1382.45,-73.8224 1371.97,-72.2456 1373.27,-79.1232"/>
</g>
<!-- Node9 -->
<g id="node9" class="node"><title>Node9</title>
<polygon fill="white" stroke="#bfbfbf" points="1443.5,-56.5 1443.5,-75.5 1492.5,-75.5 1492.5,-56.5 1443.5,-56.5"/>
<text text-anchor="middle" x="1468" y="-63.5" font-family="Helvetica,sans-Serif" font-size="10.00">cstddef</text>
</g>
<!-- Node3&#45;&gt;Node9 -->
<g id="edge8" class="edge"><title>Node3&#45;&gt;Node9</title>
<path fill="none" stroke="midnightblue" d="M954.84,-119.549C1054.1,-116.413 1255.11,-106.743 1433.17,-76.0391"/>
<polygon fill="midnightblue" stroke="midnightblue" points="1434,-79.4476 1443.24,-74.275 1432.79,-72.5525 1434,-79.4476"/>
</g>
<!-- Node10 -->
<g id="node10" class="node"><title>Node10</title>
<polygon fill="white" stroke="#bfbfbf" points="1510.5,-56.5 1510.5,-75.5 1555.5,-75.5 1555.5,-56.5 1510.5,-56.5"/>
<text text-anchor="middle" x="1533" y="-63.5" font-family="Helvetica,sans-Serif" font-size="10.00">cstdlib</text>
</g>
<!-- Node3&#45;&gt;Node10 -->
<g id="edge9" class="edge"><title>Node3&#45;&gt;Node10</title>
<path fill="none" stroke="midnightblue" d="M954.907,-120.675C1063.79,-119.179 1296.62,-111.845 1500.45,-75.9273"/>
<polygon fill="midnightblue" stroke="midnightblue" points="1501.22,-79.3463 1510.44,-74.1395 1499.98,-72.4558 1501.22,-79.3463"/>
</g>
<!-- Node11 -->
<g id="node11" class="node"><title>Node11</title>
<polygon fill="white" stroke="#bfbfbf" points="1574,-56.5 1574,-75.5 1618,-75.5 1618,-56.5 1574,-56.5"/>
<text text-anchor="middle" x="1596" y="-63.5" font-family="Helvetica,sans-Serif" font-size="10.00">cerrno</text>
</g>
<!-- Node3&#45;&gt;Node11 -->
<g id="edge10" class="edge"><title>Node3&#45;&gt;Node11</title>
<path fill="none" stroke="midnightblue" d="M954.685,-121.292C1071.93,-120.89 1334.91,-115.391 1563.61,-75.8577"/>
<polygon fill="midnightblue" stroke="midnightblue" points="1564.54,-79.2477 1573.78,-74.0719 1563.33,-72.3531 1564.54,-79.2477"/>
</g>
<!-- Node12 -->
<g id="node12" class="node"><title>Node12</title>
<polygon fill="white" stroke="#bfbfbf" points="130,-56.5 130,-75.5 176,-75.5 176,-56.5 130,-56.5"/>
<text text-anchor="middle" x="153" y="-63.5" font-family="Helvetica,sans-Serif" font-size="10.00">cstring</text>
</g>
<!-- Node3&#45;&gt;Node12 -->
<g id="edge11" class="edge"><title>Node3&#45;&gt;Node12</title>
<path fill="none" stroke="midnightblue" d="M831.231,-113.366C826.419,-112.869 821.633,-112.406 817,-112 540.014,-87.7334 464.266,-121.55 186.261,-75.8403"/>
<polygon fill="midnightblue" stroke="midnightblue" points="186.725,-72.3693 176.286,-74.1805 185.576,-79.2744 186.725,-72.3693"/>
</g>
<!-- Node13 -->
<g id="node13" class="node"><title>Node13</title>
<polygon fill="white" stroke="#bfbfbf" points="68,-56.5 68,-75.5 112,-75.5 112,-56.5 68,-56.5"/>
<text text-anchor="middle" x="90" y="-63.5" font-family="Helvetica,sans-Serif" font-size="10.00">cmath</text>
</g>
<!-- Node3&#45;&gt;Node13 -->
<g id="edge12" class="edge"><title>Node3&#45;&gt;Node13</title>
<path fill="none" stroke="midnightblue" d="M831.233,-113.339C826.421,-112.848 821.634,-112.394 817,-112 511.681,-86.0544 428.218,-126.634 122.255,-75.8019"/>
<polygon fill="midnightblue" stroke="midnightblue" points="122.65,-72.3193 112.208,-74.1134 121.49,-79.2225 122.65,-72.3193"/>
</g>
<!-- Node14 -->
<g id="node14" class="node"><title>Node14</title>
<polygon fill="white" stroke="#bfbfbf" points="194.5,-56.5 194.5,-75.5 239.5,-75.5 239.5,-56.5 194.5,-56.5"/>
<text text-anchor="middle" x="217" y="-63.5" font-family="Helvetica,sans-Serif" font-size="10.00">iosfwd</text>
</g>
<!-- Node3&#45;&gt;Node14 -->
<g id="edge13" class="edge"><title>Node3&#45;&gt;Node14</title>
<path fill="none" stroke="midnightblue" d="M831.228,-113.399C826.417,-112.895 821.631,-112.421 817,-112 568.407,-89.4197 500.15,-117.713 249.726,-75.7114"/>
<polygon fill="midnightblue" stroke="midnightblue" points="250.036,-72.2139 239.591,-73.9901 248.864,-79.1151 250.036,-72.2139"/>
</g>
<!-- Node15 -->
<g id="node15" class="node"><title>Node15</title>
<polygon fill="white" stroke="#bfbfbf" points="1700,-56.5 1700,-75.5 1754,-75.5 1754,-56.5 1700,-56.5"/>
<text text-anchor="middle" x="1727" y="-63.5" font-family="Helvetica,sans-Serif" font-size="10.00">iostream</text>
</g>
<!-- Node3&#45;&gt;Node15 -->
<g id="edge14" class="edge"><title>Node3&#45;&gt;Node15</title>
<path fill="none" stroke="midnightblue" d="M954.73,-121.466C1087.72,-121.619 1411.15,-117.414 1690.08,-75.8299"/>
<polygon fill="midnightblue" stroke="midnightblue" points="1690.62,-79.2885 1699.98,-74.3348 1689.57,-72.3669 1690.62,-79.2885"/>
</g>
<!-- Node16 -->
<g id="node16" class="node"><title>Node16</title>
<polygon fill="white" stroke="#bfbfbf" points="258,-56.5 258,-75.5 310,-75.5 310,-56.5 258,-56.5"/>
<text text-anchor="middle" x="284" y="-63.5" font-family="Helvetica,sans-Serif" font-size="10.00">sstream</text>
</g>
<!-- Node3&#45;&gt;Node16 -->
<g id="edge15" class="edge"><title>Node3&#45;&gt;Node16</title>
<path fill="none" stroke="midnightblue" d="M831.223,-113.445C826.413,-112.93 821.629,-112.441 817,-112 599.326,-91.2546 539.745,-111.175 320.166,-75.9033"/>
<polygon fill="midnightblue" stroke="midnightblue" points="320.698,-72.444 310.266,-74.2934 319.574,-79.3532 320.698,-72.444"/>
</g>
<!-- Node17 -->
<g id="node17" class="node"><title>Node17</title>
<polygon fill="white" stroke="#bfbfbf" points="328.5,-56.5 328.5,-75.5 369.5,-75.5 369.5,-56.5 328.5,-56.5"/>
<text text-anchor="middle" x="349" y="-63.5" font-family="Helvetica,sans-Serif" font-size="10.00">regex</text>
</g>
<!-- Node3&#45;&gt;Node17 -->
<g id="edge16" class="edge"><title>Node3&#45;&gt;Node17</title>
<path fill="none" stroke="midnightblue" d="M831.219,-113.495C826.41,-112.969 821.627,-112.464 817,-112 625.443,-92.8098 571.959,-112.558 379.63,-75.9464"/>
<polygon fill="midnightblue" stroke="midnightblue" points="380.252,-72.5018 369.77,-74.0436 378.925,-79.375 380.252,-72.5018"/>
</g>
<!-- Node18 -->
<g id="node18" class="node"><title>Node18</title>
<polygon fill="white" stroke="#bfbfbf" points="0,-56.5 0,-75.5 50,-75.5 50,-56.5 0,-56.5"/>
<text text-anchor="middle" x="25" y="-63.5" font-family="Helvetica,sans-Serif" font-size="10.00">iomanip</text>
</g>
<!-- Node3&#45;&gt;Node18 -->
<g id="edge17" class="edge"><title>Node3&#45;&gt;Node18</title>
<path fill="none" stroke="midnightblue" d="M831.432,-116.624C808.957,-115.082 783.333,-113.389 760,-112 451.93,-93.6673 368.999,-123.52 60.2652,-75.8535"/>
<polygon fill="midnightblue" stroke="midnightblue" points="60.5471,-72.3552 50.1273,-74.2731 59.4689,-79.2717 60.5471,-72.3552"/>
</g>
<!-- Node19 -->
<g id="node19" class="node"><title>Node19</title>
<polygon fill="white" stroke="#bfbfbf" points="387.5,-56.5 387.5,-75.5 438.5,-75.5 438.5,-56.5 387.5,-56.5"/>
<text text-anchor="middle" x="413" y="-63.5" font-family="Helvetica,sans-Serif" font-size="10.00">unistd.h</text>
</g>
<!-- Node3&#45;&gt;Node19 -->
<g id="edge18" class="edge"><title>Node3&#45;&gt;Node19</title>
<path fill="none" stroke="midnightblue" d="M831.21,-113.575C826.403,-113.03 821.623,-112.499 817,-112 656.373,-94.6556 611.999,-104.212 448.433,-75.7905"/>
<polygon fill="midnightblue" stroke="midnightblue" points="448.97,-72.3313 438.515,-74.0463 447.757,-79.2255 448.97,-72.3313"/>
</g>
<!-- Node20 -->
<g id="node20" class="node"><title>Node20</title>
<polygon fill="white" stroke="#bfbfbf" points="457,-56.5 457,-75.5 501,-75.5 501,-56.5 457,-56.5"/>
<text text-anchor="middle" x="479" y="-63.5" font-family="Helvetica,sans-Serif" font-size="10.00">fcntl.h</text>
</g>
<!-- Node3&#45;&gt;Node20 -->
<g id="edge19" class="edge"><title>Node3&#45;&gt;Node20</title>
<path fill="none" stroke="midnightblue" d="M831.199,-113.675C826.394,-113.108 821.618,-112.544 817,-112 683.762,-96.299 646.389,-102.915 511.15,-75.9371"/>
<polygon fill="midnightblue" stroke="midnightblue" points="511.736,-72.4848 501.241,-73.9359 510.35,-79.3463 511.736,-72.4848"/>
</g>
<!-- Node21 -->
<g id="node21" class="node"><title>Node21</title>
<polygon fill="white" stroke="#bfbfbf" points="519,-56.5 519,-75.5 559,-75.5 559,-56.5 519,-56.5"/>
<text text-anchor="middle" x="539" y="-63.5" font-family="Helvetica,sans-Serif" font-size="10.00">limits</text>
</g>
<!-- Node3&#45;&gt;Node21 -->
<g id="edge20" class="edge"><title>Node3&#45;&gt;Node21</title>
<path fill="none" stroke="midnightblue" d="M831.274,-113.674C755.791,-104.516 631.35,-88.7213 569.291,-75.912"/>
<polygon fill="midnightblue" stroke="midnightblue" points="569.682,-72.4157 559.168,-73.7207 568.201,-79.2573 569.682,-72.4157"/>
</g>
<!-- Node22 -->
<g id="node22" class="node"><title>Node22</title>
<polygon fill="white" stroke="#bfbfbf" points="1303.5,-0.5 1303.5,-19.5 1344.5,-19.5 1344.5,-0.5 1303.5,-0.5"/>
<text text-anchor="middle" x="1324" y="-7.5" font-family="Helvetica,sans-Serif" font-size="10.00">string</text>
</g>
<!-- Node3&#45;&gt;Node22 -->
<g id="edge21" class="edge"><title>Node3&#45;&gt;Node22</title>
<path fill="none" stroke="midnightblue" d="M954.522,-120.51C1022.28,-118.186 1133.5,-109.044 1223,-76 1254.72,-64.2881 1286.78,-41.332 1306.02,-26.0766"/>
<polygon fill="midnightblue" stroke="midnightblue" points="1308.35,-28.6944 1313.92,-19.6773 1303.94,-23.2573 1308.35,-28.6944"/>
</g>
<!-- Node23 -->
<g id="node23" class="node"><title>Node23</title>
<polygon fill="white" stroke="#bfbfbf" points="1363,-0.5 1363,-19.5 1407,-19.5 1407,-0.5 1363,-0.5"/>
<text text-anchor="middle" x="1385" y="-7.5" font-family="Helvetica,sans-Serif" font-size="10.00">vector</text>
</g>
<!-- Node3&#45;&gt;Node23 -->
<g id="edge22" class="edge"><title>Node3&#45;&gt;Node23</title>
<path fill="none" stroke="midnightblue" d="M954.7,-119.753C1028.01,-116.822 1153.32,-107.207 1256,-76 1266.69,-72.7505 1325.03,-42.5156 1359.49,-24.4481"/>
<polygon fill="midnightblue" stroke="midnightblue" points="1361.28,-27.4564 1368.51,-19.7074 1358.03,-21.2593 1361.28,-27.4564"/>
</g>
<!-- Node24 -->
<g id="node24" class="node"><title>Node24</title>
<polygon fill="white" stroke="#bfbfbf" points="577.5,-56.5 577.5,-75.5 618.5,-75.5 618.5,-56.5 577.5,-56.5"/>
<text text-anchor="middle" x="598" y="-63.5" font-family="Helvetica,sans-Serif" font-size="10.00">stack</text>
</g>
<!-- Node3&#45;&gt;Node24 -->
<g id="edge23" class="edge"><title>Node3&#45;&gt;Node24</title>
<path fill="none" stroke="midnightblue" d="M831.253,-112.936C779.368,-105.619 703.141,-93.6124 628.538,-76.1224"/>
<polygon fill="midnightblue" stroke="midnightblue" points="629.04,-72.6442 618.501,-73.7334 627.419,-79.454 629.04,-72.6442"/>
</g>
<!-- Node25 -->
<g id="node25" class="node"><title>Node25</title>
<polygon fill="white" stroke="#bfbfbf" points="636.5,-56.5 636.5,-75.5 679.5,-75.5 679.5,-56.5 636.5,-56.5"/>
<text text-anchor="middle" x="658" y="-63.5" font-family="Helvetica,sans-Serif" font-size="10.00">deque</text>
</g>
<!-- Node3&#45;&gt;Node25 -->
<g id="edge24" class="edge"><title>Node3&#45;&gt;Node25</title>
<path fill="none" stroke="midnightblue" d="M849.582,-112.459C810.047,-104.461 749.872,-91.7371 689.298,-76.2017"/>
<polygon fill="midnightblue" stroke="midnightblue" points="690.133,-72.8028 679.575,-73.6845 688.379,-79.5793 690.133,-72.8028"/>
</g>
<!-- Node26 -->
<g id="node26" class="node"><title>Node26</title>
<polygon fill="white" stroke="#bfbfbf" points="918,-0.5 918,-19.5 962,-19.5 962,-0.5 918,-0.5"/>
<text text-anchor="middle" x="940" y="-7.5" font-family="Helvetica,sans-Serif" font-size="10.00">mutex</text>
</g>
<!-- Node3&#45;&gt;Node26 -->
<g id="edge25" class="edge"><title>Node3&#45;&gt;Node26</title>
<path fill="none" stroke="midnightblue" d="M896.688,-112.368C904.341,-94.4563 922.087,-52.9233 932.331,-28.9482"/>
<polygon fill="midnightblue" stroke="midnightblue" points="935.618,-30.1624 936.329,-19.5914 929.181,-27.412 935.618,-30.1624"/>
</g>
<!-- Node27 -->
<g id="node27" class="node"><title>Node27</title>
<polygon fill="white" stroke="#bfbfbf" points="1026,-0.5 1026,-19.5 1070,-19.5 1070,-0.5 1026,-0.5"/>
<text text-anchor="middle" x="1048" y="-7.5" font-family="Helvetica,sans-Serif" font-size="10.00">thread</text>
</g>
<!-- Node3&#45;&gt;Node27 -->
<g id="edge26" class="edge"><title>Node3&#45;&gt;Node27</title>
<path fill="none" stroke="midnightblue" d="M954.707,-112.872C998.328,-105.714 1051.37,-93.6523 1065,-76 1075.66,-62.1968 1068.07,-42.3479 1059.91,-28.2218"/>
<polygon fill="midnightblue" stroke="midnightblue" points="1062.7,-26.0779 1054.39,-19.5012 1056.78,-29.8225 1062.7,-26.0779"/>
</g>
<!-- Node28 -->
<g id="node28" class="node"><title>Node28</title>
<polygon fill="white" stroke="#bfbfbf" points="743.5,-0.5 743.5,-19.5 838.5,-19.5 838.5,-0.5 743.5,-0.5"/>
<text text-anchor="middle" x="791" y="-7.5" font-family="Helvetica,sans-Serif" font-size="10.00">condition_variable</text>
</g>
<!-- Node3&#45;&gt;Node28 -->
<g id="edge27" class="edge"><title>Node3&#45;&gt;Node28</title>
<path fill="none" stroke="midnightblue" d="M884.996,-112.368C867.94,-93.9744 827.786,-50.6712 805.884,-27.0519"/>
<polygon fill="midnightblue" stroke="midnightblue" points="808.332,-24.5443 798.967,-19.5914 803.2,-29.3039 808.332,-24.5443"/>
</g>
<!-- Node29 -->
<g id="node29" class="node"><title>Node29</title>
<polygon fill="white" stroke="#bfbfbf" points="856.5,-0.5 856.5,-19.5 899.5,-19.5 899.5,-0.5 856.5,-0.5"/>
<text text-anchor="middle" x="878" y="-7.5" font-family="Helvetica,sans-Serif" font-size="10.00">queue</text>
</g>
<!-- Node3&#45;&gt;Node29 -->
<g id="edge28" class="edge"><title>Node3&#45;&gt;Node29</title>
<path fill="none" stroke="midnightblue" d="M891.823,-112.368C889.402,-94.617 883.818,-53.6664 880.536,-29.5974"/>
<polygon fill="midnightblue" stroke="midnightblue" points="883.991,-29.0268 879.172,-19.5914 877.055,-29.9726 883.991,-29.0268"/>
</g>
<!-- Node30 -->
<g id="node30" class="node"><title>Node30</title>
<polygon fill="white" stroke="#bfbfbf" points="1088.5,-0.5 1088.5,-19.5 1123.5,-19.5 1123.5,-0.5 1088.5,-0.5"/>
<text text-anchor="middle" x="1106" y="-7.5" font-family="Helvetica,sans-Serif" font-size="10.00">map</text>
</g>
<!-- Node3&#45;&gt;Node30 -->
<g id="edge29" class="edge"><title>Node3&#45;&gt;Node30</title>
<path fill="none" stroke="midnightblue" d="M954.681,-120.506C995.002,-117.05 1046.41,-106.293 1081,-76 1094.48,-64.1931 1100.73,-44.269 1103.61,-29.585"/>
<polygon fill="midnightblue" stroke="midnightblue" points="1107.08,-30.027 1105.21,-19.5986 1100.17,-28.9174 1107.08,-30.027"/>
</g>
<!-- Node31 -->
<g id="node31" class="node"><title>Node31</title>
<g id="a_node31"><a xlink:href="cosmos-defs_8h.html" target="_top" xlink:title="COSMOS definitions Definitions specific to the COSMOS environement. ">
<polygon fill="white" stroke="black" points="940,-56.5 940,-75.5 1056,-75.5 1056,-56.5 940,-56.5"/>
<text text-anchor="middle" x="998" y="-63.5" font-family="Helvetica,sans-Serif" font-size="10.00">support/cosmos&#45;defs.h</text>
</a>
</g>
</g>
<!-- Node3&#45;&gt;Node31 -->
<g id="edge30" class="edge"><title>Node3&#45;&gt;Node31</title>
<path fill="none" stroke="midnightblue" d="M909.87,-112.324C926.709,-103.664 952.807,-90.2424 972.238,-80.249"/>
<polygon fill="midnightblue" stroke="midnightblue" points="973.88,-83.3405 981.172,-75.6545 970.678,-77.1155 973.88,-83.3405"/>
</g>
<!-- Node33 -->
<g id="node33" class="node"><title>Node33</title>
<g id="a_node33"><a xlink:href="json11_8hpp.html" target="_top" xlink:title="json11.hpp">
<polygon fill="white" stroke="black" points="1150,-56.5 1150,-75.5 1214,-75.5 1214,-56.5 1150,-56.5"/>
<text text-anchor="middle" x="1182" y="-63.5" font-family="Helvetica,sans-Serif" font-size="10.00">json11.hpp</text>
</a>
</g>
</g>
<!-- Node3&#45;&gt;Node33 -->
<g id="edge38" class="edge"><title>Node3&#45;&gt;Node33</title>
<path fill="none" stroke="midnightblue" d="M940.065,-112.43C989.037,-103.478 1067.93,-88.9611 1136,-76 1137.26,-75.7603 1138.54,-75.516 1139.83,-75.2686"/>
<polygon fill="midnightblue" stroke="midnightblue" points="1140.68,-78.6682 1149.84,-73.3356 1139.36,-71.7952 1140.68,-78.6682"/>
</g>
<!-- Node31&#45;&gt;Node23 -->
<g id="edge32" class="edge"><title>Node31&#45;&gt;Node23</title>
<path fill="none" stroke="midnightblue" d="M1056.11,-60.473C1124.9,-54.4877 1242.97,-42.2465 1352.83,-19.9571"/>
<polygon fill="midnightblue" stroke="midnightblue" points="1353.67,-23.3585 1362.75,-17.9114 1352.25,-16.5026 1353.67,-23.3585"/>
</g>
<!-- Node31&#45;&gt;Node26 -->
<g id="edge36" class="edge"><title>Node31&#45;&gt;Node26</title>
<path fill="none" stroke="midnightblue" d="M988.681,-56.324C980.107,-48.3414 967.188,-36.3128 956.812,-26.6529"/>
<polygon fill="midnightblue" stroke="midnightblue" points="959.192,-24.0865 949.488,-19.8339 954.422,-29.2098 959.192,-24.0865"/>
</g>
<!-- Node31&#45;&gt;Node27 -->
<g id="edge35" class="edge"><title>Node31&#45;&gt;Node27</title>
<path fill="none" stroke="midnightblue" d="M1006.26,-56.083C1013.46,-48.2982 1024.11,-36.8015 1032.85,-27.3665"/>
<polygon fill="midnightblue" stroke="midnightblue" points="1035.67,-29.4666 1039.9,-19.7511 1030.53,-24.7108 1035.67,-29.4666"/>
</g>
<!-- Node31&#45;&gt;Node28 -->
<g id="edge37" class="edge"><title>Node31&#45;&gt;Node28</title>
<path fill="none" stroke="midnightblue" d="M965.2,-56.4435C929.62,-47.1616 872.686,-32.3093 833.653,-22.127"/>
<polygon fill="midnightblue" stroke="midnightblue" points="834.206,-18.6541 823.646,-19.5164 832.439,-25.4274 834.206,-18.6541"/>
</g>
<!-- Node31&#45;&gt;Node29 -->
<g id="edge34" class="edge"><title>Node31&#45;&gt;Node29</title>
<path fill="none" stroke="midnightblue" d="M978.986,-56.4435C959.412,-47.6356 928.692,-33.8116 906.271,-23.722"/>
<polygon fill="midnightblue" stroke="midnightblue" points="907.481,-20.4284 896.925,-19.5164 904.608,-26.8119 907.481,-20.4284"/>
</g>
<!-- Node31&#45;&gt;Node30 -->
<g id="edge31" class="edge"><title>Node31&#45;&gt;Node30</title>
<path fill="none" stroke="midnightblue" d="M1015.35,-56.324C1032.67,-47.6641 1059.52,-34.2424 1079.5,-24.249"/>
<polygon fill="midnightblue" stroke="midnightblue" points="1081.31,-27.2572 1088.69,-19.6545 1078.18,-20.9962 1081.31,-27.2572"/>
</g>
<!-- Node32 -->
<g id="node32" class="node"><title>Node32</title>
<polygon fill="white" stroke="#bfbfbf" points="979.5,-0.5 979.5,-19.5 1008.5,-19.5 1008.5,-0.5 979.5,-0.5"/>
<text text-anchor="middle" x="994" y="-7.5" font-family="Helvetica,sans-Serif" font-size="10.00">list</text>
</g>
<!-- Node31&#45;&gt;Node32 -->
<g id="edge33" class="edge"><title>Node31&#45;&gt;Node32</title>
<path fill="none" stroke="midnightblue" d="M997.339,-56.083C996.815,-49.0059 996.064,-38.8611 995.406,-29.9865"/>
<polygon fill="midnightblue" stroke="midnightblue" points="998.877,-29.4652 994.648,-19.7511 991.897,-29.9823 998.877,-29.4652"/>
</g>
<!-- Node33&#45;&gt;Node22 -->
<g id="edge39" class="edge"><title>Node33&#45;&gt;Node22</title>
<path fill="none" stroke="midnightblue" d="M1204.5,-56.4435C1228.63,-47.2666 1267.08,-32.6446 1293.83,-22.4744"/>
<polygon fill="midnightblue" stroke="midnightblue" points="1295.35,-25.6411 1303.45,-18.8151 1292.86,-19.0982 1295.35,-25.6411"/>
</g>
<!-- Node33&#45;&gt;Node23 -->
<g id="edge40" class="edge"><title>Node33&#45;&gt;Node23</title>
<path fill="none" stroke="midnightblue" d="M1214.09,-56.8779C1246.73,-48.5556 1299,-35.0621 1352.94,-20.243"/>
<polygon fill="midnightblue" stroke="midnightblue" points="1353.96,-23.5926 1362.67,-17.5602 1352.1,-16.8444 1353.96,-23.5926"/>
</g>
<!-- Node33&#45;&gt;Node30 -->
<g id="edge41" class="edge"><title>Node33&#45;&gt;Node30</title>
<path fill="none" stroke="midnightblue" d="M1169.79,-56.324C1158.22,-48.1066 1140.62,-35.6017 1126.84,-25.8069"/>
<polygon fill="midnightblue" stroke="midnightblue" points="1128.61,-22.7729 1118.43,-19.8339 1124.56,-28.4791 1128.61,-22.7729"/>
</g>
<!-- Node34 -->
<g id="node34" class="node"><title>Node34</title>
<polygon fill="white" stroke="#bfbfbf" points="1233,-0.5 1233,-19.5 1285,-19.5 1285,-0.5 1233,-0.5"/>
<text text-anchor="middle" x="1259" y="-7.5" font-family="Helvetica,sans-Serif" font-size="10.00">memory</text>
</g>
<!-- Node33&#45;&gt;Node34 -->
<g id="edge42" class="edge"><title>Node33&#45;&gt;Node34</title>
<path fill="none" stroke="midnightblue" d="M1194.37,-56.324C1206.16,-48.0577 1224.13,-35.4527 1238.14,-25.6322"/>
<polygon fill="midnightblue" stroke="midnightblue" points="1240.48,-28.2619 1246.66,-19.6545 1236.46,-22.5307 1240.48,-28.2619"/>
</g>
<!-- Node35 -->
<g id="node35" class="node"><title>Node35</title>
<polygon fill="white" stroke="#bfbfbf" points="1141.5,-0.5 1141.5,-19.5 1214.5,-19.5 1214.5,-0.5 1141.5,-0.5"/>
<text text-anchor="middle" x="1178" y="-7.5" font-family="Helvetica,sans-Serif" font-size="10.00">initializer_list</text>
</g>
<!-- Node33&#45;&gt;Node35 -->
<g id="edge43" class="edge"><title>Node33&#45;&gt;Node35</title>
<path fill="none" stroke="midnightblue" d="M1181.34,-56.083C1180.82,-49.0059 1180.06,-38.8611 1179.41,-29.9865"/>
<polygon fill="midnightblue" stroke="midnightblue" points="1182.88,-29.4652 1178.65,-19.7511 1175.9,-29.9823 1182.88,-29.4652"/>
</g>
<!-- Node36&#45;&gt;Node3 -->
<g id="edge45" class="edge"><title>Node36&#45;&gt;Node3</title>
<path fill="none" stroke="midnightblue" d="M852.453,-224.368C859.617,-206.456 876.231,-164.923 885.821,-140.948"/>
<polygon fill="midnightblue" stroke="midnightblue" points="889.099,-142.176 889.563,-131.591 882.6,-139.576 889.099,-142.176"/>
</g>
<!-- Node36&#45;&gt;Node13 -->
<g id="edge51" class="edge"><title>Node36&#45;&gt;Node13</title>
<path fill="none" stroke="midnightblue" d="M845.683,-224.224C836.36,-200.955 807.464,-137.711 760,-112 637.631,-45.7129 277.134,-97.6429 122.119,-75.6579"/>
<polygon fill="midnightblue" stroke="midnightblue" points="122.632,-72.1957 112.21,-74.1008 121.546,-79.1108 122.632,-72.1957"/>
</g>
<!-- Node36&#45;&gt;Node15 -->
<g id="edge49" class="edge"><title>Node36&#45;&gt;Node15</title>
<path fill="none" stroke="midnightblue" d="M875.307,-228.693C978.199,-211.724 1363.36,-147.032 1689.79,-76.1629"/>
<polygon fill="midnightblue" stroke="midnightblue" points="1690.89,-79.5055 1699.91,-73.9583 1689.4,-72.6657 1690.89,-79.5055"/>
</g>
<!-- Node36&#45;&gt;Node18 -->
<g id="edge50" class="edge"><title>Node36&#45;&gt;Node18</title>
<path fill="none" stroke="midnightblue" d="M822.96,-228.437C724.455,-211.049 365.183,-146.47 60.1254,-76.1531"/>
<polygon fill="midnightblue" stroke="midnightblue" points="60.7386,-72.7026 50.2072,-73.8604 59.162,-79.5228 60.7386,-72.7026"/>
</g>
<!-- Node36&#45;&gt;Node23 -->
<g id="edge52" class="edge"><title>Node36&#45;&gt;Node23</title>
<path fill="none" stroke="midnightblue" d="M875.232,-232.869C1012.54,-231.576 1646.59,-217.903 1763,-76 1807.98,-21.1755 1516.46,-12.5844 1417.23,-11.2452"/>
<polygon fill="midnightblue" stroke="midnightblue" points="1417.22,-7.74484 1407.18,-11.1258 1417.14,-14.7443 1417.22,-7.74484"/>
</g>
<!-- Node37 -->
<g id="node37" class="node"><title>Node37</title>
<g id="a_node37"><a xlink:href="math_2constants_8h.html" target="_top" xlink:title="constants.h">
<polygon fill="white" stroke="black" points="888,-168.5 888,-187.5 956,-187.5 956,-168.5 888,-168.5"/>
<text text-anchor="middle" x="922" y="-175.5" font-family="Helvetica,sans-Serif" font-size="10.00">constants.h</text>
</a>
</g>
</g>
<!-- Node36&#45;&gt;Node37 -->
<g id="edge46" class="edge"><title>Node36&#45;&gt;Node37</title>
<path fill="none" stroke="midnightblue" d="M860.729,-224.324C871.837,-216.107 888.742,-203.602 901.983,-193.807"/>
<polygon fill="midnightblue" stroke="midnightblue" points="904.1,-196.595 910.058,-187.834 899.937,-190.967 904.1,-196.595"/>
</g>
<!-- Node37&#45;&gt;Node3 -->
<g id="edge47" class="edge"><title>Node37&#45;&gt;Node3</title>
<path fill="none" stroke="midnightblue" d="M917.211,-168.083C913.242,-160.691 907.475,-149.953 902.565,-140.811"/>
<polygon fill="midnightblue" stroke="midnightblue" points="905.514,-138.905 897.7,-131.751 899.347,-142.217 905.514,-138.905"/>
</g>
<!-- Node37&#45;&gt;Node6 -->
<g id="edge48" class="edge"><title>Node37&#45;&gt;Node6</title>
<path fill="none" stroke="midnightblue" d="M956.032,-173.734C1057.03,-163.703 1363.82,-130.784 1625.59,-76.0669"/>
<polygon fill="midnightblue" stroke="midnightblue" points="1626.61,-79.4309 1635.67,-73.9453 1625.16,-72.5811 1626.61,-79.4309"/>
</g>
<!-- Node38&#45;&gt;Node3 -->
<g id="edge54" class="edge"><title>Node38&#45;&gt;Node3</title>
<path fill="none" stroke="midnightblue" d="M791.465,-280.222C795.271,-267.378 803.272,-242.935 814,-224 832.449,-191.437 860.738,-158.084 877.986,-139.022"/>
<polygon fill="midnightblue" stroke="midnightblue" points="880.664,-141.281 884.85,-131.548 875.508,-136.546 880.664,-141.281"/>
</g>
<!-- Node38&#45;&gt;Node36 -->
<g id="edge55" class="edge"><title>Node38&#45;&gt;Node36</title>
<path fill="none" stroke="midnightblue" d="M798.64,-280.324C807.51,-272.341 820.875,-260.313 831.608,-250.653"/>
<polygon fill="midnightblue" stroke="midnightblue" points="834.093,-253.125 839.185,-243.834 829.41,-247.922 834.093,-253.125"/>
</g>
</g>
</svg>
        <g id="navigator" transform="translate(0 0)" fill="#404254">
                <rect fill="#f2f5e9" fill-opacity="0.5" stroke="#606060" stroke-width=".5" x="0" y="0" width="60" height="60"/>
                <use id="zoomplus" xlink:href="#zoomPlus" x="17" y="9" onmousedown="handleZoom(evt,'in')"/>
                <use id="zoomminus" xlink:href="#zoomMin" x="42" y="9" onmousedown="handleZoom(evt,'out')"/>
                <use id="reset" xlink:href="#resetDef" x="30" y="36" onmousedown="handleReset()"/>
                <g id="arrowUp" xlink:href="#dirArrow" transform="translate(30 24)" onmousedown="handlePan(0,-1)">
                  <use xlink:href="#rim" fill="#404040">
                        <set attributeName="fill" to="#808080" begin="arrowUp.mouseover" end="arrowUp.mouseout"/>
                  </use>
                  <path fill="none" stroke="white" stroke-width="1.5" d="M0,-3.0v7 M-2.5,-0.5L0,-3.0L2.5,-0.5"/>
                </g>
                <g id="arrowRight" xlink:href="#dirArrow" transform="rotate(90) translate(36 -43)" onmousedown="handlePan(1,0)">
                  <use xlink:href="#rim" fill="#404040">
                        <set attributeName="fill" to="#808080" begin="arrowRight.mouseover" end="arrowRight.mouseout"/>
                  </use>
                  <path fill="none" stroke="white" stroke-width="1.5" d="M0,-3.0v7 M-2.5,-0.5L0,-3.0L2.5,-0.5"/>
                </g>
                <g id="arrowDown" xlink:href="#dirArrow" transform="rotate(180) translate(-30 -48)" onmousedown="handlePan(0,1)">
                  <use xlink:href="#rim" fill="#404040">
                        <set attributeName="fill" to="#808080" begin="arrowDown.mouseover" end="arrowDown.mouseout"/>
                  </use>
                  <path fill="none" stroke="white" stroke-width="1.5" d="M0,-3.0v7 M-2.5,-0.5L0,-3.0L2.5,-0.5"/>
                </g>
                <g id="arrowLeft" xlink:href="#dirArrow" transform="rotate(270) translate(-36 17)" onmousedown="handlePan(-1,0)">
                  <use xlink:href="#rim" fill="#404040">
                        <set attributeName="fill" to="#808080" begin="arrowLeft.mouseover" end="arrowLeft.mouseout"/>
                  </use>
                  <path fill="none" stroke="white" stroke-width="1.5" d="M0,-3.0v7 M-2.5,-0.5L0,-3.0L2.5,-0.5"/>
                </g>
        </g>
        <svg viewBox="0 0 15 15" width="100%" height="30px" preserveAspectRatio="xMaxYMin meet">
         <g id="arrow_out" transform="scale(0.3 0.3)">
          <a xlink:href="rotation_8cpp__incl_org.svg" target="_base">
           <rect id="button" ry="5" rx="5" y="6" x="6" height="38" width="38"
                fill="#f2f5e9" fill-opacity="0.5" stroke="#606060" stroke-width="1.0"/>
           <path id="arrow"
             d="M 11.500037,31.436501 C 11.940474,20.09759 22.043105,11.32322 32.158766,21.979434 L 37.068811,17.246167 C 37.068811,17.246167 37.088388,32 37.088388,32 L 22.160133,31.978069 C 22.160133,31.978069 26.997745,27.140456 26.997745,27.140456 C 18.528582,18.264221 13.291696,25.230495 11.500037,31.436501 z"
             style="fill:#404040;"/>
          </a>
         </g>
        </svg>
</svg>
