<?xml version="1.0" encoding="UTF-8" standalone="no"?>
<!DOCTYPE svg PUBLIC "-//W3C//DTD SVG 1.1//EN"
 "http://www.w3.org/Graphics/SVG/1.1/DTD/svg11.dtd">
<!-- Generated by graphviz version 2.38.0 (20140413.2041)
 -->
<!-- Title: serialclass.cpp Pages: 1 -->
<!--zoomable 364 -->
<svg id="main" version="1.1" xmlns="http://www.w3.org/2000/svg" xmlns:xlink="http://www.w3.org/1999/xlink" xml:space="preserve" onload="init(evt)">
<style type="text/css"><![CDATA[
.edge:hover path { stroke: red; }
.edge:hover polygon { stroke: red; fill: red; }
]]></style>
<script type="text/javascript"><![CDATA[
var edges = document.getElementsByTagName('g');
if (edges && edges.length) {
  for (var i=0;i<edges.length;i++) {
    if (edges[i].id.substr(0,4)=='edge') {
      edges[i].setAttribute('class','edge');
    }
  }
}
]]></script>
        <defs>
                <circle id="rim" cx="0" cy="0" r="7"/>
                <circle id="rim2" cx="0" cy="0" r="3.5"/>
                <g id="zoomPlus">
                        <use xlink:href="#rim" fill="#404040">
                                <set attributeName="fill" to="#808080" begin="zoomplus.mouseover" end="zoomplus.mouseout"/>
                        </use>
                        <path d="M-4,0h8M0,-4v8" fill="none" stroke="white" stroke-width="1.5" pointer-events="none"/>
                </g>
                <g id="zoomMin">
                        <use xlink:href="#rim" fill="#404040">
                                <set attributeName="fill" to="#808080" begin="zoomminus.mouseover" end="zoomminus.mouseout"/>
                        </use>
                        <path d="M-4,0h8" fill="none" stroke="white" stroke-width="1.5" pointer-events="none"/>
                </g>
                <g id="dirArrow">
                        <path fill="none" stroke="white" stroke-width="1.5" d="M0,-3.0v7 M-2.5,-0.5L0,-3.0L2.5,-0.5"/>
                </g>
               <g id="resetDef">
                       <use xlink:href="#rim2" fill="#404040">
                               <set attributeName="fill" to="#808080" begin="reset.mouseover" end="reset.mouseout"/>
                       </use>
               </g>
        </defs>

<script type="text/javascript">
var viewWidth = 1787;
var viewHeight = 364;
var sectionId = 'dynsection-0';
</script>
<script xlink:href="svgpan.js"/>
<svg id="graph" class="graph">
<g id="viewport">
<title>serialclass.cpp</title>
<polygon fill="white" stroke="none" points="-4,4 -4,-360 1782.76,-360 1782.76,4 -4,4"/>
<!-- Node1 -->
<g id="node1" class="node"><title>Node1</title>
<polygon fill="#bfbfbf" stroke="black" points="1011,-336.5 1011,-355.5 1093,-355.5 1093,-336.5 1011,-336.5"/>
<text text-anchor="middle" x="1052" y="-343.5" font-family="Helvetica,sans-Serif" font-size="10.00">serialclass.cpp</text>
</g>
<!-- Node2 -->
<g id="node2" class="node"><title>Node2</title>
<g id="a_node2"><a xlink:href="config_cosmos_8h.html" target="_top" xlink:title="Headers and definitions common to all COSMOS. ">
<polygon fill="white" stroke="black" points="888.5,-112.5 888.5,-131.5 1011.5,-131.5 1011.5,-112.5 888.5,-112.5"/>
<text text-anchor="middle" x="950" y="-119.5" font-family="Helvetica,sans-Serif" font-size="10.00">support/configCosmos.h</text>
</a>
</g>
</g>
<!-- Node1&#45;&gt;Node2 -->
<g id="edge1" class="edge"><title>Node1&#45;&gt;Node2</title>
<path fill="none" stroke="midnightblue" d="M1027.42,-336.415C1010.78,-329.29 989.745,-317.47 978,-300 944.782,-250.591 945.581,-176.144 948.101,-141.702"/>
<polygon fill="midnightblue" stroke="midnightblue" points="951.596,-141.915 948.975,-131.649 944.622,-141.308 951.596,-141.915"/>
</g>
<!-- Node35 -->
<g id="node35" class="node"><title>Node35</title>
<g id="a_node35"><a xlink:href="serialclass_8h.html" target="_top" xlink:title="device/serial/serialclass.h">
<polygon fill="white" stroke="black" points="987.5,-280.5 987.5,-299.5 1116.5,-299.5 1116.5,-280.5 987.5,-280.5"/>
<text text-anchor="middle" x="1052" y="-287.5" font-family="Helvetica,sans-Serif" font-size="10.00">device/serial/serialclass.h</text>
</a>
</g>
</g>
<!-- Node1&#45;&gt;Node35 -->
<g id="edge43" class="edge"><title>Node1&#45;&gt;Node35</title>
<path fill="none" stroke="midnightblue" d="M1052,-336.083C1052,-329.006 1052,-318.861 1052,-309.986"/>
<polygon fill="midnightblue" stroke="midnightblue" points="1055.5,-309.751 1052,-299.751 1048.5,-309.751 1055.5,-309.751"/>
</g>
<!-- Node39 -->
<g id="node39" class="node"><title>Node39</title>
<g id="a_node39"><a xlink:href="elapsedtime_8h.html" target="_top" xlink:title="Elapsed Time header file. ">
<polygon fill="white" stroke="black" points="1457.5,-168.5 1457.5,-187.5 1570.5,-187.5 1570.5,-168.5 1457.5,-168.5"/>
<text text-anchor="middle" x="1514" y="-175.5" font-family="Helvetica,sans-Serif" font-size="10.00">support/elapsedtime.h</text>
</a>
</g>
</g>
<!-- Node1&#45;&gt;Node39 -->
<g id="edge52" class="edge"><title>Node1&#45;&gt;Node39</title>
<path fill="none" stroke="midnightblue" d="M1075.87,-336.425C1152.46,-308.904 1392.22,-222.757 1480.73,-190.953"/>
<polygon fill="midnightblue" stroke="midnightblue" points="1482.05,-194.199 1490.28,-187.524 1479.68,-187.612 1482.05,-194.199"/>
</g>
<!-- Node3 -->
<g id="node3" class="node"><title>Node3</title>
<polygon fill="white" stroke="#bfbfbf" points="1117.5,-56.5 1117.5,-75.5 1162.5,-75.5 1162.5,-56.5 1117.5,-56.5"/>
<text text-anchor="middle" x="1140" y="-63.5" font-family="Helvetica,sans-Serif" font-size="10.00">climits</text>
</g>
<!-- Node2&#45;&gt;Node3 -->
<g id="edge2" class="edge"><title>Node2&#45;&gt;Node3</title>
<path fill="none" stroke="midnightblue" d="M980.106,-112.444C1014.87,-102.564 1071.83,-86.3734 1107.56,-76.2208"/>
<polygon fill="midnightblue" stroke="midnightblue" points="1108.81,-79.5032 1117.47,-73.4026 1106.9,-72.7698 1108.81,-79.5032"/>
</g>
<!-- Node4 -->
<g id="node4" class="node"><title>Node4</title>
<polygon fill="white" stroke="#bfbfbf" points="1180.5,-56.5 1180.5,-75.5 1227.5,-75.5 1227.5,-56.5 1180.5,-56.5"/>
<text text-anchor="middle" x="1204" y="-63.5" font-family="Helvetica,sans-Serif" font-size="10.00">csignal</text>
</g>
<!-- Node2&#45;&gt;Node4 -->
<g id="edge3" class="edge"><title>Node2&#45;&gt;Node4</title>
<path fill="none" stroke="midnightblue" d="M996.33,-112.48C1039.08,-104.413 1104.51,-91.55 1170.52,-75.9903"/>
<polygon fill="midnightblue" stroke="midnightblue" points="1171.34,-79.393 1180.25,-73.6753 1169.72,-72.5828 1171.34,-79.393"/>
</g>
<!-- Node5 -->
<g id="node5" class="node"><title>Node5</title>
<polygon fill="white" stroke="#bfbfbf" points="1246,-56.5 1246,-75.5 1292,-75.5 1292,-56.5 1246,-56.5"/>
<text text-anchor="middle" x="1269" y="-63.5" font-family="Helvetica,sans-Serif" font-size="10.00">cstdint</text>
</g>
<!-- Node2&#45;&gt;Node5 -->
<g id="edge4" class="edge"><title>Node2&#45;&gt;Node5</title>
<path fill="none" stroke="midnightblue" d="M1011.73,-113.288C1067.68,-105.844 1152.56,-93.4256 1235.77,-75.827"/>
<polygon fill="midnightblue" stroke="midnightblue" points="1236.6,-79.229 1245.64,-73.7122 1235.13,-72.3842 1236.6,-79.229"/>
</g>
<!-- Node6 -->
<g id="node6" class="node"><title>Node6</title>
<polygon fill="white" stroke="#bfbfbf" points="1310,-56.5 1310,-75.5 1366,-75.5 1366,-56.5 1310,-56.5"/>
<text text-anchor="middle" x="1338" y="-63.5" font-family="Helvetica,sans-Serif" font-size="10.00">cinttypes</text>
</g>
<!-- Node2&#45;&gt;Node6 -->
<g id="edge5" class="edge"><title>Node2&#45;&gt;Node6</title>
<path fill="none" stroke="midnightblue" d="M1011.85,-113.911C1092.95,-104.477 1231.97,-87.8005 1299.57,-76.0467"/>
<polygon fill="midnightblue" stroke="midnightblue" points="1300.57,-79.4235 1309.79,-74.2044 1299.33,-72.5346 1300.57,-79.4235"/>
</g>
<!-- Node7 -->
<g id="node7" class="node"><title>Node7</title>
<polygon fill="white" stroke="#bfbfbf" points="1384.5,-56.5 1384.5,-75.5 1427.5,-75.5 1427.5,-56.5 1384.5,-56.5"/>
<text text-anchor="middle" x="1406" y="-63.5" font-family="Helvetica,sans-Serif" font-size="10.00">cstdio</text>
</g>
<!-- Node2&#45;&gt;Node7 -->
<g id="edge6" class="edge"><title>Node2&#45;&gt;Node7</title>
<path fill="none" stroke="midnightblue" d="M1011.6,-114.619C1116.88,-103.697 1324.25,-82.1001 1374.43,-75.3341"/>
<polygon fill="midnightblue" stroke="midnightblue" points="1375.09,-78.7729 1384.44,-73.7885 1374.02,-71.8548 1375.09,-78.7729"/>
</g>
<!-- Node8 -->
<g id="node8" class="node"><title>Node8</title>
<polygon fill="white" stroke="#bfbfbf" points="1445.5,-56.5 1445.5,-75.5 1494.5,-75.5 1494.5,-56.5 1445.5,-56.5"/>
<text text-anchor="middle" x="1470" y="-63.5" font-family="Helvetica,sans-Serif" font-size="10.00">cstddef</text>
</g>
<!-- Node2&#45;&gt;Node8 -->
<g id="edge7" class="edge"><title>Node2&#45;&gt;Node8</title>
<path fill="none" stroke="midnightblue" d="M1011.53,-114.614C1020.41,-113.72 1029.44,-112.825 1038,-112 1211.51,-95.2805 1259.32,-106.404 1435.12,-75.8524"/>
<polygon fill="midnightblue" stroke="midnightblue" points="1435.98,-79.2538 1445.23,-74.0745 1434.77,-72.3596 1435.98,-79.2538"/>
</g>
<!-- Node9 -->
<g id="node9" class="node"><title>Node9</title>
<polygon fill="white" stroke="#bfbfbf" points="1512.5,-56.5 1512.5,-75.5 1557.5,-75.5 1557.5,-56.5 1512.5,-56.5"/>
<text text-anchor="middle" x="1535" y="-63.5" font-family="Helvetica,sans-Serif" font-size="10.00">cstdlib</text>
</g>
<!-- Node2&#45;&gt;Node9 -->
<g id="edge8" class="edge"><title>Node2&#45;&gt;Node9</title>
<path fill="none" stroke="midnightblue" d="M1011.53,-114.513C1020.41,-113.633 1029.43,-112.769 1038,-112 1241.23,-93.7436 1297.17,-111.658 1502.51,-75.7032"/>
<polygon fill="midnightblue" stroke="midnightblue" points="1503.17,-79.1415 1512.4,-73.95 1501.94,-72.2489 1503.17,-79.1415"/>
</g>
<!-- Node10 -->
<g id="node10" class="node"><title>Node10</title>
<polygon fill="white" stroke="#bfbfbf" points="1576,-56.5 1576,-75.5 1620,-75.5 1620,-56.5 1576,-56.5"/>
<text text-anchor="middle" x="1598" y="-63.5" font-family="Helvetica,sans-Serif" font-size="10.00">cerrno</text>
</g>
<!-- Node2&#45;&gt;Node10 -->
<g id="edge9" class="edge"><title>Node2&#45;&gt;Node10</title>
<path fill="none" stroke="midnightblue" d="M1011.52,-114.44C1020.4,-113.571 1029.43,-112.73 1038,-112 1269.04,-92.3145 1332.44,-115.382 1565.6,-75.6404"/>
<polygon fill="midnightblue" stroke="midnightblue" points="1566.5,-79.038 1575.76,-73.8887 1565.31,-72.1399 1566.5,-79.038"/>
</g>
<!-- Node11 -->
<g id="node11" class="node"><title>Node11</title>
<polygon fill="white" stroke="#bfbfbf" points="1638,-56.5 1638,-75.5 1684,-75.5 1684,-56.5 1638,-56.5"/>
<text text-anchor="middle" x="1661" y="-63.5" font-family="Helvetica,sans-Serif" font-size="10.00">cstring</text>
</g>
<!-- Node2&#45;&gt;Node11 -->
<g id="edge10" class="edge"><title>Node2&#45;&gt;Node11</title>
<path fill="none" stroke="midnightblue" d="M1011.51,-114.384C1020.4,-113.523 1029.43,-112.699 1038,-112 1296.95,-90.8802 1367.74,-119.138 1627.59,-75.8743"/>
<polygon fill="midnightblue" stroke="midnightblue" points="1628.43,-79.2823 1637.71,-74.1696 1627.27,-72.3796 1628.43,-79.2823"/>
</g>
<!-- Node12 -->
<g id="node12" class="node"><title>Node12</title>
<polygon fill="white" stroke="#bfbfbf" points="0,-56.5 0,-75.5 44,-75.5 44,-56.5 0,-56.5"/>
<text text-anchor="middle" x="22" y="-63.5" font-family="Helvetica,sans-Serif" font-size="10.00">cmath</text>
</g>
<!-- Node2&#45;&gt;Node12 -->
<g id="edge11" class="edge"><title>Node2&#45;&gt;Node12</title>
<path fill="none" stroke="midnightblue" d="M888.224,-119.769C716.182,-116.049 233.048,-103.548 54.2706,-75.7537"/>
<polygon fill="midnightblue" stroke="midnightblue" points="54.6396,-72.2678 44.2075,-74.1176 53.5162,-79.1771 54.6396,-72.2678"/>
</g>
<!-- Node13 -->
<g id="node13" class="node"><title>Node13</title>
<polygon fill="white" stroke="#bfbfbf" points="62.5,-56.5 62.5,-75.5 107.5,-75.5 107.5,-56.5 62.5,-56.5"/>
<text text-anchor="middle" x="85" y="-63.5" font-family="Helvetica,sans-Serif" font-size="10.00">iosfwd</text>
</g>
<!-- Node2&#45;&gt;Node13 -->
<g id="edge12" class="edge"><title>Node2&#45;&gt;Node13</title>
<path fill="none" stroke="midnightblue" d="M888.499,-119.434C725.498,-115.008 284.115,-101.17 117.674,-75.6361"/>
<polygon fill="midnightblue" stroke="midnightblue" points="118.015,-72.146 107.586,-74.0168 116.905,-79.0576 118.015,-72.146"/>
</g>
<!-- Node14 -->
<g id="node14" class="node"><title>Node14</title>
<polygon fill="white" stroke="#bfbfbf" points="1702,-56.5 1702,-75.5 1756,-75.5 1756,-56.5 1702,-56.5"/>
<text text-anchor="middle" x="1729" y="-63.5" font-family="Helvetica,sans-Serif" font-size="10.00">iostream</text>
</g>
<!-- Node2&#45;&gt;Node14 -->
<g id="edge13" class="edge"><title>Node2&#45;&gt;Node14</title>
<path fill="none" stroke="midnightblue" d="M1011.72,-117.413C1176.05,-107.846 1616.31,-82.0871 1691.91,-75.396"/>
<polygon fill="midnightblue" stroke="midnightblue" points="1692.41,-78.863 1701.98,-74.3225 1691.67,-71.9024 1692.41,-78.863"/>
</g>
<!-- Node15 -->
<g id="node15" class="node"><title>Node15</title>
<polygon fill="white" stroke="#bfbfbf" points="126,-56.5 126,-75.5 178,-75.5 178,-56.5 126,-56.5"/>
<text text-anchor="middle" x="152" y="-63.5" font-family="Helvetica,sans-Serif" font-size="10.00">sstream</text>
</g>
<!-- Node2&#45;&gt;Node15 -->
<g id="edge14" class="edge"><title>Node2&#45;&gt;Node15</title>
<path fill="none" stroke="midnightblue" d="M888.252,-121.374C759.531,-121.287 453.172,-116.556 188.451,-75.9171"/>
<polygon fill="midnightblue" stroke="midnightblue" points="188.679,-72.4106 178.26,-74.3315 187.603,-79.3274 188.679,-72.4106"/>
</g>
<!-- Node16 -->
<g id="node16" class="node"><title>Node16</title>
<polygon fill="white" stroke="#bfbfbf" points="196.5,-56.5 196.5,-75.5 237.5,-75.5 237.5,-56.5 196.5,-56.5"/>
<text text-anchor="middle" x="217" y="-63.5" font-family="Helvetica,sans-Serif" font-size="10.00">regex</text>
</g>
<!-- Node2&#45;&gt;Node16 -->
<g id="edge15" class="edge"><title>Node2&#45;&gt;Node16</title>
<path fill="none" stroke="midnightblue" d="M888.314,-121.736C766.974,-122.171 488.865,-118.157 247.522,-75.6144"/>
<polygon fill="midnightblue" stroke="midnightblue" points="247.967,-72.1386 237.507,-73.823 246.735,-79.0293 247.967,-72.1386"/>
</g>
<!-- Node17 -->
<g id="node17" class="node"><title>Node17</title>
<polygon fill="white" stroke="#bfbfbf" points="256,-56.5 256,-75.5 306,-75.5 306,-56.5 256,-56.5"/>
<text text-anchor="middle" x="281" y="-63.5" font-family="Helvetica,sans-Serif" font-size="10.00">iomanip</text>
</g>
<!-- Node2&#45;&gt;Node17 -->
<g id="edge16" class="edge"><title>Node2&#45;&gt;Node17</title>
<path fill="none" stroke="midnightblue" d="M888.25,-120.466C775.946,-118.659 530.801,-110.863 316.017,-75.8511"/>
<polygon fill="midnightblue" stroke="midnightblue" points="316.573,-72.3956 306.136,-74.2174 315.431,-79.3018 316.573,-72.3956"/>
</g>
<!-- Node18 -->
<g id="node18" class="node"><title>Node18</title>
<polygon fill="white" stroke="#bfbfbf" points="324.5,-56.5 324.5,-75.5 375.5,-75.5 375.5,-56.5 324.5,-56.5"/>
<text text-anchor="middle" x="350" y="-63.5" font-family="Helvetica,sans-Serif" font-size="10.00">unistd.h</text>
</g>
<!-- Node2&#45;&gt;Node18 -->
<g id="edge17" class="edge"><title>Node2&#45;&gt;Node18</title>
<path fill="none" stroke="midnightblue" d="M888.125,-119.552C785.564,-116.391 573.861,-106.641 385.588,-75.7768"/>
<polygon fill="midnightblue" stroke="midnightblue" points="385.944,-72.288 375.506,-74.0997 384.796,-79.1931 385.944,-72.288"/>
</g>
<!-- Node19 -->
<g id="node19" class="node"><title>Node19</title>
<polygon fill="white" stroke="#bfbfbf" points="394,-56.5 394,-75.5 438,-75.5 438,-56.5 394,-56.5"/>
<text text-anchor="middle" x="416" y="-63.5" font-family="Helvetica,sans-Serif" font-size="10.00">fcntl.h</text>
</g>
<!-- Node2&#45;&gt;Node19 -->
<g id="edge18" class="edge"><title>Node2&#45;&gt;Node19</title>
<path fill="none" stroke="midnightblue" d="M888.307,-119.315C794.883,-115.922 611.95,-105.991 448.468,-75.9259"/>
<polygon fill="midnightblue" stroke="midnightblue" points="448.699,-72.4085 438.227,-74.0108 447.413,-79.2892 448.699,-72.4085"/>
</g>
<!-- Node20 -->
<g id="node20" class="node"><title>Node20</title>
<polygon fill="white" stroke="#bfbfbf" points="456,-56.5 456,-75.5 496,-75.5 496,-56.5 456,-56.5"/>
<text text-anchor="middle" x="476" y="-63.5" font-family="Helvetica,sans-Serif" font-size="10.00">limits</text>
</g>
<!-- Node2&#45;&gt;Node20 -->
<g id="edge19" class="edge"><title>Node2&#45;&gt;Node20</title>
<path fill="none" stroke="midnightblue" d="M888.357,-117.754C802.862,-112.558 643.709,-100.379 510,-76 508.716,-75.7659 507.409,-75.5081 506.093,-75.2323"/>
<polygon fill="midnightblue" stroke="midnightblue" points="506.555,-71.7453 496.018,-72.8568 504.948,-78.5585 506.555,-71.7453"/>
</g>
<!-- Node21 -->
<g id="node21" class="node"><title>Node21</title>
<polygon fill="white" stroke="#bfbfbf" points="1169.5,-0.5 1169.5,-19.5 1210.5,-19.5 1210.5,-0.5 1169.5,-0.5"/>
<text text-anchor="middle" x="1190" y="-7.5" font-family="Helvetica,sans-Serif" font-size="10.00">string</text>
</g>
<!-- Node2&#45;&gt;Node21 -->
<g id="edge20" class="edge"><title>Node2&#45;&gt;Node21</title>
<path fill="none" stroke="midnightblue" d="M976.168,-112.354C1000.76,-103.955 1038.42,-90.3937 1070,-76 1079.52,-71.6629 1132.99,-42.3865 1165.26,-24.6368"/>
<polygon fill="midnightblue" stroke="midnightblue" points="1167.06,-27.641 1174.13,-19.7525 1163.69,-21.5087 1167.06,-27.641"/>
</g>
<!-- Node22 -->
<g id="node22" class="node"><title>Node22</title>
<polygon fill="white" stroke="#bfbfbf" points="892,-0.5 892,-19.5 936,-19.5 936,-0.5 892,-0.5"/>
<text text-anchor="middle" x="914" y="-7.5" font-family="Helvetica,sans-Serif" font-size="10.00">vector</text>
</g>
<!-- Node2&#45;&gt;Node22 -->
<g id="edge21" class="edge"><title>Node2&#45;&gt;Node22</title>
<path fill="none" stroke="midnightblue" d="M947.175,-112.368C941.339,-94.5366 927.842,-53.2953 919.98,-29.2717"/>
<polygon fill="midnightblue" stroke="midnightblue" points="923.249,-28.0067 916.812,-19.5914 916.596,-30.1841 923.249,-28.0067"/>
</g>
<!-- Node23 -->
<g id="node23" class="node"><title>Node23</title>
<polygon fill="white" stroke="#bfbfbf" points="590.5,-56.5 590.5,-75.5 631.5,-75.5 631.5,-56.5 590.5,-56.5"/>
<text text-anchor="middle" x="611" y="-63.5" font-family="Helvetica,sans-Serif" font-size="10.00">stack</text>
</g>
<!-- Node2&#45;&gt;Node23 -->
<g id="edge22" class="edge"><title>Node2&#45;&gt;Node23</title>
<path fill="none" stroke="midnightblue" d="M888.307,-114.928C827.582,-108.303 732.135,-96.1568 641.67,-76.1075"/>
<polygon fill="midnightblue" stroke="midnightblue" points="642.328,-72.668 631.803,-73.8843 640.789,-79.4968 642.328,-72.668"/>
</g>
<!-- Node24 -->
<g id="node24" class="node"><title>Node24</title>
<polygon fill="white" stroke="#bfbfbf" points="649.5,-56.5 649.5,-75.5 692.5,-75.5 692.5,-56.5 649.5,-56.5"/>
<text text-anchor="middle" x="671" y="-63.5" font-family="Helvetica,sans-Serif" font-size="10.00">deque</text>
</g>
<!-- Node2&#45;&gt;Node24 -->
<g id="edge23" class="edge"><title>Node2&#45;&gt;Node24</title>
<path fill="none" stroke="midnightblue" d="M898.616,-112.435C849.306,-103.992 772.823,-90.3083 707,-76 705.544,-75.6835 704.058,-75.3508 702.558,-75.0074"/>
<polygon fill="midnightblue" stroke="midnightblue" points="703.19,-71.5601 692.651,-72.6432 701.566,-78.3689 703.19,-71.5601"/>
</g>
<!-- Node25 -->
<g id="node25" class="node"><title>Node25</title>
<polygon fill="white" stroke="#bfbfbf" points="512,-0.5 512,-19.5 556,-19.5 556,-0.5 512,-0.5"/>
<text text-anchor="middle" x="534" y="-7.5" font-family="Helvetica,sans-Serif" font-size="10.00">mutex</text>
</g>
<!-- Node2&#45;&gt;Node25 -->
<g id="edge24" class="edge"><title>Node2&#45;&gt;Node25</title>
<path fill="none" stroke="midnightblue" d="M888.249,-120.116C794.988,-117.714 623.697,-108.824 573,-76 556.466,-65.2949 545.934,-44.8889 540.038,-29.7847"/>
<polygon fill="midnightblue" stroke="midnightblue" points="543.187,-28.192 536.544,-19.938 536.59,-30.5327 543.187,-28.192"/>
</g>
<!-- Node26 -->
<g id="node26" class="node"><title>Node26</title>
<polygon fill="white" stroke="#bfbfbf" points="594,-0.5 594,-19.5 638,-19.5 638,-0.5 594,-0.5"/>
<text text-anchor="middle" x="616" y="-7.5" font-family="Helvetica,sans-Serif" font-size="10.00">thread</text>
</g>
<!-- Node2&#45;&gt;Node26 -->
<g id="edge25" class="edge"><title>Node2&#45;&gt;Node26</title>
<path fill="none" stroke="midnightblue" d="M888.389,-117.878C788.675,-112.188 601.001,-98.5886 581,-76 567.881,-61.1837 583.32,-40.594 597.64,-26.5853"/>
<polygon fill="midnightblue" stroke="midnightblue" points="600.294,-28.9001 605.292,-19.5583 595.559,-23.7443 600.294,-28.9001"/>
</g>
<!-- Node27 -->
<g id="node27" class="node"><title>Node27</title>
<polygon fill="white" stroke="#bfbfbf" points="670.5,-0.5 670.5,-19.5 765.5,-19.5 765.5,-0.5 670.5,-0.5"/>
<text text-anchor="middle" x="718" y="-7.5" font-family="Helvetica,sans-Serif" font-size="10.00">condition_variable</text>
</g>
<!-- Node2&#45;&gt;Node27 -->
<g id="edge26" class="edge"><title>Node2&#45;&gt;Node27</title>
<path fill="none" stroke="midnightblue" d="M888.325,-114.555C834.477,-107.744 761.646,-95.2841 740,-76 726.815,-64.2538 721.523,-44.3201 719.404,-29.6172"/>
<polygon fill="midnightblue" stroke="midnightblue" points="722.878,-29.182 718.324,-19.6157 715.918,-29.9337 722.878,-29.182"/>
</g>
<!-- Node28 -->
<g id="node28" class="node"><title>Node28</title>
<polygon fill="white" stroke="#bfbfbf" points="830.5,-0.5 830.5,-19.5 873.5,-19.5 873.5,-0.5 830.5,-0.5"/>
<text text-anchor="middle" x="852" y="-7.5" font-family="Helvetica,sans-Serif" font-size="10.00">queue</text>
</g>
<!-- Node2&#45;&gt;Node28 -->
<g id="edge27" class="edge"><title>Node2&#45;&gt;Node28</title>
<path fill="none" stroke="midnightblue" d="M942.31,-112.368C925.994,-94.0547 887.68,-51.0489 866.577,-27.3624"/>
<polygon fill="midnightblue" stroke="midnightblue" points="868.92,-24.7298 859.654,-19.5914 863.693,-29.3863 868.92,-24.7298"/>
</g>
<!-- Node29 -->
<g id="node29" class="node"><title>Node29</title>
<polygon fill="white" stroke="#bfbfbf" points="954.5,-0.5 954.5,-19.5 989.5,-19.5 989.5,-0.5 954.5,-0.5"/>
<text text-anchor="middle" x="972" y="-7.5" font-family="Helvetica,sans-Serif" font-size="10.00">map</text>
</g>
<!-- Node2&#45;&gt;Node29 -->
<g id="edge28" class="edge"><title>Node2&#45;&gt;Node29</title>
<path fill="none" stroke="midnightblue" d="M951.726,-112.368C955.277,-94.617 963.467,-53.6664 968.281,-29.5974"/>
<polygon fill="midnightblue" stroke="midnightblue" points="971.753,-30.0837 970.282,-19.5914 964.888,-28.7108 971.753,-30.0837"/>
</g>
<!-- Node30 -->
<g id="node30" class="node"><title>Node30</title>
<g id="a_node30"><a xlink:href="cosmos-defs_8h.html" target="_top" xlink:title="COSMOS definitions Definitions specific to the COSMOS environement. ">
<polygon fill="white" stroke="black" points="749,-56.5 749,-75.5 865,-75.5 865,-56.5 749,-56.5"/>
<text text-anchor="middle" x="807" y="-63.5" font-family="Helvetica,sans-Serif" font-size="10.00">support/cosmos&#45;defs.h</text>
</a>
</g>
</g>
<!-- Node2&#45;&gt;Node30 -->
<g id="edge29" class="edge"><title>Node2&#45;&gt;Node30</title>
<path fill="none" stroke="midnightblue" d="M927.341,-112.444C903.598,-103.478 866.091,-89.314 839.262,-79.1827"/>
<polygon fill="midnightblue" stroke="midnightblue" points="840.144,-75.7749 829.553,-75.5164 837.671,-82.3235 840.144,-75.7749"/>
</g>
<!-- Node32 -->
<g id="node32" class="node"><title>Node32</title>
<g id="a_node32"><a xlink:href="json11_8hpp.html" target="_top" xlink:title="json11.hpp">
<polygon fill="white" stroke="black" points="997,-56.5 997,-75.5 1061,-75.5 1061,-56.5 997,-56.5"/>
<text text-anchor="middle" x="1029" y="-63.5" font-family="Helvetica,sans-Serif" font-size="10.00">json11.hpp</text>
</a>
</g>
</g>
<!-- Node2&#45;&gt;Node32 -->
<g id="edge37" class="edge"><title>Node2&#45;&gt;Node32</title>
<path fill="none" stroke="midnightblue" d="M962.693,-112.324C974.901,-103.979 993.578,-91.2122 1008,-81.3524"/>
<polygon fill="midnightblue" stroke="midnightblue" points="1010.06,-84.1871 1016.34,-75.6545 1006.11,-78.4082 1010.06,-84.1871"/>
</g>
<!-- Node30&#45;&gt;Node22 -->
<g id="edge31" class="edge"><title>Node30&#45;&gt;Node22</title>
<path fill="none" stroke="midnightblue" d="M824.191,-56.324C841.351,-47.6641 867.946,-34.2424 887.747,-24.249"/>
<polygon fill="midnightblue" stroke="midnightblue" points="889.501,-27.2847 896.851,-19.6545 886.347,-21.0354 889.501,-27.2847"/>
</g>
<!-- Node30&#45;&gt;Node25 -->
<g id="edge35" class="edge"><title>Node30&#45;&gt;Node25</title>
<path fill="none" stroke="midnightblue" d="M763.742,-56.4435C708.834,-45.5826 615.369,-27.0949 566.287,-17.3864"/>
<polygon fill="midnightblue" stroke="midnightblue" points="566.721,-13.9046 556.232,-15.3976 565.363,-20.7716 566.721,-13.9046"/>
</g>
<!-- Node30&#45;&gt;Node26 -->
<g id="edge34" class="edge"><title>Node30&#45;&gt;Node26</title>
<path fill="none" stroke="midnightblue" d="M776.735,-56.4435C741.599,-46.5098 683.896,-30.1958 648.026,-20.0544"/>
<polygon fill="midnightblue" stroke="midnightblue" points="648.659,-16.5964 638.084,-17.2437 646.755,-23.3324 648.659,-16.5964"/>
</g>
<!-- Node30&#45;&gt;Node27 -->
<g id="edge36" class="edge"><title>Node30&#45;&gt;Node27</title>
<path fill="none" stroke="midnightblue" d="M792.701,-56.324C778.817,-47.9002 757.508,-34.9709 741.196,-25.0741"/>
<polygon fill="midnightblue" stroke="midnightblue" points="742.629,-21.8495 732.264,-19.6545 738.998,-27.8341 742.629,-21.8495"/>
</g>
<!-- Node30&#45;&gt;Node28 -->
<g id="edge33" class="edge"><title>Node30&#45;&gt;Node28</title>
<path fill="none" stroke="midnightblue" d="M814.431,-56.083C820.853,-48.3768 830.306,-37.0333 838.122,-27.6531"/>
<polygon fill="midnightblue" stroke="midnightblue" points="840.994,-29.674 844.707,-19.7511 835.617,-25.1927 840.994,-29.674"/>
</g>
<!-- Node30&#45;&gt;Node29 -->
<g id="edge30" class="edge"><title>Node30&#45;&gt;Node29</title>
<path fill="none" stroke="midnightblue" d="M833.472,-56.4245C859.42,-48.0066 900.333,-34.7006 944.758,-20.0648"/>
<polygon fill="midnightblue" stroke="midnightblue" points="945.886,-23.3783 954.287,-16.9228 943.694,-16.7304 945.886,-23.3783"/>
</g>
<!-- Node31 -->
<g id="node31" class="node"><title>Node31</title>
<polygon fill="white" stroke="#bfbfbf" points="783.5,-0.5 783.5,-19.5 812.5,-19.5 812.5,-0.5 783.5,-0.5"/>
<text text-anchor="middle" x="798" y="-7.5" font-family="Helvetica,sans-Serif" font-size="10.00">list</text>
</g>
<!-- Node30&#45;&gt;Node31 -->
<g id="edge32" class="edge"><title>Node30&#45;&gt;Node31</title>
<path fill="none" stroke="midnightblue" d="M805.514,-56.083C804.321,-48.9272 802.606,-38.6353 801.115,-29.6911"/>
<polygon fill="midnightblue" stroke="midnightblue" points="804.555,-29.0396 799.459,-19.7511 797.65,-30.1904 804.555,-29.0396"/>
</g>
<!-- Node32&#45;&gt;Node21 -->
<g id="edge38" class="edge"><title>Node32&#45;&gt;Node21</title>
<path fill="none" stroke="midnightblue" d="M1054.51,-56.4435C1083.03,-46.8782 1129.19,-31.3969 1159.57,-21.2075"/>
<polygon fill="midnightblue" stroke="midnightblue" points="1160.85,-24.4693 1169.22,-17.971 1158.62,-17.8327 1160.85,-24.4693"/>
</g>
<!-- Node32&#45;&gt;Node22 -->
<g id="edge39" class="edge"><title>Node32&#45;&gt;Node22</title>
<path fill="none" stroke="midnightblue" d="M1010.78,-56.4435C992.104,-47.6751 962.844,-33.9355 941.383,-23.8579"/>
<polygon fill="midnightblue" stroke="midnightblue" points="942.676,-20.5988 932.137,-19.5164 939.701,-26.935 942.676,-20.5988"/>
</g>
<!-- Node32&#45;&gt;Node29 -->
<g id="edge40" class="edge"><title>Node32&#45;&gt;Node29</title>
<path fill="none" stroke="midnightblue" d="M1019.84,-56.324C1011.5,-48.4196 998.968,-36.5482 988.823,-26.9377"/>
<polygon fill="midnightblue" stroke="midnightblue" points="990.991,-24.1705 981.325,-19.8339 986.177,-29.2522 990.991,-24.1705"/>
</g>
<!-- Node33 -->
<g id="node33" class="node"><title>Node33</title>
<polygon fill="white" stroke="#bfbfbf" points="1008,-0.5 1008,-19.5 1060,-19.5 1060,-0.5 1008,-0.5"/>
<text text-anchor="middle" x="1034" y="-7.5" font-family="Helvetica,sans-Serif" font-size="10.00">memory</text>
</g>
<!-- Node32&#45;&gt;Node33 -->
<g id="edge41" class="edge"><title>Node32&#45;&gt;Node33</title>
<path fill="none" stroke="midnightblue" d="M1029.83,-56.083C1030.48,-49.0059 1031.42,-38.8611 1032.24,-29.9865"/>
<polygon fill="midnightblue" stroke="midnightblue" points="1035.75,-30.0312 1033.19,-19.7511 1028.78,-29.3858 1035.75,-30.0312"/>
</g>
<!-- Node34 -->
<g id="node34" class="node"><title>Node34</title>
<polygon fill="white" stroke="#bfbfbf" points="1078.5,-0.5 1078.5,-19.5 1151.5,-19.5 1151.5,-0.5 1078.5,-0.5"/>
<text text-anchor="middle" x="1115" y="-7.5" font-family="Helvetica,sans-Serif" font-size="10.00">initializer_list</text>
</g>
<!-- Node32&#45;&gt;Node34 -->
<g id="edge42" class="edge"><title>Node32&#45;&gt;Node34</title>
<path fill="none" stroke="midnightblue" d="M1042.82,-56.324C1056.23,-47.9002 1076.82,-34.9709 1092.59,-25.0741"/>
<polygon fill="midnightblue" stroke="midnightblue" points="1094.61,-27.9364 1101.22,-19.6545 1090.89,-22.0081 1094.61,-27.9364"/>
</g>
<!-- Node35&#45;&gt;Node2 -->
<g id="edge44" class="edge"><title>Node35&#45;&gt;Node2</title>
<path fill="none" stroke="midnightblue" d="M1038.93,-280.364C1027.39,-272.169 1010.75,-258.914 1000,-244 976.6,-211.542 961.739,-166.507 954.738,-141.54"/>
<polygon fill="midnightblue" stroke="midnightblue" points="958.043,-140.351 952.072,-131.599 951.282,-142.164 958.043,-140.351"/>
</g>
<!-- Node36 -->
<g id="node36" class="node"><title>Node36</title>
<g id="a_node36"><a xlink:href="sliplib_8h.html" target="_top" xlink:title="COSMOS SLIP support include file. ">
<polygon fill="white" stroke="black" points="1009.5,-224.5 1009.5,-243.5 1094.5,-243.5 1094.5,-224.5 1009.5,-224.5"/>
<text text-anchor="middle" x="1052" y="-231.5" font-family="Helvetica,sans-Serif" font-size="10.00">support/sliplib.h</text>
</a>
</g>
</g>
<!-- Node35&#45;&gt;Node36 -->
<g id="edge45" class="edge"><title>Node35&#45;&gt;Node36</title>
<path fill="none" stroke="midnightblue" d="M1052,-280.083C1052,-273.006 1052,-262.861 1052,-253.986"/>
<polygon fill="midnightblue" stroke="midnightblue" points="1055.5,-253.751 1052,-243.751 1048.5,-253.751 1055.5,-253.751"/>
</g>
<!-- Node37 -->
<g id="node37" class="node"><title>Node37</title>
<g id="a_node37"><a xlink:href="cosmos-errno_8h.html" target="_top" xlink:title="COSMOS Error Codes. ">
<polygon fill="white" stroke="black" points="1080.5,-168.5 1080.5,-187.5 1199.5,-187.5 1199.5,-168.5 1080.5,-168.5"/>
<text text-anchor="middle" x="1140" y="-175.5" font-family="Helvetica,sans-Serif" font-size="10.00">support/cosmos&#45;errno.h</text>
</a>
</g>
</g>
<!-- Node35&#45;&gt;Node37 -->
<g id="edge51" class="edge"><title>Node35&#45;&gt;Node37</title>
<path fill="none" stroke="midnightblue" d="M1063.95,-280.308C1074.98,-271.876 1091.38,-258.293 1103,-244 1114.88,-229.388 1125.17,-210.47 1131.87,-196.815"/>
<polygon fill="midnightblue" stroke="midnightblue" points="1135.13,-198.093 1136.25,-187.557 1128.81,-195.098 1135.13,-198.093"/>
</g>
<!-- Node36&#45;&gt;Node2 -->
<g id="edge46" class="edge"><title>Node36&#45;&gt;Node2</title>
<path fill="none" stroke="midnightblue" d="M1044,-224.368C1026.94,-205.974 986.786,-162.671 964.884,-139.052"/>
<polygon fill="midnightblue" stroke="midnightblue" points="967.332,-136.544 957.967,-131.591 962.2,-141.304 967.332,-136.544"/>
</g>
<!-- Node36&#45;&gt;Node11 -->
<g id="edge50" class="edge"><title>Node36&#45;&gt;Node11</title>
<path fill="none" stroke="midnightblue" d="M1052.72,-224.411C1055.2,-201.042 1065.69,-136.436 1107,-112 1204.44,-54.3631 1498.37,-93.6463 1627.58,-75.7318"/>
<polygon fill="midnightblue" stroke="midnightblue" points="1628.37,-79.151 1637.71,-74.1475 1627.29,-72.2351 1628.37,-79.151"/>
</g>
<!-- Node36&#45;&gt;Node37 -->
<g id="edge47" class="edge"><title>Node36&#45;&gt;Node37</title>
<path fill="none" stroke="midnightblue" d="M1066.14,-224.324C1079.87,-215.9 1100.94,-202.971 1117.06,-193.074"/>
<polygon fill="midnightblue" stroke="midnightblue" points="1119.2,-195.868 1125.9,-187.655 1115.54,-189.902 1119.2,-195.868"/>
</g>
<!-- Node37&#45;&gt;Node2 -->
<g id="edge48" class="edge"><title>Node37&#45;&gt;Node2</title>
<path fill="none" stroke="midnightblue" d="M1109.89,-168.444C1077.37,-159.201 1025.42,-144.436 989.609,-134.257"/>
<polygon fill="midnightblue" stroke="midnightblue" points="990.541,-130.884 979.965,-131.516 988.627,-137.617 990.541,-130.884"/>
</g>
<!-- Node38 -->
<g id="node38" class="node"><title>Node38</title>
<polygon fill="white" stroke="#bfbfbf" points="1116.5,-112.5 1116.5,-131.5 1163.5,-131.5 1163.5,-112.5 1116.5,-112.5"/>
<text text-anchor="middle" x="1140" y="-119.5" font-family="Helvetica,sans-Serif" font-size="10.00">errno.h</text>
</g>
<!-- Node37&#45;&gt;Node38 -->
<g id="edge49" class="edge"><title>Node37&#45;&gt;Node38</title>
<path fill="none" stroke="midnightblue" d="M1140,-168.083C1140,-161.006 1140,-150.861 1140,-141.986"/>
<polygon fill="midnightblue" stroke="midnightblue" points="1143.5,-141.751 1140,-131.751 1136.5,-141.751 1143.5,-141.751"/>
</g>
<!-- Node39&#45;&gt;Node2 -->
<g id="edge53" class="edge"><title>Node39&#45;&gt;Node2</title>
<path fill="none" stroke="midnightblue" d="M1457.34,-171.575C1354.03,-161.684 1135.25,-140.737 1021.73,-129.867"/>
<polygon fill="midnightblue" stroke="midnightblue" points="1022.03,-126.38 1011.74,-128.911 1021.36,-133.349 1022.03,-126.38"/>
</g>
<!-- Node39&#45;&gt;Node14 -->
<g id="edge54" class="edge"><title>Node39&#45;&gt;Node14</title>
<path fill="none" stroke="midnightblue" d="M1509.7,-168.286C1503.64,-154.631 1494.74,-128.091 1508,-112 1559.3,-49.7585 1607.52,-90.844 1691.98,-75.9196"/>
<polygon fill="midnightblue" stroke="midnightblue" points="1692.79,-79.3272 1701.91,-73.9354 1691.42,-72.4629 1692.79,-79.3272"/>
</g>
<!-- Node39&#45;&gt;Node21 -->
<g id="edge55" class="edge"><title>Node39&#45;&gt;Node21</title>
<path fill="none" stroke="midnightblue" d="M1570.79,-170.057C1662.44,-156.728 1826.75,-122.77 1765,-56 1727.83,-15.8071 1334.54,-11.4454 1220.7,-11.0277"/>
<polygon fill="midnightblue" stroke="midnightblue" points="1220.59,-7.5275 1210.58,-10.9986 1220.57,-14.5275 1220.59,-7.5275"/>
</g>
<!-- Node40 -->
<g id="node40" class="node"><title>Node40</title>
<polygon fill="white" stroke="#bfbfbf" points="1517.5,-112.5 1517.5,-131.5 1558.5,-131.5 1558.5,-112.5 1517.5,-112.5"/>
<text text-anchor="middle" x="1538" y="-119.5" font-family="Helvetica,sans-Serif" font-size="10.00">ctime</text>
</g>
<!-- Node39&#45;&gt;Node40 -->
<g id="edge56" class="edge"><title>Node39&#45;&gt;Node40</title>
<path fill="none" stroke="midnightblue" d="M1517.96,-168.083C1521.21,-160.77 1525.92,-150.181 1529.95,-141.103"/>
<polygon fill="midnightblue" stroke="midnightblue" points="1533.25,-142.311 1534.11,-131.751 1526.85,-139.468 1533.25,-142.311"/>
</g>
<!-- Node41 -->
<g id="node41" class="node"><title>Node41</title>
<polygon fill="white" stroke="#bfbfbf" points="1577,-112.5 1577,-131.5 1623,-131.5 1623,-112.5 1577,-112.5"/>
<text text-anchor="middle" x="1600" y="-119.5" font-family="Helvetica,sans-Serif" font-size="10.00">chrono</text>
</g>
<!-- Node39&#45;&gt;Node41 -->
<g id="edge57" class="edge"><title>Node39&#45;&gt;Node41</title>
<path fill="none" stroke="midnightblue" d="M1527.82,-168.324C1541.23,-159.9 1561.82,-146.971 1577.59,-137.074"/>
<polygon fill="midnightblue" stroke="midnightblue" points="1579.61,-139.936 1586.22,-131.655 1575.89,-134.008 1579.61,-139.936"/>
</g>
</g>
</svg>
        <g id="navigator" transform="translate(0 0)" fill="#404254">
                <rect fill="#f2f5e9" fill-opacity="0.5" stroke="#606060" stroke-width=".5" x="0" y="0" width="60" height="60"/>
                <use id="zoomplus" xlink:href="#zoomPlus" x="17" y="9" onmousedown="handleZoom(evt,'in')"/>
                <use id="zoomminus" xlink:href="#zoomMin" x="42" y="9" onmousedown="handleZoom(evt,'out')"/>
                <use id="reset" xlink:href="#resetDef" x="30" y="36" onmousedown="handleReset()"/>
                <g id="arrowUp" xlink:href="#dirArrow" transform="translate(30 24)" onmousedown="handlePan(0,-1)">
                  <use xlink:href="#rim" fill="#404040">
                        <set attributeName="fill" to="#808080" begin="arrowUp.mouseover" end="arrowUp.mouseout"/>
                  </use>
                  <path fill="none" stroke="white" stroke-width="1.5" d="M0,-3.0v7 M-2.5,-0.5L0,-3.0L2.5,-0.5"/>
                </g>
                <g id="arrowRight" xlink:href="#dirArrow" transform="rotate(90) translate(36 -43)" onmousedown="handlePan(1,0)">
                  <use xlink:href="#rim" fill="#404040">
                        <set attributeName="fill" to="#808080" begin="arrowRight.mouseover" end="arrowRight.mouseout"/>
                  </use>
                  <path fill="none" stroke="white" stroke-width="1.5" d="M0,-3.0v7 M-2.5,-0.5L0,-3.0L2.5,-0.5"/>
                </g>
                <g id="arrowDown" xlink:href="#dirArrow" transform="rotate(180) translate(-30 -48)" onmousedown="handlePan(0,1)">
                  <use xlink:href="#rim" fill="#404040">
                        <set attributeName="fill" to="#808080" begin="arrowDown.mouseover" end="arrowDown.mouseout"/>
                  </use>
                  <path fill="none" stroke="white" stroke-width="1.5" d="M0,-3.0v7 M-2.5,-0.5L0,-3.0L2.5,-0.5"/>
                </g>
                <g id="arrowLeft" xlink:href="#dirArrow" transform="rotate(270) translate(-36 17)" onmousedown="handlePan(-1,0)">
                  <use xlink:href="#rim" fill="#404040">
                        <set attributeName="fill" to="#808080" begin="arrowLeft.mouseover" end="arrowLeft.mouseout"/>
                  </use>
                  <path fill="none" stroke="white" stroke-width="1.5" d="M0,-3.0v7 M-2.5,-0.5L0,-3.0L2.5,-0.5"/>
                </g>
        </g>
        <svg viewBox="0 0 15 15" width="100%" height="30px" preserveAspectRatio="xMaxYMin meet">
         <g id="arrow_out" transform="scale(0.3 0.3)">
          <a xlink:href="serialclass_8cpp__incl_org.svg" target="_base">
           <rect id="button" ry="5" rx="5" y="6" x="6" height="38" width="38"
                fill="#f2f5e9" fill-opacity="0.5" stroke="#606060" stroke-width="1.0"/>
           <path id="arrow"
             d="M 11.500037,31.436501 C 11.940474,20.09759 22.043105,11.32322 32.158766,21.979434 L 37.068811,17.246167 C 37.068811,17.246167 37.088388,32 37.088388,32 L 22.160133,31.978069 C 22.160133,31.978069 26.997745,27.140456 26.997745,27.140456 C 18.528582,18.264221 13.291696,25.230495 11.500037,31.436501 z"
             style="fill:#404040;"/>
          </a>
         </g>
        </svg>
</svg>
