<?xml version="1.0" encoding="UTF-8" standalone="no"?>
<!DOCTYPE svg PUBLIC "-//W3C//DTD SVG 1.1//EN"
 "http://www.w3.org/Graphics/SVG/1.1/DTD/svg11.dtd">
<!-- Generated by graphviz version 2.38.0 (20140413.2041)
 -->
<!-- Title: serialclass.h Pages: 1 -->
<svg width="1483pt" height="140pt"
 viewBox="0.00 0.00 1482.50 140.00" xmlns="http://www.w3.org/2000/svg" xmlns:xlink="http://www.w3.org/1999/xlink">
<g id="graph0" class="graph" transform="scale(1 1) rotate(0) translate(4 136)">
<title>serialclass.h</title>
<polygon fill="white" stroke="none" points="-4,4 -4,-136 1478.5,-136 1478.5,4 -4,4"/>
<!-- Node1 -->
<g id="node1" class="node"><title>Node1</title>
<polygon fill="#bfbfbf" stroke="black" points="839,-112.5 839,-131.5 910,-131.5 910,-112.5 839,-112.5"/>
<text text-anchor="middle" x="874.5" y="-119.5" font-family="Helvetica,sans-Serif" font-size="10.00">serialclass.h</text>
</g>
<!-- Node2 -->
<g id="node2" class="node"><title>Node2</title>
<g id="a_node2"><a xlink:href="ic9100__lib_8h.html" target="_top" xlink:title="ic9100_lib.h">
<polygon fill="white" stroke="black" points="201.5,-56.5 201.5,-75.5 269.5,-75.5 269.5,-56.5 201.5,-56.5"/>
<text text-anchor="middle" x="235.5" y="-63.5" font-family="Helvetica,sans-Serif" font-size="10.00">ic9100_lib.h</text>
</a>
</g>
</g>
<!-- Node1&#45;&gt;Node2 -->
<g id="edge1" class="edge"><title>Node1&#45;&gt;Node2</title>
<path fill="none" stroke="midnightblue" d="M828.667,-117.127C706.876,-106.835 377.171,-78.9722 269.802,-69.8988"/>
<polygon fill="midnightblue" stroke="midnightblue" points="828.516,-120.626 838.775,-117.981 829.106,-113.651 828.516,-120.626"/>
</g>
<!-- Node7 -->
<g id="node7" class="node"><title>Node7</title>
<g id="a_node7"><a xlink:href="prkx2su__class_8h.html" target="_top" xlink:title="prkx2su_class.h">
<polygon fill="white" stroke="black" points="388.5,-56.5 388.5,-75.5 476.5,-75.5 476.5,-56.5 388.5,-56.5"/>
<text text-anchor="middle" x="432.5" y="-63.5" font-family="Helvetica,sans-Serif" font-size="10.00">prkx2su_class.h</text>
</a>
</g>
</g>
<!-- Node1&#45;&gt;Node7 -->
<g id="edge6" class="edge"><title>Node1&#45;&gt;Node7</title>
<path fill="none" stroke="midnightblue" d="M828.731,-116.138C756.834,-108.383 613.076,-92.41 491.5,-76 486.674,-75.3486 481.631,-74.633 476.614,-73.8988"/>
<polygon fill="midnightblue" stroke="midnightblue" points="828.49,-119.632 838.807,-117.221 829.238,-112.672 828.49,-119.632"/>
</g>
<!-- Node9 -->
<g id="node9" class="node"><title>Node9</title>
<g id="a_node9"><a xlink:href="prkx2su__lib_8h.html" target="_top" xlink:title="prkx2su controller includes ">
<polygon fill="white" stroke="black" points="500.5,-56.5 500.5,-75.5 574.5,-75.5 574.5,-56.5 500.5,-56.5"/>
<text text-anchor="middle" x="537.5" y="-63.5" font-family="Helvetica,sans-Serif" font-size="10.00">prkx2su_lib.h</text>
</a>
</g>
</g>
<!-- Node1&#45;&gt;Node9 -->
<g id="edge8" class="edge"><title>Node1&#45;&gt;Node9</title>
<path fill="none" stroke="midnightblue" d="M828.378,-114.446C770.917,-106.148 669.777,-91.1049 583.5,-76 580.614,-75.4948 577.631,-74.9537 574.634,-74.3968"/>
<polygon fill="midnightblue" stroke="midnightblue" points="828.188,-117.955 838.585,-115.916 829.186,-111.026 828.188,-117.955"/>
</g>
<!-- Node12 -->
<g id="node12" class="node"><title>Node12</title>
<g id="a_node12"><a xlink:href="unixgpio_8h.html" target="_top" xlink:title="unixgpio.h">
<polygon fill="white" stroke="black" points="593,-56.5 593,-75.5 654,-75.5 654,-56.5 593,-56.5"/>
<text text-anchor="middle" x="623.5" y="-63.5" font-family="Helvetica,sans-Serif" font-size="10.00">unixgpio.h</text>
</a>
</g>
</g>
<!-- Node1&#45;&gt;Node12 -->
<g id="edge11" class="edge"><title>Node1&#45;&gt;Node12</title>
<path fill="none" stroke="midnightblue" d="M828.807,-111.409C786.048,-102.397 720.405,-88.4695 663.5,-76 660.441,-75.3296 657.251,-74.6238 654.067,-73.9145"/>
<polygon fill="midnightblue" stroke="midnightblue" points="828.126,-114.842 838.633,-113.478 829.569,-107.993 828.126,-114.842"/>
</g>
<!-- Node14 -->
<g id="node14" class="node"><title>Node14</title>
<g id="a_node14"><a xlink:href="serialclass_8cpp.html" target="_top" xlink:title="serialclass.cpp">
<polygon fill="white" stroke="black" points="672.5,-56.5 672.5,-75.5 754.5,-75.5 754.5,-56.5 672.5,-56.5"/>
<text text-anchor="middle" x="713.5" y="-63.5" font-family="Helvetica,sans-Serif" font-size="10.00">serialclass.cpp</text>
</a>
</g>
</g>
<!-- Node1&#45;&gt;Node14 -->
<g id="edge13" class="edge"><title>Node1&#45;&gt;Node14</title>
<path fill="none" stroke="midnightblue" d="M839.235,-109.172C808.919,-99.0039 765.93,-84.5852 738.892,-75.5164"/>
<polygon fill="midnightblue" stroke="midnightblue" points="838.395,-112.582 848.989,-112.444 840.621,-105.945 838.395,-112.582"/>
</g>
<!-- Node15 -->
<g id="node15" class="node"><title>Node15</title>
<g id="a_node15"><a xlink:href="agent__tunnel_8cpp.html" target="_top" xlink:title="agent_tunnel.cpp">
<polygon fill="white" stroke="black" points="773,-56.5 773,-75.5 864,-75.5 864,-56.5 773,-56.5"/>
<text text-anchor="middle" x="818.5" y="-63.5" font-family="Helvetica,sans-Serif" font-size="10.00">agent_tunnel.cpp</text>
</a>
</g>
</g>
<!-- Node1&#45;&gt;Node15 -->
<g id="edge14" class="edge"><title>Node1&#45;&gt;Node15</title>
<path fill="none" stroke="midnightblue" d="M858.17,-105.253C848.235,-95.6731 835.912,-83.7906 827.661,-75.8339"/>
<polygon fill="midnightblue" stroke="midnightblue" points="855.875,-107.902 865.503,-112.324 860.734,-102.863 855.875,-107.902"/>
</g>
<!-- Node16 -->
<g id="node16" class="node"><title>Node16</title>
<g id="a_node16"><a xlink:href="agent__tunnel2_8cpp.html" target="_top" xlink:title="agent_tunnel2.cpp">
<polygon fill="white" stroke="black" points="882.5,-56.5 882.5,-75.5 978.5,-75.5 978.5,-56.5 882.5,-56.5"/>
<text text-anchor="middle" x="930.5" y="-63.5" font-family="Helvetica,sans-Serif" font-size="10.00">agent_tunnel2.cpp</text>
</a>
</g>
</g>
<!-- Node1&#45;&gt;Node16 -->
<g id="edge15" class="edge"><title>Node1&#45;&gt;Node16</title>
<path fill="none" stroke="midnightblue" d="M890.83,-105.253C900.765,-95.6731 913.088,-83.7906 921.339,-75.8339"/>
<polygon fill="midnightblue" stroke="midnightblue" points="888.266,-102.863 883.497,-112.324 893.125,-107.902 888.266,-102.863"/>
</g>
<!-- Node17 -->
<g id="node17" class="node"><title>Node17</title>
<g id="a_node17"><a xlink:href="ax25__recv_8cpp.html" target="_top" xlink:title="ax25_recv.cpp">
<polygon fill="white" stroke="black" points="996.5,-56.5 996.5,-75.5 1076.5,-75.5 1076.5,-56.5 996.5,-56.5"/>
<text text-anchor="middle" x="1036.5" y="-63.5" font-family="Helvetica,sans-Serif" font-size="10.00">ax25_recv.cpp</text>
</a>
</g>
</g>
<!-- Node1&#45;&gt;Node17 -->
<g id="edge16" class="edge"><title>Node1&#45;&gt;Node17</title>
<path fill="none" stroke="midnightblue" d="M909.984,-109.172C940.488,-99.0039 983.745,-84.5852 1010.95,-75.5164"/>
<polygon fill="midnightblue" stroke="midnightblue" points="908.549,-105.961 900.169,-112.444 910.763,-112.602 908.549,-105.961"/>
</g>
<!-- Node18 -->
<g id="node18" class="node"><title>Node18</title>
<g id="a_node18"><a xlink:href="kiss__recv_8cpp.html" target="_top" xlink:title="kiss_recv.cpp">
<polygon fill="white" stroke="black" points="1095,-56.5 1095,-75.5 1172,-75.5 1172,-56.5 1095,-56.5"/>
<text text-anchor="middle" x="1133.5" y="-63.5" font-family="Helvetica,sans-Serif" font-size="10.00">kiss_recv.cpp</text>
</a>
</g>
</g>
<!-- Node1&#45;&gt;Node18 -->
<g id="edge17" class="edge"><title>Node1&#45;&gt;Node18</title>
<path fill="none" stroke="midnightblue" d="M920.056,-111.502C969.625,-101.167 1048.03,-84.82 1094.75,-75.0792"/>
<polygon fill="midnightblue" stroke="midnightblue" points="919.316,-108.081 910.241,-113.548 920.745,-114.933 919.316,-108.081"/>
</g>
<!-- Node19 -->
<g id="node19" class="node"><title>Node19</title>
<g id="a_node19"><a xlink:href="kiss__send_8cpp.html" target="_top" xlink:title="kiss_send.cpp">
<polygon fill="white" stroke="black" points="1190.5,-56.5 1190.5,-75.5 1270.5,-75.5 1270.5,-56.5 1190.5,-56.5"/>
<text text-anchor="middle" x="1230.5" y="-63.5" font-family="Helvetica,sans-Serif" font-size="10.00">kiss_send.cpp</text>
</a>
</g>
</g>
<!-- Node1&#45;&gt;Node19 -->
<g id="edge18" class="edge"><title>Node1&#45;&gt;Node19</title>
<path fill="none" stroke="midnightblue" d="M919.927,-114.864C979.917,-106.641 1088.8,-91.3016 1181.5,-76 1184.4,-75.521 1187.4,-75.0106 1190.41,-74.4854"/>
<polygon fill="midnightblue" stroke="midnightblue" points="919.453,-111.396 910.019,-116.218 920.401,-118.331 919.453,-111.396"/>
</g>
<!-- Node20 -->
<g id="node20" class="node"><title>Node20</title>
<g id="a_node20"><a xlink:href="serial__listen_8cpp.html" target="_top" xlink:title="serial_listen.cpp">
<polygon fill="white" stroke="black" points="1289,-56.5 1289,-75.5 1376,-75.5 1376,-56.5 1289,-56.5"/>
<text text-anchor="middle" x="1332.5" y="-63.5" font-family="Helvetica,sans-Serif" font-size="10.00">serial_listen.cpp</text>
</a>
</g>
</g>
<!-- Node1&#45;&gt;Node20 -->
<g id="edge19" class="edge"><title>Node1&#45;&gt;Node20</title>
<path fill="none" stroke="midnightblue" d="M920.131,-116.794C995.233,-109.677 1149.52,-94.2411 1279.5,-76 1282.55,-75.5719 1285.69,-75.1047 1288.86,-74.6155"/>
<polygon fill="midnightblue" stroke="midnightblue" points="919.698,-113.319 910.07,-117.742 920.355,-120.288 919.698,-113.319"/>
</g>
<!-- Node21 -->
<g id="node21" class="node"><title>Node21</title>
<g id="a_node21"><a xlink:href="serial__talk_8cpp.html" target="_top" xlink:title="serial_talk.cpp">
<polygon fill="white" stroke="black" points="1394.5,-56.5 1394.5,-75.5 1474.5,-75.5 1474.5,-56.5 1394.5,-56.5"/>
<text text-anchor="middle" x="1434.5" y="-63.5" font-family="Helvetica,sans-Serif" font-size="10.00">serial_talk.cpp</text>
</a>
</g>
</g>
<!-- Node1&#45;&gt;Node21 -->
<g id="edge20" class="edge"><title>Node1&#45;&gt;Node21</title>
<path fill="none" stroke="midnightblue" d="M920.348,-118.41C1009.99,-113.025 1214.66,-99.1599 1385.5,-76 1388.41,-75.605 1391.42,-75.1561 1394.44,-74.6747"/>
<polygon fill="midnightblue" stroke="midnightblue" points="920.025,-114.923 910.25,-119.009 920.44,-121.91 920.025,-114.923"/>
</g>
<!-- Node3 -->
<g id="node3" class="node"><title>Node3</title>
<g id="a_node3"><a xlink:href="ic9100__lib_8cpp.html" target="_top" xlink:title="ic9100_lib.cpp">
<polygon fill="white" stroke="black" points="0,-0.5 0,-19.5 79,-19.5 79,-0.5 0,-0.5"/>
<text text-anchor="middle" x="39.5" y="-7.5" font-family="Helvetica,sans-Serif" font-size="10.00">ic9100_lib.cpp</text>
</a>
</g>
</g>
<!-- Node2&#45;&gt;Node3 -->
<g id="edge2" class="edge"><title>Node2&#45;&gt;Node3</title>
<path fill="none" stroke="midnightblue" d="M194.48,-53.6986C157.489,-43.507 103.9,-28.7429 70.4115,-19.5164"/>
<polygon fill="midnightblue" stroke="midnightblue" points="193.873,-57.1616 204.443,-56.4435 195.732,-50.4131 193.873,-57.1616"/>
</g>
<!-- Node4 -->
<g id="node4" class="node"><title>Node4</title>
<g id="a_node4"><a xlink:href="add__radio_8cpp.html" target="_top" xlink:title="add_radio.cpp">
<polygon fill="white" stroke="black" points="97,-0.5 97,-19.5 174,-19.5 174,-0.5 97,-0.5"/>
<text text-anchor="middle" x="135.5" y="-7.5" font-family="Helvetica,sans-Serif" font-size="10.00">add_radio.cpp</text>
</a>
</g>
</g>
<!-- Node2&#45;&gt;Node4 -->
<g id="edge3" class="edge"><title>Node2&#45;&gt;Node4</title>
<path fill="none" stroke="midnightblue" d="M210.412,-51.4526C191.951,-41.4835 167.403,-28.2279 151.527,-19.6545"/>
<polygon fill="midnightblue" stroke="midnightblue" points="208.971,-54.6521 219.433,-56.324 212.297,-48.4928 208.971,-54.6521"/>
</g>
<!-- Node5 -->
<g id="node5" class="node"><title>Node5</title>
<g id="a_node5"><a xlink:href="agent__radio_8cpp.html" target="_top" xlink:title="Agent Radio for Satellite Ground Station. ">
<polygon fill="white" stroke="black" points="192.5,-0.5 192.5,-19.5 278.5,-19.5 278.5,-0.5 192.5,-0.5"/>
<text text-anchor="middle" x="235.5" y="-7.5" font-family="Helvetica,sans-Serif" font-size="10.00">agent_radio.cpp</text>
</a>
</g>
</g>
<!-- Node2&#45;&gt;Node5 -->
<g id="edge4" class="edge"><title>Node2&#45;&gt;Node5</title>
<path fill="none" stroke="midnightblue" d="M235.5,-45.8045C235.5,-36.9102 235.5,-26.7798 235.5,-19.7511"/>
<polygon fill="midnightblue" stroke="midnightblue" points="232,-46.083 235.5,-56.083 239,-46.083 232,-46.083"/>
</g>
<!-- Node6 -->
<g id="node6" class="node"><title>Node6</title>
<g id="a_node6"><a xlink:href="ic9100_8cpp.html" target="_top" xlink:title="ic9100.cpp">
<polygon fill="white" stroke="black" points="296.5,-0.5 296.5,-19.5 360.5,-19.5 360.5,-0.5 296.5,-0.5"/>
<text text-anchor="middle" x="328.5" y="-7.5" font-family="Helvetica,sans-Serif" font-size="10.00">ic9100.cpp</text>
</a>
</g>
</g>
<!-- Node2&#45;&gt;Node6 -->
<g id="edge5" class="edge"><title>Node2&#45;&gt;Node6</title>
<path fill="none" stroke="midnightblue" d="M259.306,-51.1774C276.419,-41.2407 298.965,-28.1492 313.595,-19.6545"/>
<polygon fill="midnightblue" stroke="midnightblue" points="257.332,-48.2758 250.442,-56.324 260.847,-54.3293 257.332,-48.2758"/>
</g>
<!-- Node8 -->
<g id="node8" class="node"><title>Node8</title>
<g id="a_node8"><a xlink:href="prkx2su__class_8cpp.html" target="_top" xlink:title="prkx2su_class.cpp">
<polygon fill="white" stroke="black" points="378.5,-0.5 378.5,-19.5 476.5,-19.5 476.5,-0.5 378.5,-0.5"/>
<text text-anchor="middle" x="427.5" y="-7.5" font-family="Helvetica,sans-Serif" font-size="10.00">prkx2su_class.cpp</text>
</a>
</g>
</g>
<!-- Node7&#45;&gt;Node8 -->
<g id="edge7" class="edge"><title>Node7&#45;&gt;Node8</title>
<path fill="none" stroke="midnightblue" d="M430.75,-46.1005C429.92,-37.1357 428.968,-26.8579 428.31,-19.7511"/>
<polygon fill="midnightblue" stroke="midnightblue" points="427.267,-46.4483 431.674,-56.083 434.237,-45.8029 427.267,-46.4483"/>
</g>
<!-- Node10 -->
<g id="node10" class="node"><title>Node10</title>
<g id="a_node10"><a xlink:href="prkx2su__lib_8cpp.html" target="_top" xlink:title="prkx2su_lib.cpp">
<polygon fill="white" stroke="black" points="495,-0.5 495,-19.5 580,-19.5 580,-0.5 495,-0.5"/>
<text text-anchor="middle" x="537.5" y="-7.5" font-family="Helvetica,sans-Serif" font-size="10.00">prkx2su_lib.cpp</text>
</a>
</g>
</g>
<!-- Node9&#45;&gt;Node10 -->
<g id="edge9" class="edge"><title>Node9&#45;&gt;Node10</title>
<path fill="none" stroke="midnightblue" d="M537.5,-45.8045C537.5,-36.9102 537.5,-26.7798 537.5,-19.7511"/>
<polygon fill="midnightblue" stroke="midnightblue" points="534,-46.083 537.5,-56.083 541,-46.083 534,-46.083"/>
</g>
<!-- Node11 -->
<g id="node11" class="node"><title>Node11</title>
<g id="a_node11"><a xlink:href="agent__antenna_8cpp.html" target="_top" xlink:title="Agent Antenna for Satellite Ground Station. ">
<polygon fill="white" stroke="black" points="598,-0.5 598,-19.5 697,-19.5 697,-0.5 598,-0.5"/>
<text text-anchor="middle" x="647.5" y="-7.5" font-family="Helvetica,sans-Serif" font-size="10.00">agent_antenna.cpp</text>
</a>
</g>
</g>
<!-- Node9&#45;&gt;Node11 -->
<g id="edge10" class="edge"><title>Node9&#45;&gt;Node11</title>
<path fill="none" stroke="midnightblue" d="M564.262,-51.8622C584.659,-41.8492 612.166,-28.3458 629.87,-19.6545"/>
<polygon fill="midnightblue" stroke="midnightblue" points="562.608,-48.7753 555.173,-56.324 565.692,-55.059 562.608,-48.7753"/>
</g>
<!-- Node13 -->
<g id="node13" class="node"><title>Node13</title>
<g id="a_node13"><a xlink:href="unixgpio_8cpp.html" target="_top" xlink:title="unixgpio.cpp">
<polygon fill="white" stroke="black" points="715,-0.5 715,-19.5 786,-19.5 786,-0.5 715,-0.5"/>
<text text-anchor="middle" x="750.5" y="-7.5" font-family="Helvetica,sans-Serif" font-size="10.00">unixgpio.cpp</text>
</a>
</g>
</g>
<!-- Node12&#45;&gt;Node13 -->
<g id="edge12" class="edge"><title>Node12&#45;&gt;Node13</title>
<path fill="none" stroke="midnightblue" d="M652.891,-52.503C676.7,-42.3795 709.606,-28.388 730.471,-19.5164"/>
<polygon fill="midnightblue" stroke="midnightblue" points="651.457,-49.3096 643.624,-56.4435 654.196,-55.7515 651.457,-49.3096"/>
</g>
</g>
</svg>
