<?xml version="1.0" encoding="UTF-8" standalone="no"?>
<!DOCTYPE svg PUBLIC "-//W3C//DTD SVG 1.1//EN"
 "http://www.w3.org/Graphics/SVG/1.1/DTD/svg11.dtd">
<!-- Generated by graphviz version 2.38.0 (20140413.2041)
 -->
<!-- Title: shift_solid_thermal.cpp Pages: 1 -->
<svg width="1854pt" height="532pt"
 viewBox="0.00 0.00 1854.14 532.00" xmlns="http://www.w3.org/2000/svg" xmlns:xlink="http://www.w3.org/1999/xlink">
<g id="graph0" class="graph" transform="scale(1 1) rotate(0) translate(4 528)">
<title>shift_solid_thermal.cpp</title>
<polygon fill="white" stroke="none" points="-4,4 -4,-528 1850.14,-528 1850.14,4 -4,4"/>
<!-- Node1 -->
<g id="node1" class="node"><title>Node1</title>
<polygon fill="#bfbfbf" stroke="black" points="1055.5,-504.5 1055.5,-523.5 1172.5,-523.5 1172.5,-504.5 1055.5,-504.5"/>
<text text-anchor="middle" x="1114" y="-511.5" font-family="Helvetica,sans-Serif" font-size="10.00">shift_solid_thermal.cpp</text>
</g>
<!-- Node2 -->
<g id="node2" class="node"><title>Node2</title>
<g id="a_node2"><a xlink:href="config_cosmos_8h.html" target="_top" xlink:title="Headers and definitions common to all COSMOS. ">
<polygon fill="white" stroke="black" points="926.5,-112.5 926.5,-131.5 1049.5,-131.5 1049.5,-112.5 926.5,-112.5"/>
<text text-anchor="middle" x="988" y="-119.5" font-family="Helvetica,sans-Serif" font-size="10.00">support/configCosmos.h</text>
</a>
</g>
</g>
<!-- Node1&#45;&gt;Node2 -->
<g id="edge1" class="edge"><title>Node1&#45;&gt;Node2</title>
<path fill="none" stroke="midnightblue" d="M1055.27,-510.281C1001.56,-506.07 920.832,-495.341 856,-468 810.536,-448.827 766,-452.341 766,-403 766,-403 766,-403 766,-233 766,-164.713 851.376,-138.818 916.238,-128.998"/>
<polygon fill="midnightblue" stroke="midnightblue" points="917.043,-132.419 926.455,-127.556 916.064,-125.488 917.043,-132.419"/>
</g>
<!-- Node32 -->
<g id="node32" class="node"><title>Node32</title>
<g id="a_node32"><a xlink:href="jsonclass_8h.html" target="_top" xlink:title="support/jsonclass.h">
<polygon fill="white" stroke="black" points="1376.5,-224.5 1376.5,-243.5 1477.5,-243.5 1477.5,-224.5 1376.5,-224.5"/>
<text text-anchor="middle" x="1427" y="-231.5" font-family="Helvetica,sans-Serif" font-size="10.00">support/jsonclass.h</text>
</a>
</g>
</g>
<!-- Node1&#45;&gt;Node32 -->
<g id="edge40" class="edge"><title>Node1&#45;&gt;Node32</title>
<path fill="none" stroke="midnightblue" d="M1167.97,-504.451C1253.84,-489.303 1412,-454.426 1412,-403 1412,-403 1412,-403 1412,-345 1412,-312.502 1418.51,-275.095 1422.95,-253.343"/>
<polygon fill="midnightblue" stroke="midnightblue" points="1426.39,-254.013 1425.04,-243.504 1419.54,-252.559 1426.39,-254.013"/>
</g>
<!-- Node35 -->
<g id="node35" class="node"><title>Node35</title>
<g id="a_node35"><a xlink:href="datalib_8h.html" target="_top" xlink:title="Data Management header file. ">
<polygon fill="white" stroke="black" points="1069.5,-448.5 1069.5,-467.5 1158.5,-467.5 1158.5,-448.5 1069.5,-448.5"/>
<text text-anchor="middle" x="1114" y="-455.5" font-family="Helvetica,sans-Serif" font-size="10.00">support/datalib.h</text>
</a>
</g>
</g>
<!-- Node1&#45;&gt;Node35 -->
<g id="edge45" class="edge"><title>Node1&#45;&gt;Node35</title>
<path fill="none" stroke="midnightblue" d="M1114,-504.083C1114,-497.006 1114,-486.861 1114,-477.986"/>
<polygon fill="midnightblue" stroke="midnightblue" points="1117.5,-477.751 1114,-467.751 1110.5,-477.751 1117.5,-477.751"/>
</g>
<!-- Node41 -->
<g id="node41" class="node"><title>Node41</title>
<g id="a_node41"><a xlink:href="timelib_8h.html" target="_top" xlink:title="timelib include file A library providing functions for handling various types of time. ">
<polygon fill="white" stroke="black" points="1553.5,-280.5 1553.5,-299.5 1642.5,-299.5 1642.5,-280.5 1553.5,-280.5"/>
<text text-anchor="middle" x="1598" y="-287.5" font-family="Helvetica,sans-Serif" font-size="10.00">support/timelib.h</text>
</a>
</g>
</g>
<!-- Node1&#45;&gt;Node41 -->
<g id="edge81" class="edge"><title>Node1&#45;&gt;Node41</title>
<path fill="none" stroke="midnightblue" d="M1172.8,-509.048C1250.59,-503.052 1382.91,-489.968 1426,-468 1501.69,-429.41 1563.31,-344.416 1587.26,-308.051"/>
<polygon fill="midnightblue" stroke="midnightblue" points="1590.27,-309.834 1592.75,-299.535 1584.39,-306.037 1590.27,-309.834"/>
</g>
<!-- Node50 -->
<g id="node50" class="node"><title>Node50</title>
<g id="a_node50"><a xlink:href="convertlib_8h.html" target="_top" xlink:title="convertlib include file A library providing functions for conversion between the various position and...">
<polygon fill="white" stroke="black" points="976,-336.5 976,-355.5 1078,-355.5 1078,-336.5 976,-336.5"/>
<text text-anchor="middle" x="1027" y="-343.5" font-family="Helvetica,sans-Serif" font-size="10.00">support/convertlib.h</text>
</a>
</g>
</g>
<!-- Node1&#45;&gt;Node50 -->
<g id="edge82" class="edge"><title>Node1&#45;&gt;Node50</title>
<path fill="none" stroke="midnightblue" d="M1055.39,-511.543C986.734,-506.309 875.702,-486.077 823,-412 785.544,-359.352 893.006,-348.232 965.856,-346.518"/>
<polygon fill="midnightblue" stroke="midnightblue" points="965.952,-350.017 975.887,-346.336 965.825,-343.019 965.952,-350.017"/>
</g>
<!-- Node3 -->
<g id="node3" class="node"><title>Node3</title>
<polygon fill="white" stroke="#bfbfbf" points="488.5,-56.5 488.5,-75.5 533.5,-75.5 533.5,-56.5 488.5,-56.5"/>
<text text-anchor="middle" x="511" y="-63.5" font-family="Helvetica,sans-Serif" font-size="10.00">climits</text>
</g>
<!-- Node2&#45;&gt;Node3 -->
<g id="edge2" class="edge"><title>Node2&#45;&gt;Node3</title>
<path fill="none" stroke="midnightblue" d="M926.163,-118.32C841.61,-113.869 685.161,-102.833 543.727,-76.0254"/>
<polygon fill="midnightblue" stroke="midnightblue" points="544.052,-72.5238 533.571,-74.0678 542.727,-79.3972 544.052,-72.5238"/>
</g>
<!-- Node4 -->
<g id="node4" class="node"><title>Node4</title>
<polygon fill="white" stroke="#bfbfbf" points="551.5,-56.5 551.5,-75.5 598.5,-75.5 598.5,-56.5 551.5,-56.5"/>
<text text-anchor="middle" x="575" y="-63.5" font-family="Helvetica,sans-Serif" font-size="10.00">csignal</text>
</g>
<!-- Node2&#45;&gt;Node4 -->
<g id="edge3" class="edge"><title>Node2&#45;&gt;Node4</title>
<path fill="none" stroke="midnightblue" d="M926.301,-115.754C851.724,-108.918 722.588,-95.4883 613,-76 611.54,-75.7403 610.052,-75.4593 608.551,-75.1625"/>
<polygon fill="midnightblue" stroke="midnightblue" points="609.142,-71.7098 598.63,-73.0333 607.673,-78.5539 609.142,-71.7098"/>
</g>
<!-- Node5 -->
<g id="node5" class="node"><title>Node5</title>
<polygon fill="white" stroke="#bfbfbf" points="1538,-56.5 1538,-75.5 1584,-75.5 1584,-56.5 1538,-56.5"/>
<text text-anchor="middle" x="1561" y="-63.5" font-family="Helvetica,sans-Serif" font-size="10.00">cstdint</text>
</g>
<!-- Node2&#45;&gt;Node5 -->
<g id="edge4" class="edge"><title>Node2&#45;&gt;Node5</title>
<path fill="none" stroke="midnightblue" d="M1049.61,-119.529C1148.55,-116.365 1348.97,-106.65 1527.83,-75.6588"/>
<polygon fill="midnightblue" stroke="midnightblue" points="1528.44,-79.1058 1537.68,-73.9265 1527.23,-72.2116 1528.44,-79.1058"/>
</g>
<!-- Node6 -->
<g id="node6" class="node"><title>Node6</title>
<polygon fill="white" stroke="#bfbfbf" points="58,-56.5 58,-75.5 114,-75.5 114,-56.5 58,-56.5"/>
<text text-anchor="middle" x="86" y="-63.5" font-family="Helvetica,sans-Serif" font-size="10.00">cinttypes</text>
</g>
<!-- Node2&#45;&gt;Node6 -->
<g id="edge5" class="edge"><title>Node2&#45;&gt;Node6</title>
<path fill="none" stroke="midnightblue" d="M926.259,-121.724C785.382,-122.529 429.456,-119.767 124.104,-75.8719"/>
<polygon fill="midnightblue" stroke="midnightblue" points="124.575,-72.4036 114.175,-74.4273 123.567,-79.3307 124.575,-72.4036"/>
</g>
<!-- Node7 -->
<g id="node7" class="node"><title>Node7</title>
<polygon fill="white" stroke="#bfbfbf" points="132.5,-56.5 132.5,-75.5 175.5,-75.5 175.5,-56.5 132.5,-56.5"/>
<text text-anchor="middle" x="154" y="-63.5" font-family="Helvetica,sans-Serif" font-size="10.00">cstdio</text>
</g>
<!-- Node2&#45;&gt;Node7 -->
<g id="edge6" class="edge"><title>Node2&#45;&gt;Node7</title>
<path fill="none" stroke="midnightblue" d="M926.279,-119.425C767.196,-115.073 345.094,-101.587 185.911,-75.901"/>
<polygon fill="midnightblue" stroke="midnightblue" points="186.256,-72.4096 175.812,-74.1914 185.087,-79.3114 186.256,-72.4096"/>
</g>
<!-- Node8 -->
<g id="node8" class="node"><title>Node8</title>
<polygon fill="white" stroke="#bfbfbf" points="193.5,-56.5 193.5,-75.5 242.5,-75.5 242.5,-56.5 193.5,-56.5"/>
<text text-anchor="middle" x="218" y="-63.5" font-family="Helvetica,sans-Serif" font-size="10.00">cstddef</text>
</g>
<!-- Node2&#45;&gt;Node8 -->
<g id="edge7" class="edge"><title>Node2&#45;&gt;Node8</title>
<path fill="none" stroke="midnightblue" d="M926.375,-121.487C800.894,-121.561 506.785,-117.047 252.899,-75.9992"/>
<polygon fill="midnightblue" stroke="midnightblue" points="253.18,-72.4987 242.746,-74.3344 252.047,-79.4064 253.18,-72.4987"/>
</g>
<!-- Node9 -->
<g id="node9" class="node"><title>Node9</title>
<polygon fill="white" stroke="#bfbfbf" points="260.5,-56.5 260.5,-75.5 305.5,-75.5 305.5,-56.5 260.5,-56.5"/>
<text text-anchor="middle" x="283" y="-63.5" font-family="Helvetica,sans-Serif" font-size="10.00">cstdlib</text>
</g>
<!-- Node2&#45;&gt;Node9 -->
<g id="edge8" class="edge"><title>Node2&#45;&gt;Node9</title>
<path fill="none" stroke="midnightblue" d="M926.253,-121.131C808.827,-120.457 545.329,-114.512 315.476,-75.6741"/>
<polygon fill="midnightblue" stroke="midnightblue" points="316.04,-72.2199 305.593,-73.9801 314.858,-79.1193 316.04,-72.2199"/>
</g>
<!-- Node10 -->
<g id="node10" class="node"><title>Node10</title>
<polygon fill="white" stroke="#bfbfbf" points="324,-56.5 324,-75.5 368,-75.5 368,-56.5 324,-56.5"/>
<text text-anchor="middle" x="346" y="-63.5" font-family="Helvetica,sans-Serif" font-size="10.00">cerrno</text>
</g>
<!-- Node2&#45;&gt;Node10 -->
<g id="edge9" class="edge"><title>Node2&#45;&gt;Node10</title>
<path fill="none" stroke="midnightblue" d="M926.329,-120.7C817.275,-119.246 583.331,-111.982 378.27,-75.8521"/>
<polygon fill="midnightblue" stroke="midnightblue" points="378.679,-72.3698 368.219,-74.0537 377.446,-79.2604 378.679,-72.3698"/>
</g>
<!-- Node11 -->
<g id="node11" class="node"><title>Node11</title>
<polygon fill="white" stroke="#bfbfbf" points="386,-56.5 386,-75.5 432,-75.5 432,-56.5 386,-56.5"/>
<text text-anchor="middle" x="409" y="-63.5" font-family="Helvetica,sans-Serif" font-size="10.00">cstring</text>
</g>
<!-- Node2&#45;&gt;Node11 -->
<g id="edge10" class="edge"><title>Node2&#45;&gt;Node11</title>
<path fill="none" stroke="midnightblue" d="M926.253,-119.003C825.251,-115.036 618.661,-103.992 446,-76 444.752,-75.7977 443.484,-75.5753 442.206,-75.3371"/>
<polygon fill="midnightblue" stroke="midnightblue" points="442.882,-71.9029 432.376,-73.2684 441.44,-78.7528 442.882,-71.9029"/>
</g>
<!-- Node12 -->
<g id="node12" class="node"><title>Node12</title>
<polygon fill="white" stroke="#bfbfbf" points="1712,-56.5 1712,-75.5 1756,-75.5 1756,-56.5 1712,-56.5"/>
<text text-anchor="middle" x="1734" y="-63.5" font-family="Helvetica,sans-Serif" font-size="10.00">cmath</text>
</g>
<!-- Node2&#45;&gt;Node12 -->
<g id="edge11" class="edge"><title>Node2&#45;&gt;Node12</title>
<path fill="none" stroke="midnightblue" d="M1049.6,-118.863C1195.48,-113.527 1559.8,-98.5313 1701.57,-75.8036"/>
<polygon fill="midnightblue" stroke="midnightblue" points="1702.51,-79.195 1711.79,-74.0828 1701.34,-72.2922 1702.51,-79.195"/>
</g>
<!-- Node13 -->
<g id="node13" class="node"><title>Node13</title>
<polygon fill="white" stroke="#bfbfbf" points="1023.5,-56.5 1023.5,-75.5 1068.5,-75.5 1068.5,-56.5 1023.5,-56.5"/>
<text text-anchor="middle" x="1046" y="-63.5" font-family="Helvetica,sans-Serif" font-size="10.00">iosfwd</text>
</g>
<!-- Node2&#45;&gt;Node13 -->
<g id="edge12" class="edge"><title>Node2&#45;&gt;Node13</title>
<path fill="none" stroke="midnightblue" d="M997.319,-112.324C1005.89,-104.341 1018.81,-92.3128 1029.19,-82.6529"/>
<polygon fill="midnightblue" stroke="midnightblue" points="1031.58,-85.2098 1036.51,-75.8339 1026.81,-80.0865 1031.58,-85.2098"/>
</g>
<!-- Node14 -->
<g id="node14" class="node"><title>Node14</title>
<polygon fill="white" stroke="#bfbfbf" points="1640,-56.5 1640,-75.5 1694,-75.5 1694,-56.5 1640,-56.5"/>
<text text-anchor="middle" x="1667" y="-63.5" font-family="Helvetica,sans-Serif" font-size="10.00">iostream</text>
</g>
<!-- Node2&#45;&gt;Node14 -->
<g id="edge13" class="edge"><title>Node2&#45;&gt;Node14</title>
<path fill="none" stroke="midnightblue" d="M1049.68,-117.799C1187.28,-110.471 1515.89,-91.8818 1626,-76 1627.26,-75.8186 1628.53,-75.6201 1629.82,-75.4078"/>
<polygon fill="midnightblue" stroke="midnightblue" points="1630.56,-78.83 1639.75,-73.5607 1629.28,-71.948 1630.56,-78.83"/>
</g>
<!-- Node15 -->
<g id="node15" class="node"><title>Node15</title>
<polygon fill="white" stroke="#bfbfbf" points="1087,-56.5 1087,-75.5 1139,-75.5 1139,-56.5 1087,-56.5"/>
<text text-anchor="middle" x="1113" y="-63.5" font-family="Helvetica,sans-Serif" font-size="10.00">sstream</text>
</g>
<!-- Node2&#45;&gt;Node15 -->
<g id="edge14" class="edge"><title>Node2&#45;&gt;Node15</title>
<path fill="none" stroke="midnightblue" d="M1007.81,-112.444C1028.29,-103.596 1060.48,-89.6875 1083.86,-79.5865"/>
<polygon fill="midnightblue" stroke="midnightblue" points="1085.49,-82.6953 1093.29,-75.5164 1082.72,-76.2692 1085.49,-82.6953"/>
</g>
<!-- Node16 -->
<g id="node16" class="node"><title>Node16</title>
<polygon fill="white" stroke="#bfbfbf" points="1157.5,-56.5 1157.5,-75.5 1198.5,-75.5 1198.5,-56.5 1157.5,-56.5"/>
<text text-anchor="middle" x="1178" y="-63.5" font-family="Helvetica,sans-Serif" font-size="10.00">regex</text>
</g>
<!-- Node2&#45;&gt;Node16 -->
<g id="edge15" class="edge"><title>Node2&#45;&gt;Node16</title>
<path fill="none" stroke="midnightblue" d="M1019.02,-112.448C1049.33,-104.051 1097.03,-90.7407 1147.56,-76.092"/>
<polygon fill="midnightblue" stroke="midnightblue" points="1148.73,-79.3955 1157.36,-73.244 1146.78,-72.6736 1148.73,-79.3955"/>
</g>
<!-- Node17 -->
<g id="node17" class="node"><title>Node17</title>
<polygon fill="white" stroke="#bfbfbf" points="1217,-56.5 1217,-75.5 1267,-75.5 1267,-56.5 1217,-56.5"/>
<text text-anchor="middle" x="1242" y="-63.5" font-family="Helvetica,sans-Serif" font-size="10.00">iomanip</text>
</g>
<!-- Node2&#45;&gt;Node17 -->
<g id="edge16" class="edge"><title>Node2&#45;&gt;Node17</title>
<path fill="none" stroke="midnightblue" d="M1033.02,-112.42C1077.39,-103.805 1147.06,-89.8563 1207,-76 1207.1,-75.977 1207.2,-75.954 1207.3,-75.9309"/>
<polygon fill="midnightblue" stroke="midnightblue" points="1207.9,-79.3859 1216.8,-73.637 1206.26,-72.5814 1207.9,-79.3859"/>
</g>
<!-- Node18 -->
<g id="node18" class="node"><title>Node18</title>
<polygon fill="white" stroke="#bfbfbf" points="1285.5,-56.5 1285.5,-75.5 1336.5,-75.5 1336.5,-56.5 1285.5,-56.5"/>
<text text-anchor="middle" x="1311" y="-63.5" font-family="Helvetica,sans-Serif" font-size="10.00">unistd.h</text>
</g>
<!-- Node2&#45;&gt;Node18 -->
<g id="edge17" class="edge"><title>Node2&#45;&gt;Node18</title>
<path fill="none" stroke="midnightblue" d="M1049.55,-113.139C1105.84,-105.551 1191.6,-92.9959 1275.5,-75.9227"/>
<polygon fill="midnightblue" stroke="midnightblue" points="1276.36,-79.3179 1285.45,-73.8735 1274.95,-72.4616 1276.36,-79.3179"/>
</g>
<!-- Node19 -->
<g id="node19" class="node"><title>Node19</title>
<polygon fill="white" stroke="#bfbfbf" points="1355,-56.5 1355,-75.5 1399,-75.5 1399,-56.5 1355,-56.5"/>
<text text-anchor="middle" x="1377" y="-63.5" font-family="Helvetica,sans-Serif" font-size="10.00">fcntl.h</text>
</g>
<!-- Node2&#45;&gt;Node19 -->
<g id="edge18" class="edge"><title>Node2&#45;&gt;Node19</title>
<path fill="none" stroke="midnightblue" d="M1049.73,-116.029C1119.16,-109.81 1235.39,-97.5131 1344.83,-75.7212"/>
<polygon fill="midnightblue" stroke="midnightblue" points="1345.62,-79.1341 1354.72,-73.7221 1344.23,-72.2729 1345.62,-79.1341"/>
</g>
<!-- Node20 -->
<g id="node20" class="node"><title>Node20</title>
<polygon fill="white" stroke="#bfbfbf" points="0,-56.5 0,-75.5 40,-75.5 40,-56.5 0,-56.5"/>
<text text-anchor="middle" x="20" y="-63.5" font-family="Helvetica,sans-Serif" font-size="10.00">limits</text>
</g>
<!-- Node2&#45;&gt;Node20 -->
<g id="edge19" class="edge"><title>Node2&#45;&gt;Node20</title>
<path fill="none" stroke="midnightblue" d="M926.234,-120.076C748.531,-117.102 237.297,-106.244 50.1189,-75.6664"/>
<polygon fill="midnightblue" stroke="midnightblue" points="50.5672,-72.1923 40.1206,-73.9585 49.3884,-79.0924 50.5672,-72.1923"/>
</g>
<!-- Node21 -->
<g id="node21" class="node"><title>Node21</title>
<polygon fill="white" stroke="#bfbfbf" points="605.5,-0.5 605.5,-19.5 646.5,-19.5 646.5,-0.5 605.5,-0.5"/>
<text text-anchor="middle" x="626" y="-7.5" font-family="Helvetica,sans-Serif" font-size="10.00">string</text>
</g>
<!-- Node2&#45;&gt;Node21 -->
<g id="edge20" class="edge"><title>Node2&#45;&gt;Node21</title>
<path fill="none" stroke="midnightblue" d="M926.023,-120.105C796.923,-117.596 508.652,-108.389 479,-76 443.127,-36.8154 541.912,-19.9634 594.908,-13.8989"/>
<polygon fill="midnightblue" stroke="midnightblue" points="595.583,-17.3465 605.151,-12.7953 594.833,-10.3868 595.583,-17.3465"/>
</g>
<!-- Node22 -->
<g id="node22" class="node"><title>Node22</title>
<polygon fill="white" stroke="#bfbfbf" points="665,-0.5 665,-19.5 709,-19.5 709,-0.5 665,-0.5"/>
<text text-anchor="middle" x="687" y="-7.5" font-family="Helvetica,sans-Serif" font-size="10.00">vector</text>
</g>
<!-- Node2&#45;&gt;Node22 -->
<g id="edge21" class="edge"><title>Node2&#45;&gt;Node22</title>
<path fill="none" stroke="midnightblue" d="M926.369,-117.238C832.895,-110.897 664.164,-96.711 646,-76 632.365,-60.4538 650.267,-39.9075 666.518,-26.1132"/>
<polygon fill="midnightblue" stroke="midnightblue" points="669.066,-28.5568 674.689,-19.5774 664.694,-23.0902 669.066,-28.5568"/>
</g>
<!-- Node23 -->
<g id="node23" class="node"><title>Node23</title>
<polygon fill="white" stroke="#bfbfbf" points="1417.5,-56.5 1417.5,-75.5 1458.5,-75.5 1458.5,-56.5 1417.5,-56.5"/>
<text text-anchor="middle" x="1438" y="-63.5" font-family="Helvetica,sans-Serif" font-size="10.00">stack</text>
</g>
<!-- Node2&#45;&gt;Node23 -->
<g id="edge22" class="edge"><title>Node2&#45;&gt;Node23</title>
<path fill="none" stroke="midnightblue" d="M1049.75,-117.959C1130.12,-113.21 1274.91,-101.95 1407.54,-75.7028"/>
<polygon fill="midnightblue" stroke="midnightblue" points="1408.36,-79.1081 1417.47,-73.704 1406.98,-72.2456 1408.36,-79.1081"/>
</g>
<!-- Node24 -->
<g id="node24" class="node"><title>Node24</title>
<polygon fill="white" stroke="#bfbfbf" points="1476.5,-56.5 1476.5,-75.5 1519.5,-75.5 1519.5,-56.5 1476.5,-56.5"/>
<text text-anchor="middle" x="1498" y="-63.5" font-family="Helvetica,sans-Serif" font-size="10.00">deque</text>
</g>
<!-- Node2&#45;&gt;Node24 -->
<g id="edge23" class="edge"><title>Node2&#45;&gt;Node24</title>
<path fill="none" stroke="midnightblue" d="M1049.77,-118.923C1139.54,-115.085 1311.31,-104.655 1466.27,-75.7524"/>
<polygon fill="midnightblue" stroke="midnightblue" points="1467.27,-79.1237 1476.45,-73.8218 1465.97,-72.2462 1467.27,-79.1237"/>
</g>
<!-- Node25 -->
<g id="node25" class="node"><title>Node25</title>
<polygon fill="white" stroke="#bfbfbf" points="728,-0.5 728,-19.5 772,-19.5 772,-0.5 728,-0.5"/>
<text text-anchor="middle" x="750" y="-7.5" font-family="Helvetica,sans-Serif" font-size="10.00">mutex</text>
</g>
<!-- Node2&#45;&gt;Node25 -->
<g id="edge24" class="edge"><title>Node2&#45;&gt;Node25</title>
<path fill="none" stroke="midnightblue" d="M926.078,-118.204C885.475,-113.739 832.903,-102.719 794,-76 777.024,-64.3407 764.758,-43.7952 757.556,-28.9182"/>
<polygon fill="midnightblue" stroke="midnightblue" points="760.697,-27.3695 753.384,-19.7033 754.32,-30.2567 760.697,-27.3695"/>
</g>
<!-- Node26 -->
<g id="node26" class="node"><title>Node26</title>
<polygon fill="white" stroke="#bfbfbf" points="791,-0.5 791,-19.5 835,-19.5 835,-0.5 791,-0.5"/>
<text text-anchor="middle" x="813" y="-7.5" font-family="Helvetica,sans-Serif" font-size="10.00">thread</text>
</g>
<!-- Node2&#45;&gt;Node26 -->
<g id="edge25" class="edge"><title>Node2&#45;&gt;Node26</title>
<path fill="none" stroke="midnightblue" d="M926.365,-114.088C878.977,-107.355 819.127,-95.2724 804,-76 793.585,-62.7313 798.228,-43.0678 803.995,-28.8451"/>
<polygon fill="midnightblue" stroke="midnightblue" points="807.237,-30.1713 808.193,-19.6197 800.866,-27.2717 807.237,-30.1713"/>
</g>
<!-- Node27 -->
<g id="node27" class="node"><title>Node27</title>
<polygon fill="white" stroke="#bfbfbf" points="926.5,-0.5 926.5,-19.5 1021.5,-19.5 1021.5,-0.5 926.5,-0.5"/>
<text text-anchor="middle" x="974" y="-7.5" font-family="Helvetica,sans-Serif" font-size="10.00">condition_variable</text>
</g>
<!-- Node2&#45;&gt;Node27 -->
<g id="edge26" class="edge"><title>Node2&#45;&gt;Node27</title>
<path fill="none" stroke="midnightblue" d="M986.901,-112.368C984.642,-94.617 979.43,-53.6664 976.367,-29.5974"/>
<polygon fill="midnightblue" stroke="midnightblue" points="979.828,-29.0695 975.093,-19.5914 972.884,-29.9533 979.828,-29.0695"/>
</g>
<!-- Node28 -->
<g id="node28" class="node"><title>Node28</title>
<polygon fill="white" stroke="#bfbfbf" points="1314.5,-0.5 1314.5,-19.5 1357.5,-19.5 1357.5,-0.5 1314.5,-0.5"/>
<text text-anchor="middle" x="1336" y="-7.5" font-family="Helvetica,sans-Serif" font-size="10.00">queue</text>
</g>
<!-- Node2&#45;&gt;Node28 -->
<g id="edge27" class="edge"><title>Node2&#45;&gt;Node28</title>
<path fill="none" stroke="midnightblue" d="M1049.65,-118.654C1200.02,-112.634 1574.69,-95.7193 1593,-76 1599.05,-69.4857 1598.72,-62.8059 1593,-56 1564.56,-22.1491 1430.06,-13.7575 1367.78,-11.6809"/>
<polygon fill="midnightblue" stroke="midnightblue" points="1367.84,-8.18101 1357.74,-11.3802 1367.63,-15.1779 1367.84,-8.18101"/>
</g>
<!-- Node29 -->
<g id="node29" class="node"><title>Node29</title>
<polygon fill="white" stroke="#bfbfbf" points="853.5,-0.5 853.5,-19.5 888.5,-19.5 888.5,-0.5 853.5,-0.5"/>
<text text-anchor="middle" x="871" y="-7.5" font-family="Helvetica,sans-Serif" font-size="10.00">map</text>
</g>
<!-- Node2&#45;&gt;Node29 -->
<g id="edge28" class="edge"><title>Node2&#45;&gt;Node29</title>
<path fill="none" stroke="midnightblue" d="M982.62,-112.289C974.199,-99.0999 956.901,-73.7243 938,-56 925.128,-43.9294 908.706,-32.8445 895.342,-24.6967"/>
<polygon fill="midnightblue" stroke="midnightblue" points="897.046,-21.6384 886.66,-19.5491 893.476,-27.6597 897.046,-21.6384"/>
</g>
<!-- Node30 -->
<g id="node30" class="node"><title>Node30</title>
<g id="a_node30"><a xlink:href="cosmos-defs_8h.html" target="_top" xlink:title="COSMOS definitions Definitions specific to the COSMOS environement. ">
<polygon fill="white" stroke="red" points="813,-56.5 813,-75.5 929,-75.5 929,-56.5 813,-56.5"/>
<text text-anchor="middle" x="871" y="-63.5" font-family="Helvetica,sans-Serif" font-size="10.00">support/cosmos&#45;defs.h</text>
</a>
</g>
</g>
<!-- Node2&#45;&gt;Node30 -->
<g id="edge29" class="edge"><title>Node2&#45;&gt;Node30</title>
<path fill="none" stroke="midnightblue" d="M969.461,-112.444C950.377,-103.636 920.425,-89.8116 898.564,-79.722"/>
<polygon fill="midnightblue" stroke="midnightblue" points="899.999,-76.5292 889.452,-75.5164 897.065,-82.8849 899.999,-76.5292"/>
</g>
<!-- Node31 -->
<g id="node31" class="node"><title>Node31</title>
<g id="a_node31"><a xlink:href="json11_8hpp.html" target="_top" xlink:title="json11.hpp">
<polygon fill="white" stroke="red" points="655,-56.5 655,-75.5 719,-75.5 719,-56.5 655,-56.5"/>
<text text-anchor="middle" x="687" y="-63.5" font-family="Helvetica,sans-Serif" font-size="10.00">json11.hpp</text>
</a>
</g>
</g>
<!-- Node2&#45;&gt;Node31 -->
<g id="edge36" class="edge"><title>Node2&#45;&gt;Node31</title>
<path fill="none" stroke="midnightblue" d="M938.111,-112.478C886.67,-103.624 804.156,-89.2383 733,-76 731.74,-75.7656 730.461,-75.5259 729.17,-75.2826"/>
<polygon fill="midnightblue" stroke="midnightblue" points="729.635,-71.8083 719.156,-73.3702 728.322,-78.684 729.635,-71.8083"/>
</g>
<!-- Node30&#45;&gt;Node22 -->
<g id="edge31" class="edge"><title>Node30&#45;&gt;Node22</title>
<path fill="none" stroke="midnightblue" d="M841.845,-56.4435C808.273,-46.591 753.315,-30.4621 718.704,-20.3044"/>
<polygon fill="midnightblue" stroke="midnightblue" points="719.67,-16.9404 709.089,-17.4826 717.699,-23.6571 719.67,-16.9404"/>
</g>
<!-- Node30&#45;&gt;Node25 -->
<g id="edge34" class="edge"><title>Node30&#45;&gt;Node25</title>
<path fill="none" stroke="midnightblue" d="M851.827,-56.4435C832.091,-47.6356 801.115,-33.8116 778.507,-23.722"/>
<polygon fill="midnightblue" stroke="midnightblue" points="779.641,-20.3957 769.083,-19.5164 776.789,-26.788 779.641,-20.3957"/>
</g>
<!-- Node30&#45;&gt;Node26 -->
<g id="edge33" class="edge"><title>Node30&#45;&gt;Node26</title>
<path fill="none" stroke="midnightblue" d="M861.681,-56.324C853.107,-48.3414 840.188,-36.3128 829.812,-26.6529"/>
<polygon fill="midnightblue" stroke="midnightblue" points="832.192,-24.0865 822.488,-19.8339 827.422,-29.2098 832.192,-24.0865"/>
</g>
<!-- Node30&#45;&gt;Node27 -->
<g id="edge35" class="edge"><title>Node30&#45;&gt;Node27</title>
<path fill="none" stroke="midnightblue" d="M887.549,-56.324C903.992,-47.7034 929.435,-34.3643 948.468,-24.3855"/>
<polygon fill="midnightblue" stroke="midnightblue" points="950.261,-27.3977 957.492,-19.6545 947.011,-21.198 950.261,-27.3977"/>
</g>
<!-- Node30&#45;&gt;Node28 -->
<g id="edge32" class="edge"><title>Node30&#45;&gt;Node28</title>
<path fill="none" stroke="midnightblue" d="M929.422,-58.2155C1028.67,-46.6904 1226.92,-23.6668 1304.16,-14.6972"/>
<polygon fill="midnightblue" stroke="midnightblue" points="1304.71,-18.1577 1314.24,-13.5275 1303.9,-11.2045 1304.71,-18.1577"/>
</g>
<!-- Node30&#45;&gt;Node29 -->
<g id="edge30" class="edge"><title>Node30&#45;&gt;Node29</title>
<path fill="none" stroke="midnightblue" d="M871,-56.083C871,-49.0059 871,-38.8611 871,-29.9865"/>
<polygon fill="midnightblue" stroke="midnightblue" points="874.5,-29.751 871,-19.7511 867.5,-29.7511 874.5,-29.751"/>
</g>
<!-- Node31&#45;&gt;Node21 -->
<g id="edge37" class="edge"><title>Node31&#45;&gt;Node21</title>
<path fill="none" stroke="midnightblue" d="M677.199,-56.324C668.182,-48.3414 654.594,-36.3128 643.682,-26.6529"/>
<polygon fill="midnightblue" stroke="midnightblue" points="645.787,-23.8416 635.979,-19.8339 641.147,-29.083 645.787,-23.8416"/>
</g>
<!-- Node31&#45;&gt;Node22 -->
<g id="edge38" class="edge"><title>Node31&#45;&gt;Node22</title>
<path fill="none" stroke="midnightblue" d="M687,-56.083C687,-49.0059 687,-38.8611 687,-29.9865"/>
<polygon fill="midnightblue" stroke="midnightblue" points="690.5,-29.751 687,-19.7511 683.5,-29.7511 690.5,-29.751"/>
</g>
<!-- Node31&#45;&gt;Node29 -->
<g id="edge39" class="edge"><title>Node31&#45;&gt;Node29</title>
<path fill="none" stroke="midnightblue" d="M718.394,-56.4259C748.185,-48.1964 794.426,-35.1827 843.473,-20.0652"/>
<polygon fill="midnightblue" stroke="midnightblue" points="844.801,-23.3182 853.316,-17.0145 842.728,-16.632 844.801,-23.3182"/>
</g>
<!-- Node32&#45;&gt;Node2 -->
<g id="edge41" class="edge"><title>Node32&#45;&gt;Node2</title>
<path fill="none" stroke="midnightblue" d="M1428.77,-224.382C1431.08,-210.37 1433.23,-182.732 1418,-168 1392.83,-143.654 1175.85,-130.89 1060.09,-125.76"/>
<polygon fill="midnightblue" stroke="midnightblue" points="1060.03,-122.254 1049.89,-125.316 1059.73,-129.247 1060.03,-122.254"/>
</g>
<!-- Node33 -->
<g id="node33" class="node"><title>Node33</title>
<g id="a_node33"><a xlink:href="cosmos-errno_8h.html" target="_top" xlink:title="COSMOS Error Codes. ">
<polygon fill="white" stroke="black" points="1290.5,-168.5 1290.5,-187.5 1409.5,-187.5 1409.5,-168.5 1290.5,-168.5"/>
<text text-anchor="middle" x="1350" y="-175.5" font-family="Helvetica,sans-Serif" font-size="10.00">support/cosmos&#45;errno.h</text>
</a>
</g>
</g>
<!-- Node32&#45;&gt;Node33 -->
<g id="edge42" class="edge"><title>Node32&#45;&gt;Node33</title>
<path fill="none" stroke="midnightblue" d="M1414.63,-224.324C1402.84,-216.058 1384.87,-203.453 1370.86,-193.632"/>
<polygon fill="midnightblue" stroke="midnightblue" points="1372.54,-190.531 1362.34,-187.655 1368.52,-196.262 1372.54,-190.531"/>
</g>
<!-- Node33&#45;&gt;Node2 -->
<g id="edge43" class="edge"><title>Node33&#45;&gt;Node2</title>
<path fill="none" stroke="midnightblue" d="M1292.64,-168.444C1228.17,-158.826 1123.6,-143.228 1055.31,-133.041"/>
<polygon fill="midnightblue" stroke="midnightblue" points="1055.5,-129.53 1045.09,-131.516 1054.47,-136.454 1055.5,-129.53"/>
</g>
<!-- Node34 -->
<g id="node34" class="node"><title>Node34</title>
<polygon fill="white" stroke="#bfbfbf" points="1449.5,-112.5 1449.5,-131.5 1496.5,-131.5 1496.5,-112.5 1449.5,-112.5"/>
<text text-anchor="middle" x="1473" y="-119.5" font-family="Helvetica,sans-Serif" font-size="10.00">errno.h</text>
</g>
<!-- Node33&#45;&gt;Node34 -->
<g id="edge44" class="edge"><title>Node33&#45;&gt;Node34</title>
<path fill="none" stroke="midnightblue" d="M1369.49,-168.444C1389.64,-159.596 1421.32,-145.687 1444.33,-135.586"/>
<polygon fill="midnightblue" stroke="midnightblue" points="1445.85,-138.741 1453.6,-131.516 1443.04,-132.332 1445.85,-138.741"/>
</g>
<!-- Node35&#45;&gt;Node2 -->
<g id="edge46" class="edge"><title>Node35&#45;&gt;Node2</title>
<path fill="none" stroke="midnightblue" d="M1072.11,-448.449C1022.94,-435.68 948,-406.465 948,-347 948,-347 948,-347 948,-233 948,-198.617 965.474,-161.631 977.323,-140.503"/>
<polygon fill="midnightblue" stroke="midnightblue" points="980.424,-142.133 982.438,-131.731 974.377,-138.607 980.424,-142.133"/>
</g>
<!-- Node35&#45;&gt;Node33 -->
<g id="edge47" class="edge"><title>Node35&#45;&gt;Node33</title>
<path fill="none" stroke="midnightblue" d="M1158.77,-454.343C1217.32,-449.85 1315.13,-438.501 1338,-412 1391.56,-349.94 1367.93,-240.383 1355.69,-197.214"/>
<polygon fill="midnightblue" stroke="midnightblue" points="1359.01,-196.113 1352.81,-187.525 1352.3,-198.108 1359.01,-196.113"/>
</g>
<!-- Node36 -->
<g id="node36" class="node"><title>Node36</title>
<g id="a_node36"><a xlink:href="jsondef_8h.html" target="_top" xlink:title="support/jsondef.h">
<polygon fill="white" stroke="red" points="1096,-336.5 1096,-355.5 1188,-355.5 1188,-336.5 1096,-336.5"/>
<text text-anchor="middle" x="1142" y="-343.5" font-family="Helvetica,sans-Serif" font-size="10.00">support/jsondef.h</text>
</a>
</g>
</g>
<!-- Node35&#45;&gt;Node36 -->
<g id="edge48" class="edge"><title>Node35&#45;&gt;Node36</title>
<path fill="none" stroke="midnightblue" d="M1070.79,-448.479C1032.07,-438.805 984.325,-420.553 1005,-392 1015.19,-377.928 1054.6,-365.887 1088.56,-357.811"/>
<polygon fill="midnightblue" stroke="midnightblue" points="1089.46,-361.194 1098.42,-355.537 1087.89,-354.373 1089.46,-361.194"/>
</g>
<!-- Node39 -->
<g id="node39" class="node"><title>Node39</title>
<g id="a_node39"><a xlink:href="jsonlib_8h.html" target="_top" xlink:title="JSON Support definitions. ">
<polygon fill="white" stroke="red" points="832,-392.5 832,-411.5 920,-411.5 920,-392.5 832,-392.5"/>
<text text-anchor="middle" x="876" y="-399.5" font-family="Helvetica,sans-Serif" font-size="10.00">support/jsonlib.h</text>
</a>
</g>
</g>
<!-- Node35&#45;&gt;Node39 -->
<g id="edge58" class="edge"><title>Node35&#45;&gt;Node39</title>
<path fill="none" stroke="midnightblue" d="M1071.2,-448.444C1027.89,-439.083 961.511,-424.056 918.361,-413.868"/>
<polygon fill="midnightblue" stroke="midnightblue" points="918.993,-410.421 908.455,-411.516 917.377,-417.232 918.993,-410.421"/>
</g>
<!-- Node40 -->
<g id="node40" class="node"><title>Node40</title>
<g id="a_node40"><a xlink:href="zlib_8h.html" target="_top" xlink:title="thirdparty/zlib/zlib.h">
<polygon fill="white" stroke="red" points="1014.5,-392.5 1014.5,-411.5 1115.5,-411.5 1115.5,-392.5 1014.5,-392.5"/>
<text text-anchor="middle" x="1065" y="-399.5" font-family="Helvetica,sans-Serif" font-size="10.00">thirdparty/zlib/zlib.h</text>
</a>
</g>
</g>
<!-- Node35&#45;&gt;Node40 -->
<g id="edge63" class="edge"><title>Node35&#45;&gt;Node40</title>
<path fill="none" stroke="midnightblue" d="M1105.91,-448.083C1098.84,-440.298 1088.41,-428.801 1079.85,-419.367"/>
<polygon fill="midnightblue" stroke="midnightblue" points="1082.25,-416.805 1072.94,-411.751 1077.07,-421.509 1082.25,-416.805"/>
</g>
<!-- Node35&#45;&gt;Node41 -->
<g id="edge64" class="edge"><title>Node35&#45;&gt;Node41</title>
<path fill="none" stroke="midnightblue" d="M1158.9,-453.532C1211.24,-448.503 1299.79,-436.906 1372,-412 1452.24,-384.326 1538.35,-330.733 1577.06,-305.196"/>
<polygon fill="midnightblue" stroke="midnightblue" points="1579.04,-308.08 1585.42,-299.623 1575.16,-302.254 1579.04,-308.08"/>
</g>
<!-- Node47 -->
<g id="node47" class="node"><title>Node47</title>
<polygon fill="white" stroke="#bfbfbf" points="1134,-392.5 1134,-411.5 1194,-411.5 1194,-392.5 1134,-392.5"/>
<text text-anchor="middle" x="1164" y="-399.5" font-family="Helvetica,sans-Serif" font-size="10.00">sys/stat.h</text>
</g>
<!-- Node35&#45;&gt;Node47 -->
<g id="edge78" class="edge"><title>Node35&#45;&gt;Node47</title>
<path fill="none" stroke="midnightblue" d="M1122.26,-448.083C1129.46,-440.298 1140.11,-428.801 1148.85,-419.367"/>
<polygon fill="midnightblue" stroke="midnightblue" points="1151.67,-421.467 1155.9,-411.751 1146.53,-416.711 1151.67,-421.467"/>
</g>
<!-- Node48 -->
<g id="node48" class="node"><title>Node48</title>
<polygon fill="white" stroke="#bfbfbf" points="1212,-392.5 1212,-411.5 1262,-411.5 1262,-392.5 1212,-392.5"/>
<text text-anchor="middle" x="1237" y="-399.5" font-family="Helvetica,sans-Serif" font-size="10.00">fstream</text>
</g>
<!-- Node35&#45;&gt;Node48 -->
<g id="edge79" class="edge"><title>Node35&#45;&gt;Node48</title>
<path fill="none" stroke="midnightblue" d="M1133.49,-448.444C1153.64,-439.596 1185.32,-425.687 1208.33,-415.586"/>
<polygon fill="midnightblue" stroke="midnightblue" points="1209.85,-418.741 1217.6,-411.516 1207.04,-412.332 1209.85,-418.741"/>
</g>
<!-- Node49 -->
<g id="node49" class="node"><title>Node49</title>
<g id="a_node49"><a xlink:href="dirent_8h.html" target="_top" xlink:title="dirent.h">
<polygon fill="white" stroke="black" points="1280.5,-392.5 1280.5,-411.5 1329.5,-411.5 1329.5,-392.5 1280.5,-392.5"/>
<text text-anchor="middle" x="1305" y="-399.5" font-family="Helvetica,sans-Serif" font-size="10.00">dirent.h</text>
</a>
</g>
</g>
<!-- Node35&#45;&gt;Node49 -->
<g id="edge80" class="edge"><title>Node35&#45;&gt;Node49</title>
<path fill="none" stroke="midnightblue" d="M1144.26,-448.444C1178.54,-438.753 1234.29,-422.992 1270.3,-412.811"/>
<polygon fill="midnightblue" stroke="midnightblue" points="1271.67,-416.06 1280.34,-409.971 1269.77,-409.324 1271.67,-416.06"/>
</g>
<!-- Node36&#45;&gt;Node2 -->
<g id="edge49" class="edge"><title>Node36&#45;&gt;Node2</title>
<path fill="none" stroke="midnightblue" d="M1141.7,-336.112C1140.94,-323.131 1138.28,-298.519 1129,-280 1098.39,-218.926 1037.56,-163.527 1006.78,-137.938"/>
<polygon fill="midnightblue" stroke="midnightblue" points="1008.9,-135.151 998.945,-131.531 1004.47,-140.571 1008.9,-135.151"/>
</g>
<!-- Node37 -->
<g id="node37" class="node"><title>Node37</title>
<g id="a_node37"><a xlink:href="mathlib_8h.html" target="_top" xlink:title="mathlib include file ">
<polygon fill="white" stroke="red" points="1183.5,-224.5 1183.5,-243.5 1264.5,-243.5 1264.5,-224.5 1183.5,-224.5"/>
<text text-anchor="middle" x="1224" y="-231.5" font-family="Helvetica,sans-Serif" font-size="10.00">math/mathlib.h</text>
</a>
</g>
</g>
<!-- Node36&#45;&gt;Node37 -->
<g id="edge50" class="edge"><title>Node36&#45;&gt;Node37</title>
<path fill="none" stroke="midnightblue" d="M1157.27,-336.491C1170.25,-328.561 1188.55,-315.627 1200,-300 1210.21,-286.065 1216.52,-267.309 1220.09,-253.527"/>
<polygon fill="midnightblue" stroke="midnightblue" points="1223.51,-254.262 1222.39,-243.727 1216.7,-252.663 1223.51,-254.262"/>
</g>
<!-- Node38 -->
<g id="node38" class="node"><title>Node38</title>
<g id="a_node38"><a xlink:href="convertdef_8h.html" target="_top" xlink:title="support/convertdef.h">
<polygon fill="white" stroke="black" points="1014,-280.5 1014,-299.5 1120,-299.5 1120,-280.5 1014,-280.5"/>
<text text-anchor="middle" x="1067" y="-287.5" font-family="Helvetica,sans-Serif" font-size="10.00">support/convertdef.h</text>
</a>
</g>
</g>
<!-- Node36&#45;&gt;Node38 -->
<g id="edge55" class="edge"><title>Node36&#45;&gt;Node38</title>
<path fill="none" stroke="midnightblue" d="M1129.95,-336.324C1118.54,-328.107 1101.17,-315.602 1087.57,-305.807"/>
<polygon fill="midnightblue" stroke="midnightblue" points="1089.43,-302.837 1079.27,-299.834 1085.34,-308.517 1089.43,-302.837"/>
</g>
<!-- Node37&#45;&gt;Node2 -->
<g id="edge51" class="edge"><title>Node37&#45;&gt;Node2</title>
<path fill="none" stroke="midnightblue" d="M1218.24,-224.373C1208.41,-210.347 1187.01,-182.69 1162,-168 1130.91,-149.741 1092.44,-138.798 1059.58,-132.285"/>
<polygon fill="midnightblue" stroke="midnightblue" points="1060.06,-128.813 1049.58,-130.403 1058.76,-135.692 1060.06,-128.813"/>
</g>
<!-- Node37&#45;&gt;Node12 -->
<g id="edge53" class="edge"><title>Node37&#45;&gt;Node12</title>
<path fill="none" stroke="midnightblue" d="M1229.56,-224.139C1238.69,-210.283 1258.13,-183.474 1281,-168 1437.28,-62.2811 1512.63,-114.037 1701.78,-75.9527"/>
<polygon fill="midnightblue" stroke="midnightblue" points="1702.67,-79.3426 1711.75,-73.8834 1701.25,-72.4886 1702.67,-79.3426"/>
</g>
<!-- Node37&#45;&gt;Node14 -->
<g id="edge54" class="edge"><title>Node37&#45;&gt;Node14</title>
<path fill="none" stroke="midnightblue" d="M1222.65,-224.349C1219.7,-201.933 1215.33,-141.652 1248,-112 1307.86,-57.6657 1529.82,-86.3084 1610,-76 1616.39,-75.1784 1623.17,-74.2016 1629.73,-73.1995"/>
<polygon fill="midnightblue" stroke="midnightblue" points="1630.45,-76.6292 1639.79,-71.6224 1629.37,-69.7137 1630.45,-76.6292"/>
</g>
<!-- Node37&#45;&gt;Node33 -->
<g id="edge52" class="edge"><title>Node37&#45;&gt;Node33</title>
<path fill="none" stroke="midnightblue" d="M1243.97,-224.444C1264.61,-215.596 1297.06,-201.687 1320.63,-191.586"/>
<polygon fill="midnightblue" stroke="midnightblue" points="1322.32,-194.673 1330.13,-187.516 1319.56,-188.239 1322.32,-194.673"/>
</g>
<!-- Node38&#45;&gt;Node2 -->
<g id="edge56" class="edge"><title>Node38&#45;&gt;Node2</title>
<path fill="none" stroke="midnightblue" d="M1062.75,-280.075C1050.21,-253.719 1013.16,-175.878 996.405,-140.661"/>
<polygon fill="midnightblue" stroke="midnightblue" points="999.535,-139.094 992.078,-131.568 993.215,-142.102 999.535,-139.094"/>
</g>
<!-- Node38&#45;&gt;Node37 -->
<g id="edge57" class="edge"><title>Node38&#45;&gt;Node37</title>
<path fill="none" stroke="midnightblue" d="M1091.88,-280.444C1118.29,-271.359 1160.22,-256.939 1189.74,-246.783"/>
<polygon fill="midnightblue" stroke="midnightblue" points="1190.92,-250.079 1199.24,-243.516 1188.64,-243.459 1190.92,-250.079"/>
</g>
<!-- Node39&#45;&gt;Node2 -->
<g id="edge59" class="edge"><title>Node39&#45;&gt;Node2</title>
<path fill="none" stroke="midnightblue" d="M878.293,-392.231C882.933,-373.687 893,-329.068 893,-291 893,-291 893,-291 893,-233 893,-189.739 935.608,-155.086 963.755,-136.915"/>
<polygon fill="midnightblue" stroke="midnightblue" points="965.661,-139.851 972.313,-131.604 961.97,-133.903 965.661,-139.851"/>
</g>
<!-- Node39&#45;&gt;Node20 -->
<g id="edge62" class="edge"><title>Node39&#45;&gt;Node20</title>
<path fill="none" stroke="midnightblue" d="M831.816,-400.496C710.808,-397.93 383,-382.532 383,-291 383,-291 383,-291 383,-177 383,-25.0973 204.82,-117.454 49.9695,-76.0904"/>
<polygon fill="midnightblue" stroke="midnightblue" points="50.8529,-72.7028 40.2757,-73.313 48.9249,-79.432 50.8529,-72.7028"/>
</g>
<!-- Node39&#45;&gt;Node35 -->
<g id="edge61" class="edge"><title>Node39&#45;&gt;Node35</title>
<path fill="none" stroke="midnightblue" d="M918.615,-411.516C961.86,-420.861 1028.24,-435.887 1071.45,-446.088"/>
<polygon fill="midnightblue" stroke="midnightblue" points="1070.84,-449.54 1081.38,-448.444 1072.46,-442.729 1070.84,-449.54"/>
</g>
<!-- Node39&#45;&gt;Node36 -->
<g id="edge60" class="edge"><title>Node39&#45;&gt;Node36</title>
<path fill="none" stroke="midnightblue" d="M918.148,-392.444C964.746,-382.984 1039.84,-367.738 1090.05,-357.547"/>
<polygon fill="midnightblue" stroke="midnightblue" points="1090.94,-360.936 1100.05,-355.516 1089.55,-354.076 1090.94,-360.936"/>
</g>
<!-- Node41&#45;&gt;Node2 -->
<g id="edge65" class="edge"><title>Node41&#45;&gt;Node2</title>
<path fill="none" stroke="midnightblue" d="M1582.42,-280.402C1567.3,-271.828 1543.93,-257.958 1525,-244 1483.67,-213.536 1485.11,-188.411 1438,-168 1371.87,-139.35 1169.18,-128.649 1059.79,-124.888"/>
<polygon fill="midnightblue" stroke="midnightblue" points="1059.61,-121.38 1049.5,-124.545 1059.38,-128.376 1059.61,-121.38"/>
</g>
<!-- Node41&#45;&gt;Node12 -->
<g id="edge72" class="edge"><title>Node41&#45;&gt;Node12</title>
<path fill="none" stroke="midnightblue" d="M1642.6,-284.493C1695.49,-278.262 1779.35,-265.308 1802,-244 1845.62,-202.973 1861.02,-162.6 1829,-112 1815.27,-90.2999 1787.93,-78.8595 1766.09,-72.9562"/>
<polygon fill="midnightblue" stroke="midnightblue" points="1766.75,-69.5143 1756.21,-70.5494 1765.09,-76.3157 1766.75,-69.5143"/>
</g>
<!-- Node41&#45;&gt;Node34 -->
<g id="edge74" class="edge"><title>Node41&#45;&gt;Node34</title>
<path fill="none" stroke="midnightblue" d="M1596.77,-280.436C1594.61,-267.439 1589.24,-242.311 1578,-224 1555.7,-187.687 1517.28,-155.426 1493.61,-137.611"/>
<polygon fill="midnightblue" stroke="midnightblue" points="1495.45,-134.622 1485.32,-131.512 1491.3,-140.259 1495.45,-134.622"/>
</g>
<!-- Node41&#45;&gt;Node37 -->
<g id="edge71" class="edge"><title>Node41&#45;&gt;Node37</title>
<path fill="none" stroke="midnightblue" d="M1553.26,-282.54C1483.17,-272.42 1347.91,-252.891 1274.46,-242.285"/>
<polygon fill="midnightblue" stroke="midnightblue" points="1274.91,-238.815 1264.51,-240.85 1273.91,-245.743 1274.91,-238.815"/>
</g>
<!-- Node42 -->
<g id="node42" class="node"><title>Node42</title>
<g id="a_node42"><a xlink:href="elapsedtime_8h.html" target="_top" xlink:title="Elapsed Time header file. ">
<polygon fill="white" stroke="red" points="1626.5,-168.5 1626.5,-187.5 1739.5,-187.5 1739.5,-168.5 1626.5,-168.5"/>
<text text-anchor="middle" x="1683" y="-175.5" font-family="Helvetica,sans-Serif" font-size="10.00">support/elapsedtime.h</text>
</a>
</g>
</g>
<!-- Node41&#45;&gt;Node42 -->
<g id="edge66" class="edge"><title>Node41&#45;&gt;Node42</title>
<path fill="none" stroke="midnightblue" d="M1604.67,-280.368C1618.76,-262.135 1651.76,-219.426 1670.11,-195.675"/>
<polygon fill="midnightblue" stroke="midnightblue" points="1673.02,-197.644 1676.36,-187.591 1667.48,-193.364 1673.02,-197.644"/>
</g>
<!-- Node43 -->
<g id="node43" class="node"><title>Node43</title>
<polygon fill="white" stroke="#bfbfbf" points="1779.5,-112.5 1779.5,-131.5 1820.5,-131.5 1820.5,-112.5 1779.5,-112.5"/>
<text text-anchor="middle" x="1800" y="-119.5" font-family="Helvetica,sans-Serif" font-size="10.00">ctime</text>
</g>
<!-- Node41&#45;&gt;Node43 -->
<g id="edge76" class="edge"><title>Node41&#45;&gt;Node43</title>
<path fill="none" stroke="midnightblue" d="M1642.71,-283.702C1690.71,-277.064 1762.58,-264.064 1781,-244 1806.68,-216.028 1805.78,-168.203 1802.88,-141.834"/>
<polygon fill="midnightblue" stroke="midnightblue" points="1806.32,-141.128 1801.55,-131.67 1799.38,-142.041 1806.32,-141.128"/>
</g>
<!-- Node44 -->
<g id="node44" class="node"><title>Node44</title>
<polygon fill="white" stroke="#bfbfbf" points="1664,-224.5 1664,-243.5 1708,-243.5 1708,-224.5 1664,-224.5"/>
<text text-anchor="middle" x="1686" y="-231.5" font-family="Helvetica,sans-Serif" font-size="10.00">time.h</text>
</g>
<!-- Node41&#45;&gt;Node44 -->
<g id="edge73" class="edge"><title>Node41&#45;&gt;Node44</title>
<path fill="none" stroke="midnightblue" d="M1612.14,-280.324C1625.87,-271.9 1646.94,-258.971 1663.06,-249.074"/>
<polygon fill="midnightblue" stroke="midnightblue" points="1665.2,-251.868 1671.9,-243.655 1661.54,-245.902 1665.2,-251.868"/>
</g>
<!-- Node45 -->
<g id="node45" class="node"><title>Node45</title>
<polygon fill="white" stroke="#bfbfbf" points="1726,-224.5 1726,-243.5 1772,-243.5 1772,-224.5 1726,-224.5"/>
<text text-anchor="middle" x="1749" y="-231.5" font-family="Helvetica,sans-Serif" font-size="10.00">stdio.h</text>
</g>
<!-- Node41&#45;&gt;Node45 -->
<g id="edge75" class="edge"><title>Node41&#45;&gt;Node45</title>
<path fill="none" stroke="midnightblue" d="M1621.93,-280.444C1647.37,-271.345 1687.77,-256.895 1716.18,-246.737"/>
<polygon fill="midnightblue" stroke="midnightblue" points="1717.44,-250.002 1725.68,-243.339 1715.09,-243.411 1717.44,-250.002"/>
</g>
<!-- Node46 -->
<g id="node46" class="node"><title>Node46</title>
<polygon fill="white" stroke="#bfbfbf" points="1534.5,-224.5 1534.5,-243.5 1569.5,-243.5 1569.5,-224.5 1534.5,-224.5"/>
<text text-anchor="middle" x="1552" y="-231.5" font-family="Helvetica,sans-Serif" font-size="10.00">ratio</text>
</g>
<!-- Node41&#45;&gt;Node46 -->
<g id="edge77" class="edge"><title>Node41&#45;&gt;Node46</title>
<path fill="none" stroke="midnightblue" d="M1590.4,-280.083C1583.77,-272.298 1573.98,-260.801 1565.94,-251.367"/>
<polygon fill="midnightblue" stroke="midnightblue" points="1568.6,-249.094 1559.45,-243.751 1563.27,-253.633 1568.6,-249.094"/>
</g>
<!-- Node42&#45;&gt;Node2 -->
<g id="edge67" class="edge"><title>Node42&#45;&gt;Node2</title>
<path fill="none" stroke="midnightblue" d="M1626.42,-172.604C1500.74,-162.839 1198.52,-139.357 1059.8,-128.579"/>
<polygon fill="midnightblue" stroke="midnightblue" points="1059.94,-125.079 1049.7,-127.794 1059.4,-132.058 1059.94,-125.079"/>
</g>
<!-- Node42&#45;&gt;Node14 -->
<g id="edge68" class="edge"><title>Node42&#45;&gt;Node14</title>
<path fill="none" stroke="midnightblue" d="M1681.74,-168.368C1679.16,-150.617 1673.21,-109.666 1669.71,-85.5974"/>
<polygon fill="midnightblue" stroke="midnightblue" points="1673.15,-84.9835 1668.25,-75.5914 1666.23,-85.9911 1673.15,-84.9835"/>
</g>
<!-- Node42&#45;&gt;Node21 -->
<g id="edge69" class="edge"><title>Node42&#45;&gt;Node21</title>
<path fill="none" stroke="midnightblue" d="M1696.7,-168.348C1728.27,-147.41 1800.83,-93.0121 1765,-56 1723.55,-13.1805 782.533,-28.7982 656.817,-19.0905"/>
<polygon fill="midnightblue" stroke="midnightblue" points="657.14,-15.6051 646.819,-17.9974 656.379,-22.5636 657.14,-15.6051"/>
</g>
<!-- Node42&#45;&gt;Node43 -->
<g id="edge70" class="edge"><title>Node42&#45;&gt;Node43</title>
<path fill="none" stroke="midnightblue" d="M1701.54,-168.444C1720.62,-159.636 1750.57,-145.812 1772.44,-135.722"/>
<polygon fill="midnightblue" stroke="midnightblue" points="1773.93,-138.885 1781.55,-131.516 1771,-132.529 1773.93,-138.885"/>
</g>
<!-- Node50&#45;&gt;Node2 -->
<g id="edge83" class="edge"><title>Node50&#45;&gt;Node2</title>
<path fill="none" stroke="midnightblue" d="M1021.63,-336.411C1016.43,-327.621 1008.78,-313.39 1005,-300 989.234,-244.171 987.454,-174.929 987.622,-142.05"/>
<polygon fill="midnightblue" stroke="midnightblue" points="991.127,-141.716 987.75,-131.674 984.127,-141.63 991.127,-141.716"/>
</g>
<!-- Node50&#45;&gt;Node37 -->
<g id="edge84" class="edge"><title>Node50&#45;&gt;Node37</title>
<path fill="none" stroke="midnightblue" d="M1049.45,-336.486C1070.51,-328.18 1102.62,-314.681 1129,-300 1156.59,-284.649 1186.3,-263.491 1205.02,-249.539"/>
<polygon fill="midnightblue" stroke="midnightblue" points="1207.15,-252.317 1213.03,-243.504 1202.93,-246.726 1207.15,-252.317"/>
</g>
<!-- Node50&#45;&gt;Node38 -->
<g id="edge85" class="edge"><title>Node50&#45;&gt;Node38</title>
<path fill="none" stroke="midnightblue" d="M1033.61,-336.083C1039.26,-328.455 1047.54,-317.264 1054.45,-307.941"/>
<polygon fill="midnightblue" stroke="midnightblue" points="1057.38,-309.87 1060.52,-299.751 1051.75,-305.703 1057.38,-309.87"/>
</g>
</g>
</svg>
