<?xml version="1.0" encoding="UTF-8" standalone="no"?>
<!DOCTYPE svg PUBLIC "-//W3C//DTD SVG 1.1//EN"
 "http://www.w3.org/Graphics/SVG/1.1/DTD/svg11.dtd">
<!-- Generated by graphviz version 2.38.0 (20140413.2041)
 -->
<!-- Title: sliplib.h Pages: 1 -->
<!--zoomable 252 -->
<svg id="main" version="1.1" xmlns="http://www.w3.org/2000/svg" xmlns:xlink="http://www.w3.org/1999/xlink" xml:space="preserve" onload="init(evt)">
<style type="text/css"><![CDATA[
.edge:hover path { stroke: red; }
.edge:hover polygon { stroke: red; fill: red; }
]]></style>
<script type="text/javascript"><![CDATA[
var edges = document.getElementsByTagName('g');
if (edges && edges.length) {
  for (var i=0;i<edges.length;i++) {
    if (edges[i].id.substr(0,4)=='edge') {
      edges[i].setAttribute('class','edge');
    }
  }
}
]]></script>
        <defs>
                <circle id="rim" cx="0" cy="0" r="7"/>
                <circle id="rim2" cx="0" cy="0" r="3.5"/>
                <g id="zoomPlus">
                        <use xlink:href="#rim" fill="#404040">
                                <set attributeName="fill" to="#808080" begin="zoomplus.mouseover" end="zoomplus.mouseout"/>
                        </use>
                        <path d="M-4,0h8M0,-4v8" fill="none" stroke="white" stroke-width="1.5" pointer-events="none"/>
                </g>
                <g id="zoomMin">
                        <use xlink:href="#rim" fill="#404040">
                                <set attributeName="fill" to="#808080" begin="zoomminus.mouseover" end="zoomminus.mouseout"/>
                        </use>
                        <path d="M-4,0h8" fill="none" stroke="white" stroke-width="1.5" pointer-events="none"/>
                </g>
                <g id="dirArrow">
                        <path fill="none" stroke="white" stroke-width="1.5" d="M0,-3.0v7 M-2.5,-0.5L0,-3.0L2.5,-0.5"/>
                </g>
               <g id="resetDef">
                       <use xlink:href="#rim2" fill="#404040">
                               <set attributeName="fill" to="#808080" begin="reset.mouseover" end="reset.mouseout"/>
                       </use>
               </g>
        </defs>

<script type="text/javascript">
var viewWidth = 1763;
var viewHeight = 252;
var sectionId = 'dynsection-0';
</script>
<script xlink:href="svgpan.js"/>
<svg id="graph" class="graph">
<g id="viewport">
<title>sliplib.h</title>
<polygon fill="white" stroke="none" points="-4,4 -4,-248 1759,-248 1759,4 -4,4"/>
<!-- Node1 -->
<g id="node1" class="node"><title>Node1</title>
<polygon fill="#bfbfbf" stroke="black" points="841,-224.5 841,-243.5 891,-243.5 891,-224.5 841,-224.5"/>
<text text-anchor="middle" x="866" y="-231.5" font-family="Helvetica,sans-Serif" font-size="10.00">sliplib.h</text>
</g>
<!-- Node2 -->
<g id="node2" class="node"><title>Node2</title>
<g id="a_node2"><a xlink:href="config_cosmos_8h.html" target="_top" xlink:title="Headers and definitions common to all COSMOS. ">
<polygon fill="white" stroke="black" points="848.5,-112.5 848.5,-131.5 971.5,-131.5 971.5,-112.5 848.5,-112.5"/>
<text text-anchor="middle" x="910" y="-119.5" font-family="Helvetica,sans-Serif" font-size="10.00">support/configCosmos.h</text>
</a>
</g>
</g>
<!-- Node1&#45;&gt;Node2 -->
<g id="edge1" class="edge"><title>Node1&#45;&gt;Node2</title>
<path fill="none" stroke="midnightblue" d="M867.872,-224.378C870.763,-211.729 876.842,-187.527 885,-168 888.962,-158.517 894.409,-148.473 899.208,-140.285"/>
<polygon fill="midnightblue" stroke="midnightblue" points="902.237,-142.04 904.415,-131.672 896.246,-138.419 902.237,-142.04"/>
</g>
<!-- Node11 -->
<g id="node11" class="node"><title>Node11</title>
<polygon fill="white" stroke="#bfbfbf" points="0,-56.5 0,-75.5 46,-75.5 46,-56.5 0,-56.5"/>
<text text-anchor="middle" x="23" y="-63.5" font-family="Helvetica,sans-Serif" font-size="10.00">cstring</text>
</g>
<!-- Node1&#45;&gt;Node11 -->
<g id="edge46" class="edge"><title>Node1&#45;&gt;Node11</title>
<path fill="none" stroke="midnightblue" d="M840.951,-228.931C742.172,-212.724 370.092,-150.141 55.7631,-76.0257"/>
<polygon fill="midnightblue" stroke="midnightblue" points="56.5498,-72.6153 46.0126,-73.7185 54.9379,-79.4272 56.5498,-72.6153"/>
</g>
<!-- Node35 -->
<g id="node35" class="node"><title>Node35</title>
<g id="a_node35"><a xlink:href="cosmos-errno_8h.html" target="_top" xlink:title="COSMOS Error Codes. ">
<polygon fill="white" stroke="black" points="894.5,-168.5 894.5,-187.5 1013.5,-187.5 1013.5,-168.5 894.5,-168.5"/>
<text text-anchor="middle" x="954" y="-175.5" font-family="Helvetica,sans-Serif" font-size="10.00">support/cosmos&#45;errno.h</text>
</a>
</g>
</g>
<!-- Node1&#45;&gt;Node35 -->
<g id="edge43" class="edge"><title>Node1&#45;&gt;Node35</title>
<path fill="none" stroke="midnightblue" d="M880.139,-224.324C893.866,-215.9 914.936,-202.971 931.064,-193.074"/>
<polygon fill="midnightblue" stroke="midnightblue" points="933.204,-195.868 939.896,-187.655 929.543,-189.902 933.204,-195.868"/>
</g>
<!-- Node3 -->
<g id="node3" class="node"><title>Node3</title>
<polygon fill="white" stroke="#bfbfbf" points="1580.5,-56.5 1580.5,-75.5 1625.5,-75.5 1625.5,-56.5 1580.5,-56.5"/>
<text text-anchor="middle" x="1603" y="-63.5" font-family="Helvetica,sans-Serif" font-size="10.00">climits</text>
</g>
<!-- Node2&#45;&gt;Node3 -->
<g id="edge2" class="edge"><title>Node2&#45;&gt;Node3</title>
<path fill="none" stroke="midnightblue" d="M971.546,-112.949C974.742,-112.609 977.907,-112.29 981,-112 1239.68,-87.7524 1310.91,-120.119 1570.35,-75.9175"/>
<polygon fill="midnightblue" stroke="midnightblue" points="1571.19,-79.3239 1580.45,-74.1741 1570,-72.4259 1571.19,-79.3239"/>
</g>
<!-- Node4 -->
<g id="node4" class="node"><title>Node4</title>
<polygon fill="white" stroke="#bfbfbf" points="1643.5,-56.5 1643.5,-75.5 1690.5,-75.5 1690.5,-56.5 1643.5,-56.5"/>
<text text-anchor="middle" x="1667" y="-63.5" font-family="Helvetica,sans-Serif" font-size="10.00">csignal</text>
</g>
<!-- Node2&#45;&gt;Node4 -->
<g id="edge3" class="edge"><title>Node2&#45;&gt;Node4</title>
<path fill="none" stroke="midnightblue" d="M971.544,-112.927C974.74,-112.593 977.906,-112.281 981,-112 1267.66,-85.975 1346.07,-122.848 1633.49,-75.9029"/>
<polygon fill="midnightblue" stroke="midnightblue" points="1634.07,-79.3546 1643.37,-74.2706 1632.93,-72.4483 1634.07,-79.3546"/>
</g>
<!-- Node5 -->
<g id="node5" class="node"><title>Node5</title>
<polygon fill="white" stroke="#bfbfbf" points="1709,-56.5 1709,-75.5 1755,-75.5 1755,-56.5 1709,-56.5"/>
<text text-anchor="middle" x="1732" y="-63.5" font-family="Helvetica,sans-Serif" font-size="10.00">cstdint</text>
</g>
<!-- Node2&#45;&gt;Node5 -->
<g id="edge4" class="edge"><title>Node2&#45;&gt;Node5</title>
<path fill="none" stroke="midnightblue" d="M971.543,-112.908C974.739,-112.579 977.906,-112.273 981,-112 1296.45,-84.1503 1382.48,-126.747 1698.81,-75.8129"/>
<polygon fill="midnightblue" stroke="midnightblue" points="1699.41,-79.2615 1708.72,-74.1995 1698.28,-72.3525 1699.41,-79.2615"/>
</g>
<!-- Node6 -->
<g id="node6" class="node"><title>Node6</title>
<polygon fill="white" stroke="#bfbfbf" points="64,-56.5 64,-75.5 120,-75.5 120,-56.5 64,-56.5"/>
<text text-anchor="middle" x="92" y="-63.5" font-family="Helvetica,sans-Serif" font-size="10.00">cinttypes</text>
</g>
<!-- Node2&#45;&gt;Node6 -->
<g id="edge5" class="edge"><title>Node2&#45;&gt;Node6</title>
<path fill="none" stroke="midnightblue" d="M848.354,-121.226C717.521,-120.888 402.451,-115.754 130.249,-75.9041"/>
<polygon fill="midnightblue" stroke="midnightblue" points="130.583,-72.4155 120.178,-74.4108 129.556,-79.3398 130.583,-72.4155"/>
</g>
<!-- Node7 -->
<g id="node7" class="node"><title>Node7</title>
<polygon fill="white" stroke="#bfbfbf" points="138.5,-56.5 138.5,-75.5 181.5,-75.5 181.5,-56.5 138.5,-56.5"/>
<text text-anchor="middle" x="160" y="-63.5" font-family="Helvetica,sans-Serif" font-size="10.00">cstdio</text>
</g>
<!-- Node2&#45;&gt;Node7 -->
<g id="edge6" class="edge"><title>Node2&#45;&gt;Node7</title>
<path fill="none" stroke="midnightblue" d="M848.274,-121.872C724.726,-122.596 438.4,-119.136 191.681,-75.9276"/>
<polygon fill="midnightblue" stroke="midnightblue" points="192.273,-72.478 181.815,-74.1745 191.048,-79.37 192.273,-72.478"/>
</g>
<!-- Node8 -->
<g id="node8" class="node"><title>Node8</title>
<polygon fill="white" stroke="#bfbfbf" points="199.5,-56.5 199.5,-75.5 248.5,-75.5 248.5,-56.5 199.5,-56.5"/>
<text text-anchor="middle" x="224" y="-63.5" font-family="Helvetica,sans-Serif" font-size="10.00">cstddef</text>
</g>
<!-- Node2&#45;&gt;Node8 -->
<g id="edge7" class="edge"><title>Node2&#45;&gt;Node8</title>
<path fill="none" stroke="midnightblue" d="M848.305,-120.79C733.639,-119.522 479.959,-112.595 258.917,-76.0206"/>
<polygon fill="midnightblue" stroke="midnightblue" points="259.191,-72.5176 248.749,-74.3131 258.031,-79.421 259.191,-72.5176"/>
</g>
<!-- Node9 -->
<g id="node9" class="node"><title>Node9</title>
<polygon fill="white" stroke="#bfbfbf" points="266.5,-56.5 266.5,-75.5 311.5,-75.5 311.5,-56.5 266.5,-56.5"/>
<text text-anchor="middle" x="289" y="-63.5" font-family="Helvetica,sans-Serif" font-size="10.00">cstdlib</text>
</g>
<!-- Node2&#45;&gt;Node9 -->
<g id="edge8" class="edge"><title>Node2&#45;&gt;Node9</title>
<path fill="none" stroke="midnightblue" d="M848.45,-120.293C742.515,-118.204 518.939,-109.977 321.57,-75.7107"/>
<polygon fill="midnightblue" stroke="midnightblue" points="322.053,-72.242 311.597,-73.9529 320.838,-79.1357 322.053,-72.242"/>
</g>
<!-- Node10 -->
<g id="node10" class="node"><title>Node10</title>
<polygon fill="white" stroke="#bfbfbf" points="330,-56.5 330,-75.5 374,-75.5 374,-56.5 330,-56.5"/>
<text text-anchor="middle" x="352" y="-63.5" font-family="Helvetica,sans-Serif" font-size="10.00">cerrno</text>
</g>
<!-- Node2&#45;&gt;Node10 -->
<g id="edge9" class="edge"><title>Node2&#45;&gt;Node10</title>
<path fill="none" stroke="midnightblue" d="M848.212,-119.667C751.114,-116.707 556.914,-107.301 384.255,-75.8769"/>
<polygon fill="midnightblue" stroke="midnightblue" points="384.694,-72.399 374.224,-74.0218 383.421,-79.2822 384.694,-72.399"/>
</g>
<!-- Node2&#45;&gt;Node11 -->
<g id="edge10" class="edge"><title>Node2&#45;&gt;Node11</title>
<path fill="none" stroke="midnightblue" d="M848.408,-119.53C682.283,-115.29 226.634,-101.761 56.3573,-75.7991"/>
<polygon fill="midnightblue" stroke="midnightblue" points="56.7105,-72.3113 46.284,-74.1924 55.6079,-79.2239 56.7105,-72.3113"/>
</g>
<!-- Node12 -->
<g id="node12" class="node"><title>Node12</title>
<polygon fill="white" stroke="#bfbfbf" points="392,-56.5 392,-75.5 436,-75.5 436,-56.5 392,-56.5"/>
<text text-anchor="middle" x="414" y="-63.5" font-family="Helvetica,sans-Serif" font-size="10.00">cmath</text>
</g>
<!-- Node2&#45;&gt;Node12 -->
<g id="edge11" class="edge"><title>Node2&#45;&gt;Node12</title>
<path fill="none" stroke="midnightblue" d="M848.175,-118.676C760.602,-114.578 595.412,-103.883 446.47,-75.9443"/>
<polygon fill="midnightblue" stroke="midnightblue" points="446.709,-72.4268 436.23,-73.991 445.397,-79.3028 446.709,-72.4268"/>
</g>
<!-- Node13 -->
<g id="node13" class="node"><title>Node13</title>
<polygon fill="white" stroke="#bfbfbf" points="454.5,-56.5 454.5,-75.5 499.5,-75.5 499.5,-56.5 454.5,-56.5"/>
<text text-anchor="middle" x="477" y="-63.5" font-family="Helvetica,sans-Serif" font-size="10.00">iosfwd</text>
</g>
<!-- Node2&#45;&gt;Node13 -->
<g id="edge12" class="edge"><title>Node2&#45;&gt;Node13</title>
<path fill="none" stroke="midnightblue" d="M848.386,-117.206C771.344,-111.768 635.355,-99.8891 509.793,-75.8327"/>
<polygon fill="midnightblue" stroke="midnightblue" points="510.101,-72.3269 499.616,-73.8513 508.763,-79.1979 510.101,-72.3269"/>
</g>
<!-- Node14 -->
<g id="node14" class="node"><title>Node14</title>
<polygon fill="white" stroke="#bfbfbf" points="518,-56.5 518,-75.5 572,-75.5 572,-56.5 518,-56.5"/>
<text text-anchor="middle" x="545" y="-63.5" font-family="Helvetica,sans-Serif" font-size="10.00">iostream</text>
</g>
<!-- Node2&#45;&gt;Node14 -->
<g id="edge13" class="edge"><title>Node2&#45;&gt;Node14</title>
<path fill="none" stroke="midnightblue" d="M848.431,-114.609C784.222,-107.488 680.504,-94.7015 581.889,-75.9892"/>
<polygon fill="midnightblue" stroke="midnightblue" points="582.537,-72.5497 572.056,-74.1001 581.216,-79.424 582.537,-72.5497"/>
</g>
<!-- Node15 -->
<g id="node15" class="node"><title>Node15</title>
<polygon fill="white" stroke="#bfbfbf" points="590,-56.5 590,-75.5 642,-75.5 642,-56.5 590,-56.5"/>
<text text-anchor="middle" x="616" y="-63.5" font-family="Helvetica,sans-Serif" font-size="10.00">sstream</text>
</g>
<!-- Node2&#45;&gt;Node15 -->
<g id="edge14" class="edge"><title>Node2&#45;&gt;Node15</title>
<path fill="none" stroke="midnightblue" d="M853.416,-112.499C803.039,-104.63 727.137,-92.0393 652.38,-76.1654"/>
<polygon fill="midnightblue" stroke="midnightblue" points="652.832,-72.6827 642.32,-74.0075 651.364,-79.527 652.832,-72.6827"/>
</g>
<!-- Node16 -->
<g id="node16" class="node"><title>Node16</title>
<polygon fill="white" stroke="#bfbfbf" points="660.5,-56.5 660.5,-75.5 701.5,-75.5 701.5,-56.5 660.5,-56.5"/>
<text text-anchor="middle" x="681" y="-63.5" font-family="Helvetica,sans-Serif" font-size="10.00">regex</text>
</g>
<!-- Node2&#45;&gt;Node16 -->
<g id="edge15" class="edge"><title>Node2&#45;&gt;Node16</title>
<path fill="none" stroke="midnightblue" d="M868.252,-112.437C829.976,-104.39 771.527,-91.6133 711.619,-76.016"/>
<polygon fill="midnightblue" stroke="midnightblue" points="712.165,-72.5406 701.604,-73.3852 710.387,-79.311 712.165,-72.5406"/>
</g>
<!-- Node17 -->
<g id="node17" class="node"><title>Node17</title>
<polygon fill="white" stroke="#bfbfbf" points="720,-56.5 720,-75.5 770,-75.5 770,-56.5 720,-56.5"/>
<text text-anchor="middle" x="745" y="-63.5" font-family="Helvetica,sans-Serif" font-size="10.00">iomanip</text>
</g>
<!-- Node2&#45;&gt;Node17 -->
<g id="edge16" class="edge"><title>Node2&#45;&gt;Node17</title>
<path fill="none" stroke="midnightblue" d="M883.855,-112.444C855.731,-103.239 810.868,-88.5568 779.781,-78.3829"/>
<polygon fill="midnightblue" stroke="midnightblue" points="780.803,-75.0349 770.211,-75.2508 778.626,-81.6876 780.803,-75.0349"/>
</g>
<!-- Node18 -->
<g id="node18" class="node"><title>Node18</title>
<polygon fill="white" stroke="#bfbfbf" points="788.5,-56.5 788.5,-75.5 839.5,-75.5 839.5,-56.5 788.5,-56.5"/>
<text text-anchor="middle" x="814" y="-63.5" font-family="Helvetica,sans-Serif" font-size="10.00">unistd.h</text>
</g>
<!-- Node2&#45;&gt;Node18 -->
<g id="edge17" class="edge"><title>Node2&#45;&gt;Node18</title>
<path fill="none" stroke="midnightblue" d="M894.576,-112.324C879.46,-103.822 856.185,-90.7288 838.529,-80.7975"/>
<polygon fill="midnightblue" stroke="midnightblue" points="839.817,-77.5066 829.386,-75.6545 836.386,-83.6077 839.817,-77.5066"/>
</g>
<!-- Node19 -->
<g id="node19" class="node"><title>Node19</title>
<polygon fill="white" stroke="#bfbfbf" points="858,-56.5 858,-75.5 902,-75.5 902,-56.5 858,-56.5"/>
<text text-anchor="middle" x="880" y="-63.5" font-family="Helvetica,sans-Serif" font-size="10.00">fcntl.h</text>
</g>
<!-- Node2&#45;&gt;Node19 -->
<g id="edge18" class="edge"><title>Node2&#45;&gt;Node19</title>
<path fill="none" stroke="midnightblue" d="M905.046,-112.083C900.896,-104.613 894.847,-93.7244 889.733,-84.5199"/>
<polygon fill="midnightblue" stroke="midnightblue" points="892.778,-82.7929 884.862,-75.7511 886.659,-86.1924 892.778,-82.7929"/>
</g>
<!-- Node20 -->
<g id="node20" class="node"><title>Node20</title>
<polygon fill="white" stroke="#bfbfbf" points="920,-56.5 920,-75.5 960,-75.5 960,-56.5 920,-56.5"/>
<text text-anchor="middle" x="940" y="-63.5" font-family="Helvetica,sans-Serif" font-size="10.00">limits</text>
</g>
<!-- Node2&#45;&gt;Node20 -->
<g id="edge19" class="edge"><title>Node2&#45;&gt;Node20</title>
<path fill="none" stroke="midnightblue" d="M914.954,-112.083C919.104,-104.613 925.153,-93.7244 930.267,-84.5199"/>
<polygon fill="midnightblue" stroke="midnightblue" points="933.341,-86.1924 935.138,-75.7511 927.222,-82.7929 933.341,-86.1924"/>
</g>
<!-- Node21 -->
<g id="node21" class="node"><title>Node21</title>
<polygon fill="white" stroke="#bfbfbf" points="1521.5,-0.5 1521.5,-19.5 1562.5,-19.5 1562.5,-0.5 1521.5,-0.5"/>
<text text-anchor="middle" x="1542" y="-7.5" font-family="Helvetica,sans-Serif" font-size="10.00">string</text>
</g>
<!-- Node2&#45;&gt;Node21 -->
<g id="edge20" class="edge"><title>Node2&#45;&gt;Node21</title>
<path fill="none" stroke="midnightblue" d="M971.555,-113.033C974.748,-112.671 977.911,-112.324 981,-112 1172.61,-91.8811 1227.76,-128.966 1413,-76 1431.73,-70.6448 1434.62,-64.8003 1452,-56 1473.3,-45.2125 1497.51,-33.1157 1515.46,-24.1832"/>
<polygon fill="midnightblue" stroke="midnightblue" points="1517.33,-27.1623 1524.72,-19.5746 1514.21,-20.895 1517.33,-27.1623"/>
</g>
<!-- Node22 -->
<g id="node22" class="node"><title>Node22</title>
<polygon fill="white" stroke="#bfbfbf" points="1244,-0.5 1244,-19.5 1288,-19.5 1288,-0.5 1244,-0.5"/>
<text text-anchor="middle" x="1266" y="-7.5" font-family="Helvetica,sans-Serif" font-size="10.00">vector</text>
</g>
<!-- Node2&#45;&gt;Node22 -->
<g id="edge21" class="edge"><title>Node2&#45;&gt;Node22</title>
<path fill="none" stroke="midnightblue" d="M971.591,-113.183C1064.09,-101.34 1228.71,-79.8195 1234,-76 1249.26,-64.9749 1257.61,-44.6231 1261.92,-29.6191"/>
<polygon fill="midnightblue" stroke="midnightblue" points="1265.33,-30.4009 1264.38,-19.8488 1258.55,-28.6903 1265.33,-30.4009"/>
</g>
<!-- Node23 -->
<g id="node23" class="node"><title>Node23</title>
<polygon fill="white" stroke="#bfbfbf" points="1460.5,-56.5 1460.5,-75.5 1501.5,-75.5 1501.5,-56.5 1460.5,-56.5"/>
<text text-anchor="middle" x="1481" y="-63.5" font-family="Helvetica,sans-Serif" font-size="10.00">stack</text>
</g>
<!-- Node2&#45;&gt;Node23 -->
<g id="edge22" class="edge"><title>Node2&#45;&gt;Node23</title>
<path fill="none" stroke="midnightblue" d="M971.553,-113.011C974.746,-112.655 977.91,-112.315 981,-112 1187.21,-90.9602 1241.51,-109.94 1446,-76 1447.47,-75.756 1448.97,-75.4798 1450.48,-75.1795"/>
<polygon fill="midnightblue" stroke="midnightblue" points="1451.42,-78.5551 1460.4,-72.9334 1449.87,-71.7278 1451.42,-78.5551"/>
</g>
<!-- Node24 -->
<g id="node24" class="node"><title>Node24</title>
<polygon fill="white" stroke="#bfbfbf" points="1519.5,-56.5 1519.5,-75.5 1562.5,-75.5 1562.5,-56.5 1519.5,-56.5"/>
<text text-anchor="middle" x="1541" y="-63.5" font-family="Helvetica,sans-Serif" font-size="10.00">deque</text>
</g>
<!-- Node2&#45;&gt;Node24 -->
<g id="edge23" class="edge"><title>Node2&#45;&gt;Node24</title>
<path fill="none" stroke="midnightblue" d="M971.549,-112.975C974.743,-112.628 977.908,-112.301 981,-112 1212.66,-89.4687 1276.89,-117.373 1509.07,-75.987"/>
<polygon fill="midnightblue" stroke="midnightblue" points="1509.96,-79.3827 1519.18,-74.1605 1508.72,-72.4943 1509.96,-79.3827"/>
</g>
<!-- Node25 -->
<g id="node25" class="node"><title>Node25</title>
<polygon fill="white" stroke="#bfbfbf" points="898,-0.5 898,-19.5 942,-19.5 942,-0.5 898,-0.5"/>
<text text-anchor="middle" x="920" y="-7.5" font-family="Helvetica,sans-Serif" font-size="10.00">mutex</text>
</g>
<!-- Node2&#45;&gt;Node25 -->
<g id="edge24" class="edge"><title>Node2&#45;&gt;Node25</title>
<path fill="none" stroke="midnightblue" d="M928.984,-112.398C942.886,-104.954 960.714,-92.741 969,-76 978.395,-57.0176 959.995,-37.9829 943.125,-25.4633"/>
<polygon fill="midnightblue" stroke="midnightblue" points="944.808,-22.3714 934.597,-19.545 940.817,-28.1221 944.808,-22.3714"/>
</g>
<!-- Node26 -->
<g id="node26" class="node"><title>Node26</title>
<polygon fill="white" stroke="#bfbfbf" points="960,-0.5 960,-19.5 1004,-19.5 1004,-0.5 960,-0.5"/>
<text text-anchor="middle" x="982" y="-7.5" font-family="Helvetica,sans-Serif" font-size="10.00">thread</text>
</g>
<!-- Node2&#45;&gt;Node26 -->
<g id="edge25" class="edge"><title>Node2&#45;&gt;Node26</title>
<path fill="none" stroke="midnightblue" d="M936.929,-112.356C953.719,-105.411 973.978,-93.8247 984,-76 991.946,-61.8673 990.348,-43.1358 987.413,-29.4125"/>
<polygon fill="midnightblue" stroke="midnightblue" points="990.79,-28.4903 984.929,-19.664 984.007,-30.2186 990.79,-28.4903"/>
</g>
<!-- Node27 -->
<g id="node27" class="node"><title>Node27</title>
<polygon fill="white" stroke="#bfbfbf" points="1022.5,-0.5 1022.5,-19.5 1117.5,-19.5 1117.5,-0.5 1022.5,-0.5"/>
<text text-anchor="middle" x="1070" y="-7.5" font-family="Helvetica,sans-Serif" font-size="10.00">condition_variable</text>
</g>
<!-- Node2&#45;&gt;Node27 -->
<g id="edge26" class="edge"><title>Node2&#45;&gt;Node27</title>
<path fill="none" stroke="midnightblue" d="M931.315,-112.401C950.175,-104.324 978.032,-91.2241 1000,-76 1020.74,-61.6284 1041.55,-41.3814 1055.02,-27.3184"/>
<polygon fill="midnightblue" stroke="midnightblue" points="1057.75,-29.5266 1062.05,-19.8441 1052.65,-24.7311 1057.75,-29.5266"/>
</g>
<!-- Node28 -->
<g id="node28" class="node"><title>Node28</title>
<polygon fill="white" stroke="#bfbfbf" points="1182.5,-0.5 1182.5,-19.5 1225.5,-19.5 1225.5,-0.5 1182.5,-0.5"/>
<text text-anchor="middle" x="1204" y="-7.5" font-family="Helvetica,sans-Serif" font-size="10.00">queue</text>
</g>
<!-- Node2&#45;&gt;Node28 -->
<g id="edge27" class="edge"><title>Node2&#45;&gt;Node28</title>
<path fill="none" stroke="midnightblue" d="M971.852,-112.96C1060.36,-101.311 1213,-80.6236 1217,-76 1228.25,-62.9821 1221.93,-43.0012 1214.72,-28.6295"/>
<polygon fill="midnightblue" stroke="midnightblue" points="1217.7,-26.7843 1209.79,-19.7305 1211.57,-30.1746 1217.7,-26.7843"/>
</g>
<!-- Node29 -->
<g id="node29" class="node"><title>Node29</title>
<polygon fill="white" stroke="#bfbfbf" points="1306.5,-0.5 1306.5,-19.5 1341.5,-19.5 1341.5,-0.5 1306.5,-0.5"/>
<text text-anchor="middle" x="1324" y="-7.5" font-family="Helvetica,sans-Serif" font-size="10.00">map</text>
</g>
<!-- Node2&#45;&gt;Node29 -->
<g id="edge28" class="edge"><title>Node2&#45;&gt;Node29</title>
<path fill="none" stroke="midnightblue" d="M971.51,-113.121C1070.52,-100.423 1254.4,-76.7636 1256,-76 1279.15,-64.9267 1299.51,-42.9529 1311.77,-27.6352"/>
<polygon fill="midnightblue" stroke="midnightblue" points="1314.69,-29.5777 1318.02,-19.5182 1309.15,-25.3085 1314.69,-29.5777"/>
</g>
<!-- Node30 -->
<g id="node30" class="node"><title>Node30</title>
<g id="a_node30"><a xlink:href="cosmos-defs_8h.html" target="_top" xlink:title="COSMOS definitions Definitions specific to the COSMOS environement. ">
<polygon fill="white" stroke="black" points="1092,-56.5 1092,-75.5 1208,-75.5 1208,-56.5 1092,-56.5"/>
<text text-anchor="middle" x="1150" y="-63.5" font-family="Helvetica,sans-Serif" font-size="10.00">support/cosmos&#45;defs.h</text>
</a>
</g>
</g>
<!-- Node2&#45;&gt;Node30 -->
<g id="edge29" class="edge"><title>Node2&#45;&gt;Node30</title>
<path fill="none" stroke="midnightblue" d="M948.029,-112.444C989.808,-103.043 1056.98,-87.9291 1102.27,-77.7393"/>
<polygon fill="midnightblue" stroke="midnightblue" points="1103.16,-81.1263 1112.15,-75.5164 1101.62,-74.297 1103.16,-81.1263"/>
</g>
<!-- Node32 -->
<g id="node32" class="node"><title>Node32</title>
<g id="a_node32"><a xlink:href="json11_8hpp.html" target="_top" xlink:title="json11.hpp">
<polygon fill="white" stroke="black" points="1340,-56.5 1340,-75.5 1404,-75.5 1404,-56.5 1340,-56.5"/>
<text text-anchor="middle" x="1372" y="-63.5" font-family="Helvetica,sans-Serif" font-size="10.00">json11.hpp</text>
</a>
</g>
</g>
<!-- Node2&#45;&gt;Node32 -->
<g id="edge37" class="edge"><title>Node2&#45;&gt;Node32</title>
<path fill="none" stroke="midnightblue" d="M971.563,-113.112C974.754,-112.729 977.914,-112.357 981,-112 1134.15,-94.3054 1173.53,-98.8235 1326,-76 1327.27,-75.8103 1328.55,-75.6098 1329.85,-75.4006"/>
<polygon fill="midnightblue" stroke="midnightblue" points="1330.64,-78.8166 1339.89,-73.6611 1329.44,-71.9193 1330.64,-78.8166"/>
</g>
<!-- Node30&#45;&gt;Node22 -->
<g id="edge31" class="edge"><title>Node30&#45;&gt;Node22</title>
<path fill="none" stroke="midnightblue" d="M1168.38,-56.4435C1187.22,-47.6751 1216.73,-33.9355 1238.38,-23.8579"/>
<polygon fill="midnightblue" stroke="midnightblue" points="1240.12,-26.9098 1247.71,-19.5164 1237.16,-20.5637 1240.12,-26.9098"/>
</g>
<!-- Node30&#45;&gt;Node25 -->
<g id="edge35" class="edge"><title>Node30&#45;&gt;Node25</title>
<path fill="none" stroke="midnightblue" d="M1109.05,-56.4926C1070.82,-48.384 1011.98,-35.4763 952.281,-20.2195"/>
<polygon fill="midnightblue" stroke="midnightblue" points="952.864,-16.7554 942.307,-17.6501 951.118,-23.5341 952.864,-16.7554"/>
</g>
<!-- Node30&#45;&gt;Node26 -->
<g id="edge34" class="edge"><title>Node30&#45;&gt;Node26</title>
<path fill="none" stroke="midnightblue" d="M1123.38,-56.4435C1093.66,-46.8902 1045.58,-31.436 1013.88,-21.2461"/>
<polygon fill="midnightblue" stroke="midnightblue" points="1014.79,-17.8649 1004.2,-18.1368 1012.65,-24.5291 1014.79,-17.8649"/>
</g>
<!-- Node30&#45;&gt;Node27 -->
<g id="edge36" class="edge"><title>Node30&#45;&gt;Node27</title>
<path fill="none" stroke="midnightblue" d="M1137.15,-56.324C1124.78,-47.979 1105.87,-35.2122 1091.26,-25.3524"/>
<polygon fill="midnightblue" stroke="midnightblue" points="1093.07,-22.3483 1082.82,-19.6545 1089.15,-28.1503 1093.07,-22.3483"/>
</g>
<!-- Node30&#45;&gt;Node28 -->
<g id="edge33" class="edge"><title>Node30&#45;&gt;Node28</title>
<path fill="none" stroke="midnightblue" d="M1158.92,-56.083C1166.78,-48.2195 1178.43,-36.5688 1187.92,-27.0813"/>
<polygon fill="midnightblue" stroke="midnightblue" points="1190.65,-29.2971 1195.25,-19.7511 1185.7,-24.3473 1190.65,-29.2971"/>
</g>
<!-- Node30&#45;&gt;Node29 -->
<g id="edge30" class="edge"><title>Node30&#45;&gt;Node29</title>
<path fill="none" stroke="midnightblue" d="M1178.52,-56.4967C1206.27,-48.1726 1249.86,-34.9676 1296.6,-20.0708"/>
<polygon fill="midnightblue" stroke="midnightblue" points="1297.84,-23.3483 1306.3,-16.9689 1295.71,-16.6809 1297.84,-23.3483"/>
</g>
<!-- Node31 -->
<g id="node31" class="node"><title>Node31</title>
<polygon fill="white" stroke="#bfbfbf" points="1135.5,-0.5 1135.5,-19.5 1164.5,-19.5 1164.5,-0.5 1135.5,-0.5"/>
<text text-anchor="middle" x="1150" y="-7.5" font-family="Helvetica,sans-Serif" font-size="10.00">list</text>
</g>
<!-- Node30&#45;&gt;Node31 -->
<g id="edge32" class="edge"><title>Node30&#45;&gt;Node31</title>
<path fill="none" stroke="midnightblue" d="M1150,-56.083C1150,-49.0059 1150,-38.8611 1150,-29.9865"/>
<polygon fill="midnightblue" stroke="midnightblue" points="1153.5,-29.751 1150,-19.7511 1146.5,-29.7511 1153.5,-29.751"/>
</g>
<!-- Node32&#45;&gt;Node21 -->
<g id="edge38" class="edge"><title>Node32&#45;&gt;Node21</title>
<path fill="none" stroke="midnightblue" d="M1398.94,-56.4435C1429.6,-46.7024 1479.58,-30.826 1511.62,-20.6512"/>
<polygon fill="midnightblue" stroke="midnightblue" points="1512.87,-23.9263 1521.34,-17.5631 1510.75,-17.2548 1512.87,-23.9263"/>
</g>
<!-- Node32&#45;&gt;Node22 -->
<g id="edge39" class="edge"><title>Node32&#45;&gt;Node22</title>
<path fill="none" stroke="midnightblue" d="M1354.97,-56.324C1337.97,-47.6641 1311.62,-34.2424 1292.01,-24.249"/>
<polygon fill="midnightblue" stroke="midnightblue" points="1293.49,-21.0752 1282.99,-19.6545 1290.31,-27.3125 1293.49,-21.0752"/>
</g>
<!-- Node32&#45;&gt;Node29 -->
<g id="edge40" class="edge"><title>Node32&#45;&gt;Node29</title>
<path fill="none" stroke="midnightblue" d="M1364.07,-56.083C1357.15,-48.2982 1346.93,-36.8015 1338.55,-27.3665"/>
<polygon fill="midnightblue" stroke="midnightblue" points="1341.04,-24.8999 1331.78,-19.7511 1335.81,-29.5505 1341.04,-24.8999"/>
</g>
<!-- Node33 -->
<g id="node33" class="node"><title>Node33</title>
<polygon fill="white" stroke="#bfbfbf" points="1360,-0.5 1360,-19.5 1412,-19.5 1412,-0.5 1360,-0.5"/>
<text text-anchor="middle" x="1386" y="-7.5" font-family="Helvetica,sans-Serif" font-size="10.00">memory</text>
</g>
<!-- Node32&#45;&gt;Node33 -->
<g id="edge41" class="edge"><title>Node32&#45;&gt;Node33</title>
<path fill="none" stroke="midnightblue" d="M1374.31,-56.083C1376.17,-48.9272 1378.84,-38.6353 1381.15,-29.6911"/>
<polygon fill="midnightblue" stroke="midnightblue" points="1384.61,-30.3094 1383.73,-19.7511 1377.83,-28.5527 1384.61,-30.3094"/>
</g>
<!-- Node34 -->
<g id="node34" class="node"><title>Node34</title>
<polygon fill="white" stroke="#bfbfbf" points="1430.5,-0.5 1430.5,-19.5 1503.5,-19.5 1503.5,-0.5 1430.5,-0.5"/>
<text text-anchor="middle" x="1467" y="-7.5" font-family="Helvetica,sans-Serif" font-size="10.00">initializer_list</text>
</g>
<!-- Node32&#45;&gt;Node34 -->
<g id="edge42" class="edge"><title>Node32&#45;&gt;Node34</title>
<path fill="none" stroke="midnightblue" d="M1387.26,-56.324C1402.22,-47.8215 1425.25,-34.7288 1442.73,-24.7975"/>
<polygon fill="midnightblue" stroke="midnightblue" points="1444.81,-27.639 1451.77,-19.6545 1441.35,-21.5534 1444.81,-27.639"/>
</g>
<!-- Node35&#45;&gt;Node2 -->
<g id="edge44" class="edge"><title>Node35&#45;&gt;Node2</title>
<path fill="none" stroke="midnightblue" d="M946.734,-168.083C940.455,-160.377 931.212,-149.033 923.569,-139.653"/>
<polygon fill="midnightblue" stroke="midnightblue" points="926.161,-137.293 917.131,-131.751 920.734,-141.714 926.161,-137.293"/>
</g>
<!-- Node36 -->
<g id="node36" class="node"><title>Node36</title>
<polygon fill="white" stroke="#bfbfbf" points="989.5,-112.5 989.5,-131.5 1036.5,-131.5 1036.5,-112.5 989.5,-112.5"/>
<text text-anchor="middle" x="1013" y="-119.5" font-family="Helvetica,sans-Serif" font-size="10.00">errno.h</text>
</g>
<!-- Node35&#45;&gt;Node36 -->
<g id="edge45" class="edge"><title>Node35&#45;&gt;Node36</title>
<path fill="none" stroke="midnightblue" d="M963.479,-168.324C972.201,-160.341 985.343,-148.313 995.898,-138.653"/>
<polygon fill="midnightblue" stroke="midnightblue" points="998.334,-141.167 1003.35,-131.834 993.608,-136.004 998.334,-141.167"/>
</g>
</g>
</svg>
        <g id="navigator" transform="translate(0 0)" fill="#404254">
                <rect fill="#f2f5e9" fill-opacity="0.5" stroke="#606060" stroke-width=".5" x="0" y="0" width="60" height="60"/>
                <use id="zoomplus" xlink:href="#zoomPlus" x="17" y="9" onmousedown="handleZoom(evt,'in')"/>
                <use id="zoomminus" xlink:href="#zoomMin" x="42" y="9" onmousedown="handleZoom(evt,'out')"/>
                <use id="reset" xlink:href="#resetDef" x="30" y="36" onmousedown="handleReset()"/>
                <g id="arrowUp" xlink:href="#dirArrow" transform="translate(30 24)" onmousedown="handlePan(0,-1)">
                  <use xlink:href="#rim" fill="#404040">
                        <set attributeName="fill" to="#808080" begin="arrowUp.mouseover" end="arrowUp.mouseout"/>
                  </use>
                  <path fill="none" stroke="white" stroke-width="1.5" d="M0,-3.0v7 M-2.5,-0.5L0,-3.0L2.5,-0.5"/>
                </g>
                <g id="arrowRight" xlink:href="#dirArrow" transform="rotate(90) translate(36 -43)" onmousedown="handlePan(1,0)">
                  <use xlink:href="#rim" fill="#404040">
                        <set attributeName="fill" to="#808080" begin="arrowRight.mouseover" end="arrowRight.mouseout"/>
                  </use>
                  <path fill="none" stroke="white" stroke-width="1.5" d="M0,-3.0v7 M-2.5,-0.5L0,-3.0L2.5,-0.5"/>
                </g>
                <g id="arrowDown" xlink:href="#dirArrow" transform="rotate(180) translate(-30 -48)" onmousedown="handlePan(0,1)">
                  <use xlink:href="#rim" fill="#404040">
                        <set attributeName="fill" to="#808080" begin="arrowDown.mouseover" end="arrowDown.mouseout"/>
                  </use>
                  <path fill="none" stroke="white" stroke-width="1.5" d="M0,-3.0v7 M-2.5,-0.5L0,-3.0L2.5,-0.5"/>
                </g>
                <g id="arrowLeft" xlink:href="#dirArrow" transform="rotate(270) translate(-36 17)" onmousedown="handlePan(-1,0)">
                  <use xlink:href="#rim" fill="#404040">
                        <set attributeName="fill" to="#808080" begin="arrowLeft.mouseover" end="arrowLeft.mouseout"/>
                  </use>
                  <path fill="none" stroke="white" stroke-width="1.5" d="M0,-3.0v7 M-2.5,-0.5L0,-3.0L2.5,-0.5"/>
                </g>
        </g>
        <svg viewBox="0 0 15 15" width="100%" height="30px" preserveAspectRatio="xMaxYMin meet">
         <g id="arrow_out" transform="scale(0.3 0.3)">
          <a xlink:href="sliplib_8h__incl_org.svg" target="_base">
           <rect id="button" ry="5" rx="5" y="6" x="6" height="38" width="38"
                fill="#f2f5e9" fill-opacity="0.5" stroke="#606060" stroke-width="1.0"/>
           <path id="arrow"
             d="M 11.500037,31.436501 C 11.940474,20.09759 22.043105,11.32322 32.158766,21.979434 L 37.068811,17.246167 C 37.068811,17.246167 37.088388,32 37.088388,32 L 22.160133,31.978069 C 22.160133,31.978069 26.997745,27.140456 26.997745,27.140456 C 18.528582,18.264221 13.291696,25.230495 11.500037,31.436501 z"
             style="fill:#404040;"/>
          </a>
         </g>
        </svg>
</svg>
