<?xml version="1.0" encoding="UTF-8" standalone="no"?>
<!DOCTYPE svg PUBLIC "-//W3C//DTD SVG 1.1//EN"
 "http://www.w3.org/Graphics/SVG/1.1/DTD/svg11.dtd">
<!-- Generated by graphviz version 2.38.0 (20140413.2041)
 -->
<!-- Title: sliplib.h Pages: 1 -->
<!--zoomable 196 -->
<svg id="main" version="1.1" xmlns="http://www.w3.org/2000/svg" xmlns:xlink="http://www.w3.org/1999/xlink" xml:space="preserve" onload="init(evt)">
<style type="text/css"><![CDATA[
.edge:hover path { stroke: red; }
.edge:hover polygon { stroke: red; fill: red; }
]]></style>
<script type="text/javascript"><![CDATA[
var edges = document.getElementsByTagName('g');
if (edges && edges.length) {
  for (var i=0;i<edges.length;i++) {
    if (edges[i].id.substr(0,4)=='edge') {
      edges[i].setAttribute('class','edge');
    }
  }
}
]]></script>
        <defs>
                <circle id="rim" cx="0" cy="0" r="7"/>
                <circle id="rim2" cx="0" cy="0" r="3.5"/>
                <g id="zoomPlus">
                        <use xlink:href="#rim" fill="#404040">
                                <set attributeName="fill" to="#808080" begin="zoomplus.mouseover" end="zoomplus.mouseout"/>
                        </use>
                        <path d="M-4,0h8M0,-4v8" fill="none" stroke="white" stroke-width="1.5" pointer-events="none"/>
                </g>
                <g id="zoomMin">
                        <use xlink:href="#rim" fill="#404040">
                                <set attributeName="fill" to="#808080" begin="zoomminus.mouseover" end="zoomminus.mouseout"/>
                        </use>
                        <path d="M-4,0h8" fill="none" stroke="white" stroke-width="1.5" pointer-events="none"/>
                </g>
                <g id="dirArrow">
                        <path fill="none" stroke="white" stroke-width="1.5" d="M0,-3.0v7 M-2.5,-0.5L0,-3.0L2.5,-0.5"/>
                </g>
               <g id="resetDef">
                       <use xlink:href="#rim2" fill="#404040">
                               <set attributeName="fill" to="#808080" begin="reset.mouseover" end="reset.mouseout"/>
                       </use>
               </g>
        </defs>

<script type="text/javascript">
var viewWidth = 4374;
var viewHeight = 196;
var sectionId = 'dynsection-1';
</script>
<script xlink:href="svgpan.js"/>
<svg id="graph" class="graph">
<g id="viewport">
<title>sliplib.h</title>
<polygon fill="white" stroke="none" points="-4,4 -4,-192 4369.5,-192 4369.5,4 -4,4"/>
<!-- Node1 -->
<g id="node1" class="node"><title>Node1</title>
<polygon fill="#bfbfbf" stroke="black" points="3917.5,-168.5 3917.5,-187.5 3967.5,-187.5 3967.5,-168.5 3917.5,-168.5"/>
<text text-anchor="middle" x="3942.5" y="-175.5" font-family="Helvetica,sans-Serif" font-size="10.00">sliplib.h</text>
</g>
<!-- Node2 -->
<g id="node2" class="node"><title>Node2</title>
<g id="a_node2"><a xlink:href="agentclass_8h.html" target="_top" xlink:title="Agent Server and Client header file. ">
<polygon fill="white" stroke="red" points="2010.5,-112.5 2010.5,-131.5 2082.5,-131.5 2082.5,-112.5 2010.5,-112.5"/>
<text text-anchor="middle" x="2046.5" y="-119.5" font-family="Helvetica,sans-Serif" font-size="10.00">agentclass.h</text>
</a>
</g>
</g>
<!-- Node1&#45;&gt;Node2 -->
<g id="edge1" class="edge"><title>Node1&#45;&gt;Node2</title>
<path fill="none" stroke="midnightblue" d="M3907.42,-176.001C3671.75,-169.289 2321.41,-130.83 2082.59,-124.028"/>
<polygon fill="midnightblue" stroke="midnightblue" points="3907.39,-179.501 3917.48,-176.288 3907.59,-172.504 3907.39,-179.501"/>
</g>
<!-- Node38 -->
<g id="node38" class="node"><title>Node38</title>
<g id="a_node38"><a xlink:href="agent__file_8cpp.html" target="_top" xlink:title="File Transfer Agent source file. ">
<polygon fill="white" stroke="black" points="3544,-56.5 3544,-75.5 3621,-75.5 3621,-56.5 3544,-56.5"/>
<text text-anchor="middle" x="3582.5" y="-63.5" font-family="Helvetica,sans-Serif" font-size="10.00">agent_file.cpp</text>
</a>
</g>
</g>
<!-- Node1&#45;&gt;Node38 -->
<g id="edge53" class="edge"><title>Node1&#45;&gt;Node38</title>
<path fill="none" stroke="midnightblue" d="M3907.45,-167.383C3875.36,-158.494 3826.62,-144.769 3784.5,-132 3720.86,-112.705 3646.54,-88.3055 3608.24,-75.5915"/>
<polygon fill="midnightblue" stroke="midnightblue" points="3906.68,-170.801 3917.25,-170.092 3908.54,-164.054 3906.68,-170.801"/>
</g>
<!-- Node39 -->
<g id="node39" class="node"><title>Node39</title>
<g id="a_node39"><a xlink:href="agent__file2_8cpp.html" target="_top" xlink:title="agent_file2.cpp">
<polygon fill="white" stroke="black" points="3639,-56.5 3639,-75.5 3722,-75.5 3722,-56.5 3639,-56.5"/>
<text text-anchor="middle" x="3680.5" y="-63.5" font-family="Helvetica,sans-Serif" font-size="10.00">agent_file2.cpp</text>
</a>
</g>
</g>
<!-- Node1&#45;&gt;Node39 -->
<g id="edge54" class="edge"><title>Node1&#45;&gt;Node39</title>
<path fill="none" stroke="midnightblue" d="M3912.6,-164.446C3858.79,-141.855 3746.98,-94.9113 3700.96,-75.5914"/>
<polygon fill="midnightblue" stroke="midnightblue" points="3911.37,-167.724 3921.94,-168.368 3914.08,-161.27 3911.37,-167.724"/>
</g>
<!-- Node40 -->
<g id="node40" class="node"><title>Node40</title>
<g id="a_node40"><a xlink:href="agent__file3_8cpp.html" target="_top" xlink:title="agent_file3.cpp">
<polygon fill="white" stroke="black" points="3740,-56.5 3740,-75.5 3823,-75.5 3823,-56.5 3740,-56.5"/>
<text text-anchor="middle" x="3781.5" y="-63.5" font-family="Helvetica,sans-Serif" font-size="10.00">agent_file3.cpp</text>
</a>
</g>
</g>
<!-- Node1&#45;&gt;Node40 -->
<g id="edge55" class="edge"><title>Node1&#45;&gt;Node40</title>
<path fill="none" stroke="midnightblue" d="M3921.59,-162.714C3887.66,-139.535 3821.65,-94.4303 3794.07,-75.5914"/>
<polygon fill="midnightblue" stroke="midnightblue" points="3919.64,-165.617 3929.87,-168.368 3923.58,-159.837 3919.64,-165.617"/>
</g>
<!-- Node41 -->
<g id="node41" class="node"><title>Node41</title>
<g id="a_node41"><a xlink:href="agent__file4_8cpp.html" target="_top" xlink:title="agent_file4.cpp">
<polygon fill="white" stroke="black" points="3841,-56.5 3841,-75.5 3924,-75.5 3924,-56.5 3841,-56.5"/>
<text text-anchor="middle" x="3882.5" y="-63.5" font-family="Helvetica,sans-Serif" font-size="10.00">agent_file4.cpp</text>
</a>
</g>
</g>
<!-- Node1&#45;&gt;Node41 -->
<g id="edge56" class="edge"><title>Node1&#45;&gt;Node41</title>
<path fill="none" stroke="midnightblue" d="M3932.86,-159.32C3919.79,-135.37 3896.98,-93.5484 3887.19,-75.5914"/>
<polygon fill="midnightblue" stroke="midnightblue" points="3929.93,-161.266 3937.79,-168.368 3936.08,-157.914 3929.93,-161.266"/>
</g>
<!-- Node43 -->
<g id="node43" class="node"><title>Node43</title>
<g id="a_node43"><a xlink:href="netperf__listen_8cpp.html" target="_top" xlink:title="netperf_listen.cpp">
<polygon fill="white" stroke="black" points="3942.5,-56.5 3942.5,-75.5 4036.5,-75.5 4036.5,-56.5 3942.5,-56.5"/>
<text text-anchor="middle" x="3989.5" y="-63.5" font-family="Helvetica,sans-Serif" font-size="10.00">netperf_listen.cpp</text>
</a>
</g>
</g>
<!-- Node1&#45;&gt;Node43 -->
<g id="edge57" class="edge"><title>Node1&#45;&gt;Node43</title>
<path fill="none" stroke="midnightblue" d="M3932.43,-158.924C3926.33,-145.404 3921.04,-126.78 3928.5,-112 3937.04,-95.0837 3955.28,-82.96 3969.59,-75.5896"/>
<polygon fill="midnightblue" stroke="midnightblue" points="3929.44,-160.757 3937.05,-168.119 3935.69,-157.613 3929.44,-160.757"/>
</g>
<!-- Node44 -->
<g id="node44" class="node"><title>Node44</title>
<g id="a_node44"><a xlink:href="netperf__send_8cpp.html" target="_top" xlink:title="netperf_send.cpp">
<polygon fill="white" stroke="black" points="4054.5,-56.5 4054.5,-75.5 4146.5,-75.5 4146.5,-56.5 4054.5,-56.5"/>
<text text-anchor="middle" x="4100.5" y="-63.5" font-family="Helvetica,sans-Serif" font-size="10.00">netperf_send.cpp</text>
</a>
</g>
</g>
<!-- Node1&#45;&gt;Node44 -->
<g id="edge58" class="edge"><title>Node1&#45;&gt;Node44</title>
<path fill="none" stroke="midnightblue" d="M3945.05,-157.845C3947.93,-143.438 3953.97,-124.165 3966.5,-112 3980.54,-98.3682 4029.1,-84.2545 4063.72,-75.551"/>
<polygon fill="midnightblue" stroke="midnightblue" points="3941.53,-157.69 3943.36,-168.126 3948.44,-158.828 3941.53,-157.69"/>
</g>
<!-- Node45 -->
<g id="node45" class="node"><title>Node45</title>
<g id="a_node45"><a xlink:href="udp__send_8cpp.html" target="_top" xlink:title="udp_send.cpp">
<polygon fill="white" stroke="black" points="4165,-56.5 4165,-75.5 4242,-75.5 4242,-56.5 4165,-56.5"/>
<text text-anchor="middle" x="4203.5" y="-63.5" font-family="Helvetica,sans-Serif" font-size="10.00">udp_send.cpp</text>
</a>
</g>
</g>
<!-- Node1&#45;&gt;Node45 -->
<g id="edge59" class="edge"><title>Node1&#45;&gt;Node45</title>
<path fill="none" stroke="midnightblue" d="M3953.21,-159.885C3963.49,-144.917 3980.4,-123.781 4000.5,-112 4014.55,-103.762 4109.71,-84.77 4164.61,-74.284"/>
<polygon fill="midnightblue" stroke="midnightblue" points="3950.27,-157.991 3947.69,-168.269 3956.11,-161.838 3950.27,-157.991"/>
</g>
<!-- Node46 -->
<g id="node46" class="node"><title>Node46</title>
<g id="a_node46"><a xlink:href="spp_8h.html" target="_top" xlink:title="spp.h">
<polygon fill="white" stroke="red" points="4009,-112.5 4009,-131.5 4050,-131.5 4050,-112.5 4009,-112.5"/>
<text text-anchor="middle" x="4029.5" y="-119.5" font-family="Helvetica,sans-Serif" font-size="10.00">spp.h</text>
</a>
</g>
</g>
<!-- Node1&#45;&gt;Node46 -->
<g id="edge48" class="edge"><title>Node1&#45;&gt;Node46</title>
<path fill="none" stroke="midnightblue" d="M3965.22,-162.901C3981.17,-152.999 4002,-140.071 4015.56,-131.655"/>
<polygon fill="midnightblue" stroke="midnightblue" points="3963.13,-160.077 3956.48,-168.324 3966.82,-166.024 3963.13,-160.077"/>
</g>
<!-- Node47 -->
<g id="node47" class="node"><title>Node47</title>
<g id="a_node47"><a xlink:href="cssl__lib_8h.html" target="_top" xlink:title="Simple Serial library header file. ">
<polygon fill="white" stroke="red" points="4068.5,-112.5 4068.5,-131.5 4126.5,-131.5 4126.5,-112.5 4068.5,-112.5"/>
<text text-anchor="middle" x="4097.5" y="-119.5" font-family="Helvetica,sans-Serif" font-size="10.00">cssl_lib.h</text>
</a>
</g>
</g>
<!-- Node1&#45;&gt;Node47 -->
<g id="edge49" class="edge"><title>Node1&#45;&gt;Node47</title>
<path fill="none" stroke="midnightblue" d="M3976.83,-165.039C4006,-154.879 4047.14,-140.546 4073.05,-131.516"/>
<polygon fill="midnightblue" stroke="midnightblue" points="3975.35,-161.848 3967.06,-168.444 3977.66,-168.459 3975.35,-161.848"/>
</g>
<!-- Node48 -->
<g id="node48" class="node"><title>Node48</title>
<g id="a_node48"><a xlink:href="kisslib_8h.html" target="_top" xlink:title="kisslib.h">
<polygon fill="white" stroke="red" points="4145,-112.5 4145,-131.5 4198,-131.5 4198,-112.5 4145,-112.5"/>
<text text-anchor="middle" x="4171.5" y="-119.5" font-family="Helvetica,sans-Serif" font-size="10.00">kisslib.h</text>
</a>
</g>
</g>
<!-- Node1&#45;&gt;Node48 -->
<g id="edge50" class="edge"><title>Node1&#45;&gt;Node48</title>
<path fill="none" stroke="midnightblue" d="M3977.74,-168.961C4016.46,-160.086 4080.47,-145.292 4135.5,-132 4138.51,-131.274 4141.65,-130.504 4144.78,-129.731"/>
<polygon fill="midnightblue" stroke="midnightblue" points="3976.48,-165.658 3967.51,-171.302 3978.04,-172.482 3976.48,-165.658"/>
</g>
<!-- Node49 -->
<g id="node49" class="node"><title>Node49</title>
<g id="a_node49"><a xlink:href="serialclass_8h.html" target="_top" xlink:title="serialclass.h">
<polygon fill="white" stroke="red" points="4216,-112.5 4216,-131.5 4287,-131.5 4287,-112.5 4216,-112.5"/>
<text text-anchor="middle" x="4251.5" y="-119.5" font-family="Helvetica,sans-Serif" font-size="10.00">serialclass.h</text>
</a>
</g>
</g>
<!-- Node1&#45;&gt;Node49 -->
<g id="edge51" class="edge"><title>Node1&#45;&gt;Node49</title>
<path fill="none" stroke="midnightblue" d="M3977.9,-171.376C4028.78,-163.205 4125.49,-147.345 4207.5,-132 4210.26,-131.484 4213.11,-130.935 4215.98,-130.372"/>
<polygon fill="midnightblue" stroke="midnightblue" points="3977.08,-167.962 3967.76,-173 3978.19,-174.874 3977.08,-167.962"/>
</g>
<!-- Node50 -->
<g id="node50" class="node"><title>Node50</title>
<g id="a_node50"><a xlink:href="sliplib_8cpp.html" target="_top" xlink:title="Support functions for COSMOS SLIP encoding. ">
<polygon fill="white" stroke="black" points="4305.5,-112.5 4305.5,-131.5 4365.5,-131.5 4365.5,-112.5 4305.5,-112.5"/>
<text text-anchor="middle" x="4335.5" y="-119.5" font-family="Helvetica,sans-Serif" font-size="10.00">sliplib.cpp</text>
</a>
</g>
</g>
<!-- Node1&#45;&gt;Node50 -->
<g id="edge52" class="edge"><title>Node1&#45;&gt;Node50</title>
<path fill="none" stroke="midnightblue" d="M3977.84,-173.694C4041.74,-167.453 4180.62,-152.683 4296.5,-132 4299.37,-131.487 4302.35,-130.9 4305.33,-130.278"/>
<polygon fill="midnightblue" stroke="midnightblue" points="3977.14,-170.245 3967.52,-174.691 3977.81,-177.213 3977.14,-170.245"/>
</g>
<!-- Node3 -->
<g id="node3" class="node"><title>Node3</title>
<g id="a_node3"><a xlink:href="agent__001_8cpp.html" target="_top" xlink:title="agent_001.cpp">
<polygon fill="white" stroke="black" points="1352.5,-56.5 1352.5,-75.5 1432.5,-75.5 1432.5,-56.5 1352.5,-56.5"/>
<text text-anchor="middle" x="1392.5" y="-63.5" font-family="Helvetica,sans-Serif" font-size="10.00">agent_001.cpp</text>
</a>
</g>
</g>
<!-- Node2&#45;&gt;Node3 -->
<g id="edge2" class="edge"><title>Node2&#45;&gt;Node3</title>
<path fill="none" stroke="midnightblue" d="M1999.99,-119.245C1898.33,-115.036 1648.84,-102.674 1441.5,-76 1438.58,-75.6248 1435.58,-75.1905 1432.56,-74.7194"/>
<polygon fill="midnightblue" stroke="midnightblue" points="2000.09,-122.752 2010.22,-119.662 2000.37,-115.758 2000.09,-122.752"/>
</g>
<!-- Node4 -->
<g id="node4" class="node"><title>Node4</title>
<g id="a_node4"><a xlink:href="agent__002_8cpp.html" target="_top" xlink:title="agent_002.cpp">
<polygon fill="white" stroke="black" points="1450.5,-56.5 1450.5,-75.5 1530.5,-75.5 1530.5,-56.5 1450.5,-56.5"/>
<text text-anchor="middle" x="1490.5" y="-63.5" font-family="Helvetica,sans-Serif" font-size="10.00">agent_002.cpp</text>
</a>
</g>
</g>
<!-- Node2&#45;&gt;Node4 -->
<g id="edge3" class="edge"><title>Node2&#45;&gt;Node4</title>
<path fill="none" stroke="midnightblue" d="M2000.35,-118.347C1911.06,-112.897 1708.59,-98.9812 1539.5,-76 1536.59,-75.604 1533.58,-75.1543 1530.56,-74.6724"/>
<polygon fill="midnightblue" stroke="midnightblue" points="2000.22,-121.846 2010.41,-118.955 2000.64,-114.859 2000.22,-121.846"/>
</g>
<!-- Node5 -->
<g id="node5" class="node"><title>Node5</title>
<g id="a_node5"><a xlink:href="agent__004_8cpp.html" target="_top" xlink:title="agent_004.cpp">
<polygon fill="white" stroke="black" points="1548.5,-56.5 1548.5,-75.5 1628.5,-75.5 1628.5,-56.5 1548.5,-56.5"/>
<text text-anchor="middle" x="1588.5" y="-63.5" font-family="Helvetica,sans-Serif" font-size="10.00">agent_004.cpp</text>
</a>
</g>
</g>
<!-- Node2&#45;&gt;Node5 -->
<g id="edge4" class="edge"><title>Node2&#45;&gt;Node5</title>
<path fill="none" stroke="midnightblue" d="M2000.09,-116.992C1924.1,-110.183 1768.46,-95.2056 1637.5,-76 1634.59,-75.5733 1631.59,-75.1012 1628.57,-74.6032"/>
<polygon fill="midnightblue" stroke="midnightblue" points="2000.01,-120.498 2010.28,-117.899 2000.63,-113.526 2000.01,-120.498"/>
</g>
<!-- Node6 -->
<g id="node6" class="node"><title>Node6</title>
<g id="a_node6"><a xlink:href="agent__005_8cpp.html" target="_top" xlink:title="agent_005.cpp">
<polygon fill="white" stroke="black" points="1646.5,-56.5 1646.5,-75.5 1726.5,-75.5 1726.5,-56.5 1646.5,-56.5"/>
<text text-anchor="middle" x="1686.5" y="-63.5" font-family="Helvetica,sans-Serif" font-size="10.00">agent_005.cpp</text>
</a>
</g>
</g>
<!-- Node2&#45;&gt;Node6 -->
<g id="edge5" class="edge"><title>Node2&#45;&gt;Node6</title>
<path fill="none" stroke="midnightblue" d="M1999.98,-114.83C1939.1,-106.627 1829.14,-91.3684 1735.5,-76 1732.6,-75.5237 1729.6,-75.0152 1726.59,-74.4914"/>
<polygon fill="midnightblue" stroke="midnightblue" points="1999.67,-118.319 2010.04,-116.182 2000.6,-111.381 1999.67,-118.319"/>
</g>
<!-- Node7 -->
<g id="node7" class="node"><title>Node7</title>
<g id="a_node7"><a xlink:href="agent__006_8cpp.html" target="_top" xlink:title="agent_006.cpp">
<polygon fill="white" stroke="black" points="1744.5,-56.5 1744.5,-75.5 1824.5,-75.5 1824.5,-56.5 1744.5,-56.5"/>
<text text-anchor="middle" x="1784.5" y="-63.5" font-family="Helvetica,sans-Serif" font-size="10.00">agent_006.cpp</text>
</a>
</g>
</g>
<!-- Node2&#45;&gt;Node7 -->
<g id="edge6" class="edge"><title>Node2&#45;&gt;Node7</title>
<path fill="none" stroke="midnightblue" d="M2000.48,-111.514C1950.64,-101.243 1871.95,-85.0239 1824.57,-75.259"/>
<polygon fill="midnightblue" stroke="midnightblue" points="1999.84,-114.957 2010.35,-113.548 2001.26,-108.102 1999.84,-114.957"/>
</g>
<!-- Node8 -->
<g id="node8" class="node"><title>Node8</title>
<g id="a_node8"><a xlink:href="agent__008_8cpp.html" target="_top" xlink:title="agent_008.cpp">
<polygon fill="white" stroke="black" points="1842.5,-56.5 1842.5,-75.5 1922.5,-75.5 1922.5,-56.5 1842.5,-56.5"/>
<text text-anchor="middle" x="1882.5" y="-63.5" font-family="Helvetica,sans-Serif" font-size="10.00">agent_008.cpp</text>
</a>
</g>
</g>
<!-- Node2&#45;&gt;Node8 -->
<g id="edge7" class="edge"><title>Node2&#45;&gt;Node8</title>
<path fill="none" stroke="midnightblue" d="M2010.98,-109.304C1980.08,-99.1294 1936.03,-84.6246 1908.36,-75.5164"/>
<polygon fill="midnightblue" stroke="midnightblue" points="2009.92,-112.64 2020.51,-112.444 2012.11,-105.992 2009.92,-112.64"/>
</g>
<!-- Node9 -->
<g id="node9" class="node"><title>Node9</title>
<g id="a_node9"><a xlink:href="agent__add__soh_8cpp.html" target="_top" xlink:title="agent_add_soh.cpp">
<polygon fill="white" stroke="black" points="1941,-56.5 1941,-75.5 2042,-75.5 2042,-56.5 1941,-56.5"/>
<text text-anchor="middle" x="1991.5" y="-63.5" font-family="Helvetica,sans-Serif" font-size="10.00">agent_add_soh.cpp</text>
</a>
</g>
</g>
<!-- Node2&#45;&gt;Node9 -->
<g id="edge8" class="edge"><title>Node2&#45;&gt;Node9</title>
<path fill="none" stroke="midnightblue" d="M2030.21,-105.002C2020.46,-95.4329 2008.45,-83.6389 2000.41,-75.7511"/>
<polygon fill="midnightblue" stroke="midnightblue" points="2027.83,-107.575 2037.42,-112.083 2032.73,-102.58 2027.83,-107.575"/>
</g>
<!-- Node10 -->
<g id="node10" class="node"><title>Node10</title>
<g id="a_node10"><a xlink:href="agent__calc_8cpp.html" target="_top" xlink:title="Demonstration calculator Agent. ">
<polygon fill="white" stroke="black" points="2060,-56.5 2060,-75.5 2143,-75.5 2143,-56.5 2060,-56.5"/>
<text text-anchor="middle" x="2101.5" y="-63.5" font-family="Helvetica,sans-Serif" font-size="10.00">agent_calc.cpp</text>
</a>
</g>
</g>
<!-- Node2&#45;&gt;Node10 -->
<g id="edge9" class="edge"><title>Node2&#45;&gt;Node10</title>
<path fill="none" stroke="midnightblue" d="M2062.79,-105.002C2072.54,-95.4329 2084.55,-83.6389 2092.59,-75.7511"/>
<polygon fill="midnightblue" stroke="midnightblue" points="2060.27,-102.58 2055.58,-112.083 2065.17,-107.575 2060.27,-102.58"/>
</g>
<!-- Node11 -->
<g id="node11" class="node"><title>Node11</title>
<g id="a_node11"><a xlink:href="agent__cpu__device__test_8cpp.html" target="_top" xlink:title="agent_cpu_device_test.cpp">
<polygon fill="white" stroke="black" points="2161.5,-56.5 2161.5,-75.5 2297.5,-75.5 2297.5,-56.5 2161.5,-56.5"/>
<text text-anchor="middle" x="2229.5" y="-63.5" font-family="Helvetica,sans-Serif" font-size="10.00">agent_cpu_device_test.cpp</text>
</a>
</g>
</g>
<!-- Node2&#45;&gt;Node11 -->
<g id="edge10" class="edge"><title>Node2&#45;&gt;Node11</title>
<path fill="none" stroke="midnightblue" d="M2085.24,-109.568C2119.76,-99.381 2169.51,-84.7034 2200.64,-75.5164"/>
<polygon fill="midnightblue" stroke="midnightblue" points="2084.1,-106.256 2075.5,-112.444 2086.08,-112.97 2084.1,-106.256"/>
</g>
<!-- Node12 -->
<g id="node12" class="node"><title>Node12</title>
<g id="a_node12"><a xlink:href="agent__scoot_8cpp.html" target="_top" xlink:title="agent_scoot.cpp">
<polygon fill="white" stroke="black" points="2316,-56.5 2316,-75.5 2405,-75.5 2405,-56.5 2316,-56.5"/>
<text text-anchor="middle" x="2360.5" y="-63.5" font-family="Helvetica,sans-Serif" font-size="10.00">agent_scoot.cpp</text>
</a>
</g>
</g>
<!-- Node2&#45;&gt;Node12 -->
<g id="edge11" class="edge"><title>Node2&#45;&gt;Node12</title>
<path fill="none" stroke="midnightblue" d="M2092.46,-113.096C2152.39,-102.789 2256.55,-84.8771 2315.83,-74.6813"/>
<polygon fill="midnightblue" stroke="midnightblue" points="2091.78,-109.661 2082.52,-114.806 2092.97,-116.56 2091.78,-109.661"/>
</g>
<!-- Node13 -->
<g id="node13" class="node"><title>Node13</title>
<g id="a_node13"><a xlink:href="queen_8cpp.html" target="_top" xlink:title="queen.cpp">
<polygon fill="white" stroke="black" points="2422.5,-56.5 2422.5,-75.5 2484.5,-75.5 2484.5,-56.5 2422.5,-56.5"/>
<text text-anchor="middle" x="2453.5" y="-63.5" font-family="Helvetica,sans-Serif" font-size="10.00">queen.cpp</text>
</a>
</g>
</g>
<!-- Node2&#45;&gt;Node13 -->
<g id="edge12" class="edge"><title>Node2&#45;&gt;Node13</title>
<path fill="none" stroke="midnightblue" d="M2092.84,-116.808C2162.66,-110.156 2298.89,-95.8689 2413.5,-76 2416.31,-75.5136 2419.21,-74.9595 2422.12,-74.3707"/>
<polygon fill="midnightblue" stroke="midnightblue" points="2092.25,-113.348 2082.62,-117.772 2092.9,-120.317 2092.25,-113.348"/>
</g>
<!-- Node14 -->
<g id="node14" class="node"><title>Node14</title>
<g id="a_node14"><a xlink:href="worker__01_8cpp.html" target="_top" xlink:title="worker_01.cpp">
<polygon fill="white" stroke="black" points="2502.5,-56.5 2502.5,-75.5 2582.5,-75.5 2582.5,-56.5 2502.5,-56.5"/>
<text text-anchor="middle" x="2542.5" y="-63.5" font-family="Helvetica,sans-Serif" font-size="10.00">worker_01.cpp</text>
</a>
</g>
</g>
<!-- Node2&#45;&gt;Node14 -->
<g id="edge13" class="edge"><title>Node2&#45;&gt;Node14</title>
<path fill="none" stroke="midnightblue" d="M2092.94,-117.577C2174.32,-111.299 2347.91,-96.6642 2493.5,-76 2496.41,-75.5868 2499.41,-75.1245 2502.43,-74.6336"/>
<polygon fill="midnightblue" stroke="midnightblue" points="2092.25,-114.119 2082.54,-118.372 2092.78,-121.099 2092.25,-114.119"/>
</g>
<!-- Node15 -->
<g id="node15" class="node"><title>Node15</title>
<g id="a_node15"><a xlink:href="worker__02_8cpp.html" target="_top" xlink:title="worker_02.cpp">
<polygon fill="white" stroke="black" points="2600.5,-56.5 2600.5,-75.5 2680.5,-75.5 2680.5,-56.5 2600.5,-56.5"/>
<text text-anchor="middle" x="2640.5" y="-63.5" font-family="Helvetica,sans-Serif" font-size="10.00">worker_02.cpp</text>
</a>
</g>
</g>
<!-- Node2&#45;&gt;Node15 -->
<g id="edge14" class="edge"><title>Node2&#45;&gt;Node15</title>
<path fill="none" stroke="midnightblue" d="M2092.71,-118.736C2186.87,-113.781 2407.58,-100.422 2591.5,-76 2594.42,-75.6129 2597.42,-75.1699 2600.44,-74.6926"/>
<polygon fill="midnightblue" stroke="midnightblue" points="2092.47,-115.244 2082.66,-119.258 2092.83,-122.234 2092.47,-115.244"/>
</g>
<!-- Node16 -->
<g id="node16" class="node"><title>Node16</title>
<g id="a_node16"><a xlink:href="worker__03_8cpp.html" target="_top" xlink:title="worker_03.cpp">
<polygon fill="white" stroke="black" points="2698.5,-56.5 2698.5,-75.5 2778.5,-75.5 2778.5,-56.5 2698.5,-56.5"/>
<text text-anchor="middle" x="2738.5" y="-63.5" font-family="Helvetica,sans-Serif" font-size="10.00">worker_03.cpp</text>
</a>
</g>
</g>
<!-- Node2&#45;&gt;Node16 -->
<g id="edge15" class="edge"><title>Node2&#45;&gt;Node16</title>
<path fill="none" stroke="midnightblue" d="M2092.56,-119.544C2198.37,-115.814 2466.82,-104.152 2689.5,-76 2692.42,-75.6311 2695.42,-75.2015 2698.45,-74.7338"/>
<polygon fill="midnightblue" stroke="midnightblue" points="2092.41,-116.047 2082.54,-119.891 2092.65,-123.043 2092.41,-116.047"/>
</g>
<!-- Node17 -->
<g id="node17" class="node"><title>Node17</title>
<g id="a_node17"><a xlink:href="agent__receive_8cpp.html" target="_top" xlink:title="agent_receive.cpp">
<polygon fill="white" stroke="black" points="2796.5,-56.5 2796.5,-75.5 2892.5,-75.5 2892.5,-56.5 2796.5,-56.5"/>
<text text-anchor="middle" x="2844.5" y="-63.5" font-family="Helvetica,sans-Serif" font-size="10.00">agent_receive.cpp</text>
</a>
</g>
</g>
<!-- Node2&#45;&gt;Node17 -->
<g id="edge16" class="edge"><title>Node2&#45;&gt;Node17</title>
<path fill="none" stroke="midnightblue" d="M2092.87,-119.73C2209.75,-116.193 2525.7,-104.551 2787.5,-76 2790.39,-75.685 2793.35,-75.3259 2796.34,-74.9367"/>
<polygon fill="midnightblue" stroke="midnightblue" points="2092.74,-116.232 2082.84,-120.028 2092.94,-123.229 2092.74,-116.232"/>
</g>
<!-- Node18 -->
<g id="node18" class="node"><title>Node18</title>
<g id="a_node18"><a xlink:href="agent__send_8cpp.html" target="_top" xlink:title="agent_send.cpp">
<polygon fill="white" stroke="black" points="2910.5,-56.5 2910.5,-75.5 2996.5,-75.5 2996.5,-56.5 2910.5,-56.5"/>
<text text-anchor="middle" x="2953.5" y="-63.5" font-family="Helvetica,sans-Serif" font-size="10.00">agent_send.cpp</text>
</a>
</g>
</g>
<!-- Node2&#45;&gt;Node18 -->
<g id="edge17" class="edge"><title>Node2&#45;&gt;Node18</title>
<path fill="none" stroke="midnightblue" d="M2093.18,-120.489C2222.19,-118.656 2594.4,-110.534 2901.5,-76 2904.41,-75.6724 2907.41,-75.286 2910.43,-74.8608"/>
<polygon fill="midnightblue" stroke="midnightblue" points="2092.83,-116.993 2082.88,-120.629 2092.93,-123.992 2092.83,-116.993"/>
</g>
<!-- Node19 -->
<g id="node19" class="node"><title>Node19</title>
<g id="a_node19"><a xlink:href="daughter__01_8cpp.html" target="_top" xlink:title="daughter_01.cpp">
<polygon fill="white" stroke="black" points="3015,-56.5 3015,-75.5 3104,-75.5 3104,-56.5 3015,-56.5"/>
<text text-anchor="middle" x="3059.5" y="-63.5" font-family="Helvetica,sans-Serif" font-size="10.00">daughter_01.cpp</text>
</a>
</g>
</g>
<!-- Node2&#45;&gt;Node19 -->
<g id="edge18" class="edge"><title>Node2&#45;&gt;Node19</title>
<path fill="none" stroke="midnightblue" d="M2093.04,-120.763C2232.04,-119.639 2656.19,-113.173 3005.5,-76 3008.52,-75.6782 3011.64,-75.2962 3014.77,-74.8741"/>
<polygon fill="midnightblue" stroke="midnightblue" points="2092.73,-117.266 2082.76,-120.841 2092.79,-124.265 2092.73,-117.266"/>
</g>
<!-- Node20 -->
<g id="node20" class="node"><title>Node20</title>
<g id="a_node20"><a xlink:href="daughter__02_8cpp.html" target="_top" xlink:title="daughter_02.cpp">
<polygon fill="white" stroke="black" points="3122,-56.5 3122,-75.5 3211,-75.5 3211,-56.5 3122,-56.5"/>
<text text-anchor="middle" x="3166.5" y="-63.5" font-family="Helvetica,sans-Serif" font-size="10.00">daughter_02.cpp</text>
</a>
</g>
</g>
<!-- Node2&#45;&gt;Node20 -->
<g id="edge19" class="edge"><title>Node2&#45;&gt;Node20</title>
<path fill="none" stroke="midnightblue" d="M2092.61,-121.075C2241,-120.883 2719.37,-116.902 3112.5,-76 3115.53,-75.6853 3118.64,-75.3086 3121.77,-74.8904"/>
<polygon fill="midnightblue" stroke="midnightblue" points="2092.5,-117.575 2082.51,-121.082 2092.51,-124.575 2092.5,-117.575"/>
</g>
<!-- Node21 -->
<g id="node21" class="node"><title>Node21</title>
<g id="a_node21"><a xlink:href="daughter__03_8cpp.html" target="_top" xlink:title="daughter_03.cpp">
<polygon fill="white" stroke="black" points="3229,-56.5 3229,-75.5 3318,-75.5 3318,-56.5 3229,-56.5"/>
<text text-anchor="middle" x="3273.5" y="-63.5" font-family="Helvetica,sans-Serif" font-size="10.00">daughter_03.cpp</text>
</a>
</g>
</g>
<!-- Node2&#45;&gt;Node21 -->
<g id="edge20" class="edge"><title>Node2&#45;&gt;Node21</title>
<path fill="none" stroke="midnightblue" d="M2092.91,-121.329C2251.02,-122 2782.99,-120.567 3219.5,-76 3222.53,-75.6911 3225.64,-75.3188 3228.77,-74.9037"/>
<polygon fill="midnightblue" stroke="midnightblue" points="2092.63,-117.827 2082.61,-121.28 2092.6,-124.827 2092.63,-117.827"/>
</g>
<!-- Node22 -->
<g id="node22" class="node"><title>Node22</title>
<g id="a_node22"><a xlink:href="daughter__04_8cpp.html" target="_top" xlink:title="daughter_04.cpp">
<polygon fill="white" stroke="black" points="3336,-56.5 3336,-75.5 3425,-75.5 3425,-56.5 3336,-56.5"/>
<text text-anchor="middle" x="3380.5" y="-63.5" font-family="Helvetica,sans-Serif" font-size="10.00">daughter_04.cpp</text>
</a>
</g>
</g>
<!-- Node2&#45;&gt;Node22 -->
<g id="edge21" class="edge"><title>Node2&#45;&gt;Node22</title>
<path fill="none" stroke="midnightblue" d="M2092.83,-120.18C2292.43,-116.521 3079.94,-100.775 3326.5,-76 3329.53,-75.6959 3332.64,-75.3273 3335.77,-74.9149"/>
<polygon fill="midnightblue" stroke="midnightblue" points="2092.62,-116.683 2082.69,-120.364 2092.75,-123.682 2092.62,-116.683"/>
</g>
<!-- Node23 -->
<g id="node23" class="node"><title>Node23</title>
<g id="a_node23"><a xlink:href="mothership_8cpp.html" target="_top" xlink:title="mothership.cpp">
<polygon fill="white" stroke="black" points="3443,-56.5 3443,-75.5 3526,-75.5 3526,-56.5 3443,-56.5"/>
<text text-anchor="middle" x="3484.5" y="-63.5" font-family="Helvetica,sans-Serif" font-size="10.00">mothership.cpp</text>
</a>
</g>
</g>
<!-- Node2&#45;&gt;Node23 -->
<g id="edge22" class="edge"><title>Node2&#45;&gt;Node23</title>
<path fill="none" stroke="midnightblue" d="M2092.57,-120.387C2301.88,-117.467 3164.7,-103.934 3433.5,-76 3436.54,-75.684 3439.67,-75.2932 3442.82,-74.853"/>
<polygon fill="midnightblue" stroke="midnightblue" points="2092.48,-116.888 2082.53,-120.526 2092.58,-123.887 2092.48,-116.888"/>
</g>
<!-- Node24 -->
<g id="node24" class="node"><title>Node24</title>
<g id="a_node24"><a xlink:href="propagator__simple_8cpp.html" target="_top" xlink:title="propagator_simple.cpp">
<polygon fill="white" stroke="black" points="0,-56.5 0,-75.5 115,-75.5 115,-56.5 0,-56.5"/>
<text text-anchor="middle" x="57.5" y="-63.5" font-family="Helvetica,sans-Serif" font-size="10.00">propagator_simple.cpp</text>
</a>
</g>
</g>
<!-- Node2&#45;&gt;Node24 -->
<g id="edge23" class="edge"><title>Node2&#45;&gt;Node24</title>
<path fill="none" stroke="midnightblue" d="M2000.22,-120.622C1744.8,-118.432 504.991,-106.378 123.5,-76 120.733,-75.7797 117.905,-75.5216 115.052,-75.2347"/>
<polygon fill="midnightblue" stroke="midnightblue" points="2000.24,-124.123 2010.27,-120.708 2000.3,-117.123 2000.24,-124.123"/>
</g>
<!-- Node25 -->
<g id="node25" class="node"><title>Node25</title>
<g id="a_node25"><a xlink:href="agentclass_8cpp.html" target="_top" xlink:title="Agent support functions. ">
<polygon fill="white" stroke="black" points="133,-56.5 133,-75.5 216,-75.5 216,-56.5 133,-56.5"/>
<text text-anchor="middle" x="174.5" y="-63.5" font-family="Helvetica,sans-Serif" font-size="10.00">agentclass.cpp</text>
</a>
</g>
</g>
<!-- Node2&#45;&gt;Node25 -->
<g id="edge24" class="edge"><title>Node2&#45;&gt;Node25</title>
<path fill="none" stroke="midnightblue" d="M2000.45,-120.7C1754.06,-118.965 589.24,-109.12 230.5,-76 225.793,-75.5655 220.883,-74.9775 216.011,-74.3089"/>
<polygon fill="midnightblue" stroke="midnightblue" points="2000.47,-124.2 2010.5,-120.77 2000.52,-117.2 2000.47,-124.2"/>
</g>
<!-- Node26 -->
<g id="node26" class="node"><title>Node26</title>
<g id="a_node26"><a xlink:href="command__queue_8h.html" target="_top" xlink:title="Command Queue Class. ">
<polygon fill="white" stroke="red" points="273,-56.5 273,-75.5 372,-75.5 372,-56.5 273,-56.5"/>
<text text-anchor="middle" x="322.5" y="-63.5" font-family="Helvetica,sans-Serif" font-size="10.00">command_queue.h</text>
</a>
</g>
</g>
<!-- Node2&#45;&gt;Node26 -->
<g id="edge25" class="edge"><title>Node2&#45;&gt;Node26</title>
<path fill="none" stroke="midnightblue" d="M2000.01,-120.448C1765.69,-117.56 712.599,-103.262 386.5,-76 381.804,-75.6074 376.926,-75.1014 372.052,-74.5297"/>
<polygon fill="midnightblue" stroke="midnightblue" points="2000.18,-123.951 2010.23,-120.573 2000.27,-116.951 2000.18,-123.951"/>
</g>
<!-- Node27 -->
<g id="node27" class="node"><title>Node27</title>
<g id="a_node27"><a xlink:href="agent__exec-2-0_8cpp.html" target="_top" xlink:title="agent_exec&#45;2&#45;0.cpp">
<polygon fill="white" stroke="black" points="204.5,-0.5 204.5,-19.5 306.5,-19.5 306.5,-0.5 204.5,-0.5"/>
<text text-anchor="middle" x="255.5" y="-7.5" font-family="Helvetica,sans-Serif" font-size="10.00">agent_exec&#45;2&#45;0.cpp</text>
</a>
</g>
</g>
<!-- Node2&#45;&gt;Node27 -->
<g id="edge38" class="edge"><title>Node2&#45;&gt;Node27</title>
<path fill="none" stroke="midnightblue" d="M2000.31,-120.66C1723.61,-118.523 296.632,-106.058 263.5,-76 247.837,-61.7905 250.711,-33.9161 253.454,-19.7347"/>
<polygon fill="midnightblue" stroke="midnightblue" points="2000.38,-124.161 2010.4,-120.737 2000.43,-117.161 2000.38,-124.161"/>
</g>
<!-- Node28 -->
<g id="node28" class="node"><title>Node28</title>
<g id="a_node28"><a xlink:href="agent__exec_8cpp.html" target="_top" xlink:title="Executive Agent source file. ">
<polygon fill="white" stroke="black" points="346.5,-0.5 346.5,-19.5 432.5,-19.5 432.5,-0.5 346.5,-0.5"/>
<text text-anchor="middle" x="389.5" y="-7.5" font-family="Helvetica,sans-Serif" font-size="10.00">agent_exec.cpp</text>
</a>
</g>
</g>
<!-- Node2&#45;&gt;Node28 -->
<g id="edge39" class="edge"><title>Node2&#45;&gt;Node28</title>
<path fill="none" stroke="midnightblue" d="M2000.21,-121.088C1741.85,-121.406 487.192,-120.642 419.5,-76 399.994,-63.136 392.958,-34.1111 390.597,-19.5992"/>
<polygon fill="midnightblue" stroke="midnightblue" points="2000.38,-124.587 2010.38,-121.074 2000.37,-117.588 2000.38,-124.587"/>
</g>
<!-- Node29 -->
<g id="node29" class="node"><title>Node29</title>
<g id="a_node29"><a xlink:href="scheduler_8h.html" target="_top" xlink:title="Scheduler Class. ">
<polygon fill="white" stroke="red" points="429,-56.5 429,-75.5 496,-75.5 496,-56.5 429,-56.5"/>
<text text-anchor="middle" x="462.5" y="-63.5" font-family="Helvetica,sans-Serif" font-size="10.00">scheduler.h</text>
</a>
</g>
</g>
<!-- Node2&#45;&gt;Node29 -->
<g id="edge28" class="edge"><title>Node2&#45;&gt;Node29</title>
<path fill="none" stroke="midnightblue" d="M2000.09,-120.753C1776.15,-119.393 805.734,-111.52 505.5,-76 502.47,-75.6416 499.338,-75.1754 496.208,-74.644"/>
<polygon fill="midnightblue" stroke="midnightblue" points="2000.16,-124.254 2010.19,-120.813 2000.21,-117.254 2000.16,-124.254"/>
</g>
<!-- Node30 -->
<g id="node30" class="node"><title>Node30</title>
<g id="a_node30"><a xlink:href="acq__a35_8cpp.html" target="_top" xlink:title="acq_a35.cpp">
<polygon fill="white" stroke="black" points="538.5,-0.5 538.5,-19.5 610.5,-19.5 610.5,-0.5 538.5,-0.5"/>
<text text-anchor="middle" x="574.5" y="-7.5" font-family="Helvetica,sans-Serif" font-size="10.00">acq_a35.cpp</text>
</a>
</g>
</g>
<!-- Node2&#45;&gt;Node30 -->
<g id="edge29" class="edge"><title>Node2&#45;&gt;Node30</title>
<path fill="none" stroke="midnightblue" d="M2000.2,-120.657C1762.29,-118.751 685.936,-108.364 623.5,-76 599.912,-63.7732 584.543,-34.4496 578.042,-19.7341"/>
<polygon fill="midnightblue" stroke="midnightblue" points="2000.22,-124.157 2010.25,-120.736 2000.28,-117.157 2000.22,-124.157"/>
</g>
<!-- Node31 -->
<g id="node31" class="node"><title>Node31</title>
<g id="a_node31"><a xlink:href="acq__a35_8h.html" target="_top" xlink:title="acq_a35.h">
<polygon fill="white" stroke="black" points="514.5,-56.5 514.5,-75.5 576.5,-75.5 576.5,-56.5 514.5,-56.5"/>
<text text-anchor="middle" x="545.5" y="-63.5" font-family="Helvetica,sans-Serif" font-size="10.00">acq_a35.h</text>
</a>
</g>
</g>
<!-- Node2&#45;&gt;Node31 -->
<g id="edge30" class="edge"><title>Node2&#45;&gt;Node31</title>
<path fill="none" stroke="midnightblue" d="M2000.24,-120.607C1784.2,-118.615 873.24,-108.415 590.5,-76 586.067,-75.4918 581.421,-74.7753 576.866,-73.9659"/>
<polygon fill="midnightblue" stroke="midnightblue" points="2000.26,-124.108 2010.29,-120.699 2000.32,-117.108 2000.26,-124.108"/>
</g>
<!-- Node32 -->
<g id="node32" class="node"><title>Node32</title>
<g id="a_node32"><a xlink:href="agent-2-0_8cpp.html" target="_top" xlink:title="agent&#45;2&#45;0.cpp">
<polygon fill="white" stroke="black" points="632.5,-56.5 632.5,-75.5 708.5,-75.5 708.5,-56.5 632.5,-56.5"/>
<text text-anchor="middle" x="670.5" y="-63.5" font-family="Helvetica,sans-Serif" font-size="10.00">agent&#45;2&#45;0.cpp</text>
</a>
</g>
</g>
<!-- Node2&#45;&gt;Node32 -->
<g id="edge32" class="edge"><title>Node2&#45;&gt;Node32</title>
<path fill="none" stroke="midnightblue" d="M2000.38,-120.401C1796.4,-117.603 974.013,-104.726 717.5,-76 714.61,-75.6764 711.632,-75.273 708.644,-74.8178"/>
<polygon fill="midnightblue" stroke="midnightblue" points="2000.41,-123.901 2010.46,-120.538 2000.5,-116.902 2000.41,-123.901"/>
</g>
<!-- Node33 -->
<g id="node33" class="node"><title>Node33</title>
<g id="a_node33"><a xlink:href="agent_8cpp.html" target="_top" xlink:title="Agent control program source. ">
<polygon fill="white" stroke="black" points="727,-56.5 727,-75.5 786,-75.5 786,-56.5 727,-56.5"/>
<text text-anchor="middle" x="756.5" y="-63.5" font-family="Helvetica,sans-Serif" font-size="10.00">agent.cpp</text>
</a>
</g>
</g>
<!-- Node2&#45;&gt;Node33 -->
<g id="edge33" class="edge"><title>Node2&#45;&gt;Node33</title>
<path fill="none" stroke="midnightblue" d="M2000.19,-120.554C1803.24,-118.472 1034.33,-108.39 794.5,-76 791.813,-75.637 789.037,-75.1678 786.267,-74.6343"/>
<polygon fill="midnightblue" stroke="midnightblue" points="2000.44,-124.057 2010.48,-120.661 2000.51,-117.058 2000.44,-124.057"/>
</g>
<!-- Node34 -->
<g id="node34" class="node"><title>Node34</title>
<g id="a_node34"><a xlink:href="agent__cpu-2-0_8cpp.html" target="_top" xlink:title="agent_cpu&#45;2&#45;0.cpp">
<polygon fill="white" stroke="black" points="804,-56.5 804,-75.5 901,-75.5 901,-56.5 804,-56.5"/>
<text text-anchor="middle" x="852.5" y="-63.5" font-family="Helvetica,sans-Serif" font-size="10.00">agent_cpu&#45;2&#45;0.cpp</text>
</a>
</g>
</g>
<!-- Node2&#45;&gt;Node34 -->
<g id="edge34" class="edge"><title>Node2&#45;&gt;Node34</title>
<path fill="none" stroke="midnightblue" d="M1999.99,-121.061C1845,-120.858 1332.03,-116.919 910.5,-76 907.457,-75.7046 904.331,-75.3549 901.183,-74.9676"/>
<polygon fill="midnightblue" stroke="midnightblue" points="2000.1,-124.561 2010.1,-121.069 2000.11,-117.561 2000.1,-124.561"/>
</g>
<!-- Node35 -->
<g id="node35" class="node"><title>Node35</title>
<g id="a_node35"><a xlink:href="agent__cpu_8cpp.html" target="_top" xlink:title="agent_cpu.cpp">
<polygon fill="white" stroke="black" points="919.5,-56.5 919.5,-75.5 999.5,-75.5 999.5,-56.5 919.5,-56.5"/>
<text text-anchor="middle" x="959.5" y="-63.5" font-family="Helvetica,sans-Serif" font-size="10.00">agent_cpu.cpp</text>
</a>
</g>
</g>
<!-- Node2&#45;&gt;Node35 -->
<g id="edge35" class="edge"><title>Node2&#45;&gt;Node35</title>
<path fill="none" stroke="midnightblue" d="M1999.63,-121.271C1852.86,-121.627 1389.26,-119.012 1008.5,-76 1005.58,-75.6699 1002.57,-75.2687 999.544,-74.8212"/>
<polygon fill="midnightblue" stroke="midnightblue" points="2000.06,-124.77 2010.05,-121.239 2000.03,-117.77 2000.06,-124.77"/>
</g>
<!-- Node36 -->
<g id="node36" class="node"><title>Node36</title>
<g id="a_node36"><a xlink:href="agent__data-2-0_8cpp.html" target="_top" xlink:title="agent_data&#45;2&#45;0.cpp">
<polygon fill="white" stroke="black" points="1017.5,-56.5 1017.5,-75.5 1117.5,-75.5 1117.5,-56.5 1017.5,-56.5"/>
<text text-anchor="middle" x="1067.5" y="-63.5" font-family="Helvetica,sans-Serif" font-size="10.00">agent_data&#45;2&#45;0.cpp</text>
</a>
</g>
</g>
<!-- Node2&#45;&gt;Node36 -->
<g id="edge36" class="edge"><title>Node2&#45;&gt;Node36</title>
<path fill="none" stroke="midnightblue" d="M2000.08,-120.409C1864.96,-118.329 1460.35,-109.538 1126.5,-76 1123.61,-75.71 1120.65,-75.3758 1117.67,-75.0105"/>
<polygon fill="midnightblue" stroke="midnightblue" points="2000.4,-123.915 2010.45,-120.564 2000.51,-116.915 2000.4,-123.915"/>
</g>
<!-- Node37 -->
<g id="node37" class="node"><title>Node37</title>
<g id="a_node37"><a xlink:href="agent__data_8cpp.html" target="_top" xlink:title="agent_data.cpp">
<polygon fill="white" stroke="black" points="1136,-56.5 1136,-75.5 1219,-75.5 1219,-56.5 1136,-56.5"/>
<text text-anchor="middle" x="1177.5" y="-63.5" font-family="Helvetica,sans-Serif" font-size="10.00">agent_data.cpp</text>
</a>
</g>
</g>
<!-- Node2&#45;&gt;Node37 -->
<g id="edge37" class="edge"><title>Node2&#45;&gt;Node37</title>
<path fill="none" stroke="midnightblue" d="M2000.09,-120.45C1874.95,-118.535 1520.23,-110.255 1227.5,-76 1224.78,-75.6822 1221.99,-75.3094 1219.18,-74.8996"/>
<polygon fill="midnightblue" stroke="midnightblue" points="2000.39,-123.955 2010.44,-120.602 2000.49,-116.955 2000.39,-123.955"/>
</g>
<!-- Node2&#45;&gt;Node38 -->
<g id="edge40" class="edge"><title>Node2&#45;&gt;Node38</title>
<path fill="none" stroke="midnightblue" d="M2092.69,-120.569C2311.46,-118.38 3244.87,-107.34 3534.5,-76 3537.53,-75.6716 3540.66,-75.2576 3543.8,-74.7886"/>
<polygon fill="midnightblue" stroke="midnightblue" points="2092.49,-117.071 2082.52,-120.669 2092.56,-124.07 2092.49,-117.071"/>
</g>
<!-- Node2&#45;&gt;Node39 -->
<g id="edge41" class="edge"><title>Node2&#45;&gt;Node39</title>
<path fill="none" stroke="midnightblue" d="M2093.03,-120.596C2320.84,-118.48 3320.03,-107.533 3629.5,-76 3632.54,-75.6901 3635.67,-75.3038 3638.82,-74.8668"/>
<polygon fill="midnightblue" stroke="midnightblue" points="2092.74,-117.099 2082.77,-120.691 2092.8,-124.099 2092.74,-117.099"/>
</g>
<!-- Node2&#45;&gt;Node40 -->
<g id="edge42" class="edge"><title>Node2&#45;&gt;Node40</title>
<path fill="none" stroke="midnightblue" d="M2092.91,-120.689C2329.17,-118.964 3399.86,-109.407 3730.5,-76 3733.54,-75.6927 3736.67,-75.3083 3739.82,-74.8726"/>
<polygon fill="midnightblue" stroke="midnightblue" points="2092.59,-117.191 2082.62,-120.763 2092.64,-124.191 2092.59,-117.191"/>
</g>
<!-- Node2&#45;&gt;Node41 -->
<g id="edge43" class="edge"><title>Node2&#45;&gt;Node41</title>
<path fill="none" stroke="midnightblue" d="M2092.92,-120.77C2337.61,-119.415 3479.7,-111.276 3831.5,-76 3834.54,-75.695 3837.68,-75.3123 3840.82,-74.8778"/>
<polygon fill="midnightblue" stroke="midnightblue" points="2092.59,-117.272 2082.61,-120.826 2092.63,-124.272 2092.59,-117.272"/>
</g>
<!-- Node42 -->
<g id="node42" class="node"><title>Node42</title>
<g id="a_node42"><a xlink:href="agent__forward_8cpp.html" target="_top" xlink:title="agent_forward.cpp">
<polygon fill="white" stroke="black" points="1237,-56.5 1237,-75.5 1334,-75.5 1334,-56.5 1237,-56.5"/>
<text text-anchor="middle" x="1285.5" y="-63.5" font-family="Helvetica,sans-Serif" font-size="10.00">agent_forward.cpp</text>
</a>
</g>
</g>
<!-- Node2&#45;&gt;Node42 -->
<g id="edge44" class="edge"><title>Node2&#45;&gt;Node42</title>
<path fill="none" stroke="midnightblue" d="M2000.17,-119.478C1887.49,-115.462 1590.19,-102.98 1343.5,-76 1340.46,-75.6676 1337.34,-75.2896 1334.19,-74.8811"/>
<polygon fill="midnightblue" stroke="midnightblue" points="2000.06,-122.976 2010.18,-119.83 2000.31,-115.98 2000.06,-122.976"/>
</g>
<!-- Node2&#45;&gt;Node43 -->
<g id="edge45" class="edge"><title>Node2&#45;&gt;Node43</title>
<path fill="none" stroke="midnightblue" d="M2093.08,-120.728C2346.28,-119.123 3559.27,-109.767 3932.5,-76 3935.69,-75.7111 3938.98,-75.3538 3942.28,-74.9498"/>
<polygon fill="midnightblue" stroke="midnightblue" points="2092.75,-117.23 2082.77,-120.793 2092.8,-124.23 2092.75,-117.23"/>
</g>
<!-- Node2&#45;&gt;Node44 -->
<g id="edge46" class="edge"><title>Node2&#45;&gt;Node44</title>
<path fill="none" stroke="midnightblue" d="M2092.92,-120.837C2354.66,-119.783 3648.53,-112.766 4045.5,-76 4048.39,-75.7323 4051.36,-75.4038 4054.35,-75.0323"/>
<polygon fill="midnightblue" stroke="midnightblue" points="2092.62,-117.338 2082.64,-120.877 2092.65,-124.338 2092.62,-117.338"/>
</g>
<!-- Node2&#45;&gt;Node45 -->
<g id="edge47" class="edge"><title>Node2&#45;&gt;Node45</title>
<path fill="none" stroke="midnightblue" d="M2092.89,-121.046C2363.02,-121.155 3735.82,-119.526 4155.5,-76 4158.54,-75.6851 4161.67,-75.2808 4164.81,-74.8185"/>
<polygon fill="midnightblue" stroke="midnightblue" points="2092.66,-117.546 2082.65,-121.04 2092.65,-124.546 2092.66,-117.546"/>
</g>
<!-- Node26&#45;&gt;Node27 -->
<g id="edge26" class="edge"><title>Node26&#45;&gt;Node27</title>
<path fill="none" stroke="midnightblue" d="M303.665,-49.8197C291.662,-40.1452 276.528,-27.9481 266.461,-19.8339"/>
<polygon fill="midnightblue" stroke="midnightblue" points="301.753,-52.7738 311.735,-56.324 306.146,-47.3236 301.753,-52.7738"/>
</g>
<!-- Node26&#45;&gt;Node28 -->
<g id="edge27" class="edge"><title>Node26&#45;&gt;Node28</title>
<path fill="none" stroke="midnightblue" d="M341.335,-49.8197C353.338,-40.1452 368.472,-27.9481 378.539,-19.8339"/>
<polygon fill="midnightblue" stroke="midnightblue" points="338.854,-47.3236 333.265,-56.324 343.247,-52.7738 338.854,-47.3236"/>
</g>
<!-- Node31&#45;&gt;Node30 -->
<g id="edge31" class="edge"><title>Node31&#45;&gt;Node30</title>
<path fill="none" stroke="midnightblue" d="M555.176,-46.9827C560.098,-37.8168 565.858,-27.0922 569.8,-19.7511"/>
<polygon fill="midnightblue" stroke="midnightblue" points="551.937,-45.6171 550.289,-56.083 558.104,-48.929 551.937,-45.6171"/>
</g>
</g>
</svg>
        <g id="navigator" transform="translate(0 0)" fill="#404254">
                <rect fill="#f2f5e9" fill-opacity="0.5" stroke="#606060" stroke-width=".5" x="0" y="0" width="60" height="60"/>
                <use id="zoomplus" xlink:href="#zoomPlus" x="17" y="9" onmousedown="handleZoom(evt,'in')"/>
                <use id="zoomminus" xlink:href="#zoomMin" x="42" y="9" onmousedown="handleZoom(evt,'out')"/>
                <use id="reset" xlink:href="#resetDef" x="30" y="36" onmousedown="handleReset()"/>
                <g id="arrowUp" xlink:href="#dirArrow" transform="translate(30 24)" onmousedown="handlePan(0,-1)">
                  <use xlink:href="#rim" fill="#404040">
                        <set attributeName="fill" to="#808080" begin="arrowUp.mouseover" end="arrowUp.mouseout"/>
                  </use>
                  <path fill="none" stroke="white" stroke-width="1.5" d="M0,-3.0v7 M-2.5,-0.5L0,-3.0L2.5,-0.5"/>
                </g>
                <g id="arrowRight" xlink:href="#dirArrow" transform="rotate(90) translate(36 -43)" onmousedown="handlePan(1,0)">
                  <use xlink:href="#rim" fill="#404040">
                        <set attributeName="fill" to="#808080" begin="arrowRight.mouseover" end="arrowRight.mouseout"/>
                  </use>
                  <path fill="none" stroke="white" stroke-width="1.5" d="M0,-3.0v7 M-2.5,-0.5L0,-3.0L2.5,-0.5"/>
                </g>
                <g id="arrowDown" xlink:href="#dirArrow" transform="rotate(180) translate(-30 -48)" onmousedown="handlePan(0,1)">
                  <use xlink:href="#rim" fill="#404040">
                        <set attributeName="fill" to="#808080" begin="arrowDown.mouseover" end="arrowDown.mouseout"/>
                  </use>
                  <path fill="none" stroke="white" stroke-width="1.5" d="M0,-3.0v7 M-2.5,-0.5L0,-3.0L2.5,-0.5"/>
                </g>
                <g id="arrowLeft" xlink:href="#dirArrow" transform="rotate(270) translate(-36 17)" onmousedown="handlePan(-1,0)">
                  <use xlink:href="#rim" fill="#404040">
                        <set attributeName="fill" to="#808080" begin="arrowLeft.mouseover" end="arrowLeft.mouseout"/>
                  </use>
                  <path fill="none" stroke="white" stroke-width="1.5" d="M0,-3.0v7 M-2.5,-0.5L0,-3.0L2.5,-0.5"/>
                </g>
        </g>
        <svg viewBox="0 0 15 15" width="100%" height="30px" preserveAspectRatio="xMaxYMin meet">
         <g id="arrow_out" transform="scale(0.3 0.3)">
          <a xlink:href="sliplib_8h__dep__incl_org.svg" target="_base">
           <rect id="button" ry="5" rx="5" y="6" x="6" height="38" width="38"
                fill="#f2f5e9" fill-opacity="0.5" stroke="#606060" stroke-width="1.0"/>
           <path id="arrow"
             d="M 11.500037,31.436501 C 11.940474,20.09759 22.043105,11.32322 32.158766,21.979434 L 37.068811,17.246167 C 37.068811,17.246167 37.088388,32 37.088388,32 L 22.160133,31.978069 C 22.160133,31.978069 26.997745,27.140456 26.997745,27.140456 C 18.528582,18.264221 13.291696,25.230495 11.500037,31.436501 z"
             style="fill:#404040;"/>
          </a>
         </g>
        </svg>
</svg>
