<?xml version="1.0" encoding="UTF-8" standalone="no"?>
<!DOCTYPE svg PUBLIC "-//W3C//DTD SVG 1.1//EN"
 "http://www.w3.org/Graphics/SVG/1.1/DTD/svg11.dtd">
<!-- Generated by graphviz version 2.38.0 (20140413.2041)
 -->
<!-- Title: socketlib.cpp Pages: 1 -->
<!--zoomable 476 -->
<svg id="main" version="1.1" xmlns="http://www.w3.org/2000/svg" xmlns:xlink="http://www.w3.org/1999/xlink" xml:space="preserve" onload="init(evt)">
<style type="text/css"><![CDATA[
.edge:hover path { stroke: red; }
.edge:hover polygon { stroke: red; fill: red; }
]]></style>
<script type="text/javascript"><![CDATA[
var edges = document.getElementsByTagName('g');
if (edges && edges.length) {
  for (var i=0;i<edges.length;i++) {
    if (edges[i].id.substr(0,4)=='edge') {
      edges[i].setAttribute('class','edge');
    }
  }
}
]]></script>
        <defs>
                <circle id="rim" cx="0" cy="0" r="7"/>
                <circle id="rim2" cx="0" cy="0" r="3.5"/>
                <g id="zoomPlus">
                        <use xlink:href="#rim" fill="#404040">
                                <set attributeName="fill" to="#808080" begin="zoomplus.mouseover" end="zoomplus.mouseout"/>
                        </use>
                        <path d="M-4,0h8M0,-4v8" fill="none" stroke="white" stroke-width="1.5" pointer-events="none"/>
                </g>
                <g id="zoomMin">
                        <use xlink:href="#rim" fill="#404040">
                                <set attributeName="fill" to="#808080" begin="zoomminus.mouseover" end="zoomminus.mouseout"/>
                        </use>
                        <path d="M-4,0h8" fill="none" stroke="white" stroke-width="1.5" pointer-events="none"/>
                </g>
                <g id="dirArrow">
                        <path fill="none" stroke="white" stroke-width="1.5" d="M0,-3.0v7 M-2.5,-0.5L0,-3.0L2.5,-0.5"/>
                </g>
               <g id="resetDef">
                       <use xlink:href="#rim2" fill="#404040">
                               <set attributeName="fill" to="#808080" begin="reset.mouseover" end="reset.mouseout"/>
                       </use>
               </g>
        </defs>

<script type="text/javascript">
var viewWidth = 1992;
var viewHeight = 476;
var sectionId = 'dynsection-0';
</script>
<script xlink:href="svgpan.js"/>
<svg id="graph" class="graph">
<g id="viewport">
<title>socketlib.cpp</title>
<polygon fill="white" stroke="none" points="-4,4 -4,-472 1988,-472 1988,4 -4,4"/>
<!-- Node1 -->
<g id="node1" class="node"><title>Node1</title>
<polygon fill="#bfbfbf" stroke="black" points="912,-448.5 912,-467.5 986,-467.5 986,-448.5 912,-448.5"/>
<text text-anchor="middle" x="949" y="-455.5" font-family="Helvetica,sans-Serif" font-size="10.00">socketlib.cpp</text>
</g>
<!-- Node2 -->
<g id="node2" class="node"><title>Node2</title>
<g id="a_node2"><a xlink:href="socketlib_8h.html" target="_top" xlink:title="Socket Support header file. ">
<polygon fill="white" stroke="black" points="899.5,-392.5 899.5,-411.5 998.5,-411.5 998.5,-392.5 899.5,-392.5"/>
<text text-anchor="middle" x="949" y="-399.5" font-family="Helvetica,sans-Serif" font-size="10.00">support/socketlib.h</text>
</a>
</g>
</g>
<!-- Node1&#45;&gt;Node2 -->
<g id="edge1" class="edge"><title>Node1&#45;&gt;Node2</title>
<path fill="none" stroke="midnightblue" d="M949,-448.083C949,-441.006 949,-430.861 949,-421.986"/>
<polygon fill="midnightblue" stroke="midnightblue" points="952.5,-421.751 949,-411.751 945.5,-421.751 952.5,-421.751"/>
</g>
<!-- Node39 -->
<g id="node39" class="node"><title>Node39</title>
<g id="a_node39"><a xlink:href="mathlib_8h.html" target="_top" xlink:title="mathlib include file ">
<polygon fill="white" stroke="black" points="446.5,-392.5 446.5,-411.5 527.5,-411.5 527.5,-392.5 446.5,-392.5"/>
<text text-anchor="middle" x="487" y="-399.5" font-family="Helvetica,sans-Serif" font-size="10.00">math/mathlib.h</text>
</a>
</g>
</g>
<!-- Node1&#45;&gt;Node39 -->
<g id="edge47" class="edge"><title>Node1&#45;&gt;Node39</title>
<path fill="none" stroke="midnightblue" d="M911.974,-452.672C829.729,-443.059 631.71,-419.914 537.911,-408.951"/>
<polygon fill="midnightblue" stroke="midnightblue" points="538.152,-405.455 527.813,-407.77 537.339,-412.408 538.152,-405.455"/>
</g>
<!-- Node46 -->
<g id="node46" class="node"><title>Node46</title>
<g id="a_node46"><a xlink:href="elapsedtime_8h.html" target="_top" xlink:title="Elapsed Time header file. ">
<polygon fill="white" stroke="black" points="1602.5,-168.5 1602.5,-187.5 1715.5,-187.5 1715.5,-168.5 1602.5,-168.5"/>
<text text-anchor="middle" x="1659" y="-175.5" font-family="Helvetica,sans-Serif" font-size="10.00">support/elapsedtime.h</text>
</a>
</g>
</g>
<!-- Node1&#45;&gt;Node46 -->
<g id="edge71" class="edge"><title>Node1&#45;&gt;Node46</title>
<path fill="none" stroke="midnightblue" d="M986.008,-457.504C1109.55,-458.205 1500,-452.107 1500,-347 1500,-347 1500,-347 1500,-289 1500,-234.316 1564.39,-204.684 1611.22,-190.365"/>
<polygon fill="midnightblue" stroke="midnightblue" points="1612.29,-193.697 1620.92,-187.538 1610.34,-186.977 1612.29,-193.697"/>
</g>
<!-- Node3 -->
<g id="node3" class="node"><title>Node3</title>
<g id="a_node3"><a xlink:href="config_cosmos_8h.html" target="_top" xlink:title="Headers and definitions common to all COSMOS. ">
<polygon fill="white" stroke="black" points="779.5,-112.5 779.5,-131.5 902.5,-131.5 902.5,-112.5 779.5,-112.5"/>
<text text-anchor="middle" x="841" y="-119.5" font-family="Helvetica,sans-Serif" font-size="10.00">support/configCosmos.h</text>
</a>
</g>
</g>
<!-- Node2&#45;&gt;Node3 -->
<g id="edge2" class="edge"><title>Node2&#45;&gt;Node3</title>
<path fill="none" stroke="midnightblue" d="M919.01,-392.389C899.902,-385.458 876.004,-373.875 861,-356 841.568,-332.849 841,-321.225 841,-291 841,-291 841,-291 841,-233 841,-200.948 841,-163.643 841,-141.749"/>
<polygon fill="midnightblue" stroke="midnightblue" points="844.5,-141.558 841,-131.558 837.5,-141.558 844.5,-141.558"/>
</g>
<!-- Node36 -->
<g id="node36" class="node"><title>Node36</title>
<polygon fill="white" stroke="#bfbfbf" points="869.5,-336.5 869.5,-355.5 942.5,-355.5 942.5,-336.5 869.5,-336.5"/>
<text text-anchor="middle" x="906" y="-343.5" font-family="Helvetica,sans-Serif" font-size="10.00">sys/socket.h</text>
</g>
<!-- Node2&#45;&gt;Node36 -->
<g id="edge44" class="edge"><title>Node2&#45;&gt;Node36</title>
<path fill="none" stroke="midnightblue" d="M941.899,-392.083C935.763,-384.377 926.73,-373.033 919.261,-363.653"/>
<polygon fill="midnightblue" stroke="midnightblue" points="921.936,-361.394 912.968,-355.751 916.46,-365.754 921.936,-361.394"/>
</g>
<!-- Node37 -->
<g id="node37" class="node"><title>Node37</title>
<polygon fill="white" stroke="#bfbfbf" points="961,-336.5 961,-355.5 1023,-355.5 1023,-336.5 961,-336.5"/>
<text text-anchor="middle" x="992" y="-343.5" font-family="Helvetica,sans-Serif" font-size="10.00">sys/ioctl.h</text>
</g>
<!-- Node2&#45;&gt;Node37 -->
<g id="edge45" class="edge"><title>Node2&#45;&gt;Node37</title>
<path fill="none" stroke="midnightblue" d="M956.101,-392.083C962.237,-384.377 971.27,-373.033 978.739,-363.653"/>
<polygon fill="midnightblue" stroke="midnightblue" points="981.54,-365.754 985.032,-355.751 976.064,-361.394 981.54,-365.754"/>
</g>
<!-- Node38 -->
<g id="node38" class="node"><title>Node38</title>
<polygon fill="white" stroke="#bfbfbf" points="1041.5,-336.5 1041.5,-355.5 1088.5,-355.5 1088.5,-336.5 1041.5,-336.5"/>
<text text-anchor="middle" x="1065" y="-343.5" font-family="Helvetica,sans-Serif" font-size="10.00">net/if.h</text>
</g>
<!-- Node2&#45;&gt;Node38 -->
<g id="edge46" class="edge"><title>Node2&#45;&gt;Node38</title>
<path fill="none" stroke="midnightblue" d="M967.381,-392.444C986.216,-383.675 1015.73,-369.935 1037.38,-359.858"/>
<polygon fill="midnightblue" stroke="midnightblue" points="1039.12,-362.91 1046.71,-355.516 1036.16,-356.564 1039.12,-362.91"/>
</g>
<!-- Node4 -->
<g id="node4" class="node"><title>Node4</title>
<polygon fill="white" stroke="#bfbfbf" points="1092.5,-56.5 1092.5,-75.5 1137.5,-75.5 1137.5,-56.5 1092.5,-56.5"/>
<text text-anchor="middle" x="1115" y="-63.5" font-family="Helvetica,sans-Serif" font-size="10.00">climits</text>
</g>
<!-- Node3&#45;&gt;Node4 -->
<g id="edge3" class="edge"><title>Node3&#45;&gt;Node4</title>
<path fill="none" stroke="midnightblue" d="M895.853,-112.443C943.096,-104.711 1013.27,-92.3673 1082.61,-76.1606"/>
<polygon fill="midnightblue" stroke="midnightblue" points="1083.46,-79.5561 1092.38,-73.8482 1081.84,-72.7441 1083.46,-79.5561"/>
</g>
<!-- Node5 -->
<g id="node5" class="node"><title>Node5</title>
<polygon fill="white" stroke="#bfbfbf" points="1194.5,-56.5 1194.5,-75.5 1241.5,-75.5 1241.5,-56.5 1194.5,-56.5"/>
<text text-anchor="middle" x="1218" y="-63.5" font-family="Helvetica,sans-Serif" font-size="10.00">csignal</text>
</g>
<!-- Node3&#45;&gt;Node5 -->
<g id="edge4" class="edge"><title>Node3&#45;&gt;Node5</title>
<path fill="none" stroke="midnightblue" d="M902.533,-114.715C970.682,-107.317 1083.66,-93.7561 1180,-76 1181.46,-75.7312 1182.95,-75.4426 1184.44,-75.1396"/>
<polygon fill="midnightblue" stroke="midnightblue" points="1185.33,-78.5287 1194.36,-72.987 1183.85,-71.688 1185.33,-78.5287"/>
</g>
<!-- Node6 -->
<g id="node6" class="node"><title>Node6</title>
<polygon fill="white" stroke="#bfbfbf" points="268,-56.5 268,-75.5 314,-75.5 314,-56.5 268,-56.5"/>
<text text-anchor="middle" x="291" y="-63.5" font-family="Helvetica,sans-Serif" font-size="10.00">cstdint</text>
</g>
<!-- Node3&#45;&gt;Node6 -->
<g id="edge5" class="edge"><title>Node3&#45;&gt;Node6</title>
<path fill="none" stroke="midnightblue" d="M779.104,-119.368C683.354,-116.022 493.555,-106.119 324.385,-75.9269"/>
<polygon fill="midnightblue" stroke="midnightblue" points="324.764,-72.4388 314.3,-74.0983 323.515,-79.3265 324.764,-72.4388"/>
</g>
<!-- Node7 -->
<g id="node7" class="node"><title>Node7</title>
<polygon fill="white" stroke="#bfbfbf" points="1666,-56.5 1666,-75.5 1722,-75.5 1722,-56.5 1666,-56.5"/>
<text text-anchor="middle" x="1694" y="-63.5" font-family="Helvetica,sans-Serif" font-size="10.00">cinttypes</text>
</g>
<!-- Node3&#45;&gt;Node7 -->
<g id="edge6" class="edge"><title>Node3&#45;&gt;Node7</title>
<path fill="none" stroke="midnightblue" d="M902.549,-121.445C1037.52,-121.593 1369.61,-117.439 1655.67,-75.9112"/>
<polygon fill="midnightblue" stroke="midnightblue" points="1656.44,-79.3355 1665.82,-74.4181 1655.42,-72.4099 1656.44,-79.3355"/>
</g>
<!-- Node8 -->
<g id="node8" class="node"><title>Node8</title>
<polygon fill="white" stroke="#bfbfbf" points="1740.5,-56.5 1740.5,-75.5 1783.5,-75.5 1783.5,-56.5 1740.5,-56.5"/>
<text text-anchor="middle" x="1762" y="-63.5" font-family="Helvetica,sans-Serif" font-size="10.00">cstdio</text>
</g>
<!-- Node3&#45;&gt;Node8 -->
<g id="edge7" class="edge"><title>Node3&#45;&gt;Node8</title>
<path fill="none" stroke="midnightblue" d="M902.606,-119.744C1073.58,-115.97 1552.47,-103.357 1730.45,-75.5788"/>
<polygon fill="midnightblue" stroke="midnightblue" points="1731.16,-79.0086 1740.47,-73.9438 1730.04,-72.1 1731.16,-79.0086"/>
</g>
<!-- Node9 -->
<g id="node9" class="node"><title>Node9</title>
<polygon fill="white" stroke="#bfbfbf" points="332.5,-56.5 332.5,-75.5 381.5,-75.5 381.5,-56.5 332.5,-56.5"/>
<text text-anchor="middle" x="357" y="-63.5" font-family="Helvetica,sans-Serif" font-size="10.00">cstddef</text>
</g>
<!-- Node3&#45;&gt;Node9 -->
<g id="edge8" class="edge"><title>Node3&#45;&gt;Node9</title>
<path fill="none" stroke="midnightblue" d="M779.266,-118.106C693.929,-113.384 535.068,-101.995 391.626,-76.0421"/>
<polygon fill="midnightblue" stroke="midnightblue" points="392.232,-72.5949 381.764,-74.2299 390.967,-79.4796 392.232,-72.5949"/>
</g>
<!-- Node10 -->
<g id="node10" class="node"><title>Node10</title>
<polygon fill="white" stroke="#bfbfbf" points="399.5,-56.5 399.5,-75.5 444.5,-75.5 444.5,-56.5 399.5,-56.5"/>
<text text-anchor="middle" x="422" y="-63.5" font-family="Helvetica,sans-Serif" font-size="10.00">cstdlib</text>
</g>
<!-- Node3&#45;&gt;Node10 -->
<g id="edge9" class="edge"><title>Node3&#45;&gt;Node10</title>
<path fill="none" stroke="midnightblue" d="M779.204,-116.848C704.519,-111.155 574.967,-99.1221 454.735,-75.831"/>
<polygon fill="midnightblue" stroke="midnightblue" points="455.106,-72.337 444.618,-73.8399 453.754,-79.2052 455.106,-72.337"/>
</g>
<!-- Node11 -->
<g id="node11" class="node"><title>Node11</title>
<polygon fill="white" stroke="#bfbfbf" points="463,-56.5 463,-75.5 507,-75.5 507,-56.5 463,-56.5"/>
<text text-anchor="middle" x="485" y="-63.5" font-family="Helvetica,sans-Serif" font-size="10.00">cerrno</text>
</g>
<!-- Node3&#45;&gt;Node11 -->
<g id="edge10" class="edge"><title>Node3&#45;&gt;Node11</title>
<path fill="none" stroke="midnightblue" d="M779.441,-115.164C715.917,-108.538 613.862,-96.2147 517.192,-75.9909"/>
<polygon fill="midnightblue" stroke="midnightblue" points="517.762,-72.5339 507.253,-73.8792 516.307,-79.3811 517.762,-72.5339"/>
</g>
<!-- Node12 -->
<g id="node12" class="node"><title>Node12</title>
<polygon fill="white" stroke="#bfbfbf" points="525,-56.5 525,-75.5 571,-75.5 571,-56.5 525,-56.5"/>
<text text-anchor="middle" x="548" y="-63.5" font-family="Helvetica,sans-Serif" font-size="10.00">cstring</text>
</g>
<!-- Node3&#45;&gt;Node12 -->
<g id="edge11" class="edge"><title>Node3&#45;&gt;Node12</title>
<path fill="none" stroke="midnightblue" d="M781.048,-112.467C730.204,-104.821 655.179,-92.5788 581.291,-76.1111"/>
<polygon fill="midnightblue" stroke="midnightblue" points="581.873,-72.6545 571.347,-73.8675 580.332,-79.4828 581.873,-72.6545"/>
</g>
<!-- Node13 -->
<g id="node13" class="node"><title>Node13</title>
<polygon fill="white" stroke="#bfbfbf" points="66,-56.5 66,-75.5 110,-75.5 110,-56.5 66,-56.5"/>
<text text-anchor="middle" x="88" y="-63.5" font-family="Helvetica,sans-Serif" font-size="10.00">cmath</text>
</g>
<!-- Node3&#45;&gt;Node13 -->
<g id="edge12" class="edge"><title>Node3&#45;&gt;Node13</title>
<path fill="none" stroke="midnightblue" d="M779.134,-121.707C655.301,-122.136 368.278,-118.173 120.137,-75.8033"/>
<polygon fill="midnightblue" stroke="midnightblue" points="120.664,-72.3424 110.213,-74.0845 119.469,-79.2398 120.664,-72.3424"/>
</g>
<!-- Node14 -->
<g id="node14" class="node"><title>Node14</title>
<polygon fill="white" stroke="#bfbfbf" points="589.5,-56.5 589.5,-75.5 634.5,-75.5 634.5,-56.5 589.5,-56.5"/>
<text text-anchor="middle" x="612" y="-63.5" font-family="Helvetica,sans-Serif" font-size="10.00">iosfwd</text>
</g>
<!-- Node3&#45;&gt;Node14 -->
<g id="edge13" class="edge"><title>Node3&#45;&gt;Node14</title>
<path fill="none" stroke="midnightblue" d="M800.866,-112.443C763.063,-104.248 704.626,-91.2306 644.706,-76.0806"/>
<polygon fill="midnightblue" stroke="midnightblue" points="645.243,-72.6057 634.688,-73.531 643.516,-79.3894 645.243,-72.6057"/>
</g>
<!-- Node15 -->
<g id="node15" class="node"><title>Node15</title>
<polygon fill="white" stroke="#bfbfbf" points="128,-56.5 128,-75.5 182,-75.5 182,-56.5 128,-56.5"/>
<text text-anchor="middle" x="155" y="-63.5" font-family="Helvetica,sans-Serif" font-size="10.00">iostream</text>
</g>
<!-- Node3&#45;&gt;Node15 -->
<g id="edge14" class="edge"><title>Node3&#45;&gt;Node15</title>
<path fill="none" stroke="midnightblue" d="M779.206,-120.33C664.964,-118.306 413.01,-110.176 192.181,-75.8962"/>
<polygon fill="midnightblue" stroke="midnightblue" points="192.444,-72.3946 182.022,-74.297 191.356,-79.3094 192.444,-72.3946"/>
</g>
<!-- Node16 -->
<g id="node16" class="node"><title>Node16</title>
<polygon fill="white" stroke="#bfbfbf" points="653,-56.5 653,-75.5 705,-75.5 705,-56.5 653,-56.5"/>
<text text-anchor="middle" x="679" y="-63.5" font-family="Helvetica,sans-Serif" font-size="10.00">sstream</text>
</g>
<!-- Node3&#45;&gt;Node16 -->
<g id="edge15" class="edge"><title>Node3&#45;&gt;Node16</title>
<path fill="none" stroke="midnightblue" d="M815.331,-112.444C788.077,-103.359 744.816,-88.9388 714.349,-78.7831"/>
<polygon fill="midnightblue" stroke="midnightblue" points="715.143,-75.3584 704.549,-75.5164 712.929,-81.9992 715.143,-75.3584"/>
</g>
<!-- Node17 -->
<g id="node17" class="node"><title>Node17</title>
<polygon fill="white" stroke="#bfbfbf" points="723.5,-56.5 723.5,-75.5 764.5,-75.5 764.5,-56.5 723.5,-56.5"/>
<text text-anchor="middle" x="744" y="-63.5" font-family="Helvetica,sans-Serif" font-size="10.00">regex</text>
</g>
<!-- Node3&#45;&gt;Node17 -->
<g id="edge16" class="edge"><title>Node3&#45;&gt;Node17</title>
<path fill="none" stroke="midnightblue" d="M825.415,-112.324C810.001,-103.743 786.188,-90.486 768.29,-80.5224"/>
<polygon fill="midnightblue" stroke="midnightblue" points="769.986,-77.4606 759.546,-75.6545 766.581,-83.5767 769.986,-77.4606"/>
</g>
<!-- Node18 -->
<g id="node18" class="node"><title>Node18</title>
<polygon fill="white" stroke="#bfbfbf" points="200,-56.5 200,-75.5 250,-75.5 250,-56.5 200,-56.5"/>
<text text-anchor="middle" x="225" y="-63.5" font-family="Helvetica,sans-Serif" font-size="10.00">iomanip</text>
</g>
<!-- Node3&#45;&gt;Node18 -->
<g id="edge17" class="edge"><title>Node3&#45;&gt;Node18</title>
<path fill="none" stroke="midnightblue" d="M779.384,-119.904C674.492,-117.237 454.528,-108.169 260.249,-75.9032"/>
<polygon fill="midnightblue" stroke="midnightblue" points="260.582,-72.41 250.139,-74.199 259.418,-79.3126 260.582,-72.41"/>
</g>
<!-- Node19 -->
<g id="node19" class="node"><title>Node19</title>
<polygon fill="white" stroke="#bfbfbf" points="782.5,-56.5 782.5,-75.5 833.5,-75.5 833.5,-56.5 782.5,-56.5"/>
<text text-anchor="middle" x="808" y="-63.5" font-family="Helvetica,sans-Serif" font-size="10.00">unistd.h</text>
</g>
<!-- Node3&#45;&gt;Node19 -->
<g id="edge18" class="edge"><title>Node3&#45;&gt;Node19</title>
<path fill="none" stroke="midnightblue" d="M835.551,-112.083C830.986,-104.613 824.332,-93.7244 818.707,-84.5199"/>
<polygon fill="midnightblue" stroke="midnightblue" points="821.549,-82.4588 813.348,-75.7511 815.576,-86.109 821.549,-82.4588"/>
</g>
<!-- Node20 -->
<g id="node20" class="node"><title>Node20</title>
<polygon fill="white" stroke="#bfbfbf" points="852,-56.5 852,-75.5 896,-75.5 896,-56.5 852,-56.5"/>
<text text-anchor="middle" x="874" y="-63.5" font-family="Helvetica,sans-Serif" font-size="10.00">fcntl.h</text>
</g>
<!-- Node3&#45;&gt;Node20 -->
<g id="edge19" class="edge"><title>Node3&#45;&gt;Node20</title>
<path fill="none" stroke="midnightblue" d="M846.449,-112.083C851.014,-104.613 857.668,-93.7244 863.293,-84.5199"/>
<polygon fill="midnightblue" stroke="midnightblue" points="866.424,-86.109 868.652,-75.7511 860.451,-82.4588 866.424,-86.109"/>
</g>
<!-- Node21 -->
<g id="node21" class="node"><title>Node21</title>
<polygon fill="white" stroke="#bfbfbf" points="914,-56.5 914,-75.5 954,-75.5 954,-56.5 914,-56.5"/>
<text text-anchor="middle" x="934" y="-63.5" font-family="Helvetica,sans-Serif" font-size="10.00">limits</text>
</g>
<!-- Node3&#45;&gt;Node21 -->
<g id="edge20" class="edge"><title>Node3&#45;&gt;Node21</title>
<path fill="none" stroke="midnightblue" d="M855.942,-112.324C870.585,-103.822 893.134,-90.7288 910.238,-80.7975"/>
<polygon fill="midnightblue" stroke="midnightblue" points="912.205,-83.7027 919.095,-75.6545 908.69,-77.6491 912.205,-83.7027"/>
</g>
<!-- Node22 -->
<g id="node22" class="node"><title>Node22</title>
<polygon fill="white" stroke="#bfbfbf" points="1791.5,-0.5 1791.5,-19.5 1832.5,-19.5 1832.5,-0.5 1791.5,-0.5"/>
<text text-anchor="middle" x="1812" y="-7.5" font-family="Helvetica,sans-Serif" font-size="10.00">string</text>
</g>
<!-- Node3&#45;&gt;Node22 -->
<g id="edge21" class="edge"><title>Node3&#45;&gt;Node22</title>
<path fill="none" stroke="midnightblue" d="M902.669,-120.041C1108.06,-116.595 1758,-103.551 1793,-76 1806.69,-65.2222 1810.9,-45.1355 1812.01,-30.1322"/>
<polygon fill="midnightblue" stroke="midnightblue" points="1815.52,-30.0037 1812.37,-19.8883 1808.52,-29.7608 1815.52,-30.0037"/>
</g>
<!-- Node23 -->
<g id="node23" class="node"><title>Node23</title>
<polygon fill="white" stroke="#bfbfbf" points="1143,-0.5 1143,-19.5 1187,-19.5 1187,-0.5 1143,-0.5"/>
<text text-anchor="middle" x="1165" y="-7.5" font-family="Helvetica,sans-Serif" font-size="10.00">vector</text>
</g>
<!-- Node3&#45;&gt;Node23 -->
<g id="edge22" class="edge"><title>Node3&#45;&gt;Node23</title>
<path fill="none" stroke="midnightblue" d="M902.603,-119.688C981.347,-116.735 1111.73,-107.143 1147,-76 1160.01,-64.5127 1163.99,-44.5381 1165.03,-29.7549"/>
<polygon fill="midnightblue" stroke="midnightblue" points="1168.53,-29.7971 1165.36,-19.6885 1161.54,-29.5694 1168.53,-29.7971"/>
</g>
<!-- Node24 -->
<g id="node24" class="node"><title>Node24</title>
<polygon fill="white" stroke="#bfbfbf" points="972.5,-56.5 972.5,-75.5 1013.5,-75.5 1013.5,-56.5 972.5,-56.5"/>
<text text-anchor="middle" x="993" y="-63.5" font-family="Helvetica,sans-Serif" font-size="10.00">stack</text>
</g>
<!-- Node3&#45;&gt;Node24 -->
<g id="edge23" class="edge"><title>Node3&#45;&gt;Node24</title>
<path fill="none" stroke="midnightblue" d="M865.085,-112.444C891.593,-103.026 934.242,-87.8746 962.926,-77.6842"/>
<polygon fill="midnightblue" stroke="midnightblue" points="964.189,-80.9499 972.44,-74.3042 961.845,-74.3538 964.189,-80.9499"/>
</g>
<!-- Node25 -->
<g id="node25" class="node"><title>Node25</title>
<polygon fill="white" stroke="#bfbfbf" points="1031.5,-56.5 1031.5,-75.5 1074.5,-75.5 1074.5,-56.5 1031.5,-56.5"/>
<text text-anchor="middle" x="1053" y="-63.5" font-family="Helvetica,sans-Serif" font-size="10.00">deque</text>
</g>
<!-- Node3&#45;&gt;Node25 -->
<g id="edge24" class="edge"><title>Node3&#45;&gt;Node25</title>
<path fill="none" stroke="midnightblue" d="M877.74,-112.475C912.509,-104.284 966.385,-91.2732 1021.47,-76.3283"/>
<polygon fill="midnightblue" stroke="midnightblue" points="1022.68,-79.6268 1031.41,-73.616 1020.84,-72.874 1022.68,-79.6268"/>
</g>
<!-- Node26 -->
<g id="node26" class="node"><title>Node26</title>
<polygon fill="white" stroke="#bfbfbf" points="1489,-0.5 1489,-19.5 1533,-19.5 1533,-0.5 1489,-0.5"/>
<text text-anchor="middle" x="1511" y="-7.5" font-family="Helvetica,sans-Serif" font-size="10.00">mutex</text>
</g>
<!-- Node3&#45;&gt;Node26 -->
<g id="edge25" class="edge"><title>Node3&#45;&gt;Node26</title>
<path fill="none" stroke="midnightblue" d="M902.508,-120.069C1052.97,-117.311 1430.8,-107.316 1478,-76 1493.95,-65.4154 1502.58,-44.6418 1506.96,-29.4176"/>
<polygon fill="midnightblue" stroke="midnightblue" points="1510.4,-30.0899 1509.45,-19.5379 1503.61,-28.3805 1510.4,-30.0899"/>
</g>
<!-- Node27 -->
<g id="node27" class="node"><title>Node27</title>
<polygon fill="white" stroke="#bfbfbf" points="1205,-0.5 1205,-19.5 1249,-19.5 1249,-0.5 1205,-0.5"/>
<text text-anchor="middle" x="1227" y="-7.5" font-family="Helvetica,sans-Serif" font-size="10.00">thread</text>
</g>
<!-- Node3&#45;&gt;Node27 -->
<g id="edge26" class="edge"><title>Node3&#45;&gt;Node27</title>
<path fill="none" stroke="midnightblue" d="M902.887,-118.676C1011.75,-113.947 1228.21,-101.429 1251,-76 1263.23,-62.3502 1252.4,-41.9212 1241.63,-27.6191"/>
<polygon fill="midnightblue" stroke="midnightblue" points="1244.15,-25.1781 1235.13,-19.6212 1238.72,-29.5906 1244.15,-25.1781"/>
</g>
<!-- Node28 -->
<g id="node28" class="node"><title>Node28</title>
<polygon fill="white" stroke="#bfbfbf" points="1267.5,-0.5 1267.5,-19.5 1362.5,-19.5 1362.5,-0.5 1267.5,-0.5"/>
<text text-anchor="middle" x="1315" y="-7.5" font-family="Helvetica,sans-Serif" font-size="10.00">condition_variable</text>
</g>
<!-- Node3&#45;&gt;Node28 -->
<g id="edge27" class="edge"><title>Node3&#45;&gt;Node28</title>
<path fill="none" stroke="midnightblue" d="M902.772,-120.507C1005.56,-118.7 1206.41,-110.688 1267,-76 1285.6,-65.3532 1299.09,-44.2701 1306.95,-28.9955"/>
<polygon fill="midnightblue" stroke="midnightblue" points="1310.31,-30.0783 1311.48,-19.5485 1304,-27.0491 1310.31,-30.0783"/>
</g>
<!-- Node29 -->
<g id="node29" class="node"><title>Node29</title>
<polygon fill="white" stroke="#bfbfbf" points="1427.5,-0.5 1427.5,-19.5 1470.5,-19.5 1470.5,-0.5 1427.5,-0.5"/>
<text text-anchor="middle" x="1449" y="-7.5" font-family="Helvetica,sans-Serif" font-size="10.00">queue</text>
</g>
<!-- Node3&#45;&gt;Node29 -->
<g id="edge28" class="edge"><title>Node3&#45;&gt;Node29</title>
<path fill="none" stroke="midnightblue" d="M902.711,-121.173C1052.07,-120.949 1423.52,-116.303 1461,-76 1472.68,-63.4376 1466.63,-43.3803 1459.57,-28.8661"/>
<polygon fill="midnightblue" stroke="midnightblue" points="1462.55,-27.0123 1454.73,-19.8636 1456.38,-30.3284 1462.55,-27.0123"/>
</g>
<!-- Node30 -->
<g id="node30" class="node"><title>Node30</title>
<polygon fill="white" stroke="#bfbfbf" points="1551.5,-0.5 1551.5,-19.5 1586.5,-19.5 1586.5,-0.5 1551.5,-0.5"/>
<text text-anchor="middle" x="1569" y="-7.5" font-family="Helvetica,sans-Serif" font-size="10.00">map</text>
</g>
<!-- Node3&#45;&gt;Node30 -->
<g id="edge29" class="edge"><title>Node3&#45;&gt;Node30</title>
<path fill="none" stroke="midnightblue" d="M902.63,-119.155C1055.96,-114.231 1446.14,-99.5275 1500,-76 1523.7,-65.6462 1544.31,-43.5085 1556.68,-27.957"/>
<polygon fill="midnightblue" stroke="midnightblue" points="1559.7,-29.7739 1562.98,-19.7004 1554.13,-25.5282 1559.7,-29.7739"/>
</g>
<!-- Node31 -->
<g id="node31" class="node"><title>Node31</title>
<g id="a_node31"><a xlink:href="cosmos-defs_8h.html" target="_top" xlink:title="COSMOS definitions Definitions specific to the COSMOS environement. ">
<polygon fill="white" stroke="black" points="1336,-56.5 1336,-75.5 1452,-75.5 1452,-56.5 1336,-56.5"/>
<text text-anchor="middle" x="1394" y="-63.5" font-family="Helvetica,sans-Serif" font-size="10.00">support/cosmos&#45;defs.h</text>
</a>
</g>
</g>
<!-- Node3&#45;&gt;Node31 -->
<g id="edge30" class="edge"><title>Node3&#45;&gt;Node31</title>
<path fill="none" stroke="midnightblue" d="M902.564,-115.857C994.111,-108.069 1171.51,-92.4415 1322,-76 1323.27,-75.8615 1324.55,-75.7198 1325.84,-75.5755"/>
<polygon fill="midnightblue" stroke="midnightblue" points="1326.32,-79.0428 1335.86,-74.4249 1325.53,-72.0885 1326.32,-79.0428"/>
</g>
<!-- Node33 -->
<g id="node33" class="node"><title>Node33</title>
<g id="a_node33"><a xlink:href="json11_8hpp.html" target="_top" xlink:title="json11.hpp">
<polygon fill="white" stroke="black" points="1584,-56.5 1584,-75.5 1648,-75.5 1648,-56.5 1584,-56.5"/>
<text text-anchor="middle" x="1616" y="-63.5" font-family="Helvetica,sans-Serif" font-size="10.00">json11.hpp</text>
</a>
</g>
</g>
<!-- Node3&#45;&gt;Node33 -->
<g id="edge38" class="edge"><title>Node3&#45;&gt;Node33</title>
<path fill="none" stroke="midnightblue" d="M902.702,-119.927C1028.63,-117.135 1324.11,-107.505 1570,-76 1571.27,-75.8371 1572.56,-75.6602 1573.86,-75.4716"/>
<polygon fill="midnightblue" stroke="midnightblue" points="1574.61,-78.8959 1583.92,-73.836 1573.48,-71.9867 1574.61,-78.8959"/>
</g>
<!-- Node31&#45;&gt;Node23 -->
<g id="edge32" class="edge"><title>Node31&#45;&gt;Node23</title>
<path fill="none" stroke="midnightblue" d="M1353.26,-56.4762C1315.22,-48.356 1256.68,-35.4396 1197.24,-20.2115"/>
<polygon fill="midnightblue" stroke="midnightblue" points="1197.87,-16.7583 1187.31,-17.6471 1196.12,-23.5361 1197.87,-16.7583"/>
</g>
<!-- Node31&#45;&gt;Node26 -->
<g id="edge36" class="edge"><title>Node31&#45;&gt;Node26</title>
<path fill="none" stroke="midnightblue" d="M1412.54,-56.4435C1431.62,-47.6356 1461.57,-33.8116 1483.44,-23.722"/>
<polygon fill="midnightblue" stroke="midnightblue" points="1484.93,-26.8849 1492.55,-19.5164 1482,-20.5292 1484.93,-26.8849"/>
</g>
<!-- Node31&#45;&gt;Node27 -->
<g id="edge35" class="edge"><title>Node31&#45;&gt;Node27</title>
<path fill="none" stroke="midnightblue" d="M1367.54,-56.4435C1337.99,-46.8902 1290.2,-31.436 1258.69,-21.2461"/>
<polygon fill="midnightblue" stroke="midnightblue" points="1259.66,-17.8833 1249.07,-18.1368 1257.51,-24.5438 1259.66,-17.8833"/>
</g>
<!-- Node31&#45;&gt;Node28 -->
<g id="edge37" class="edge"><title>Node31&#45;&gt;Node28</title>
<path fill="none" stroke="midnightblue" d="M1381.31,-56.324C1369.1,-47.979 1350.42,-35.2122 1336,-25.3524"/>
<polygon fill="midnightblue" stroke="midnightblue" points="1337.89,-22.4082 1327.66,-19.6545 1333.94,-28.1871 1337.89,-22.4082"/>
</g>
<!-- Node31&#45;&gt;Node29 -->
<g id="edge34" class="edge"><title>Node31&#45;&gt;Node29</title>
<path fill="none" stroke="midnightblue" d="M1403.08,-56.083C1411.17,-48.1409 1423.2,-36.3354 1432.91,-26.7973"/>
<polygon fill="midnightblue" stroke="midnightblue" points="1435.4,-29.2545 1440.09,-19.7511 1430.5,-24.2595 1435.4,-29.2545"/>
</g>
<!-- Node31&#45;&gt;Node30 -->
<g id="edge31" class="edge"><title>Node31&#45;&gt;Node30</title>
<path fill="none" stroke="midnightblue" d="M1423,-56.4315C1450.96,-48.1141 1494.7,-34.9619 1541.57,-20.0743"/>
<polygon fill="midnightblue" stroke="midnightblue" points="1542.84,-23.3452 1551.3,-16.9737 1540.71,-16.6757 1542.84,-23.3452"/>
</g>
<!-- Node32 -->
<g id="node32" class="node"><title>Node32</title>
<polygon fill="white" stroke="#bfbfbf" points="1380.5,-0.5 1380.5,-19.5 1409.5,-19.5 1409.5,-0.5 1380.5,-0.5"/>
<text text-anchor="middle" x="1395" y="-7.5" font-family="Helvetica,sans-Serif" font-size="10.00">list</text>
</g>
<!-- Node31&#45;&gt;Node32 -->
<g id="edge33" class="edge"><title>Node31&#45;&gt;Node32</title>
<path fill="none" stroke="midnightblue" d="M1394.17,-56.083C1394.3,-49.0059 1394.48,-38.8611 1394.65,-29.9865"/>
<polygon fill="midnightblue" stroke="midnightblue" points="1398.15,-29.8142 1394.84,-19.7511 1391.15,-29.6845 1398.15,-29.8142"/>
</g>
<!-- Node33&#45;&gt;Node22 -->
<g id="edge39" class="edge"><title>Node33&#45;&gt;Node22</title>
<path fill="none" stroke="midnightblue" d="M1647.06,-56.4435C1683.8,-46.3203 1744.59,-29.5711 1781.22,-19.481"/>
<polygon fill="midnightblue" stroke="midnightblue" points="1782.6,-22.7308 1791.31,-16.7003 1780.74,-15.9823 1782.6,-22.7308"/>
</g>
<!-- Node33&#45;&gt;Node23 -->
<g id="edge40" class="edge"><title>Node33&#45;&gt;Node23</title>
<path fill="none" stroke="midnightblue" d="M1583.83,-63.4846C1514.7,-59.8167 1346.77,-48.7055 1197.49,-19.9718"/>
<polygon fill="midnightblue" stroke="midnightblue" points="1197.72,-16.4499 1187.24,-17.9631 1196.38,-23.3195 1197.72,-16.4499"/>
</g>
<!-- Node33&#45;&gt;Node30 -->
<g id="edge41" class="edge"><title>Node33&#45;&gt;Node30</title>
<path fill="none" stroke="midnightblue" d="M1608.24,-56.083C1601.46,-48.2982 1591.46,-36.8015 1583.24,-27.3665"/>
<polygon fill="midnightblue" stroke="midnightblue" points="1585.82,-24.9963 1576.62,-19.7511 1580.54,-29.592 1585.82,-24.9963"/>
</g>
<!-- Node34 -->
<g id="node34" class="node"><title>Node34</title>
<polygon fill="white" stroke="#bfbfbf" points="1696,-0.5 1696,-19.5 1748,-19.5 1748,-0.5 1696,-0.5"/>
<text text-anchor="middle" x="1722" y="-7.5" font-family="Helvetica,sans-Serif" font-size="10.00">memory</text>
</g>
<!-- Node33&#45;&gt;Node34 -->
<g id="edge42" class="edge"><title>Node33&#45;&gt;Node34</title>
<path fill="none" stroke="midnightblue" d="M1633.03,-56.324C1650.03,-47.6641 1676.38,-34.2424 1695.99,-24.249"/>
<polygon fill="midnightblue" stroke="midnightblue" points="1697.69,-27.3125 1705.01,-19.6545 1694.51,-21.0752 1697.69,-27.3125"/>
</g>
<!-- Node35 -->
<g id="node35" class="node"><title>Node35</title>
<polygon fill="white" stroke="#bfbfbf" points="1604.5,-0.5 1604.5,-19.5 1677.5,-19.5 1677.5,-0.5 1604.5,-0.5"/>
<text text-anchor="middle" x="1641" y="-7.5" font-family="Helvetica,sans-Serif" font-size="10.00">initializer_list</text>
</g>
<!-- Node33&#45;&gt;Node35 -->
<g id="edge43" class="edge"><title>Node33&#45;&gt;Node35</title>
<path fill="none" stroke="midnightblue" d="M1620.13,-56.083C1623.51,-48.77 1628.42,-38.1814 1632.62,-29.1034"/>
<polygon fill="midnightblue" stroke="midnightblue" points="1635.92,-30.2962 1636.95,-19.7511 1629.57,-27.3553 1635.92,-30.2962"/>
</g>
<!-- Node39&#45;&gt;Node3 -->
<g id="edge48" class="edge"><title>Node39&#45;&gt;Node3</title>
<path fill="none" stroke="midnightblue" d="M527.754,-401.393C600.692,-399.734 746,-384.675 746,-291 746,-291 746,-291 746,-233 746,-189.739 788.608,-155.086 816.755,-136.915"/>
<polygon fill="midnightblue" stroke="midnightblue" points="818.661,-139.851 825.313,-131.604 814.97,-133.903 818.661,-139.851"/>
</g>
<!-- Node39&#45;&gt;Node13 -->
<g id="edge69" class="edge"><title>Node39&#45;&gt;Node13</title>
<path fill="none" stroke="midnightblue" d="M446.316,-400.456C329.271,-397.802 0,-382.229 0,-291 0,-291 0,-291 0,-177 0,-135.032 39.5408,-99.9022 65.6125,-81.3001"/>
<polygon fill="midnightblue" stroke="midnightblue" points="67.5966,-84.1834 73.8613,-75.6391 63.6357,-78.4118 67.5966,-84.1834"/>
</g>
<!-- Node39&#45;&gt;Node15 -->
<g id="edge70" class="edge"><title>Node39&#45;&gt;Node15</title>
<path fill="none" stroke="midnightblue" d="M446.464,-395.546C361.388,-382.962 172,-348.492 172,-291 172,-291 172,-291 172,-177 172,-144.583 164.7,-107.415 159.667,-85.6439"/>
<polygon fill="midnightblue" stroke="midnightblue" points="163.034,-84.6736 157.293,-75.769 156.228,-86.3102 163.034,-84.6736"/>
</g>
<!-- Node40 -->
<g id="node40" class="node"><title>Node40</title>
<g id="a_node40"><a xlink:href="cosmos-errno_8h.html" target="_top" xlink:title="COSMOS Error Codes. ">
<polygon fill="white" stroke="black" points="427.5,-336.5 427.5,-355.5 546.5,-355.5 546.5,-336.5 427.5,-336.5"/>
<text text-anchor="middle" x="487" y="-343.5" font-family="Helvetica,sans-Serif" font-size="10.00">support/cosmos&#45;errno.h</text>
</a>
</g>
</g>
<!-- Node39&#45;&gt;Node40 -->
<g id="edge49" class="edge"><title>Node39&#45;&gt;Node40</title>
<path fill="none" stroke="midnightblue" d="M487,-392.083C487,-385.006 487,-374.861 487,-365.986"/>
<polygon fill="midnightblue" stroke="midnightblue" points="490.5,-365.751 487,-355.751 483.5,-365.751 490.5,-365.751"/>
</g>
<!-- Node42 -->
<g id="node42" class="node"><title>Node42</title>
<g id="a_node42"><a xlink:href="math_2constants_8h.html" target="_top" xlink:title="constants.h">
<polygon fill="white" stroke="black" points="338,-168.5 338,-187.5 406,-187.5 406,-168.5 338,-168.5"/>
<text text-anchor="middle" x="372" y="-175.5" font-family="Helvetica,sans-Serif" font-size="10.00">constants.h</text>
</a>
</g>
</g>
<!-- Node39&#45;&gt;Node42 -->
<g id="edge52" class="edge"><title>Node39&#45;&gt;Node42</title>
<path fill="none" stroke="midnightblue" d="M466.162,-392.451C450.637,-385.035 430.109,-372.834 418,-356 408.639,-342.987 385.42,-240.353 376.034,-197.596"/>
<polygon fill="midnightblue" stroke="midnightblue" points="379.42,-196.699 373.868,-187.675 372.581,-198.192 379.42,-196.699"/>
</g>
<!-- Node43 -->
<g id="node43" class="node"><title>Node43</title>
<g id="a_node43"><a xlink:href="vector_8h.html" target="_top" xlink:title="vector.h">
<polygon fill="white" stroke="black" points="319,-224.5 319,-243.5 371,-243.5 371,-224.5 319,-224.5"/>
<text text-anchor="middle" x="345" y="-231.5" font-family="Helvetica,sans-Serif" font-size="10.00">vector.h</text>
</a>
</g>
</g>
<!-- Node39&#45;&gt;Node43 -->
<g id="edge55" class="edge"><title>Node39&#45;&gt;Node43</title>
<path fill="none" stroke="midnightblue" d="M448.991,-392.411C427.554,-385.766 401.786,-374.484 385,-356 358.568,-326.894 349.558,-279.892 346.519,-253.864"/>
<polygon fill="midnightblue" stroke="midnightblue" points="349.992,-253.42 345.525,-243.813 343.026,-254.109 349.992,-253.42"/>
</g>
<!-- Node44 -->
<g id="node44" class="node"><title>Node44</title>
<g id="a_node44"><a xlink:href="matrix_8h.html" target="_top" xlink:title="matrix.h">
<polygon fill="white" stroke="black" points="605,-280.5 605,-299.5 657,-299.5 657,-280.5 605,-280.5"/>
<text text-anchor="middle" x="631" y="-287.5" font-family="Helvetica,sans-Serif" font-size="10.00">matrix.h</text>
</a>
</g>
</g>
<!-- Node39&#45;&gt;Node44 -->
<g id="edge62" class="edge"><title>Node39&#45;&gt;Node44</title>
<path fill="none" stroke="midnightblue" d="M501.149,-392.351C515.149,-383.629 537.028,-369.552 555,-356 576.054,-340.125 598.876,-320.208 613.958,-306.633"/>
<polygon fill="midnightblue" stroke="midnightblue" points="616.425,-309.121 621.48,-299.81 611.722,-303.936 616.425,-309.121"/>
</g>
<!-- Node45 -->
<g id="node45" class="node"><title>Node45</title>
<g id="a_node45"><a xlink:href="rotation_8h.html" target="_top" xlink:title="rotation.h">
<polygon fill="white" stroke="black" points="603.5,-336.5 603.5,-355.5 660.5,-355.5 660.5,-336.5 603.5,-336.5"/>
<text text-anchor="middle" x="632" y="-343.5" font-family="Helvetica,sans-Serif" font-size="10.00">rotation.h</text>
</a>
</g>
</g>
<!-- Node39&#45;&gt;Node45 -->
<g id="edge65" class="edge"><title>Node39&#45;&gt;Node45</title>
<path fill="none" stroke="midnightblue" d="M509.976,-392.444C534.157,-383.438 572.418,-369.189 599.646,-359.049"/>
<polygon fill="midnightblue" stroke="midnightblue" points="600.982,-362.286 609.132,-355.516 598.539,-355.727 600.982,-362.286"/>
</g>
<!-- Node40&#45;&gt;Node3 -->
<g id="edge50" class="edge"><title>Node40&#45;&gt;Node3</title>
<path fill="none" stroke="midnightblue" d="M492.965,-336.394C513.352,-307.665 583.522,-214.268 665,-168 696.813,-149.935 735.932,-139.001 769.205,-132.446"/>
<polygon fill="midnightblue" stroke="midnightblue" points="770.144,-135.831 779.328,-130.549 768.855,-128.951 770.144,-135.831"/>
</g>
<!-- Node41 -->
<g id="node41" class="node"><title>Node41</title>
<polygon fill="white" stroke="#bfbfbf" points="463.5,-280.5 463.5,-299.5 510.5,-299.5 510.5,-280.5 463.5,-280.5"/>
<text text-anchor="middle" x="487" y="-287.5" font-family="Helvetica,sans-Serif" font-size="10.00">errno.h</text>
</g>
<!-- Node40&#45;&gt;Node41 -->
<g id="edge51" class="edge"><title>Node40&#45;&gt;Node41</title>
<path fill="none" stroke="midnightblue" d="M487,-336.083C487,-329.006 487,-318.861 487,-309.986"/>
<polygon fill="midnightblue" stroke="midnightblue" points="490.5,-309.751 487,-299.751 483.5,-309.751 490.5,-309.751"/>
</g>
<!-- Node42&#45;&gt;Node3 -->
<g id="edge53" class="edge"><title>Node42&#45;&gt;Node3</title>
<path fill="none" stroke="midnightblue" d="M406.228,-172.335C417.027,-170.899 429.007,-169.344 440,-168 555.198,-153.914 689.229,-139.214 769.476,-130.594"/>
<polygon fill="midnightblue" stroke="midnightblue" points="769.902,-134.068 779.472,-129.521 769.155,-127.108 769.902,-134.068"/>
</g>
<!-- Node42&#45;&gt;Node6 -->
<g id="edge54" class="edge"><title>Node42&#45;&gt;Node6</title>
<path fill="none" stroke="midnightblue" d="M365.644,-168.368C352.218,-150.135 320.768,-107.426 303.279,-83.6752"/>
<polygon fill="midnightblue" stroke="midnightblue" points="306.074,-81.5685 297.326,-75.5914 300.438,-85.7192 306.074,-81.5685"/>
</g>
<!-- Node43&#45;&gt;Node3 -->
<g id="edge56" class="edge"><title>Node43&#45;&gt;Node3</title>
<path fill="none" stroke="midnightblue" d="M364.564,-224.427C397.184,-210.478 465.032,-182.929 525,-168 607.561,-147.446 704.756,-135.36 769.333,-128.978"/>
<polygon fill="midnightblue" stroke="midnightblue" points="769.794,-132.45 779.41,-128.002 769.12,-125.482 769.794,-132.45"/>
</g>
<!-- Node43&#45;&gt;Node13 -->
<g id="edge60" class="edge"><title>Node43&#45;&gt;Node13</title>
<path fill="none" stroke="midnightblue" d="M330.437,-224.366C315.441,-215.423 291.442,-200.967 271,-188 211.909,-150.516 143.378,-104.512 109.392,-81.5242"/>
<polygon fill="midnightblue" stroke="midnightblue" points="111.002,-78.387 100.759,-75.6769 107.076,-84.1827 111.002,-78.387"/>
</g>
<!-- Node43&#45;&gt;Node15 -->
<g id="edge58" class="edge"><title>Node43&#45;&gt;Node15</title>
<path fill="none" stroke="midnightblue" d="M335.052,-224.309C304.528,-197.64 211.904,-116.716 172.762,-82.5186"/>
<polygon fill="midnightblue" stroke="midnightblue" points="174.683,-79.5488 164.849,-75.6051 170.077,-84.8203 174.683,-79.5488"/>
</g>
<!-- Node43&#45;&gt;Node18 -->
<g id="edge59" class="edge"><title>Node43&#45;&gt;Node18</title>
<path fill="none" stroke="midnightblue" d="M338.548,-224.075C319.332,-197.493 262.256,-118.538 237.118,-83.7633"/>
<polygon fill="midnightblue" stroke="midnightblue" points="239.889,-81.6219 231.194,-75.5681 234.216,-85.7228 239.889,-81.6219"/>
</g>
<!-- Node43&#45;&gt;Node23 -->
<g id="edge61" class="edge"><title>Node43&#45;&gt;Node23</title>
<path fill="none" stroke="midnightblue" d="M318.78,-227.9C232.755,-210.144 -30.4947,-147.12 57,-56 95.2215,-16.1947 954.019,-11.594 1132.64,-11.0674"/>
<polygon fill="midnightblue" stroke="midnightblue" points="1132.73,-14.5673 1142.72,-11.04 1132.71,-7.56728 1132.73,-14.5673"/>
</g>
<!-- Node43&#45;&gt;Node42 -->
<g id="edge57" class="edge"><title>Node43&#45;&gt;Node42</title>
<path fill="none" stroke="midnightblue" d="M349.459,-224.083C353.154,-216.691 358.523,-205.953 363.094,-196.811"/>
<polygon fill="midnightblue" stroke="midnightblue" points="366.283,-198.261 367.624,-187.751 360.022,-195.13 366.283,-198.261"/>
</g>
<!-- Node44&#45;&gt;Node3 -->
<g id="edge63" class="edge"><title>Node44&#45;&gt;Node3</title>
<path fill="none" stroke="midnightblue" d="M632.42,-280.192C636.479,-257.925 650.23,-198.955 686,-168 709.124,-147.989 740.7,-136.862 769.321,-130.68"/>
<polygon fill="midnightblue" stroke="midnightblue" points="770.178,-134.078 779.302,-128.693 768.811,-127.213 770.178,-134.078"/>
</g>
<!-- Node44&#45;&gt;Node43 -->
<g id="edge64" class="edge"><title>Node44&#45;&gt;Node43</title>
<path fill="none" stroke="midnightblue" d="M604.783,-282.942C600.196,-281.928 595.464,-280.91 591,-280 516.687,-264.849 429.25,-249.423 381.2,-241.151"/>
<polygon fill="midnightblue" stroke="midnightblue" points="381.728,-237.69 371.28,-239.448 380.544,-244.589 381.728,-237.69"/>
</g>
<!-- Node45&#45;&gt;Node3 -->
<g id="edge66" class="edge"><title>Node45&#45;&gt;Node3</title>
<path fill="none" stroke="midnightblue" d="M639.273,-336.378C646.524,-327.562 657.74,-313.312 666,-300 700.582,-244.266 683.978,-212.678 732,-168 749.016,-152.169 772.374,-141.53 793.105,-134.59"/>
<polygon fill="midnightblue" stroke="midnightblue" points="794.231,-137.905 802.72,-131.566 792.131,-131.228 794.231,-137.905"/>
</g>
<!-- Node45&#45;&gt;Node43 -->
<g id="edge67" class="edge"><title>Node45&#45;&gt;Node43</title>
<path fill="none" stroke="midnightblue" d="M619.691,-336.425C599.514,-322.722 557.764,-295.823 519,-280 472.987,-261.219 416.875,-248.388 381.042,-241.374"/>
<polygon fill="midnightblue" stroke="midnightblue" points="381.531,-237.904 371.052,-239.467 380.218,-244.78 381.531,-237.904"/>
</g>
<!-- Node45&#45;&gt;Node44 -->
<g id="edge68" class="edge"><title>Node45&#45;&gt;Node44</title>
<path fill="none" stroke="midnightblue" d="M631.835,-336.083C631.704,-329.006 631.516,-318.861 631.352,-309.986"/>
<polygon fill="midnightblue" stroke="midnightblue" points="634.847,-309.685 631.162,-299.751 627.848,-309.814 634.847,-309.685"/>
</g>
<!-- Node46&#45;&gt;Node3 -->
<g id="edge72" class="edge"><title>Node46&#45;&gt;Node3</title>
<path fill="none" stroke="midnightblue" d="M1602.45,-173.267C1457.54,-163.701 1073.07,-138.32 912.758,-127.737"/>
<polygon fill="midnightblue" stroke="midnightblue" points="912.737,-124.228 902.528,-127.062 912.276,-131.213 912.737,-124.228"/>
</g>
<!-- Node46&#45;&gt;Node15 -->
<g id="edge73" class="edge"><title>Node46&#45;&gt;Node15</title>
<path fill="none" stroke="midnightblue" d="M1602.26,-175.031C1461.33,-169.944 1084.02,-155.121 770,-132 515.437,-113.257 447.493,-119.746 191.985,-75.9317"/>
<polygon fill="midnightblue" stroke="midnightblue" points="192.484,-72.4662 182.035,-74.2164 191.295,-79.3644 192.484,-72.4662"/>
</g>
<!-- Node46&#45;&gt;Node22 -->
<g id="edge74" class="edge"><title>Node46&#45;&gt;Node22</title>
<path fill="none" stroke="midnightblue" d="M1685.95,-168.42C1722.43,-155.18 1786.03,-125.936 1813,-76 1820.63,-61.8801 1819.47,-43.3932 1816.94,-29.7462"/>
<polygon fill="midnightblue" stroke="midnightblue" points="1820.27,-28.6047 1814.65,-19.6232 1813.44,-30.149 1820.27,-28.6047"/>
</g>
<!-- Node47 -->
<g id="node47" class="node"><title>Node47</title>
<polygon fill="white" stroke="#bfbfbf" points="1878.5,-112.5 1878.5,-131.5 1919.5,-131.5 1919.5,-112.5 1878.5,-112.5"/>
<text text-anchor="middle" x="1899" y="-119.5" font-family="Helvetica,sans-Serif" font-size="10.00">ctime</text>
</g>
<!-- Node46&#45;&gt;Node47 -->
<g id="edge75" class="edge"><title>Node46&#45;&gt;Node47</title>
<path fill="none" stroke="midnightblue" d="M1699.94,-168.462C1741.39,-159.712 1807.29,-145.512 1864,-132 1865.45,-131.655 1866.93,-131.296 1868.43,-130.929"/>
<polygon fill="midnightblue" stroke="midnightblue" points="1869.45,-134.28 1878.3,-128.452 1867.75,-127.49 1869.45,-134.28"/>
</g>
<!-- Node48 -->
<g id="node48" class="node"><title>Node48</title>
<polygon fill="white" stroke="#bfbfbf" points="1938,-112.5 1938,-131.5 1984,-131.5 1984,-112.5 1938,-112.5"/>
<text text-anchor="middle" x="1961" y="-119.5" font-family="Helvetica,sans-Serif" font-size="10.00">chrono</text>
</g>
<!-- Node46&#45;&gt;Node48 -->
<g id="edge76" class="edge"><title>Node46&#45;&gt;Node48</title>
<path fill="none" stroke="midnightblue" d="M1715.71,-169.384C1768.34,-161.903 1849,-149.388 1927.59,-132.124"/>
<polygon fill="midnightblue" stroke="midnightblue" points="1928.66,-135.472 1937.66,-129.883 1927.13,-128.639 1928.66,-135.472"/>
</g>
</g>
</svg>
        <g id="navigator" transform="translate(0 0)" fill="#404254">
                <rect fill="#f2f5e9" fill-opacity="0.5" stroke="#606060" stroke-width=".5" x="0" y="0" width="60" height="60"/>
                <use id="zoomplus" xlink:href="#zoomPlus" x="17" y="9" onmousedown="handleZoom(evt,'in')"/>
                <use id="zoomminus" xlink:href="#zoomMin" x="42" y="9" onmousedown="handleZoom(evt,'out')"/>
                <use id="reset" xlink:href="#resetDef" x="30" y="36" onmousedown="handleReset()"/>
                <g id="arrowUp" xlink:href="#dirArrow" transform="translate(30 24)" onmousedown="handlePan(0,-1)">
                  <use xlink:href="#rim" fill="#404040">
                        <set attributeName="fill" to="#808080" begin="arrowUp.mouseover" end="arrowUp.mouseout"/>
                  </use>
                  <path fill="none" stroke="white" stroke-width="1.5" d="M0,-3.0v7 M-2.5,-0.5L0,-3.0L2.5,-0.5"/>
                </g>
                <g id="arrowRight" xlink:href="#dirArrow" transform="rotate(90) translate(36 -43)" onmousedown="handlePan(1,0)">
                  <use xlink:href="#rim" fill="#404040">
                        <set attributeName="fill" to="#808080" begin="arrowRight.mouseover" end="arrowRight.mouseout"/>
                  </use>
                  <path fill="none" stroke="white" stroke-width="1.5" d="M0,-3.0v7 M-2.5,-0.5L0,-3.0L2.5,-0.5"/>
                </g>
                <g id="arrowDown" xlink:href="#dirArrow" transform="rotate(180) translate(-30 -48)" onmousedown="handlePan(0,1)">
                  <use xlink:href="#rim" fill="#404040">
                        <set attributeName="fill" to="#808080" begin="arrowDown.mouseover" end="arrowDown.mouseout"/>
                  </use>
                  <path fill="none" stroke="white" stroke-width="1.5" d="M0,-3.0v7 M-2.5,-0.5L0,-3.0L2.5,-0.5"/>
                </g>
                <g id="arrowLeft" xlink:href="#dirArrow" transform="rotate(270) translate(-36 17)" onmousedown="handlePan(-1,0)">
                  <use xlink:href="#rim" fill="#404040">
                        <set attributeName="fill" to="#808080" begin="arrowLeft.mouseover" end="arrowLeft.mouseout"/>
                  </use>
                  <path fill="none" stroke="white" stroke-width="1.5" d="M0,-3.0v7 M-2.5,-0.5L0,-3.0L2.5,-0.5"/>
                </g>
        </g>
        <svg viewBox="0 0 15 15" width="100%" height="30px" preserveAspectRatio="xMaxYMin meet">
         <g id="arrow_out" transform="scale(0.3 0.3)">
          <a xlink:href="socketlib_8cpp__incl_org.svg" target="_base">
           <rect id="button" ry="5" rx="5" y="6" x="6" height="38" width="38"
                fill="#f2f5e9" fill-opacity="0.5" stroke="#606060" stroke-width="1.0"/>
           <path id="arrow"
             d="M 11.500037,31.436501 C 11.940474,20.09759 22.043105,11.32322 32.158766,21.979434 L 37.068811,17.246167 C 37.068811,17.246167 37.088388,32 37.088388,32 L 22.160133,31.978069 C 22.160133,31.978069 26.997745,27.140456 26.997745,27.140456 C 18.528582,18.264221 13.291696,25.230495 11.500037,31.436501 z"
             style="fill:#404040;"/>
          </a>
         </g>
        </svg>
</svg>
