<?xml version="1.0" encoding="UTF-8" standalone="no"?>
<!DOCTYPE svg PUBLIC "-//W3C//DTD SVG 1.1//EN"
 "http://www.w3.org/Graphics/SVG/1.1/DTD/svg11.dtd">
<!-- Generated by graphviz version 2.38.0 (20140413.2041)
 -->
<!-- Title: socketlib.h Pages: 1 -->
<!--zoomable 252 -->
<svg id="main" version="1.1" xmlns="http://www.w3.org/2000/svg" xmlns:xlink="http://www.w3.org/1999/xlink" xml:space="preserve" onload="init(evt)">
<style type="text/css"><![CDATA[
.edge:hover path { stroke: red; }
.edge:hover polygon { stroke: red; fill: red; }
]]></style>
<script type="text/javascript"><![CDATA[
var edges = document.getElementsByTagName('g');
if (edges && edges.length) {
  for (var i=0;i<edges.length;i++) {
    if (edges[i].id.substr(0,4)=='edge') {
      edges[i].setAttribute('class','edge');
    }
  }
}
]]></script>
        <defs>
                <circle id="rim" cx="0" cy="0" r="7"/>
                <circle id="rim2" cx="0" cy="0" r="3.5"/>
                <g id="zoomPlus">
                        <use xlink:href="#rim" fill="#404040">
                                <set attributeName="fill" to="#808080" begin="zoomplus.mouseover" end="zoomplus.mouseout"/>
                        </use>
                        <path d="M-4,0h8M0,-4v8" fill="none" stroke="white" stroke-width="1.5" pointer-events="none"/>
                </g>
                <g id="zoomMin">
                        <use xlink:href="#rim" fill="#404040">
                                <set attributeName="fill" to="#808080" begin="zoomminus.mouseover" end="zoomminus.mouseout"/>
                        </use>
                        <path d="M-4,0h8" fill="none" stroke="white" stroke-width="1.5" pointer-events="none"/>
                </g>
                <g id="dirArrow">
                        <path fill="none" stroke="white" stroke-width="1.5" d="M0,-3.0v7 M-2.5,-0.5L0,-3.0L2.5,-0.5"/>
                </g>
               <g id="resetDef">
                       <use xlink:href="#rim2" fill="#404040">
                               <set attributeName="fill" to="#808080" begin="reset.mouseover" end="reset.mouseout"/>
                       </use>
               </g>
        </defs>

<script type="text/javascript">
var viewWidth = 4189;
var viewHeight = 252;
var sectionId = 'dynsection-1';
</script>
<script xlink:href="svgpan.js"/>
<svg id="graph" class="graph">
<g id="viewport">
<title>socketlib.h</title>
<polygon fill="white" stroke="none" points="-4,4 -4,-248 4185.3,-248 4185.3,4 -4,4"/>
<!-- Node1 -->
<g id="node1" class="node"><title>Node1</title>
<polygon fill="#bfbfbf" stroke="black" points="2234.3,-224.5 2234.3,-243.5 2298.3,-243.5 2298.3,-224.5 2234.3,-224.5"/>
<text text-anchor="middle" x="2266.3" y="-231.5" font-family="Helvetica,sans-Serif" font-size="10.00">socketlib.h</text>
</g>
<!-- Node2 -->
<g id="node2" class="node"><title>Node2</title>
<g id="a_node2"><a xlink:href="agentclass_8cpp.html" target="_top" xlink:title="Agent support functions. ">
<polygon fill="white" stroke="black" points="15.8008,-56.5 15.8008,-75.5 98.8008,-75.5 98.8008,-56.5 15.8008,-56.5"/>
<text text-anchor="middle" x="57.3008" y="-63.5" font-family="Helvetica,sans-Serif" font-size="10.00">agentclass.cpp</text>
</a>
</g>
</g>
<!-- Node1&#45;&gt;Node2 -->
<g id="edge1" class="edge"><title>Node1&#45;&gt;Node2</title>
<path fill="none" stroke="midnightblue" d="M2223.77,-233.112C1938.14,-233.587 304.892,-231.902 110.301,-132 85.9487,-119.498 68.7805,-90.3033 61.3781,-75.6758"/>
<polygon fill="midnightblue" stroke="midnightblue" points="2224.12,-236.611 2234.11,-233.093 2224.1,-229.611 2224.12,-236.611"/>
</g>
<!-- Node3 -->
<g id="node3" class="node"><title>Node3</title>
<g id="a_node3"><a xlink:href="agentclass_8h.html" target="_top" xlink:title="Agent Server and Client header file. ">
<polygon fill="white" stroke="red" points="2037.3,-112.5 2037.3,-131.5 2109.3,-131.5 2109.3,-112.5 2037.3,-112.5"/>
<text text-anchor="middle" x="2073.3" y="-119.5" font-family="Helvetica,sans-Serif" font-size="10.00">agentclass.h</text>
</a>
</g>
</g>
<!-- Node1&#45;&gt;Node3 -->
<g id="edge2" class="edge"><title>Node1&#45;&gt;Node3</title>
<path fill="none" stroke="midnightblue" d="M2240.28,-219.695C2223.35,-210.924 2200.87,-199.055 2181.3,-188 2147.01,-168.621 2107.54,-144.359 2087.14,-131.661"/>
<polygon fill="midnightblue" stroke="midnightblue" points="2239.05,-222.999 2249.54,-224.472 2242.26,-216.777 2239.05,-222.999"/>
</g>
<!-- Node43 -->
<g id="node43" class="node"><title>Node43</title>
<g id="a_node43"><a xlink:href="agent__kpc9612p_8cpp.html" target="_top" xlink:title="agent_kpc9612p.cpp">
<polygon fill="white" stroke="black" points="3958.8,-56.5 3958.8,-75.5 4065.8,-75.5 4065.8,-56.5 3958.8,-56.5"/>
<text text-anchor="middle" x="4012.3" y="-63.5" font-family="Helvetica,sans-Serif" font-size="10.00">agent_kpc9612p.cpp</text>
</a>
</g>
</g>
<!-- Node1&#45;&gt;Node43 -->
<g id="edge58" class="edge"><title>Node1&#45;&gt;Node43</title>
<path fill="none" stroke="midnightblue" d="M2277.58,-216.055C2297.23,-188.224 2340.71,-133.751 2393.3,-112 2473.26,-78.9319 3864.08,-83.228 3950.3,-76 3953.01,-75.7728 3955.78,-75.5042 3958.58,-75.2044"/>
<polygon fill="midnightblue" stroke="midnightblue" points="2274.63,-214.164 2271.85,-224.387 2280.4,-218.13 2274.63,-214.164"/>
</g>
<!-- Node44 -->
<g id="node44" class="node"><title>Node44</title>
<g id="a_node44"><a xlink:href="agent__physics_8cpp.html" target="_top" xlink:title="agent_physics.cpp">
<polygon fill="white" stroke="black" points="4083.3,-56.5 4083.3,-75.5 4181.3,-75.5 4181.3,-56.5 4083.3,-56.5"/>
<text text-anchor="middle" x="4132.3" y="-63.5" font-family="Helvetica,sans-Serif" font-size="10.00">agent_physics.cpp</text>
</a>
</g>
</g>
<!-- Node1&#45;&gt;Node44 -->
<g id="edge61" class="edge"><title>Node1&#45;&gt;Node44</title>
<path fill="none" stroke="midnightblue" d="M2291.7,-219.603C2322.56,-204.058 2376.67,-179.14 2426.3,-168 3142.51,-7.23436 3345.41,-153.784 4075.3,-76 4077.89,-75.724 4080.54,-75.4112 4083.22,-75.0719"/>
<polygon fill="midnightblue" stroke="midnightblue" points="2289.84,-216.622 2282.53,-224.291 2293.03,-222.854 2289.84,-216.622"/>
</g>
<!-- Node45 -->
<g id="node45" class="node"><title>Node45</title>
<g id="a_node45"><a xlink:href="gige__lib_8h.html" target="_top" xlink:title="gige_lib.h">
<polygon fill="white" stroke="red" points="119.301,-112.5 119.301,-131.5 177.301,-131.5 177.301,-112.5 119.301,-112.5"/>
<text text-anchor="middle" x="148.301" y="-119.5" font-family="Helvetica,sans-Serif" font-size="10.00">gige_lib.h</text>
</a>
</g>
</g>
<!-- Node1&#45;&gt;Node45 -->
<g id="edge48" class="edge"><title>Node1&#45;&gt;Node45</title>
<path fill="none" stroke="midnightblue" d="M2223.91,-230.799C1947.76,-216.456 408.614,-136.52 177.383,-124.51"/>
<polygon fill="midnightblue" stroke="midnightblue" points="2224.13,-234.315 2234.3,-231.338 2224.49,-227.324 2224.13,-234.315"/>
</g>
<!-- Node46 -->
<g id="node46" class="node"><title>Node46</title>
<g id="a_node46"><a xlink:href="usrp__lib_8h.html" target="_top" xlink:title="usrp_lib.h">
<polygon fill="white" stroke="red" points="2435.8,-168.5 2435.8,-187.5 2494.8,-187.5 2494.8,-168.5 2435.8,-168.5"/>
<text text-anchor="middle" x="2465.3" y="-175.5" font-family="Helvetica,sans-Serif" font-size="10.00">usrp_lib.h</text>
</a>
</g>
</g>
<!-- Node1&#45;&gt;Node46 -->
<g id="edge51" class="edge"><title>Node1&#45;&gt;Node46</title>
<path fill="none" stroke="midnightblue" d="M2307.62,-221.789C2345.79,-211.431 2401.57,-196.293 2435.54,-187.075"/>
<polygon fill="midnightblue" stroke="midnightblue" points="2306.57,-218.447 2297.83,-224.444 2308.4,-225.202 2306.57,-218.447"/>
</g>
<!-- Node47 -->
<g id="node47" class="node"><title>Node47</title>
<g id="a_node47"><a xlink:href="jsondef_8h.html" target="_top" xlink:title="jsondef.h">
<polygon fill="white" stroke="red" points="2207.3,-168.5 2207.3,-187.5 2263.3,-187.5 2263.3,-168.5 2207.3,-168.5"/>
<text text-anchor="middle" x="2235.3" y="-175.5" font-family="Helvetica,sans-Serif" font-size="10.00">jsondef.h</text>
</a>
</g>
</g>
<!-- Node1&#45;&gt;Node47 -->
<g id="edge52" class="edge"><title>Node1&#45;&gt;Node47</title>
<path fill="none" stroke="midnightblue" d="M2256.13,-215.275C2250.83,-206.045 2244.58,-195.17 2240.32,-187.751"/>
<polygon fill="midnightblue" stroke="midnightblue" points="2253.17,-217.153 2261.18,-224.083 2259.24,-213.668 2253.17,-217.153"/>
</g>
<!-- Node48 -->
<g id="node48" class="node"><title>Node48</title>
<g id="a_node48"><a xlink:href="ax25__recv_8cpp.html" target="_top" xlink:title="ax25_recv.cpp">
<polygon fill="white" stroke="black" points="2127.3,-112.5 2127.3,-131.5 2207.3,-131.5 2207.3,-112.5 2127.3,-112.5"/>
<text text-anchor="middle" x="2167.3" y="-119.5" font-family="Helvetica,sans-Serif" font-size="10.00">ax25_recv.cpp</text>
</a>
</g>
</g>
<!-- Node1&#45;&gt;Node48 -->
<g id="edge59" class="edge"><title>Node1&#45;&gt;Node48</title>
<path fill="none" stroke="midnightblue" d="M2239.18,-219.609C2225.57,-211.843 2209.62,-201.021 2198.3,-188 2183.37,-170.827 2174,-145.219 2169.83,-131.849"/>
<polygon fill="midnightblue" stroke="midnightblue" points="2237.69,-222.78 2248.15,-224.486 2241.04,-216.632 2237.69,-222.78"/>
</g>
<!-- Node49 -->
<g id="node49" class="node"><title>Node49</title>
<g id="a_node49"><a xlink:href="kiss__recv_8cpp.html" target="_top" xlink:title="kiss_recv.cpp">
<polygon fill="white" stroke="black" points="2263.8,-112.5 2263.8,-131.5 2340.8,-131.5 2340.8,-112.5 2263.8,-112.5"/>
<text text-anchor="middle" x="2302.3" y="-119.5" font-family="Helvetica,sans-Serif" font-size="10.00">kiss_recv.cpp</text>
</a>
</g>
</g>
<!-- Node1&#45;&gt;Node49 -->
<g id="edge60" class="edge"><title>Node1&#45;&gt;Node49</title>
<path fill="none" stroke="midnightblue" d="M2272.3,-214.674C2280.17,-190.625 2293.66,-149.388 2299.49,-131.591"/>
<polygon fill="midnightblue" stroke="midnightblue" points="2268.91,-213.776 2269.13,-224.368 2275.56,-215.953 2268.91,-213.776"/>
</g>
<!-- Node50 -->
<g id="node50" class="node"><title>Node50</title>
<g id="a_node50"><a xlink:href="socketlib_8cpp.html" target="_top" xlink:title="socketlib.cpp">
<polygon fill="white" stroke="black" points="2513.3,-168.5 2513.3,-187.5 2587.3,-187.5 2587.3,-168.5 2513.3,-168.5"/>
<text text-anchor="middle" x="2550.3" y="-175.5" font-family="Helvetica,sans-Serif" font-size="10.00">socketlib.cpp</text>
</a>
</g>
</g>
<!-- Node1&#45;&gt;Node50 -->
<g id="edge57" class="edge"><title>Node1&#45;&gt;Node50</title>
<path fill="none" stroke="midnightblue" d="M2308.59,-225.087C2356.19,-216.162 2435.82,-201.173 2504.3,-188 2507.18,-187.447 2510.15,-186.871 2513.15,-186.29"/>
<polygon fill="midnightblue" stroke="midnightblue" points="2307.83,-221.669 2298.65,-226.951 2309.12,-228.549 2307.83,-221.669"/>
</g>
<!-- Node3&#45;&gt;Node2 -->
<g id="edge25" class="edge"><title>Node3&#45;&gt;Node2</title>
<path fill="none" stroke="midnightblue" d="M2026.83,-120.894C1767.6,-120.158 497.865,-114.609 108.301,-76 105.259,-75.6985 102.125,-75.3184 98.978,-74.8857"/>
<polygon fill="midnightblue" stroke="midnightblue" points="2027.01,-124.395 2037.02,-120.922 2027.03,-117.395 2027.01,-124.395"/>
</g>
<!-- Node4 -->
<g id="node4" class="node"><title>Node4</title>
<g id="a_node4"><a xlink:href="agent__001_8cpp.html" target="_top" xlink:title="agent_001.cpp">
<polygon fill="white" stroke="black" points="2033.3,-56.5 2033.3,-75.5 2113.3,-75.5 2113.3,-56.5 2033.3,-56.5"/>
<text text-anchor="middle" x="2073.3" y="-63.5" font-family="Helvetica,sans-Serif" font-size="10.00">agent_001.cpp</text>
</a>
</g>
</g>
<!-- Node3&#45;&gt;Node4 -->
<g id="edge3" class="edge"><title>Node3&#45;&gt;Node4</title>
<path fill="none" stroke="midnightblue" d="M2073.3,-101.805C2073.3,-92.9102 2073.3,-82.7798 2073.3,-75.7511"/>
<polygon fill="midnightblue" stroke="midnightblue" points="2069.8,-102.083 2073.3,-112.083 2076.8,-102.083 2069.8,-102.083"/>
</g>
<!-- Node5 -->
<g id="node5" class="node"><title>Node5</title>
<g id="a_node5"><a xlink:href="agent__002_8cpp.html" target="_top" xlink:title="agent_002.cpp">
<polygon fill="white" stroke="black" points="2131.3,-56.5 2131.3,-75.5 2211.3,-75.5 2211.3,-56.5 2131.3,-56.5"/>
<text text-anchor="middle" x="2171.3" y="-63.5" font-family="Helvetica,sans-Serif" font-size="10.00">agent_002.cpp</text>
</a>
</g>
</g>
<!-- Node3&#45;&gt;Node5 -->
<g id="edge4" class="edge"><title>Node3&#45;&gt;Node5</title>
<path fill="none" stroke="midnightblue" d="M2097.89,-107.453C2115.98,-97.4835 2140.04,-84.2279 2155.59,-75.6545"/>
<polygon fill="midnightblue" stroke="midnightblue" points="2096.12,-104.432 2089.05,-112.324 2099.49,-110.563 2096.12,-104.432"/>
</g>
<!-- Node6 -->
<g id="node6" class="node"><title>Node6</title>
<g id="a_node6"><a xlink:href="agent__004_8cpp.html" target="_top" xlink:title="agent_004.cpp">
<polygon fill="white" stroke="black" points="2229.3,-56.5 2229.3,-75.5 2309.3,-75.5 2309.3,-56.5 2229.3,-56.5"/>
<text text-anchor="middle" x="2269.3" y="-63.5" font-family="Helvetica,sans-Serif" font-size="10.00">agent_004.cpp</text>
</a>
</g>
</g>
<!-- Node3&#45;&gt;Node6 -->
<g id="edge5" class="edge"><title>Node3&#45;&gt;Node6</title>
<path fill="none" stroke="midnightblue" d="M2114.32,-109.699C2151.31,-99.507 2204.9,-84.7429 2238.39,-75.5164"/>
<polygon fill="midnightblue" stroke="midnightblue" points="2113.07,-106.413 2104.36,-112.444 2114.93,-113.162 2113.07,-106.413"/>
</g>
<!-- Node7 -->
<g id="node7" class="node"><title>Node7</title>
<g id="a_node7"><a xlink:href="agent__005_8cpp.html" target="_top" xlink:title="agent_005.cpp">
<polygon fill="white" stroke="black" points="2327.3,-56.5 2327.3,-75.5 2407.3,-75.5 2407.3,-56.5 2327.3,-56.5"/>
<text text-anchor="middle" x="2367.3" y="-63.5" font-family="Helvetica,sans-Serif" font-size="10.00">agent_005.cpp</text>
</a>
</g>
</g>
<!-- Node3&#45;&gt;Node7 -->
<g id="edge6" class="edge"><title>Node3&#45;&gt;Node7</title>
<path fill="none" stroke="midnightblue" d="M2119.64,-111.772C2208.69,-94.9167 2232.56,-91.59 2318.3,-76 2321.19,-75.4739 2324.18,-74.9288 2327.19,-74.379"/>
<polygon fill="midnightblue" stroke="midnightblue" points="2118.81,-108.367 2109.64,-113.67 2120.12,-115.244 2118.81,-108.367"/>
</g>
<!-- Node8 -->
<g id="node8" class="node"><title>Node8</title>
<g id="a_node8"><a xlink:href="agent__006_8cpp.html" target="_top" xlink:title="agent_006.cpp">
<polygon fill="white" stroke="black" points="2425.3,-56.5 2425.3,-75.5 2505.3,-75.5 2505.3,-56.5 2425.3,-56.5"/>
<text text-anchor="middle" x="2465.3" y="-63.5" font-family="Helvetica,sans-Serif" font-size="10.00">agent_006.cpp</text>
</a>
</g>
</g>
<!-- Node3&#45;&gt;Node8 -->
<g id="edge7" class="edge"><title>Node3&#45;&gt;Node8</title>
<path fill="none" stroke="midnightblue" d="M2119.7,-111.883C2251.77,-91.1394 2287.63,-95.5698 2416.3,-76 2419.21,-75.5578 2422.21,-75.0743 2425.22,-74.5683"/>
<polygon fill="midnightblue" stroke="midnightblue" points="2118.93,-108.462 2109.61,-113.489 2120.03,-115.375 2118.93,-108.462"/>
</g>
<!-- Node9 -->
<g id="node9" class="node"><title>Node9</title>
<g id="a_node9"><a xlink:href="agent__008_8cpp.html" target="_top" xlink:title="agent_008.cpp">
<polygon fill="white" stroke="black" points="2641.3,-56.5 2641.3,-75.5 2721.3,-75.5 2721.3,-56.5 2641.3,-56.5"/>
<text text-anchor="middle" x="2681.3" y="-63.5" font-family="Helvetica,sans-Serif" font-size="10.00">agent_008.cpp</text>
</a>
</g>
</g>
<!-- Node3&#45;&gt;Node9 -->
<g id="edge8" class="edge"><title>Node3&#45;&gt;Node9</title>
<path fill="none" stroke="midnightblue" d="M2119.83,-111.966C2347.05,-82.1523 2408.43,-104.309 2632.3,-76 2635.22,-75.6311 2638.23,-75.2014 2641.25,-74.7336"/>
<polygon fill="midnightblue" stroke="midnightblue" points="2119.03,-108.541 2109.58,-113.331 2119.96,-115.48 2119.03,-108.541"/>
</g>
<!-- Node10 -->
<g id="node10" class="node"><title>Node10</title>
<g id="a_node10"><a xlink:href="agent__add__soh_8cpp.html" target="_top" xlink:title="agent_add_soh.cpp">
<polygon fill="white" stroke="black" points="2739.8,-56.5 2739.8,-75.5 2840.8,-75.5 2840.8,-56.5 2739.8,-56.5"/>
<text text-anchor="middle" x="2790.3" y="-63.5" font-family="Helvetica,sans-Serif" font-size="10.00">agent_add_soh.cpp</text>
</a>
</g>
</g>
<!-- Node3&#45;&gt;Node10 -->
<g id="edge9" class="edge"><title>Node3&#45;&gt;Node10</title>
<path fill="none" stroke="midnightblue" d="M2119.7,-112.002C2390.3,-77.8504 2462.61,-103.893 2730.3,-76 2733.34,-75.6834 2736.46,-75.3231 2739.6,-74.933"/>
<polygon fill="midnightblue" stroke="midnightblue" points="2119.05,-108.556 2109.58,-113.296 2119.94,-115.499 2119.05,-108.556"/>
</g>
<!-- Node11 -->
<g id="node11" class="node"><title>Node11</title>
<g id="a_node11"><a xlink:href="agent__calc_8cpp.html" target="_top" xlink:title="Demonstration calculator Agent. ">
<polygon fill="white" stroke="black" points="3857.8,-56.5 3857.8,-75.5 3940.8,-75.5 3940.8,-56.5 3857.8,-56.5"/>
<text text-anchor="middle" x="3899.3" y="-63.5" font-family="Helvetica,sans-Serif" font-size="10.00">agent_calc.cpp</text>
</a>
</g>
</g>
<!-- Node3&#45;&gt;Node11 -->
<g id="edge10" class="edge"><title>Node3&#45;&gt;Node11</title>
<path fill="none" stroke="midnightblue" d="M2119.73,-112.068C2885,-29.3055 3086.97,-152.06 3849.3,-76 3852.02,-75.7285 3854.82,-75.3909 3857.63,-75.007"/>
<polygon fill="midnightblue" stroke="midnightblue" points="2119.13,-108.613 2109.56,-113.176 2119.88,-115.572 2119.13,-108.613"/>
</g>
<!-- Node12 -->
<g id="node12" class="node"><title>Node12</title>
<g id="a_node12"><a xlink:href="agent__cpu__device__test_8cpp.html" target="_top" xlink:title="agent_cpu_device_test.cpp">
<polygon fill="white" stroke="black" points="2859.3,-56.5 2859.3,-75.5 2995.3,-75.5 2995.3,-56.5 2859.3,-56.5"/>
<text text-anchor="middle" x="2927.3" y="-63.5" font-family="Helvetica,sans-Serif" font-size="10.00">agent_cpu_device_test.cpp</text>
</a>
</g>
</g>
<!-- Node3&#45;&gt;Node12 -->
<g id="edge11" class="edge"><title>Node3&#45;&gt;Node12</title>
<path fill="none" stroke="midnightblue" d="M2119.71,-112.017C2443.31,-72.579 2529.02,-102.646 2850.3,-76 2853.12,-75.7664 2855.99,-75.5105 2858.89,-75.2377"/>
<polygon fill="midnightblue" stroke="midnightblue" points="2119.07,-108.569 2109.57,-113.265 2119.93,-115.516 2119.07,-108.569"/>
</g>
<!-- Node13 -->
<g id="node13" class="node"><title>Node13</title>
<g id="a_node13"><a xlink:href="agent__scoot_8cpp.html" target="_top" xlink:title="agent_scoot.cpp">
<polygon fill="white" stroke="black" points="3013.8,-56.5 3013.8,-75.5 3102.8,-75.5 3102.8,-56.5 3013.8,-56.5"/>
<text text-anchor="middle" x="3058.3" y="-63.5" font-family="Helvetica,sans-Serif" font-size="10.00">agent_scoot.cpp</text>
</a>
</g>
</g>
<!-- Node3&#45;&gt;Node13 -->
<g id="edge12" class="edge"><title>Node3&#45;&gt;Node13</title>
<path fill="none" stroke="midnightblue" d="M2119.76,-112.029C2511.39,-66.0807 2615.63,-116.128 3004.3,-76 3007.33,-75.6877 3010.44,-75.3128 3013.57,-74.8959"/>
<polygon fill="midnightblue" stroke="midnightblue" points="2119.09,-108.584 2109.57,-113.238 2119.91,-115.535 2119.09,-108.584"/>
</g>
<!-- Node14 -->
<g id="node14" class="node"><title>Node14</title>
<g id="a_node14"><a xlink:href="queen_8cpp.html" target="_top" xlink:title="queen.cpp">
<polygon fill="white" stroke="black" points="3120.3,-56.5 3120.3,-75.5 3182.3,-75.5 3182.3,-56.5 3120.3,-56.5"/>
<text text-anchor="middle" x="3151.3" y="-63.5" font-family="Helvetica,sans-Serif" font-size="10.00">queen.cpp</text>
</a>
</g>
</g>
<!-- Node3&#45;&gt;Node14 -->
<g id="edge13" class="edge"><title>Node3&#45;&gt;Node14</title>
<path fill="none" stroke="midnightblue" d="M2119.68,-112.049C2559.14,-61.5892 2677.37,-133.526 3112.3,-76 3114.78,-75.672 3117.33,-75.2583 3119.89,-74.7894"/>
<polygon fill="midnightblue" stroke="midnightblue" points="2119.1,-108.593 2109.57,-113.224 2119.91,-115.546 2119.1,-108.593"/>
</g>
<!-- Node15 -->
<g id="node15" class="node"><title>Node15</title>
<g id="a_node15"><a xlink:href="worker__01_8cpp.html" target="_top" xlink:title="worker_01.cpp">
<polygon fill="white" stroke="black" points="3200.3,-56.5 3200.3,-75.5 3280.3,-75.5 3280.3,-56.5 3200.3,-56.5"/>
<text text-anchor="middle" x="3240.3" y="-63.5" font-family="Helvetica,sans-Serif" font-size="10.00">worker_01.cpp</text>
</a>
</g>
</g>
<!-- Node3&#45;&gt;Node15 -->
<g id="edge14" class="edge"><title>Node3&#45;&gt;Node15</title>
<path fill="none" stroke="midnightblue" d="M2119.77,-112.041C2594.06,-58.0146 2720.26,-126.877 3191.3,-76 3194.22,-75.6842 3197.24,-75.2935 3200.26,-74.8535"/>
<polygon fill="midnightblue" stroke="midnightblue" points="2119.1,-108.595 2109.57,-113.216 2119.9,-115.549 2119.1,-108.595"/>
</g>
<!-- Node16 -->
<g id="node16" class="node"><title>Node16</title>
<g id="a_node16"><a xlink:href="worker__02_8cpp.html" target="_top" xlink:title="worker_02.cpp">
<polygon fill="white" stroke="black" points="3336.3,-56.5 3336.3,-75.5 3416.3,-75.5 3416.3,-56.5 3336.3,-56.5"/>
<text text-anchor="middle" x="3376.3" y="-63.5" font-family="Helvetica,sans-Serif" font-size="10.00">worker_02.cpp</text>
</a>
</g>
</g>
<!-- Node3&#45;&gt;Node16 -->
<g id="edge15" class="edge"><title>Node3&#45;&gt;Node16</title>
<path fill="none" stroke="midnightblue" d="M2119.81,-112.042C2651.98,-52.262 2792.88,-127.794 3322.3,-76 3326.84,-75.5558 3331.58,-74.9618 3336.28,-74.2897"/>
<polygon fill="midnightblue" stroke="midnightblue" points="2119.11,-108.6 2109.57,-113.204 2119.9,-115.555 2119.11,-108.6"/>
</g>
<!-- Node17 -->
<g id="node17" class="node"><title>Node17</title>
<g id="a_node17"><a xlink:href="worker__03_8cpp.html" target="_top" xlink:title="worker_03.cpp">
<polygon fill="white" stroke="black" points="3434.3,-56.5 3434.3,-75.5 3514.3,-75.5 3514.3,-56.5 3434.3,-56.5"/>
<text text-anchor="middle" x="3474.3" y="-63.5" font-family="Helvetica,sans-Serif" font-size="10.00">worker_03.cpp</text>
</a>
</g>
</g>
<!-- Node3&#45;&gt;Node17 -->
<g id="edge16" class="edge"><title>Node3&#45;&gt;Node17</title>
<path fill="none" stroke="midnightblue" d="M2119.83,-112.046C2697.53,-47.8307 2850.75,-136.314 3425.3,-76 3428.23,-75.693 3431.24,-75.3088 3434.26,-74.8733"/>
<polygon fill="midnightblue" stroke="midnightblue" points="2119.11,-108.604 2109.57,-113.197 2119.89,-115.56 2119.11,-108.604"/>
</g>
<!-- Node18 -->
<g id="node18" class="node"><title>Node18</title>
<g id="a_node18"><a xlink:href="agent__receive_8cpp.html" target="_top" xlink:title="agent_receive.cpp">
<polygon fill="white" stroke="black" points="3532.3,-56.5 3532.3,-75.5 3628.3,-75.5 3628.3,-56.5 3532.3,-56.5"/>
<text text-anchor="middle" x="3580.3" y="-63.5" font-family="Helvetica,sans-Serif" font-size="10.00">agent_receive.cpp</text>
</a>
</g>
</g>
<!-- Node3&#45;&gt;Node18 -->
<g id="edge17" class="edge"><title>Node3&#45;&gt;Node18</title>
<path fill="none" stroke="midnightblue" d="M2119.67,-112.066C2740.83,-43.4581 2904.58,-132.528 3523.3,-76 3526.19,-75.7357 3529.16,-75.4157 3532.15,-75.0562"/>
<polygon fill="midnightblue" stroke="midnightblue" points="2119.12,-108.605 2109.57,-113.191 2119.89,-115.562 2119.12,-108.605"/>
</g>
<!-- Node19 -->
<g id="node19" class="node"><title>Node19</title>
<g id="a_node19"><a xlink:href="agent__send_8cpp.html" target="_top" xlink:title="agent_send.cpp">
<polygon fill="white" stroke="black" points="3646.3,-56.5 3646.3,-75.5 3732.3,-75.5 3732.3,-56.5 3646.3,-56.5"/>
<text text-anchor="middle" x="3689.3" y="-63.5" font-family="Helvetica,sans-Serif" font-size="10.00">agent_send.cpp</text>
</a>
</g>
</g>
<!-- Node3&#45;&gt;Node19 -->
<g id="edge18" class="edge"><title>Node3&#45;&gt;Node19</title>
<path fill="none" stroke="midnightblue" d="M2119.98,-112.035C2791.29,-38.5651 2968.66,-141.425 3637.3,-76 3640.22,-75.7145 3643.22,-75.3597 3646.24,-74.9575"/>
<polygon fill="midnightblue" stroke="midnightblue" points="2119.12,-108.609 2109.57,-113.185 2119.89,-115.567 2119.12,-108.609"/>
</g>
<!-- Node20 -->
<g id="node20" class="node"><title>Node20</title>
<g id="a_node20"><a xlink:href="daughter__01_8cpp.html" target="_top" xlink:title="daughter_01.cpp">
<polygon fill="white" stroke="black" points="3750.8,-56.5 3750.8,-75.5 3839.8,-75.5 3839.8,-56.5 3750.8,-56.5"/>
<text text-anchor="middle" x="3795.3" y="-63.5" font-family="Helvetica,sans-Serif" font-size="10.00">daughter_01.cpp</text>
</a>
</g>
</g>
<!-- Node3&#45;&gt;Node20 -->
<g id="edge19" class="edge"><title>Node3&#45;&gt;Node20</title>
<path fill="none" stroke="midnightblue" d="M2119.63,-112.076C2837.22,-33.9685 3026.28,-143.167 3741.3,-76 3744.33,-75.7156 3747.44,-75.3616 3750.58,-74.9599"/>
<polygon fill="midnightblue" stroke="midnightblue" points="2119.12,-108.611 2109.56,-113.18 2119.89,-115.569 2119.12,-108.611"/>
</g>
<!-- Node21 -->
<g id="node21" class="node"><title>Node21</title>
<g id="a_node21"><a xlink:href="daughter__02_8cpp.html" target="_top" xlink:title="daughter_02.cpp">
<polygon fill="white" stroke="black" points="235.801,-56.5 235.801,-75.5 324.801,-75.5 324.801,-56.5 235.801,-56.5"/>
<text text-anchor="middle" x="280.301" y="-63.5" font-family="Helvetica,sans-Serif" font-size="10.00">daughter_02.cpp</text>
</a>
</g>
</g>
<!-- Node3&#45;&gt;Node21 -->
<g id="edge20" class="edge"><title>Node3&#45;&gt;Node21</title>
<path fill="none" stroke="midnightblue" d="M2026.89,-120.695C1785.95,-118.973 675.779,-109.336 333.301,-76 330.607,-75.7378 327.843,-75.4195 325.06,-75.0612"/>
<polygon fill="midnightblue" stroke="midnightblue" points="2027.03,-124.196 2037.05,-120.766 2027.08,-117.196 2027.03,-124.196"/>
</g>
<!-- Node22 -->
<g id="node22" class="node"><title>Node22</title>
<g id="a_node22"><a xlink:href="daughter__03_8cpp.html" target="_top" xlink:title="daughter_03.cpp">
<polygon fill="white" stroke="black" points="342.801,-56.5 342.801,-75.5 431.801,-75.5 431.801,-56.5 342.801,-56.5"/>
<text text-anchor="middle" x="387.301" y="-63.5" font-family="Helvetica,sans-Serif" font-size="10.00">daughter_03.cpp</text>
</a>
</g>
</g>
<!-- Node3&#45;&gt;Node22 -->
<g id="edge21" class="edge"><title>Node3&#45;&gt;Node22</title>
<path fill="none" stroke="midnightblue" d="M2027.17,-120.606C1795.84,-118.498 760.504,-107.441 440.301,-76 437.607,-75.7355 434.844,-75.4154 432.061,-75.0558"/>
<polygon fill="midnightblue" stroke="midnightblue" points="2027.23,-124.107 2037.26,-120.697 2027.3,-117.107 2027.23,-124.107"/>
</g>
<!-- Node23 -->
<g id="node23" class="node"><title>Node23</title>
<g id="a_node23"><a xlink:href="daughter__04_8cpp.html" target="_top" xlink:title="daughter_04.cpp">
<polygon fill="white" stroke="black" points="449.801,-56.5 449.801,-75.5 538.801,-75.5 538.801,-56.5 449.801,-56.5"/>
<text text-anchor="middle" x="494.301" y="-63.5" font-family="Helvetica,sans-Serif" font-size="10.00">daughter_04.cpp</text>
</a>
</g>
</g>
<!-- Node3&#45;&gt;Node23 -->
<g id="edge22" class="edge"><title>Node3&#45;&gt;Node23</title>
<path fill="none" stroke="midnightblue" d="M2027.01,-120.502C1804.68,-117.975 845.065,-105.528 547.301,-76 544.607,-75.7329 541.844,-75.4108 539.061,-75.0497"/>
<polygon fill="midnightblue" stroke="midnightblue" points="2026.99,-124.002 2037.03,-120.614 2027.07,-117.002 2026.99,-124.002"/>
</g>
<!-- Node24 -->
<g id="node24" class="node"><title>Node24</title>
<g id="a_node24"><a xlink:href="mothership_8cpp.html" target="_top" xlink:title="mothership.cpp">
<polygon fill="white" stroke="black" points="556.801,-56.5 556.801,-75.5 639.801,-75.5 639.801,-56.5 556.801,-56.5"/>
<text text-anchor="middle" x="598.301" y="-63.5" font-family="Helvetica,sans-Serif" font-size="10.00">mothership.cpp</text>
</a>
</g>
</g>
<!-- Node3&#45;&gt;Node24 -->
<g id="edge23" class="edge"><title>Node3&#45;&gt;Node24</title>
<path fill="none" stroke="midnightblue" d="M2027.02,-120.452C1813.83,-117.785 924.87,-105.1 648.301,-76 645.582,-75.7139 642.788,-75.3651 639.977,-74.973"/>
<polygon fill="midnightblue" stroke="midnightblue" points="2027.2,-123.954 2037.24,-120.578 2027.28,-116.954 2027.2,-123.954"/>
</g>
<!-- Node25 -->
<g id="node25" class="node"><title>Node25</title>
<g id="a_node25"><a xlink:href="propagator__simple_8cpp.html" target="_top" xlink:title="propagator_simple.cpp">
<polygon fill="white" stroke="black" points="657.801,-56.5 657.801,-75.5 772.801,-75.5 772.801,-56.5 657.801,-56.5"/>
<text text-anchor="middle" x="715.301" y="-63.5" font-family="Helvetica,sans-Serif" font-size="10.00">propagator_simple.cpp</text>
</a>
</g>
</g>
<!-- Node3&#45;&gt;Node25 -->
<g id="edge24" class="edge"><title>Node3&#45;&gt;Node25</title>
<path fill="none" stroke="midnightblue" d="M2027,-120.874C1859.73,-120.099 1271.02,-114.618 787.301,-76 782.655,-75.6291 777.847,-75.1774 773.023,-74.676"/>
<polygon fill="midnightblue" stroke="midnightblue" points="2027.16,-124.374 2037.18,-120.917 2027.19,-117.374 2027.16,-124.374"/>
</g>
<!-- Node26 -->
<g id="node26" class="node"><title>Node26</title>
<g id="a_node26"><a xlink:href="command__queue_8h.html" target="_top" xlink:title="Command Queue Class. ">
<polygon fill="white" stroke="red" points="2523.8,-56.5 2523.8,-75.5 2622.8,-75.5 2622.8,-56.5 2523.8,-56.5"/>
<text text-anchor="middle" x="2573.3" y="-63.5" font-family="Helvetica,sans-Serif" font-size="10.00">command_queue.h</text>
</a>
</g>
</g>
<!-- Node3&#45;&gt;Node26 -->
<g id="edge26" class="edge"><title>Node3&#45;&gt;Node26</title>
<path fill="none" stroke="midnightblue" d="M2119.67,-111.945C2294.94,-87.0206 2342.12,-96.9389 2514.3,-76 2517.39,-75.6247 2520.56,-75.2138 2523.76,-74.7808"/>
<polygon fill="midnightblue" stroke="midnightblue" points="2118.99,-108.506 2109.59,-113.396 2119.99,-115.435 2118.99,-108.506"/>
</g>
<!-- Node27 -->
<g id="node27" class="node"><title>Node27</title>
<g id="a_node27"><a xlink:href="agent__exec-2-0_8cpp.html" target="_top" xlink:title="agent_exec&#45;2&#45;0.cpp">
<polygon fill="white" stroke="black" points="1636.3,-0.5 1636.3,-19.5 1738.3,-19.5 1738.3,-0.5 1636.3,-0.5"/>
<text text-anchor="middle" x="1687.3" y="-7.5" font-family="Helvetica,sans-Serif" font-size="10.00">agent_exec&#45;2&#45;0.cpp</text>
</a>
</g>
</g>
<!-- Node3&#45;&gt;Node27 -->
<g id="edge39" class="edge"><title>Node3&#45;&gt;Node27</title>
<path fill="none" stroke="midnightblue" d="M2026.89,-121.115C1805.19,-121.441 862.958,-120.217 820.301,-76 814.129,-69.6028 814.18,-62.4462 820.301,-56 848.516,-26.2828 1454.62,-14.579 1636.29,-11.7308"/>
<polygon fill="midnightblue" stroke="midnightblue" points="2027.2,-124.615 2037.19,-121.098 2027.19,-117.615 2027.2,-124.615"/>
</g>
<!-- Node28 -->
<g id="node28" class="node"><title>Node28</title>
<g id="a_node28"><a xlink:href="agent__exec_8cpp.html" target="_top" xlink:title="Executive Agent source file. ">
<polygon fill="white" stroke="black" points="2897.3,-0.5 2897.3,-19.5 2983.3,-19.5 2983.3,-0.5 2897.3,-0.5"/>
<text text-anchor="middle" x="2940.3" y="-7.5" font-family="Helvetica,sans-Serif" font-size="10.00">agent_exec.cpp</text>
</a>
</g>
</g>
<!-- Node3&#45;&gt;Node28 -->
<g id="edge40" class="edge"><title>Node3&#45;&gt;Node28</title>
<path fill="none" stroke="midnightblue" d="M2119.67,-112.455C2250.3,-105.693 3245.45,-121.219 3289.3,-76 3295.49,-69.6188 3295.17,-62.6752 3289.3,-56 3269.38,-33.348 3072.48,-18.8638 2983.52,-13.427"/>
<polygon fill="midnightblue" stroke="midnightblue" points="2119.28,-108.974 2109.57,-113.207 2119.8,-115.955 2119.28,-108.974"/>
</g>
<!-- Node29 -->
<g id="node29" class="node"><title>Node29</title>
<g id="a_node29"><a xlink:href="scheduler_8h.html" target="_top" xlink:title="Scheduler Class. ">
<polygon fill="white" stroke="red" points="829.801,-56.5 829.801,-75.5 896.801,-75.5 896.801,-56.5 829.801,-56.5"/>
<text text-anchor="middle" x="863.301" y="-63.5" font-family="Helvetica,sans-Serif" font-size="10.00">scheduler.h</text>
</a>
</g>
</g>
<!-- Node3&#45;&gt;Node29 -->
<g id="edge29" class="edge"><title>Node3&#45;&gt;Node29</title>
<path fill="none" stroke="midnightblue" d="M2027.1,-120.255C1838.84,-117.057 1128.99,-103.401 906.301,-76 903.273,-75.6274 900.141,-75.1515 897.012,-74.6137"/>
<polygon fill="midnightblue" stroke="midnightblue" points="2027.16,-123.756 2037.21,-120.425 2027.28,-116.757 2027.16,-123.756"/>
</g>
<!-- Node30 -->
<g id="node30" class="node"><title>Node30</title>
<g id="a_node30"><a xlink:href="acq__a35_8cpp.html" target="_top" xlink:title="acq_a35.cpp">
<polygon fill="white" stroke="black" points="112.301,-0.5 112.301,-19.5 184.301,-19.5 184.301,-0.5 112.301,-0.5"/>
<text text-anchor="middle" x="148.301" y="-7.5" font-family="Helvetica,sans-Serif" font-size="10.00">acq_a35.cpp</text>
</a>
</g>
</g>
<!-- Node3&#45;&gt;Node30 -->
<g id="edge30" class="edge"><title>Node3&#45;&gt;Node30</title>
<path fill="none" stroke="midnightblue" d="M2026.93,-120.732C1749,-119.019 313.054,-108.609 226.301,-76 195.281,-64.3399 167.755,-34.7506 155.321,-19.854"/>
<polygon fill="midnightblue" stroke="midnightblue" points="2027.05,-124.233 2037.07,-120.794 2027.09,-117.233 2027.05,-124.233"/>
</g>
<!-- Node31 -->
<g id="node31" class="node"><title>Node31</title>
<g id="a_node31"><a xlink:href="acq__a35_8h.html" target="_top" xlink:title="acq_a35.h">
<polygon fill="white" stroke="black" points="117.301,-56.5 117.301,-75.5 179.301,-75.5 179.301,-56.5 117.301,-56.5"/>
<text text-anchor="middle" x="148.301" y="-63.5" font-family="Helvetica,sans-Serif" font-size="10.00">acq_a35.h</text>
</a>
</g>
</g>
<!-- Node3&#45;&gt;Node31 -->
<g id="edge31" class="edge"><title>Node3&#45;&gt;Node31</title>
<path fill="none" stroke="midnightblue" d="M2026.84,-120.981C1774.31,-120.712 564.574,-117.255 193.301,-76 188.866,-75.5073 184.219,-74.7994 179.663,-73.9942"/>
<polygon fill="midnightblue" stroke="midnightblue" points="2027.12,-124.481 2037.12,-120.991 2027.13,-117.481 2027.12,-124.481"/>
</g>
<!-- Node32 -->
<g id="node32" class="node"><title>Node32</title>
<g id="a_node32"><a xlink:href="agent-2-0_8cpp.html" target="_top" xlink:title="agent&#45;2&#45;0.cpp">
<polygon fill="white" stroke="black" points="915.301,-56.5 915.301,-75.5 991.301,-75.5 991.301,-56.5 915.301,-56.5"/>
<text text-anchor="middle" x="953.301" y="-63.5" font-family="Helvetica,sans-Serif" font-size="10.00">agent&#45;2&#45;0.cpp</text>
</a>
</g>
</g>
<!-- Node3&#45;&gt;Node32 -->
<g id="edge33" class="edge"><title>Node3&#45;&gt;Node32</title>
<path fill="none" stroke="midnightblue" d="M2026.84,-121.488C1877.35,-122.537 1395.49,-121.871 1000.3,-76 997.412,-75.6647 994.435,-75.2529 991.448,-74.7917"/>
<polygon fill="midnightblue" stroke="midnightblue" points="2027.05,-124.986 2037.02,-121.41 2027,-117.987 2027.05,-124.986"/>
</g>
<!-- Node33 -->
<g id="node33" class="node"><title>Node33</title>
<g id="a_node33"><a xlink:href="agent_8cpp.html" target="_top" xlink:title="Agent control program source. ">
<polygon fill="white" stroke="black" points="1009.8,-56.5 1009.8,-75.5 1068.8,-75.5 1068.8,-56.5 1009.8,-56.5"/>
<text text-anchor="middle" x="1039.3" y="-63.5" font-family="Helvetica,sans-Serif" font-size="10.00">agent.cpp</text>
</a>
</g>
</g>
<!-- Node3&#45;&gt;Node33 -->
<g id="edge34" class="edge"><title>Node3&#45;&gt;Node33</title>
<path fill="none" stroke="midnightblue" d="M2027.05,-120.061C1856.68,-116.424 1264.42,-102.15 1077.3,-76 1074.62,-75.6247 1071.84,-75.1469 1069.07,-74.6078"/>
<polygon fill="midnightblue" stroke="midnightblue" points="2027.11,-123.563 2037.18,-120.276 2027.26,-116.565 2027.11,-123.563"/>
</g>
<!-- Node34 -->
<g id="node34" class="node"><title>Node34</title>
<g id="a_node34"><a xlink:href="agent__cpu-2-0_8cpp.html" target="_top" xlink:title="agent_cpu&#45;2&#45;0.cpp">
<polygon fill="white" stroke="black" points="1086.8,-56.5 1086.8,-75.5 1183.8,-75.5 1183.8,-56.5 1086.8,-56.5"/>
<text text-anchor="middle" x="1135.3" y="-63.5" font-family="Helvetica,sans-Serif" font-size="10.00">agent_cpu&#45;2&#45;0.cpp</text>
</a>
</g>
</g>
<!-- Node3&#45;&gt;Node34 -->
<g id="edge35" class="edge"><title>Node3&#45;&gt;Node34</title>
<path fill="none" stroke="midnightblue" d="M2027.07,-120.31C1896.05,-117.994 1511.11,-108.696 1193.3,-76 1190.26,-75.6872 1187.14,-75.324 1183.99,-74.9267"/>
<polygon fill="midnightblue" stroke="midnightblue" points="2027.1,-123.811 2037.15,-120.483 2027.22,-116.812 2027.1,-123.811"/>
</g>
<!-- Node35 -->
<g id="node35" class="node"><title>Node35</title>
<g id="a_node35"><a xlink:href="agent__cpu_8cpp.html" target="_top" xlink:title="agent_cpu.cpp">
<polygon fill="white" stroke="black" points="1202.3,-56.5 1202.3,-75.5 1282.3,-75.5 1282.3,-56.5 1202.3,-56.5"/>
<text text-anchor="middle" x="1242.3" y="-63.5" font-family="Helvetica,sans-Serif" font-size="10.00">agent_cpu.cpp</text>
</a>
</g>
</g>
<!-- Node3&#45;&gt;Node35 -->
<g id="edge36" class="edge"><title>Node3&#45;&gt;Node35</title>
<path fill="none" stroke="midnightblue" d="M2026.86,-120.337C1905.5,-118.17 1569.1,-109.375 1291.3,-76 1288.38,-75.6492 1285.37,-75.2329 1282.35,-74.7746"/>
<polygon fill="midnightblue" stroke="midnightblue" points="2026.85,-123.837 2036.91,-120.51 2026.97,-116.838 2026.85,-123.837"/>
</g>
<!-- Node36 -->
<g id="node36" class="node"><title>Node36</title>
<g id="a_node36"><a xlink:href="agent__data-2-0_8cpp.html" target="_top" xlink:title="agent_data&#45;2&#45;0.cpp">
<polygon fill="white" stroke="black" points="1300.3,-56.5 1300.3,-75.5 1400.3,-75.5 1400.3,-56.5 1300.3,-56.5"/>
<text text-anchor="middle" x="1350.3" y="-63.5" font-family="Helvetica,sans-Serif" font-size="10.00">agent_data&#45;2&#45;0.cpp</text>
</a>
</g>
</g>
<!-- Node3&#45;&gt;Node36 -->
<g id="edge37" class="edge"><title>Node3&#45;&gt;Node36</title>
<path fill="none" stroke="midnightblue" d="M2026.97,-119.196C1918.65,-114.688 1640.49,-101.422 1409.3,-76 1406.42,-75.6829 1403.46,-75.3275 1400.48,-74.9459"/>
<polygon fill="midnightblue" stroke="midnightblue" points="2027.08,-122.704 2037.22,-119.618 2027.37,-115.71 2027.08,-122.704"/>
</g>
<!-- Node37 -->
<g id="node37" class="node"><title>Node37</title>
<g id="a_node37"><a xlink:href="agent__data_8cpp.html" target="_top" xlink:title="agent_data.cpp">
<polygon fill="white" stroke="black" points="1418.8,-56.5 1418.8,-75.5 1501.8,-75.5 1501.8,-56.5 1418.8,-56.5"/>
<text text-anchor="middle" x="1460.3" y="-63.5" font-family="Helvetica,sans-Serif" font-size="10.00">agent_data.cpp</text>
</a>
</g>
</g>
<!-- Node3&#45;&gt;Node37 -->
<g id="edge38" class="edge"><title>Node3&#45;&gt;Node37</title>
<path fill="none" stroke="midnightblue" d="M2027,-118.844C1930.57,-114.013 1701.27,-100.758 1510.3,-76 1507.59,-75.6485 1504.8,-75.2501 1502,-74.8214"/>
<polygon fill="midnightblue" stroke="midnightblue" points="2027.11,-122.354 2037.28,-119.352 2027.46,-115.362 2027.11,-122.354"/>
</g>
<!-- Node38 -->
<g id="node38" class="node"><title>Node38</title>
<g id="a_node38"><a xlink:href="agent__file_8cpp.html" target="_top" xlink:title="File Transfer Agent source file. ">
<polygon fill="white" stroke="black" points="1519.8,-56.5 1519.8,-75.5 1596.8,-75.5 1596.8,-56.5 1519.8,-56.5"/>
<text text-anchor="middle" x="1558.3" y="-63.5" font-family="Helvetica,sans-Serif" font-size="10.00">agent_file.cpp</text>
</a>
</g>
</g>
<!-- Node3&#45;&gt;Node38 -->
<g id="edge41" class="edge"><title>Node3&#45;&gt;Node38</title>
<path fill="none" stroke="midnightblue" d="M2027.05,-117.991C1942.85,-112.193 1759.07,-98.0658 1605.3,-76 1602.59,-75.6106 1599.79,-75.172 1596.98,-74.7034"/>
<polygon fill="midnightblue" stroke="midnightblue" points="2026.84,-121.484 2037.05,-118.672 2027.31,-114.5 2026.84,-121.484"/>
</g>
<!-- Node39 -->
<g id="node39" class="node"><title>Node39</title>
<g id="a_node39"><a xlink:href="agent__file2_8cpp.html" target="_top" xlink:title="agent_file2.cpp">
<polygon fill="white" stroke="black" points="1614.8,-56.5 1614.8,-75.5 1697.8,-75.5 1697.8,-56.5 1614.8,-56.5"/>
<text text-anchor="middle" x="1656.3" y="-63.5" font-family="Helvetica,sans-Serif" font-size="10.00">agent_file2.cpp</text>
</a>
</g>
</g>
<!-- Node3&#45;&gt;Node39 -->
<g id="edge42" class="edge"><title>Node3&#45;&gt;Node39</title>
<path fill="none" stroke="midnightblue" d="M2027.07,-116.173C1957.37,-108.706 1821.31,-93.3877 1706.3,-76 1703.6,-75.5913 1700.82,-75.1496 1698.01,-74.6888"/>
<polygon fill="midnightblue" stroke="midnightblue" points="2026.95,-119.68 2037.27,-117.26 2027.69,-112.719 2026.95,-119.68"/>
</g>
<!-- Node40 -->
<g id="node40" class="node"><title>Node40</title>
<g id="a_node40"><a xlink:href="agent__file3_8cpp.html" target="_top" xlink:title="agent_file3.cpp">
<polygon fill="white" stroke="black" points="1715.8,-56.5 1715.8,-75.5 1798.8,-75.5 1798.8,-56.5 1715.8,-56.5"/>
<text text-anchor="middle" x="1757.3" y="-63.5" font-family="Helvetica,sans-Serif" font-size="10.00">agent_file3.cpp</text>
</a>
</g>
</g>
<!-- Node3&#45;&gt;Node40 -->
<g id="edge43" class="edge"><title>Node3&#45;&gt;Node40</title>
<path fill="none" stroke="midnightblue" d="M2027.02,-113.323C1973.94,-104.481 1884.3,-89.4418 1807.3,-76 1804.61,-75.5298 1801.83,-75.0414 1799.04,-74.5463"/>
<polygon fill="midnightblue" stroke="midnightblue" points="2026.7,-116.817 2037.14,-115.006 2027.85,-109.912 2026.7,-116.817"/>
</g>
<!-- Node41 -->
<g id="node41" class="node"><title>Node41</title>
<g id="a_node41"><a xlink:href="agent__file4_8cpp.html" target="_top" xlink:title="agent_file4.cpp">
<polygon fill="white" stroke="black" points="1816.8,-56.5 1816.8,-75.5 1899.8,-75.5 1899.8,-56.5 1816.8,-56.5"/>
<text text-anchor="middle" x="1858.3" y="-63.5" font-family="Helvetica,sans-Serif" font-size="10.00">agent_file4.cpp</text>
</a>
</g>
</g>
<!-- Node3&#45;&gt;Node41 -->
<g id="edge44" class="edge"><title>Node3&#45;&gt;Node41</title>
<path fill="none" stroke="midnightblue" d="M2029.34,-109.959C1988.73,-99.7598 1929.26,-84.8217 1892.21,-75.5164"/>
<polygon fill="midnightblue" stroke="midnightblue" points="2028.68,-113.402 2039.23,-112.444 2030.39,-106.613 2028.68,-113.402"/>
</g>
<!-- Node42 -->
<g id="node42" class="node"><title>Node42</title>
<g id="a_node42"><a xlink:href="agent__forward_8cpp.html" target="_top" xlink:title="agent_forward.cpp">
<polygon fill="white" stroke="black" points="1917.8,-56.5 1917.8,-75.5 2014.8,-75.5 2014.8,-56.5 1917.8,-56.5"/>
<text text-anchor="middle" x="1966.3" y="-63.5" font-family="Helvetica,sans-Serif" font-size="10.00">agent_forward.cpp</text>
</a>
</g>
</g>
<!-- Node3&#45;&gt;Node42 -->
<g id="edge45" class="edge"><title>Node3&#45;&gt;Node42</title>
<path fill="none" stroke="midnightblue" d="M2047,-107.726C2027.19,-97.7271 2000.59,-84.3065 1983.45,-75.6545"/>
<polygon fill="midnightblue" stroke="midnightblue" points="2045.6,-110.943 2056.11,-112.324 2048.76,-104.694 2045.6,-110.943"/>
</g>
<!-- Node3&#45;&gt;Node43 -->
<g id="edge46" class="edge"><title>Node3&#45;&gt;Node43</title>
<path fill="none" stroke="midnightblue" d="M2119.72,-112.07C2929.65,-24.7786 3142.02,-142.348 3950.3,-76 3953.01,-75.7775 3955.78,-75.5127 3958.58,-75.2159"/>
<polygon fill="midnightblue" stroke="midnightblue" points="2119.13,-108.614 2109.56,-113.172 2119.88,-115.573 2119.13,-108.614"/>
</g>
<!-- Node3&#45;&gt;Node44 -->
<g id="edge47" class="edge"><title>Node3&#45;&gt;Node44</title>
<path fill="none" stroke="midnightblue" d="M2119.77,-112.067C2984.94,-19.3632 3212.09,-151.722 4075.3,-76 4077.9,-75.7724 4080.55,-75.4982 4083.23,-75.1891"/>
<polygon fill="midnightblue" stroke="midnightblue" points="2119.13,-108.616 2109.56,-113.168 2119.88,-115.576 2119.13,-108.616"/>
</g>
<!-- Node26&#45;&gt;Node27 -->
<g id="edge27" class="edge"><title>Node26&#45;&gt;Node27</title>
<path fill="none" stroke="midnightblue" d="M2513.58,-56.0419C2213.91,-25.5666 1867.43,-15.1012 1738.73,-12.0648"/>
<polygon fill="midnightblue" stroke="midnightblue" points="2513.47,-59.5487 2523.77,-57.0881 2514.18,-52.5853 2513.47,-59.5487"/>
</g>
<!-- Node26&#45;&gt;Node28 -->
<g id="edge28" class="edge"><title>Node26&#45;&gt;Node28</title>
<path fill="none" stroke="midnightblue" d="M2632.94,-55.9131C2733.86,-40.8653 2839.53,-25.5379 2897.19,-17.212"/>
<polygon fill="midnightblue" stroke="midnightblue" points="2632.25,-52.4773 2622.87,-57.4152 2633.28,-59.4006 2632.25,-52.4773"/>
</g>
<!-- Node31&#45;&gt;Node30 -->
<g id="edge32" class="edge"><title>Node31&#45;&gt;Node30</title>
<path fill="none" stroke="midnightblue" d="M148.301,-45.8045C148.301,-36.9102 148.301,-26.7798 148.301,-19.7511"/>
<polygon fill="midnightblue" stroke="midnightblue" points="144.801,-46.083 148.301,-56.083 151.801,-46.083 144.801,-46.083"/>
</g>
<!-- Node45&#45;&gt;Node30 -->
<g id="edge49" class="edge"><title>Node45&#45;&gt;Node30</title>
<path fill="none" stroke="midnightblue" d="M108.858,-120.485C75.5267,-117.699 29.5972,-107.821 6.3008,-76 -22.8486,-36.1845 61.2202,-20.1286 112.258,-14.1731"/>
<polygon fill="midnightblue" stroke="midnightblue" points="108.986,-124.001 119.193,-121.159 109.442,-117.016 108.986,-124.001"/>
</g>
<!-- Node45&#45;&gt;Node31 -->
<g id="edge50" class="edge"><title>Node45&#45;&gt;Node31</title>
<path fill="none" stroke="midnightblue" d="M148.301,-101.805C148.301,-92.9102 148.301,-82.7798 148.301,-75.7511"/>
<polygon fill="midnightblue" stroke="midnightblue" points="144.801,-102.083 148.301,-112.083 151.801,-102.083 144.801,-102.083"/>
</g>
<!-- Node47&#45;&gt;Node3 -->
<g id="edge54" class="edge"><title>Node47&#45;&gt;Node3</title>
<path fill="none" stroke="midnightblue" d="M2199.82,-165.172C2169.31,-155.004 2126.06,-140.585 2098.85,-131.516"/>
<polygon fill="midnightblue" stroke="midnightblue" points="2199.04,-168.602 2209.63,-168.444 2201.25,-161.961 2199.04,-168.602"/>
</g>
<!-- Node47&#45;&gt;Node11 -->
<g id="edge53" class="edge"><title>Node47&#45;&gt;Node11</title>
<path fill="none" stroke="midnightblue" d="M2235.22,-157.778C2236.29,-142.722 2240.48,-122.608 2254.3,-112 2324.62,-58.0439 3761.11,-84.8777 3849.3,-76 3852.02,-75.7261 3854.82,-75.3866 3857.63,-75.0014"/>
<polygon fill="midnightblue" stroke="midnightblue" points="2231.71,-157.959 2234.89,-168.064 2238.71,-158.179 2231.71,-157.959"/>
</g>
<!-- Node47&#45;&gt;Node48 -->
<g id="edge55" class="edge"><title>Node47&#45;&gt;Node48</title>
<path fill="none" stroke="midnightblue" d="M2216.54,-162.101C2204.3,-152.382 2188.74,-140.027 2178.42,-131.834"/>
<polygon fill="midnightblue" stroke="midnightblue" points="2214.37,-164.846 2224.38,-168.324 2218.72,-159.364 2214.37,-164.846"/>
</g>
<!-- Node47&#45;&gt;Node49 -->
<g id="edge56" class="edge"><title>Node47&#45;&gt;Node49</title>
<path fill="none" stroke="midnightblue" d="M2254.14,-161.82C2266.14,-152.145 2281.27,-139.948 2291.34,-131.834"/>
<polygon fill="midnightblue" stroke="midnightblue" points="2251.66,-159.324 2246.07,-168.324 2256.05,-164.774 2251.66,-159.324"/>
</g>
</g>
</svg>
        <g id="navigator" transform="translate(0 0)" fill="#404254">
                <rect fill="#f2f5e9" fill-opacity="0.5" stroke="#606060" stroke-width=".5" x="0" y="0" width="60" height="60"/>
                <use id="zoomplus" xlink:href="#zoomPlus" x="17" y="9" onmousedown="handleZoom(evt,'in')"/>
                <use id="zoomminus" xlink:href="#zoomMin" x="42" y="9" onmousedown="handleZoom(evt,'out')"/>
                <use id="reset" xlink:href="#resetDef" x="30" y="36" onmousedown="handleReset()"/>
                <g id="arrowUp" xlink:href="#dirArrow" transform="translate(30 24)" onmousedown="handlePan(0,-1)">
                  <use xlink:href="#rim" fill="#404040">
                        <set attributeName="fill" to="#808080" begin="arrowUp.mouseover" end="arrowUp.mouseout"/>
                  </use>
                  <path fill="none" stroke="white" stroke-width="1.5" d="M0,-3.0v7 M-2.5,-0.5L0,-3.0L2.5,-0.5"/>
                </g>
                <g id="arrowRight" xlink:href="#dirArrow" transform="rotate(90) translate(36 -43)" onmousedown="handlePan(1,0)">
                  <use xlink:href="#rim" fill="#404040">
                        <set attributeName="fill" to="#808080" begin="arrowRight.mouseover" end="arrowRight.mouseout"/>
                  </use>
                  <path fill="none" stroke="white" stroke-width="1.5" d="M0,-3.0v7 M-2.5,-0.5L0,-3.0L2.5,-0.5"/>
                </g>
                <g id="arrowDown" xlink:href="#dirArrow" transform="rotate(180) translate(-30 -48)" onmousedown="handlePan(0,1)">
                  <use xlink:href="#rim" fill="#404040">
                        <set attributeName="fill" to="#808080" begin="arrowDown.mouseover" end="arrowDown.mouseout"/>
                  </use>
                  <path fill="none" stroke="white" stroke-width="1.5" d="M0,-3.0v7 M-2.5,-0.5L0,-3.0L2.5,-0.5"/>
                </g>
                <g id="arrowLeft" xlink:href="#dirArrow" transform="rotate(270) translate(-36 17)" onmousedown="handlePan(-1,0)">
                  <use xlink:href="#rim" fill="#404040">
                        <set attributeName="fill" to="#808080" begin="arrowLeft.mouseover" end="arrowLeft.mouseout"/>
                  </use>
                  <path fill="none" stroke="white" stroke-width="1.5" d="M0,-3.0v7 M-2.5,-0.5L0,-3.0L2.5,-0.5"/>
                </g>
        </g>
        <svg viewBox="0 0 15 15" width="100%" height="30px" preserveAspectRatio="xMaxYMin meet">
         <g id="arrow_out" transform="scale(0.3 0.3)">
          <a xlink:href="socketlib_8h__dep__incl_org.svg" target="_base">
           <rect id="button" ry="5" rx="5" y="6" x="6" height="38" width="38"
                fill="#f2f5e9" fill-opacity="0.5" stroke="#606060" stroke-width="1.0"/>
           <path id="arrow"
             d="M 11.500037,31.436501 C 11.940474,20.09759 22.043105,11.32322 32.158766,21.979434 L 37.068811,17.246167 C 37.068811,17.246167 37.088388,32 37.088388,32 L 22.160133,31.978069 C 22.160133,31.978069 26.997745,27.140456 26.997745,27.140456 C 18.528582,18.264221 13.291696,25.230495 11.500037,31.436501 z"
             style="fill:#404040;"/>
          </a>
         </g>
        </svg>
</svg>
