<?xml version="1.0" encoding="UTF-8" standalone="no"?>
<!DOCTYPE svg PUBLIC "-//W3C//DTD SVG 1.1//EN"
 "http://www.w3.org/Graphics/SVG/1.1/DTD/svg11.dtd">
<!-- Generated by graphviz version 2.38.0 (20140413.2041)
 -->
<!-- Title: stringlib.h Pages: 1 -->
<!--zoomable 420 -->
<svg id="main" version="1.1" xmlns="http://www.w3.org/2000/svg" xmlns:xlink="http://www.w3.org/1999/xlink" xml:space="preserve" onload="init(evt)">
<style type="text/css"><![CDATA[
.edge:hover path { stroke: red; }
.edge:hover polygon { stroke: red; fill: red; }
]]></style>
<script type="text/javascript"><![CDATA[
var edges = document.getElementsByTagName('g');
if (edges && edges.length) {
  for (var i=0;i<edges.length;i++) {
    if (edges[i].id.substr(0,4)=='edge') {
      edges[i].setAttribute('class','edge');
    }
  }
}
]]></script>
        <defs>
                <circle id="rim" cx="0" cy="0" r="7"/>
                <circle id="rim2" cx="0" cy="0" r="3.5"/>
                <g id="zoomPlus">
                        <use xlink:href="#rim" fill="#404040">
                                <set attributeName="fill" to="#808080" begin="zoomplus.mouseover" end="zoomplus.mouseout"/>
                        </use>
                        <path d="M-4,0h8M0,-4v8" fill="none" stroke="white" stroke-width="1.5" pointer-events="none"/>
                </g>
                <g id="zoomMin">
                        <use xlink:href="#rim" fill="#404040">
                                <set attributeName="fill" to="#808080" begin="zoomminus.mouseover" end="zoomminus.mouseout"/>
                        </use>
                        <path d="M-4,0h8" fill="none" stroke="white" stroke-width="1.5" pointer-events="none"/>
                </g>
                <g id="dirArrow">
                        <path fill="none" stroke="white" stroke-width="1.5" d="M0,-3.0v7 M-2.5,-0.5L0,-3.0L2.5,-0.5"/>
                </g>
               <g id="resetDef">
                       <use xlink:href="#rim2" fill="#404040">
                               <set attributeName="fill" to="#808080" begin="reset.mouseover" end="reset.mouseout"/>
                       </use>
               </g>
        </defs>

<script type="text/javascript">
var viewWidth = 1903;
var viewHeight = 420;
var sectionId = 'dynsection-0';
</script>
<script xlink:href="svgpan.js"/>
<svg id="graph" class="graph">
<g id="viewport">
<title>stringlib.h</title>
<polygon fill="white" stroke="none" points="-4,4 -4,-416 1898.5,-416 1898.5,4 -4,4"/>
<!-- Node1 -->
<g id="node1" class="node"><title>Node1</title>
<polygon fill="#bfbfbf" stroke="black" points="1735.5,-392.5 1735.5,-411.5 1794.5,-411.5 1794.5,-392.5 1735.5,-392.5"/>
<text text-anchor="middle" x="1765" y="-399.5" font-family="Helvetica,sans-Serif" font-size="10.00">stringlib.h</text>
</g>
<!-- Node2 -->
<g id="node2" class="node"><title>Node2</title>
<g id="a_node2"><a xlink:href="config_cosmos_8h.html" target="_top" xlink:title="Headers and definitions common to all COSMOS. ">
<polygon fill="white" stroke="black" points="908.5,-112.5 908.5,-131.5 1031.5,-131.5 1031.5,-112.5 908.5,-112.5"/>
<text text-anchor="middle" x="970" y="-119.5" font-family="Helvetica,sans-Serif" font-size="10.00">support/configCosmos.h</text>
</a>
</g>
</g>
<!-- Node1&#45;&gt;Node2 -->
<g id="edge1" class="edge"><title>Node1&#45;&gt;Node2</title>
<path fill="none" stroke="midnightblue" d="M1735.35,-400.272C1586.96,-396.245 932,-373.783 932,-291 932,-291 932,-291 932,-233 932,-198.813 948.6,-161.764 959.857,-140.571"/>
<polygon fill="midnightblue" stroke="midnightblue" points="962.947,-142.215 964.716,-131.769 956.819,-138.832 962.947,-142.215"/>
</g>
<!-- Node15 -->
<g id="node15" class="node"><title>Node15</title>
<polygon fill="white" stroke="#bfbfbf" points="1739,-56.5 1739,-75.5 1791,-75.5 1791,-56.5 1739,-56.5"/>
<text text-anchor="middle" x="1765" y="-63.5" font-family="Helvetica,sans-Serif" font-size="10.00">sstream</text>
</g>
<!-- Node1&#45;&gt;Node15 -->
<g id="edge57" class="edge"><title>Node1&#45;&gt;Node15</title>
<path fill="none" stroke="midnightblue" d="M1765,-392.442C1765,-373.936 1765,-328.812 1765,-291 1765,-291 1765,-291 1765,-177 1765,-144.948 1765,-107.643 1765,-85.7489"/>
<polygon fill="midnightblue" stroke="midnightblue" points="1768.5,-85.5577 1765,-75.5578 1761.5,-85.5578 1768.5,-85.5577"/>
</g>
<!-- Node21 -->
<g id="node21" class="node"><title>Node21</title>
<polygon fill="white" stroke="#bfbfbf" points="1497.5,-0.5 1497.5,-19.5 1538.5,-19.5 1538.5,-0.5 1497.5,-0.5"/>
<text text-anchor="middle" x="1518" y="-7.5" font-family="Helvetica,sans-Serif" font-size="10.00">string</text>
</g>
<!-- Node1&#45;&gt;Node21 -->
<g id="edge56" class="edge"><title>Node1&#45;&gt;Node21</title>
<path fill="none" stroke="midnightblue" d="M1772.74,-392.306C1787.67,-374.594 1819,-332.485 1819,-291 1819,-291 1819,-291 1819,-121 1819,-90.9022 1822.58,-75.8986 1800,-56 1763.09,-23.4763 1613.94,-14.3352 1548.75,-11.869"/>
<polygon fill="midnightblue" stroke="midnightblue" points="1548.79,-8.36849 1538.68,-11.5163 1548.55,-15.3642 1548.79,-8.36849"/>
</g>
<!-- Node35 -->
<g id="node35" class="node"><title>Node35</title>
<g id="a_node35"><a xlink:href="jsonobject_8h.html" target="_top" xlink:title="support/jsonobject.h">
<polygon fill="white" stroke="black" points="1487,-336.5 1487,-355.5 1591,-355.5 1591,-336.5 1487,-336.5"/>
<text text-anchor="middle" x="1539" y="-343.5" font-family="Helvetica,sans-Serif" font-size="10.00">support/jsonobject.h</text>
</a>
</g>
</g>
<!-- Node1&#45;&gt;Node35 -->
<g id="edge43" class="edge"><title>Node1&#45;&gt;Node35</title>
<path fill="none" stroke="midnightblue" d="M1735.45,-393.94C1697.08,-384.771 1629.69,-368.669 1584.69,-357.918"/>
<polygon fill="midnightblue" stroke="midnightblue" points="1585.43,-354.496 1574.89,-355.576 1583.81,-361.304 1585.43,-354.496"/>
</g>
<!-- Node39 -->
<g id="node39" class="node"><title>Node39</title>
<polygon fill="white" stroke="#bfbfbf" points="1847.5,-336.5 1847.5,-355.5 1894.5,-355.5 1894.5,-336.5 1847.5,-336.5"/>
<text text-anchor="middle" x="1871" y="-343.5" font-family="Helvetica,sans-Serif" font-size="10.00">errno.h</text>
</g>
<!-- Node1&#45;&gt;Node39 -->
<g id="edge55" class="edge"><title>Node1&#45;&gt;Node39</title>
<path fill="none" stroke="midnightblue" d="M1782.03,-392.324C1799.03,-383.664 1825.38,-370.242 1844.99,-360.249"/>
<polygon fill="midnightblue" stroke="midnightblue" points="1846.69,-363.312 1854.01,-355.655 1843.51,-357.075 1846.69,-363.312"/>
</g>
<!-- Node3 -->
<g id="node3" class="node"><title>Node3</title>
<polygon fill="white" stroke="#bfbfbf" points="1254.5,-56.5 1254.5,-75.5 1299.5,-75.5 1299.5,-56.5 1254.5,-56.5"/>
<text text-anchor="middle" x="1277" y="-63.5" font-family="Helvetica,sans-Serif" font-size="10.00">climits</text>
</g>
<!-- Node2&#45;&gt;Node3 -->
<g id="edge2" class="edge"><title>Node2&#45;&gt;Node3</title>
<path fill="none" stroke="midnightblue" d="M1031.54,-112.942C1085.23,-105.455 1165.36,-93.1848 1244.24,-75.9467"/>
<polygon fill="midnightblue" stroke="midnightblue" points="1245.35,-79.2868 1254.35,-73.7076 1243.83,-72.4524 1245.35,-79.2868"/>
</g>
<!-- Node4 -->
<g id="node4" class="node"><title>Node4</title>
<polygon fill="white" stroke="#bfbfbf" points="1317.5,-56.5 1317.5,-75.5 1364.5,-75.5 1364.5,-56.5 1317.5,-56.5"/>
<text text-anchor="middle" x="1341" y="-63.5" font-family="Helvetica,sans-Serif" font-size="10.00">csignal</text>
</g>
<!-- Node2&#45;&gt;Node4 -->
<g id="edge3" class="edge"><title>Node2&#45;&gt;Node4</title>
<path fill="none" stroke="midnightblue" d="M1031.78,-115.284C1097.73,-108.618 1205.41,-96.1219 1307.44,-75.8575"/>
<polygon fill="midnightblue" stroke="midnightblue" points="1308.19,-79.2782 1317.3,-73.8721 1306.8,-72.4161 1308.19,-79.2782"/>
</g>
<!-- Node5 -->
<g id="node5" class="node"><title>Node5</title>
<polygon fill="white" stroke="#bfbfbf" points="1541,-56.5 1541,-75.5 1587,-75.5 1587,-56.5 1541,-56.5"/>
<text text-anchor="middle" x="1564" y="-63.5" font-family="Helvetica,sans-Serif" font-size="10.00">cstdint</text>
</g>
<!-- Node2&#45;&gt;Node5 -->
<g id="edge4" class="edge"><title>Node2&#45;&gt;Node5</title>
<path fill="none" stroke="midnightblue" d="M1031.78,-119.194C1134.96,-115.468 1348.6,-104.719 1527,-76 1528.25,-75.7991 1529.52,-75.5779 1530.79,-75.3407"/>
<polygon fill="midnightblue" stroke="midnightblue" points="1531.56,-78.7568 1540.63,-73.2763 1530.12,-71.9062 1531.56,-78.7568"/>
</g>
<!-- Node6 -->
<g id="node6" class="node"><title>Node6</title>
<polygon fill="white" stroke="#bfbfbf" points="430,-56.5 430,-75.5 486,-75.5 486,-56.5 430,-56.5"/>
<text text-anchor="middle" x="458" y="-63.5" font-family="Helvetica,sans-Serif" font-size="10.00">cinttypes</text>
</g>
<!-- Node2&#45;&gt;Node6 -->
<g id="edge5" class="edge"><title>Node2&#45;&gt;Node6</title>
<path fill="none" stroke="midnightblue" d="M908.214,-113.537C903.406,-113.001 898.625,-112.482 894,-112 720.193,-93.8714 672.417,-104.702 496.32,-75.9865"/>
<polygon fill="midnightblue" stroke="midnightblue" points="496.629,-72.4903 486.193,-74.315 495.489,-79.3969 496.629,-72.4903"/>
</g>
<!-- Node7 -->
<g id="node7" class="node"><title>Node7</title>
<polygon fill="white" stroke="#bfbfbf" points="504.5,-56.5 504.5,-75.5 547.5,-75.5 547.5,-56.5 504.5,-56.5"/>
<text text-anchor="middle" x="526" y="-63.5" font-family="Helvetica,sans-Serif" font-size="10.00">cstdio</text>
</g>
<!-- Node2&#45;&gt;Node7 -->
<g id="edge6" class="edge"><title>Node2&#45;&gt;Node7</title>
<path fill="none" stroke="midnightblue" d="M908.205,-113.621C903.399,-113.066 898.621,-112.52 894,-112 747.1,-95.4795 705.857,-105.385 557.442,-75.9683"/>
<polygon fill="midnightblue" stroke="midnightblue" points="558.002,-72.5111 547.509,-73.9731 556.624,-79.374 558.002,-72.5111"/>
</g>
<!-- Node8 -->
<g id="node8" class="node"><title>Node8</title>
<polygon fill="white" stroke="#bfbfbf" points="565.5,-56.5 565.5,-75.5 614.5,-75.5 614.5,-56.5 565.5,-56.5"/>
<text text-anchor="middle" x="590" y="-63.5" font-family="Helvetica,sans-Serif" font-size="10.00">cstddef</text>
</g>
<!-- Node2&#45;&gt;Node8 -->
<g id="edge7" class="edge"><title>Node2&#45;&gt;Node8</title>
<path fill="none" stroke="midnightblue" d="M908.469,-113.487C823.152,-103.004 674.526,-84.4846 624.759,-75.9904"/>
<polygon fill="midnightblue" stroke="midnightblue" points="625.248,-72.5217 614.779,-74.15 623.979,-79.4056 625.248,-72.5217"/>
</g>
<!-- Node9 -->
<g id="node9" class="node"><title>Node9</title>
<polygon fill="white" stroke="#bfbfbf" points="632.5,-56.5 632.5,-75.5 677.5,-75.5 677.5,-56.5 632.5,-56.5"/>
<text text-anchor="middle" x="655" y="-63.5" font-family="Helvetica,sans-Serif" font-size="10.00">cstdlib</text>
</g>
<!-- Node2&#45;&gt;Node9 -->
<g id="edge8" class="edge"><title>Node2&#45;&gt;Node9</title>
<path fill="none" stroke="midnightblue" d="M908.336,-113.303C852.995,-105.917 769.406,-93.5855 687.608,-75.9033"/>
<polygon fill="midnightblue" stroke="midnightblue" points="688.161,-72.4415 677.643,-73.7204 686.663,-79.2794 688.161,-72.4415"/>
</g>
<!-- Node10 -->
<g id="node10" class="node"><title>Node10</title>
<polygon fill="white" stroke="#bfbfbf" points="696,-56.5 696,-75.5 740,-75.5 740,-56.5 696,-56.5"/>
<text text-anchor="middle" x="718" y="-63.5" font-family="Helvetica,sans-Serif" font-size="10.00">cerrno</text>
</g>
<!-- Node2&#45;&gt;Node10 -->
<g id="edge9" class="edge"><title>Node2&#45;&gt;Node10</title>
<path fill="none" stroke="midnightblue" d="M922.328,-112.458C879.593,-104.539 814.996,-91.9283 750.26,-76.161"/>
<polygon fill="midnightblue" stroke="midnightblue" points="750.839,-72.699 740.292,-73.708 749.166,-79.4963 750.839,-72.699"/>
</g>
<!-- Node11 -->
<g id="node11" class="node"><title>Node11</title>
<polygon fill="white" stroke="#bfbfbf" points="758,-56.5 758,-75.5 804,-75.5 804,-56.5 758,-56.5"/>
<text text-anchor="middle" x="781" y="-63.5" font-family="Helvetica,sans-Serif" font-size="10.00">cstring</text>
</g>
<!-- Node2&#45;&gt;Node11 -->
<g id="edge10" class="edge"><title>Node2&#45;&gt;Node11</title>
<path fill="none" stroke="midnightblue" d="M940.052,-112.444C905.758,-102.645 849.737,-86.6391 814.153,-76.4723"/>
<polygon fill="midnightblue" stroke="midnightblue" points="814.83,-73.0258 804.254,-73.6439 812.907,-79.7565 814.83,-73.0258"/>
</g>
<!-- Node12 -->
<g id="node12" class="node"><title>Node12</title>
<polygon fill="white" stroke="#bfbfbf" points="1605,-56.5 1605,-75.5 1649,-75.5 1649,-56.5 1605,-56.5"/>
<text text-anchor="middle" x="1627" y="-63.5" font-family="Helvetica,sans-Serif" font-size="10.00">cmath</text>
</g>
<!-- Node2&#45;&gt;Node12 -->
<g id="edge11" class="edge"><title>Node2&#45;&gt;Node12</title>
<path fill="none" stroke="midnightblue" d="M1031.84,-120.854C1143.04,-119.657 1384,-112.8 1594.77,-75.8413"/>
<polygon fill="midnightblue" stroke="midnightblue" points="1595.55,-79.2572 1604.78,-74.0585 1594.32,-72.3656 1595.55,-79.2572"/>
</g>
<!-- Node13 -->
<g id="node13" class="node"><title>Node13</title>
<polygon fill="white" stroke="#bfbfbf" points="822.5,-56.5 822.5,-75.5 867.5,-75.5 867.5,-56.5 822.5,-56.5"/>
<text text-anchor="middle" x="845" y="-63.5" font-family="Helvetica,sans-Serif" font-size="10.00">iosfwd</text>
</g>
<!-- Node2&#45;&gt;Node13 -->
<g id="edge12" class="edge"><title>Node2&#45;&gt;Node13</title>
<path fill="none" stroke="midnightblue" d="M950.193,-112.444C929.713,-103.596 897.517,-89.6875 874.135,-79.5865"/>
<polygon fill="midnightblue" stroke="midnightblue" points="875.282,-76.2692 864.714,-75.5164 872.506,-82.6953 875.282,-76.2692"/>
</g>
<!-- Node14 -->
<g id="node14" class="node"><title>Node14</title>
<polygon fill="white" stroke="#bfbfbf" points="1667,-56.5 1667,-75.5 1721,-75.5 1721,-56.5 1667,-56.5"/>
<text text-anchor="middle" x="1694" y="-63.5" font-family="Helvetica,sans-Serif" font-size="10.00">iostream</text>
</g>
<!-- Node2&#45;&gt;Node14 -->
<g id="edge13" class="edge"><title>Node2&#45;&gt;Node14</title>
<path fill="none" stroke="midnightblue" d="M1031.61,-120.669C1150.77,-119.225 1421.07,-112.045 1656.84,-75.8844"/>
<polygon fill="midnightblue" stroke="midnightblue" points="1657.64,-79.3031 1666.98,-74.3082 1656.56,-72.3862 1657.64,-79.3031"/>
</g>
<!-- Node2&#45;&gt;Node15 -->
<g id="edge14" class="edge"><title>Node2&#45;&gt;Node15</title>
<path fill="none" stroke="midnightblue" d="M1031.51,-121.354C1159.72,-121.228 1464.88,-116.43 1728.59,-75.9116"/>
<polygon fill="midnightblue" stroke="midnightblue" points="1729.4,-79.3278 1738.74,-74.3308 1728.32,-72.4112 1729.4,-79.3278"/>
</g>
<!-- Node16 -->
<g id="node16" class="node"><title>Node16</title>
<polygon fill="white" stroke="#bfbfbf" points="885.5,-56.5 885.5,-75.5 926.5,-75.5 926.5,-56.5 885.5,-56.5"/>
<text text-anchor="middle" x="906" y="-63.5" font-family="Helvetica,sans-Serif" font-size="10.00">regex</text>
</g>
<!-- Node2&#45;&gt;Node16 -->
<g id="edge15" class="edge"><title>Node2&#45;&gt;Node16</title>
<path fill="none" stroke="midnightblue" d="M959.717,-112.324C950.164,-104.263 935.72,-92.0765 924.216,-82.3695"/>
<polygon fill="midnightblue" stroke="midnightblue" points="926.37,-79.6076 916.47,-75.8339 921.856,-84.9577 926.37,-79.6076"/>
</g>
<!-- Node17 -->
<g id="node17" class="node"><title>Node17</title>
<polygon fill="white" stroke="#bfbfbf" points="0,-56.5 0,-75.5 50,-75.5 50,-56.5 0,-56.5"/>
<text text-anchor="middle" x="25" y="-63.5" font-family="Helvetica,sans-Serif" font-size="10.00">iomanip</text>
</g>
<!-- Node2&#45;&gt;Node17 -->
<g id="edge16" class="edge"><title>Node2&#45;&gt;Node17</title>
<path fill="none" stroke="midnightblue" d="M908.237,-113.296C903.424,-112.815 898.635,-112.374 894,-112 525.963,-82.2684 429.873,-125.722 64,-76 62.7219,-75.8263 61.4241,-75.6305 60.1161,-75.4166"/>
<polygon fill="midnightblue" stroke="midnightblue" points="60.5294,-71.9324 50.0502,-73.4933 59.2155,-78.808 60.5294,-71.9324"/>
</g>
<!-- Node18 -->
<g id="node18" class="node"><title>Node18</title>
<polygon fill="white" stroke="#bfbfbf" points="944.5,-56.5 944.5,-75.5 995.5,-75.5 995.5,-56.5 944.5,-56.5"/>
<text text-anchor="middle" x="970" y="-63.5" font-family="Helvetica,sans-Serif" font-size="10.00">unistd.h</text>
</g>
<!-- Node2&#45;&gt;Node18 -->
<g id="edge17" class="edge"><title>Node2&#45;&gt;Node18</title>
<path fill="none" stroke="midnightblue" d="M970,-112.083C970,-105.006 970,-94.8611 970,-85.9865"/>
<polygon fill="midnightblue" stroke="midnightblue" points="973.5,-85.751 970,-75.7511 966.5,-85.7511 973.5,-85.751"/>
</g>
<!-- Node19 -->
<g id="node19" class="node"><title>Node19</title>
<polygon fill="white" stroke="#bfbfbf" points="1014,-56.5 1014,-75.5 1058,-75.5 1058,-56.5 1014,-56.5"/>
<text text-anchor="middle" x="1036" y="-63.5" font-family="Helvetica,sans-Serif" font-size="10.00">fcntl.h</text>
</g>
<!-- Node2&#45;&gt;Node19 -->
<g id="edge18" class="edge"><title>Node2&#45;&gt;Node19</title>
<path fill="none" stroke="midnightblue" d="M980.604,-112.324C990.456,-104.263 1005.35,-92.0765 1017.22,-82.3695"/>
<polygon fill="midnightblue" stroke="midnightblue" points="1019.68,-84.8752 1025.2,-75.8339 1015.25,-79.4575 1019.68,-84.8752"/>
</g>
<!-- Node20 -->
<g id="node20" class="node"><title>Node20</title>
<polygon fill="white" stroke="#bfbfbf" points="1076,-56.5 1076,-75.5 1116,-75.5 1116,-56.5 1076,-56.5"/>
<text text-anchor="middle" x="1096" y="-63.5" font-family="Helvetica,sans-Serif" font-size="10.00">limits</text>
</g>
<!-- Node2&#45;&gt;Node20 -->
<g id="edge19" class="edge"><title>Node2&#45;&gt;Node20</title>
<path fill="none" stroke="midnightblue" d="M989.965,-112.444C1010.61,-103.596 1043.06,-89.6875 1066.63,-79.5865"/>
<polygon fill="midnightblue" stroke="midnightblue" points="1068.32,-82.6727 1076.13,-75.5164 1065.56,-76.2387 1068.32,-82.6727"/>
</g>
<!-- Node2&#45;&gt;Node21 -->
<g id="edge20" class="edge"><title>Node2&#45;&gt;Node21</title>
<path fill="none" stroke="midnightblue" d="M1031.98,-119.367C1162.77,-115.396 1457.97,-103.471 1494,-76 1508.18,-65.1901 1513.98,-45.1085 1516.36,-30.1151"/>
<polygon fill="midnightblue" stroke="midnightblue" points="1519.87,-30.2253 1517.59,-19.8792 1512.92,-29.3904 1519.87,-30.2253"/>
</g>
<!-- Node22 -->
<g id="node22" class="node"><title>Node22</title>
<polygon fill="white" stroke="#bfbfbf" points="843,-0.5 843,-19.5 887,-19.5 887,-0.5 843,-0.5"/>
<text text-anchor="middle" x="865" y="-7.5" font-family="Helvetica,sans-Serif" font-size="10.00">vector</text>
</g>
<!-- Node2&#45;&gt;Node22 -->
<g id="edge21" class="edge"><title>Node2&#45;&gt;Node22</title>
<path fill="none" stroke="midnightblue" d="M908.222,-113.465C903.412,-112.945 898.629,-112.45 894,-112 841.54,-106.9 456.828,-114.658 421,-76 363.665,-14.1356 720.995,-10.4222 832.517,-10.7474"/>
<polygon fill="midnightblue" stroke="midnightblue" points="832.801,-14.2485 842.816,-10.7913 832.831,-7.24859 832.801,-14.2485"/>
</g>
<!-- Node23 -->
<g id="node23" class="node"><title>Node23</title>
<polygon fill="white" stroke="#bfbfbf" points="1134.5,-56.5 1134.5,-75.5 1175.5,-75.5 1175.5,-56.5 1134.5,-56.5"/>
<text text-anchor="middle" x="1155" y="-63.5" font-family="Helvetica,sans-Serif" font-size="10.00">stack</text>
</g>
<!-- Node2&#45;&gt;Node23 -->
<g id="edge22" class="edge"><title>Node2&#45;&gt;Node23</title>
<path fill="none" stroke="midnightblue" d="M999.737,-112.452C1029.01,-104.019 1075.23,-90.6541 1124.47,-76.1385"/>
<polygon fill="midnightblue" stroke="midnightblue" points="1125.75,-79.4088 1134.35,-73.2212 1123.77,-72.6952 1125.75,-79.4088"/>
</g>
<!-- Node24 -->
<g id="node24" class="node"><title>Node24</title>
<polygon fill="white" stroke="#bfbfbf" points="1193.5,-56.5 1193.5,-75.5 1236.5,-75.5 1236.5,-56.5 1193.5,-56.5"/>
<text text-anchor="middle" x="1215" y="-63.5" font-family="Helvetica,sans-Serif" font-size="10.00">deque</text>
</g>
<!-- Node2&#45;&gt;Node24 -->
<g id="edge23" class="edge"><title>Node2&#45;&gt;Node24</title>
<path fill="none" stroke="midnightblue" d="M1015.31,-112.5C1056.66,-104.513 1119.65,-91.7729 1183.53,-75.9621"/>
<polygon fill="midnightblue" stroke="midnightblue" points="1184.52,-79.3226 1193.38,-73.5031 1182.83,-72.5313 1184.52,-79.3226"/>
</g>
<!-- Node25 -->
<g id="node25" class="node"><title>Node25</title>
<polygon fill="white" stroke="#bfbfbf" points="297,-0.5 297,-19.5 341,-19.5 341,-0.5 297,-0.5"/>
<text text-anchor="middle" x="319" y="-7.5" font-family="Helvetica,sans-Serif" font-size="10.00">mutex</text>
</g>
<!-- Node2&#45;&gt;Node25 -->
<g id="edge24" class="edge"><title>Node2&#45;&gt;Node25</title>
<path fill="none" stroke="midnightblue" d="M908.224,-113.441C903.414,-112.927 898.63,-112.439 894,-112 782.217,-101.395 493.144,-120.378 390,-76 365.875,-65.6201 344.613,-43.4883 331.79,-27.9453"/>
<polygon fill="midnightblue" stroke="midnightblue" points="334.209,-25.362 325.258,-19.6938 328.721,-29.7068 334.209,-25.362"/>
</g>
<!-- Node26 -->
<g id="node26" class="node"><title>Node26</title>
<polygon fill="white" stroke="#bfbfbf" points="14,-0.5 14,-19.5 58,-19.5 58,-0.5 14,-0.5"/>
<text text-anchor="middle" x="36" y="-7.5" font-family="Helvetica,sans-Serif" font-size="10.00">thread</text>
</g>
<!-- Node2&#45;&gt;Node26 -->
<g id="edge25" class="edge"><title>Node2&#45;&gt;Node26</title>
<path fill="none" stroke="midnightblue" d="M908.235,-113.318C903.422,-112.832 898.634,-112.385 894,-112 726.828,-98.128 300.097,-126.078 140,-76 106.544,-65.5351 73.1063,-41.6469 53.5004,-25.9289"/>
<polygon fill="midnightblue" stroke="midnightblue" points="55.6975,-23.2042 45.75,-19.5577 51.2523,-28.6117 55.6975,-23.2042"/>
</g>
<!-- Node27 -->
<g id="node27" class="node"><title>Node27</title>
<polygon fill="white" stroke="#bfbfbf" points="76.5,-0.5 76.5,-19.5 171.5,-19.5 171.5,-0.5 76.5,-0.5"/>
<text text-anchor="middle" x="124" y="-7.5" font-family="Helvetica,sans-Serif" font-size="10.00">condition_variable</text>
</g>
<!-- Node2&#45;&gt;Node27 -->
<g id="edge26" class="edge"><title>Node2&#45;&gt;Node27</title>
<path fill="none" stroke="midnightblue" d="M908.234,-113.327C903.422,-112.838 898.634,-112.388 894,-112 813.074,-105.221 233.895,-117.349 164,-76 146.58,-65.6947 135.707,-44.5456 129.771,-29.1622"/>
<polygon fill="midnightblue" stroke="midnightblue" points="133.042,-27.9151 126.429,-19.6374 126.437,-30.2323 133.042,-27.9151"/>
</g>
<!-- Node28 -->
<g id="node28" class="node"><title>Node28</title>
<polygon fill="white" stroke="#bfbfbf" points="189.5,-0.5 189.5,-19.5 232.5,-19.5 232.5,-0.5 189.5,-0.5"/>
<text text-anchor="middle" x="211" y="-7.5" font-family="Helvetica,sans-Serif" font-size="10.00">queue</text>
</g>
<!-- Node2&#45;&gt;Node28 -->
<g id="edge27" class="edge"><title>Node2&#45;&gt;Node28</title>
<path fill="none" stroke="midnightblue" d="M908.234,-113.33C903.421,-112.841 898.634,-112.39 894,-112 854.036,-108.64 200.643,-105.057 173,-76 158.96,-61.2412 176.094,-40.3646 191.652,-26.2873"/>
<polygon fill="midnightblue" stroke="midnightblue" points="194.136,-28.7683 199.47,-19.614 189.592,-23.444 194.136,-28.7683"/>
</g>
<!-- Node29 -->
<g id="node29" class="node"><title>Node29</title>
<polygon fill="white" stroke="#bfbfbf" points="359.5,-0.5 359.5,-19.5 394.5,-19.5 394.5,-0.5 359.5,-0.5"/>
<text text-anchor="middle" x="377" y="-7.5" font-family="Helvetica,sans-Serif" font-size="10.00">map</text>
</g>
<!-- Node2&#45;&gt;Node29 -->
<g id="edge28" class="edge"><title>Node2&#45;&gt;Node29</title>
<path fill="none" stroke="midnightblue" d="M908.222,-113.457C903.413,-112.939 898.629,-112.446 894,-112 840.433,-106.834 455.967,-105.565 411,-76 394.902,-65.4155 385.957,-44.6418 381.332,-29.4176"/>
<polygon fill="midnightblue" stroke="midnightblue" points="384.654,-28.293 378.688,-19.5379 377.892,-30.1029 384.654,-28.293"/>
</g>
<!-- Node30 -->
<g id="node30" class="node"><title>Node30</title>
<g id="a_node30"><a xlink:href="cosmos-defs_8h.html" target="_top" xlink:title="COSMOS definitions Definitions specific to the COSMOS environement. ">
<polygon fill="white" stroke="black" points="182,-56.5 182,-75.5 298,-75.5 298,-56.5 182,-56.5"/>
<text text-anchor="middle" x="240" y="-63.5" font-family="Helvetica,sans-Serif" font-size="10.00">support/cosmos&#45;defs.h</text>
</a>
</g>
</g>
<!-- Node2&#45;&gt;Node30 -->
<g id="edge29" class="edge"><title>Node2&#45;&gt;Node30</title>
<path fill="none" stroke="midnightblue" d="M908.228,-113.391C903.417,-112.888 898.632,-112.417 894,-112 635.884,-88.7523 570.04,-100.084 312,-76 310.73,-75.8815 309.448,-75.7582 308.157,-75.6309"/>
<polygon fill="midnightblue" stroke="midnightblue" points="308.434,-72.1409 298.125,-74.5824 307.707,-79.103 308.434,-72.1409"/>
</g>
<!-- Node32 -->
<g id="node32" class="node"><title>Node32</title>
<g id="a_node32"><a xlink:href="json11_8hpp.html" target="_top" xlink:title="json11.hpp">
<polygon fill="white" stroke="black" points="1421,-56.5 1421,-75.5 1485,-75.5 1485,-56.5 1421,-56.5"/>
<text text-anchor="middle" x="1453" y="-63.5" font-family="Helvetica,sans-Serif" font-size="10.00">json11.hpp</text>
</a>
</g>
</g>
<!-- Node2&#45;&gt;Node32 -->
<g id="edge37" class="edge"><title>Node2&#45;&gt;Node32</title>
<path fill="none" stroke="midnightblue" d="M1031.79,-114.116C1110.88,-105.302 1252.14,-89.5461 1373,-76 1385.14,-74.6394 1398.31,-73.1589 1410.4,-71.7988"/>
<polygon fill="midnightblue" stroke="midnightblue" points="1411.15,-75.2372 1420.69,-70.6407 1410.36,-68.2811 1411.15,-75.2372"/>
</g>
<!-- Node30&#45;&gt;Node22 -->
<g id="edge31" class="edge"><title>Node30&#45;&gt;Node22</title>
<path fill="none" stroke="midnightblue" d="M298.237,-59.9683C427.033,-48.8403 732.542,-22.4443 832.634,-13.7964"/>
<polygon fill="midnightblue" stroke="midnightblue" points="833.077,-17.2713 842.738,-12.9234 832.474,-10.2973 833.077,-17.2713"/>
</g>
<!-- Node30&#45;&gt;Node25 -->
<g id="edge35" class="edge"><title>Node30&#45;&gt;Node25</title>
<path fill="none" stroke="midnightblue" d="M252.693,-56.324C264.901,-47.979 283.578,-35.2122 298.003,-25.3524"/>
<polygon fill="midnightblue" stroke="midnightblue" points="300.058,-28.1871 306.339,-19.6545 296.108,-22.4082 300.058,-28.1871"/>
</g>
<!-- Node30&#45;&gt;Node26 -->
<g id="edge34" class="edge"><title>Node30&#45;&gt;Node26</title>
<path fill="none" stroke="midnightblue" d="M206.112,-56.4848C173.159,-48.1379 121.451,-34.8671 67.9772,-20.217"/>
<polygon fill="midnightblue" stroke="midnightblue" points="68.8999,-16.8409 58.3298,-17.564 67.0438,-23.5903 68.8999,-16.8409"/>
</g>
<!-- Node30&#45;&gt;Node27 -->
<g id="edge36" class="edge"><title>Node30&#45;&gt;Node27</title>
<path fill="none" stroke="midnightblue" d="M221.619,-56.4435C202.784,-47.6751 173.269,-33.9355 151.621,-23.8579"/>
<polygon fill="midnightblue" stroke="midnightblue" points="152.838,-20.5637 142.295,-19.5164 149.883,-26.9098 152.838,-20.5637"/>
</g>
<!-- Node30&#45;&gt;Node28 -->
<g id="edge33" class="edge"><title>Node30&#45;&gt;Node28</title>
<path fill="none" stroke="midnightblue" d="M235.211,-56.083C231.242,-48.6913 225.475,-37.9533 220.565,-28.8111"/>
<polygon fill="midnightblue" stroke="midnightblue" points="223.514,-26.9051 215.7,-19.7511 217.347,-30.217 223.514,-26.9051"/>
</g>
<!-- Node30&#45;&gt;Node29 -->
<g id="edge30" class="edge"><title>Node30&#45;&gt;Node29</title>
<path fill="none" stroke="midnightblue" d="M261.708,-56.4435C285.554,-47.0445 323.891,-31.9336 349.742,-21.7438"/>
<polygon fill="midnightblue" stroke="midnightblue" points="351.294,-24.8943 359.314,-17.971 348.728,-18.3819 351.294,-24.8943"/>
</g>
<!-- Node31 -->
<g id="node31" class="node"><title>Node31</title>
<polygon fill="white" stroke="#bfbfbf" points="250.5,-0.5 250.5,-19.5 279.5,-19.5 279.5,-0.5 250.5,-0.5"/>
<text text-anchor="middle" x="265" y="-7.5" font-family="Helvetica,sans-Serif" font-size="10.00">list</text>
</g>
<!-- Node30&#45;&gt;Node31 -->
<g id="edge32" class="edge"><title>Node30&#45;&gt;Node31</title>
<path fill="none" stroke="midnightblue" d="M244.128,-56.083C247.514,-48.77 252.416,-38.1814 256.619,-29.1034"/>
<polygon fill="midnightblue" stroke="midnightblue" points="259.923,-30.2962 260.949,-19.7511 253.571,-27.3553 259.923,-30.2962"/>
</g>
<!-- Node32&#45;&gt;Node21 -->
<g id="edge38" class="edge"><title>Node32&#45;&gt;Node21</title>
<path fill="none" stroke="midnightblue" d="M1463.44,-56.324C1473.15,-48.2631 1487.82,-36.0765 1499.5,-26.3695"/>
<polygon fill="midnightblue" stroke="midnightblue" points="1501.91,-28.9163 1507.37,-19.8339 1497.44,-23.532 1501.91,-28.9163"/>
</g>
<!-- Node32&#45;&gt;Node22 -->
<g id="edge39" class="edge"><title>Node32&#45;&gt;Node22</title>
<path fill="none" stroke="midnightblue" d="M1420.91,-58.2516C1416.25,-57.4103 1411.51,-56.627 1407,-56 1214.59,-29.2734 981.394,-16.4412 897.231,-12.4323"/>
<polygon fill="midnightblue" stroke="midnightblue" points="897.191,-8.92671 887.038,-11.9556 896.864,-15.9191 897.191,-8.92671"/>
</g>
<!-- Node32&#45;&gt;Node29 -->
<g id="edge40" class="edge"><title>Node32&#45;&gt;Node29</title>
<path fill="none" stroke="midnightblue" d="M1420.74,-60.8733C1406.18,-59.1388 1388.74,-57.2399 1373,-56 990.189,-25.853 522.896,-14.1624 405.016,-11.5795"/>
<polygon fill="midnightblue" stroke="midnightblue" points="404.787,-8.0738 394.714,-11.3576 404.636,-15.0722 404.787,-8.0738"/>
</g>
<!-- Node33 -->
<g id="node33" class="node"><title>Node33</title>
<polygon fill="white" stroke="#bfbfbf" points="1427,-0.5 1427,-19.5 1479,-19.5 1479,-0.5 1427,-0.5"/>
<text text-anchor="middle" x="1453" y="-7.5" font-family="Helvetica,sans-Serif" font-size="10.00">memory</text>
</g>
<!-- Node32&#45;&gt;Node33 -->
<g id="edge41" class="edge"><title>Node32&#45;&gt;Node33</title>
<path fill="none" stroke="midnightblue" d="M1453,-56.083C1453,-49.0059 1453,-38.8611 1453,-29.9865"/>
<polygon fill="midnightblue" stroke="midnightblue" points="1456.5,-29.751 1453,-19.7511 1449.5,-29.7511 1456.5,-29.751"/>
</g>
<!-- Node34 -->
<g id="node34" class="node"><title>Node34</title>
<polygon fill="white" stroke="#bfbfbf" points="1335.5,-0.5 1335.5,-19.5 1408.5,-19.5 1408.5,-0.5 1335.5,-0.5"/>
<text text-anchor="middle" x="1372" y="-7.5" font-family="Helvetica,sans-Serif" font-size="10.00">initializer_list</text>
</g>
<!-- Node32&#45;&gt;Node34 -->
<g id="edge42" class="edge"><title>Node32&#45;&gt;Node34</title>
<path fill="none" stroke="midnightblue" d="M1439.99,-56.324C1427.47,-47.979 1408.32,-35.2122 1393.53,-25.3524"/>
<polygon fill="midnightblue" stroke="midnightblue" points="1395.24,-22.2894 1384.98,-19.6545 1391.36,-28.1137 1395.24,-22.2894"/>
</g>
<!-- Node36 -->
<g id="node36" class="node"><title>Node36</title>
<g id="a_node36"><a xlink:href="jsonvalue_8h.html" target="_top" xlink:title="support/jsonvalue.h">
<polygon fill="white" stroke="black" points="1373.5,-280.5 1373.5,-299.5 1474.5,-299.5 1474.5,-280.5 1373.5,-280.5"/>
<text text-anchor="middle" x="1424" y="-287.5" font-family="Helvetica,sans-Serif" font-size="10.00">support/jsonvalue.h</text>
</a>
</g>
</g>
<!-- Node35&#45;&gt;Node36 -->
<g id="edge44" class="edge"><title>Node35&#45;&gt;Node36</title>
<path fill="none" stroke="midnightblue" d="M1520.78,-336.444C1502.1,-327.675 1472.84,-313.935 1451.38,-303.858"/>
<polygon fill="midnightblue" stroke="midnightblue" points="1452.68,-300.599 1442.14,-299.516 1449.7,-306.935 1452.68,-300.599"/>
</g>
<!-- Node36&#45;&gt;Node2 -->
<g id="edge45" class="edge"><title>Node36&#45;&gt;Node2</title>
<path fill="none" stroke="midnightblue" d="M1400.55,-280.425C1325.36,-252.932 1090.15,-166.932 1002.95,-135.05"/>
<polygon fill="midnightblue" stroke="midnightblue" points="1003.91,-131.671 993.313,-131.524 1001.5,-138.245 1003.91,-131.671"/>
</g>
<!-- Node37 -->
<g id="node37" class="node"><title>Node37</title>
<g id="a_node37"><a xlink:href="vector_8h.html" target="_top" xlink:title="math/vector.h">
<polygon fill="white" stroke="black" points="1385.5,-224.5 1385.5,-243.5 1462.5,-243.5 1462.5,-224.5 1385.5,-224.5"/>
<text text-anchor="middle" x="1424" y="-231.5" font-family="Helvetica,sans-Serif" font-size="10.00">math/vector.h</text>
</a>
</g>
</g>
<!-- Node36&#45;&gt;Node37 -->
<g id="edge46" class="edge"><title>Node36&#45;&gt;Node37</title>
<path fill="none" stroke="midnightblue" d="M1424,-280.083C1424,-273.006 1424,-262.861 1424,-253.986"/>
<polygon fill="midnightblue" stroke="midnightblue" points="1427.5,-253.751 1424,-243.751 1420.5,-253.751 1427.5,-253.751"/>
</g>
<!-- Node37&#45;&gt;Node2 -->
<g id="edge47" class="edge"><title>Node37&#45;&gt;Node2</title>
<path fill="none" stroke="midnightblue" d="M1388.75,-224.46C1307.21,-204.702 1105.61,-155.857 1015.17,-133.945"/>
<polygon fill="midnightblue" stroke="midnightblue" points="1015.77,-130.488 1005.22,-131.535 1014.12,-137.291 1015.77,-130.488"/>
</g>
<!-- Node37&#45;&gt;Node12 -->
<g id="edge53" class="edge"><title>Node37&#45;&gt;Node12</title>
<path fill="none" stroke="midnightblue" d="M1440.21,-224.424C1455.63,-215.973 1479.21,-202.284 1498,-188 1542.59,-154.113 1589.12,-107.096 1612.19,-82.8566"/>
<polygon fill="midnightblue" stroke="midnightblue" points="1614.76,-85.2349 1619.08,-75.5615 1609.67,-80.4287 1614.76,-85.2349"/>
</g>
<!-- Node37&#45;&gt;Node14 -->
<g id="edge51" class="edge"><title>Node37&#45;&gt;Node14</title>
<path fill="none" stroke="midnightblue" d="M1446.7,-224.42C1467.6,-216.168 1499.18,-202.791 1525,-188 1582.85,-154.857 1645.23,-106.527 1675.46,-82.1954"/>
<polygon fill="midnightblue" stroke="midnightblue" points="1677.88,-84.7444 1683.44,-75.7291 1673.47,-79.3061 1677.88,-84.7444"/>
</g>
<!-- Node37&#45;&gt;Node17 -->
<g id="edge52" class="edge"><title>Node37&#45;&gt;Node17</title>
<path fill="none" stroke="midnightblue" d="M1385.35,-228.613C1226.02,-210.488 604.495,-139.421 94,-76 83.0071,-74.6343 71.0368,-73.0923 60.1995,-71.6755"/>
<polygon fill="midnightblue" stroke="midnightblue" points="60.5959,-68.1975 50.2252,-70.3653 59.6842,-75.1379 60.5959,-68.1975"/>
</g>
<!-- Node37&#45;&gt;Node22 -->
<g id="edge54" class="edge"><title>Node37&#45;&gt;Node22</title>
<path fill="none" stroke="midnightblue" d="M1421.59,-224.137C1411.94,-188.678 1376.41,-58.8093 1373,-56 1336.3,-25.7508 1003.33,-14.5782 897.282,-11.769"/>
<polygon fill="midnightblue" stroke="midnightblue" points="897.268,-8.26757 887.181,-11.5087 897.087,-15.2653 897.268,-8.26757"/>
</g>
<!-- Node38 -->
<g id="node38" class="node"><title>Node38</title>
<g id="a_node38"><a xlink:href="math_2constants_8h.html" target="_top" xlink:title="constants.h">
<polygon fill="white" stroke="black" points="1421,-168.5 1421,-187.5 1489,-187.5 1489,-168.5 1421,-168.5"/>
<text text-anchor="middle" x="1455" y="-175.5" font-family="Helvetica,sans-Serif" font-size="10.00">constants.h</text>
</a>
</g>
</g>
<!-- Node37&#45;&gt;Node38 -->
<g id="edge48" class="edge"><title>Node37&#45;&gt;Node38</title>
<path fill="none" stroke="midnightblue" d="M1429.12,-224.083C1433.41,-216.613 1439.66,-205.724 1444.94,-196.52"/>
<polygon fill="midnightblue" stroke="midnightblue" points="1448.03,-198.166 1449.98,-187.751 1441.96,-194.681 1448.03,-198.166"/>
</g>
<!-- Node38&#45;&gt;Node2 -->
<g id="edge49" class="edge"><title>Node38&#45;&gt;Node2</title>
<path fill="none" stroke="midnightblue" d="M1420.9,-173.203C1342.46,-164.47 1147.88,-142.805 1041.78,-130.992"/>
<polygon fill="midnightblue" stroke="midnightblue" points="1042.12,-127.508 1031.79,-129.88 1041.34,-134.465 1042.12,-127.508"/>
</g>
<!-- Node38&#45;&gt;Node5 -->
<g id="edge50" class="edge"><title>Node38&#45;&gt;Node5</title>
<path fill="none" stroke="midnightblue" d="M1463.55,-168.368C1481.86,-149.894 1525.06,-106.293 1548.4,-82.7436"/>
<polygon fill="midnightblue" stroke="midnightblue" points="1550.93,-85.1583 1555.49,-75.5914 1545.96,-80.2312 1550.93,-85.1583"/>
</g>
</g>
</svg>
        <g id="navigator" transform="translate(0 0)" fill="#404254">
                <rect fill="#f2f5e9" fill-opacity="0.5" stroke="#606060" stroke-width=".5" x="0" y="0" width="60" height="60"/>
                <use id="zoomplus" xlink:href="#zoomPlus" x="17" y="9" onmousedown="handleZoom(evt,'in')"/>
                <use id="zoomminus" xlink:href="#zoomMin" x="42" y="9" onmousedown="handleZoom(evt,'out')"/>
                <use id="reset" xlink:href="#resetDef" x="30" y="36" onmousedown="handleReset()"/>
                <g id="arrowUp" xlink:href="#dirArrow" transform="translate(30 24)" onmousedown="handlePan(0,-1)">
                  <use xlink:href="#rim" fill="#404040">
                        <set attributeName="fill" to="#808080" begin="arrowUp.mouseover" end="arrowUp.mouseout"/>
                  </use>
                  <path fill="none" stroke="white" stroke-width="1.5" d="M0,-3.0v7 M-2.5,-0.5L0,-3.0L2.5,-0.5"/>
                </g>
                <g id="arrowRight" xlink:href="#dirArrow" transform="rotate(90) translate(36 -43)" onmousedown="handlePan(1,0)">
                  <use xlink:href="#rim" fill="#404040">
                        <set attributeName="fill" to="#808080" begin="arrowRight.mouseover" end="arrowRight.mouseout"/>
                  </use>
                  <path fill="none" stroke="white" stroke-width="1.5" d="M0,-3.0v7 M-2.5,-0.5L0,-3.0L2.5,-0.5"/>
                </g>
                <g id="arrowDown" xlink:href="#dirArrow" transform="rotate(180) translate(-30 -48)" onmousedown="handlePan(0,1)">
                  <use xlink:href="#rim" fill="#404040">
                        <set attributeName="fill" to="#808080" begin="arrowDown.mouseover" end="arrowDown.mouseout"/>
                  </use>
                  <path fill="none" stroke="white" stroke-width="1.5" d="M0,-3.0v7 M-2.5,-0.5L0,-3.0L2.5,-0.5"/>
                </g>
                <g id="arrowLeft" xlink:href="#dirArrow" transform="rotate(270) translate(-36 17)" onmousedown="handlePan(-1,0)">
                  <use xlink:href="#rim" fill="#404040">
                        <set attributeName="fill" to="#808080" begin="arrowLeft.mouseover" end="arrowLeft.mouseout"/>
                  </use>
                  <path fill="none" stroke="white" stroke-width="1.5" d="M0,-3.0v7 M-2.5,-0.5L0,-3.0L2.5,-0.5"/>
                </g>
        </g>
        <svg viewBox="0 0 15 15" width="100%" height="30px" preserveAspectRatio="xMaxYMin meet">
         <g id="arrow_out" transform="scale(0.3 0.3)">
          <a xlink:href="stringlib_8h__incl_org.svg" target="_base">
           <rect id="button" ry="5" rx="5" y="6" x="6" height="38" width="38"
                fill="#f2f5e9" fill-opacity="0.5" stroke="#606060" stroke-width="1.0"/>
           <path id="arrow"
             d="M 11.500037,31.436501 C 11.940474,20.09759 22.043105,11.32322 32.158766,21.979434 L 37.068811,17.246167 C 37.068811,17.246167 37.088388,32 37.088388,32 L 22.160133,31.978069 C 22.160133,31.978069 26.997745,27.140456 26.997745,27.140456 C 18.528582,18.264221 13.291696,25.230495 11.500037,31.436501 z"
             style="fill:#404040;"/>
          </a>
         </g>
        </svg>
</svg>
