<?xml version="1.0" encoding="UTF-8" standalone="no"?>
<!DOCTYPE svg PUBLIC "-//W3C//DTD SVG 1.1//EN"
 "http://www.w3.org/Graphics/SVG/1.1/DTD/svg11.dtd">
<!-- Generated by graphviz version 2.38.0 (20140413.2041)
 -->
<!-- Title: png_image Pages: 1 -->
<!--zoomable 1141 -->
<svg id="main" version="1.1" xmlns="http://www.w3.org/2000/svg" xmlns:xlink="http://www.w3.org/1999/xlink" xml:space="preserve" onload="init(evt)">
<style type="text/css"><![CDATA[
.edge:hover path { stroke: red; }
.edge:hover polygon { stroke: red; fill: red; }
]]></style>
<script type="text/javascript"><![CDATA[
var edges = document.getElementsByTagName('g');
if (edges && edges.length) {
  for (var i=0;i<edges.length;i++) {
    if (edges[i].id.substr(0,4)=='edge') {
      edges[i].setAttribute('class','edge');
    }
  }
}
]]></script>
        <defs>
                <circle id="rim" cx="0" cy="0" r="7"/>
                <circle id="rim2" cx="0" cy="0" r="3.5"/>
                <g id="zoomPlus">
                        <use xlink:href="#rim" fill="#404040">
                                <set attributeName="fill" to="#808080" begin="zoomplus.mouseover" end="zoomplus.mouseout"/>
                        </use>
                        <path d="M-4,0h8M0,-4v8" fill="none" stroke="white" stroke-width="1.5" pointer-events="none"/>
                </g>
                <g id="zoomMin">
                        <use xlink:href="#rim" fill="#404040">
                                <set attributeName="fill" to="#808080" begin="zoomminus.mouseover" end="zoomminus.mouseout"/>
                        </use>
                        <path d="M-4,0h8" fill="none" stroke="white" stroke-width="1.5" pointer-events="none"/>
                </g>
                <g id="dirArrow">
                        <path fill="none" stroke="white" stroke-width="1.5" d="M0,-3.0v7 M-2.5,-0.5L0,-3.0L2.5,-0.5"/>
                </g>
               <g id="resetDef">
                       <use xlink:href="#rim2" fill="#404040">
                               <set attributeName="fill" to="#808080" begin="reset.mouseover" end="reset.mouseout"/>
                       </use>
               </g>
        </defs>

<script type="text/javascript">
var viewWidth = 666;
var viewHeight = 1141;
var sectionId = 'dynsection-0';
</script>
<script xlink:href="svgpan.js"/>
<svg id="graph" class="graph">
<g id="viewport">
<title>png_image</title>
<polygon fill="white" stroke="none" points="-4,4 -4,-1137 662,-1137 662,4 -4,4"/>
<!-- Node1 -->
<g id="node1" class="node"><title>Node1</title>
<polygon fill="#bfbfbf" stroke="black" points="67.5,-0.5 67.5,-134.5 167.5,-134.5 167.5,-0.5 67.5,-0.5"/>
<text text-anchor="middle" x="117.5" y="-122.5" font-family="Helvetica,sans-Serif" font-size="10.00">png_image</text>
<polyline fill="none" stroke="black" points="67.5,-115.5 167.5,-115.5 "/>
<text text-anchor="start" x="75.5" y="-103.5" font-family="Helvetica,sans-Serif" font-size="10.00">+ version</text>
<text text-anchor="start" x="75.5" y="-92.5" font-family="Helvetica,sans-Serif" font-size="10.00">+ width</text>
<text text-anchor="start" x="75.5" y="-81.5" font-family="Helvetica,sans-Serif" font-size="10.00">+ height</text>
<text text-anchor="start" x="75.5" y="-70.5" font-family="Helvetica,sans-Serif" font-size="10.00">+ format</text>
<text text-anchor="start" x="75.5" y="-59.5" font-family="Helvetica,sans-Serif" font-size="10.00">+ flags</text>
<text text-anchor="start" x="75.5" y="-48.5" font-family="Helvetica,sans-Serif" font-size="10.00">+ colormap_entries</text>
<text text-anchor="start" x="75.5" y="-37.5" font-family="Helvetica,sans-Serif" font-size="10.00">+ warning_or_error</text>
<text text-anchor="start" x="75.5" y="-26.5" font-family="Helvetica,sans-Serif" font-size="10.00">+ message</text>
<polyline fill="none" stroke="black" points="67.5,-19.5 167.5,-19.5 "/>
<text text-anchor="middle" x="117.5" y="-7.5" font-family="Helvetica,sans-Serif" font-size="10.00"> </text>
</g>
<!-- Node2 -->
<g id="node2" class="node"><title>Node2</title>
<g id="a_node2"><a xlink:href="structpng__control.html" target="_top" xlink:title="{png_control\n|+ error_buf\l+ memory\l+ size\l+ for_write\l+ owned_file\l|}">
<polygon fill="white" stroke="black" points="81.5,-182.5 81.5,-283.5 153.5,-283.5 153.5,-182.5 81.5,-182.5"/>
<text text-anchor="middle" x="117.5" y="-271.5" font-family="Helvetica,sans-Serif" font-size="10.00">png_control</text>
<polyline fill="none" stroke="black" points="81.5,-264.5 153.5,-264.5 "/>
<text text-anchor="start" x="89.5" y="-252.5" font-family="Helvetica,sans-Serif" font-size="10.00">+ error_buf</text>
<text text-anchor="start" x="89.5" y="-241.5" font-family="Helvetica,sans-Serif" font-size="10.00">+ memory</text>
<text text-anchor="start" x="89.5" y="-230.5" font-family="Helvetica,sans-Serif" font-size="10.00">+ size</text>
<text text-anchor="start" x="89.5" y="-219.5" font-family="Helvetica,sans-Serif" font-size="10.00">+ for_write</text>
<text text-anchor="start" x="89.5" y="-208.5" font-family="Helvetica,sans-Serif" font-size="10.00">+ owned_file</text>
<polyline fill="none" stroke="black" points="81.5,-201.5 153.5,-201.5 "/>
<text text-anchor="middle" x="117.5" y="-189.5" font-family="Helvetica,sans-Serif" font-size="10.00"> </text>
</a>
</g>
</g>
<!-- Node2&#45;&gt;Node1 -->
<g id="edge1" class="edge"><title>Node2&#45;&gt;Node1</title>
<path fill="none" stroke="#404040" d="M117.5,-182.056C117.5,-170.974 117.5,-158.968 117.5,-147.053"/>
<polygon fill="none" stroke="#404040" points="117.5,-146.711 113.5,-140.711 117.5,-134.711 121.5,-140.711 117.5,-146.711"/>
<text text-anchor="middle" x="138" y="-156" font-family="Helvetica,sans-Serif" font-size="10.00"> +opaque</text>
</g>
<!-- Node3 -->
<g id="node3" class="node"><title>Node3</title>
<g id="a_node3"><a xlink:href="structpng__info__def.html" target="_top" xlink:title="{png_info_def\n|+ width\l+ height\l+ valid\l+ rowbytes\l+ num_palette\l+ num_trans\l+ bit_depth\l+ color_type\l+ compression_type\l+ filter_type\l+ interlace_type\l+ channels\l+ pixel_depth\l+ spare_byte\l+ free_me\l|}">
<polygon fill="white" stroke="black" points="0,-331.5 0,-542.5 105,-542.5 105,-331.5 0,-331.5"/>
<text text-anchor="middle" x="52.5" y="-530.5" font-family="Helvetica,sans-Serif" font-size="10.00">png_info_def</text>
<polyline fill="none" stroke="black" points="0,-523.5 105,-523.5 "/>
<text text-anchor="start" x="8" y="-511.5" font-family="Helvetica,sans-Serif" font-size="10.00">+ width</text>
<text text-anchor="start" x="8" y="-500.5" font-family="Helvetica,sans-Serif" font-size="10.00">+ height</text>
<text text-anchor="start" x="8" y="-489.5" font-family="Helvetica,sans-Serif" font-size="10.00">+ valid</text>
<text text-anchor="start" x="8" y="-478.5" font-family="Helvetica,sans-Serif" font-size="10.00">+ rowbytes</text>
<text text-anchor="start" x="8" y="-467.5" font-family="Helvetica,sans-Serif" font-size="10.00">+ num_palette</text>
<text text-anchor="start" x="8" y="-456.5" font-family="Helvetica,sans-Serif" font-size="10.00">+ num_trans</text>
<text text-anchor="start" x="8" y="-445.5" font-family="Helvetica,sans-Serif" font-size="10.00">+ bit_depth</text>
<text text-anchor="start" x="8" y="-434.5" font-family="Helvetica,sans-Serif" font-size="10.00">+ color_type</text>
<text text-anchor="start" x="8" y="-423.5" font-family="Helvetica,sans-Serif" font-size="10.00">+ compression_type</text>
<text text-anchor="start" x="8" y="-412.5" font-family="Helvetica,sans-Serif" font-size="10.00">+ filter_type</text>
<text text-anchor="start" x="8" y="-401.5" font-family="Helvetica,sans-Serif" font-size="10.00">+ interlace_type</text>
<text text-anchor="start" x="8" y="-390.5" font-family="Helvetica,sans-Serif" font-size="10.00">+ channels</text>
<text text-anchor="start" x="8" y="-379.5" font-family="Helvetica,sans-Serif" font-size="10.00">+ pixel_depth</text>
<text text-anchor="start" x="8" y="-368.5" font-family="Helvetica,sans-Serif" font-size="10.00">+ spare_byte</text>
<text text-anchor="start" x="8" y="-357.5" font-family="Helvetica,sans-Serif" font-size="10.00">+ free_me</text>
<polyline fill="none" stroke="black" points="0,-350.5 105,-350.5 "/>
<text text-anchor="middle" x="52.5" y="-338.5" font-family="Helvetica,sans-Serif" font-size="10.00"> </text>
</a>
</g>
</g>
<!-- Node3&#45;&gt;Node2 -->
<g id="edge2" class="edge"><title>Node3&#45;&gt;Node2</title>
<path fill="none" stroke="#404040" d="M81.036,-331.438C84.0974,-321.446 87.2753,-311.503 90.5,-302 91.2972,-299.651 92.1299,-297.264 92.9881,-294.859"/>
<polygon fill="none" stroke="#404040" points="93.0065,-294.809 91.3256,-287.797 97.1521,-283.548 98.833,-290.561 93.0065,-294.809"/>
<text text-anchor="middle" x="111.5" y="-305" font-family="Helvetica,sans-Serif" font-size="10.00"> +info_ptr</text>
</g>
<!-- Node4 -->
<g id="node4" class="node"><title>Node4</title>
<g id="a_node4"><a xlink:href="structpng__color__struct.html" target="_top" xlink:title="{png_color_struct\n|+ red\l+ green\l+ blue\l|}">
<polygon fill="white" stroke="black" points="40,-667.5 40,-746.5 129,-746.5 129,-667.5 40,-667.5"/>
<text text-anchor="middle" x="84.5" y="-734.5" font-family="Helvetica,sans-Serif" font-size="10.00">png_color_struct</text>
<polyline fill="none" stroke="black" points="40,-727.5 129,-727.5 "/>
<text text-anchor="start" x="48" y="-715.5" font-family="Helvetica,sans-Serif" font-size="10.00">+ red</text>
<text text-anchor="start" x="48" y="-704.5" font-family="Helvetica,sans-Serif" font-size="10.00">+ green</text>
<text text-anchor="start" x="48" y="-693.5" font-family="Helvetica,sans-Serif" font-size="10.00">+ blue</text>
<polyline fill="none" stroke="black" points="40,-686.5 129,-686.5 "/>
<text text-anchor="middle" x="84.5" y="-674.5" font-family="Helvetica,sans-Serif" font-size="10.00"> </text>
</a>
</g>
</g>
<!-- Node4&#45;&gt;Node3 -->
<g id="edge3" class="edge"><title>Node4&#45;&gt;Node3</title>
<path fill="none" stroke="#404040" d="M76.6001,-667.272C72.4624,-645.769 67.6209,-618.492 64.5,-594 62.8833,-581.312 61.4554,-568.015 60.2015,-554.76"/>
<polygon fill="none" stroke="#404040" points="60.1842,-554.57 55.6577,-548.956 59.0984,-542.619 63.6249,-548.232 60.1842,-554.57"/>
<text text-anchor="middle" x="84" y="-575" font-family="Helvetica,sans-Serif" font-size="10.00"> +palette</text>
</g>
<!-- Node5 -->
<g id="node5" class="node"><title>Node5</title>
<g id="a_node5"><a xlink:href="structpng__struct__def.html" target="_top" xlink:title="{png_struct_def\n|+ error_ptr\l+ io_ptr\l+ mode\l+ flags\l+ transformations\l+ zowner\l+ width\l+ height\l+ num_rows\l+ usr_width\land 30 more...\l|}">
<polygon fill="white" stroke="black" points="123,-353.5 123,-520.5 216,-520.5 216,-353.5 123,-353.5"/>
<text text-anchor="middle" x="169.5" y="-508.5" font-family="Helvetica,sans-Serif" font-size="10.00">png_struct_def</text>
<polyline fill="none" stroke="black" points="123,-501.5 216,-501.5 "/>
<text text-anchor="start" x="131" y="-489.5" font-family="Helvetica,sans-Serif" font-size="10.00">+ error_ptr</text>
<text text-anchor="start" x="131" y="-478.5" font-family="Helvetica,sans-Serif" font-size="10.00">+ io_ptr</text>
<text text-anchor="start" x="131" y="-467.5" font-family="Helvetica,sans-Serif" font-size="10.00">+ mode</text>
<text text-anchor="start" x="131" y="-456.5" font-family="Helvetica,sans-Serif" font-size="10.00">+ flags</text>
<text text-anchor="start" x="131" y="-445.5" font-family="Helvetica,sans-Serif" font-size="10.00">+ transformations</text>
<text text-anchor="start" x="131" y="-434.5" font-family="Helvetica,sans-Serif" font-size="10.00">+ zowner</text>
<text text-anchor="start" x="131" y="-423.5" font-family="Helvetica,sans-Serif" font-size="10.00">+ width</text>
<text text-anchor="start" x="131" y="-412.5" font-family="Helvetica,sans-Serif" font-size="10.00">+ height</text>
<text text-anchor="start" x="131" y="-401.5" font-family="Helvetica,sans-Serif" font-size="10.00">+ num_rows</text>
<text text-anchor="start" x="131" y="-390.5" font-family="Helvetica,sans-Serif" font-size="10.00">+ usr_width</text>
<text text-anchor="start" x="131" y="-379.5" font-family="Helvetica,sans-Serif" font-size="10.00">and 30 more...</text>
<polyline fill="none" stroke="black" points="123,-372.5 216,-372.5 "/>
<text text-anchor="middle" x="169.5" y="-360.5" font-family="Helvetica,sans-Serif" font-size="10.00"> </text>
</a>
</g>
</g>
<!-- Node4&#45;&gt;Node5 -->
<g id="edge5" class="edge"><title>Node4&#45;&gt;Node5</title>
<path fill="none" stroke="#404040" d="M96.769,-667.317C107.937,-632.105 124.879,-578.687 139.603,-532.264"/>
<polygon fill="none" stroke="#404040" points="139.665,-532.067 137.667,-525.138 143.293,-520.628 145.292,-527.557 139.665,-532.067"/>
<text text-anchor="middle" x="150" y="-575" font-family="Helvetica,sans-Serif" font-size="10.00"> +palette</text>
</g>
<!-- Node5&#45;&gt;Node2 -->
<g id="edge4" class="edge"><title>Node5&#45;&gt;Node2</title>
<path fill="none" stroke="#404040" d="M148.2,-353.256C143.207,-333.861 137.975,-313.537 133.274,-295.275"/>
<polygon fill="none" stroke="#404040" points="133.26,-295.223 127.891,-290.409 130.269,-283.602 135.638,-288.415 133.26,-295.223"/>
<text text-anchor="middle" x="158.5" y="-305" font-family="Helvetica,sans-Serif" font-size="10.00"> +png_ptr</text>
</g>
<!-- Node5&#45;&gt;Node5 -->
<g id="edge15" class="edge"><title>Node5&#45;&gt;Node5</title>
<path fill="none" stroke="#404040" d="M216.174,-460.354C226.488,-458.16 234,-450.375 234,-437 234,-429.059 231.352,-423.088 227.041,-419.088"/>
<polygon fill="none" stroke="#404040" points="226.903,-419.019 219.747,-419.909 216.174,-413.646 223.33,-412.756 226.903,-419.019"/>
<text text-anchor="middle" x="268" y="-456.5" font-family="Helvetica,sans-Serif" font-size="10.00"> +write_data_fn</text>
<text text-anchor="middle" x="268" y="-445.5" font-family="Helvetica,sans-Serif" font-size="10.00">+error_fn</text>
<text text-anchor="middle" x="268" y="-434.5" font-family="Helvetica,sans-Serif" font-size="10.00">+write_row_fn</text>
<text text-anchor="middle" x="268" y="-423.5" font-family="Helvetica,sans-Serif" font-size="10.00">+read_data_fn</text>
<text text-anchor="middle" x="268" y="-412.5" font-family="Helvetica,sans-Serif" font-size="10.00">+read_row_fn</text>
</g>
<!-- Node6 -->
<g id="node6" class="node"><title>Node6</title>
<g id="a_node6"><a xlink:href="structz__stream__s.html" target="_top" xlink:title="{z_stream_s\n|+ next_in\l+ avail_in\l+ total_in\l+ next_out\l+ avail_out\l+ total_out\l+ msg\l+ zalloc\l+ zfree\l+ opaque\l+ data_type\l+ adler\l+ reserved\l|}">
<polygon fill="white" stroke="black" points="228.5,-612.5 228.5,-801.5 296.5,-801.5 296.5,-612.5 228.5,-612.5"/>
<text text-anchor="middle" x="262.5" y="-789.5" font-family="Helvetica,sans-Serif" font-size="10.00">z_stream_s</text>
<polyline fill="none" stroke="black" points="228.5,-782.5 296.5,-782.5 "/>
<text text-anchor="start" x="236.5" y="-770.5" font-family="Helvetica,sans-Serif" font-size="10.00">+ next_in</text>
<text text-anchor="start" x="236.5" y="-759.5" font-family="Helvetica,sans-Serif" font-size="10.00">+ avail_in</text>
<text text-anchor="start" x="236.5" y="-748.5" font-family="Helvetica,sans-Serif" font-size="10.00">+ total_in</text>
<text text-anchor="start" x="236.5" y="-737.5" font-family="Helvetica,sans-Serif" font-size="10.00">+ next_out</text>
<text text-anchor="start" x="236.5" y="-726.5" font-family="Helvetica,sans-Serif" font-size="10.00">+ avail_out</text>
<text text-anchor="start" x="236.5" y="-715.5" font-family="Helvetica,sans-Serif" font-size="10.00">+ total_out</text>
<text text-anchor="start" x="236.5" y="-704.5" font-family="Helvetica,sans-Serif" font-size="10.00">+ msg</text>
<text text-anchor="start" x="236.5" y="-693.5" font-family="Helvetica,sans-Serif" font-size="10.00">+ zalloc</text>
<text text-anchor="start" x="236.5" y="-682.5" font-family="Helvetica,sans-Serif" font-size="10.00">+ zfree</text>
<text text-anchor="start" x="236.5" y="-671.5" font-family="Helvetica,sans-Serif" font-size="10.00">+ opaque</text>
<text text-anchor="start" x="236.5" y="-660.5" font-family="Helvetica,sans-Serif" font-size="10.00">+ data_type</text>
<text text-anchor="start" x="236.5" y="-649.5" font-family="Helvetica,sans-Serif" font-size="10.00">+ adler</text>
<text text-anchor="start" x="236.5" y="-638.5" font-family="Helvetica,sans-Serif" font-size="10.00">+ reserved</text>
<polyline fill="none" stroke="black" points="228.5,-631.5 296.5,-631.5 "/>
<text text-anchor="middle" x="262.5" y="-619.5" font-family="Helvetica,sans-Serif" font-size="10.00"> </text>
</a>
</g>
</g>
<!-- Node6&#45;&gt;Node5 -->
<g id="edge6" class="edge"><title>Node6&#45;&gt;Node5</title>
<path fill="none" stroke="#404040" d="M228.458,-658.102C216.33,-638.968 203.666,-616.225 195.5,-594 188.415,-574.718 183.251,-553.383 179.489,-532.84"/>
<polygon fill="none" stroke="#404040" points="179.463,-532.686 174.505,-527.449 177.433,-520.859 182.39,-526.096 179.463,-532.686"/>
<text text-anchor="middle" x="218" y="-575" font-family="Helvetica,sans-Serif" font-size="10.00"> +zstream</text>
</g>
<!-- Node7 -->
<g id="node7" class="node"><title>Node7</title>
<g id="a_node7"><a xlink:href="structinternal__state.html" target="_top" xlink:title="{internal_state\n|+ status\l+ pending_buf\l+ pending_buf_size\l+ pending_out\l+ pending\l+ wrap\l+ gzindex\l+ method\l+ last_flush\l+ w_size\land 42 more...\l|}">
<polygon fill="white" stroke="black" points="320,-353.5 320,-520.5 421,-520.5 421,-353.5 320,-353.5"/>
<text text-anchor="middle" x="370.5" y="-508.5" font-family="Helvetica,sans-Serif" font-size="10.00">internal_state</text>
<polyline fill="none" stroke="black" points="320,-501.5 421,-501.5 "/>
<text text-anchor="start" x="328" y="-489.5" font-family="Helvetica,sans-Serif" font-size="10.00">+ status</text>
<text text-anchor="start" x="328" y="-478.5" font-family="Helvetica,sans-Serif" font-size="10.00">+ pending_buf</text>
<text text-anchor="start" x="328" y="-467.5" font-family="Helvetica,sans-Serif" font-size="10.00">+ pending_buf_size</text>
<text text-anchor="start" x="328" y="-456.5" font-family="Helvetica,sans-Serif" font-size="10.00">+ pending_out</text>
<text text-anchor="start" x="328" y="-445.5" font-family="Helvetica,sans-Serif" font-size="10.00">+ pending</text>
<text text-anchor="start" x="328" y="-434.5" font-family="Helvetica,sans-Serif" font-size="10.00">+ wrap</text>
<text text-anchor="start" x="328" y="-423.5" font-family="Helvetica,sans-Serif" font-size="10.00">+ gzindex</text>
<text text-anchor="start" x="328" y="-412.5" font-family="Helvetica,sans-Serif" font-size="10.00">+ method</text>
<text text-anchor="start" x="328" y="-401.5" font-family="Helvetica,sans-Serif" font-size="10.00">+ last_flush</text>
<text text-anchor="start" x="328" y="-390.5" font-family="Helvetica,sans-Serif" font-size="10.00">+ w_size</text>
<text text-anchor="start" x="328" y="-379.5" font-family="Helvetica,sans-Serif" font-size="10.00">and 42 more...</text>
<polyline fill="none" stroke="black" points="320,-372.5 421,-372.5 "/>
<text text-anchor="middle" x="370.5" y="-360.5" font-family="Helvetica,sans-Serif" font-size="10.00"> </text>
</a>
</g>
</g>
<!-- Node6&#45;&gt;Node7 -->
<g id="edge13" class="edge"><title>Node6&#45;&gt;Node7</title>
<path fill="none" stroke="#404040" d="M258.96,-612.466C261.8,-594.275 267.404,-576.169 277.5,-561 286.757,-547.092 298.57,-554.696 310.5,-543 314.444,-539.134 318.21,-534.953 321.795,-530.564"/>
<polygon fill="none" stroke="#404040" points="322.07,-530.204 322.529,-523.007 329.349,-520.663 328.89,-527.86 322.07,-530.204"/>
<text text-anchor="middle" x="292" y="-575" font-family="Helvetica,sans-Serif" font-size="10.00"> +strm</text>
</g>
<!-- Node7&#45;&gt;Node6 -->
<g id="edge7" class="edge"><title>Node7&#45;&gt;Node6</title>
<path fill="none" stroke="#404040" d="M337.202,-520.628C325.8,-548.923 312.946,-580.819 301.156,-610.075"/>
<polygon fill="none" stroke="#404040" points="301.009,-610.441 302.476,-617.501 296.524,-621.571 295.056,-614.511 301.009,-610.441"/>
<text text-anchor="middle" x="336" y="-575" font-family="Helvetica,sans-Serif" font-size="10.00"> +state</text>
</g>
<!-- Node8 -->
<g id="node8" class="node"><title>Node8</title>
<g id="a_node8"><a xlink:href="structgz__header__s.html" target="_top" xlink:title="{gz_header_s\n|+ text\l+ time\l+ xflags\l+ os\l+ extra\l+ extra_len\l+ extra_max\l+ name\l+ name_max\l+ comment\l+ comm_max\l+ hcrc\l+ done\l|}">
<polygon fill="white" stroke="black" points="324,-612.5 324,-801.5 401,-801.5 401,-612.5 324,-612.5"/>
<text text-anchor="middle" x="362.5" y="-789.5" font-family="Helvetica,sans-Serif" font-size="10.00">gz_header_s</text>
<polyline fill="none" stroke="black" points="324,-782.5 401,-782.5 "/>
<text text-anchor="start" x="332" y="-770.5" font-family="Helvetica,sans-Serif" font-size="10.00">+ text</text>
<text text-anchor="start" x="332" y="-759.5" font-family="Helvetica,sans-Serif" font-size="10.00">+ time</text>
<text text-anchor="start" x="332" y="-748.5" font-family="Helvetica,sans-Serif" font-size="10.00">+ xflags</text>
<text text-anchor="start" x="332" y="-737.5" font-family="Helvetica,sans-Serif" font-size="10.00">+ os</text>
<text text-anchor="start" x="332" y="-726.5" font-family="Helvetica,sans-Serif" font-size="10.00">+ extra</text>
<text text-anchor="start" x="332" y="-715.5" font-family="Helvetica,sans-Serif" font-size="10.00">+ extra_len</text>
<text text-anchor="start" x="332" y="-704.5" font-family="Helvetica,sans-Serif" font-size="10.00">+ extra_max</text>
<text text-anchor="start" x="332" y="-693.5" font-family="Helvetica,sans-Serif" font-size="10.00">+ name</text>
<text text-anchor="start" x="332" y="-682.5" font-family="Helvetica,sans-Serif" font-size="10.00">+ name_max</text>
<text text-anchor="start" x="332" y="-671.5" font-family="Helvetica,sans-Serif" font-size="10.00">+ comment</text>
<text text-anchor="start" x="332" y="-660.5" font-family="Helvetica,sans-Serif" font-size="10.00">+ comm_max</text>
<text text-anchor="start" x="332" y="-649.5" font-family="Helvetica,sans-Serif" font-size="10.00">+ hcrc</text>
<text text-anchor="start" x="332" y="-638.5" font-family="Helvetica,sans-Serif" font-size="10.00">+ done</text>
<polyline fill="none" stroke="black" points="324,-631.5 401,-631.5 "/>
<text text-anchor="middle" x="362.5" y="-619.5" font-family="Helvetica,sans-Serif" font-size="10.00"> </text>
</a>
</g>
</g>
<!-- Node8&#45;&gt;Node7 -->
<g id="edge8" class="edge"><title>Node8&#45;&gt;Node7</title>
<path fill="none" stroke="#404040" d="M365.298,-612.267C366.068,-586.466 366.904,-558.469 367.676,-532.619"/>
<polygon fill="none" stroke="#404040" points="367.679,-532.51 363.86,-526.394 368.037,-520.516 371.856,-526.632 367.679,-532.51"/>
<text text-anchor="middle" x="388" y="-575" font-family="Helvetica,sans-Serif" font-size="10.00"> +gzhead</text>
</g>
<!-- Node9 -->
<g id="node9" class="node"><title>Node9</title>
<g id="a_node9"><a xlink:href="structtree__desc__s.html" target="_top" xlink:title="{tree_desc_s\n|+ max_code\l|}">
<polygon fill="white" stroke="black" points="458,-678.5 458,-735.5 529,-735.5 529,-678.5 458,-678.5"/>
<text text-anchor="middle" x="493.5" y="-723.5" font-family="Helvetica,sans-Serif" font-size="10.00">tree_desc_s</text>
<polyline fill="none" stroke="black" points="458,-716.5 529,-716.5 "/>
<text text-anchor="start" x="466" y="-704.5" font-family="Helvetica,sans-Serif" font-size="10.00">+ max_code</text>
<polyline fill="none" stroke="black" points="458,-697.5 529,-697.5 "/>
<text text-anchor="middle" x="493.5" y="-685.5" font-family="Helvetica,sans-Serif" font-size="10.00"> </text>
</a>
</g>
</g>
<!-- Node9&#45;&gt;Node7 -->
<g id="edge9" class="edge"><title>Node9&#45;&gt;Node7</title>
<path fill="none" stroke="#404040" d="M485.802,-678.36C477.121,-648.693 461.801,-600.504 443.5,-561 438.529,-550.269 432.881,-539.274 426.98,-528.485"/>
<polygon fill="none" stroke="#404040" points="426.855,-528.261 420.439,-524.97 421.01,-517.781 427.426,-521.073 426.855,-528.261"/>
<text text-anchor="middle" x="477.5" y="-586" font-family="Helvetica,sans-Serif" font-size="10.00"> +l_desc</text>
<text text-anchor="middle" x="477.5" y="-575" font-family="Helvetica,sans-Serif" font-size="10.00">+d_desc</text>
<text text-anchor="middle" x="477.5" y="-564" font-family="Helvetica,sans-Serif" font-size="10.00">+bl_desc</text>
</g>
<!-- Node10 -->
<g id="node10" class="node"><title>Node10</title>
<g id="a_node10"><a xlink:href="structstatic__tree__desc__s.html" target="_top" xlink:title="{static_tree_desc_s\n|+ dummy\l+ extra_bits\l+ extra_base\l+ elems\l+ max_length\l|}">
<polygon fill="white" stroke="black" points="559,-871.5 559,-972.5 658,-972.5 658,-871.5 559,-871.5"/>
<text text-anchor="middle" x="608.5" y="-960.5" font-family="Helvetica,sans-Serif" font-size="10.00">static_tree_desc_s</text>
<polyline fill="none" stroke="black" points="559,-953.5 658,-953.5 "/>
<text text-anchor="start" x="567" y="-941.5" font-family="Helvetica,sans-Serif" font-size="10.00">+ dummy</text>
<text text-anchor="start" x="567" y="-930.5" font-family="Helvetica,sans-Serif" font-size="10.00">+ extra_bits</text>
<text text-anchor="start" x="567" y="-919.5" font-family="Helvetica,sans-Serif" font-size="10.00">+ extra_base</text>
<text text-anchor="start" x="567" y="-908.5" font-family="Helvetica,sans-Serif" font-size="10.00">+ elems</text>
<text text-anchor="start" x="567" y="-897.5" font-family="Helvetica,sans-Serif" font-size="10.00">+ max_length</text>
<polyline fill="none" stroke="black" points="559,-890.5 658,-890.5 "/>
<text text-anchor="middle" x="608.5" y="-878.5" font-family="Helvetica,sans-Serif" font-size="10.00"> </text>
</a>
</g>
</g>
<!-- Node10&#45;&gt;Node9 -->
<g id="edge10" class="edge"><title>Node10&#45;&gt;Node9</title>
<path fill="none" stroke="#404040" d="M581.683,-871.33C561.081,-833.172 533.047,-781.249 514.166,-746.276"/>
<polygon fill="none" stroke="#404040" points="514.079,-746.115 507.709,-742.736 508.378,-735.556 514.748,-738.935 514.079,-746.115"/>
<text text-anchor="middle" x="596.5" y="-834" font-family="Helvetica,sans-Serif" font-size="10.00"> +stat_desc</text>
</g>
<!-- Node11 -->
<g id="node11" class="node"><title>Node11</title>
<g id="a_node11"><a xlink:href="structct__data__s.html" target="_top" xlink:title="{ct_data_s\n|+ freq\l+ code\l+ fc\l+ dad\l+ len\l+ dl\l|}">
<polygon fill="white" stroke="black" points="464,-1020.5 464,-1132.5 523,-1132.5 523,-1020.5 464,-1020.5"/>
<text text-anchor="middle" x="493.5" y="-1120.5" font-family="Helvetica,sans-Serif" font-size="10.00">ct_data_s</text>
<polyline fill="none" stroke="black" points="464,-1113.5 523,-1113.5 "/>
<text text-anchor="start" x="472" y="-1101.5" font-family="Helvetica,sans-Serif" font-size="10.00">+ freq</text>
<text text-anchor="start" x="472" y="-1090.5" font-family="Helvetica,sans-Serif" font-size="10.00">+ code</text>
<text text-anchor="start" x="472" y="-1079.5" font-family="Helvetica,sans-Serif" font-size="10.00">+ fc</text>
<text text-anchor="start" x="472" y="-1068.5" font-family="Helvetica,sans-Serif" font-size="10.00">+ dad</text>
<text text-anchor="start" x="472" y="-1057.5" font-family="Helvetica,sans-Serif" font-size="10.00">+ len</text>
<text text-anchor="start" x="472" y="-1046.5" font-family="Helvetica,sans-Serif" font-size="10.00">+ dl</text>
<polyline fill="none" stroke="black" points="464,-1039.5 523,-1039.5 "/>
<text text-anchor="middle" x="493.5" y="-1027.5" font-family="Helvetica,sans-Serif" font-size="10.00"> </text>
</a>
</g>
</g>
<!-- Node11&#45;&gt;Node7 -->
<g id="edge14" class="edge"><title>Node11&#45;&gt;Node7</title>
<path fill="none" stroke="#404040" d="M478.063,-1020.16C466.127,-975.399 450.072,-910.582 440.5,-853 419.122,-724.392 439.974,-688.445 412.5,-561 410.472,-551.591 407.953,-541.902 405.164,-532.289"/>
<polygon fill="none" stroke="#404040" points="405.111,-532.111 399.547,-527.523 401.643,-520.623 407.206,-525.211 405.111,-532.111"/>
<text text-anchor="middle" x="465" y="-845" font-family="Helvetica,sans-Serif" font-size="10.00"> +dyn_ltree</text>
<text text-anchor="middle" x="465" y="-834" font-family="Helvetica,sans-Serif" font-size="10.00">+bl_tree</text>
<text text-anchor="middle" x="465" y="-823" font-family="Helvetica,sans-Serif" font-size="10.00">+dyn_dtree</text>
</g>
<!-- Node11&#45;&gt;Node9 -->
<g id="edge12" class="edge"><title>Node11&#45;&gt;Node9</title>
<path fill="none" stroke="#404040" d="M493.5,-1020.48C493.5,-945.769 493.5,-813.995 493.5,-748.007"/>
<polygon fill="none" stroke="#404040" points="493.5,-747.723 489.5,-741.723 493.5,-735.723 497.5,-741.723 493.5,-747.723"/>
<text text-anchor="middle" x="517" y="-919.5" font-family="Helvetica,sans-Serif" font-size="10.00"> +dyn_tree</text>
</g>
<!-- Node11&#45;&gt;Node10 -->
<g id="edge11" class="edge"><title>Node11&#45;&gt;Node10</title>
<path fill="none" stroke="#404040" d="M523.115,-1036.23C535.526,-1019.77 550.223,-1000.28 563.895,-982.15"/>
<polygon fill="none" stroke="#404040" points="563.923,-982.113 564.342,-974.914 571.148,-972.532 570.729,-979.731 563.923,-982.113"/>
<text text-anchor="middle" x="581" y="-994" font-family="Helvetica,sans-Serif" font-size="10.00"> +static_tree</text>
</g>
</g>
</svg>
        <g id="navigator" transform="translate(0 0)" fill="#404254">
                <rect fill="#f2f5e9" fill-opacity="0.5" stroke="#606060" stroke-width=".5" x="0" y="0" width="60" height="60"/>
                <use id="zoomplus" xlink:href="#zoomPlus" x="17" y="9" onmousedown="handleZoom(evt,'in')"/>
                <use id="zoomminus" xlink:href="#zoomMin" x="42" y="9" onmousedown="handleZoom(evt,'out')"/>
                <use id="reset" xlink:href="#resetDef" x="30" y="36" onmousedown="handleReset()"/>
                <g id="arrowUp" xlink:href="#dirArrow" transform="translate(30 24)" onmousedown="handlePan(0,-1)">
                  <use xlink:href="#rim" fill="#404040">
                        <set attributeName="fill" to="#808080" begin="arrowUp.mouseover" end="arrowUp.mouseout"/>
                  </use>
                  <path fill="none" stroke="white" stroke-width="1.5" d="M0,-3.0v7 M-2.5,-0.5L0,-3.0L2.5,-0.5"/>
                </g>
                <g id="arrowRight" xlink:href="#dirArrow" transform="rotate(90) translate(36 -43)" onmousedown="handlePan(1,0)">
                  <use xlink:href="#rim" fill="#404040">
                        <set attributeName="fill" to="#808080" begin="arrowRight.mouseover" end="arrowRight.mouseout"/>
                  </use>
                  <path fill="none" stroke="white" stroke-width="1.5" d="M0,-3.0v7 M-2.5,-0.5L0,-3.0L2.5,-0.5"/>
                </g>
                <g id="arrowDown" xlink:href="#dirArrow" transform="rotate(180) translate(-30 -48)" onmousedown="handlePan(0,1)">
                  <use xlink:href="#rim" fill="#404040">
                        <set attributeName="fill" to="#808080" begin="arrowDown.mouseover" end="arrowDown.mouseout"/>
                  </use>
                  <path fill="none" stroke="white" stroke-width="1.5" d="M0,-3.0v7 M-2.5,-0.5L0,-3.0L2.5,-0.5"/>
                </g>
                <g id="arrowLeft" xlink:href="#dirArrow" transform="rotate(270) translate(-36 17)" onmousedown="handlePan(-1,0)">
                  <use xlink:href="#rim" fill="#404040">
                        <set attributeName="fill" to="#808080" begin="arrowLeft.mouseover" end="arrowLeft.mouseout"/>
                  </use>
                  <path fill="none" stroke="white" stroke-width="1.5" d="M0,-3.0v7 M-2.5,-0.5L0,-3.0L2.5,-0.5"/>
                </g>
        </g>
        <svg viewBox="0 0 15 15" width="100%" height="30px" preserveAspectRatio="xMaxYMin meet">
         <g id="arrow_out" transform="scale(0.3 0.3)">
          <a xlink:href="structpng__image__coll__graph_org.svg" target="_base">
           <rect id="button" ry="5" rx="5" y="6" x="6" height="38" width="38"
                fill="#f2f5e9" fill-opacity="0.5" stroke="#606060" stroke-width="1.0"/>
           <path id="arrow"
             d="M 11.500037,31.436501 C 11.940474,20.09759 22.043105,11.32322 32.158766,21.979434 L 37.068811,17.246167 C 37.068811,17.246167 37.088388,32 37.088388,32 L 22.160133,31.978069 C 22.160133,31.978069 26.997745,27.140456 26.997745,27.140456 C 18.528582,18.264221 13.291696,25.230495 11.500037,31.436501 z"
             style="fill:#404040;"/>
          </a>
         </g>
        </svg>
</svg>
