<?xml version="1.0" encoding="UTF-8" standalone="no"?>
<!DOCTYPE svg PUBLIC "-//W3C//DTD SVG 1.1//EN"
 "http://www.w3.org/Graphics/SVG/1.1/DTD/svg11.dtd">
<!-- Generated by graphviz version 2.38.0 (20140413.2041)
 -->
<!-- Title: my_destination_mgr Pages: 1 -->
<svg width="123pt" height="226pt"
 viewBox="0.00 0.00 123.00 226.00" xmlns="http://www.w3.org/2000/svg" xmlns:xlink="http://www.w3.org/1999/xlink">
<g id="graph0" class="graph" transform="scale(1 1) rotate(0) translate(4 222)">
<title>my_destination_mgr</title>
<polygon fill="white" stroke="none" points="-4,4 -4,-222 119,-222 119,4 -4,4"/>
<!-- Node1 -->
<g id="node1" class="node"><title>Node1</title>
<polygon fill="#bfbfbf" stroke="black" points="5.5,-0.5 5.5,-68.5 109.5,-68.5 109.5,-0.5 5.5,-0.5"/>
<text text-anchor="middle" x="57.5" y="-56.5" font-family="Helvetica,sans-Serif" font-size="10.00">my_destination_mgr</text>
<polyline fill="none" stroke="black" points="5.5,-49.5 109.5,-49.5 "/>
<text text-anchor="start" x="13.5" y="-37.5" font-family="Helvetica,sans-Serif" font-size="10.00">+ outfile</text>
<text text-anchor="start" x="13.5" y="-26.5" font-family="Helvetica,sans-Serif" font-size="10.00">+ buffer</text>
<polyline fill="none" stroke="black" points="5.5,-19.5 109.5,-19.5 "/>
<text text-anchor="middle" x="57.5" y="-7.5" font-family="Helvetica,sans-Serif" font-size="10.00"> </text>
</g>
<!-- Node2 -->
<g id="node2" class="node"><title>Node2</title>
<g id="a_node2"><a xlink:href="structjpeg__destination__mgr.html" target="_top" xlink:title="{jpeg_destination_mgr\n|+ next_output_byte\l+ free_in_buffer\l+ init_destination\l+ empty_output_buffer\l+ term_destination\l|}">
<polygon fill="white" stroke="black" points="-7.10543e-15,-116.5 -7.10543e-15,-217.5 115,-217.5 115,-116.5 -7.10543e-15,-116.5"/>
<text text-anchor="middle" x="57.5" y="-205.5" font-family="Helvetica,sans-Serif" font-size="10.00">jpeg_destination_mgr</text>
<polyline fill="none" stroke="black" points="-7.10543e-15,-198.5 115,-198.5 "/>
<text text-anchor="start" x="8" y="-186.5" font-family="Helvetica,sans-Serif" font-size="10.00">+ next_output_byte</text>
<text text-anchor="start" x="8" y="-175.5" font-family="Helvetica,sans-Serif" font-size="10.00">+ free_in_buffer</text>
<text text-anchor="start" x="8" y="-164.5" font-family="Helvetica,sans-Serif" font-size="10.00">+ init_destination</text>
<text text-anchor="start" x="8" y="-153.5" font-family="Helvetica,sans-Serif" font-size="10.00">+ empty_output_buffer</text>
<text text-anchor="start" x="8" y="-142.5" font-family="Helvetica,sans-Serif" font-size="10.00">+ term_destination</text>
<polyline fill="none" stroke="black" points="-7.10543e-15,-135.5 115,-135.5 "/>
<text text-anchor="middle" x="57.5" y="-123.5" font-family="Helvetica,sans-Serif" font-size="10.00"> </text>
</a>
</g>
</g>
<!-- Node2&#45;&gt;Node1 -->
<g id="edge1" class="edge"><title>Node2&#45;&gt;Node1</title>
<path fill="none" stroke="#404040" d="M57.5,-116.291C57.5,-104.548 57.5,-92.092 57.5,-80.5675"/>
<polygon fill="none" stroke="#404040" points="57.5001,-80.5058 53.5,-74.5058 57.5,-68.5058 61.5,-74.5057 57.5001,-80.5058"/>
<text text-anchor="middle" x="70" y="-90" font-family="Helvetica,sans-Serif" font-size="10.00"> +pub</text>
</g>
</g>
</svg>
