<?xml version="1.0" encoding="UTF-8" standalone="no"?>
<!DOCTYPE svg PUBLIC "-//W3C//DTD SVG 1.1//EN"
 "http://www.w3.org/Graphics/SVG/1.1/DTD/svg11.dtd">
<!-- Generated by graphviz version 2.38.0 (20140413.2041)
 -->
<!-- Title: jpeg_memory_mgr Pages: 1 -->
<!--zoomable 529 -->
<svg id="main" version="1.1" xmlns="http://www.w3.org/2000/svg" xmlns:xlink="http://www.w3.org/1999/xlink" xml:space="preserve" onload="init(evt)">
<style type="text/css"><![CDATA[
.edge:hover path { stroke: red; }
.edge:hover polygon { stroke: red; fill: red; }
]]></style>
<script type="text/javascript"><![CDATA[
var edges = document.getElementsByTagName('g');
if (edges && edges.length) {
  for (var i=0;i<edges.length;i++) {
    if (edges[i].id.substr(0,4)=='edge') {
      edges[i].setAttribute('class','edge');
    }
  }
}
]]></script>
        <defs>
                <circle id="rim" cx="0" cy="0" r="7"/>
                <circle id="rim2" cx="0" cy="0" r="3.5"/>
                <g id="zoomPlus">
                        <use xlink:href="#rim" fill="#404040">
                                <set attributeName="fill" to="#808080" begin="zoomplus.mouseover" end="zoomplus.mouseout"/>
                        </use>
                        <path d="M-4,0h8M0,-4v8" fill="none" stroke="white" stroke-width="1.5" pointer-events="none"/>
                </g>
                <g id="zoomMin">
                        <use xlink:href="#rim" fill="#404040">
                                <set attributeName="fill" to="#808080" begin="zoomminus.mouseover" end="zoomminus.mouseout"/>
                        </use>
                        <path d="M-4,0h8" fill="none" stroke="white" stroke-width="1.5" pointer-events="none"/>
                </g>
                <g id="dirArrow">
                        <path fill="none" stroke="white" stroke-width="1.5" d="M0,-3.0v7 M-2.5,-0.5L0,-3.0L2.5,-0.5"/>
                </g>
               <g id="resetDef">
                       <use xlink:href="#rim2" fill="#404040">
                               <set attributeName="fill" to="#808080" begin="reset.mouseover" end="reset.mouseout"/>
                       </use>
               </g>
        </defs>

<script type="text/javascript">
var viewWidth = 316;
var viewHeight = 529;
var sectionId = 'dynsection-0';
</script>
<script xlink:href="svgpan.js"/>
<svg id="graph" class="graph">
<g id="viewport">
<title>jpeg_memory_mgr</title>
<polygon fill="white" stroke="none" points="-4,4 -4,-525 312,-525 312,4 -4,4"/>
<!-- Node1 -->
<g id="node1" class="node"><title>Node1</title>
<polygon fill="#bfbfbf" stroke="black" points="60,-0.5 60,-167.5 179,-167.5 179,-0.5 60,-0.5"/>
<text text-anchor="middle" x="119.5" y="-155.5" font-family="Helvetica,sans-Serif" font-size="10.00">jpeg_memory_mgr</text>
<polyline fill="none" stroke="black" points="60,-148.5 179,-148.5 "/>
<text text-anchor="start" x="68" y="-136.5" font-family="Helvetica,sans-Serif" font-size="10.00">+ alloc_small</text>
<text text-anchor="start" x="68" y="-125.5" font-family="Helvetica,sans-Serif" font-size="10.00">+ alloc_large</text>
<text text-anchor="start" x="68" y="-114.5" font-family="Helvetica,sans-Serif" font-size="10.00">+ alloc_sarray</text>
<text text-anchor="start" x="68" y="-103.5" font-family="Helvetica,sans-Serif" font-size="10.00">+ alloc_barray</text>
<text text-anchor="start" x="68" y="-92.5" font-family="Helvetica,sans-Serif" font-size="10.00">+ realize_virt_arrays</text>
<text text-anchor="start" x="68" y="-81.5" font-family="Helvetica,sans-Serif" font-size="10.00">+ access_virt_sarray</text>
<text text-anchor="start" x="68" y="-70.5" font-family="Helvetica,sans-Serif" font-size="10.00">+ access_virt_barray</text>
<text text-anchor="start" x="68" y="-59.5" font-family="Helvetica,sans-Serif" font-size="10.00">+ free_pool</text>
<text text-anchor="start" x="68" y="-48.5" font-family="Helvetica,sans-Serif" font-size="10.00">+ self_destruct</text>
<text text-anchor="start" x="68" y="-37.5" font-family="Helvetica,sans-Serif" font-size="10.00">+ max_memory_to_use</text>
<text text-anchor="start" x="68" y="-26.5" font-family="Helvetica,sans-Serif" font-size="10.00">+ max_alloc_chunk</text>
<polyline fill="none" stroke="black" points="60,-19.5 179,-19.5 "/>
<text text-anchor="middle" x="119.5" y="-7.5" font-family="Helvetica,sans-Serif" font-size="10.00"> </text>
</g>
<!-- Node2 -->
<g id="node2" class="node"><title>Node2</title>
<g id="a_node2"><a xlink:href="structjvirt__barray__control.html" target="_top" xlink:title="{jvirt_barray_control\n|+ mem_buffer\l+ rows_in_array\l+ blocksperrow\l+ maxaccess\l+ rows_in_mem\l+ rowsperchunk\l+ cur_start_row\l+ first_undef_row\l+ pre_zero\l+ dirty\l+ b_s_open\l|}">
<polygon fill="white" stroke="black" points="0,-215.5 0,-382.5 99,-382.5 99,-215.5 0,-215.5"/>
<text text-anchor="middle" x="49.5" y="-370.5" font-family="Helvetica,sans-Serif" font-size="10.00">jvirt_barray_control</text>
<polyline fill="none" stroke="black" points="0,-363.5 99,-363.5 "/>
<text text-anchor="start" x="8" y="-351.5" font-family="Helvetica,sans-Serif" font-size="10.00">+ mem_buffer</text>
<text text-anchor="start" x="8" y="-340.5" font-family="Helvetica,sans-Serif" font-size="10.00">+ rows_in_array</text>
<text text-anchor="start" x="8" y="-329.5" font-family="Helvetica,sans-Serif" font-size="10.00">+ blocksperrow</text>
<text text-anchor="start" x="8" y="-318.5" font-family="Helvetica,sans-Serif" font-size="10.00">+ maxaccess</text>
<text text-anchor="start" x="8" y="-307.5" font-family="Helvetica,sans-Serif" font-size="10.00">+ rows_in_mem</text>
<text text-anchor="start" x="8" y="-296.5" font-family="Helvetica,sans-Serif" font-size="10.00">+ rowsperchunk</text>
<text text-anchor="start" x="8" y="-285.5" font-family="Helvetica,sans-Serif" font-size="10.00">+ cur_start_row</text>
<text text-anchor="start" x="8" y="-274.5" font-family="Helvetica,sans-Serif" font-size="10.00">+ first_undef_row</text>
<text text-anchor="start" x="8" y="-263.5" font-family="Helvetica,sans-Serif" font-size="10.00">+ pre_zero</text>
<text text-anchor="start" x="8" y="-252.5" font-family="Helvetica,sans-Serif" font-size="10.00">+ dirty</text>
<text text-anchor="start" x="8" y="-241.5" font-family="Helvetica,sans-Serif" font-size="10.00">+ b_s_open</text>
<polyline fill="none" stroke="black" points="0,-234.5 99,-234.5 "/>
<text text-anchor="middle" x="49.5" y="-222.5" font-family="Helvetica,sans-Serif" font-size="10.00"> </text>
</a>
</g>
</g>
<!-- Node2&#45;&gt;Node1 -->
<g id="edge1" class="edge"><title>Node2&#45;&gt;Node1</title>
<path fill="none" stroke="#404040" d="M75.9131,-215.386C79.1229,-205.477 82.3722,-195.507 85.5,-186 86.2373,-183.759 86.9854,-181.491 87.7415,-179.204"/>
<polygon fill="none" stroke="#404040" points="87.7967,-179.037 85.8895,-172.083 91.5753,-167.648 93.4825,-174.602 87.7967,-179.037"/>
<text text-anchor="middle" x="132" y="-189" font-family="Helvetica,sans-Serif" font-size="10.00"> +request_virt_barray</text>
</g>
<!-- Node2&#45;&gt;Node2 -->
<g id="edge2" class="edge"><title>Node2&#45;&gt;Node2</title>
<path fill="none" stroke="#404040" d="M99.2454,-318.176C109.573,-316.158 117,-309.766 117,-299 117,-292.776 114.518,-288.014 110.428,-284.714"/>
<polygon fill="none" stroke="#404040" points="110.24,-284.632 103.14,-285.893 99.2454,-279.824 106.345,-278.563 110.24,-284.632"/>
<text text-anchor="middle" x="131" y="-296.5" font-family="Helvetica,sans-Serif" font-size="10.00"> +next</text>
</g>
<!-- Node3 -->
<g id="node3" class="node"><title>Node3</title>
<g id="a_node3"><a xlink:href="structbacking__store__struct.html" target="_top" xlink:title="{backing_store_struct\n|+ temp_file\l+ temp_name\l|+ JMETHOD()\l+ JMETHOD()\l+ JMETHOD()\l}">
<polygon fill="white" stroke="black" points="89,-430.5 89,-520.5 196,-520.5 196,-430.5 89,-430.5"/>
<text text-anchor="middle" x="142.5" y="-508.5" font-family="Helvetica,sans-Serif" font-size="10.00">backing_store_struct</text>
<polyline fill="none" stroke="black" points="89,-501.5 196,-501.5 "/>
<text text-anchor="start" x="97" y="-489.5" font-family="Helvetica,sans-Serif" font-size="10.00">+ temp_file</text>
<text text-anchor="start" x="97" y="-478.5" font-family="Helvetica,sans-Serif" font-size="10.00">+ temp_name</text>
<polyline fill="none" stroke="black" points="89,-471.5 196,-471.5 "/>
<text text-anchor="start" x="97" y="-459.5" font-family="Helvetica,sans-Serif" font-size="10.00">+ JMETHOD()</text>
<text text-anchor="start" x="97" y="-448.5" font-family="Helvetica,sans-Serif" font-size="10.00">+ JMETHOD()</text>
<text text-anchor="start" x="97" y="-437.5" font-family="Helvetica,sans-Serif" font-size="10.00">+ JMETHOD()</text>
</a>
</g>
</g>
<!-- Node3&#45;&gt;Node2 -->
<g id="edge3" class="edge"><title>Node3&#45;&gt;Node2</title>
<path fill="none" stroke="#404040" d="M119.032,-430.466C112.979,-419.108 106.228,-406.442 99.3797,-393.591"/>
<polygon fill="none" stroke="#404040" points="99.2609,-393.368 92.9089,-389.955 93.6169,-382.778 99.9689,-386.192 99.2609,-393.368"/>
<text text-anchor="middle" x="130.5" y="-404" font-family="Helvetica,sans-Serif" font-size="10.00"> +b_s_info</text>
</g>
<!-- Node4 -->
<g id="node4" class="node"><title>Node4</title>
<g id="a_node4"><a xlink:href="structjvirt__sarray__control.html" target="_top" xlink:title="{jvirt_sarray_control\n|+ mem_buffer\l+ rows_in_array\l+ samplesperrow\l+ maxaccess\l+ rows_in_mem\l+ rowsperchunk\l+ cur_start_row\l+ first_undef_row\l+ pre_zero\l+ dirty\l+ b_s_open\l|}">
<polygon fill="white" stroke="black" points="163,-215.5 163,-382.5 262,-382.5 262,-215.5 163,-215.5"/>
<text text-anchor="middle" x="212.5" y="-370.5" font-family="Helvetica,sans-Serif" font-size="10.00">jvirt_sarray_control</text>
<polyline fill="none" stroke="black" points="163,-363.5 262,-363.5 "/>
<text text-anchor="start" x="171" y="-351.5" font-family="Helvetica,sans-Serif" font-size="10.00">+ mem_buffer</text>
<text text-anchor="start" x="171" y="-340.5" font-family="Helvetica,sans-Serif" font-size="10.00">+ rows_in_array</text>
<text text-anchor="start" x="171" y="-329.5" font-family="Helvetica,sans-Serif" font-size="10.00">+ samplesperrow</text>
<text text-anchor="start" x="171" y="-318.5" font-family="Helvetica,sans-Serif" font-size="10.00">+ maxaccess</text>
<text text-anchor="start" x="171" y="-307.5" font-family="Helvetica,sans-Serif" font-size="10.00">+ rows_in_mem</text>
<text text-anchor="start" x="171" y="-296.5" font-family="Helvetica,sans-Serif" font-size="10.00">+ rowsperchunk</text>
<text text-anchor="start" x="171" y="-285.5" font-family="Helvetica,sans-Serif" font-size="10.00">+ cur_start_row</text>
<text text-anchor="start" x="171" y="-274.5" font-family="Helvetica,sans-Serif" font-size="10.00">+ first_undef_row</text>
<text text-anchor="start" x="171" y="-263.5" font-family="Helvetica,sans-Serif" font-size="10.00">+ pre_zero</text>
<text text-anchor="start" x="171" y="-252.5" font-family="Helvetica,sans-Serif" font-size="10.00">+ dirty</text>
<text text-anchor="start" x="171" y="-241.5" font-family="Helvetica,sans-Serif" font-size="10.00">+ b_s_open</text>
<polyline fill="none" stroke="black" points="163,-234.5 262,-234.5 "/>
<text text-anchor="middle" x="212.5" y="-222.5" font-family="Helvetica,sans-Serif" font-size="10.00"> </text>
</a>
</g>
</g>
<!-- Node3&#45;&gt;Node4 -->
<g id="edge6" class="edge"><title>Node3&#45;&gt;Node4</title>
<path fill="none" stroke="#404040" d="M160.164,-430.466C164.675,-419.221 169.7,-406.695 174.802,-393.977"/>
<polygon fill="none" stroke="#404040" points="174.826,-393.916 173.347,-386.858 179.294,-382.778 180.772,-389.836 174.826,-393.916"/>
<text text-anchor="middle" x="193.5" y="-404" font-family="Helvetica,sans-Serif" font-size="10.00"> +b_s_info</text>
</g>
<!-- Node4&#45;&gt;Node1 -->
<g id="edge4" class="edge"><title>Node4&#45;&gt;Node1</title>
<path fill="none" stroke="#404040" d="M189.783,-215.236C186.341,-205.258 182.566,-195.311 178.5,-186 177.427,-183.543 176.308,-181.07 175.15,-178.591"/>
<polygon fill="none" stroke="#404040" points="175.101,-178.49 168.878,-174.845 169.849,-167.699 176.072,-171.344 175.101,-178.49"/>
<text text-anchor="middle" x="228" y="-189" font-family="Helvetica,sans-Serif" font-size="10.00"> +request_virt_sarray</text>
</g>
<!-- Node4&#45;&gt;Node4 -->
<g id="edge5" class="edge"><title>Node4&#45;&gt;Node4</title>
<path fill="none" stroke="#404040" d="M262.245,-318.176C272.573,-316.158 280,-309.766 280,-299 280,-292.776 277.518,-288.014 273.428,-284.714"/>
<polygon fill="none" stroke="#404040" points="273.24,-284.632 266.14,-285.893 262.245,-279.824 269.345,-278.563 273.24,-284.632"/>
<text text-anchor="middle" x="294" y="-296.5" font-family="Helvetica,sans-Serif" font-size="10.00"> +next</text>
</g>
</g>
</svg>
        <g id="navigator" transform="translate(0 0)" fill="#404254">
                <rect fill="#f2f5e9" fill-opacity="0.5" stroke="#606060" stroke-width=".5" x="0" y="0" width="60" height="60"/>
                <use id="zoomplus" xlink:href="#zoomPlus" x="17" y="9" onmousedown="handleZoom(evt,'in')"/>
                <use id="zoomminus" xlink:href="#zoomMin" x="42" y="9" onmousedown="handleZoom(evt,'out')"/>
                <use id="reset" xlink:href="#resetDef" x="30" y="36" onmousedown="handleReset()"/>
                <g id="arrowUp" xlink:href="#dirArrow" transform="translate(30 24)" onmousedown="handlePan(0,-1)">
                  <use xlink:href="#rim" fill="#404040">
                        <set attributeName="fill" to="#808080" begin="arrowUp.mouseover" end="arrowUp.mouseout"/>
                  </use>
                  <path fill="none" stroke="white" stroke-width="1.5" d="M0,-3.0v7 M-2.5,-0.5L0,-3.0L2.5,-0.5"/>
                </g>
                <g id="arrowRight" xlink:href="#dirArrow" transform="rotate(90) translate(36 -43)" onmousedown="handlePan(1,0)">
                  <use xlink:href="#rim" fill="#404040">
                        <set attributeName="fill" to="#808080" begin="arrowRight.mouseover" end="arrowRight.mouseout"/>
                  </use>
                  <path fill="none" stroke="white" stroke-width="1.5" d="M0,-3.0v7 M-2.5,-0.5L0,-3.0L2.5,-0.5"/>
                </g>
                <g id="arrowDown" xlink:href="#dirArrow" transform="rotate(180) translate(-30 -48)" onmousedown="handlePan(0,1)">
                  <use xlink:href="#rim" fill="#404040">
                        <set attributeName="fill" to="#808080" begin="arrowDown.mouseover" end="arrowDown.mouseout"/>
                  </use>
                  <path fill="none" stroke="white" stroke-width="1.5" d="M0,-3.0v7 M-2.5,-0.5L0,-3.0L2.5,-0.5"/>
                </g>
                <g id="arrowLeft" xlink:href="#dirArrow" transform="rotate(270) translate(-36 17)" onmousedown="handlePan(-1,0)">
                  <use xlink:href="#rim" fill="#404040">
                        <set attributeName="fill" to="#808080" begin="arrowLeft.mouseover" end="arrowLeft.mouseout"/>
                  </use>
                  <path fill="none" stroke="white" stroke-width="1.5" d="M0,-3.0v7 M-2.5,-0.5L0,-3.0L2.5,-0.5"/>
                </g>
        </g>
        <svg viewBox="0 0 15 15" width="100%" height="30px" preserveAspectRatio="xMaxYMin meet">
         <g id="arrow_out" transform="scale(0.3 0.3)">
          <a xlink:href="structjpeg__memory__mgr__coll__graph_org.svg" target="_base">
           <rect id="button" ry="5" rx="5" y="6" x="6" height="38" width="38"
                fill="#f2f5e9" fill-opacity="0.5" stroke="#606060" stroke-width="1.0"/>
           <path id="arrow"
             d="M 11.500037,31.436501 C 11.940474,20.09759 22.043105,11.32322 32.158766,21.979434 L 37.068811,17.246167 C 37.068811,17.246167 37.088388,32 37.088388,32 L 22.160133,31.978069 C 22.160133,31.978069 26.997745,27.140456 26.997745,27.140456 C 18.528582,18.264221 13.291696,25.230495 11.500037,31.436501 z"
             style="fill:#404040;"/>
          </a>
         </g>
        </svg>
</svg>
