<?xml version="1.0" encoding="UTF-8" standalone="no"?>
<!DOCTYPE svg PUBLIC "-//W3C//DTD SVG 1.1//EN"
 "http://www.w3.org/Graphics/SVG/1.1/DTD/svg11.dtd">
<!-- Generated by graphviz version 2.38.0 (20140413.2041)
 -->
<!-- Title: png_sPLT_struct Pages: 1 -->
<svg width="126pt" height="237pt"
 viewBox="0.00 0.00 126.00 237.00" xmlns="http://www.w3.org/2000/svg" xmlns:xlink="http://www.w3.org/1999/xlink">
<g id="graph0" class="graph" transform="scale(1 1) rotate(0) translate(4 233)">
<title>png_sPLT_struct</title>
<polygon fill="white" stroke="none" points="-4,4 -4,-233 122,-233 122,4 -4,4"/>
<!-- Node1 -->
<g id="node1" class="node"><title>Node1</title>
<polygon fill="#bfbfbf" stroke="black" points="13.5,-0.5 13.5,-79.5 104.5,-79.5 104.5,-0.5 13.5,-0.5"/>
<text text-anchor="middle" x="59" y="-67.5" font-family="Helvetica,sans-Serif" font-size="10.00">png_sPLT_struct</text>
<polyline fill="none" stroke="black" points="13.5,-60.5 104.5,-60.5 "/>
<text text-anchor="start" x="21.5" y="-48.5" font-family="Helvetica,sans-Serif" font-size="10.00">+ name</text>
<text text-anchor="start" x="21.5" y="-37.5" font-family="Helvetica,sans-Serif" font-size="10.00">+ depth</text>
<text text-anchor="start" x="21.5" y="-26.5" font-family="Helvetica,sans-Serif" font-size="10.00">+ nentries</text>
<polyline fill="none" stroke="black" points="13.5,-19.5 104.5,-19.5 "/>
<text text-anchor="middle" x="59" y="-7.5" font-family="Helvetica,sans-Serif" font-size="10.00"> </text>
</g>
<!-- Node2 -->
<g id="node2" class="node"><title>Node2</title>
<g id="a_node2"><a xlink:href="structpng__s_p_l_t__entry__struct.html" target="_top" xlink:title="{png_sPLT_entry_struct\n|+ red\l+ green\l+ blue\l+ alpha\l+ frequency\l|}">
<polygon fill="white" stroke="black" points="0,-127.5 0,-228.5 118,-228.5 118,-127.5 0,-127.5"/>
<text text-anchor="middle" x="59" y="-216.5" font-family="Helvetica,sans-Serif" font-size="10.00">png_sPLT_entry_struct</text>
<polyline fill="none" stroke="black" points="0,-209.5 118,-209.5 "/>
<text text-anchor="start" x="8" y="-197.5" font-family="Helvetica,sans-Serif" font-size="10.00">+ red</text>
<text text-anchor="start" x="8" y="-186.5" font-family="Helvetica,sans-Serif" font-size="10.00">+ green</text>
<text text-anchor="start" x="8" y="-175.5" font-family="Helvetica,sans-Serif" font-size="10.00">+ blue</text>
<text text-anchor="start" x="8" y="-164.5" font-family="Helvetica,sans-Serif" font-size="10.00">+ alpha</text>
<text text-anchor="start" x="8" y="-153.5" font-family="Helvetica,sans-Serif" font-size="10.00">+ frequency</text>
<polyline fill="none" stroke="black" points="0,-146.5 118,-146.5 "/>
<text text-anchor="middle" x="59" y="-134.5" font-family="Helvetica,sans-Serif" font-size="10.00"> </text>
</a>
</g>
</g>
<!-- Node2&#45;&gt;Node1 -->
<g id="edge1" class="edge"><title>Node2&#45;&gt;Node1</title>
<path fill="none" stroke="#404040" d="M59,-127.131C59,-115.662 59,-103.452 59,-91.9384"/>
<polygon fill="none" stroke="#404040" points="59.0001,-91.7873 55,-85.7873 59,-79.7873 63,-85.7873 59.0001,-91.7873"/>
<text text-anchor="middle" x="78.5" y="-101" font-family="Helvetica,sans-Serif" font-size="10.00"> +entries</text>
</g>
</g>
</svg>
