<?xml version="1.0" encoding="UTF-8" standalone="no"?>
<!DOCTYPE svg PUBLIC "-//W3C//DTD SVG 1.1//EN"
 "http://www.w3.org/Graphics/SVG/1.1/DTD/svg11.dtd">
<!-- Generated by graphviz version 2.38.0 (20140413.2041)
 -->
<!-- Title: internal_state Pages: 1 -->
<!--zoomable 1003 -->
<svg id="main" version="1.1" xmlns="http://www.w3.org/2000/svg" xmlns:xlink="http://www.w3.org/1999/xlink" xml:space="preserve" onload="init(evt)">
<style type="text/css"><![CDATA[
.edge:hover path { stroke: red; }
.edge:hover polygon { stroke: red; fill: red; }
]]></style>
<script type="text/javascript"><![CDATA[
var edges = document.getElementsByTagName('g');
if (edges && edges.length) {
  for (var i=0;i<edges.length;i++) {
    if (edges[i].id.substr(0,4)=='edge') {
      edges[i].setAttribute('class','edge');
    }
  }
}
]]></script>
        <defs>
                <circle id="rim" cx="0" cy="0" r="7"/>
                <circle id="rim2" cx="0" cy="0" r="3.5"/>
                <g id="zoomPlus">
                        <use xlink:href="#rim" fill="#404040">
                                <set attributeName="fill" to="#808080" begin="zoomplus.mouseover" end="zoomplus.mouseout"/>
                        </use>
                        <path d="M-4,0h8M0,-4v8" fill="none" stroke="white" stroke-width="1.5" pointer-events="none"/>
                </g>
                <g id="zoomMin">
                        <use xlink:href="#rim" fill="#404040">
                                <set attributeName="fill" to="#808080" begin="zoomminus.mouseover" end="zoomminus.mouseout"/>
                        </use>
                        <path d="M-4,0h8" fill="none" stroke="white" stroke-width="1.5" pointer-events="none"/>
                </g>
                <g id="dirArrow">
                        <path fill="none" stroke="white" stroke-width="1.5" d="M0,-3.0v7 M-2.5,-0.5L0,-3.0L2.5,-0.5"/>
                </g>
               <g id="resetDef">
                       <use xlink:href="#rim2" fill="#404040">
                               <set attributeName="fill" to="#808080" begin="reset.mouseover" end="reset.mouseout"/>
                       </use>
               </g>
        </defs>

<script type="text/javascript">
var viewWidth = 342;
var viewHeight = 1003;
var sectionId = 'dynsection-0';
</script>
<script xlink:href="svgpan.js"/>
<svg id="graph" class="graph">
<g id="viewport">
<title>internal_state</title>
<polygon fill="white" stroke="none" points="-4,4 -4,-999 338,-999 338,4 -4,4"/>
<!-- Node1 -->
<g id="node1" class="node"><title>Node1</title>
<polygon fill="#bfbfbf" stroke="black" points="55,-237.5 55,-404.5 156,-404.5 156,-237.5 55,-237.5"/>
<text text-anchor="middle" x="105.5" y="-392.5" font-family="Helvetica,sans-Serif" font-size="10.00">internal_state</text>
<polyline fill="none" stroke="black" points="55,-385.5 156,-385.5 "/>
<text text-anchor="start" x="63" y="-373.5" font-family="Helvetica,sans-Serif" font-size="10.00">+ status</text>
<text text-anchor="start" x="63" y="-362.5" font-family="Helvetica,sans-Serif" font-size="10.00">+ pending_buf</text>
<text text-anchor="start" x="63" y="-351.5" font-family="Helvetica,sans-Serif" font-size="10.00">+ pending_buf_size</text>
<text text-anchor="start" x="63" y="-340.5" font-family="Helvetica,sans-Serif" font-size="10.00">+ pending_out</text>
<text text-anchor="start" x="63" y="-329.5" font-family="Helvetica,sans-Serif" font-size="10.00">+ pending</text>
<text text-anchor="start" x="63" y="-318.5" font-family="Helvetica,sans-Serif" font-size="10.00">+ wrap</text>
<text text-anchor="start" x="63" y="-307.5" font-family="Helvetica,sans-Serif" font-size="10.00">+ gzindex</text>
<text text-anchor="start" x="63" y="-296.5" font-family="Helvetica,sans-Serif" font-size="10.00">+ method</text>
<text text-anchor="start" x="63" y="-285.5" font-family="Helvetica,sans-Serif" font-size="10.00">+ last_flush</text>
<text text-anchor="start" x="63" y="-274.5" font-family="Helvetica,sans-Serif" font-size="10.00">+ w_size</text>
<text text-anchor="start" x="63" y="-263.5" font-family="Helvetica,sans-Serif" font-size="10.00">and 42 more...</text>
<polyline fill="none" stroke="black" points="55,-256.5 156,-256.5 "/>
<text text-anchor="middle" x="105.5" y="-244.5" font-family="Helvetica,sans-Serif" font-size="10.00"> </text>
</g>
<!-- Node6 -->
<g id="node6" class="node"><title>Node6</title>
<g id="a_node6"><a xlink:href="structz__stream__s.html" target="_top" xlink:title="{z_stream_s\n|+ next_in\l+ avail_in\l+ total_in\l+ next_out\l+ avail_out\l+ total_out\l+ msg\l+ zalloc\l+ zfree\l+ opaque\l+ data_type\l+ adler\l+ reserved\l|}">
<polygon fill="white" stroke="black" points="71.5,-0.5 71.5,-189.5 139.5,-189.5 139.5,-0.5 71.5,-0.5"/>
<text text-anchor="middle" x="105.5" y="-177.5" font-family="Helvetica,sans-Serif" font-size="10.00">z_stream_s</text>
<polyline fill="none" stroke="black" points="71.5,-170.5 139.5,-170.5 "/>
<text text-anchor="start" x="79.5" y="-158.5" font-family="Helvetica,sans-Serif" font-size="10.00">+ next_in</text>
<text text-anchor="start" x="79.5" y="-147.5" font-family="Helvetica,sans-Serif" font-size="10.00">+ avail_in</text>
<text text-anchor="start" x="79.5" y="-136.5" font-family="Helvetica,sans-Serif" font-size="10.00">+ total_in</text>
<text text-anchor="start" x="79.5" y="-125.5" font-family="Helvetica,sans-Serif" font-size="10.00">+ next_out</text>
<text text-anchor="start" x="79.5" y="-114.5" font-family="Helvetica,sans-Serif" font-size="10.00">+ avail_out</text>
<text text-anchor="start" x="79.5" y="-103.5" font-family="Helvetica,sans-Serif" font-size="10.00">+ total_out</text>
<text text-anchor="start" x="79.5" y="-92.5" font-family="Helvetica,sans-Serif" font-size="10.00">+ msg</text>
<text text-anchor="start" x="79.5" y="-81.5" font-family="Helvetica,sans-Serif" font-size="10.00">+ zalloc</text>
<text text-anchor="start" x="79.5" y="-70.5" font-family="Helvetica,sans-Serif" font-size="10.00">+ zfree</text>
<text text-anchor="start" x="79.5" y="-59.5" font-family="Helvetica,sans-Serif" font-size="10.00">+ opaque</text>
<text text-anchor="start" x="79.5" y="-48.5" font-family="Helvetica,sans-Serif" font-size="10.00">+ data_type</text>
<text text-anchor="start" x="79.5" y="-37.5" font-family="Helvetica,sans-Serif" font-size="10.00">+ adler</text>
<text text-anchor="start" x="79.5" y="-26.5" font-family="Helvetica,sans-Serif" font-size="10.00">+ reserved</text>
<polyline fill="none" stroke="black" points="71.5,-19.5 139.5,-19.5 "/>
<text text-anchor="middle" x="105.5" y="-7.5" font-family="Helvetica,sans-Serif" font-size="10.00"> </text>
</a>
</g>
</g>
<!-- Node1&#45;&gt;Node6 -->
<g id="edge7" class="edge"><title>Node1&#45;&gt;Node6</title>
<path fill="none" stroke="#404040" d="M78.9045,-237.478C77.5461,-231.271 76.3816,-225.064 75.5,-219 74.6739,-213.317 74.3288,-207.514 74.3752,-201.673"/>
<polygon fill="none" stroke="#404040" points="74.3767,-201.642 70.6894,-195.445 74.9915,-189.658 78.6789,-195.855 74.3767,-201.642"/>
<text text-anchor="middle" x="91" y="-211" font-family="Helvetica,sans-Serif" font-size="10.00"> +state</text>
</g>
<!-- Node2 -->
<g id="node2" class="node"><title>Node2</title>
<g id="a_node2"><a xlink:href="structgz__header__s.html" target="_top" xlink:title="{gz_header_s\n|+ text\l+ time\l+ xflags\l+ os\l+ extra\l+ extra_len\l+ extra_max\l+ name\l+ name_max\l+ comment\l+ comm_max\l+ hcrc\l+ done\l|}">
<polygon fill="white" stroke="black" points="0,-474.5 0,-663.5 77,-663.5 77,-474.5 0,-474.5"/>
<text text-anchor="middle" x="38.5" y="-651.5" font-family="Helvetica,sans-Serif" font-size="10.00">gz_header_s</text>
<polyline fill="none" stroke="black" points="0,-644.5 77,-644.5 "/>
<text text-anchor="start" x="8" y="-632.5" font-family="Helvetica,sans-Serif" font-size="10.00">+ text</text>
<text text-anchor="start" x="8" y="-621.5" font-family="Helvetica,sans-Serif" font-size="10.00">+ time</text>
<text text-anchor="start" x="8" y="-610.5" font-family="Helvetica,sans-Serif" font-size="10.00">+ xflags</text>
<text text-anchor="start" x="8" y="-599.5" font-family="Helvetica,sans-Serif" font-size="10.00">+ os</text>
<text text-anchor="start" x="8" y="-588.5" font-family="Helvetica,sans-Serif" font-size="10.00">+ extra</text>
<text text-anchor="start" x="8" y="-577.5" font-family="Helvetica,sans-Serif" font-size="10.00">+ extra_len</text>
<text text-anchor="start" x="8" y="-566.5" font-family="Helvetica,sans-Serif" font-size="10.00">+ extra_max</text>
<text text-anchor="start" x="8" y="-555.5" font-family="Helvetica,sans-Serif" font-size="10.00">+ name</text>
<text text-anchor="start" x="8" y="-544.5" font-family="Helvetica,sans-Serif" font-size="10.00">+ name_max</text>
<text text-anchor="start" x="8" y="-533.5" font-family="Helvetica,sans-Serif" font-size="10.00">+ comment</text>
<text text-anchor="start" x="8" y="-522.5" font-family="Helvetica,sans-Serif" font-size="10.00">+ comm_max</text>
<text text-anchor="start" x="8" y="-511.5" font-family="Helvetica,sans-Serif" font-size="10.00">+ hcrc</text>
<text text-anchor="start" x="8" y="-500.5" font-family="Helvetica,sans-Serif" font-size="10.00">+ done</text>
<polyline fill="none" stroke="black" points="0,-493.5 77,-493.5 "/>
<text text-anchor="middle" x="38.5" y="-481.5" font-family="Helvetica,sans-Serif" font-size="10.00"> </text>
</a>
</g>
</g>
<!-- Node2&#45;&gt;Node1 -->
<g id="edge1" class="edge"><title>Node2&#45;&gt;Node1</title>
<path fill="none" stroke="#404040" d="M40.4906,-474.496C42.471,-457.137 45.6144,-439.335 50.5,-423 51.1865,-420.705 51.9295,-418.402 52.7222,-416.099"/>
<polygon fill="none" stroke="#404040" points="52.8256,-415.825 51.2053,-408.799 57.0682,-404.6 58.6886,-411.627 52.8256,-415.825"/>
<text text-anchor="middle" x="71" y="-437" font-family="Helvetica,sans-Serif" font-size="10.00"> +gzhead</text>
</g>
<!-- Node3 -->
<g id="node3" class="node"><title>Node3</title>
<g id="a_node3"><a xlink:href="structtree__desc__s.html" target="_top" xlink:title="{tree_desc_s\n|+ max_code\l|}">
<polygon fill="white" stroke="black" points="134,-540.5 134,-597.5 205,-597.5 205,-540.5 134,-540.5"/>
<text text-anchor="middle" x="169.5" y="-585.5" font-family="Helvetica,sans-Serif" font-size="10.00">tree_desc_s</text>
<polyline fill="none" stroke="black" points="134,-578.5 205,-578.5 "/>
<text text-anchor="start" x="142" y="-566.5" font-family="Helvetica,sans-Serif" font-size="10.00">+ max_code</text>
<polyline fill="none" stroke="black" points="134,-559.5 205,-559.5 "/>
<text text-anchor="middle" x="169.5" y="-547.5" font-family="Helvetica,sans-Serif" font-size="10.00"> </text>
</a>
</g>
</g>
<!-- Node3&#45;&gt;Node1 -->
<g id="edge2" class="edge"><title>Node3&#45;&gt;Node1</title>
<path fill="none" stroke="#404040" d="M162.283,-540.259C154.465,-510.211 141.564,-460.62 130.032,-416.297"/>
<polygon fill="none" stroke="#404040" points="130,-416.171 124.618,-411.372 126.978,-404.558 132.36,-409.358 130,-416.171"/>
<text text-anchor="middle" x="159.5" y="-448" font-family="Helvetica,sans-Serif" font-size="10.00"> +l_desc</text>
<text text-anchor="middle" x="159.5" y="-437" font-family="Helvetica,sans-Serif" font-size="10.00">+d_desc</text>
<text text-anchor="middle" x="159.5" y="-426" font-family="Helvetica,sans-Serif" font-size="10.00">+bl_desc</text>
</g>
<!-- Node4 -->
<g id="node4" class="node"><title>Node4</title>
<g id="a_node4"><a xlink:href="structstatic__tree__desc__s.html" target="_top" xlink:title="{static_tree_desc_s\n|+ dummy\l+ extra_bits\l+ extra_base\l+ elems\l+ max_length\l|}">
<polygon fill="white" stroke="black" points="235,-733.5 235,-834.5 334,-834.5 334,-733.5 235,-733.5"/>
<text text-anchor="middle" x="284.5" y="-822.5" font-family="Helvetica,sans-Serif" font-size="10.00">static_tree_desc_s</text>
<polyline fill="none" stroke="black" points="235,-815.5 334,-815.5 "/>
<text text-anchor="start" x="243" y="-803.5" font-family="Helvetica,sans-Serif" font-size="10.00">+ dummy</text>
<text text-anchor="start" x="243" y="-792.5" font-family="Helvetica,sans-Serif" font-size="10.00">+ extra_bits</text>
<text text-anchor="start" x="243" y="-781.5" font-family="Helvetica,sans-Serif" font-size="10.00">+ extra_base</text>
<text text-anchor="start" x="243" y="-770.5" font-family="Helvetica,sans-Serif" font-size="10.00">+ elems</text>
<text text-anchor="start" x="243" y="-759.5" font-family="Helvetica,sans-Serif" font-size="10.00">+ max_length</text>
<polyline fill="none" stroke="black" points="235,-752.5 334,-752.5 "/>
<text text-anchor="middle" x="284.5" y="-740.5" font-family="Helvetica,sans-Serif" font-size="10.00"> </text>
</a>
</g>
</g>
<!-- Node4&#45;&gt;Node3 -->
<g id="edge3" class="edge"><title>Node4&#45;&gt;Node3</title>
<path fill="none" stroke="#404040" d="M257.683,-733.33C237.081,-695.172 209.047,-643.249 190.166,-608.276"/>
<polygon fill="none" stroke="#404040" points="190.079,-608.115 183.709,-604.736 184.378,-597.556 190.748,-600.935 190.079,-608.115"/>
<text text-anchor="middle" x="272.5" y="-696" font-family="Helvetica,sans-Serif" font-size="10.00"> +stat_desc</text>
</g>
<!-- Node5 -->
<g id="node5" class="node"><title>Node5</title>
<g id="a_node5"><a xlink:href="structct__data__s.html" target="_top" xlink:title="{ct_data_s\n|+ freq\l+ code\l+ fc\l+ dad\l+ len\l+ dl\l|}">
<polygon fill="white" stroke="black" points="140,-882.5 140,-994.5 199,-994.5 199,-882.5 140,-882.5"/>
<text text-anchor="middle" x="169.5" y="-982.5" font-family="Helvetica,sans-Serif" font-size="10.00">ct_data_s</text>
<polyline fill="none" stroke="black" points="140,-975.5 199,-975.5 "/>
<text text-anchor="start" x="148" y="-963.5" font-family="Helvetica,sans-Serif" font-size="10.00">+ freq</text>
<text text-anchor="start" x="148" y="-952.5" font-family="Helvetica,sans-Serif" font-size="10.00">+ code</text>
<text text-anchor="start" x="148" y="-941.5" font-family="Helvetica,sans-Serif" font-size="10.00">+ fc</text>
<text text-anchor="start" x="148" y="-930.5" font-family="Helvetica,sans-Serif" font-size="10.00">+ dad</text>
<text text-anchor="start" x="148" y="-919.5" font-family="Helvetica,sans-Serif" font-size="10.00">+ len</text>
<text text-anchor="start" x="148" y="-908.5" font-family="Helvetica,sans-Serif" font-size="10.00">+ dl</text>
<polyline fill="none" stroke="black" points="140,-901.5 199,-901.5 "/>
<text text-anchor="middle" x="169.5" y="-889.5" font-family="Helvetica,sans-Serif" font-size="10.00"> </text>
</a>
</g>
</g>
<!-- Node5&#45;&gt;Node1 -->
<g id="edge8" class="edge"><title>Node5&#45;&gt;Node1</title>
<path fill="none" stroke="#404040" d="M153.001,-882.314C140.464,-837.647 124.12,-772.873 116.5,-715 103.173,-613.782 101.664,-496.684 102.713,-416.814"/>
<polygon fill="none" stroke="#404040" points="102.713,-416.814 98.8033,-410.754 102.893,-404.815 106.802,-410.875 102.713,-416.814"/>
<text text-anchor="middle" x="141" y="-707" font-family="Helvetica,sans-Serif" font-size="10.00"> +dyn_ltree</text>
<text text-anchor="middle" x="141" y="-696" font-family="Helvetica,sans-Serif" font-size="10.00">+bl_tree</text>
<text text-anchor="middle" x="141" y="-685" font-family="Helvetica,sans-Serif" font-size="10.00">+dyn_dtree</text>
</g>
<!-- Node5&#45;&gt;Node3 -->
<g id="edge5" class="edge"><title>Node5&#45;&gt;Node3</title>
<path fill="none" stroke="#404040" d="M169.5,-882.482C169.5,-807.769 169.5,-675.995 169.5,-610.007"/>
<polygon fill="none" stroke="#404040" points="169.5,-609.723 165.5,-603.723 169.5,-597.723 173.5,-603.723 169.5,-609.723"/>
<text text-anchor="middle" x="193" y="-781.5" font-family="Helvetica,sans-Serif" font-size="10.00"> +dyn_tree</text>
</g>
<!-- Node5&#45;&gt;Node4 -->
<g id="edge4" class="edge"><title>Node5&#45;&gt;Node4</title>
<path fill="none" stroke="#404040" d="M199.115,-898.227C211.526,-881.77 226.223,-862.28 239.895,-844.15"/>
<polygon fill="none" stroke="#404040" points="239.923,-844.113 240.342,-836.914 247.148,-834.532 246.729,-841.731 239.923,-844.113"/>
<text text-anchor="middle" x="257" y="-856" font-family="Helvetica,sans-Serif" font-size="10.00"> +static_tree</text>
</g>
<!-- Node6&#45;&gt;Node1 -->
<g id="edge6" class="edge"><title>Node6&#45;&gt;Node1</title>
<path fill="none" stroke="#404040" d="M110.581,-189.674C110.738,-199.574 110.735,-209.492 110.5,-219 110.449,-221.051 110.393,-223.126 110.331,-225.217"/>
<polygon fill="none" stroke="#404040" points="110.327,-225.341 114.124,-231.471 109.926,-237.334 106.129,-231.204 110.327,-225.341"/>
<text text-anchor="middle" x="126" y="-211" font-family="Helvetica,sans-Serif" font-size="10.00"> +strm</text>
</g>
</g>
</svg>
        <g id="navigator" transform="translate(0 0)" fill="#404254">
                <rect fill="#f2f5e9" fill-opacity="0.5" stroke="#606060" stroke-width=".5" x="0" y="0" width="60" height="60"/>
                <use id="zoomplus" xlink:href="#zoomPlus" x="17" y="9" onmousedown="handleZoom(evt,'in')"/>
                <use id="zoomminus" xlink:href="#zoomMin" x="42" y="9" onmousedown="handleZoom(evt,'out')"/>
                <use id="reset" xlink:href="#resetDef" x="30" y="36" onmousedown="handleReset()"/>
                <g id="arrowUp" xlink:href="#dirArrow" transform="translate(30 24)" onmousedown="handlePan(0,-1)">
                  <use xlink:href="#rim" fill="#404040">
                        <set attributeName="fill" to="#808080" begin="arrowUp.mouseover" end="arrowUp.mouseout"/>
                  </use>
                  <path fill="none" stroke="white" stroke-width="1.5" d="M0,-3.0v7 M-2.5,-0.5L0,-3.0L2.5,-0.5"/>
                </g>
                <g id="arrowRight" xlink:href="#dirArrow" transform="rotate(90) translate(36 -43)" onmousedown="handlePan(1,0)">
                  <use xlink:href="#rim" fill="#404040">
                        <set attributeName="fill" to="#808080" begin="arrowRight.mouseover" end="arrowRight.mouseout"/>
                  </use>
                  <path fill="none" stroke="white" stroke-width="1.5" d="M0,-3.0v7 M-2.5,-0.5L0,-3.0L2.5,-0.5"/>
                </g>
                <g id="arrowDown" xlink:href="#dirArrow" transform="rotate(180) translate(-30 -48)" onmousedown="handlePan(0,1)">
                  <use xlink:href="#rim" fill="#404040">
                        <set attributeName="fill" to="#808080" begin="arrowDown.mouseover" end="arrowDown.mouseout"/>
                  </use>
                  <path fill="none" stroke="white" stroke-width="1.5" d="M0,-3.0v7 M-2.5,-0.5L0,-3.0L2.5,-0.5"/>
                </g>
                <g id="arrowLeft" xlink:href="#dirArrow" transform="rotate(270) translate(-36 17)" onmousedown="handlePan(-1,0)">
                  <use xlink:href="#rim" fill="#404040">
                        <set attributeName="fill" to="#808080" begin="arrowLeft.mouseover" end="arrowLeft.mouseout"/>
                  </use>
                  <path fill="none" stroke="white" stroke-width="1.5" d="M0,-3.0v7 M-2.5,-0.5L0,-3.0L2.5,-0.5"/>
                </g>
        </g>
        <svg viewBox="0 0 15 15" width="100%" height="30px" preserveAspectRatio="xMaxYMin meet">
         <g id="arrow_out" transform="scale(0.3 0.3)">
          <a xlink:href="structinternal__state__coll__graph_org.svg" target="_base">
           <rect id="button" ry="5" rx="5" y="6" x="6" height="38" width="38"
                fill="#f2f5e9" fill-opacity="0.5" stroke="#606060" stroke-width="1.0"/>
           <path id="arrow"
             d="M 11.500037,31.436501 C 11.940474,20.09759 22.043105,11.32322 32.158766,21.979434 L 37.068811,17.246167 C 37.068811,17.246167 37.088388,32 37.088388,32 L 22.160133,31.978069 C 22.160133,31.978069 26.997745,27.140456 26.997745,27.140456 C 18.528582,18.264221 13.291696,25.230495 11.500037,31.436501 z"
             style="fill:#404040;"/>
          </a>
         </g>
        </svg>
</svg>
