<?xml version="1.0" encoding="UTF-8" standalone="no"?>
<!DOCTYPE svg PUBLIC "-//W3C//DTD SVG 1.1//EN"
 "http://www.w3.org/Graphics/SVG/1.1/DTD/svg11.dtd">
<!-- Generated by graphviz version 2.38.0 (20140413.2041)
 -->
<!-- Title: huff_entropy_encoder Pages: 1 -->
<svg width="308pt" height="248pt"
 viewBox="0.00 0.00 307.50 248.00" xmlns="http://www.w3.org/2000/svg" xmlns:xlink="http://www.w3.org/1999/xlink">
<g id="graph0" class="graph" transform="scale(1 1) rotate(0) translate(4 244)">
<title>huff_entropy_encoder</title>
<polygon fill="white" stroke="none" points="-4,4 -4,-244 303.5,-244 303.5,4 -4,4"/>
<!-- Node1 -->
<g id="node1" class="node"><title>Node1</title>
<polygon fill="#bfbfbf" stroke="black" points="93,-0.5 93,-90.5 203,-90.5 203,-0.5 93,-0.5"/>
<text text-anchor="middle" x="148" y="-78.5" font-family="Helvetica,sans-Serif" font-size="10.00">huff_entropy_encoder</text>
<polyline fill="none" stroke="black" points="93,-71.5 203,-71.5 "/>
<text text-anchor="start" x="101" y="-59.5" font-family="Helvetica,sans-Serif" font-size="10.00">+ restarts_to_go</text>
<text text-anchor="start" x="101" y="-48.5" font-family="Helvetica,sans-Serif" font-size="10.00">+ next_restart_num</text>
<text text-anchor="start" x="101" y="-37.5" font-family="Helvetica,sans-Serif" font-size="10.00">+ dc_count_ptrs</text>
<text text-anchor="start" x="101" y="-26.5" font-family="Helvetica,sans-Serif" font-size="10.00">+ ac_count_ptrs</text>
<polyline fill="none" stroke="black" points="93,-19.5 203,-19.5 "/>
<text text-anchor="middle" x="148" y="-7.5" font-family="Helvetica,sans-Serif" font-size="10.00"> </text>
</g>
<!-- Node2 -->
<g id="node2" class="node"><title>Node2</title>
<g id="a_node2"><a xlink:href="structc__derived__tbl.html" target="_top" xlink:title="{c_derived_tbl\n|+ ehufco\l+ ehufsi\l|}">
<polygon fill="white" stroke="black" points="0,-160.5 0,-228.5 74,-228.5 74,-160.5 0,-160.5"/>
<text text-anchor="middle" x="37" y="-216.5" font-family="Helvetica,sans-Serif" font-size="10.00">c_derived_tbl</text>
<polyline fill="none" stroke="black" points="0,-209.5 74,-209.5 "/>
<text text-anchor="start" x="8" y="-197.5" font-family="Helvetica,sans-Serif" font-size="10.00">+ ehufco</text>
<text text-anchor="start" x="8" y="-186.5" font-family="Helvetica,sans-Serif" font-size="10.00">+ ehufsi</text>
<polyline fill="none" stroke="black" points="0,-179.5 74,-179.5 "/>
<text text-anchor="middle" x="37" y="-167.5" font-family="Helvetica,sans-Serif" font-size="10.00"> </text>
</a>
</g>
</g>
<!-- Node2&#45;&gt;Node1 -->
<g id="edge1" class="edge"><title>Node2&#45;&gt;Node1</title>
<path fill="none" stroke="#404040" d="M43.5266,-160.484C47.9391,-143.929 55.0184,-124.219 66,-109 71.0407,-102.014 77.084,-95.4466 83.5749,-89.3862"/>
<polygon fill="none" stroke="#404040" points="83.6201,-89.3467 85.5019,-82.3855 92.6514,-81.4451 90.7696,-88.4064 83.6201,-89.3467"/>
<text text-anchor="middle" x="105" y="-123" font-family="Helvetica,sans-Serif" font-size="10.00"> +dc_derived_tbls</text>
<text text-anchor="middle" x="105" y="-112" font-family="Helvetica,sans-Serif" font-size="10.00">+ac_derived_tbls</text>
</g>
<!-- Node3 -->
<g id="node3" class="node"><title>Node3</title>
<g id="a_node3"><a xlink:href="structjpeg__entropy__encoder.html" target="_top" xlink:title="{jpeg_entropy_encoder\n||+ JMETHOD()\l+ JMETHOD()\l+ JMETHOD()\l}">
<polygon fill="white" stroke="black" points="92,-155 92,-234 204,-234 204,-155 92,-155"/>
<text text-anchor="middle" x="148" y="-222" font-family="Helvetica,sans-Serif" font-size="10.00">jpeg_entropy_encoder</text>
<polyline fill="none" stroke="black" points="92,-215 204,-215 "/>
<text text-anchor="middle" x="148" y="-203" font-family="Helvetica,sans-Serif" font-size="10.00"> </text>
<polyline fill="none" stroke="black" points="92,-196 204,-196 "/>
<text text-anchor="start" x="100" y="-184" font-family="Helvetica,sans-Serif" font-size="10.00">+ JMETHOD()</text>
<text text-anchor="start" x="100" y="-173" font-family="Helvetica,sans-Serif" font-size="10.00">+ JMETHOD()</text>
<text text-anchor="start" x="100" y="-162" font-family="Helvetica,sans-Serif" font-size="10.00">+ JMETHOD()</text>
</a>
</g>
</g>
<!-- Node3&#45;&gt;Node1 -->
<g id="edge2" class="edge"><title>Node3&#45;&gt;Node1</title>
<path fill="none" stroke="#404040" d="M148,-154.877C148,-138.92 148,-120.107 148,-102.673"/>
<polygon fill="none" stroke="#404040" points="148,-102.58 144,-96.58 148,-90.5799 152,-96.5799 148,-102.58"/>
<text text-anchor="middle" x="160.5" y="-117.5" font-family="Helvetica,sans-Serif" font-size="10.00"> +pub</text>
</g>
<!-- Node4 -->
<g id="node4" class="node"><title>Node4</title>
<g id="a_node4"><a xlink:href="structsavable__state.html" target="_top" xlink:title="{savable_state\n|+ put_buffer\l+ put_bits\l+ last_dc_val\l+ EOBRUN\l|}">
<polygon fill="white" stroke="black" points="222.5,-149.5 222.5,-239.5 299.5,-239.5 299.5,-149.5 222.5,-149.5"/>
<text text-anchor="middle" x="261" y="-227.5" font-family="Helvetica,sans-Serif" font-size="10.00">savable_state</text>
<polyline fill="none" stroke="black" points="222.5,-220.5 299.5,-220.5 "/>
<text text-anchor="start" x="230.5" y="-208.5" font-family="Helvetica,sans-Serif" font-size="10.00">+ put_buffer</text>
<text text-anchor="start" x="230.5" y="-197.5" font-family="Helvetica,sans-Serif" font-size="10.00">+ put_bits</text>
<text text-anchor="start" x="230.5" y="-186.5" font-family="Helvetica,sans-Serif" font-size="10.00">+ last_dc_val</text>
<text text-anchor="start" x="230.5" y="-175.5" font-family="Helvetica,sans-Serif" font-size="10.00">+ EOBRUN</text>
<polyline fill="none" stroke="black" points="222.5,-168.5 299.5,-168.5 "/>
<text text-anchor="middle" x="261" y="-156.5" font-family="Helvetica,sans-Serif" font-size="10.00"> </text>
</a>
</g>
</g>
<!-- Node4&#45;&gt;Node1 -->
<g id="edge3" class="edge"><title>Node4&#45;&gt;Node1</title>
<path fill="none" stroke="#404040" d="M227.096,-149.395C215.252,-133.988 201.822,-116.517 189.435,-100.402"/>
<polygon fill="none" stroke="#404040" points="189.193,-100.088 182.365,-97.7685 181.88,-90.5737 188.708,-92.8929 189.193,-100.088"/>
<text text-anchor="middle" x="230" y="-117.5" font-family="Helvetica,sans-Serif" font-size="10.00"> +saved</text>
</g>
</g>
</svg>
