<?xml version="1.0" encoding="UTF-8" standalone="no"?>
<!DOCTYPE svg PUBLIC "-//W3C//DTD SVG 1.1//EN"
 "http://www.w3.org/Graphics/SVG/1.1/DTD/svg11.dtd">
<!-- Generated by graphviz version 2.38.0 (20140413.2041)
 -->
<!-- Title: map_dem_dem Pages: 1 -->
<svg width="115pt" height="303pt"
 viewBox="0.00 0.00 115.00 303.00" xmlns="http://www.w3.org/2000/svg" xmlns:xlink="http://www.w3.org/1999/xlink">
<g id="graph0" class="graph" transform="scale(1 1) rotate(0) translate(4 299)">
<title>map_dem_dem</title>
<polygon fill="white" stroke="none" points="-4,4 -4,-299 111,-299 111,4 -4,4"/>
<!-- Node1 -->
<g id="node1" class="node"><title>Node1</title>
<polygon fill="#bfbfbf" stroke="black" points="12,-0.5 12,-178.5 95,-178.5 95,-0.5 12,-0.5"/>
<text text-anchor="middle" x="53.5" y="-166.5" font-family="Helvetica,sans-Serif" font-size="10.00">map_dem_dem</text>
<polyline fill="none" stroke="black" points="12,-159.5 95,-159.5 "/>
<text text-anchor="start" x="20" y="-147.5" font-family="Helvetica,sans-Serif" font-size="10.00">+ utc</text>
<text text-anchor="start" x="20" y="-136.5" font-family="Helvetica,sans-Serif" font-size="10.00">+ name</text>
<text text-anchor="start" x="20" y="-125.5" font-family="Helvetica,sans-Serif" font-size="10.00">+ lonul</text>
<text text-anchor="start" x="20" y="-114.5" font-family="Helvetica,sans-Serif" font-size="10.00">+ latul</text>
<text text-anchor="start" x="20" y="-103.5" font-family="Helvetica,sans-Serif" font-size="10.00">+ lonlr</text>
<text text-anchor="start" x="20" y="-92.5" font-family="Helvetica,sans-Serif" font-size="10.00">+ latlr</text>
<text text-anchor="start" x="20" y="-81.5" font-family="Helvetica,sans-Serif" font-size="10.00">+ psize</text>
<text text-anchor="start" x="20" y="-70.5" font-family="Helvetica,sans-Serif" font-size="10.00">+ scale</text>
<text text-anchor="start" x="20" y="-59.5" font-family="Helvetica,sans-Serif" font-size="10.00">+ xcount</text>
<text text-anchor="start" x="20" y="-48.5" font-family="Helvetica,sans-Serif" font-size="10.00">+ ycount</text>
<text text-anchor="start" x="20" y="-37.5" font-family="Helvetica,sans-Serif" font-size="10.00">+ dlon</text>
<text text-anchor="start" x="20" y="-26.5" font-family="Helvetica,sans-Serif" font-size="10.00">+ dlat</text>
<polyline fill="none" stroke="black" points="12,-19.5 95,-19.5 "/>
<text text-anchor="middle" x="53.5" y="-7.5" font-family="Helvetica,sans-Serif" font-size="10.00"> </text>
</g>
<!-- Node2 -->
<g id="node2" class="node"><title>Node2</title>
<polygon fill="white" stroke="#bfbfbf" points="-7.10543e-15,-226.5 -7.10543e-15,-294.5 107,-294.5 107,-226.5 -7.10543e-15,-226.5"/>
<text text-anchor="start" x="8" y="-282.5" font-family="Helvetica,sans-Serif" font-size="10.00">vector&lt; vector&lt; dem</text>
<text text-anchor="middle" x="53.5" y="-271.5" font-family="Helvetica,sans-Serif" font-size="10.00">_pixel &gt; &gt;</text>
<polyline fill="none" stroke="#bfbfbf" points="-7.10543e-15,-264.5 107,-264.5 "/>
<text text-anchor="middle" x="53.5" y="-252.5" font-family="Helvetica,sans-Serif" font-size="10.00"> </text>
<polyline fill="none" stroke="#bfbfbf" points="-7.10543e-15,-245.5 107,-245.5 "/>
<text text-anchor="middle" x="53.5" y="-233.5" font-family="Helvetica,sans-Serif" font-size="10.00"> </text>
</g>
<!-- Node2&#45;&gt;Node1 -->
<g id="edge1" class="edge"><title>Node2&#45;&gt;Node1</title>
<path fill="none" stroke="#404040" d="M53.5,-226.111C53.5,-215.687 53.5,-203.6 53.5,-191.022"/>
<polygon fill="none" stroke="#404040" points="53.5001,-190.85 49.5,-184.85 53.5,-178.85 57.5,-184.849 53.5001,-190.85"/>
<text text-anchor="middle" x="68.5" y="-200" font-family="Helvetica,sans-Serif" font-size="10.00"> +pixel</text>
</g>
</g>
</svg>
