<?xml version="1.0" encoding="UTF-8" standalone="no"?>
<!DOCTYPE svg PUBLIC "-//W3C//DTD SVG 1.1//EN"
 "http://www.w3.org/Graphics/SVG/1.1/DTD/svg11.dtd">
<!-- Generated by graphviz version 2.38.0 (20140413.2041)
 -->
<!-- Title: equationstruc Pages: 1 -->
<svg width="83pt" height="193pt"
 viewBox="0.00 0.00 83.00 193.00" xmlns="http://www.w3.org/2000/svg" xmlns:xlink="http://www.w3.org/1999/xlink">
<g id="graph0" class="graph" transform="scale(1 1) rotate(0) translate(4 189)">
<title>equationstruc</title>
<polygon fill="white" stroke="none" points="-4,4 -4,-189 79,-189 79,4 -4,4"/>
<!-- Node1 -->
<g id="node1" class="node"><title>Node1</title>
<polygon fill="#bfbfbf" stroke="black" points="-7.10543e-15,-0.5 -7.10543e-15,-68.5 75,-68.5 75,-0.5 -7.10543e-15,-0.5"/>
<text text-anchor="middle" x="37.5" y="-56.5" font-family="Helvetica,sans-Serif" font-size="10.00">equationstruc</text>
<polyline fill="none" stroke="black" points="-7.10543e-15,-49.5 75,-49.5 "/>
<text text-anchor="middle" x="37.5" y="-37.5" font-family="Helvetica,sans-Serif" font-size="10.00"> </text>
<polyline fill="none" stroke="black" points="-7.10543e-15,-30.5 75,-30.5 "/>
<text text-anchor="start" x="8" y="-18.5" font-family="Helvetica,sans-Serif" font-size="10.00">+ to_json()</text>
<text text-anchor="start" x="8" y="-7.5" font-family="Helvetica,sans-Serif" font-size="10.00">+ from_json()</text>
</g>
<!-- Node2 -->
<g id="node2" class="node"><title>Node2</title>
<polygon fill="white" stroke="#bfbfbf" points="17,-127.5 17,-184.5 58,-184.5 58,-127.5 17,-127.5"/>
<text text-anchor="middle" x="37.5" y="-172.5" font-family="Helvetica,sans-Serif" font-size="10.00">string</text>
<polyline fill="none" stroke="#bfbfbf" points="17,-165.5 58,-165.5 "/>
<text text-anchor="middle" x="37.5" y="-153.5" font-family="Helvetica,sans-Serif" font-size="10.00"> </text>
<polyline fill="none" stroke="#bfbfbf" points="17,-146.5 58,-146.5 "/>
<text text-anchor="middle" x="37.5" y="-134.5" font-family="Helvetica,sans-Serif" font-size="10.00"> </text>
</g>
<!-- Node2&#45;&gt;Node1 -->
<g id="edge1" class="edge"><title>Node2&#45;&gt;Node1</title>
<path fill="none" stroke="#404040" d="M37.5,-127.284C37.5,-113.465 37.5,-96.4009 37.5,-80.7494"/>
<polygon fill="none" stroke="#404040" points="37.5001,-80.5891 33.5,-74.5891 37.5,-68.5891 41.5,-74.589 37.5001,-80.5891"/>
<text text-anchor="middle" x="54" y="-101" font-family="Helvetica,sans-Serif" font-size="10.00"> +value</text>
<text text-anchor="middle" x="54" y="-90" font-family="Helvetica,sans-Serif" font-size="10.00">+name</text>
</g>
</g>
</svg>
