<?xml version="1.0" encoding="UTF-8" standalone="no"?>
<!DOCTYPE svg PUBLIC "-//W3C//DTD SVG 1.1//EN"
 "http://www.w3.org/Graphics/SVG/1.1/DTD/svg11.dtd">
<!-- Generated by graphviz version 2.38.0 (20140413.2041)
 -->
<!-- Title: sendchannelstruc Pages: 1 -->
<svg width="182pt" height="303pt"
 viewBox="0.00 0.00 181.50 303.00" xmlns="http://www.w3.org/2000/svg" xmlns:xlink="http://www.w3.org/1999/xlink">
<g id="graph0" class="graph" transform="scale(1 1) rotate(0) translate(4 299)">
<title>sendchannelstruc</title>
<polygon fill="white" stroke="none" points="-4,4 -4,-299 177.5,-299 177.5,4 -4,4"/>
<!-- Node1 -->
<g id="node1" class="node"><title>Node1</title>
<polygon fill="#bfbfbf" stroke="black" points="36,-0.5 36,-79.5 129,-79.5 129,-0.5 36,-0.5"/>
<text text-anchor="middle" x="82.5" y="-67.5" font-family="Helvetica,sans-Serif" font-size="10.00">sendchannelstruc</text>
<polyline fill="none" stroke="black" points="36,-60.5 129,-60.5 "/>
<text text-anchor="start" x="44" y="-48.5" font-family="Helvetica,sans-Serif" font-size="10.00">+ packet_size</text>
<text text-anchor="start" x="44" y="-37.5" font-family="Helvetica,sans-Serif" font-size="10.00">+ throughput</text>
<text text-anchor="start" x="44" y="-26.5" font-family="Helvetica,sans-Serif" font-size="10.00">+ nmjd</text>
<polyline fill="none" stroke="black" points="36,-19.5 129,-19.5 "/>
<text text-anchor="middle" x="82.5" y="-7.5" font-family="Helvetica,sans-Serif" font-size="10.00"> </text>
</g>
<!-- Node2 -->
<g id="node2" class="node"><title>Node2</title>
<g id="a_node2"><a xlink:href="structsocket__channel.html" target="_top" xlink:title="{socket_channel\n|+ type\l+ cudp\l+ caddr\l+ baddr\l+ caddr6\l+ addrlen\l+ cport\l+ msgsize\l+ address\l+ baddress\l+ name\l|}">
<polygon fill="white" stroke="black" points="0,-127.5 0,-294.5 85,-294.5 85,-127.5 0,-127.5"/>
<text text-anchor="middle" x="42.5" y="-282.5" font-family="Helvetica,sans-Serif" font-size="10.00">socket_channel</text>
<polyline fill="none" stroke="black" points="0,-275.5 85,-275.5 "/>
<text text-anchor="start" x="8" y="-263.5" font-family="Helvetica,sans-Serif" font-size="10.00">+ type</text>
<text text-anchor="start" x="8" y="-252.5" font-family="Helvetica,sans-Serif" font-size="10.00">+ cudp</text>
<text text-anchor="start" x="8" y="-241.5" font-family="Helvetica,sans-Serif" font-size="10.00">+ caddr</text>
<text text-anchor="start" x="8" y="-230.5" font-family="Helvetica,sans-Serif" font-size="10.00">+ baddr</text>
<text text-anchor="start" x="8" y="-219.5" font-family="Helvetica,sans-Serif" font-size="10.00">+ caddr6</text>
<text text-anchor="start" x="8" y="-208.5" font-family="Helvetica,sans-Serif" font-size="10.00">+ addrlen</text>
<text text-anchor="start" x="8" y="-197.5" font-family="Helvetica,sans-Serif" font-size="10.00">+ cport</text>
<text text-anchor="start" x="8" y="-186.5" font-family="Helvetica,sans-Serif" font-size="10.00">+ msgsize</text>
<text text-anchor="start" x="8" y="-175.5" font-family="Helvetica,sans-Serif" font-size="10.00">+ address</text>
<text text-anchor="start" x="8" y="-164.5" font-family="Helvetica,sans-Serif" font-size="10.00">+ baddress</text>
<text text-anchor="start" x="8" y="-153.5" font-family="Helvetica,sans-Serif" font-size="10.00">+ name</text>
<polyline fill="none" stroke="black" points="0,-146.5 85,-146.5 "/>
<text text-anchor="middle" x="42.5" y="-134.5" font-family="Helvetica,sans-Serif" font-size="10.00"> </text>
</a>
</g>
</g>
<!-- Node2&#45;&gt;Node1 -->
<g id="edge1" class="edge"><title>Node2&#45;&gt;Node1</title>
<path fill="none" stroke="#404040" d="M43.3268,-127.262C44.6959,-117.279 46.6808,-107.324 49.5,-98 50.2239,-95.6057 51.065,-93.2044 51.9981,-90.8148"/>
<polygon fill="none" stroke="#404040" points="52.0324,-90.7382 50.8358,-83.627 56.9397,-79.7875 58.1363,-86.8986 52.0324,-90.7382"/>
<text text-anchor="middle" x="75.5" y="-101" font-family="Helvetica,sans-Serif" font-size="10.00"> +sendchan</text>
</g>
<!-- Node3 -->
<g id="node3" class="node"><title>Node3</title>
<polygon fill="white" stroke="#bfbfbf" points="103,-182.5 103,-239.5 144,-239.5 144,-182.5 103,-182.5"/>
<text text-anchor="middle" x="123.5" y="-227.5" font-family="Helvetica,sans-Serif" font-size="10.00">string</text>
<polyline fill="none" stroke="#bfbfbf" points="103,-220.5 144,-220.5 "/>
<text text-anchor="middle" x="123.5" y="-208.5" font-family="Helvetica,sans-Serif" font-size="10.00"> </text>
<polyline fill="none" stroke="#bfbfbf" points="103,-201.5 144,-201.5 "/>
<text text-anchor="middle" x="123.5" y="-189.5" font-family="Helvetica,sans-Serif" font-size="10.00"> </text>
</g>
<!-- Node3&#45;&gt;Node1 -->
<g id="edge2" class="edge"><title>Node3&#45;&gt;Node1</title>
<path fill="none" stroke="#404040" d="M119.05,-182.16C115.163,-159.361 108.979,-126.358 101.5,-98 100.936,-95.8614 100.335,-93.686 99.7072,-91.4947"/>
<polygon fill="none" stroke="#404040" points="99.626,-91.2261 94.0593,-86.6423 96.1495,-79.7408 101.716,-84.3246 99.626,-91.2261"/>
<text text-anchor="middle" x="138.5" y="-101" font-family="Helvetica,sans-Serif" font-size="10.00"> +destination_ip</text>
</g>
</g>
</svg>
