<?xml version="1.0" encoding="UTF-8" standalone="no"?>
<!DOCTYPE svg PUBLIC "-//W3C//DTD SVG 1.1//EN"
 "http://www.w3.org/Graphics/SVG/1.1/DTD/svg11.dtd">
<!-- Generated by graphviz version 2.38.0 (20140413.2041)
 -->
<!-- Title: nodestruc Pages: 1 -->
<svg width="844pt" height="1548pt"
 viewBox="0.00 0.00 844.00 1548.00" xmlns="http://www.w3.org/2000/svg" xmlns:xlink="http://www.w3.org/1999/xlink">
<g id="graph0" class="graph" transform="scale(1 1) rotate(0) translate(4 1544)">
<title>nodestruc</title>
<polygon fill="white" stroke="none" points="-4,4 -4,-1544 840,-1544 840,4 -4,4"/>
<!-- Node1 -->
<g id="node1" class="node"><title>Node1</title>
<polygon fill="#bfbfbf" stroke="black" points="487,-0.5 487,-178.5 567,-178.5 567,-0.5 487,-0.5"/>
<text text-anchor="middle" x="527" y="-166.5" font-family="Helvetica,sans-Serif" font-size="10.00">nodestruc</text>
<polyline fill="none" stroke="black" points="487,-159.5 567,-159.5 "/>
<text text-anchor="start" x="495" y="-147.5" font-family="Helvetica,sans-Serif" font-size="10.00">+ name</text>
<text text-anchor="start" x="495" y="-136.5" font-family="Helvetica,sans-Serif" font-size="10.00">+ lastevent</text>
<text text-anchor="start" x="495" y="-125.5" font-family="Helvetica,sans-Serif" font-size="10.00">+ lasteventutc</text>
<text text-anchor="start" x="495" y="-114.5" font-family="Helvetica,sans-Serif" font-size="10.00">+ type</text>
<text text-anchor="start" x="495" y="-103.5" font-family="Helvetica,sans-Serif" font-size="10.00">+ state</text>
<text text-anchor="start" x="495" y="-92.5" font-family="Helvetica,sans-Serif" font-size="10.00">+ vertex_cnt</text>
<text text-anchor="start" x="495" y="-81.5" font-family="Helvetica,sans-Serif" font-size="10.00">+ normal_cnt</text>
<text text-anchor="start" x="495" y="-70.5" font-family="Helvetica,sans-Serif" font-size="10.00">+ face_cnt</text>
<text text-anchor="start" x="495" y="-59.5" font-family="Helvetica,sans-Serif" font-size="10.00">+ piece_cnt</text>
<text text-anchor="start" x="495" y="-48.5" font-family="Helvetica,sans-Serif" font-size="10.00">+ device_cnt</text>
<text text-anchor="start" x="495" y="-37.5" font-family="Helvetica,sans-Serif" font-size="10.00">and 17 more...</text>
<polyline fill="none" stroke="black" points="487,-30.5 567,-30.5 "/>
<text text-anchor="start" x="495" y="-18.5" font-family="Helvetica,sans-Serif" font-size="10.00">+ to_json()</text>
<text text-anchor="start" x="495" y="-7.5" font-family="Helvetica,sans-Serif" font-size="10.00">+ from_json()</text>
</g>
<!-- Node2 -->
<g id="node2" class="node"><title>Node2</title>
<g id="a_node2"><a xlink:href="structlocstruc.html" target="_top" xlink:title="{locstruc\n|+ utc\l|+ to_json()\l+ from_json()\l}">
<polygon fill="white" stroke="black" points="381,-281.5 381,-349.5 455,-349.5 455,-281.5 381,-281.5"/>
<text text-anchor="middle" x="418" y="-337.5" font-family="Helvetica,sans-Serif" font-size="10.00">locstruc</text>
<polyline fill="none" stroke="black" points="381,-330.5 455,-330.5 "/>
<text text-anchor="start" x="389" y="-318.5" font-family="Helvetica,sans-Serif" font-size="10.00">+ utc</text>
<polyline fill="none" stroke="black" points="381,-311.5 455,-311.5 "/>
<text text-anchor="start" x="389" y="-299.5" font-family="Helvetica,sans-Serif" font-size="10.00">+ to_json()</text>
<text text-anchor="start" x="389" y="-288.5" font-family="Helvetica,sans-Serif" font-size="10.00">+ from_json()</text>
</a>
</g>
</g>
<!-- Node2&#45;&gt;Node1 -->
<g id="edge1" class="edge"><title>Node2&#45;&gt;Node1</title>
<path fill="none" stroke="#404040" d="M434.083,-281.448C446.587,-255.752 464.581,-218.775 481.409,-184.191"/>
<polygon fill="none" stroke="#404040" points="481.573,-183.855 480.602,-176.709 486.824,-173.064 487.795,-180.21 481.573,-183.855"/>
<text text-anchor="middle" x="484" y="-200" font-family="Helvetica,sans-Serif" font-size="10.00"> +loc</text>
</g>
<!-- Node3 -->
<g id="node3" class="node"><title>Node3</title>
<g id="a_node3"><a xlink:href="structposstruc.html" target="_top" xlink:title="{posstruc\n|+ utc\l+ earthsep\l+ moonsep\l+ sunsize\l+ sunradiance\l+ orbit\l|+ to_json()\l+ from_json()\l}">
<polygon fill="white" stroke="black" points="179,-606.5 179,-729.5 257,-729.5 257,-606.5 179,-606.5"/>
<text text-anchor="middle" x="218" y="-717.5" font-family="Helvetica,sans-Serif" font-size="10.00">posstruc</text>
<polyline fill="none" stroke="black" points="179,-710.5 257,-710.5 "/>
<text text-anchor="start" x="187" y="-698.5" font-family="Helvetica,sans-Serif" font-size="10.00">+ utc</text>
<text text-anchor="start" x="187" y="-687.5" font-family="Helvetica,sans-Serif" font-size="10.00">+ earthsep</text>
<text text-anchor="start" x="187" y="-676.5" font-family="Helvetica,sans-Serif" font-size="10.00">+ moonsep</text>
<text text-anchor="start" x="187" y="-665.5" font-family="Helvetica,sans-Serif" font-size="10.00">+ sunsize</text>
<text text-anchor="start" x="187" y="-654.5" font-family="Helvetica,sans-Serif" font-size="10.00">+ sunradiance</text>
<text text-anchor="start" x="187" y="-643.5" font-family="Helvetica,sans-Serif" font-size="10.00">+ orbit</text>
<polyline fill="none" stroke="black" points="179,-636.5 257,-636.5 "/>
<text text-anchor="start" x="187" y="-624.5" font-family="Helvetica,sans-Serif" font-size="10.00">+ to_json()</text>
<text text-anchor="start" x="187" y="-613.5" font-family="Helvetica,sans-Serif" font-size="10.00">+ from_json()</text>
</a>
</g>
</g>
<!-- Node3&#45;&gt;Node2 -->
<g id="edge2" class="edge"><title>Node3&#45;&gt;Node2</title>
<path fill="none" stroke="#404040" d="M252.609,-606.348C292.687,-536.11 357.72,-422.14 393.117,-360.107"/>
<polygon fill="none" stroke="#404040" points="393.213,-359.939 392.713,-352.745 399.161,-349.516 399.661,-356.71 393.213,-359.939"/>
<text text-anchor="middle" x="366.5" y="-481" font-family="Helvetica,sans-Serif" font-size="10.00"> +pos</text>
</g>
<!-- Node4 -->
<g id="node4" class="node"><title>Node4</title>
<g id="a_node4"><a xlink:href="structgeoidpos.html" target="_top" xlink:title="Geodetic position structure. ">
<polygon fill="white" stroke="black" points="0,-904 0,-983 74,-983 74,-904 0,-904"/>
<text text-anchor="middle" x="37" y="-971" font-family="Helvetica,sans-Serif" font-size="10.00">geoidpos</text>
<polyline fill="none" stroke="black" points="0,-964 74,-964 "/>
<text text-anchor="start" x="8" y="-952" font-family="Helvetica,sans-Serif" font-size="10.00">+ utc</text>
<text text-anchor="start" x="8" y="-941" font-family="Helvetica,sans-Serif" font-size="10.00">+ pass</text>
<polyline fill="none" stroke="black" points="0,-934 74,-934 "/>
<text text-anchor="start" x="8" y="-922" font-family="Helvetica,sans-Serif" font-size="10.00">+ to_json()</text>
<text text-anchor="start" x="8" y="-911" font-family="Helvetica,sans-Serif" font-size="10.00">+ from_json()</text>
</a>
</g>
</g>
<!-- Node4&#45;&gt;Node3 -->
<g id="edge3" class="edge"><title>Node4&#45;&gt;Node3</title>
<path fill="none" stroke="#404040" d="M50.4885,-903.967C62.4113,-872.48 81.5345,-827.528 105,-792 123.623,-763.804 148.706,-735.791 170.509,-713.637"/>
<polygon fill="none" stroke="#404040" points="170.517,-713.629 171.926,-706.557 178.996,-705.137 177.587,-712.21 170.517,-713.629"/>
<text text-anchor="middle" x="119" y="-822.5" font-family="Helvetica,sans-Serif" font-size="10.00"> +selg</text>
<text text-anchor="middle" x="119" y="-811.5" font-family="Helvetica,sans-Serif" font-size="10.00">+geod</text>
</g>
<!-- Node5 -->
<g id="node5" class="node"><title>Node5</title>
<g id="a_node5"><a xlink:href="structgvector.html" target="_top" xlink:title="3 element geodetic vector ">
<polygon fill="white" stroke="black" points="0,-1179.5 0,-1291.5 74,-1291.5 74,-1179.5 0,-1179.5"/>
<text text-anchor="middle" x="37" y="-1279.5" font-family="Helvetica,sans-Serif" font-size="10.00">gvector</text>
<polyline fill="none" stroke="black" points="0,-1272.5 74,-1272.5 "/>
<text text-anchor="start" x="8" y="-1260.5" font-family="Helvetica,sans-Serif" font-size="10.00">+ lat</text>
<text text-anchor="start" x="8" y="-1249.5" font-family="Helvetica,sans-Serif" font-size="10.00">+ lon</text>
<text text-anchor="start" x="8" y="-1238.5" font-family="Helvetica,sans-Serif" font-size="10.00">+ h</text>
<polyline fill="none" stroke="black" points="0,-1231.5 74,-1231.5 "/>
<text text-anchor="start" x="8" y="-1219.5" font-family="Helvetica,sans-Serif" font-size="10.00">+ gvector()</text>
<text text-anchor="start" x="8" y="-1208.5" font-family="Helvetica,sans-Serif" font-size="10.00">+ gvector()</text>
<text text-anchor="start" x="8" y="-1197.5" font-family="Helvetica,sans-Serif" font-size="10.00">+ to_json()</text>
<text text-anchor="start" x="8" y="-1186.5" font-family="Helvetica,sans-Serif" font-size="10.00">+ from_json()</text>
</a>
</g>
</g>
<!-- Node5&#45;&gt;Node4 -->
<g id="edge4" class="edge"><title>Node5&#45;&gt;Node4</title>
<path fill="none" stroke="#404040" d="M37,-1179.27C37,-1126.29 37,-1046.93 37,-995.435"/>
<polygon fill="none" stroke="#404040" points="37.0001,-995.295 33,-989.295 37,-983.295 41,-989.294 37.0001,-995.295"/>
<text text-anchor="middle" x="44.5" y="-1109" font-family="Helvetica,sans-Serif" font-size="10.00"> +a</text>
<text text-anchor="middle" x="44.5" y="-1098" font-family="Helvetica,sans-Serif" font-size="10.00">+s</text>
<text text-anchor="middle" x="44.5" y="-1087" font-family="Helvetica,sans-Serif" font-size="10.00">+v</text>
</g>
<!-- Node6 -->
<g id="node6" class="node"><title>Node6</title>
<g id="a_node6"><a xlink:href="structspherpos.html" target="_top" xlink:title="Spherical position structure. ">
<polygon fill="white" stroke="black" points="92,-904 92,-983 166,-983 166,-904 92,-904"/>
<text text-anchor="middle" x="129" y="-971" font-family="Helvetica,sans-Serif" font-size="10.00">spherpos</text>
<polyline fill="none" stroke="black" points="92,-964 166,-964 "/>
<text text-anchor="start" x="100" y="-952" font-family="Helvetica,sans-Serif" font-size="10.00">+ utc</text>
<text text-anchor="start" x="100" y="-941" font-family="Helvetica,sans-Serif" font-size="10.00">+ pass</text>
<polyline fill="none" stroke="black" points="92,-934 166,-934 "/>
<text text-anchor="start" x="100" y="-922" font-family="Helvetica,sans-Serif" font-size="10.00">+ to_json()</text>
<text text-anchor="start" x="100" y="-911" font-family="Helvetica,sans-Serif" font-size="10.00">+ from_json()</text>
</a>
</g>
</g>
<!-- Node6&#45;&gt;Node3 -->
<g id="edge5" class="edge"><title>Node6&#45;&gt;Node3</title>
<path fill="none" stroke="#404040" d="M130.127,-903.874C131.974,-872.927 136.75,-828.759 149,-792 155.001,-773.993 163.694,-755.613 172.899,-738.737"/>
<polygon fill="none" stroke="#404040" points="173.12,-738.345 172.573,-731.154 178.999,-727.884 179.547,-735.074 173.12,-738.345"/>
<text text-anchor="middle" x="164.5" y="-817" font-family="Helvetica,sans-Serif" font-size="10.00"> +geos</text>
</g>
<!-- Node7 -->
<g id="node7" class="node"><title>Node7</title>
<g id="a_node7"><a xlink:href="structsvector.html" target="_top" xlink:title="3 element spherical vector ">
<polygon fill="white" stroke="black" points="92,-1179.5 92,-1291.5 166,-1291.5 166,-1179.5 92,-1179.5"/>
<text text-anchor="middle" x="129" y="-1279.5" font-family="Helvetica,sans-Serif" font-size="10.00">svector</text>
<polyline fill="none" stroke="black" points="92,-1272.5 166,-1272.5 "/>
<text text-anchor="start" x="100" y="-1260.5" font-family="Helvetica,sans-Serif" font-size="10.00">+ phi</text>
<text text-anchor="start" x="100" y="-1249.5" font-family="Helvetica,sans-Serif" font-size="10.00">+ lambda</text>
<text text-anchor="start" x="100" y="-1238.5" font-family="Helvetica,sans-Serif" font-size="10.00">+ r</text>
<polyline fill="none" stroke="black" points="92,-1231.5 166,-1231.5 "/>
<text text-anchor="start" x="100" y="-1219.5" font-family="Helvetica,sans-Serif" font-size="10.00">+ svector()</text>
<text text-anchor="start" x="100" y="-1208.5" font-family="Helvetica,sans-Serif" font-size="10.00">+ svector()</text>
<text text-anchor="start" x="100" y="-1197.5" font-family="Helvetica,sans-Serif" font-size="10.00">+ to_json()</text>
<text text-anchor="start" x="100" y="-1186.5" font-family="Helvetica,sans-Serif" font-size="10.00">+ from_json()</text>
</a>
</g>
</g>
<!-- Node7&#45;&gt;Node6 -->
<g id="edge6" class="edge"><title>Node7&#45;&gt;Node6</title>
<path fill="none" stroke="#404040" d="M129,-1179.27C129,-1126.29 129,-1046.93 129,-995.435"/>
<polygon fill="none" stroke="#404040" points="129,-995.295 125,-989.295 129,-983.295 133,-989.294 129,-995.295"/>
<text text-anchor="middle" x="136.5" y="-1109" font-family="Helvetica,sans-Serif" font-size="10.00"> +a</text>
<text text-anchor="middle" x="136.5" y="-1098" font-family="Helvetica,sans-Serif" font-size="10.00">+s</text>
<text text-anchor="middle" x="136.5" y="-1087" font-family="Helvetica,sans-Serif" font-size="10.00">+v</text>
</g>
<!-- Node8 -->
<g id="node8" class="node"><title>Node8</title>
<g id="a_node8"><a xlink:href="structcartpos.html" target="_top" xlink:title="Cartesian full position structure. ">
<polygon fill="white" stroke="black" points="235,-1196 235,-1275 309,-1275 309,-1196 235,-1196"/>
<text text-anchor="middle" x="272" y="-1263" font-family="Helvetica,sans-Serif" font-size="10.00">cartpos</text>
<polyline fill="none" stroke="black" points="235,-1256 309,-1256 "/>
<text text-anchor="start" x="243" y="-1244" font-family="Helvetica,sans-Serif" font-size="10.00">+ utc</text>
<text text-anchor="start" x="243" y="-1233" font-family="Helvetica,sans-Serif" font-size="10.00">+ pass</text>
<polyline fill="none" stroke="black" points="235,-1226 309,-1226 "/>
<text text-anchor="start" x="243" y="-1214" font-family="Helvetica,sans-Serif" font-size="10.00">+ to_json()</text>
<text text-anchor="start" x="243" y="-1203" font-family="Helvetica,sans-Serif" font-size="10.00">+ from_json()</text>
</a>
</g>
</g>
<!-- Node8&#45;&gt;Node3 -->
<g id="edge7" class="edge"><title>Node8&#45;&gt;Node3</title>
<path fill="none" stroke="#404040" d="M268.288,-1195.63C259.35,-1102.03 236.515,-862.897 224.945,-741.726"/>
<polygon fill="none" stroke="#404040" points="224.934,-741.615 220.382,-736.022 223.793,-729.669 228.346,-735.262 224.934,-741.615"/>
<text text-anchor="middle" x="266" y="-963" font-family="Helvetica,sans-Serif" font-size="10.00"> +selc</text>
<text text-anchor="middle" x="266" y="-952" font-family="Helvetica,sans-Serif" font-size="10.00">+icrf</text>
<text text-anchor="middle" x="266" y="-941" font-family="Helvetica,sans-Serif" font-size="10.00">+sci</text>
<text text-anchor="middle" x="266" y="-930" font-family="Helvetica,sans-Serif" font-size="10.00">+geoc</text>
<text text-anchor="middle" x="266" y="-919" font-family="Helvetica,sans-Serif" font-size="10.00">+eci</text>
</g>
<!-- Node10 -->
<g id="node10" class="node"><title>Node10</title>
<g id="a_node10"><a xlink:href="structextrapos.html" target="_top" xlink:title="Additional parameters relating to position that need only be calculated once. ">
<polygon fill="white" stroke="black" points="289,-865.5 289,-1021.5 363,-1021.5 363,-865.5 289,-865.5"/>
<text text-anchor="middle" x="326" y="-1009.5" font-family="Helvetica,sans-Serif" font-size="10.00">extrapos</text>
<polyline fill="none" stroke="black" points="289,-1002.5 363,-1002.5 "/>
<text text-anchor="start" x="297" y="-990.5" font-family="Helvetica,sans-Serif" font-size="10.00">+ utc</text>
<text text-anchor="start" x="297" y="-979.5" font-family="Helvetica,sans-Serif" font-size="10.00">+ tt</text>
<text text-anchor="start" x="297" y="-968.5" font-family="Helvetica,sans-Serif" font-size="10.00">+ ut</text>
<text text-anchor="start" x="297" y="-957.5" font-family="Helvetica,sans-Serif" font-size="10.00">+ tdb</text>
<text text-anchor="start" x="297" y="-946.5" font-family="Helvetica,sans-Serif" font-size="10.00">+ j2e</text>
<text text-anchor="start" x="297" y="-935.5" font-family="Helvetica,sans-Serif" font-size="10.00">+ dj2e</text>
<text text-anchor="start" x="297" y="-924.5" font-family="Helvetica,sans-Serif" font-size="10.00">+ ddj2e</text>
<text text-anchor="start" x="297" y="-913.5" font-family="Helvetica,sans-Serif" font-size="10.00">+ de2j</text>
<text text-anchor="start" x="297" y="-902.5" font-family="Helvetica,sans-Serif" font-size="10.00">+ closest</text>
<polyline fill="none" stroke="black" points="289,-895.5 363,-895.5 "/>
<text text-anchor="start" x="297" y="-883.5" font-family="Helvetica,sans-Serif" font-size="10.00">+ to_json()</text>
<text text-anchor="start" x="297" y="-872.5" font-family="Helvetica,sans-Serif" font-size="10.00">+ from_json()</text>
</a>
</g>
</g>
<!-- Node8&#45;&gt;Node10 -->
<g id="edge11" class="edge"><title>Node8&#45;&gt;Node10</title>
<path fill="none" stroke="#404040" d="M269.382,-1195.85C267.71,-1156.13 267.889,-1092.82 281,-1040 282.079,-1035.65 283.362,-1031.27 284.8,-1026.89"/>
<polygon fill="none" stroke="#404040" points="284.89,-1026.64 283.148,-1019.64 288.937,-1015.34 290.679,-1022.34 284.89,-1026.64"/>
<text text-anchor="middle" x="308.5" y="-1103.5" font-family="Helvetica,sans-Serif" font-size="10.00"> +sun2moon</text>
<text text-anchor="middle" x="308.5" y="-1092.5" font-family="Helvetica,sans-Serif" font-size="10.00">+sun2earth</text>
</g>
<!-- Node9 -->
<g id="node9" class="node"><title>Node9</title>
<g id="a_node9"><a xlink:href="structrvector.html" target="_top" xlink:title="3 element generic row vector ">
<polygon fill="white" stroke="black" points="281,-1405.5 281,-1495.5 355,-1495.5 355,-1405.5 281,-1405.5"/>
<text text-anchor="middle" x="318" y="-1483.5" font-family="Helvetica,sans-Serif" font-size="10.00">rvector</text>
<polyline fill="none" stroke="black" points="281,-1476.5 355,-1476.5 "/>
<text text-anchor="start" x="289" y="-1464.5" font-family="Helvetica,sans-Serif" font-size="10.00">+ col</text>
<polyline fill="none" stroke="black" points="281,-1457.5 355,-1457.5 "/>
<text text-anchor="start" x="289" y="-1445.5" font-family="Helvetica,sans-Serif" font-size="10.00">+ rvector()</text>
<text text-anchor="start" x="289" y="-1434.5" font-family="Helvetica,sans-Serif" font-size="10.00">+ rvector()</text>
<text text-anchor="start" x="289" y="-1423.5" font-family="Helvetica,sans-Serif" font-size="10.00">+ to_json()</text>
<text text-anchor="start" x="289" y="-1412.5" font-family="Helvetica,sans-Serif" font-size="10.00">+ from_json()</text>
</a>
</g>
</g>
<!-- Node9&#45;&gt;Node3 -->
<g id="edge9" class="edge"><title>Node9&#45;&gt;Node3</title>
<path fill="none" stroke="#404040" d="M285.297,-1405.46C264.612,-1375.16 239.342,-1333.11 226,-1292 164.167,-1101.46 187.61,-860.56 205.308,-741.881"/>
<polygon fill="none" stroke="#404040" points="205.349,-741.611 202.301,-735.076 207.161,-729.748 210.209,-736.284 205.349,-741.611"/>
<text text-anchor="middle" x="215.5" y="-1098" font-family="Helvetica,sans-Serif" font-size="10.00"> +bearth</text>
</g>
<!-- Node9&#45;&gt;Node8 -->
<g id="edge8" class="edge"><title>Node9&#45;&gt;Node8</title>
<path fill="none" stroke="#404040" d="M308.469,-1405.37C301.054,-1371.03 290.755,-1323.34 282.992,-1287.4"/>
<polygon fill="none" stroke="#404040" points="282.894,-1286.94 277.717,-1281.92 280.361,-1275.21 285.537,-1280.23 282.894,-1286.94"/>
<text text-anchor="middle" x="302.5" y="-1335" font-family="Helvetica,sans-Serif" font-size="10.00"> +a</text>
<text text-anchor="middle" x="302.5" y="-1324" font-family="Helvetica,sans-Serif" font-size="10.00">+s</text>
<text text-anchor="middle" x="302.5" y="-1313" font-family="Helvetica,sans-Serif" font-size="10.00">+v</text>
</g>
<!-- Node11 -->
<g id="node11" class="node"><title>Node11</title>
<g id="a_node11"><a xlink:href="structrmatrix.html" target="_top" xlink:title="3x3 element generic matrix ">
<polygon fill="white" stroke="black" points="327,-1190.5 327,-1280.5 401,-1280.5 401,-1190.5 327,-1190.5"/>
<text text-anchor="middle" x="364" y="-1268.5" font-family="Helvetica,sans-Serif" font-size="10.00">rmatrix</text>
<polyline fill="none" stroke="black" points="327,-1261.5 401,-1261.5 "/>
<text text-anchor="middle" x="364" y="-1249.5" font-family="Helvetica,sans-Serif" font-size="10.00"> </text>
<polyline fill="none" stroke="black" points="327,-1242.5 401,-1242.5 "/>
<text text-anchor="start" x="335" y="-1230.5" font-family="Helvetica,sans-Serif" font-size="10.00">+ rmatrix()</text>
<text text-anchor="start" x="335" y="-1219.5" font-family="Helvetica,sans-Serif" font-size="10.00">+ rmatrix()</text>
<text text-anchor="start" x="335" y="-1208.5" font-family="Helvetica,sans-Serif" font-size="10.00">+ to_json()</text>
<text text-anchor="start" x="335" y="-1197.5" font-family="Helvetica,sans-Serif" font-size="10.00">+ from_json()</text>
</a>
</g>
</g>
<!-- Node9&#45;&gt;Node11 -->
<g id="edge13" class="edge"><title>Node9&#45;&gt;Node11</title>
<path fill="none" stroke="#404040" d="M327.531,-1405.37C334.593,-1372.67 344.271,-1327.85 351.883,-1292.61"/>
<polygon fill="none" stroke="#404040" points="351.948,-1292.31 349.305,-1285.6 354.481,-1280.58 357.124,-1287.29 351.948,-1292.31"/>
<text text-anchor="middle" x="360.5" y="-1324" font-family="Helvetica,sans-Serif" font-size="10.00"> +row</text>
</g>
<!-- Node13 -->
<g id="node13" class="node"><title>Node13</title>
<g id="a_node13"><a xlink:href="structqatt.html" target="_top" xlink:title="Quaternion Attitude. ">
<polygon fill="white" stroke="black" points="473,-904 473,-983 547,-983 547,-904 473,-904"/>
<text text-anchor="middle" x="510" y="-971" font-family="Helvetica,sans-Serif" font-size="10.00">qatt</text>
<polyline fill="none" stroke="black" points="473,-964 547,-964 "/>
<text text-anchor="start" x="481" y="-952" font-family="Helvetica,sans-Serif" font-size="10.00">+ utc</text>
<text text-anchor="start" x="481" y="-941" font-family="Helvetica,sans-Serif" font-size="10.00">+ pass</text>
<polyline fill="none" stroke="black" points="473,-934 547,-934 "/>
<text text-anchor="start" x="481" y="-922" font-family="Helvetica,sans-Serif" font-size="10.00">+ to_json()</text>
<text text-anchor="start" x="481" y="-911" font-family="Helvetica,sans-Serif" font-size="10.00">+ from_json()</text>
</a>
</g>
</g>
<!-- Node9&#45;&gt;Node13 -->
<g id="edge18" class="edge"><title>Node9&#45;&gt;Node13</title>
<path fill="none" stroke="#404040" d="M347.875,-1405.23C367.597,-1374.49 392.866,-1332.03 410,-1292 453.578,-1190.19 484.583,-1063.68 499.649,-994.86"/>
<polygon fill="none" stroke="#404040" points="499.654,-994.834 497.012,-988.124 502.19,-983.105 504.832,-989.815 499.654,-994.834"/>
<text text-anchor="middle" x="457.5" y="-1238.5" font-family="Helvetica,sans-Serif" font-size="10.00"> +a</text>
<text text-anchor="middle" x="457.5" y="-1227.5" font-family="Helvetica,sans-Serif" font-size="10.00">+v</text>
</g>
<!-- Node10&#45;&gt;Node3 -->
<g id="edge10" class="edge"><title>Node10&#45;&gt;Node3</title>
<path fill="none" stroke="#404040" d="M295.485,-865.223C280.109,-826.285 261.578,-779.357 246.494,-741.159"/>
<polygon fill="none" stroke="#404040" points="246.338,-740.764 240.414,-736.653 241.931,-729.603 247.855,-733.715 246.338,-740.764"/>
<text text-anchor="middle" x="303.5" y="-817" font-family="Helvetica,sans-Serif" font-size="10.00"> +extra</text>
</g>
<!-- Node11&#45;&gt;Node10 -->
<g id="edge12" class="edge"><title>Node11&#45;&gt;Node10</title>
<path fill="none" stroke="#404040" d="M358.229,-1190.46C352.797,-1149 344.501,-1085.69 337.687,-1033.69"/>
<polygon fill="none" stroke="#404040" points="337.682,-1033.65 332.937,-1028.23 336.123,-1021.76 340.869,-1027.19 337.682,-1033.65"/>
<text text-anchor="middle" x="369" y="-1153" font-family="Helvetica,sans-Serif" font-size="10.00"> +t2s</text>
<text text-anchor="middle" x="369" y="-1142" font-family="Helvetica,sans-Serif" font-size="10.00">+s2t</text>
<text text-anchor="middle" x="369" y="-1131" font-family="Helvetica,sans-Serif" font-size="10.00">+dt2s</text>
<text text-anchor="middle" x="369" y="-1120" font-family="Helvetica,sans-Serif" font-size="10.00">+ds2t</text>
<text text-anchor="middle" x="369" y="-1109" font-family="Helvetica,sans-Serif" font-size="10.00">+s2j</text>
<text text-anchor="middle" x="369" y="-1098" font-family="Helvetica,sans-Serif" font-size="10.00">+j2s</text>
<text text-anchor="middle" x="369" y="-1087" font-family="Helvetica,sans-Serif" font-size="10.00">+t2j</text>
<text text-anchor="middle" x="369" y="-1076" font-family="Helvetica,sans-Serif" font-size="10.00">+j2t</text>
<text text-anchor="middle" x="369" y="-1065" font-family="Helvetica,sans-Serif" font-size="10.00">+dde2j</text>
<text text-anchor="middle" x="369" y="-1054" font-family="Helvetica,sans-Serif" font-size="10.00">+e2j</text>
<text text-anchor="middle" x="369" y="-1043" font-family="Helvetica,sans-Serif" font-size="10.00">...</text>
</g>
<!-- Node16 -->
<g id="node16" class="node"><title>Node16</title>
<g id="a_node16"><a xlink:href="structextraatt.html" target="_top" xlink:title="Additional parameters relating to position that need only be calculated once. ">
<polygon fill="white" stroke="black" points="381,-909.5 381,-977.5 455,-977.5 455,-909.5 381,-909.5"/>
<text text-anchor="middle" x="418" y="-965.5" font-family="Helvetica,sans-Serif" font-size="10.00">extraatt</text>
<polyline fill="none" stroke="black" points="381,-958.5 455,-958.5 "/>
<text text-anchor="start" x="389" y="-946.5" font-family="Helvetica,sans-Serif" font-size="10.00">+ utc</text>
<polyline fill="none" stroke="black" points="381,-939.5 455,-939.5 "/>
<text text-anchor="start" x="389" y="-927.5" font-family="Helvetica,sans-Serif" font-size="10.00">+ to_json()</text>
<text text-anchor="start" x="389" y="-916.5" font-family="Helvetica,sans-Serif" font-size="10.00">+ from_json()</text>
</a>
</g>
</g>
<!-- Node11&#45;&gt;Node16 -->
<g id="edge20" class="edge"><title>Node11&#45;&gt;Node16</title>
<path fill="none" stroke="#404040" d="M379.883,-1190.16C382.9,-1180.63 385.798,-1170.55 388,-1161 401.455,-1102.65 409.721,-1033.98 414.083,-989.878"/>
<polygon fill="none" stroke="#404040" points="414.091,-989.79 410.682,-983.435 415.236,-977.844 418.646,-984.199 414.091,-989.79"/>
<text text-anchor="middle" x="419" y="-1103.5" font-family="Helvetica,sans-Serif" font-size="10.00"> +b2j</text>
<text text-anchor="middle" x="419" y="-1092.5" font-family="Helvetica,sans-Serif" font-size="10.00">+j2b</text>
</g>
<!-- Node12 -->
<g id="node12" class="node"><title>Node12</title>
<g id="a_node12"><a xlink:href="structattstruc.html" target="_top" xlink:title="{attstruc\n|+ utc\l|+ to_json()\l+ from_json()\l}">
<polygon fill="white" stroke="black" points="381,-634 381,-702 455,-702 455,-634 381,-634"/>
<text text-anchor="middle" x="418" y="-690" font-family="Helvetica,sans-Serif" font-size="10.00">attstruc</text>
<polyline fill="none" stroke="black" points="381,-683 455,-683 "/>
<text text-anchor="start" x="389" y="-671" font-family="Helvetica,sans-Serif" font-size="10.00">+ utc</text>
<polyline fill="none" stroke="black" points="381,-664 455,-664 "/>
<text text-anchor="start" x="389" y="-652" font-family="Helvetica,sans-Serif" font-size="10.00">+ to_json()</text>
<text text-anchor="start" x="389" y="-641" font-family="Helvetica,sans-Serif" font-size="10.00">+ from_json()</text>
</a>
</g>
</g>
<!-- Node12&#45;&gt;Node2 -->
<g id="edge14" class="edge"><title>Node12&#45;&gt;Node2</title>
<path fill="none" stroke="#404040" d="M418,-633.71C418,-570.519 418,-433.133 418,-361.693"/>
<polygon fill="none" stroke="#404040" points="418,-361.568 414,-355.568 418,-349.568 422,-355.568 418,-361.568"/>
<text text-anchor="middle" x="428.5" y="-481" font-family="Helvetica,sans-Serif" font-size="10.00"> +att</text>
</g>
<!-- Node13&#45;&gt;Node12 -->
<g id="edge15" class="edge"><title>Node13&#45;&gt;Node12</title>
<path fill="none" stroke="#404040" d="M497.014,-903.894C480.16,-853.791 450.81,-766.538 433.017,-713.642"/>
<polygon fill="none" stroke="#404040" points="433.014,-713.635 427.31,-709.223 429.188,-702.261 434.893,-706.672 433.014,-713.635"/>
<text text-anchor="middle" x="492" y="-839" font-family="Helvetica,sans-Serif" font-size="10.00"> +selc</text>
<text text-anchor="middle" x="492" y="-828" font-family="Helvetica,sans-Serif" font-size="10.00">+topo</text>
<text text-anchor="middle" x="492" y="-817" font-family="Helvetica,sans-Serif" font-size="10.00">+icrf</text>
<text text-anchor="middle" x="492" y="-806" font-family="Helvetica,sans-Serif" font-size="10.00">+geoc</text>
<text text-anchor="middle" x="492" y="-795" font-family="Helvetica,sans-Serif" font-size="10.00">+lvlh</text>
</g>
<!-- Node14 -->
<g id="node14" class="node"><title>Node14</title>
<g id="a_node14"><a xlink:href="structquaternion.html" target="_top" xlink:title="Quaternion, scalar last, using x, y, z. ">
<polygon fill="white" stroke="black" points="480.5,-1190.5 480.5,-1280.5 557.5,-1280.5 557.5,-1190.5 480.5,-1190.5"/>
<text text-anchor="middle" x="519" y="-1268.5" font-family="Helvetica,sans-Serif" font-size="10.00">quaternion</text>
<polyline fill="none" stroke="black" points="480.5,-1261.5 557.5,-1261.5 "/>
<text text-anchor="start" x="488.5" y="-1249.5" font-family="Helvetica,sans-Serif" font-size="10.00">+ w</text>
<polyline fill="none" stroke="black" points="480.5,-1242.5 557.5,-1242.5 "/>
<text text-anchor="start" x="488.5" y="-1230.5" font-family="Helvetica,sans-Serif" font-size="10.00">+ quaternion()</text>
<text text-anchor="start" x="488.5" y="-1219.5" font-family="Helvetica,sans-Serif" font-size="10.00">+ quaternion()</text>
<text text-anchor="start" x="488.5" y="-1208.5" font-family="Helvetica,sans-Serif" font-size="10.00">+ to_json()</text>
<text text-anchor="start" x="488.5" y="-1197.5" font-family="Helvetica,sans-Serif" font-size="10.00">+ from_json()</text>
</a>
</g>
</g>
<!-- Node14&#45;&gt;Node13 -->
<g id="edge16" class="edge"><title>Node14&#45;&gt;Node13</title>
<path fill="none" stroke="#404040" d="M517.633,-1190.46C516.009,-1138.12 513.304,-1050.96 511.588,-995.682"/>
<polygon fill="none" stroke="#404040" points="511.579,-995.37 507.395,-989.497 511.206,-983.376 515.391,-989.249 511.579,-995.37"/>
<text text-anchor="middle" x="524.5" y="-1098" font-family="Helvetica,sans-Serif" font-size="10.00"> +s</text>
</g>
<!-- Node15 -->
<g id="node15" class="node"><title>Node15</title>
<g id="a_node15"><a xlink:href="classcvector.html" target="_top" xlink:title="3 element cartesian vector ">
<polygon fill="white" stroke="black" points="479.5,-1361.5 479.5,-1539.5 558.5,-1539.5 558.5,-1361.5 479.5,-1361.5"/>
<text text-anchor="middle" x="519" y="-1527.5" font-family="Helvetica,sans-Serif" font-size="10.00">cvector</text>
<polyline fill="none" stroke="black" points="479.5,-1520.5 558.5,-1520.5 "/>
<text text-anchor="start" x="487.5" y="-1508.5" font-family="Helvetica,sans-Serif" font-size="10.00">+ x</text>
<text text-anchor="start" x="487.5" y="-1497.5" font-family="Helvetica,sans-Serif" font-size="10.00">+ y</text>
<text text-anchor="start" x="487.5" y="-1486.5" font-family="Helvetica,sans-Serif" font-size="10.00">+ z</text>
<polyline fill="none" stroke="black" points="479.5,-1479.5 558.5,-1479.5 "/>
<text text-anchor="start" x="487.5" y="-1467.5" font-family="Helvetica,sans-Serif" font-size="10.00">+ cvector()</text>
<text text-anchor="start" x="487.5" y="-1456.5" font-family="Helvetica,sans-Serif" font-size="10.00">+ cvector()</text>
<text text-anchor="start" x="487.5" y="-1445.5" font-family="Helvetica,sans-Serif" font-size="10.00">+ normalize()</text>
<text text-anchor="start" x="487.5" y="-1434.5" font-family="Helvetica,sans-Serif" font-size="10.00">+ length()</text>
<text text-anchor="start" x="487.5" y="-1423.5" font-family="Helvetica,sans-Serif" font-size="10.00">+ norm()</text>
<text text-anchor="start" x="487.5" y="-1412.5" font-family="Helvetica,sans-Serif" font-size="10.00">+ norm2()</text>
<text text-anchor="start" x="487.5" y="-1401.5" font-family="Helvetica,sans-Serif" font-size="10.00">+ normalized()</text>
<text text-anchor="start" x="487.5" y="-1390.5" font-family="Helvetica,sans-Serif" font-size="10.00">+ operator[]()</text>
<text text-anchor="start" x="487.5" y="-1379.5" font-family="Helvetica,sans-Serif" font-size="10.00">+ to_json()</text>
<text text-anchor="start" x="487.5" y="-1368.5" font-family="Helvetica,sans-Serif" font-size="10.00">+ from_json()</text>
</a>
</g>
</g>
<!-- Node15&#45;&gt;Node14 -->
<g id="edge17" class="edge"><title>Node15&#45;&gt;Node14</title>
<path fill="none" stroke="#404040" d="M519,-1361.33C519,-1338.19 519,-1313.86 519,-1292.89"/>
<polygon fill="none" stroke="#404040" points="519,-1292.63 515,-1286.63 519,-1280.63 523,-1286.63 519,-1292.63"/>
<text text-anchor="middle" x="526.5" y="-1324" font-family="Helvetica,sans-Serif" font-size="10.00"> +d</text>
</g>
<!-- Node16&#45;&gt;Node12 -->
<g id="edge19" class="edge"><title>Node16&#45;&gt;Node12</title>
<path fill="none" stroke="#404040" d="M418,-909.237C418,-860.37 418,-769.045 418,-714.158"/>
<polygon fill="none" stroke="#404040" points="418,-714.032 414,-708.032 418,-702.032 422,-708.032 418,-714.032"/>
<text text-anchor="middle" x="433.5" y="-817" font-family="Helvetica,sans-Serif" font-size="10.00"> +extra</text>
</g>
<!-- Node17 -->
<g id="node17" class="node"><title>Node17</title>
<g id="a_node17"><a xlink:href="structphysicsstruc.html" target="_top" xlink:title="Physics Simulation Structure. ">
<polygon fill="white" stroke="black" points="565,-226.5 565,-404.5 639,-404.5 639,-226.5 565,-226.5"/>
<text text-anchor="middle" x="602" y="-392.5" font-family="Helvetica,sans-Serif" font-size="10.00">physicsstruc</text>
<polyline fill="none" stroke="black" points="565,-385.5 639,-385.5 "/>
<text text-anchor="start" x="573" y="-373.5" font-family="Helvetica,sans-Serif" font-size="10.00">+ dt</text>
<text text-anchor="start" x="573" y="-362.5" font-family="Helvetica,sans-Serif" font-size="10.00">+ dtj</text>
<text text-anchor="start" x="573" y="-351.5" font-family="Helvetica,sans-Serif" font-size="10.00">+ utc</text>
<text text-anchor="start" x="573" y="-340.5" font-family="Helvetica,sans-Serif" font-size="10.00">+ mjdaccel</text>
<text text-anchor="start" x="573" y="-329.5" font-family="Helvetica,sans-Serif" font-size="10.00">+ mjddiff</text>
<text text-anchor="start" x="573" y="-318.5" font-family="Helvetica,sans-Serif" font-size="10.00">+ hcap</text>
<text text-anchor="start" x="573" y="-307.5" font-family="Helvetica,sans-Serif" font-size="10.00">+ mass</text>
<text text-anchor="start" x="573" y="-296.5" font-family="Helvetica,sans-Serif" font-size="10.00">+ temp</text>
<text text-anchor="start" x="573" y="-285.5" font-family="Helvetica,sans-Serif" font-size="10.00">+ heat</text>
<text text-anchor="start" x="573" y="-274.5" font-family="Helvetica,sans-Serif" font-size="10.00">+ radiation</text>
<text text-anchor="start" x="573" y="-263.5" font-family="Helvetica,sans-Serif" font-size="10.00">and 9 more...</text>
<polyline fill="none" stroke="black" points="565,-256.5 639,-256.5 "/>
<text text-anchor="start" x="573" y="-244.5" font-family="Helvetica,sans-Serif" font-size="10.00">+ to_json()</text>
<text text-anchor="start" x="573" y="-233.5" font-family="Helvetica,sans-Serif" font-size="10.00">+ from_json()</text>
</a>
</g>
</g>
<!-- Node17&#45;&gt;Node1 -->
<g id="edge21" class="edge"><title>Node17&#45;&gt;Node1</title>
<path fill="none" stroke="#404040" d="M572.466,-226.291C568.489,-214.415 564.388,-202.165 560.351,-190.11"/>
<polygon fill="none" stroke="#404040" points="560.317,-190.008 554.619,-185.588 556.507,-178.629 562.205,-183.048 560.317,-190.008"/>
<text text-anchor="middle" x="580.5" y="-200" font-family="Helvetica,sans-Serif" font-size="10.00"> +phys</text>
</g>
<!-- Node18 -->
<g id="node18" class="node"><title>Node18</title>
<g id="a_node18"><a xlink:href="class_cosmos_1_1_math_1_1_vectors_1_1_vector.html" target="_top" xlink:title="Vector Class. ">
<polygon fill="white" stroke="black" points="473.5,-562.5 473.5,-773.5 594.5,-773.5 594.5,-562.5 473.5,-562.5"/>
<text text-anchor="start" x="481.5" y="-761.5" font-family="Helvetica,sans-Serif" font-size="10.00">Cosmos::Math::Vectors</text>
<text text-anchor="middle" x="534" y="-750.5" font-family="Helvetica,sans-Serif" font-size="10.00">::Vector</text>
<polyline fill="none" stroke="black" points="473.5,-743.5 594.5,-743.5 "/>
<text text-anchor="start" x="481.5" y="-731.5" font-family="Helvetica,sans-Serif" font-size="10.00">+ x</text>
<text text-anchor="start" x="481.5" y="-720.5" font-family="Helvetica,sans-Serif" font-size="10.00">+ y</text>
<text text-anchor="start" x="481.5" y="-709.5" font-family="Helvetica,sans-Serif" font-size="10.00">+ z</text>
<text text-anchor="start" x="481.5" y="-698.5" font-family="Helvetica,sans-Serif" font-size="10.00">+ w</text>
<polyline fill="none" stroke="black" points="473.5,-691.5 594.5,-691.5 "/>
<text text-anchor="start" x="481.5" y="-679.5" font-family="Helvetica,sans-Serif" font-size="10.00">+ Vector()</text>
<text text-anchor="start" x="481.5" y="-668.5" font-family="Helvetica,sans-Serif" font-size="10.00">+ Vector()</text>
<text text-anchor="start" x="481.5" y="-657.5" font-family="Helvetica,sans-Serif" font-size="10.00">+ Vector()</text>
<text text-anchor="start" x="481.5" y="-646.5" font-family="Helvetica,sans-Serif" font-size="10.00">+ Vector()</text>
<text text-anchor="start" x="481.5" y="-635.5" font-family="Helvetica,sans-Serif" font-size="10.00">+ at()</text>
<text text-anchor="start" x="481.5" y="-624.5" font-family="Helvetica,sans-Serif" font-size="10.00">+ to_rv()</text>
<text text-anchor="start" x="481.5" y="-613.5" font-family="Helvetica,sans-Serif" font-size="10.00">+ to_cv()</text>
<text text-anchor="start" x="481.5" y="-602.5" font-family="Helvetica,sans-Serif" font-size="10.00">+ to_q()</text>
<text text-anchor="start" x="481.5" y="-591.5" font-family="Helvetica,sans-Serif" font-size="10.00">+ cross()</text>
<text text-anchor="start" x="481.5" y="-580.5" font-family="Helvetica,sans-Serif" font-size="10.00">+ dot()</text>
<text text-anchor="start" x="481.5" y="-569.5" font-family="Helvetica,sans-Serif" font-size="10.00">and 26 more...</text>
</a>
</g>
</g>
<!-- Node18&#45;&gt;Node17 -->
<g id="edge22" class="edge"><title>Node18&#45;&gt;Node17</title>
<path fill="none" stroke="#404040" d="M554.31,-562.313C563.255,-516.205 573.719,-462.274 582.561,-416.695"/>
<polygon fill="none" stroke="#404040" points="582.605,-416.467 579.821,-409.815 584.891,-404.687 587.675,-411.339 582.605,-416.467"/>
<text text-anchor="middle" x="602" y="-536" font-family="Helvetica,sans-Serif" font-size="10.00"> +atorque</text>
<text text-anchor="middle" x="602" y="-525" font-family="Helvetica,sans-Serif" font-size="10.00">+ctorque</text>
<text text-anchor="middle" x="602" y="-514" font-family="Helvetica,sans-Serif" font-size="10.00">+rtorque</text>
<text text-anchor="middle" x="602" y="-503" font-family="Helvetica,sans-Serif" font-size="10.00">+com</text>
<text text-anchor="middle" x="602" y="-492" font-family="Helvetica,sans-Serif" font-size="10.00">+thrust</text>
<text text-anchor="middle" x="602" y="-481" font-family="Helvetica,sans-Serif" font-size="10.00">+ftorque</text>
<text text-anchor="middle" x="602" y="-470" font-family="Helvetica,sans-Serif" font-size="10.00">+rdrag</text>
<text text-anchor="middle" x="602" y="-459" font-family="Helvetica,sans-Serif" font-size="10.00">+adrag</text>
<text text-anchor="middle" x="602" y="-448" font-family="Helvetica,sans-Serif" font-size="10.00">+gtorque</text>
<text text-anchor="middle" x="602" y="-437" font-family="Helvetica,sans-Serif" font-size="10.00">+htorque</text>
<text text-anchor="middle" x="602" y="-426" font-family="Helvetica,sans-Serif" font-size="10.00">...</text>
</g>
<!-- Node19 -->
<g id="node19" class="node"><title>Node19</title>
<polygon fill="white" stroke="#bfbfbf" points="612.5,-639.5 612.5,-696.5 727.5,-696.5 727.5,-639.5 612.5,-639.5"/>
<text text-anchor="middle" x="670" y="-684.5" font-family="Helvetica,sans-Serif" font-size="10.00">vector&lt; trianglestruc &gt;</text>
<polyline fill="none" stroke="#bfbfbf" points="612.5,-677.5 727.5,-677.5 "/>
<text text-anchor="middle" x="670" y="-665.5" font-family="Helvetica,sans-Serif" font-size="10.00"> </text>
<polyline fill="none" stroke="#bfbfbf" points="612.5,-658.5 727.5,-658.5 "/>
<text text-anchor="middle" x="670" y="-646.5" font-family="Helvetica,sans-Serif" font-size="10.00"> </text>
</g>
<!-- Node19&#45;&gt;Node17 -->
<g id="edge23" class="edge"><title>Node19&#45;&gt;Node17</title>
<path fill="none" stroke="#404040" d="M665.664,-639.46C658.416,-594.164 643.048,-501.16 627,-423 626.561,-420.861 626.11,-418.698 625.651,-416.52"/>
<polygon fill="none" stroke="#404040" points="625.643,-416.481 620.47,-411.457 623.118,-404.75 628.291,-409.774 625.643,-416.481"/>
<text text-anchor="middle" x="673" y="-481" font-family="Helvetica,sans-Serif" font-size="10.00"> +triangles</text>
</g>
<!-- Node20 -->
<g id="node20" class="node"><title>Node20</title>
<polygon fill="white" stroke="#bfbfbf" points="746,-639.5 746,-696.5 836,-696.5 836,-639.5 746,-639.5"/>
<text text-anchor="middle" x="791" y="-684.5" font-family="Helvetica,sans-Serif" font-size="10.00">vector&lt; Vector &gt;</text>
<polyline fill="none" stroke="#bfbfbf" points="746,-677.5 836,-677.5 "/>
<text text-anchor="middle" x="791" y="-665.5" font-family="Helvetica,sans-Serif" font-size="10.00"> </text>
<polyline fill="none" stroke="#bfbfbf" points="746,-658.5 836,-658.5 "/>
<text text-anchor="middle" x="791" y="-646.5" font-family="Helvetica,sans-Serif" font-size="10.00"> </text>
</g>
<!-- Node20&#45;&gt;Node17 -->
<g id="edge24" class="edge"><title>Node20&#45;&gt;Node17</title>
<path fill="none" stroke="#404040" d="M784.464,-639.458C772.544,-592.557 744.339,-495.251 700,-423 685.77,-399.811 666.044,-377.185 648.019,-358.795"/>
<polygon fill="none" stroke="#404040" points="647.828,-358.604 640.756,-357.193 639.338,-350.123 646.41,-351.533 647.828,-358.604"/>
<text text-anchor="middle" x="776" y="-481" font-family="Helvetica,sans-Serif" font-size="10.00"> +vertices</text>
</g>
</g>
</svg>
