<?xml version="1.0" encoding="UTF-8" standalone="no"?>
<!DOCTYPE svg PUBLIC "-//W3C//DTD SVG 1.1//EN"
 "http://www.w3.org/Graphics/SVG/1.1/DTD/svg11.dtd">
<!-- Generated by graphviz version 2.38.0 (20140413.2041)
 -->
<!-- Title: imustruc Pages: 1 -->
<svg width="271pt" height="507pt"
 viewBox="0.00 0.00 270.50 507.00" xmlns="http://www.w3.org/2000/svg" xmlns:xlink="http://www.w3.org/1999/xlink">
<g id="graph0" class="graph" transform="scale(1 1) rotate(0) translate(4 503)">
<title>imustruc</title>
<polygon fill="white" stroke="none" points="-4,4 -4,-503 266.5,-503 266.5,4 -4,4"/>
<!-- Node1 -->
<g id="node1" class="node"><title>Node1</title>
<polygon fill="#bfbfbf" stroke="black" points="96.5,-0.5 96.5,-68.5 170.5,-68.5 170.5,-0.5 96.5,-0.5"/>
<text text-anchor="middle" x="133.5" y="-56.5" font-family="Helvetica,sans-Serif" font-size="10.00">imustruc</text>
<polyline fill="none" stroke="black" points="96.5,-49.5 170.5,-49.5 "/>
<text text-anchor="middle" x="133.5" y="-37.5" font-family="Helvetica,sans-Serif" font-size="10.00"> </text>
<polyline fill="none" stroke="black" points="96.5,-30.5 170.5,-30.5 "/>
<text text-anchor="start" x="104.5" y="-18.5" font-family="Helvetica,sans-Serif" font-size="10.00">+ to_json()</text>
<text text-anchor="start" x="104.5" y="-7.5" font-family="Helvetica,sans-Serif" font-size="10.00">+ from_json()</text>
</g>
<!-- Node2 -->
<g id="node2" class="node"><title>Node2</title>
<g id="a_node2"><a xlink:href="structquaternion.html" target="_top" xlink:title="Quaternion, scalar last, using x, y, z. ">
<polygon fill="white" stroke="black" points="1,-171.5 1,-261.5 78,-261.5 78,-171.5 1,-171.5"/>
<text text-anchor="middle" x="39.5" y="-249.5" font-family="Helvetica,sans-Serif" font-size="10.00">quaternion</text>
<polyline fill="none" stroke="black" points="1,-242.5 78,-242.5 "/>
<text text-anchor="start" x="9" y="-230.5" font-family="Helvetica,sans-Serif" font-size="10.00">+ w</text>
<polyline fill="none" stroke="black" points="1,-223.5 78,-223.5 "/>
<text text-anchor="start" x="9" y="-211.5" font-family="Helvetica,sans-Serif" font-size="10.00">+ quaternion()</text>
<text text-anchor="start" x="9" y="-200.5" font-family="Helvetica,sans-Serif" font-size="10.00">+ quaternion()</text>
<text text-anchor="start" x="9" y="-189.5" font-family="Helvetica,sans-Serif" font-size="10.00">+ to_json()</text>
<text text-anchor="start" x="9" y="-178.5" font-family="Helvetica,sans-Serif" font-size="10.00">+ from_json()</text>
</a>
</g>
</g>
<!-- Node2&#45;&gt;Node1 -->
<g id="edge1" class="edge"><title>Node2&#45;&gt;Node1</title>
<path fill="none" stroke="#404040" d="M57.5479,-171.478C68.4253,-146.241 83.1204,-114.26 98.5,-87 100.011,-84.3225 101.617,-81.6044 103.281,-78.8878"/>
<polygon fill="none" stroke="#404040" points="103.445,-78.6287 103.293,-71.4192 109.889,-68.5056 110.042,-75.7151 103.445,-78.6287"/>
<text text-anchor="middle" x="114" y="-117.5" font-family="Helvetica,sans-Serif" font-size="10.00"> +theta</text>
<text text-anchor="middle" x="114" y="-106.5" font-family="Helvetica,sans-Serif" font-size="10.00">+align</text>
</g>
<!-- Node3 -->
<g id="node3" class="node"><title>Node3</title>
<g id="a_node3"><a xlink:href="classcvector.html" target="_top" xlink:title="3 element cartesian vector ">
<polygon fill="white" stroke="black" points="0,-320.5 0,-498.5 79,-498.5 79,-320.5 0,-320.5"/>
<text text-anchor="middle" x="39.5" y="-486.5" font-family="Helvetica,sans-Serif" font-size="10.00">cvector</text>
<polyline fill="none" stroke="black" points="0,-479.5 79,-479.5 "/>
<text text-anchor="start" x="8" y="-467.5" font-family="Helvetica,sans-Serif" font-size="10.00">+ x</text>
<text text-anchor="start" x="8" y="-456.5" font-family="Helvetica,sans-Serif" font-size="10.00">+ y</text>
<text text-anchor="start" x="8" y="-445.5" font-family="Helvetica,sans-Serif" font-size="10.00">+ z</text>
<polyline fill="none" stroke="black" points="0,-438.5 79,-438.5 "/>
<text text-anchor="start" x="8" y="-426.5" font-family="Helvetica,sans-Serif" font-size="10.00">+ cvector()</text>
<text text-anchor="start" x="8" y="-415.5" font-family="Helvetica,sans-Serif" font-size="10.00">+ cvector()</text>
<text text-anchor="start" x="8" y="-404.5" font-family="Helvetica,sans-Serif" font-size="10.00">+ normalize()</text>
<text text-anchor="start" x="8" y="-393.5" font-family="Helvetica,sans-Serif" font-size="10.00">+ length()</text>
<text text-anchor="start" x="8" y="-382.5" font-family="Helvetica,sans-Serif" font-size="10.00">+ norm()</text>
<text text-anchor="start" x="8" y="-371.5" font-family="Helvetica,sans-Serif" font-size="10.00">+ norm2()</text>
<text text-anchor="start" x="8" y="-360.5" font-family="Helvetica,sans-Serif" font-size="10.00">+ normalized()</text>
<text text-anchor="start" x="8" y="-349.5" font-family="Helvetica,sans-Serif" font-size="10.00">+ operator[]()</text>
<text text-anchor="start" x="8" y="-338.5" font-family="Helvetica,sans-Serif" font-size="10.00">+ to_json()</text>
<text text-anchor="start" x="8" y="-327.5" font-family="Helvetica,sans-Serif" font-size="10.00">+ from_json()</text>
</a>
</g>
</g>
<!-- Node3&#45;&gt;Node2 -->
<g id="edge2" class="edge"><title>Node3&#45;&gt;Node2</title>
<path fill="none" stroke="#404040" d="M39.5,-320.268C39.5,-304.543 39.5,-288.554 39.5,-274.02"/>
<polygon fill="none" stroke="#404040" points="39.5001,-273.664 35.5,-267.664 39.5,-261.664 43.5,-267.664 39.5001,-273.664"/>
<text text-anchor="middle" x="47" y="-294" font-family="Helvetica,sans-Serif" font-size="10.00"> +d</text>
</g>
<!-- Node4 -->
<g id="node4" class="node"><title>Node4</title>
<g id="a_node4"><a xlink:href="structavector.html" target="_top" xlink:title="3 element attitude vector. ">
<polygon fill="white" stroke="black" points="96.5,-160.5 96.5,-272.5 170.5,-272.5 170.5,-160.5 96.5,-160.5"/>
<text text-anchor="middle" x="133.5" y="-260.5" font-family="Helvetica,sans-Serif" font-size="10.00">avector</text>
<polyline fill="none" stroke="black" points="96.5,-253.5 170.5,-253.5 "/>
<text text-anchor="start" x="104.5" y="-241.5" font-family="Helvetica,sans-Serif" font-size="10.00">+ h</text>
<text text-anchor="start" x="104.5" y="-230.5" font-family="Helvetica,sans-Serif" font-size="10.00">+ e</text>
<text text-anchor="start" x="104.5" y="-219.5" font-family="Helvetica,sans-Serif" font-size="10.00">+ b</text>
<polyline fill="none" stroke="black" points="96.5,-212.5 170.5,-212.5 "/>
<text text-anchor="start" x="104.5" y="-200.5" font-family="Helvetica,sans-Serif" font-size="10.00">+ avector()</text>
<text text-anchor="start" x="104.5" y="-189.5" font-family="Helvetica,sans-Serif" font-size="10.00">+ avector()</text>
<text text-anchor="start" x="104.5" y="-178.5" font-family="Helvetica,sans-Serif" font-size="10.00">+ to_json()</text>
<text text-anchor="start" x="104.5" y="-167.5" font-family="Helvetica,sans-Serif" font-size="10.00">+ from_json()</text>
</a>
</g>
</g>
<!-- Node4&#45;&gt;Node1 -->
<g id="edge3" class="edge"><title>Node4&#45;&gt;Node1</title>
<path fill="none" stroke="#404040" d="M133.5,-160.025C133.5,-134.516 133.5,-104.644 133.5,-80.5534"/>
<polygon fill="none" stroke="#404040" points="133.5,-80.5361 129.5,-74.5361 133.5,-68.5361 137.5,-74.536 133.5,-80.5361"/>
<text text-anchor="middle" x="149" y="-112" font-family="Helvetica,sans-Serif" font-size="10.00"> +euler</text>
</g>
<!-- Node5 -->
<g id="node5" class="node"><title>Node5</title>
<g id="a_node5"><a xlink:href="structrvector.html" target="_top" xlink:title="3 element generic row vector ">
<polygon fill="white" stroke="black" points="188.5,-171.5 188.5,-261.5 262.5,-261.5 262.5,-171.5 188.5,-171.5"/>
<text text-anchor="middle" x="225.5" y="-249.5" font-family="Helvetica,sans-Serif" font-size="10.00">rvector</text>
<polyline fill="none" stroke="black" points="188.5,-242.5 262.5,-242.5 "/>
<text text-anchor="start" x="196.5" y="-230.5" font-family="Helvetica,sans-Serif" font-size="10.00">+ col</text>
<polyline fill="none" stroke="black" points="188.5,-223.5 262.5,-223.5 "/>
<text text-anchor="start" x="196.5" y="-211.5" font-family="Helvetica,sans-Serif" font-size="10.00">+ rvector()</text>
<text text-anchor="start" x="196.5" y="-200.5" font-family="Helvetica,sans-Serif" font-size="10.00">+ rvector()</text>
<text text-anchor="start" x="196.5" y="-189.5" font-family="Helvetica,sans-Serif" font-size="10.00">+ to_json()</text>
<text text-anchor="start" x="196.5" y="-178.5" font-family="Helvetica,sans-Serif" font-size="10.00">+ from_json()</text>
</a>
</g>
</g>
<!-- Node5&#45;&gt;Node1 -->
<g id="edge4" class="edge"><title>Node5&#45;&gt;Node1</title>
<path fill="none" stroke="#404040" d="M208.258,-171.433C197.813,-146.18 183.615,-114.199 168.5,-87 167.03,-84.3542 165.462,-81.671 163.837,-78.9904"/>
<polygon fill="none" stroke="#404040" points="163.774,-78.8903 157.186,-75.9568 157.36,-68.7478 163.948,-71.6813 163.774,-78.8903"/>
<text text-anchor="middle" x="212.5" y="-134" font-family="Helvetica,sans-Serif" font-size="10.00"> +alpha</text>
<text text-anchor="middle" x="212.5" y="-123" font-family="Helvetica,sans-Serif" font-size="10.00">+omega</text>
<text text-anchor="middle" x="212.5" y="-112" font-family="Helvetica,sans-Serif" font-size="10.00">+mag</text>
<text text-anchor="middle" x="212.5" y="-101" font-family="Helvetica,sans-Serif" font-size="10.00">+accel</text>
<text text-anchor="middle" x="212.5" y="-90" font-family="Helvetica,sans-Serif" font-size="10.00">+bdot</text>
</g>
</g>
</svg>
