<?xml version="1.0" encoding="UTF-8" standalone="no"?>
<!DOCTYPE svg PUBLIC "-//W3C//DTD SVG 1.1//EN"
 "http://www.w3.org/Graphics/SVG/1.1/DTD/svg11.dtd">
<!-- Generated by graphviz version 2.38.0 (20140413.2041)
 -->
<!-- Title: __cssl_t Pages: 1 -->
<svg width="108pt" height="121pt"
 viewBox="0.00 0.00 108.00 121.00" xmlns="http://www.w3.org/2000/svg" xmlns:xlink="http://www.w3.org/1999/xlink">
<g id="graph0" class="graph" transform="scale(1 1) rotate(0) translate(4 117)">
<title>__cssl_t</title>
<polygon fill="white" stroke="none" points="-4,4 -4,-117 104,-117 104,4 -4,4"/>
<!-- Node1 -->
<g id="node1" class="node"><title>Node1</title>
<polygon fill="#bfbfbf" stroke="black" points="0,-0.5 0,-112.5 54,-112.5 54,-0.5 0,-0.5"/>
<text text-anchor="middle" x="27" y="-100.5" font-family="Helvetica,sans-Serif" font-size="10.00">__cssl_t</text>
<polyline fill="none" stroke="black" points="0,-93.5 54,-93.5 "/>
<text text-anchor="start" x="8" y="-81.5" font-family="Helvetica,sans-Serif" font-size="10.00">+ buffer</text>
<text text-anchor="start" x="8" y="-70.5" font-family="Helvetica,sans-Serif" font-size="10.00">+ fd</text>
<text text-anchor="start" x="8" y="-59.5" font-family="Helvetica,sans-Serif" font-size="10.00">+ dcb</text>
<text text-anchor="start" x="8" y="-48.5" font-family="Helvetica,sans-Serif" font-size="10.00">+ olddcb</text>
<text text-anchor="start" x="8" y="-37.5" font-family="Helvetica,sans-Serif" font-size="10.00">+ handle</text>
<text text-anchor="start" x="8" y="-26.5" font-family="Helvetica,sans-Serif" font-size="10.00">+ baud</text>
<polyline fill="none" stroke="black" points="0,-19.5 54,-19.5 "/>
<text text-anchor="middle" x="27" y="-7.5" font-family="Helvetica,sans-Serif" font-size="10.00"> </text>
</g>
<!-- Node1&#45;&gt;Node1 -->
<g id="edge1" class="edge"><title>Node1&#45;&gt;Node1</title>
<path fill="none" stroke="#404040" d="M54.2408,-77.4795C64.0239,-77.9307 72,-70.9375 72,-56.5 72,-48.6045 69.6146,-42.9354 65.8527,-39.4927"/>
<polygon fill="none" stroke="#404040" points="65.5949,-39.4045 58.6231,-41.2472 54.2408,-35.5205 61.2125,-33.6778 65.5949,-39.4045"/>
<text text-anchor="middle" x="86" y="-54" font-family="Helvetica,sans-Serif" font-size="10.00"> +next</text>
</g>
</g>
</svg>
