<?xml version="1.0" encoding="UTF-8" standalone="no"?>
<!DOCTYPE svg PUBLIC "-//W3C//DTD SVG 1.1//EN"
 "http://www.w3.org/Graphics/SVG/1.1/DTD/svg11.dtd">
<!-- Generated by graphviz version 2.38.0 (20140413.2041)
 -->
<!-- Title: Cosmos::wavefront::group Pages: 1 -->
<svg width="295pt" height="380pt"
 viewBox="0.00 0.00 294.50 380.00" xmlns="http://www.w3.org/2000/svg" xmlns:xlink="http://www.w3.org/1999/xlink">
<g id="graph0" class="graph" transform="scale(1 1) rotate(0) translate(4 376)">
<title>Cosmos::wavefront::group</title>
<polygon fill="white" stroke="none" points="-4,4 -4,-376 290.5,-376 290.5,4 -4,4"/>
<!-- Node1 -->
<g id="node1" class="node"><title>Node1</title>
<polygon fill="#bfbfbf" stroke="black" points="105.5,-0.5 105.5,-90.5 213.5,-90.5 213.5,-0.5 105.5,-0.5"/>
<text text-anchor="start" x="113.5" y="-78.5" font-family="Helvetica,sans-Serif" font-size="10.00">Cosmos::wavefront::</text>
<text text-anchor="middle" x="159.5" y="-67.5" font-family="Helvetica,sans-Serif" font-size="10.00">group</text>
<polyline fill="none" stroke="black" points="105.5,-60.5 213.5,-60.5 "/>
<text text-anchor="start" x="113.5" y="-48.5" font-family="Helvetica,sans-Serif" font-size="10.00">+ materialidx</text>
<text text-anchor="start" x="113.5" y="-37.5" font-family="Helvetica,sans-Serif" font-size="10.00">+ volume</text>
<polyline fill="none" stroke="black" points="105.5,-30.5 213.5,-30.5 "/>
<text text-anchor="start" x="113.5" y="-18.5" font-family="Helvetica,sans-Serif" font-size="10.00">+ to_json()</text>
<text text-anchor="start" x="113.5" y="-7.5" font-family="Helvetica,sans-Serif" font-size="10.00">+ from_json()</text>
</g>
<!-- Node2 -->
<g id="node2" class="node"><title>Node2</title>
<g id="a_node2"><a xlink:href="class_cosmos_1_1_math_1_1_vectors_1_1_vector.html" target="_top" xlink:title="Vector Class. ">
<polygon fill="white" stroke="black" points="0,-160.5 0,-371.5 121,-371.5 121,-160.5 0,-160.5"/>
<text text-anchor="start" x="8" y="-359.5" font-family="Helvetica,sans-Serif" font-size="10.00">Cosmos::Math::Vectors</text>
<text text-anchor="middle" x="60.5" y="-348.5" font-family="Helvetica,sans-Serif" font-size="10.00">::Vector</text>
<polyline fill="none" stroke="black" points="0,-341.5 121,-341.5 "/>
<text text-anchor="start" x="8" y="-329.5" font-family="Helvetica,sans-Serif" font-size="10.00">+ x</text>
<text text-anchor="start" x="8" y="-318.5" font-family="Helvetica,sans-Serif" font-size="10.00">+ y</text>
<text text-anchor="start" x="8" y="-307.5" font-family="Helvetica,sans-Serif" font-size="10.00">+ z</text>
<text text-anchor="start" x="8" y="-296.5" font-family="Helvetica,sans-Serif" font-size="10.00">+ w</text>
<polyline fill="none" stroke="black" points="0,-289.5 121,-289.5 "/>
<text text-anchor="start" x="8" y="-277.5" font-family="Helvetica,sans-Serif" font-size="10.00">+ Vector()</text>
<text text-anchor="start" x="8" y="-266.5" font-family="Helvetica,sans-Serif" font-size="10.00">+ Vector()</text>
<text text-anchor="start" x="8" y="-255.5" font-family="Helvetica,sans-Serif" font-size="10.00">+ Vector()</text>
<text text-anchor="start" x="8" y="-244.5" font-family="Helvetica,sans-Serif" font-size="10.00">+ Vector()</text>
<text text-anchor="start" x="8" y="-233.5" font-family="Helvetica,sans-Serif" font-size="10.00">+ at()</text>
<text text-anchor="start" x="8" y="-222.5" font-family="Helvetica,sans-Serif" font-size="10.00">+ to_rv()</text>
<text text-anchor="start" x="8" y="-211.5" font-family="Helvetica,sans-Serif" font-size="10.00">+ to_cv()</text>
<text text-anchor="start" x="8" y="-200.5" font-family="Helvetica,sans-Serif" font-size="10.00">+ to_q()</text>
<text text-anchor="start" x="8" y="-189.5" font-family="Helvetica,sans-Serif" font-size="10.00">+ cross()</text>
<text text-anchor="start" x="8" y="-178.5" font-family="Helvetica,sans-Serif" font-size="10.00">+ dot()</text>
<text text-anchor="start" x="8" y="-167.5" font-family="Helvetica,sans-Serif" font-size="10.00">and 26 more...</text>
</a>
</g>
</g>
<!-- Node2&#45;&gt;Node1 -->
<g id="edge1" class="edge"><title>Node2&#45;&gt;Node1</title>
<path fill="none" stroke="#404040" d="M104.403,-160.093C111.915,-142.931 119.788,-125.405 127.5,-109 128.638,-106.58 129.815,-104.116 131.018,-101.632"/>
<polygon fill="none" stroke="#404040" points="131.099,-101.468 130.162,-94.3178 136.402,-90.703 137.339,-97.853 131.099,-101.468"/>
<text text-anchor="middle" x="141.5" y="-123" font-family="Helvetica,sans-Serif" font-size="10.00"> +com</text>
</g>
<!-- Node3 -->
<g id="node3" class="node"><title>Node3</title>
<polygon fill="white" stroke="#bfbfbf" points="139,-237.5 139,-294.5 180,-294.5 180,-237.5 139,-237.5"/>
<text text-anchor="middle" x="159.5" y="-282.5" font-family="Helvetica,sans-Serif" font-size="10.00">string</text>
<polyline fill="none" stroke="#bfbfbf" points="139,-275.5 180,-275.5 "/>
<text text-anchor="middle" x="159.5" y="-263.5" font-family="Helvetica,sans-Serif" font-size="10.00"> </text>
<polyline fill="none" stroke="#bfbfbf" points="139,-256.5 180,-256.5 "/>
<text text-anchor="middle" x="159.5" y="-244.5" font-family="Helvetica,sans-Serif" font-size="10.00"> </text>
</g>
<!-- Node3&#45;&gt;Node1 -->
<g id="edge2" class="edge"><title>Node3&#45;&gt;Node1</title>
<path fill="none" stroke="#404040" d="M159.5,-237.327C159.5,-203.6 159.5,-145.775 159.5,-102.596"/>
<polygon fill="none" stroke="#404040" points="159.5,-102.557 155.5,-96.5565 159.5,-90.5565 163.5,-96.5565 159.5,-102.557"/>
<text text-anchor="middle" x="176.5" y="-123" font-family="Helvetica,sans-Serif" font-size="10.00"> +name</text>
</g>
<!-- Node4 -->
<g id="node4" class="node"><title>Node4</title>
<polygon fill="white" stroke="#bfbfbf" points="198.5,-237.5 198.5,-294.5 286.5,-294.5 286.5,-237.5 198.5,-237.5"/>
<text text-anchor="middle" x="242.5" y="-282.5" font-family="Helvetica,sans-Serif" font-size="10.00">vector&lt; size_t &gt;</text>
<polyline fill="none" stroke="#bfbfbf" points="198.5,-275.5 286.5,-275.5 "/>
<text text-anchor="middle" x="242.5" y="-263.5" font-family="Helvetica,sans-Serif" font-size="10.00"> </text>
<polyline fill="none" stroke="#bfbfbf" points="198.5,-256.5 286.5,-256.5 "/>
<text text-anchor="middle" x="242.5" y="-244.5" font-family="Helvetica,sans-Serif" font-size="10.00"> </text>
</g>
<!-- Node4&#45;&gt;Node1 -->
<g id="edge3" class="edge"><title>Node4&#45;&gt;Node1</title>
<path fill="none" stroke="#404040" d="M236.887,-237.46C229.883,-205.676 216.474,-152.234 197.5,-109 196.422,-106.544 195.263,-104.067 194.044,-101.59"/>
<polygon fill="none" stroke="#404040" points="193.954,-101.418 187.624,-97.9638 188.378,-90.7922 194.708,-94.2466 193.954,-101.418"/>
<text text-anchor="middle" x="229.5" y="-134" font-family="Helvetica,sans-Serif" font-size="10.00"> +lineidx</text>
<text text-anchor="middle" x="229.5" y="-123" font-family="Helvetica,sans-Serif" font-size="10.00">+pointidx</text>
<text text-anchor="middle" x="229.5" y="-112" font-family="Helvetica,sans-Serif" font-size="10.00">+faceidx</text>
</g>
</g>
</svg>
