<?xml version="1.0" encoding="UTF-8" standalone="no"?>
<!DOCTYPE svg PUBLIC "-//W3C//DTD SVG 1.1//EN"
 "http://www.w3.org/Graphics/SVG/1.1/DTD/svg11.dtd">
<!-- Generated by graphviz version 2.38.0 (20140413.2041)
 -->
<!-- Title: Cosmos::Protocols::Ccsds::Spp::packet Pages: 1 -->
<svg width="268pt" height="314pt"
 viewBox="0.00 0.00 267.50 314.00" xmlns="http://www.w3.org/2000/svg" xmlns:xlink="http://www.w3.org/1999/xlink">
<g id="graph0" class="graph" transform="scale(1 1) rotate(0) translate(4 310)">
<title>Cosmos::Protocols::Ccsds::Spp::packet</title>
<polygon fill="white" stroke="none" points="-4,4 -4,-310 263.5,-310 263.5,4 -4,4"/>
<!-- Node1 -->
<g id="node1" class="node"><title>Node1</title>
<polygon fill="#bfbfbf" stroke="black" points="47.5,-0.5 47.5,-79.5 169.5,-79.5 169.5,-0.5 47.5,-0.5"/>
<text text-anchor="start" x="55.5" y="-67.5" font-family="Helvetica,sans-Serif" font-size="10.00">Cosmos::Protocols::</text>
<text text-anchor="middle" x="108.5" y="-56.5" font-family="Helvetica,sans-Serif" font-size="10.00">Ccsds::Spp::packet</text>
<polyline fill="none" stroke="black" points="47.5,-49.5 169.5,-49.5 "/>
<text text-anchor="start" x="55.5" y="-37.5" font-family="Helvetica,sans-Serif" font-size="10.00">+ primary_header_bytes</text>
<text text-anchor="start" x="55.5" y="-26.5" font-family="Helvetica,sans-Serif" font-size="10.00">+ @1</text>
<polyline fill="none" stroke="black" points="47.5,-19.5 169.5,-19.5 "/>
<text text-anchor="middle" x="108.5" y="-7.5" font-family="Helvetica,sans-Serif" font-size="10.00"> </text>
</g>
<!-- Node2 -->
<g id="node2" class="node"><title>Node2</title>
<polygon fill="white" stroke="#bfbfbf" points="0,-188 0,-245 91,-245 91,-188 0,-188"/>
<text text-anchor="middle" x="45.5" y="-233" font-family="Helvetica,sans-Serif" font-size="10.00">vector&lt; uint8_t &gt;</text>
<polyline fill="none" stroke="#bfbfbf" points="0,-226 91,-226 "/>
<text text-anchor="middle" x="45.5" y="-214" font-family="Helvetica,sans-Serif" font-size="10.00"> </text>
<polyline fill="none" stroke="#bfbfbf" points="0,-207 91,-207 "/>
<text text-anchor="middle" x="45.5" y="-195" font-family="Helvetica,sans-Serif" font-size="10.00"> </text>
</g>
<!-- Node2&#45;&gt;Node1 -->
<g id="edge1" class="edge"><title>Node2&#45;&gt;Node1</title>
<path fill="none" stroke="#404040" d="M55.4825,-187.85C64.8352,-161.944 79.0357,-122.611 90.3869,-91.1705"/>
<polygon fill="none" stroke="#404040" points="90.5067,-90.8383 88.7819,-83.8365 94.5818,-79.5513 96.3066,-86.5531 90.5067,-90.8383"/>
<text text-anchor="middle" x="117.5" y="-101" font-family="Helvetica,sans-Serif" font-size="10.00"> +data_bytes</text>
</g>
<!-- Node3 -->
<g id="node3" class="node"><title>Node3</title>
<g id="a_node3"><a xlink:href="struct_cosmos_1_1_protocols_1_1_ccsds_1_1_spp_1_1primary__header.html" target="_top" xlink:title="{Cosmos::Protocols::\lCcsds::Spp::primary\l_header\n|+ apid_msb\l+ secondary_header_flag\l+ type\l+ version\l+ apid_lsb\l+ sequence_count_msb\l+ sequence_flags\l+ sequence_count_lsb\l+ data_length_msb\l+ data_length_lsb\l|}">
<polygon fill="white" stroke="black" points="109.5,-127.5 109.5,-305.5 235.5,-305.5 235.5,-127.5 109.5,-127.5"/>
<text text-anchor="start" x="117.5" y="-293.5" font-family="Helvetica,sans-Serif" font-size="10.00">Cosmos::Protocols::</text>
<text text-anchor="start" x="117.5" y="-282.5" font-family="Helvetica,sans-Serif" font-size="10.00">Ccsds::Spp::primary</text>
<text text-anchor="middle" x="172.5" y="-271.5" font-family="Helvetica,sans-Serif" font-size="10.00">_header</text>
<polyline fill="none" stroke="black" points="109.5,-264.5 235.5,-264.5 "/>
<text text-anchor="start" x="117.5" y="-252.5" font-family="Helvetica,sans-Serif" font-size="10.00">+ apid_msb</text>
<text text-anchor="start" x="117.5" y="-241.5" font-family="Helvetica,sans-Serif" font-size="10.00">+ secondary_header_flag</text>
<text text-anchor="start" x="117.5" y="-230.5" font-family="Helvetica,sans-Serif" font-size="10.00">+ type</text>
<text text-anchor="start" x="117.5" y="-219.5" font-family="Helvetica,sans-Serif" font-size="10.00">+ version</text>
<text text-anchor="start" x="117.5" y="-208.5" font-family="Helvetica,sans-Serif" font-size="10.00">+ apid_lsb</text>
<text text-anchor="start" x="117.5" y="-197.5" font-family="Helvetica,sans-Serif" font-size="10.00">+ sequence_count_msb</text>
<text text-anchor="start" x="117.5" y="-186.5" font-family="Helvetica,sans-Serif" font-size="10.00">+ sequence_flags</text>
<text text-anchor="start" x="117.5" y="-175.5" font-family="Helvetica,sans-Serif" font-size="10.00">+ sequence_count_lsb</text>
<text text-anchor="start" x="117.5" y="-164.5" font-family="Helvetica,sans-Serif" font-size="10.00">+ data_length_msb</text>
<text text-anchor="start" x="117.5" y="-153.5" font-family="Helvetica,sans-Serif" font-size="10.00">+ data_length_lsb</text>
<polyline fill="none" stroke="black" points="109.5,-146.5 235.5,-146.5 "/>
<text text-anchor="middle" x="172.5" y="-134.5" font-family="Helvetica,sans-Serif" font-size="10.00"> </text>
</a>
</g>
</g>
<!-- Node3&#45;&gt;Node1 -->
<g id="edge2" class="edge"><title>Node3&#45;&gt;Node1</title>
<path fill="none" stroke="#404040" d="M160.479,-127.248C157.795,-117.182 154.513,-107.231 150.5,-98 149.363,-95.3843 148.087,-92.7745 146.707,-90.191"/>
<polygon fill="none" stroke="#404040" points="146.65,-90.0947 140.15,-86.9718 140.533,-79.7708 147.032,-82.8937 146.65,-90.0947"/>
<text text-anchor="middle" x="207" y="-101" font-family="Helvetica,sans-Serif" font-size="10.00"> +primary_header_fields</text>
</g>
</g>
</svg>
