<?xml version="1.0" encoding="UTF-8" standalone="no"?>
<!DOCTYPE svg PUBLIC "-//W3C//DTD SVG 1.1//EN"
 "http://www.w3.org/Graphics/SVG/1.1/DTD/svg11.dtd">
<!-- Generated by graphviz version 2.38.0 (20140413.2041)
 -->
<!-- Title: my_decomp_master Pages: 1 -->
<svg width="242pt" height="226pt"
 viewBox="0.00 0.00 242.00 226.00" xmlns="http://www.w3.org/2000/svg" xmlns:xlink="http://www.w3.org/1999/xlink">
<g id="graph0" class="graph" transform="scale(1 1) rotate(0) translate(4 222)">
<title>my_decomp_master</title>
<polygon fill="white" stroke="none" points="-4,4 -4,-222 238,-222 238,4 -4,4"/>
<!-- Node1 -->
<g id="node1" class="node"><title>Node1</title>
<polygon fill="#bfbfbf" stroke="black" points="49,-0.5 49,-68.5 183,-68.5 183,-0.5 49,-0.5"/>
<text text-anchor="middle" x="116" y="-56.5" font-family="Helvetica,sans-Serif" font-size="10.00">my_decomp_master</text>
<polyline fill="none" stroke="black" points="49,-49.5 183,-49.5 "/>
<text text-anchor="start" x="57" y="-37.5" font-family="Helvetica,sans-Serif" font-size="10.00">+ pass_number</text>
<text text-anchor="start" x="57" y="-26.5" font-family="Helvetica,sans-Serif" font-size="10.00">+ using_merged_upsample</text>
<polyline fill="none" stroke="black" points="49,-19.5 183,-19.5 "/>
<text text-anchor="middle" x="116" y="-7.5" font-family="Helvetica,sans-Serif" font-size="10.00"> </text>
</g>
<!-- Node2 -->
<g id="node2" class="node"><title>Node2</title>
<g id="a_node2"><a xlink:href="structjpeg__color__quantizer.html" target="_top" xlink:title="{jpeg_color_quantizer\n||+ JMETHOD()\l+ JMETHOD()\l+ JMETHOD()\l+ JMETHOD()\l}">
<polygon fill="white" stroke="black" points="0,-127.5 0,-217.5 106,-217.5 106,-127.5 0,-127.5"/>
<text text-anchor="middle" x="53" y="-205.5" font-family="Helvetica,sans-Serif" font-size="10.00">jpeg_color_quantizer</text>
<polyline fill="none" stroke="black" points="0,-198.5 106,-198.5 "/>
<text text-anchor="middle" x="53" y="-186.5" font-family="Helvetica,sans-Serif" font-size="10.00"> </text>
<polyline fill="none" stroke="black" points="0,-179.5 106,-179.5 "/>
<text text-anchor="start" x="8" y="-167.5" font-family="Helvetica,sans-Serif" font-size="10.00">+ JMETHOD()</text>
<text text-anchor="start" x="8" y="-156.5" font-family="Helvetica,sans-Serif" font-size="10.00">+ JMETHOD()</text>
<text text-anchor="start" x="8" y="-145.5" font-family="Helvetica,sans-Serif" font-size="10.00">+ JMETHOD()</text>
<text text-anchor="start" x="8" y="-134.5" font-family="Helvetica,sans-Serif" font-size="10.00">+ JMETHOD()</text>
</a>
</g>
</g>
<!-- Node2&#45;&gt;Node1 -->
<g id="edge1" class="edge"><title>Node2&#45;&gt;Node1</title>
<path fill="none" stroke="#404040" d="M61.531,-127.304C65.0242,-113.947 69.7519,-99.5145 76,-87 77.3717,-84.2526 78.9018,-81.5091 80.5413,-78.7998"/>
<polygon fill="none" stroke="#404040" points="80.681,-78.5887 80.6567,-71.3776 87.3038,-68.5818 87.328,-75.7929 80.681,-78.5887"/>
<text text-anchor="middle" x="116.5" y="-101" font-family="Helvetica,sans-Serif" font-size="10.00"> +quantizer_1pass</text>
<text text-anchor="middle" x="116.5" y="-90" font-family="Helvetica,sans-Serif" font-size="10.00">+quantizer_2pass</text>
</g>
<!-- Node3 -->
<g id="node3" class="node"><title>Node3</title>
<g id="a_node3"><a xlink:href="structjpeg__decomp__master.html" target="_top" xlink:title="{jpeg_decomp_master\n|+ is_dummy_pass\l|+ JMETHOD()\l+ JMETHOD()\l}">
<polygon fill="white" stroke="black" points="124,-138.5 124,-206.5 234,-206.5 234,-138.5 124,-138.5"/>
<text text-anchor="middle" x="179" y="-194.5" font-family="Helvetica,sans-Serif" font-size="10.00">jpeg_decomp_master</text>
<polyline fill="none" stroke="black" points="124,-187.5 234,-187.5 "/>
<text text-anchor="start" x="132" y="-175.5" font-family="Helvetica,sans-Serif" font-size="10.00">+ is_dummy_pass</text>
<polyline fill="none" stroke="black" points="124,-168.5 234,-168.5 "/>
<text text-anchor="start" x="132" y="-156.5" font-family="Helvetica,sans-Serif" font-size="10.00">+ JMETHOD()</text>
<text text-anchor="start" x="132" y="-145.5" font-family="Helvetica,sans-Serif" font-size="10.00">+ JMETHOD()</text>
</a>
</g>
</g>
<!-- Node3&#45;&gt;Node1 -->
<g id="edge2" class="edge"><title>Node3&#45;&gt;Node1</title>
<path fill="none" stroke="#404040" d="M173.686,-138.257C170.297,-122.203 164.998,-103 157,-87 155.636,-84.2719 154.111,-81.5529 152.474,-78.8708"/>
<polygon fill="none" stroke="#404040" points="152.382,-78.7346 145.719,-75.9783 145.7,-68.7672 152.364,-71.5235 152.382,-78.7346"/>
<text text-anchor="middle" x="177.5" y="-95.5" font-family="Helvetica,sans-Serif" font-size="10.00"> +pub</text>
</g>
</g>
</svg>
