<?xml version="1.0" encoding="UTF-8" standalone="no"?>
<!DOCTYPE svg PUBLIC "-//W3C//DTD SVG 1.1//EN"
 "http://www.w3.org/Graphics/SVG/1.1/DTD/svg11.dtd">
<!-- Generated by graphviz version 2.38.0 (20140413.2041)
 -->
<!-- Title: my_marker_reader Pages: 1 -->
<svg width="286pt" height="270pt"
 viewBox="0.00 0.00 285.50 270.00" xmlns="http://www.w3.org/2000/svg" xmlns:xlink="http://www.w3.org/1999/xlink">
<g id="graph0" class="graph" transform="scale(1 1) rotate(0) translate(4 266)">
<title>my_marker_reader</title>
<polygon fill="white" stroke="none" points="-4,4 -4,-266 281.5,-266 281.5,4 -4,4"/>
<!-- Node1 -->
<g id="node1" class="node"><title>Node1</title>
<polygon fill="#bfbfbf" stroke="black" points="125,-0.5 125,-101.5 231,-101.5 231,-0.5 125,-0.5"/>
<text text-anchor="middle" x="178" y="-89.5" font-family="Helvetica,sans-Serif" font-size="10.00">my_marker_reader</text>
<polyline fill="none" stroke="black" points="125,-82.5 231,-82.5 "/>
<text text-anchor="start" x="133" y="-70.5" font-family="Helvetica,sans-Serif" font-size="10.00">+ process_COM</text>
<text text-anchor="start" x="133" y="-59.5" font-family="Helvetica,sans-Serif" font-size="10.00">+ process_APPn</text>
<text text-anchor="start" x="133" y="-48.5" font-family="Helvetica,sans-Serif" font-size="10.00">+ length_limit_COM</text>
<text text-anchor="start" x="133" y="-37.5" font-family="Helvetica,sans-Serif" font-size="10.00">+ length_limit_APPn</text>
<text text-anchor="start" x="133" y="-26.5" font-family="Helvetica,sans-Serif" font-size="10.00">+ bytes_read</text>
<polyline fill="none" stroke="black" points="125,-19.5 231,-19.5 "/>
<text text-anchor="middle" x="178" y="-7.5" font-family="Helvetica,sans-Serif" font-size="10.00"> </text>
</g>
<!-- Node2 -->
<g id="node2" class="node"><title>Node2</title>
<g id="a_node2"><a xlink:href="structjpeg__marker__struct.html" target="_top" xlink:title="{jpeg_marker_struct\n|+ marker\l+ original_length\l+ data_length\l+ data\l|}">
<polygon fill="white" stroke="black" points="0,-160.5 0,-250.5 100,-250.5 100,-160.5 0,-160.5"/>
<text text-anchor="middle" x="50" y="-238.5" font-family="Helvetica,sans-Serif" font-size="10.00">jpeg_marker_struct</text>
<polyline fill="none" stroke="black" points="0,-231.5 100,-231.5 "/>
<text text-anchor="start" x="8" y="-219.5" font-family="Helvetica,sans-Serif" font-size="10.00">+ marker</text>
<text text-anchor="start" x="8" y="-208.5" font-family="Helvetica,sans-Serif" font-size="10.00">+ original_length</text>
<text text-anchor="start" x="8" y="-197.5" font-family="Helvetica,sans-Serif" font-size="10.00">+ data_length</text>
<text text-anchor="start" x="8" y="-186.5" font-family="Helvetica,sans-Serif" font-size="10.00">+ data</text>
<polyline fill="none" stroke="black" points="0,-179.5 100,-179.5 "/>
<text text-anchor="middle" x="50" y="-167.5" font-family="Helvetica,sans-Serif" font-size="10.00"> </text>
</a>
</g>
</g>
<!-- Node2&#45;&gt;Node1 -->
<g id="edge1" class="edge"><title>Node2&#45;&gt;Node1</title>
<path fill="none" stroke="#404040" d="M87.0229,-160.391C99.9226,-145.022 114.612,-127.521 128.368,-111.132"/>
<polygon fill="none" stroke="#404040" points="128.624,-110.827 129.417,-103.66 136.338,-101.636 135.545,-108.803 128.624,-110.827"/>
<text text-anchor="middle" x="147" y="-123" font-family="Helvetica,sans-Serif" font-size="10.00"> +cur_marker</text>
</g>
<!-- Node2&#45;&gt;Node2 -->
<g id="edge2" class="edge"><title>Node2&#45;&gt;Node2</title>
<path fill="none" stroke="#404040" d="M100.114,-219.973C110.518,-218.449 118,-213.625 118,-205.5 118,-200.93 115.633,-197.404 111.71,-194.922"/>
<polygon fill="none" stroke="#404040" points="111.489,-194.848 104.528,-196.73 100.114,-191.027 107.075,-189.146 111.489,-194.848"/>
<text text-anchor="middle" x="132" y="-203" font-family="Helvetica,sans-Serif" font-size="10.00"> +next</text>
</g>
<!-- Node3 -->
<g id="node3" class="node"><title>Node3</title>
<g id="a_node3"><a xlink:href="structjpeg__marker__reader.html" target="_top" xlink:title="{jpeg_marker_reader\n|+ read_restart_marker\l+ saw_SOI\l+ saw_SOF\l+ next_restart_num\l+ discarded_bytes\l|+ JMETHOD()\l+ JMETHOD()\l}">
<polygon fill="white" stroke="black" points="164.5,-149.5 164.5,-261.5 277.5,-261.5 277.5,-149.5 164.5,-149.5"/>
<text text-anchor="middle" x="221" y="-249.5" font-family="Helvetica,sans-Serif" font-size="10.00">jpeg_marker_reader</text>
<polyline fill="none" stroke="black" points="164.5,-242.5 277.5,-242.5 "/>
<text text-anchor="start" x="172.5" y="-230.5" font-family="Helvetica,sans-Serif" font-size="10.00">+ read_restart_marker</text>
<text text-anchor="start" x="172.5" y="-219.5" font-family="Helvetica,sans-Serif" font-size="10.00">+ saw_SOI</text>
<text text-anchor="start" x="172.5" y="-208.5" font-family="Helvetica,sans-Serif" font-size="10.00">+ saw_SOF</text>
<text text-anchor="start" x="172.5" y="-197.5" font-family="Helvetica,sans-Serif" font-size="10.00">+ next_restart_num</text>
<text text-anchor="start" x="172.5" y="-186.5" font-family="Helvetica,sans-Serif" font-size="10.00">+ discarded_bytes</text>
<polyline fill="none" stroke="black" points="164.5,-179.5 277.5,-179.5 "/>
<text text-anchor="start" x="172.5" y="-167.5" font-family="Helvetica,sans-Serif" font-size="10.00">+ JMETHOD()</text>
<text text-anchor="start" x="172.5" y="-156.5" font-family="Helvetica,sans-Serif" font-size="10.00">+ JMETHOD()</text>
</a>
</g>
</g>
<!-- Node3&#45;&gt;Node1 -->
<g id="edge3" class="edge"><title>Node3&#45;&gt;Node1</title>
<path fill="none" stroke="#404040" d="M205.476,-149.444C202.174,-137.734 198.668,-125.3 195.305,-113.372"/>
<polygon fill="none" stroke="#404040" points="195.258,-113.207 189.78,-108.518 192.002,-101.657 197.48,-106.347 195.258,-113.207"/>
<text text-anchor="middle" x="212.5" y="-123" font-family="Helvetica,sans-Serif" font-size="10.00"> +pub</text>
</g>
</g>
</svg>
