<?xml version="1.0" encoding="UTF-8" standalone="no"?>
<!DOCTYPE svg PUBLIC "-//W3C//DTD SVG 1.1//EN"
 "http://www.w3.org/Graphics/SVG/1.1/DTD/svg11.dtd">
<!-- Generated by graphviz version 2.38.0 (20140413.2041)
 -->
<!-- Title: z_stream_s Pages: 1 -->
<svg width="436pt" height="766pt"
 viewBox="0.00 0.00 435.50 766.00" xmlns="http://www.w3.org/2000/svg" xmlns:xlink="http://www.w3.org/1999/xlink">
<g id="graph0" class="graph" transform="scale(1 1) rotate(0) translate(4 762)">
<title>z_stream_s</title>
<polygon fill="white" stroke="none" points="-4,4 -4,-762 431.5,-762 431.5,4 -4,4"/>
<!-- Node1 -->
<g id="node1" class="node"><title>Node1</title>
<polygon fill="#bfbfbf" stroke="black" points="0,-237.5 0,-426.5 68,-426.5 68,-237.5 0,-237.5"/>
<text text-anchor="middle" x="34" y="-414.5" font-family="Helvetica,sans-Serif" font-size="10.00">z_stream_s</text>
<polyline fill="none" stroke="black" points="0,-407.5 68,-407.5 "/>
<text text-anchor="start" x="8" y="-395.5" font-family="Helvetica,sans-Serif" font-size="10.00">+ next_in</text>
<text text-anchor="start" x="8" y="-384.5" font-family="Helvetica,sans-Serif" font-size="10.00">+ avail_in</text>
<text text-anchor="start" x="8" y="-373.5" font-family="Helvetica,sans-Serif" font-size="10.00">+ total_in</text>
<text text-anchor="start" x="8" y="-362.5" font-family="Helvetica,sans-Serif" font-size="10.00">+ next_out</text>
<text text-anchor="start" x="8" y="-351.5" font-family="Helvetica,sans-Serif" font-size="10.00">+ avail_out</text>
<text text-anchor="start" x="8" y="-340.5" font-family="Helvetica,sans-Serif" font-size="10.00">+ total_out</text>
<text text-anchor="start" x="8" y="-329.5" font-family="Helvetica,sans-Serif" font-size="10.00">+ msg</text>
<text text-anchor="start" x="8" y="-318.5" font-family="Helvetica,sans-Serif" font-size="10.00">+ zalloc</text>
<text text-anchor="start" x="8" y="-307.5" font-family="Helvetica,sans-Serif" font-size="10.00">+ zfree</text>
<text text-anchor="start" x="8" y="-296.5" font-family="Helvetica,sans-Serif" font-size="10.00">+ opaque</text>
<text text-anchor="start" x="8" y="-285.5" font-family="Helvetica,sans-Serif" font-size="10.00">+ data_type</text>
<text text-anchor="start" x="8" y="-274.5" font-family="Helvetica,sans-Serif" font-size="10.00">+ adler</text>
<text text-anchor="start" x="8" y="-263.5" font-family="Helvetica,sans-Serif" font-size="10.00">+ reserved</text>
<polyline fill="none" stroke="black" points="0,-256.5 68,-256.5 "/>
<text text-anchor="middle" x="34" y="-244.5" font-family="Helvetica,sans-Serif" font-size="10.00"> </text>
</g>
<!-- Node2 -->
<g id="node2" class="node"><title>Node2</title>
<g id="a_node2"><a xlink:href="structinternal__state.html" target="_top" xlink:title="{internal_state\n|+ status\l+ pending_buf\l+ pending_buf_size\l+ pending_out\l+ pending\l+ wrap\l+ gzindex\l+ method\l+ last_flush\l+ w_size\land 42 more...\l|}">
<polygon fill="white" stroke="black" points="87.5,-0.5 87.5,-167.5 188.5,-167.5 188.5,-0.5 87.5,-0.5"/>
<text text-anchor="middle" x="138" y="-155.5" font-family="Helvetica,sans-Serif" font-size="10.00">internal_state</text>
<polyline fill="none" stroke="black" points="87.5,-148.5 188.5,-148.5 "/>
<text text-anchor="start" x="95.5" y="-136.5" font-family="Helvetica,sans-Serif" font-size="10.00">+ status</text>
<text text-anchor="start" x="95.5" y="-125.5" font-family="Helvetica,sans-Serif" font-size="10.00">+ pending_buf</text>
<text text-anchor="start" x="95.5" y="-114.5" font-family="Helvetica,sans-Serif" font-size="10.00">+ pending_buf_size</text>
<text text-anchor="start" x="95.5" y="-103.5" font-family="Helvetica,sans-Serif" font-size="10.00">+ pending_out</text>
<text text-anchor="start" x="95.5" y="-92.5" font-family="Helvetica,sans-Serif" font-size="10.00">+ pending</text>
<text text-anchor="start" x="95.5" y="-81.5" font-family="Helvetica,sans-Serif" font-size="10.00">+ wrap</text>
<text text-anchor="start" x="95.5" y="-70.5" font-family="Helvetica,sans-Serif" font-size="10.00">+ gzindex</text>
<text text-anchor="start" x="95.5" y="-59.5" font-family="Helvetica,sans-Serif" font-size="10.00">+ method</text>
<text text-anchor="start" x="95.5" y="-48.5" font-family="Helvetica,sans-Serif" font-size="10.00">+ last_flush</text>
<text text-anchor="start" x="95.5" y="-37.5" font-family="Helvetica,sans-Serif" font-size="10.00">+ w_size</text>
<text text-anchor="start" x="95.5" y="-26.5" font-family="Helvetica,sans-Serif" font-size="10.00">and 42 more...</text>
<polyline fill="none" stroke="black" points="87.5,-19.5 188.5,-19.5 "/>
<text text-anchor="middle" x="138" y="-7.5" font-family="Helvetica,sans-Serif" font-size="10.00"> </text>
</a>
</g>
</g>
<!-- Node1&#45;&gt;Node2 -->
<g id="edge7" class="edge"><title>Node1&#45;&gt;Node2</title>
<path fill="none" stroke="#404040" d="M35.9626,-237.158C38.6475,-219.655 43.032,-201.888 50,-186 57.1341,-169.733 67.8441,-154.183 79.3612,-140.369"/>
<polygon fill="none" stroke="#404040" points="79.5528,-140.149 80.4735,-132.997 87.4296,-131.096 86.5089,-138.248 79.5528,-140.149"/>
<text text-anchor="middle" x="64.5" y="-200" font-family="Helvetica,sans-Serif" font-size="10.00"> +strm</text>
</g>
<!-- Node2&#45;&gt;Node1 -->
<g id="edge1" class="edge"><title>Node2&#45;&gt;Node1</title>
<path fill="none" stroke="#404040" d="M102.978,-167.84C93.2958,-190.743 82.731,-215.732 72.8452,-239.116"/>
<polygon fill="none" stroke="#404040" points="72.7263,-239.398 74.0742,-246.482 68.0535,-250.45 66.7056,-243.366 72.7263,-239.398"/>
<text text-anchor="middle" x="111.5" y="-200" font-family="Helvetica,sans-Serif" font-size="10.00"> +state</text>
</g>
<!-- Node3 -->
<g id="node3" class="node"><title>Node3</title>
<g id="a_node3"><a xlink:href="structgz__header__s.html" target="_top" xlink:title="{gz_header_s\n|+ text\l+ time\l+ xflags\l+ os\l+ extra\l+ extra_len\l+ extra_max\l+ name\l+ name_max\l+ comment\l+ comm_max\l+ hcrc\l+ done\l|}">
<polygon fill="white" stroke="black" points="93.5,-237.5 93.5,-426.5 170.5,-426.5 170.5,-237.5 93.5,-237.5"/>
<text text-anchor="middle" x="132" y="-414.5" font-family="Helvetica,sans-Serif" font-size="10.00">gz_header_s</text>
<polyline fill="none" stroke="black" points="93.5,-407.5 170.5,-407.5 "/>
<text text-anchor="start" x="101.5" y="-395.5" font-family="Helvetica,sans-Serif" font-size="10.00">+ text</text>
<text text-anchor="start" x="101.5" y="-384.5" font-family="Helvetica,sans-Serif" font-size="10.00">+ time</text>
<text text-anchor="start" x="101.5" y="-373.5" font-family="Helvetica,sans-Serif" font-size="10.00">+ xflags</text>
<text text-anchor="start" x="101.5" y="-362.5" font-family="Helvetica,sans-Serif" font-size="10.00">+ os</text>
<text text-anchor="start" x="101.5" y="-351.5" font-family="Helvetica,sans-Serif" font-size="10.00">+ extra</text>
<text text-anchor="start" x="101.5" y="-340.5" font-family="Helvetica,sans-Serif" font-size="10.00">+ extra_len</text>
<text text-anchor="start" x="101.5" y="-329.5" font-family="Helvetica,sans-Serif" font-size="10.00">+ extra_max</text>
<text text-anchor="start" x="101.5" y="-318.5" font-family="Helvetica,sans-Serif" font-size="10.00">+ name</text>
<text text-anchor="start" x="101.5" y="-307.5" font-family="Helvetica,sans-Serif" font-size="10.00">+ name_max</text>
<text text-anchor="start" x="101.5" y="-296.5" font-family="Helvetica,sans-Serif" font-size="10.00">+ comment</text>
<text text-anchor="start" x="101.5" y="-285.5" font-family="Helvetica,sans-Serif" font-size="10.00">+ comm_max</text>
<text text-anchor="start" x="101.5" y="-274.5" font-family="Helvetica,sans-Serif" font-size="10.00">+ hcrc</text>
<text text-anchor="start" x="101.5" y="-263.5" font-family="Helvetica,sans-Serif" font-size="10.00">+ done</text>
<polyline fill="none" stroke="black" points="93.5,-256.5 170.5,-256.5 "/>
<text text-anchor="middle" x="132" y="-244.5" font-family="Helvetica,sans-Serif" font-size="10.00"> </text>
</a>
</g>
</g>
<!-- Node3&#45;&gt;Node2 -->
<g id="edge2" class="edge"><title>Node3&#45;&gt;Node2</title>
<path fill="none" stroke="#404040" d="M134.285,-237.296C134.745,-218.473 135.227,-198.677 135.687,-179.816"/>
<polygon fill="none" stroke="#404040" points="135.693,-179.572 131.841,-173.477 135.986,-167.576 139.838,-173.672 135.693,-179.572"/>
<text text-anchor="middle" x="156.5" y="-200" font-family="Helvetica,sans-Serif" font-size="10.00"> +gzhead</text>
</g>
<!-- Node4 -->
<g id="node4" class="node"><title>Node4</title>
<g id="a_node4"><a xlink:href="structtree__desc__s.html" target="_top" xlink:title="{tree_desc_s\n|+ max_code\l|}">
<polygon fill="white" stroke="black" points="227.5,-303.5 227.5,-360.5 298.5,-360.5 298.5,-303.5 227.5,-303.5"/>
<text text-anchor="middle" x="263" y="-348.5" font-family="Helvetica,sans-Serif" font-size="10.00">tree_desc_s</text>
<polyline fill="none" stroke="black" points="227.5,-341.5 298.5,-341.5 "/>
<text text-anchor="start" x="235.5" y="-329.5" font-family="Helvetica,sans-Serif" font-size="10.00">+ max_code</text>
<polyline fill="none" stroke="black" points="227.5,-322.5 298.5,-322.5 "/>
<text text-anchor="middle" x="263" y="-310.5" font-family="Helvetica,sans-Serif" font-size="10.00"> </text>
</a>
</g>
</g>
<!-- Node4&#45;&gt;Node2 -->
<g id="edge3" class="edge"><title>Node4&#45;&gt;Node2</title>
<path fill="none" stroke="#404040" d="M256.163,-303.245C248.164,-273.27 233.375,-224.626 213,-186 207.874,-176.282 201.867,-166.484 195.522,-157.011"/>
<polygon fill="none" stroke="#404040" points="195.346,-156.757 188.646,-154.09 188.531,-146.88 195.231,-149.547 195.346,-156.757"/>
<text text-anchor="middle" x="248" y="-211" font-family="Helvetica,sans-Serif" font-size="10.00"> +l_desc</text>
<text text-anchor="middle" x="248" y="-200" font-family="Helvetica,sans-Serif" font-size="10.00">+d_desc</text>
<text text-anchor="middle" x="248" y="-189" font-family="Helvetica,sans-Serif" font-size="10.00">+bl_desc</text>
</g>
<!-- Node5 -->
<g id="node5" class="node"><title>Node5</title>
<g id="a_node5"><a xlink:href="structstatic__tree__desc__s.html" target="_top" xlink:title="{static_tree_desc_s\n|+ dummy\l+ extra_bits\l+ extra_base\l+ elems\l+ max_length\l|}">
<polygon fill="white" stroke="black" points="328.5,-496.5 328.5,-597.5 427.5,-597.5 427.5,-496.5 328.5,-496.5"/>
<text text-anchor="middle" x="378" y="-585.5" font-family="Helvetica,sans-Serif" font-size="10.00">static_tree_desc_s</text>
<polyline fill="none" stroke="black" points="328.5,-578.5 427.5,-578.5 "/>
<text text-anchor="start" x="336.5" y="-566.5" font-family="Helvetica,sans-Serif" font-size="10.00">+ dummy</text>
<text text-anchor="start" x="336.5" y="-555.5" font-family="Helvetica,sans-Serif" font-size="10.00">+ extra_bits</text>
<text text-anchor="start" x="336.5" y="-544.5" font-family="Helvetica,sans-Serif" font-size="10.00">+ extra_base</text>
<text text-anchor="start" x="336.5" y="-533.5" font-family="Helvetica,sans-Serif" font-size="10.00">+ elems</text>
<text text-anchor="start" x="336.5" y="-522.5" font-family="Helvetica,sans-Serif" font-size="10.00">+ max_length</text>
<polyline fill="none" stroke="black" points="328.5,-515.5 427.5,-515.5 "/>
<text text-anchor="middle" x="378" y="-503.5" font-family="Helvetica,sans-Serif" font-size="10.00"> </text>
</a>
</g>
</g>
<!-- Node5&#45;&gt;Node4 -->
<g id="edge4" class="edge"><title>Node5&#45;&gt;Node4</title>
<path fill="none" stroke="#404040" d="M351.183,-496.33C330.581,-458.172 302.547,-406.249 283.666,-371.276"/>
<polygon fill="none" stroke="#404040" points="283.579,-371.115 277.209,-367.736 277.878,-360.556 284.248,-363.935 283.579,-371.115"/>
<text text-anchor="middle" x="366" y="-459" font-family="Helvetica,sans-Serif" font-size="10.00"> +stat_desc</text>
</g>
<!-- Node6 -->
<g id="node6" class="node"><title>Node6</title>
<g id="a_node6"><a xlink:href="structct__data__s.html" target="_top" xlink:title="{ct_data_s\n|+ freq\l+ code\l+ fc\l+ dad\l+ len\l+ dl\l|}">
<polygon fill="white" stroke="black" points="233.5,-645.5 233.5,-757.5 292.5,-757.5 292.5,-645.5 233.5,-645.5"/>
<text text-anchor="middle" x="263" y="-745.5" font-family="Helvetica,sans-Serif" font-size="10.00">ct_data_s</text>
<polyline fill="none" stroke="black" points="233.5,-738.5 292.5,-738.5 "/>
<text text-anchor="start" x="241.5" y="-726.5" font-family="Helvetica,sans-Serif" font-size="10.00">+ freq</text>
<text text-anchor="start" x="241.5" y="-715.5" font-family="Helvetica,sans-Serif" font-size="10.00">+ code</text>
<text text-anchor="start" x="241.5" y="-704.5" font-family="Helvetica,sans-Serif" font-size="10.00">+ fc</text>
<text text-anchor="start" x="241.5" y="-693.5" font-family="Helvetica,sans-Serif" font-size="10.00">+ dad</text>
<text text-anchor="start" x="241.5" y="-682.5" font-family="Helvetica,sans-Serif" font-size="10.00">+ len</text>
<text text-anchor="start" x="241.5" y="-671.5" font-family="Helvetica,sans-Serif" font-size="10.00">+ dl</text>
<polyline fill="none" stroke="black" points="233.5,-664.5 292.5,-664.5 "/>
<text text-anchor="middle" x="263" y="-652.5" font-family="Helvetica,sans-Serif" font-size="10.00"> </text>
</a>
</g>
</g>
<!-- Node6&#45;&gt;Node2 -->
<g id="edge8" class="edge"><title>Node6&#45;&gt;Node2</title>
<path fill="none" stroke="#404040" d="M247.616,-645.147C235.71,-600.385 219.669,-535.566 210,-478 188.397,-349.386 213.36,-312.338 181,-186 180.415,-183.715 179.786,-181.416 179.118,-179.107"/>
<polygon fill="none" stroke="#404040" points="179.078,-178.979 173.467,-174.451 175.488,-167.529 181.1,-172.058 179.078,-178.979"/>
<text text-anchor="middle" x="234.5" y="-470" font-family="Helvetica,sans-Serif" font-size="10.00"> +dyn_ltree</text>
<text text-anchor="middle" x="234.5" y="-459" font-family="Helvetica,sans-Serif" font-size="10.00">+bl_tree</text>
<text text-anchor="middle" x="234.5" y="-448" font-family="Helvetica,sans-Serif" font-size="10.00">+dyn_dtree</text>
</g>
<!-- Node6&#45;&gt;Node4 -->
<g id="edge6" class="edge"><title>Node6&#45;&gt;Node4</title>
<path fill="none" stroke="#404040" d="M263,-645.482C263,-570.769 263,-438.995 263,-373.007"/>
<polygon fill="none" stroke="#404040" points="263,-372.723 259,-366.723 263,-360.723 267,-366.723 263,-372.723"/>
<text text-anchor="middle" x="286.5" y="-544.5" font-family="Helvetica,sans-Serif" font-size="10.00"> +dyn_tree</text>
</g>
<!-- Node6&#45;&gt;Node5 -->
<g id="edge5" class="edge"><title>Node6&#45;&gt;Node5</title>
<path fill="none" stroke="#404040" d="M292.615,-661.227C305.026,-644.77 319.723,-625.28 333.395,-607.15"/>
<polygon fill="none" stroke="#404040" points="333.423,-607.113 333.842,-599.914 340.648,-597.532 340.229,-604.731 333.423,-607.113"/>
<text text-anchor="middle" x="350.5" y="-619" font-family="Helvetica,sans-Serif" font-size="10.00"> +static_tree</text>
</g>
</g>
</svg>
