<?xml version="1.0" encoding="UTF-8" standalone="no"?>
<!DOCTYPE svg PUBLIC "-//W3C//DTD SVG 1.1//EN"
 "http://www.w3.org/Graphics/SVG/1.1/DTD/svg11.dtd">
<!-- Generated by graphviz version 2.38.0 (20140413.2041)
 -->
<!-- Title: gz_state Pages: 1 -->
<!--zoomable 766 -->
<svg id="main" version="1.1" xmlns="http://www.w3.org/2000/svg" xmlns:xlink="http://www.w3.org/1999/xlink" xml:space="preserve" onload="init(evt)">
<style type="text/css"><![CDATA[
.edge:hover path { stroke: red; }
.edge:hover polygon { stroke: red; fill: red; }
]]></style>
<script type="text/javascript"><![CDATA[
var edges = document.getElementsByTagName('g');
if (edges && edges.length) {
  for (var i=0;i<edges.length;i++) {
    if (edges[i].id.substr(0,4)=='edge') {
      edges[i].setAttribute('class','edge');
    }
  }
}
]]></script>
        <defs>
                <circle id="rim" cx="0" cy="0" r="7"/>
                <circle id="rim2" cx="0" cy="0" r="3.5"/>
                <g id="zoomPlus">
                        <use xlink:href="#rim" fill="#404040">
                                <set attributeName="fill" to="#808080" begin="zoomplus.mouseover" end="zoomplus.mouseout"/>
                        </use>
                        <path d="M-4,0h8M0,-4v8" fill="none" stroke="white" stroke-width="1.5" pointer-events="none"/>
                </g>
                <g id="zoomMin">
                        <use xlink:href="#rim" fill="#404040">
                                <set attributeName="fill" to="#808080" begin="zoomminus.mouseover" end="zoomminus.mouseout"/>
                        </use>
                        <path d="M-4,0h8" fill="none" stroke="white" stroke-width="1.5" pointer-events="none"/>
                </g>
                <g id="dirArrow">
                        <path fill="none" stroke="white" stroke-width="1.5" d="M0,-3.0v7 M-2.5,-0.5L0,-3.0L2.5,-0.5"/>
                </g>
               <g id="resetDef">
                       <use xlink:href="#rim2" fill="#404040">
                               <set attributeName="fill" to="#808080" begin="reset.mouseover" end="reset.mouseout"/>
                       </use>
               </g>
        </defs>

<script type="text/javascript">
var viewWidth = 520;
var viewHeight = 766;
var sectionId = 'dynsection-0';
</script>
<script xlink:href="svgpan.js"/>
<svg id="graph" class="graph">
<g id="viewport">
<title>gz_state</title>
<polygon fill="white" stroke="none" points="-4,4 -4,-762 516,-762 516,4 -4,4"/>
<!-- Node1 -->
<g id="node1" class="node"><title>Node1</title>
<polygon fill="#bfbfbf" stroke="black" points="8.5,-0.5 8.5,-167.5 82.5,-167.5 82.5,-0.5 8.5,-0.5"/>
<text text-anchor="middle" x="45.5" y="-155.5" font-family="Helvetica,sans-Serif" font-size="10.00">gz_state</text>
<polyline fill="none" stroke="black" points="8.5,-148.5 82.5,-148.5 "/>
<text text-anchor="start" x="16.5" y="-136.5" font-family="Helvetica,sans-Serif" font-size="10.00">+ mode</text>
<text text-anchor="start" x="16.5" y="-125.5" font-family="Helvetica,sans-Serif" font-size="10.00">+ fd</text>
<text text-anchor="start" x="16.5" y="-114.5" font-family="Helvetica,sans-Serif" font-size="10.00">+ path</text>
<text text-anchor="start" x="16.5" y="-103.5" font-family="Helvetica,sans-Serif" font-size="10.00">+ size</text>
<text text-anchor="start" x="16.5" y="-92.5" font-family="Helvetica,sans-Serif" font-size="10.00">+ want</text>
<text text-anchor="start" x="16.5" y="-81.5" font-family="Helvetica,sans-Serif" font-size="10.00">+ in</text>
<text text-anchor="start" x="16.5" y="-70.5" font-family="Helvetica,sans-Serif" font-size="10.00">+ out</text>
<text text-anchor="start" x="16.5" y="-59.5" font-family="Helvetica,sans-Serif" font-size="10.00">+ direct</text>
<text text-anchor="start" x="16.5" y="-48.5" font-family="Helvetica,sans-Serif" font-size="10.00">+ how</text>
<text text-anchor="start" x="16.5" y="-37.5" font-family="Helvetica,sans-Serif" font-size="10.00">+ start</text>
<text text-anchor="start" x="16.5" y="-26.5" font-family="Helvetica,sans-Serif" font-size="10.00">and 8 more...</text>
<polyline fill="none" stroke="black" points="8.5,-19.5 82.5,-19.5 "/>
<text text-anchor="middle" x="45.5" y="-7.5" font-family="Helvetica,sans-Serif" font-size="10.00"> </text>
</g>
<!-- Node2 -->
<g id="node2" class="node"><title>Node2</title>
<g id="a_node2"><a xlink:href="structgz_file__s.html" target="_top" xlink:title="{gzFile_s\n|+ have\l+ next\l+ pos\l|}">
<polygon fill="white" stroke="black" points="0,-292.5 0,-371.5 53,-371.5 53,-292.5 0,-292.5"/>
<text text-anchor="middle" x="26.5" y="-359.5" font-family="Helvetica,sans-Serif" font-size="10.00">gzFile_s</text>
<polyline fill="none" stroke="black" points="0,-352.5 53,-352.5 "/>
<text text-anchor="start" x="8" y="-340.5" font-family="Helvetica,sans-Serif" font-size="10.00">+ have</text>
<text text-anchor="start" x="8" y="-329.5" font-family="Helvetica,sans-Serif" font-size="10.00">+ next</text>
<text text-anchor="start" x="8" y="-318.5" font-family="Helvetica,sans-Serif" font-size="10.00">+ pos</text>
<polyline fill="none" stroke="black" points="0,-311.5 53,-311.5 "/>
<text text-anchor="middle" x="26.5" y="-299.5" font-family="Helvetica,sans-Serif" font-size="10.00"> </text>
</a>
</g>
</g>
<!-- Node2&#45;&gt;Node1 -->
<g id="edge1" class="edge"><title>Node2&#45;&gt;Node1</title>
<path fill="none" stroke="#404040" d="M24.9945,-292.446C24.2805,-263.178 24.1945,-221.973 27.5,-186 27.6991,-183.833 27.9203,-181.642 28.1608,-179.436"/>
<polygon fill="none" stroke="#404040" points="28.1609,-179.435 24.9192,-172.994 29.6183,-167.524 32.86,-173.965 28.1609,-179.435"/>
<text text-anchor="middle" x="35" y="-200" font-family="Helvetica,sans-Serif" font-size="10.00"> +x</text>
</g>
<!-- Node3 -->
<g id="node3" class="node"><title>Node3</title>
<g id="a_node3"><a xlink:href="structz__stream__s.html" target="_top" xlink:title="{z_stream_s\n|+ next_in\l+ avail_in\l+ total_in\l+ next_out\l+ avail_out\l+ total_out\l+ msg\l+ zalloc\l+ zfree\l+ opaque\l+ data_type\l+ adler\l+ reserved\l|}">
<polygon fill="white" stroke="black" points="82.5,-237.5 82.5,-426.5 150.5,-426.5 150.5,-237.5 82.5,-237.5"/>
<text text-anchor="middle" x="116.5" y="-414.5" font-family="Helvetica,sans-Serif" font-size="10.00">z_stream_s</text>
<polyline fill="none" stroke="black" points="82.5,-407.5 150.5,-407.5 "/>
<text text-anchor="start" x="90.5" y="-395.5" font-family="Helvetica,sans-Serif" font-size="10.00">+ next_in</text>
<text text-anchor="start" x="90.5" y="-384.5" font-family="Helvetica,sans-Serif" font-size="10.00">+ avail_in</text>
<text text-anchor="start" x="90.5" y="-373.5" font-family="Helvetica,sans-Serif" font-size="10.00">+ total_in</text>
<text text-anchor="start" x="90.5" y="-362.5" font-family="Helvetica,sans-Serif" font-size="10.00">+ next_out</text>
<text text-anchor="start" x="90.5" y="-351.5" font-family="Helvetica,sans-Serif" font-size="10.00">+ avail_out</text>
<text text-anchor="start" x="90.5" y="-340.5" font-family="Helvetica,sans-Serif" font-size="10.00">+ total_out</text>
<text text-anchor="start" x="90.5" y="-329.5" font-family="Helvetica,sans-Serif" font-size="10.00">+ msg</text>
<text text-anchor="start" x="90.5" y="-318.5" font-family="Helvetica,sans-Serif" font-size="10.00">+ zalloc</text>
<text text-anchor="start" x="90.5" y="-307.5" font-family="Helvetica,sans-Serif" font-size="10.00">+ zfree</text>
<text text-anchor="start" x="90.5" y="-296.5" font-family="Helvetica,sans-Serif" font-size="10.00">+ opaque</text>
<text text-anchor="start" x="90.5" y="-285.5" font-family="Helvetica,sans-Serif" font-size="10.00">+ data_type</text>
<text text-anchor="start" x="90.5" y="-274.5" font-family="Helvetica,sans-Serif" font-size="10.00">+ adler</text>
<text text-anchor="start" x="90.5" y="-263.5" font-family="Helvetica,sans-Serif" font-size="10.00">+ reserved</text>
<polyline fill="none" stroke="black" points="82.5,-256.5 150.5,-256.5 "/>
<text text-anchor="middle" x="116.5" y="-244.5" font-family="Helvetica,sans-Serif" font-size="10.00"> </text>
</a>
</g>
</g>
<!-- Node3&#45;&gt;Node1 -->
<g id="edge2" class="edge"><title>Node3&#45;&gt;Node1</title>
<path fill="none" stroke="#404040" d="M82.4923,-264.354C76.0577,-249.702 69.9563,-234.058 65.5,-219 61.7949,-206.48 58.7563,-193.09 56.2693,-179.795"/>
<polygon fill="none" stroke="#404040" points="56.2105,-179.46 51.234,-174.241 54.1371,-167.64 59.1136,-172.859 56.2105,-179.46"/>
<text text-anchor="middle" x="80" y="-200" font-family="Helvetica,sans-Serif" font-size="10.00"> +strm</text>
</g>
<!-- Node4 -->
<g id="node4" class="node"><title>Node4</title>
<g id="a_node4"><a xlink:href="structinternal__state.html" target="_top" xlink:title="{internal_state\n|+ status\l+ pending_buf\l+ pending_buf_size\l+ pending_out\l+ pending\l+ wrap\l+ gzindex\l+ method\l+ last_flush\l+ w_size\land 42 more...\l|}">
<polygon fill="white" stroke="black" points="172,-0.5 172,-167.5 273,-167.5 273,-0.5 172,-0.5"/>
<text text-anchor="middle" x="222.5" y="-155.5" font-family="Helvetica,sans-Serif" font-size="10.00">internal_state</text>
<polyline fill="none" stroke="black" points="172,-148.5 273,-148.5 "/>
<text text-anchor="start" x="180" y="-136.5" font-family="Helvetica,sans-Serif" font-size="10.00">+ status</text>
<text text-anchor="start" x="180" y="-125.5" font-family="Helvetica,sans-Serif" font-size="10.00">+ pending_buf</text>
<text text-anchor="start" x="180" y="-114.5" font-family="Helvetica,sans-Serif" font-size="10.00">+ pending_buf_size</text>
<text text-anchor="start" x="180" y="-103.5" font-family="Helvetica,sans-Serif" font-size="10.00">+ pending_out</text>
<text text-anchor="start" x="180" y="-92.5" font-family="Helvetica,sans-Serif" font-size="10.00">+ pending</text>
<text text-anchor="start" x="180" y="-81.5" font-family="Helvetica,sans-Serif" font-size="10.00">+ wrap</text>
<text text-anchor="start" x="180" y="-70.5" font-family="Helvetica,sans-Serif" font-size="10.00">+ gzindex</text>
<text text-anchor="start" x="180" y="-59.5" font-family="Helvetica,sans-Serif" font-size="10.00">+ method</text>
<text text-anchor="start" x="180" y="-48.5" font-family="Helvetica,sans-Serif" font-size="10.00">+ last_flush</text>
<text text-anchor="start" x="180" y="-37.5" font-family="Helvetica,sans-Serif" font-size="10.00">+ w_size</text>
<text text-anchor="start" x="180" y="-26.5" font-family="Helvetica,sans-Serif" font-size="10.00">and 42 more...</text>
<polyline fill="none" stroke="black" points="172,-19.5 273,-19.5 "/>
<text text-anchor="middle" x="222.5" y="-7.5" font-family="Helvetica,sans-Serif" font-size="10.00"> </text>
</a>
</g>
</g>
<!-- Node3&#45;&gt;Node4 -->
<g id="edge9" class="edge"><title>Node3&#45;&gt;Node4</title>
<path fill="none" stroke="#404040" d="M119.058,-237.491C121.858,-219.868 126.376,-201.972 133.5,-186 140.848,-169.525 151.856,-153.802 163.649,-139.877"/>
<polygon fill="none" stroke="#404040" points="163.957,-139.528 164.933,-132.383 171.903,-130.536 170.927,-137.681 163.957,-139.528"/>
<text text-anchor="middle" x="148" y="-200" font-family="Helvetica,sans-Serif" font-size="10.00"> +strm</text>
</g>
<!-- Node4&#45;&gt;Node3 -->
<g id="edge3" class="edge"><title>Node4&#45;&gt;Node3</title>
<path fill="none" stroke="#404040" d="M186.799,-167.853C176.717,-191.252 165.696,-216.827 155.434,-240.643"/>
<polygon fill="none" stroke="#404040" points="155.371,-240.789 156.67,-247.883 150.623,-251.81 149.323,-244.717 155.371,-240.789"/>
<text text-anchor="middle" x="195" y="-200" font-family="Helvetica,sans-Serif" font-size="10.00"> +state</text>
</g>
<!-- Node5 -->
<g id="node5" class="node"><title>Node5</title>
<g id="a_node5"><a xlink:href="structgz__header__s.html" target="_top" xlink:title="{gz_header_s\n|+ text\l+ time\l+ xflags\l+ os\l+ extra\l+ extra_len\l+ extra_max\l+ name\l+ name_max\l+ comment\l+ comm_max\l+ hcrc\l+ done\l|}">
<polygon fill="white" stroke="black" points="178,-237.5 178,-426.5 255,-426.5 255,-237.5 178,-237.5"/>
<text text-anchor="middle" x="216.5" y="-414.5" font-family="Helvetica,sans-Serif" font-size="10.00">gz_header_s</text>
<polyline fill="none" stroke="black" points="178,-407.5 255,-407.5 "/>
<text text-anchor="start" x="186" y="-395.5" font-family="Helvetica,sans-Serif" font-size="10.00">+ text</text>
<text text-anchor="start" x="186" y="-384.5" font-family="Helvetica,sans-Serif" font-size="10.00">+ time</text>
<text text-anchor="start" x="186" y="-373.5" font-family="Helvetica,sans-Serif" font-size="10.00">+ xflags</text>
<text text-anchor="start" x="186" y="-362.5" font-family="Helvetica,sans-Serif" font-size="10.00">+ os</text>
<text text-anchor="start" x="186" y="-351.5" font-family="Helvetica,sans-Serif" font-size="10.00">+ extra</text>
<text text-anchor="start" x="186" y="-340.5" font-family="Helvetica,sans-Serif" font-size="10.00">+ extra_len</text>
<text text-anchor="start" x="186" y="-329.5" font-family="Helvetica,sans-Serif" font-size="10.00">+ extra_max</text>
<text text-anchor="start" x="186" y="-318.5" font-family="Helvetica,sans-Serif" font-size="10.00">+ name</text>
<text text-anchor="start" x="186" y="-307.5" font-family="Helvetica,sans-Serif" font-size="10.00">+ name_max</text>
<text text-anchor="start" x="186" y="-296.5" font-family="Helvetica,sans-Serif" font-size="10.00">+ comment</text>
<text text-anchor="start" x="186" y="-285.5" font-family="Helvetica,sans-Serif" font-size="10.00">+ comm_max</text>
<text text-anchor="start" x="186" y="-274.5" font-family="Helvetica,sans-Serif" font-size="10.00">+ hcrc</text>
<text text-anchor="start" x="186" y="-263.5" font-family="Helvetica,sans-Serif" font-size="10.00">+ done</text>
<polyline fill="none" stroke="black" points="178,-256.5 255,-256.5 "/>
<text text-anchor="middle" x="216.5" y="-244.5" font-family="Helvetica,sans-Serif" font-size="10.00"> </text>
</a>
</g>
</g>
<!-- Node5&#45;&gt;Node4 -->
<g id="edge4" class="edge"><title>Node5&#45;&gt;Node4</title>
<path fill="none" stroke="#404040" d="M218.785,-237.296C219.245,-218.473 219.727,-198.677 220.187,-179.816"/>
<polygon fill="none" stroke="#404040" points="220.193,-179.572 216.341,-173.477 220.486,-167.576 224.338,-173.672 220.193,-179.572"/>
<text text-anchor="middle" x="241" y="-200" font-family="Helvetica,sans-Serif" font-size="10.00"> +gzhead</text>
</g>
<!-- Node6 -->
<g id="node6" class="node"><title>Node6</title>
<g id="a_node6"><a xlink:href="structtree__desc__s.html" target="_top" xlink:title="{tree_desc_s\n|+ max_code\l|}">
<polygon fill="white" stroke="black" points="312,-303.5 312,-360.5 383,-360.5 383,-303.5 312,-303.5"/>
<text text-anchor="middle" x="347.5" y="-348.5" font-family="Helvetica,sans-Serif" font-size="10.00">tree_desc_s</text>
<polyline fill="none" stroke="black" points="312,-341.5 383,-341.5 "/>
<text text-anchor="start" x="320" y="-329.5" font-family="Helvetica,sans-Serif" font-size="10.00">+ max_code</text>
<polyline fill="none" stroke="black" points="312,-322.5 383,-322.5 "/>
<text text-anchor="middle" x="347.5" y="-310.5" font-family="Helvetica,sans-Serif" font-size="10.00"> </text>
</a>
</g>
</g>
<!-- Node6&#45;&gt;Node4 -->
<g id="edge5" class="edge"><title>Node6&#45;&gt;Node4</title>
<path fill="none" stroke="#404040" d="M340.663,-303.245C332.664,-273.27 317.875,-224.626 297.5,-186 292.374,-176.282 286.367,-166.484 280.022,-157.011"/>
<polygon fill="none" stroke="#404040" points="279.846,-156.757 273.146,-154.09 273.031,-146.88 279.731,-149.547 279.846,-156.757"/>
<text text-anchor="middle" x="332.5" y="-211" font-family="Helvetica,sans-Serif" font-size="10.00"> +l_desc</text>
<text text-anchor="middle" x="332.5" y="-200" font-family="Helvetica,sans-Serif" font-size="10.00">+d_desc</text>
<text text-anchor="middle" x="332.5" y="-189" font-family="Helvetica,sans-Serif" font-size="10.00">+bl_desc</text>
</g>
<!-- Node7 -->
<g id="node7" class="node"><title>Node7</title>
<g id="a_node7"><a xlink:href="structstatic__tree__desc__s.html" target="_top" xlink:title="{static_tree_desc_s\n|+ dummy\l+ extra_bits\l+ extra_base\l+ elems\l+ max_length\l|}">
<polygon fill="white" stroke="black" points="413,-496.5 413,-597.5 512,-597.5 512,-496.5 413,-496.5"/>
<text text-anchor="middle" x="462.5" y="-585.5" font-family="Helvetica,sans-Serif" font-size="10.00">static_tree_desc_s</text>
<polyline fill="none" stroke="black" points="413,-578.5 512,-578.5 "/>
<text text-anchor="start" x="421" y="-566.5" font-family="Helvetica,sans-Serif" font-size="10.00">+ dummy</text>
<text text-anchor="start" x="421" y="-555.5" font-family="Helvetica,sans-Serif" font-size="10.00">+ extra_bits</text>
<text text-anchor="start" x="421" y="-544.5" font-family="Helvetica,sans-Serif" font-size="10.00">+ extra_base</text>
<text text-anchor="start" x="421" y="-533.5" font-family="Helvetica,sans-Serif" font-size="10.00">+ elems</text>
<text text-anchor="start" x="421" y="-522.5" font-family="Helvetica,sans-Serif" font-size="10.00">+ max_length</text>
<polyline fill="none" stroke="black" points="413,-515.5 512,-515.5 "/>
<text text-anchor="middle" x="462.5" y="-503.5" font-family="Helvetica,sans-Serif" font-size="10.00"> </text>
</a>
</g>
</g>
<!-- Node7&#45;&gt;Node6 -->
<g id="edge6" class="edge"><title>Node7&#45;&gt;Node6</title>
<path fill="none" stroke="#404040" d="M435.683,-496.33C415.081,-458.172 387.047,-406.249 368.166,-371.276"/>
<polygon fill="none" stroke="#404040" points="368.079,-371.115 361.709,-367.736 362.378,-360.556 368.748,-363.935 368.079,-371.115"/>
<text text-anchor="middle" x="450.5" y="-459" font-family="Helvetica,sans-Serif" font-size="10.00"> +stat_desc</text>
</g>
<!-- Node8 -->
<g id="node8" class="node"><title>Node8</title>
<g id="a_node8"><a xlink:href="structct__data__s.html" target="_top" xlink:title="{ct_data_s\n|+ freq\l+ code\l+ fc\l+ dad\l+ len\l+ dl\l|}">
<polygon fill="white" stroke="black" points="318,-645.5 318,-757.5 377,-757.5 377,-645.5 318,-645.5"/>
<text text-anchor="middle" x="347.5" y="-745.5" font-family="Helvetica,sans-Serif" font-size="10.00">ct_data_s</text>
<polyline fill="none" stroke="black" points="318,-738.5 377,-738.5 "/>
<text text-anchor="start" x="326" y="-726.5" font-family="Helvetica,sans-Serif" font-size="10.00">+ freq</text>
<text text-anchor="start" x="326" y="-715.5" font-family="Helvetica,sans-Serif" font-size="10.00">+ code</text>
<text text-anchor="start" x="326" y="-704.5" font-family="Helvetica,sans-Serif" font-size="10.00">+ fc</text>
<text text-anchor="start" x="326" y="-693.5" font-family="Helvetica,sans-Serif" font-size="10.00">+ dad</text>
<text text-anchor="start" x="326" y="-682.5" font-family="Helvetica,sans-Serif" font-size="10.00">+ len</text>
<text text-anchor="start" x="326" y="-671.5" font-family="Helvetica,sans-Serif" font-size="10.00">+ dl</text>
<polyline fill="none" stroke="black" points="318,-664.5 377,-664.5 "/>
<text text-anchor="middle" x="347.5" y="-652.5" font-family="Helvetica,sans-Serif" font-size="10.00"> </text>
</a>
</g>
</g>
<!-- Node8&#45;&gt;Node4 -->
<g id="edge10" class="edge"><title>Node8&#45;&gt;Node4</title>
<path fill="none" stroke="#404040" d="M332.116,-645.147C320.21,-600.385 304.169,-535.566 294.5,-478 272.897,-349.386 297.86,-312.338 265.5,-186 264.915,-183.715 264.286,-181.416 263.618,-179.107"/>
<polygon fill="none" stroke="#404040" points="263.578,-178.979 257.967,-174.451 259.988,-167.529 265.6,-172.058 263.578,-178.979"/>
<text text-anchor="middle" x="319" y="-470" font-family="Helvetica,sans-Serif" font-size="10.00"> +dyn_ltree</text>
<text text-anchor="middle" x="319" y="-459" font-family="Helvetica,sans-Serif" font-size="10.00">+bl_tree</text>
<text text-anchor="middle" x="319" y="-448" font-family="Helvetica,sans-Serif" font-size="10.00">+dyn_dtree</text>
</g>
<!-- Node8&#45;&gt;Node6 -->
<g id="edge8" class="edge"><title>Node8&#45;&gt;Node6</title>
<path fill="none" stroke="#404040" d="M347.5,-645.482C347.5,-570.769 347.5,-438.995 347.5,-373.007"/>
<polygon fill="none" stroke="#404040" points="347.5,-372.723 343.5,-366.723 347.5,-360.723 351.5,-366.723 347.5,-372.723"/>
<text text-anchor="middle" x="371" y="-544.5" font-family="Helvetica,sans-Serif" font-size="10.00"> +dyn_tree</text>
</g>
<!-- Node8&#45;&gt;Node7 -->
<g id="edge7" class="edge"><title>Node8&#45;&gt;Node7</title>
<path fill="none" stroke="#404040" d="M377.115,-661.227C389.526,-644.77 404.223,-625.28 417.895,-607.15"/>
<polygon fill="none" stroke="#404040" points="417.923,-607.113 418.342,-599.914 425.148,-597.532 424.729,-604.731 417.923,-607.113"/>
<text text-anchor="middle" x="435" y="-619" font-family="Helvetica,sans-Serif" font-size="10.00"> +static_tree</text>
</g>
</g>
</svg>
        <g id="navigator" transform="translate(0 0)" fill="#404254">
                <rect fill="#f2f5e9" fill-opacity="0.5" stroke="#606060" stroke-width=".5" x="0" y="0" width="60" height="60"/>
                <use id="zoomplus" xlink:href="#zoomPlus" x="17" y="9" onmousedown="handleZoom(evt,'in')"/>
                <use id="zoomminus" xlink:href="#zoomMin" x="42" y="9" onmousedown="handleZoom(evt,'out')"/>
                <use id="reset" xlink:href="#resetDef" x="30" y="36" onmousedown="handleReset()"/>
                <g id="arrowUp" xlink:href="#dirArrow" transform="translate(30 24)" onmousedown="handlePan(0,-1)">
                  <use xlink:href="#rim" fill="#404040">
                        <set attributeName="fill" to="#808080" begin="arrowUp.mouseover" end="arrowUp.mouseout"/>
                  </use>
                  <path fill="none" stroke="white" stroke-width="1.5" d="M0,-3.0v7 M-2.5,-0.5L0,-3.0L2.5,-0.5"/>
                </g>
                <g id="arrowRight" xlink:href="#dirArrow" transform="rotate(90) translate(36 -43)" onmousedown="handlePan(1,0)">
                  <use xlink:href="#rim" fill="#404040">
                        <set attributeName="fill" to="#808080" begin="arrowRight.mouseover" end="arrowRight.mouseout"/>
                  </use>
                  <path fill="none" stroke="white" stroke-width="1.5" d="M0,-3.0v7 M-2.5,-0.5L0,-3.0L2.5,-0.5"/>
                </g>
                <g id="arrowDown" xlink:href="#dirArrow" transform="rotate(180) translate(-30 -48)" onmousedown="handlePan(0,1)">
                  <use xlink:href="#rim" fill="#404040">
                        <set attributeName="fill" to="#808080" begin="arrowDown.mouseover" end="arrowDown.mouseout"/>
                  </use>
                  <path fill="none" stroke="white" stroke-width="1.5" d="M0,-3.0v7 M-2.5,-0.5L0,-3.0L2.5,-0.5"/>
                </g>
                <g id="arrowLeft" xlink:href="#dirArrow" transform="rotate(270) translate(-36 17)" onmousedown="handlePan(-1,0)">
                  <use xlink:href="#rim" fill="#404040">
                        <set attributeName="fill" to="#808080" begin="arrowLeft.mouseover" end="arrowLeft.mouseout"/>
                  </use>
                  <path fill="none" stroke="white" stroke-width="1.5" d="M0,-3.0v7 M-2.5,-0.5L0,-3.0L2.5,-0.5"/>
                </g>
        </g>
        <svg viewBox="0 0 15 15" width="100%" height="30px" preserveAspectRatio="xMaxYMin meet">
         <g id="arrow_out" transform="scale(0.3 0.3)">
          <a xlink:href="structgz__state__coll__graph_org.svg" target="_base">
           <rect id="button" ry="5" rx="5" y="6" x="6" height="38" width="38"
                fill="#f2f5e9" fill-opacity="0.5" stroke="#606060" stroke-width="1.0"/>
           <path id="arrow"
             d="M 11.500037,31.436501 C 11.940474,20.09759 22.043105,11.32322 32.158766,21.979434 L 37.068811,17.246167 C 37.068811,17.246167 37.088388,32 37.088388,32 L 22.160133,31.978069 C 22.160133,31.978069 26.997745,27.140456 26.997745,27.140456 C 18.528582,18.264221 13.291696,25.230495 11.500037,31.436501 z"
             style="fill:#404040;"/>
          </a>
         </g>
        </svg>
</svg>
