<?xml version="1.0" encoding="UTF-8" standalone="no"?>
<!DOCTYPE svg PUBLIC "-//W3C//DTD SVG 1.1//EN"
 "http://www.w3.org/Graphics/SVG/1.1/DTD/svg11.dtd">
<!-- Generated by graphviz version 2.38.0 (20140413.2041)
 -->
<!-- Title: devicestruc Pages: 1 -->
<svg width="88pt" height="402pt"
 viewBox="0.00 0.00 88.00 402.00" xmlns="http://www.w3.org/2000/svg" xmlns:xlink="http://www.w3.org/1999/xlink">
<g id="graph0" class="graph" transform="scale(1 1) rotate(0) translate(4 398)">
<title>devicestruc</title>
<polygon fill="white" stroke="none" points="-4,4 -4,-398 84,-398 84,4 -4,4"/>
<!-- Node1 -->
<g id="node1" class="node"><title>Node1</title>
<polygon fill="#bfbfbf" stroke="black" points="0,-0.5 0,-178.5 80,-178.5 80,-0.5 0,-0.5"/>
<text text-anchor="middle" x="40" y="-166.5" font-family="Helvetica,sans-Serif" font-size="10.00">devicestruc</text>
<polyline fill="none" stroke="black" points="0,-159.5 80,-159.5 "/>
<text text-anchor="start" x="8" y="-147.5" font-family="Helvetica,sans-Serif" font-size="10.00">+ all</text>
<text text-anchor="start" x="8" y="-136.5" font-family="Helvetica,sans-Serif" font-size="10.00">+ ant</text>
<text text-anchor="start" x="8" y="-125.5" font-family="Helvetica,sans-Serif" font-size="10.00">+ batt</text>
<text text-anchor="start" x="8" y="-114.5" font-family="Helvetica,sans-Serif" font-size="10.00">+ bcreg</text>
<text text-anchor="start" x="8" y="-103.5" font-family="Helvetica,sans-Serif" font-size="10.00">+ bus</text>
<text text-anchor="start" x="8" y="-92.5" font-family="Helvetica,sans-Serif" font-size="10.00">+ cam</text>
<text text-anchor="start" x="8" y="-81.5" font-family="Helvetica,sans-Serif" font-size="10.00">+ cpu</text>
<text text-anchor="start" x="8" y="-70.5" font-family="Helvetica,sans-Serif" font-size="10.00">+ disk</text>
<text text-anchor="start" x="8" y="-59.5" font-family="Helvetica,sans-Serif" font-size="10.00">+ gps</text>
<text text-anchor="start" x="8" y="-48.5" font-family="Helvetica,sans-Serif" font-size="10.00">+ htr</text>
<text text-anchor="start" x="8" y="-37.5" font-family="Helvetica,sans-Serif" font-size="10.00">and 22 more...</text>
<polyline fill="none" stroke="black" points="0,-30.5 80,-30.5 "/>
<text text-anchor="start" x="8" y="-18.5" font-family="Helvetica,sans-Serif" font-size="10.00">+ to_json()</text>
<text text-anchor="start" x="8" y="-7.5" font-family="Helvetica,sans-Serif" font-size="10.00">+ from_json()</text>
</g>
<!-- Node2 -->
<g id="node2" class="node"><title>Node2</title>
<g id="a_node2"><a xlink:href="structallstruc.html" target="_top" xlink:title="All Component structure. ">
<polygon fill="white" stroke="black" points="3,-215.5 3,-393.5 77,-393.5 77,-215.5 3,-215.5"/>
<text text-anchor="middle" x="40" y="-381.5" font-family="Helvetica,sans-Serif" font-size="10.00">allstruc</text>
<polyline fill="none" stroke="black" points="3,-374.5 77,-374.5 "/>
<text text-anchor="start" x="11" y="-362.5" font-family="Helvetica,sans-Serif" font-size="10.00">+ enabled</text>
<text text-anchor="start" x="11" y="-351.5" font-family="Helvetica,sans-Serif" font-size="10.00">+ type</text>
<text text-anchor="start" x="11" y="-340.5" font-family="Helvetica,sans-Serif" font-size="10.00">+ model</text>
<text text-anchor="start" x="11" y="-329.5" font-family="Helvetica,sans-Serif" font-size="10.00">+ flag</text>
<text text-anchor="start" x="11" y="-318.5" font-family="Helvetica,sans-Serif" font-size="10.00">+ addr</text>
<text text-anchor="start" x="11" y="-307.5" font-family="Helvetica,sans-Serif" font-size="10.00">+ cidx</text>
<text text-anchor="start" x="11" y="-296.5" font-family="Helvetica,sans-Serif" font-size="10.00">+ didx</text>
<text text-anchor="start" x="11" y="-285.5" font-family="Helvetica,sans-Serif" font-size="10.00">+ pidx</text>
<text text-anchor="start" x="11" y="-274.5" font-family="Helvetica,sans-Serif" font-size="10.00">+ bidx</text>
<text text-anchor="start" x="11" y="-263.5" font-family="Helvetica,sans-Serif" font-size="10.00">+ portidx</text>
<text text-anchor="start" x="11" y="-252.5" font-family="Helvetica,sans-Serif" font-size="10.00">and 9 more...</text>
<polyline fill="none" stroke="black" points="3,-245.5 77,-245.5 "/>
<text text-anchor="start" x="11" y="-233.5" font-family="Helvetica,sans-Serif" font-size="10.00">+ to_json()</text>
<text text-anchor="start" x="11" y="-222.5" font-family="Helvetica,sans-Serif" font-size="10.00">+ from_json()</text>
</a>
</g>
</g>
<!-- Node2&#45;&gt;Node1 -->
<g id="edge1" class="edge"><title>Node2&#45;&gt;Node1</title>
<path fill="none" stroke="midnightblue" d="M40,-205.316C40,-196.407 40,-187.42 40,-178.607"/>
<polygon fill="none" stroke="midnightblue" points="36.5001,-205.327 40,-215.327 43.5001,-205.327 36.5001,-205.327"/>
</g>
</g>
</svg>
