<?xml version="1.0" encoding="UTF-8" standalone="no"?>
<!DOCTYPE svg PUBLIC "-//W3C//DTD SVG 1.1//EN"
 "http://www.w3.org/Graphics/SVG/1.1/DTD/svg11.dtd">
<!-- Generated by graphviz version 2.38.0 (20140413.2041)
 -->
<!-- Title: filestruc Pages: 1 -->
<svg width="70pt" height="259pt"
 viewBox="0.00 0.00 70.00 259.00" xmlns="http://www.w3.org/2000/svg" xmlns:xlink="http://www.w3.org/1999/xlink">
<g id="graph0" class="graph" transform="scale(1 1) rotate(0) translate(4 255)">
<title>filestruc</title>
<polygon fill="white" stroke="none" points="-4,4 -4,-255 66,-255 66,4 -4,4"/>
<!-- Node1 -->
<g id="node1" class="node"><title>Node1</title>
<polygon fill="#bfbfbf" stroke="black" points="-3.55271e-15,-0.5 -3.55271e-15,-101.5 62,-101.5 62,-0.5 -3.55271e-15,-0.5"/>
<text text-anchor="middle" x="31" y="-89.5" font-family="Helvetica,sans-Serif" font-size="10.00">filestruc</text>
<polyline fill="none" stroke="black" points="-3.55271e-15,-82.5 62,-82.5 "/>
<text text-anchor="start" x="8" y="-70.5" font-family="Helvetica,sans-Serif" font-size="10.00">+ size</text>
<text text-anchor="start" x="8" y="-59.5" font-family="Helvetica,sans-Serif" font-size="10.00">+ year</text>
<text text-anchor="start" x="8" y="-48.5" font-family="Helvetica,sans-Serif" font-size="10.00">+ jday</text>
<text text-anchor="start" x="8" y="-37.5" font-family="Helvetica,sans-Serif" font-size="10.00">+ seconds</text>
<text text-anchor="start" x="8" y="-26.5" font-family="Helvetica,sans-Serif" font-size="10.00">+ utc</text>
<polyline fill="none" stroke="black" points="-3.55271e-15,-19.5 62,-19.5 "/>
<text text-anchor="middle" x="31" y="-7.5" font-family="Helvetica,sans-Serif" font-size="10.00"> </text>
</g>
<!-- Node2 -->
<g id="node2" class="node"><title>Node2</title>
<polygon fill="white" stroke="#bfbfbf" points="10.5,-193.5 10.5,-250.5 51.5,-250.5 51.5,-193.5 10.5,-193.5"/>
<text text-anchor="middle" x="31" y="-238.5" font-family="Helvetica,sans-Serif" font-size="10.00">string</text>
<polyline fill="none" stroke="#bfbfbf" points="10.5,-231.5 51.5,-231.5 "/>
<text text-anchor="middle" x="31" y="-219.5" font-family="Helvetica,sans-Serif" font-size="10.00"> </text>
<polyline fill="none" stroke="#bfbfbf" points="10.5,-212.5 51.5,-212.5 "/>
<text text-anchor="middle" x="31" y="-200.5" font-family="Helvetica,sans-Serif" font-size="10.00"> </text>
</g>
<!-- Node2&#45;&gt;Node1 -->
<g id="edge1" class="edge"><title>Node2&#45;&gt;Node1</title>
<path fill="none" stroke="#404040" d="M31,-193.471C31,-171.977 31,-141.278 31,-113.966"/>
<polygon fill="none" stroke="#404040" points="31.0001,-113.702 27,-107.702 31,-101.702 35,-107.702 31.0001,-113.702"/>
<text text-anchor="middle" x="46.5" y="-167" font-family="Helvetica,sans-Serif" font-size="10.00"> +type</text>
<text text-anchor="middle" x="46.5" y="-156" font-family="Helvetica,sans-Serif" font-size="10.00">+name</text>
<text text-anchor="middle" x="46.5" y="-145" font-family="Helvetica,sans-Serif" font-size="10.00">+agent</text>
<text text-anchor="middle" x="46.5" y="-134" font-family="Helvetica,sans-Serif" font-size="10.00">+node</text>
<text text-anchor="middle" x="46.5" y="-123" font-family="Helvetica,sans-Serif" font-size="10.00">+path</text>
</g>
</g>
</svg>
