<?xml version="1.0" encoding="UTF-8" standalone="no"?>
<!DOCTYPE svg PUBLIC "-//W3C//DTD SVG 1.1//EN"
 "http://www.w3.org/Graphics/SVG/1.1/DTD/svg11.dtd">
<!-- Generated by graphviz version 2.38.0 (20140413.2041)
 -->
<!-- Title: mccstruc Pages: 1 -->
<!--zoomable 452 -->
<svg id="main" version="1.1" xmlns="http://www.w3.org/2000/svg" xmlns:xlink="http://www.w3.org/1999/xlink" xml:space="preserve" onload="init(evt)">
<style type="text/css"><![CDATA[
.edge:hover path { stroke: red; }
.edge:hover polygon { stroke: red; fill: red; }
]]></style>
<script type="text/javascript"><![CDATA[
var edges = document.getElementsByTagName('g');
if (edges && edges.length) {
  for (var i=0;i<edges.length;i++) {
    if (edges[i].id.substr(0,4)=='edge') {
      edges[i].setAttribute('class','edge');
    }
  }
}
]]></script>
        <defs>
                <circle id="rim" cx="0" cy="0" r="7"/>
                <circle id="rim2" cx="0" cy="0" r="3.5"/>
                <g id="zoomPlus">
                        <use xlink:href="#rim" fill="#404040">
                                <set attributeName="fill" to="#808080" begin="zoomplus.mouseover" end="zoomplus.mouseout"/>
                        </use>
                        <path d="M-4,0h8M0,-4v8" fill="none" stroke="white" stroke-width="1.5" pointer-events="none"/>
                </g>
                <g id="zoomMin">
                        <use xlink:href="#rim" fill="#404040">
                                <set attributeName="fill" to="#808080" begin="zoomminus.mouseover" end="zoomminus.mouseout"/>
                        </use>
                        <path d="M-4,0h8" fill="none" stroke="white" stroke-width="1.5" pointer-events="none"/>
                </g>
                <g id="dirArrow">
                        <path fill="none" stroke="white" stroke-width="1.5" d="M0,-3.0v7 M-2.5,-0.5L0,-3.0L2.5,-0.5"/>
                </g>
               <g id="resetDef">
                       <use xlink:href="#rim2" fill="#404040">
                               <set attributeName="fill" to="#808080" begin="reset.mouseover" end="reset.mouseout"/>
                       </use>
               </g>
        </defs>

<script type="text/javascript">
var viewWidth = 179;
var viewHeight = 452;
var sectionId = 'dynsection-0';
</script>
<script xlink:href="svgpan.js"/>
<svg id="graph" class="graph">
<g id="viewport">
<title>mccstruc</title>
<polygon fill="white" stroke="none" points="-4,4 -4,-448 174.5,-448 174.5,4 -4,4"/>
<!-- Node1 -->
<g id="node1" class="node"><title>Node1</title>
<polygon fill="#bfbfbf" stroke="black" points="71.5,-0.5 71.5,-68.5 145.5,-68.5 145.5,-0.5 71.5,-0.5"/>
<text text-anchor="middle" x="108.5" y="-56.5" font-family="Helvetica,sans-Serif" font-size="10.00">mccstruc</text>
<polyline fill="none" stroke="black" points="71.5,-49.5 145.5,-49.5 "/>
<text text-anchor="middle" x="108.5" y="-37.5" font-family="Helvetica,sans-Serif" font-size="10.00"> </text>
<polyline fill="none" stroke="black" points="71.5,-30.5 145.5,-30.5 "/>
<text text-anchor="start" x="79.5" y="-18.5" font-family="Helvetica,sans-Serif" font-size="10.00">+ to_json()</text>
<text text-anchor="start" x="79.5" y="-7.5" font-family="Helvetica,sans-Serif" font-size="10.00">+ from_json()</text>
</g>
<!-- Node2 -->
<g id="node2" class="node"><title>Node2</title>
<g id="a_node2"><a xlink:href="structquaternion.html" target="_top" xlink:title="Quaternion, scalar last, using x, y, z. ">
<polygon fill="white" stroke="black" points="1,-127.5 1,-217.5 78,-217.5 78,-127.5 1,-127.5"/>
<text text-anchor="middle" x="39.5" y="-205.5" font-family="Helvetica,sans-Serif" font-size="10.00">quaternion</text>
<polyline fill="none" stroke="black" points="1,-198.5 78,-198.5 "/>
<text text-anchor="start" x="9" y="-186.5" font-family="Helvetica,sans-Serif" font-size="10.00">+ w</text>
<polyline fill="none" stroke="black" points="1,-179.5 78,-179.5 "/>
<text text-anchor="start" x="9" y="-167.5" font-family="Helvetica,sans-Serif" font-size="10.00">+ quaternion()</text>
<text text-anchor="start" x="9" y="-156.5" font-family="Helvetica,sans-Serif" font-size="10.00">+ quaternion()</text>
<text text-anchor="start" x="9" y="-145.5" font-family="Helvetica,sans-Serif" font-size="10.00">+ to_json()</text>
<text text-anchor="start" x="9" y="-134.5" font-family="Helvetica,sans-Serif" font-size="10.00">+ from_json()</text>
</a>
</g>
</g>
<!-- Node2&#45;&gt;Node1 -->
<g id="edge1" class="edge"><title>Node2&#45;&gt;Node1</title>
<path fill="none" stroke="#404040" d="M61.9023,-127.345C69.6919,-111.991 78.4236,-94.781 86.2046,-79.4447"/>
<polygon fill="none" stroke="#404040" points="86.2457,-79.3635 85.3933,-72.2029 91.6752,-68.662 92.5276,-75.8225 86.2457,-79.3635"/>
<text text-anchor="middle" x="96" y="-101" font-family="Helvetica,sans-Serif" font-size="10.00"> +q</text>
<text text-anchor="middle" x="96" y="-90" font-family="Helvetica,sans-Serif" font-size="10.00">+align</text>
</g>
<!-- Node3 -->
<g id="node3" class="node"><title>Node3</title>
<g id="a_node3"><a xlink:href="classcvector.html" target="_top" xlink:title="3 element cartesian vector ">
<polygon fill="white" stroke="black" points="0,-265.5 0,-443.5 79,-443.5 79,-265.5 0,-265.5"/>
<text text-anchor="middle" x="39.5" y="-431.5" font-family="Helvetica,sans-Serif" font-size="10.00">cvector</text>
<polyline fill="none" stroke="black" points="0,-424.5 79,-424.5 "/>
<text text-anchor="start" x="8" y="-412.5" font-family="Helvetica,sans-Serif" font-size="10.00">+ x</text>
<text text-anchor="start" x="8" y="-401.5" font-family="Helvetica,sans-Serif" font-size="10.00">+ y</text>
<text text-anchor="start" x="8" y="-390.5" font-family="Helvetica,sans-Serif" font-size="10.00">+ z</text>
<polyline fill="none" stroke="black" points="0,-383.5 79,-383.5 "/>
<text text-anchor="start" x="8" y="-371.5" font-family="Helvetica,sans-Serif" font-size="10.00">+ cvector()</text>
<text text-anchor="start" x="8" y="-360.5" font-family="Helvetica,sans-Serif" font-size="10.00">+ cvector()</text>
<text text-anchor="start" x="8" y="-349.5" font-family="Helvetica,sans-Serif" font-size="10.00">+ normalize()</text>
<text text-anchor="start" x="8" y="-338.5" font-family="Helvetica,sans-Serif" font-size="10.00">+ length()</text>
<text text-anchor="start" x="8" y="-327.5" font-family="Helvetica,sans-Serif" font-size="10.00">+ norm()</text>
<text text-anchor="start" x="8" y="-316.5" font-family="Helvetica,sans-Serif" font-size="10.00">+ norm2()</text>
<text text-anchor="start" x="8" y="-305.5" font-family="Helvetica,sans-Serif" font-size="10.00">+ normalized()</text>
<text text-anchor="start" x="8" y="-294.5" font-family="Helvetica,sans-Serif" font-size="10.00">+ operator[]()</text>
<text text-anchor="start" x="8" y="-283.5" font-family="Helvetica,sans-Serif" font-size="10.00">+ to_json()</text>
<text text-anchor="start" x="8" y="-272.5" font-family="Helvetica,sans-Serif" font-size="10.00">+ from_json()</text>
</a>
</g>
</g>
<!-- Node3&#45;&gt;Node2 -->
<g id="edge2" class="edge"><title>Node3&#45;&gt;Node2</title>
<path fill="none" stroke="#404040" d="M39.5,-265.346C39.5,-253.308 39.5,-241.226 39.5,-229.962"/>
<polygon fill="none" stroke="#404040" points="39.5001,-229.638 35.5,-223.638 39.5,-217.638 43.5,-223.638 39.5001,-229.638"/>
<text text-anchor="middle" x="47" y="-239" font-family="Helvetica,sans-Serif" font-size="10.00"> +d</text>
</g>
<!-- Node4 -->
<g id="node4" class="node"><title>Node4</title>
<g id="a_node4"><a xlink:href="structrvector.html" target="_top" xlink:title="3 element generic row vector ">
<polygon fill="white" stroke="black" points="96.5,-127.5 96.5,-217.5 170.5,-217.5 170.5,-127.5 96.5,-127.5"/>
<text text-anchor="middle" x="133.5" y="-205.5" font-family="Helvetica,sans-Serif" font-size="10.00">rvector</text>
<polyline fill="none" stroke="black" points="96.5,-198.5 170.5,-198.5 "/>
<text text-anchor="start" x="104.5" y="-186.5" font-family="Helvetica,sans-Serif" font-size="10.00">+ col</text>
<polyline fill="none" stroke="black" points="96.5,-179.5 170.5,-179.5 "/>
<text text-anchor="start" x="104.5" y="-167.5" font-family="Helvetica,sans-Serif" font-size="10.00">+ rvector()</text>
<text text-anchor="start" x="104.5" y="-156.5" font-family="Helvetica,sans-Serif" font-size="10.00">+ rvector()</text>
<text text-anchor="start" x="104.5" y="-145.5" font-family="Helvetica,sans-Serif" font-size="10.00">+ to_json()</text>
<text text-anchor="start" x="104.5" y="-134.5" font-family="Helvetica,sans-Serif" font-size="10.00">+ from_json()</text>
</a>
</g>
</g>
<!-- Node4&#45;&gt;Node1 -->
<g id="edge3" class="edge"><title>Node4&#45;&gt;Node1</title>
<path fill="none" stroke="#404040" d="M125.383,-127.345C122.643,-112.438 119.581,-95.7819 116.825,-80.7894"/>
<polygon fill="none" stroke="#404040" points="116.766,-80.4642 111.747,-75.2863 114.596,-68.662 119.615,-73.8399 116.766,-80.4642"/>
<text text-anchor="middle" x="130" y="-101" font-family="Helvetica,sans-Serif" font-size="10.00"> +o</text>
<text text-anchor="middle" x="130" y="-90" font-family="Helvetica,sans-Serif" font-size="10.00">+a</text>
</g>
</g>
</svg>
        <g id="navigator" transform="translate(0 0)" fill="#404254">
                <rect fill="#f2f5e9" fill-opacity="0.5" stroke="#606060" stroke-width=".5" x="0" y="0" width="60" height="60"/>
                <use id="zoomplus" xlink:href="#zoomPlus" x="17" y="9" onmousedown="handleZoom(evt,'in')"/>
                <use id="zoomminus" xlink:href="#zoomMin" x="42" y="9" onmousedown="handleZoom(evt,'out')"/>
                <use id="reset" xlink:href="#resetDef" x="30" y="36" onmousedown="handleReset()"/>
                <g id="arrowUp" xlink:href="#dirArrow" transform="translate(30 24)" onmousedown="handlePan(0,-1)">
                  <use xlink:href="#rim" fill="#404040">
                        <set attributeName="fill" to="#808080" begin="arrowUp.mouseover" end="arrowUp.mouseout"/>
                  </use>
                  <path fill="none" stroke="white" stroke-width="1.5" d="M0,-3.0v7 M-2.5,-0.5L0,-3.0L2.5,-0.5"/>
                </g>
                <g id="arrowRight" xlink:href="#dirArrow" transform="rotate(90) translate(36 -43)" onmousedown="handlePan(1,0)">
                  <use xlink:href="#rim" fill="#404040">
                        <set attributeName="fill" to="#808080" begin="arrowRight.mouseover" end="arrowRight.mouseout"/>
                  </use>
                  <path fill="none" stroke="white" stroke-width="1.5" d="M0,-3.0v7 M-2.5,-0.5L0,-3.0L2.5,-0.5"/>
                </g>
                <g id="arrowDown" xlink:href="#dirArrow" transform="rotate(180) translate(-30 -48)" onmousedown="handlePan(0,1)">
                  <use xlink:href="#rim" fill="#404040">
                        <set attributeName="fill" to="#808080" begin="arrowDown.mouseover" end="arrowDown.mouseout"/>
                  </use>
                  <path fill="none" stroke="white" stroke-width="1.5" d="M0,-3.0v7 M-2.5,-0.5L0,-3.0L2.5,-0.5"/>
                </g>
                <g id="arrowLeft" xlink:href="#dirArrow" transform="rotate(270) translate(-36 17)" onmousedown="handlePan(-1,0)">
                  <use xlink:href="#rim" fill="#404040">
                        <set attributeName="fill" to="#808080" begin="arrowLeft.mouseover" end="arrowLeft.mouseout"/>
                  </use>
                  <path fill="none" stroke="white" stroke-width="1.5" d="M0,-3.0v7 M-2.5,-0.5L0,-3.0L2.5,-0.5"/>
                </g>
        </g>
        <svg viewBox="0 0 15 15" width="100%" height="30px" preserveAspectRatio="xMaxYMin meet">
         <g id="arrow_out" transform="scale(0.3 0.3)">
          <a xlink:href="structmccstruc__coll__graph_org.svg" target="_base">
           <rect id="button" ry="5" rx="5" y="6" x="6" height="38" width="38"
                fill="#f2f5e9" fill-opacity="0.5" stroke="#606060" stroke-width="1.0"/>
           <path id="arrow"
             d="M 11.500037,31.436501 C 11.940474,20.09759 22.043105,11.32322 32.158766,21.979434 L 37.068811,17.246167 C 37.068811,17.246167 37.088388,32 37.088388,32 L 22.160133,31.978069 C 22.160133,31.978069 26.997745,27.140456 26.997745,27.140456 C 18.528582,18.264221 13.291696,25.230495 11.500037,31.436501 z"
             style="fill:#404040;"/>
          </a>
         </g>
        </svg>
</svg>
