<?xml version="1.0" encoding="UTF-8" standalone="no"?>
<!DOCTYPE svg PUBLIC "-//W3C//DTD SVG 1.1//EN"
 "http://www.w3.org/Graphics/SVG/1.1/DTD/svg11.dtd">
<!-- Generated by graphviz version 2.38.0 (20140413.2041)
 -->
<!-- Title: estimatorhandle Pages: 1 -->
<svg width="132pt" height="215pt"
 viewBox="0.00 0.00 132.00 215.00" xmlns="http://www.w3.org/2000/svg" xmlns:xlink="http://www.w3.org/1999/xlink">
<g id="graph0" class="graph" transform="scale(1 1) rotate(0) translate(4 211)">
<title>estimatorhandle</title>
<polygon fill="white" stroke="none" points="-4,4 -4,-211 128,-211 128,4 -4,4"/>
<!-- Node1 -->
<g id="node1" class="node"><title>Node1</title>
<polygon fill="#bfbfbf" stroke="black" points="19,-0.5 19,-101.5 105,-101.5 105,-0.5 19,-0.5"/>
<text text-anchor="middle" x="62" y="-89.5" font-family="Helvetica,sans-Serif" font-size="10.00">estimatorhandle</text>
<polyline fill="none" stroke="black" points="19,-82.5 105,-82.5 "/>
<text text-anchor="start" x="27" y="-70.5" font-family="Helvetica,sans-Serif" font-size="10.00">+ index</text>
<text text-anchor="start" x="27" y="-59.5" font-family="Helvetica,sans-Serif" font-size="10.00">+ size</text>
<text text-anchor="start" x="27" y="-48.5" font-family="Helvetica,sans-Serif" font-size="10.00">+ degree</text>
<text text-anchor="start" x="27" y="-37.5" font-family="Helvetica,sans-Serif" font-size="10.00">+ xbase</text>
<text text-anchor="start" x="27" y="-26.5" font-family="Helvetica,sans-Serif" font-size="10.00">+ ybase</text>
<polyline fill="none" stroke="black" points="19,-19.5 105,-19.5 "/>
<text text-anchor="middle" x="62" y="-7.5" font-family="Helvetica,sans-Serif" font-size="10.00"> </text>
</g>
<!-- Node2 -->
<g id="node2" class="node"><title>Node2</title>
<polygon fill="white" stroke="#bfbfbf" points="-7.10543e-15,-149.5 -7.10543e-15,-206.5 124,-206.5 124,-149.5 -7.10543e-15,-149.5"/>
<text text-anchor="middle" x="62" y="-194.5" font-family="Helvetica,sans-Serif" font-size="10.00">vector&lt; estimatorstruc &gt;</text>
<polyline fill="none" stroke="#bfbfbf" points="-7.10543e-15,-187.5 124,-187.5 "/>
<text text-anchor="middle" x="62" y="-175.5" font-family="Helvetica,sans-Serif" font-size="10.00"> </text>
<polyline fill="none" stroke="#bfbfbf" points="-7.10543e-15,-168.5 124,-168.5 "/>
<text text-anchor="middle" x="62" y="-156.5" font-family="Helvetica,sans-Serif" font-size="10.00"> </text>
</g>
<!-- Node2&#45;&gt;Node1 -->
<g id="edge1" class="edge"><title>Node2&#45;&gt;Node1</title>
<path fill="none" stroke="#404040" d="M62,-149.258C62,-138.793 62,-126.422 62,-114.072"/>
<polygon fill="none" stroke="#404040" points="62.0001,-113.802 58,-107.802 62,-101.802 66,-107.802 62.0001,-113.802"/>
<text text-anchor="middle" x="68.5" y="-123" font-family="Helvetica,sans-Serif" font-size="10.00"> +r</text>
</g>
</g>
</svg>
