<?xml version="1.0" encoding="UTF-8" standalone="no"?>
<!DOCTYPE svg PUBLIC "-//W3C//DTD SVG 1.1//EN"
 "http://www.w3.org/Graphics/SVG/1.1/DTD/svg11.dtd">
<!-- Generated by graphviz version 2.38.0 (20140413.2041)
 -->
<!-- Title: inflate_state Pages: 1 -->
<svg width="151pt" height="446pt"
 viewBox="0.00 0.00 150.50 446.00" xmlns="http://www.w3.org/2000/svg" xmlns:xlink="http://www.w3.org/1999/xlink">
<g id="graph0" class="graph" transform="scale(1 1) rotate(0) translate(4 442)">
<title>inflate_state</title>
<polygon fill="white" stroke="none" points="-4,4 -4,-442 146.5,-442 146.5,4 -4,4"/>
<!-- Node1 -->
<g id="node1" class="node"><title>Node1</title>
<polygon fill="#bfbfbf" stroke="black" points="36.5,-0.5 36.5,-167.5 116.5,-167.5 116.5,-0.5 36.5,-0.5"/>
<text text-anchor="middle" x="76.5" y="-155.5" font-family="Helvetica,sans-Serif" font-size="10.00">inflate_state</text>
<polyline fill="none" stroke="black" points="36.5,-148.5 116.5,-148.5 "/>
<text text-anchor="start" x="44.5" y="-136.5" font-family="Helvetica,sans-Serif" font-size="10.00">+ mode</text>
<text text-anchor="start" x="44.5" y="-125.5" font-family="Helvetica,sans-Serif" font-size="10.00">+ last</text>
<text text-anchor="start" x="44.5" y="-114.5" font-family="Helvetica,sans-Serif" font-size="10.00">+ wrap</text>
<text text-anchor="start" x="44.5" y="-103.5" font-family="Helvetica,sans-Serif" font-size="10.00">+ havedict</text>
<text text-anchor="start" x="44.5" y="-92.5" font-family="Helvetica,sans-Serif" font-size="10.00">+ flags</text>
<text text-anchor="start" x="44.5" y="-81.5" font-family="Helvetica,sans-Serif" font-size="10.00">+ dmax</text>
<text text-anchor="start" x="44.5" y="-70.5" font-family="Helvetica,sans-Serif" font-size="10.00">+ check</text>
<text text-anchor="start" x="44.5" y="-59.5" font-family="Helvetica,sans-Serif" font-size="10.00">+ total</text>
<text text-anchor="start" x="44.5" y="-48.5" font-family="Helvetica,sans-Serif" font-size="10.00">+ wbits</text>
<text text-anchor="start" x="44.5" y="-37.5" font-family="Helvetica,sans-Serif" font-size="10.00">+ wsize</text>
<text text-anchor="start" x="44.5" y="-26.5" font-family="Helvetica,sans-Serif" font-size="10.00">and 19 more...</text>
<polyline fill="none" stroke="black" points="36.5,-19.5 116.5,-19.5 "/>
<text text-anchor="middle" x="76.5" y="-7.5" font-family="Helvetica,sans-Serif" font-size="10.00"> </text>
</g>
<!-- Node2 -->
<g id="node2" class="node"><title>Node2</title>
<g id="a_node2"><a xlink:href="structgz__header__s.html" target="_top" xlink:title="{gz_header_s\n|+ text\l+ time\l+ xflags\l+ os\l+ extra\l+ extra_len\l+ extra_max\l+ name\l+ name_max\l+ comment\l+ comm_max\l+ hcrc\l+ done\l|}">
<polygon fill="white" stroke="black" points="0,-248.5 0,-437.5 77,-437.5 77,-248.5 0,-248.5"/>
<text text-anchor="middle" x="38.5" y="-425.5" font-family="Helvetica,sans-Serif" font-size="10.00">gz_header_s</text>
<polyline fill="none" stroke="black" points="0,-418.5 77,-418.5 "/>
<text text-anchor="start" x="8" y="-406.5" font-family="Helvetica,sans-Serif" font-size="10.00">+ text</text>
<text text-anchor="start" x="8" y="-395.5" font-family="Helvetica,sans-Serif" font-size="10.00">+ time</text>
<text text-anchor="start" x="8" y="-384.5" font-family="Helvetica,sans-Serif" font-size="10.00">+ xflags</text>
<text text-anchor="start" x="8" y="-373.5" font-family="Helvetica,sans-Serif" font-size="10.00">+ os</text>
<text text-anchor="start" x="8" y="-362.5" font-family="Helvetica,sans-Serif" font-size="10.00">+ extra</text>
<text text-anchor="start" x="8" y="-351.5" font-family="Helvetica,sans-Serif" font-size="10.00">+ extra_len</text>
<text text-anchor="start" x="8" y="-340.5" font-family="Helvetica,sans-Serif" font-size="10.00">+ extra_max</text>
<text text-anchor="start" x="8" y="-329.5" font-family="Helvetica,sans-Serif" font-size="10.00">+ name</text>
<text text-anchor="start" x="8" y="-318.5" font-family="Helvetica,sans-Serif" font-size="10.00">+ name_max</text>
<text text-anchor="start" x="8" y="-307.5" font-family="Helvetica,sans-Serif" font-size="10.00">+ comment</text>
<text text-anchor="start" x="8" y="-296.5" font-family="Helvetica,sans-Serif" font-size="10.00">+ comm_max</text>
<text text-anchor="start" x="8" y="-285.5" font-family="Helvetica,sans-Serif" font-size="10.00">+ hcrc</text>
<text text-anchor="start" x="8" y="-274.5" font-family="Helvetica,sans-Serif" font-size="10.00">+ done</text>
<polyline fill="none" stroke="black" points="0,-267.5 77,-267.5 "/>
<text text-anchor="middle" x="38.5" y="-255.5" font-family="Helvetica,sans-Serif" font-size="10.00"> </text>
</a>
</g>
</g>
<!-- Node2&#45;&gt;Node1 -->
<g id="edge1" class="edge"><title>Node2&#45;&gt;Node1</title>
<path fill="none" stroke="#404040" d="M52.3264,-248.49C55.6362,-226.105 59.1727,-202.187 62.4907,-179.747"/>
<polygon fill="none" stroke="#404040" points="62.5006,-179.68 59.4213,-173.159 64.2559,-167.809 67.3352,-174.329 62.5006,-179.68"/>
<text text-anchor="middle" x="77" y="-205.5" font-family="Helvetica,sans-Serif" font-size="10.00"> +head</text>
</g>
<!-- Node3 -->
<g id="node3" class="node"><title>Node3</title>
<g id="a_node3"><a xlink:href="structcode.html" target="_top" xlink:title="{code\n|+ op\l+ bits\l+ val\l|}">
<polygon fill="white" stroke="black" points="95,-303.5 95,-382.5 136,-382.5 136,-303.5 95,-303.5"/>
<text text-anchor="middle" x="115.5" y="-370.5" font-family="Helvetica,sans-Serif" font-size="10.00">code</text>
<polyline fill="none" stroke="black" points="95,-363.5 136,-363.5 "/>
<text text-anchor="start" x="103" y="-351.5" font-family="Helvetica,sans-Serif" font-size="10.00">+ op</text>
<text text-anchor="start" x="103" y="-340.5" font-family="Helvetica,sans-Serif" font-size="10.00">+ bits</text>
<text text-anchor="start" x="103" y="-329.5" font-family="Helvetica,sans-Serif" font-size="10.00">+ val</text>
<polyline fill="none" stroke="black" points="95,-322.5 136,-322.5 "/>
<text text-anchor="middle" x="115.5" y="-310.5" font-family="Helvetica,sans-Serif" font-size="10.00"> </text>
</a>
</g>
</g>
<!-- Node3&#45;&gt;Node1 -->
<g id="edge2" class="edge"><title>Node3&#45;&gt;Node1</title>
<path fill="none" stroke="#404040" d="M110.36,-303.492C106.073,-271.893 99.6864,-226.004 93.5,-186 93.1824,-183.946 92.8584,-181.869 92.5291,-179.776"/>
<polygon fill="none" stroke="#404040" points="92.4852,-179.5 87.5903,-174.205 90.5956,-167.65 95.4905,-172.945 92.4852,-179.5"/>
<text text-anchor="middle" x="121" y="-222" font-family="Helvetica,sans-Serif" font-size="10.00"> +lencode</text>
<text text-anchor="middle" x="121" y="-211" font-family="Helvetica,sans-Serif" font-size="10.00">+codes</text>
<text text-anchor="middle" x="121" y="-200" font-family="Helvetica,sans-Serif" font-size="10.00">+next</text>
<text text-anchor="middle" x="121" y="-189" font-family="Helvetica,sans-Serif" font-size="10.00">+distcode</text>
</g>
</g>
</svg>
