<?xml version="1.0" encoding="UTF-8" standalone="no"?>
<!DOCTYPE svg PUBLIC "-//W3C//DTD SVG 1.1//EN"
 "http://www.w3.org/Graphics/SVG/1.1/DTD/svg11.dtd">
<!-- Generated by graphviz version 2.38.0 (20140413.2041)
 -->
<!-- Title: gj_instance3d Pages: 1 -->
<svg width="130pt" height="314pt"
 viewBox="0.00 0.00 130.00 314.00" xmlns="http://www.w3.org/2000/svg" xmlns:xlink="http://www.w3.org/1999/xlink">
<g id="graph0" class="graph" transform="scale(1 1) rotate(0) translate(4 310)">
<title>gj_instance3d</title>
<polygon fill="white" stroke="none" points="-4,4 -4,-310 126,-310 126,4 -4,4"/>
<!-- Node1 -->
<g id="node1" class="node"><title>Node1</title>
<polygon fill="#bfbfbf" stroke="black" points="20.5,-0.5 20.5,-68.5 97.5,-68.5 97.5,-0.5 20.5,-0.5"/>
<text text-anchor="middle" x="59" y="-56.5" font-family="Helvetica,sans-Serif" font-size="10.00">gj_instance3d</text>
<polyline fill="none" stroke="black" points="20.5,-49.5 97.5,-49.5 "/>
<text text-anchor="start" x="28.5" y="-37.5" font-family="Helvetica,sans-Serif" font-size="10.00">+ vi</text>
<text text-anchor="start" x="28.5" y="-26.5" font-family="Helvetica,sans-Serif" font-size="10.00">+ calc_vd2</text>
<polyline fill="none" stroke="black" points="20.5,-19.5 97.5,-19.5 "/>
<text text-anchor="middle" x="59" y="-7.5" font-family="Helvetica,sans-Serif" font-size="10.00"> </text>
</g>
<!-- Node2 -->
<g id="node2" class="node"><title>Node2</title>
<g id="a_node2"><a xlink:href="structgj__step.html" target="_top" xlink:title="Gauss&#45;Jackson Integration Step. ">
<polygon fill="white" stroke="black" points="0,-149.5 0,-294.5 48,-294.5 48,-149.5 0,-149.5"/>
<text text-anchor="middle" x="24" y="-282.5" font-family="Helvetica,sans-Serif" font-size="10.00">gj_step</text>
<polyline fill="none" stroke="black" points="0,-275.5 48,-275.5 "/>
<text text-anchor="start" x="8" y="-263.5" font-family="Helvetica,sans-Serif" font-size="10.00">+ vd0</text>
<text text-anchor="start" x="8" y="-252.5" font-family="Helvetica,sans-Serif" font-size="10.00">+ vd1</text>
<text text-anchor="start" x="8" y="-241.5" font-family="Helvetica,sans-Serif" font-size="10.00">+ vd2</text>
<text text-anchor="start" x="8" y="-230.5" font-family="Helvetica,sans-Serif" font-size="10.00">+ a</text>
<text text-anchor="start" x="8" y="-219.5" font-family="Helvetica,sans-Serif" font-size="10.00">+ b</text>
<text text-anchor="start" x="8" y="-208.5" font-family="Helvetica,sans-Serif" font-size="10.00">+ s</text>
<text text-anchor="start" x="8" y="-197.5" font-family="Helvetica,sans-Serif" font-size="10.00">+ ss</text>
<text text-anchor="start" x="8" y="-186.5" font-family="Helvetica,sans-Serif" font-size="10.00">+ sa</text>
<text text-anchor="start" x="8" y="-175.5" font-family="Helvetica,sans-Serif" font-size="10.00">+ sb</text>
<polyline fill="none" stroke="black" points="0,-168.5 48,-168.5 "/>
<text text-anchor="middle" x="24" y="-156.5" font-family="Helvetica,sans-Serif" font-size="10.00"> </text>
</a>
</g>
</g>
<!-- Node2&#45;&gt;Node1 -->
<g id="edge1" class="edge"><title>Node2&#45;&gt;Node1</title>
<path fill="none" stroke="#404040" d="M27.7074,-149.412C29.776,-129.039 32.9945,-106.966 38,-87 38.5723,-84.7171 39.2261,-82.402 39.9405,-80.0816"/>
<polygon fill="none" stroke="#404040" points="40.0029,-79.9009 38.1823,-72.9234 43.9228,-68.5592 45.7434,-75.5367 40.0029,-79.9009"/>
<text text-anchor="middle" x="55" y="-112" font-family="Helvetica,sans-Serif" font-size="10.00"> +stepx</text>
<text text-anchor="middle" x="55" y="-101" font-family="Helvetica,sans-Serif" font-size="10.00">+stepy</text>
<text text-anchor="middle" x="55" y="-90" font-family="Helvetica,sans-Serif" font-size="10.00">+stepz</text>
</g>
<!-- Node3 -->
<g id="node3" class="node"><title>Node3</title>
<g id="a_node3"><a xlink:href="structgj__kernel.html" target="_top" xlink:title="pxnxm element cube ">
<polygon fill="white" stroke="black" points="66,-138.5 66,-305.5 122,-305.5 122,-138.5 66,-138.5"/>
<text text-anchor="middle" x="94" y="-293.5" font-family="Helvetica,sans-Serif" font-size="10.00">gj_kernel</text>
<polyline fill="none" stroke="black" points="66,-286.5 122,-286.5 "/>
<text text-anchor="start" x="74" y="-274.5" font-family="Helvetica,sans-Serif" font-size="10.00">+ order</text>
<text text-anchor="start" x="74" y="-263.5" font-family="Helvetica,sans-Serif" font-size="10.00">+ horder</text>
<text text-anchor="start" x="74" y="-252.5" font-family="Helvetica,sans-Serif" font-size="10.00">+ dvi</text>
<text text-anchor="start" x="74" y="-241.5" font-family="Helvetica,sans-Serif" font-size="10.00">+ dvi2</text>
<text text-anchor="start" x="74" y="-230.5" font-family="Helvetica,sans-Serif" font-size="10.00">+ binom</text>
<text text-anchor="start" x="74" y="-219.5" font-family="Helvetica,sans-Serif" font-size="10.00">+ alpha</text>
<text text-anchor="start" x="74" y="-208.5" font-family="Helvetica,sans-Serif" font-size="10.00">+ beta</text>
<text text-anchor="start" x="74" y="-197.5" font-family="Helvetica,sans-Serif" font-size="10.00">+ c</text>
<text text-anchor="start" x="74" y="-186.5" font-family="Helvetica,sans-Serif" font-size="10.00">+ gam</text>
<text text-anchor="start" x="74" y="-175.5" font-family="Helvetica,sans-Serif" font-size="10.00">+ q</text>
<text text-anchor="start" x="74" y="-164.5" font-family="Helvetica,sans-Serif" font-size="10.00">+ lam</text>
<polyline fill="none" stroke="black" points="66,-157.5 122,-157.5 "/>
<text text-anchor="middle" x="94" y="-145.5" font-family="Helvetica,sans-Serif" font-size="10.00"> </text>
</a>
</g>
</g>
<!-- Node3&#45;&gt;Node1 -->
<g id="edge2" class="edge"><title>Node3&#45;&gt;Node1</title>
<path fill="none" stroke="#404040" d="M81.5366,-138.236C78.6621,-121.241 75.4313,-103.503 72,-87 71.5548,-84.8586 71.0804,-82.6719 70.5862,-80.4667"/>
<polygon fill="none" stroke="#404040" points="70.5542,-80.33 65.2864,-75.4055 67.806,-68.6489 73.0738,-73.5734 70.5542,-80.33"/>
<text text-anchor="middle" x="92" y="-101" font-family="Helvetica,sans-Serif" font-size="10.00"> +kern</text>
</g>
</g>
</svg>
