<?xml version="1.0" encoding="UTF-8" standalone="no"?>
<!DOCTYPE svg PUBLIC "-//W3C//DTD SVG 1.1//EN"
 "http://www.w3.org/Graphics/SVG/1.1/DTD/svg11.dtd">
<!-- Generated by graphviz version 2.38.0 (20140413.2041)
 -->
<!-- Title: transmit_queue_entry Pages: 1 -->
<svg width="202pt" height="193pt"
 viewBox="0.00 0.00 201.50 193.00" xmlns="http://www.w3.org/2000/svg" xmlns:xlink="http://www.w3.org/1999/xlink">
<g id="graph0" class="graph" transform="scale(1 1) rotate(0) translate(4 189)">
<title>transmit_queue_entry</title>
<polygon fill="white" stroke="none" points="-4,4 -4,-189 197.5,-189 197.5,4 -4,4"/>
<!-- Node1 -->
<g id="node1" class="node"><title>Node1</title>
<polygon fill="#bfbfbf" stroke="black" points="18.5,-0.5 18.5,-79.5 128.5,-79.5 128.5,-0.5 18.5,-0.5"/>
<text text-anchor="middle" x="73.5" y="-67.5" font-family="Helvetica,sans-Serif" font-size="10.00">transmit_queue_entry</text>
<polyline fill="none" stroke="black" points="18.5,-60.5 128.5,-60.5 "/>
<text text-anchor="start" x="26.5" y="-48.5" font-family="Helvetica,sans-Serif" font-size="10.00">+ channel</text>
<text text-anchor="start" x="26.5" y="-37.5" font-family="Helvetica,sans-Serif" font-size="10.00">+ nmjd</text>
<text text-anchor="start" x="26.5" y="-26.5" font-family="Helvetica,sans-Serif" font-size="10.00">+ time_step</text>
<polyline fill="none" stroke="black" points="18.5,-19.5 128.5,-19.5 "/>
<text text-anchor="middle" x="73.5" y="-7.5" font-family="Helvetica,sans-Serif" font-size="10.00"> </text>
</g>
<!-- Node2 -->
<g id="node2" class="node"><title>Node2</title>
<polygon fill="white" stroke="#bfbfbf" points="0,-127.5 0,-184.5 41,-184.5 41,-127.5 0,-127.5"/>
<text text-anchor="middle" x="20.5" y="-172.5" font-family="Helvetica,sans-Serif" font-size="10.00">string</text>
<polyline fill="none" stroke="#bfbfbf" points="0,-165.5 41,-165.5 "/>
<text text-anchor="middle" x="20.5" y="-153.5" font-family="Helvetica,sans-Serif" font-size="10.00"> </text>
<polyline fill="none" stroke="#bfbfbf" points="0,-146.5 41,-146.5 "/>
<text text-anchor="middle" x="20.5" y="-134.5" font-family="Helvetica,sans-Serif" font-size="10.00"> </text>
</g>
<!-- Node2&#45;&gt;Node1 -->
<g id="edge1" class="edge"><title>Node2&#45;&gt;Node1</title>
<path fill="none" stroke="#404040" d="M33.3298,-127.404C38.4953,-116.293 44.615,-103.13 50.5003,-90.471"/>
<polygon fill="none" stroke="#404040" points="50.523,-90.4221 49.4254,-83.295 55.582,-79.5406 56.6797,-86.6676 50.523,-90.4221"/>
<text text-anchor="middle" x="61.5" y="-101" font-family="Helvetica,sans-Serif" font-size="10.00"> +type</text>
</g>
<!-- Node3 -->
<g id="node3" class="node"><title>Node3</title>
<polygon fill="white" stroke="#bfbfbf" points="59.5,-127.5 59.5,-184.5 193.5,-184.5 193.5,-127.5 59.5,-127.5"/>
<text text-anchor="middle" x="126.5" y="-172.5" font-family="Helvetica,sans-Serif" font-size="10.00">vector&lt; PACKET_BYTE &gt;</text>
<polyline fill="none" stroke="#bfbfbf" points="59.5,-165.5 193.5,-165.5 "/>
<text text-anchor="middle" x="126.5" y="-153.5" font-family="Helvetica,sans-Serif" font-size="10.00"> </text>
<polyline fill="none" stroke="#bfbfbf" points="59.5,-146.5 193.5,-146.5 "/>
<text text-anchor="middle" x="126.5" y="-134.5" font-family="Helvetica,sans-Serif" font-size="10.00"> </text>
</g>
<!-- Node3&#45;&gt;Node1 -->
<g id="edge2" class="edge"><title>Node3&#45;&gt;Node1</title>
<path fill="none" stroke="#404040" d="M113.67,-127.404C108.505,-116.293 102.385,-103.13 96.4997,-90.471"/>
<polygon fill="none" stroke="#404040" points="96.477,-90.4221 90.3203,-86.6676 91.418,-79.5406 97.5746,-83.295 96.477,-90.4221"/>
<text text-anchor="middle" x="125" y="-101" font-family="Helvetica,sans-Serif" font-size="10.00"> +packet</text>
</g>
</g>
</svg>
