<?xml version="1.0" encoding="UTF-8" standalone="no"?>
<!DOCTYPE svg PUBLIC "-//W3C//DTD SVG 1.1//EN"
 "http://www.w3.org/Graphics/SVG/1.1/DTD/svg11.dtd">
<!-- Generated by graphviz version 2.38.0 (20140413.2041)
 -->
<!-- Title: gige_handle Pages: 1 -->
<!--zoomable 402 -->
<svg id="main" version="1.1" xmlns="http://www.w3.org/2000/svg" xmlns:xlink="http://www.w3.org/1999/xlink" xml:space="preserve" onload="init(evt)">
<style type="text/css"><![CDATA[
.edge:hover path { stroke: red; }
.edge:hover polygon { stroke: red; fill: red; }
]]></style>
<script type="text/javascript"><![CDATA[
var edges = document.getElementsByTagName('g');
if (edges && edges.length) {
  for (var i=0;i<edges.length;i++) {
    if (edges[i].id.substr(0,4)=='edge') {
      edges[i].setAttribute('class','edge');
    }
  }
}
]]></script>
        <defs>
                <circle id="rim" cx="0" cy="0" r="7"/>
                <circle id="rim2" cx="0" cy="0" r="3.5"/>
                <g id="zoomPlus">
                        <use xlink:href="#rim" fill="#404040">
                                <set attributeName="fill" to="#808080" begin="zoomplus.mouseover" end="zoomplus.mouseout"/>
                        </use>
                        <path d="M-4,0h8M0,-4v8" fill="none" stroke="white" stroke-width="1.5" pointer-events="none"/>
                </g>
                <g id="zoomMin">
                        <use xlink:href="#rim" fill="#404040">
                                <set attributeName="fill" to="#808080" begin="zoomminus.mouseover" end="zoomminus.mouseout"/>
                        </use>
                        <path d="M-4,0h8" fill="none" stroke="white" stroke-width="1.5" pointer-events="none"/>
                </g>
                <g id="dirArrow">
                        <path fill="none" stroke="white" stroke-width="1.5" d="M0,-3.0v7 M-2.5,-0.5L0,-3.0L2.5,-0.5"/>
                </g>
               <g id="resetDef">
                       <use xlink:href="#rim2" fill="#404040">
                               <set attributeName="fill" to="#808080" begin="reset.mouseover" end="reset.mouseout"/>
                       </use>
               </g>
        </defs>

<script type="text/javascript">
var viewWidth = 588;
var viewHeight = 402;
var sectionId = 'dynsection-0';
</script>
<script xlink:href="svgpan.js"/>
<svg id="graph" class="graph">
<g id="viewport">
<title>gige_handle</title>
<polygon fill="white" stroke="none" points="-4,4 -4,-398 583.5,-398 583.5,4 -4,4"/>
<!-- Node1 -->
<g id="node1" class="node"><title>Node1</title>
<polygon fill="#bfbfbf" stroke="black" points="284.5,-0.5 284.5,-167.5 355.5,-167.5 355.5,-0.5 284.5,-0.5"/>
<text text-anchor="middle" x="320" y="-155.5" font-family="Helvetica,sans-Serif" font-size="10.00">gige_handle</text>
<polyline fill="none" stroke="black" points="284.5,-148.5 355.5,-148.5 "/>
<text text-anchor="start" x="292.5" y="-136.5" font-family="Helvetica,sans-Serif" font-size="10.00">+ cbyte</text>
<text text-anchor="start" x="292.5" y="-125.5" font-family="Helvetica,sans-Serif" font-size="10.00">+ cword</text>
<text text-anchor="start" x="292.5" y="-114.5" font-family="Helvetica,sans-Serif" font-size="10.00">+ @5</text>
<text text-anchor="start" x="292.5" y="-103.5" font-family="Helvetica,sans-Serif" font-size="10.00">+ sbuf</text>
<text text-anchor="start" x="292.5" y="-92.5" font-family="Helvetica,sans-Serif" font-size="10.00">+ req_id</text>
<text text-anchor="start" x="292.5" y="-81.5" font-family="Helvetica,sans-Serif" font-size="10.00">+ streambps</text>
<text text-anchor="start" x="292.5" y="-70.5" font-family="Helvetica,sans-Serif" font-size="10.00">+ bestsize</text>
<text text-anchor="start" x="292.5" y="-59.5" font-family="Helvetica,sans-Serif" font-size="10.00">+ maxwidth</text>
<text text-anchor="start" x="292.5" y="-48.5" font-family="Helvetica,sans-Serif" font-size="10.00">+ maxheight</text>
<text text-anchor="start" x="292.5" y="-37.5" font-family="Helvetica,sans-Serif" font-size="10.00">+ width</text>
<text text-anchor="start" x="292.5" y="-26.5" font-family="Helvetica,sans-Serif" font-size="10.00">+ height</text>
<polyline fill="none" stroke="black" points="284.5,-19.5 355.5,-19.5 "/>
<text text-anchor="middle" x="320" y="-7.5" font-family="Helvetica,sans-Serif" font-size="10.00"> </text>
</g>
<!-- Node2 -->
<g id="node2" class="node"><title>Node2</title>
<g id="a_node2"><a xlink:href="structgige__acknowledge__mem.html" target="_top" xlink:title="{gige_acknowledge_mem\n|+ status\l+ acknowledge\l+ length\l+ ack_id\l+ address\l+ data\l|}">
<polygon fill="white" stroke="black" points="0,-254 0,-366 124,-366 124,-254 0,-254"/>
<text text-anchor="middle" x="62" y="-354" font-family="Helvetica,sans-Serif" font-size="10.00">gige_acknowledge_mem</text>
<polyline fill="none" stroke="black" points="0,-347 124,-347 "/>
<text text-anchor="start" x="8" y="-335" font-family="Helvetica,sans-Serif" font-size="10.00">+ status</text>
<text text-anchor="start" x="8" y="-324" font-family="Helvetica,sans-Serif" font-size="10.00">+ acknowledge</text>
<text text-anchor="start" x="8" y="-313" font-family="Helvetica,sans-Serif" font-size="10.00">+ length</text>
<text text-anchor="start" x="8" y="-302" font-family="Helvetica,sans-Serif" font-size="10.00">+ ack_id</text>
<text text-anchor="start" x="8" y="-291" font-family="Helvetica,sans-Serif" font-size="10.00">+ address</text>
<text text-anchor="start" x="8" y="-280" font-family="Helvetica,sans-Serif" font-size="10.00">+ data</text>
<polyline fill="none" stroke="black" points="0,-273 124,-273 "/>
<text text-anchor="middle" x="62" y="-261" font-family="Helvetica,sans-Serif" font-size="10.00"> </text>
</a>
</g>
</g>
<!-- Node2&#45;&gt;Node1 -->
<g id="edge1" class="edge"><title>Node2&#45;&gt;Node1</title>
<path fill="none" stroke="#404040" d="M106.208,-253.873C114.746,-244.242 123.882,-234.573 133,-226 177.867,-183.814 235.104,-142.189 274.366,-115.228"/>
<polygon fill="none" stroke="#404040" points="274.524,-115.121 277.229,-108.436 284.44,-108.362 281.735,-115.047 274.524,-115.121"/>
<text text-anchor="middle" x="206" y="-194.5" font-family="Helvetica,sans-Serif" font-size="10.00"> +cack_mem</text>
</g>
<!-- Node3 -->
<g id="node3" class="node"><title>Node3</title>
<g id="a_node3"><a xlink:href="structgige__acknowledge__ack.html" target="_top" xlink:title="{gige_acknowledge_ack\n|+ status\l+ acknowledge\l+ length\l+ ack_id\l+ spec_major\l+ spec_minor\l+ device_mode\l+ res1\l+ mac_high\l+ mac_low\land 14 more...\l|}">
<polygon fill="white" stroke="black" points="142,-226.5 142,-393.5 260,-393.5 260,-226.5 142,-226.5"/>
<text text-anchor="middle" x="201" y="-381.5" font-family="Helvetica,sans-Serif" font-size="10.00">gige_acknowledge_ack</text>
<polyline fill="none" stroke="black" points="142,-374.5 260,-374.5 "/>
<text text-anchor="start" x="150" y="-362.5" font-family="Helvetica,sans-Serif" font-size="10.00">+ status</text>
<text text-anchor="start" x="150" y="-351.5" font-family="Helvetica,sans-Serif" font-size="10.00">+ acknowledge</text>
<text text-anchor="start" x="150" y="-340.5" font-family="Helvetica,sans-Serif" font-size="10.00">+ length</text>
<text text-anchor="start" x="150" y="-329.5" font-family="Helvetica,sans-Serif" font-size="10.00">+ ack_id</text>
<text text-anchor="start" x="150" y="-318.5" font-family="Helvetica,sans-Serif" font-size="10.00">+ spec_major</text>
<text text-anchor="start" x="150" y="-307.5" font-family="Helvetica,sans-Serif" font-size="10.00">+ spec_minor</text>
<text text-anchor="start" x="150" y="-296.5" font-family="Helvetica,sans-Serif" font-size="10.00">+ device_mode</text>
<text text-anchor="start" x="150" y="-285.5" font-family="Helvetica,sans-Serif" font-size="10.00">+ res1</text>
<text text-anchor="start" x="150" y="-274.5" font-family="Helvetica,sans-Serif" font-size="10.00">+ mac_high</text>
<text text-anchor="start" x="150" y="-263.5" font-family="Helvetica,sans-Serif" font-size="10.00">+ mac_low</text>
<text text-anchor="start" x="150" y="-252.5" font-family="Helvetica,sans-Serif" font-size="10.00">and 14 more...</text>
<polyline fill="none" stroke="black" points="142,-245.5 260,-245.5 "/>
<text text-anchor="middle" x="201" y="-233.5" font-family="Helvetica,sans-Serif" font-size="10.00"> </text>
</a>
</g>
</g>
<!-- Node3&#45;&gt;Node1 -->
<g id="edge2" class="edge"><title>Node3&#45;&gt;Node1</title>
<path fill="none" stroke="#404040" d="M242.818,-226.433C249.816,-212.884 257.058,-199.02 264,-186 268.678,-177.226 273.645,-168.061 278.614,-158.985"/>
<polygon fill="none" stroke="#404040" points="278.65,-158.918 278.035,-151.734 284.43,-148.402 285.046,-155.587 278.65,-158.918"/>
<text text-anchor="middle" x="290" y="-194.5" font-family="Helvetica,sans-Serif" font-size="10.00"> +cack_ack</text>
</g>
<!-- Node4 -->
<g id="node4" class="node"><title>Node4</title>
<g id="a_node4"><a xlink:href="structgige__command.html" target="_top" xlink:title="{gige_command\n|+ flag\l+ command\l+ length\l+ req_id\l+ address\l+ data\l|}">
<polygon fill="white" stroke="black" points="278.5,-254 278.5,-366 361.5,-366 361.5,-254 278.5,-254"/>
<text text-anchor="middle" x="320" y="-354" font-family="Helvetica,sans-Serif" font-size="10.00">gige_command</text>
<polyline fill="none" stroke="black" points="278.5,-347 361.5,-347 "/>
<text text-anchor="start" x="286.5" y="-335" font-family="Helvetica,sans-Serif" font-size="10.00">+ flag</text>
<text text-anchor="start" x="286.5" y="-324" font-family="Helvetica,sans-Serif" font-size="10.00">+ command</text>
<text text-anchor="start" x="286.5" y="-313" font-family="Helvetica,sans-Serif" font-size="10.00">+ length</text>
<text text-anchor="start" x="286.5" y="-302" font-family="Helvetica,sans-Serif" font-size="10.00">+ req_id</text>
<text text-anchor="start" x="286.5" y="-291" font-family="Helvetica,sans-Serif" font-size="10.00">+ address</text>
<text text-anchor="start" x="286.5" y="-280" font-family="Helvetica,sans-Serif" font-size="10.00">+ data</text>
<polyline fill="none" stroke="black" points="278.5,-273 361.5,-273 "/>
<text text-anchor="middle" x="320" y="-261" font-family="Helvetica,sans-Serif" font-size="10.00"> </text>
</a>
</g>
</g>
<!-- Node4&#45;&gt;Node1 -->
<g id="edge3" class="edge"><title>Node4&#45;&gt;Node1</title>
<path fill="none" stroke="#404040" d="M320,-253.917C320,-231.652 320,-205.3 320,-180.115"/>
<polygon fill="none" stroke="#404040" points="320,-179.867 316,-173.867 320,-167.867 324,-173.867 320,-179.867"/>
<text text-anchor="middle" x="334" y="-194.5" font-family="Helvetica,sans-Serif" font-size="10.00"> +creg</text>
</g>
<!-- Node5 -->
<g id="node5" class="node"><title>Node5</title>
<g id="a_node5"><a xlink:href="structsocket__channel.html" target="_top" xlink:title="{socket_channel\n|+ type\l+ cudp\l+ caddr\l+ baddr\l+ caddr6\l+ addrlen\l+ cport\l+ msgsize\l+ address\l+ baddress\l+ name\l|}">
<polygon fill="white" stroke="black" points="379.5,-226.5 379.5,-393.5 464.5,-393.5 464.5,-226.5 379.5,-226.5"/>
<text text-anchor="middle" x="422" y="-381.5" font-family="Helvetica,sans-Serif" font-size="10.00">socket_channel</text>
<polyline fill="none" stroke="black" points="379.5,-374.5 464.5,-374.5 "/>
<text text-anchor="start" x="387.5" y="-362.5" font-family="Helvetica,sans-Serif" font-size="10.00">+ type</text>
<text text-anchor="start" x="387.5" y="-351.5" font-family="Helvetica,sans-Serif" font-size="10.00">+ cudp</text>
<text text-anchor="start" x="387.5" y="-340.5" font-family="Helvetica,sans-Serif" font-size="10.00">+ caddr</text>
<text text-anchor="start" x="387.5" y="-329.5" font-family="Helvetica,sans-Serif" font-size="10.00">+ baddr</text>
<text text-anchor="start" x="387.5" y="-318.5" font-family="Helvetica,sans-Serif" font-size="10.00">+ caddr6</text>
<text text-anchor="start" x="387.5" y="-307.5" font-family="Helvetica,sans-Serif" font-size="10.00">+ addrlen</text>
<text text-anchor="start" x="387.5" y="-296.5" font-family="Helvetica,sans-Serif" font-size="10.00">+ cport</text>
<text text-anchor="start" x="387.5" y="-285.5" font-family="Helvetica,sans-Serif" font-size="10.00">+ msgsize</text>
<text text-anchor="start" x="387.5" y="-274.5" font-family="Helvetica,sans-Serif" font-size="10.00">+ address</text>
<text text-anchor="start" x="387.5" y="-263.5" font-family="Helvetica,sans-Serif" font-size="10.00">+ baddress</text>
<text text-anchor="start" x="387.5" y="-252.5" font-family="Helvetica,sans-Serif" font-size="10.00">+ name</text>
<polyline fill="none" stroke="black" points="379.5,-245.5 464.5,-245.5 "/>
<text text-anchor="middle" x="422" y="-233.5" font-family="Helvetica,sans-Serif" font-size="10.00"> </text>
</a>
</g>
</g>
<!-- Node5&#45;&gt;Node1 -->
<g id="edge4" class="edge"><title>Node5&#45;&gt;Node1</title>
<path fill="none" stroke="#404040" d="M384.309,-226.227C376.581,-209.256 368.415,-191.323 360.59,-174.139"/>
<polygon fill="none" stroke="#404040" points="360.479,-173.894 354.352,-170.092 355.506,-162.973 361.633,-166.776 360.479,-173.894"/>
<text text-anchor="middle" x="401" y="-200" font-family="Helvetica,sans-Serif" font-size="10.00"> +command</text>
<text text-anchor="middle" x="401" y="-189" font-family="Helvetica,sans-Serif" font-size="10.00">+stream</text>
</g>
<!-- Node6 -->
<g id="node6" class="node"><title>Node6</title>
<g id="a_node6"><a xlink:href="structgige__acknowledge.html" target="_top" xlink:title="{gige_acknowledge\n|+ status\l+ acknowledge\l+ length\l+ ack_id\l+ data\l|}">
<polygon fill="white" stroke="black" points="482.5,-259.5 482.5,-360.5 579.5,-360.5 579.5,-259.5 482.5,-259.5"/>
<text text-anchor="middle" x="531" y="-348.5" font-family="Helvetica,sans-Serif" font-size="10.00">gige_acknowledge</text>
<polyline fill="none" stroke="black" points="482.5,-341.5 579.5,-341.5 "/>
<text text-anchor="start" x="490.5" y="-329.5" font-family="Helvetica,sans-Serif" font-size="10.00">+ status</text>
<text text-anchor="start" x="490.5" y="-318.5" font-family="Helvetica,sans-Serif" font-size="10.00">+ acknowledge</text>
<text text-anchor="start" x="490.5" y="-307.5" font-family="Helvetica,sans-Serif" font-size="10.00">+ length</text>
<text text-anchor="start" x="490.5" y="-296.5" font-family="Helvetica,sans-Serif" font-size="10.00">+ ack_id</text>
<text text-anchor="start" x="490.5" y="-285.5" font-family="Helvetica,sans-Serif" font-size="10.00">+ data</text>
<polyline fill="none" stroke="black" points="482.5,-278.5 579.5,-278.5 "/>
<text text-anchor="middle" x="531" y="-266.5" font-family="Helvetica,sans-Serif" font-size="10.00"> </text>
</a>
</g>
</g>
<!-- Node6&#45;&gt;Node1 -->
<g id="edge5" class="edge"><title>Node6&#45;&gt;Node1</title>
<path fill="none" stroke="#404040" d="M498.524,-259.068C490.584,-247.866 481.822,-236.267 473,-226 439.932,-187.516 397.088,-148.813 365.153,-121.717"/>
<polygon fill="none" stroke="#404040" points="364.798,-121.419 357.631,-120.618 355.615,-113.694 362.781,-114.496 364.798,-121.419"/>
<text text-anchor="middle" x="470.5" y="-194.5" font-family="Helvetica,sans-Serif" font-size="10.00"> +cack</text>
</g>
</g>
</svg>
        <g id="navigator" transform="translate(0 0)" fill="#404254">
                <rect fill="#f2f5e9" fill-opacity="0.5" stroke="#606060" stroke-width=".5" x="0" y="0" width="60" height="60"/>
                <use id="zoomplus" xlink:href="#zoomPlus" x="17" y="9" onmousedown="handleZoom(evt,'in')"/>
                <use id="zoomminus" xlink:href="#zoomMin" x="42" y="9" onmousedown="handleZoom(evt,'out')"/>
                <use id="reset" xlink:href="#resetDef" x="30" y="36" onmousedown="handleReset()"/>
                <g id="arrowUp" xlink:href="#dirArrow" transform="translate(30 24)" onmousedown="handlePan(0,-1)">
                  <use xlink:href="#rim" fill="#404040">
                        <set attributeName="fill" to="#808080" begin="arrowUp.mouseover" end="arrowUp.mouseout"/>
                  </use>
                  <path fill="none" stroke="white" stroke-width="1.5" d="M0,-3.0v7 M-2.5,-0.5L0,-3.0L2.5,-0.5"/>
                </g>
                <g id="arrowRight" xlink:href="#dirArrow" transform="rotate(90) translate(36 -43)" onmousedown="handlePan(1,0)">
                  <use xlink:href="#rim" fill="#404040">
                        <set attributeName="fill" to="#808080" begin="arrowRight.mouseover" end="arrowRight.mouseout"/>
                  </use>
                  <path fill="none" stroke="white" stroke-width="1.5" d="M0,-3.0v7 M-2.5,-0.5L0,-3.0L2.5,-0.5"/>
                </g>
                <g id="arrowDown" xlink:href="#dirArrow" transform="rotate(180) translate(-30 -48)" onmousedown="handlePan(0,1)">
                  <use xlink:href="#rim" fill="#404040">
                        <set attributeName="fill" to="#808080" begin="arrowDown.mouseover" end="arrowDown.mouseout"/>
                  </use>
                  <path fill="none" stroke="white" stroke-width="1.5" d="M0,-3.0v7 M-2.5,-0.5L0,-3.0L2.5,-0.5"/>
                </g>
                <g id="arrowLeft" xlink:href="#dirArrow" transform="rotate(270) translate(-36 17)" onmousedown="handlePan(-1,0)">
                  <use xlink:href="#rim" fill="#404040">
                        <set attributeName="fill" to="#808080" begin="arrowLeft.mouseover" end="arrowLeft.mouseout"/>
                  </use>
                  <path fill="none" stroke="white" stroke-width="1.5" d="M0,-3.0v7 M-2.5,-0.5L0,-3.0L2.5,-0.5"/>
                </g>
        </g>
        <svg viewBox="0 0 15 15" width="100%" height="30px" preserveAspectRatio="xMaxYMin meet">
         <g id="arrow_out" transform="scale(0.3 0.3)">
          <a xlink:href="structgige__handle__coll__graph_org.svg" target="_base">
           <rect id="button" ry="5" rx="5" y="6" x="6" height="38" width="38"
                fill="#f2f5e9" fill-opacity="0.5" stroke="#606060" stroke-width="1.0"/>
           <path id="arrow"
             d="M 11.500037,31.436501 C 11.940474,20.09759 22.043105,11.32322 32.158766,21.979434 L 37.068811,17.246167 C 37.068811,17.246167 37.088388,32 37.088388,32 L 22.160133,31.978069 C 22.160133,31.978069 26.997745,27.140456 26.997745,27.140456 C 18.528582,18.264221 13.291696,25.230495 11.500037,31.436501 z"
             style="fill:#404040;"/>
          </a>
         </g>
        </svg>
</svg>
