<?xml version="1.0" encoding="UTF-8" standalone="no"?>
<!DOCTYPE svg PUBLIC "-//W3C//DTD SVG 1.1//EN"
 "http://www.w3.org/Graphics/SVG/1.1/DTD/svg11.dtd">
<!-- Generated by graphviz version 2.38.0 (20140413.2041)
 -->
<!-- Title: cdjpeg_progress_mgr Pages: 1 -->
<svg width="142pt" height="237pt"
 viewBox="0.00 0.00 142.00 237.00" xmlns="http://www.w3.org/2000/svg" xmlns:xlink="http://www.w3.org/1999/xlink">
<g id="graph0" class="graph" transform="scale(1 1) rotate(0) translate(4 233)">
<title>cdjpeg_progress_mgr</title>
<polygon fill="white" stroke="none" points="-4,4 -4,-233 138,-233 138,4 -4,4"/>
<!-- Node1 -->
<g id="node1" class="node"><title>Node1</title>
<polygon fill="#bfbfbf" stroke="black" points="0,-0.5 0,-79.5 134,-79.5 134,-0.5 0,-0.5"/>
<text text-anchor="middle" x="67" y="-67.5" font-family="Helvetica,sans-Serif" font-size="10.00">cdjpeg_progress_mgr</text>
<polyline fill="none" stroke="black" points="0,-60.5 134,-60.5 "/>
<text text-anchor="start" x="8" y="-48.5" font-family="Helvetica,sans-Serif" font-size="10.00">+ completed_extra_passes</text>
<text text-anchor="start" x="8" y="-37.5" font-family="Helvetica,sans-Serif" font-size="10.00">+ total_extra_passes</text>
<text text-anchor="start" x="8" y="-26.5" font-family="Helvetica,sans-Serif" font-size="10.00">+ percent_done</text>
<polyline fill="none" stroke="black" points="0,-19.5 134,-19.5 "/>
<text text-anchor="middle" x="67" y="-7.5" font-family="Helvetica,sans-Serif" font-size="10.00"> </text>
</g>
<!-- Node2 -->
<g id="node2" class="node"><title>Node2</title>
<g id="a_node2"><a xlink:href="structjpeg__progress__mgr.html" target="_top" xlink:title="{jpeg_progress_mgr\n|+ progress_monitor\l+ pass_counter\l+ pass_limit\l+ completed_passes\l+ total_passes\l|}">
<polygon fill="white" stroke="black" points="13.5,-127.5 13.5,-228.5 120.5,-228.5 120.5,-127.5 13.5,-127.5"/>
<text text-anchor="middle" x="67" y="-216.5" font-family="Helvetica,sans-Serif" font-size="10.00">jpeg_progress_mgr</text>
<polyline fill="none" stroke="black" points="13.5,-209.5 120.5,-209.5 "/>
<text text-anchor="start" x="21.5" y="-197.5" font-family="Helvetica,sans-Serif" font-size="10.00">+ progress_monitor</text>
<text text-anchor="start" x="21.5" y="-186.5" font-family="Helvetica,sans-Serif" font-size="10.00">+ pass_counter</text>
<text text-anchor="start" x="21.5" y="-175.5" font-family="Helvetica,sans-Serif" font-size="10.00">+ pass_limit</text>
<text text-anchor="start" x="21.5" y="-164.5" font-family="Helvetica,sans-Serif" font-size="10.00">+ completed_passes</text>
<text text-anchor="start" x="21.5" y="-153.5" font-family="Helvetica,sans-Serif" font-size="10.00">+ total_passes</text>
<polyline fill="none" stroke="black" points="13.5,-146.5 120.5,-146.5 "/>
<text text-anchor="middle" x="67" y="-134.5" font-family="Helvetica,sans-Serif" font-size="10.00"> </text>
</a>
</g>
</g>
<!-- Node2&#45;&gt;Node1 -->
<g id="edge1" class="edge"><title>Node2&#45;&gt;Node1</title>
<path fill="none" stroke="#404040" d="M67,-127.131C67,-115.662 67,-103.452 67,-91.9384"/>
<polygon fill="none" stroke="#404040" points="67.0001,-91.7873 63,-85.7873 67,-79.7873 71,-85.7873 67.0001,-91.7873"/>
<text text-anchor="middle" x="79.5" y="-101" font-family="Helvetica,sans-Serif" font-size="10.00"> +pub</text>
</g>
</g>
</svg>
