<?xml version="1.0" encoding="UTF-8" standalone="no"?>
<!DOCTYPE svg PUBLIC "-//W3C//DTD SVG 1.1//EN"
 "http://www.w3.org/Graphics/SVG/1.1/DTD/svg11.dtd">
<!-- Generated by graphviz version 2.38.0 (20140413.2041)
 -->
<!-- Title: facestruc Pages: 1 -->
<svg width="244pt" height="358pt"
 viewBox="0.00 0.00 243.50 358.00" xmlns="http://www.w3.org/2000/svg" xmlns:xlink="http://www.w3.org/1999/xlink">
<g id="graph0" class="graph" transform="scale(1 1) rotate(0) translate(4 354)">
<title>facestruc</title>
<polygon fill="white" stroke="none" points="-4,4 -4,-354 239.5,-354 239.5,4 -4,4"/>
<!-- Node1 -->
<g id="node1" class="node"><title>Node1</title>
<polygon fill="#bfbfbf" stroke="black" points="74,-0.5 74,-79.5 148,-79.5 148,-0.5 74,-0.5"/>
<text text-anchor="middle" x="111" y="-67.5" font-family="Helvetica,sans-Serif" font-size="10.00">facestruc</text>
<polyline fill="none" stroke="black" points="74,-60.5 148,-60.5 "/>
<text text-anchor="start" x="82" y="-48.5" font-family="Helvetica,sans-Serif" font-size="10.00">+ vertex_cnt</text>
<text text-anchor="start" x="82" y="-37.5" font-family="Helvetica,sans-Serif" font-size="10.00">+ area</text>
<polyline fill="none" stroke="black" points="74,-30.5 148,-30.5 "/>
<text text-anchor="start" x="82" y="-18.5" font-family="Helvetica,sans-Serif" font-size="10.00">+ to_json()</text>
<text text-anchor="start" x="82" y="-7.5" font-family="Helvetica,sans-Serif" font-size="10.00">+ from_json()</text>
</g>
<!-- Node2 -->
<g id="node2" class="node"><title>Node2</title>
<polygon fill="white" stroke="#bfbfbf" points="0,-215.5 0,-272.5 96,-272.5 96,-215.5 0,-215.5"/>
<text text-anchor="middle" x="48" y="-260.5" font-family="Helvetica,sans-Serif" font-size="10.00">vector&lt; uint16_t &gt;</text>
<polyline fill="none" stroke="#bfbfbf" points="0,-253.5 96,-253.5 "/>
<text text-anchor="middle" x="48" y="-241.5" font-family="Helvetica,sans-Serif" font-size="10.00"> </text>
<polyline fill="none" stroke="#bfbfbf" points="0,-234.5 96,-234.5 "/>
<text text-anchor="middle" x="48" y="-222.5" font-family="Helvetica,sans-Serif" font-size="10.00"> </text>
</g>
<!-- Node2&#45;&gt;Node1 -->
<g id="edge1" class="edge"><title>Node2&#45;&gt;Node1</title>
<path fill="none" stroke="#404040" d="M56.6278,-215.336C66.5533,-183.512 83.0523,-130.61 95.2772,-91.4127"/>
<polygon fill="none" stroke="#404040" points="95.3491,-91.1821 93.3169,-84.2633 98.922,-79.7263 100.954,-86.6452 95.3491,-91.1821"/>
<text text-anchor="middle" x="120.5" y="-106.5" font-family="Helvetica,sans-Serif" font-size="10.00"> +vertex_idx</text>
</g>
<!-- Node3 -->
<g id="node3" class="node"><title>Node3</title>
<g id="a_node3"><a xlink:href="class_cosmos_1_1_math_1_1_vectors_1_1_vector.html" target="_top" xlink:title="Vector Class. ">
<polygon fill="white" stroke="black" points="114.5,-138.5 114.5,-349.5 235.5,-349.5 235.5,-138.5 114.5,-138.5"/>
<text text-anchor="start" x="122.5" y="-337.5" font-family="Helvetica,sans-Serif" font-size="10.00">Cosmos::Math::Vectors</text>
<text text-anchor="middle" x="175" y="-326.5" font-family="Helvetica,sans-Serif" font-size="10.00">::Vector</text>
<polyline fill="none" stroke="black" points="114.5,-319.5 235.5,-319.5 "/>
<text text-anchor="start" x="122.5" y="-307.5" font-family="Helvetica,sans-Serif" font-size="10.00">+ x</text>
<text text-anchor="start" x="122.5" y="-296.5" font-family="Helvetica,sans-Serif" font-size="10.00">+ y</text>
<text text-anchor="start" x="122.5" y="-285.5" font-family="Helvetica,sans-Serif" font-size="10.00">+ z</text>
<text text-anchor="start" x="122.5" y="-274.5" font-family="Helvetica,sans-Serif" font-size="10.00">+ w</text>
<polyline fill="none" stroke="black" points="114.5,-267.5 235.5,-267.5 "/>
<text text-anchor="start" x="122.5" y="-255.5" font-family="Helvetica,sans-Serif" font-size="10.00">+ Vector()</text>
<text text-anchor="start" x="122.5" y="-244.5" font-family="Helvetica,sans-Serif" font-size="10.00">+ Vector()</text>
<text text-anchor="start" x="122.5" y="-233.5" font-family="Helvetica,sans-Serif" font-size="10.00">+ Vector()</text>
<text text-anchor="start" x="122.5" y="-222.5" font-family="Helvetica,sans-Serif" font-size="10.00">+ Vector()</text>
<text text-anchor="start" x="122.5" y="-211.5" font-family="Helvetica,sans-Serif" font-size="10.00">+ at()</text>
<text text-anchor="start" x="122.5" y="-200.5" font-family="Helvetica,sans-Serif" font-size="10.00">+ to_rv()</text>
<text text-anchor="start" x="122.5" y="-189.5" font-family="Helvetica,sans-Serif" font-size="10.00">+ to_cv()</text>
<text text-anchor="start" x="122.5" y="-178.5" font-family="Helvetica,sans-Serif" font-size="10.00">+ to_q()</text>
<text text-anchor="start" x="122.5" y="-167.5" font-family="Helvetica,sans-Serif" font-size="10.00">+ cross()</text>
<text text-anchor="start" x="122.5" y="-156.5" font-family="Helvetica,sans-Serif" font-size="10.00">+ dot()</text>
<text text-anchor="start" x="122.5" y="-145.5" font-family="Helvetica,sans-Serif" font-size="10.00">and 26 more...</text>
</a>
</g>
</g>
<!-- Node3&#45;&gt;Node1 -->
<g id="edge2" class="edge"><title>Node3&#45;&gt;Node1</title>
<path fill="none" stroke="#404040" d="M164.423,-138.407C161.29,-124.538 157.238,-110.728 152,-98 150.924,-95.3844 149.705,-92.7747 148.38,-90.1913"/>
<polygon fill="none" stroke="#404040" points="148.377,-90.1864 141.925,-86.9657 142.417,-79.7713 148.869,-82.992 148.377,-90.1864"/>
<text text-anchor="middle" x="177" y="-112" font-family="Helvetica,sans-Serif" font-size="10.00"> +com</text>
<text text-anchor="middle" x="177" y="-101" font-family="Helvetica,sans-Serif" font-size="10.00">+normal</text>
</g>
</g>
</svg>
