<?xml version="1.0" encoding="UTF-8" standalone="no"?>
<!DOCTYPE svg PUBLIC "-//W3C//DTD SVG 1.1//EN"
 "http://www.w3.org/Graphics/SVG/1.1/DTD/svg11.dtd">
<!-- Generated by graphviz version 2.38.0 (20140413.2041)
 -->
<!-- Title: my_memory_mgr Pages: 1 -->
<svg width="684pt" height="645pt"
 viewBox="0.00 0.00 684.00 645.00" xmlns="http://www.w3.org/2000/svg" xmlns:xlink="http://www.w3.org/1999/xlink">
<g id="graph0" class="graph" transform="scale(1 1) rotate(0) translate(4 641)">
<title>my_memory_mgr</title>
<polygon fill="white" stroke="none" points="-4,4 -4,-641 680,-641 680,4 -4,4"/>
<!-- Node1 -->
<g id="node1" class="node"><title>Node1</title>
<polygon fill="#bfbfbf" stroke="black" points="230.5,-0.5 230.5,-68.5 350.5,-68.5 350.5,-0.5 230.5,-0.5"/>
<text text-anchor="middle" x="290.5" y="-56.5" font-family="Helvetica,sans-Serif" font-size="10.00">my_memory_mgr</text>
<polyline fill="none" stroke="black" points="230.5,-49.5 350.5,-49.5 "/>
<text text-anchor="start" x="238.5" y="-37.5" font-family="Helvetica,sans-Serif" font-size="10.00">+ total_space_allocated</text>
<text text-anchor="start" x="238.5" y="-26.5" font-family="Helvetica,sans-Serif" font-size="10.00">+ last_rowsperchunk</text>
<polyline fill="none" stroke="black" points="230.5,-19.5 350.5,-19.5 "/>
<text text-anchor="middle" x="290.5" y="-7.5" font-family="Helvetica,sans-Serif" font-size="10.00"> </text>
</g>
<!-- Node2 -->
<g id="node2" class="node"><title>Node2</title>
<g id="a_node2"><a xlink:href="structjpeg__memory__mgr.html" target="_top" xlink:title="{jpeg_memory_mgr\n|+ alloc_small\l+ alloc_large\l+ alloc_sarray\l+ alloc_barray\l+ realize_virt_arrays\l+ access_virt_sarray\l+ access_virt_barray\l+ free_pool\l+ self_destruct\l+ max_memory_to_use\l+ max_alloc_chunk\l|}">
<polygon fill="white" stroke="black" points="125,-116.5 125,-283.5 244,-283.5 244,-116.5 125,-116.5"/>
<text text-anchor="middle" x="184.5" y="-271.5" font-family="Helvetica,sans-Serif" font-size="10.00">jpeg_memory_mgr</text>
<polyline fill="none" stroke="black" points="125,-264.5 244,-264.5 "/>
<text text-anchor="start" x="133" y="-252.5" font-family="Helvetica,sans-Serif" font-size="10.00">+ alloc_small</text>
<text text-anchor="start" x="133" y="-241.5" font-family="Helvetica,sans-Serif" font-size="10.00">+ alloc_large</text>
<text text-anchor="start" x="133" y="-230.5" font-family="Helvetica,sans-Serif" font-size="10.00">+ alloc_sarray</text>
<text text-anchor="start" x="133" y="-219.5" font-family="Helvetica,sans-Serif" font-size="10.00">+ alloc_barray</text>
<text text-anchor="start" x="133" y="-208.5" font-family="Helvetica,sans-Serif" font-size="10.00">+ realize_virt_arrays</text>
<text text-anchor="start" x="133" y="-197.5" font-family="Helvetica,sans-Serif" font-size="10.00">+ access_virt_sarray</text>
<text text-anchor="start" x="133" y="-186.5" font-family="Helvetica,sans-Serif" font-size="10.00">+ access_virt_barray</text>
<text text-anchor="start" x="133" y="-175.5" font-family="Helvetica,sans-Serif" font-size="10.00">+ free_pool</text>
<text text-anchor="start" x="133" y="-164.5" font-family="Helvetica,sans-Serif" font-size="10.00">+ self_destruct</text>
<text text-anchor="start" x="133" y="-153.5" font-family="Helvetica,sans-Serif" font-size="10.00">+ max_memory_to_use</text>
<text text-anchor="start" x="133" y="-142.5" font-family="Helvetica,sans-Serif" font-size="10.00">+ max_alloc_chunk</text>
<polyline fill="none" stroke="black" points="125,-135.5 244,-135.5 "/>
<text text-anchor="middle" x="184.5" y="-123.5" font-family="Helvetica,sans-Serif" font-size="10.00"> </text>
</a>
</g>
</g>
<!-- Node2&#45;&gt;Node1 -->
<g id="edge1" class="edge"><title>Node2&#45;&gt;Node1</title>
<path fill="none" stroke="#404040" d="M232.521,-116.391C238.745,-106.386 245.163,-96.3908 251.5,-87 253.411,-84.1674 255.42,-81.2796 257.476,-78.3898"/>
<polygon fill="none" stroke="#404040" points="257.515,-78.3371 257.811,-71.132 264.576,-68.6343 264.28,-75.8394 257.515,-78.3371"/>
<text text-anchor="middle" x="264" y="-90" font-family="Helvetica,sans-Serif" font-size="10.00"> +pub</text>
</g>
<!-- Node3 -->
<g id="node3" class="node"><title>Node3</title>
<g id="a_node3"><a xlink:href="structjvirt__barray__control.html" target="_top" xlink:title="{jvirt_barray_control\n|+ mem_buffer\l+ rows_in_array\l+ blocksperrow\l+ maxaccess\l+ rows_in_mem\l+ rowsperchunk\l+ cur_start_row\l+ first_undef_row\l+ pre_zero\l+ dirty\l+ b_s_open\l|}">
<polygon fill="white" stroke="black" points="0,-331.5 0,-498.5 99,-498.5 99,-331.5 0,-331.5"/>
<text text-anchor="middle" x="49.5" y="-486.5" font-family="Helvetica,sans-Serif" font-size="10.00">jvirt_barray_control</text>
<polyline fill="none" stroke="black" points="0,-479.5 99,-479.5 "/>
<text text-anchor="start" x="8" y="-467.5" font-family="Helvetica,sans-Serif" font-size="10.00">+ mem_buffer</text>
<text text-anchor="start" x="8" y="-456.5" font-family="Helvetica,sans-Serif" font-size="10.00">+ rows_in_array</text>
<text text-anchor="start" x="8" y="-445.5" font-family="Helvetica,sans-Serif" font-size="10.00">+ blocksperrow</text>
<text text-anchor="start" x="8" y="-434.5" font-family="Helvetica,sans-Serif" font-size="10.00">+ maxaccess</text>
<text text-anchor="start" x="8" y="-423.5" font-family="Helvetica,sans-Serif" font-size="10.00">+ rows_in_mem</text>
<text text-anchor="start" x="8" y="-412.5" font-family="Helvetica,sans-Serif" font-size="10.00">+ rowsperchunk</text>
<text text-anchor="start" x="8" y="-401.5" font-family="Helvetica,sans-Serif" font-size="10.00">+ cur_start_row</text>
<text text-anchor="start" x="8" y="-390.5" font-family="Helvetica,sans-Serif" font-size="10.00">+ first_undef_row</text>
<text text-anchor="start" x="8" y="-379.5" font-family="Helvetica,sans-Serif" font-size="10.00">+ pre_zero</text>
<text text-anchor="start" x="8" y="-368.5" font-family="Helvetica,sans-Serif" font-size="10.00">+ dirty</text>
<text text-anchor="start" x="8" y="-357.5" font-family="Helvetica,sans-Serif" font-size="10.00">+ b_s_open</text>
<polyline fill="none" stroke="black" points="0,-350.5 99,-350.5 "/>
<text text-anchor="middle" x="49.5" y="-338.5" font-family="Helvetica,sans-Serif" font-size="10.00"> </text>
</a>
</g>
</g>
<!-- Node3&#45;&gt;Node1 -->
<g id="edge10" class="edge"><title>Node3&#45;&gt;Node1</title>
<path fill="none" stroke="#404040" d="M22.4498,-331.401C6.72314,-266.662 -2.22361,-177.538 42.5,-116 82.3147,-61.2166 160.293,-42.9715 218.231,-37.2685"/>
<polygon fill="none" stroke="#404040" points="218.314,-37.2615 223.949,-32.7621 230.27,-36.2333 224.634,-40.7327 218.314,-37.2615"/>
<text text-anchor="middle" x="79" y="-197.5" font-family="Helvetica,sans-Serif" font-size="10.00"> +virt_barray_list</text>
</g>
<!-- Node3&#45;&gt;Node2 -->
<g id="edge2" class="edge"><title>Node3&#45;&gt;Node2</title>
<path fill="none" stroke="#404040" d="M69.3747,-331.217C73.7589,-320.871 79.0723,-310.836 85.5,-302 93.5539,-290.928 100.328,-293.164 110.5,-284 112.275,-282.401 114.051,-280.762 115.824,-279.092"/>
<polygon fill="none" stroke="#404040" points="116.045,-278.878 117.556,-271.827 124.646,-270.511 123.135,-277.562 116.045,-278.878"/>
<text text-anchor="middle" x="132" y="-305" font-family="Helvetica,sans-Serif" font-size="10.00"> +request_virt_barray</text>
</g>
<!-- Node3&#45;&gt;Node3 -->
<g id="edge3" class="edge"><title>Node3&#45;&gt;Node3</title>
<path fill="none" stroke="#404040" d="M99.2454,-434.176C109.573,-432.158 117,-425.766 117,-415 117,-408.776 114.518,-404.014 110.428,-400.714"/>
<polygon fill="none" stroke="#404040" points="110.24,-400.632 103.14,-401.893 99.2454,-395.824 106.345,-394.563 110.24,-400.632"/>
<text text-anchor="middle" x="131" y="-412.5" font-family="Helvetica,sans-Serif" font-size="10.00"> +next</text>
</g>
<!-- Node4 -->
<g id="node4" class="node"><title>Node4</title>
<g id="a_node4"><a xlink:href="structbacking__store__struct.html" target="_top" xlink:title="{backing_store_struct\n|+ temp_file\l+ temp_name\l|+ JMETHOD()\l+ JMETHOD()\l+ JMETHOD()\l}">
<polygon fill="white" stroke="black" points="89,-546.5 89,-636.5 196,-636.5 196,-546.5 89,-546.5"/>
<text text-anchor="middle" x="142.5" y="-624.5" font-family="Helvetica,sans-Serif" font-size="10.00">backing_store_struct</text>
<polyline fill="none" stroke="black" points="89,-617.5 196,-617.5 "/>
<text text-anchor="start" x="97" y="-605.5" font-family="Helvetica,sans-Serif" font-size="10.00">+ temp_file</text>
<text text-anchor="start" x="97" y="-594.5" font-family="Helvetica,sans-Serif" font-size="10.00">+ temp_name</text>
<polyline fill="none" stroke="black" points="89,-587.5 196,-587.5 "/>
<text text-anchor="start" x="97" y="-575.5" font-family="Helvetica,sans-Serif" font-size="10.00">+ JMETHOD()</text>
<text text-anchor="start" x="97" y="-564.5" font-family="Helvetica,sans-Serif" font-size="10.00">+ JMETHOD()</text>
<text text-anchor="start" x="97" y="-553.5" font-family="Helvetica,sans-Serif" font-size="10.00">+ JMETHOD()</text>
</a>
</g>
</g>
<!-- Node4&#45;&gt;Node3 -->
<g id="edge4" class="edge"><title>Node4&#45;&gt;Node3</title>
<path fill="none" stroke="#404040" d="M119.032,-546.466C112.979,-535.108 106.228,-522.442 99.3797,-509.591"/>
<polygon fill="none" stroke="#404040" points="99.2609,-509.368 92.9089,-505.955 93.6169,-498.778 99.9689,-502.192 99.2609,-509.368"/>
<text text-anchor="middle" x="130.5" y="-520" font-family="Helvetica,sans-Serif" font-size="10.00"> +b_s_info</text>
</g>
<!-- Node5 -->
<g id="node5" class="node"><title>Node5</title>
<g id="a_node5"><a xlink:href="structjvirt__sarray__control.html" target="_top" xlink:title="{jvirt_sarray_control\n|+ mem_buffer\l+ rows_in_array\l+ samplesperrow\l+ maxaccess\l+ rows_in_mem\l+ rowsperchunk\l+ cur_start_row\l+ first_undef_row\l+ pre_zero\l+ dirty\l+ b_s_open\l|}">
<polygon fill="white" stroke="black" points="163,-331.5 163,-498.5 262,-498.5 262,-331.5 163,-331.5"/>
<text text-anchor="middle" x="212.5" y="-486.5" font-family="Helvetica,sans-Serif" font-size="10.00">jvirt_sarray_control</text>
<polyline fill="none" stroke="black" points="163,-479.5 262,-479.5 "/>
<text text-anchor="start" x="171" y="-467.5" font-family="Helvetica,sans-Serif" font-size="10.00">+ mem_buffer</text>
<text text-anchor="start" x="171" y="-456.5" font-family="Helvetica,sans-Serif" font-size="10.00">+ rows_in_array</text>
<text text-anchor="start" x="171" y="-445.5" font-family="Helvetica,sans-Serif" font-size="10.00">+ samplesperrow</text>
<text text-anchor="start" x="171" y="-434.5" font-family="Helvetica,sans-Serif" font-size="10.00">+ maxaccess</text>
<text text-anchor="start" x="171" y="-423.5" font-family="Helvetica,sans-Serif" font-size="10.00">+ rows_in_mem</text>
<text text-anchor="start" x="171" y="-412.5" font-family="Helvetica,sans-Serif" font-size="10.00">+ rowsperchunk</text>
<text text-anchor="start" x="171" y="-401.5" font-family="Helvetica,sans-Serif" font-size="10.00">+ cur_start_row</text>
<text text-anchor="start" x="171" y="-390.5" font-family="Helvetica,sans-Serif" font-size="10.00">+ first_undef_row</text>
<text text-anchor="start" x="171" y="-379.5" font-family="Helvetica,sans-Serif" font-size="10.00">+ pre_zero</text>
<text text-anchor="start" x="171" y="-368.5" font-family="Helvetica,sans-Serif" font-size="10.00">+ dirty</text>
<text text-anchor="start" x="171" y="-357.5" font-family="Helvetica,sans-Serif" font-size="10.00">+ b_s_open</text>
<polyline fill="none" stroke="black" points="163,-350.5 262,-350.5 "/>
<text text-anchor="middle" x="212.5" y="-338.5" font-family="Helvetica,sans-Serif" font-size="10.00"> </text>
</a>
</g>
</g>
<!-- Node4&#45;&gt;Node5 -->
<g id="edge7" class="edge"><title>Node4&#45;&gt;Node5</title>
<path fill="none" stroke="#404040" d="M160.164,-546.466C164.675,-535.221 169.7,-522.695 174.802,-509.977"/>
<polygon fill="none" stroke="#404040" points="174.826,-509.916 173.347,-502.858 179.294,-498.778 180.772,-505.836 174.826,-509.916"/>
<text text-anchor="middle" x="194.5" y="-520" font-family="Helvetica,sans-Serif" font-size="10.00"> +b_s_info</text>
</g>
<!-- Node5&#45;&gt;Node1 -->
<g id="edge11" class="edge"><title>Node5&#45;&gt;Node1</title>
<path fill="none" stroke="#404040" d="M262.054,-345.953C267.848,-335.342 272.949,-324.178 276.5,-313 301.485,-234.356 299.33,-136.907 295.15,-80.9008"/>
<polygon fill="none" stroke="#404040" points="295.15,-80.8912 290.677,-75.2348 294.178,-68.9306 298.651,-74.5871 295.15,-80.8912"/>
<text text-anchor="middle" x="335" y="-197.5" font-family="Helvetica,sans-Serif" font-size="10.00"> +virt_sarray_list</text>
</g>
<!-- Node5&#45;&gt;Node2 -->
<g id="edge5" class="edge"><title>Node5&#45;&gt;Node2</title>
<path fill="none" stroke="#404040" d="M186.79,-331.451C185.477,-325.249 184.352,-319.052 183.5,-313 182.712,-307.398 182.115,-301.622 181.678,-295.786"/>
<polygon fill="none" stroke="#404040" points="181.675,-295.735 177.34,-289.972 180.992,-283.754 185.327,-289.517 181.675,-295.735"/>
<text text-anchor="middle" x="230" y="-305" font-family="Helvetica,sans-Serif" font-size="10.00"> +request_virt_sarray</text>
</g>
<!-- Node5&#45;&gt;Node5 -->
<g id="edge6" class="edge"><title>Node5&#45;&gt;Node5</title>
<path fill="none" stroke="#404040" d="M262.245,-434.176C272.573,-432.158 280,-425.766 280,-415 280,-408.776 277.518,-404.014 273.428,-400.714"/>
<polygon fill="none" stroke="#404040" points="273.24,-400.632 266.14,-401.893 262.245,-395.824 269.345,-394.563 273.24,-400.632"/>
<text text-anchor="middle" x="294" y="-412.5" font-family="Helvetica,sans-Serif" font-size="10.00"> +next</text>
</g>
<!-- Node6 -->
<g id="node6" class="node"><title>Node6</title>
<g id="a_node6"><a xlink:href="unionsmall__pool__struct.html" target="_top" xlink:title="{small_pool_struct\n|+ bytes_used\l+ bytes_left\l+ hdr\l+ dummy\l|}">
<polygon fill="white" stroke="black" points="382,-155 382,-245 475,-245 475,-155 382,-155"/>
<text text-anchor="middle" x="428.5" y="-233" font-family="Helvetica,sans-Serif" font-size="10.00">small_pool_struct</text>
<polyline fill="none" stroke="black" points="382,-226 475,-226 "/>
<text text-anchor="start" x="390" y="-214" font-family="Helvetica,sans-Serif" font-size="10.00">+ bytes_used</text>
<text text-anchor="start" x="390" y="-203" font-family="Helvetica,sans-Serif" font-size="10.00">+ bytes_left</text>
<text text-anchor="start" x="390" y="-192" font-family="Helvetica,sans-Serif" font-size="10.00">+ hdr</text>
<text text-anchor="start" x="390" y="-181" font-family="Helvetica,sans-Serif" font-size="10.00">+ dummy</text>
<polyline fill="none" stroke="black" points="382,-174 475,-174 "/>
<text text-anchor="middle" x="428.5" y="-162" font-family="Helvetica,sans-Serif" font-size="10.00"> </text>
</a>
</g>
</g>
<!-- Node6&#45;&gt;Node1 -->
<g id="edge8" class="edge"><title>Node6&#45;&gt;Node1</title>
<path fill="none" stroke="#404040" d="M397.558,-154.681C388.226,-141.934 377.735,-128.188 367.5,-116 356.698,-103.136 344.361,-89.7335 332.776,-77.6397"/>
<polygon fill="none" stroke="#404040" points="332.446,-77.2994 325.399,-75.7703 324.1,-68.6771 331.147,-70.2062 332.446,-77.2994"/>
<text text-anchor="middle" x="377" y="-90" font-family="Helvetica,sans-Serif" font-size="10.00"> +small_list</text>
</g>
<!-- Node6&#45;&gt;Node6 -->
<g id="edge9" class="edge"><title>Node6&#45;&gt;Node6</title>
<path fill="none" stroke="#404040" d="M475.174,-219.34C485.488,-217.523 493,-211.076 493,-200 493,-193.597 490.489,-188.74 486.378,-185.432"/>
<polygon fill="none" stroke="#404040" points="486.214,-185.362 479.127,-186.691 475.174,-180.66 482.261,-179.331 486.214,-185.362"/>
<text text-anchor="middle" x="507" y="-197.5" font-family="Helvetica,sans-Serif" font-size="10.00"> +next</text>
</g>
<!-- Node7 -->
<g id="node7" class="node"><title>Node7</title>
<g id="a_node7"><a xlink:href="unionlarge__pool__struct.html" target="_top" xlink:title="{large_pool_struct\n|+ bytes_used\l+ bytes_left\l+ hdr\l+ dummy\l|}">
<polygon fill="white" stroke="black" points="539,-155 539,-245 630,-245 630,-155 539,-155"/>
<text text-anchor="middle" x="584.5" y="-233" font-family="Helvetica,sans-Serif" font-size="10.00">large_pool_struct</text>
<polyline fill="none" stroke="black" points="539,-226 630,-226 "/>
<text text-anchor="start" x="547" y="-214" font-family="Helvetica,sans-Serif" font-size="10.00">+ bytes_used</text>
<text text-anchor="start" x="547" y="-203" font-family="Helvetica,sans-Serif" font-size="10.00">+ bytes_left</text>
<text text-anchor="start" x="547" y="-192" font-family="Helvetica,sans-Serif" font-size="10.00">+ hdr</text>
<text text-anchor="start" x="547" y="-181" font-family="Helvetica,sans-Serif" font-size="10.00">+ dummy</text>
<polyline fill="none" stroke="black" points="539,-174 630,-174 "/>
<text text-anchor="middle" x="584.5" y="-162" font-family="Helvetica,sans-Serif" font-size="10.00"> </text>
</a>
</g>
</g>
<!-- Node7&#45;&gt;Node1 -->
<g id="edge12" class="edge"><title>Node7&#45;&gt;Node1</title>
<path fill="none" stroke="#404040" d="M562.859,-154.974C554.14,-140.905 542.932,-126.323 529.5,-116 480.648,-78.4574 413.288,-57.8647 362.528,-46.9313"/>
<polygon fill="none" stroke="#404040" points="362.411,-46.9072 355.727,-49.6133 350.658,-44.4842 357.342,-41.7781 362.411,-46.9072"/>
<text text-anchor="middle" x="526" y="-90" font-family="Helvetica,sans-Serif" font-size="10.00"> +large_list</text>
</g>
<!-- Node7&#45;&gt;Node7 -->
<g id="edge13" class="edge"><title>Node7&#45;&gt;Node7</title>
<path fill="none" stroke="#404040" d="M630.165,-219.39C640.466,-217.643 648,-211.18 648,-200 648,-193.537 645.482,-188.65 641.367,-185.339"/>
<polygon fill="none" stroke="#404040" points="641.22,-185.277 634.136,-186.629 630.165,-180.61 637.248,-179.259 641.22,-185.277"/>
<text text-anchor="middle" x="662" y="-197.5" font-family="Helvetica,sans-Serif" font-size="10.00"> +next</text>
</g>
</g>
</svg>
