<?xml version="1.0" encoding="UTF-8" standalone="no"?>
<!DOCTYPE svg PUBLIC "-//W3C//DTD SVG 1.1//EN"
 "http://www.w3.org/Graphics/SVG/1.1/DTD/svg11.dtd">
<!-- Generated by graphviz version 2.38.0 (20140413.2041)
 -->
<!-- Title: locstruc Pages: 1 -->
<!--zoomable 1014 -->
<svg id="main" version="1.1" xmlns="http://www.w3.org/2000/svg" xmlns:xlink="http://www.w3.org/1999/xlink" xml:space="preserve" onload="init(evt)">
<style type="text/css"><![CDATA[
.edge:hover path { stroke: red; }
.edge:hover polygon { stroke: red; fill: red; }
]]></style>
<script type="text/javascript"><![CDATA[
var edges = document.getElementsByTagName('g');
if (edges && edges.length) {
  for (var i=0;i<edges.length;i++) {
    if (edges[i].id.substr(0,4)=='edge') {
      edges[i].setAttribute('class','edge');
    }
  }
}
]]></script>
        <defs>
                <circle id="rim" cx="0" cy="0" r="7"/>
                <circle id="rim2" cx="0" cy="0" r="3.5"/>
                <g id="zoomPlus">
                        <use xlink:href="#rim" fill="#404040">
                                <set attributeName="fill" to="#808080" begin="zoomplus.mouseover" end="zoomplus.mouseout"/>
                        </use>
                        <path d="M-4,0h8M0,-4v8" fill="none" stroke="white" stroke-width="1.5" pointer-events="none"/>
                </g>
                <g id="zoomMin">
                        <use xlink:href="#rim" fill="#404040">
                                <set attributeName="fill" to="#808080" begin="zoomminus.mouseover" end="zoomminus.mouseout"/>
                        </use>
                        <path d="M-4,0h8" fill="none" stroke="white" stroke-width="1.5" pointer-events="none"/>
                </g>
                <g id="dirArrow">
                        <path fill="none" stroke="white" stroke-width="1.5" d="M0,-3.0v7 M-2.5,-0.5L0,-3.0L2.5,-0.5"/>
                </g>
               <g id="resetDef">
                       <use xlink:href="#rim2" fill="#404040">
                               <set attributeName="fill" to="#808080" begin="reset.mouseover" end="reset.mouseout"/>
                       </use>
               </g>
        </defs>

<script type="text/javascript">
var viewWidth = 567;
var viewHeight = 1014;
var sectionId = 'dynsection-0';
</script>
<script xlink:href="svgpan.js"/>
<svg id="graph" class="graph">
<g id="viewport">
<title>locstruc</title>
<polygon fill="white" stroke="none" points="-4,4 -4,-1010 562.5,-1010 562.5,4 -4,4"/>
<!-- Node1 -->
<g id="node1" class="node"><title>Node1</title>
<polygon fill="#bfbfbf" stroke="black" points="313,-0.5 313,-68.5 387,-68.5 387,-0.5 313,-0.5"/>
<text text-anchor="middle" x="350" y="-56.5" font-family="Helvetica,sans-Serif" font-size="10.00">locstruc</text>
<polyline fill="none" stroke="black" points="313,-49.5 387,-49.5 "/>
<text text-anchor="start" x="321" y="-37.5" font-family="Helvetica,sans-Serif" font-size="10.00">+ utc</text>
<polyline fill="none" stroke="black" points="313,-30.5 387,-30.5 "/>
<text text-anchor="start" x="321" y="-18.5" font-family="Helvetica,sans-Serif" font-size="10.00">+ to_json()</text>
<text text-anchor="start" x="321" y="-7.5" font-family="Helvetica,sans-Serif" font-size="10.00">+ from_json()</text>
</g>
<!-- Node2 -->
<g id="node2" class="node"><title>Node2</title>
<g id="a_node2"><a xlink:href="structposstruc.html" target="_top" xlink:title="{posstruc\n|+ utc\l+ earthsep\l+ moonsep\l+ sunsize\l+ sunradiance\l+ orbit\l|+ to_json()\l+ from_json()\l}">
<polygon fill="white" stroke="black" points="177,-116.5 177,-239.5 255,-239.5 255,-116.5 177,-116.5"/>
<text text-anchor="middle" x="216" y="-227.5" font-family="Helvetica,sans-Serif" font-size="10.00">posstruc</text>
<polyline fill="none" stroke="black" points="177,-220.5 255,-220.5 "/>
<text text-anchor="start" x="185" y="-208.5" font-family="Helvetica,sans-Serif" font-size="10.00">+ utc</text>
<text text-anchor="start" x="185" y="-197.5" font-family="Helvetica,sans-Serif" font-size="10.00">+ earthsep</text>
<text text-anchor="start" x="185" y="-186.5" font-family="Helvetica,sans-Serif" font-size="10.00">+ moonsep</text>
<text text-anchor="start" x="185" y="-175.5" font-family="Helvetica,sans-Serif" font-size="10.00">+ sunsize</text>
<text text-anchor="start" x="185" y="-164.5" font-family="Helvetica,sans-Serif" font-size="10.00">+ sunradiance</text>
<text text-anchor="start" x="185" y="-153.5" font-family="Helvetica,sans-Serif" font-size="10.00">+ orbit</text>
<polyline fill="none" stroke="black" points="177,-146.5 255,-146.5 "/>
<text text-anchor="start" x="185" y="-134.5" font-family="Helvetica,sans-Serif" font-size="10.00">+ to_json()</text>
<text text-anchor="start" x="185" y="-123.5" font-family="Helvetica,sans-Serif" font-size="10.00">+ from_json()</text>
</a>
</g>
</g>
<!-- Node2&#45;&gt;Node1 -->
<g id="edge1" class="edge"><title>Node2&#45;&gt;Node1</title>
<path fill="none" stroke="#404040" d="M255.119,-135.692C272.512,-117.325 292.956,-95.7364 310.405,-77.3114"/>
<polygon fill="none" stroke="#404040" points="310.452,-77.2615 311.673,-70.1546 318.703,-68.5485 317.482,-75.6554 310.452,-77.2615"/>
<text text-anchor="middle" x="311.5" y="-90" font-family="Helvetica,sans-Serif" font-size="10.00"> +pos</text>
</g>
<!-- Node3 -->
<g id="node3" class="node"><title>Node3</title>
<g id="a_node3"><a xlink:href="structgeoidpos.html" target="_top" xlink:title="Geodetic position structure. ">
<polygon fill="white" stroke="black" points="0,-370 0,-449 74,-449 74,-370 0,-370"/>
<text text-anchor="middle" x="37" y="-437" font-family="Helvetica,sans-Serif" font-size="10.00">geoidpos</text>
<polyline fill="none" stroke="black" points="0,-430 74,-430 "/>
<text text-anchor="start" x="8" y="-418" font-family="Helvetica,sans-Serif" font-size="10.00">+ utc</text>
<text text-anchor="start" x="8" y="-407" font-family="Helvetica,sans-Serif" font-size="10.00">+ pass</text>
<polyline fill="none" stroke="black" points="0,-400 74,-400 "/>
<text text-anchor="start" x="8" y="-388" font-family="Helvetica,sans-Serif" font-size="10.00">+ to_json()</text>
<text text-anchor="start" x="8" y="-377" font-family="Helvetica,sans-Serif" font-size="10.00">+ from_json()</text>
</a>
</g>
</g>
<!-- Node3&#45;&gt;Node2 -->
<g id="edge2" class="edge"><title>Node3&#45;&gt;Node2</title>
<path fill="none" stroke="#404040" d="M47.1904,-369.771C57.1646,-337.328 74.8587,-291.138 102,-258 119.57,-236.548 144.401,-218.41 166.404,-204.946"/>
<polygon fill="none" stroke="#404040" points="166.606,-204.826 169.734,-198.329 176.935,-198.717 173.807,-205.214 166.606,-204.826"/>
<text text-anchor="middle" x="116" y="-288.5" font-family="Helvetica,sans-Serif" font-size="10.00"> +selg</text>
<text text-anchor="middle" x="116" y="-277.5" font-family="Helvetica,sans-Serif" font-size="10.00">+geod</text>
</g>
<!-- Node4 -->
<g id="node4" class="node"><title>Node4</title>
<g id="a_node4"><a xlink:href="structgvector.html" target="_top" xlink:title="3 element geodetic vector ">
<polygon fill="white" stroke="black" points="0,-645.5 0,-757.5 74,-757.5 74,-645.5 0,-645.5"/>
<text text-anchor="middle" x="37" y="-745.5" font-family="Helvetica,sans-Serif" font-size="10.00">gvector</text>
<polyline fill="none" stroke="black" points="0,-738.5 74,-738.5 "/>
<text text-anchor="start" x="8" y="-726.5" font-family="Helvetica,sans-Serif" font-size="10.00">+ lat</text>
<text text-anchor="start" x="8" y="-715.5" font-family="Helvetica,sans-Serif" font-size="10.00">+ lon</text>
<text text-anchor="start" x="8" y="-704.5" font-family="Helvetica,sans-Serif" font-size="10.00">+ h</text>
<polyline fill="none" stroke="black" points="0,-697.5 74,-697.5 "/>
<text text-anchor="start" x="8" y="-685.5" font-family="Helvetica,sans-Serif" font-size="10.00">+ gvector()</text>
<text text-anchor="start" x="8" y="-674.5" font-family="Helvetica,sans-Serif" font-size="10.00">+ gvector()</text>
<text text-anchor="start" x="8" y="-663.5" font-family="Helvetica,sans-Serif" font-size="10.00">+ to_json()</text>
<text text-anchor="start" x="8" y="-652.5" font-family="Helvetica,sans-Serif" font-size="10.00">+ from_json()</text>
</a>
</g>
</g>
<!-- Node4&#45;&gt;Node3 -->
<g id="edge3" class="edge"><title>Node4&#45;&gt;Node3</title>
<path fill="none" stroke="#404040" d="M37,-645.271C37,-592.286 37,-512.935 37,-461.435"/>
<polygon fill="none" stroke="#404040" points="37.0001,-461.295 33,-455.295 37,-449.295 41,-455.294 37.0001,-461.295"/>
<text text-anchor="middle" x="44.5" y="-575" font-family="Helvetica,sans-Serif" font-size="10.00"> +a</text>
<text text-anchor="middle" x="44.5" y="-564" font-family="Helvetica,sans-Serif" font-size="10.00">+s</text>
<text text-anchor="middle" x="44.5" y="-553" font-family="Helvetica,sans-Serif" font-size="10.00">+v</text>
</g>
<!-- Node5 -->
<g id="node5" class="node"><title>Node5</title>
<g id="a_node5"><a xlink:href="structspherpos.html" target="_top" xlink:title="Spherical position structure. ">
<polygon fill="white" stroke="black" points="92,-370 92,-449 166,-449 166,-370 92,-370"/>
<text text-anchor="middle" x="129" y="-437" font-family="Helvetica,sans-Serif" font-size="10.00">spherpos</text>
<polyline fill="none" stroke="black" points="92,-430 166,-430 "/>
<text text-anchor="start" x="100" y="-418" font-family="Helvetica,sans-Serif" font-size="10.00">+ utc</text>
<text text-anchor="start" x="100" y="-407" font-family="Helvetica,sans-Serif" font-size="10.00">+ pass</text>
<polyline fill="none" stroke="black" points="92,-400 166,-400 "/>
<text text-anchor="start" x="100" y="-388" font-family="Helvetica,sans-Serif" font-size="10.00">+ to_json()</text>
<text text-anchor="start" x="100" y="-377" font-family="Helvetica,sans-Serif" font-size="10.00">+ from_json()</text>
</a>
</g>
</g>
<!-- Node5&#45;&gt;Node2 -->
<g id="edge4" class="edge"><title>Node5&#45;&gt;Node2</title>
<path fill="none" stroke="#404040" d="M128.225,-369.781C128.962,-338.386 133.173,-293.655 149,-258 153.98,-246.782 161.066,-235.93 168.782,-226.047"/>
<polygon fill="none" stroke="#404040" points="169.016,-225.764 169.75,-218.59 176.654,-216.509 175.92,-223.682 169.016,-225.764"/>
<text text-anchor="middle" x="164.5" y="-283" font-family="Helvetica,sans-Serif" font-size="10.00"> +geos</text>
</g>
<!-- Node6 -->
<g id="node6" class="node"><title>Node6</title>
<g id="a_node6"><a xlink:href="structsvector.html" target="_top" xlink:title="3 element spherical vector ">
<polygon fill="white" stroke="black" points="92,-645.5 92,-757.5 166,-757.5 166,-645.5 92,-645.5"/>
<text text-anchor="middle" x="129" y="-745.5" font-family="Helvetica,sans-Serif" font-size="10.00">svector</text>
<polyline fill="none" stroke="black" points="92,-738.5 166,-738.5 "/>
<text text-anchor="start" x="100" y="-726.5" font-family="Helvetica,sans-Serif" font-size="10.00">+ phi</text>
<text text-anchor="start" x="100" y="-715.5" font-family="Helvetica,sans-Serif" font-size="10.00">+ lambda</text>
<text text-anchor="start" x="100" y="-704.5" font-family="Helvetica,sans-Serif" font-size="10.00">+ r</text>
<polyline fill="none" stroke="black" points="92,-697.5 166,-697.5 "/>
<text text-anchor="start" x="100" y="-685.5" font-family="Helvetica,sans-Serif" font-size="10.00">+ svector()</text>
<text text-anchor="start" x="100" y="-674.5" font-family="Helvetica,sans-Serif" font-size="10.00">+ svector()</text>
<text text-anchor="start" x="100" y="-663.5" font-family="Helvetica,sans-Serif" font-size="10.00">+ to_json()</text>
<text text-anchor="start" x="100" y="-652.5" font-family="Helvetica,sans-Serif" font-size="10.00">+ from_json()</text>
</a>
</g>
</g>
<!-- Node6&#45;&gt;Node5 -->
<g id="edge5" class="edge"><title>Node6&#45;&gt;Node5</title>
<path fill="none" stroke="#404040" d="M129,-645.271C129,-592.286 129,-512.935 129,-461.435"/>
<polygon fill="none" stroke="#404040" points="129,-461.295 125,-455.295 129,-449.295 133,-455.294 129,-461.295"/>
<text text-anchor="middle" x="136.5" y="-575" font-family="Helvetica,sans-Serif" font-size="10.00"> +a</text>
<text text-anchor="middle" x="136.5" y="-564" font-family="Helvetica,sans-Serif" font-size="10.00">+s</text>
<text text-anchor="middle" x="136.5" y="-553" font-family="Helvetica,sans-Serif" font-size="10.00">+v</text>
</g>
<!-- Node7 -->
<g id="node7" class="node"><title>Node7</title>
<g id="a_node7"><a xlink:href="structcartpos.html" target="_top" xlink:title="Cartesian full position structure. ">
<polygon fill="white" stroke="black" points="235,-662 235,-741 309,-741 309,-662 235,-662"/>
<text text-anchor="middle" x="272" y="-729" font-family="Helvetica,sans-Serif" font-size="10.00">cartpos</text>
<polyline fill="none" stroke="black" points="235,-722 309,-722 "/>
<text text-anchor="start" x="243" y="-710" font-family="Helvetica,sans-Serif" font-size="10.00">+ utc</text>
<text text-anchor="start" x="243" y="-699" font-family="Helvetica,sans-Serif" font-size="10.00">+ pass</text>
<polyline fill="none" stroke="black" points="235,-692 309,-692 "/>
<text text-anchor="start" x="243" y="-680" font-family="Helvetica,sans-Serif" font-size="10.00">+ to_json()</text>
<text text-anchor="start" x="243" y="-669" font-family="Helvetica,sans-Serif" font-size="10.00">+ from_json()</text>
</a>
</g>
</g>
<!-- Node7&#45;&gt;Node2 -->
<g id="edge6" class="edge"><title>Node7&#45;&gt;Node2</title>
<path fill="none" stroke="#404040" d="M267.837,-661.729C258.516,-574.929 235.846,-363.814 223.809,-251.721"/>
<polygon fill="none" stroke="#404040" points="223.783,-251.475 219.165,-245.937 222.501,-239.544 227.119,-245.083 223.783,-251.475"/>
<text text-anchor="middle" x="263" y="-429" font-family="Helvetica,sans-Serif" font-size="10.00"> +selc</text>
<text text-anchor="middle" x="263" y="-418" font-family="Helvetica,sans-Serif" font-size="10.00">+icrf</text>
<text text-anchor="middle" x="263" y="-407" font-family="Helvetica,sans-Serif" font-size="10.00">+sci</text>
<text text-anchor="middle" x="263" y="-396" font-family="Helvetica,sans-Serif" font-size="10.00">+geoc</text>
<text text-anchor="middle" x="263" y="-385" font-family="Helvetica,sans-Serif" font-size="10.00">+eci</text>
</g>
<!-- Node9 -->
<g id="node9" class="node"><title>Node9</title>
<g id="a_node9"><a xlink:href="structextrapos.html" target="_top" xlink:title="Additional parameters relating to position that need only be calculated once. ">
<polygon fill="white" stroke="black" points="289,-331.5 289,-487.5 363,-487.5 363,-331.5 289,-331.5"/>
<text text-anchor="middle" x="326" y="-475.5" font-family="Helvetica,sans-Serif" font-size="10.00">extrapos</text>
<polyline fill="none" stroke="black" points="289,-468.5 363,-468.5 "/>
<text text-anchor="start" x="297" y="-456.5" font-family="Helvetica,sans-Serif" font-size="10.00">+ utc</text>
<text text-anchor="start" x="297" y="-445.5" font-family="Helvetica,sans-Serif" font-size="10.00">+ tt</text>
<text text-anchor="start" x="297" y="-434.5" font-family="Helvetica,sans-Serif" font-size="10.00">+ ut</text>
<text text-anchor="start" x="297" y="-423.5" font-family="Helvetica,sans-Serif" font-size="10.00">+ tdb</text>
<text text-anchor="start" x="297" y="-412.5" font-family="Helvetica,sans-Serif" font-size="10.00">+ j2e</text>
<text text-anchor="start" x="297" y="-401.5" font-family="Helvetica,sans-Serif" font-size="10.00">+ dj2e</text>
<text text-anchor="start" x="297" y="-390.5" font-family="Helvetica,sans-Serif" font-size="10.00">+ ddj2e</text>
<text text-anchor="start" x="297" y="-379.5" font-family="Helvetica,sans-Serif" font-size="10.00">+ de2j</text>
<text text-anchor="start" x="297" y="-368.5" font-family="Helvetica,sans-Serif" font-size="10.00">+ closest</text>
<polyline fill="none" stroke="black" points="289,-361.5 363,-361.5 "/>
<text text-anchor="start" x="297" y="-349.5" font-family="Helvetica,sans-Serif" font-size="10.00">+ to_json()</text>
<text text-anchor="start" x="297" y="-338.5" font-family="Helvetica,sans-Serif" font-size="10.00">+ from_json()</text>
</a>
</g>
</g>
<!-- Node7&#45;&gt;Node9 -->
<g id="edge10" class="edge"><title>Node7&#45;&gt;Node9</title>
<path fill="none" stroke="#404040" d="M269.382,-661.847C267.71,-622.132 267.889,-558.821 281,-506 282.079,-501.653 283.362,-497.266 284.8,-492.885"/>
<polygon fill="none" stroke="#404040" points="284.89,-492.636 283.148,-485.638 288.937,-481.339 290.679,-488.336 284.89,-492.636"/>
<text text-anchor="middle" x="308.5" y="-569.5" font-family="Helvetica,sans-Serif" font-size="10.00"> +sun2moon</text>
<text text-anchor="middle" x="308.5" y="-558.5" font-family="Helvetica,sans-Serif" font-size="10.00">+sun2earth</text>
</g>
<!-- Node8 -->
<g id="node8" class="node"><title>Node8</title>
<g id="a_node8"><a xlink:href="structrvector.html" target="_top" xlink:title="3 element generic row vector ">
<polygon fill="white" stroke="black" points="281,-871.5 281,-961.5 355,-961.5 355,-871.5 281,-871.5"/>
<text text-anchor="middle" x="318" y="-949.5" font-family="Helvetica,sans-Serif" font-size="10.00">rvector</text>
<polyline fill="none" stroke="black" points="281,-942.5 355,-942.5 "/>
<text text-anchor="start" x="289" y="-930.5" font-family="Helvetica,sans-Serif" font-size="10.00">+ col</text>
<polyline fill="none" stroke="black" points="281,-923.5 355,-923.5 "/>
<text text-anchor="start" x="289" y="-911.5" font-family="Helvetica,sans-Serif" font-size="10.00">+ rvector()</text>
<text text-anchor="start" x="289" y="-900.5" font-family="Helvetica,sans-Serif" font-size="10.00">+ rvector()</text>
<text text-anchor="start" x="289" y="-889.5" font-family="Helvetica,sans-Serif" font-size="10.00">+ to_json()</text>
<text text-anchor="start" x="289" y="-878.5" font-family="Helvetica,sans-Serif" font-size="10.00">+ from_json()</text>
</a>
</g>
</g>
<!-- Node8&#45;&gt;Node2 -->
<g id="edge8" class="edge"><title>Node8&#45;&gt;Node2</title>
<path fill="none" stroke="#404040" d="M285.5,-871.393C264.902,-841.067 239.652,-799.013 226,-758 168.079,-583.998 187.624,-363.994 203.646,-251.889"/>
<polygon fill="none" stroke="#404040" points="203.686,-251.618 200.6,-245.1 205.429,-239.745 208.515,-246.262 203.686,-251.618"/>
<text text-anchor="middle" x="214.5" y="-564" font-family="Helvetica,sans-Serif" font-size="10.00"> +bearth</text>
</g>
<!-- Node8&#45;&gt;Node7 -->
<g id="edge7" class="edge"><title>Node8&#45;&gt;Node7</title>
<path fill="none" stroke="#404040" d="M308.469,-871.366C301.054,-837.031 290.755,-789.342 282.992,-753.397"/>
<polygon fill="none" stroke="#404040" points="282.894,-752.943 277.717,-747.923 280.361,-741.214 285.537,-746.234 282.894,-752.943"/>
<text text-anchor="middle" x="302.5" y="-801" font-family="Helvetica,sans-Serif" font-size="10.00"> +a</text>
<text text-anchor="middle" x="302.5" y="-790" font-family="Helvetica,sans-Serif" font-size="10.00">+s</text>
<text text-anchor="middle" x="302.5" y="-779" font-family="Helvetica,sans-Serif" font-size="10.00">+v</text>
</g>
<!-- Node10 -->
<g id="node10" class="node"><title>Node10</title>
<g id="a_node10"><a xlink:href="structrmatrix.html" target="_top" xlink:title="3x3 element generic matrix ">
<polygon fill="white" stroke="black" points="327,-656.5 327,-746.5 401,-746.5 401,-656.5 327,-656.5"/>
<text text-anchor="middle" x="364" y="-734.5" font-family="Helvetica,sans-Serif" font-size="10.00">rmatrix</text>
<polyline fill="none" stroke="black" points="327,-727.5 401,-727.5 "/>
<text text-anchor="middle" x="364" y="-715.5" font-family="Helvetica,sans-Serif" font-size="10.00"> </text>
<polyline fill="none" stroke="black" points="327,-708.5 401,-708.5 "/>
<text text-anchor="start" x="335" y="-696.5" font-family="Helvetica,sans-Serif" font-size="10.00">+ rmatrix()</text>
<text text-anchor="start" x="335" y="-685.5" font-family="Helvetica,sans-Serif" font-size="10.00">+ rmatrix()</text>
<text text-anchor="start" x="335" y="-674.5" font-family="Helvetica,sans-Serif" font-size="10.00">+ to_json()</text>
<text text-anchor="start" x="335" y="-663.5" font-family="Helvetica,sans-Serif" font-size="10.00">+ from_json()</text>
</a>
</g>
</g>
<!-- Node8&#45;&gt;Node10 -->
<g id="edge12" class="edge"><title>Node8&#45;&gt;Node10</title>
<path fill="none" stroke="#404040" d="M327.531,-871.366C334.593,-838.666 344.271,-793.853 351.883,-758.609"/>
<polygon fill="none" stroke="#404040" points="351.948,-758.307 349.305,-751.598 354.481,-746.577 357.124,-753.286 351.948,-758.307"/>
<text text-anchor="middle" x="360.5" y="-790" font-family="Helvetica,sans-Serif" font-size="10.00"> +row</text>
</g>
<!-- Node12 -->
<g id="node12" class="node"><title>Node12</title>
<g id="a_node12"><a xlink:href="structqatt.html" target="_top" xlink:title="Quaternion Attitude. ">
<polygon fill="white" stroke="black" points="473,-370 473,-449 547,-449 547,-370 473,-370"/>
<text text-anchor="middle" x="510" y="-437" font-family="Helvetica,sans-Serif" font-size="10.00">qatt</text>
<polyline fill="none" stroke="black" points="473,-430 547,-430 "/>
<text text-anchor="start" x="481" y="-418" font-family="Helvetica,sans-Serif" font-size="10.00">+ utc</text>
<text text-anchor="start" x="481" y="-407" font-family="Helvetica,sans-Serif" font-size="10.00">+ pass</text>
<polyline fill="none" stroke="black" points="473,-400 547,-400 "/>
<text text-anchor="start" x="481" y="-388" font-family="Helvetica,sans-Serif" font-size="10.00">+ to_json()</text>
<text text-anchor="start" x="481" y="-377" font-family="Helvetica,sans-Serif" font-size="10.00">+ from_json()</text>
</a>
</g>
</g>
<!-- Node8&#45;&gt;Node12 -->
<g id="edge17" class="edge"><title>Node8&#45;&gt;Node12</title>
<path fill="none" stroke="#404040" d="M347.875,-871.232C367.597,-840.495 392.866,-798.029 410,-758 453.578,-656.188 484.583,-529.682 499.649,-460.86"/>
<polygon fill="none" stroke="#404040" points="499.654,-460.834 497.012,-454.124 502.19,-449.105 504.832,-455.815 499.654,-460.834"/>
<text text-anchor="middle" x="457.5" y="-704.5" font-family="Helvetica,sans-Serif" font-size="10.00"> +a</text>
<text text-anchor="middle" x="457.5" y="-693.5" font-family="Helvetica,sans-Serif" font-size="10.00">+v</text>
</g>
<!-- Node9&#45;&gt;Node2 -->
<g id="edge9" class="edge"><title>Node9&#45;&gt;Node2</title>
<path fill="none" stroke="#404040" d="M291.44,-331.21C280.647,-307.598 268.541,-281.633 257,-258 255.815,-255.574 254.602,-253.112 253.368,-250.629"/>
<polygon fill="none" stroke="#404040" points="253.246,-250.387 246.98,-246.819 247.863,-239.662 254.129,-243.23 253.246,-250.387"/>
<text text-anchor="middle" x="298.5" y="-283" font-family="Helvetica,sans-Serif" font-size="10.00"> +extra</text>
</g>
<!-- Node10&#45;&gt;Node9 -->
<g id="edge11" class="edge"><title>Node10&#45;&gt;Node9</title>
<path fill="none" stroke="#404040" d="M358.229,-656.455C352.797,-615.001 344.501,-551.693 337.687,-499.688"/>
<polygon fill="none" stroke="#404040" points="337.682,-499.655 332.937,-494.225 336.123,-487.756 340.869,-493.186 337.682,-499.655"/>
<text text-anchor="middle" x="369" y="-619" font-family="Helvetica,sans-Serif" font-size="10.00"> +t2s</text>
<text text-anchor="middle" x="369" y="-608" font-family="Helvetica,sans-Serif" font-size="10.00">+s2t</text>
<text text-anchor="middle" x="369" y="-597" font-family="Helvetica,sans-Serif" font-size="10.00">+dt2s</text>
<text text-anchor="middle" x="369" y="-586" font-family="Helvetica,sans-Serif" font-size="10.00">+ds2t</text>
<text text-anchor="middle" x="369" y="-575" font-family="Helvetica,sans-Serif" font-size="10.00">+s2j</text>
<text text-anchor="middle" x="369" y="-564" font-family="Helvetica,sans-Serif" font-size="10.00">+j2s</text>
<text text-anchor="middle" x="369" y="-553" font-family="Helvetica,sans-Serif" font-size="10.00">+t2j</text>
<text text-anchor="middle" x="369" y="-542" font-family="Helvetica,sans-Serif" font-size="10.00">+j2t</text>
<text text-anchor="middle" x="369" y="-531" font-family="Helvetica,sans-Serif" font-size="10.00">+dde2j</text>
<text text-anchor="middle" x="369" y="-520" font-family="Helvetica,sans-Serif" font-size="10.00">+e2j</text>
<text text-anchor="middle" x="369" y="-509" font-family="Helvetica,sans-Serif" font-size="10.00">...</text>
</g>
<!-- Node15 -->
<g id="node15" class="node"><title>Node15</title>
<g id="a_node15"><a xlink:href="structextraatt.html" target="_top" xlink:title="Additional parameters relating to position that need only be calculated once. ">
<polygon fill="white" stroke="black" points="381,-375.5 381,-443.5 455,-443.5 455,-375.5 381,-375.5"/>
<text text-anchor="middle" x="418" y="-431.5" font-family="Helvetica,sans-Serif" font-size="10.00">extraatt</text>
<polyline fill="none" stroke="black" points="381,-424.5 455,-424.5 "/>
<text text-anchor="start" x="389" y="-412.5" font-family="Helvetica,sans-Serif" font-size="10.00">+ utc</text>
<polyline fill="none" stroke="black" points="381,-405.5 455,-405.5 "/>
<text text-anchor="start" x="389" y="-393.5" font-family="Helvetica,sans-Serif" font-size="10.00">+ to_json()</text>
<text text-anchor="start" x="389" y="-382.5" font-family="Helvetica,sans-Serif" font-size="10.00">+ from_json()</text>
</a>
</g>
</g>
<!-- Node10&#45;&gt;Node15 -->
<g id="edge19" class="edge"><title>Node10&#45;&gt;Node15</title>
<path fill="none" stroke="#404040" d="M379.883,-656.159C382.9,-646.628 385.798,-636.549 388,-627 401.455,-568.655 409.721,-499.981 414.083,-455.878"/>
<polygon fill="none" stroke="#404040" points="414.091,-455.79 410.682,-449.435 415.236,-443.844 418.646,-450.199 414.091,-455.79"/>
<text text-anchor="middle" x="419" y="-569.5" font-family="Helvetica,sans-Serif" font-size="10.00"> +b2j</text>
<text text-anchor="middle" x="419" y="-558.5" font-family="Helvetica,sans-Serif" font-size="10.00">+j2b</text>
</g>
<!-- Node11 -->
<g id="node11" class="node"><title>Node11</title>
<g id="a_node11"><a xlink:href="structattstruc.html" target="_top" xlink:title="{attstruc\n|+ utc\l|+ to_json()\l+ from_json()\l}">
<polygon fill="white" stroke="black" points="381,-144 381,-212 455,-212 455,-144 381,-144"/>
<text text-anchor="middle" x="418" y="-200" font-family="Helvetica,sans-Serif" font-size="10.00">attstruc</text>
<polyline fill="none" stroke="black" points="381,-193 455,-193 "/>
<text text-anchor="start" x="389" y="-181" font-family="Helvetica,sans-Serif" font-size="10.00">+ utc</text>
<polyline fill="none" stroke="black" points="381,-174 455,-174 "/>
<text text-anchor="start" x="389" y="-162" font-family="Helvetica,sans-Serif" font-size="10.00">+ to_json()</text>
<text text-anchor="start" x="389" y="-151" font-family="Helvetica,sans-Serif" font-size="10.00">+ from_json()</text>
</a>
</g>
</g>
<!-- Node11&#45;&gt;Node1 -->
<g id="edge13" class="edge"><title>Node11&#45;&gt;Node1</title>
<path fill="none" stroke="#404040" d="M402.057,-143.825C392.915,-124.802 381.32,-100.674 371.395,-80.0203"/>
<polygon fill="none" stroke="#404040" points="371.277,-79.7738 365.072,-76.0984 366.079,-68.9579 372.283,-72.6332 371.277,-79.7738"/>
<text text-anchor="middle" x="390.5" y="-90" font-family="Helvetica,sans-Serif" font-size="10.00"> +att</text>
</g>
<!-- Node12&#45;&gt;Node11 -->
<g id="edge14" class="edge"><title>Node12&#45;&gt;Node11</title>
<path fill="none" stroke="#404040" d="M496.053,-369.92C484.853,-339.38 468.491,-295.736 453,-258 448.391,-246.774 443.2,-234.753 438.255,-223.562"/>
<polygon fill="none" stroke="#404040" points="438.107,-223.23 432.012,-219.376 433.225,-212.268 439.32,-216.122 438.107,-223.23"/>
<text text-anchor="middle" x="489" y="-305" font-family="Helvetica,sans-Serif" font-size="10.00"> +selc</text>
<text text-anchor="middle" x="489" y="-294" font-family="Helvetica,sans-Serif" font-size="10.00">+topo</text>
<text text-anchor="middle" x="489" y="-283" font-family="Helvetica,sans-Serif" font-size="10.00">+icrf</text>
<text text-anchor="middle" x="489" y="-272" font-family="Helvetica,sans-Serif" font-size="10.00">+geoc</text>
<text text-anchor="middle" x="489" y="-261" font-family="Helvetica,sans-Serif" font-size="10.00">+lvlh</text>
</g>
<!-- Node13 -->
<g id="node13" class="node"><title>Node13</title>
<g id="a_node13"><a xlink:href="structquaternion.html" target="_top" xlink:title="Quaternion, scalar last, using x, y, z. ">
<polygon fill="white" stroke="black" points="480.5,-656.5 480.5,-746.5 557.5,-746.5 557.5,-656.5 480.5,-656.5"/>
<text text-anchor="middle" x="519" y="-734.5" font-family="Helvetica,sans-Serif" font-size="10.00">quaternion</text>
<polyline fill="none" stroke="black" points="480.5,-727.5 557.5,-727.5 "/>
<text text-anchor="start" x="488.5" y="-715.5" font-family="Helvetica,sans-Serif" font-size="10.00">+ w</text>
<polyline fill="none" stroke="black" points="480.5,-708.5 557.5,-708.5 "/>
<text text-anchor="start" x="488.5" y="-696.5" font-family="Helvetica,sans-Serif" font-size="10.00">+ quaternion()</text>
<text text-anchor="start" x="488.5" y="-685.5" font-family="Helvetica,sans-Serif" font-size="10.00">+ quaternion()</text>
<text text-anchor="start" x="488.5" y="-674.5" font-family="Helvetica,sans-Serif" font-size="10.00">+ to_json()</text>
<text text-anchor="start" x="488.5" y="-663.5" font-family="Helvetica,sans-Serif" font-size="10.00">+ from_json()</text>
</a>
</g>
</g>
<!-- Node13&#45;&gt;Node12 -->
<g id="edge15" class="edge"><title>Node13&#45;&gt;Node12</title>
<path fill="none" stroke="#404040" d="M517.633,-656.455C516.009,-604.123 513.304,-516.962 511.588,-461.682"/>
<polygon fill="none" stroke="#404040" points="511.579,-461.37 507.395,-455.497 511.206,-449.376 515.391,-455.249 511.579,-461.37"/>
<text text-anchor="middle" x="524.5" y="-564" font-family="Helvetica,sans-Serif" font-size="10.00"> +s</text>
</g>
<!-- Node14 -->
<g id="node14" class="node"><title>Node14</title>
<g id="a_node14"><a xlink:href="classcvector.html" target="_top" xlink:title="3 element cartesian vector ">
<polygon fill="white" stroke="black" points="479.5,-827.5 479.5,-1005.5 558.5,-1005.5 558.5,-827.5 479.5,-827.5"/>
<text text-anchor="middle" x="519" y="-993.5" font-family="Helvetica,sans-Serif" font-size="10.00">cvector</text>
<polyline fill="none" stroke="black" points="479.5,-986.5 558.5,-986.5 "/>
<text text-anchor="start" x="487.5" y="-974.5" font-family="Helvetica,sans-Serif" font-size="10.00">+ x</text>
<text text-anchor="start" x="487.5" y="-963.5" font-family="Helvetica,sans-Serif" font-size="10.00">+ y</text>
<text text-anchor="start" x="487.5" y="-952.5" font-family="Helvetica,sans-Serif" font-size="10.00">+ z</text>
<polyline fill="none" stroke="black" points="479.5,-945.5 558.5,-945.5 "/>
<text text-anchor="start" x="487.5" y="-933.5" font-family="Helvetica,sans-Serif" font-size="10.00">+ cvector()</text>
<text text-anchor="start" x="487.5" y="-922.5" font-family="Helvetica,sans-Serif" font-size="10.00">+ cvector()</text>
<text text-anchor="start" x="487.5" y="-911.5" font-family="Helvetica,sans-Serif" font-size="10.00">+ normalize()</text>
<text text-anchor="start" x="487.5" y="-900.5" font-family="Helvetica,sans-Serif" font-size="10.00">+ length()</text>
<text text-anchor="start" x="487.5" y="-889.5" font-family="Helvetica,sans-Serif" font-size="10.00">+ norm()</text>
<text text-anchor="start" x="487.5" y="-878.5" font-family="Helvetica,sans-Serif" font-size="10.00">+ norm2()</text>
<text text-anchor="start" x="487.5" y="-867.5" font-family="Helvetica,sans-Serif" font-size="10.00">+ normalized()</text>
<text text-anchor="start" x="487.5" y="-856.5" font-family="Helvetica,sans-Serif" font-size="10.00">+ operator[]()</text>
<text text-anchor="start" x="487.5" y="-845.5" font-family="Helvetica,sans-Serif" font-size="10.00">+ to_json()</text>
<text text-anchor="start" x="487.5" y="-834.5" font-family="Helvetica,sans-Serif" font-size="10.00">+ from_json()</text>
</a>
</g>
</g>
<!-- Node14&#45;&gt;Node13 -->
<g id="edge16" class="edge"><title>Node14&#45;&gt;Node13</title>
<path fill="none" stroke="#404040" d="M519,-827.327C519,-804.188 519,-779.858 519,-758.886"/>
<polygon fill="none" stroke="#404040" points="519,-758.633 515,-752.633 519,-746.633 523,-752.633 519,-758.633"/>
<text text-anchor="middle" x="526.5" y="-790" font-family="Helvetica,sans-Serif" font-size="10.00"> +d</text>
</g>
<!-- Node15&#45;&gt;Node11 -->
<g id="edge18" class="edge"><title>Node15&#45;&gt;Node11</title>
<path fill="none" stroke="#404040" d="M418,-375.129C418,-335.328 418,-268.617 418,-224.211"/>
<polygon fill="none" stroke="#404040" points="418,-224.039 414,-218.039 418,-212.039 422,-218.039 418,-224.039"/>
<text text-anchor="middle" x="433.5" y="-283" font-family="Helvetica,sans-Serif" font-size="10.00"> +extra</text>
</g>
</g>
</svg>
        <g id="navigator" transform="translate(0 0)" fill="#404254">
                <rect fill="#f2f5e9" fill-opacity="0.5" stroke="#606060" stroke-width=".5" x="0" y="0" width="60" height="60"/>
                <use id="zoomplus" xlink:href="#zoomPlus" x="17" y="9" onmousedown="handleZoom(evt,'in')"/>
                <use id="zoomminus" xlink:href="#zoomMin" x="42" y="9" onmousedown="handleZoom(evt,'out')"/>
                <use id="reset" xlink:href="#resetDef" x="30" y="36" onmousedown="handleReset()"/>
                <g id="arrowUp" xlink:href="#dirArrow" transform="translate(30 24)" onmousedown="handlePan(0,-1)">
                  <use xlink:href="#rim" fill="#404040">
                        <set attributeName="fill" to="#808080" begin="arrowUp.mouseover" end="arrowUp.mouseout"/>
                  </use>
                  <path fill="none" stroke="white" stroke-width="1.5" d="M0,-3.0v7 M-2.5,-0.5L0,-3.0L2.5,-0.5"/>
                </g>
                <g id="arrowRight" xlink:href="#dirArrow" transform="rotate(90) translate(36 -43)" onmousedown="handlePan(1,0)">
                  <use xlink:href="#rim" fill="#404040">
                        <set attributeName="fill" to="#808080" begin="arrowRight.mouseover" end="arrowRight.mouseout"/>
                  </use>
                  <path fill="none" stroke="white" stroke-width="1.5" d="M0,-3.0v7 M-2.5,-0.5L0,-3.0L2.5,-0.5"/>
                </g>
                <g id="arrowDown" xlink:href="#dirArrow" transform="rotate(180) translate(-30 -48)" onmousedown="handlePan(0,1)">
                  <use xlink:href="#rim" fill="#404040">
                        <set attributeName="fill" to="#808080" begin="arrowDown.mouseover" end="arrowDown.mouseout"/>
                  </use>
                  <path fill="none" stroke="white" stroke-width="1.5" d="M0,-3.0v7 M-2.5,-0.5L0,-3.0L2.5,-0.5"/>
                </g>
                <g id="arrowLeft" xlink:href="#dirArrow" transform="rotate(270) translate(-36 17)" onmousedown="handlePan(-1,0)">
                  <use xlink:href="#rim" fill="#404040">
                        <set attributeName="fill" to="#808080" begin="arrowLeft.mouseover" end="arrowLeft.mouseout"/>
                  </use>
                  <path fill="none" stroke="white" stroke-width="1.5" d="M0,-3.0v7 M-2.5,-0.5L0,-3.0L2.5,-0.5"/>
                </g>
        </g>
        <svg viewBox="0 0 15 15" width="100%" height="30px" preserveAspectRatio="xMaxYMin meet">
         <g id="arrow_out" transform="scale(0.3 0.3)">
          <a xlink:href="structlocstruc__coll__graph_org.svg" target="_base">
           <rect id="button" ry="5" rx="5" y="6" x="6" height="38" width="38"
                fill="#f2f5e9" fill-opacity="0.5" stroke="#606060" stroke-width="1.0"/>
           <path id="arrow"
             d="M 11.500037,31.436501 C 11.940474,20.09759 22.043105,11.32322 32.158766,21.979434 L 37.068811,17.246167 C 37.068811,17.246167 37.088388,32 37.088388,32 L 22.160133,31.978069 C 22.160133,31.978069 26.997745,27.140456 26.997745,27.140456 C 18.528582,18.264221 13.291696,25.230495 11.500037,31.436501 z"
             style="fill:#404040;"/>
          </a>
         </g>
        </svg>
</svg>
