<?xml version="1.0" encoding="UTF-8" standalone="no"?>
<!DOCTYPE svg PUBLIC "-//W3C//DTD SVG 1.1//EN"
 "http://www.w3.org/Graphics/SVG/1.1/DTD/svg11.dtd">
<!-- Generated by graphviz version 2.38.0 (20140413.2041)
 -->
<!-- Title: Cosmos::Support::Json::Value Pages: 1 -->
<svg width="337pt" height="237pt"
 viewBox="0.00 0.00 337.00 237.00" xmlns="http://www.w3.org/2000/svg" xmlns:xlink="http://www.w3.org/1999/xlink">
<g id="graph0" class="graph" transform="scale(1 1) rotate(0) translate(4 233)">
<title>Cosmos::Support::Json::Value</title>
<polygon fill="white" stroke="none" points="-4,4 -4,-233 333,-233 333,4 -4,4"/>
<!-- Node1 -->
<g id="node1" class="node"><title>Node1</title>
<polygon fill="#bfbfbf" stroke="black" points="148.5,-0.5 148.5,-112.5 268.5,-112.5 268.5,-0.5 148.5,-0.5"/>
<text text-anchor="start" x="156.5" y="-100.5" font-family="Helvetica,sans-Serif" font-size="10.00">Cosmos::Support::Json</text>
<text text-anchor="middle" x="208.5" y="-89.5" font-family="Helvetica,sans-Serif" font-size="10.00">::Value</text>
<polyline fill="none" stroke="black" points="148.5,-82.5 268.5,-82.5 "/>
<text text-anchor="start" x="156.5" y="-70.5" font-family="Helvetica,sans-Serif" font-size="10.00">+ type</text>
<text text-anchor="start" x="156.5" y="-59.5" font-family="Helvetica,sans-Serif" font-size="10.00">+ nvalue</text>
<text text-anchor="start" x="156.5" y="-48.5" font-family="Helvetica,sans-Serif" font-size="10.00">+ bvalue</text>
<text text-anchor="start" x="156.5" y="-37.5" font-family="Helvetica,sans-Serif" font-size="10.00">+ begin</text>
<text text-anchor="start" x="156.5" y="-26.5" font-family="Helvetica,sans-Serif" font-size="10.00">+ end</text>
<polyline fill="none" stroke="black" points="148.5,-19.5 268.5,-19.5 "/>
<text text-anchor="middle" x="208.5" y="-7.5" font-family="Helvetica,sans-Serif" font-size="10.00"> </text>
</g>
<!-- Node2 -->
<g id="node2" class="node"><title>Node2</title>
<polygon fill="white" stroke="#bfbfbf" points="0,-160.5 0,-228.5 129,-228.5 129,-160.5 0,-160.5"/>
<text text-anchor="start" x="8" y="-216.5" font-family="Helvetica,sans-Serif" font-size="10.00">vector&lt; Cosmos::Support</text>
<text text-anchor="middle" x="64.5" y="-205.5" font-family="Helvetica,sans-Serif" font-size="10.00">::Json::Value &gt;</text>
<polyline fill="none" stroke="#bfbfbf" points="0,-198.5 129,-198.5 "/>
<text text-anchor="middle" x="64.5" y="-186.5" font-family="Helvetica,sans-Serif" font-size="10.00"> </text>
<polyline fill="none" stroke="#bfbfbf" points="0,-179.5 129,-179.5 "/>
<text text-anchor="middle" x="64.5" y="-167.5" font-family="Helvetica,sans-Serif" font-size="10.00"> </text>
</g>
<!-- Node2&#45;&gt;Node1 -->
<g id="edge1" class="edge"><title>Node2&#45;&gt;Node1</title>
<path fill="none" stroke="#404040" d="M99.7264,-160.231C112.276,-148.378 126.863,-134.602 141.2,-121.061"/>
<polygon fill="none" stroke="#404040" points="141.35,-120.92 142.965,-113.892 150.074,-112.68 148.458,-119.708 141.35,-120.92"/>
<text text-anchor="middle" x="144" y="-134" font-family="Helvetica,sans-Serif" font-size="10.00"> +array</text>
</g>
<!-- Node3 -->
<g id="node3" class="node"><title>Node3</title>
<polygon fill="white" stroke="#bfbfbf" points="147,-160.5 147,-228.5 270,-228.5 270,-160.5 147,-160.5"/>
<text text-anchor="start" x="155" y="-216.5" font-family="Helvetica,sans-Serif" font-size="10.00">map&lt; string, Cosmos</text>
<text text-anchor="middle" x="208.5" y="-205.5" font-family="Helvetica,sans-Serif" font-size="10.00">::Support::Json::Value &gt;</text>
<polyline fill="none" stroke="#bfbfbf" points="147,-198.5 270,-198.5 "/>
<text text-anchor="middle" x="208.5" y="-186.5" font-family="Helvetica,sans-Serif" font-size="10.00"> </text>
<polyline fill="none" stroke="#bfbfbf" points="147,-179.5 270,-179.5 "/>
<text text-anchor="middle" x="208.5" y="-167.5" font-family="Helvetica,sans-Serif" font-size="10.00"> </text>
</g>
<!-- Node3&#45;&gt;Node1 -->
<g id="edge2" class="edge"><title>Node3&#45;&gt;Node1</title>
<path fill="none" stroke="#404040" d="M208.5,-160.231C208.5,-149.497 208.5,-137.184 208.5,-124.898"/>
<polygon fill="none" stroke="#404040" points="208.5,-124.68 204.5,-118.68 208.5,-112.68 212.5,-118.68 208.5,-124.68"/>
<text text-anchor="middle" x="226.5" y="-134" font-family="Helvetica,sans-Serif" font-size="10.00"> +object</text>
</g>
<!-- Node4 -->
<g id="node4" class="node"><title>Node4</title>
<polygon fill="white" stroke="#bfbfbf" points="288,-166 288,-223 329,-223 329,-166 288,-166"/>
<text text-anchor="middle" x="308.5" y="-211" font-family="Helvetica,sans-Serif" font-size="10.00">string</text>
<polyline fill="none" stroke="#bfbfbf" points="288,-204 329,-204 "/>
<text text-anchor="middle" x="308.5" y="-192" font-family="Helvetica,sans-Serif" font-size="10.00"> </text>
<polyline fill="none" stroke="#bfbfbf" points="288,-185 329,-185 "/>
<text text-anchor="middle" x="308.5" y="-173" font-family="Helvetica,sans-Serif" font-size="10.00"> </text>
</g>
<!-- Node4&#45;&gt;Node1 -->
<g id="edge3" class="edge"><title>Node4&#45;&gt;Node1</title>
<path fill="none" stroke="#404040" d="M288.264,-165.978C278.994,-153.372 267.579,-137.847 256.312,-122.524"/>
<polygon fill="none" stroke="#404040" points="256.062,-122.184 249.285,-119.72 248.953,-112.516 255.73,-114.981 256.062,-122.184"/>
<text text-anchor="middle" x="288.5" y="-134" font-family="Helvetica,sans-Serif" font-size="10.00"> +svalue</text>
</g>
</g>
</svg>
