<?xml version="1.0" encoding="UTF-8" standalone="no"?>
<!DOCTYPE svg PUBLIC "-//W3C//DTD SVG 1.1//EN"
 "http://www.w3.org/Graphics/SVG/1.1/DTD/svg11.dtd">
<!-- Generated by graphviz version 2.38.0 (20140413.2041)
 -->
<!-- Title: kpc9612p_handle Pages: 1 -->
<svg width="240pt" height="292pt"
 viewBox="0.00 0.00 239.50 292.00" xmlns="http://www.w3.org/2000/svg" xmlns:xlink="http://www.w3.org/1999/xlink">
<g id="graph0" class="graph" transform="scale(1 1) rotate(0) translate(4 288)">
<title>kpc9612p_handle</title>
<polygon fill="white" stroke="none" points="-4,4 -4,-288 235.5,-288 235.5,4 -4,4"/>
<!-- Node1 -->
<g id="node1" class="node"><title>Node1</title>
<polygon fill="#bfbfbf" stroke="black" points="49.5,-0.5 49.5,-57.5 141.5,-57.5 141.5,-0.5 49.5,-0.5"/>
<text text-anchor="middle" x="95.5" y="-45.5" font-family="Helvetica,sans-Serif" font-size="10.00">kpc9612p_handle</text>
<polyline fill="none" stroke="black" points="49.5,-38.5 141.5,-38.5 "/>
<text text-anchor="start" x="57.5" y="-26.5" font-family="Helvetica,sans-Serif" font-size="10.00">+ flag</text>
<polyline fill="none" stroke="black" points="49.5,-19.5 141.5,-19.5 "/>
<text text-anchor="middle" x="95.5" y="-7.5" font-family="Helvetica,sans-Serif" font-size="10.00"> </text>
</g>
<!-- Node2 -->
<g id="node2" class="node"><title>Node2</title>
<g id="a_node2"><a xlink:href="structkpc9612p__frame.html" target="_top" xlink:title="{kpc9612p_frame\n|+ flag\l+ destination_address\l+ source_address\l+ control\l+ protocol_id\l+ header\l+ preamble\l+ payload\l+ part\l+ full\l+ @13\l+ size\l|}">
<polygon fill="white" stroke="black" points="0,-105.5 0,-283.5 113,-283.5 113,-105.5 0,-105.5"/>
<text text-anchor="middle" x="56.5" y="-271.5" font-family="Helvetica,sans-Serif" font-size="10.00">kpc9612p_frame</text>
<polyline fill="none" stroke="black" points="0,-264.5 113,-264.5 "/>
<text text-anchor="start" x="8" y="-252.5" font-family="Helvetica,sans-Serif" font-size="10.00">+ flag</text>
<text text-anchor="start" x="8" y="-241.5" font-family="Helvetica,sans-Serif" font-size="10.00">+ destination_address</text>
<text text-anchor="start" x="8" y="-230.5" font-family="Helvetica,sans-Serif" font-size="10.00">+ source_address</text>
<text text-anchor="start" x="8" y="-219.5" font-family="Helvetica,sans-Serif" font-size="10.00">+ control</text>
<text text-anchor="start" x="8" y="-208.5" font-family="Helvetica,sans-Serif" font-size="10.00">+ protocol_id</text>
<text text-anchor="start" x="8" y="-197.5" font-family="Helvetica,sans-Serif" font-size="10.00">+ header</text>
<text text-anchor="start" x="8" y="-186.5" font-family="Helvetica,sans-Serif" font-size="10.00">+ preamble</text>
<text text-anchor="start" x="8" y="-175.5" font-family="Helvetica,sans-Serif" font-size="10.00">+ payload</text>
<text text-anchor="start" x="8" y="-164.5" font-family="Helvetica,sans-Serif" font-size="10.00">+ part</text>
<text text-anchor="start" x="8" y="-153.5" font-family="Helvetica,sans-Serif" font-size="10.00">+ full</text>
<text text-anchor="start" x="8" y="-142.5" font-family="Helvetica,sans-Serif" font-size="10.00">+ @13</text>
<text text-anchor="start" x="8" y="-131.5" font-family="Helvetica,sans-Serif" font-size="10.00">+ size</text>
<polyline fill="none" stroke="black" points="0,-124.5 113,-124.5 "/>
<text text-anchor="middle" x="56.5" y="-112.5" font-family="Helvetica,sans-Serif" font-size="10.00"> </text>
</a>
</g>
</g>
<!-- Node2&#45;&gt;Node1 -->
<g id="edge1" class="edge"><title>Node2&#45;&gt;Node1</title>
<path fill="none" stroke="#404040" d="M72.361,-105.285C74.5619,-95.3598 76.9505,-85.4311 79.5,-76 80.1123,-73.7349 80.7799,-71.4204 81.4835,-69.0938"/>
<polygon fill="none" stroke="#404040" points="81.529,-68.9528 79.5646,-62.0144 85.2137,-57.5325 87.1781,-64.4709 81.529,-68.9528"/>
<text text-anchor="middle" x="96.5" y="-79" font-family="Helvetica,sans-Serif" font-size="10.00"> +frame</text>
</g>
<!-- Node3 -->
<g id="node3" class="node"><title>Node3</title>
<g id="a_node3"><a xlink:href="struct____cssl__t.html" target="_top" xlink:title="{__cssl_t\n|+ buffer\l+ fd\l+ dcb\l+ olddcb\l+ handle\l+ baud\l|}">
<polygon fill="white" stroke="black" points="131.5,-138.5 131.5,-250.5 185.5,-250.5 185.5,-138.5 131.5,-138.5"/>
<text text-anchor="middle" x="158.5" y="-238.5" font-family="Helvetica,sans-Serif" font-size="10.00">__cssl_t</text>
<polyline fill="none" stroke="black" points="131.5,-231.5 185.5,-231.5 "/>
<text text-anchor="start" x="139.5" y="-219.5" font-family="Helvetica,sans-Serif" font-size="10.00">+ buffer</text>
<text text-anchor="start" x="139.5" y="-208.5" font-family="Helvetica,sans-Serif" font-size="10.00">+ fd</text>
<text text-anchor="start" x="139.5" y="-197.5" font-family="Helvetica,sans-Serif" font-size="10.00">+ dcb</text>
<text text-anchor="start" x="139.5" y="-186.5" font-family="Helvetica,sans-Serif" font-size="10.00">+ olddcb</text>
<text text-anchor="start" x="139.5" y="-175.5" font-family="Helvetica,sans-Serif" font-size="10.00">+ handle</text>
<text text-anchor="start" x="139.5" y="-164.5" font-family="Helvetica,sans-Serif" font-size="10.00">+ baud</text>
<polyline fill="none" stroke="black" points="131.5,-157.5 185.5,-157.5 "/>
<text text-anchor="middle" x="158.5" y="-145.5" font-family="Helvetica,sans-Serif" font-size="10.00"> </text>
</a>
</g>
</g>
<!-- Node3&#45;&gt;Node1 -->
<g id="edge2" class="edge"><title>Node3&#45;&gt;Node1</title>
<path fill="none" stroke="#404040" d="M137.52,-138.474C129.978,-118.756 121.386,-96.3709 113.5,-76 112.605,-73.6883 111.683,-71.3121 110.751,-68.9155"/>
<polygon fill="none" stroke="#404040" points="110.744,-68.8976 104.837,-64.761 106.383,-57.7177 112.29,-61.8542 110.744,-68.8976"/>
<text text-anchor="middle" x="134" y="-79" font-family="Helvetica,sans-Serif" font-size="10.00"> +serial</text>
</g>
<!-- Node3&#45;&gt;Node3 -->
<g id="edge3" class="edge"><title>Node3&#45;&gt;Node3</title>
<path fill="none" stroke="#404040" d="M185.741,-215.479C195.524,-215.931 203.5,-208.938 203.5,-194.5 203.5,-186.604 201.115,-180.935 197.353,-177.493"/>
<polygon fill="none" stroke="#404040" points="197.095,-177.405 190.123,-179.247 185.741,-173.521 192.712,-171.678 197.095,-177.405"/>
<text text-anchor="middle" x="217.5" y="-192" font-family="Helvetica,sans-Serif" font-size="10.00"> +next</text>
</g>
</g>
</svg>
