<?xml version="1.0" encoding="UTF-8" standalone="no"?>
<!DOCTYPE svg PUBLIC "-//W3C//DTD SVG 1.1//EN"
 "http://www.w3.org/Graphics/SVG/1.1/DTD/svg11.dtd">
<!-- Generated by graphviz version 2.38.0 (20140413.2041)
 -->
<!-- Title: user_chunk_data Pages: 1 -->
<svg width="113pt" height="496pt"
 viewBox="0.00 0.00 113.00 496.00" xmlns="http://www.w3.org/2000/svg" xmlns:xlink="http://www.w3.org/1999/xlink">
<g id="graph0" class="graph" transform="scale(1 1) rotate(0) translate(4 492)">
<title>user_chunk_data</title>
<polygon fill="white" stroke="none" points="-4,4 -4,-492 109,-492 109,4 -4,4"/>
<!-- Node1 -->
<g id="node1" class="node"><title>Node1</title>
<polygon fill="#bfbfbf" stroke="black" points="7,-0.5 7,-101.5 98,-101.5 98,-0.5 7,-0.5"/>
<text text-anchor="middle" x="52.5" y="-89.5" font-family="Helvetica,sans-Serif" font-size="10.00">user_chunk_data</text>
<polyline fill="none" stroke="black" points="7,-82.5 98,-82.5 "/>
<text text-anchor="start" x="15" y="-70.5" font-family="Helvetica,sans-Serif" font-size="10.00">+ vpAg_width</text>
<text text-anchor="start" x="15" y="-59.5" font-family="Helvetica,sans-Serif" font-size="10.00">+ vpAg_height</text>
<text text-anchor="start" x="15" y="-48.5" font-family="Helvetica,sans-Serif" font-size="10.00">+ vpAg_units</text>
<text text-anchor="start" x="15" y="-37.5" font-family="Helvetica,sans-Serif" font-size="10.00">+ sTER_mode</text>
<text text-anchor="start" x="15" y="-26.5" font-family="Helvetica,sans-Serif" font-size="10.00">+ location</text>
<polyline fill="none" stroke="black" points="7,-19.5 98,-19.5 "/>
<text text-anchor="middle" x="52.5" y="-7.5" font-family="Helvetica,sans-Serif" font-size="10.00"> </text>
</g>
<!-- Node2 -->
<g id="node2" class="node"><title>Node2</title>
<g id="a_node2"><a xlink:href="structpng__info__def.html" target="_top" xlink:title="{png_info_def\n|+ width\l+ height\l+ valid\l+ rowbytes\l+ num_palette\l+ num_trans\l+ bit_depth\l+ color_type\l+ compression_type\l+ filter_type\l+ interlace_type\l+ channels\l+ pixel_depth\l+ spare_byte\l+ free_me\l|}">
<polygon fill="white" stroke="black" points="0,-149.5 0,-360.5 105,-360.5 105,-149.5 0,-149.5"/>
<text text-anchor="middle" x="52.5" y="-348.5" font-family="Helvetica,sans-Serif" font-size="10.00">png_info_def</text>
<polyline fill="none" stroke="black" points="0,-341.5 105,-341.5 "/>
<text text-anchor="start" x="8" y="-329.5" font-family="Helvetica,sans-Serif" font-size="10.00">+ width</text>
<text text-anchor="start" x="8" y="-318.5" font-family="Helvetica,sans-Serif" font-size="10.00">+ height</text>
<text text-anchor="start" x="8" y="-307.5" font-family="Helvetica,sans-Serif" font-size="10.00">+ valid</text>
<text text-anchor="start" x="8" y="-296.5" font-family="Helvetica,sans-Serif" font-size="10.00">+ rowbytes</text>
<text text-anchor="start" x="8" y="-285.5" font-family="Helvetica,sans-Serif" font-size="10.00">+ num_palette</text>
<text text-anchor="start" x="8" y="-274.5" font-family="Helvetica,sans-Serif" font-size="10.00">+ num_trans</text>
<text text-anchor="start" x="8" y="-263.5" font-family="Helvetica,sans-Serif" font-size="10.00">+ bit_depth</text>
<text text-anchor="start" x="8" y="-252.5" font-family="Helvetica,sans-Serif" font-size="10.00">+ color_type</text>
<text text-anchor="start" x="8" y="-241.5" font-family="Helvetica,sans-Serif" font-size="10.00">+ compression_type</text>
<text text-anchor="start" x="8" y="-230.5" font-family="Helvetica,sans-Serif" font-size="10.00">+ filter_type</text>
<text text-anchor="start" x="8" y="-219.5" font-family="Helvetica,sans-Serif" font-size="10.00">+ interlace_type</text>
<text text-anchor="start" x="8" y="-208.5" font-family="Helvetica,sans-Serif" font-size="10.00">+ channels</text>
<text text-anchor="start" x="8" y="-197.5" font-family="Helvetica,sans-Serif" font-size="10.00">+ pixel_depth</text>
<text text-anchor="start" x="8" y="-186.5" font-family="Helvetica,sans-Serif" font-size="10.00">+ spare_byte</text>
<text text-anchor="start" x="8" y="-175.5" font-family="Helvetica,sans-Serif" font-size="10.00">+ free_me</text>
<polyline fill="none" stroke="black" points="0,-168.5 105,-168.5 "/>
<text text-anchor="middle" x="52.5" y="-156.5" font-family="Helvetica,sans-Serif" font-size="10.00"> </text>
</a>
</g>
</g>
<!-- Node2&#45;&gt;Node1 -->
<g id="edge1" class="edge"><title>Node2&#45;&gt;Node1</title>
<path fill="none" stroke="#404040" d="M52.5,-149.45C52.5,-137.349 52.5,-125.317 52.5,-114.048"/>
<polygon fill="none" stroke="#404040" points="52.5001,-113.688 48.5,-107.688 52.5,-101.688 56.5,-107.688 52.5001,-113.688"/>
<text text-anchor="middle" x="73.5" y="-123" font-family="Helvetica,sans-Serif" font-size="10.00"> +info_ptr</text>
</g>
<!-- Node3 -->
<g id="node3" class="node"><title>Node3</title>
<g id="a_node3"><a xlink:href="structpng__color__struct.html" target="_top" xlink:title="{png_color_struct\n|+ red\l+ green\l+ blue\l|}">
<polygon fill="white" stroke="black" points="8,-408.5 8,-487.5 97,-487.5 97,-408.5 8,-408.5"/>
<text text-anchor="middle" x="52.5" y="-475.5" font-family="Helvetica,sans-Serif" font-size="10.00">png_color_struct</text>
<polyline fill="none" stroke="black" points="8,-468.5 97,-468.5 "/>
<text text-anchor="start" x="16" y="-456.5" font-family="Helvetica,sans-Serif" font-size="10.00">+ red</text>
<text text-anchor="start" x="16" y="-445.5" font-family="Helvetica,sans-Serif" font-size="10.00">+ green</text>
<text text-anchor="start" x="16" y="-434.5" font-family="Helvetica,sans-Serif" font-size="10.00">+ blue</text>
<polyline fill="none" stroke="black" points="8,-427.5 97,-427.5 "/>
<text text-anchor="middle" x="52.5" y="-415.5" font-family="Helvetica,sans-Serif" font-size="10.00"> </text>
</a>
</g>
</g>
<!-- Node3&#45;&gt;Node2 -->
<g id="edge2" class="edge"><title>Node3&#45;&gt;Node2</title>
<path fill="none" stroke="#404040" d="M52.5,-408.348C52.5,-397.692 52.5,-385.551 52.5,-372.881"/>
<polygon fill="none" stroke="#404040" points="52.5001,-372.603 48.5,-366.603 52.5,-360.603 56.5,-366.603 52.5001,-372.603"/>
<text text-anchor="middle" x="72" y="-382" font-family="Helvetica,sans-Serif" font-size="10.00"> +palette</text>
</g>
</g>
</svg>
