<?xml version="1.0" encoding="UTF-8" standalone="no"?>
<!DOCTYPE svg PUBLIC "-//W3C//DTD SVG 1.1//EN"
 "http://www.w3.org/Graphics/SVG/1.1/DTD/svg11.dtd">
<!-- Generated by graphviz version 2.38.0 (20140413.2041)
 -->
<!-- Title: png_dsort_struct Pages: 1 -->
<svg width="143pt" height="77pt"
 viewBox="0.00 0.00 143.00 77.00" xmlns="http://www.w3.org/2000/svg" xmlns:xlink="http://www.w3.org/1999/xlink">
<g id="graph0" class="graph" transform="scale(1 1) rotate(0) translate(4 73)">
<title>png_dsort_struct</title>
<polygon fill="white" stroke="none" points="-4,4 -4,-73 139,-73 139,4 -4,4"/>
<!-- Node1 -->
<g id="node1" class="node"><title>Node1</title>
<polygon fill="#bfbfbf" stroke="black" points="-7.10543e-15,-0.5 -7.10543e-15,-68.5 89,-68.5 89,-0.5 -7.10543e-15,-0.5"/>
<text text-anchor="middle" x="44.5" y="-56.5" font-family="Helvetica,sans-Serif" font-size="10.00">png_dsort_struct</text>
<polyline fill="none" stroke="black" points="-7.10543e-15,-49.5 89,-49.5 "/>
<text text-anchor="start" x="8" y="-37.5" font-family="Helvetica,sans-Serif" font-size="10.00">+ left</text>
<text text-anchor="start" x="8" y="-26.5" font-family="Helvetica,sans-Serif" font-size="10.00">+ right</text>
<polyline fill="none" stroke="black" points="-7.10543e-15,-19.5 89,-19.5 "/>
<text text-anchor="middle" x="44.5" y="-7.5" font-family="Helvetica,sans-Serif" font-size="10.00"> </text>
</g>
<!-- Node1&#45;&gt;Node1 -->
<g id="edge1" class="edge"><title>Node1&#45;&gt;Node1</title>
<path fill="none" stroke="#404040" d="M89.1631,-46.9691C99.4463,-45.8946 107,-41.7383 107,-34.5 107,-30.5416 104.741,-27.5048 101.012,-25.3898"/>
<polygon fill="none" stroke="#404040" points="100.708,-25.3039 93.8447,-27.5158 89.1631,-22.0309 96.0267,-19.8191 100.708,-25.3039"/>
<text text-anchor="middle" x="121" y="-32" font-family="Helvetica,sans-Serif" font-size="10.00"> +next</text>
</g>
</g>
</svg>
