<?xml version="1.0" encoding="UTF-8" standalone="no"?>
<!DOCTYPE svg PUBLIC "-//W3C//DTD SVG 1.1//EN"
 "http://www.w3.org/Graphics/SVG/1.1/DTD/svg11.dtd">
<!-- Generated by graphviz version 2.38.0 (20140413.2041)
 -->
<!-- Title: LsFit::fitelement Pages: 1 -->
<svg width="853pt" height="568pt"
 viewBox="0.00 0.00 853.00 568.00" xmlns="http://www.w3.org/2000/svg" xmlns:xlink="http://www.w3.org/1999/xlink">
<g id="graph0" class="graph" transform="scale(1 1) rotate(0) translate(4 564)">
<title>LsFit::fitelement</title>
<polygon fill="white" stroke="none" points="-4,4 -4,-564 849,-564 849,4 -4,4"/>
<!-- Node1 -->
<g id="node1" class="node"><title>Node1</title>
<polygon fill="#bfbfbf" stroke="black" points="372.5,-0.5 372.5,-57.5 459.5,-57.5 459.5,-0.5 372.5,-0.5"/>
<text text-anchor="middle" x="416" y="-45.5" font-family="Helvetica,sans-Serif" font-size="10.00">LsFit::fitelement</text>
<polyline fill="none" stroke="black" points="372.5,-38.5 459.5,-38.5 "/>
<text text-anchor="start" x="380.5" y="-26.5" font-family="Helvetica,sans-Serif" font-size="10.00">+ x</text>
<polyline fill="none" stroke="black" points="372.5,-19.5 459.5,-19.5 "/>
<text text-anchor="middle" x="416" y="-7.5" font-family="Helvetica,sans-Serif" font-size="10.00"> </text>
</g>
<!-- Node2 -->
<g id="node2" class="node"><title>Node2</title>
<g id="a_node2"><a xlink:href="unionuvector.html" target="_top" xlink:title="Quaternion/Rvector Union. ">
<polygon fill="white" stroke="black" points="391.5,-105.5 391.5,-162.5 440.5,-162.5 440.5,-105.5 391.5,-105.5"/>
<text text-anchor="middle" x="416" y="-150.5" font-family="Helvetica,sans-Serif" font-size="10.00">uvector</text>
<polyline fill="none" stroke="black" points="391.5,-143.5 440.5,-143.5 "/>
<text text-anchor="start" x="399.5" y="-131.5" font-family="Helvetica,sans-Serif" font-size="10.00">+ a4</text>
<polyline fill="none" stroke="black" points="391.5,-124.5 440.5,-124.5 "/>
<text text-anchor="middle" x="416" y="-112.5" font-family="Helvetica,sans-Serif" font-size="10.00"> </text>
</a>
</g>
</g>
<!-- Node2&#45;&gt;Node1 -->
<g id="edge1" class="edge"><title>Node2&#45;&gt;Node1</title>
<path fill="none" stroke="#404040" d="M416,-105.398C416,-94.5451 416,-81.8731 416,-70.0493"/>
<polygon fill="none" stroke="#404040" points="416,-69.6783 412,-63.6783 416,-57.6783 420,-63.6783 416,-69.6783"/>
<text text-anchor="middle" x="423.5" y="-79" font-family="Helvetica,sans-Serif" font-size="10.00"> +y</text>
</g>
<!-- Node3 -->
<g id="node3" class="node"><title>Node3</title>
<g id="a_node3"><a xlink:href="structmatrix1d.html" target="_top" xlink:title="n element row matrix ">
<polygon fill="white" stroke="black" points="0,-238 0,-306 54,-306 54,-238 0,-238"/>
<text text-anchor="middle" x="27" y="-294" font-family="Helvetica,sans-Serif" font-size="10.00">matrix1d</text>
<polyline fill="none" stroke="black" points="0,-287 54,-287 "/>
<text text-anchor="start" x="8" y="-275" font-family="Helvetica,sans-Serif" font-size="10.00">+ vector</text>
<text text-anchor="start" x="8" y="-264" font-family="Helvetica,sans-Serif" font-size="10.00">+ cols</text>
<polyline fill="none" stroke="black" points="0,-257 54,-257 "/>
<text text-anchor="middle" x="27" y="-245" font-family="Helvetica,sans-Serif" font-size="10.00"> </text>
</a>
</g>
</g>
<!-- Node3&#45;&gt;Node2 -->
<g id="edge2" class="edge"><title>Node3&#45;&gt;Node2</title>
<path fill="none" stroke="#404040" d="M40.7398,-237.859C46.3433,-227.706 53.7246,-217.303 63,-210 112.079,-171.359 298.864,-147.412 379.06,-138.711"/>
<polygon fill="none" stroke="#404040" points="379.488,-138.666 385.032,-134.055 391.421,-137.4 385.876,-142.01 379.488,-138.666"/>
<text text-anchor="middle" x="135.5" y="-184" font-family="Helvetica,sans-Serif" font-size="10.00"> +m1</text>
</g>
<!-- Node4 -->
<g id="node4" class="node"><title>Node4</title>
<g id="a_node4"><a xlink:href="structqlast.html" target="_top" xlink:title="Quaternion, scalar last, using vector elements. ">
<polygon fill="white" stroke="black" points="72,-210.5 72,-333.5 146,-333.5 146,-210.5 72,-210.5"/>
<text text-anchor="middle" x="109" y="-321.5" font-family="Helvetica,sans-Serif" font-size="10.00">qlast</text>
<polyline fill="none" stroke="black" points="72,-314.5 146,-314.5 "/>
<text text-anchor="start" x="80" y="-302.5" font-family="Helvetica,sans-Serif" font-size="10.00">+ q1</text>
<text text-anchor="start" x="80" y="-291.5" font-family="Helvetica,sans-Serif" font-size="10.00">+ q2</text>
<text text-anchor="start" x="80" y="-280.5" font-family="Helvetica,sans-Serif" font-size="10.00">+ q3</text>
<text text-anchor="start" x="80" y="-269.5" font-family="Helvetica,sans-Serif" font-size="10.00">+ q4</text>
<polyline fill="none" stroke="black" points="72,-262.5 146,-262.5 "/>
<text text-anchor="start" x="80" y="-250.5" font-family="Helvetica,sans-Serif" font-size="10.00">+ qlast()</text>
<text text-anchor="start" x="80" y="-239.5" font-family="Helvetica,sans-Serif" font-size="10.00">+ qlast()</text>
<text text-anchor="start" x="80" y="-228.5" font-family="Helvetica,sans-Serif" font-size="10.00">+ to_json()</text>
<text text-anchor="start" x="80" y="-217.5" font-family="Helvetica,sans-Serif" font-size="10.00">+ from_json()</text>
</a>
</g>
</g>
<!-- Node4&#45;&gt;Node2 -->
<g id="edge3" class="edge"><title>Node4&#45;&gt;Node2</title>
<path fill="none" stroke="#404040" d="M146.167,-218.346C149.017,-215.39 151.969,-212.578 155,-210 220.157,-154.565 324.074,-140.035 379.069,-136.273"/>
<polygon fill="none" stroke="#404040" points="379.328,-136.258 385.085,-131.916 391.307,-135.561 385.55,-139.903 379.328,-136.258"/>
<text text-anchor="middle" x="206.5" y="-184" font-family="Helvetica,sans-Serif" font-size="10.00"> +ql</text>
</g>
<!-- Node5 -->
<g id="node5" class="node"><title>Node5</title>
<g id="a_node5"><a xlink:href="structqcomplex.html" target="_top" xlink:title="Quaternion, scalar last, using imaginary elements. ">
<polygon fill="white" stroke="black" points="164,-210.5 164,-333.5 238,-333.5 238,-210.5 164,-210.5"/>
<text text-anchor="middle" x="201" y="-321.5" font-family="Helvetica,sans-Serif" font-size="10.00">qcomplex</text>
<polyline fill="none" stroke="black" points="164,-314.5 238,-314.5 "/>
<text text-anchor="start" x="172" y="-302.5" font-family="Helvetica,sans-Serif" font-size="10.00">+ i</text>
<text text-anchor="start" x="172" y="-291.5" font-family="Helvetica,sans-Serif" font-size="10.00">+ j</text>
<text text-anchor="start" x="172" y="-280.5" font-family="Helvetica,sans-Serif" font-size="10.00">+ k</text>
<text text-anchor="start" x="172" y="-269.5" font-family="Helvetica,sans-Serif" font-size="10.00">+ r</text>
<polyline fill="none" stroke="black" points="164,-262.5 238,-262.5 "/>
<text text-anchor="start" x="172" y="-250.5" font-family="Helvetica,sans-Serif" font-size="10.00">+ qcomplex()</text>
<text text-anchor="start" x="172" y="-239.5" font-family="Helvetica,sans-Serif" font-size="10.00">+ qcomplex()</text>
<text text-anchor="start" x="172" y="-228.5" font-family="Helvetica,sans-Serif" font-size="10.00">+ to_json()</text>
<text text-anchor="start" x="172" y="-217.5" font-family="Helvetica,sans-Serif" font-size="10.00">+ from_json()</text>
</a>
</g>
</g>
<!-- Node5&#45;&gt;Node2 -->
<g id="edge4" class="edge"><title>Node5&#45;&gt;Node2</title>
<path fill="none" stroke="#404040" d="M218.284,-210.258C223.734,-199.297 230.821,-188.87 240,-181 279.29,-147.314 340.396,-137.905 379.289,-135.496"/>
<polygon fill="none" stroke="#404040" points="379.335,-135.494 385.141,-131.217 391.322,-134.93 385.517,-139.208 379.335,-135.494"/>
<text text-anchor="middle" x="250" y="-184" font-family="Helvetica,sans-Serif" font-size="10.00"> +qc</text>
</g>
<!-- Node6 -->
<g id="node6" class="node"><title>Node6</title>
<g id="a_node6"><a xlink:href="structquaternion.html" target="_top" xlink:title="Quaternion, scalar last, using x, y, z. ">
<polygon fill="white" stroke="black" points="307.5,-227 307.5,-317 384.5,-317 384.5,-227 307.5,-227"/>
<text text-anchor="middle" x="346" y="-305" font-family="Helvetica,sans-Serif" font-size="10.00">quaternion</text>
<polyline fill="none" stroke="black" points="307.5,-298 384.5,-298 "/>
<text text-anchor="start" x="315.5" y="-286" font-family="Helvetica,sans-Serif" font-size="10.00">+ w</text>
<polyline fill="none" stroke="black" points="307.5,-279 384.5,-279 "/>
<text text-anchor="start" x="315.5" y="-267" font-family="Helvetica,sans-Serif" font-size="10.00">+ quaternion()</text>
<text text-anchor="start" x="315.5" y="-256" font-family="Helvetica,sans-Serif" font-size="10.00">+ quaternion()</text>
<text text-anchor="start" x="315.5" y="-245" font-family="Helvetica,sans-Serif" font-size="10.00">+ to_json()</text>
<text text-anchor="start" x="315.5" y="-234" font-family="Helvetica,sans-Serif" font-size="10.00">+ from_json()</text>
</a>
</g>
</g>
<!-- Node6&#45;&gt;Node2 -->
<g id="edge5" class="edge"><title>Node6&#45;&gt;Node2</title>
<path fill="none" stroke="#404040" d="M368.727,-226.845C377.55,-209.704 387.563,-190.248 396.096,-173.67"/>
<polygon fill="none" stroke="#404040" points="396.242,-173.386 395.432,-166.221 401.734,-162.716 402.545,-169.882 396.242,-173.386"/>
<text text-anchor="middle" x="399.5" y="-184" font-family="Helvetica,sans-Serif" font-size="10.00"> +q</text>
</g>
<!-- Node7 -->
<g id="node7" class="node"><title>Node7</title>
<g id="a_node7"><a xlink:href="classcvector.html" target="_top" xlink:title="3 element cartesian vector ">
<polygon fill="white" stroke="black" points="260.5,-381.5 260.5,-559.5 339.5,-559.5 339.5,-381.5 260.5,-381.5"/>
<text text-anchor="middle" x="300" y="-547.5" font-family="Helvetica,sans-Serif" font-size="10.00">cvector</text>
<polyline fill="none" stroke="black" points="260.5,-540.5 339.5,-540.5 "/>
<text text-anchor="start" x="268.5" y="-528.5" font-family="Helvetica,sans-Serif" font-size="10.00">+ x</text>
<text text-anchor="start" x="268.5" y="-517.5" font-family="Helvetica,sans-Serif" font-size="10.00">+ y</text>
<text text-anchor="start" x="268.5" y="-506.5" font-family="Helvetica,sans-Serif" font-size="10.00">+ z</text>
<polyline fill="none" stroke="black" points="260.5,-499.5 339.5,-499.5 "/>
<text text-anchor="start" x="268.5" y="-487.5" font-family="Helvetica,sans-Serif" font-size="10.00">+ cvector()</text>
<text text-anchor="start" x="268.5" y="-476.5" font-family="Helvetica,sans-Serif" font-size="10.00">+ cvector()</text>
<text text-anchor="start" x="268.5" y="-465.5" font-family="Helvetica,sans-Serif" font-size="10.00">+ normalize()</text>
<text text-anchor="start" x="268.5" y="-454.5" font-family="Helvetica,sans-Serif" font-size="10.00">+ length()</text>
<text text-anchor="start" x="268.5" y="-443.5" font-family="Helvetica,sans-Serif" font-size="10.00">+ norm()</text>
<text text-anchor="start" x="268.5" y="-432.5" font-family="Helvetica,sans-Serif" font-size="10.00">+ norm2()</text>
<text text-anchor="start" x="268.5" y="-421.5" font-family="Helvetica,sans-Serif" font-size="10.00">+ normalized()</text>
<text text-anchor="start" x="268.5" y="-410.5" font-family="Helvetica,sans-Serif" font-size="10.00">+ operator[]()</text>
<text text-anchor="start" x="268.5" y="-399.5" font-family="Helvetica,sans-Serif" font-size="10.00">+ to_json()</text>
<text text-anchor="start" x="268.5" y="-388.5" font-family="Helvetica,sans-Serif" font-size="10.00">+ from_json()</text>
</a>
</g>
</g>
<!-- Node7&#45;&gt;Node2 -->
<g id="edge10" class="edge"><title>Node7&#45;&gt;Node2</title>
<path fill="none" stroke="#404040" d="M270.601,-381.445C258.359,-328.335 253.054,-261.265 283,-210 303.688,-174.582 347.956,-154.58 379.742,-144.297"/>
<polygon fill="none" stroke="#404040" points="379.751,-144.294 384.336,-138.728 391.237,-140.82 386.652,-146.385 379.751,-144.294"/>
<text text-anchor="middle" x="290.5" y="-269.5" font-family="Helvetica,sans-Serif" font-size="10.00"> +c</text>
</g>
<!-- Node7&#45;&gt;Node6 -->
<g id="edge6" class="edge"><title>Node7&#45;&gt;Node6</title>
<path fill="none" stroke="#404040" d="M320.645,-381.309C324.794,-363.585 329.047,-345.419 332.855,-329.153"/>
<polygon fill="none" stroke="#404040" points="332.936,-328.806 330.409,-322.053 335.671,-317.122 338.198,-323.876 332.936,-328.806"/>
<text text-anchor="middle" x="335.5" y="-355" font-family="Helvetica,sans-Serif" font-size="10.00"> +d</text>
</g>
<!-- Node8 -->
<g id="node8" class="node"><title>Node8</title>
<g id="a_node8"><a xlink:href="structavector.html" target="_top" xlink:title="3 element attitude vector. ">
<polygon fill="white" stroke="black" points="403,-216 403,-328 477,-328 477,-216 403,-216"/>
<text text-anchor="middle" x="440" y="-316" font-family="Helvetica,sans-Serif" font-size="10.00">avector</text>
<polyline fill="none" stroke="black" points="403,-309 477,-309 "/>
<text text-anchor="start" x="411" y="-297" font-family="Helvetica,sans-Serif" font-size="10.00">+ h</text>
<text text-anchor="start" x="411" y="-286" font-family="Helvetica,sans-Serif" font-size="10.00">+ e</text>
<text text-anchor="start" x="411" y="-275" font-family="Helvetica,sans-Serif" font-size="10.00">+ b</text>
<polyline fill="none" stroke="black" points="403,-268 477,-268 "/>
<text text-anchor="start" x="411" y="-256" font-family="Helvetica,sans-Serif" font-size="10.00">+ avector()</text>
<text text-anchor="start" x="411" y="-245" font-family="Helvetica,sans-Serif" font-size="10.00">+ avector()</text>
<text text-anchor="start" x="411" y="-234" font-family="Helvetica,sans-Serif" font-size="10.00">+ to_json()</text>
<text text-anchor="start" x="411" y="-223" font-family="Helvetica,sans-Serif" font-size="10.00">+ from_json()</text>
</a>
</g>
</g>
<!-- Node8&#45;&gt;Node2 -->
<g id="edge7" class="edge"><title>Node8&#45;&gt;Node2</title>
<path fill="none" stroke="#404040" d="M430.238,-215.684C427.824,-202.005 425.285,-187.617 423.031,-174.84"/>
<polygon fill="none" stroke="#404040" points="422.971,-174.503 417.989,-169.289 420.886,-162.686 425.868,-167.899 422.971,-174.503"/>
<text text-anchor="middle" x="433.5" y="-184" font-family="Helvetica,sans-Serif" font-size="10.00"> +a</text>
</g>
<!-- Node9 -->
<g id="node9" class="node"><title>Node9</title>
<g id="a_node9"><a xlink:href="structrvector.html" target="_top" xlink:title="3 element generic row vector ">
<polygon fill="white" stroke="black" points="495,-227 495,-317 569,-317 569,-227 495,-227"/>
<text text-anchor="middle" x="532" y="-305" font-family="Helvetica,sans-Serif" font-size="10.00">rvector</text>
<polyline fill="none" stroke="black" points="495,-298 569,-298 "/>
<text text-anchor="start" x="503" y="-286" font-family="Helvetica,sans-Serif" font-size="10.00">+ col</text>
<polyline fill="none" stroke="black" points="495,-279 569,-279 "/>
<text text-anchor="start" x="503" y="-267" font-family="Helvetica,sans-Serif" font-size="10.00">+ rvector()</text>
<text text-anchor="start" x="503" y="-256" font-family="Helvetica,sans-Serif" font-size="10.00">+ rvector()</text>
<text text-anchor="start" x="503" y="-245" font-family="Helvetica,sans-Serif" font-size="10.00">+ to_json()</text>
<text text-anchor="start" x="503" y="-234" font-family="Helvetica,sans-Serif" font-size="10.00">+ from_json()</text>
</a>
</g>
</g>
<!-- Node9&#45;&gt;Node2 -->
<g id="edge8" class="edge"><title>Node9&#45;&gt;Node2</title>
<path fill="none" stroke="#404040" d="M499.627,-226.916C495.141,-221.152 490.521,-215.383 486,-210 474.387,-196.171 460.992,-181.531 449.049,-168.893"/>
<polygon fill="none" stroke="#404040" points="448.933,-168.771 441.898,-167.187 440.655,-160.084 447.69,-161.668 448.933,-168.771"/>
<text text-anchor="middle" x="476.5" y="-184" font-family="Helvetica,sans-Serif" font-size="10.00"> +r</text>
</g>
<!-- Node10 -->
<g id="node10" class="node"><title>Node10</title>
<g id="a_node10"><a xlink:href="structsvector.html" target="_top" xlink:title="3 element spherical vector ">
<polygon fill="white" stroke="black" points="587,-216 587,-328 661,-328 661,-216 587,-216"/>
<text text-anchor="middle" x="624" y="-316" font-family="Helvetica,sans-Serif" font-size="10.00">svector</text>
<polyline fill="none" stroke="black" points="587,-309 661,-309 "/>
<text text-anchor="start" x="595" y="-297" font-family="Helvetica,sans-Serif" font-size="10.00">+ phi</text>
<text text-anchor="start" x="595" y="-286" font-family="Helvetica,sans-Serif" font-size="10.00">+ lambda</text>
<text text-anchor="start" x="595" y="-275" font-family="Helvetica,sans-Serif" font-size="10.00">+ r</text>
<polyline fill="none" stroke="black" points="587,-268 661,-268 "/>
<text text-anchor="start" x="595" y="-256" font-family="Helvetica,sans-Serif" font-size="10.00">+ svector()</text>
<text text-anchor="start" x="595" y="-245" font-family="Helvetica,sans-Serif" font-size="10.00">+ svector()</text>
<text text-anchor="start" x="595" y="-234" font-family="Helvetica,sans-Serif" font-size="10.00">+ to_json()</text>
<text text-anchor="start" x="595" y="-223" font-family="Helvetica,sans-Serif" font-size="10.00">+ from_json()</text>
</a>
</g>
</g>
<!-- Node10&#45;&gt;Node2 -->
<g id="edge9" class="edge"><title>Node10&#45;&gt;Node2</title>
<path fill="none" stroke="#404040" d="M586.986,-218.161C584.099,-215.251 581.096,-212.499 578,-210 539.816,-179.177 486.896,-157.792 452.074,-145.961"/>
<polygon fill="none" stroke="#404040" points="451.964,-145.925 445.015,-147.849 440.565,-142.175 447.515,-140.25 451.964,-145.925"/>
<text text-anchor="middle" x="558.5" y="-184" font-family="Helvetica,sans-Serif" font-size="10.00"> +s</text>
</g>
<!-- Node11 -->
<g id="node11" class="node"><title>Node11</title>
<g id="a_node11"><a xlink:href="structgvector.html" target="_top" xlink:title="3 element geodetic vector ">
<polygon fill="white" stroke="black" points="679,-216 679,-328 753,-328 753,-216 679,-216"/>
<text text-anchor="middle" x="716" y="-316" font-family="Helvetica,sans-Serif" font-size="10.00">gvector</text>
<polyline fill="none" stroke="black" points="679,-309 753,-309 "/>
<text text-anchor="start" x="687" y="-297" font-family="Helvetica,sans-Serif" font-size="10.00">+ lat</text>
<text text-anchor="start" x="687" y="-286" font-family="Helvetica,sans-Serif" font-size="10.00">+ lon</text>
<text text-anchor="start" x="687" y="-275" font-family="Helvetica,sans-Serif" font-size="10.00">+ h</text>
<polyline fill="none" stroke="black" points="679,-268 753,-268 "/>
<text text-anchor="start" x="687" y="-256" font-family="Helvetica,sans-Serif" font-size="10.00">+ gvector()</text>
<text text-anchor="start" x="687" y="-245" font-family="Helvetica,sans-Serif" font-size="10.00">+ gvector()</text>
<text text-anchor="start" x="687" y="-234" font-family="Helvetica,sans-Serif" font-size="10.00">+ to_json()</text>
<text text-anchor="start" x="687" y="-223" font-family="Helvetica,sans-Serif" font-size="10.00">+ from_json()</text>
</a>
</g>
</g>
<!-- Node11&#45;&gt;Node2 -->
<g id="edge11" class="edge"><title>Node11&#45;&gt;Node2</title>
<path fill="none" stroke="#404040" d="M678.795,-217.063C675.988,-214.497 673.053,-212.115 670,-210 602.263,-163.07 504.879,-145.091 452.558,-138.528"/>
<polygon fill="none" stroke="#404040" points="452.495,-138.521 446.072,-141.797 440.577,-137.128 447,-133.851 452.495,-138.521"/>
<text text-anchor="middle" x="647.5" y="-184" font-family="Helvetica,sans-Serif" font-size="10.00"> +g</text>
</g>
<!-- Node12 -->
<g id="node12" class="node"><title>Node12</title>
<g id="a_node12"><a xlink:href="structqfirst.html" target="_top" xlink:title="Quaternion, scalar first using vector elements. ">
<polygon fill="white" stroke="black" points="771,-210.5 771,-333.5 845,-333.5 845,-210.5 771,-210.5"/>
<text text-anchor="middle" x="808" y="-321.5" font-family="Helvetica,sans-Serif" font-size="10.00">qfirst</text>
<polyline fill="none" stroke="black" points="771,-314.5 845,-314.5 "/>
<text text-anchor="start" x="779" y="-302.5" font-family="Helvetica,sans-Serif" font-size="10.00">+ q0</text>
<text text-anchor="start" x="779" y="-291.5" font-family="Helvetica,sans-Serif" font-size="10.00">+ q1</text>
<text text-anchor="start" x="779" y="-280.5" font-family="Helvetica,sans-Serif" font-size="10.00">+ q2</text>
<text text-anchor="start" x="779" y="-269.5" font-family="Helvetica,sans-Serif" font-size="10.00">+ q3</text>
<polyline fill="none" stroke="black" points="771,-262.5 845,-262.5 "/>
<text text-anchor="start" x="779" y="-250.5" font-family="Helvetica,sans-Serif" font-size="10.00">+ qfirst()</text>
<text text-anchor="start" x="779" y="-239.5" font-family="Helvetica,sans-Serif" font-size="10.00">+ qfirst()</text>
<text text-anchor="start" x="779" y="-228.5" font-family="Helvetica,sans-Serif" font-size="10.00">+ to_json()</text>
<text text-anchor="start" x="779" y="-217.5" font-family="Helvetica,sans-Serif" font-size="10.00">+ from_json()</text>
</a>
</g>
</g>
<!-- Node12&#45;&gt;Node2 -->
<g id="edge12" class="edge"><title>Node12&#45;&gt;Node2</title>
<path fill="none" stroke="#404040" d="M770.827,-217.017C768.012,-214.463 765.066,-212.096 762,-210 665.19,-143.831 520.511,-134.632 453.078,-134.239"/>
<polygon fill="none" stroke="#404040" points="452.658,-134.24 446.666,-138.252 440.658,-134.264 446.65,-130.252 452.658,-134.24"/>
<text text-anchor="middle" x="739" y="-184" font-family="Helvetica,sans-Serif" font-size="10.00"> +qf</text>
</g>
</g>
</svg>
