<?xml version="1.0" encoding="UTF-8" standalone="no"?>
<!DOCTYPE svg PUBLIC "-//W3C//DTD SVG 1.1//EN"
 "http://www.w3.org/Graphics/SVG/1.1/DTD/svg11.dtd">
<!-- Generated by graphviz version 2.38.0 (20140413.2041)
 -->
<!-- Title: extrapos Pages: 1 -->
<svg width="174pt" height="573pt"
 viewBox="0.00 0.00 174.00 573.00" xmlns="http://www.w3.org/2000/svg" xmlns:xlink="http://www.w3.org/1999/xlink">
<g id="graph0" class="graph" transform="scale(1 1) rotate(0) translate(4 569)">
<title>extrapos</title>
<polygon fill="white" stroke="none" points="-4,4 -4,-569 170,-569 170,4 -4,4"/>
<!-- Node1 -->
<g id="node1" class="node"><title>Node1</title>
<polygon fill="#bfbfbf" stroke="black" points="42,-0.5 42,-156.5 116,-156.5 116,-0.5 42,-0.5"/>
<text text-anchor="middle" x="79" y="-144.5" font-family="Helvetica,sans-Serif" font-size="10.00">extrapos</text>
<polyline fill="none" stroke="black" points="42,-137.5 116,-137.5 "/>
<text text-anchor="start" x="50" y="-125.5" font-family="Helvetica,sans-Serif" font-size="10.00">+ utc</text>
<text text-anchor="start" x="50" y="-114.5" font-family="Helvetica,sans-Serif" font-size="10.00">+ tt</text>
<text text-anchor="start" x="50" y="-103.5" font-family="Helvetica,sans-Serif" font-size="10.00">+ ut</text>
<text text-anchor="start" x="50" y="-92.5" font-family="Helvetica,sans-Serif" font-size="10.00">+ tdb</text>
<text text-anchor="start" x="50" y="-81.5" font-family="Helvetica,sans-Serif" font-size="10.00">+ j2e</text>
<text text-anchor="start" x="50" y="-70.5" font-family="Helvetica,sans-Serif" font-size="10.00">+ dj2e</text>
<text text-anchor="start" x="50" y="-59.5" font-family="Helvetica,sans-Serif" font-size="10.00">+ ddj2e</text>
<text text-anchor="start" x="50" y="-48.5" font-family="Helvetica,sans-Serif" font-size="10.00">+ de2j</text>
<text text-anchor="start" x="50" y="-37.5" font-family="Helvetica,sans-Serif" font-size="10.00">+ closest</text>
<polyline fill="none" stroke="black" points="42,-30.5 116,-30.5 "/>
<text text-anchor="start" x="50" y="-18.5" font-family="Helvetica,sans-Serif" font-size="10.00">+ to_json()</text>
<text text-anchor="start" x="50" y="-7.5" font-family="Helvetica,sans-Serif" font-size="10.00">+ from_json()</text>
</g>
<!-- Node2 -->
<g id="node2" class="node"><title>Node2</title>
<g id="a_node2"><a xlink:href="structcartpos.html" target="_top" xlink:title="Cartesian full position structure. ">
<polygon fill="white" stroke="black" points="0,-320 0,-399 74,-399 74,-320 0,-320"/>
<text text-anchor="middle" x="37" y="-387" font-family="Helvetica,sans-Serif" font-size="10.00">cartpos</text>
<polyline fill="none" stroke="black" points="0,-380 74,-380 "/>
<text text-anchor="start" x="8" y="-368" font-family="Helvetica,sans-Serif" font-size="10.00">+ utc</text>
<text text-anchor="start" x="8" y="-357" font-family="Helvetica,sans-Serif" font-size="10.00">+ pass</text>
<polyline fill="none" stroke="black" points="0,-350 74,-350 "/>
<text text-anchor="start" x="8" y="-338" font-family="Helvetica,sans-Serif" font-size="10.00">+ to_json()</text>
<text text-anchor="start" x="8" y="-327" font-family="Helvetica,sans-Serif" font-size="10.00">+ from_json()</text>
</a>
</g>
</g>
<!-- Node2&#45;&gt;Node1 -->
<g id="edge1" class="edge"><title>Node2&#45;&gt;Node1</title>
<path fill="none" stroke="#404040" d="M36.4846,-319.843C36.6498,-282.465 38.6611,-224.391 48,-175 48.4074,-172.846 48.8495,-170.672 49.3221,-168.487"/>
<polygon fill="none" stroke="#404040" points="49.3415,-168.405 46.8361,-161.643 52.1142,-156.73 54.6196,-163.492 49.3415,-168.405"/>
<text text-anchor="middle" x="75.5" y="-238.5" font-family="Helvetica,sans-Serif" font-size="10.00"> +sun2moon</text>
<text text-anchor="middle" x="75.5" y="-227.5" font-family="Helvetica,sans-Serif" font-size="10.00">+sun2earth</text>
</g>
<!-- Node3 -->
<g id="node3" class="node"><title>Node3</title>
<g id="a_node3"><a xlink:href="structrvector.html" target="_top" xlink:title="3 element generic row vector ">
<polygon fill="white" stroke="black" points="52,-474.5 52,-564.5 126,-564.5 126,-474.5 52,-474.5"/>
<text text-anchor="middle" x="89" y="-552.5" font-family="Helvetica,sans-Serif" font-size="10.00">rvector</text>
<polyline fill="none" stroke="black" points="52,-545.5 126,-545.5 "/>
<text text-anchor="start" x="60" y="-533.5" font-family="Helvetica,sans-Serif" font-size="10.00">+ col</text>
<polyline fill="none" stroke="black" points="52,-526.5 126,-526.5 "/>
<text text-anchor="start" x="60" y="-514.5" font-family="Helvetica,sans-Serif" font-size="10.00">+ rvector()</text>
<text text-anchor="start" x="60" y="-503.5" font-family="Helvetica,sans-Serif" font-size="10.00">+ rvector()</text>
<text text-anchor="start" x="60" y="-492.5" font-family="Helvetica,sans-Serif" font-size="10.00">+ to_json()</text>
<text text-anchor="start" x="60" y="-481.5" font-family="Helvetica,sans-Serif" font-size="10.00">+ from_json()</text>
</a>
</g>
</g>
<!-- Node3&#45;&gt;Node2 -->
<g id="edge2" class="edge"><title>Node3&#45;&gt;Node2</title>
<path fill="none" stroke="#404040" d="M74.5151,-474.488C68.0087,-454.719 60.2967,-431.286 53.5621,-410.823"/>
<polygon fill="none" stroke="#404040" points="53.4778,-410.567 47.8026,-406.118 49.7264,-399.169 55.4016,-403.617 53.4778,-410.567"/>
<text text-anchor="middle" x="75.5" y="-448" font-family="Helvetica,sans-Serif" font-size="10.00"> +a</text>
<text text-anchor="middle" x="75.5" y="-437" font-family="Helvetica,sans-Serif" font-size="10.00">+s</text>
<text text-anchor="middle" x="75.5" y="-426" font-family="Helvetica,sans-Serif" font-size="10.00">+v</text>
</g>
<!-- Node4 -->
<g id="node4" class="node"><title>Node4</title>
<g id="a_node4"><a xlink:href="structrmatrix.html" target="_top" xlink:title="3x3 element generic matrix ">
<polygon fill="white" stroke="black" points="92,-314.5 92,-404.5 166,-404.5 166,-314.5 92,-314.5"/>
<text text-anchor="middle" x="129" y="-392.5" font-family="Helvetica,sans-Serif" font-size="10.00">rmatrix</text>
<polyline fill="none" stroke="black" points="92,-385.5 166,-385.5 "/>
<text text-anchor="middle" x="129" y="-373.5" font-family="Helvetica,sans-Serif" font-size="10.00"> </text>
<polyline fill="none" stroke="black" points="92,-366.5 166,-366.5 "/>
<text text-anchor="start" x="100" y="-354.5" font-family="Helvetica,sans-Serif" font-size="10.00">+ rmatrix()</text>
<text text-anchor="start" x="100" y="-343.5" font-family="Helvetica,sans-Serif" font-size="10.00">+ rmatrix()</text>
<text text-anchor="start" x="100" y="-332.5" font-family="Helvetica,sans-Serif" font-size="10.00">+ to_json()</text>
<text text-anchor="start" x="100" y="-321.5" font-family="Helvetica,sans-Serif" font-size="10.00">+ from_json()</text>
</a>
</g>
</g>
<!-- Node3&#45;&gt;Node4 -->
<g id="edge4" class="edge"><title>Node3&#45;&gt;Node4</title>
<path fill="none" stroke="#404040" d="M100.142,-474.488C104.696,-456.501 110.017,-435.482 114.842,-416.425"/>
<polygon fill="none" stroke="#404040" points="114.903,-416.183 112.498,-409.384 117.848,-404.55 120.253,-411.348 114.903,-416.183"/>
<text text-anchor="middle" x="124.5" y="-437" font-family="Helvetica,sans-Serif" font-size="10.00"> +row</text>
</g>
<!-- Node4&#45;&gt;Node1 -->
<g id="edge3" class="edge"><title>Node4&#45;&gt;Node1</title>
<path fill="none" stroke="#404040" d="M124.047,-314.159C119.562,-276.857 112.249,-222.205 103,-175 102.581,-172.86 102.143,-170.696 101.691,-168.515"/>
<polygon fill="none" stroke="#404040" points="101.682,-168.474 96.5047,-163.455 99.1463,-156.745 104.324,-161.764 101.682,-168.474"/>
<text text-anchor="middle" x="136" y="-288" font-family="Helvetica,sans-Serif" font-size="10.00"> +t2s</text>
<text text-anchor="middle" x="136" y="-277" font-family="Helvetica,sans-Serif" font-size="10.00">+s2t</text>
<text text-anchor="middle" x="136" y="-266" font-family="Helvetica,sans-Serif" font-size="10.00">+dt2s</text>
<text text-anchor="middle" x="136" y="-255" font-family="Helvetica,sans-Serif" font-size="10.00">+ds2t</text>
<text text-anchor="middle" x="136" y="-244" font-family="Helvetica,sans-Serif" font-size="10.00">+s2j</text>
<text text-anchor="middle" x="136" y="-233" font-family="Helvetica,sans-Serif" font-size="10.00">+j2s</text>
<text text-anchor="middle" x="136" y="-222" font-family="Helvetica,sans-Serif" font-size="10.00">+t2j</text>
<text text-anchor="middle" x="136" y="-211" font-family="Helvetica,sans-Serif" font-size="10.00">+j2t</text>
<text text-anchor="middle" x="136" y="-200" font-family="Helvetica,sans-Serif" font-size="10.00">+dde2j</text>
<text text-anchor="middle" x="136" y="-189" font-family="Helvetica,sans-Serif" font-size="10.00">+e2j</text>
<text text-anchor="middle" x="136" y="-178" font-family="Helvetica,sans-Serif" font-size="10.00">...</text>
</g>
</g>
</svg>
