<?xml version="1.0" encoding="UTF-8" standalone="no"?>
<!DOCTYPE svg PUBLIC "-//W3C//DTD SVG 1.1//EN"
 "http://www.w3.org/Graphics/SVG/1.1/DTD/svg11.dtd">
<!-- Generated by graphviz version 2.38.0 (20140413.2041)
 -->
<!-- Title: tx_queue Pages: 1 -->
<!--zoomable 700 -->
<svg id="main" version="1.1" xmlns="http://www.w3.org/2000/svg" xmlns:xlink="http://www.w3.org/1999/xlink" xml:space="preserve" onload="init(evt)">
<style type="text/css"><![CDATA[
.edge:hover path { stroke: red; }
.edge:hover polygon { stroke: red; fill: red; }
]]></style>
<script type="text/javascript"><![CDATA[
var edges = document.getElementsByTagName('g');
if (edges && edges.length) {
  for (var i=0;i<edges.length;i++) {
    if (edges[i].id.substr(0,4)=='edge') {
      edges[i].setAttribute('class','edge');
    }
  }
}
]]></script>
        <defs>
                <circle id="rim" cx="0" cy="0" r="7"/>
                <circle id="rim2" cx="0" cy="0" r="3.5"/>
                <g id="zoomPlus">
                        <use xlink:href="#rim" fill="#404040">
                                <set attributeName="fill" to="#808080" begin="zoomplus.mouseover" end="zoomplus.mouseout"/>
                        </use>
                        <path d="M-4,0h8M0,-4v8" fill="none" stroke="white" stroke-width="1.5" pointer-events="none"/>
                </g>
                <g id="zoomMin">
                        <use xlink:href="#rim" fill="#404040">
                                <set attributeName="fill" to="#808080" begin="zoomminus.mouseover" end="zoomminus.mouseout"/>
                        </use>
                        <path d="M-4,0h8" fill="none" stroke="white" stroke-width="1.5" pointer-events="none"/>
                </g>
                <g id="dirArrow">
                        <path fill="none" stroke="white" stroke-width="1.5" d="M0,-3.0v7 M-2.5,-0.5L0,-3.0L2.5,-0.5"/>
                </g>
               <g id="resetDef">
                       <use xlink:href="#rim2" fill="#404040">
                               <set attributeName="fill" to="#808080" begin="reset.mouseover" end="reset.mouseout"/>
                       </use>
               </g>
        </defs>

<script type="text/javascript">
var viewWidth = 392;
var viewHeight = 700;
var sectionId = 'dynsection-0';
</script>
<script xlink:href="svgpan.js"/>
<svg id="graph" class="graph">
<g id="viewport">
<title>tx_queue</title>
<polygon fill="white" stroke="none" points="-4,4 -4,-696 388,-696 388,4 -4,4"/>
<!-- Node1 -->
<g id="node1" class="node"><title>Node1</title>
<polygon fill="#bfbfbf" stroke="black" points="0,-0.5 0,-68.5 68,-68.5 68,-0.5 0,-0.5"/>
<text text-anchor="middle" x="34" y="-56.5" font-family="Helvetica,sans-Serif" font-size="10.00">tx_queue</text>
<polyline fill="none" stroke="black" points="0,-49.5 68,-49.5 "/>
<text text-anchor="start" x="8" y="-37.5" font-family="Helvetica,sans-Serif" font-size="10.00">+ node_id</text>
<text text-anchor="start" x="8" y="-26.5" font-family="Helvetica,sans-Serif" font-size="10.00">+ remote_id</text>
<polyline fill="none" stroke="black" points="0,-19.5 68,-19.5 "/>
<text text-anchor="middle" x="34" y="-7.5" font-family="Helvetica,sans-Serif" font-size="10.00"> </text>
</g>
<!-- Node2 -->
<g id="node2" class="node"><title>Node2</title>
<g id="a_node2"><a xlink:href="structtx__entry.html" target="_top" xlink:title="{tx_entry\n|+ node_id\l+ size\l+ id\l+ next_id\l+ state\l+ nmjd\l+ activity\l+ completeclock\l+ dataclock\l+ metaclock\land 9 more...\l|}">
<polygon fill="white" stroke="black" points="91.5,-127.5 91.5,-294.5 180.5,-294.5 180.5,-127.5 91.5,-127.5"/>
<text text-anchor="middle" x="136" y="-282.5" font-family="Helvetica,sans-Serif" font-size="10.00">tx_entry</text>
<polyline fill="none" stroke="black" points="91.5,-275.5 180.5,-275.5 "/>
<text text-anchor="start" x="99.5" y="-263.5" font-family="Helvetica,sans-Serif" font-size="10.00">+ node_id</text>
<text text-anchor="start" x="99.5" y="-252.5" font-family="Helvetica,sans-Serif" font-size="10.00">+ size</text>
<text text-anchor="start" x="99.5" y="-241.5" font-family="Helvetica,sans-Serif" font-size="10.00">+ id</text>
<text text-anchor="start" x="99.5" y="-230.5" font-family="Helvetica,sans-Serif" font-size="10.00">+ next_id</text>
<text text-anchor="start" x="99.5" y="-219.5" font-family="Helvetica,sans-Serif" font-size="10.00">+ state</text>
<text text-anchor="start" x="99.5" y="-208.5" font-family="Helvetica,sans-Serif" font-size="10.00">+ nmjd</text>
<text text-anchor="start" x="99.5" y="-197.5" font-family="Helvetica,sans-Serif" font-size="10.00">+ activity</text>
<text text-anchor="start" x="99.5" y="-186.5" font-family="Helvetica,sans-Serif" font-size="10.00">+ completeclock</text>
<text text-anchor="start" x="99.5" y="-175.5" font-family="Helvetica,sans-Serif" font-size="10.00">+ dataclock</text>
<text text-anchor="start" x="99.5" y="-164.5" font-family="Helvetica,sans-Serif" font-size="10.00">+ metaclock</text>
<text text-anchor="start" x="99.5" y="-153.5" font-family="Helvetica,sans-Serif" font-size="10.00">and 9 more...</text>
<polyline fill="none" stroke="black" points="91.5,-146.5 180.5,-146.5 "/>
<text text-anchor="middle" x="136" y="-134.5" font-family="Helvetica,sans-Serif" font-size="10.00"> </text>
</a>
</g>
</g>
<!-- Node2&#45;&gt;Node1 -->
<g id="edge1" class="edge"><title>Node2&#45;&gt;Node1</title>
<path fill="none" stroke="#404040" d="M91.4097,-133.716C80.5041,-115.058 69.2012,-95.7216 59.5385,-79.1908"/>
<polygon fill="none" stroke="#404040" points="59.5019,-79.1282 53.0207,-75.9668 53.4462,-68.7682 59.9274,-71.9296 59.5019,-79.1282"/>
<text text-anchor="middle" x="100.5" y="-101" font-family="Helvetica,sans-Serif" font-size="10.00"> +incoming</text>
<text text-anchor="middle" x="100.5" y="-90" font-family="Helvetica,sans-Serif" font-size="10.00">+outgoing</text>
</g>
<!-- Node3 -->
<g id="node3" class="node"><title>Node3</title>
<g id="a_node3"><a xlink:href="structtx__progress.html" target="_top" xlink:title="{tx_progress\n|+ tx_id\l+ enabled\l+ havemeta\l+ havedata\l+ sendmeta\l+ sentmeta\l+ senddata\l+ sentdata\l+ complete\l+ savetime\l+ datatime\l+ file_size\l+ total_bytes\l+ fp\l|}">
<polygon fill="white" stroke="black" points="289,-342.5 289,-542.5 363,-542.5 363,-342.5 289,-342.5"/>
<text text-anchor="middle" x="326" y="-530.5" font-family="Helvetica,sans-Serif" font-size="10.00">tx_progress</text>
<polyline fill="none" stroke="black" points="289,-523.5 363,-523.5 "/>
<text text-anchor="start" x="297" y="-511.5" font-family="Helvetica,sans-Serif" font-size="10.00">+ tx_id</text>
<text text-anchor="start" x="297" y="-500.5" font-family="Helvetica,sans-Serif" font-size="10.00">+ enabled</text>
<text text-anchor="start" x="297" y="-489.5" font-family="Helvetica,sans-Serif" font-size="10.00">+ havemeta</text>
<text text-anchor="start" x="297" y="-478.5" font-family="Helvetica,sans-Serif" font-size="10.00">+ havedata</text>
<text text-anchor="start" x="297" y="-467.5" font-family="Helvetica,sans-Serif" font-size="10.00">+ sendmeta</text>
<text text-anchor="start" x="297" y="-456.5" font-family="Helvetica,sans-Serif" font-size="10.00">+ sentmeta</text>
<text text-anchor="start" x="297" y="-445.5" font-family="Helvetica,sans-Serif" font-size="10.00">+ senddata</text>
<text text-anchor="start" x="297" y="-434.5" font-family="Helvetica,sans-Serif" font-size="10.00">+ sentdata</text>
<text text-anchor="start" x="297" y="-423.5" font-family="Helvetica,sans-Serif" font-size="10.00">+ complete</text>
<text text-anchor="start" x="297" y="-412.5" font-family="Helvetica,sans-Serif" font-size="10.00">+ savetime</text>
<text text-anchor="start" x="297" y="-401.5" font-family="Helvetica,sans-Serif" font-size="10.00">+ datatime</text>
<text text-anchor="start" x="297" y="-390.5" font-family="Helvetica,sans-Serif" font-size="10.00">+ file_size</text>
<text text-anchor="start" x="297" y="-379.5" font-family="Helvetica,sans-Serif" font-size="10.00">+ total_bytes</text>
<text text-anchor="start" x="297" y="-368.5" font-family="Helvetica,sans-Serif" font-size="10.00">+ fp</text>
<polyline fill="none" stroke="black" points="289,-361.5 363,-361.5 "/>
<text text-anchor="middle" x="326" y="-349.5" font-family="Helvetica,sans-Serif" font-size="10.00"> </text>
</a>
</g>
</g>
<!-- Node3&#45;&gt;Node2 -->
<g id="edge2" class="edge"><title>Node3&#45;&gt;Node2</title>
<path fill="none" stroke="#404040" d="M288.896,-355.27C286.071,-350.671 283.103,-346.214 280,-342 254.879,-307.888 219.681,-275.913 190.373,-252.211"/>
<polygon fill="none" stroke="#404040" points="190.071,-251.971 182.886,-251.365 180.682,-244.499 187.868,-245.105 190.071,-251.971"/>
<text text-anchor="middle" x="287.5" y="-316" font-family="Helvetica,sans-Serif" font-size="10.00"> +progress</text>
</g>
<!-- Node4 -->
<g id="node4" class="node"><title>Node4</title>
<polygon fill="white" stroke="#bfbfbf" points="268,-634.5 268,-691.5 384,-691.5 384,-634.5 268,-634.5"/>
<text text-anchor="middle" x="326" y="-679.5" font-family="Helvetica,sans-Serif" font-size="10.00">deque&lt; file_progress &gt;</text>
<polyline fill="none" stroke="#bfbfbf" points="268,-672.5 384,-672.5 "/>
<text text-anchor="middle" x="326" y="-660.5" font-family="Helvetica,sans-Serif" font-size="10.00"> </text>
<polyline fill="none" stroke="#bfbfbf" points="268,-653.5 384,-653.5 "/>
<text text-anchor="middle" x="326" y="-641.5" font-family="Helvetica,sans-Serif" font-size="10.00"> </text>
</g>
<!-- Node4&#45;&gt;Node3 -->
<g id="edge3" class="edge"><title>Node4&#45;&gt;Node3</title>
<path fill="none" stroke="#404040" d="M326,-634.327C326,-613.838 326,-584.456 326,-554.867"/>
<polygon fill="none" stroke="#404040" points="326,-554.648 322,-548.648 326,-542.648 330,-548.648 326,-554.648"/>
<text text-anchor="middle" x="347.5" y="-586" font-family="Helvetica,sans-Serif" font-size="10.00"> +file_info</text>
</g>
<!-- Node5 -->
<g id="node5" class="node"><title>Node5</title>
<polygon fill="white" stroke="#bfbfbf" points="44.5,-634.5 44.5,-691.5 85.5,-691.5 85.5,-634.5 44.5,-634.5"/>
<text text-anchor="middle" x="65" y="-679.5" font-family="Helvetica,sans-Serif" font-size="10.00">string</text>
<polyline fill="none" stroke="#bfbfbf" points="44.5,-672.5 85.5,-672.5 "/>
<text text-anchor="middle" x="65" y="-660.5" font-family="Helvetica,sans-Serif" font-size="10.00"> </text>
<polyline fill="none" stroke="#bfbfbf" points="44.5,-653.5 85.5,-653.5 "/>
<text text-anchor="middle" x="65" y="-641.5" font-family="Helvetica,sans-Serif" font-size="10.00"> </text>
</g>
<!-- Node5&#45;&gt;Node1 -->
<g id="edge7" class="edge"><title>Node5&#45;&gt;Node1</title>
<path fill="none" stroke="#404040" d="M57.8942,-634.37C56.4835,-628.341 55.1002,-621.976 54,-616 29.426,-482.522 11.6051,-448.65 16,-313 18.6541,-231.078 25.7046,-135.767 30.1528,-80.8553"/>
<polygon fill="none" stroke="#404040" points="30.1619,-80.7442 26.6651,-74.4376 31.1417,-68.7842 34.6384,-75.0908 30.1619,-80.7442"/>
<text text-anchor="middle" x="46" y="-316" font-family="Helvetica,sans-Serif" font-size="10.00"> +node_name</text>
</g>
<!-- Node5&#45;&gt;Node2 -->
<g id="edge6" class="edge"><title>Node5&#45;&gt;Node2</title>
<path fill="none" stroke="#404040" d="M61.963,-634.098C56.6735,-577.878 48.6003,-447.358 74,-342 77.0734,-329.251 81.4897,-316.27 86.5696,-303.687"/>
<polygon fill="none" stroke="#404040" points="86.7277,-303.313 85.3808,-296.229 91.402,-292.261 92.7489,-299.345 86.7277,-303.313"/>
<text text-anchor="middle" x="104" y="-440" font-family="Helvetica,sans-Serif" font-size="10.00"> +node_name</text>
</g>
<!-- Node5&#45;&gt;Node3 -->
<g id="edge4" class="edge"><title>Node5&#45;&gt;Node3</title>
<path fill="none" stroke="#404040" d="M85.5104,-655.544C127.277,-641.457 223.054,-604.23 280,-543 280.389,-542.582 280.775,-542.16 281.158,-541.734"/>
<polygon fill="none" stroke="#404040" points="281.247,-541.624 281.916,-534.444 288.801,-532.3 288.132,-539.48 281.247,-541.624"/>
<text text-anchor="middle" x="291" y="-608" font-family="Helvetica,sans-Serif" font-size="10.00"> +node_name</text>
<text text-anchor="middle" x="291" y="-597" font-family="Helvetica,sans-Serif" font-size="10.00">+file_name</text>
<text text-anchor="middle" x="291" y="-586" font-family="Helvetica,sans-Serif" font-size="10.00">+temppath</text>
<text text-anchor="middle" x="291" y="-575" font-family="Helvetica,sans-Serif" font-size="10.00">+agent_name</text>
<text text-anchor="middle" x="291" y="-564" font-family="Helvetica,sans-Serif" font-size="10.00">+filepath</text>
</g>
<!-- Node6 -->
<g id="node6" class="node"><title>Node6</title>
<polygon fill="white" stroke="#bfbfbf" points="143.5,-408.5 143.5,-476.5 270.5,-476.5 270.5,-408.5 143.5,-408.5"/>
<text text-anchor="start" x="151.5" y="-464.5" font-family="Helvetica,sans-Serif" font-size="10.00">vector&lt; PACKET_TX_ID</text>
<text text-anchor="middle" x="207" y="-453.5" font-family="Helvetica,sans-Serif" font-size="10.00">_TYPE &gt;</text>
<polyline fill="none" stroke="#bfbfbf" points="143.5,-446.5 270.5,-446.5 "/>
<text text-anchor="middle" x="207" y="-434.5" font-family="Helvetica,sans-Serif" font-size="10.00"> </text>
<polyline fill="none" stroke="#bfbfbf" points="143.5,-427.5 270.5,-427.5 "/>
<text text-anchor="middle" x="207" y="-415.5" font-family="Helvetica,sans-Serif" font-size="10.00"> </text>
</g>
<!-- Node6&#45;&gt;Node2 -->
<g id="edge5" class="edge"><title>Node6&#45;&gt;Node2</title>
<path fill="none" stroke="#404040" d="M196.676,-408.129C188.416,-381.43 176.411,-342.623 165.254,-306.562"/>
<polygon fill="none" stroke="#404040" points="165.215,-306.433 159.62,-301.883 161.668,-294.969 167.263,-299.519 165.215,-306.433"/>
<text text-anchor="middle" x="192" y="-316" font-family="Helvetica,sans-Serif" font-size="10.00"> +meta_id</text>
</g>
</g>
</svg>
        <g id="navigator" transform="translate(0 0)" fill="#404254">
                <rect fill="#f2f5e9" fill-opacity="0.5" stroke="#606060" stroke-width=".5" x="0" y="0" width="60" height="60"/>
                <use id="zoomplus" xlink:href="#zoomPlus" x="17" y="9" onmousedown="handleZoom(evt,'in')"/>
                <use id="zoomminus" xlink:href="#zoomMin" x="42" y="9" onmousedown="handleZoom(evt,'out')"/>
                <use id="reset" xlink:href="#resetDef" x="30" y="36" onmousedown="handleReset()"/>
                <g id="arrowUp" xlink:href="#dirArrow" transform="translate(30 24)" onmousedown="handlePan(0,-1)">
                  <use xlink:href="#rim" fill="#404040">
                        <set attributeName="fill" to="#808080" begin="arrowUp.mouseover" end="arrowUp.mouseout"/>
                  </use>
                  <path fill="none" stroke="white" stroke-width="1.5" d="M0,-3.0v7 M-2.5,-0.5L0,-3.0L2.5,-0.5"/>
                </g>
                <g id="arrowRight" xlink:href="#dirArrow" transform="rotate(90) translate(36 -43)" onmousedown="handlePan(1,0)">
                  <use xlink:href="#rim" fill="#404040">
                        <set attributeName="fill" to="#808080" begin="arrowRight.mouseover" end="arrowRight.mouseout"/>
                  </use>
                  <path fill="none" stroke="white" stroke-width="1.5" d="M0,-3.0v7 M-2.5,-0.5L0,-3.0L2.5,-0.5"/>
                </g>
                <g id="arrowDown" xlink:href="#dirArrow" transform="rotate(180) translate(-30 -48)" onmousedown="handlePan(0,1)">
                  <use xlink:href="#rim" fill="#404040">
                        <set attributeName="fill" to="#808080" begin="arrowDown.mouseover" end="arrowDown.mouseout"/>
                  </use>
                  <path fill="none" stroke="white" stroke-width="1.5" d="M0,-3.0v7 M-2.5,-0.5L0,-3.0L2.5,-0.5"/>
                </g>
                <g id="arrowLeft" xlink:href="#dirArrow" transform="rotate(270) translate(-36 17)" onmousedown="handlePan(-1,0)">
                  <use xlink:href="#rim" fill="#404040">
                        <set attributeName="fill" to="#808080" begin="arrowLeft.mouseover" end="arrowLeft.mouseout"/>
                  </use>
                  <path fill="none" stroke="white" stroke-width="1.5" d="M0,-3.0v7 M-2.5,-0.5L0,-3.0L2.5,-0.5"/>
                </g>
        </g>
        <svg viewBox="0 0 15 15" width="100%" height="30px" preserveAspectRatio="xMaxYMin meet">
         <g id="arrow_out" transform="scale(0.3 0.3)">
          <a xlink:href="structtx__queue__coll__graph_org.svg" target="_base">
           <rect id="button" ry="5" rx="5" y="6" x="6" height="38" width="38"
                fill="#f2f5e9" fill-opacity="0.5" stroke="#606060" stroke-width="1.0"/>
           <path id="arrow"
             d="M 11.500037,31.436501 C 11.940474,20.09759 22.043105,11.32322 32.158766,21.979434 L 37.068811,17.246167 C 37.068811,17.246167 37.088388,32 37.088388,32 L 22.160133,31.978069 C 22.160133,31.978069 26.997745,27.140456 26.997745,27.140456 C 18.528582,18.264221 13.291696,25.230495 11.500037,31.436501 z"
             style="fill:#404040;"/>
          </a>
         </g>
        </svg>
</svg>
