<?xml version="1.0" encoding="UTF-8" standalone="no"?>
<!DOCTYPE svg PUBLIC "-//W3C//DTD SVG 1.1//EN"
 "http://www.w3.org/Graphics/SVG/1.1/DTD/svg11.dtd">
<!-- Generated by graphviz version 2.38.0 (20140413.2041)
 -->
<!-- Title: dcmatt Pages: 1 -->
<svg width="136pt" height="353pt"
 viewBox="0.00 0.00 136.00 353.00" xmlns="http://www.w3.org/2000/svg" xmlns:xlink="http://www.w3.org/1999/xlink">
<g id="graph0" class="graph" transform="scale(1 1) rotate(0) translate(4 349)">
<title>dcmatt</title>
<polygon fill="white" stroke="none" points="-4,4 -4,-349 132,-349 132,4 -4,4"/>
<!-- Node1 -->
<g id="node1" class="node"><title>Node1</title>
<polygon fill="#bfbfbf" stroke="black" points="0,-0.5 0,-68.5 74,-68.5 74,-0.5 0,-0.5"/>
<text text-anchor="middle" x="37" y="-56.5" font-family="Helvetica,sans-Serif" font-size="10.00">dcmatt</text>
<polyline fill="none" stroke="black" points="0,-49.5 74,-49.5 "/>
<text text-anchor="start" x="8" y="-37.5" font-family="Helvetica,sans-Serif" font-size="10.00">+ utc</text>
<polyline fill="none" stroke="black" points="0,-30.5 74,-30.5 "/>
<text text-anchor="start" x="8" y="-18.5" font-family="Helvetica,sans-Serif" font-size="10.00">+ to_json()</text>
<text text-anchor="start" x="8" y="-7.5" font-family="Helvetica,sans-Serif" font-size="10.00">+ from_json()</text>
</g>
<!-- Node2 -->
<g id="node2" class="node"><title>Node2</title>
<g id="a_node2"><a xlink:href="structrvector.html" target="_top" xlink:title="3 element generic row vector ">
<polygon fill="white" stroke="black" points="9,-254.5 9,-344.5 83,-344.5 83,-254.5 9,-254.5"/>
<text text-anchor="middle" x="46" y="-332.5" font-family="Helvetica,sans-Serif" font-size="10.00">rvector</text>
<polyline fill="none" stroke="black" points="9,-325.5 83,-325.5 "/>
<text text-anchor="start" x="17" y="-313.5" font-family="Helvetica,sans-Serif" font-size="10.00">+ col</text>
<polyline fill="none" stroke="black" points="9,-306.5 83,-306.5 "/>
<text text-anchor="start" x="17" y="-294.5" font-family="Helvetica,sans-Serif" font-size="10.00">+ rvector()</text>
<text text-anchor="start" x="17" y="-283.5" font-family="Helvetica,sans-Serif" font-size="10.00">+ rvector()</text>
<text text-anchor="start" x="17" y="-272.5" font-family="Helvetica,sans-Serif" font-size="10.00">+ to_json()</text>
<text text-anchor="start" x="17" y="-261.5" font-family="Helvetica,sans-Serif" font-size="10.00">+ from_json()</text>
</a>
</g>
</g>
<!-- Node2&#45;&gt;Node1 -->
<g id="edge1" class="edge"><title>Node2&#45;&gt;Node1</title>
<path fill="none" stroke="#404040" d="M36.7155,-254.49C33.9769,-239.495 31.3523,-222.584 30,-207 26.5036,-166.707 28.2465,-156.406 30,-116 30.4958,-104.575 31.3856,-92.2644 32.3682,-80.7899"/>
<polygon fill="none" stroke="#404040" points="32.3762,-80.7 28.9327,-74.3642 33.4566,-68.7487 36.9002,-75.0844 32.3762,-80.7"/>
<text text-anchor="middle" x="37.5" y="-164.5" font-family="Helvetica,sans-Serif" font-size="10.00"> +a</text>
<text text-anchor="middle" x="37.5" y="-153.5" font-family="Helvetica,sans-Serif" font-size="10.00">+v</text>
</g>
<!-- Node3 -->
<g id="node3" class="node"><title>Node3</title>
<g id="a_node3"><a xlink:href="structrmatrix.html" target="_top" xlink:title="3x3 element generic matrix ">
<polygon fill="white" stroke="black" points="54,-116.5 54,-206.5 128,-206.5 128,-116.5 54,-116.5"/>
<text text-anchor="middle" x="91" y="-194.5" font-family="Helvetica,sans-Serif" font-size="10.00">rmatrix</text>
<polyline fill="none" stroke="black" points="54,-187.5 128,-187.5 "/>
<text text-anchor="middle" x="91" y="-175.5" font-family="Helvetica,sans-Serif" font-size="10.00"> </text>
<polyline fill="none" stroke="black" points="54,-168.5 128,-168.5 "/>
<text text-anchor="start" x="62" y="-156.5" font-family="Helvetica,sans-Serif" font-size="10.00">+ rmatrix()</text>
<text text-anchor="start" x="62" y="-145.5" font-family="Helvetica,sans-Serif" font-size="10.00">+ rmatrix()</text>
<text text-anchor="start" x="62" y="-134.5" font-family="Helvetica,sans-Serif" font-size="10.00">+ to_json()</text>
<text text-anchor="start" x="62" y="-123.5" font-family="Helvetica,sans-Serif" font-size="10.00">+ from_json()</text>
</a>
</g>
</g>
<!-- Node2&#45;&gt;Node3 -->
<g id="edge3" class="edge"><title>Node2&#45;&gt;Node3</title>
<path fill="none" stroke="#404040" d="M60.6102,-254.345C64.3827,-242.943 68.4941,-230.518 72.4388,-218.596"/>
<polygon fill="none" stroke="#404040" points="72.5394,-218.292 70.6268,-211.339 76.3091,-206.899 78.2218,-213.852 72.5394,-218.292"/>
<text text-anchor="middle" x="81.5" y="-228" font-family="Helvetica,sans-Serif" font-size="10.00"> +row</text>
</g>
<!-- Node3&#45;&gt;Node1 -->
<g id="edge2" class="edge"><title>Node3&#45;&gt;Node1</title>
<path fill="none" stroke="#404040" d="M71.9616,-116.43C66.8071,-104.498 61.2275,-91.5822 56.0712,-79.6464"/>
<polygon fill="none" stroke="#404040" points="56.044,-79.5832 49.9925,-75.6615 51.285,-68.5672 57.3365,-72.4888 56.044,-79.5832"/>
<text text-anchor="middle" x="71.5" y="-90" font-family="Helvetica,sans-Serif" font-size="10.00"> +s</text>
</g>
</g>
</svg>
