<?xml version="1.0" encoding="UTF-8" standalone="no"?>
<!DOCTYPE svg PUBLIC "-//W3C//DTD SVG 1.1//EN"
 "http://www.w3.org/Graphics/SVG/1.1/DTD/svg11.dtd">
<!-- Generated by graphviz version 2.38.0 (20140413.2041)
 -->
<!-- Title: tx_progress Pages: 1 -->
<svg width="213pt" height="358pt"
 viewBox="0.00 0.00 213.00 358.00" xmlns="http://www.w3.org/2000/svg" xmlns:xlink="http://www.w3.org/1999/xlink">
<g id="graph0" class="graph" transform="scale(1 1) rotate(0) translate(4 354)">
<title>tx_progress</title>
<polygon fill="white" stroke="none" points="-4,4 -4,-354 209,-354 209,4 -4,4"/>
<!-- Node1 -->
<g id="node1" class="node"><title>Node1</title>
<polygon fill="#bfbfbf" stroke="black" points="69,-0.5 69,-200.5 143,-200.5 143,-0.5 69,-0.5"/>
<text text-anchor="middle" x="106" y="-188.5" font-family="Helvetica,sans-Serif" font-size="10.00">tx_progress</text>
<polyline fill="none" stroke="black" points="69,-181.5 143,-181.5 "/>
<text text-anchor="start" x="77" y="-169.5" font-family="Helvetica,sans-Serif" font-size="10.00">+ tx_id</text>
<text text-anchor="start" x="77" y="-158.5" font-family="Helvetica,sans-Serif" font-size="10.00">+ enabled</text>
<text text-anchor="start" x="77" y="-147.5" font-family="Helvetica,sans-Serif" font-size="10.00">+ havemeta</text>
<text text-anchor="start" x="77" y="-136.5" font-family="Helvetica,sans-Serif" font-size="10.00">+ havedata</text>
<text text-anchor="start" x="77" y="-125.5" font-family="Helvetica,sans-Serif" font-size="10.00">+ sendmeta</text>
<text text-anchor="start" x="77" y="-114.5" font-family="Helvetica,sans-Serif" font-size="10.00">+ sentmeta</text>
<text text-anchor="start" x="77" y="-103.5" font-family="Helvetica,sans-Serif" font-size="10.00">+ senddata</text>
<text text-anchor="start" x="77" y="-92.5" font-family="Helvetica,sans-Serif" font-size="10.00">+ sentdata</text>
<text text-anchor="start" x="77" y="-81.5" font-family="Helvetica,sans-Serif" font-size="10.00">+ complete</text>
<text text-anchor="start" x="77" y="-70.5" font-family="Helvetica,sans-Serif" font-size="10.00">+ savetime</text>
<text text-anchor="start" x="77" y="-59.5" font-family="Helvetica,sans-Serif" font-size="10.00">+ datatime</text>
<text text-anchor="start" x="77" y="-48.5" font-family="Helvetica,sans-Serif" font-size="10.00">+ file_size</text>
<text text-anchor="start" x="77" y="-37.5" font-family="Helvetica,sans-Serif" font-size="10.00">+ total_bytes</text>
<text text-anchor="start" x="77" y="-26.5" font-family="Helvetica,sans-Serif" font-size="10.00">+ fp</text>
<polyline fill="none" stroke="black" points="69,-19.5 143,-19.5 "/>
<text text-anchor="middle" x="106" y="-7.5" font-family="Helvetica,sans-Serif" font-size="10.00"> </text>
</g>
<!-- Node2 -->
<g id="node2" class="node"><title>Node2</title>
<polygon fill="white" stroke="#bfbfbf" points="0,-292.5 0,-349.5 116,-349.5 116,-292.5 0,-292.5"/>
<text text-anchor="middle" x="58" y="-337.5" font-family="Helvetica,sans-Serif" font-size="10.00">deque&lt; file_progress &gt;</text>
<polyline fill="none" stroke="#bfbfbf" points="0,-330.5 116,-330.5 "/>
<text text-anchor="middle" x="58" y="-318.5" font-family="Helvetica,sans-Serif" font-size="10.00"> </text>
<polyline fill="none" stroke="#bfbfbf" points="0,-311.5 116,-311.5 "/>
<text text-anchor="middle" x="58" y="-299.5" font-family="Helvetica,sans-Serif" font-size="10.00"> </text>
</g>
<!-- Node2&#45;&gt;Node1 -->
<g id="edge1" class="edge"><title>Node2&#45;&gt;Node1</title>
<path fill="none" stroke="#404040" d="M64.0792,-292.327C68.6002,-271.747 75.0922,-242.195 81.6215,-212.473"/>
<polygon fill="none" stroke="#404040" points="81.6443,-212.369 79.0249,-205.65 84.2192,-200.648 86.8386,-207.367 81.6443,-212.369"/>
<text text-anchor="middle" x="101.5" y="-244" font-family="Helvetica,sans-Serif" font-size="10.00"> +file_info</text>
</g>
<!-- Node3 -->
<g id="node3" class="node"><title>Node3</title>
<polygon fill="white" stroke="#bfbfbf" points="134.5,-292.5 134.5,-349.5 175.5,-349.5 175.5,-292.5 134.5,-292.5"/>
<text text-anchor="middle" x="155" y="-337.5" font-family="Helvetica,sans-Serif" font-size="10.00">string</text>
<polyline fill="none" stroke="#bfbfbf" points="134.5,-330.5 175.5,-330.5 "/>
<text text-anchor="middle" x="155" y="-318.5" font-family="Helvetica,sans-Serif" font-size="10.00"> </text>
<polyline fill="none" stroke="#bfbfbf" points="134.5,-311.5 175.5,-311.5 "/>
<text text-anchor="middle" x="155" y="-299.5" font-family="Helvetica,sans-Serif" font-size="10.00"> </text>
</g>
<!-- Node3&#45;&gt;Node1 -->
<g id="edge2" class="edge"><title>Node3&#45;&gt;Node1</title>
<path fill="none" stroke="#404040" d="M148.794,-292.327C144.179,-271.747 137.552,-242.195 130.886,-212.473"/>
<polygon fill="none" stroke="#404040" points="130.861,-212.357 125.645,-207.378 128.235,-200.648 133.451,-205.627 130.861,-212.357"/>
<text text-anchor="middle" x="175" y="-266" font-family="Helvetica,sans-Serif" font-size="10.00"> +node_name</text>
<text text-anchor="middle" x="175" y="-255" font-family="Helvetica,sans-Serif" font-size="10.00">+file_name</text>
<text text-anchor="middle" x="175" y="-244" font-family="Helvetica,sans-Serif" font-size="10.00">+temppath</text>
<text text-anchor="middle" x="175" y="-233" font-family="Helvetica,sans-Serif" font-size="10.00">+agent_name</text>
<text text-anchor="middle" x="175" y="-222" font-family="Helvetica,sans-Serif" font-size="10.00">+filepath</text>
</g>
</g>
</svg>
