<?xml version="1.0" encoding="UTF-8" standalone="no"?>
<!DOCTYPE svg PUBLIC "-//W3C//DTD SVG 1.1//EN"
 "http://www.w3.org/Graphics/SVG/1.1/DTD/svg11.dtd">
<!-- Generated by graphviz version 2.38.0 (20140413.2041)
 -->
<!-- Title: my_coef_controller Pages: 1 -->
<!--zoomable 634 -->
<svg id="main" version="1.1" xmlns="http://www.w3.org/2000/svg" xmlns:xlink="http://www.w3.org/1999/xlink" xml:space="preserve" onload="init(evt)">
<style type="text/css"><![CDATA[
.edge:hover path { stroke: red; }
.edge:hover polygon { stroke: red; fill: red; }
]]></style>
<script type="text/javascript"><![CDATA[
var edges = document.getElementsByTagName('g');
if (edges && edges.length) {
  for (var i=0;i<edges.length;i++) {
    if (edges[i].id.substr(0,4)=='edge') {
      edges[i].setAttribute('class','edge');
    }
  }
}
]]></script>
        <defs>
                <circle id="rim" cx="0" cy="0" r="7"/>
                <circle id="rim2" cx="0" cy="0" r="3.5"/>
                <g id="zoomPlus">
                        <use xlink:href="#rim" fill="#404040">
                                <set attributeName="fill" to="#808080" begin="zoomplus.mouseover" end="zoomplus.mouseout"/>
                        </use>
                        <path d="M-4,0h8M0,-4v8" fill="none" stroke="white" stroke-width="1.5" pointer-events="none"/>
                </g>
                <g id="zoomMin">
                        <use xlink:href="#rim" fill="#404040">
                                <set attributeName="fill" to="#808080" begin="zoomminus.mouseover" end="zoomminus.mouseout"/>
                        </use>
                        <path d="M-4,0h8" fill="none" stroke="white" stroke-width="1.5" pointer-events="none"/>
                </g>
                <g id="dirArrow">
                        <path fill="none" stroke="white" stroke-width="1.5" d="M0,-3.0v7 M-2.5,-0.5L0,-3.0L2.5,-0.5"/>
                </g>
               <g id="resetDef">
                       <use xlink:href="#rim2" fill="#404040">
                               <set attributeName="fill" to="#808080" begin="reset.mouseover" end="reset.mouseout"/>
                       </use>
               </g>
        </defs>

<script type="text/javascript">
var viewWidth = 350;
var viewHeight = 634;
var sectionId = 'dynsection-0';
</script>
<script xlink:href="svgpan.js"/>
<svg id="graph" class="graph">
<g id="viewport">
<title>my_coef_controller</title>
<polygon fill="white" stroke="none" points="-4,4 -4,-630 345.5,-630 345.5,4 -4,4"/>
<!-- Node1 -->
<g id="node1" class="node"><title>Node1</title>
<polygon fill="#bfbfbf" stroke="black" points="79.5,-0.5 79.5,-134.5 225.5,-134.5 225.5,-0.5 79.5,-0.5"/>
<text text-anchor="middle" x="152.5" y="-122.5" font-family="Helvetica,sans-Serif" font-size="10.00">my_coef_controller</text>
<polyline fill="none" stroke="black" points="79.5,-115.5 225.5,-115.5 "/>
<text text-anchor="start" x="87.5" y="-103.5" font-family="Helvetica,sans-Serif" font-size="10.00">+ iMCU_row_num</text>
<text text-anchor="start" x="87.5" y="-92.5" font-family="Helvetica,sans-Serif" font-size="10.00">+ mcu_ctr</text>
<text text-anchor="start" x="87.5" y="-81.5" font-family="Helvetica,sans-Serif" font-size="10.00">+ MCU_vert_offset</text>
<text text-anchor="start" x="87.5" y="-70.5" font-family="Helvetica,sans-Serif" font-size="10.00">+ MCU_rows_per_iMCU_row</text>
<text text-anchor="start" x="87.5" y="-59.5" font-family="Helvetica,sans-Serif" font-size="10.00">+ MCU_buffer</text>
<text text-anchor="start" x="87.5" y="-48.5" font-family="Helvetica,sans-Serif" font-size="10.00">+ dummy_buffer</text>
<text text-anchor="start" x="87.5" y="-37.5" font-family="Helvetica,sans-Serif" font-size="10.00">+ MCU_ctr</text>
<text text-anchor="start" x="87.5" y="-26.5" font-family="Helvetica,sans-Serif" font-size="10.00">+ coef_bits_latch</text>
<polyline fill="none" stroke="black" points="79.5,-19.5 225.5,-19.5 "/>
<text text-anchor="middle" x="152.5" y="-7.5" font-family="Helvetica,sans-Serif" font-size="10.00"> </text>
</g>
<!-- Node2 -->
<g id="node2" class="node"><title>Node2</title>
<g id="a_node2"><a xlink:href="structjvirt__barray__control.html" target="_top" xlink:title="{jvirt_barray_control\n|+ mem_buffer\l+ rows_in_array\l+ blocksperrow\l+ maxaccess\l+ rows_in_mem\l+ rowsperchunk\l+ cur_start_row\l+ first_undef_row\l+ pre_zero\l+ dirty\l+ b_s_open\l|}">
<polygon fill="white" stroke="black" points="4,-320.5 4,-487.5 103,-487.5 103,-320.5 4,-320.5"/>
<text text-anchor="middle" x="53.5" y="-475.5" font-family="Helvetica,sans-Serif" font-size="10.00">jvirt_barray_control</text>
<polyline fill="none" stroke="black" points="4,-468.5 103,-468.5 "/>
<text text-anchor="start" x="12" y="-456.5" font-family="Helvetica,sans-Serif" font-size="10.00">+ mem_buffer</text>
<text text-anchor="start" x="12" y="-445.5" font-family="Helvetica,sans-Serif" font-size="10.00">+ rows_in_array</text>
<text text-anchor="start" x="12" y="-434.5" font-family="Helvetica,sans-Serif" font-size="10.00">+ blocksperrow</text>
<text text-anchor="start" x="12" y="-423.5" font-family="Helvetica,sans-Serif" font-size="10.00">+ maxaccess</text>
<text text-anchor="start" x="12" y="-412.5" font-family="Helvetica,sans-Serif" font-size="10.00">+ rows_in_mem</text>
<text text-anchor="start" x="12" y="-401.5" font-family="Helvetica,sans-Serif" font-size="10.00">+ rowsperchunk</text>
<text text-anchor="start" x="12" y="-390.5" font-family="Helvetica,sans-Serif" font-size="10.00">+ cur_start_row</text>
<text text-anchor="start" x="12" y="-379.5" font-family="Helvetica,sans-Serif" font-size="10.00">+ first_undef_row</text>
<text text-anchor="start" x="12" y="-368.5" font-family="Helvetica,sans-Serif" font-size="10.00">+ pre_zero</text>
<text text-anchor="start" x="12" y="-357.5" font-family="Helvetica,sans-Serif" font-size="10.00">+ dirty</text>
<text text-anchor="start" x="12" y="-346.5" font-family="Helvetica,sans-Serif" font-size="10.00">+ b_s_open</text>
<polyline fill="none" stroke="black" points="4,-339.5 103,-339.5 "/>
<text text-anchor="middle" x="53.5" y="-327.5" font-family="Helvetica,sans-Serif" font-size="10.00"> </text>
</a>
</g>
</g>
<!-- Node2&#45;&gt;Node1 -->
<g id="edge1" class="edge"><title>Node2&#45;&gt;Node1</title>
<path fill="none" stroke="#404040" d="M19.0781,-320.348C6.48363,-277.427 -0.376937,-225.094 19.5,-182 30.6358,-157.857 49.72,-136.949 70.0103,-119.888"/>
<polygon fill="none" stroke="#404040" points="70.052,-119.854 72.212,-112.974 79.3935,-112.322 77.2336,-119.202 70.052,-119.854"/>
<text text-anchor="middle" x="53" y="-225" font-family="Helvetica,sans-Serif" font-size="10.00"> +whole_image</text>
</g>
<!-- Node2&#45;&gt;Node2 -->
<g id="edge2" class="edge"><title>Node2&#45;&gt;Node2</title>
<path fill="none" stroke="#404040" d="M103.245,-423.176C113.573,-421.158 121,-414.766 121,-404 121,-397.776 118.518,-393.014 114.428,-389.714"/>
<polygon fill="none" stroke="#404040" points="114.24,-389.632 107.14,-390.893 103.245,-384.824 110.345,-383.563 114.24,-389.632"/>
<text text-anchor="middle" x="135" y="-401.5" font-family="Helvetica,sans-Serif" font-size="10.00"> +next</text>
</g>
<!-- Node4 -->
<g id="node4" class="node"><title>Node4</title>
<g id="a_node4"><a xlink:href="structjpeg__d__coef__controller.html" target="_top" xlink:title="{jpeg_d_coef_controller\n||+ JMETHOD()\l+ JMETHOD()\l+ JMETHOD()\l+ JMETHOD()\l}">
<polygon fill="white" stroke="black" points="95.5,-182.5 95.5,-272.5 209.5,-272.5 209.5,-182.5 95.5,-182.5"/>
<text text-anchor="middle" x="152.5" y="-260.5" font-family="Helvetica,sans-Serif" font-size="10.00">jpeg_d_coef_controller</text>
<polyline fill="none" stroke="black" points="95.5,-253.5 209.5,-253.5 "/>
<text text-anchor="middle" x="152.5" y="-241.5" font-family="Helvetica,sans-Serif" font-size="10.00"> </text>
<polyline fill="none" stroke="black" points="95.5,-234.5 209.5,-234.5 "/>
<text text-anchor="start" x="103.5" y="-222.5" font-family="Helvetica,sans-Serif" font-size="10.00">+ JMETHOD()</text>
<text text-anchor="start" x="103.5" y="-211.5" font-family="Helvetica,sans-Serif" font-size="10.00">+ JMETHOD()</text>
<text text-anchor="start" x="103.5" y="-200.5" font-family="Helvetica,sans-Serif" font-size="10.00">+ JMETHOD()</text>
<text text-anchor="start" x="103.5" y="-189.5" font-family="Helvetica,sans-Serif" font-size="10.00">+ JMETHOD()</text>
</a>
</g>
</g>
<!-- Node2&#45;&gt;Node4 -->
<g id="edge5" class="edge"><title>Node2&#45;&gt;Node4</title>
<path fill="none" stroke="#404040" d="M100.391,-320.349C107.508,-307.804 114.697,-295.132 121.368,-283.375"/>
<polygon fill="none" stroke="#404040" points="121.41,-283.301 120.891,-276.108 127.331,-272.863 127.849,-280.056 121.41,-283.301"/>
<text text-anchor="middle" x="146" y="-294" font-family="Helvetica,sans-Serif" font-size="10.00"> +coef_arrays</text>
</g>
<!-- Node3 -->
<g id="node3" class="node"><title>Node3</title>
<g id="a_node3"><a xlink:href="structbacking__store__struct.html" target="_top" xlink:title="{backing_store_struct\n|+ temp_file\l+ temp_name\l|+ JMETHOD()\l+ JMETHOD()\l+ JMETHOD()\l}">
<polygon fill="white" stroke="black" points="0,-535.5 0,-625.5 107,-625.5 107,-535.5 0,-535.5"/>
<text text-anchor="middle" x="53.5" y="-613.5" font-family="Helvetica,sans-Serif" font-size="10.00">backing_store_struct</text>
<polyline fill="none" stroke="black" points="0,-606.5 107,-606.5 "/>
<text text-anchor="start" x="8" y="-594.5" font-family="Helvetica,sans-Serif" font-size="10.00">+ temp_file</text>
<text text-anchor="start" x="8" y="-583.5" font-family="Helvetica,sans-Serif" font-size="10.00">+ temp_name</text>
<polyline fill="none" stroke="black" points="0,-576.5 107,-576.5 "/>
<text text-anchor="start" x="8" y="-564.5" font-family="Helvetica,sans-Serif" font-size="10.00">+ JMETHOD()</text>
<text text-anchor="start" x="8" y="-553.5" font-family="Helvetica,sans-Serif" font-size="10.00">+ JMETHOD()</text>
<text text-anchor="start" x="8" y="-542.5" font-family="Helvetica,sans-Serif" font-size="10.00">+ JMETHOD()</text>
</a>
</g>
</g>
<!-- Node3&#45;&gt;Node2 -->
<g id="edge3" class="edge"><title>Node3&#45;&gt;Node2</title>
<path fill="none" stroke="#404040" d="M53.5,-535.466C53.5,-524.562 53.5,-512.453 53.5,-500.133"/>
<polygon fill="none" stroke="#404040" points="53.5001,-499.778 49.5,-493.779 53.5,-487.778 57.5,-493.778 53.5001,-499.778"/>
<text text-anchor="middle" x="76.5" y="-509" font-family="Helvetica,sans-Serif" font-size="10.00"> +b_s_info</text>
</g>
<!-- Node4&#45;&gt;Node1 -->
<g id="edge4" class="edge"><title>Node4&#45;&gt;Node1</title>
<path fill="none" stroke="#404040" d="M152.5,-182.488C152.5,-171.394 152.5,-159.146 152.5,-146.917"/>
<polygon fill="none" stroke="#404040" points="152.5,-146.737 148.5,-140.737 152.5,-134.737 156.5,-140.737 152.5,-146.737"/>
<text text-anchor="middle" x="165" y="-156" font-family="Helvetica,sans-Serif" font-size="10.00"> +pub</text>
</g>
<!-- Node5 -->
<g id="node5" class="node"><title>Node5</title>
<g id="a_node5"><a xlink:href="structjpeg__c__coef__controller.html" target="_top" xlink:title="{jpeg_c_coef_controller\n||+ JMETHOD()\l+ JMETHOD()\l}">
<polygon fill="white" stroke="black" points="227.5,-193.5 227.5,-261.5 341.5,-261.5 341.5,-193.5 227.5,-193.5"/>
<text text-anchor="middle" x="284.5" y="-249.5" font-family="Helvetica,sans-Serif" font-size="10.00">jpeg_c_coef_controller</text>
<polyline fill="none" stroke="black" points="227.5,-242.5 341.5,-242.5 "/>
<text text-anchor="middle" x="284.5" y="-230.5" font-family="Helvetica,sans-Serif" font-size="10.00"> </text>
<polyline fill="none" stroke="black" points="227.5,-223.5 341.5,-223.5 "/>
<text text-anchor="start" x="235.5" y="-211.5" font-family="Helvetica,sans-Serif" font-size="10.00">+ JMETHOD()</text>
<text text-anchor="start" x="235.5" y="-200.5" font-family="Helvetica,sans-Serif" font-size="10.00">+ JMETHOD()</text>
</a>
</g>
</g>
<!-- Node5&#45;&gt;Node1 -->
<g id="edge6" class="edge"><title>Node5&#45;&gt;Node1</title>
<path fill="none" stroke="#404040" d="M256.828,-193.378C244.837,-179.024 230.261,-161.578 215.854,-144.333"/>
<polygon fill="none" stroke="#404040" points="215.579,-144.004 208.662,-141.964 207.885,-134.794 214.802,-136.834 215.579,-144.004"/>
<text text-anchor="middle" x="242" y="-156" font-family="Helvetica,sans-Serif" font-size="10.00"> +pub</text>
</g>
</g>
</svg>
        <g id="navigator" transform="translate(0 0)" fill="#404254">
                <rect fill="#f2f5e9" fill-opacity="0.5" stroke="#606060" stroke-width=".5" x="0" y="0" width="60" height="60"/>
                <use id="zoomplus" xlink:href="#zoomPlus" x="17" y="9" onmousedown="handleZoom(evt,'in')"/>
                <use id="zoomminus" xlink:href="#zoomMin" x="42" y="9" onmousedown="handleZoom(evt,'out')"/>
                <use id="reset" xlink:href="#resetDef" x="30" y="36" onmousedown="handleReset()"/>
                <g id="arrowUp" xlink:href="#dirArrow" transform="translate(30 24)" onmousedown="handlePan(0,-1)">
                  <use xlink:href="#rim" fill="#404040">
                        <set attributeName="fill" to="#808080" begin="arrowUp.mouseover" end="arrowUp.mouseout"/>
                  </use>
                  <path fill="none" stroke="white" stroke-width="1.5" d="M0,-3.0v7 M-2.5,-0.5L0,-3.0L2.5,-0.5"/>
                </g>
                <g id="arrowRight" xlink:href="#dirArrow" transform="rotate(90) translate(36 -43)" onmousedown="handlePan(1,0)">
                  <use xlink:href="#rim" fill="#404040">
                        <set attributeName="fill" to="#808080" begin="arrowRight.mouseover" end="arrowRight.mouseout"/>
                  </use>
                  <path fill="none" stroke="white" stroke-width="1.5" d="M0,-3.0v7 M-2.5,-0.5L0,-3.0L2.5,-0.5"/>
                </g>
                <g id="arrowDown" xlink:href="#dirArrow" transform="rotate(180) translate(-30 -48)" onmousedown="handlePan(0,1)">
                  <use xlink:href="#rim" fill="#404040">
                        <set attributeName="fill" to="#808080" begin="arrowDown.mouseover" end="arrowDown.mouseout"/>
                  </use>
                  <path fill="none" stroke="white" stroke-width="1.5" d="M0,-3.0v7 M-2.5,-0.5L0,-3.0L2.5,-0.5"/>
                </g>
                <g id="arrowLeft" xlink:href="#dirArrow" transform="rotate(270) translate(-36 17)" onmousedown="handlePan(-1,0)">
                  <use xlink:href="#rim" fill="#404040">
                        <set attributeName="fill" to="#808080" begin="arrowLeft.mouseover" end="arrowLeft.mouseout"/>
                  </use>
                  <path fill="none" stroke="white" stroke-width="1.5" d="M0,-3.0v7 M-2.5,-0.5L0,-3.0L2.5,-0.5"/>
                </g>
        </g>
        <svg viewBox="0 0 15 15" width="100%" height="30px" preserveAspectRatio="xMaxYMin meet">
         <g id="arrow_out" transform="scale(0.3 0.3)">
          <a xlink:href="structmy__coef__controller__coll__graph_org.svg" target="_base">
           <rect id="button" ry="5" rx="5" y="6" x="6" height="38" width="38"
                fill="#f2f5e9" fill-opacity="0.5" stroke="#606060" stroke-width="1.0"/>
           <path id="arrow"
             d="M 11.500037,31.436501 C 11.940474,20.09759 22.043105,11.32322 32.158766,21.979434 L 37.068811,17.246167 C 37.068811,17.246167 37.088388,32 37.088388,32 L 22.160133,31.978069 C 22.160133,31.978069 26.997745,27.140456 26.997745,27.140456 C 18.528582,18.264221 13.291696,25.230495 11.500037,31.436501 z"
             style="fill:#404040;"/>
          </a>
         </g>
        </svg>
</svg>
