<?xml version="1.0" encoding="UTF-8" standalone="no"?>
<!DOCTYPE svg PUBLIC "-//W3C//DTD SVG 1.1//EN"
 "http://www.w3.org/Graphics/SVG/1.1/DTD/svg11.dtd">
<!-- Generated by graphviz version 2.38.0 (20140413.2041)
 -->
<!-- Title: jpeg_transform_info Pages: 1 -->
<svg width="175pt" height="452pt"
 viewBox="0.00 0.00 174.50 452.00" xmlns="http://www.w3.org/2000/svg" xmlns:xlink="http://www.w3.org/1999/xlink">
<g id="graph0" class="graph" transform="scale(1 1) rotate(0) translate(4 448)">
<title>jpeg_transform_info</title>
<polygon fill="white" stroke="none" points="-4,4 -4,-448 170.5,-448 170.5,4 -4,4"/>
<!-- Node1 -->
<g id="node1" class="node"><title>Node1</title>
<polygon fill="#bfbfbf" stroke="black" points="2,-0.5 2,-90.5 105,-90.5 105,-0.5 2,-0.5"/>
<text text-anchor="middle" x="53.5" y="-78.5" font-family="Helvetica,sans-Serif" font-size="10.00">jpeg_transform_info</text>
<polyline fill="none" stroke="black" points="2,-71.5 105,-71.5 "/>
<text text-anchor="start" x="10" y="-59.5" font-family="Helvetica,sans-Serif" font-size="10.00">+ transform</text>
<text text-anchor="start" x="10" y="-48.5" font-family="Helvetica,sans-Serif" font-size="10.00">+ trim</text>
<text text-anchor="start" x="10" y="-37.5" font-family="Helvetica,sans-Serif" font-size="10.00">+ force_grayscale</text>
<text text-anchor="start" x="10" y="-26.5" font-family="Helvetica,sans-Serif" font-size="10.00">+ num_components</text>
<polyline fill="none" stroke="black" points="2,-19.5 105,-19.5 "/>
<text text-anchor="middle" x="53.5" y="-7.5" font-family="Helvetica,sans-Serif" font-size="10.00"> </text>
</g>
<!-- Node2 -->
<g id="node2" class="node"><title>Node2</title>
<g id="a_node2"><a xlink:href="structjvirt__barray__control.html" target="_top" xlink:title="{jvirt_barray_control\n|+ mem_buffer\l+ rows_in_array\l+ blocksperrow\l+ maxaccess\l+ rows_in_mem\l+ rowsperchunk\l+ cur_start_row\l+ first_undef_row\l+ pre_zero\l+ dirty\l+ b_s_open\l|}">
<polygon fill="white" stroke="black" points="4,-138.5 4,-305.5 103,-305.5 103,-138.5 4,-138.5"/>
<text text-anchor="middle" x="53.5" y="-293.5" font-family="Helvetica,sans-Serif" font-size="10.00">jvirt_barray_control</text>
<polyline fill="none" stroke="black" points="4,-286.5 103,-286.5 "/>
<text text-anchor="start" x="12" y="-274.5" font-family="Helvetica,sans-Serif" font-size="10.00">+ mem_buffer</text>
<text text-anchor="start" x="12" y="-263.5" font-family="Helvetica,sans-Serif" font-size="10.00">+ rows_in_array</text>
<text text-anchor="start" x="12" y="-252.5" font-family="Helvetica,sans-Serif" font-size="10.00">+ blocksperrow</text>
<text text-anchor="start" x="12" y="-241.5" font-family="Helvetica,sans-Serif" font-size="10.00">+ maxaccess</text>
<text text-anchor="start" x="12" y="-230.5" font-family="Helvetica,sans-Serif" font-size="10.00">+ rows_in_mem</text>
<text text-anchor="start" x="12" y="-219.5" font-family="Helvetica,sans-Serif" font-size="10.00">+ rowsperchunk</text>
<text text-anchor="start" x="12" y="-208.5" font-family="Helvetica,sans-Serif" font-size="10.00">+ cur_start_row</text>
<text text-anchor="start" x="12" y="-197.5" font-family="Helvetica,sans-Serif" font-size="10.00">+ first_undef_row</text>
<text text-anchor="start" x="12" y="-186.5" font-family="Helvetica,sans-Serif" font-size="10.00">+ pre_zero</text>
<text text-anchor="start" x="12" y="-175.5" font-family="Helvetica,sans-Serif" font-size="10.00">+ dirty</text>
<text text-anchor="start" x="12" y="-164.5" font-family="Helvetica,sans-Serif" font-size="10.00">+ b_s_open</text>
<polyline fill="none" stroke="black" points="4,-157.5 103,-157.5 "/>
<text text-anchor="middle" x="53.5" y="-145.5" font-family="Helvetica,sans-Serif" font-size="10.00"> </text>
</a>
</g>
</g>
<!-- Node2&#45;&gt;Node1 -->
<g id="edge1" class="edge"><title>Node2&#45;&gt;Node1</title>
<path fill="none" stroke="#404040" d="M53.5,-138.349C53.5,-126.444 53.5,-114.425 53.5,-103.181"/>
<polygon fill="none" stroke="#404040" points="53.5001,-102.863 49.5,-96.8634 53.5,-90.8634 57.5,-96.8634 53.5001,-102.863"/>
<text text-anchor="middle" x="110" y="-112" font-family="Helvetica,sans-Serif" font-size="10.00"> +workspace_coef_arrays</text>
</g>
<!-- Node2&#45;&gt;Node2 -->
<g id="edge2" class="edge"><title>Node2&#45;&gt;Node2</title>
<path fill="none" stroke="#404040" d="M103.245,-241.176C113.573,-239.158 121,-232.766 121,-222 121,-215.776 118.518,-211.014 114.428,-207.714"/>
<polygon fill="none" stroke="#404040" points="114.24,-207.632 107.14,-208.893 103.245,-202.824 110.345,-201.563 114.24,-207.632"/>
<text text-anchor="middle" x="135" y="-219.5" font-family="Helvetica,sans-Serif" font-size="10.00"> +next</text>
</g>
<!-- Node3 -->
<g id="node3" class="node"><title>Node3</title>
<g id="a_node3"><a xlink:href="structbacking__store__struct.html" target="_top" xlink:title="{backing_store_struct\n|+ temp_file\l+ temp_name\l|+ JMETHOD()\l+ JMETHOD()\l+ JMETHOD()\l}">
<polygon fill="white" stroke="black" points="-7.10543e-15,-353.5 -7.10543e-15,-443.5 107,-443.5 107,-353.5 -7.10543e-15,-353.5"/>
<text text-anchor="middle" x="53.5" y="-431.5" font-family="Helvetica,sans-Serif" font-size="10.00">backing_store_struct</text>
<polyline fill="none" stroke="black" points="-7.10543e-15,-424.5 107,-424.5 "/>
<text text-anchor="start" x="8" y="-412.5" font-family="Helvetica,sans-Serif" font-size="10.00">+ temp_file</text>
<text text-anchor="start" x="8" y="-401.5" font-family="Helvetica,sans-Serif" font-size="10.00">+ temp_name</text>
<polyline fill="none" stroke="black" points="-7.10543e-15,-394.5 107,-394.5 "/>
<text text-anchor="start" x="8" y="-382.5" font-family="Helvetica,sans-Serif" font-size="10.00">+ JMETHOD()</text>
<text text-anchor="start" x="8" y="-371.5" font-family="Helvetica,sans-Serif" font-size="10.00">+ JMETHOD()</text>
<text text-anchor="start" x="8" y="-360.5" font-family="Helvetica,sans-Serif" font-size="10.00">+ JMETHOD()</text>
</a>
</g>
</g>
<!-- Node3&#45;&gt;Node2 -->
<g id="edge3" class="edge"><title>Node3&#45;&gt;Node2</title>
<path fill="none" stroke="#404040" d="M53.5,-353.466C53.5,-342.562 53.5,-330.453 53.5,-318.133"/>
<polygon fill="none" stroke="#404040" points="53.5001,-317.778 49.5,-311.779 53.5,-305.778 57.5,-311.778 53.5001,-317.778"/>
<text text-anchor="middle" x="76.5" y="-327" font-family="Helvetica,sans-Serif" font-size="10.00"> +b_s_info</text>
</g>
</g>
</svg>
