<?xml version="1.0" encoding="UTF-8" standalone="no"?>
<!DOCTYPE svg PUBLIC "-//W3C//DTD SVG 1.1//EN"
 "http://www.w3.org/Graphics/SVG/1.1/DTD/svg11.dtd">
<!-- Generated by graphviz version 2.38.0 (20140413.2041)
 -->
<!-- Title: posstruc Pages: 1 -->
<svg width="401pt" height="777pt"
 viewBox="0.00 0.00 401.00 777.00" xmlns="http://www.w3.org/2000/svg" xmlns:xlink="http://www.w3.org/1999/xlink">
<g id="graph0" class="graph" transform="scale(1 1) rotate(0) translate(4 773)">
<title>posstruc</title>
<polygon fill="white" stroke="none" points="-4,4 -4,-773 397,-773 397,4 -4,4"/>
<!-- Node1 -->
<g id="node1" class="node"><title>Node1</title>
<polygon fill="#bfbfbf" stroke="black" points="155,-0.5 155,-123.5 233,-123.5 233,-0.5 155,-0.5"/>
<text text-anchor="middle" x="194" y="-111.5" font-family="Helvetica,sans-Serif" font-size="10.00">posstruc</text>
<polyline fill="none" stroke="black" points="155,-104.5 233,-104.5 "/>
<text text-anchor="start" x="163" y="-92.5" font-family="Helvetica,sans-Serif" font-size="10.00">+ utc</text>
<text text-anchor="start" x="163" y="-81.5" font-family="Helvetica,sans-Serif" font-size="10.00">+ earthsep</text>
<text text-anchor="start" x="163" y="-70.5" font-family="Helvetica,sans-Serif" font-size="10.00">+ moonsep</text>
<text text-anchor="start" x="163" y="-59.5" font-family="Helvetica,sans-Serif" font-size="10.00">+ sunsize</text>
<text text-anchor="start" x="163" y="-48.5" font-family="Helvetica,sans-Serif" font-size="10.00">+ sunradiance</text>
<text text-anchor="start" x="163" y="-37.5" font-family="Helvetica,sans-Serif" font-size="10.00">+ orbit</text>
<polyline fill="none" stroke="black" points="155,-30.5 233,-30.5 "/>
<text text-anchor="start" x="163" y="-18.5" font-family="Helvetica,sans-Serif" font-size="10.00">+ to_json()</text>
<text text-anchor="start" x="163" y="-7.5" font-family="Helvetica,sans-Serif" font-size="10.00">+ from_json()</text>
</g>
<!-- Node2 -->
<g id="node2" class="node"><title>Node2</title>
<g id="a_node2"><a xlink:href="structgeoidpos.html" target="_top" xlink:title="Geodetic position structure. ">
<polygon fill="white" stroke="black" points="0,-221 0,-300 74,-300 74,-221 0,-221"/>
<text text-anchor="middle" x="37" y="-288" font-family="Helvetica,sans-Serif" font-size="10.00">geoidpos</text>
<polyline fill="none" stroke="black" points="0,-281 74,-281 "/>
<text text-anchor="start" x="8" y="-269" font-family="Helvetica,sans-Serif" font-size="10.00">+ utc</text>
<text text-anchor="start" x="8" y="-258" font-family="Helvetica,sans-Serif" font-size="10.00">+ pass</text>
<polyline fill="none" stroke="black" points="0,-251 74,-251 "/>
<text text-anchor="start" x="8" y="-239" font-family="Helvetica,sans-Serif" font-size="10.00">+ to_json()</text>
<text text-anchor="start" x="8" y="-228" font-family="Helvetica,sans-Serif" font-size="10.00">+ from_json()</text>
</a>
</g>
</g>
<!-- Node2&#45;&gt;Node1 -->
<g id="edge1" class="edge"><title>Node2&#45;&gt;Node1</title>
<path fill="none" stroke="#404040" d="M59.2586,-220.996C66.6597,-208.466 75.0452,-194.556 83,-182 94.4787,-163.881 96.102,-158.337 110,-142 120.75,-129.363 133.344,-116.629 145.46,-105.184"/>
<polygon fill="none" stroke="#404040" points="145.798,-104.87 147.475,-97.8569 154.594,-96.7072 152.917,-103.721 145.798,-104.87"/>
<text text-anchor="middle" x="124" y="-156" font-family="Helvetica,sans-Serif" font-size="10.00"> +selg</text>
<text text-anchor="middle" x="124" y="-145" font-family="Helvetica,sans-Serif" font-size="10.00">+geod</text>
</g>
<!-- Node3 -->
<g id="node3" class="node"><title>Node3</title>
<g id="a_node3"><a xlink:href="structgvector.html" target="_top" xlink:title="3 element geodetic vector ">
<polygon fill="white" stroke="black" points="0,-496.5 0,-608.5 74,-608.5 74,-496.5 0,-496.5"/>
<text text-anchor="middle" x="37" y="-596.5" font-family="Helvetica,sans-Serif" font-size="10.00">gvector</text>
<polyline fill="none" stroke="black" points="0,-589.5 74,-589.5 "/>
<text text-anchor="start" x="8" y="-577.5" font-family="Helvetica,sans-Serif" font-size="10.00">+ lat</text>
<text text-anchor="start" x="8" y="-566.5" font-family="Helvetica,sans-Serif" font-size="10.00">+ lon</text>
<text text-anchor="start" x="8" y="-555.5" font-family="Helvetica,sans-Serif" font-size="10.00">+ h</text>
<polyline fill="none" stroke="black" points="0,-548.5 74,-548.5 "/>
<text text-anchor="start" x="8" y="-536.5" font-family="Helvetica,sans-Serif" font-size="10.00">+ gvector()</text>
<text text-anchor="start" x="8" y="-525.5" font-family="Helvetica,sans-Serif" font-size="10.00">+ gvector()</text>
<text text-anchor="start" x="8" y="-514.5" font-family="Helvetica,sans-Serif" font-size="10.00">+ to_json()</text>
<text text-anchor="start" x="8" y="-503.5" font-family="Helvetica,sans-Serif" font-size="10.00">+ from_json()</text>
</a>
</g>
</g>
<!-- Node3&#45;&gt;Node2 -->
<g id="edge2" class="edge"><title>Node3&#45;&gt;Node2</title>
<path fill="none" stroke="#404040" d="M37,-496.271C37,-443.286 37,-363.935 37,-312.435"/>
<polygon fill="none" stroke="#404040" points="37.0001,-312.295 33,-306.295 37,-300.295 41,-306.294 37.0001,-312.295"/>
<text text-anchor="middle" x="44.5" y="-426" font-family="Helvetica,sans-Serif" font-size="10.00"> +a</text>
<text text-anchor="middle" x="44.5" y="-415" font-family="Helvetica,sans-Serif" font-size="10.00">+s</text>
<text text-anchor="middle" x="44.5" y="-404" font-family="Helvetica,sans-Serif" font-size="10.00">+v</text>
</g>
<!-- Node4 -->
<g id="node4" class="node"><title>Node4</title>
<g id="a_node4"><a xlink:href="structspherpos.html" target="_top" xlink:title="Spherical position structure. ">
<polygon fill="white" stroke="black" points="92,-221 92,-300 166,-300 166,-221 92,-221"/>
<text text-anchor="middle" x="129" y="-288" font-family="Helvetica,sans-Serif" font-size="10.00">spherpos</text>
<polyline fill="none" stroke="black" points="92,-281 166,-281 "/>
<text text-anchor="start" x="100" y="-269" font-family="Helvetica,sans-Serif" font-size="10.00">+ utc</text>
<text text-anchor="start" x="100" y="-258" font-family="Helvetica,sans-Serif" font-size="10.00">+ pass</text>
<polyline fill="none" stroke="black" points="92,-251 166,-251 "/>
<text text-anchor="start" x="100" y="-239" font-family="Helvetica,sans-Serif" font-size="10.00">+ to_json()</text>
<text text-anchor="start" x="100" y="-228" font-family="Helvetica,sans-Serif" font-size="10.00">+ from_json()</text>
</a>
</g>
</g>
<!-- Node4&#45;&gt;Node1 -->
<g id="edge3" class="edge"><title>Node4&#45;&gt;Node1</title>
<path fill="none" stroke="#404040" d="M132.156,-220.805C134.894,-197.466 139.913,-167.429 149,-142 149.851,-139.619 150.771,-137.228 151.749,-134.835"/>
<polygon fill="none" stroke="#404040" points="151.834,-134.643 150.611,-127.537 156.701,-123.675 157.924,-130.781 151.834,-134.643"/>
<text text-anchor="middle" x="164.5" y="-150.5" font-family="Helvetica,sans-Serif" font-size="10.00"> +geos</text>
</g>
<!-- Node5 -->
<g id="node5" class="node"><title>Node5</title>
<g id="a_node5"><a xlink:href="structsvector.html" target="_top" xlink:title="3 element spherical vector ">
<polygon fill="white" stroke="black" points="92,-496.5 92,-608.5 166,-608.5 166,-496.5 92,-496.5"/>
<text text-anchor="middle" x="129" y="-596.5" font-family="Helvetica,sans-Serif" font-size="10.00">svector</text>
<polyline fill="none" stroke="black" points="92,-589.5 166,-589.5 "/>
<text text-anchor="start" x="100" y="-577.5" font-family="Helvetica,sans-Serif" font-size="10.00">+ phi</text>
<text text-anchor="start" x="100" y="-566.5" font-family="Helvetica,sans-Serif" font-size="10.00">+ lambda</text>
<text text-anchor="start" x="100" y="-555.5" font-family="Helvetica,sans-Serif" font-size="10.00">+ r</text>
<polyline fill="none" stroke="black" points="92,-548.5 166,-548.5 "/>
<text text-anchor="start" x="100" y="-536.5" font-family="Helvetica,sans-Serif" font-size="10.00">+ svector()</text>
<text text-anchor="start" x="100" y="-525.5" font-family="Helvetica,sans-Serif" font-size="10.00">+ svector()</text>
<text text-anchor="start" x="100" y="-514.5" font-family="Helvetica,sans-Serif" font-size="10.00">+ to_json()</text>
<text text-anchor="start" x="100" y="-503.5" font-family="Helvetica,sans-Serif" font-size="10.00">+ from_json()</text>
</a>
</g>
</g>
<!-- Node5&#45;&gt;Node4 -->
<g id="edge4" class="edge"><title>Node5&#45;&gt;Node4</title>
<path fill="none" stroke="#404040" d="M129,-496.271C129,-443.286 129,-363.935 129,-312.435"/>
<polygon fill="none" stroke="#404040" points="129,-312.295 125,-306.295 129,-300.295 133,-306.294 129,-312.295"/>
<text text-anchor="middle" x="136.5" y="-426" font-family="Helvetica,sans-Serif" font-size="10.00"> +a</text>
<text text-anchor="middle" x="136.5" y="-415" font-family="Helvetica,sans-Serif" font-size="10.00">+s</text>
<text text-anchor="middle" x="136.5" y="-404" font-family="Helvetica,sans-Serif" font-size="10.00">+v</text>
</g>
<!-- Node6 -->
<g id="node6" class="node"><title>Node6</title>
<g id="a_node6"><a xlink:href="structcartpos.html" target="_top" xlink:title="Cartesian full position structure. ">
<polygon fill="white" stroke="black" points="225,-513 225,-592 299,-592 299,-513 225,-513"/>
<text text-anchor="middle" x="262" y="-580" font-family="Helvetica,sans-Serif" font-size="10.00">cartpos</text>
<polyline fill="none" stroke="black" points="225,-573 299,-573 "/>
<text text-anchor="start" x="233" y="-561" font-family="Helvetica,sans-Serif" font-size="10.00">+ utc</text>
<text text-anchor="start" x="233" y="-550" font-family="Helvetica,sans-Serif" font-size="10.00">+ pass</text>
<polyline fill="none" stroke="black" points="225,-543 299,-543 "/>
<text text-anchor="start" x="233" y="-531" font-family="Helvetica,sans-Serif" font-size="10.00">+ to_json()</text>
<text text-anchor="start" x="233" y="-520" font-family="Helvetica,sans-Serif" font-size="10.00">+ from_json()</text>
</a>
</g>
</g>
<!-- Node6&#45;&gt;Node1 -->
<g id="edge5" class="edge"><title>Node6&#45;&gt;Node1</title>
<path fill="none" stroke="#404040" d="M257.47,-512.744C248.832,-439.955 228.99,-277.891 208,-142 207.686,-139.965 207.361,-137.902 207.028,-135.821"/>
<polygon fill="none" stroke="#404040" points="206.994,-135.61 202.074,-130.338 205.049,-123.769 209.968,-129.041 206.994,-135.61"/>
<text text-anchor="middle" x="249" y="-280" font-family="Helvetica,sans-Serif" font-size="10.00"> +selc</text>
<text text-anchor="middle" x="249" y="-269" font-family="Helvetica,sans-Serif" font-size="10.00">+icrf</text>
<text text-anchor="middle" x="249" y="-258" font-family="Helvetica,sans-Serif" font-size="10.00">+sci</text>
<text text-anchor="middle" x="249" y="-247" font-family="Helvetica,sans-Serif" font-size="10.00">+geoc</text>
<text text-anchor="middle" x="249" y="-236" font-family="Helvetica,sans-Serif" font-size="10.00">+eci</text>
</g>
<!-- Node8 -->
<g id="node8" class="node"><title>Node8</title>
<g id="a_node8"><a xlink:href="structextrapos.html" target="_top" xlink:title="Additional parameters relating to position that need only be calculated once. ">
<polygon fill="white" stroke="black" points="292,-182.5 292,-338.5 366,-338.5 366,-182.5 292,-182.5"/>
<text text-anchor="middle" x="329" y="-326.5" font-family="Helvetica,sans-Serif" font-size="10.00">extrapos</text>
<polyline fill="none" stroke="black" points="292,-319.5 366,-319.5 "/>
<text text-anchor="start" x="300" y="-307.5" font-family="Helvetica,sans-Serif" font-size="10.00">+ utc</text>
<text text-anchor="start" x="300" y="-296.5" font-family="Helvetica,sans-Serif" font-size="10.00">+ tt</text>
<text text-anchor="start" x="300" y="-285.5" font-family="Helvetica,sans-Serif" font-size="10.00">+ ut</text>
<text text-anchor="start" x="300" y="-274.5" font-family="Helvetica,sans-Serif" font-size="10.00">+ tdb</text>
<text text-anchor="start" x="300" y="-263.5" font-family="Helvetica,sans-Serif" font-size="10.00">+ j2e</text>
<text text-anchor="start" x="300" y="-252.5" font-family="Helvetica,sans-Serif" font-size="10.00">+ dj2e</text>
<text text-anchor="start" x="300" y="-241.5" font-family="Helvetica,sans-Serif" font-size="10.00">+ ddj2e</text>
<text text-anchor="start" x="300" y="-230.5" font-family="Helvetica,sans-Serif" font-size="10.00">+ de2j</text>
<text text-anchor="start" x="300" y="-219.5" font-family="Helvetica,sans-Serif" font-size="10.00">+ closest</text>
<polyline fill="none" stroke="black" points="292,-212.5 366,-212.5 "/>
<text text-anchor="start" x="300" y="-200.5" font-family="Helvetica,sans-Serif" font-size="10.00">+ to_json()</text>
<text text-anchor="start" x="300" y="-189.5" font-family="Helvetica,sans-Serif" font-size="10.00">+ from_json()</text>
</a>
</g>
</g>
<!-- Node6&#45;&gt;Node8 -->
<g id="edge9" class="edge"><title>Node6&#45;&gt;Node8</title>
<path fill="none" stroke="#404040" d="M260.952,-512.663C260.898,-472.801 263.67,-409.375 279,-357 281.165,-349.605 283.926,-342.119 287.037,-334.761"/>
<polygon fill="none" stroke="#404040" points="287.078,-334.67 285.886,-327.558 291.993,-323.723 293.184,-330.835 287.078,-334.67"/>
<text text-anchor="middle" x="306.5" y="-420.5" font-family="Helvetica,sans-Serif" font-size="10.00"> +sun2moon</text>
<text text-anchor="middle" x="306.5" y="-409.5" font-family="Helvetica,sans-Serif" font-size="10.00">+sun2earth</text>
</g>
<!-- Node7 -->
<g id="node7" class="node"><title>Node7</title>
<g id="a_node7"><a xlink:href="structrvector.html" target="_top" xlink:title="3 element generic row vector ">
<polygon fill="white" stroke="black" points="225,-678.5 225,-768.5 299,-768.5 299,-678.5 225,-678.5"/>
<text text-anchor="middle" x="262" y="-756.5" font-family="Helvetica,sans-Serif" font-size="10.00">rvector</text>
<polyline fill="none" stroke="black" points="225,-749.5 299,-749.5 "/>
<text text-anchor="start" x="233" y="-737.5" font-family="Helvetica,sans-Serif" font-size="10.00">+ col</text>
<polyline fill="none" stroke="black" points="225,-730.5 299,-730.5 "/>
<text text-anchor="start" x="233" y="-718.5" font-family="Helvetica,sans-Serif" font-size="10.00">+ rvector()</text>
<text text-anchor="start" x="233" y="-707.5" font-family="Helvetica,sans-Serif" font-size="10.00">+ rvector()</text>
<text text-anchor="start" x="233" y="-696.5" font-family="Helvetica,sans-Serif" font-size="10.00">+ to_json()</text>
<text text-anchor="start" x="233" y="-685.5" font-family="Helvetica,sans-Serif" font-size="10.00">+ from_json()</text>
</a>
</g>
</g>
<!-- Node7&#45;&gt;Node1 -->
<g id="edge7" class="edge"><title>Node7&#45;&gt;Node1</title>
<path fill="none" stroke="#404040" d="M241.209,-678.342C232.239,-657.681 222.365,-632.498 216,-609 171.44,-444.509 178.584,-242.02 186.81,-135.854"/>
<polygon fill="none" stroke="#404040" points="186.825,-135.666 183.32,-129.364 187.789,-123.705 191.294,-130.007 186.825,-135.666"/>
<text text-anchor="middle" x="208.5" y="-415" font-family="Helvetica,sans-Serif" font-size="10.00"> +bearth</text>
</g>
<!-- Node7&#45;&gt;Node6 -->
<g id="edge6" class="edge"><title>Node7&#45;&gt;Node6</title>
<path fill="none" stroke="#404040" d="M262,-678.097C262,-655.466 262,-627.84 262,-604.356"/>
<polygon fill="none" stroke="#404040" points="262,-604.15 258,-598.15 262,-592.15 266,-598.149 262,-604.15"/>
<text text-anchor="middle" x="269.5" y="-652" font-family="Helvetica,sans-Serif" font-size="10.00"> +a</text>
<text text-anchor="middle" x="269.5" y="-641" font-family="Helvetica,sans-Serif" font-size="10.00">+s</text>
<text text-anchor="middle" x="269.5" y="-630" font-family="Helvetica,sans-Serif" font-size="10.00">+v</text>
</g>
<!-- Node9 -->
<g id="node9" class="node"><title>Node9</title>
<g id="a_node9"><a xlink:href="structrmatrix.html" target="_top" xlink:title="3x3 element generic matrix ">
<polygon fill="white" stroke="black" points="319,-507.5 319,-597.5 393,-597.5 393,-507.5 319,-507.5"/>
<text text-anchor="middle" x="356" y="-585.5" font-family="Helvetica,sans-Serif" font-size="10.00">rmatrix</text>
<polyline fill="none" stroke="black" points="319,-578.5 393,-578.5 "/>
<text text-anchor="middle" x="356" y="-566.5" font-family="Helvetica,sans-Serif" font-size="10.00"> </text>
<polyline fill="none" stroke="black" points="319,-559.5 393,-559.5 "/>
<text text-anchor="start" x="327" y="-547.5" font-family="Helvetica,sans-Serif" font-size="10.00">+ rmatrix()</text>
<text text-anchor="start" x="327" y="-536.5" font-family="Helvetica,sans-Serif" font-size="10.00">+ rmatrix()</text>
<text text-anchor="start" x="327" y="-525.5" font-family="Helvetica,sans-Serif" font-size="10.00">+ to_json()</text>
<text text-anchor="start" x="327" y="-514.5" font-family="Helvetica,sans-Serif" font-size="10.00">+ from_json()</text>
</a>
</g>
</g>
<!-- Node7&#45;&gt;Node9 -->
<g id="edge11" class="edge"><title>Node7&#45;&gt;Node9</title>
<path fill="none" stroke="#404040" d="M286.697,-678.097C298.571,-656.75 312.917,-630.958 325.469,-608.392"/>
<polygon fill="none" stroke="#404040" points="325.635,-608.093 325.055,-600.905 331.468,-597.606 332.047,-604.794 325.635,-608.093"/>
<text text-anchor="middle" x="326.5" y="-641" font-family="Helvetica,sans-Serif" font-size="10.00"> +row</text>
</g>
<!-- Node8&#45;&gt;Node1 -->
<g id="edge8" class="edge"><title>Node8&#45;&gt;Node1</title>
<path fill="none" stroke="#404040" d="M291.999,-192.118C282.126,-175.4 271.1,-157.764 260,-142 254.019,-133.506 247.352,-124.797 240.618,-116.408"/>
<polygon fill="none" stroke="#404040" points="240.609,-116.397 233.716,-114.278 233.021,-107.101 239.914,-109.219 240.609,-116.397"/>
<text text-anchor="middle" x="289.5" y="-150.5" font-family="Helvetica,sans-Serif" font-size="10.00"> +extra</text>
</g>
<!-- Node9&#45;&gt;Node8 -->
<g id="edge10" class="edge"><title>Node9&#45;&gt;Node8</title>
<path fill="none" stroke="#404040" d="M351.899,-507.455C348.048,-466.089 342.17,-402.959 337.334,-351.016"/>
<polygon fill="none" stroke="#404040" points="337.305,-350.705 332.766,-345.101 336.193,-338.756 340.732,-344.36 337.305,-350.705"/>
<text text-anchor="middle" x="363" y="-470" font-family="Helvetica,sans-Serif" font-size="10.00"> +t2s</text>
<text text-anchor="middle" x="363" y="-459" font-family="Helvetica,sans-Serif" font-size="10.00">+s2t</text>
<text text-anchor="middle" x="363" y="-448" font-family="Helvetica,sans-Serif" font-size="10.00">+dt2s</text>
<text text-anchor="middle" x="363" y="-437" font-family="Helvetica,sans-Serif" font-size="10.00">+ds2t</text>
<text text-anchor="middle" x="363" y="-426" font-family="Helvetica,sans-Serif" font-size="10.00">+s2j</text>
<text text-anchor="middle" x="363" y="-415" font-family="Helvetica,sans-Serif" font-size="10.00">+j2s</text>
<text text-anchor="middle" x="363" y="-404" font-family="Helvetica,sans-Serif" font-size="10.00">+t2j</text>
<text text-anchor="middle" x="363" y="-393" font-family="Helvetica,sans-Serif" font-size="10.00">+j2t</text>
<text text-anchor="middle" x="363" y="-382" font-family="Helvetica,sans-Serif" font-size="10.00">+dde2j</text>
<text text-anchor="middle" x="363" y="-371" font-family="Helvetica,sans-Serif" font-size="10.00">+e2j</text>
<text text-anchor="middle" x="363" y="-360" font-family="Helvetica,sans-Serif" font-size="10.00">...</text>
</g>
</g>
</svg>
