<?xml version="1.0" encoding="UTF-8" standalone="no"?>
<!DOCTYPE svg PUBLIC "-//W3C//DTD SVG 1.1//EN"
 "http://www.w3.org/Graphics/SVG/1.1/DTD/svg11.dtd">
<!-- Generated by graphviz version 2.38.0 (20140413.2041)
 -->
<!-- Title: jsonoperand Pages: 1 -->
<svg width="82pt" height="215pt"
 viewBox="0.00 0.00 82.00 215.00" xmlns="http://www.w3.org/2000/svg" xmlns:xlink="http://www.w3.org/1999/xlink">
<g id="graph0" class="graph" transform="scale(1 1) rotate(0) translate(4 211)">
<title>jsonoperand</title>
<polygon fill="white" stroke="none" points="-4,4 -4,-211 78,-211 78,4 -4,4"/>
<!-- Node1 -->
<g id="node1" class="node"><title>Node1</title>
<polygon fill="#bfbfbf" stroke="black" points="2.5,-0.5 2.5,-79.5 71.5,-79.5 71.5,-0.5 2.5,-0.5"/>
<text text-anchor="middle" x="37" y="-67.5" font-family="Helvetica,sans-Serif" font-size="10.00">jsonoperand</text>
<polyline fill="none" stroke="black" points="2.5,-60.5 71.5,-60.5 "/>
<text text-anchor="start" x="10.5" y="-48.5" font-family="Helvetica,sans-Serif" font-size="10.00">+ type</text>
<text text-anchor="start" x="10.5" y="-37.5" font-family="Helvetica,sans-Serif" font-size="10.00">+ value</text>
<text text-anchor="start" x="10.5" y="-26.5" font-family="Helvetica,sans-Serif" font-size="10.00">+ @41</text>
<polyline fill="none" stroke="black" points="2.5,-19.5 71.5,-19.5 "/>
<text text-anchor="middle" x="37" y="-7.5" font-family="Helvetica,sans-Serif" font-size="10.00"> </text>
</g>
<!-- Node2 -->
<g id="node2" class="node"><title>Node2</title>
<g id="a_node2"><a xlink:href="structjsonhandle.html" target="_top" xlink:title="JSON handle. ">
<polygon fill="white" stroke="black" points="0,-127.5 0,-206.5 74,-206.5 74,-127.5 0,-127.5"/>
<text text-anchor="middle" x="37" y="-194.5" font-family="Helvetica,sans-Serif" font-size="10.00">jsonhandle</text>
<polyline fill="none" stroke="black" points="0,-187.5 74,-187.5 "/>
<text text-anchor="start" x="8" y="-175.5" font-family="Helvetica,sans-Serif" font-size="10.00">+ hash</text>
<text text-anchor="start" x="8" y="-164.5" font-family="Helvetica,sans-Serif" font-size="10.00">+ index</text>
<polyline fill="none" stroke="black" points="0,-157.5 74,-157.5 "/>
<text text-anchor="start" x="8" y="-145.5" font-family="Helvetica,sans-Serif" font-size="10.00">+ to_json()</text>
<text text-anchor="start" x="8" y="-134.5" font-family="Helvetica,sans-Serif" font-size="10.00">+ from_json()</text>
</a>
</g>
</g>
<!-- Node2&#45;&gt;Node1 -->
<g id="edge1" class="edge"><title>Node2&#45;&gt;Node1</title>
<path fill="none" stroke="#404040" d="M37,-127.476C37,-116.189 37,-103.672 37,-91.7479"/>
<polygon fill="none" stroke="#404040" points="37.0001,-91.6121 33,-85.6121 37,-79.6121 41,-85.612 37.0001,-91.6121"/>
<text text-anchor="middle" x="51" y="-101" font-family="Helvetica,sans-Serif" font-size="10.00"> +data</text>
</g>
</g>
</svg>
