<?xml version="1.0" encoding="UTF-8" standalone="no"?>
<!DOCTYPE svg PUBLIC "-//W3C//DTD SVG 1.1//EN"
 "http://www.w3.org/Graphics/SVG/1.1/DTD/svg11.dtd">
<!-- Generated by graphviz version 2.38.0 (20140413.2041)
 -->
<!-- Title: Cosmos::wavefront::material Pages: 1 -->
<svg width="188pt" height="369pt"
 viewBox="0.00 0.00 188.00 369.00" xmlns="http://www.w3.org/2000/svg" xmlns:xlink="http://www.w3.org/1999/xlink">
<g id="graph0" class="graph" transform="scale(1 1) rotate(0) translate(4 365)">
<title>Cosmos::wavefront::material</title>
<polygon fill="white" stroke="none" points="-4,4 -4,-365 184,-365 184,4 -4,4"/>
<!-- Node1 -->
<g id="node1" class="node"><title>Node1</title>
<polygon fill="#bfbfbf" stroke="black" points="55.5,-0.5 55.5,-79.5 163.5,-79.5 163.5,-0.5 55.5,-0.5"/>
<text text-anchor="start" x="63.5" y="-67.5" font-family="Helvetica,sans-Serif" font-size="10.00">Cosmos::wavefront::</text>
<text text-anchor="middle" x="109.5" y="-56.5" font-family="Helvetica,sans-Serif" font-size="10.00">material</text>
<polyline fill="none" stroke="black" points="55.5,-49.5 163.5,-49.5 "/>
<text text-anchor="start" x="63.5" y="-37.5" font-family="Helvetica,sans-Serif" font-size="10.00">+ density</text>
<polyline fill="none" stroke="black" points="55.5,-30.5 163.5,-30.5 "/>
<text text-anchor="start" x="63.5" y="-18.5" font-family="Helvetica,sans-Serif" font-size="10.00">+ to_json()</text>
<text text-anchor="start" x="63.5" y="-7.5" font-family="Helvetica,sans-Serif" font-size="10.00">+ from_json()</text>
</g>
<!-- Node2 -->
<g id="node2" class="node"><title>Node2</title>
<g id="a_node2"><a xlink:href="class_cosmos_1_1_math_1_1_vectors_1_1_vector.html" target="_top" xlink:title="Vector Class. ">
<polygon fill="white" stroke="black" points="0,-149.5 0,-360.5 121,-360.5 121,-149.5 0,-149.5"/>
<text text-anchor="start" x="8" y="-348.5" font-family="Helvetica,sans-Serif" font-size="10.00">Cosmos::Math::Vectors</text>
<text text-anchor="middle" x="60.5" y="-337.5" font-family="Helvetica,sans-Serif" font-size="10.00">::Vector</text>
<polyline fill="none" stroke="black" points="0,-330.5 121,-330.5 "/>
<text text-anchor="start" x="8" y="-318.5" font-family="Helvetica,sans-Serif" font-size="10.00">+ x</text>
<text text-anchor="start" x="8" y="-307.5" font-family="Helvetica,sans-Serif" font-size="10.00">+ y</text>
<text text-anchor="start" x="8" y="-296.5" font-family="Helvetica,sans-Serif" font-size="10.00">+ z</text>
<text text-anchor="start" x="8" y="-285.5" font-family="Helvetica,sans-Serif" font-size="10.00">+ w</text>
<polyline fill="none" stroke="black" points="0,-278.5 121,-278.5 "/>
<text text-anchor="start" x="8" y="-266.5" font-family="Helvetica,sans-Serif" font-size="10.00">+ Vector()</text>
<text text-anchor="start" x="8" y="-255.5" font-family="Helvetica,sans-Serif" font-size="10.00">+ Vector()</text>
<text text-anchor="start" x="8" y="-244.5" font-family="Helvetica,sans-Serif" font-size="10.00">+ Vector()</text>
<text text-anchor="start" x="8" y="-233.5" font-family="Helvetica,sans-Serif" font-size="10.00">+ Vector()</text>
<text text-anchor="start" x="8" y="-222.5" font-family="Helvetica,sans-Serif" font-size="10.00">+ at()</text>
<text text-anchor="start" x="8" y="-211.5" font-family="Helvetica,sans-Serif" font-size="10.00">+ to_rv()</text>
<text text-anchor="start" x="8" y="-200.5" font-family="Helvetica,sans-Serif" font-size="10.00">+ to_cv()</text>
<text text-anchor="start" x="8" y="-189.5" font-family="Helvetica,sans-Serif" font-size="10.00">+ to_q()</text>
<text text-anchor="start" x="8" y="-178.5" font-family="Helvetica,sans-Serif" font-size="10.00">+ cross()</text>
<text text-anchor="start" x="8" y="-167.5" font-family="Helvetica,sans-Serif" font-size="10.00">+ dot()</text>
<text text-anchor="start" x="8" y="-156.5" font-family="Helvetica,sans-Serif" font-size="10.00">and 26 more...</text>
</a>
</g>
</g>
<!-- Node2&#45;&gt;Node1 -->
<g id="edge1" class="edge"><title>Node2&#45;&gt;Node1</title>
<path fill="none" stroke="#404040" d="M82.6548,-149.387C86.4821,-132.189 90.5148,-114.575 94.5,-98 95.0158,-95.8547 95.5511,-93.6664 96.0991,-91.4576"/>
<polygon fill="none" stroke="#404040" points="96.162,-91.2091 93.7584,-84.4103 99.1097,-79.5767 101.513,-86.3755 96.162,-91.2091"/>
<text text-anchor="middle" x="116" y="-123" font-family="Helvetica,sans-Serif" font-size="10.00"> +diffuse</text>
<text text-anchor="middle" x="116" y="-112" font-family="Helvetica,sans-Serif" font-size="10.00">+ambient</text>
<text text-anchor="middle" x="116" y="-101" font-family="Helvetica,sans-Serif" font-size="10.00">+specular</text>
</g>
<!-- Node3 -->
<g id="node3" class="node"><title>Node3</title>
<polygon fill="white" stroke="#bfbfbf" points="139,-226.5 139,-283.5 180,-283.5 180,-226.5 139,-226.5"/>
<text text-anchor="middle" x="159.5" y="-271.5" font-family="Helvetica,sans-Serif" font-size="10.00">string</text>
<polyline fill="none" stroke="#bfbfbf" points="139,-264.5 180,-264.5 "/>
<text text-anchor="middle" x="159.5" y="-252.5" font-family="Helvetica,sans-Serif" font-size="10.00"> </text>
<polyline fill="none" stroke="#bfbfbf" points="139,-245.5 180,-245.5 "/>
<text text-anchor="middle" x="159.5" y="-233.5" font-family="Helvetica,sans-Serif" font-size="10.00"> </text>
</g>
<!-- Node3&#45;&gt;Node1 -->
<g id="edge2" class="edge"><title>Node3&#45;&gt;Node1</title>
<path fill="none" stroke="#404040" d="M158.24,-226.376C156.198,-194.743 150.927,-141.659 137.5,-98 136.766,-95.6124 135.942,-93.201 135.051,-90.7887"/>
<polygon fill="none" stroke="#404040" points="135.009,-90.6862 129.035,-86.6469 130.466,-79.5792 136.44,-83.6184 135.009,-90.6862"/>
<text text-anchor="middle" x="161.5" y="-112" font-family="Helvetica,sans-Serif" font-size="10.00"> +name</text>
</g>
</g>
</svg>
