<?xml version="1.0" encoding="UTF-8" standalone="no"?>
<!DOCTYPE svg PUBLIC "-//W3C//DTD SVG 1.1//EN"
 "http://www.w3.org/Graphics/SVG/1.1/DTD/svg11.dtd">
<!-- Generated by graphviz version 2.38.0 (20140413.2041)
 -->
<!-- Title: quatatt Pages: 1 -->
<svg width="179pt" height="441pt"
 viewBox="0.00 0.00 178.50 441.00" xmlns="http://www.w3.org/2000/svg" xmlns:xlink="http://www.w3.org/1999/xlink">
<g id="graph0" class="graph" transform="scale(1 1) rotate(0) translate(4 437)">
<title>quatatt</title>
<polygon fill="white" stroke="none" points="-4,4 -4,-437 174.5,-437 174.5,4 -4,4"/>
<!-- Node1 -->
<g id="node1" class="node"><title>Node1</title>
<polygon fill="#bfbfbf" stroke="black" points="86,-0.5 86,-57.5 133,-57.5 133,-0.5 86,-0.5"/>
<text text-anchor="middle" x="109.5" y="-45.5" font-family="Helvetica,sans-Serif" font-size="10.00">quatatt</text>
<polyline fill="none" stroke="black" points="86,-38.5 133,-38.5 "/>
<text text-anchor="start" x="94" y="-26.5" font-family="Helvetica,sans-Serif" font-size="10.00">+ utc</text>
<polyline fill="none" stroke="black" points="86,-19.5 133,-19.5 "/>
<text text-anchor="middle" x="109.5" y="-7.5" font-family="Helvetica,sans-Serif" font-size="10.00"> </text>
</g>
<!-- Node2 -->
<g id="node2" class="node"><title>Node2</title>
<g id="a_node2"><a xlink:href="structquaternion.html" target="_top" xlink:title="Quaternion, scalar last, using x, y, z. ">
<polygon fill="white" stroke="black" points="1,-116.5 1,-206.5 78,-206.5 78,-116.5 1,-116.5"/>
<text text-anchor="middle" x="39.5" y="-194.5" font-family="Helvetica,sans-Serif" font-size="10.00">quaternion</text>
<polyline fill="none" stroke="black" points="1,-187.5 78,-187.5 "/>
<text text-anchor="start" x="9" y="-175.5" font-family="Helvetica,sans-Serif" font-size="10.00">+ w</text>
<polyline fill="none" stroke="black" points="1,-168.5 78,-168.5 "/>
<text text-anchor="start" x="9" y="-156.5" font-family="Helvetica,sans-Serif" font-size="10.00">+ quaternion()</text>
<text text-anchor="start" x="9" y="-145.5" font-family="Helvetica,sans-Serif" font-size="10.00">+ quaternion()</text>
<text text-anchor="start" x="9" y="-134.5" font-family="Helvetica,sans-Serif" font-size="10.00">+ to_json()</text>
<text text-anchor="start" x="9" y="-123.5" font-family="Helvetica,sans-Serif" font-size="10.00">+ from_json()</text>
</a>
</g>
</g>
<!-- Node2&#45;&gt;Node1 -->
<g id="edge1" class="edge"><title>Node2&#45;&gt;Node1</title>
<path fill="none" stroke="#404040" d="M63.1988,-116.319C71.4797,-100.881 80.7062,-83.68 88.73,-68.7212"/>
<polygon fill="none" stroke="#404040" points="88.9236,-68.3603 88.2348,-61.1821 94.5959,-57.7855 95.2847,-64.9637 88.9236,-68.3603"/>
<text text-anchor="middle" x="91" y="-84.5" font-family="Helvetica,sans-Serif" font-size="10.00"> +s</text>
</g>
<!-- Node3 -->
<g id="node3" class="node"><title>Node3</title>
<g id="a_node3"><a xlink:href="classcvector.html" target="_top" xlink:title="3 element cartesian vector ">
<polygon fill="white" stroke="black" points="0,-254.5 0,-432.5 79,-432.5 79,-254.5 0,-254.5"/>
<text text-anchor="middle" x="39.5" y="-420.5" font-family="Helvetica,sans-Serif" font-size="10.00">cvector</text>
<polyline fill="none" stroke="black" points="0,-413.5 79,-413.5 "/>
<text text-anchor="start" x="8" y="-401.5" font-family="Helvetica,sans-Serif" font-size="10.00">+ x</text>
<text text-anchor="start" x="8" y="-390.5" font-family="Helvetica,sans-Serif" font-size="10.00">+ y</text>
<text text-anchor="start" x="8" y="-379.5" font-family="Helvetica,sans-Serif" font-size="10.00">+ z</text>
<polyline fill="none" stroke="black" points="0,-372.5 79,-372.5 "/>
<text text-anchor="start" x="8" y="-360.5" font-family="Helvetica,sans-Serif" font-size="10.00">+ cvector()</text>
<text text-anchor="start" x="8" y="-349.5" font-family="Helvetica,sans-Serif" font-size="10.00">+ cvector()</text>
<text text-anchor="start" x="8" y="-338.5" font-family="Helvetica,sans-Serif" font-size="10.00">+ normalize()</text>
<text text-anchor="start" x="8" y="-327.5" font-family="Helvetica,sans-Serif" font-size="10.00">+ length()</text>
<text text-anchor="start" x="8" y="-316.5" font-family="Helvetica,sans-Serif" font-size="10.00">+ norm()</text>
<text text-anchor="start" x="8" y="-305.5" font-family="Helvetica,sans-Serif" font-size="10.00">+ norm2()</text>
<text text-anchor="start" x="8" y="-294.5" font-family="Helvetica,sans-Serif" font-size="10.00">+ normalized()</text>
<text text-anchor="start" x="8" y="-283.5" font-family="Helvetica,sans-Serif" font-size="10.00">+ operator[]()</text>
<text text-anchor="start" x="8" y="-272.5" font-family="Helvetica,sans-Serif" font-size="10.00">+ to_json()</text>
<text text-anchor="start" x="8" y="-261.5" font-family="Helvetica,sans-Serif" font-size="10.00">+ from_json()</text>
</a>
</g>
</g>
<!-- Node3&#45;&gt;Node2 -->
<g id="edge2" class="edge"><title>Node3&#45;&gt;Node2</title>
<path fill="none" stroke="#404040" d="M39.5,-254.346C39.5,-242.308 39.5,-230.226 39.5,-218.962"/>
<polygon fill="none" stroke="#404040" points="39.5001,-218.638 35.5,-212.638 39.5,-206.638 43.5,-212.638 39.5001,-218.638"/>
<text text-anchor="middle" x="47" y="-228" font-family="Helvetica,sans-Serif" font-size="10.00"> +d</text>
</g>
<!-- Node4 -->
<g id="node4" class="node"><title>Node4</title>
<g id="a_node4"><a xlink:href="structrvector.html" target="_top" xlink:title="3 element generic row vector ">
<polygon fill="white" stroke="black" points="96.5,-116.5 96.5,-206.5 170.5,-206.5 170.5,-116.5 96.5,-116.5"/>
<text text-anchor="middle" x="133.5" y="-194.5" font-family="Helvetica,sans-Serif" font-size="10.00">rvector</text>
<polyline fill="none" stroke="black" points="96.5,-187.5 170.5,-187.5 "/>
<text text-anchor="start" x="104.5" y="-175.5" font-family="Helvetica,sans-Serif" font-size="10.00">+ col</text>
<polyline fill="none" stroke="black" points="96.5,-168.5 170.5,-168.5 "/>
<text text-anchor="start" x="104.5" y="-156.5" font-family="Helvetica,sans-Serif" font-size="10.00">+ rvector()</text>
<text text-anchor="start" x="104.5" y="-145.5" font-family="Helvetica,sans-Serif" font-size="10.00">+ rvector()</text>
<text text-anchor="start" x="104.5" y="-134.5" font-family="Helvetica,sans-Serif" font-size="10.00">+ to_json()</text>
<text text-anchor="start" x="104.5" y="-123.5" font-family="Helvetica,sans-Serif" font-size="10.00">+ from_json()</text>
</a>
</g>
</g>
<!-- Node4&#45;&gt;Node1 -->
<g id="edge3" class="edge"><title>Node4&#45;&gt;Node1</title>
<path fill="none" stroke="#404040" d="M125.375,-116.319C122.591,-101.183 119.496,-84.3538 116.783,-69.6037"/>
<polygon fill="none" stroke="#404040" points="116.781,-69.5876 111.761,-64.4101 114.61,-57.7855 119.629,-62.963 116.781,-69.5876"/>
<text text-anchor="middle" x="129" y="-90" font-family="Helvetica,sans-Serif" font-size="10.00"> +a</text>
<text text-anchor="middle" x="129" y="-79" font-family="Helvetica,sans-Serif" font-size="10.00">+v</text>
</g>
</g>
</svg>
