<?xml version="1.0" encoding="UTF-8" standalone="no"?>
<!DOCTYPE svg PUBLIC "-//W3C//DTD SVG 1.1//EN"
 "http://www.w3.org/Graphics/SVG/1.1/DTD/svg11.dtd">
<!-- Generated by graphviz version 2.38.0 (20140413.2041)
 -->
<!-- Title: map_dem_body Pages: 1 -->
<!--zoomable 529 -->
<svg id="main" version="1.1" xmlns="http://www.w3.org/2000/svg" xmlns:xlink="http://www.w3.org/1999/xlink" xml:space="preserve" onload="init(evt)">
<style type="text/css"><![CDATA[
.edge:hover path { stroke: red; }
.edge:hover polygon { stroke: red; fill: red; }
]]></style>
<script type="text/javascript"><![CDATA[
var edges = document.getElementsByTagName('g');
if (edges && edges.length) {
  for (var i=0;i<edges.length;i++) {
    if (edges[i].id.substr(0,4)=='edge') {
      edges[i].setAttribute('class','edge');
    }
  }
}
]]></script>
        <defs>
                <circle id="rim" cx="0" cy="0" r="7"/>
                <circle id="rim2" cx="0" cy="0" r="3.5"/>
                <g id="zoomPlus">
                        <use xlink:href="#rim" fill="#404040">
                                <set attributeName="fill" to="#808080" begin="zoomplus.mouseover" end="zoomplus.mouseout"/>
                        </use>
                        <path d="M-4,0h8M0,-4v8" fill="none" stroke="white" stroke-width="1.5" pointer-events="none"/>
                </g>
                <g id="zoomMin">
                        <use xlink:href="#rim" fill="#404040">
                                <set attributeName="fill" to="#808080" begin="zoomminus.mouseover" end="zoomminus.mouseout"/>
                        </use>
                        <path d="M-4,0h8" fill="none" stroke="white" stroke-width="1.5" pointer-events="none"/>
                </g>
                <g id="dirArrow">
                        <path fill="none" stroke="white" stroke-width="1.5" d="M0,-3.0v7 M-2.5,-0.5L0,-3.0L2.5,-0.5"/>
                </g>
               <g id="resetDef">
                       <use xlink:href="#rim2" fill="#404040">
                               <set attributeName="fill" to="#808080" begin="reset.mouseover" end="reset.mouseout"/>
                       </use>
               </g>
        </defs>

<script type="text/javascript">
var viewWidth = 162;
var viewHeight = 529;
var sectionId = 'dynsection-0';
</script>
<script xlink:href="svgpan.js"/>
<svg id="graph" class="graph">
<g id="viewport">
<title>map_dem_body</title>
<polygon fill="white" stroke="none" points="-4,4 -4,-525 158,-525 158,4 -4,4"/>
<!-- Node1 -->
<g id="node1" class="node"><title>Node1</title>
<polygon fill="#bfbfbf" stroke="black" points="11.5,-0.5 11.5,-178.5 97.5,-178.5 97.5,-0.5 11.5,-0.5"/>
<text text-anchor="middle" x="54.5" y="-166.5" font-family="Helvetica,sans-Serif" font-size="10.00">map_dem_body</text>
<polyline fill="none" stroke="black" points="11.5,-159.5 97.5,-159.5 "/>
<text text-anchor="start" x="19.5" y="-147.5" font-family="Helvetica,sans-Serif" font-size="10.00">+ orbit</text>
<text text-anchor="start" x="19.5" y="-136.5" font-family="Helvetica,sans-Serif" font-size="10.00">+ radius</text>
<text text-anchor="start" x="19.5" y="-125.5" font-family="Helvetica,sans-Serif" font-size="10.00">+ highest</text>
<text text-anchor="start" x="19.5" y="-114.5" font-family="Helvetica,sans-Serif" font-size="10.00">+ vscale</text>
<text text-anchor="start" x="19.5" y="-103.5" font-family="Helvetica,sans-Serif" font-size="10.00">+ hscale</text>
<text text-anchor="start" x="19.5" y="-92.5" font-family="Helvetica,sans-Serif" font-size="10.00">+ htov</text>
<text text-anchor="start" x="19.5" y="-81.5" font-family="Helvetica,sans-Serif" font-size="10.00">+ alt1</text>
<text text-anchor="start" x="19.5" y="-70.5" font-family="Helvetica,sans-Serif" font-size="10.00">+ alt2</text>
<text text-anchor="start" x="19.5" y="-59.5" font-family="Helvetica,sans-Serif" font-size="10.00">+ alt3</text>
<text text-anchor="start" x="19.5" y="-48.5" font-family="Helvetica,sans-Serif" font-size="10.00">+ demcount</text>
<text text-anchor="start" x="19.5" y="-37.5" font-family="Helvetica,sans-Serif" font-size="10.00">+ demindexi</text>
<text text-anchor="start" x="19.5" y="-26.5" font-family="Helvetica,sans-Serif" font-size="10.00">+ demindexc</text>
<polyline fill="none" stroke="black" points="11.5,-19.5 97.5,-19.5 "/>
<text text-anchor="middle" x="54.5" y="-7.5" font-family="Helvetica,sans-Serif" font-size="10.00"> </text>
</g>
<!-- Node2 -->
<g id="node2" class="node"><title>Node2</title>
<polygon fill="white" stroke="#bfbfbf" points="0,-287 0,-344 41,-344 41,-287 0,-287"/>
<text text-anchor="middle" x="20.5" y="-332" font-family="Helvetica,sans-Serif" font-size="10.00">string</text>
<polyline fill="none" stroke="#bfbfbf" points="0,-325 41,-325 "/>
<text text-anchor="middle" x="20.5" y="-313" font-family="Helvetica,sans-Serif" font-size="10.00"> </text>
<polyline fill="none" stroke="#bfbfbf" points="0,-306 41,-306 "/>
<text text-anchor="middle" x="20.5" y="-294" font-family="Helvetica,sans-Serif" font-size="10.00"> </text>
</g>
<!-- Node2&#45;&gt;Node1 -->
<g id="edge1" class="edge"><title>Node2&#45;&gt;Node1</title>
<path fill="none" stroke="#404040" d="M22.5227,-286.859C24.4605,-262.984 27.789,-227.603 32.5,-197 32.816,-194.947 33.1454,-192.875 33.4866,-190.787"/>
<polygon fill="none" stroke="#404040" points="33.5295,-190.536 30.6005,-183.947 35.5566,-178.709 38.4856,-185.298 33.5295,-190.536"/>
<text text-anchor="middle" x="49.5" y="-200" font-family="Helvetica,sans-Serif" font-size="10.00"> +name</text>
</g>
<!-- Node3 -->
<g id="node3" class="node"><title>Node3</title>
<g id="a_node3"><a xlink:href="structmap__dem__dem.html" target="_top" xlink:title="DEM support structure. ">
<polygon fill="white" stroke="black" points="59,-226.5 59,-404.5 142,-404.5 142,-226.5 59,-226.5"/>
<text text-anchor="middle" x="100.5" y="-392.5" font-family="Helvetica,sans-Serif" font-size="10.00">map_dem_dem</text>
<polyline fill="none" stroke="black" points="59,-385.5 142,-385.5 "/>
<text text-anchor="start" x="67" y="-373.5" font-family="Helvetica,sans-Serif" font-size="10.00">+ utc</text>
<text text-anchor="start" x="67" y="-362.5" font-family="Helvetica,sans-Serif" font-size="10.00">+ name</text>
<text text-anchor="start" x="67" y="-351.5" font-family="Helvetica,sans-Serif" font-size="10.00">+ lonul</text>
<text text-anchor="start" x="67" y="-340.5" font-family="Helvetica,sans-Serif" font-size="10.00">+ latul</text>
<text text-anchor="start" x="67" y="-329.5" font-family="Helvetica,sans-Serif" font-size="10.00">+ lonlr</text>
<text text-anchor="start" x="67" y="-318.5" font-family="Helvetica,sans-Serif" font-size="10.00">+ latlr</text>
<text text-anchor="start" x="67" y="-307.5" font-family="Helvetica,sans-Serif" font-size="10.00">+ psize</text>
<text text-anchor="start" x="67" y="-296.5" font-family="Helvetica,sans-Serif" font-size="10.00">+ scale</text>
<text text-anchor="start" x="67" y="-285.5" font-family="Helvetica,sans-Serif" font-size="10.00">+ xcount</text>
<text text-anchor="start" x="67" y="-274.5" font-family="Helvetica,sans-Serif" font-size="10.00">+ ycount</text>
<text text-anchor="start" x="67" y="-263.5" font-family="Helvetica,sans-Serif" font-size="10.00">+ dlon</text>
<text text-anchor="start" x="67" y="-252.5" font-family="Helvetica,sans-Serif" font-size="10.00">+ dlat</text>
<polyline fill="none" stroke="black" points="59,-245.5 142,-245.5 "/>
<text text-anchor="middle" x="100.5" y="-233.5" font-family="Helvetica,sans-Serif" font-size="10.00"> </text>
</a>
</g>
</g>
<!-- Node3&#45;&gt;Node1 -->
<g id="edge2" class="edge"><title>Node3&#45;&gt;Node1</title>
<path fill="none" stroke="#404040" d="M82.3856,-226.291C79.972,-214.538 77.4832,-202.418 75.0321,-190.483"/>
<polygon fill="none" stroke="#404040" points="75.0119,-190.384 69.8866,-185.311 72.5979,-178.629 77.7231,-183.702 75.0119,-190.384"/>
<text text-anchor="middle" x="94.5" y="-200" font-family="Helvetica,sans-Serif" font-size="10.00"> +dems</text>
</g>
<!-- Node4 -->
<g id="node4" class="node"><title>Node4</title>
<polygon fill="white" stroke="#bfbfbf" points="47,-452.5 47,-520.5 154,-520.5 154,-452.5 47,-452.5"/>
<text text-anchor="start" x="55" y="-508.5" font-family="Helvetica,sans-Serif" font-size="10.00">vector&lt; vector&lt; dem</text>
<text text-anchor="middle" x="100.5" y="-497.5" font-family="Helvetica,sans-Serif" font-size="10.00">_pixel &gt; &gt;</text>
<polyline fill="none" stroke="#bfbfbf" points="47,-490.5 154,-490.5 "/>
<text text-anchor="middle" x="100.5" y="-478.5" font-family="Helvetica,sans-Serif" font-size="10.00"> </text>
<polyline fill="none" stroke="#bfbfbf" points="47,-471.5 154,-471.5 "/>
<text text-anchor="middle" x="100.5" y="-459.5" font-family="Helvetica,sans-Serif" font-size="10.00"> </text>
</g>
<!-- Node4&#45;&gt;Node3 -->
<g id="edge3" class="edge"><title>Node4&#45;&gt;Node3</title>
<path fill="none" stroke="#404040" d="M100.5,-452.111C100.5,-441.687 100.5,-429.6 100.5,-417.022"/>
<polygon fill="none" stroke="#404040" points="100.5,-416.85 96.5,-410.85 100.5,-404.85 104.5,-410.849 100.5,-416.85"/>
<text text-anchor="middle" x="115.5" y="-426" font-family="Helvetica,sans-Serif" font-size="10.00"> +pixel</text>
</g>
</g>
</svg>
        <g id="navigator" transform="translate(0 0)" fill="#404254">
                <rect fill="#f2f5e9" fill-opacity="0.5" stroke="#606060" stroke-width=".5" x="0" y="0" width="60" height="60"/>
                <use id="zoomplus" xlink:href="#zoomPlus" x="17" y="9" onmousedown="handleZoom(evt,'in')"/>
                <use id="zoomminus" xlink:href="#zoomMin" x="42" y="9" onmousedown="handleZoom(evt,'out')"/>
                <use id="reset" xlink:href="#resetDef" x="30" y="36" onmousedown="handleReset()"/>
                <g id="arrowUp" xlink:href="#dirArrow" transform="translate(30 24)" onmousedown="handlePan(0,-1)">
                  <use xlink:href="#rim" fill="#404040">
                        <set attributeName="fill" to="#808080" begin="arrowUp.mouseover" end="arrowUp.mouseout"/>
                  </use>
                  <path fill="none" stroke="white" stroke-width="1.5" d="M0,-3.0v7 M-2.5,-0.5L0,-3.0L2.5,-0.5"/>
                </g>
                <g id="arrowRight" xlink:href="#dirArrow" transform="rotate(90) translate(36 -43)" onmousedown="handlePan(1,0)">
                  <use xlink:href="#rim" fill="#404040">
                        <set attributeName="fill" to="#808080" begin="arrowRight.mouseover" end="arrowRight.mouseout"/>
                  </use>
                  <path fill="none" stroke="white" stroke-width="1.5" d="M0,-3.0v7 M-2.5,-0.5L0,-3.0L2.5,-0.5"/>
                </g>
                <g id="arrowDown" xlink:href="#dirArrow" transform="rotate(180) translate(-30 -48)" onmousedown="handlePan(0,1)">
                  <use xlink:href="#rim" fill="#404040">
                        <set attributeName="fill" to="#808080" begin="arrowDown.mouseover" end="arrowDown.mouseout"/>
                  </use>
                  <path fill="none" stroke="white" stroke-width="1.5" d="M0,-3.0v7 M-2.5,-0.5L0,-3.0L2.5,-0.5"/>
                </g>
                <g id="arrowLeft" xlink:href="#dirArrow" transform="rotate(270) translate(-36 17)" onmousedown="handlePan(-1,0)">
                  <use xlink:href="#rim" fill="#404040">
                        <set attributeName="fill" to="#808080" begin="arrowLeft.mouseover" end="arrowLeft.mouseout"/>
                  </use>
                  <path fill="none" stroke="white" stroke-width="1.5" d="M0,-3.0v7 M-2.5,-0.5L0,-3.0L2.5,-0.5"/>
                </g>
        </g>
        <svg viewBox="0 0 15 15" width="100%" height="30px" preserveAspectRatio="xMaxYMin meet">
         <g id="arrow_out" transform="scale(0.3 0.3)">
          <a xlink:href="structmap__dem__body__coll__graph_org.svg" target="_base">
           <rect id="button" ry="5" rx="5" y="6" x="6" height="38" width="38"
                fill="#f2f5e9" fill-opacity="0.5" stroke="#606060" stroke-width="1.0"/>
           <path id="arrow"
             d="M 11.500037,31.436501 C 11.940474,20.09759 22.043105,11.32322 32.158766,21.979434 L 37.068811,17.246167 C 37.068811,17.246167 37.088388,32 37.088388,32 L 22.160133,31.978069 C 22.160133,31.978069 26.997745,27.140456 26.997745,27.140456 C 18.528582,18.264221 13.291696,25.230495 11.500037,31.436501 z"
             style="fill:#404040;"/>
          </a>
         </g>
        </svg>
</svg>
