<?xml version="1.0" encoding="UTF-8" standalone="no"?>
<!DOCTYPE svg PUBLIC "-//W3C//DTD SVG 1.1//EN"
 "http://www.w3.org/Graphics/SVG/1.1/DTD/svg11.dtd">
<!-- Generated by graphviz version 2.38.0 (20140413.2041)
 -->
<!-- Title: png_info_def Pages: 1 -->
<svg width="113pt" height="347pt"
 viewBox="0.00 0.00 113.00 347.00" xmlns="http://www.w3.org/2000/svg" xmlns:xlink="http://www.w3.org/1999/xlink">
<g id="graph0" class="graph" transform="scale(1 1) rotate(0) translate(4 343)">
<title>png_info_def</title>
<polygon fill="white" stroke="none" points="-4,4 -4,-343 109,-343 109,4 -4,4"/>
<!-- Node1 -->
<g id="node1" class="node"><title>Node1</title>
<polygon fill="#bfbfbf" stroke="black" points="0,-0.5 0,-211.5 105,-211.5 105,-0.5 0,-0.5"/>
<text text-anchor="middle" x="52.5" y="-199.5" font-family="Helvetica,sans-Serif" font-size="10.00">png_info_def</text>
<polyline fill="none" stroke="black" points="0,-192.5 105,-192.5 "/>
<text text-anchor="start" x="8" y="-180.5" font-family="Helvetica,sans-Serif" font-size="10.00">+ width</text>
<text text-anchor="start" x="8" y="-169.5" font-family="Helvetica,sans-Serif" font-size="10.00">+ height</text>
<text text-anchor="start" x="8" y="-158.5" font-family="Helvetica,sans-Serif" font-size="10.00">+ valid</text>
<text text-anchor="start" x="8" y="-147.5" font-family="Helvetica,sans-Serif" font-size="10.00">+ rowbytes</text>
<text text-anchor="start" x="8" y="-136.5" font-family="Helvetica,sans-Serif" font-size="10.00">+ num_palette</text>
<text text-anchor="start" x="8" y="-125.5" font-family="Helvetica,sans-Serif" font-size="10.00">+ num_trans</text>
<text text-anchor="start" x="8" y="-114.5" font-family="Helvetica,sans-Serif" font-size="10.00">+ bit_depth</text>
<text text-anchor="start" x="8" y="-103.5" font-family="Helvetica,sans-Serif" font-size="10.00">+ color_type</text>
<text text-anchor="start" x="8" y="-92.5" font-family="Helvetica,sans-Serif" font-size="10.00">+ compression_type</text>
<text text-anchor="start" x="8" y="-81.5" font-family="Helvetica,sans-Serif" font-size="10.00">+ filter_type</text>
<text text-anchor="start" x="8" y="-70.5" font-family="Helvetica,sans-Serif" font-size="10.00">+ interlace_type</text>
<text text-anchor="start" x="8" y="-59.5" font-family="Helvetica,sans-Serif" font-size="10.00">+ channels</text>
<text text-anchor="start" x="8" y="-48.5" font-family="Helvetica,sans-Serif" font-size="10.00">+ pixel_depth</text>
<text text-anchor="start" x="8" y="-37.5" font-family="Helvetica,sans-Serif" font-size="10.00">+ spare_byte</text>
<text text-anchor="start" x="8" y="-26.5" font-family="Helvetica,sans-Serif" font-size="10.00">+ free_me</text>
<polyline fill="none" stroke="black" points="0,-19.5 105,-19.5 "/>
<text text-anchor="middle" x="52.5" y="-7.5" font-family="Helvetica,sans-Serif" font-size="10.00"> </text>
</g>
<!-- Node2 -->
<g id="node2" class="node"><title>Node2</title>
<g id="a_node2"><a xlink:href="structpng__color__struct.html" target="_top" xlink:title="{png_color_struct\n|+ red\l+ green\l+ blue\l|}">
<polygon fill="white" stroke="black" points="8,-259.5 8,-338.5 97,-338.5 97,-259.5 8,-259.5"/>
<text text-anchor="middle" x="52.5" y="-326.5" font-family="Helvetica,sans-Serif" font-size="10.00">png_color_struct</text>
<polyline fill="none" stroke="black" points="8,-319.5 97,-319.5 "/>
<text text-anchor="start" x="16" y="-307.5" font-family="Helvetica,sans-Serif" font-size="10.00">+ red</text>
<text text-anchor="start" x="16" y="-296.5" font-family="Helvetica,sans-Serif" font-size="10.00">+ green</text>
<text text-anchor="start" x="16" y="-285.5" font-family="Helvetica,sans-Serif" font-size="10.00">+ blue</text>
<polyline fill="none" stroke="black" points="8,-278.5 97,-278.5 "/>
<text text-anchor="middle" x="52.5" y="-266.5" font-family="Helvetica,sans-Serif" font-size="10.00"> </text>
</a>
</g>
</g>
<!-- Node2&#45;&gt;Node1 -->
<g id="edge1" class="edge"><title>Node2&#45;&gt;Node1</title>
<path fill="none" stroke="#404040" d="M52.5,-259.348C52.5,-248.692 52.5,-236.551 52.5,-223.881"/>
<polygon fill="none" stroke="#404040" points="52.5001,-223.603 48.5,-217.603 52.5,-211.603 56.5,-217.603 52.5001,-223.603"/>
<text text-anchor="middle" x="72" y="-233" font-family="Helvetica,sans-Serif" font-size="10.00"> +palette</text>
</g>
</g>
</svg>
