<?xml version="1.0" encoding="UTF-8" standalone="no"?>
<!DOCTYPE svg PUBLIC "-//W3C//DTD SVG 1.1//EN"
 "http://www.w3.org/Graphics/SVG/1.1/DTD/svg11.dtd">
<!-- Generated by graphviz version 2.38.0 (20140413.2041)
 -->
<!-- Title: jpeg_d_coef_controller Pages: 1 -->
<svg width="161pt" height="452pt"
 viewBox="0.00 0.00 160.50 452.00" xmlns="http://www.w3.org/2000/svg" xmlns:xlink="http://www.w3.org/1999/xlink">
<g id="graph0" class="graph" transform="scale(1 1) rotate(0) translate(4 448)">
<title>jpeg_d_coef_controller</title>
<polygon fill="white" stroke="none" points="-4,4 -4,-448 156.5,-448 156.5,4 -4,4"/>
<!-- Node1 -->
<g id="node1" class="node"><title>Node1</title>
<polygon fill="#bfbfbf" stroke="black" points="0,-0.5 0,-90.5 114,-90.5 114,-0.5 0,-0.5"/>
<text text-anchor="middle" x="57" y="-78.5" font-family="Helvetica,sans-Serif" font-size="10.00">jpeg_d_coef_controller</text>
<polyline fill="none" stroke="black" points="0,-71.5 114,-71.5 "/>
<text text-anchor="middle" x="57" y="-59.5" font-family="Helvetica,sans-Serif" font-size="10.00"> </text>
<polyline fill="none" stroke="black" points="0,-52.5 114,-52.5 "/>
<text text-anchor="start" x="8" y="-40.5" font-family="Helvetica,sans-Serif" font-size="10.00">+ JMETHOD()</text>
<text text-anchor="start" x="8" y="-29.5" font-family="Helvetica,sans-Serif" font-size="10.00">+ JMETHOD()</text>
<text text-anchor="start" x="8" y="-18.5" font-family="Helvetica,sans-Serif" font-size="10.00">+ JMETHOD()</text>
<text text-anchor="start" x="8" y="-7.5" font-family="Helvetica,sans-Serif" font-size="10.00">+ JMETHOD()</text>
</g>
<!-- Node2 -->
<g id="node2" class="node"><title>Node2</title>
<g id="a_node2"><a xlink:href="structjvirt__barray__control.html" target="_top" xlink:title="{jvirt_barray_control\n|+ mem_buffer\l+ rows_in_array\l+ blocksperrow\l+ maxaccess\l+ rows_in_mem\l+ rowsperchunk\l+ cur_start_row\l+ first_undef_row\l+ pre_zero\l+ dirty\l+ b_s_open\l|}">
<polygon fill="white" stroke="black" points="7.5,-138.5 7.5,-305.5 106.5,-305.5 106.5,-138.5 7.5,-138.5"/>
<text text-anchor="middle" x="57" y="-293.5" font-family="Helvetica,sans-Serif" font-size="10.00">jvirt_barray_control</text>
<polyline fill="none" stroke="black" points="7.5,-286.5 106.5,-286.5 "/>
<text text-anchor="start" x="15.5" y="-274.5" font-family="Helvetica,sans-Serif" font-size="10.00">+ mem_buffer</text>
<text text-anchor="start" x="15.5" y="-263.5" font-family="Helvetica,sans-Serif" font-size="10.00">+ rows_in_array</text>
<text text-anchor="start" x="15.5" y="-252.5" font-family="Helvetica,sans-Serif" font-size="10.00">+ blocksperrow</text>
<text text-anchor="start" x="15.5" y="-241.5" font-family="Helvetica,sans-Serif" font-size="10.00">+ maxaccess</text>
<text text-anchor="start" x="15.5" y="-230.5" font-family="Helvetica,sans-Serif" font-size="10.00">+ rows_in_mem</text>
<text text-anchor="start" x="15.5" y="-219.5" font-family="Helvetica,sans-Serif" font-size="10.00">+ rowsperchunk</text>
<text text-anchor="start" x="15.5" y="-208.5" font-family="Helvetica,sans-Serif" font-size="10.00">+ cur_start_row</text>
<text text-anchor="start" x="15.5" y="-197.5" font-family="Helvetica,sans-Serif" font-size="10.00">+ first_undef_row</text>
<text text-anchor="start" x="15.5" y="-186.5" font-family="Helvetica,sans-Serif" font-size="10.00">+ pre_zero</text>
<text text-anchor="start" x="15.5" y="-175.5" font-family="Helvetica,sans-Serif" font-size="10.00">+ dirty</text>
<text text-anchor="start" x="15.5" y="-164.5" font-family="Helvetica,sans-Serif" font-size="10.00">+ b_s_open</text>
<polyline fill="none" stroke="black" points="7.5,-157.5 106.5,-157.5 "/>
<text text-anchor="middle" x="57" y="-145.5" font-family="Helvetica,sans-Serif" font-size="10.00"> </text>
</a>
</g>
</g>
<!-- Node2&#45;&gt;Node1 -->
<g id="edge1" class="edge"><title>Node2&#45;&gt;Node1</title>
<path fill="none" stroke="#404040" d="M57,-138.349C57,-126.444 57,-114.425 57,-103.181"/>
<polygon fill="none" stroke="#404040" points="57.0001,-102.863 53,-96.8634 57,-90.8634 61,-96.8634 57.0001,-102.863"/>
<text text-anchor="middle" x="87.5" y="-112" font-family="Helvetica,sans-Serif" font-size="10.00"> +coef_arrays</text>
</g>
<!-- Node2&#45;&gt;Node2 -->
<g id="edge2" class="edge"><title>Node2&#45;&gt;Node2</title>
<path fill="none" stroke="#404040" d="M106.745,-241.176C117.073,-239.158 124.5,-232.766 124.5,-222 124.5,-215.776 122.018,-211.014 117.928,-207.714"/>
<polygon fill="none" stroke="#404040" points="117.74,-207.632 110.64,-208.893 106.745,-202.824 113.845,-201.563 117.74,-207.632"/>
<text text-anchor="middle" x="138.5" y="-219.5" font-family="Helvetica,sans-Serif" font-size="10.00"> +next</text>
</g>
<!-- Node3 -->
<g id="node3" class="node"><title>Node3</title>
<g id="a_node3"><a xlink:href="structbacking__store__struct.html" target="_top" xlink:title="{backing_store_struct\n|+ temp_file\l+ temp_name\l|+ JMETHOD()\l+ JMETHOD()\l+ JMETHOD()\l}">
<polygon fill="white" stroke="black" points="3.5,-353.5 3.5,-443.5 110.5,-443.5 110.5,-353.5 3.5,-353.5"/>
<text text-anchor="middle" x="57" y="-431.5" font-family="Helvetica,sans-Serif" font-size="10.00">backing_store_struct</text>
<polyline fill="none" stroke="black" points="3.5,-424.5 110.5,-424.5 "/>
<text text-anchor="start" x="11.5" y="-412.5" font-family="Helvetica,sans-Serif" font-size="10.00">+ temp_file</text>
<text text-anchor="start" x="11.5" y="-401.5" font-family="Helvetica,sans-Serif" font-size="10.00">+ temp_name</text>
<polyline fill="none" stroke="black" points="3.5,-394.5 110.5,-394.5 "/>
<text text-anchor="start" x="11.5" y="-382.5" font-family="Helvetica,sans-Serif" font-size="10.00">+ JMETHOD()</text>
<text text-anchor="start" x="11.5" y="-371.5" font-family="Helvetica,sans-Serif" font-size="10.00">+ JMETHOD()</text>
<text text-anchor="start" x="11.5" y="-360.5" font-family="Helvetica,sans-Serif" font-size="10.00">+ JMETHOD()</text>
</a>
</g>
</g>
<!-- Node3&#45;&gt;Node2 -->
<g id="edge3" class="edge"><title>Node3&#45;&gt;Node2</title>
<path fill="none" stroke="#404040" d="M57,-353.466C57,-342.562 57,-330.453 57,-318.133"/>
<polygon fill="none" stroke="#404040" points="57.0001,-317.778 53,-311.779 57,-305.778 61,-311.778 57.0001,-317.778"/>
<text text-anchor="middle" x="80" y="-327" font-family="Helvetica,sans-Serif" font-size="10.00"> +b_s_info</text>
</g>
</g>
</svg>
