<?xml version="1.0" encoding="UTF-8" standalone="no"?>
<!DOCTYPE svg PUBLIC "-//W3C//DTD SVG 1.1//EN"
 "http://www.w3.org/Graphics/SVG/1.1/DTD/svg11.dtd">
<!-- Generated by graphviz version 2.38.0 (20140413.2041)
 -->
<!-- Title: userstruc Pages: 1 -->
<svg width="82pt" height="215pt"
 viewBox="0.00 0.00 82.00 215.00" xmlns="http://www.w3.org/2000/svg" xmlns:xlink="http://www.w3.org/1999/xlink">
<g id="graph0" class="graph" transform="scale(1 1) rotate(0) translate(4 211)">
<title>userstruc</title>
<polygon fill="white" stroke="none" points="-4,4 -4,-211 78,-211 78,4 -4,4"/>
<!-- Node1 -->
<g id="node1" class="node"><title>Node1</title>
<polygon fill="#bfbfbf" stroke="black" points="0,-0.5 0,-68.5 74,-68.5 74,-0.5 0,-0.5"/>
<text text-anchor="middle" x="37" y="-56.5" font-family="Helvetica,sans-Serif" font-size="10.00">userstruc</text>
<polyline fill="none" stroke="black" points="0,-49.5 74,-49.5 "/>
<text text-anchor="middle" x="37" y="-37.5" font-family="Helvetica,sans-Serif" font-size="10.00"> </text>
<polyline fill="none" stroke="black" points="0,-30.5 74,-30.5 "/>
<text text-anchor="start" x="8" y="-18.5" font-family="Helvetica,sans-Serif" font-size="10.00">+ to_json()</text>
<text text-anchor="start" x="8" y="-7.5" font-family="Helvetica,sans-Serif" font-size="10.00">+ from_json()</text>
</g>
<!-- Node2 -->
<g id="node2" class="node"><title>Node2</title>
<polygon fill="white" stroke="#bfbfbf" points="16.5,-149.5 16.5,-206.5 57.5,-206.5 57.5,-149.5 16.5,-149.5"/>
<text text-anchor="middle" x="37" y="-194.5" font-family="Helvetica,sans-Serif" font-size="10.00">string</text>
<polyline fill="none" stroke="#bfbfbf" points="16.5,-187.5 57.5,-187.5 "/>
<text text-anchor="middle" x="37" y="-175.5" font-family="Helvetica,sans-Serif" font-size="10.00"> </text>
<polyline fill="none" stroke="#bfbfbf" points="16.5,-168.5 57.5,-168.5 "/>
<text text-anchor="middle" x="37" y="-156.5" font-family="Helvetica,sans-Serif" font-size="10.00"> </text>
</g>
<!-- Node2&#45;&gt;Node1 -->
<g id="edge1" class="edge"><title>Node2&#45;&gt;Node1</title>
<path fill="none" stroke="#404040" d="M37,-149.381C37,-129.837 37,-103.193 37,-80.5898"/>
<polygon fill="none" stroke="#404040" points="37.0001,-80.5192 33,-74.5192 37,-68.5192 41,-74.5192 37.0001,-80.5192"/>
<text text-anchor="middle" x="52.5" y="-123" font-family="Helvetica,sans-Serif" font-size="10.00"> +tool</text>
<text text-anchor="middle" x="52.5" y="-112" font-family="Helvetica,sans-Serif" font-size="10.00">+name</text>
<text text-anchor="middle" x="52.5" y="-101" font-family="Helvetica,sans-Serif" font-size="10.00">+cpu</text>
<text text-anchor="middle" x="52.5" y="-90" font-family="Helvetica,sans-Serif" font-size="10.00">+node</text>
</g>
</g>
</svg>
