<?xml version="1.0" encoding="UTF-8" standalone="no"?>
<!DOCTYPE svg PUBLIC "-//W3C//DTD SVG 1.1//EN"
 "http://www.w3.org/Graphics/SVG/1.1/DTD/svg11.dtd">
<!-- Generated by graphviz version 2.38.0 (20140413.2041)
 -->
<!-- Title: usrp_handle Pages: 1 -->
<svg width="265pt" height="391pt"
 viewBox="0.00 0.00 265.00 391.00" xmlns="http://www.w3.org/2000/svg" xmlns:xlink="http://www.w3.org/1999/xlink">
<g id="graph0" class="graph" transform="scale(1 1) rotate(0) translate(4 387)">
<title>usrp_handle</title>
<polygon fill="white" stroke="none" points="-4,4 -4,-387 261,-387 261,4 -4,4"/>
<!-- Node1 -->
<g id="node1" class="node"><title>Node1</title>
<polygon fill="#bfbfbf" stroke="black" points="88.5,-0.5 88.5,-167.5 174.5,-167.5 174.5,-0.5 88.5,-0.5"/>
<text text-anchor="middle" x="131.5" y="-155.5" font-family="Helvetica,sans-Serif" font-size="10.00">usrp_handle</text>
<polyline fill="none" stroke="black" points="88.5,-148.5 174.5,-148.5 "/>
<text text-anchor="start" x="96.5" y="-136.5" font-family="Helvetica,sans-Serif" font-size="10.00">+ record</text>
<text text-anchor="start" x="96.5" y="-125.5" font-family="Helvetica,sans-Serif" font-size="10.00">+ channelnum</text>
<text text-anchor="start" x="96.5" y="-114.5" font-family="Helvetica,sans-Serif" font-size="10.00">+ port</text>
<text text-anchor="start" x="96.5" y="-103.5" font-family="Helvetica,sans-Serif" font-size="10.00">+ freqband</text>
<text text-anchor="start" x="96.5" y="-92.5" font-family="Helvetica,sans-Serif" font-size="10.00">+ filtband</text>
<text text-anchor="start" x="96.5" y="-81.5" font-family="Helvetica,sans-Serif" font-size="10.00">+ mode</text>
<text text-anchor="start" x="96.5" y="-70.5" font-family="Helvetica,sans-Serif" font-size="10.00">+ datamode</text>
<text text-anchor="start" x="96.5" y="-59.5" font-family="Helvetica,sans-Serif" font-size="10.00">+ bps9600mode</text>
<text text-anchor="start" x="96.5" y="-48.5" font-family="Helvetica,sans-Serif" font-size="10.00">+ rfgain</text>
<text text-anchor="start" x="96.5" y="-37.5" font-family="Helvetica,sans-Serif" font-size="10.00">+ squelch</text>
<text text-anchor="start" x="96.5" y="-26.5" font-family="Helvetica,sans-Serif" font-size="10.00">and 12 more...</text>
<polyline fill="none" stroke="black" points="88.5,-19.5 174.5,-19.5 "/>
<text text-anchor="middle" x="131.5" y="-7.5" font-family="Helvetica,sans-Serif" font-size="10.00"> </text>
</g>
<!-- Node2 -->
<g id="node2" class="node"><title>Node2</title>
<polygon fill="white" stroke="#bfbfbf" points="0,-270.5 0,-327.5 91,-327.5 91,-270.5 0,-270.5"/>
<text text-anchor="middle" x="45.5" y="-315.5" font-family="Helvetica,sans-Serif" font-size="10.00">vector&lt; uint8_t &gt;</text>
<polyline fill="none" stroke="#bfbfbf" points="0,-308.5 91,-308.5 "/>
<text text-anchor="middle" x="45.5" y="-296.5" font-family="Helvetica,sans-Serif" font-size="10.00"> </text>
<polyline fill="none" stroke="#bfbfbf" points="0,-289.5 91,-289.5 "/>
<text text-anchor="middle" x="45.5" y="-277.5" font-family="Helvetica,sans-Serif" font-size="10.00"> </text>
</g>
<!-- Node2&#45;&gt;Node1 -->
<g id="edge1" class="edge"><title>Node2&#45;&gt;Node1</title>
<path fill="none" stroke="#404040" d="M52.0325,-270.329C57.8411,-247.342 67.1597,-213.994 78.5,-186 80.0526,-182.167 81.7046,-178.288 83.4295,-174.395"/>
<polygon fill="none" stroke="#404040" points="83.462,-174.323 82.3252,-167.203 88.4611,-163.414 89.5979,-170.535 83.462,-174.323"/>
<text text-anchor="middle" x="103" y="-189" font-family="Helvetica,sans-Serif" font-size="10.00"> +response</text>
</g>
<!-- Node3 -->
<g id="node3" class="node"><title>Node3</title>
<polygon fill="white" stroke="#bfbfbf" points="109.5,-270.5 109.5,-327.5 153.5,-327.5 153.5,-270.5 109.5,-270.5"/>
<text text-anchor="middle" x="131.5" y="-315.5" font-family="Helvetica,sans-Serif" font-size="10.00">mutex</text>
<polyline fill="none" stroke="#bfbfbf" points="109.5,-308.5 153.5,-308.5 "/>
<text text-anchor="middle" x="131.5" y="-296.5" font-family="Helvetica,sans-Serif" font-size="10.00"> </text>
<polyline fill="none" stroke="#bfbfbf" points="109.5,-289.5 153.5,-289.5 "/>
<text text-anchor="middle" x="131.5" y="-277.5" font-family="Helvetica,sans-Serif" font-size="10.00"> </text>
</g>
<!-- Node3&#45;&gt;Node1 -->
<g id="edge2" class="edge"><title>Node3&#45;&gt;Node1</title>
<path fill="none" stroke="#404040" d="M131.5,-270.154C131.5,-246.954 131.5,-212.503 131.5,-179.589"/>
<polygon fill="none" stroke="#404040" points="131.5,-179.556 127.5,-173.556 131.5,-167.556 135.5,-173.556 131.5,-179.556"/>
<text text-anchor="middle" x="144.5" y="-189" font-family="Helvetica,sans-Serif" font-size="10.00"> +mut</text>
</g>
<!-- Node4 -->
<g id="node4" class="node"><title>Node4</title>
<g id="a_node4"><a xlink:href="structsocket__channel.html" target="_top" xlink:title="{socket_channel\n|+ type\l+ cudp\l+ caddr\l+ baddr\l+ caddr6\l+ addrlen\l+ cport\l+ msgsize\l+ address\l+ baddress\l+ name\l|}">
<polygon fill="white" stroke="black" points="172,-215.5 172,-382.5 257,-382.5 257,-215.5 172,-215.5"/>
<text text-anchor="middle" x="214.5" y="-370.5" font-family="Helvetica,sans-Serif" font-size="10.00">socket_channel</text>
<polyline fill="none" stroke="black" points="172,-363.5 257,-363.5 "/>
<text text-anchor="start" x="180" y="-351.5" font-family="Helvetica,sans-Serif" font-size="10.00">+ type</text>
<text text-anchor="start" x="180" y="-340.5" font-family="Helvetica,sans-Serif" font-size="10.00">+ cudp</text>
<text text-anchor="start" x="180" y="-329.5" font-family="Helvetica,sans-Serif" font-size="10.00">+ caddr</text>
<text text-anchor="start" x="180" y="-318.5" font-family="Helvetica,sans-Serif" font-size="10.00">+ baddr</text>
<text text-anchor="start" x="180" y="-307.5" font-family="Helvetica,sans-Serif" font-size="10.00">+ caddr6</text>
<text text-anchor="start" x="180" y="-296.5" font-family="Helvetica,sans-Serif" font-size="10.00">+ addrlen</text>
<text text-anchor="start" x="180" y="-285.5" font-family="Helvetica,sans-Serif" font-size="10.00">+ cport</text>
<text text-anchor="start" x="180" y="-274.5" font-family="Helvetica,sans-Serif" font-size="10.00">+ msgsize</text>
<text text-anchor="start" x="180" y="-263.5" font-family="Helvetica,sans-Serif" font-size="10.00">+ address</text>
<text text-anchor="start" x="180" y="-252.5" font-family="Helvetica,sans-Serif" font-size="10.00">+ baddress</text>
<text text-anchor="start" x="180" y="-241.5" font-family="Helvetica,sans-Serif" font-size="10.00">+ name</text>
<polyline fill="none" stroke="black" points="172,-234.5 257,-234.5 "/>
<text text-anchor="middle" x="214.5" y="-222.5" font-family="Helvetica,sans-Serif" font-size="10.00"> </text>
</a>
</g>
</g>
<!-- Node4&#45;&gt;Node1 -->
<g id="edge3" class="edge"><title>Node4&#45;&gt;Node1</title>
<path fill="none" stroke="#404040" d="M182.291,-215.344C177.664,-203.469 172.874,-191.177 168.169,-179.101"/>
<polygon fill="none" stroke="#404040" points="168.048,-178.791 162.142,-174.653 163.691,-167.61 169.596,-171.748 168.048,-178.791"/>
<text text-anchor="middle" x="193" y="-189" font-family="Helvetica,sans-Serif" font-size="10.00"> +socket</text>
</g>
</g>
</svg>
