<?xml version="1.0" encoding="UTF-8" standalone="no"?>
<!DOCTYPE svg PUBLIC "-//W3C//DTD SVG 1.1//EN"
 "http://www.w3.org/Graphics/SVG/1.1/DTD/svg11.dtd">
<!-- Generated by graphviz version 2.38.0 (20140413.2041)
 -->
<!-- Title: physicsstruc Pages: 1 -->
<svg width="371pt" height="556pt"
 viewBox="0.00 0.00 370.50 556.00" xmlns="http://www.w3.org/2000/svg" xmlns:xlink="http://www.w3.org/1999/xlink">
<g id="graph0" class="graph" transform="scale(1 1) rotate(0) translate(4 552)">
<title>physicsstruc</title>
<polygon fill="white" stroke="none" points="-4,4 -4,-552 366.5,-552 366.5,4 -4,4"/>
<!-- Node1 -->
<g id="node1" class="node"><title>Node1</title>
<polygon fill="#bfbfbf" stroke="black" points="159.5,-0.5 159.5,-178.5 233.5,-178.5 233.5,-0.5 159.5,-0.5"/>
<text text-anchor="middle" x="196.5" y="-166.5" font-family="Helvetica,sans-Serif" font-size="10.00">physicsstruc</text>
<polyline fill="none" stroke="black" points="159.5,-159.5 233.5,-159.5 "/>
<text text-anchor="start" x="167.5" y="-147.5" font-family="Helvetica,sans-Serif" font-size="10.00">+ dt</text>
<text text-anchor="start" x="167.5" y="-136.5" font-family="Helvetica,sans-Serif" font-size="10.00">+ dtj</text>
<text text-anchor="start" x="167.5" y="-125.5" font-family="Helvetica,sans-Serif" font-size="10.00">+ utc</text>
<text text-anchor="start" x="167.5" y="-114.5" font-family="Helvetica,sans-Serif" font-size="10.00">+ mjdaccel</text>
<text text-anchor="start" x="167.5" y="-103.5" font-family="Helvetica,sans-Serif" font-size="10.00">+ mjddiff</text>
<text text-anchor="start" x="167.5" y="-92.5" font-family="Helvetica,sans-Serif" font-size="10.00">+ hcap</text>
<text text-anchor="start" x="167.5" y="-81.5" font-family="Helvetica,sans-Serif" font-size="10.00">+ mass</text>
<text text-anchor="start" x="167.5" y="-70.5" font-family="Helvetica,sans-Serif" font-size="10.00">+ temp</text>
<text text-anchor="start" x="167.5" y="-59.5" font-family="Helvetica,sans-Serif" font-size="10.00">+ heat</text>
<text text-anchor="start" x="167.5" y="-48.5" font-family="Helvetica,sans-Serif" font-size="10.00">+ radiation</text>
<text text-anchor="start" x="167.5" y="-37.5" font-family="Helvetica,sans-Serif" font-size="10.00">and 9 more...</text>
<polyline fill="none" stroke="black" points="159.5,-30.5 233.5,-30.5 "/>
<text text-anchor="start" x="167.5" y="-18.5" font-family="Helvetica,sans-Serif" font-size="10.00">+ to_json()</text>
<text text-anchor="start" x="167.5" y="-7.5" font-family="Helvetica,sans-Serif" font-size="10.00">+ from_json()</text>
</g>
<!-- Node2 -->
<g id="node2" class="node"><title>Node2</title>
<g id="a_node2"><a xlink:href="class_cosmos_1_1_math_1_1_vectors_1_1_vector.html" target="_top" xlink:title="Vector Class. ">
<polygon fill="white" stroke="black" points="0,-336.5 0,-547.5 121,-547.5 121,-336.5 0,-336.5"/>
<text text-anchor="start" x="8" y="-535.5" font-family="Helvetica,sans-Serif" font-size="10.00">Cosmos::Math::Vectors</text>
<text text-anchor="middle" x="60.5" y="-524.5" font-family="Helvetica,sans-Serif" font-size="10.00">::Vector</text>
<polyline fill="none" stroke="black" points="0,-517.5 121,-517.5 "/>
<text text-anchor="start" x="8" y="-505.5" font-family="Helvetica,sans-Serif" font-size="10.00">+ x</text>
<text text-anchor="start" x="8" y="-494.5" font-family="Helvetica,sans-Serif" font-size="10.00">+ y</text>
<text text-anchor="start" x="8" y="-483.5" font-family="Helvetica,sans-Serif" font-size="10.00">+ z</text>
<text text-anchor="start" x="8" y="-472.5" font-family="Helvetica,sans-Serif" font-size="10.00">+ w</text>
<polyline fill="none" stroke="black" points="0,-465.5 121,-465.5 "/>
<text text-anchor="start" x="8" y="-453.5" font-family="Helvetica,sans-Serif" font-size="10.00">+ Vector()</text>
<text text-anchor="start" x="8" y="-442.5" font-family="Helvetica,sans-Serif" font-size="10.00">+ Vector()</text>
<text text-anchor="start" x="8" y="-431.5" font-family="Helvetica,sans-Serif" font-size="10.00">+ Vector()</text>
<text text-anchor="start" x="8" y="-420.5" font-family="Helvetica,sans-Serif" font-size="10.00">+ Vector()</text>
<text text-anchor="start" x="8" y="-409.5" font-family="Helvetica,sans-Serif" font-size="10.00">+ at()</text>
<text text-anchor="start" x="8" y="-398.5" font-family="Helvetica,sans-Serif" font-size="10.00">+ to_rv()</text>
<text text-anchor="start" x="8" y="-387.5" font-family="Helvetica,sans-Serif" font-size="10.00">+ to_cv()</text>
<text text-anchor="start" x="8" y="-376.5" font-family="Helvetica,sans-Serif" font-size="10.00">+ to_q()</text>
<text text-anchor="start" x="8" y="-365.5" font-family="Helvetica,sans-Serif" font-size="10.00">+ cross()</text>
<text text-anchor="start" x="8" y="-354.5" font-family="Helvetica,sans-Serif" font-size="10.00">+ dot()</text>
<text text-anchor="start" x="8" y="-343.5" font-family="Helvetica,sans-Serif" font-size="10.00">and 26 more...</text>
</a>
</g>
</g>
<!-- Node2&#45;&gt;Node1 -->
<g id="edge1" class="edge"><title>Node2&#45;&gt;Node1</title>
<path fill="none" stroke="#404040" d="M97.6913,-336.335C113.453,-293.009 132.346,-242.379 150.5,-197 151.877,-193.558 153.294,-190.061 154.737,-186.533"/>
<polygon fill="none" stroke="#404040" points="154.839,-186.288 153.435,-179.215 159.424,-175.198 160.828,-182.271 154.839,-186.288"/>
<text text-anchor="middle" x="171.5" y="-310" font-family="Helvetica,sans-Serif" font-size="10.00"> +atorque</text>
<text text-anchor="middle" x="171.5" y="-299" font-family="Helvetica,sans-Serif" font-size="10.00">+ctorque</text>
<text text-anchor="middle" x="171.5" y="-288" font-family="Helvetica,sans-Serif" font-size="10.00">+rtorque</text>
<text text-anchor="middle" x="171.5" y="-277" font-family="Helvetica,sans-Serif" font-size="10.00">+com</text>
<text text-anchor="middle" x="171.5" y="-266" font-family="Helvetica,sans-Serif" font-size="10.00">+thrust</text>
<text text-anchor="middle" x="171.5" y="-255" font-family="Helvetica,sans-Serif" font-size="10.00">+ftorque</text>
<text text-anchor="middle" x="171.5" y="-244" font-family="Helvetica,sans-Serif" font-size="10.00">+rdrag</text>
<text text-anchor="middle" x="171.5" y="-233" font-family="Helvetica,sans-Serif" font-size="10.00">+adrag</text>
<text text-anchor="middle" x="171.5" y="-222" font-family="Helvetica,sans-Serif" font-size="10.00">+gtorque</text>
<text text-anchor="middle" x="171.5" y="-211" font-family="Helvetica,sans-Serif" font-size="10.00">+htorque</text>
<text text-anchor="middle" x="171.5" y="-200" font-family="Helvetica,sans-Serif" font-size="10.00">...</text>
</g>
<!-- Node3 -->
<g id="node3" class="node"><title>Node3</title>
<polygon fill="white" stroke="#bfbfbf" points="139,-413.5 139,-470.5 254,-470.5 254,-413.5 139,-413.5"/>
<text text-anchor="middle" x="196.5" y="-458.5" font-family="Helvetica,sans-Serif" font-size="10.00">vector&lt; trianglestruc &gt;</text>
<polyline fill="none" stroke="#bfbfbf" points="139,-451.5 254,-451.5 "/>
<text text-anchor="middle" x="196.5" y="-439.5" font-family="Helvetica,sans-Serif" font-size="10.00"> </text>
<polyline fill="none" stroke="#bfbfbf" points="139,-432.5 254,-432.5 "/>
<text text-anchor="middle" x="196.5" y="-420.5" font-family="Helvetica,sans-Serif" font-size="10.00"> </text>
</g>
<!-- Node3&#45;&gt;Node1 -->
<g id="edge2" class="edge"><title>Node3&#45;&gt;Node1</title>
<path fill="none" stroke="#404040" d="M196.5,-413.497C196.5,-366.183 196.5,-267.148 196.5,-191.138"/>
<polygon fill="none" stroke="#404040" points="196.5,-190.67 192.5,-184.67 196.5,-178.67 200.5,-184.67 196.5,-190.67"/>
<text text-anchor="middle" x="219.5" y="-255" font-family="Helvetica,sans-Serif" font-size="10.00"> +triangles</text>
</g>
<!-- Node4 -->
<g id="node4" class="node"><title>Node4</title>
<polygon fill="white" stroke="#bfbfbf" points="272.5,-413.5 272.5,-470.5 362.5,-470.5 362.5,-413.5 272.5,-413.5"/>
<text text-anchor="middle" x="317.5" y="-458.5" font-family="Helvetica,sans-Serif" font-size="10.00">vector&lt; Vector &gt;</text>
<polyline fill="none" stroke="#bfbfbf" points="272.5,-451.5 362.5,-451.5 "/>
<text text-anchor="middle" x="317.5" y="-439.5" font-family="Helvetica,sans-Serif" font-size="10.00"> </text>
<polyline fill="none" stroke="#bfbfbf" points="272.5,-432.5 362.5,-432.5 "/>
<text text-anchor="middle" x="317.5" y="-420.5" font-family="Helvetica,sans-Serif" font-size="10.00"> </text>
</g>
<!-- Node4&#45;&gt;Node1 -->
<g id="edge3" class="edge"><title>Node4&#45;&gt;Node1</title>
<path fill="none" stroke="#404040" d="M310.98,-413.466C299.833,-367.789 275.488,-273.769 246.5,-197 244.027,-190.451 241.32,-183.746 238.486,-177.045"/>
<polygon fill="none" stroke="#404040" points="238.385,-176.811 232.329,-172.895 233.615,-165.8 239.67,-169.716 238.385,-176.811"/>
<text text-anchor="middle" x="307.5" y="-255" font-family="Helvetica,sans-Serif" font-size="10.00"> +vertices</text>
</g>
</g>
</svg>
