<?xml version="1.0" encoding="UTF-8" standalone="no"?>
<!DOCTYPE svg PUBLIC "-//W3C//DTD SVG 1.1//EN"
 "http://www.w3.org/Graphics/SVG/1.1/DTD/svg11.dtd">
<!-- Generated by graphviz version 2.38.0 (20140413.2041)
 -->
<!-- Title: d_derived_tbl Pages: 1 -->
<svg width="82pt" height="226pt"
 viewBox="0.00 0.00 82.00 226.00" xmlns="http://www.w3.org/2000/svg" xmlns:xlink="http://www.w3.org/1999/xlink">
<g id="graph0" class="graph" transform="scale(1 1) rotate(0) translate(4 222)">
<title>d_derived_tbl</title>
<polygon fill="white" stroke="none" points="-4,4 -4,-222 78,-222 78,4 -4,4"/>
<!-- Node1 -->
<g id="node1" class="node"><title>Node1</title>
<polygon fill="#bfbfbf" stroke="black" points="0,-0.5 0,-90.5 74,-90.5 74,-0.5 0,-0.5"/>
<text text-anchor="middle" x="37" y="-78.5" font-family="Helvetica,sans-Serif" font-size="10.00">d_derived_tbl</text>
<polyline fill="none" stroke="black" points="0,-71.5 74,-71.5 "/>
<text text-anchor="start" x="8" y="-59.5" font-family="Helvetica,sans-Serif" font-size="10.00">+ maxcode</text>
<text text-anchor="start" x="8" y="-48.5" font-family="Helvetica,sans-Serif" font-size="10.00">+ valoffset</text>
<text text-anchor="start" x="8" y="-37.5" font-family="Helvetica,sans-Serif" font-size="10.00">+ look_nbits</text>
<text text-anchor="start" x="8" y="-26.5" font-family="Helvetica,sans-Serif" font-size="10.00">+ look_sym</text>
<polyline fill="none" stroke="black" points="0,-19.5 74,-19.5 "/>
<text text-anchor="middle" x="37" y="-7.5" font-family="Helvetica,sans-Serif" font-size="10.00"> </text>
</g>
<!-- Node2 -->
<g id="node2" class="node"><title>Node2</title>
<g id="a_node2"><a xlink:href="struct_j_h_u_f_f___t_b_l.html" target="_top" xlink:title="{JHUFF_TBL\n|+ bits\l+ huffval\l+ sent_table\l|}">
<polygon fill="white" stroke="black" points="1,-138.5 1,-217.5 73,-217.5 73,-138.5 1,-138.5"/>
<text text-anchor="middle" x="37" y="-205.5" font-family="Helvetica,sans-Serif" font-size="10.00">JHUFF_TBL</text>
<polyline fill="none" stroke="black" points="1,-198.5 73,-198.5 "/>
<text text-anchor="start" x="9" y="-186.5" font-family="Helvetica,sans-Serif" font-size="10.00">+ bits</text>
<text text-anchor="start" x="9" y="-175.5" font-family="Helvetica,sans-Serif" font-size="10.00">+ huffval</text>
<text text-anchor="start" x="9" y="-164.5" font-family="Helvetica,sans-Serif" font-size="10.00">+ sent_table</text>
<polyline fill="none" stroke="black" points="1,-157.5 73,-157.5 "/>
<text text-anchor="middle" x="37" y="-145.5" font-family="Helvetica,sans-Serif" font-size="10.00"> </text>
</a>
</g>
</g>
<!-- Node2&#45;&gt;Node1 -->
<g id="edge1" class="edge"><title>Node2&#45;&gt;Node1</title>
<path fill="none" stroke="#404040" d="M37,-138.199C37,-127.158 37,-114.901 37,-103.035"/>
<polygon fill="none" stroke="#404040" points="37.0001,-102.879 33,-96.8791 37,-90.8791 41,-96.8791 37.0001,-102.879"/>
<text text-anchor="middle" x="49.5" y="-112" font-family="Helvetica,sans-Serif" font-size="10.00"> +pub</text>
</g>
</g>
</svg>
