<?xml version="1.0" encoding="UTF-8" standalone="no"?>
<!DOCTYPE svg PUBLIC "-//W3C//DTD SVG 1.1//EN"
 "http://www.w3.org/Graphics/SVG/1.1/DTD/svg11.dtd">
<!-- Generated by graphviz version 2.38.0 (20140413.2041)
 -->
<!-- Title: ic9100_handle Pages: 1 -->
<!--zoomable 595 -->
<svg id="main" version="1.1" xmlns="http://www.w3.org/2000/svg" xmlns:xlink="http://www.w3.org/1999/xlink" xml:space="preserve" onload="init(evt)">
<style type="text/css"><![CDATA[
.edge:hover path { stroke: red; }
.edge:hover polygon { stroke: red; fill: red; }
]]></style>
<script type="text/javascript"><![CDATA[
var edges = document.getElementsByTagName('g');
if (edges && edges.length) {
  for (var i=0;i<edges.length;i++) {
    if (edges[i].id.substr(0,4)=='edge') {
      edges[i].setAttribute('class','edge');
    }
  }
}
]]></script>
        <defs>
                <circle id="rim" cx="0" cy="0" r="7"/>
                <circle id="rim2" cx="0" cy="0" r="3.5"/>
                <g id="zoomPlus">
                        <use xlink:href="#rim" fill="#404040">
                                <set attributeName="fill" to="#808080" begin="zoomplus.mouseover" end="zoomplus.mouseout"/>
                        </use>
                        <path d="M-4,0h8M0,-4v8" fill="none" stroke="white" stroke-width="1.5" pointer-events="none"/>
                </g>
                <g id="zoomMin">
                        <use xlink:href="#rim" fill="#404040">
                                <set attributeName="fill" to="#808080" begin="zoomminus.mouseover" end="zoomminus.mouseout"/>
                        </use>
                        <path d="M-4,0h8" fill="none" stroke="white" stroke-width="1.5" pointer-events="none"/>
                </g>
                <g id="dirArrow">
                        <path fill="none" stroke="white" stroke-width="1.5" d="M0,-3.0v7 M-2.5,-0.5L0,-3.0L2.5,-0.5"/>
                </g>
               <g id="resetDef">
                       <use xlink:href="#rim2" fill="#404040">
                               <set attributeName="fill" to="#808080" begin="reset.mouseover" end="reset.mouseout"/>
                       </use>
               </g>
        </defs>

<script type="text/javascript">
var viewWidth = 300;
var viewHeight = 595;
var sectionId = 'dynsection-0';
</script>
<script xlink:href="svgpan.js"/>
<svg id="graph" class="graph">
<g id="viewport">
<title>ic9100_handle</title>
<polygon fill="white" stroke="none" points="-4,4 -4,-591 296,-591 296,4 -4,4"/>
<!-- Node1 -->
<g id="node1" class="node"><title>Node1</title>
<polygon fill="#bfbfbf" stroke="black" points="88.5,-0.5 88.5,-167.5 174.5,-167.5 174.5,-0.5 88.5,-0.5"/>
<text text-anchor="middle" x="131.5" y="-155.5" font-family="Helvetica,sans-Serif" font-size="10.00">ic9100_handle</text>
<polyline fill="none" stroke="black" points="88.5,-148.5 174.5,-148.5 "/>
<text text-anchor="start" x="96.5" y="-136.5" font-family="Helvetica,sans-Serif" font-size="10.00">+ address</text>
<text text-anchor="start" x="96.5" y="-125.5" font-family="Helvetica,sans-Serif" font-size="10.00">+ channelnum</text>
<text text-anchor="start" x="96.5" y="-114.5" font-family="Helvetica,sans-Serif" font-size="10.00">+ freqband</text>
<text text-anchor="start" x="96.5" y="-103.5" font-family="Helvetica,sans-Serif" font-size="10.00">+ filtband</text>
<text text-anchor="start" x="96.5" y="-92.5" font-family="Helvetica,sans-Serif" font-size="10.00">+ mode</text>
<text text-anchor="start" x="96.5" y="-81.5" font-family="Helvetica,sans-Serif" font-size="10.00">+ datamode</text>
<text text-anchor="start" x="96.5" y="-70.5" font-family="Helvetica,sans-Serif" font-size="10.00">+ bps9600mode</text>
<text text-anchor="start" x="96.5" y="-59.5" font-family="Helvetica,sans-Serif" font-size="10.00">+ rfgain</text>
<text text-anchor="start" x="96.5" y="-48.5" font-family="Helvetica,sans-Serif" font-size="10.00">+ squelch</text>
<text text-anchor="start" x="96.5" y="-37.5" font-family="Helvetica,sans-Serif" font-size="10.00">+ rfpower</text>
<text text-anchor="start" x="96.5" y="-26.5" font-family="Helvetica,sans-Serif" font-size="10.00">and 12 more...</text>
<polyline fill="none" stroke="black" points="88.5,-19.5 174.5,-19.5 "/>
<text text-anchor="middle" x="131.5" y="-7.5" font-family="Helvetica,sans-Serif" font-size="10.00"> </text>
</g>
<!-- Node2 -->
<g id="node2" class="node"><title>Node2</title>
<polygon fill="white" stroke="#bfbfbf" points="0,-320 0,-377 91,-377 91,-320 0,-320"/>
<text text-anchor="middle" x="45.5" y="-365" font-family="Helvetica,sans-Serif" font-size="10.00">vector&lt; uint8_t &gt;</text>
<polyline fill="none" stroke="#bfbfbf" points="0,-358 91,-358 "/>
<text text-anchor="middle" x="45.5" y="-346" font-family="Helvetica,sans-Serif" font-size="10.00"> </text>
<polyline fill="none" stroke="#bfbfbf" points="0,-339 91,-339 "/>
<text text-anchor="middle" x="45.5" y="-327" font-family="Helvetica,sans-Serif" font-size="10.00"> </text>
</g>
<!-- Node2&#45;&gt;Node1 -->
<g id="edge1" class="edge"><title>Node2&#45;&gt;Node1</title>
<path fill="none" stroke="#404040" d="M48.756,-319.715C53.1358,-287.017 62.3097,-231.421 78.5,-186 80.0188,-181.739 81.6886,-177.434 83.4703,-173.127"/>
<polygon fill="none" stroke="#404040" points="83.6327,-172.754 82.3592,-165.656 88.4212,-161.751 89.6947,-168.849 83.6327,-172.754"/>
<text text-anchor="middle" x="103" y="-189" font-family="Helvetica,sans-Serif" font-size="10.00"> +response</text>
</g>
<!-- Node3 -->
<g id="node3" class="node"><title>Node3</title>
<polygon fill="white" stroke="#bfbfbf" points="109.5,-320 109.5,-377 153.5,-377 153.5,-320 109.5,-320"/>
<text text-anchor="middle" x="131.5" y="-365" font-family="Helvetica,sans-Serif" font-size="10.00">mutex</text>
<polyline fill="none" stroke="#bfbfbf" points="109.5,-358 153.5,-358 "/>
<text text-anchor="middle" x="131.5" y="-346" font-family="Helvetica,sans-Serif" font-size="10.00"> </text>
<polyline fill="none" stroke="#bfbfbf" points="109.5,-339 153.5,-339 "/>
<text text-anchor="middle" x="131.5" y="-327" font-family="Helvetica,sans-Serif" font-size="10.00"> </text>
</g>
<!-- Node3&#45;&gt;Node1 -->
<g id="edge2" class="edge"><title>Node3&#45;&gt;Node1</title>
<path fill="none" stroke="#404040" d="M131.5,-319.904C131.5,-286.766 131.5,-229.426 131.5,-179.695"/>
<polygon fill="none" stroke="#404040" points="131.5,-179.566 127.5,-173.566 131.5,-167.566 135.5,-173.566 131.5,-179.566"/>
<text text-anchor="middle" x="144.5" y="-189" font-family="Helvetica,sans-Serif" font-size="10.00"> +mut</text>
</g>
<!-- Node4 -->
<g id="node4" class="node"><title>Node4</title>
<g id="a_node4"><a xlink:href="class_cosmos_1_1_serial.html" target="_top" xlink:title="{Cosmos::Serial\n|&#45; fd\l&#45; error\l&#45; ictimeout\l&#45; restoreonclose\l&#45; dcb\l&#45; handle\l&#45; baud\l&#45; bits\l&#45; parity\l&#45; stop\l|+ Serial()\l+ ~Serial()\l+ open_device()\l+ close_device()\l+ set_restoreonclose()\l+ set_params()\l+ set_flowcontrol()\l+ set_timeout()\l+ set_timeout()\l+ set_dtr()\land 25 more...\l}">
<polygon fill="white" stroke="black" points="171.5,-215.5 171.5,-481.5 285.5,-481.5 285.5,-215.5 171.5,-215.5"/>
<text text-anchor="middle" x="228.5" y="-469.5" font-family="Helvetica,sans-Serif" font-size="10.00">Cosmos::Serial</text>
<polyline fill="none" stroke="black" points="171.5,-462.5 285.5,-462.5 "/>
<text text-anchor="start" x="179.5" y="-450.5" font-family="Helvetica,sans-Serif" font-size="10.00">&#45; fd</text>
<text text-anchor="start" x="179.5" y="-439.5" font-family="Helvetica,sans-Serif" font-size="10.00">&#45; error</text>
<text text-anchor="start" x="179.5" y="-428.5" font-family="Helvetica,sans-Serif" font-size="10.00">&#45; ictimeout</text>
<text text-anchor="start" x="179.5" y="-417.5" font-family="Helvetica,sans-Serif" font-size="10.00">&#45; restoreonclose</text>
<text text-anchor="start" x="179.5" y="-406.5" font-family="Helvetica,sans-Serif" font-size="10.00">&#45; dcb</text>
<text text-anchor="start" x="179.5" y="-395.5" font-family="Helvetica,sans-Serif" font-size="10.00">&#45; handle</text>
<text text-anchor="start" x="179.5" y="-384.5" font-family="Helvetica,sans-Serif" font-size="10.00">&#45; baud</text>
<text text-anchor="start" x="179.5" y="-373.5" font-family="Helvetica,sans-Serif" font-size="10.00">&#45; bits</text>
<text text-anchor="start" x="179.5" y="-362.5" font-family="Helvetica,sans-Serif" font-size="10.00">&#45; parity</text>
<text text-anchor="start" x="179.5" y="-351.5" font-family="Helvetica,sans-Serif" font-size="10.00">&#45; stop</text>
<polyline fill="none" stroke="black" points="171.5,-344.5 285.5,-344.5 "/>
<text text-anchor="start" x="179.5" y="-332.5" font-family="Helvetica,sans-Serif" font-size="10.00">+ Serial()</text>
<text text-anchor="start" x="179.5" y="-321.5" font-family="Helvetica,sans-Serif" font-size="10.00">+ ~Serial()</text>
<text text-anchor="start" x="179.5" y="-310.5" font-family="Helvetica,sans-Serif" font-size="10.00">+ open_device()</text>
<text text-anchor="start" x="179.5" y="-299.5" font-family="Helvetica,sans-Serif" font-size="10.00">+ close_device()</text>
<text text-anchor="start" x="179.5" y="-288.5" font-family="Helvetica,sans-Serif" font-size="10.00">+ set_restoreonclose()</text>
<text text-anchor="start" x="179.5" y="-277.5" font-family="Helvetica,sans-Serif" font-size="10.00">+ set_params()</text>
<text text-anchor="start" x="179.5" y="-266.5" font-family="Helvetica,sans-Serif" font-size="10.00">+ set_flowcontrol()</text>
<text text-anchor="start" x="179.5" y="-255.5" font-family="Helvetica,sans-Serif" font-size="10.00">+ set_timeout()</text>
<text text-anchor="start" x="179.5" y="-244.5" font-family="Helvetica,sans-Serif" font-size="10.00">+ set_timeout()</text>
<text text-anchor="start" x="179.5" y="-233.5" font-family="Helvetica,sans-Serif" font-size="10.00">+ set_dtr()</text>
<text text-anchor="start" x="179.5" y="-222.5" font-family="Helvetica,sans-Serif" font-size="10.00">and 25 more...</text>
</a>
</g>
</g>
<!-- Node4&#45;&gt;Node1 -->
<g id="edge3" class="edge"><title>Node4&#45;&gt;Node1</title>
<path fill="none" stroke="#404040" d="M179.716,-215.481C175.14,-203.097 170.567,-190.722 166.16,-178.797"/>
<polygon fill="none" stroke="#404040" points="166.151,-178.772 160.319,-174.531 161.992,-167.516 167.824,-171.758 166.151,-178.772"/>
<text text-anchor="middle" x="188" y="-189" font-family="Helvetica,sans-Serif" font-size="10.00"> +serial</text>
</g>
<!-- Node5 -->
<g id="node5" class="node"><title>Node5</title>
<polygon fill="white" stroke="#bfbfbf" points="136.5,-529.5 136.5,-586.5 232.5,-586.5 232.5,-529.5 136.5,-529.5"/>
<text text-anchor="middle" x="184.5" y="-574.5" font-family="Helvetica,sans-Serif" font-size="10.00">vector&lt; uint32_t &gt;</text>
<polyline fill="none" stroke="#bfbfbf" points="136.5,-567.5 232.5,-567.5 "/>
<text text-anchor="middle" x="184.5" y="-555.5" font-family="Helvetica,sans-Serif" font-size="10.00"> </text>
<polyline fill="none" stroke="#bfbfbf" points="136.5,-548.5 232.5,-548.5 "/>
<text text-anchor="middle" x="184.5" y="-536.5" font-family="Helvetica,sans-Serif" font-size="10.00"> </text>
</g>
<!-- Node5&#45;&gt;Node4 -->
<g id="edge4" class="edge"><title>Node5&#45;&gt;Node4</title>
<path fill="none" stroke="#404040" d="M190.287,-529.455C192.255,-520.105 194.47,-509.597 196.5,-500 196.957,-497.84 197.418,-495.662 197.882,-493.471"/>
<polygon fill="none" stroke="#404040" points="197.902,-493.375 195.232,-486.677 200.389,-481.636 203.059,-488.335 197.902,-493.375"/>
<text text-anchor="middle" x="226" y="-503" font-family="Helvetica,sans-Serif" font-size="10.00"> &#45;baud_speed</text>
</g>
<!-- Node6 -->
<g id="node6" class="node"><title>Node6</title>
<polygon fill="white" stroke="#bfbfbf" points="251,-529.5 251,-586.5 292,-586.5 292,-529.5 251,-529.5"/>
<text text-anchor="middle" x="271.5" y="-574.5" font-family="Helvetica,sans-Serif" font-size="10.00">string</text>
<polyline fill="none" stroke="#bfbfbf" points="251,-567.5 292,-567.5 "/>
<text text-anchor="middle" x="271.5" y="-555.5" font-family="Helvetica,sans-Serif" font-size="10.00"> </text>
<polyline fill="none" stroke="#bfbfbf" points="251,-548.5 292,-548.5 "/>
<text text-anchor="middle" x="271.5" y="-536.5" font-family="Helvetica,sans-Serif" font-size="10.00"> </text>
</g>
<!-- Node6&#45;&gt;Node4 -->
<g id="edge5" class="edge"><title>Node6&#45;&gt;Node4</title>
<path fill="none" stroke="#404040" d="M265.79,-529.446C263.687,-519.299 261.136,-506.985 258.364,-493.612"/>
<polygon fill="none" stroke="#404040" points="258.313,-493.365 253.179,-488.301 255.878,-481.614 261.012,-486.678 258.313,-493.365"/>
<text text-anchor="middle" x="276" y="-503" font-family="Helvetica,sans-Serif" font-size="10.00"> &#45;name</text>
</g>
</g>
</svg>
        <g id="navigator" transform="translate(0 0)" fill="#404254">
                <rect fill="#f2f5e9" fill-opacity="0.5" stroke="#606060" stroke-width=".5" x="0" y="0" width="60" height="60"/>
                <use id="zoomplus" xlink:href="#zoomPlus" x="17" y="9" onmousedown="handleZoom(evt,'in')"/>
                <use id="zoomminus" xlink:href="#zoomMin" x="42" y="9" onmousedown="handleZoom(evt,'out')"/>
                <use id="reset" xlink:href="#resetDef" x="30" y="36" onmousedown="handleReset()"/>
                <g id="arrowUp" xlink:href="#dirArrow" transform="translate(30 24)" onmousedown="handlePan(0,-1)">
                  <use xlink:href="#rim" fill="#404040">
                        <set attributeName="fill" to="#808080" begin="arrowUp.mouseover" end="arrowUp.mouseout"/>
                  </use>
                  <path fill="none" stroke="white" stroke-width="1.5" d="M0,-3.0v7 M-2.5,-0.5L0,-3.0L2.5,-0.5"/>
                </g>
                <g id="arrowRight" xlink:href="#dirArrow" transform="rotate(90) translate(36 -43)" onmousedown="handlePan(1,0)">
                  <use xlink:href="#rim" fill="#404040">
                        <set attributeName="fill" to="#808080" begin="arrowRight.mouseover" end="arrowRight.mouseout"/>
                  </use>
                  <path fill="none" stroke="white" stroke-width="1.5" d="M0,-3.0v7 M-2.5,-0.5L0,-3.0L2.5,-0.5"/>
                </g>
                <g id="arrowDown" xlink:href="#dirArrow" transform="rotate(180) translate(-30 -48)" onmousedown="handlePan(0,1)">
                  <use xlink:href="#rim" fill="#404040">
                        <set attributeName="fill" to="#808080" begin="arrowDown.mouseover" end="arrowDown.mouseout"/>
                  </use>
                  <path fill="none" stroke="white" stroke-width="1.5" d="M0,-3.0v7 M-2.5,-0.5L0,-3.0L2.5,-0.5"/>
                </g>
                <g id="arrowLeft" xlink:href="#dirArrow" transform="rotate(270) translate(-36 17)" onmousedown="handlePan(-1,0)">
                  <use xlink:href="#rim" fill="#404040">
                        <set attributeName="fill" to="#808080" begin="arrowLeft.mouseover" end="arrowLeft.mouseout"/>
                  </use>
                  <path fill="none" stroke="white" stroke-width="1.5" d="M0,-3.0v7 M-2.5,-0.5L0,-3.0L2.5,-0.5"/>
                </g>
        </g>
        <svg viewBox="0 0 15 15" width="100%" height="30px" preserveAspectRatio="xMaxYMin meet">
         <g id="arrow_out" transform="scale(0.3 0.3)">
          <a xlink:href="structic9100__handle__coll__graph_org.svg" target="_base">
           <rect id="button" ry="5" rx="5" y="6" x="6" height="38" width="38"
                fill="#f2f5e9" fill-opacity="0.5" stroke="#606060" stroke-width="1.0"/>
           <path id="arrow"
             d="M 11.500037,31.436501 C 11.940474,20.09759 22.043105,11.32322 32.158766,21.979434 L 37.068811,17.246167 C 37.068811,17.246167 37.088388,32 37.088388,32 L 22.160133,31.978069 C 22.160133,31.978069 26.997745,27.140456 26.997745,27.140456 C 18.528582,18.264221 13.291696,25.230495 11.500037,31.436501 z"
             style="fill:#404040;"/>
          </a>
         </g>
        </svg>
</svg>
