<?xml version="1.0" encoding="UTF-8" standalone="no"?>
<!DOCTYPE svg PUBLIC "-//W3C//DTD SVG 1.1//EN"
 "http://www.w3.org/Graphics/SVG/1.1/DTD/svg11.dtd">
<!-- Generated by graphviz version 2.38.0 (20140413.2041)
 -->
<!-- Title: antennastruc Pages: 1 -->
<svg width="237pt" height="678pt"
 viewBox="0.00 0.00 236.50 678.00" xmlns="http://www.w3.org/2000/svg" xmlns:xlink="http://www.w3.org/1999/xlink">
<g id="graph0" class="graph" transform="scale(1 1) rotate(0) translate(4 674)">
<title>antennastruc</title>
<polygon fill="white" stroke="none" points="-4,4 -4,-674 232.5,-674 232.5,4 -4,4"/>
<!-- Node1 -->
<g id="node1" class="node"><title>Node1</title>
<polygon fill="#bfbfbf" stroke="black" points="79,-0.5 79,-57.5 152,-57.5 152,-0.5 79,-0.5"/>
<text text-anchor="middle" x="115.5" y="-45.5" font-family="Helvetica,sans-Serif" font-size="10.00">antennastruc</text>
<polyline fill="none" stroke="black" points="79,-38.5 152,-38.5 "/>
<text text-anchor="middle" x="115.5" y="-26.5" font-family="Helvetica,sans-Serif" font-size="10.00"> </text>
<polyline fill="none" stroke="black" points="79,-19.5 152,-19.5 "/>
<text text-anchor="middle" x="115.5" y="-7.5" font-family="Helvetica,sans-Serif" font-size="10.00"> </text>
</g>
<!-- Node2 -->
<g id="node2" class="node"><title>Node2</title>
<g id="a_node2"><a xlink:href="structantstruc.html" target="_top" xlink:title="Antenna information. ">
<polygon fill="white" stroke="black" points="2.5,-138.5 2.5,-272.5 76.5,-272.5 76.5,-138.5 2.5,-138.5"/>
<text text-anchor="middle" x="39.5" y="-260.5" font-family="Helvetica,sans-Serif" font-size="10.00">antstruc</text>
<polyline fill="none" stroke="black" points="2.5,-253.5 76.5,-253.5 "/>
<text text-anchor="start" x="10.5" y="-241.5" font-family="Helvetica,sans-Serif" font-size="10.00">+ azim</text>
<text text-anchor="start" x="10.5" y="-230.5" font-family="Helvetica,sans-Serif" font-size="10.00">+ elev</text>
<text text-anchor="start" x="10.5" y="-219.5" font-family="Helvetica,sans-Serif" font-size="10.00">+ minelev</text>
<text text-anchor="start" x="10.5" y="-208.5" font-family="Helvetica,sans-Serif" font-size="10.00">+ maxelev</text>
<text text-anchor="start" x="10.5" y="-197.5" font-family="Helvetica,sans-Serif" font-size="10.00">+ minazim</text>
<text text-anchor="start" x="10.5" y="-186.5" font-family="Helvetica,sans-Serif" font-size="10.00">+ maxazim</text>
<text text-anchor="start" x="10.5" y="-175.5" font-family="Helvetica,sans-Serif" font-size="10.00">+ threshelev</text>
<polyline fill="none" stroke="black" points="2.5,-168.5 76.5,-168.5 "/>
<text text-anchor="start" x="10.5" y="-156.5" font-family="Helvetica,sans-Serif" font-size="10.00">+ to_json()</text>
<text text-anchor="start" x="10.5" y="-145.5" font-family="Helvetica,sans-Serif" font-size="10.00">+ from_json()</text>
</a>
</g>
</g>
<!-- Node2&#45;&gt;Node1 -->
<g id="edge1" class="edge"><title>Node2&#45;&gt;Node1</title>
<path fill="none" stroke="#404040" d="M60.6714,-138.34C67.9898,-117.969 76.8128,-95.7222 86.5,-76 87.7643,-73.4261 89.1368,-70.8154 90.574,-68.2129"/>
<polygon fill="none" stroke="#404040" points="90.6784,-68.0343 90.2542,-60.8357 96.7359,-57.6753 97.1601,-64.874 90.6784,-68.0343"/>
<text text-anchor="middle" x="99" y="-79" font-family="Helvetica,sans-Serif" font-size="10.00"> +info</text>
</g>
<!-- Node3 -->
<g id="node3" class="node"><title>Node3</title>
<g id="a_node3"><a xlink:href="structquaternion.html" target="_top" xlink:title="Quaternion, scalar last, using x, y, z. ">
<polygon fill="white" stroke="black" points="1,-353.5 1,-443.5 78,-443.5 78,-353.5 1,-353.5"/>
<text text-anchor="middle" x="39.5" y="-431.5" font-family="Helvetica,sans-Serif" font-size="10.00">quaternion</text>
<polyline fill="none" stroke="black" points="1,-424.5 78,-424.5 "/>
<text text-anchor="start" x="9" y="-412.5" font-family="Helvetica,sans-Serif" font-size="10.00">+ w</text>
<polyline fill="none" stroke="black" points="1,-405.5 78,-405.5 "/>
<text text-anchor="start" x="9" y="-393.5" font-family="Helvetica,sans-Serif" font-size="10.00">+ quaternion()</text>
<text text-anchor="start" x="9" y="-382.5" font-family="Helvetica,sans-Serif" font-size="10.00">+ quaternion()</text>
<text text-anchor="start" x="9" y="-371.5" font-family="Helvetica,sans-Serif" font-size="10.00">+ to_json()</text>
<text text-anchor="start" x="9" y="-360.5" font-family="Helvetica,sans-Serif" font-size="10.00">+ from_json()</text>
</a>
</g>
</g>
<!-- Node3&#45;&gt;Node2 -->
<g id="edge2" class="edge"><title>Node3&#45;&gt;Node2</title>
<path fill="none" stroke="#404040" d="M39.5,-353.201C39.5,-332.837 39.5,-308.063 39.5,-284.715"/>
<polygon fill="none" stroke="#404040" points="39.5001,-284.666 35.5,-278.666 39.5,-272.666 43.5,-278.666 39.5001,-284.666"/>
<text text-anchor="middle" x="54.5" y="-327" font-family="Helvetica,sans-Serif" font-size="10.00"> +align</text>
</g>
<!-- Node4 -->
<g id="node4" class="node"><title>Node4</title>
<g id="a_node4"><a xlink:href="classcvector.html" target="_top" xlink:title="3 element cartesian vector ">
<polygon fill="white" stroke="black" points="0,-491.5 0,-669.5 79,-669.5 79,-491.5 0,-491.5"/>
<text text-anchor="middle" x="39.5" y="-657.5" font-family="Helvetica,sans-Serif" font-size="10.00">cvector</text>
<polyline fill="none" stroke="black" points="0,-650.5 79,-650.5 "/>
<text text-anchor="start" x="8" y="-638.5" font-family="Helvetica,sans-Serif" font-size="10.00">+ x</text>
<text text-anchor="start" x="8" y="-627.5" font-family="Helvetica,sans-Serif" font-size="10.00">+ y</text>
<text text-anchor="start" x="8" y="-616.5" font-family="Helvetica,sans-Serif" font-size="10.00">+ z</text>
<polyline fill="none" stroke="black" points="0,-609.5 79,-609.5 "/>
<text text-anchor="start" x="8" y="-597.5" font-family="Helvetica,sans-Serif" font-size="10.00">+ cvector()</text>
<text text-anchor="start" x="8" y="-586.5" font-family="Helvetica,sans-Serif" font-size="10.00">+ cvector()</text>
<text text-anchor="start" x="8" y="-575.5" font-family="Helvetica,sans-Serif" font-size="10.00">+ normalize()</text>
<text text-anchor="start" x="8" y="-564.5" font-family="Helvetica,sans-Serif" font-size="10.00">+ length()</text>
<text text-anchor="start" x="8" y="-553.5" font-family="Helvetica,sans-Serif" font-size="10.00">+ norm()</text>
<text text-anchor="start" x="8" y="-542.5" font-family="Helvetica,sans-Serif" font-size="10.00">+ norm2()</text>
<text text-anchor="start" x="8" y="-531.5" font-family="Helvetica,sans-Serif" font-size="10.00">+ normalized()</text>
<text text-anchor="start" x="8" y="-520.5" font-family="Helvetica,sans-Serif" font-size="10.00">+ operator[]()</text>
<text text-anchor="start" x="8" y="-509.5" font-family="Helvetica,sans-Serif" font-size="10.00">+ to_json()</text>
<text text-anchor="start" x="8" y="-498.5" font-family="Helvetica,sans-Serif" font-size="10.00">+ from_json()</text>
</a>
</g>
</g>
<!-- Node4&#45;&gt;Node3 -->
<g id="edge3" class="edge"><title>Node4&#45;&gt;Node3</title>
<path fill="none" stroke="#404040" d="M39.5,-491.346C39.5,-479.308 39.5,-467.226 39.5,-455.962"/>
<polygon fill="none" stroke="#404040" points="39.5001,-455.638 35.5,-449.638 39.5,-443.638 43.5,-449.638 39.5001,-455.638"/>
<text text-anchor="middle" x="47" y="-465" font-family="Helvetica,sans-Serif" font-size="10.00"> +d</text>
</g>
<!-- Node5 -->
<g id="node5" class="node"><title>Node5</title>
<polygon fill="white" stroke="#bfbfbf" points="95,-177 95,-234 136,-234 136,-177 95,-177"/>
<text text-anchor="middle" x="115.5" y="-222" font-family="Helvetica,sans-Serif" font-size="10.00">string</text>
<polyline fill="none" stroke="#bfbfbf" points="95,-215 136,-215 "/>
<text text-anchor="middle" x="115.5" y="-203" font-family="Helvetica,sans-Serif" font-size="10.00"> </text>
<polyline fill="none" stroke="#bfbfbf" points="95,-196 136,-196 "/>
<text text-anchor="middle" x="115.5" y="-184" font-family="Helvetica,sans-Serif" font-size="10.00"> </text>
</g>
<!-- Node5&#45;&gt;Node1 -->
<g id="edge4" class="edge"><title>Node5&#45;&gt;Node1</title>
<path fill="none" stroke="#404040" d="M115.5,-176.85C115.5,-148.004 115.5,-102.51 115.5,-69.8016"/>
<polygon fill="none" stroke="#404040" points="115.5,-69.5207 111.5,-63.5207 115.5,-57.5207 119.5,-63.5206 115.5,-69.5207"/>
<text text-anchor="middle" x="132.5" y="-79" font-family="Helvetica,sans-Serif" font-size="10.00"> +name</text>
</g>
<!-- Node6 -->
<g id="node6" class="node"><title>Node6</title>
<g id="a_node6"><a xlink:href="structbeatstruc.html" target="_top" xlink:title="{beatstruc\n|+ utc\l+ node\l+ proc\l+ ntype\l+ addr\l+ port\l+ bsz\l+ bprd\l+ user\l+ cpu\l+ memory\l+ jitter\l+ exists\l|+ to_json()\l+ from_json()\l}">
<polygon fill="white" stroke="black" points="154.5,-105.5 154.5,-305.5 228.5,-305.5 228.5,-105.5 154.5,-105.5"/>
<text text-anchor="middle" x="191.5" y="-293.5" font-family="Helvetica,sans-Serif" font-size="10.00">beatstruc</text>
<polyline fill="none" stroke="black" points="154.5,-286.5 228.5,-286.5 "/>
<text text-anchor="start" x="162.5" y="-274.5" font-family="Helvetica,sans-Serif" font-size="10.00">+ utc</text>
<text text-anchor="start" x="162.5" y="-263.5" font-family="Helvetica,sans-Serif" font-size="10.00">+ node</text>
<text text-anchor="start" x="162.5" y="-252.5" font-family="Helvetica,sans-Serif" font-size="10.00">+ proc</text>
<text text-anchor="start" x="162.5" y="-241.5" font-family="Helvetica,sans-Serif" font-size="10.00">+ ntype</text>
<text text-anchor="start" x="162.5" y="-230.5" font-family="Helvetica,sans-Serif" font-size="10.00">+ addr</text>
<text text-anchor="start" x="162.5" y="-219.5" font-family="Helvetica,sans-Serif" font-size="10.00">+ port</text>
<text text-anchor="start" x="162.5" y="-208.5" font-family="Helvetica,sans-Serif" font-size="10.00">+ bsz</text>
<text text-anchor="start" x="162.5" y="-197.5" font-family="Helvetica,sans-Serif" font-size="10.00">+ bprd</text>
<text text-anchor="start" x="162.5" y="-186.5" font-family="Helvetica,sans-Serif" font-size="10.00">+ user</text>
<text text-anchor="start" x="162.5" y="-175.5" font-family="Helvetica,sans-Serif" font-size="10.00">+ cpu</text>
<text text-anchor="start" x="162.5" y="-164.5" font-family="Helvetica,sans-Serif" font-size="10.00">+ memory</text>
<text text-anchor="start" x="162.5" y="-153.5" font-family="Helvetica,sans-Serif" font-size="10.00">+ jitter</text>
<text text-anchor="start" x="162.5" y="-142.5" font-family="Helvetica,sans-Serif" font-size="10.00">+ exists</text>
<polyline fill="none" stroke="black" points="154.5,-135.5 228.5,-135.5 "/>
<text text-anchor="start" x="162.5" y="-123.5" font-family="Helvetica,sans-Serif" font-size="10.00">+ to_json()</text>
<text text-anchor="start" x="162.5" y="-112.5" font-family="Helvetica,sans-Serif" font-size="10.00">+ from_json()</text>
</a>
</g>
</g>
<!-- Node6&#45;&gt;Node1 -->
<g id="edge5" class="edge"><title>Node6&#45;&gt;Node1</title>
<path fill="none" stroke="#404040" d="M166.632,-105.351C162.78,-95.2054 158.418,-85.242 153.5,-76 151.979,-73.1409 150.262,-70.2939 148.421,-67.4989"/>
<polygon fill="none" stroke="#404040" points="148.354,-67.4065 141.599,-64.8818 141.332,-57.6756 148.087,-60.2004 148.354,-67.4065"/>
<text text-anchor="middle" x="172.5" y="-79" font-family="Helvetica,sans-Serif" font-size="10.00"> +beat</text>
</g>
</g>
</svg>
