<?xml version="1.0" encoding="UTF-8" standalone="no"?>
<!DOCTYPE svg PUBLIC "-//W3C//DTD SVG 1.1//EN"
 "http://www.w3.org/Graphics/SVG/1.1/DTD/svg11.dtd">
<!-- Generated by graphviz version 2.38.0 (20140413.2041)
 -->
<!-- Title: my_cquantizer Pages: 1 -->
<svg width="114pt" height="336pt"
 viewBox="0.00 0.00 114.00 336.00" xmlns="http://www.w3.org/2000/svg" xmlns:xlink="http://www.w3.org/1999/xlink">
<g id="graph0" class="graph" transform="scale(1 1) rotate(0) translate(4 332)">
<title>my_cquantizer</title>
<polygon fill="white" stroke="none" points="-4,4 -4,-332 110,-332 110,4 -4,4"/>
<!-- Node1 -->
<g id="node1" class="node"><title>Node1</title>
<polygon fill="#bfbfbf" stroke="black" points="10,-0.5 10,-189.5 96,-189.5 96,-0.5 10,-0.5"/>
<text text-anchor="middle" x="53" y="-177.5" font-family="Helvetica,sans-Serif" font-size="10.00">my_cquantizer</text>
<polyline fill="none" stroke="black" points="10,-170.5 96,-170.5 "/>
<text text-anchor="start" x="18" y="-158.5" font-family="Helvetica,sans-Serif" font-size="10.00">+ sv_colormap</text>
<text text-anchor="start" x="18" y="-147.5" font-family="Helvetica,sans-Serif" font-size="10.00">+ sv_actual</text>
<text text-anchor="start" x="18" y="-136.5" font-family="Helvetica,sans-Serif" font-size="10.00">+ colorindex</text>
<text text-anchor="start" x="18" y="-125.5" font-family="Helvetica,sans-Serif" font-size="10.00">+ is_padded</text>
<text text-anchor="start" x="18" y="-114.5" font-family="Helvetica,sans-Serif" font-size="10.00">+ Ncolors</text>
<text text-anchor="start" x="18" y="-103.5" font-family="Helvetica,sans-Serif" font-size="10.00">+ row_index</text>
<text text-anchor="start" x="18" y="-92.5" font-family="Helvetica,sans-Serif" font-size="10.00">+ odither</text>
<text text-anchor="start" x="18" y="-81.5" font-family="Helvetica,sans-Serif" font-size="10.00">+ fserrors</text>
<text text-anchor="start" x="18" y="-70.5" font-family="Helvetica,sans-Serif" font-size="10.00">+ on_odd_row</text>
<text text-anchor="start" x="18" y="-59.5" font-family="Helvetica,sans-Serif" font-size="10.00">+ desired</text>
<text text-anchor="start" x="18" y="-48.5" font-family="Helvetica,sans-Serif" font-size="10.00">+ histogram</text>
<text text-anchor="start" x="18" y="-37.5" font-family="Helvetica,sans-Serif" font-size="10.00">+ needs_zeroed</text>
<text text-anchor="start" x="18" y="-26.5" font-family="Helvetica,sans-Serif" font-size="10.00">+ error_limiter</text>
<polyline fill="none" stroke="black" points="10,-19.5 96,-19.5 "/>
<text text-anchor="middle" x="53" y="-7.5" font-family="Helvetica,sans-Serif" font-size="10.00"> </text>
</g>
<!-- Node2 -->
<g id="node2" class="node"><title>Node2</title>
<g id="a_node2"><a xlink:href="structjpeg__color__quantizer.html" target="_top" xlink:title="{jpeg_color_quantizer\n||+ JMETHOD()\l+ JMETHOD()\l+ JMETHOD()\l+ JMETHOD()\l}">
<polygon fill="white" stroke="black" points="-7.10543e-15,-237.5 -7.10543e-15,-327.5 106,-327.5 106,-237.5 -7.10543e-15,-237.5"/>
<text text-anchor="middle" x="53" y="-315.5" font-family="Helvetica,sans-Serif" font-size="10.00">jpeg_color_quantizer</text>
<polyline fill="none" stroke="black" points="-7.10543e-15,-308.5 106,-308.5 "/>
<text text-anchor="middle" x="53" y="-296.5" font-family="Helvetica,sans-Serif" font-size="10.00"> </text>
<polyline fill="none" stroke="black" points="-7.10543e-15,-289.5 106,-289.5 "/>
<text text-anchor="start" x="8" y="-277.5" font-family="Helvetica,sans-Serif" font-size="10.00">+ JMETHOD()</text>
<text text-anchor="start" x="8" y="-266.5" font-family="Helvetica,sans-Serif" font-size="10.00">+ JMETHOD()</text>
<text text-anchor="start" x="8" y="-255.5" font-family="Helvetica,sans-Serif" font-size="10.00">+ JMETHOD()</text>
<text text-anchor="start" x="8" y="-244.5" font-family="Helvetica,sans-Serif" font-size="10.00">+ JMETHOD()</text>
</a>
</g>
</g>
<!-- Node2&#45;&gt;Node1 -->
<g id="edge1" class="edge"><title>Node2&#45;&gt;Node1</title>
<path fill="none" stroke="#404040" d="M53,-237.068C53,-226.296 53,-214.318 53,-202.021"/>
<polygon fill="none" stroke="#404040" points="53.0001,-201.652 49,-195.652 53,-189.652 57,-195.652 53.0001,-201.652"/>
<text text-anchor="middle" x="65.5" y="-211" font-family="Helvetica,sans-Serif" font-size="10.00"> +pub</text>
</g>
</g>
</svg>
