<?xml version="1.0" encoding="UTF-8" standalone="no"?>
<!DOCTYPE svg PUBLIC "-//W3C//DTD SVG 1.1//EN"
 "http://www.w3.org/Graphics/SVG/1.1/DTD/svg11.dtd">
<!-- Generated by graphviz version 2.38.0 (20140413.2041)
 -->
<!-- Title: png_control Pages: 1 -->
<svg width="666pt" height="959pt"
 viewBox="0.00 0.00 666.00 959.00" xmlns="http://www.w3.org/2000/svg" xmlns:xlink="http://www.w3.org/1999/xlink">
<g id="graph0" class="graph" transform="scale(1 1) rotate(0) translate(4 955)">
<title>png_control</title>
<polygon fill="white" stroke="none" points="-4,4 -4,-955 662,-955 662,4 -4,4"/>
<!-- Node1 -->
<g id="node1" class="node"><title>Node1</title>
<polygon fill="#bfbfbf" stroke="black" points="81.5,-0.5 81.5,-101.5 153.5,-101.5 153.5,-0.5 81.5,-0.5"/>
<text text-anchor="middle" x="117.5" y="-89.5" font-family="Helvetica,sans-Serif" font-size="10.00">png_control</text>
<polyline fill="none" stroke="black" points="81.5,-82.5 153.5,-82.5 "/>
<text text-anchor="start" x="89.5" y="-70.5" font-family="Helvetica,sans-Serif" font-size="10.00">+ error_buf</text>
<text text-anchor="start" x="89.5" y="-59.5" font-family="Helvetica,sans-Serif" font-size="10.00">+ memory</text>
<text text-anchor="start" x="89.5" y="-48.5" font-family="Helvetica,sans-Serif" font-size="10.00">+ size</text>
<text text-anchor="start" x="89.5" y="-37.5" font-family="Helvetica,sans-Serif" font-size="10.00">+ for_write</text>
<text text-anchor="start" x="89.5" y="-26.5" font-family="Helvetica,sans-Serif" font-size="10.00">+ owned_file</text>
<polyline fill="none" stroke="black" points="81.5,-19.5 153.5,-19.5 "/>
<text text-anchor="middle" x="117.5" y="-7.5" font-family="Helvetica,sans-Serif" font-size="10.00"> </text>
</g>
<!-- Node2 -->
<g id="node2" class="node"><title>Node2</title>
<g id="a_node2"><a xlink:href="structpng__info__def.html" target="_top" xlink:title="{png_info_def\n|+ width\l+ height\l+ valid\l+ rowbytes\l+ num_palette\l+ num_trans\l+ bit_depth\l+ color_type\l+ compression_type\l+ filter_type\l+ interlace_type\l+ channels\l+ pixel_depth\l+ spare_byte\l+ free_me\l|}">
<polygon fill="white" stroke="black" points="0,-149.5 0,-360.5 105,-360.5 105,-149.5 0,-149.5"/>
<text text-anchor="middle" x="52.5" y="-348.5" font-family="Helvetica,sans-Serif" font-size="10.00">png_info_def</text>
<polyline fill="none" stroke="black" points="0,-341.5 105,-341.5 "/>
<text text-anchor="start" x="8" y="-329.5" font-family="Helvetica,sans-Serif" font-size="10.00">+ width</text>
<text text-anchor="start" x="8" y="-318.5" font-family="Helvetica,sans-Serif" font-size="10.00">+ height</text>
<text text-anchor="start" x="8" y="-307.5" font-family="Helvetica,sans-Serif" font-size="10.00">+ valid</text>
<text text-anchor="start" x="8" y="-296.5" font-family="Helvetica,sans-Serif" font-size="10.00">+ rowbytes</text>
<text text-anchor="start" x="8" y="-285.5" font-family="Helvetica,sans-Serif" font-size="10.00">+ num_palette</text>
<text text-anchor="start" x="8" y="-274.5" font-family="Helvetica,sans-Serif" font-size="10.00">+ num_trans</text>
<text text-anchor="start" x="8" y="-263.5" font-family="Helvetica,sans-Serif" font-size="10.00">+ bit_depth</text>
<text text-anchor="start" x="8" y="-252.5" font-family="Helvetica,sans-Serif" font-size="10.00">+ color_type</text>
<text text-anchor="start" x="8" y="-241.5" font-family="Helvetica,sans-Serif" font-size="10.00">+ compression_type</text>
<text text-anchor="start" x="8" y="-230.5" font-family="Helvetica,sans-Serif" font-size="10.00">+ filter_type</text>
<text text-anchor="start" x="8" y="-219.5" font-family="Helvetica,sans-Serif" font-size="10.00">+ interlace_type</text>
<text text-anchor="start" x="8" y="-208.5" font-family="Helvetica,sans-Serif" font-size="10.00">+ channels</text>
<text text-anchor="start" x="8" y="-197.5" font-family="Helvetica,sans-Serif" font-size="10.00">+ pixel_depth</text>
<text text-anchor="start" x="8" y="-186.5" font-family="Helvetica,sans-Serif" font-size="10.00">+ spare_byte</text>
<text text-anchor="start" x="8" y="-175.5" font-family="Helvetica,sans-Serif" font-size="10.00">+ free_me</text>
<polyline fill="none" stroke="black" points="0,-168.5 105,-168.5 "/>
<text text-anchor="middle" x="52.5" y="-156.5" font-family="Helvetica,sans-Serif" font-size="10.00"> </text>
</a>
</g>
</g>
<!-- Node2&#45;&gt;Node1 -->
<g id="edge1" class="edge"><title>Node2&#45;&gt;Node1</title>
<path fill="none" stroke="#404040" d="M81.036,-149.438C84.0974,-139.446 87.2753,-129.503 90.5,-120 91.2972,-117.651 92.1299,-115.264 92.9881,-112.859"/>
<polygon fill="none" stroke="#404040" points="93.0065,-112.809 91.3256,-105.797 97.1521,-101.548 98.833,-108.561 93.0065,-112.809"/>
<text text-anchor="middle" x="111.5" y="-123" font-family="Helvetica,sans-Serif" font-size="10.00"> +info_ptr</text>
</g>
<!-- Node3 -->
<g id="node3" class="node"><title>Node3</title>
<g id="a_node3"><a xlink:href="structpng__color__struct.html" target="_top" xlink:title="{png_color_struct\n|+ red\l+ green\l+ blue\l|}">
<polygon fill="white" stroke="black" points="40,-485.5 40,-564.5 129,-564.5 129,-485.5 40,-485.5"/>
<text text-anchor="middle" x="84.5" y="-552.5" font-family="Helvetica,sans-Serif" font-size="10.00">png_color_struct</text>
<polyline fill="none" stroke="black" points="40,-545.5 129,-545.5 "/>
<text text-anchor="start" x="48" y="-533.5" font-family="Helvetica,sans-Serif" font-size="10.00">+ red</text>
<text text-anchor="start" x="48" y="-522.5" font-family="Helvetica,sans-Serif" font-size="10.00">+ green</text>
<text text-anchor="start" x="48" y="-511.5" font-family="Helvetica,sans-Serif" font-size="10.00">+ blue</text>
<polyline fill="none" stroke="black" points="40,-504.5 129,-504.5 "/>
<text text-anchor="middle" x="84.5" y="-492.5" font-family="Helvetica,sans-Serif" font-size="10.00"> </text>
</a>
</g>
</g>
<!-- Node3&#45;&gt;Node2 -->
<g id="edge2" class="edge"><title>Node3&#45;&gt;Node2</title>
<path fill="none" stroke="#404040" d="M76.6001,-485.272C72.4624,-463.769 67.6209,-436.492 64.5,-412 62.8833,-399.312 61.4554,-386.015 60.2015,-372.76"/>
<polygon fill="none" stroke="#404040" points="60.1842,-372.57 55.6577,-366.956 59.0984,-360.619 63.6249,-366.232 60.1842,-372.57"/>
<text text-anchor="middle" x="84" y="-393" font-family="Helvetica,sans-Serif" font-size="10.00"> +palette</text>
</g>
<!-- Node4 -->
<g id="node4" class="node"><title>Node4</title>
<g id="a_node4"><a xlink:href="structpng__struct__def.html" target="_top" xlink:title="{png_struct_def\n|+ error_ptr\l+ io_ptr\l+ mode\l+ flags\l+ transformations\l+ zowner\l+ width\l+ height\l+ num_rows\l+ usr_width\land 30 more...\l|}">
<polygon fill="white" stroke="black" points="123,-171.5 123,-338.5 216,-338.5 216,-171.5 123,-171.5"/>
<text text-anchor="middle" x="169.5" y="-326.5" font-family="Helvetica,sans-Serif" font-size="10.00">png_struct_def</text>
<polyline fill="none" stroke="black" points="123,-319.5 216,-319.5 "/>
<text text-anchor="start" x="131" y="-307.5" font-family="Helvetica,sans-Serif" font-size="10.00">+ error_ptr</text>
<text text-anchor="start" x="131" y="-296.5" font-family="Helvetica,sans-Serif" font-size="10.00">+ io_ptr</text>
<text text-anchor="start" x="131" y="-285.5" font-family="Helvetica,sans-Serif" font-size="10.00">+ mode</text>
<text text-anchor="start" x="131" y="-274.5" font-family="Helvetica,sans-Serif" font-size="10.00">+ flags</text>
<text text-anchor="start" x="131" y="-263.5" font-family="Helvetica,sans-Serif" font-size="10.00">+ transformations</text>
<text text-anchor="start" x="131" y="-252.5" font-family="Helvetica,sans-Serif" font-size="10.00">+ zowner</text>
<text text-anchor="start" x="131" y="-241.5" font-family="Helvetica,sans-Serif" font-size="10.00">+ width</text>
<text text-anchor="start" x="131" y="-230.5" font-family="Helvetica,sans-Serif" font-size="10.00">+ height</text>
<text text-anchor="start" x="131" y="-219.5" font-family="Helvetica,sans-Serif" font-size="10.00">+ num_rows</text>
<text text-anchor="start" x="131" y="-208.5" font-family="Helvetica,sans-Serif" font-size="10.00">+ usr_width</text>
<text text-anchor="start" x="131" y="-197.5" font-family="Helvetica,sans-Serif" font-size="10.00">and 30 more...</text>
<polyline fill="none" stroke="black" points="123,-190.5 216,-190.5 "/>
<text text-anchor="middle" x="169.5" y="-178.5" font-family="Helvetica,sans-Serif" font-size="10.00"> </text>
</a>
</g>
</g>
<!-- Node3&#45;&gt;Node4 -->
<g id="edge4" class="edge"><title>Node3&#45;&gt;Node4</title>
<path fill="none" stroke="#404040" d="M96.769,-485.317C107.937,-450.105 124.879,-396.687 139.603,-350.264"/>
<polygon fill="none" stroke="#404040" points="139.665,-350.067 137.667,-343.138 143.293,-338.628 145.292,-345.557 139.665,-350.067"/>
<text text-anchor="middle" x="150" y="-393" font-family="Helvetica,sans-Serif" font-size="10.00"> +palette</text>
</g>
<!-- Node4&#45;&gt;Node1 -->
<g id="edge3" class="edge"><title>Node4&#45;&gt;Node1</title>
<path fill="none" stroke="#404040" d="M148.2,-171.256C143.207,-151.861 137.975,-131.537 133.274,-113.275"/>
<polygon fill="none" stroke="#404040" points="133.26,-113.223 127.891,-108.409 130.269,-101.602 135.638,-106.415 133.26,-113.223"/>
<text text-anchor="middle" x="158.5" y="-123" font-family="Helvetica,sans-Serif" font-size="10.00"> +png_ptr</text>
</g>
<!-- Node4&#45;&gt;Node4 -->
<g id="edge14" class="edge"><title>Node4&#45;&gt;Node4</title>
<path fill="none" stroke="#404040" d="M216.174,-278.354C226.488,-276.16 234,-268.375 234,-255 234,-247.059 231.352,-241.088 227.041,-237.088"/>
<polygon fill="none" stroke="#404040" points="226.903,-237.019 219.747,-237.909 216.174,-231.646 223.33,-230.756 226.903,-237.019"/>
<text text-anchor="middle" x="268" y="-274.5" font-family="Helvetica,sans-Serif" font-size="10.00"> +write_data_fn</text>
<text text-anchor="middle" x="268" y="-263.5" font-family="Helvetica,sans-Serif" font-size="10.00">+error_fn</text>
<text text-anchor="middle" x="268" y="-252.5" font-family="Helvetica,sans-Serif" font-size="10.00">+write_row_fn</text>
<text text-anchor="middle" x="268" y="-241.5" font-family="Helvetica,sans-Serif" font-size="10.00">+read_data_fn</text>
<text text-anchor="middle" x="268" y="-230.5" font-family="Helvetica,sans-Serif" font-size="10.00">+read_row_fn</text>
</g>
<!-- Node5 -->
<g id="node5" class="node"><title>Node5</title>
<g id="a_node5"><a xlink:href="structz__stream__s.html" target="_top" xlink:title="{z_stream_s\n|+ next_in\l+ avail_in\l+ total_in\l+ next_out\l+ avail_out\l+ total_out\l+ msg\l+ zalloc\l+ zfree\l+ opaque\l+ data_type\l+ adler\l+ reserved\l|}">
<polygon fill="white" stroke="black" points="228.5,-430.5 228.5,-619.5 296.5,-619.5 296.5,-430.5 228.5,-430.5"/>
<text text-anchor="middle" x="262.5" y="-607.5" font-family="Helvetica,sans-Serif" font-size="10.00">z_stream_s</text>
<polyline fill="none" stroke="black" points="228.5,-600.5 296.5,-600.5 "/>
<text text-anchor="start" x="236.5" y="-588.5" font-family="Helvetica,sans-Serif" font-size="10.00">+ next_in</text>
<text text-anchor="start" x="236.5" y="-577.5" font-family="Helvetica,sans-Serif" font-size="10.00">+ avail_in</text>
<text text-anchor="start" x="236.5" y="-566.5" font-family="Helvetica,sans-Serif" font-size="10.00">+ total_in</text>
<text text-anchor="start" x="236.5" y="-555.5" font-family="Helvetica,sans-Serif" font-size="10.00">+ next_out</text>
<text text-anchor="start" x="236.5" y="-544.5" font-family="Helvetica,sans-Serif" font-size="10.00">+ avail_out</text>
<text text-anchor="start" x="236.5" y="-533.5" font-family="Helvetica,sans-Serif" font-size="10.00">+ total_out</text>
<text text-anchor="start" x="236.5" y="-522.5" font-family="Helvetica,sans-Serif" font-size="10.00">+ msg</text>
<text text-anchor="start" x="236.5" y="-511.5" font-family="Helvetica,sans-Serif" font-size="10.00">+ zalloc</text>
<text text-anchor="start" x="236.5" y="-500.5" font-family="Helvetica,sans-Serif" font-size="10.00">+ zfree</text>
<text text-anchor="start" x="236.5" y="-489.5" font-family="Helvetica,sans-Serif" font-size="10.00">+ opaque</text>
<text text-anchor="start" x="236.5" y="-478.5" font-family="Helvetica,sans-Serif" font-size="10.00">+ data_type</text>
<text text-anchor="start" x="236.5" y="-467.5" font-family="Helvetica,sans-Serif" font-size="10.00">+ adler</text>
<text text-anchor="start" x="236.5" y="-456.5" font-family="Helvetica,sans-Serif" font-size="10.00">+ reserved</text>
<polyline fill="none" stroke="black" points="228.5,-449.5 296.5,-449.5 "/>
<text text-anchor="middle" x="262.5" y="-437.5" font-family="Helvetica,sans-Serif" font-size="10.00"> </text>
</a>
</g>
</g>
<!-- Node5&#45;&gt;Node4 -->
<g id="edge5" class="edge"><title>Node5&#45;&gt;Node4</title>
<path fill="none" stroke="#404040" d="M228.458,-476.102C216.33,-456.968 203.666,-434.225 195.5,-412 188.415,-392.718 183.251,-371.383 179.489,-350.84"/>
<polygon fill="none" stroke="#404040" points="179.463,-350.686 174.505,-345.449 177.433,-338.859 182.39,-344.096 179.463,-350.686"/>
<text text-anchor="middle" x="218" y="-393" font-family="Helvetica,sans-Serif" font-size="10.00"> +zstream</text>
</g>
<!-- Node6 -->
<g id="node6" class="node"><title>Node6</title>
<g id="a_node6"><a xlink:href="structinternal__state.html" target="_top" xlink:title="{internal_state\n|+ status\l+ pending_buf\l+ pending_buf_size\l+ pending_out\l+ pending\l+ wrap\l+ gzindex\l+ method\l+ last_flush\l+ w_size\land 42 more...\l|}">
<polygon fill="white" stroke="black" points="320,-171.5 320,-338.5 421,-338.5 421,-171.5 320,-171.5"/>
<text text-anchor="middle" x="370.5" y="-326.5" font-family="Helvetica,sans-Serif" font-size="10.00">internal_state</text>
<polyline fill="none" stroke="black" points="320,-319.5 421,-319.5 "/>
<text text-anchor="start" x="328" y="-307.5" font-family="Helvetica,sans-Serif" font-size="10.00">+ status</text>
<text text-anchor="start" x="328" y="-296.5" font-family="Helvetica,sans-Serif" font-size="10.00">+ pending_buf</text>
<text text-anchor="start" x="328" y="-285.5" font-family="Helvetica,sans-Serif" font-size="10.00">+ pending_buf_size</text>
<text text-anchor="start" x="328" y="-274.5" font-family="Helvetica,sans-Serif" font-size="10.00">+ pending_out</text>
<text text-anchor="start" x="328" y="-263.5" font-family="Helvetica,sans-Serif" font-size="10.00">+ pending</text>
<text text-anchor="start" x="328" y="-252.5" font-family="Helvetica,sans-Serif" font-size="10.00">+ wrap</text>
<text text-anchor="start" x="328" y="-241.5" font-family="Helvetica,sans-Serif" font-size="10.00">+ gzindex</text>
<text text-anchor="start" x="328" y="-230.5" font-family="Helvetica,sans-Serif" font-size="10.00">+ method</text>
<text text-anchor="start" x="328" y="-219.5" font-family="Helvetica,sans-Serif" font-size="10.00">+ last_flush</text>
<text text-anchor="start" x="328" y="-208.5" font-family="Helvetica,sans-Serif" font-size="10.00">+ w_size</text>
<text text-anchor="start" x="328" y="-197.5" font-family="Helvetica,sans-Serif" font-size="10.00">and 42 more...</text>
<polyline fill="none" stroke="black" points="320,-190.5 421,-190.5 "/>
<text text-anchor="middle" x="370.5" y="-178.5" font-family="Helvetica,sans-Serif" font-size="10.00"> </text>
</a>
</g>
</g>
<!-- Node5&#45;&gt;Node6 -->
<g id="edge12" class="edge"><title>Node5&#45;&gt;Node6</title>
<path fill="none" stroke="#404040" d="M258.96,-430.466C261.8,-412.275 267.404,-394.169 277.5,-379 286.757,-365.092 298.57,-372.696 310.5,-361 314.444,-357.134 318.21,-352.953 321.795,-348.564"/>
<polygon fill="none" stroke="#404040" points="322.07,-348.204 322.529,-341.007 329.349,-338.663 328.89,-345.86 322.07,-348.204"/>
<text text-anchor="middle" x="292" y="-393" font-family="Helvetica,sans-Serif" font-size="10.00"> +strm</text>
</g>
<!-- Node6&#45;&gt;Node5 -->
<g id="edge6" class="edge"><title>Node6&#45;&gt;Node5</title>
<path fill="none" stroke="#404040" d="M337.202,-338.628C325.8,-366.923 312.946,-398.819 301.156,-428.075"/>
<polygon fill="none" stroke="#404040" points="301.009,-428.441 302.476,-435.501 296.524,-439.571 295.056,-432.511 301.009,-428.441"/>
<text text-anchor="middle" x="336" y="-393" font-family="Helvetica,sans-Serif" font-size="10.00"> +state</text>
</g>
<!-- Node7 -->
<g id="node7" class="node"><title>Node7</title>
<g id="a_node7"><a xlink:href="structgz__header__s.html" target="_top" xlink:title="{gz_header_s\n|+ text\l+ time\l+ xflags\l+ os\l+ extra\l+ extra_len\l+ extra_max\l+ name\l+ name_max\l+ comment\l+ comm_max\l+ hcrc\l+ done\l|}">
<polygon fill="white" stroke="black" points="324,-430.5 324,-619.5 401,-619.5 401,-430.5 324,-430.5"/>
<text text-anchor="middle" x="362.5" y="-607.5" font-family="Helvetica,sans-Serif" font-size="10.00">gz_header_s</text>
<polyline fill="none" stroke="black" points="324,-600.5 401,-600.5 "/>
<text text-anchor="start" x="332" y="-588.5" font-family="Helvetica,sans-Serif" font-size="10.00">+ text</text>
<text text-anchor="start" x="332" y="-577.5" font-family="Helvetica,sans-Serif" font-size="10.00">+ time</text>
<text text-anchor="start" x="332" y="-566.5" font-family="Helvetica,sans-Serif" font-size="10.00">+ xflags</text>
<text text-anchor="start" x="332" y="-555.5" font-family="Helvetica,sans-Serif" font-size="10.00">+ os</text>
<text text-anchor="start" x="332" y="-544.5" font-family="Helvetica,sans-Serif" font-size="10.00">+ extra</text>
<text text-anchor="start" x="332" y="-533.5" font-family="Helvetica,sans-Serif" font-size="10.00">+ extra_len</text>
<text text-anchor="start" x="332" y="-522.5" font-family="Helvetica,sans-Serif" font-size="10.00">+ extra_max</text>
<text text-anchor="start" x="332" y="-511.5" font-family="Helvetica,sans-Serif" font-size="10.00">+ name</text>
<text text-anchor="start" x="332" y="-500.5" font-family="Helvetica,sans-Serif" font-size="10.00">+ name_max</text>
<text text-anchor="start" x="332" y="-489.5" font-family="Helvetica,sans-Serif" font-size="10.00">+ comment</text>
<text text-anchor="start" x="332" y="-478.5" font-family="Helvetica,sans-Serif" font-size="10.00">+ comm_max</text>
<text text-anchor="start" x="332" y="-467.5" font-family="Helvetica,sans-Serif" font-size="10.00">+ hcrc</text>
<text text-anchor="start" x="332" y="-456.5" font-family="Helvetica,sans-Serif" font-size="10.00">+ done</text>
<polyline fill="none" stroke="black" points="324,-449.5 401,-449.5 "/>
<text text-anchor="middle" x="362.5" y="-437.5" font-family="Helvetica,sans-Serif" font-size="10.00"> </text>
</a>
</g>
</g>
<!-- Node7&#45;&gt;Node6 -->
<g id="edge7" class="edge"><title>Node7&#45;&gt;Node6</title>
<path fill="none" stroke="#404040" d="M365.298,-430.267C366.068,-404.466 366.904,-376.469 367.676,-350.619"/>
<polygon fill="none" stroke="#404040" points="367.679,-350.51 363.86,-344.394 368.037,-338.516 371.856,-344.632 367.679,-350.51"/>
<text text-anchor="middle" x="388" y="-393" font-family="Helvetica,sans-Serif" font-size="10.00"> +gzhead</text>
</g>
<!-- Node8 -->
<g id="node8" class="node"><title>Node8</title>
<g id="a_node8"><a xlink:href="structtree__desc__s.html" target="_top" xlink:title="{tree_desc_s\n|+ max_code\l|}">
<polygon fill="white" stroke="black" points="458,-496.5 458,-553.5 529,-553.5 529,-496.5 458,-496.5"/>
<text text-anchor="middle" x="493.5" y="-541.5" font-family="Helvetica,sans-Serif" font-size="10.00">tree_desc_s</text>
<polyline fill="none" stroke="black" points="458,-534.5 529,-534.5 "/>
<text text-anchor="start" x="466" y="-522.5" font-family="Helvetica,sans-Serif" font-size="10.00">+ max_code</text>
<polyline fill="none" stroke="black" points="458,-515.5 529,-515.5 "/>
<text text-anchor="middle" x="493.5" y="-503.5" font-family="Helvetica,sans-Serif" font-size="10.00"> </text>
</a>
</g>
</g>
<!-- Node8&#45;&gt;Node6 -->
<g id="edge8" class="edge"><title>Node8&#45;&gt;Node6</title>
<path fill="none" stroke="#404040" d="M485.802,-496.36C477.121,-466.693 461.801,-418.504 443.5,-379 438.529,-368.269 432.881,-357.274 426.98,-346.485"/>
<polygon fill="none" stroke="#404040" points="426.855,-346.261 420.439,-342.97 421.01,-335.781 427.426,-339.073 426.855,-346.261"/>
<text text-anchor="middle" x="477.5" y="-404" font-family="Helvetica,sans-Serif" font-size="10.00"> +l_desc</text>
<text text-anchor="middle" x="477.5" y="-393" font-family="Helvetica,sans-Serif" font-size="10.00">+d_desc</text>
<text text-anchor="middle" x="477.5" y="-382" font-family="Helvetica,sans-Serif" font-size="10.00">+bl_desc</text>
</g>
<!-- Node9 -->
<g id="node9" class="node"><title>Node9</title>
<g id="a_node9"><a xlink:href="structstatic__tree__desc__s.html" target="_top" xlink:title="{static_tree_desc_s\n|+ dummy\l+ extra_bits\l+ extra_base\l+ elems\l+ max_length\l|}">
<polygon fill="white" stroke="black" points="559,-689.5 559,-790.5 658,-790.5 658,-689.5 559,-689.5"/>
<text text-anchor="middle" x="608.5" y="-778.5" font-family="Helvetica,sans-Serif" font-size="10.00">static_tree_desc_s</text>
<polyline fill="none" stroke="black" points="559,-771.5 658,-771.5 "/>
<text text-anchor="start" x="567" y="-759.5" font-family="Helvetica,sans-Serif" font-size="10.00">+ dummy</text>
<text text-anchor="start" x="567" y="-748.5" font-family="Helvetica,sans-Serif" font-size="10.00">+ extra_bits</text>
<text text-anchor="start" x="567" y="-737.5" font-family="Helvetica,sans-Serif" font-size="10.00">+ extra_base</text>
<text text-anchor="start" x="567" y="-726.5" font-family="Helvetica,sans-Serif" font-size="10.00">+ elems</text>
<text text-anchor="start" x="567" y="-715.5" font-family="Helvetica,sans-Serif" font-size="10.00">+ max_length</text>
<polyline fill="none" stroke="black" points="559,-708.5 658,-708.5 "/>
<text text-anchor="middle" x="608.5" y="-696.5" font-family="Helvetica,sans-Serif" font-size="10.00"> </text>
</a>
</g>
</g>
<!-- Node9&#45;&gt;Node8 -->
<g id="edge9" class="edge"><title>Node9&#45;&gt;Node8</title>
<path fill="none" stroke="#404040" d="M581.683,-689.33C561.081,-651.172 533.047,-599.249 514.166,-564.276"/>
<polygon fill="none" stroke="#404040" points="514.079,-564.115 507.709,-560.736 508.378,-553.556 514.748,-556.935 514.079,-564.115"/>
<text text-anchor="middle" x="596.5" y="-652" font-family="Helvetica,sans-Serif" font-size="10.00"> +stat_desc</text>
</g>
<!-- Node10 -->
<g id="node10" class="node"><title>Node10</title>
<g id="a_node10"><a xlink:href="structct__data__s.html" target="_top" xlink:title="{ct_data_s\n|+ freq\l+ code\l+ fc\l+ dad\l+ len\l+ dl\l|}">
<polygon fill="white" stroke="black" points="464,-838.5 464,-950.5 523,-950.5 523,-838.5 464,-838.5"/>
<text text-anchor="middle" x="493.5" y="-938.5" font-family="Helvetica,sans-Serif" font-size="10.00">ct_data_s</text>
<polyline fill="none" stroke="black" points="464,-931.5 523,-931.5 "/>
<text text-anchor="start" x="472" y="-919.5" font-family="Helvetica,sans-Serif" font-size="10.00">+ freq</text>
<text text-anchor="start" x="472" y="-908.5" font-family="Helvetica,sans-Serif" font-size="10.00">+ code</text>
<text text-anchor="start" x="472" y="-897.5" font-family="Helvetica,sans-Serif" font-size="10.00">+ fc</text>
<text text-anchor="start" x="472" y="-886.5" font-family="Helvetica,sans-Serif" font-size="10.00">+ dad</text>
<text text-anchor="start" x="472" y="-875.5" font-family="Helvetica,sans-Serif" font-size="10.00">+ len</text>
<text text-anchor="start" x="472" y="-864.5" font-family="Helvetica,sans-Serif" font-size="10.00">+ dl</text>
<polyline fill="none" stroke="black" points="464,-857.5 523,-857.5 "/>
<text text-anchor="middle" x="493.5" y="-845.5" font-family="Helvetica,sans-Serif" font-size="10.00"> </text>
</a>
</g>
</g>
<!-- Node10&#45;&gt;Node6 -->
<g id="edge13" class="edge"><title>Node10&#45;&gt;Node6</title>
<path fill="none" stroke="#404040" d="M478.063,-838.156C466.127,-793.399 450.072,-728.582 440.5,-671 419.122,-542.392 439.974,-506.445 412.5,-379 410.472,-369.591 407.953,-359.902 405.164,-350.289"/>
<polygon fill="none" stroke="#404040" points="405.111,-350.111 399.547,-345.523 401.643,-338.623 407.206,-343.211 405.111,-350.111"/>
<text text-anchor="middle" x="465" y="-663" font-family="Helvetica,sans-Serif" font-size="10.00"> +dyn_ltree</text>
<text text-anchor="middle" x="465" y="-652" font-family="Helvetica,sans-Serif" font-size="10.00">+bl_tree</text>
<text text-anchor="middle" x="465" y="-641" font-family="Helvetica,sans-Serif" font-size="10.00">+dyn_dtree</text>
</g>
<!-- Node10&#45;&gt;Node8 -->
<g id="edge11" class="edge"><title>Node10&#45;&gt;Node8</title>
<path fill="none" stroke="#404040" d="M493.5,-838.482C493.5,-763.769 493.5,-631.995 493.5,-566.007"/>
<polygon fill="none" stroke="#404040" points="493.5,-565.723 489.5,-559.723 493.5,-553.723 497.5,-559.723 493.5,-565.723"/>
<text text-anchor="middle" x="517" y="-737.5" font-family="Helvetica,sans-Serif" font-size="10.00"> +dyn_tree</text>
</g>
<!-- Node10&#45;&gt;Node9 -->
<g id="edge10" class="edge"><title>Node10&#45;&gt;Node9</title>
<path fill="none" stroke="#404040" d="M523.115,-854.227C535.526,-837.77 550.223,-818.28 563.895,-800.15"/>
<polygon fill="none" stroke="#404040" points="563.923,-800.113 564.342,-792.914 571.148,-790.532 570.729,-797.731 563.923,-800.113"/>
<text text-anchor="middle" x="581" y="-812" font-family="Helvetica,sans-Serif" font-size="10.00"> +static_tree</text>
</g>
</g>
</svg>
