<?xml version="1.0" encoding="UTF-8" standalone="no"?>
<!DOCTYPE svg PUBLIC "-//W3C//DTD SVG 1.1//EN"
 "http://www.w3.org/Graphics/SVG/1.1/DTD/svg11.dtd">
<!-- Generated by graphviz version 2.38.0 (20140413.2041)
 -->
<!-- Title: mixwtnc_handle Pages: 1 -->
<svg width="240pt" height="292pt"
 viewBox="0.00 0.00 239.50 292.00" xmlns="http://www.w3.org/2000/svg" xmlns:xlink="http://www.w3.org/1999/xlink">
<g id="graph0" class="graph" transform="scale(1 1) rotate(0) translate(4 288)">
<title>mixwtnc_handle</title>
<polygon fill="white" stroke="none" points="-4,4 -4,-288 235.5,-288 235.5,4 -4,4"/>
<!-- Node1 -->
<g id="node1" class="node"><title>Node1</title>
<polygon fill="#bfbfbf" stroke="black" points="94.5,-0.5 94.5,-57.5 181.5,-57.5 181.5,-0.5 94.5,-0.5"/>
<text text-anchor="middle" x="138" y="-45.5" font-family="Helvetica,sans-Serif" font-size="10.00">mixwtnc_handle</text>
<polyline fill="none" stroke="black" points="94.5,-38.5 181.5,-38.5 "/>
<text text-anchor="start" x="102.5" y="-26.5" font-family="Helvetica,sans-Serif" font-size="10.00">+ flag</text>
<polyline fill="none" stroke="black" points="94.5,-19.5 181.5,-19.5 "/>
<text text-anchor="middle" x="138" y="-7.5" font-family="Helvetica,sans-Serif" font-size="10.00"> </text>
</g>
<!-- Node2 -->
<g id="node2" class="node"><title>Node2</title>
<g id="a_node2"><a xlink:href="struct____cssl__t.html" target="_top" xlink:title="{__cssl_t\n|+ buffer\l+ fd\l+ dcb\l+ olddcb\l+ handle\l+ baud\l|}">
<polygon fill="white" stroke="black" points="0,-138.5 0,-250.5 54,-250.5 54,-138.5 0,-138.5"/>
<text text-anchor="middle" x="27" y="-238.5" font-family="Helvetica,sans-Serif" font-size="10.00">__cssl_t</text>
<polyline fill="none" stroke="black" points="0,-231.5 54,-231.5 "/>
<text text-anchor="start" x="8" y="-219.5" font-family="Helvetica,sans-Serif" font-size="10.00">+ buffer</text>
<text text-anchor="start" x="8" y="-208.5" font-family="Helvetica,sans-Serif" font-size="10.00">+ fd</text>
<text text-anchor="start" x="8" y="-197.5" font-family="Helvetica,sans-Serif" font-size="10.00">+ dcb</text>
<text text-anchor="start" x="8" y="-186.5" font-family="Helvetica,sans-Serif" font-size="10.00">+ olddcb</text>
<text text-anchor="start" x="8" y="-175.5" font-family="Helvetica,sans-Serif" font-size="10.00">+ handle</text>
<text text-anchor="start" x="8" y="-164.5" font-family="Helvetica,sans-Serif" font-size="10.00">+ baud</text>
<polyline fill="none" stroke="black" points="0,-157.5 54,-157.5 "/>
<text text-anchor="middle" x="27" y="-145.5" font-family="Helvetica,sans-Serif" font-size="10.00"> </text>
</a>
</g>
</g>
<!-- Node2&#45;&gt;Node1 -->
<g id="edge1" class="edge"><title>Node2&#45;&gt;Node1</title>
<path fill="none" stroke="#404040" d="M54.1537,-153.503C71.9229,-127.33 94.9914,-93.3506 112.432,-67.6603"/>
<polygon fill="none" stroke="#404040" points="112.552,-67.4839 112.613,-60.2731 119.292,-57.5557 119.232,-64.7666 112.552,-67.4839"/>
<text text-anchor="middle" x="122.5" y="-79" font-family="Helvetica,sans-Serif" font-size="10.00"> +serial</text>
</g>
<!-- Node2&#45;&gt;Node2 -->
<g id="edge2" class="edge"><title>Node2&#45;&gt;Node2</title>
<path fill="none" stroke="#404040" d="M54.2408,-215.479C64.0239,-215.931 72,-208.938 72,-194.5 72,-186.604 69.6146,-180.935 65.8527,-177.493"/>
<polygon fill="none" stroke="#404040" points="65.5949,-177.405 58.6231,-179.247 54.2408,-173.521 61.2125,-171.678 65.5949,-177.405"/>
<text text-anchor="middle" x="86" y="-192" font-family="Helvetica,sans-Serif" font-size="10.00"> +next</text>
</g>
<!-- Node3 -->
<g id="node3" class="node"><title>Node3</title>
<g id="a_node3"><a xlink:href="structmixwtnc__frame.html" target="_top" xlink:title="{mixwtnc_frame\n|+ flag\l+ destination_address\l+ source_address\l+ control\l+ protocol_id\l+ header\l+ preamble\l+ payload\l+ part\l+ full\l+ @19\l+ size\l|}">
<polygon fill="white" stroke="black" points="118.5,-105.5 118.5,-283.5 231.5,-283.5 231.5,-105.5 118.5,-105.5"/>
<text text-anchor="middle" x="175" y="-271.5" font-family="Helvetica,sans-Serif" font-size="10.00">mixwtnc_frame</text>
<polyline fill="none" stroke="black" points="118.5,-264.5 231.5,-264.5 "/>
<text text-anchor="start" x="126.5" y="-252.5" font-family="Helvetica,sans-Serif" font-size="10.00">+ flag</text>
<text text-anchor="start" x="126.5" y="-241.5" font-family="Helvetica,sans-Serif" font-size="10.00">+ destination_address</text>
<text text-anchor="start" x="126.5" y="-230.5" font-family="Helvetica,sans-Serif" font-size="10.00">+ source_address</text>
<text text-anchor="start" x="126.5" y="-219.5" font-family="Helvetica,sans-Serif" font-size="10.00">+ control</text>
<text text-anchor="start" x="126.5" y="-208.5" font-family="Helvetica,sans-Serif" font-size="10.00">+ protocol_id</text>
<text text-anchor="start" x="126.5" y="-197.5" font-family="Helvetica,sans-Serif" font-size="10.00">+ header</text>
<text text-anchor="start" x="126.5" y="-186.5" font-family="Helvetica,sans-Serif" font-size="10.00">+ preamble</text>
<text text-anchor="start" x="126.5" y="-175.5" font-family="Helvetica,sans-Serif" font-size="10.00">+ payload</text>
<text text-anchor="start" x="126.5" y="-164.5" font-family="Helvetica,sans-Serif" font-size="10.00">+ part</text>
<text text-anchor="start" x="126.5" y="-153.5" font-family="Helvetica,sans-Serif" font-size="10.00">+ full</text>
<text text-anchor="start" x="126.5" y="-142.5" font-family="Helvetica,sans-Serif" font-size="10.00">+ @19</text>
<text text-anchor="start" x="126.5" y="-131.5" font-family="Helvetica,sans-Serif" font-size="10.00">+ size</text>
<polyline fill="none" stroke="black" points="118.5,-124.5 231.5,-124.5 "/>
<text text-anchor="middle" x="175" y="-112.5" font-family="Helvetica,sans-Serif" font-size="10.00"> </text>
</a>
</g>
</g>
<!-- Node3&#45;&gt;Node1 -->
<g id="edge3" class="edge"><title>Node3&#45;&gt;Node1</title>
<path fill="none" stroke="#404040" d="M154.984,-105.051C152.194,-92.7203 149.45,-80.5946 147.008,-69.8057"/>
<polygon fill="none" stroke="#404040" points="146.945,-69.5264 141.719,-64.5573 144.296,-57.8224 149.522,-62.7915 146.945,-69.5264"/>
<text text-anchor="middle" x="167" y="-79" font-family="Helvetica,sans-Serif" font-size="10.00"> +frame</text>
</g>
</g>
</svg>
