<?xml version="1.0" encoding="UTF-8" standalone="no"?>
<!DOCTYPE svg PUBLIC "-//W3C//DTD SVG 1.1//EN"
 "http://www.w3.org/Graphics/SVG/1.1/DTD/svg11.dtd">
<!-- Generated by graphviz version 2.38.0 (20140413.2041)
 -->
<!-- Title: targetstruc Pages: 1 -->
<!--zoomable 1229 -->
<svg id="main" version="1.1" xmlns="http://www.w3.org/2000/svg" xmlns:xlink="http://www.w3.org/1999/xlink" xml:space="preserve" onload="init(evt)">
<style type="text/css"><![CDATA[
.edge:hover path { stroke: red; }
.edge:hover polygon { stroke: red; fill: red; }
]]></style>
<script type="text/javascript"><![CDATA[
var edges = document.getElementsByTagName('g');
if (edges && edges.length) {
  for (var i=0;i<edges.length;i++) {
    if (edges[i].id.substr(0,4)=='edge') {
      edges[i].setAttribute('class','edge');
    }
  }
}
]]></script>
        <defs>
                <circle id="rim" cx="0" cy="0" r="7"/>
                <circle id="rim2" cx="0" cy="0" r="3.5"/>
                <g id="zoomPlus">
                        <use xlink:href="#rim" fill="#404040">
                                <set attributeName="fill" to="#808080" begin="zoomplus.mouseover" end="zoomplus.mouseout"/>
                        </use>
                        <path d="M-4,0h8M0,-4v8" fill="none" stroke="white" stroke-width="1.5" pointer-events="none"/>
                </g>
                <g id="zoomMin">
                        <use xlink:href="#rim" fill="#404040">
                                <set attributeName="fill" to="#808080" begin="zoomminus.mouseover" end="zoomminus.mouseout"/>
                        </use>
                        <path d="M-4,0h8" fill="none" stroke="white" stroke-width="1.5" pointer-events="none"/>
                </g>
                <g id="dirArrow">
                        <path fill="none" stroke="white" stroke-width="1.5" d="M0,-3.0v7 M-2.5,-0.5L0,-3.0L2.5,-0.5"/>
                </g>
               <g id="resetDef">
                       <use xlink:href="#rim2" fill="#404040">
                               <set attributeName="fill" to="#808080" begin="reset.mouseover" end="reset.mouseout"/>
                       </use>
               </g>
        </defs>

<script type="text/javascript">
var viewWidth = 567;
var viewHeight = 1229;
var sectionId = 'dynsection-0';
</script>
<script xlink:href="svgpan.js"/>
<svg id="graph" class="graph">
<g id="viewport">
<title>targetstruc</title>
<polygon fill="white" stroke="none" points="-4,4 -4,-1225 562.5,-1225 562.5,4 -4,4"/>
<!-- Node1 -->
<g id="node1" class="node"><title>Node1</title>
<polygon fill="#bfbfbf" stroke="black" points="313,-0.5 313,-167.5 387,-167.5 387,-0.5 313,-0.5"/>
<text text-anchor="middle" x="350" y="-155.5" font-family="Helvetica,sans-Serif" font-size="10.00">targetstruc</text>
<polyline fill="none" stroke="black" points="313,-148.5 387,-148.5 "/>
<text text-anchor="start" x="321" y="-136.5" font-family="Helvetica,sans-Serif" font-size="10.00">+ utc</text>
<text text-anchor="start" x="321" y="-125.5" font-family="Helvetica,sans-Serif" font-size="10.00">+ name</text>
<text text-anchor="start" x="321" y="-114.5" font-family="Helvetica,sans-Serif" font-size="10.00">+ type</text>
<text text-anchor="start" x="321" y="-103.5" font-family="Helvetica,sans-Serif" font-size="10.00">+ azfrom</text>
<text text-anchor="start" x="321" y="-92.5" font-family="Helvetica,sans-Serif" font-size="10.00">+ elfrom</text>
<text text-anchor="start" x="321" y="-81.5" font-family="Helvetica,sans-Serif" font-size="10.00">+ azto</text>
<text text-anchor="start" x="321" y="-70.5" font-family="Helvetica,sans-Serif" font-size="10.00">+ elto</text>
<text text-anchor="start" x="321" y="-59.5" font-family="Helvetica,sans-Serif" font-size="10.00">+ range</text>
<text text-anchor="start" x="321" y="-48.5" font-family="Helvetica,sans-Serif" font-size="10.00">+ close</text>
<text text-anchor="start" x="321" y="-37.5" font-family="Helvetica,sans-Serif" font-size="10.00">+ min</text>
<polyline fill="none" stroke="black" points="313,-30.5 387,-30.5 "/>
<text text-anchor="start" x="321" y="-18.5" font-family="Helvetica,sans-Serif" font-size="10.00">+ to_json()</text>
<text text-anchor="start" x="321" y="-7.5" font-family="Helvetica,sans-Serif" font-size="10.00">+ from_json()</text>
</g>
<!-- Node2 -->
<g id="node2" class="node"><title>Node2</title>
<g id="a_node2"><a xlink:href="structlocstruc.html" target="_top" xlink:title="{locstruc\n|+ utc\l|+ to_json()\l+ from_json()\l}">
<polygon fill="white" stroke="black" points="313,-215.5 313,-283.5 387,-283.5 387,-215.5 313,-215.5"/>
<text text-anchor="middle" x="350" y="-271.5" font-family="Helvetica,sans-Serif" font-size="10.00">locstruc</text>
<polyline fill="none" stroke="black" points="313,-264.5 387,-264.5 "/>
<text text-anchor="start" x="321" y="-252.5" font-family="Helvetica,sans-Serif" font-size="10.00">+ utc</text>
<polyline fill="none" stroke="black" points="313,-245.5 387,-245.5 "/>
<text text-anchor="start" x="321" y="-233.5" font-family="Helvetica,sans-Serif" font-size="10.00">+ to_json()</text>
<text text-anchor="start" x="321" y="-222.5" font-family="Helvetica,sans-Serif" font-size="10.00">+ from_json()</text>
</a>
</g>
</g>
<!-- Node2&#45;&gt;Node1 -->
<g id="edge1" class="edge"><title>Node2&#45;&gt;Node1</title>
<path fill="none" stroke="#404040" d="M350,-215.413C350,-204.877 350,-192.646 350,-179.979"/>
<polygon fill="none" stroke="#404040" points="350,-179.742 346,-173.742 350,-167.742 354,-173.742 350,-179.742"/>
<text text-anchor="middle" x="361" y="-189" font-family="Helvetica,sans-Serif" font-size="10.00"> +loc</text>
</g>
<!-- Node3 -->
<g id="node3" class="node"><title>Node3</title>
<g id="a_node3"><a xlink:href="structposstruc.html" target="_top" xlink:title="{posstruc\n|+ utc\l+ earthsep\l+ moonsep\l+ sunsize\l+ sunradiance\l+ orbit\l|+ to_json()\l+ from_json()\l}">
<polygon fill="white" stroke="black" points="177,-331.5 177,-454.5 255,-454.5 255,-331.5 177,-331.5"/>
<text text-anchor="middle" x="216" y="-442.5" font-family="Helvetica,sans-Serif" font-size="10.00">posstruc</text>
<polyline fill="none" stroke="black" points="177,-435.5 255,-435.5 "/>
<text text-anchor="start" x="185" y="-423.5" font-family="Helvetica,sans-Serif" font-size="10.00">+ utc</text>
<text text-anchor="start" x="185" y="-412.5" font-family="Helvetica,sans-Serif" font-size="10.00">+ earthsep</text>
<text text-anchor="start" x="185" y="-401.5" font-family="Helvetica,sans-Serif" font-size="10.00">+ moonsep</text>
<text text-anchor="start" x="185" y="-390.5" font-family="Helvetica,sans-Serif" font-size="10.00">+ sunsize</text>
<text text-anchor="start" x="185" y="-379.5" font-family="Helvetica,sans-Serif" font-size="10.00">+ sunradiance</text>
<text text-anchor="start" x="185" y="-368.5" font-family="Helvetica,sans-Serif" font-size="10.00">+ orbit</text>
<polyline fill="none" stroke="black" points="177,-361.5 255,-361.5 "/>
<text text-anchor="start" x="185" y="-349.5" font-family="Helvetica,sans-Serif" font-size="10.00">+ to_json()</text>
<text text-anchor="start" x="185" y="-338.5" font-family="Helvetica,sans-Serif" font-size="10.00">+ from_json()</text>
</a>
</g>
</g>
<!-- Node3&#45;&gt;Node2 -->
<g id="edge2" class="edge"><title>Node3&#45;&gt;Node2</title>
<path fill="none" stroke="#404040" d="M255.119,-350.692C272.512,-332.325 292.956,-310.736 310.405,-292.311"/>
<polygon fill="none" stroke="#404040" points="310.452,-292.262 311.673,-285.155 318.703,-283.548 317.482,-290.655 310.452,-292.262"/>
<text text-anchor="middle" x="311.5" y="-305" font-family="Helvetica,sans-Serif" font-size="10.00"> +pos</text>
</g>
<!-- Node4 -->
<g id="node4" class="node"><title>Node4</title>
<g id="a_node4"><a xlink:href="structgeoidpos.html" target="_top" xlink:title="Geodetic position structure. ">
<polygon fill="white" stroke="black" points="0,-585 0,-664 74,-664 74,-585 0,-585"/>
<text text-anchor="middle" x="37" y="-652" font-family="Helvetica,sans-Serif" font-size="10.00">geoidpos</text>
<polyline fill="none" stroke="black" points="0,-645 74,-645 "/>
<text text-anchor="start" x="8" y="-633" font-family="Helvetica,sans-Serif" font-size="10.00">+ utc</text>
<text text-anchor="start" x="8" y="-622" font-family="Helvetica,sans-Serif" font-size="10.00">+ pass</text>
<polyline fill="none" stroke="black" points="0,-615 74,-615 "/>
<text text-anchor="start" x="8" y="-603" font-family="Helvetica,sans-Serif" font-size="10.00">+ to_json()</text>
<text text-anchor="start" x="8" y="-592" font-family="Helvetica,sans-Serif" font-size="10.00">+ from_json()</text>
</a>
</g>
</g>
<!-- Node4&#45;&gt;Node3 -->
<g id="edge3" class="edge"><title>Node4&#45;&gt;Node3</title>
<path fill="none" stroke="#404040" d="M47.1904,-584.771C57.1646,-552.328 74.8587,-506.138 102,-473 119.57,-451.548 144.401,-433.41 166.404,-419.946"/>
<polygon fill="none" stroke="#404040" points="166.606,-419.826 169.734,-413.329 176.935,-413.717 173.807,-420.214 166.606,-419.826"/>
<text text-anchor="middle" x="116" y="-503.5" font-family="Helvetica,sans-Serif" font-size="10.00"> +selg</text>
<text text-anchor="middle" x="116" y="-492.5" font-family="Helvetica,sans-Serif" font-size="10.00">+geod</text>
</g>
<!-- Node5 -->
<g id="node5" class="node"><title>Node5</title>
<g id="a_node5"><a xlink:href="structgvector.html" target="_top" xlink:title="3 element geodetic vector ">
<polygon fill="white" stroke="black" points="0,-860.5 0,-972.5 74,-972.5 74,-860.5 0,-860.5"/>
<text text-anchor="middle" x="37" y="-960.5" font-family="Helvetica,sans-Serif" font-size="10.00">gvector</text>
<polyline fill="none" stroke="black" points="0,-953.5 74,-953.5 "/>
<text text-anchor="start" x="8" y="-941.5" font-family="Helvetica,sans-Serif" font-size="10.00">+ lat</text>
<text text-anchor="start" x="8" y="-930.5" font-family="Helvetica,sans-Serif" font-size="10.00">+ lon</text>
<text text-anchor="start" x="8" y="-919.5" font-family="Helvetica,sans-Serif" font-size="10.00">+ h</text>
<polyline fill="none" stroke="black" points="0,-912.5 74,-912.5 "/>
<text text-anchor="start" x="8" y="-900.5" font-family="Helvetica,sans-Serif" font-size="10.00">+ gvector()</text>
<text text-anchor="start" x="8" y="-889.5" font-family="Helvetica,sans-Serif" font-size="10.00">+ gvector()</text>
<text text-anchor="start" x="8" y="-878.5" font-family="Helvetica,sans-Serif" font-size="10.00">+ to_json()</text>
<text text-anchor="start" x="8" y="-867.5" font-family="Helvetica,sans-Serif" font-size="10.00">+ from_json()</text>
</a>
</g>
</g>
<!-- Node5&#45;&gt;Node4 -->
<g id="edge4" class="edge"><title>Node5&#45;&gt;Node4</title>
<path fill="none" stroke="#404040" d="M37,-860.271C37,-807.286 37,-727.935 37,-676.435"/>
<polygon fill="none" stroke="#404040" points="37.0001,-676.295 33,-670.295 37,-664.295 41,-670.294 37.0001,-676.295"/>
<text text-anchor="middle" x="44.5" y="-790" font-family="Helvetica,sans-Serif" font-size="10.00"> +a</text>
<text text-anchor="middle" x="44.5" y="-779" font-family="Helvetica,sans-Serif" font-size="10.00">+s</text>
<text text-anchor="middle" x="44.5" y="-768" font-family="Helvetica,sans-Serif" font-size="10.00">+v</text>
</g>
<!-- Node6 -->
<g id="node6" class="node"><title>Node6</title>
<g id="a_node6"><a xlink:href="structspherpos.html" target="_top" xlink:title="Spherical position structure. ">
<polygon fill="white" stroke="black" points="92,-585 92,-664 166,-664 166,-585 92,-585"/>
<text text-anchor="middle" x="129" y="-652" font-family="Helvetica,sans-Serif" font-size="10.00">spherpos</text>
<polyline fill="none" stroke="black" points="92,-645 166,-645 "/>
<text text-anchor="start" x="100" y="-633" font-family="Helvetica,sans-Serif" font-size="10.00">+ utc</text>
<text text-anchor="start" x="100" y="-622" font-family="Helvetica,sans-Serif" font-size="10.00">+ pass</text>
<polyline fill="none" stroke="black" points="92,-615 166,-615 "/>
<text text-anchor="start" x="100" y="-603" font-family="Helvetica,sans-Serif" font-size="10.00">+ to_json()</text>
<text text-anchor="start" x="100" y="-592" font-family="Helvetica,sans-Serif" font-size="10.00">+ from_json()</text>
</a>
</g>
</g>
<!-- Node6&#45;&gt;Node3 -->
<g id="edge5" class="edge"><title>Node6&#45;&gt;Node3</title>
<path fill="none" stroke="#404040" d="M128.225,-584.781C128.962,-553.386 133.173,-508.655 149,-473 153.98,-461.782 161.066,-450.93 168.782,-441.047"/>
<polygon fill="none" stroke="#404040" points="169.016,-440.764 169.75,-433.59 176.654,-431.509 175.92,-438.682 169.016,-440.764"/>
<text text-anchor="middle" x="164.5" y="-498" font-family="Helvetica,sans-Serif" font-size="10.00"> +geos</text>
</g>
<!-- Node7 -->
<g id="node7" class="node"><title>Node7</title>
<g id="a_node7"><a xlink:href="structsvector.html" target="_top" xlink:title="3 element spherical vector ">
<polygon fill="white" stroke="black" points="92,-860.5 92,-972.5 166,-972.5 166,-860.5 92,-860.5"/>
<text text-anchor="middle" x="129" y="-960.5" font-family="Helvetica,sans-Serif" font-size="10.00">svector</text>
<polyline fill="none" stroke="black" points="92,-953.5 166,-953.5 "/>
<text text-anchor="start" x="100" y="-941.5" font-family="Helvetica,sans-Serif" font-size="10.00">+ phi</text>
<text text-anchor="start" x="100" y="-930.5" font-family="Helvetica,sans-Serif" font-size="10.00">+ lambda</text>
<text text-anchor="start" x="100" y="-919.5" font-family="Helvetica,sans-Serif" font-size="10.00">+ r</text>
<polyline fill="none" stroke="black" points="92,-912.5 166,-912.5 "/>
<text text-anchor="start" x="100" y="-900.5" font-family="Helvetica,sans-Serif" font-size="10.00">+ svector()</text>
<text text-anchor="start" x="100" y="-889.5" font-family="Helvetica,sans-Serif" font-size="10.00">+ svector()</text>
<text text-anchor="start" x="100" y="-878.5" font-family="Helvetica,sans-Serif" font-size="10.00">+ to_json()</text>
<text text-anchor="start" x="100" y="-867.5" font-family="Helvetica,sans-Serif" font-size="10.00">+ from_json()</text>
</a>
</g>
</g>
<!-- Node7&#45;&gt;Node6 -->
<g id="edge6" class="edge"><title>Node7&#45;&gt;Node6</title>
<path fill="none" stroke="#404040" d="M129,-860.271C129,-807.286 129,-727.935 129,-676.435"/>
<polygon fill="none" stroke="#404040" points="129,-676.295 125,-670.295 129,-664.295 133,-670.294 129,-676.295"/>
<text text-anchor="middle" x="136.5" y="-790" font-family="Helvetica,sans-Serif" font-size="10.00"> +a</text>
<text text-anchor="middle" x="136.5" y="-779" font-family="Helvetica,sans-Serif" font-size="10.00">+s</text>
<text text-anchor="middle" x="136.5" y="-768" font-family="Helvetica,sans-Serif" font-size="10.00">+v</text>
</g>
<!-- Node8 -->
<g id="node8" class="node"><title>Node8</title>
<g id="a_node8"><a xlink:href="structcartpos.html" target="_top" xlink:title="Cartesian full position structure. ">
<polygon fill="white" stroke="black" points="235,-877 235,-956 309,-956 309,-877 235,-877"/>
<text text-anchor="middle" x="272" y="-944" font-family="Helvetica,sans-Serif" font-size="10.00">cartpos</text>
<polyline fill="none" stroke="black" points="235,-937 309,-937 "/>
<text text-anchor="start" x="243" y="-925" font-family="Helvetica,sans-Serif" font-size="10.00">+ utc</text>
<text text-anchor="start" x="243" y="-914" font-family="Helvetica,sans-Serif" font-size="10.00">+ pass</text>
<polyline fill="none" stroke="black" points="235,-907 309,-907 "/>
<text text-anchor="start" x="243" y="-895" font-family="Helvetica,sans-Serif" font-size="10.00">+ to_json()</text>
<text text-anchor="start" x="243" y="-884" font-family="Helvetica,sans-Serif" font-size="10.00">+ from_json()</text>
</a>
</g>
</g>
<!-- Node8&#45;&gt;Node3 -->
<g id="edge7" class="edge"><title>Node8&#45;&gt;Node3</title>
<path fill="none" stroke="#404040" d="M267.837,-876.729C258.516,-789.929 235.846,-578.814 223.809,-466.721"/>
<polygon fill="none" stroke="#404040" points="223.783,-466.475 219.165,-460.937 222.501,-454.544 227.119,-460.083 223.783,-466.475"/>
<text text-anchor="middle" x="263" y="-644" font-family="Helvetica,sans-Serif" font-size="10.00"> +selc</text>
<text text-anchor="middle" x="263" y="-633" font-family="Helvetica,sans-Serif" font-size="10.00">+icrf</text>
<text text-anchor="middle" x="263" y="-622" font-family="Helvetica,sans-Serif" font-size="10.00">+sci</text>
<text text-anchor="middle" x="263" y="-611" font-family="Helvetica,sans-Serif" font-size="10.00">+geoc</text>
<text text-anchor="middle" x="263" y="-600" font-family="Helvetica,sans-Serif" font-size="10.00">+eci</text>
</g>
<!-- Node10 -->
<g id="node10" class="node"><title>Node10</title>
<g id="a_node10"><a xlink:href="structextrapos.html" target="_top" xlink:title="Additional parameters relating to position that need only be calculated once. ">
<polygon fill="white" stroke="black" points="289,-546.5 289,-702.5 363,-702.5 363,-546.5 289,-546.5"/>
<text text-anchor="middle" x="326" y="-690.5" font-family="Helvetica,sans-Serif" font-size="10.00">extrapos</text>
<polyline fill="none" stroke="black" points="289,-683.5 363,-683.5 "/>
<text text-anchor="start" x="297" y="-671.5" font-family="Helvetica,sans-Serif" font-size="10.00">+ utc</text>
<text text-anchor="start" x="297" y="-660.5" font-family="Helvetica,sans-Serif" font-size="10.00">+ tt</text>
<text text-anchor="start" x="297" y="-649.5" font-family="Helvetica,sans-Serif" font-size="10.00">+ ut</text>
<text text-anchor="start" x="297" y="-638.5" font-family="Helvetica,sans-Serif" font-size="10.00">+ tdb</text>
<text text-anchor="start" x="297" y="-627.5" font-family="Helvetica,sans-Serif" font-size="10.00">+ j2e</text>
<text text-anchor="start" x="297" y="-616.5" font-family="Helvetica,sans-Serif" font-size="10.00">+ dj2e</text>
<text text-anchor="start" x="297" y="-605.5" font-family="Helvetica,sans-Serif" font-size="10.00">+ ddj2e</text>
<text text-anchor="start" x="297" y="-594.5" font-family="Helvetica,sans-Serif" font-size="10.00">+ de2j</text>
<text text-anchor="start" x="297" y="-583.5" font-family="Helvetica,sans-Serif" font-size="10.00">+ closest</text>
<polyline fill="none" stroke="black" points="289,-576.5 363,-576.5 "/>
<text text-anchor="start" x="297" y="-564.5" font-family="Helvetica,sans-Serif" font-size="10.00">+ to_json()</text>
<text text-anchor="start" x="297" y="-553.5" font-family="Helvetica,sans-Serif" font-size="10.00">+ from_json()</text>
</a>
</g>
</g>
<!-- Node8&#45;&gt;Node10 -->
<g id="edge11" class="edge"><title>Node8&#45;&gt;Node10</title>
<path fill="none" stroke="#404040" d="M269.382,-876.847C267.71,-837.132 267.889,-773.821 281,-721 282.079,-716.653 283.362,-712.266 284.8,-707.885"/>
<polygon fill="none" stroke="#404040" points="284.89,-707.636 283.148,-700.638 288.937,-696.339 290.679,-703.336 284.89,-707.636"/>
<text text-anchor="middle" x="308.5" y="-784.5" font-family="Helvetica,sans-Serif" font-size="10.00"> +sun2moon</text>
<text text-anchor="middle" x="308.5" y="-773.5" font-family="Helvetica,sans-Serif" font-size="10.00">+sun2earth</text>
</g>
<!-- Node9 -->
<g id="node9" class="node"><title>Node9</title>
<g id="a_node9"><a xlink:href="structrvector.html" target="_top" xlink:title="3 element generic row vector ">
<polygon fill="white" stroke="black" points="281,-1086.5 281,-1176.5 355,-1176.5 355,-1086.5 281,-1086.5"/>
<text text-anchor="middle" x="318" y="-1164.5" font-family="Helvetica,sans-Serif" font-size="10.00">rvector</text>
<polyline fill="none" stroke="black" points="281,-1157.5 355,-1157.5 "/>
<text text-anchor="start" x="289" y="-1145.5" font-family="Helvetica,sans-Serif" font-size="10.00">+ col</text>
<polyline fill="none" stroke="black" points="281,-1138.5 355,-1138.5 "/>
<text text-anchor="start" x="289" y="-1126.5" font-family="Helvetica,sans-Serif" font-size="10.00">+ rvector()</text>
<text text-anchor="start" x="289" y="-1115.5" font-family="Helvetica,sans-Serif" font-size="10.00">+ rvector()</text>
<text text-anchor="start" x="289" y="-1104.5" font-family="Helvetica,sans-Serif" font-size="10.00">+ to_json()</text>
<text text-anchor="start" x="289" y="-1093.5" font-family="Helvetica,sans-Serif" font-size="10.00">+ from_json()</text>
</a>
</g>
</g>
<!-- Node9&#45;&gt;Node3 -->
<g id="edge9" class="edge"><title>Node9&#45;&gt;Node3</title>
<path fill="none" stroke="#404040" d="M285.5,-1086.39C264.902,-1056.07 239.652,-1014.01 226,-973 168.079,-798.998 187.624,-578.994 203.646,-466.889"/>
<polygon fill="none" stroke="#404040" points="203.686,-466.618 200.6,-460.1 205.429,-454.745 208.515,-461.262 203.686,-466.618"/>
<text text-anchor="middle" x="214.5" y="-779" font-family="Helvetica,sans-Serif" font-size="10.00"> +bearth</text>
</g>
<!-- Node9&#45;&gt;Node8 -->
<g id="edge8" class="edge"><title>Node9&#45;&gt;Node8</title>
<path fill="none" stroke="#404040" d="M308.469,-1086.37C301.054,-1052.03 290.755,-1004.34 282.992,-968.397"/>
<polygon fill="none" stroke="#404040" points="282.894,-967.943 277.717,-962.923 280.361,-956.214 285.537,-961.234 282.894,-967.943"/>
<text text-anchor="middle" x="302.5" y="-1016" font-family="Helvetica,sans-Serif" font-size="10.00"> +a</text>
<text text-anchor="middle" x="302.5" y="-1005" font-family="Helvetica,sans-Serif" font-size="10.00">+s</text>
<text text-anchor="middle" x="302.5" y="-994" font-family="Helvetica,sans-Serif" font-size="10.00">+v</text>
</g>
<!-- Node11 -->
<g id="node11" class="node"><title>Node11</title>
<g id="a_node11"><a xlink:href="structrmatrix.html" target="_top" xlink:title="3x3 element generic matrix ">
<polygon fill="white" stroke="black" points="327,-871.5 327,-961.5 401,-961.5 401,-871.5 327,-871.5"/>
<text text-anchor="middle" x="364" y="-949.5" font-family="Helvetica,sans-Serif" font-size="10.00">rmatrix</text>
<polyline fill="none" stroke="black" points="327,-942.5 401,-942.5 "/>
<text text-anchor="middle" x="364" y="-930.5" font-family="Helvetica,sans-Serif" font-size="10.00"> </text>
<polyline fill="none" stroke="black" points="327,-923.5 401,-923.5 "/>
<text text-anchor="start" x="335" y="-911.5" font-family="Helvetica,sans-Serif" font-size="10.00">+ rmatrix()</text>
<text text-anchor="start" x="335" y="-900.5" font-family="Helvetica,sans-Serif" font-size="10.00">+ rmatrix()</text>
<text text-anchor="start" x="335" y="-889.5" font-family="Helvetica,sans-Serif" font-size="10.00">+ to_json()</text>
<text text-anchor="start" x="335" y="-878.5" font-family="Helvetica,sans-Serif" font-size="10.00">+ from_json()</text>
</a>
</g>
</g>
<!-- Node9&#45;&gt;Node11 -->
<g id="edge13" class="edge"><title>Node9&#45;&gt;Node11</title>
<path fill="none" stroke="#404040" d="M327.531,-1086.37C334.593,-1053.67 344.271,-1008.85 351.883,-973.609"/>
<polygon fill="none" stroke="#404040" points="351.948,-973.307 349.305,-966.598 354.481,-961.577 357.124,-968.286 351.948,-973.307"/>
<text text-anchor="middle" x="360.5" y="-1005" font-family="Helvetica,sans-Serif" font-size="10.00"> +row</text>
</g>
<!-- Node13 -->
<g id="node13" class="node"><title>Node13</title>
<g id="a_node13"><a xlink:href="structqatt.html" target="_top" xlink:title="Quaternion Attitude. ">
<polygon fill="white" stroke="black" points="473,-585 473,-664 547,-664 547,-585 473,-585"/>
<text text-anchor="middle" x="510" y="-652" font-family="Helvetica,sans-Serif" font-size="10.00">qatt</text>
<polyline fill="none" stroke="black" points="473,-645 547,-645 "/>
<text text-anchor="start" x="481" y="-633" font-family="Helvetica,sans-Serif" font-size="10.00">+ utc</text>
<text text-anchor="start" x="481" y="-622" font-family="Helvetica,sans-Serif" font-size="10.00">+ pass</text>
<polyline fill="none" stroke="black" points="473,-615 547,-615 "/>
<text text-anchor="start" x="481" y="-603" font-family="Helvetica,sans-Serif" font-size="10.00">+ to_json()</text>
<text text-anchor="start" x="481" y="-592" font-family="Helvetica,sans-Serif" font-size="10.00">+ from_json()</text>
</a>
</g>
</g>
<!-- Node9&#45;&gt;Node13 -->
<g id="edge18" class="edge"><title>Node9&#45;&gt;Node13</title>
<path fill="none" stroke="#404040" d="M347.875,-1086.23C367.597,-1055.49 392.866,-1013.03 410,-973 453.578,-871.188 484.583,-744.682 499.649,-675.86"/>
<polygon fill="none" stroke="#404040" points="499.654,-675.834 497.012,-669.124 502.19,-664.105 504.832,-670.815 499.654,-675.834"/>
<text text-anchor="middle" x="457.5" y="-919.5" font-family="Helvetica,sans-Serif" font-size="10.00"> +a</text>
<text text-anchor="middle" x="457.5" y="-908.5" font-family="Helvetica,sans-Serif" font-size="10.00">+v</text>
</g>
<!-- Node10&#45;&gt;Node3 -->
<g id="edge10" class="edge"><title>Node10&#45;&gt;Node3</title>
<path fill="none" stroke="#404040" d="M291.44,-546.21C280.647,-522.598 268.541,-496.633 257,-473 255.815,-470.574 254.602,-468.112 253.368,-465.629"/>
<polygon fill="none" stroke="#404040" points="253.246,-465.387 246.98,-461.819 247.863,-454.662 254.129,-458.23 253.246,-465.387"/>
<text text-anchor="middle" x="298.5" y="-498" font-family="Helvetica,sans-Serif" font-size="10.00"> +extra</text>
</g>
<!-- Node11&#45;&gt;Node10 -->
<g id="edge12" class="edge"><title>Node11&#45;&gt;Node10</title>
<path fill="none" stroke="#404040" d="M358.229,-871.455C352.797,-830.001 344.501,-766.693 337.687,-714.688"/>
<polygon fill="none" stroke="#404040" points="337.682,-714.655 332.937,-709.225 336.123,-702.756 340.869,-708.186 337.682,-714.655"/>
<text text-anchor="middle" x="369" y="-834" font-family="Helvetica,sans-Serif" font-size="10.00"> +t2s</text>
<text text-anchor="middle" x="369" y="-823" font-family="Helvetica,sans-Serif" font-size="10.00">+s2t</text>
<text text-anchor="middle" x="369" y="-812" font-family="Helvetica,sans-Serif" font-size="10.00">+dt2s</text>
<text text-anchor="middle" x="369" y="-801" font-family="Helvetica,sans-Serif" font-size="10.00">+ds2t</text>
<text text-anchor="middle" x="369" y="-790" font-family="Helvetica,sans-Serif" font-size="10.00">+s2j</text>
<text text-anchor="middle" x="369" y="-779" font-family="Helvetica,sans-Serif" font-size="10.00">+j2s</text>
<text text-anchor="middle" x="369" y="-768" font-family="Helvetica,sans-Serif" font-size="10.00">+t2j</text>
<text text-anchor="middle" x="369" y="-757" font-family="Helvetica,sans-Serif" font-size="10.00">+j2t</text>
<text text-anchor="middle" x="369" y="-746" font-family="Helvetica,sans-Serif" font-size="10.00">+dde2j</text>
<text text-anchor="middle" x="369" y="-735" font-family="Helvetica,sans-Serif" font-size="10.00">+e2j</text>
<text text-anchor="middle" x="369" y="-724" font-family="Helvetica,sans-Serif" font-size="10.00">...</text>
</g>
<!-- Node16 -->
<g id="node16" class="node"><title>Node16</title>
<g id="a_node16"><a xlink:href="structextraatt.html" target="_top" xlink:title="Additional parameters relating to position that need only be calculated once. ">
<polygon fill="white" stroke="black" points="381,-590.5 381,-658.5 455,-658.5 455,-590.5 381,-590.5"/>
<text text-anchor="middle" x="418" y="-646.5" font-family="Helvetica,sans-Serif" font-size="10.00">extraatt</text>
<polyline fill="none" stroke="black" points="381,-639.5 455,-639.5 "/>
<text text-anchor="start" x="389" y="-627.5" font-family="Helvetica,sans-Serif" font-size="10.00">+ utc</text>
<polyline fill="none" stroke="black" points="381,-620.5 455,-620.5 "/>
<text text-anchor="start" x="389" y="-608.5" font-family="Helvetica,sans-Serif" font-size="10.00">+ to_json()</text>
<text text-anchor="start" x="389" y="-597.5" font-family="Helvetica,sans-Serif" font-size="10.00">+ from_json()</text>
</a>
</g>
</g>
<!-- Node11&#45;&gt;Node16 -->
<g id="edge20" class="edge"><title>Node11&#45;&gt;Node16</title>
<path fill="none" stroke="#404040" d="M379.883,-871.159C382.9,-861.628 385.798,-851.549 388,-842 401.455,-783.655 409.721,-714.981 414.083,-670.878"/>
<polygon fill="none" stroke="#404040" points="414.091,-670.79 410.682,-664.435 415.236,-658.844 418.646,-665.199 414.091,-670.79"/>
<text text-anchor="middle" x="419" y="-784.5" font-family="Helvetica,sans-Serif" font-size="10.00"> +b2j</text>
<text text-anchor="middle" x="419" y="-773.5" font-family="Helvetica,sans-Serif" font-size="10.00">+j2b</text>
</g>
<!-- Node12 -->
<g id="node12" class="node"><title>Node12</title>
<g id="a_node12"><a xlink:href="structattstruc.html" target="_top" xlink:title="{attstruc\n|+ utc\l|+ to_json()\l+ from_json()\l}">
<polygon fill="white" stroke="black" points="381,-359 381,-427 455,-427 455,-359 381,-359"/>
<text text-anchor="middle" x="418" y="-415" font-family="Helvetica,sans-Serif" font-size="10.00">attstruc</text>
<polyline fill="none" stroke="black" points="381,-408 455,-408 "/>
<text text-anchor="start" x="389" y="-396" font-family="Helvetica,sans-Serif" font-size="10.00">+ utc</text>
<polyline fill="none" stroke="black" points="381,-389 455,-389 "/>
<text text-anchor="start" x="389" y="-377" font-family="Helvetica,sans-Serif" font-size="10.00">+ to_json()</text>
<text text-anchor="start" x="389" y="-366" font-family="Helvetica,sans-Serif" font-size="10.00">+ from_json()</text>
</a>
</g>
</g>
<!-- Node12&#45;&gt;Node2 -->
<g id="edge14" class="edge"><title>Node12&#45;&gt;Node2</title>
<path fill="none" stroke="#404040" d="M402.057,-358.825C392.915,-339.802 381.32,-315.674 371.395,-295.02"/>
<polygon fill="none" stroke="#404040" points="371.277,-294.774 365.072,-291.098 366.079,-283.958 372.283,-287.633 371.277,-294.774"/>
<text text-anchor="middle" x="390.5" y="-305" font-family="Helvetica,sans-Serif" font-size="10.00"> +att</text>
</g>
<!-- Node13&#45;&gt;Node12 -->
<g id="edge15" class="edge"><title>Node13&#45;&gt;Node12</title>
<path fill="none" stroke="#404040" d="M496.053,-584.92C484.853,-554.38 468.491,-510.736 453,-473 448.391,-461.774 443.2,-449.753 438.255,-438.562"/>
<polygon fill="none" stroke="#404040" points="438.107,-438.23 432.012,-434.376 433.225,-427.268 439.32,-431.122 438.107,-438.23"/>
<text text-anchor="middle" x="489" y="-520" font-family="Helvetica,sans-Serif" font-size="10.00"> +selc</text>
<text text-anchor="middle" x="489" y="-509" font-family="Helvetica,sans-Serif" font-size="10.00">+topo</text>
<text text-anchor="middle" x="489" y="-498" font-family="Helvetica,sans-Serif" font-size="10.00">+icrf</text>
<text text-anchor="middle" x="489" y="-487" font-family="Helvetica,sans-Serif" font-size="10.00">+geoc</text>
<text text-anchor="middle" x="489" y="-476" font-family="Helvetica,sans-Serif" font-size="10.00">+lvlh</text>
</g>
<!-- Node14 -->
<g id="node14" class="node"><title>Node14</title>
<g id="a_node14"><a xlink:href="structquaternion.html" target="_top" xlink:title="Quaternion, scalar last, using x, y, z. ">
<polygon fill="white" stroke="black" points="480.5,-871.5 480.5,-961.5 557.5,-961.5 557.5,-871.5 480.5,-871.5"/>
<text text-anchor="middle" x="519" y="-949.5" font-family="Helvetica,sans-Serif" font-size="10.00">quaternion</text>
<polyline fill="none" stroke="black" points="480.5,-942.5 557.5,-942.5 "/>
<text text-anchor="start" x="488.5" y="-930.5" font-family="Helvetica,sans-Serif" font-size="10.00">+ w</text>
<polyline fill="none" stroke="black" points="480.5,-923.5 557.5,-923.5 "/>
<text text-anchor="start" x="488.5" y="-911.5" font-family="Helvetica,sans-Serif" font-size="10.00">+ quaternion()</text>
<text text-anchor="start" x="488.5" y="-900.5" font-family="Helvetica,sans-Serif" font-size="10.00">+ quaternion()</text>
<text text-anchor="start" x="488.5" y="-889.5" font-family="Helvetica,sans-Serif" font-size="10.00">+ to_json()</text>
<text text-anchor="start" x="488.5" y="-878.5" font-family="Helvetica,sans-Serif" font-size="10.00">+ from_json()</text>
</a>
</g>
</g>
<!-- Node14&#45;&gt;Node13 -->
<g id="edge16" class="edge"><title>Node14&#45;&gt;Node13</title>
<path fill="none" stroke="#404040" d="M517.633,-871.455C516.009,-819.123 513.304,-731.962 511.588,-676.682"/>
<polygon fill="none" stroke="#404040" points="511.579,-676.37 507.395,-670.497 511.206,-664.376 515.391,-670.249 511.579,-676.37"/>
<text text-anchor="middle" x="524.5" y="-779" font-family="Helvetica,sans-Serif" font-size="10.00"> +s</text>
</g>
<!-- Node15 -->
<g id="node15" class="node"><title>Node15</title>
<g id="a_node15"><a xlink:href="classcvector.html" target="_top" xlink:title="3 element cartesian vector ">
<polygon fill="white" stroke="black" points="479.5,-1042.5 479.5,-1220.5 558.5,-1220.5 558.5,-1042.5 479.5,-1042.5"/>
<text text-anchor="middle" x="519" y="-1208.5" font-family="Helvetica,sans-Serif" font-size="10.00">cvector</text>
<polyline fill="none" stroke="black" points="479.5,-1201.5 558.5,-1201.5 "/>
<text text-anchor="start" x="487.5" y="-1189.5" font-family="Helvetica,sans-Serif" font-size="10.00">+ x</text>
<text text-anchor="start" x="487.5" y="-1178.5" font-family="Helvetica,sans-Serif" font-size="10.00">+ y</text>
<text text-anchor="start" x="487.5" y="-1167.5" font-family="Helvetica,sans-Serif" font-size="10.00">+ z</text>
<polyline fill="none" stroke="black" points="479.5,-1160.5 558.5,-1160.5 "/>
<text text-anchor="start" x="487.5" y="-1148.5" font-family="Helvetica,sans-Serif" font-size="10.00">+ cvector()</text>
<text text-anchor="start" x="487.5" y="-1137.5" font-family="Helvetica,sans-Serif" font-size="10.00">+ cvector()</text>
<text text-anchor="start" x="487.5" y="-1126.5" font-family="Helvetica,sans-Serif" font-size="10.00">+ normalize()</text>
<text text-anchor="start" x="487.5" y="-1115.5" font-family="Helvetica,sans-Serif" font-size="10.00">+ length()</text>
<text text-anchor="start" x="487.5" y="-1104.5" font-family="Helvetica,sans-Serif" font-size="10.00">+ norm()</text>
<text text-anchor="start" x="487.5" y="-1093.5" font-family="Helvetica,sans-Serif" font-size="10.00">+ norm2()</text>
<text text-anchor="start" x="487.5" y="-1082.5" font-family="Helvetica,sans-Serif" font-size="10.00">+ normalized()</text>
<text text-anchor="start" x="487.5" y="-1071.5" font-family="Helvetica,sans-Serif" font-size="10.00">+ operator[]()</text>
<text text-anchor="start" x="487.5" y="-1060.5" font-family="Helvetica,sans-Serif" font-size="10.00">+ to_json()</text>
<text text-anchor="start" x="487.5" y="-1049.5" font-family="Helvetica,sans-Serif" font-size="10.00">+ from_json()</text>
</a>
</g>
</g>
<!-- Node15&#45;&gt;Node14 -->
<g id="edge17" class="edge"><title>Node15&#45;&gt;Node14</title>
<path fill="none" stroke="#404040" d="M519,-1042.33C519,-1019.19 519,-994.858 519,-973.886"/>
<polygon fill="none" stroke="#404040" points="519,-973.633 515,-967.633 519,-961.633 523,-967.633 519,-973.633"/>
<text text-anchor="middle" x="526.5" y="-1005" font-family="Helvetica,sans-Serif" font-size="10.00"> +d</text>
</g>
<!-- Node16&#45;&gt;Node12 -->
<g id="edge19" class="edge"><title>Node16&#45;&gt;Node12</title>
<path fill="none" stroke="#404040" d="M418,-590.129C418,-550.328 418,-483.617 418,-439.211"/>
<polygon fill="none" stroke="#404040" points="418,-439.039 414,-433.039 418,-427.039 422,-433.039 418,-439.039"/>
<text text-anchor="middle" x="433.5" y="-498" font-family="Helvetica,sans-Serif" font-size="10.00"> +extra</text>
</g>
</g>
</svg>
        <g id="navigator" transform="translate(0 0)" fill="#404254">
                <rect fill="#f2f5e9" fill-opacity="0.5" stroke="#606060" stroke-width=".5" x="0" y="0" width="60" height="60"/>
                <use id="zoomplus" xlink:href="#zoomPlus" x="17" y="9" onmousedown="handleZoom(evt,'in')"/>
                <use id="zoomminus" xlink:href="#zoomMin" x="42" y="9" onmousedown="handleZoom(evt,'out')"/>
                <use id="reset" xlink:href="#resetDef" x="30" y="36" onmousedown="handleReset()"/>
                <g id="arrowUp" xlink:href="#dirArrow" transform="translate(30 24)" onmousedown="handlePan(0,-1)">
                  <use xlink:href="#rim" fill="#404040">
                        <set attributeName="fill" to="#808080" begin="arrowUp.mouseover" end="arrowUp.mouseout"/>
                  </use>
                  <path fill="none" stroke="white" stroke-width="1.5" d="M0,-3.0v7 M-2.5,-0.5L0,-3.0L2.5,-0.5"/>
                </g>
                <g id="arrowRight" xlink:href="#dirArrow" transform="rotate(90) translate(36 -43)" onmousedown="handlePan(1,0)">
                  <use xlink:href="#rim" fill="#404040">
                        <set attributeName="fill" to="#808080" begin="arrowRight.mouseover" end="arrowRight.mouseout"/>
                  </use>
                  <path fill="none" stroke="white" stroke-width="1.5" d="M0,-3.0v7 M-2.5,-0.5L0,-3.0L2.5,-0.5"/>
                </g>
                <g id="arrowDown" xlink:href="#dirArrow" transform="rotate(180) translate(-30 -48)" onmousedown="handlePan(0,1)">
                  <use xlink:href="#rim" fill="#404040">
                        <set attributeName="fill" to="#808080" begin="arrowDown.mouseover" end="arrowDown.mouseout"/>
                  </use>
                  <path fill="none" stroke="white" stroke-width="1.5" d="M0,-3.0v7 M-2.5,-0.5L0,-3.0L2.5,-0.5"/>
                </g>
                <g id="arrowLeft" xlink:href="#dirArrow" transform="rotate(270) translate(-36 17)" onmousedown="handlePan(-1,0)">
                  <use xlink:href="#rim" fill="#404040">
                        <set attributeName="fill" to="#808080" begin="arrowLeft.mouseover" end="arrowLeft.mouseout"/>
                  </use>
                  <path fill="none" stroke="white" stroke-width="1.5" d="M0,-3.0v7 M-2.5,-0.5L0,-3.0L2.5,-0.5"/>
                </g>
        </g>
        <svg viewBox="0 0 15 15" width="100%" height="30px" preserveAspectRatio="xMaxYMin meet">
         <g id="arrow_out" transform="scale(0.3 0.3)">
          <a xlink:href="structtargetstruc__coll__graph_org.svg" target="_base">
           <rect id="button" ry="5" rx="5" y="6" x="6" height="38" width="38"
                fill="#f2f5e9" fill-opacity="0.5" stroke="#606060" stroke-width="1.0"/>
           <path id="arrow"
             d="M 11.500037,31.436501 C 11.940474,20.09759 22.043105,11.32322 32.158766,21.979434 L 37.068811,17.246167 C 37.068811,17.246167 37.088388,32 37.088388,32 L 22.160133,31.978069 C 22.160133,31.978069 26.997745,27.140456 26.997745,27.140456 C 18.528582,18.264221 13.291696,25.230495 11.500037,31.436501 z"
             style="fill:#404040;"/>
          </a>
         </g>
        </svg>
</svg>
