<?xml version="1.0" encoding="UTF-8" standalone="no"?>
<!DOCTYPE svg PUBLIC "-//W3C//DTD SVG 1.1//EN"
 "http://www.w3.org/Graphics/SVG/1.1/DTD/svg11.dtd">
<!-- Generated by graphviz version 2.38.0 (20140413.2041)
 -->
<!-- Title: radiostruc Pages: 1 -->
<svg width="234pt" height="358pt"
 viewBox="0.00 0.00 233.50 358.00" xmlns="http://www.w3.org/2000/svg" xmlns:xlink="http://www.w3.org/1999/xlink">
<g id="graph0" class="graph" transform="scale(1 1) rotate(0) translate(4 354)">
<title>radiostruc</title>
<polygon fill="white" stroke="none" points="-4,4 -4,-354 229.5,-354 229.5,4 -4,4"/>
<!-- Node1 -->
<g id="node1" class="node"><title>Node1</title>
<polygon fill="#bfbfbf" stroke="black" points="50.5,-0.5 50.5,-101.5 142.5,-101.5 142.5,-0.5 50.5,-0.5"/>
<text text-anchor="middle" x="96.5" y="-89.5" font-family="Helvetica,sans-Serif" font-size="10.00">radiostruc</text>
<polyline fill="none" stroke="black" points="50.5,-82.5 142.5,-82.5 "/>
<text text-anchor="start" x="58.5" y="-70.5" font-family="Helvetica,sans-Serif" font-size="10.00">+ type</text>
<text text-anchor="start" x="58.5" y="-59.5" font-family="Helvetica,sans-Serif" font-size="10.00">+ otherradioindex</text>
<text text-anchor="start" x="58.5" y="-48.5" font-family="Helvetica,sans-Serif" font-size="10.00">+ dfreq</text>
<text text-anchor="start" x="58.5" y="-37.5" font-family="Helvetica,sans-Serif" font-size="10.00">+ basefreq</text>
<text text-anchor="start" x="58.5" y="-26.5" font-family="Helvetica,sans-Serif" font-size="10.00">+ baseopmode</text>
<polyline fill="none" stroke="black" points="50.5,-19.5 142.5,-19.5 "/>
<text text-anchor="middle" x="96.5" y="-7.5" font-family="Helvetica,sans-Serif" font-size="10.00"> </text>
</g>
<!-- Node2 -->
<g id="node2" class="node"><title>Node2</title>
<polygon fill="white" stroke="#bfbfbf" points="0,-221 0,-278 41,-278 41,-221 0,-221"/>
<text text-anchor="middle" x="20.5" y="-266" font-family="Helvetica,sans-Serif" font-size="10.00">string</text>
<polyline fill="none" stroke="#bfbfbf" points="0,-259 41,-259 "/>
<text text-anchor="middle" x="20.5" y="-247" font-family="Helvetica,sans-Serif" font-size="10.00"> </text>
<polyline fill="none" stroke="#bfbfbf" points="0,-240 41,-240 "/>
<text text-anchor="middle" x="20.5" y="-228" font-family="Helvetica,sans-Serif" font-size="10.00"> </text>
</g>
<!-- Node2&#45;&gt;Node1 -->
<g id="edge1" class="edge"><title>Node2&#45;&gt;Node1</title>
<path fill="none" stroke="#404040" d="M26.7939,-220.814C33.2443,-194.366 44.3252,-153.662 58.5,-120 59.5448,-117.519 60.6568,-115.013 61.8194,-112.5"/>
<polygon fill="none" stroke="#404040" points="61.9244,-112.285 60.9615,-105.138 67.188,-101.501 68.1509,-108.647 61.9244,-112.285"/>
<text text-anchor="middle" x="75.5" y="-123" font-family="Helvetica,sans-Serif" font-size="10.00"> +name</text>
</g>
<!-- Node3 -->
<g id="node3" class="node"><title>Node3</title>
<g id="a_node3"><a xlink:href="structtcvstruc.html" target="_top" xlink:title="Transceiver information. ">
<polygon fill="white" stroke="black" points="59.5,-160.5 59.5,-338.5 133.5,-338.5 133.5,-160.5 59.5,-160.5"/>
<text text-anchor="middle" x="96.5" y="-326.5" font-family="Helvetica,sans-Serif" font-size="10.00">tcvstruc</text>
<polyline fill="none" stroke="black" points="59.5,-319.5 133.5,-319.5 "/>
<text text-anchor="start" x="67.5" y="-307.5" font-family="Helvetica,sans-Serif" font-size="10.00">+ opmode</text>
<text text-anchor="start" x="67.5" y="-296.5" font-family="Helvetica,sans-Serif" font-size="10.00">+ modulation</text>
<text text-anchor="start" x="67.5" y="-285.5" font-family="Helvetica,sans-Serif" font-size="10.00">+ rssi</text>
<text text-anchor="start" x="67.5" y="-274.5" font-family="Helvetica,sans-Serif" font-size="10.00">+ pktsize</text>
<text text-anchor="start" x="67.5" y="-263.5" font-family="Helvetica,sans-Serif" font-size="10.00">+ freq</text>
<text text-anchor="start" x="67.5" y="-252.5" font-family="Helvetica,sans-Serif" font-size="10.00">+ maxfreq</text>
<text text-anchor="start" x="67.5" y="-241.5" font-family="Helvetica,sans-Serif" font-size="10.00">+ minfreq</text>
<text text-anchor="start" x="67.5" y="-230.5" font-family="Helvetica,sans-Serif" font-size="10.00">+ powerin</text>
<text text-anchor="start" x="67.5" y="-219.5" font-family="Helvetica,sans-Serif" font-size="10.00">+ powerout</text>
<text text-anchor="start" x="67.5" y="-208.5" font-family="Helvetica,sans-Serif" font-size="10.00">+ maxpower</text>
<text text-anchor="start" x="67.5" y="-197.5" font-family="Helvetica,sans-Serif" font-size="10.00">and 6 more...</text>
<polyline fill="none" stroke="black" points="59.5,-190.5 133.5,-190.5 "/>
<text text-anchor="start" x="67.5" y="-178.5" font-family="Helvetica,sans-Serif" font-size="10.00">+ to_json()</text>
<text text-anchor="start" x="67.5" y="-167.5" font-family="Helvetica,sans-Serif" font-size="10.00">+ from_json()</text>
</a>
</g>
</g>
<!-- Node3&#45;&gt;Node1 -->
<g id="edge2" class="edge"><title>Node3&#45;&gt;Node1</title>
<path fill="none" stroke="#404040" d="M96.5,-160.309C96.5,-144.606 96.5,-128.557 96.5,-113.789"/>
<polygon fill="none" stroke="#404040" points="96.5001,-113.721 92.5,-107.721 96.5,-101.721 100.5,-107.721 96.5001,-113.721"/>
<text text-anchor="middle" x="109" y="-123" font-family="Helvetica,sans-Serif" font-size="10.00"> +info</text>
</g>
<!-- Node4 -->
<g id="node4" class="node"><title>Node4</title>
<g id="a_node4"><a xlink:href="structbeatstruc.html" target="_top" xlink:title="{beatstruc\n|+ utc\l+ node\l+ proc\l+ ntype\l+ addr\l+ port\l+ bsz\l+ bprd\l+ user\l+ cpu\l+ memory\l+ jitter\l+ exists\l|+ to_json()\l+ from_json()\l}">
<polygon fill="white" stroke="black" points="151.5,-149.5 151.5,-349.5 225.5,-349.5 225.5,-149.5 151.5,-149.5"/>
<text text-anchor="middle" x="188.5" y="-337.5" font-family="Helvetica,sans-Serif" font-size="10.00">beatstruc</text>
<polyline fill="none" stroke="black" points="151.5,-330.5 225.5,-330.5 "/>
<text text-anchor="start" x="159.5" y="-318.5" font-family="Helvetica,sans-Serif" font-size="10.00">+ utc</text>
<text text-anchor="start" x="159.5" y="-307.5" font-family="Helvetica,sans-Serif" font-size="10.00">+ node</text>
<text text-anchor="start" x="159.5" y="-296.5" font-family="Helvetica,sans-Serif" font-size="10.00">+ proc</text>
<text text-anchor="start" x="159.5" y="-285.5" font-family="Helvetica,sans-Serif" font-size="10.00">+ ntype</text>
<text text-anchor="start" x="159.5" y="-274.5" font-family="Helvetica,sans-Serif" font-size="10.00">+ addr</text>
<text text-anchor="start" x="159.5" y="-263.5" font-family="Helvetica,sans-Serif" font-size="10.00">+ port</text>
<text text-anchor="start" x="159.5" y="-252.5" font-family="Helvetica,sans-Serif" font-size="10.00">+ bsz</text>
<text text-anchor="start" x="159.5" y="-241.5" font-family="Helvetica,sans-Serif" font-size="10.00">+ bprd</text>
<text text-anchor="start" x="159.5" y="-230.5" font-family="Helvetica,sans-Serif" font-size="10.00">+ user</text>
<text text-anchor="start" x="159.5" y="-219.5" font-family="Helvetica,sans-Serif" font-size="10.00">+ cpu</text>
<text text-anchor="start" x="159.5" y="-208.5" font-family="Helvetica,sans-Serif" font-size="10.00">+ memory</text>
<text text-anchor="start" x="159.5" y="-197.5" font-family="Helvetica,sans-Serif" font-size="10.00">+ jitter</text>
<text text-anchor="start" x="159.5" y="-186.5" font-family="Helvetica,sans-Serif" font-size="10.00">+ exists</text>
<polyline fill="none" stroke="black" points="151.5,-179.5 225.5,-179.5 "/>
<text text-anchor="start" x="159.5" y="-167.5" font-family="Helvetica,sans-Serif" font-size="10.00">+ to_json()</text>
<text text-anchor="start" x="159.5" y="-156.5" font-family="Helvetica,sans-Serif" font-size="10.00">+ from_json()</text>
</a>
</g>
</g>
<!-- Node4&#45;&gt;Node1 -->
<g id="edge3" class="edge"><title>Node4&#45;&gt;Node1</title>
<path fill="none" stroke="#404040" d="M151.41,-168.096C148.403,-161.632 145.405,-155.205 142.5,-149 136.993,-137.24 131.077,-124.696 125.381,-112.667"/>
<polygon fill="none" stroke="#404040" points="125.371,-112.645 119.187,-108.936 120.231,-101.801 126.416,-105.51 125.371,-112.645"/>
<text text-anchor="middle" x="148.5" y="-123" font-family="Helvetica,sans-Serif" font-size="10.00"> +beat</text>
</g>
</g>
</svg>
