<?xml version="1.0" encoding="UTF-8" standalone="no"?>
<!DOCTYPE svg PUBLIC "-//W3C//DTD SVG 1.1//EN"
 "http://www.w3.org/Graphics/SVG/1.1/DTD/svg11.dtd">
<!-- Generated by graphviz version 2.38.0 (20140413.2041)
 -->
<!-- Title: DIR Pages: 1 -->
<svg width="72pt" height="193pt"
 viewBox="0.00 0.00 72.00 193.00" xmlns="http://www.w3.org/2000/svg" xmlns:xlink="http://www.w3.org/1999/xlink">
<g id="graph0" class="graph" transform="scale(1 1) rotate(0) translate(4 189)">
<title>DIR</title>
<polygon fill="white" stroke="none" points="-4,4 -4,-189 68,-189 68,4 -4,4"/>
<!-- Node1 -->
<g id="node1" class="node"><title>Node1</title>
<polygon fill="#bfbfbf" stroke="black" points="3,-0.5 3,-79.5 57,-79.5 57,-0.5 3,-0.5"/>
<text text-anchor="middle" x="30" y="-67.5" font-family="Helvetica,sans-Serif" font-size="10.00">DIR</text>
<polyline fill="none" stroke="black" points="3,-60.5 57,-60.5 "/>
<text text-anchor="start" x="11" y="-48.5" font-family="Helvetica,sans-Serif" font-size="10.00">+ handle</text>
<text text-anchor="start" x="11" y="-37.5" font-family="Helvetica,sans-Serif" font-size="10.00">+ info</text>
<text text-anchor="start" x="11" y="-26.5" font-family="Helvetica,sans-Serif" font-size="10.00">+ name</text>
<polyline fill="none" stroke="black" points="3,-19.5 57,-19.5 "/>
<text text-anchor="middle" x="30" y="-7.5" font-family="Helvetica,sans-Serif" font-size="10.00"> </text>
</g>
<!-- Node2 -->
<g id="node2" class="node"><title>Node2</title>
<g id="a_node2"><a xlink:href="structdirent.html" target="_top" xlink:title="{dirent\n|+ d_name\l|}">
<polygon fill="white" stroke="black" points="-3.55271e-15,-127.5 -3.55271e-15,-184.5 60,-184.5 60,-127.5 -3.55271e-15,-127.5"/>
<text text-anchor="middle" x="30" y="-172.5" font-family="Helvetica,sans-Serif" font-size="10.00">dirent</text>
<polyline fill="none" stroke="black" points="-3.55271e-15,-165.5 60,-165.5 "/>
<text text-anchor="start" x="8" y="-153.5" font-family="Helvetica,sans-Serif" font-size="10.00">+ d_name</text>
<polyline fill="none" stroke="black" points="-3.55271e-15,-146.5 60,-146.5 "/>
<text text-anchor="middle" x="30" y="-134.5" font-family="Helvetica,sans-Serif" font-size="10.00"> </text>
</a>
</g>
</g>
<!-- Node2&#45;&gt;Node1 -->
<g id="edge1" class="edge"><title>Node2&#45;&gt;Node1</title>
<path fill="none" stroke="#404040" d="M30,-127.404C30,-116.63 30,-103.926 30,-91.6231"/>
<polygon fill="none" stroke="#404040" points="30.0001,-91.5406 26,-85.5406 30,-79.5406 34,-85.5405 30.0001,-91.5406"/>
<text text-anchor="middle" x="47" y="-101" font-family="Helvetica,sans-Serif" font-size="10.00"> +result</text>
</g>
</g>
</svg>
