<?xml version="1.0" encoding="UTF-8" standalone="no"?>
<!DOCTYPE svg PUBLIC "-//W3C//DTD SVG 1.1//EN"
 "http://www.w3.org/Graphics/SVG/1.1/DTD/svg11.dtd">
<!-- Generated by graphviz version 2.38.0 (20140413.2041)
 -->
<!-- Title: my_prep_controller Pages: 1 -->
<svg width="122pt" height="226pt"
 viewBox="0.00 0.00 122.00 226.00" xmlns="http://www.w3.org/2000/svg" xmlns:xlink="http://www.w3.org/1999/xlink">
<g id="graph0" class="graph" transform="scale(1 1) rotate(0) translate(4 222)">
<title>my_prep_controller</title>
<polygon fill="white" stroke="none" points="-4,4 -4,-222 118,-222 118,4 -4,4"/>
<!-- Node1 -->
<g id="node1" class="node"><title>Node1</title>
<polygon fill="#bfbfbf" stroke="black" points="7.5,-0.5 7.5,-101.5 106.5,-101.5 106.5,-0.5 7.5,-0.5"/>
<text text-anchor="middle" x="57" y="-89.5" font-family="Helvetica,sans-Serif" font-size="10.00">my_prep_controller</text>
<polyline fill="none" stroke="black" points="7.5,-82.5 106.5,-82.5 "/>
<text text-anchor="start" x="15.5" y="-70.5" font-family="Helvetica,sans-Serif" font-size="10.00">+ color_buf</text>
<text text-anchor="start" x="15.5" y="-59.5" font-family="Helvetica,sans-Serif" font-size="10.00">+ rows_to_go</text>
<text text-anchor="start" x="15.5" y="-48.5" font-family="Helvetica,sans-Serif" font-size="10.00">+ next_buf_row</text>
<text text-anchor="start" x="15.5" y="-37.5" font-family="Helvetica,sans-Serif" font-size="10.00">+ this_row_group</text>
<text text-anchor="start" x="15.5" y="-26.5" font-family="Helvetica,sans-Serif" font-size="10.00">+ next_buf_stop</text>
<polyline fill="none" stroke="black" points="7.5,-19.5 106.5,-19.5 "/>
<text text-anchor="middle" x="57" y="-7.5" font-family="Helvetica,sans-Serif" font-size="10.00"> </text>
</g>
<!-- Node2 -->
<g id="node2" class="node"><title>Node2</title>
<g id="a_node2"><a xlink:href="structjpeg__c__prep__controller.html" target="_top" xlink:title="{jpeg_c_prep_controller\n||+ JMETHOD()\l+ JMETHOD()\l}">
<polygon fill="white" stroke="black" points="0,-149.5 0,-217.5 114,-217.5 114,-149.5 0,-149.5"/>
<text text-anchor="middle" x="57" y="-205.5" font-family="Helvetica,sans-Serif" font-size="10.00">jpeg_c_prep_controller</text>
<polyline fill="none" stroke="black" points="0,-198.5 114,-198.5 "/>
<text text-anchor="middle" x="57" y="-186.5" font-family="Helvetica,sans-Serif" font-size="10.00"> </text>
<polyline fill="none" stroke="black" points="0,-179.5 114,-179.5 "/>
<text text-anchor="start" x="8" y="-167.5" font-family="Helvetica,sans-Serif" font-size="10.00">+ JMETHOD()</text>
<text text-anchor="start" x="8" y="-156.5" font-family="Helvetica,sans-Serif" font-size="10.00">+ JMETHOD()</text>
</a>
</g>
</g>
<!-- Node2&#45;&gt;Node1 -->
<g id="edge1" class="edge"><title>Node2&#45;&gt;Node1</title>
<path fill="none" stroke="#404040" d="M57,-149.232C57,-138.471 57,-126.168 57,-114.015"/>
<polygon fill="none" stroke="#404040" points="57.0001,-113.975 53,-107.975 57,-101.975 61,-107.975 57.0001,-113.975"/>
<text text-anchor="middle" x="69.5" y="-123" font-family="Helvetica,sans-Serif" font-size="10.00"> +pub</text>
</g>
</g>
</svg>
