<?xml version="1.0" encoding="UTF-8" standalone="no"?>
<!DOCTYPE svg PUBLIC "-//W3C//DTD SVG 1.1//EN"
 "http://www.w3.org/Graphics/SVG/1.1/DTD/svg11.dtd">
<!-- Generated by graphviz version 2.38.0 (20140413.2041)
 -->
<!-- Title: estimatorstruc Pages: 1 -->
<svg width="98pt" height="204pt"
 viewBox="0.00 0.00 98.00 204.00" xmlns="http://www.w3.org/2000/svg" xmlns:xlink="http://www.w3.org/1999/xlink">
<g id="graph0" class="graph" transform="scale(1 1) rotate(0) translate(4 200)">
<title>estimatorstruc</title>
<polygon fill="white" stroke="none" points="-4,4 -4,-200 94,-200 94,4 -4,4"/>
<!-- Node1 -->
<g id="node1" class="node"><title>Node1</title>
<polygon fill="#bfbfbf" stroke="black" points="5.5,-0.5 5.5,-68.5 84.5,-68.5 84.5,-0.5 5.5,-0.5"/>
<text text-anchor="middle" x="45" y="-56.5" font-family="Helvetica,sans-Serif" font-size="10.00">estimatorstruc</text>
<polyline fill="none" stroke="black" points="5.5,-49.5 84.5,-49.5 "/>
<text text-anchor="start" x="13.5" y="-37.5" font-family="Helvetica,sans-Serif" font-size="10.00">+ value</text>
<text text-anchor="start" x="13.5" y="-26.5" font-family="Helvetica,sans-Serif" font-size="10.00">+ error</text>
<polyline fill="none" stroke="black" points="5.5,-19.5 84.5,-19.5 "/>
<text text-anchor="middle" x="45" y="-7.5" font-family="Helvetica,sans-Serif" font-size="10.00"> </text>
</g>
<!-- Node2 -->
<g id="node2" class="node"><title>Node2</title>
<polygon fill="white" stroke="#bfbfbf" points="0,-138.5 0,-195.5 90,-195.5 90,-138.5 0,-138.5"/>
<text text-anchor="middle" x="45" y="-183.5" font-family="Helvetica,sans-Serif" font-size="10.00">vector&lt; double &gt;</text>
<polyline fill="none" stroke="#bfbfbf" points="0,-176.5 90,-176.5 "/>
<text text-anchor="middle" x="45" y="-164.5" font-family="Helvetica,sans-Serif" font-size="10.00"> </text>
<polyline fill="none" stroke="#bfbfbf" points="0,-157.5 90,-157.5 "/>
<text text-anchor="middle" x="45" y="-145.5" font-family="Helvetica,sans-Serif" font-size="10.00"> </text>
</g>
<!-- Node2&#45;&gt;Node1 -->
<g id="edge1" class="edge"><title>Node2&#45;&gt;Node1</title>
<path fill="none" stroke="#404040" d="M45,-138.324C45,-121.63 45,-99.9589 45,-80.8185"/>
<polygon fill="none" stroke="#404040" points="45.0001,-80.6838 41,-74.6838 45,-68.6838 49,-74.6838 45.0001,-80.6838"/>
<text text-anchor="middle" x="52.5" y="-112" font-family="Helvetica,sans-Serif" font-size="10.00"> +a</text>
<text text-anchor="middle" x="52.5" y="-101" font-family="Helvetica,sans-Serif" font-size="10.00">+x</text>
<text text-anchor="middle" x="52.5" y="-90" font-family="Helvetica,sans-Serif" font-size="10.00">+y</text>
</g>
</g>
</svg>
