<?xml version="1.0" encoding="UTF-8" standalone="no"?>
<!DOCTYPE svg PUBLIC "-//W3C//DTD SVG 1.1//EN"
 "http://www.w3.org/Graphics/SVG/1.1/DTD/svg11.dtd">
<!-- Generated by graphviz version 2.38.0 (20140413.2041)
 -->
<!-- Title: sttstruc Pages: 1 -->
<!--zoomable 463 -->
<svg id="main" version="1.1" xmlns="http://www.w3.org/2000/svg" xmlns:xlink="http://www.w3.org/1999/xlink" xml:space="preserve" onload="init(evt)">
<style type="text/css"><![CDATA[
.edge:hover path { stroke: red; }
.edge:hover polygon { stroke: red; fill: red; }
]]></style>
<script type="text/javascript"><![CDATA[
var edges = document.getElementsByTagName('g');
if (edges && edges.length) {
  for (var i=0;i<edges.length;i++) {
    if (edges[i].id.substr(0,4)=='edge') {
      edges[i].setAttribute('class','edge');
    }
  }
}
]]></script>
        <defs>
                <circle id="rim" cx="0" cy="0" r="7"/>
                <circle id="rim2" cx="0" cy="0" r="3.5"/>
                <g id="zoomPlus">
                        <use xlink:href="#rim" fill="#404040">
                                <set attributeName="fill" to="#808080" begin="zoomplus.mouseover" end="zoomplus.mouseout"/>
                        </use>
                        <path d="M-4,0h8M0,-4v8" fill="none" stroke="white" stroke-width="1.5" pointer-events="none"/>
                </g>
                <g id="zoomMin">
                        <use xlink:href="#rim" fill="#404040">
                                <set attributeName="fill" to="#808080" begin="zoomminus.mouseover" end="zoomminus.mouseout"/>
                        </use>
                        <path d="M-4,0h8" fill="none" stroke="white" stroke-width="1.5" pointer-events="none"/>
                </g>
                <g id="dirArrow">
                        <path fill="none" stroke="white" stroke-width="1.5" d="M0,-3.0v7 M-2.5,-0.5L0,-3.0L2.5,-0.5"/>
                </g>
               <g id="resetDef">
                       <use xlink:href="#rim2" fill="#404040">
                               <set attributeName="fill" to="#808080" begin="reset.mouseover" end="reset.mouseout"/>
                       </use>
               </g>
        </defs>

<script type="text/javascript">
var viewWidth = 179;
var viewHeight = 463;
var sectionId = 'dynsection-0';
</script>
<script xlink:href="svgpan.js"/>
<svg id="graph" class="graph">
<g id="viewport">
<title>sttstruc</title>
<polygon fill="white" stroke="none" points="-4,4 -4,-459 174.5,-459 174.5,4 -4,4"/>
<!-- Node1 -->
<g id="node1" class="node"><title>Node1</title>
<polygon fill="#bfbfbf" stroke="black" points="71.5,-0.5 71.5,-79.5 145.5,-79.5 145.5,-0.5 71.5,-0.5"/>
<text text-anchor="middle" x="108.5" y="-67.5" font-family="Helvetica,sans-Serif" font-size="10.00">sttstruc</text>
<polyline fill="none" stroke="black" points="71.5,-60.5 145.5,-60.5 "/>
<text text-anchor="start" x="79.5" y="-48.5" font-family="Helvetica,sans-Serif" font-size="10.00">+ retcode</text>
<text text-anchor="start" x="79.5" y="-37.5" font-family="Helvetica,sans-Serif" font-size="10.00">+ status</text>
<polyline fill="none" stroke="black" points="71.5,-30.5 145.5,-30.5 "/>
<text text-anchor="start" x="79.5" y="-18.5" font-family="Helvetica,sans-Serif" font-size="10.00">+ to_json()</text>
<text text-anchor="start" x="79.5" y="-7.5" font-family="Helvetica,sans-Serif" font-size="10.00">+ from_json()</text>
</g>
<!-- Node2 -->
<g id="node2" class="node"><title>Node2</title>
<g id="a_node2"><a xlink:href="structquaternion.html" target="_top" xlink:title="Quaternion, scalar last, using x, y, z. ">
<polygon fill="white" stroke="black" points="1,-138.5 1,-228.5 78,-228.5 78,-138.5 1,-138.5"/>
<text text-anchor="middle" x="39.5" y="-216.5" font-family="Helvetica,sans-Serif" font-size="10.00">quaternion</text>
<polyline fill="none" stroke="black" points="1,-209.5 78,-209.5 "/>
<text text-anchor="start" x="9" y="-197.5" font-family="Helvetica,sans-Serif" font-size="10.00">+ w</text>
<polyline fill="none" stroke="black" points="1,-190.5 78,-190.5 "/>
<text text-anchor="start" x="9" y="-178.5" font-family="Helvetica,sans-Serif" font-size="10.00">+ quaternion()</text>
<text text-anchor="start" x="9" y="-167.5" font-family="Helvetica,sans-Serif" font-size="10.00">+ quaternion()</text>
<text text-anchor="start" x="9" y="-156.5" font-family="Helvetica,sans-Serif" font-size="10.00">+ to_json()</text>
<text text-anchor="start" x="9" y="-145.5" font-family="Helvetica,sans-Serif" font-size="10.00">+ from_json()</text>
</a>
</g>
</g>
<!-- Node2&#45;&gt;Node1 -->
<g id="edge1" class="edge"><title>Node2&#45;&gt;Node1</title>
<path fill="none" stroke="#404040" d="M61.1427,-138.117C68.4574,-123.116 76.672,-106.27 84.18,-90.8736"/>
<polygon fill="none" stroke="#404040" points="84.2396,-90.7513 83.2741,-83.6051 89.4992,-79.9654 90.4647,-87.1116 84.2396,-90.7513"/>
<text text-anchor="middle" x="94" y="-112" font-family="Helvetica,sans-Serif" font-size="10.00"> +att</text>
<text text-anchor="middle" x="94" y="-101" font-family="Helvetica,sans-Serif" font-size="10.00">+align</text>
</g>
<!-- Node3 -->
<g id="node3" class="node"><title>Node3</title>
<g id="a_node3"><a xlink:href="classcvector.html" target="_top" xlink:title="3 element cartesian vector ">
<polygon fill="white" stroke="black" points="0,-276.5 0,-454.5 79,-454.5 79,-276.5 0,-276.5"/>
<text text-anchor="middle" x="39.5" y="-442.5" font-family="Helvetica,sans-Serif" font-size="10.00">cvector</text>
<polyline fill="none" stroke="black" points="0,-435.5 79,-435.5 "/>
<text text-anchor="start" x="8" y="-423.5" font-family="Helvetica,sans-Serif" font-size="10.00">+ x</text>
<text text-anchor="start" x="8" y="-412.5" font-family="Helvetica,sans-Serif" font-size="10.00">+ y</text>
<text text-anchor="start" x="8" y="-401.5" font-family="Helvetica,sans-Serif" font-size="10.00">+ z</text>
<polyline fill="none" stroke="black" points="0,-394.5 79,-394.5 "/>
<text text-anchor="start" x="8" y="-382.5" font-family="Helvetica,sans-Serif" font-size="10.00">+ cvector()</text>
<text text-anchor="start" x="8" y="-371.5" font-family="Helvetica,sans-Serif" font-size="10.00">+ cvector()</text>
<text text-anchor="start" x="8" y="-360.5" font-family="Helvetica,sans-Serif" font-size="10.00">+ normalize()</text>
<text text-anchor="start" x="8" y="-349.5" font-family="Helvetica,sans-Serif" font-size="10.00">+ length()</text>
<text text-anchor="start" x="8" y="-338.5" font-family="Helvetica,sans-Serif" font-size="10.00">+ norm()</text>
<text text-anchor="start" x="8" y="-327.5" font-family="Helvetica,sans-Serif" font-size="10.00">+ norm2()</text>
<text text-anchor="start" x="8" y="-316.5" font-family="Helvetica,sans-Serif" font-size="10.00">+ normalized()</text>
<text text-anchor="start" x="8" y="-305.5" font-family="Helvetica,sans-Serif" font-size="10.00">+ operator[]()</text>
<text text-anchor="start" x="8" y="-294.5" font-family="Helvetica,sans-Serif" font-size="10.00">+ to_json()</text>
<text text-anchor="start" x="8" y="-283.5" font-family="Helvetica,sans-Serif" font-size="10.00">+ from_json()</text>
</a>
</g>
</g>
<!-- Node3&#45;&gt;Node2 -->
<g id="edge2" class="edge"><title>Node3&#45;&gt;Node2</title>
<path fill="none" stroke="#404040" d="M39.5,-276.346C39.5,-264.308 39.5,-252.226 39.5,-240.962"/>
<polygon fill="none" stroke="#404040" points="39.5001,-240.638 35.5,-234.638 39.5,-228.638 43.5,-234.638 39.5001,-240.638"/>
<text text-anchor="middle" x="47" y="-250" font-family="Helvetica,sans-Serif" font-size="10.00"> +d</text>
</g>
<!-- Node4 -->
<g id="node4" class="node"><title>Node4</title>
<g id="a_node4"><a xlink:href="structrvector.html" target="_top" xlink:title="3 element generic row vector ">
<polygon fill="white" stroke="black" points="96.5,-138.5 96.5,-228.5 170.5,-228.5 170.5,-138.5 96.5,-138.5"/>
<text text-anchor="middle" x="133.5" y="-216.5" font-family="Helvetica,sans-Serif" font-size="10.00">rvector</text>
<polyline fill="none" stroke="black" points="96.5,-209.5 170.5,-209.5 "/>
<text text-anchor="start" x="104.5" y="-197.5" font-family="Helvetica,sans-Serif" font-size="10.00">+ col</text>
<polyline fill="none" stroke="black" points="96.5,-190.5 170.5,-190.5 "/>
<text text-anchor="start" x="104.5" y="-178.5" font-family="Helvetica,sans-Serif" font-size="10.00">+ rvector()</text>
<text text-anchor="start" x="104.5" y="-167.5" font-family="Helvetica,sans-Serif" font-size="10.00">+ rvector()</text>
<text text-anchor="start" x="104.5" y="-156.5" font-family="Helvetica,sans-Serif" font-size="10.00">+ to_json()</text>
<text text-anchor="start" x="104.5" y="-145.5" font-family="Helvetica,sans-Serif" font-size="10.00">+ from_json()</text>
</a>
</g>
</g>
<!-- Node4&#45;&gt;Node1 -->
<g id="edge3" class="edge"><title>Node4&#45;&gt;Node1</title>
<path fill="none" stroke="#404040" d="M125.658,-138.117C123.085,-123.553 120.205,-107.25 117.55,-92.2225"/>
<polygon fill="none" stroke="#404040" points="117.472,-91.7823 112.489,-86.5698 115.384,-79.9654 120.367,-85.1779 117.472,-91.7823"/>
<text text-anchor="middle" x="140.5" y="-112" font-family="Helvetica,sans-Serif" font-size="10.00"> +alpha</text>
<text text-anchor="middle" x="140.5" y="-101" font-family="Helvetica,sans-Serif" font-size="10.00">+omega</text>
</g>
</g>
</svg>
        <g id="navigator" transform="translate(0 0)" fill="#404254">
                <rect fill="#f2f5e9" fill-opacity="0.5" stroke="#606060" stroke-width=".5" x="0" y="0" width="60" height="60"/>
                <use id="zoomplus" xlink:href="#zoomPlus" x="17" y="9" onmousedown="handleZoom(evt,'in')"/>
                <use id="zoomminus" xlink:href="#zoomMin" x="42" y="9" onmousedown="handleZoom(evt,'out')"/>
                <use id="reset" xlink:href="#resetDef" x="30" y="36" onmousedown="handleReset()"/>
                <g id="arrowUp" xlink:href="#dirArrow" transform="translate(30 24)" onmousedown="handlePan(0,-1)">
                  <use xlink:href="#rim" fill="#404040">
                        <set attributeName="fill" to="#808080" begin="arrowUp.mouseover" end="arrowUp.mouseout"/>
                  </use>
                  <path fill="none" stroke="white" stroke-width="1.5" d="M0,-3.0v7 M-2.5,-0.5L0,-3.0L2.5,-0.5"/>
                </g>
                <g id="arrowRight" xlink:href="#dirArrow" transform="rotate(90) translate(36 -43)" onmousedown="handlePan(1,0)">
                  <use xlink:href="#rim" fill="#404040">
                        <set attributeName="fill" to="#808080" begin="arrowRight.mouseover" end="arrowRight.mouseout"/>
                  </use>
                  <path fill="none" stroke="white" stroke-width="1.5" d="M0,-3.0v7 M-2.5,-0.5L0,-3.0L2.5,-0.5"/>
                </g>
                <g id="arrowDown" xlink:href="#dirArrow" transform="rotate(180) translate(-30 -48)" onmousedown="handlePan(0,1)">
                  <use xlink:href="#rim" fill="#404040">
                        <set attributeName="fill" to="#808080" begin="arrowDown.mouseover" end="arrowDown.mouseout"/>
                  </use>
                  <path fill="none" stroke="white" stroke-width="1.5" d="M0,-3.0v7 M-2.5,-0.5L0,-3.0L2.5,-0.5"/>
                </g>
                <g id="arrowLeft" xlink:href="#dirArrow" transform="rotate(270) translate(-36 17)" onmousedown="handlePan(-1,0)">
                  <use xlink:href="#rim" fill="#404040">
                        <set attributeName="fill" to="#808080" begin="arrowLeft.mouseover" end="arrowLeft.mouseout"/>
                  </use>
                  <path fill="none" stroke="white" stroke-width="1.5" d="M0,-3.0v7 M-2.5,-0.5L0,-3.0L2.5,-0.5"/>
                </g>
        </g>
        <svg viewBox="0 0 15 15" width="100%" height="30px" preserveAspectRatio="xMaxYMin meet">
         <g id="arrow_out" transform="scale(0.3 0.3)">
          <a xlink:href="structsttstruc__coll__graph_org.svg" target="_base">
           <rect id="button" ry="5" rx="5" y="6" x="6" height="38" width="38"
                fill="#f2f5e9" fill-opacity="0.5" stroke="#606060" stroke-width="1.0"/>
           <path id="arrow"
             d="M 11.500037,31.436501 C 11.940474,20.09759 22.043105,11.32322 32.158766,21.979434 L 37.068811,17.246167 C 37.068811,17.246167 37.088388,32 37.088388,32 L 22.160133,31.978069 C 22.160133,31.978069 26.997745,27.140456 26.997745,27.140456 C 18.528582,18.264221 13.291696,25.230495 11.500037,31.436501 z"
             style="fill:#404040;"/>
          </a>
         </g>
        </svg>
</svg>
