<?xml version="1.0" encoding="UTF-8" standalone="no"?>
<!DOCTYPE svg PUBLIC "-//W3C//DTD SVG 1.1//EN"
 "http://www.w3.org/Graphics/SVG/1.1/DTD/svg11.dtd">
<!-- Generated by graphviz version 2.38.0 (20140413.2041)
 -->
<!-- Title: piecestruc Pages: 1 -->
<svg width="244pt" height="501pt"
 viewBox="0.00 0.00 243.50 501.00" xmlns="http://www.w3.org/2000/svg" xmlns:xlink="http://www.w3.org/1999/xlink">
<g id="graph0" class="graph" transform="scale(1 1) rotate(0) translate(4 497)">
<title>piecestruc</title>
<polygon fill="white" stroke="none" points="-4,4 -4,-497 239.5,-497 239.5,4 -4,4"/>
<!-- Node1 -->
<g id="node1" class="node"><title>Node1</title>
<polygon fill="#bfbfbf" stroke="black" points="74,-0.5 74,-178.5 148,-178.5 148,-0.5 74,-0.5"/>
<text text-anchor="middle" x="111" y="-166.5" font-family="Helvetica,sans-Serif" font-size="10.00">piecestruc</text>
<polyline fill="none" stroke="black" points="74,-159.5 148,-159.5 "/>
<text text-anchor="start" x="82" y="-147.5" font-family="Helvetica,sans-Serif" font-size="10.00">+ name</text>
<text text-anchor="start" x="82" y="-136.5" font-family="Helvetica,sans-Serif" font-size="10.00">+ enabled</text>
<text text-anchor="start" x="82" y="-125.5" font-family="Helvetica,sans-Serif" font-size="10.00">+ cidx</text>
<text text-anchor="start" x="82" y="-114.5" font-family="Helvetica,sans-Serif" font-size="10.00">+ density</text>
<text text-anchor="start" x="82" y="-103.5" font-family="Helvetica,sans-Serif" font-size="10.00">+ mass</text>
<text text-anchor="start" x="82" y="-92.5" font-family="Helvetica,sans-Serif" font-size="10.00">+ emi</text>
<text text-anchor="start" x="82" y="-81.5" font-family="Helvetica,sans-Serif" font-size="10.00">+ abs</text>
<text text-anchor="start" x="82" y="-70.5" font-family="Helvetica,sans-Serif" font-size="10.00">+ hcap</text>
<text text-anchor="start" x="82" y="-59.5" font-family="Helvetica,sans-Serif" font-size="10.00">+ hcon</text>
<text text-anchor="start" x="82" y="-48.5" font-family="Helvetica,sans-Serif" font-size="10.00">+ dim</text>
<text text-anchor="start" x="82" y="-37.5" font-family="Helvetica,sans-Serif" font-size="10.00">and 7 more...</text>
<polyline fill="none" stroke="black" points="74,-30.5 148,-30.5 "/>
<text text-anchor="start" x="82" y="-18.5" font-family="Helvetica,sans-Serif" font-size="10.00">+ to_json()</text>
<text text-anchor="start" x="82" y="-7.5" font-family="Helvetica,sans-Serif" font-size="10.00">+ from_json()</text>
</g>
<!-- Node2 -->
<g id="node2" class="node"><title>Node2</title>
<polygon fill="white" stroke="#bfbfbf" points="0,-358.5 0,-415.5 96,-415.5 96,-358.5 0,-358.5"/>
<text text-anchor="middle" x="48" y="-403.5" font-family="Helvetica,sans-Serif" font-size="10.00">vector&lt; uint16_t &gt;</text>
<polyline fill="none" stroke="#bfbfbf" points="0,-396.5 96,-396.5 "/>
<text text-anchor="middle" x="48" y="-384.5" font-family="Helvetica,sans-Serif" font-size="10.00"> </text>
<polyline fill="none" stroke="#bfbfbf" points="0,-377.5 96,-377.5 "/>
<text text-anchor="middle" x="48" y="-365.5" font-family="Helvetica,sans-Serif" font-size="10.00"> </text>
</g>
<!-- Node2&#45;&gt;Node1 -->
<g id="edge1" class="edge"><title>Node2&#45;&gt;Node1</title>
<path fill="none" stroke="#404040" d="M53.8703,-358.465C61.9721,-320.464 77.0106,-249.926 89.6251,-190.759"/>
<polygon fill="none" stroke="#404040" points="89.6924,-190.442 87.0315,-183.74 92.1947,-178.706 94.8556,-185.408 89.6924,-190.442"/>
<text text-anchor="middle" x="110" y="-227.5" font-family="Helvetica,sans-Serif" font-size="10.00"> +face_idx</text>
</g>
<!-- Node3 -->
<g id="node3" class="node"><title>Node3</title>
<g id="a_node3"><a xlink:href="class_cosmos_1_1_math_1_1_vectors_1_1_vector.html" target="_top" xlink:title="Vector Class. ">
<polygon fill="white" stroke="black" points="114.5,-281.5 114.5,-492.5 235.5,-492.5 235.5,-281.5 114.5,-281.5"/>
<text text-anchor="start" x="122.5" y="-480.5" font-family="Helvetica,sans-Serif" font-size="10.00">Cosmos::Math::Vectors</text>
<text text-anchor="middle" x="175" y="-469.5" font-family="Helvetica,sans-Serif" font-size="10.00">::Vector</text>
<polyline fill="none" stroke="black" points="114.5,-462.5 235.5,-462.5 "/>
<text text-anchor="start" x="122.5" y="-450.5" font-family="Helvetica,sans-Serif" font-size="10.00">+ x</text>
<text text-anchor="start" x="122.5" y="-439.5" font-family="Helvetica,sans-Serif" font-size="10.00">+ y</text>
<text text-anchor="start" x="122.5" y="-428.5" font-family="Helvetica,sans-Serif" font-size="10.00">+ z</text>
<text text-anchor="start" x="122.5" y="-417.5" font-family="Helvetica,sans-Serif" font-size="10.00">+ w</text>
<polyline fill="none" stroke="black" points="114.5,-410.5 235.5,-410.5 "/>
<text text-anchor="start" x="122.5" y="-398.5" font-family="Helvetica,sans-Serif" font-size="10.00">+ Vector()</text>
<text text-anchor="start" x="122.5" y="-387.5" font-family="Helvetica,sans-Serif" font-size="10.00">+ Vector()</text>
<text text-anchor="start" x="122.5" y="-376.5" font-family="Helvetica,sans-Serif" font-size="10.00">+ Vector()</text>
<text text-anchor="start" x="122.5" y="-365.5" font-family="Helvetica,sans-Serif" font-size="10.00">+ Vector()</text>
<text text-anchor="start" x="122.5" y="-354.5" font-family="Helvetica,sans-Serif" font-size="10.00">+ at()</text>
<text text-anchor="start" x="122.5" y="-343.5" font-family="Helvetica,sans-Serif" font-size="10.00">+ to_rv()</text>
<text text-anchor="start" x="122.5" y="-332.5" font-family="Helvetica,sans-Serif" font-size="10.00">+ to_cv()</text>
<text text-anchor="start" x="122.5" y="-321.5" font-family="Helvetica,sans-Serif" font-size="10.00">+ to_q()</text>
<text text-anchor="start" x="122.5" y="-310.5" font-family="Helvetica,sans-Serif" font-size="10.00">+ cross()</text>
<text text-anchor="start" x="122.5" y="-299.5" font-family="Helvetica,sans-Serif" font-size="10.00">+ dot()</text>
<text text-anchor="start" x="122.5" y="-288.5" font-family="Helvetica,sans-Serif" font-size="10.00">and 26 more...</text>
</a>
</g>
</g>
<!-- Node3&#45;&gt;Node1 -->
<g id="edge2" class="edge"><title>Node3&#45;&gt;Node1</title>
<path fill="none" stroke="#404040" d="M154.759,-281.364C149.223,-253.871 143.07,-224.28 137,-197 136.525,-194.863 136.04,-192.704 135.546,-190.528"/>
<polygon fill="none" stroke="#404040" points="135.532,-190.464 130.29,-185.512 132.845,-178.769 138.087,-183.721 135.532,-190.464"/>
<text text-anchor="middle" x="192.5" y="-255" font-family="Helvetica,sans-Serif" font-size="10.00"> +material_diffuse</text>
<text text-anchor="middle" x="192.5" y="-244" font-family="Helvetica,sans-Serif" font-size="10.00">+com</text>
<text text-anchor="middle" x="192.5" y="-233" font-family="Helvetica,sans-Serif" font-size="10.00">+material_specular</text>
<text text-anchor="middle" x="192.5" y="-222" font-family="Helvetica,sans-Serif" font-size="10.00">+twist</text>
<text text-anchor="middle" x="192.5" y="-211" font-family="Helvetica,sans-Serif" font-size="10.00">+shove</text>
<text text-anchor="middle" x="192.5" y="-200" font-family="Helvetica,sans-Serif" font-size="10.00">+material_ambient</text>
</g>
</g>
</svg>
