<?xml version="1.0" encoding="UTF-8" standalone="no"?>
<!DOCTYPE svg PUBLIC "-//W3C//DTD SVG 1.1//EN"
 "http://www.w3.org/Graphics/SVG/1.1/DTD/svg11.dtd">
<!-- Generated by graphviz version 2.38.0 (20140413.2041)
 -->
<!-- Title: huff_entropy_decoder Pages: 1 -->
<svg width="426pt" height="386pt"
 viewBox="0.00 0.00 426.00 386.00" xmlns="http://www.w3.org/2000/svg" xmlns:xlink="http://www.w3.org/1999/xlink">
<g id="graph0" class="graph" transform="scale(1 1) rotate(0) translate(4 382)">
<title>huff_entropy_decoder</title>
<polygon fill="white" stroke="none" points="-4,4 -4,-382 422,-382 422,4 -4,4"/>
<!-- Node1 -->
<g id="node1" class="node"><title>Node1</title>
<polygon fill="#bfbfbf" stroke="black" points="140,-0.5 140,-79.5 250,-79.5 250,-0.5 140,-0.5"/>
<text text-anchor="middle" x="195" y="-67.5" font-family="Helvetica,sans-Serif" font-size="10.00">huff_entropy_decoder</text>
<polyline fill="none" stroke="black" points="140,-60.5 250,-60.5 "/>
<text text-anchor="start" x="148" y="-48.5" font-family="Helvetica,sans-Serif" font-size="10.00">+ restarts_to_go</text>
<text text-anchor="start" x="148" y="-37.5" font-family="Helvetica,sans-Serif" font-size="10.00">+ dc_needed</text>
<text text-anchor="start" x="148" y="-26.5" font-family="Helvetica,sans-Serif" font-size="10.00">+ ac_needed</text>
<polyline fill="none" stroke="black" points="140,-19.5 250,-19.5 "/>
<text text-anchor="middle" x="195" y="-7.5" font-family="Helvetica,sans-Serif" font-size="10.00"> </text>
</g>
<!-- Node2 -->
<g id="node2" class="node"><title>Node2</title>
<g id="a_node2"><a xlink:href="structd__derived__tbl.html" target="_top" xlink:title="{d_derived_tbl\n|+ maxcode\l+ valoffset\l+ look_nbits\l+ look_sym\l|}">
<polygon fill="white" stroke="black" points="0,-160.5 0,-250.5 74,-250.5 74,-160.5 0,-160.5"/>
<text text-anchor="middle" x="37" y="-238.5" font-family="Helvetica,sans-Serif" font-size="10.00">d_derived_tbl</text>
<polyline fill="none" stroke="black" points="0,-231.5 74,-231.5 "/>
<text text-anchor="start" x="8" y="-219.5" font-family="Helvetica,sans-Serif" font-size="10.00">+ maxcode</text>
<text text-anchor="start" x="8" y="-208.5" font-family="Helvetica,sans-Serif" font-size="10.00">+ valoffset</text>
<text text-anchor="start" x="8" y="-197.5" font-family="Helvetica,sans-Serif" font-size="10.00">+ look_nbits</text>
<text text-anchor="start" x="8" y="-186.5" font-family="Helvetica,sans-Serif" font-size="10.00">+ look_sym</text>
<polyline fill="none" stroke="black" points="0,-179.5 74,-179.5 "/>
<text text-anchor="middle" x="37" y="-167.5" font-family="Helvetica,sans-Serif" font-size="10.00"> </text>
</a>
</g>
</g>
<!-- Node2&#45;&gt;Node1 -->
<g id="edge1" class="edge"><title>Node2&#45;&gt;Node1</title>
<path fill="none" stroke="#404040" d="M47.9428,-160.371C54.9096,-139.485 65.7572,-115.376 82,-98 94.9239,-84.1743 111.943,-73.1995 128.839,-64.7223"/>
<polygon fill="none" stroke="#404040" points="129.029,-64.6325 132.746,-58.4531 139.88,-59.5074 136.163,-65.6868 129.029,-64.6325"/>
<text text-anchor="middle" x="121" y="-134" font-family="Helvetica,sans-Serif" font-size="10.00"> +dc_derived_tbls</text>
<text text-anchor="middle" x="121" y="-123" font-family="Helvetica,sans-Serif" font-size="10.00">+dc_cur_tbls</text>
<text text-anchor="middle" x="121" y="-112" font-family="Helvetica,sans-Serif" font-size="10.00">+ac_cur_tbls</text>
<text text-anchor="middle" x="121" y="-101" font-family="Helvetica,sans-Serif" font-size="10.00">+ac_derived_tbls</text>
</g>
<!-- Node3 -->
<g id="node3" class="node"><title>Node3</title>
<g id="a_node3"><a xlink:href="struct_j_h_u_f_f___t_b_l.html" target="_top" xlink:title="{JHUFF_TBL\n|+ bits\l+ huffval\l+ sent_table\l|}">
<polygon fill="white" stroke="black" points="1,-298.5 1,-377.5 73,-377.5 73,-298.5 1,-298.5"/>
<text text-anchor="middle" x="37" y="-365.5" font-family="Helvetica,sans-Serif" font-size="10.00">JHUFF_TBL</text>
<polyline fill="none" stroke="black" points="1,-358.5 73,-358.5 "/>
<text text-anchor="start" x="9" y="-346.5" font-family="Helvetica,sans-Serif" font-size="10.00">+ bits</text>
<text text-anchor="start" x="9" y="-335.5" font-family="Helvetica,sans-Serif" font-size="10.00">+ huffval</text>
<text text-anchor="start" x="9" y="-324.5" font-family="Helvetica,sans-Serif" font-size="10.00">+ sent_table</text>
<polyline fill="none" stroke="black" points="1,-317.5 73,-317.5 "/>
<text text-anchor="middle" x="37" y="-305.5" font-family="Helvetica,sans-Serif" font-size="10.00"> </text>
</a>
</g>
</g>
<!-- Node3&#45;&gt;Node2 -->
<g id="edge2" class="edge"><title>Node3&#45;&gt;Node2</title>
<path fill="none" stroke="#404040" d="M37,-298.199C37,-287.158 37,-274.901 37,-263.035"/>
<polygon fill="none" stroke="#404040" points="37.0001,-262.879 33,-256.879 37,-250.879 41,-256.879 37.0001,-262.879"/>
<text text-anchor="middle" x="49.5" y="-272" font-family="Helvetica,sans-Serif" font-size="10.00"> +pub</text>
</g>
<!-- Node4 -->
<g id="node4" class="node"><title>Node4</title>
<g id="a_node4"><a xlink:href="structbitread__perm__state.html" target="_top" xlink:title="{bitread_perm_state\n|+ get_buffer\l+ bits_left\l|}">
<polygon fill="white" stroke="black" points="92,-171.5 92,-239.5 192,-239.5 192,-171.5 92,-171.5"/>
<text text-anchor="middle" x="142" y="-227.5" font-family="Helvetica,sans-Serif" font-size="10.00">bitread_perm_state</text>
<polyline fill="none" stroke="black" points="92,-220.5 192,-220.5 "/>
<text text-anchor="start" x="100" y="-208.5" font-family="Helvetica,sans-Serif" font-size="10.00">+ get_buffer</text>
<text text-anchor="start" x="100" y="-197.5" font-family="Helvetica,sans-Serif" font-size="10.00">+ bits_left</text>
<polyline fill="none" stroke="black" points="92,-190.5 192,-190.5 "/>
<text text-anchor="middle" x="142" y="-178.5" font-family="Helvetica,sans-Serif" font-size="10.00"> </text>
</a>
</g>
</g>
<!-- Node4&#45;&gt;Node1 -->
<g id="edge3" class="edge"><title>Node4&#45;&gt;Node1</title>
<path fill="none" stroke="#404040" d="M152.725,-171.413C160.175,-148.433 170.239,-117.385 178.679,-91.3491"/>
<polygon fill="none" stroke="#404040" points="178.727,-91.2013 176.772,-84.2602 182.427,-79.7861 184.382,-86.7272 178.727,-91.2013"/>
<text text-anchor="middle" x="198" y="-117.5" font-family="Helvetica,sans-Serif" font-size="10.00"> +bitstate</text>
</g>
<!-- Node5 -->
<g id="node5" class="node"><title>Node5</title>
<g id="a_node5"><a xlink:href="structsavable__state.html" target="_top" xlink:title="{savable_state\n|+ put_buffer\l+ put_bits\l+ last_dc_val\l+ EOBRUN\l|}">
<polygon fill="white" stroke="black" points="210.5,-160.5 210.5,-250.5 287.5,-250.5 287.5,-160.5 210.5,-160.5"/>
<text text-anchor="middle" x="249" y="-238.5" font-family="Helvetica,sans-Serif" font-size="10.00">savable_state</text>
<polyline fill="none" stroke="black" points="210.5,-231.5 287.5,-231.5 "/>
<text text-anchor="start" x="218.5" y="-219.5" font-family="Helvetica,sans-Serif" font-size="10.00">+ put_buffer</text>
<text text-anchor="start" x="218.5" y="-208.5" font-family="Helvetica,sans-Serif" font-size="10.00">+ put_bits</text>
<text text-anchor="start" x="218.5" y="-197.5" font-family="Helvetica,sans-Serif" font-size="10.00">+ last_dc_val</text>
<text text-anchor="start" x="218.5" y="-186.5" font-family="Helvetica,sans-Serif" font-size="10.00">+ EOBRUN</text>
<polyline fill="none" stroke="black" points="210.5,-179.5 287.5,-179.5 "/>
<text text-anchor="middle" x="249" y="-167.5" font-family="Helvetica,sans-Serif" font-size="10.00"> </text>
</a>
</g>
</g>
<!-- Node5&#45;&gt;Node1 -->
<g id="edge4" class="edge"><title>Node5&#45;&gt;Node1</title>
<path fill="none" stroke="#404040" d="M240.476,-160.339C236.155,-140.928 230.27,-118.039 223,-98 222.148,-95.6518 221.228,-93.2728 220.258,-90.8869"/>
<polygon fill="none" stroke="#404040" points="220.206,-90.7672 214.147,-86.857 215.426,-79.7602 221.485,-83.6704 220.206,-90.7672"/>
<text text-anchor="middle" x="254" y="-117.5" font-family="Helvetica,sans-Serif" font-size="10.00"> +saved</text>
</g>
<!-- Node6 -->
<g id="node6" class="node"><title>Node6</title>
<g id="a_node6"><a xlink:href="structjpeg__entropy__decoder.html" target="_top" xlink:title="{jpeg_entropy_decoder\n|+ insufficient_data\l|+ JMETHOD()\l+ JMETHOD()\l}">
<polygon fill="white" stroke="black" points="306,-171.5 306,-239.5 418,-239.5 418,-171.5 306,-171.5"/>
<text text-anchor="middle" x="362" y="-227.5" font-family="Helvetica,sans-Serif" font-size="10.00">jpeg_entropy_decoder</text>
<polyline fill="none" stroke="black" points="306,-220.5 418,-220.5 "/>
<text text-anchor="start" x="314" y="-208.5" font-family="Helvetica,sans-Serif" font-size="10.00">+ insufficient_data</text>
<polyline fill="none" stroke="black" points="306,-201.5 418,-201.5 "/>
<text text-anchor="start" x="314" y="-189.5" font-family="Helvetica,sans-Serif" font-size="10.00">+ JMETHOD()</text>
<text text-anchor="start" x="314" y="-178.5" font-family="Helvetica,sans-Serif" font-size="10.00">+ JMETHOD()</text>
</a>
</g>
</g>
<!-- Node6&#45;&gt;Node1 -->
<g id="edge5" class="edge"><title>Node6&#45;&gt;Node1</title>
<path fill="none" stroke="#404040" d="M338.937,-171.28C322.729,-149.185 299.77,-120.249 276,-98 270.933,-93.2575 265.451,-88.5937 259.81,-84.1016"/>
<polygon fill="none" stroke="#404040" points="259.724,-84.0357 252.529,-83.5487 250.212,-76.7201 257.407,-77.2072 259.724,-84.0357"/>
<text text-anchor="middle" x="327.5" y="-117.5" font-family="Helvetica,sans-Serif" font-size="10.00"> +pub</text>
</g>
</g>
</svg>
