<?xml version="1.0" encoding="UTF-8" standalone="no"?>
<!DOCTYPE svg PUBLIC "-//W3C//DTD SVG 1.1//EN"
 "http://www.w3.org/Graphics/SVG/1.1/DTD/svg11.dtd">
<!-- Generated by graphviz version 2.38.0 (20140413.2041)
 -->
<!-- Title: gjstruc Pages: 1 -->
<!--zoomable 1130 -->
<svg id="main" version="1.1" xmlns="http://www.w3.org/2000/svg" xmlns:xlink="http://www.w3.org/1999/xlink" xml:space="preserve" onload="init(evt)">
<style type="text/css"><![CDATA[
.edge:hover path { stroke: red; }
.edge:hover polygon { stroke: red; fill: red; }
]]></style>
<script type="text/javascript"><![CDATA[
var edges = document.getElementsByTagName('g');
if (edges && edges.length) {
  for (var i=0;i<edges.length;i++) {
    if (edges[i].id.substr(0,4)=='edge') {
      edges[i].setAttribute('class','edge');
    }
  }
}
]]></script>
        <defs>
                <circle id="rim" cx="0" cy="0" r="7"/>
                <circle id="rim2" cx="0" cy="0" r="3.5"/>
                <g id="zoomPlus">
                        <use xlink:href="#rim" fill="#404040">
                                <set attributeName="fill" to="#808080" begin="zoomplus.mouseover" end="zoomplus.mouseout"/>
                        </use>
                        <path d="M-4,0h8M0,-4v8" fill="none" stroke="white" stroke-width="1.5" pointer-events="none"/>
                </g>
                <g id="zoomMin">
                        <use xlink:href="#rim" fill="#404040">
                                <set attributeName="fill" to="#808080" begin="zoomminus.mouseover" end="zoomminus.mouseout"/>
                        </use>
                        <path d="M-4,0h8" fill="none" stroke="white" stroke-width="1.5" pointer-events="none"/>
                </g>
                <g id="dirArrow">
                        <path fill="none" stroke="white" stroke-width="1.5" d="M0,-3.0v7 M-2.5,-0.5L0,-3.0L2.5,-0.5"/>
                </g>
               <g id="resetDef">
                       <use xlink:href="#rim2" fill="#404040">
                               <set attributeName="fill" to="#808080" begin="reset.mouseover" end="reset.mouseout"/>
                       </use>
               </g>
        </defs>

<script type="text/javascript">
var viewWidth = 636;
var viewHeight = 1130;
var sectionId = 'dynsection-0';
</script>
<script xlink:href="svgpan.js"/>
<svg id="graph" class="graph">
<g id="viewport">
<title>gjstruc</title>
<polygon fill="white" stroke="none" points="-4,4 -4,-1126 631.5,-1126 631.5,4 -4,4"/>
<!-- Node1 -->
<g id="node1" class="node"><title>Node1</title>
<polygon fill="#bfbfbf" stroke="black" points="521.5,-0.5 521.5,-68.5 567.5,-68.5 567.5,-0.5 521.5,-0.5"/>
<text text-anchor="middle" x="544.5" y="-56.5" font-family="Helvetica,sans-Serif" font-size="10.00">gjstruc</text>
<polyline fill="none" stroke="black" points="521.5,-49.5 567.5,-49.5 "/>
<text text-anchor="start" x="529.5" y="-37.5" font-family="Helvetica,sans-Serif" font-size="10.00">+ a</text>
<text text-anchor="start" x="529.5" y="-26.5" font-family="Helvetica,sans-Serif" font-size="10.00">+ b</text>
<polyline fill="none" stroke="black" points="521.5,-19.5 567.5,-19.5 "/>
<text text-anchor="middle" x="544.5" y="-7.5" font-family="Helvetica,sans-Serif" font-size="10.00"> </text>
</g>
<!-- Node2 -->
<g id="node2" class="node"><title>Node2</title>
<g id="a_node2"><a xlink:href="structlocstruc.html" target="_top" xlink:title="{locstruc\n|+ utc\l|+ to_json()\l+ from_json()\l}">
<polygon fill="white" stroke="black" points="361.5,-116.5 361.5,-184.5 435.5,-184.5 435.5,-116.5 361.5,-116.5"/>
<text text-anchor="middle" x="398.5" y="-172.5" font-family="Helvetica,sans-Serif" font-size="10.00">locstruc</text>
<polyline fill="none" stroke="black" points="361.5,-165.5 435.5,-165.5 "/>
<text text-anchor="start" x="369.5" y="-153.5" font-family="Helvetica,sans-Serif" font-size="10.00">+ utc</text>
<polyline fill="none" stroke="black" points="361.5,-146.5 435.5,-146.5 "/>
<text text-anchor="start" x="369.5" y="-134.5" font-family="Helvetica,sans-Serif" font-size="10.00">+ to_json()</text>
<text text-anchor="start" x="369.5" y="-123.5" font-family="Helvetica,sans-Serif" font-size="10.00">+ from_json()</text>
</a>
</g>
</g>
<!-- Node2&#45;&gt;Node1 -->
<g id="edge1" class="edge"><title>Node2&#45;&gt;Node1</title>
<path fill="none" stroke="#404040" d="M435.72,-120.438C459.27,-102.05 489.42,-78.5074 512.004,-60.8737"/>
<polygon fill="none" stroke="#404040" points="512.028,-60.8546 514.296,-54.0092 521.487,-53.4693 519.219,-60.3147 512.028,-60.8546"/>
<text text-anchor="middle" x="489.5" y="-90" font-family="Helvetica,sans-Serif" font-size="10.00"> +sloc</text>
</g>
<!-- Node3 -->
<g id="node3" class="node"><title>Node3</title>
<g id="a_node3"><a xlink:href="structposstruc.html" target="_top" xlink:title="{posstruc\n|+ utc\l+ earthsep\l+ moonsep\l+ sunsize\l+ sunradiance\l+ orbit\l|+ to_json()\l+ from_json()\l}">
<polygon fill="white" stroke="black" points="359.5,-232.5 359.5,-355.5 437.5,-355.5 437.5,-232.5 359.5,-232.5"/>
<text text-anchor="middle" x="398.5" y="-343.5" font-family="Helvetica,sans-Serif" font-size="10.00">posstruc</text>
<polyline fill="none" stroke="black" points="359.5,-336.5 437.5,-336.5 "/>
<text text-anchor="start" x="367.5" y="-324.5" font-family="Helvetica,sans-Serif" font-size="10.00">+ utc</text>
<text text-anchor="start" x="367.5" y="-313.5" font-family="Helvetica,sans-Serif" font-size="10.00">+ earthsep</text>
<text text-anchor="start" x="367.5" y="-302.5" font-family="Helvetica,sans-Serif" font-size="10.00">+ moonsep</text>
<text text-anchor="start" x="367.5" y="-291.5" font-family="Helvetica,sans-Serif" font-size="10.00">+ sunsize</text>
<text text-anchor="start" x="367.5" y="-280.5" font-family="Helvetica,sans-Serif" font-size="10.00">+ sunradiance</text>
<text text-anchor="start" x="367.5" y="-269.5" font-family="Helvetica,sans-Serif" font-size="10.00">+ orbit</text>
<polyline fill="none" stroke="black" points="359.5,-262.5 437.5,-262.5 "/>
<text text-anchor="start" x="367.5" y="-250.5" font-family="Helvetica,sans-Serif" font-size="10.00">+ to_json()</text>
<text text-anchor="start" x="367.5" y="-239.5" font-family="Helvetica,sans-Serif" font-size="10.00">+ from_json()</text>
</a>
</g>
</g>
<!-- Node3&#45;&gt;Node2 -->
<g id="edge2" class="edge"><title>Node3&#45;&gt;Node2</title>
<path fill="none" stroke="#404040" d="M398.5,-232.17C398.5,-220.306 398.5,-208.062 398.5,-196.809"/>
<polygon fill="none" stroke="#404040" points="398.5,-196.597 394.5,-190.597 398.5,-184.597 402.5,-190.597 398.5,-196.597"/>
<text text-anchor="middle" x="411" y="-206" font-family="Helvetica,sans-Serif" font-size="10.00"> +pos</text>
</g>
<!-- Node4 -->
<g id="node4" class="node"><title>Node4</title>
<g id="a_node4"><a xlink:href="structgeoidpos.html" target="_top" xlink:title="Geodetic position structure. ">
<polygon fill="white" stroke="black" points="361.5,-486 361.5,-565 435.5,-565 435.5,-486 361.5,-486"/>
<text text-anchor="middle" x="398.5" y="-553" font-family="Helvetica,sans-Serif" font-size="10.00">geoidpos</text>
<polyline fill="none" stroke="black" points="361.5,-546 435.5,-546 "/>
<text text-anchor="start" x="369.5" y="-534" font-family="Helvetica,sans-Serif" font-size="10.00">+ utc</text>
<text text-anchor="start" x="369.5" y="-523" font-family="Helvetica,sans-Serif" font-size="10.00">+ pass</text>
<polyline fill="none" stroke="black" points="361.5,-516 435.5,-516 "/>
<text text-anchor="start" x="369.5" y="-504" font-family="Helvetica,sans-Serif" font-size="10.00">+ to_json()</text>
<text text-anchor="start" x="369.5" y="-493" font-family="Helvetica,sans-Serif" font-size="10.00">+ from_json()</text>
</a>
</g>
</g>
<!-- Node4&#45;&gt;Node3 -->
<g id="edge3" class="edge"><title>Node4&#45;&gt;Node3</title>
<path fill="none" stroke="#404040" d="M398.5,-485.828C398.5,-453.713 398.5,-407.13 398.5,-368.028"/>
<polygon fill="none" stroke="#404040" points="398.5,-367.891 394.5,-361.891 398.5,-355.891 402.5,-361.891 398.5,-367.891"/>
<text text-anchor="middle" x="412.5" y="-404.5" font-family="Helvetica,sans-Serif" font-size="10.00"> +selg</text>
<text text-anchor="middle" x="412.5" y="-393.5" font-family="Helvetica,sans-Serif" font-size="10.00">+geod</text>
</g>
<!-- Node5 -->
<g id="node5" class="node"><title>Node5</title>
<g id="a_node5"><a xlink:href="structgvector.html" target="_top" xlink:title="3 element geodetic vector ">
<polygon fill="white" stroke="black" points="361.5,-761.5 361.5,-873.5 435.5,-873.5 435.5,-761.5 361.5,-761.5"/>
<text text-anchor="middle" x="398.5" y="-861.5" font-family="Helvetica,sans-Serif" font-size="10.00">gvector</text>
<polyline fill="none" stroke="black" points="361.5,-854.5 435.5,-854.5 "/>
<text text-anchor="start" x="369.5" y="-842.5" font-family="Helvetica,sans-Serif" font-size="10.00">+ lat</text>
<text text-anchor="start" x="369.5" y="-831.5" font-family="Helvetica,sans-Serif" font-size="10.00">+ lon</text>
<text text-anchor="start" x="369.5" y="-820.5" font-family="Helvetica,sans-Serif" font-size="10.00">+ h</text>
<polyline fill="none" stroke="black" points="361.5,-813.5 435.5,-813.5 "/>
<text text-anchor="start" x="369.5" y="-801.5" font-family="Helvetica,sans-Serif" font-size="10.00">+ gvector()</text>
<text text-anchor="start" x="369.5" y="-790.5" font-family="Helvetica,sans-Serif" font-size="10.00">+ gvector()</text>
<text text-anchor="start" x="369.5" y="-779.5" font-family="Helvetica,sans-Serif" font-size="10.00">+ to_json()</text>
<text text-anchor="start" x="369.5" y="-768.5" font-family="Helvetica,sans-Serif" font-size="10.00">+ from_json()</text>
</a>
</g>
</g>
<!-- Node5&#45;&gt;Node4 -->
<g id="edge4" class="edge"><title>Node5&#45;&gt;Node4</title>
<path fill="none" stroke="#404040" d="M398.5,-761.271C398.5,-708.286 398.5,-628.935 398.5,-577.435"/>
<polygon fill="none" stroke="#404040" points="398.5,-577.295 394.5,-571.295 398.5,-565.295 402.5,-571.294 398.5,-577.295"/>
<text text-anchor="middle" x="406" y="-691" font-family="Helvetica,sans-Serif" font-size="10.00"> +a</text>
<text text-anchor="middle" x="406" y="-680" font-family="Helvetica,sans-Serif" font-size="10.00">+s</text>
<text text-anchor="middle" x="406" y="-669" font-family="Helvetica,sans-Serif" font-size="10.00">+v</text>
</g>
<!-- Node6 -->
<g id="node6" class="node"><title>Node6</title>
<g id="a_node6"><a xlink:href="structspherpos.html" target="_top" xlink:title="Spherical position structure. ">
<polygon fill="white" stroke="black" points="453.5,-486 453.5,-565 527.5,-565 527.5,-486 453.5,-486"/>
<text text-anchor="middle" x="490.5" y="-553" font-family="Helvetica,sans-Serif" font-size="10.00">spherpos</text>
<polyline fill="none" stroke="black" points="453.5,-546 527.5,-546 "/>
<text text-anchor="start" x="461.5" y="-534" font-family="Helvetica,sans-Serif" font-size="10.00">+ utc</text>
<text text-anchor="start" x="461.5" y="-523" font-family="Helvetica,sans-Serif" font-size="10.00">+ pass</text>
<polyline fill="none" stroke="black" points="453.5,-516 527.5,-516 "/>
<text text-anchor="start" x="461.5" y="-504" font-family="Helvetica,sans-Serif" font-size="10.00">+ to_json()</text>
<text text-anchor="start" x="461.5" y="-493" font-family="Helvetica,sans-Serif" font-size="10.00">+ from_json()</text>
</a>
</g>
</g>
<!-- Node6&#45;&gt;Node3 -->
<g id="edge5" class="edge"><title>Node6&#45;&gt;Node3</title>
<path fill="none" stroke="#404040" d="M475.144,-485.812C463.056,-455.4 445.761,-411.975 430.5,-374 429.573,-371.694 428.63,-369.35 427.677,-366.984"/>
<polygon fill="none" stroke="#404040" points="427.655,-366.929 421.702,-362.861 423.167,-355.8 429.121,-359.869 427.655,-366.929"/>
<text text-anchor="middle" x="467" y="-399" font-family="Helvetica,sans-Serif" font-size="10.00"> +geos</text>
</g>
<!-- Node7 -->
<g id="node7" class="node"><title>Node7</title>
<g id="a_node7"><a xlink:href="structsvector.html" target="_top" xlink:title="3 element spherical vector ">
<polygon fill="white" stroke="black" points="453.5,-761.5 453.5,-873.5 527.5,-873.5 527.5,-761.5 453.5,-761.5"/>
<text text-anchor="middle" x="490.5" y="-861.5" font-family="Helvetica,sans-Serif" font-size="10.00">svector</text>
<polyline fill="none" stroke="black" points="453.5,-854.5 527.5,-854.5 "/>
<text text-anchor="start" x="461.5" y="-842.5" font-family="Helvetica,sans-Serif" font-size="10.00">+ phi</text>
<text text-anchor="start" x="461.5" y="-831.5" font-family="Helvetica,sans-Serif" font-size="10.00">+ lambda</text>
<text text-anchor="start" x="461.5" y="-820.5" font-family="Helvetica,sans-Serif" font-size="10.00">+ r</text>
<polyline fill="none" stroke="black" points="453.5,-813.5 527.5,-813.5 "/>
<text text-anchor="start" x="461.5" y="-801.5" font-family="Helvetica,sans-Serif" font-size="10.00">+ svector()</text>
<text text-anchor="start" x="461.5" y="-790.5" font-family="Helvetica,sans-Serif" font-size="10.00">+ svector()</text>
<text text-anchor="start" x="461.5" y="-779.5" font-family="Helvetica,sans-Serif" font-size="10.00">+ to_json()</text>
<text text-anchor="start" x="461.5" y="-768.5" font-family="Helvetica,sans-Serif" font-size="10.00">+ from_json()</text>
</a>
</g>
</g>
<!-- Node7&#45;&gt;Node6 -->
<g id="edge6" class="edge"><title>Node7&#45;&gt;Node6</title>
<path fill="none" stroke="#404040" d="M490.5,-761.271C490.5,-708.286 490.5,-628.935 490.5,-577.435"/>
<polygon fill="none" stroke="#404040" points="490.5,-577.295 486.5,-571.295 490.5,-565.295 494.5,-571.294 490.5,-577.295"/>
<text text-anchor="middle" x="498" y="-691" font-family="Helvetica,sans-Serif" font-size="10.00"> +a</text>
<text text-anchor="middle" x="498" y="-680" font-family="Helvetica,sans-Serif" font-size="10.00">+s</text>
<text text-anchor="middle" x="498" y="-669" font-family="Helvetica,sans-Serif" font-size="10.00">+v</text>
</g>
<!-- Node8 -->
<g id="node8" class="node"><title>Node8</title>
<g id="a_node8"><a xlink:href="structcartpos.html" target="_top" xlink:title="Cartesian full position structure. ">
<polygon fill="white" stroke="black" points="258.5,-778 258.5,-857 332.5,-857 332.5,-778 258.5,-778"/>
<text text-anchor="middle" x="295.5" y="-845" font-family="Helvetica,sans-Serif" font-size="10.00">cartpos</text>
<polyline fill="none" stroke="black" points="258.5,-838 332.5,-838 "/>
<text text-anchor="start" x="266.5" y="-826" font-family="Helvetica,sans-Serif" font-size="10.00">+ utc</text>
<text text-anchor="start" x="266.5" y="-815" font-family="Helvetica,sans-Serif" font-size="10.00">+ pass</text>
<polyline fill="none" stroke="black" points="258.5,-808 332.5,-808 "/>
<text text-anchor="start" x="266.5" y="-796" font-family="Helvetica,sans-Serif" font-size="10.00">+ to_json()</text>
<text text-anchor="start" x="266.5" y="-785" font-family="Helvetica,sans-Serif" font-size="10.00">+ from_json()</text>
</a>
</g>
</g>
<!-- Node8&#45;&gt;Node3 -->
<g id="edge7" class="edge"><title>Node8&#45;&gt;Node3</title>
<path fill="none" stroke="#404040" d="M298.673,-777.975C299.594,-766.703 300.595,-754.359 301.5,-743 311.979,-611.465 289.901,-574.335 324.5,-447 331.941,-419.614 344.318,-391.231 356.84,-366.512"/>
<polygon fill="none" stroke="#404040" points="356.873,-366.448 356.082,-359.281 362.394,-355.793 363.185,-362.961 356.873,-366.448"/>
<text text-anchor="middle" x="338.5" y="-545" font-family="Helvetica,sans-Serif" font-size="10.00"> +selc</text>
<text text-anchor="middle" x="338.5" y="-534" font-family="Helvetica,sans-Serif" font-size="10.00">+icrf</text>
<text text-anchor="middle" x="338.5" y="-523" font-family="Helvetica,sans-Serif" font-size="10.00">+sci</text>
<text text-anchor="middle" x="338.5" y="-512" font-family="Helvetica,sans-Serif" font-size="10.00">+geoc</text>
<text text-anchor="middle" x="338.5" y="-501" font-family="Helvetica,sans-Serif" font-size="10.00">+eci</text>
</g>
<!-- Node10 -->
<g id="node10" class="node"><title>Node10</title>
<g id="a_node10"><a xlink:href="structextrapos.html" target="_top" xlink:title="Additional parameters relating to position that need only be calculated once. ">
<polygon fill="white" stroke="black" points="205.5,-447.5 205.5,-603.5 279.5,-603.5 279.5,-447.5 205.5,-447.5"/>
<text text-anchor="middle" x="242.5" y="-591.5" font-family="Helvetica,sans-Serif" font-size="10.00">extrapos</text>
<polyline fill="none" stroke="black" points="205.5,-584.5 279.5,-584.5 "/>
<text text-anchor="start" x="213.5" y="-572.5" font-family="Helvetica,sans-Serif" font-size="10.00">+ utc</text>
<text text-anchor="start" x="213.5" y="-561.5" font-family="Helvetica,sans-Serif" font-size="10.00">+ tt</text>
<text text-anchor="start" x="213.5" y="-550.5" font-family="Helvetica,sans-Serif" font-size="10.00">+ ut</text>
<text text-anchor="start" x="213.5" y="-539.5" font-family="Helvetica,sans-Serif" font-size="10.00">+ tdb</text>
<text text-anchor="start" x="213.5" y="-528.5" font-family="Helvetica,sans-Serif" font-size="10.00">+ j2e</text>
<text text-anchor="start" x="213.5" y="-517.5" font-family="Helvetica,sans-Serif" font-size="10.00">+ dj2e</text>
<text text-anchor="start" x="213.5" y="-506.5" font-family="Helvetica,sans-Serif" font-size="10.00">+ ddj2e</text>
<text text-anchor="start" x="213.5" y="-495.5" font-family="Helvetica,sans-Serif" font-size="10.00">+ de2j</text>
<text text-anchor="start" x="213.5" y="-484.5" font-family="Helvetica,sans-Serif" font-size="10.00">+ closest</text>
<polyline fill="none" stroke="black" points="205.5,-477.5 279.5,-477.5 "/>
<text text-anchor="start" x="213.5" y="-465.5" font-family="Helvetica,sans-Serif" font-size="10.00">+ to_json()</text>
<text text-anchor="start" x="213.5" y="-454.5" font-family="Helvetica,sans-Serif" font-size="10.00">+ from_json()</text>
</a>
</g>
</g>
<!-- Node8&#45;&gt;Node10 -->
<g id="edge11" class="edge"><title>Node8&#45;&gt;Node10</title>
<path fill="none" stroke="#404040" d="M263.82,-777.812C256.788,-767.145 250.301,-755.148 246.5,-743 233.809,-702.438 231.547,-655.479 232.978,-615.683"/>
<polygon fill="none" stroke="#404040" points="232.983,-615.565 229.262,-609.388 233.533,-603.577 237.254,-609.754 232.983,-615.565"/>
<text text-anchor="middle" x="274" y="-685.5" font-family="Helvetica,sans-Serif" font-size="10.00"> +sun2moon</text>
<text text-anchor="middle" x="274" y="-674.5" font-family="Helvetica,sans-Serif" font-size="10.00">+sun2earth</text>
</g>
<!-- Node9 -->
<g id="node9" class="node"><title>Node9</title>
<g id="a_node9"><a xlink:href="structrvector.html" target="_top" xlink:title="3 element generic row vector ">
<polygon fill="white" stroke="black" points="258.5,-987.5 258.5,-1077.5 332.5,-1077.5 332.5,-987.5 258.5,-987.5"/>
<text text-anchor="middle" x="295.5" y="-1065.5" font-family="Helvetica,sans-Serif" font-size="10.00">rvector</text>
<polyline fill="none" stroke="black" points="258.5,-1058.5 332.5,-1058.5 "/>
<text text-anchor="start" x="266.5" y="-1046.5" font-family="Helvetica,sans-Serif" font-size="10.00">+ col</text>
<polyline fill="none" stroke="black" points="258.5,-1039.5 332.5,-1039.5 "/>
<text text-anchor="start" x="266.5" y="-1027.5" font-family="Helvetica,sans-Serif" font-size="10.00">+ rvector()</text>
<text text-anchor="start" x="266.5" y="-1016.5" font-family="Helvetica,sans-Serif" font-size="10.00">+ rvector()</text>
<text text-anchor="start" x="266.5" y="-1005.5" font-family="Helvetica,sans-Serif" font-size="10.00">+ to_json()</text>
<text text-anchor="start" x="266.5" y="-994.5" font-family="Helvetica,sans-Serif" font-size="10.00">+ from_json()</text>
</a>
</g>
</g>
<!-- Node9&#45;&gt;Node1 -->
<g id="edge21" class="edge"><title>Node9&#45;&gt;Node1</title>
<path fill="none" stroke="#404040" d="M332.516,-1024.48C415.161,-1006.45 607.5,-950.327 607.5,-818.5 607.5,-818.5 607.5,-818.5 607.5,-149.5 607.5,-120.023 591.165,-91.0068 575.131,-69.6252"/>
<polygon fill="none" stroke="#404040" points="575.028,-69.495 568.173,-67.2579 567.601,-60.0694 574.456,-62.3066 575.028,-69.495"/>
<text text-anchor="middle" x="617.5" y="-421" font-family="Helvetica,sans-Serif" font-size="10.00"> +s</text>
<text text-anchor="middle" x="617.5" y="-410" font-family="Helvetica,sans-Serif" font-size="10.00">+tau</text>
<text text-anchor="middle" x="617.5" y="-399" font-family="Helvetica,sans-Serif" font-size="10.00">+sa</text>
<text text-anchor="middle" x="617.5" y="-388" font-family="Helvetica,sans-Serif" font-size="10.00">+sb</text>
<text text-anchor="middle" x="617.5" y="-377" font-family="Helvetica,sans-Serif" font-size="10.00">+ss</text>
</g>
<!-- Node9&#45;&gt;Node3 -->
<g id="edge9" class="edge"><title>Node9&#45;&gt;Node3</title>
<path fill="none" stroke="#404040" d="M332.956,-1019.85C389.094,-1000.11 493.09,-954.227 536.5,-874 559.078,-832.272 550.533,-492.322 536.5,-447 521.532,-398.658 480.717,-357.183 447.33,-329.828"/>
<polygon fill="none" stroke="#404040" points="447.076,-329.626 439.891,-329.014 437.692,-322.147 444.877,-322.758 447.076,-329.626"/>
<text text-anchor="middle" x="568" y="-680" font-family="Helvetica,sans-Serif" font-size="10.00"> +bearth</text>
</g>
<!-- Node9&#45;&gt;Node8 -->
<g id="edge8" class="edge"><title>Node9&#45;&gt;Node8</title>
<path fill="none" stroke="#404040" d="M295.5,-987.366C295.5,-953.031 295.5,-905.342 295.5,-869.397"/>
<polygon fill="none" stroke="#404040" points="295.5,-869.214 291.5,-863.214 295.5,-857.214 299.5,-863.214 295.5,-869.214"/>
<text text-anchor="middle" x="303" y="-917" font-family="Helvetica,sans-Serif" font-size="10.00"> +a</text>
<text text-anchor="middle" x="303" y="-906" font-family="Helvetica,sans-Serif" font-size="10.00">+s</text>
<text text-anchor="middle" x="303" y="-895" font-family="Helvetica,sans-Serif" font-size="10.00">+v</text>
</g>
<!-- Node11 -->
<g id="node11" class="node"><title>Node11</title>
<g id="a_node11"><a xlink:href="structrmatrix.html" target="_top" xlink:title="3x3 element generic matrix ">
<polygon fill="white" stroke="black" points="155.5,-772.5 155.5,-862.5 229.5,-862.5 229.5,-772.5 155.5,-772.5"/>
<text text-anchor="middle" x="192.5" y="-850.5" font-family="Helvetica,sans-Serif" font-size="10.00">rmatrix</text>
<polyline fill="none" stroke="black" points="155.5,-843.5 229.5,-843.5 "/>
<text text-anchor="middle" x="192.5" y="-831.5" font-family="Helvetica,sans-Serif" font-size="10.00"> </text>
<polyline fill="none" stroke="black" points="155.5,-824.5 229.5,-824.5 "/>
<text text-anchor="start" x="163.5" y="-812.5" font-family="Helvetica,sans-Serif" font-size="10.00">+ rmatrix()</text>
<text text-anchor="start" x="163.5" y="-801.5" font-family="Helvetica,sans-Serif" font-size="10.00">+ rmatrix()</text>
<text text-anchor="start" x="163.5" y="-790.5" font-family="Helvetica,sans-Serif" font-size="10.00">+ to_json()</text>
<text text-anchor="start" x="163.5" y="-779.5" font-family="Helvetica,sans-Serif" font-size="10.00">+ from_json()</text>
</a>
</g>
</g>
<!-- Node9&#45;&gt;Node11 -->
<g id="edge13" class="edge"><title>Node9&#45;&gt;Node11</title>
<path fill="none" stroke="#404040" d="M274.158,-987.366C258.207,-954.38 236.297,-909.069 219.187,-873.688"/>
<polygon fill="none" stroke="#404040" points="219.038,-873.38 212.825,-869.72 213.814,-862.577 220.027,-866.237 219.038,-873.38"/>
<text text-anchor="middle" x="257" y="-906" font-family="Helvetica,sans-Serif" font-size="10.00"> +row</text>
</g>
<!-- Node13 -->
<g id="node13" class="node"><title>Node13</title>
<g id="a_node13"><a xlink:href="structqatt.html" target="_top" xlink:title="Quaternion Attitude. ">
<polygon fill="white" stroke="black" points="20.5,-486 20.5,-565 94.5,-565 94.5,-486 20.5,-486"/>
<text text-anchor="middle" x="57.5" y="-553" font-family="Helvetica,sans-Serif" font-size="10.00">qatt</text>
<polyline fill="none" stroke="black" points="20.5,-546 94.5,-546 "/>
<text text-anchor="start" x="28.5" y="-534" font-family="Helvetica,sans-Serif" font-size="10.00">+ utc</text>
<text text-anchor="start" x="28.5" y="-523" font-family="Helvetica,sans-Serif" font-size="10.00">+ pass</text>
<polyline fill="none" stroke="black" points="20.5,-516 94.5,-516 "/>
<text text-anchor="start" x="28.5" y="-504" font-family="Helvetica,sans-Serif" font-size="10.00">+ to_json()</text>
<text text-anchor="start" x="28.5" y="-493" font-family="Helvetica,sans-Serif" font-size="10.00">+ from_json()</text>
</a>
</g>
</g>
<!-- Node9&#45;&gt;Node13 -->
<g id="edge18" class="edge"><title>Node9&#45;&gt;Node13</title>
<path fill="none" stroke="#404040" d="M258.331,-1006.25C220.362,-978.409 162.688,-930.057 131.5,-874 103.41,-823.511 76.8044,-660.83 64.5528,-577.192"/>
<polygon fill="none" stroke="#404040" points="64.5369,-577.082 59.7178,-571.717 62.8161,-565.206 67.6351,-570.57 64.5369,-577.082"/>
<text text-anchor="middle" x="139" y="-820.5" font-family="Helvetica,sans-Serif" font-size="10.00"> +a</text>
<text text-anchor="middle" x="139" y="-809.5" font-family="Helvetica,sans-Serif" font-size="10.00">+v</text>
</g>
<!-- Node10&#45;&gt;Node3 -->
<g id="edge10" class="edge"><title>Node10&#45;&gt;Node3</title>
<path fill="none" stroke="#404040" d="M244.561,-447.443C248.297,-422.297 255.85,-395.373 270.5,-374 289.232,-346.672 320.837,-327.027 347.953,-314.163"/>
<polygon fill="none" stroke="#404040" points="348.313,-314 352.135,-307.885 359.249,-309.062 355.427,-315.177 348.313,-314"/>
<text text-anchor="middle" x="286" y="-399" font-family="Helvetica,sans-Serif" font-size="10.00"> +extra</text>
</g>
<!-- Node11&#45;&gt;Node10 -->
<g id="edge12" class="edge"><title>Node11&#45;&gt;Node10</title>
<path fill="none" stroke="#404040" d="M186.937,-772.143C183.29,-732.25 181.199,-672.353 193.5,-622 195.321,-614.547 197.823,-607.021 200.741,-599.638"/>
<polygon fill="none" stroke="#404040" points="200.752,-599.613 199.423,-592.525 205.454,-588.572 206.783,-595.66 200.752,-599.613"/>
<text text-anchor="middle" x="208.5" y="-735" font-family="Helvetica,sans-Serif" font-size="10.00"> +t2s</text>
<text text-anchor="middle" x="208.5" y="-724" font-family="Helvetica,sans-Serif" font-size="10.00">+s2t</text>
<text text-anchor="middle" x="208.5" y="-713" font-family="Helvetica,sans-Serif" font-size="10.00">+dt2s</text>
<text text-anchor="middle" x="208.5" y="-702" font-family="Helvetica,sans-Serif" font-size="10.00">+ds2t</text>
<text text-anchor="middle" x="208.5" y="-691" font-family="Helvetica,sans-Serif" font-size="10.00">+s2j</text>
<text text-anchor="middle" x="208.5" y="-680" font-family="Helvetica,sans-Serif" font-size="10.00">+j2s</text>
<text text-anchor="middle" x="208.5" y="-669" font-family="Helvetica,sans-Serif" font-size="10.00">+t2j</text>
<text text-anchor="middle" x="208.5" y="-658" font-family="Helvetica,sans-Serif" font-size="10.00">+j2t</text>
<text text-anchor="middle" x="208.5" y="-647" font-family="Helvetica,sans-Serif" font-size="10.00">+dde2j</text>
<text text-anchor="middle" x="208.5" y="-636" font-family="Helvetica,sans-Serif" font-size="10.00">+e2j</text>
<text text-anchor="middle" x="208.5" y="-625" font-family="Helvetica,sans-Serif" font-size="10.00">...</text>
</g>
<!-- Node16 -->
<g id="node16" class="node"><title>Node16</title>
<g id="a_node16"><a xlink:href="structextraatt.html" target="_top" xlink:title="Additional parameters relating to position that need only be calculated once. ">
<polygon fill="white" stroke="black" points="112.5,-491.5 112.5,-559.5 186.5,-559.5 186.5,-491.5 112.5,-491.5"/>
<text text-anchor="middle" x="149.5" y="-547.5" font-family="Helvetica,sans-Serif" font-size="10.00">extraatt</text>
<polyline fill="none" stroke="black" points="112.5,-540.5 186.5,-540.5 "/>
<text text-anchor="start" x="120.5" y="-528.5" font-family="Helvetica,sans-Serif" font-size="10.00">+ utc</text>
<polyline fill="none" stroke="black" points="112.5,-521.5 186.5,-521.5 "/>
<text text-anchor="start" x="120.5" y="-509.5" font-family="Helvetica,sans-Serif" font-size="10.00">+ to_json()</text>
<text text-anchor="start" x="120.5" y="-498.5" font-family="Helvetica,sans-Serif" font-size="10.00">+ from_json()</text>
</a>
</g>
</g>
<!-- Node11&#45;&gt;Node16 -->
<g id="edge20" class="edge"><title>Node11&#45;&gt;Node16</title>
<path fill="none" stroke="#404040" d="M160.963,-772.372C155.821,-763.076 151.274,-753.034 148.5,-743 132.605,-685.503 136.803,-616.087 142.289,-571.629"/>
<polygon fill="none" stroke="#404040" points="142.319,-571.402 139.141,-564.929 143.894,-559.506 147.072,-565.979 142.319,-571.402"/>
<text text-anchor="middle" x="159.5" y="-685.5" font-family="Helvetica,sans-Serif" font-size="10.00"> +b2j</text>
<text text-anchor="middle" x="159.5" y="-674.5" font-family="Helvetica,sans-Serif" font-size="10.00">+j2b</text>
</g>
<!-- Node12 -->
<g id="node12" class="node"><title>Node12</title>
<g id="a_node12"><a xlink:href="structattstruc.html" target="_top" xlink:title="{attstruc\n|+ utc\l|+ to_json()\l+ from_json()\l}">
<polygon fill="white" stroke="black" points="112.5,-260 112.5,-328 186.5,-328 186.5,-260 112.5,-260"/>
<text text-anchor="middle" x="149.5" y="-316" font-family="Helvetica,sans-Serif" font-size="10.00">attstruc</text>
<polyline fill="none" stroke="black" points="112.5,-309 186.5,-309 "/>
<text text-anchor="start" x="120.5" y="-297" font-family="Helvetica,sans-Serif" font-size="10.00">+ utc</text>
<polyline fill="none" stroke="black" points="112.5,-290 186.5,-290 "/>
<text text-anchor="start" x="120.5" y="-278" font-family="Helvetica,sans-Serif" font-size="10.00">+ to_json()</text>
<text text-anchor="start" x="120.5" y="-267" font-family="Helvetica,sans-Serif" font-size="10.00">+ from_json()</text>
</a>
</g>
</g>
<!-- Node12&#45;&gt;Node2 -->
<g id="edge14" class="edge"><title>Node12&#45;&gt;Node2</title>
<path fill="none" stroke="#404040" d="M186.509,-271.969C230.122,-247.185 302.699,-205.941 350.575,-178.735"/>
<polygon fill="none" stroke="#404040" points="350.855,-178.576 354.095,-172.133 361.288,-172.647 358.048,-179.089 350.855,-178.576"/>
<text text-anchor="middle" x="315" y="-206" font-family="Helvetica,sans-Serif" font-size="10.00"> +att</text>
</g>
<!-- Node13&#45;&gt;Node12 -->
<g id="edge15" class="edge"><title>Node13&#45;&gt;Node12</title>
<path fill="none" stroke="#404040" d="M72.8561,-485.812C84.9437,-455.4 102.239,-411.975 117.5,-374 122.005,-362.79 126.891,-350.696 131.457,-339.421"/>
<polygon fill="none" stroke="#404040" points="131.562,-339.161 130.109,-332.098 136.07,-328.04 137.523,-335.103 131.562,-339.161"/>
<text text-anchor="middle" x="131.5" y="-421" font-family="Helvetica,sans-Serif" font-size="10.00"> +selc</text>
<text text-anchor="middle" x="131.5" y="-410" font-family="Helvetica,sans-Serif" font-size="10.00">+topo</text>
<text text-anchor="middle" x="131.5" y="-399" font-family="Helvetica,sans-Serif" font-size="10.00">+icrf</text>
<text text-anchor="middle" x="131.5" y="-388" font-family="Helvetica,sans-Serif" font-size="10.00">+geoc</text>
<text text-anchor="middle" x="131.5" y="-377" font-family="Helvetica,sans-Serif" font-size="10.00">+lvlh</text>
</g>
<!-- Node14 -->
<g id="node14" class="node"><title>Node14</title>
<g id="a_node14"><a xlink:href="structquaternion.html" target="_top" xlink:title="Quaternion, scalar last, using x, y, z. ">
<polygon fill="white" stroke="black" points="1,-772.5 1,-862.5 78,-862.5 78,-772.5 1,-772.5"/>
<text text-anchor="middle" x="39.5" y="-850.5" font-family="Helvetica,sans-Serif" font-size="10.00">quaternion</text>
<polyline fill="none" stroke="black" points="1,-843.5 78,-843.5 "/>
<text text-anchor="start" x="9" y="-831.5" font-family="Helvetica,sans-Serif" font-size="10.00">+ w</text>
<polyline fill="none" stroke="black" points="1,-824.5 78,-824.5 "/>
<text text-anchor="start" x="9" y="-812.5" font-family="Helvetica,sans-Serif" font-size="10.00">+ quaternion()</text>
<text text-anchor="start" x="9" y="-801.5" font-family="Helvetica,sans-Serif" font-size="10.00">+ quaternion()</text>
<text text-anchor="start" x="9" y="-790.5" font-family="Helvetica,sans-Serif" font-size="10.00">+ to_json()</text>
<text text-anchor="start" x="9" y="-779.5" font-family="Helvetica,sans-Serif" font-size="10.00">+ from_json()</text>
</a>
</g>
</g>
<!-- Node14&#45;&gt;Node13 -->
<g id="edge16" class="edge"><title>Node14&#45;&gt;Node13</title>
<path fill="none" stroke="#404040" d="M42.2338,-772.455C45.482,-720.123 50.892,-632.962 54.3232,-577.682"/>
<polygon fill="none" stroke="#404040" points="54.3435,-577.352 50.723,-571.116 55.087,-565.376 58.7076,-571.612 54.3435,-577.352"/>
<text text-anchor="middle" x="59" y="-680" font-family="Helvetica,sans-Serif" font-size="10.00"> +s</text>
</g>
<!-- Node15 -->
<g id="node15" class="node"><title>Node15</title>
<g id="a_node15"><a xlink:href="classcvector.html" target="_top" xlink:title="3 element cartesian vector ">
<polygon fill="white" stroke="black" points="0,-943.5 0,-1121.5 79,-1121.5 79,-943.5 0,-943.5"/>
<text text-anchor="middle" x="39.5" y="-1109.5" font-family="Helvetica,sans-Serif" font-size="10.00">cvector</text>
<polyline fill="none" stroke="black" points="0,-1102.5 79,-1102.5 "/>
<text text-anchor="start" x="8" y="-1090.5" font-family="Helvetica,sans-Serif" font-size="10.00">+ x</text>
<text text-anchor="start" x="8" y="-1079.5" font-family="Helvetica,sans-Serif" font-size="10.00">+ y</text>
<text text-anchor="start" x="8" y="-1068.5" font-family="Helvetica,sans-Serif" font-size="10.00">+ z</text>
<polyline fill="none" stroke="black" points="0,-1061.5 79,-1061.5 "/>
<text text-anchor="start" x="8" y="-1049.5" font-family="Helvetica,sans-Serif" font-size="10.00">+ cvector()</text>
<text text-anchor="start" x="8" y="-1038.5" font-family="Helvetica,sans-Serif" font-size="10.00">+ cvector()</text>
<text text-anchor="start" x="8" y="-1027.5" font-family="Helvetica,sans-Serif" font-size="10.00">+ normalize()</text>
<text text-anchor="start" x="8" y="-1016.5" font-family="Helvetica,sans-Serif" font-size="10.00">+ length()</text>
<text text-anchor="start" x="8" y="-1005.5" font-family="Helvetica,sans-Serif" font-size="10.00">+ norm()</text>
<text text-anchor="start" x="8" y="-994.5" font-family="Helvetica,sans-Serif" font-size="10.00">+ norm2()</text>
<text text-anchor="start" x="8" y="-983.5" font-family="Helvetica,sans-Serif" font-size="10.00">+ normalized()</text>
<text text-anchor="start" x="8" y="-972.5" font-family="Helvetica,sans-Serif" font-size="10.00">+ operator[]()</text>
<text text-anchor="start" x="8" y="-961.5" font-family="Helvetica,sans-Serif" font-size="10.00">+ to_json()</text>
<text text-anchor="start" x="8" y="-950.5" font-family="Helvetica,sans-Serif" font-size="10.00">+ from_json()</text>
</a>
</g>
</g>
<!-- Node15&#45;&gt;Node14 -->
<g id="edge17" class="edge"><title>Node15&#45;&gt;Node14</title>
<path fill="none" stroke="#404040" d="M39.5,-943.327C39.5,-920.188 39.5,-895.858 39.5,-874.886"/>
<polygon fill="none" stroke="#404040" points="39.5001,-874.633 35.5,-868.633 39.5,-862.633 43.5,-868.633 39.5001,-874.633"/>
<text text-anchor="middle" x="47" y="-906" font-family="Helvetica,sans-Serif" font-size="10.00"> +d</text>
</g>
<!-- Node16&#45;&gt;Node12 -->
<g id="edge19" class="edge"><title>Node16&#45;&gt;Node12</title>
<path fill="none" stroke="#404040" d="M149.5,-491.129C149.5,-451.328 149.5,-384.617 149.5,-340.211"/>
<polygon fill="none" stroke="#404040" points="149.5,-340.039 145.5,-334.039 149.5,-328.039 153.5,-334.039 149.5,-340.039"/>
<text text-anchor="middle" x="165" y="-399" font-family="Helvetica,sans-Serif" font-size="10.00"> +extra</text>
</g>
</g>
</svg>
        <g id="navigator" transform="translate(0 0)" fill="#404254">
                <rect fill="#f2f5e9" fill-opacity="0.5" stroke="#606060" stroke-width=".5" x="0" y="0" width="60" height="60"/>
                <use id="zoomplus" xlink:href="#zoomPlus" x="17" y="9" onmousedown="handleZoom(evt,'in')"/>
                <use id="zoomminus" xlink:href="#zoomMin" x="42" y="9" onmousedown="handleZoom(evt,'out')"/>
                <use id="reset" xlink:href="#resetDef" x="30" y="36" onmousedown="handleReset()"/>
                <g id="arrowUp" xlink:href="#dirArrow" transform="translate(30 24)" onmousedown="handlePan(0,-1)">
                  <use xlink:href="#rim" fill="#404040">
                        <set attributeName="fill" to="#808080" begin="arrowUp.mouseover" end="arrowUp.mouseout"/>
                  </use>
                  <path fill="none" stroke="white" stroke-width="1.5" d="M0,-3.0v7 M-2.5,-0.5L0,-3.0L2.5,-0.5"/>
                </g>
                <g id="arrowRight" xlink:href="#dirArrow" transform="rotate(90) translate(36 -43)" onmousedown="handlePan(1,0)">
                  <use xlink:href="#rim" fill="#404040">
                        <set attributeName="fill" to="#808080" begin="arrowRight.mouseover" end="arrowRight.mouseout"/>
                  </use>
                  <path fill="none" stroke="white" stroke-width="1.5" d="M0,-3.0v7 M-2.5,-0.5L0,-3.0L2.5,-0.5"/>
                </g>
                <g id="arrowDown" xlink:href="#dirArrow" transform="rotate(180) translate(-30 -48)" onmousedown="handlePan(0,1)">
                  <use xlink:href="#rim" fill="#404040">
                        <set attributeName="fill" to="#808080" begin="arrowDown.mouseover" end="arrowDown.mouseout"/>
                  </use>
                  <path fill="none" stroke="white" stroke-width="1.5" d="M0,-3.0v7 M-2.5,-0.5L0,-3.0L2.5,-0.5"/>
                </g>
                <g id="arrowLeft" xlink:href="#dirArrow" transform="rotate(270) translate(-36 17)" onmousedown="handlePan(-1,0)">
                  <use xlink:href="#rim" fill="#404040">
                        <set attributeName="fill" to="#808080" begin="arrowLeft.mouseover" end="arrowLeft.mouseout"/>
                  </use>
                  <path fill="none" stroke="white" stroke-width="1.5" d="M0,-3.0v7 M-2.5,-0.5L0,-3.0L2.5,-0.5"/>
                </g>
        </g>
        <svg viewBox="0 0 15 15" width="100%" height="30px" preserveAspectRatio="xMaxYMin meet">
         <g id="arrow_out" transform="scale(0.3 0.3)">
          <a xlink:href="structgjstruc__coll__graph_org.svg" target="_base">
           <rect id="button" ry="5" rx="5" y="6" x="6" height="38" width="38"
                fill="#f2f5e9" fill-opacity="0.5" stroke="#606060" stroke-width="1.0"/>
           <path id="arrow"
             d="M 11.500037,31.436501 C 11.940474,20.09759 22.043105,11.32322 32.158766,21.979434 L 37.068811,17.246167 C 37.068811,17.246167 37.088388,32 37.088388,32 L 22.160133,31.978069 C 22.160133,31.978069 26.997745,27.140456 26.997745,27.140456 C 18.528582,18.264221 13.291696,25.230495 11.500037,31.436501 z"
             style="fill:#404040;"/>
          </a>
         </g>
        </svg>
</svg>
