<?xml version="1.0" encoding="UTF-8" standalone="no"?>
<!DOCTYPE svg PUBLIC "-//W3C//DTD SVG 1.1//EN"
 "http://www.w3.org/Graphics/SVG/1.1/DTD/svg11.dtd">
<!-- Generated by graphviz version 2.38.0 (20140413.2041)
 -->
<!-- Title: my_post_controller Pages: 1 -->
<svg width="290pt" height="452pt"
 viewBox="0.00 0.00 289.50 452.00" xmlns="http://www.w3.org/2000/svg" xmlns:xlink="http://www.w3.org/1999/xlink">
<g id="graph0" class="graph" transform="scale(1 1) rotate(0) translate(4 448)">
<title>my_post_controller</title>
<polygon fill="white" stroke="none" points="-4,4 -4,-448 285.5,-448 285.5,4 -4,4"/>
<!-- Node1 -->
<g id="node1" class="node"><title>Node1</title>
<polygon fill="#bfbfbf" stroke="black" points="129,-0.5 129,-90.5 228,-90.5 228,-0.5 129,-0.5"/>
<text text-anchor="middle" x="178.5" y="-78.5" font-family="Helvetica,sans-Serif" font-size="10.00">my_post_controller</text>
<polyline fill="none" stroke="black" points="129,-71.5 228,-71.5 "/>
<text text-anchor="start" x="137" y="-59.5" font-family="Helvetica,sans-Serif" font-size="10.00">+ buffer</text>
<text text-anchor="start" x="137" y="-48.5" font-family="Helvetica,sans-Serif" font-size="10.00">+ strip_height</text>
<text text-anchor="start" x="137" y="-37.5" font-family="Helvetica,sans-Serif" font-size="10.00">+ starting_row</text>
<text text-anchor="start" x="137" y="-26.5" font-family="Helvetica,sans-Serif" font-size="10.00">+ next_row</text>
<polyline fill="none" stroke="black" points="129,-19.5 228,-19.5 "/>
<text text-anchor="middle" x="178.5" y="-7.5" font-family="Helvetica,sans-Serif" font-size="10.00"> </text>
</g>
<!-- Node2 -->
<g id="node2" class="node"><title>Node2</title>
<g id="a_node2"><a xlink:href="structjvirt__sarray__control.html" target="_top" xlink:title="{jvirt_sarray_control\n|+ mem_buffer\l+ rows_in_array\l+ samplesperrow\l+ maxaccess\l+ rows_in_mem\l+ rowsperchunk\l+ cur_start_row\l+ first_undef_row\l+ pre_zero\l+ dirty\l+ b_s_open\l|}">
<polygon fill="white" stroke="black" points="4,-138.5 4,-305.5 103,-305.5 103,-138.5 4,-138.5"/>
<text text-anchor="middle" x="53.5" y="-293.5" font-family="Helvetica,sans-Serif" font-size="10.00">jvirt_sarray_control</text>
<polyline fill="none" stroke="black" points="4,-286.5 103,-286.5 "/>
<text text-anchor="start" x="12" y="-274.5" font-family="Helvetica,sans-Serif" font-size="10.00">+ mem_buffer</text>
<text text-anchor="start" x="12" y="-263.5" font-family="Helvetica,sans-Serif" font-size="10.00">+ rows_in_array</text>
<text text-anchor="start" x="12" y="-252.5" font-family="Helvetica,sans-Serif" font-size="10.00">+ samplesperrow</text>
<text text-anchor="start" x="12" y="-241.5" font-family="Helvetica,sans-Serif" font-size="10.00">+ maxaccess</text>
<text text-anchor="start" x="12" y="-230.5" font-family="Helvetica,sans-Serif" font-size="10.00">+ rows_in_mem</text>
<text text-anchor="start" x="12" y="-219.5" font-family="Helvetica,sans-Serif" font-size="10.00">+ rowsperchunk</text>
<text text-anchor="start" x="12" y="-208.5" font-family="Helvetica,sans-Serif" font-size="10.00">+ cur_start_row</text>
<text text-anchor="start" x="12" y="-197.5" font-family="Helvetica,sans-Serif" font-size="10.00">+ first_undef_row</text>
<text text-anchor="start" x="12" y="-186.5" font-family="Helvetica,sans-Serif" font-size="10.00">+ pre_zero</text>
<text text-anchor="start" x="12" y="-175.5" font-family="Helvetica,sans-Serif" font-size="10.00">+ dirty</text>
<text text-anchor="start" x="12" y="-164.5" font-family="Helvetica,sans-Serif" font-size="10.00">+ b_s_open</text>
<polyline fill="none" stroke="black" points="4,-157.5 103,-157.5 "/>
<text text-anchor="middle" x="53.5" y="-145.5" font-family="Helvetica,sans-Serif" font-size="10.00"> </text>
</a>
</g>
</g>
<!-- Node2&#45;&gt;Node1 -->
<g id="edge1" class="edge"><title>Node2&#45;&gt;Node1</title>
<path fill="none" stroke="#404040" d="M103.167,-140.885C110.436,-130.015 118.003,-119.125 125.5,-109 127.673,-106.065 129.944,-103.09 132.27,-100.112"/>
<polygon fill="none" stroke="#404040" points="132.347,-100.016 132.968,-92.8312 139.838,-90.6411 139.218,-97.8255 132.347,-100.016"/>
<text text-anchor="middle" x="159" y="-112" font-family="Helvetica,sans-Serif" font-size="10.00"> +whole_image</text>
</g>
<!-- Node2&#45;&gt;Node2 -->
<g id="edge2" class="edge"><title>Node2&#45;&gt;Node2</title>
<path fill="none" stroke="#404040" d="M103.245,-241.176C113.573,-239.158 121,-232.766 121,-222 121,-215.776 118.518,-211.014 114.428,-207.714"/>
<polygon fill="none" stroke="#404040" points="114.24,-207.632 107.14,-208.893 103.245,-202.824 110.345,-201.563 114.24,-207.632"/>
<text text-anchor="middle" x="135" y="-219.5" font-family="Helvetica,sans-Serif" font-size="10.00"> +next</text>
</g>
<!-- Node3 -->
<g id="node3" class="node"><title>Node3</title>
<g id="a_node3"><a xlink:href="structbacking__store__struct.html" target="_top" xlink:title="{backing_store_struct\n|+ temp_file\l+ temp_name\l|+ JMETHOD()\l+ JMETHOD()\l+ JMETHOD()\l}">
<polygon fill="white" stroke="black" points="0,-353.5 0,-443.5 107,-443.5 107,-353.5 0,-353.5"/>
<text text-anchor="middle" x="53.5" y="-431.5" font-family="Helvetica,sans-Serif" font-size="10.00">backing_store_struct</text>
<polyline fill="none" stroke="black" points="0,-424.5 107,-424.5 "/>
<text text-anchor="start" x="8" y="-412.5" font-family="Helvetica,sans-Serif" font-size="10.00">+ temp_file</text>
<text text-anchor="start" x="8" y="-401.5" font-family="Helvetica,sans-Serif" font-size="10.00">+ temp_name</text>
<polyline fill="none" stroke="black" points="0,-394.5 107,-394.5 "/>
<text text-anchor="start" x="8" y="-382.5" font-family="Helvetica,sans-Serif" font-size="10.00">+ JMETHOD()</text>
<text text-anchor="start" x="8" y="-371.5" font-family="Helvetica,sans-Serif" font-size="10.00">+ JMETHOD()</text>
<text text-anchor="start" x="8" y="-360.5" font-family="Helvetica,sans-Serif" font-size="10.00">+ JMETHOD()</text>
</a>
</g>
</g>
<!-- Node3&#45;&gt;Node2 -->
<g id="edge3" class="edge"><title>Node3&#45;&gt;Node2</title>
<path fill="none" stroke="#404040" d="M53.5,-353.466C53.5,-342.562 53.5,-330.453 53.5,-318.133"/>
<polygon fill="none" stroke="#404040" points="53.5001,-317.778 49.5,-311.779 53.5,-305.778 57.5,-311.778 53.5001,-317.778"/>
<text text-anchor="middle" x="76.5" y="-327" font-family="Helvetica,sans-Serif" font-size="10.00"> +b_s_info</text>
</g>
<!-- Node4 -->
<g id="node4" class="node"><title>Node4</title>
<g id="a_node4"><a xlink:href="structjpeg__d__post__controller.html" target="_top" xlink:title="{jpeg_d_post_controller\n||+ JMETHOD()\l+ JMETHOD()\l}">
<polygon fill="white" stroke="black" points="167.5,-188 167.5,-256 281.5,-256 281.5,-188 167.5,-188"/>
<text text-anchor="middle" x="224.5" y="-244" font-family="Helvetica,sans-Serif" font-size="10.00">jpeg_d_post_controller</text>
<polyline fill="none" stroke="black" points="167.5,-237 281.5,-237 "/>
<text text-anchor="middle" x="224.5" y="-225" font-family="Helvetica,sans-Serif" font-size="10.00"> </text>
<polyline fill="none" stroke="black" points="167.5,-218 281.5,-218 "/>
<text text-anchor="start" x="175.5" y="-206" font-family="Helvetica,sans-Serif" font-size="10.00">+ JMETHOD()</text>
<text text-anchor="start" x="175.5" y="-195" font-family="Helvetica,sans-Serif" font-size="10.00">+ JMETHOD()</text>
</a>
</g>
</g>
<!-- Node4&#45;&gt;Node1 -->
<g id="edge4" class="edge"><title>Node4&#45;&gt;Node1</title>
<path fill="none" stroke="#404040" d="M215.739,-187.767C209.399,-163.713 200.677,-130.629 193.268,-102.524"/>
<polygon fill="none" stroke="#404040" points="193.243,-102.428 187.846,-97.646 190.184,-90.8246 195.582,-95.6067 193.243,-102.428"/>
<text text-anchor="middle" x="210" y="-112" font-family="Helvetica,sans-Serif" font-size="10.00"> +pub</text>
</g>
</g>
</svg>
