<?xml version="1.0" encoding="UTF-8" standalone="no"?>
<!DOCTYPE svg PUBLIC "-//W3C//DTD SVG 1.1//EN"
 "http://www.w3.org/Graphics/SVG/1.1/DTD/svg11.dtd">
<!-- Generated by graphviz version 2.38.0 (20140413.2041)
 -->
<!-- Title: my_input_controller Pages: 1 -->
<svg width="120pt" height="215pt"
 viewBox="0.00 0.00 120.00 215.00" xmlns="http://www.w3.org/2000/svg" xmlns:xlink="http://www.w3.org/1999/xlink">
<g id="graph0" class="graph" transform="scale(1 1) rotate(0) translate(4 211)">
<title>my_input_controller</title>
<polygon fill="white" stroke="none" points="-4,4 -4,-211 116,-211 116,4 -4,4"/>
<!-- Node1 -->
<g id="node1" class="node"><title>Node1</title>
<polygon fill="#bfbfbf" stroke="black" points="5.5,-0.5 5.5,-57.5 106.5,-57.5 106.5,-0.5 5.5,-0.5"/>
<text text-anchor="middle" x="56" y="-45.5" font-family="Helvetica,sans-Serif" font-size="10.00">my_input_controller</text>
<polyline fill="none" stroke="black" points="5.5,-38.5 106.5,-38.5 "/>
<text text-anchor="start" x="13.5" y="-26.5" font-family="Helvetica,sans-Serif" font-size="10.00">+ inheaders</text>
<polyline fill="none" stroke="black" points="5.5,-19.5 106.5,-19.5 "/>
<text text-anchor="middle" x="56" y="-7.5" font-family="Helvetica,sans-Serif" font-size="10.00"> </text>
</g>
<!-- Node2 -->
<g id="node2" class="node"><title>Node2</title>
<g id="a_node2"><a xlink:href="structjpeg__input__controller.html" target="_top" xlink:title="{jpeg_input_controller\n|+ has_multiple_scans\l+ eoi_reached\l|+ JMETHOD()\l+ JMETHOD()\l+ JMETHOD()\l+ JMETHOD()\l}">
<polygon fill="white" stroke="black" points="-7.10543e-15,-105.5 -7.10543e-15,-206.5 112,-206.5 112,-105.5 -7.10543e-15,-105.5"/>
<text text-anchor="middle" x="56" y="-194.5" font-family="Helvetica,sans-Serif" font-size="10.00">jpeg_input_controller</text>
<polyline fill="none" stroke="black" points="-7.10543e-15,-187.5 112,-187.5 "/>
<text text-anchor="start" x="8" y="-175.5" font-family="Helvetica,sans-Serif" font-size="10.00">+ has_multiple_scans</text>
<text text-anchor="start" x="8" y="-164.5" font-family="Helvetica,sans-Serif" font-size="10.00">+ eoi_reached</text>
<polyline fill="none" stroke="black" points="-7.10543e-15,-157.5 112,-157.5 "/>
<text text-anchor="start" x="8" y="-145.5" font-family="Helvetica,sans-Serif" font-size="10.00">+ JMETHOD()</text>
<text text-anchor="start" x="8" y="-134.5" font-family="Helvetica,sans-Serif" font-size="10.00">+ JMETHOD()</text>
<text text-anchor="start" x="8" y="-123.5" font-family="Helvetica,sans-Serif" font-size="10.00">+ JMETHOD()</text>
<text text-anchor="start" x="8" y="-112.5" font-family="Helvetica,sans-Serif" font-size="10.00">+ JMETHOD()</text>
</a>
</g>
</g>
<!-- Node2&#45;&gt;Node1 -->
<g id="edge1" class="edge"><title>Node2&#45;&gt;Node1</title>
<path fill="none" stroke="#404040" d="M56,-105.238C56,-93.4645 56,-81.0617 56,-69.7976"/>
<polygon fill="none" stroke="#404040" points="56.0001,-69.6579 52,-63.658 56,-57.6579 60,-63.6579 56.0001,-69.6579"/>
<text text-anchor="middle" x="68.5" y="-79" font-family="Helvetica,sans-Serif" font-size="10.00"> +pub</text>
</g>
</g>
</svg>
