<?xml version="1.0" encoding="UTF-8" standalone="no"?>
<!DOCTYPE svg PUBLIC "-//W3C//DTD SVG 1.1//EN"
 "http://www.w3.org/Graphics/SVG/1.1/DTD/svg11.dtd">
<!-- Generated by graphviz version 2.38.0 (20140413.2041)
 -->
<!-- Title: mtrstruc Pages: 1 -->
<svg width="87pt" height="496pt"
 viewBox="0.00 0.00 87.00 496.00" xmlns="http://www.w3.org/2000/svg" xmlns:xlink="http://www.w3.org/1999/xlink">
<g id="graph0" class="graph" transform="scale(1 1) rotate(0) translate(4 492)">
<title>mtrstruc</title>
<polygon fill="white" stroke="none" points="-4,4 -4,-492 83,-492 83,4 -4,4"/>
<!-- Node1 -->
<g id="node1" class="node"><title>Node1</title>
<polygon fill="#bfbfbf" stroke="black" points="2.5,-0.5 2.5,-123.5 76.5,-123.5 76.5,-0.5 2.5,-0.5"/>
<text text-anchor="middle" x="39.5" y="-111.5" font-family="Helvetica,sans-Serif" font-size="10.00">mtrstruc</text>
<polyline fill="none" stroke="black" points="2.5,-104.5 76.5,-104.5 "/>
<text text-anchor="start" x="10.5" y="-92.5" font-family="Helvetica,sans-Serif" font-size="10.00">+ npoly</text>
<text text-anchor="start" x="10.5" y="-81.5" font-family="Helvetica,sans-Serif" font-size="10.00">+ ppoly</text>
<text text-anchor="start" x="10.5" y="-70.5" font-family="Helvetica,sans-Serif" font-size="10.00">+ mxmom</text>
<text text-anchor="start" x="10.5" y="-59.5" font-family="Helvetica,sans-Serif" font-size="10.00">+ tc</text>
<text text-anchor="start" x="10.5" y="-48.5" font-family="Helvetica,sans-Serif" font-size="10.00">+ rmom</text>
<text text-anchor="start" x="10.5" y="-37.5" font-family="Helvetica,sans-Serif" font-size="10.00">+ mom</text>
<polyline fill="none" stroke="black" points="2.5,-30.5 76.5,-30.5 "/>
<text text-anchor="start" x="10.5" y="-18.5" font-family="Helvetica,sans-Serif" font-size="10.00">+ to_json()</text>
<text text-anchor="start" x="10.5" y="-7.5" font-family="Helvetica,sans-Serif" font-size="10.00">+ from_json()</text>
</g>
<!-- Node2 -->
<g id="node2" class="node"><title>Node2</title>
<g id="a_node2"><a xlink:href="structquaternion.html" target="_top" xlink:title="Quaternion, scalar last, using x, y, z. ">
<polygon fill="white" stroke="black" points="1,-171.5 1,-261.5 78,-261.5 78,-171.5 1,-171.5"/>
<text text-anchor="middle" x="39.5" y="-249.5" font-family="Helvetica,sans-Serif" font-size="10.00">quaternion</text>
<polyline fill="none" stroke="black" points="1,-242.5 78,-242.5 "/>
<text text-anchor="start" x="9" y="-230.5" font-family="Helvetica,sans-Serif" font-size="10.00">+ w</text>
<polyline fill="none" stroke="black" points="1,-223.5 78,-223.5 "/>
<text text-anchor="start" x="9" y="-211.5" font-family="Helvetica,sans-Serif" font-size="10.00">+ quaternion()</text>
<text text-anchor="start" x="9" y="-200.5" font-family="Helvetica,sans-Serif" font-size="10.00">+ quaternion()</text>
<text text-anchor="start" x="9" y="-189.5" font-family="Helvetica,sans-Serif" font-size="10.00">+ to_json()</text>
<text text-anchor="start" x="9" y="-178.5" font-family="Helvetica,sans-Serif" font-size="10.00">+ from_json()</text>
</a>
</g>
</g>
<!-- Node2&#45;&gt;Node1 -->
<g id="edge1" class="edge"><title>Node2&#45;&gt;Node1</title>
<path fill="none" stroke="#404040" d="M39.5,-171.391C39.5,-160.241 39.5,-147.969 39.5,-135.813"/>
<polygon fill="none" stroke="#404040" points="39.5001,-135.743 35.5,-129.743 39.5,-123.743 43.5,-129.743 39.5001,-135.743"/>
<text text-anchor="middle" x="54.5" y="-145" font-family="Helvetica,sans-Serif" font-size="10.00"> +align</text>
</g>
<!-- Node3 -->
<g id="node3" class="node"><title>Node3</title>
<g id="a_node3"><a xlink:href="classcvector.html" target="_top" xlink:title="3 element cartesian vector ">
<polygon fill="white" stroke="black" points="-7.10543e-15,-309.5 -7.10543e-15,-487.5 79,-487.5 79,-309.5 -7.10543e-15,-309.5"/>
<text text-anchor="middle" x="39.5" y="-475.5" font-family="Helvetica,sans-Serif" font-size="10.00">cvector</text>
<polyline fill="none" stroke="black" points="-7.10543e-15,-468.5 79,-468.5 "/>
<text text-anchor="start" x="8" y="-456.5" font-family="Helvetica,sans-Serif" font-size="10.00">+ x</text>
<text text-anchor="start" x="8" y="-445.5" font-family="Helvetica,sans-Serif" font-size="10.00">+ y</text>
<text text-anchor="start" x="8" y="-434.5" font-family="Helvetica,sans-Serif" font-size="10.00">+ z</text>
<polyline fill="none" stroke="black" points="-7.10543e-15,-427.5 79,-427.5 "/>
<text text-anchor="start" x="8" y="-415.5" font-family="Helvetica,sans-Serif" font-size="10.00">+ cvector()</text>
<text text-anchor="start" x="8" y="-404.5" font-family="Helvetica,sans-Serif" font-size="10.00">+ cvector()</text>
<text text-anchor="start" x="8" y="-393.5" font-family="Helvetica,sans-Serif" font-size="10.00">+ normalize()</text>
<text text-anchor="start" x="8" y="-382.5" font-family="Helvetica,sans-Serif" font-size="10.00">+ length()</text>
<text text-anchor="start" x="8" y="-371.5" font-family="Helvetica,sans-Serif" font-size="10.00">+ norm()</text>
<text text-anchor="start" x="8" y="-360.5" font-family="Helvetica,sans-Serif" font-size="10.00">+ norm2()</text>
<text text-anchor="start" x="8" y="-349.5" font-family="Helvetica,sans-Serif" font-size="10.00">+ normalized()</text>
<text text-anchor="start" x="8" y="-338.5" font-family="Helvetica,sans-Serif" font-size="10.00">+ operator[]()</text>
<text text-anchor="start" x="8" y="-327.5" font-family="Helvetica,sans-Serif" font-size="10.00">+ to_json()</text>
<text text-anchor="start" x="8" y="-316.5" font-family="Helvetica,sans-Serif" font-size="10.00">+ from_json()</text>
</a>
</g>
</g>
<!-- Node3&#45;&gt;Node2 -->
<g id="edge2" class="edge"><title>Node3&#45;&gt;Node2</title>
<path fill="none" stroke="#404040" d="M39.5,-309.346C39.5,-297.308 39.5,-285.226 39.5,-273.962"/>
<polygon fill="none" stroke="#404040" points="39.5001,-273.638 35.5,-267.638 39.5,-261.638 43.5,-267.638 39.5001,-273.638"/>
<text text-anchor="middle" x="47" y="-283" font-family="Helvetica,sans-Serif" font-size="10.00"> +d</text>
</g>
</g>
</svg>
