<?xml version="1.0" encoding="UTF-8" standalone="no"?>
<!DOCTYPE svg PUBLIC "-//W3C//DTD SVG 1.1//EN"
 "http://www.w3.org/Graphics/SVG/1.1/DTD/svg11.dtd">
<!-- Generated by graphviz version 2.38.0 (20140413.2041)
 -->
<!-- Title: pic_handle Pages: 1 -->
<svg width="113pt" height="226pt"
 viewBox="0.00 0.00 112.50 226.00" xmlns="http://www.w3.org/2000/svg" xmlns:xlink="http://www.w3.org/1999/xlink">
<g id="graph0" class="graph" transform="scale(1 1) rotate(0) translate(4 222)">
<title>pic_handle</title>
<polygon fill="white" stroke="none" points="-4,4 -4,-222 108.5,-222 108.5,4 -4,4"/>
<!-- Node1 -->
<g id="node1" class="node"><title>Node1</title>
<polygon fill="#bfbfbf" stroke="black" points="0,-0.5 0,-57.5 63,-57.5 63,-0.5 0,-0.5"/>
<text text-anchor="middle" x="31.5" y="-45.5" font-family="Helvetica,sans-Serif" font-size="10.00">pic_handle</text>
<polyline fill="none" stroke="black" points="0,-38.5 63,-38.5 "/>
<text text-anchor="start" x="8" y="-26.5" font-family="Helvetica,sans-Serif" font-size="10.00">+ buffer</text>
<polyline fill="none" stroke="black" points="0,-19.5 63,-19.5 "/>
<text text-anchor="middle" x="31.5" y="-7.5" font-family="Helvetica,sans-Serif" font-size="10.00"> </text>
</g>
<!-- Node2 -->
<g id="node2" class="node"><title>Node2</title>
<g id="a_node2"><a xlink:href="struct____cssl__t.html" target="_top" xlink:title="{__cssl_t\n|+ buffer\l+ fd\l+ dcb\l+ olddcb\l+ handle\l+ baud\l|}">
<polygon fill="white" stroke="black" points="4.5,-105.5 4.5,-217.5 58.5,-217.5 58.5,-105.5 4.5,-105.5"/>
<text text-anchor="middle" x="31.5" y="-205.5" font-family="Helvetica,sans-Serif" font-size="10.00">__cssl_t</text>
<polyline fill="none" stroke="black" points="4.5,-198.5 58.5,-198.5 "/>
<text text-anchor="start" x="12.5" y="-186.5" font-family="Helvetica,sans-Serif" font-size="10.00">+ buffer</text>
<text text-anchor="start" x="12.5" y="-175.5" font-family="Helvetica,sans-Serif" font-size="10.00">+ fd</text>
<text text-anchor="start" x="12.5" y="-164.5" font-family="Helvetica,sans-Serif" font-size="10.00">+ dcb</text>
<text text-anchor="start" x="12.5" y="-153.5" font-family="Helvetica,sans-Serif" font-size="10.00">+ olddcb</text>
<text text-anchor="start" x="12.5" y="-142.5" font-family="Helvetica,sans-Serif" font-size="10.00">+ handle</text>
<text text-anchor="start" x="12.5" y="-131.5" font-family="Helvetica,sans-Serif" font-size="10.00">+ baud</text>
<polyline fill="none" stroke="black" points="4.5,-124.5 58.5,-124.5 "/>
<text text-anchor="middle" x="31.5" y="-112.5" font-family="Helvetica,sans-Serif" font-size="10.00"> </text>
</a>
</g>
</g>
<!-- Node2&#45;&gt;Node1 -->
<g id="edge1" class="edge"><title>Node2&#45;&gt;Node1</title>
<path fill="none" stroke="#404040" d="M31.5,-105.156C31.5,-93.2446 31.5,-80.882 31.5,-69.7065"/>
<polygon fill="none" stroke="#404040" points="31.5001,-69.6807 27.5,-63.6807 31.5,-57.6807 35.5,-63.6806 31.5001,-69.6807"/>
<text text-anchor="middle" x="48" y="-79" font-family="Helvetica,sans-Serif" font-size="10.00"> +serial</text>
</g>
<!-- Node2&#45;&gt;Node2 -->
<g id="edge2" class="edge"><title>Node2&#45;&gt;Node2</title>
<path fill="none" stroke="#404040" d="M58.7408,-176.485C68.5239,-176.808 76.5,-171.812 76.5,-161.5 76.5,-156.021 74.2489,-152.044 70.6718,-149.567"/>
<polygon fill="none" stroke="#404040" points="70.3665,-149.489 63.5623,-151.877 58.7408,-146.515 65.5449,-144.126 70.3665,-149.489"/>
<text text-anchor="middle" x="90.5" y="-159" font-family="Helvetica,sans-Serif" font-size="10.00"> +next</text>
</g>
</g>
</svg>
