<?xml version="1.0" encoding="UTF-8" standalone="no"?>
<!DOCTYPE svg PUBLIC "-//W3C//DTD SVG 1.1//EN"
 "http://www.w3.org/Graphics/SVG/1.1/DTD/svg11.dtd">
<!-- Generated by graphviz version 2.38.0 (20140413.2041)
 -->
<!-- Title: tx_entry Pages: 1 -->
<svg width="413pt" height="573pt"
 viewBox="0.00 0.00 412.50 573.00" xmlns="http://www.w3.org/2000/svg" xmlns:xlink="http://www.w3.org/1999/xlink">
<g id="graph0" class="graph" transform="scale(1 1) rotate(0) translate(4 569)">
<title>tx_entry</title>
<polygon fill="white" stroke="none" points="-4,4 -4,-569 408.5,-569 408.5,4 -4,4"/>
<!-- Node1 -->
<g id="node1" class="node"><title>Node1</title>
<polygon fill="#bfbfbf" stroke="black" points="154.5,-0.5 154.5,-167.5 243.5,-167.5 243.5,-0.5 154.5,-0.5"/>
<text text-anchor="middle" x="199" y="-155.5" font-family="Helvetica,sans-Serif" font-size="10.00">tx_entry</text>
<polyline fill="none" stroke="black" points="154.5,-148.5 243.5,-148.5 "/>
<text text-anchor="start" x="162.5" y="-136.5" font-family="Helvetica,sans-Serif" font-size="10.00">+ node_id</text>
<text text-anchor="start" x="162.5" y="-125.5" font-family="Helvetica,sans-Serif" font-size="10.00">+ size</text>
<text text-anchor="start" x="162.5" y="-114.5" font-family="Helvetica,sans-Serif" font-size="10.00">+ id</text>
<text text-anchor="start" x="162.5" y="-103.5" font-family="Helvetica,sans-Serif" font-size="10.00">+ next_id</text>
<text text-anchor="start" x="162.5" y="-92.5" font-family="Helvetica,sans-Serif" font-size="10.00">+ state</text>
<text text-anchor="start" x="162.5" y="-81.5" font-family="Helvetica,sans-Serif" font-size="10.00">+ nmjd</text>
<text text-anchor="start" x="162.5" y="-70.5" font-family="Helvetica,sans-Serif" font-size="10.00">+ activity</text>
<text text-anchor="start" x="162.5" y="-59.5" font-family="Helvetica,sans-Serif" font-size="10.00">+ completeclock</text>
<text text-anchor="start" x="162.5" y="-48.5" font-family="Helvetica,sans-Serif" font-size="10.00">+ dataclock</text>
<text text-anchor="start" x="162.5" y="-37.5" font-family="Helvetica,sans-Serif" font-size="10.00">+ metaclock</text>
<text text-anchor="start" x="162.5" y="-26.5" font-family="Helvetica,sans-Serif" font-size="10.00">and 9 more...</text>
<polyline fill="none" stroke="black" points="154.5,-19.5 243.5,-19.5 "/>
<text text-anchor="middle" x="199" y="-7.5" font-family="Helvetica,sans-Serif" font-size="10.00"> </text>
</g>
<!-- Node2 -->
<g id="node2" class="node"><title>Node2</title>
<g id="a_node2"><a xlink:href="structtx__progress.html" target="_top" xlink:title="{tx_progress\n|+ tx_id\l+ enabled\l+ havemeta\l+ havedata\l+ sendmeta\l+ sentmeta\l+ senddata\l+ sentdata\l+ complete\l+ savetime\l+ datatime\l+ file_size\l+ total_bytes\l+ fp\l|}">
<polygon fill="white" stroke="black" points="87,-215.5 87,-415.5 161,-415.5 161,-215.5 87,-215.5"/>
<text text-anchor="middle" x="124" y="-403.5" font-family="Helvetica,sans-Serif" font-size="10.00">tx_progress</text>
<polyline fill="none" stroke="black" points="87,-396.5 161,-396.5 "/>
<text text-anchor="start" x="95" y="-384.5" font-family="Helvetica,sans-Serif" font-size="10.00">+ tx_id</text>
<text text-anchor="start" x="95" y="-373.5" font-family="Helvetica,sans-Serif" font-size="10.00">+ enabled</text>
<text text-anchor="start" x="95" y="-362.5" font-family="Helvetica,sans-Serif" font-size="10.00">+ havemeta</text>
<text text-anchor="start" x="95" y="-351.5" font-family="Helvetica,sans-Serif" font-size="10.00">+ havedata</text>
<text text-anchor="start" x="95" y="-340.5" font-family="Helvetica,sans-Serif" font-size="10.00">+ sendmeta</text>
<text text-anchor="start" x="95" y="-329.5" font-family="Helvetica,sans-Serif" font-size="10.00">+ sentmeta</text>
<text text-anchor="start" x="95" y="-318.5" font-family="Helvetica,sans-Serif" font-size="10.00">+ senddata</text>
<text text-anchor="start" x="95" y="-307.5" font-family="Helvetica,sans-Serif" font-size="10.00">+ sentdata</text>
<text text-anchor="start" x="95" y="-296.5" font-family="Helvetica,sans-Serif" font-size="10.00">+ complete</text>
<text text-anchor="start" x="95" y="-285.5" font-family="Helvetica,sans-Serif" font-size="10.00">+ savetime</text>
<text text-anchor="start" x="95" y="-274.5" font-family="Helvetica,sans-Serif" font-size="10.00">+ datatime</text>
<text text-anchor="start" x="95" y="-263.5" font-family="Helvetica,sans-Serif" font-size="10.00">+ file_size</text>
<text text-anchor="start" x="95" y="-252.5" font-family="Helvetica,sans-Serif" font-size="10.00">+ total_bytes</text>
<text text-anchor="start" x="95" y="-241.5" font-family="Helvetica,sans-Serif" font-size="10.00">+ fp</text>
<polyline fill="none" stroke="black" points="87,-234.5 161,-234.5 "/>
<text text-anchor="middle" x="124" y="-222.5" font-family="Helvetica,sans-Serif" font-size="10.00"> </text>
</a>
</g>
</g>
<!-- Node2&#45;&gt;Node1 -->
<g id="edge1" class="edge"><title>Node2&#45;&gt;Node1</title>
<path fill="none" stroke="#404040" d="M130.397,-215.328C132.35,-205.289 134.838,-195.354 138,-186 140.896,-177.432 144.607,-168.815 148.767,-160.42"/>
<polygon fill="none" stroke="#404040" points="148.899,-160.169 148.136,-152.998 154.462,-149.537 155.225,-156.707 148.899,-160.169"/>
<text text-anchor="middle" x="161.5" y="-189" font-family="Helvetica,sans-Serif" font-size="10.00"> +progress</text>
</g>
<!-- Node3 -->
<g id="node3" class="node"><title>Node3</title>
<polygon fill="white" stroke="#bfbfbf" points="0,-507.5 0,-564.5 116,-564.5 116,-507.5 0,-507.5"/>
<text text-anchor="middle" x="58" y="-552.5" font-family="Helvetica,sans-Serif" font-size="10.00">deque&lt; file_progress &gt;</text>
<polyline fill="none" stroke="#bfbfbf" points="0,-545.5 116,-545.5 "/>
<text text-anchor="middle" x="58" y="-533.5" font-family="Helvetica,sans-Serif" font-size="10.00"> </text>
<polyline fill="none" stroke="#bfbfbf" points="0,-526.5 116,-526.5 "/>
<text text-anchor="middle" x="58" y="-514.5" font-family="Helvetica,sans-Serif" font-size="10.00"> </text>
</g>
<!-- Node3&#45;&gt;Node2 -->
<g id="edge2" class="edge"><title>Node3&#45;&gt;Node2</title>
<path fill="none" stroke="#404040" d="M57.0066,-507.073C56.9755,-486.515 58.4083,-458.073 65,-434 69.0196,-419.321 74.9476,-404.317 81.5173,-390.154"/>
<polygon fill="none" stroke="#404040" points="81.6852,-389.806 80.6897,-382.664 86.8995,-378.998 87.895,-386.14 81.6852,-389.806"/>
<text text-anchor="middle" x="86.5" y="-459" font-family="Helvetica,sans-Serif" font-size="10.00"> +file_info</text>
</g>
<!-- Node4 -->
<g id="node4" class="node"><title>Node4</title>
<polygon fill="white" stroke="#bfbfbf" points="156.5,-507.5 156.5,-564.5 197.5,-564.5 197.5,-507.5 156.5,-507.5"/>
<text text-anchor="middle" x="177" y="-552.5" font-family="Helvetica,sans-Serif" font-size="10.00">string</text>
<polyline fill="none" stroke="#bfbfbf" points="156.5,-545.5 197.5,-545.5 "/>
<text text-anchor="middle" x="177" y="-533.5" font-family="Helvetica,sans-Serif" font-size="10.00"> </text>
<polyline fill="none" stroke="#bfbfbf" points="156.5,-526.5 197.5,-526.5 "/>
<text text-anchor="middle" x="177" y="-514.5" font-family="Helvetica,sans-Serif" font-size="10.00"> </text>
</g>
<!-- Node4&#45;&gt;Node1 -->
<g id="edge5" class="edge"><title>Node4&#45;&gt;Node1</title>
<path fill="none" stroke="#404040" d="M182.442,-507.356C183.451,-501.327 184.381,-494.966 185,-489 195.951,-383.486 198.851,-261.728 199.389,-179.693"/>
<polygon fill="none" stroke="#404040" points="199.389,-179.633 195.421,-173.612 199.453,-167.633 203.421,-173.654 199.389,-179.633"/>
<text text-anchor="middle" x="229" y="-313" font-family="Helvetica,sans-Serif" font-size="10.00"> +node_name</text>
</g>
<!-- Node4&#45;&gt;Node2 -->
<g id="edge3" class="edge"><title>Node4&#45;&gt;Node2</title>
<path fill="none" stroke="#404040" d="M156.317,-522.908C144.786,-514.907 131.477,-503.268 125,-489 116.462,-470.194 112.452,-449.001 111.149,-428.073"/>
<polygon fill="none" stroke="#404040" points="111.138,-427.792 106.913,-421.949 110.681,-415.801 114.907,-421.644 111.138,-427.792"/>
<text text-anchor="middle" x="155" y="-481" font-family="Helvetica,sans-Serif" font-size="10.00"> +node_name</text>
<text text-anchor="middle" x="155" y="-470" font-family="Helvetica,sans-Serif" font-size="10.00">+file_name</text>
<text text-anchor="middle" x="155" y="-459" font-family="Helvetica,sans-Serif" font-size="10.00">+temppath</text>
<text text-anchor="middle" x="155" y="-448" font-family="Helvetica,sans-Serif" font-size="10.00">+agent_name</text>
<text text-anchor="middle" x="155" y="-437" font-family="Helvetica,sans-Serif" font-size="10.00">+filepath</text>
</g>
<!-- Node5 -->
<g id="node5" class="node"><title>Node5</title>
<polygon fill="white" stroke="#bfbfbf" points="277.5,-281.5 277.5,-349.5 404.5,-349.5 404.5,-281.5 277.5,-281.5"/>
<text text-anchor="start" x="285.5" y="-337.5" font-family="Helvetica,sans-Serif" font-size="10.00">vector&lt; PACKET_TX_ID</text>
<text text-anchor="middle" x="341" y="-326.5" font-family="Helvetica,sans-Serif" font-size="10.00">_TYPE &gt;</text>
<polyline fill="none" stroke="#bfbfbf" points="277.5,-319.5 404.5,-319.5 "/>
<text text-anchor="middle" x="341" y="-307.5" font-family="Helvetica,sans-Serif" font-size="10.00"> </text>
<polyline fill="none" stroke="#bfbfbf" points="277.5,-300.5 404.5,-300.5 "/>
<text text-anchor="middle" x="341" y="-288.5" font-family="Helvetica,sans-Serif" font-size="10.00"> </text>
</g>
<!-- Node5&#45;&gt;Node1 -->
<g id="edge4" class="edge"><title>Node5&#45;&gt;Node1</title>
<path fill="none" stroke="#404040" d="M320.352,-281.129C301.993,-251.457 274.381,-206.83 250.131,-167.638"/>
<polygon fill="none" stroke="#404040" points="250.034,-167.48 243.475,-164.483 243.72,-157.276 250.278,-160.273 250.034,-167.48"/>
<text text-anchor="middle" x="288" y="-189" font-family="Helvetica,sans-Serif" font-size="10.00"> +meta_id</text>
</g>
</g>
</svg>
