<?xml version="1.0" encoding="UTF-8" standalone="no"?>
<!DOCTYPE svg PUBLIC "-//W3C//DTD SVG 1.1//EN"
 "http://www.w3.org/Graphics/SVG/1.1/DTD/svg11.dtd">
<!-- Generated by graphviz version 2.38.0 (20140413.2041)
 -->
<!-- Title: attstruc Pages: 1 -->
<!--zoomable 623 -->
<svg id="main" version="1.1" xmlns="http://www.w3.org/2000/svg" xmlns:xlink="http://www.w3.org/1999/xlink" xml:space="preserve" onload="init(evt)">
<style type="text/css"><![CDATA[
.edge:hover path { stroke: red; }
.edge:hover polygon { stroke: red; fill: red; }
]]></style>
<script type="text/javascript"><![CDATA[
var edges = document.getElementsByTagName('g');
if (edges && edges.length) {
  for (var i=0;i<edges.length;i++) {
    if (edges[i].id.substr(0,4)=='edge') {
      edges[i].setAttribute('class','edge');
    }
  }
}
]]></script>
        <defs>
                <circle id="rim" cx="0" cy="0" r="7"/>
                <circle id="rim2" cx="0" cy="0" r="3.5"/>
                <g id="zoomPlus">
                        <use xlink:href="#rim" fill="#404040">
                                <set attributeName="fill" to="#808080" begin="zoomplus.mouseover" end="zoomplus.mouseout"/>
                        </use>
                        <path d="M-4,0h8M0,-4v8" fill="none" stroke="white" stroke-width="1.5" pointer-events="none"/>
                </g>
                <g id="zoomMin">
                        <use xlink:href="#rim" fill="#404040">
                                <set attributeName="fill" to="#808080" begin="zoomminus.mouseover" end="zoomminus.mouseout"/>
                        </use>
                        <path d="M-4,0h8" fill="none" stroke="white" stroke-width="1.5" pointer-events="none"/>
                </g>
                <g id="dirArrow">
                        <path fill="none" stroke="white" stroke-width="1.5" d="M0,-3.0v7 M-2.5,-0.5L0,-3.0L2.5,-0.5"/>
                </g>
               <g id="resetDef">
                       <use xlink:href="#rim2" fill="#404040">
                               <set attributeName="fill" to="#808080" begin="reset.mouseover" end="reset.mouseout"/>
                       </use>
               </g>
        </defs>

<script type="text/javascript">
var viewWidth = 230;
var viewHeight = 623;
var sectionId = 'dynsection-0';
</script>
<script xlink:href="svgpan.js"/>
<svg id="graph" class="graph">
<g id="viewport">
<title>attstruc</title>
<polygon fill="white" stroke="none" points="-4,4 -4,-619 225.5,-619 225.5,4 -4,4"/>
<!-- Node1 -->
<g id="node1" class="node"><title>Node1</title>
<polygon fill="#bfbfbf" stroke="black" points="90.5,-0.5 90.5,-68.5 164.5,-68.5 164.5,-0.5 90.5,-0.5"/>
<text text-anchor="middle" x="127.5" y="-56.5" font-family="Helvetica,sans-Serif" font-size="10.00">attstruc</text>
<polyline fill="none" stroke="black" points="90.5,-49.5 164.5,-49.5 "/>
<text text-anchor="start" x="98.5" y="-37.5" font-family="Helvetica,sans-Serif" font-size="10.00">+ utc</text>
<polyline fill="none" stroke="black" points="90.5,-30.5 164.5,-30.5 "/>
<text text-anchor="start" x="98.5" y="-18.5" font-family="Helvetica,sans-Serif" font-size="10.00">+ to_json()</text>
<text text-anchor="start" x="98.5" y="-7.5" font-family="Helvetica,sans-Serif" font-size="10.00">+ from_json()</text>
</g>
<!-- Node2 -->
<g id="node2" class="node"><title>Node2</title>
<g id="a_node2"><a xlink:href="structqatt.html" target="_top" xlink:title="Quaternion Attitude. ">
<polygon fill="white" stroke="black" points="55.5,-160.5 55.5,-239.5 129.5,-239.5 129.5,-160.5 55.5,-160.5"/>
<text text-anchor="middle" x="92.5" y="-227.5" font-family="Helvetica,sans-Serif" font-size="10.00">qatt</text>
<polyline fill="none" stroke="black" points="55.5,-220.5 129.5,-220.5 "/>
<text text-anchor="start" x="63.5" y="-208.5" font-family="Helvetica,sans-Serif" font-size="10.00">+ utc</text>
<text text-anchor="start" x="63.5" y="-197.5" font-family="Helvetica,sans-Serif" font-size="10.00">+ pass</text>
<polyline fill="none" stroke="black" points="55.5,-190.5 129.5,-190.5 "/>
<text text-anchor="start" x="63.5" y="-178.5" font-family="Helvetica,sans-Serif" font-size="10.00">+ to_json()</text>
<text text-anchor="start" x="63.5" y="-167.5" font-family="Helvetica,sans-Serif" font-size="10.00">+ from_json()</text>
</a>
</g>
</g>
<!-- Node2&#45;&gt;Node1 -->
<g id="edge1" class="edge"><title>Node2&#45;&gt;Node1</title>
<path fill="none" stroke="#404040" d="M100.795,-160.253C105.919,-136.313 112.516,-105.495 117.871,-80.4792"/>
<polygon fill="none" stroke="#404040" points="117.877,-80.4547 115.221,-73.7503 120.389,-68.7206 123.044,-75.425 117.877,-80.4547"/>
<text text-anchor="middle" x="130.5" y="-134" font-family="Helvetica,sans-Serif" font-size="10.00"> +selc</text>
<text text-anchor="middle" x="130.5" y="-123" font-family="Helvetica,sans-Serif" font-size="10.00">+topo</text>
<text text-anchor="middle" x="130.5" y="-112" font-family="Helvetica,sans-Serif" font-size="10.00">+icrf</text>
<text text-anchor="middle" x="130.5" y="-101" font-family="Helvetica,sans-Serif" font-size="10.00">+geoc</text>
<text text-anchor="middle" x="130.5" y="-90" font-family="Helvetica,sans-Serif" font-size="10.00">+lvlh</text>
</g>
<!-- Node3 -->
<g id="node3" class="node"><title>Node3</title>
<g id="a_node3"><a xlink:href="structquaternion.html" target="_top" xlink:title="Quaternion, scalar last, using x, y, z. ">
<polygon fill="white" stroke="black" points="1,-298.5 1,-388.5 78,-388.5 78,-298.5 1,-298.5"/>
<text text-anchor="middle" x="39.5" y="-376.5" font-family="Helvetica,sans-Serif" font-size="10.00">quaternion</text>
<polyline fill="none" stroke="black" points="1,-369.5 78,-369.5 "/>
<text text-anchor="start" x="9" y="-357.5" font-family="Helvetica,sans-Serif" font-size="10.00">+ w</text>
<polyline fill="none" stroke="black" points="1,-350.5 78,-350.5 "/>
<text text-anchor="start" x="9" y="-338.5" font-family="Helvetica,sans-Serif" font-size="10.00">+ quaternion()</text>
<text text-anchor="start" x="9" y="-327.5" font-family="Helvetica,sans-Serif" font-size="10.00">+ quaternion()</text>
<text text-anchor="start" x="9" y="-316.5" font-family="Helvetica,sans-Serif" font-size="10.00">+ to_json()</text>
<text text-anchor="start" x="9" y="-305.5" font-family="Helvetica,sans-Serif" font-size="10.00">+ from_json()</text>
</a>
</g>
</g>
<!-- Node3&#45;&gt;Node2 -->
<g id="edge2" class="edge"><title>Node3&#45;&gt;Node2</title>
<path fill="none" stroke="#404040" d="M56.1241,-298.117C61.6881,-283.262 67.9299,-266.597 73.6513,-251.322"/>
<polygon fill="none" stroke="#404040" points="73.696,-251.203 72.0547,-244.181 77.9052,-239.965 79.5465,-246.987 73.696,-251.203"/>
<text text-anchor="middle" x="79" y="-266.5" font-family="Helvetica,sans-Serif" font-size="10.00"> +s</text>
</g>
<!-- Node4 -->
<g id="node4" class="node"><title>Node4</title>
<g id="a_node4"><a xlink:href="classcvector.html" target="_top" xlink:title="3 element cartesian vector ">
<polygon fill="white" stroke="black" points="0,-436.5 0,-614.5 79,-614.5 79,-436.5 0,-436.5"/>
<text text-anchor="middle" x="39.5" y="-602.5" font-family="Helvetica,sans-Serif" font-size="10.00">cvector</text>
<polyline fill="none" stroke="black" points="0,-595.5 79,-595.5 "/>
<text text-anchor="start" x="8" y="-583.5" font-family="Helvetica,sans-Serif" font-size="10.00">+ x</text>
<text text-anchor="start" x="8" y="-572.5" font-family="Helvetica,sans-Serif" font-size="10.00">+ y</text>
<text text-anchor="start" x="8" y="-561.5" font-family="Helvetica,sans-Serif" font-size="10.00">+ z</text>
<polyline fill="none" stroke="black" points="0,-554.5 79,-554.5 "/>
<text text-anchor="start" x="8" y="-542.5" font-family="Helvetica,sans-Serif" font-size="10.00">+ cvector()</text>
<text text-anchor="start" x="8" y="-531.5" font-family="Helvetica,sans-Serif" font-size="10.00">+ cvector()</text>
<text text-anchor="start" x="8" y="-520.5" font-family="Helvetica,sans-Serif" font-size="10.00">+ normalize()</text>
<text text-anchor="start" x="8" y="-509.5" font-family="Helvetica,sans-Serif" font-size="10.00">+ length()</text>
<text text-anchor="start" x="8" y="-498.5" font-family="Helvetica,sans-Serif" font-size="10.00">+ norm()</text>
<text text-anchor="start" x="8" y="-487.5" font-family="Helvetica,sans-Serif" font-size="10.00">+ norm2()</text>
<text text-anchor="start" x="8" y="-476.5" font-family="Helvetica,sans-Serif" font-size="10.00">+ normalized()</text>
<text text-anchor="start" x="8" y="-465.5" font-family="Helvetica,sans-Serif" font-size="10.00">+ operator[]()</text>
<text text-anchor="start" x="8" y="-454.5" font-family="Helvetica,sans-Serif" font-size="10.00">+ to_json()</text>
<text text-anchor="start" x="8" y="-443.5" font-family="Helvetica,sans-Serif" font-size="10.00">+ from_json()</text>
</a>
</g>
</g>
<!-- Node4&#45;&gt;Node3 -->
<g id="edge3" class="edge"><title>Node4&#45;&gt;Node3</title>
<path fill="none" stroke="#404040" d="M39.5,-436.346C39.5,-424.308 39.5,-412.226 39.5,-400.962"/>
<polygon fill="none" stroke="#404040" points="39.5001,-400.638 35.5,-394.638 39.5,-388.638 43.5,-394.638 39.5001,-400.638"/>
<text text-anchor="middle" x="47" y="-410" font-family="Helvetica,sans-Serif" font-size="10.00"> +d</text>
</g>
<!-- Node5 -->
<g id="node5" class="node"><title>Node5</title>
<g id="a_node5"><a xlink:href="structrvector.html" target="_top" xlink:title="3 element generic row vector ">
<polygon fill="white" stroke="black" points="112.5,-480.5 112.5,-570.5 186.5,-570.5 186.5,-480.5 112.5,-480.5"/>
<text text-anchor="middle" x="149.5" y="-558.5" font-family="Helvetica,sans-Serif" font-size="10.00">rvector</text>
<polyline fill="none" stroke="black" points="112.5,-551.5 186.5,-551.5 "/>
<text text-anchor="start" x="120.5" y="-539.5" font-family="Helvetica,sans-Serif" font-size="10.00">+ col</text>
<polyline fill="none" stroke="black" points="112.5,-532.5 186.5,-532.5 "/>
<text text-anchor="start" x="120.5" y="-520.5" font-family="Helvetica,sans-Serif" font-size="10.00">+ rvector()</text>
<text text-anchor="start" x="120.5" y="-509.5" font-family="Helvetica,sans-Serif" font-size="10.00">+ rvector()</text>
<text text-anchor="start" x="120.5" y="-498.5" font-family="Helvetica,sans-Serif" font-size="10.00">+ to_json()</text>
<text text-anchor="start" x="120.5" y="-487.5" font-family="Helvetica,sans-Serif" font-size="10.00">+ from_json()</text>
</a>
</g>
</g>
<!-- Node5&#45;&gt;Node2 -->
<g id="edge4" class="edge"><title>Node5&#45;&gt;Node2</title>
<path fill="none" stroke="#404040" d="M140.718,-480.311C135.536,-453.854 128.947,-419.538 123.5,-389 115.229,-342.626 106.567,-289.672 100.509,-251.808"/>
<polygon fill="none" stroke="#404040" points="100.448,-251.427 95.5534,-246.132 98.5586,-239.577 103.454,-244.872 100.448,-251.427"/>
<text text-anchor="middle" x="131" y="-346.5" font-family="Helvetica,sans-Serif" font-size="10.00"> +a</text>
<text text-anchor="middle" x="131" y="-335.5" font-family="Helvetica,sans-Serif" font-size="10.00">+v</text>
</g>
<!-- Node7 -->
<g id="node7" class="node"><title>Node7</title>
<g id="a_node7"><a xlink:href="structrmatrix.html" target="_top" xlink:title="3x3 element generic matrix ">
<polygon fill="white" stroke="black" points="147.5,-298.5 147.5,-388.5 221.5,-388.5 221.5,-298.5 147.5,-298.5"/>
<text text-anchor="middle" x="184.5" y="-376.5" font-family="Helvetica,sans-Serif" font-size="10.00">rmatrix</text>
<polyline fill="none" stroke="black" points="147.5,-369.5 221.5,-369.5 "/>
<text text-anchor="middle" x="184.5" y="-357.5" font-family="Helvetica,sans-Serif" font-size="10.00"> </text>
<polyline fill="none" stroke="black" points="147.5,-350.5 221.5,-350.5 "/>
<text text-anchor="start" x="155.5" y="-338.5" font-family="Helvetica,sans-Serif" font-size="10.00">+ rmatrix()</text>
<text text-anchor="start" x="155.5" y="-327.5" font-family="Helvetica,sans-Serif" font-size="10.00">+ rmatrix()</text>
<text text-anchor="start" x="155.5" y="-316.5" font-family="Helvetica,sans-Serif" font-size="10.00">+ to_json()</text>
<text text-anchor="start" x="155.5" y="-305.5" font-family="Helvetica,sans-Serif" font-size="10.00">+ from_json()</text>
</a>
</g>
</g>
<!-- Node5&#45;&gt;Node7 -->
<g id="edge7" class="edge"><title>Node5&#45;&gt;Node7</title>
<path fill="none" stroke="#404040" d="M158.062,-480.467C162.744,-456.387 168.593,-426.306 173.599,-400.565"/>
<polygon fill="none" stroke="#404040" points="173.615,-400.482 170.833,-393.828 175.905,-388.702 178.686,-395.355 173.615,-400.482"/>
<text text-anchor="middle" x="185" y="-410" font-family="Helvetica,sans-Serif" font-size="10.00"> +row</text>
</g>
<!-- Node6 -->
<g id="node6" class="node"><title>Node6</title>
<g id="a_node6"><a xlink:href="structextraatt.html" target="_top" xlink:title="Additional parameters relating to position that need only be calculated once. ">
<polygon fill="white" stroke="black" points="147.5,-166 147.5,-234 221.5,-234 221.5,-166 147.5,-166"/>
<text text-anchor="middle" x="184.5" y="-222" font-family="Helvetica,sans-Serif" font-size="10.00">extraatt</text>
<polyline fill="none" stroke="black" points="147.5,-215 221.5,-215 "/>
<text text-anchor="start" x="155.5" y="-203" font-family="Helvetica,sans-Serif" font-size="10.00">+ utc</text>
<polyline fill="none" stroke="black" points="147.5,-196 221.5,-196 "/>
<text text-anchor="start" x="155.5" y="-184" font-family="Helvetica,sans-Serif" font-size="10.00">+ to_json()</text>
<text text-anchor="start" x="155.5" y="-173" font-family="Helvetica,sans-Serif" font-size="10.00">+ from_json()</text>
</a>
</g>
</g>
<!-- Node6&#45;&gt;Node1 -->
<g id="edge5" class="edge"><title>Node6&#45;&gt;Node1</title>
<path fill="none" stroke="#404040" d="M174.599,-165.941C167.708,-143.521 158.071,-113.293 148.5,-87 147.649,-84.6608 146.756,-82.2704 145.838,-79.8629"/>
<polygon fill="none" stroke="#404040" points="145.804,-79.7745 139.892,-75.645 141.43,-68.5998 147.342,-72.7294 145.804,-79.7745"/>
<text text-anchor="middle" x="183" y="-112" font-family="Helvetica,sans-Serif" font-size="10.00"> +extra</text>
</g>
<!-- Node7&#45;&gt;Node6 -->
<g id="edge6" class="edge"><title>Node7&#45;&gt;Node6</title>
<path fill="none" stroke="#404040" d="M184.5,-298.117C184.5,-281.712 184.5,-263.1 184.5,-246.59"/>
<polygon fill="none" stroke="#404040" points="184.5,-246.445 180.5,-240.445 184.5,-234.445 188.5,-240.445 184.5,-246.445"/>
<text text-anchor="middle" x="195.5" y="-272" font-family="Helvetica,sans-Serif" font-size="10.00"> +b2j</text>
<text text-anchor="middle" x="195.5" y="-261" font-family="Helvetica,sans-Serif" font-size="10.00">+j2b</text>
</g>
</g>
</svg>
        <g id="navigator" transform="translate(0 0)" fill="#404254">
                <rect fill="#f2f5e9" fill-opacity="0.5" stroke="#606060" stroke-width=".5" x="0" y="0" width="60" height="60"/>
                <use id="zoomplus" xlink:href="#zoomPlus" x="17" y="9" onmousedown="handleZoom(evt,'in')"/>
                <use id="zoomminus" xlink:href="#zoomMin" x="42" y="9" onmousedown="handleZoom(evt,'out')"/>
                <use id="reset" xlink:href="#resetDef" x="30" y="36" onmousedown="handleReset()"/>
                <g id="arrowUp" xlink:href="#dirArrow" transform="translate(30 24)" onmousedown="handlePan(0,-1)">
                  <use xlink:href="#rim" fill="#404040">
                        <set attributeName="fill" to="#808080" begin="arrowUp.mouseover" end="arrowUp.mouseout"/>
                  </use>
                  <path fill="none" stroke="white" stroke-width="1.5" d="M0,-3.0v7 M-2.5,-0.5L0,-3.0L2.5,-0.5"/>
                </g>
                <g id="arrowRight" xlink:href="#dirArrow" transform="rotate(90) translate(36 -43)" onmousedown="handlePan(1,0)">
                  <use xlink:href="#rim" fill="#404040">
                        <set attributeName="fill" to="#808080" begin="arrowRight.mouseover" end="arrowRight.mouseout"/>
                  </use>
                  <path fill="none" stroke="white" stroke-width="1.5" d="M0,-3.0v7 M-2.5,-0.5L0,-3.0L2.5,-0.5"/>
                </g>
                <g id="arrowDown" xlink:href="#dirArrow" transform="rotate(180) translate(-30 -48)" onmousedown="handlePan(0,1)">
                  <use xlink:href="#rim" fill="#404040">
                        <set attributeName="fill" to="#808080" begin="arrowDown.mouseover" end="arrowDown.mouseout"/>
                  </use>
                  <path fill="none" stroke="white" stroke-width="1.5" d="M0,-3.0v7 M-2.5,-0.5L0,-3.0L2.5,-0.5"/>
                </g>
                <g id="arrowLeft" xlink:href="#dirArrow" transform="rotate(270) translate(-36 17)" onmousedown="handlePan(-1,0)">
                  <use xlink:href="#rim" fill="#404040">
                        <set attributeName="fill" to="#808080" begin="arrowLeft.mouseover" end="arrowLeft.mouseout"/>
                  </use>
                  <path fill="none" stroke="white" stroke-width="1.5" d="M0,-3.0v7 M-2.5,-0.5L0,-3.0L2.5,-0.5"/>
                </g>
        </g>
        <svg viewBox="0 0 15 15" width="100%" height="30px" preserveAspectRatio="xMaxYMin meet">
         <g id="arrow_out" transform="scale(0.3 0.3)">
          <a xlink:href="structattstruc__coll__graph_org.svg" target="_base">
           <rect id="button" ry="5" rx="5" y="6" x="6" height="38" width="38"
                fill="#f2f5e9" fill-opacity="0.5" stroke="#606060" stroke-width="1.0"/>
           <path id="arrow"
             d="M 11.500037,31.436501 C 11.940474,20.09759 22.043105,11.32322 32.158766,21.979434 L 37.068811,17.246167 C 37.068811,17.246167 37.088388,32 37.088388,32 L 22.160133,31.978069 C 22.160133,31.978069 26.997745,27.140456 26.997745,27.140456 C 18.528582,18.264221 13.291696,25.230495 11.500037,31.436501 z"
             style="fill:#404040;"/>
          </a>
         </g>
        </svg>
</svg>
