<?xml version="1.0" encoding="UTF-8" standalone="no"?>
<!DOCTYPE svg PUBLIC "-//W3C//DTD SVG 1.1//EN"
 "http://www.w3.org/Graphics/SVG/1.1/DTD/svg11.dtd">
<!-- Generated by graphviz version 2.38.0 (20140413.2041)
 -->
<!-- Title: trianglestruc Pages: 1 -->
<svg width="262pt" height="479pt"
 viewBox="0.00 0.00 262.00 479.00" xmlns="http://www.w3.org/2000/svg" xmlns:xlink="http://www.w3.org/1999/xlink">
<g id="graph0" class="graph" transform="scale(1 1) rotate(0) translate(4 475)">
<title>trianglestruc</title>
<polygon fill="white" stroke="none" points="-4,4 -4,-475 258,-475 258,4 -4,4"/>
<!-- Node1 -->
<g id="node1" class="node"><title>Node1</title>
<polygon fill="#bfbfbf" stroke="black" points="88.5,-0.5 88.5,-178.5 168.5,-178.5 168.5,-0.5 88.5,-0.5"/>
<text text-anchor="middle" x="128.5" y="-166.5" font-family="Helvetica,sans-Serif" font-size="10.00">trianglestruc</text>
<polyline fill="none" stroke="black" points="88.5,-159.5 168.5,-159.5 "/>
<text text-anchor="start" x="96.5" y="-147.5" font-family="Helvetica,sans-Serif" font-size="10.00">+ external</text>
<text text-anchor="start" x="96.5" y="-136.5" font-family="Helvetica,sans-Serif" font-size="10.00">+ pidx</text>
<text text-anchor="start" x="96.5" y="-125.5" font-family="Helvetica,sans-Serif" font-size="10.00">+ tidx</text>
<text text-anchor="start" x="96.5" y="-114.5" font-family="Helvetica,sans-Serif" font-size="10.00">+ heat</text>
<text text-anchor="start" x="96.5" y="-103.5" font-family="Helvetica,sans-Serif" font-size="10.00">+ hcap</text>
<text text-anchor="start" x="96.5" y="-92.5" font-family="Helvetica,sans-Serif" font-size="10.00">+ emi</text>
<text text-anchor="start" x="96.5" y="-81.5" font-family="Helvetica,sans-Serif" font-size="10.00">+ abs</text>
<text text-anchor="start" x="96.5" y="-70.5" font-family="Helvetica,sans-Serif" font-size="10.00">+ iemi</text>
<text text-anchor="start" x="96.5" y="-59.5" font-family="Helvetica,sans-Serif" font-size="10.00">+ iabs</text>
<text text-anchor="start" x="96.5" y="-48.5" font-family="Helvetica,sans-Serif" font-size="10.00">+ mass</text>
<text text-anchor="start" x="96.5" y="-37.5" font-family="Helvetica,sans-Serif" font-size="10.00">and 12 more...</text>
<polyline fill="none" stroke="black" points="88.5,-30.5 168.5,-30.5 "/>
<text text-anchor="start" x="96.5" y="-18.5" font-family="Helvetica,sans-Serif" font-size="10.00">+ to_json()</text>
<text text-anchor="start" x="96.5" y="-7.5" font-family="Helvetica,sans-Serif" font-size="10.00">+ from_json()</text>
</g>
<!-- Node2 -->
<g id="node2" class="node"><title>Node2</title>
<g id="a_node2"><a xlink:href="class_cosmos_1_1_math_1_1_vectors_1_1_vector.html" target="_top" xlink:title="Vector Class. ">
<polygon fill="white" stroke="black" points="0,-259.5 0,-470.5 121,-470.5 121,-259.5 0,-259.5"/>
<text text-anchor="start" x="8" y="-458.5" font-family="Helvetica,sans-Serif" font-size="10.00">Cosmos::Math::Vectors</text>
<text text-anchor="middle" x="60.5" y="-447.5" font-family="Helvetica,sans-Serif" font-size="10.00">::Vector</text>
<polyline fill="none" stroke="black" points="0,-440.5 121,-440.5 "/>
<text text-anchor="start" x="8" y="-428.5" font-family="Helvetica,sans-Serif" font-size="10.00">+ x</text>
<text text-anchor="start" x="8" y="-417.5" font-family="Helvetica,sans-Serif" font-size="10.00">+ y</text>
<text text-anchor="start" x="8" y="-406.5" font-family="Helvetica,sans-Serif" font-size="10.00">+ z</text>
<text text-anchor="start" x="8" y="-395.5" font-family="Helvetica,sans-Serif" font-size="10.00">+ w</text>
<polyline fill="none" stroke="black" points="0,-388.5 121,-388.5 "/>
<text text-anchor="start" x="8" y="-376.5" font-family="Helvetica,sans-Serif" font-size="10.00">+ Vector()</text>
<text text-anchor="start" x="8" y="-365.5" font-family="Helvetica,sans-Serif" font-size="10.00">+ Vector()</text>
<text text-anchor="start" x="8" y="-354.5" font-family="Helvetica,sans-Serif" font-size="10.00">+ Vector()</text>
<text text-anchor="start" x="8" y="-343.5" font-family="Helvetica,sans-Serif" font-size="10.00">+ Vector()</text>
<text text-anchor="start" x="8" y="-332.5" font-family="Helvetica,sans-Serif" font-size="10.00">+ at()</text>
<text text-anchor="start" x="8" y="-321.5" font-family="Helvetica,sans-Serif" font-size="10.00">+ to_rv()</text>
<text text-anchor="start" x="8" y="-310.5" font-family="Helvetica,sans-Serif" font-size="10.00">+ to_cv()</text>
<text text-anchor="start" x="8" y="-299.5" font-family="Helvetica,sans-Serif" font-size="10.00">+ to_q()</text>
<text text-anchor="start" x="8" y="-288.5" font-family="Helvetica,sans-Serif" font-size="10.00">+ cross()</text>
<text text-anchor="start" x="8" y="-277.5" font-family="Helvetica,sans-Serif" font-size="10.00">+ dot()</text>
<text text-anchor="start" x="8" y="-266.5" font-family="Helvetica,sans-Serif" font-size="10.00">and 26 more...</text>
</a>
</g>
</g>
<!-- Node2&#45;&gt;Node1 -->
<g id="edge1" class="edge"><title>Node2&#45;&gt;Node1</title>
<path fill="none" stroke="#404040" d="M86.499,-259.431C92.1243,-236.805 98.0594,-212.934 103.64,-190.489"/>
<polygon fill="none" stroke="#404040" points="103.715,-190.187 101.281,-183.399 106.61,-178.542 109.044,-185.33 103.715,-190.187"/>
<text text-anchor="middle" x="119.5" y="-233" font-family="Helvetica,sans-Serif" font-size="10.00"> +com</text>
<text text-anchor="middle" x="119.5" y="-222" font-family="Helvetica,sans-Serif" font-size="10.00">+normal</text>
<text text-anchor="middle" x="119.5" y="-211" font-family="Helvetica,sans-Serif" font-size="10.00">+twist</text>
<text text-anchor="middle" x="119.5" y="-200" font-family="Helvetica,sans-Serif" font-size="10.00">+shove</text>
</g>
<!-- Node3 -->
<g id="node3" class="node"><title>Node3</title>
<polygon fill="white" stroke="#bfbfbf" points="139,-331 139,-399 254,-399 254,-331 139,-331"/>
<text text-anchor="start" x="147" y="-387" font-family="Helvetica,sans-Serif" font-size="10.00">vector&lt; vector&lt; uint16</text>
<text text-anchor="middle" x="196.5" y="-376" font-family="Helvetica,sans-Serif" font-size="10.00">_t &gt; &gt;</text>
<polyline fill="none" stroke="#bfbfbf" points="139,-369 254,-369 "/>
<text text-anchor="middle" x="196.5" y="-357" font-family="Helvetica,sans-Serif" font-size="10.00"> </text>
<polyline fill="none" stroke="#bfbfbf" points="139,-350 254,-350 "/>
<text text-anchor="middle" x="196.5" y="-338" font-family="Helvetica,sans-Serif" font-size="10.00"> </text>
</g>
<!-- Node3&#45;&gt;Node1 -->
<g id="edge2" class="edge"><title>Node3&#45;&gt;Node1</title>
<path fill="none" stroke="#404040" d="M188.23,-330.737C179.579,-295.943 165.577,-239.625 153.303,-190.26"/>
<polygon fill="none" stroke="#404040" points="153.284,-190.182 147.954,-185.325 150.388,-178.537 155.718,-183.394 153.284,-190.182"/>
<text text-anchor="middle" x="196.5" y="-216.5" font-family="Helvetica,sans-Serif" font-size="10.00"> +triangleindex</text>
</g>
</g>
</svg>
