<?xml version="1.0" encoding="UTF-8" standalone="no"?>
<!DOCTYPE svg PUBLIC "-//W3C//DTD SVG 1.1//EN"
 "http://www.w3.org/Graphics/SVG/1.1/DTD/svg11.dtd">
<!-- Generated by graphviz version 2.38.0 (20140413.2041)
 -->
<!-- Title: my_idct_controller Pages: 1 -->
<svg width="104pt" height="171pt"
 viewBox="0.00 0.00 104.00 171.00" xmlns="http://www.w3.org/2000/svg" xmlns:xlink="http://www.w3.org/1999/xlink">
<g id="graph0" class="graph" transform="scale(1 1) rotate(0) translate(4 167)">
<title>my_idct_controller</title>
<polygon fill="white" stroke="none" points="-4,4 -4,-167 100,-167 100,4 -4,4"/>
<!-- Node1 -->
<g id="node1" class="node"><title>Node1</title>
<polygon fill="#bfbfbf" stroke="black" points="0,-0.5 0,-57.5 96,-57.5 96,-0.5 0,-0.5"/>
<text text-anchor="middle" x="48" y="-45.5" font-family="Helvetica,sans-Serif" font-size="10.00">my_idct_controller</text>
<polyline fill="none" stroke="black" points="0,-38.5 96,-38.5 "/>
<text text-anchor="start" x="8" y="-26.5" font-family="Helvetica,sans-Serif" font-size="10.00">+ cur_method</text>
<polyline fill="none" stroke="black" points="0,-19.5 96,-19.5 "/>
<text text-anchor="middle" x="48" y="-7.5" font-family="Helvetica,sans-Serif" font-size="10.00"> </text>
</g>
<!-- Node2 -->
<g id="node2" class="node"><title>Node2</title>
<g id="a_node2"><a xlink:href="structjpeg__inverse__dct.html" target="_top" xlink:title="{jpeg_inverse_dct\n|+ inverse_DCT\l|+ JMETHOD()\l}">
<polygon fill="white" stroke="black" points="3,-105.5 3,-162.5 93,-162.5 93,-105.5 3,-105.5"/>
<text text-anchor="middle" x="48" y="-150.5" font-family="Helvetica,sans-Serif" font-size="10.00">jpeg_inverse_dct</text>
<polyline fill="none" stroke="black" points="3,-143.5 93,-143.5 "/>
<text text-anchor="start" x="11" y="-131.5" font-family="Helvetica,sans-Serif" font-size="10.00">+ inverse_DCT</text>
<polyline fill="none" stroke="black" points="3,-124.5 93,-124.5 "/>
<text text-anchor="start" x="11" y="-112.5" font-family="Helvetica,sans-Serif" font-size="10.00">+ JMETHOD()</text>
</a>
</g>
</g>
<!-- Node2&#45;&gt;Node1 -->
<g id="edge1" class="edge"><title>Node2&#45;&gt;Node1</title>
<path fill="none" stroke="#404040" d="M48,-105.398C48,-94.5451 48,-81.8731 48,-70.0493"/>
<polygon fill="none" stroke="#404040" points="48.0001,-69.6783 44,-63.6783 48,-57.6783 52,-63.6783 48.0001,-69.6783"/>
<text text-anchor="middle" x="60.5" y="-79" font-family="Helvetica,sans-Serif" font-size="10.00"> +pub</text>
</g>
</g>
</svg>
