<?xml version="1.0" encoding="UTF-8" standalone="no"?>
<!DOCTYPE svg PUBLIC "-//W3C//DTD SVG 1.1//EN"
 "http://www.w3.org/Graphics/SVG/1.1/DTD/svg11.dtd">
<!-- Generated by graphviz version 2.38.0 (20140413.2041)
 -->
<!-- Title: gj_handle Pages: 1 -->
<svg width="489pt" height="248pt"
 viewBox="0.00 0.00 489.00 248.00" xmlns="http://www.w3.org/2000/svg" xmlns:xlink="http://www.w3.org/1999/xlink">
<g id="graph0" class="graph" transform="scale(1 1) rotate(0) translate(4 244)">
<title>gj_handle</title>
<polygon fill="white" stroke="none" points="-4,4 -4,-244 485,-244 485,4 -4,4"/>
<!-- Node1 -->
<g id="node1" class="node"><title>Node1</title>
<polygon fill="#bfbfbf" stroke="black" points="232,-0.5 232,-90.5 290,-90.5 290,-0.5 232,-0.5"/>
<text text-anchor="middle" x="261" y="-78.5" font-family="Helvetica,sans-Serif" font-size="10.00">gj_handle</text>
<polyline fill="none" stroke="black" points="232,-71.5 290,-71.5 "/>
<text text-anchor="start" x="240" y="-59.5" font-family="Helvetica,sans-Serif" font-size="10.00">+ dt</text>
<text text-anchor="start" x="240" y="-48.5" font-family="Helvetica,sans-Serif" font-size="10.00">+ dtsq</text>
<text text-anchor="start" x="240" y="-37.5" font-family="Helvetica,sans-Serif" font-size="10.00">+ order</text>
<text text-anchor="start" x="240" y="-26.5" font-family="Helvetica,sans-Serif" font-size="10.00">+ order2</text>
<polyline fill="none" stroke="black" points="232,-19.5 290,-19.5 "/>
<text text-anchor="middle" x="261" y="-7.5" font-family="Helvetica,sans-Serif" font-size="10.00"> </text>
</g>
<!-- Node2 -->
<g id="node2" class="node"><title>Node2</title>
<polygon fill="white" stroke="#bfbfbf" points="0,-171.5 0,-239.5 110,-239.5 110,-171.5 0,-171.5"/>
<text text-anchor="start" x="8" y="-227.5" font-family="Helvetica,sans-Serif" font-size="10.00">vector&lt; vector&lt; int32</text>
<text text-anchor="middle" x="55" y="-216.5" font-family="Helvetica,sans-Serif" font-size="10.00">_t &gt; &gt;</text>
<polyline fill="none" stroke="#bfbfbf" points="0,-209.5 110,-209.5 "/>
<text text-anchor="middle" x="55" y="-197.5" font-family="Helvetica,sans-Serif" font-size="10.00"> </text>
<polyline fill="none" stroke="#bfbfbf" points="0,-190.5 110,-190.5 "/>
<text text-anchor="middle" x="55" y="-178.5" font-family="Helvetica,sans-Serif" font-size="10.00"> </text>
</g>
<!-- Node2&#45;&gt;Node1 -->
<g id="edge1" class="edge"><title>Node2&#45;&gt;Node1</title>
<path fill="none" stroke="#404040" d="M97.9991,-171.299C121.843,-152.91 152.038,-129.657 179,-109 193.063,-98.225 208.51,-86.4393 222.167,-76.0351"/>
<polygon fill="none" stroke="#404040" points="222.203,-76.0075 224.554,-69.1901 231.751,-68.7375 229.4,-75.5549 222.203,-76.0075"/>
<text text-anchor="middle" x="197" y="-128.5" font-family="Helvetica,sans-Serif" font-size="10.00"> +binom</text>
</g>
<!-- Node3 -->
<g id="node3" class="node"><title>Node3</title>
<polygon fill="white" stroke="#bfbfbf" points="128.5,-177 128.5,-234 263.5,-234 263.5,-177 128.5,-177"/>
<text text-anchor="middle" x="196" y="-222" font-family="Helvetica,sans-Serif" font-size="10.00">vector&lt; vector&lt; double &gt; &gt;</text>
<polyline fill="none" stroke="#bfbfbf" points="128.5,-215 263.5,-215 "/>
<text text-anchor="middle" x="196" y="-203" font-family="Helvetica,sans-Serif" font-size="10.00"> </text>
<polyline fill="none" stroke="#bfbfbf" points="128.5,-196 263.5,-196 "/>
<text text-anchor="middle" x="196" y="-184" font-family="Helvetica,sans-Serif" font-size="10.00"> </text>
</g>
<!-- Node3&#45;&gt;Node1 -->
<g id="edge2" class="edge"><title>Node3&#45;&gt;Node1</title>
<path fill="none" stroke="#404040" d="M207.322,-176.979C215.807,-156.354 227.703,-127.438 238.14,-102.067"/>
<polygon fill="none" stroke="#404040" points="238.25,-101.8 236.834,-94.7292 242.816,-90.7022 244.232,-97.7728 238.25,-101.8"/>
<text text-anchor="middle" x="251.5" y="-134" font-family="Helvetica,sans-Serif" font-size="10.00"> +alpha</text>
<text text-anchor="middle" x="251.5" y="-123" font-family="Helvetica,sans-Serif" font-size="10.00">+beta</text>
</g>
<!-- Node4 -->
<g id="node4" class="node"><title>Node4</title>
<polygon fill="white" stroke="#bfbfbf" points="281.5,-177 281.5,-234 372.5,-234 372.5,-177 281.5,-177"/>
<text text-anchor="middle" x="327" y="-222" font-family="Helvetica,sans-Serif" font-size="10.00">vector&lt; gjstruc &gt;</text>
<polyline fill="none" stroke="#bfbfbf" points="281.5,-215 372.5,-215 "/>
<text text-anchor="middle" x="327" y="-203" font-family="Helvetica,sans-Serif" font-size="10.00"> </text>
<polyline fill="none" stroke="#bfbfbf" points="281.5,-196 372.5,-196 "/>
<text text-anchor="middle" x="327" y="-184" font-family="Helvetica,sans-Serif" font-size="10.00"> </text>
</g>
<!-- Node4&#45;&gt;Node1 -->
<g id="edge3" class="edge"><title>Node4&#45;&gt;Node1</title>
<path fill="none" stroke="#404040" d="M315.504,-176.979C306.888,-156.354 294.809,-127.438 284.212,-102.067"/>
<polygon fill="none" stroke="#404040" points="284.09,-101.775 278.086,-97.7804 279.464,-90.7022 285.468,-94.6968 284.09,-101.775"/>
<text text-anchor="middle" x="318" y="-128.5" font-family="Helvetica,sans-Serif" font-size="10.00"> +step</text>
</g>
<!-- Node5 -->
<g id="node5" class="node"><title>Node5</title>
<polygon fill="white" stroke="#bfbfbf" points="391,-177 391,-234 481,-234 481,-177 391,-177"/>
<text text-anchor="middle" x="436" y="-222" font-family="Helvetica,sans-Serif" font-size="10.00">vector&lt; double &gt;</text>
<polyline fill="none" stroke="#bfbfbf" points="391,-215 481,-215 "/>
<text text-anchor="middle" x="436" y="-203" font-family="Helvetica,sans-Serif" font-size="10.00"> </text>
<polyline fill="none" stroke="#bfbfbf" points="391,-196 481,-196 "/>
<text text-anchor="middle" x="436" y="-184" font-family="Helvetica,sans-Serif" font-size="10.00"> </text>
</g>
<!-- Node5&#45;&gt;Node1 -->
<g id="edge4" class="edge"><title>Node5&#45;&gt;Node1</title>
<path fill="none" stroke="#404040" d="M408.031,-176.812C388.239,-157.462 360.897,-131.217 336,-109 324.44,-98.685 311.574,-87.768 299.808,-77.9939"/>
<polygon fill="none" stroke="#404040" points="299.489,-77.731 292.316,-76.9955 290.236,-70.0909 297.409,-70.8264 299.489,-77.731"/>
<text text-anchor="middle" x="396.5" y="-145" font-family="Helvetica,sans-Serif" font-size="10.00"> +q</text>
<text text-anchor="middle" x="396.5" y="-134" font-family="Helvetica,sans-Serif" font-size="10.00">+gam</text>
<text text-anchor="middle" x="396.5" y="-123" font-family="Helvetica,sans-Serif" font-size="10.00">+c</text>
<text text-anchor="middle" x="396.5" y="-112" font-family="Helvetica,sans-Serif" font-size="10.00">+lam</text>
</g>
</g>
</svg>
