<?xml version="1.0" encoding="UTF-8" standalone="no"?>
<!DOCTYPE svg PUBLIC "-//W3C//DTD SVG 1.1//EN"
 "http://www.w3.org/Graphics/SVG/1.1/DTD/svg11.dtd">
<!-- Generated by graphviz version 2.38.0 (20140413.2041)
 -->
<!-- Title: testcontainer.h Pages: 1 -->
<!--zoomable 588 -->
<svg id="main" version="1.1" xmlns="http://www.w3.org/2000/svg" xmlns:xlink="http://www.w3.org/1999/xlink" xml:space="preserve" onload="init(evt)">
<style type="text/css"><![CDATA[
.edge:hover path { stroke: red; }
.edge:hover polygon { stroke: red; fill: red; }
]]></style>
<script type="text/javascript"><![CDATA[
var edges = document.getElementsByTagName('g');
if (edges && edges.length) {
  for (var i=0;i<edges.length;i++) {
    if (edges[i].id.substr(0,4)=='edge') {
      edges[i].setAttribute('class','edge');
    }
  }
}
]]></script>
        <defs>
                <circle id="rim" cx="0" cy="0" r="7"/>
                <circle id="rim2" cx="0" cy="0" r="3.5"/>
                <g id="zoomPlus">
                        <use xlink:href="#rim" fill="#404040">
                                <set attributeName="fill" to="#808080" begin="zoomplus.mouseover" end="zoomplus.mouseout"/>
                        </use>
                        <path d="M-4,0h8M0,-4v8" fill="none" stroke="white" stroke-width="1.5" pointer-events="none"/>
                </g>
                <g id="zoomMin">
                        <use xlink:href="#rim" fill="#404040">
                                <set attributeName="fill" to="#808080" begin="zoomminus.mouseover" end="zoomminus.mouseout"/>
                        </use>
                        <path d="M-4,0h8" fill="none" stroke="white" stroke-width="1.5" pointer-events="none"/>
                </g>
                <g id="dirArrow">
                        <path fill="none" stroke="white" stroke-width="1.5" d="M0,-3.0v7 M-2.5,-0.5L0,-3.0L2.5,-0.5"/>
                </g>
               <g id="resetDef">
                       <use xlink:href="#rim2" fill="#404040">
                               <set attributeName="fill" to="#808080" begin="reset.mouseover" end="reset.mouseout"/>
                       </use>
               </g>
        </defs>

<script type="text/javascript">
var viewWidth = 1805;
var viewHeight = 588;
var sectionId = 'dynsection-0';
</script>
<script xlink:href="svgpan.js"/>
<svg id="graph" class="graph">
<g id="viewport">
<title>testcontainer.h</title>
<polygon fill="white" stroke="none" points="-4,4 -4,-584 1801,-584 1801,4 -4,4"/>
<!-- Node1 -->
<g id="node1" class="node"><title>Node1</title>
<polygon fill="#bfbfbf" stroke="black" points="1243.5,-560.5 1243.5,-579.5 1324.5,-579.5 1324.5,-560.5 1243.5,-560.5"/>
<text text-anchor="middle" x="1284" y="-567.5" font-family="Helvetica,sans-Serif" font-size="10.00">testcontainer.h</text>
</g>
<!-- Node2 -->
<g id="node2" class="node"><title>Node2</title>
<polygon fill="white" stroke="#bfbfbf" points="1057.5,-504.5 1057.5,-523.5 1112.5,-523.5 1112.5,-504.5 1057.5,-504.5"/>
<text text-anchor="middle" x="1085" y="-511.5" font-family="Helvetica,sans-Serif" font-size="10.00">QWidget</text>
</g>
<!-- Node1&#45;&gt;Node2 -->
<g id="edge1" class="edge"><title>Node1&#45;&gt;Node2</title>
<path fill="none" stroke="midnightblue" d="M1252.47,-560.444C1217.21,-550.875 1160.13,-535.386 1122.58,-525.197"/>
<polygon fill="midnightblue" stroke="midnightblue" points="1123.11,-521.714 1112.54,-522.473 1121.27,-528.47 1123.11,-521.714"/>
</g>
<!-- Node3 -->
<g id="node3" class="node"><title>Node3</title>
<polygon fill="white" stroke="#bfbfbf" points="1130.5,-504.5 1130.5,-523.5 1201.5,-523.5 1201.5,-504.5 1130.5,-504.5"/>
<text text-anchor="middle" x="1166" y="-511.5" font-family="Helvetica,sans-Serif" font-size="10.00">QListWidget</text>
</g>
<!-- Node1&#45;&gt;Node3 -->
<g id="edge2" class="edge"><title>Node1&#45;&gt;Node3</title>
<path fill="none" stroke="midnightblue" d="M1265.3,-560.444C1246.06,-551.636 1215.85,-537.812 1193.8,-527.722"/>
<polygon fill="midnightblue" stroke="midnightblue" points="1195.16,-524.495 1184.61,-523.516 1192.25,-530.86 1195.16,-524.495"/>
</g>
<!-- Node4 -->
<g id="node4" class="node"><title>Node4</title>
<g id="a_node4"><a xlink:href="convertlib_8h.html" target="_top" xlink:title="convertlib include file A library providing functions for conversion between the various position and...">
<polygon fill="white" stroke="black" points="1219.5,-504.5 1219.5,-523.5 1286.5,-523.5 1286.5,-504.5 1219.5,-504.5"/>
<text text-anchor="middle" x="1253" y="-511.5" font-family="Helvetica,sans-Serif" font-size="10.00">convertlib.h</text>
</a>
</g>
</g>
<!-- Node1&#45;&gt;Node4 -->
<g id="edge3" class="edge"><title>Node1&#45;&gt;Node4</title>
<path fill="none" stroke="midnightblue" d="M1278.88,-560.083C1274.59,-552.613 1268.34,-541.724 1263.06,-532.52"/>
<polygon fill="midnightblue" stroke="midnightblue" points="1266.04,-530.681 1258.02,-523.751 1259.97,-534.166 1266.04,-530.681"/>
</g>
<!-- Node38 -->
<g id="node38" class="node"><title>Node38</title>
<g id="a_node38"><a xlink:href="mathlib_8h.html" target="_top" xlink:title="mathlib include file ">
<polygon fill="white" stroke="black" points="1274.5,-392.5 1274.5,-411.5 1355.5,-411.5 1355.5,-392.5 1274.5,-392.5"/>
<text text-anchor="middle" x="1315" y="-399.5" font-family="Helvetica,sans-Serif" font-size="10.00">math/mathlib.h</text>
</a>
</g>
</g>
<!-- Node1&#45;&gt;Node38 -->
<g id="edge73" class="edge"><title>Node1&#45;&gt;Node38</title>
<path fill="none" stroke="midnightblue" d="M1286.57,-560.438C1289.21,-551.432 1293.29,-536.816 1296,-524 1303.59,-488.062 1309.59,-445.533 1312.69,-421.67"/>
<polygon fill="midnightblue" stroke="midnightblue" points="1316.18,-421.926 1313.97,-411.565 1309.24,-421.044 1316.18,-421.926"/>
</g>
<!-- Node46 -->
<g id="node46" class="node"><title>Node46</title>
<polygon fill="white" stroke="#bfbfbf" points="1343,-504.5 1343,-523.5 1389,-523.5 1389,-504.5 1343,-504.5"/>
<text text-anchor="middle" x="1366" y="-511.5" font-family="Helvetica,sans-Serif" font-size="10.00">stdio.h</text>
</g>
<!-- Node1&#45;&gt;Node46 -->
<g id="edge74" class="edge"><title>Node1&#45;&gt;Node46</title>
<path fill="none" stroke="midnightblue" d="M1297.17,-560.324C1309.85,-551.979 1329.23,-539.212 1344.21,-529.352"/>
<polygon fill="midnightblue" stroke="midnightblue" points="1346.43,-532.078 1352.86,-523.655 1342.58,-526.231 1346.43,-532.078"/>
</g>
<!-- Node47 -->
<g id="node47" class="node"><title>Node47</title>
<g id="a_node47"><a xlink:href="mainwindow_8h.html" target="_top" xlink:title="mainwindow.h">
<polygon fill="white" stroke="black" points="1407.5,-504.5 1407.5,-523.5 1486.5,-523.5 1486.5,-504.5 1407.5,-504.5"/>
<text text-anchor="middle" x="1447" y="-511.5" font-family="Helvetica,sans-Serif" font-size="10.00">mainwindow.h</text>
</a>
</g>
</g>
<!-- Node1&#45;&gt;Node47 -->
<g id="edge75" class="edge"><title>Node1&#45;&gt;Node47</title>
<path fill="none" stroke="midnightblue" d="M1309.83,-560.444C1337.25,-551.359 1380.78,-536.939 1411.43,-526.783"/>
<polygon fill="midnightblue" stroke="midnightblue" points="1412.9,-529.984 1421.29,-523.516 1410.7,-523.339 1412.9,-529.984"/>
</g>
<!-- Node5 -->
<g id="node5" class="node"><title>Node5</title>
<g id="a_node5"><a xlink:href="config_cosmos_8h.html" target="_top" xlink:title="Headers and definitions common to all COSMOS. ">
<polygon fill="white" stroke="black" points="972.5,-112.5 972.5,-131.5 1095.5,-131.5 1095.5,-112.5 972.5,-112.5"/>
<text text-anchor="middle" x="1034" y="-119.5" font-family="Helvetica,sans-Serif" font-size="10.00">support/configCosmos.h</text>
</a>
</g>
</g>
<!-- Node4&#45;&gt;Node5 -->
<g id="edge4" class="edge"><title>Node4&#45;&gt;Node5</title>
<path fill="none" stroke="midnightblue" d="M1222.09,-504.442C1161.72,-486.809 1034,-444.59 1034,-403 1034,-403 1034,-403 1034,-233 1034,-200.948 1034,-163.643 1034,-141.749"/>
<polygon fill="midnightblue" stroke="midnightblue" points="1037.5,-141.558 1034,-131.558 1030.5,-141.558 1037.5,-141.558"/>
</g>
<!-- Node4&#45;&gt;Node38 -->
<g id="edge46" class="edge"><title>Node4&#45;&gt;Node38</title>
<path fill="none" stroke="midnightblue" d="M1257.87,-504.368C1268.05,-486.296 1291.79,-444.176 1305.24,-420.307"/>
<polygon fill="midnightblue" stroke="midnightblue" points="1308.3,-422.022 1310.16,-411.591 1302.2,-418.584 1308.3,-422.022"/>
</g>
<!-- Node45 -->
<g id="node45" class="node"><title>Node45</title>
<g id="a_node45"><a xlink:href="convertdef_8h.html" target="_top" xlink:title="support/convertdef.h">
<polygon fill="white" stroke="black" points="1143,-448.5 1143,-467.5 1249,-467.5 1249,-448.5 1143,-448.5"/>
<text text-anchor="middle" x="1196" y="-455.5" font-family="Helvetica,sans-Serif" font-size="10.00">support/convertdef.h</text>
</a>
</g>
</g>
<!-- Node4&#45;&gt;Node45 -->
<g id="edge70" class="edge"><title>Node4&#45;&gt;Node45</title>
<path fill="none" stroke="midnightblue" d="M1243.84,-504.324C1235.5,-496.42 1222.97,-484.548 1212.82,-474.938"/>
<polygon fill="midnightblue" stroke="midnightblue" points="1214.99,-472.171 1205.32,-467.834 1210.18,-477.252 1214.99,-472.171"/>
</g>
<!-- Node6 -->
<g id="node6" class="node"><title>Node6</title>
<polygon fill="white" stroke="#bfbfbf" points="1112.5,-56.5 1112.5,-75.5 1157.5,-75.5 1157.5,-56.5 1112.5,-56.5"/>
<text text-anchor="middle" x="1135" y="-63.5" font-family="Helvetica,sans-Serif" font-size="10.00">climits</text>
</g>
<!-- Node5&#45;&gt;Node6 -->
<g id="edge5" class="edge"><title>Node5&#45;&gt;Node6</title>
<path fill="none" stroke="midnightblue" d="M1050.23,-112.324C1066.35,-103.703 1091.3,-90.3643 1109.96,-80.3855"/>
<polygon fill="midnightblue" stroke="midnightblue" points="1111.64,-83.456 1118.81,-75.6545 1108.34,-77.283 1111.64,-83.456"/>
</g>
<!-- Node7 -->
<g id="node7" class="node"><title>Node7</title>
<polygon fill="white" stroke="#bfbfbf" points="1175.5,-56.5 1175.5,-75.5 1222.5,-75.5 1222.5,-56.5 1175.5,-56.5"/>
<text text-anchor="middle" x="1199" y="-63.5" font-family="Helvetica,sans-Serif" font-size="10.00">csignal</text>
</g>
<!-- Node5&#45;&gt;Node7 -->
<g id="edge6" class="edge"><title>Node5&#45;&gt;Node7</title>
<path fill="none" stroke="midnightblue" d="M1060.14,-112.444C1088.76,-103.078 1134.71,-88.0415 1165.84,-77.8532"/>
<polygon fill="midnightblue" stroke="midnightblue" points="1166.97,-81.1659 1175.38,-74.729 1164.79,-74.5131 1166.97,-81.1659"/>
</g>
<!-- Node8 -->
<g id="node8" class="node"><title>Node8</title>
<polygon fill="white" stroke="#bfbfbf" points="1575,-56.5 1575,-75.5 1621,-75.5 1621,-56.5 1575,-56.5"/>
<text text-anchor="middle" x="1598" y="-63.5" font-family="Helvetica,sans-Serif" font-size="10.00">cstdint</text>
</g>
<!-- Node5&#45;&gt;Node8 -->
<g id="edge7" class="edge"><title>Node5&#45;&gt;Node8</title>
<path fill="none" stroke="midnightblue" d="M1095.53,-119.579C1193.28,-116.493 1390.02,-106.901 1564.81,-75.8867"/>
<polygon fill="midnightblue" stroke="midnightblue" points="1565.48,-79.3227 1574.7,-74.1046 1564.24,-72.4337 1565.48,-79.3227"/>
</g>
<!-- Node9 -->
<g id="node9" class="node"><title>Node9</title>
<polygon fill="white" stroke="#bfbfbf" points="1241,-56.5 1241,-75.5 1297,-75.5 1297,-56.5 1241,-56.5"/>
<text text-anchor="middle" x="1269" y="-63.5" font-family="Helvetica,sans-Serif" font-size="10.00">cinttypes</text>
</g>
<!-- Node5&#45;&gt;Node9 -->
<g id="edge8" class="edge"><title>Node5&#45;&gt;Node9</title>
<path fill="none" stroke="midnightblue" d="M1072.37,-112.461C1110.26,-103.987 1170.11,-90.4949 1230.96,-76.2204"/>
<polygon fill="midnightblue" stroke="midnightblue" points="1231.8,-79.6192 1240.73,-73.9234 1230.19,-72.805 1231.8,-79.6192"/>
</g>
<!-- Node10 -->
<g id="node10" class="node"><title>Node10</title>
<polygon fill="white" stroke="#bfbfbf" points="1315.5,-56.5 1315.5,-75.5 1358.5,-75.5 1358.5,-56.5 1315.5,-56.5"/>
<text text-anchor="middle" x="1337" y="-63.5" font-family="Helvetica,sans-Serif" font-size="10.00">cstdio</text>
</g>
<!-- Node5&#45;&gt;Node10 -->
<g id="edge9" class="edge"><title>Node5&#45;&gt;Node10</title>
<path fill="none" stroke="midnightblue" d="M1095.71,-112.92C1148.83,-105.481 1227.68,-93.2918 1305.44,-75.8861"/>
<polygon fill="midnightblue" stroke="midnightblue" points="1306.43,-79.2502 1315.41,-73.6241 1304.88,-72.4237 1306.43,-79.2502"/>
</g>
<!-- Node11 -->
<g id="node11" class="node"><title>Node11</title>
<polygon fill="white" stroke="#bfbfbf" points="1376.5,-56.5 1376.5,-75.5 1425.5,-75.5 1425.5,-56.5 1376.5,-56.5"/>
<text text-anchor="middle" x="1401" y="-63.5" font-family="Helvetica,sans-Serif" font-size="10.00">cstddef</text>
</g>
<!-- Node5&#45;&gt;Node11 -->
<g id="edge10" class="edge"><title>Node5&#45;&gt;Node11</title>
<path fill="none" stroke="midnightblue" d="M1095.66,-115.163C1160.83,-108.44 1266.72,-95.9399 1366.29,-76.139"/>
<polygon fill="midnightblue" stroke="midnightblue" points="1367.11,-79.5453 1376.22,-74.1366 1365.72,-72.6836 1367.11,-79.5453"/>
</g>
<!-- Node12 -->
<g id="node12" class="node"><title>Node12</title>
<polygon fill="white" stroke="#bfbfbf" points="1443.5,-56.5 1443.5,-75.5 1488.5,-75.5 1488.5,-56.5 1443.5,-56.5"/>
<text text-anchor="middle" x="1466" y="-63.5" font-family="Helvetica,sans-Serif" font-size="10.00">cstdlib</text>
</g>
<!-- Node5&#45;&gt;Node12 -->
<g id="edge11" class="edge"><title>Node5&#45;&gt;Node12</title>
<path fill="none" stroke="midnightblue" d="M1095.64,-117.363C1172.72,-112.087 1308.74,-100.378 1433.33,-76.0429"/>
<polygon fill="midnightblue" stroke="midnightblue" points="1434.3,-79.419 1443.42,-74.0379 1432.93,-72.5531 1434.3,-79.419"/>
</g>
<!-- Node13 -->
<g id="node13" class="node"><title>Node13</title>
<polygon fill="white" stroke="#bfbfbf" points="0,-56.5 0,-75.5 44,-75.5 44,-56.5 0,-56.5"/>
<text text-anchor="middle" x="22" y="-63.5" font-family="Helvetica,sans-Serif" font-size="10.00">cerrno</text>
</g>
<!-- Node5&#45;&gt;Node13 -->
<g id="edge12" class="edge"><title>Node5&#45;&gt;Node13</title>
<path fill="none" stroke="midnightblue" d="M972.494,-120.081C789.573,-117.054 250.054,-105.913 54.1109,-75.7215"/>
<polygon fill="midnightblue" stroke="midnightblue" points="54.6343,-72.2608 44.2055,-74.1294 53.5233,-79.1721 54.6343,-72.2608"/>
</g>
<!-- Node14 -->
<g id="node14" class="node"><title>Node14</title>
<polygon fill="white" stroke="#bfbfbf" points="62,-56.5 62,-75.5 108,-75.5 108,-56.5 62,-56.5"/>
<text text-anchor="middle" x="85" y="-63.5" font-family="Helvetica,sans-Serif" font-size="10.00">cstring</text>
</g>
<!-- Node5&#45;&gt;Node14 -->
<g id="edge13" class="edge"><title>Node5&#45;&gt;Node14</title>
<path fill="none" stroke="midnightblue" d="M972.453,-119.785C797.94,-116.06 301.273,-103.441 118.318,-75.7868"/>
<polygon fill="midnightblue" stroke="midnightblue" points="118.706,-72.3048 108.282,-74.2022 117.614,-79.2191 118.706,-72.3048"/>
</g>
<!-- Node15 -->
<g id="node15" class="node"><title>Node15</title>
<polygon fill="white" stroke="#bfbfbf" points="1749,-56.5 1749,-75.5 1793,-75.5 1793,-56.5 1749,-56.5"/>
<text text-anchor="middle" x="1771" y="-63.5" font-family="Helvetica,sans-Serif" font-size="10.00">cmath</text>
</g>
<!-- Node5&#45;&gt;Node15 -->
<g id="edge14" class="edge"><title>Node5&#45;&gt;Node15</title>
<path fill="none" stroke="midnightblue" d="M1095.81,-118.128C1213.83,-112.359 1479.33,-98.0002 1702,-76 1714.06,-74.8087 1727.26,-73.1694 1738.86,-71.616"/>
<polygon fill="midnightblue" stroke="midnightblue" points="1739.55,-75.0543 1748.98,-70.2289 1738.59,-68.1192 1739.55,-75.0543"/>
</g>
<!-- Node16 -->
<g id="node16" class="node"><title>Node16</title>
<polygon fill="white" stroke="#bfbfbf" points="126.5,-56.5 126.5,-75.5 171.5,-75.5 171.5,-56.5 126.5,-56.5"/>
<text text-anchor="middle" x="149" y="-63.5" font-family="Helvetica,sans-Serif" font-size="10.00">iosfwd</text>
</g>
<!-- Node5&#45;&gt;Node16 -->
<g id="edge15" class="edge"><title>Node5&#45;&gt;Node16</title>
<path fill="none" stroke="midnightblue" d="M972.248,-119.517C806.258,-115.255 352.122,-101.698 181.672,-75.6335"/>
<polygon fill="midnightblue" stroke="midnightblue" points="182.013,-72.1437 171.586,-74.0205 180.908,-79.0558 182.013,-72.1437"/>
</g>
<!-- Node17 -->
<g id="node17" class="node"><title>Node17</title>
<polygon fill="white" stroke="#bfbfbf" points="1639,-56.5 1639,-75.5 1693,-75.5 1693,-56.5 1639,-56.5"/>
<text text-anchor="middle" x="1666" y="-63.5" font-family="Helvetica,sans-Serif" font-size="10.00">iostream</text>
</g>
<!-- Node5&#45;&gt;Node17 -->
<g id="edge16" class="edge"><title>Node5&#45;&gt;Node17</title>
<path fill="none" stroke="midnightblue" d="M1095.75,-119.782C1202.61,-116.923 1428.97,-107.555 1628.87,-75.9008"/>
<polygon fill="midnightblue" stroke="midnightblue" points="1629.66,-79.3201 1638.98,-74.2785 1628.55,-72.4087 1629.66,-79.3201"/>
</g>
<!-- Node18 -->
<g id="node18" class="node"><title>Node18</title>
<polygon fill="white" stroke="#bfbfbf" points="190,-56.5 190,-75.5 242,-75.5 242,-56.5 190,-56.5"/>
<text text-anchor="middle" x="216" y="-63.5" font-family="Helvetica,sans-Serif" font-size="10.00">sstream</text>
</g>
<!-- Node5&#45;&gt;Node18 -->
<g id="edge17" class="edge"><title>Node5&#45;&gt;Node18</title>
<path fill="none" stroke="midnightblue" d="M972.407,-121.508C841.314,-121.716 525.064,-117.578 252.349,-75.8983"/>
<polygon fill="midnightblue" stroke="midnightblue" points="252.677,-72.4074 242.259,-74.3358 251.606,-79.3249 252.677,-72.4074"/>
</g>
<!-- Node19 -->
<g id="node19" class="node"><title>Node19</title>
<polygon fill="white" stroke="#bfbfbf" points="260.5,-56.5 260.5,-75.5 301.5,-75.5 301.5,-56.5 260.5,-56.5"/>
<text text-anchor="middle" x="281" y="-63.5" font-family="Helvetica,sans-Serif" font-size="10.00">regex</text>
</g>
<!-- Node5&#45;&gt;Node19 -->
<g id="edge18" class="edge"><title>Node5&#45;&gt;Node19</title>
<path fill="none" stroke="midnightblue" d="M972.436,-119.064C825.083,-114.132 454.347,-99.8898 311.635,-75.8426"/>
<polygon fill="midnightblue" stroke="midnightblue" points="312.217,-72.3913 301.76,-74.0942 310.997,-79.2841 312.217,-72.3913"/>
</g>
<!-- Node20 -->
<g id="node20" class="node"><title>Node20</title>
<polygon fill="white" stroke="#bfbfbf" points="1507,-56.5 1507,-75.5 1557,-75.5 1557,-56.5 1507,-56.5"/>
<text text-anchor="middle" x="1532" y="-63.5" font-family="Helvetica,sans-Serif" font-size="10.00">iomanip</text>
</g>
<!-- Node5&#45;&gt;Node20 -->
<g id="edge19" class="edge"><title>Node5&#45;&gt;Node20</title>
<path fill="none" stroke="midnightblue" d="M1095.61,-118.207C1182.89,-113.548 1347.6,-102.174 1496.61,-75.9729"/>
<polygon fill="midnightblue" stroke="midnightblue" points="1497.62,-79.3469 1506.85,-74.1432 1496.39,-72.4559 1497.62,-79.3469"/>
</g>
<!-- Node21 -->
<g id="node21" class="node"><title>Node21</title>
<polygon fill="white" stroke="#bfbfbf" points="319.5,-56.5 319.5,-75.5 370.5,-75.5 370.5,-56.5 319.5,-56.5"/>
<text text-anchor="middle" x="345" y="-63.5" font-family="Helvetica,sans-Serif" font-size="10.00">unistd.h</text>
</g>
<!-- Node5&#45;&gt;Node21 -->
<g id="edge20" class="edge"><title>Node5&#45;&gt;Node21</title>
<path fill="none" stroke="midnightblue" d="M972.26,-120.504C857.441,-118.766 603.305,-111.085 380.419,-75.7274"/>
<polygon fill="midnightblue" stroke="midnightblue" points="380.929,-72.2645 370.5,-74.1321 379.818,-79.1757 380.929,-72.2645"/>
</g>
<!-- Node22 -->
<g id="node22" class="node"><title>Node22</title>
<polygon fill="white" stroke="#bfbfbf" points="389,-56.5 389,-75.5 433,-75.5 433,-56.5 389,-56.5"/>
<text text-anchor="middle" x="411" y="-63.5" font-family="Helvetica,sans-Serif" font-size="10.00">fcntl.h</text>
</g>
<!-- Node5&#45;&gt;Node22 -->
<g id="edge21" class="edge"><title>Node5&#45;&gt;Node22</title>
<path fill="none" stroke="midnightblue" d="M972.106,-120.488C865.588,-118.692 640.806,-110.899 443.204,-75.8459"/>
<polygon fill="midnightblue" stroke="midnightblue" points="443.682,-72.3758 433.22,-74.0473 442.441,-79.2649 443.682,-72.3758"/>
</g>
<!-- Node23 -->
<g id="node23" class="node"><title>Node23</title>
<polygon fill="white" stroke="#bfbfbf" points="451,-56.5 451,-75.5 491,-75.5 491,-56.5 451,-56.5"/>
<text text-anchor="middle" x="471" y="-63.5" font-family="Helvetica,sans-Serif" font-size="10.00">limits</text>
</g>
<!-- Node5&#45;&gt;Node23 -->
<g id="edge22" class="edge"><title>Node5&#45;&gt;Node23</title>
<path fill="none" stroke="midnightblue" d="M972.465,-119.234C873.364,-115.615 672.553,-105.075 505,-76 503.714,-75.7769 502.406,-75.5282 501.088,-75.2599"/>
<polygon fill="midnightblue" stroke="midnightblue" points="501.541,-71.7719 491.008,-72.9146 499.955,-78.5898 501.541,-71.7719"/>
</g>
<!-- Node24 -->
<g id="node24" class="node"><title>Node24</title>
<polygon fill="white" stroke="#bfbfbf" points="942.5,-0.5 942.5,-19.5 983.5,-19.5 983.5,-0.5 942.5,-0.5"/>
<text text-anchor="middle" x="963" y="-7.5" font-family="Helvetica,sans-Serif" font-size="10.00">string</text>
</g>
<!-- Node5&#45;&gt;Node24 -->
<g id="edge23" class="edge"><title>Node5&#45;&gt;Node24</title>
<path fill="none" stroke="midnightblue" d="M1020.41,-112.22C1008.89,-104.117 992.733,-91.0801 983,-76 973.896,-61.895 968.735,-43.4064 965.946,-29.7551"/>
<polygon fill="midnightblue" stroke="midnightblue" points="969.34,-28.8513 964.126,-19.628 962.45,-30.0894 969.34,-28.8513"/>
</g>
<!-- Node25 -->
<g id="node25" class="node"><title>Node25</title>
<polygon fill="white" stroke="#bfbfbf" points="1164,-0.5 1164,-19.5 1208,-19.5 1208,-0.5 1164,-0.5"/>
<text text-anchor="middle" x="1186" y="-7.5" font-family="Helvetica,sans-Serif" font-size="10.00">vector</text>
</g>
<!-- Node5&#45;&gt;Node25 -->
<g id="edge24" class="edge"><title>Node5&#45;&gt;Node25</title>
<path fill="none" stroke="midnightblue" d="M1041.88,-112.247C1054.09,-99.0014 1078.73,-73.5538 1103,-56 1120.21,-43.5532 1141.26,-32.1781 1157.86,-23.9785"/>
<polygon fill="midnightblue" stroke="midnightblue" points="1159.57,-27.0374 1167.05,-19.5335 1156.52,-20.7353 1159.57,-27.0374"/>
</g>
<!-- Node26 -->
<g id="node26" class="node"><title>Node26</title>
<polygon fill="white" stroke="#bfbfbf" points="585.5,-56.5 585.5,-75.5 626.5,-75.5 626.5,-56.5 585.5,-56.5"/>
<text text-anchor="middle" x="606" y="-63.5" font-family="Helvetica,sans-Serif" font-size="10.00">stack</text>
</g>
<!-- Node5&#45;&gt;Node26 -->
<g id="edge25" class="edge"><title>Node5&#45;&gt;Node26</title>
<path fill="none" stroke="midnightblue" d="M972.251,-117.656C895.427,-112.693 760.228,-101.325 636.787,-76.0497"/>
<polygon fill="midnightblue" stroke="midnightblue" points="637.289,-72.5793 626.785,-73.9655 635.861,-79.4321 637.289,-72.5793"/>
</g>
<!-- Node27 -->
<g id="node27" class="node"><title>Node27</title>
<polygon fill="white" stroke="#bfbfbf" points="644.5,-56.5 644.5,-75.5 687.5,-75.5 687.5,-56.5 644.5,-56.5"/>
<text text-anchor="middle" x="666" y="-63.5" font-family="Helvetica,sans-Serif" font-size="10.00">deque</text>
</g>
<!-- Node5&#45;&gt;Node27 -->
<g id="edge26" class="edge"><title>Node5&#45;&gt;Node27</title>
<path fill="none" stroke="midnightblue" d="M972.48,-114.717C905.584,-107.407 795.678,-94.0016 702,-76 700.537,-75.7189 699.045,-75.4151 697.54,-75.095"/>
<polygon fill="midnightblue" stroke="midnightblue" points="698.146,-71.6431 687.616,-72.8146 696.578,-78.4653 698.146,-71.6431"/>
</g>
<!-- Node28 -->
<g id="node28" class="node"><title>Node28</title>
<polygon fill="white" stroke="#bfbfbf" points="509,-0.5 509,-19.5 553,-19.5 553,-0.5 509,-0.5"/>
<text text-anchor="middle" x="531" y="-7.5" font-family="Helvetica,sans-Serif" font-size="10.00">mutex</text>
</g>
<!-- Node5&#45;&gt;Node28 -->
<g id="edge27" class="edge"><title>Node5&#45;&gt;Node28</title>
<path fill="none" stroke="midnightblue" d="M972.165,-121.929C861.08,-122.49 633.234,-118.255 568,-76 551.513,-65.3205 541.591,-44.5641 536.232,-29.37"/>
<polygon fill="midnightblue" stroke="midnightblue" points="539.466,-27.9882 533.108,-19.5129 532.793,-30.1031 539.466,-27.9882"/>
</g>
<!-- Node29 -->
<g id="node29" class="node"><title>Node29</title>
<polygon fill="white" stroke="#bfbfbf" points="594,-0.5 594,-19.5 638,-19.5 638,-0.5 594,-0.5"/>
<text text-anchor="middle" x="616" y="-7.5" font-family="Helvetica,sans-Serif" font-size="10.00">thread</text>
</g>
<!-- Node5&#45;&gt;Node29 -->
<g id="edge28" class="edge"><title>Node5&#45;&gt;Node29</title>
<path fill="none" stroke="midnightblue" d="M972.379,-119.454C853.56,-115.833 602.127,-104.82 576,-76 562.207,-60.7855 579.776,-40.1693 595.788,-26.2682"/>
<polygon fill="midnightblue" stroke="midnightblue" points="598.323,-28.7167 603.845,-19.6751 593.89,-23.2992 598.323,-28.7167"/>
</g>
<!-- Node30 -->
<g id="node30" class="node"><title>Node30</title>
<polygon fill="white" stroke="#bfbfbf" points="668.5,-0.5 668.5,-19.5 763.5,-19.5 763.5,-0.5 668.5,-0.5"/>
<text text-anchor="middle" x="716" y="-7.5" font-family="Helvetica,sans-Serif" font-size="10.00">condition_variable</text>
</g>
<!-- Node5&#45;&gt;Node30 -->
<g id="edge29" class="edge"><title>Node5&#45;&gt;Node30</title>
<path fill="none" stroke="midnightblue" d="M972.208,-119.354C895.167,-116.034 769.398,-106.042 735,-76 721.875,-64.5372 717.579,-44.5587 716.288,-29.7679"/>
<polygon fill="midnightblue" stroke="midnightblue" points="719.78,-29.5105 715.79,-19.6954 712.788,-29.856 719.78,-29.5105"/>
</g>
<!-- Node31 -->
<g id="node31" class="node"><title>Node31</title>
<polygon fill="white" stroke="#bfbfbf" points="828.5,-0.5 828.5,-19.5 871.5,-19.5 871.5,-0.5 828.5,-0.5"/>
<text text-anchor="middle" x="850" y="-7.5" font-family="Helvetica,sans-Serif" font-size="10.00">queue</text>
</g>
<!-- Node5&#45;&gt;Node31 -->
<g id="edge30" class="edge"><title>Node5&#45;&gt;Node31</title>
<path fill="none" stroke="midnightblue" d="M1015.79,-112.495C997.745,-103.882 969.486,-89.8853 946,-76 918.927,-59.9941 889.139,-39.3115 870.035,-25.6242"/>
<polygon fill="midnightblue" stroke="midnightblue" points="871.974,-22.7069 861.816,-19.6939 867.878,-28.3835 871.974,-22.7069"/>
</g>
<!-- Node32 -->
<g id="node32" class="node"><title>Node32</title>
<polygon fill="white" stroke="#bfbfbf" points="889.5,-0.5 889.5,-19.5 924.5,-19.5 924.5,-0.5 889.5,-0.5"/>
<text text-anchor="middle" x="907" y="-7.5" font-family="Helvetica,sans-Serif" font-size="10.00">map</text>
</g>
<!-- Node5&#45;&gt;Node32 -->
<g id="edge31" class="edge"><title>Node5&#45;&gt;Node32</title>
<path fill="none" stroke="midnightblue" d="M1020.22,-112.393C1006.87,-103.813 986.318,-89.9387 970,-76 952.188,-60.7851 933.759,-41.2508 921.471,-27.5858"/>
<polygon fill="midnightblue" stroke="midnightblue" points="923.929,-25.083 914.674,-19.927 918.694,-29.7295 923.929,-25.083"/>
</g>
<!-- Node33 -->
<g id="node33" class="node"><title>Node33</title>
<g id="a_node33"><a xlink:href="cosmos-defs_8h.html" target="_top" xlink:title="COSMOS definitions Definitions specific to the COSMOS environement. ">
<polygon fill="white" stroke="black" points="744,-56.5 744,-75.5 860,-75.5 860,-56.5 744,-56.5"/>
<text text-anchor="middle" x="802" y="-63.5" font-family="Helvetica,sans-Serif" font-size="10.00">support/cosmos&#45;defs.h</text>
</a>
</g>
</g>
<!-- Node5&#45;&gt;Node33 -->
<g id="edge32" class="edge"><title>Node5&#45;&gt;Node33</title>
<path fill="none" stroke="midnightblue" d="M997.239,-112.444C956.937,-103.063 892.191,-87.9926 848.415,-77.8036"/>
<polygon fill="midnightblue" stroke="midnightblue" points="849.122,-74.3746 838.589,-75.5164 847.535,-81.1924 849.122,-74.3746"/>
</g>
<!-- Node35 -->
<g id="node35" class="node"><title>Node35</title>
<g id="a_node35"><a xlink:href="json11_8hpp.html" target="_top" xlink:title="json11.hpp">
<polygon fill="white" stroke="black" points="992,-56.5 992,-75.5 1056,-75.5 1056,-56.5 992,-56.5"/>
<text text-anchor="middle" x="1024" y="-63.5" font-family="Helvetica,sans-Serif" font-size="10.00">json11.hpp</text>
</a>
</g>
</g>
<!-- Node5&#45;&gt;Node35 -->
<g id="edge40" class="edge"><title>Node5&#45;&gt;Node35</title>
<path fill="none" stroke="midnightblue" d="M1032.35,-112.083C1031.02,-104.927 1029.12,-94.6353 1027.46,-85.6911"/>
<polygon fill="midnightblue" stroke="midnightblue" points="1030.88,-84.9466 1025.62,-75.7511 1024,-86.2212 1030.88,-84.9466"/>
</g>
<!-- Node33&#45;&gt;Node25 -->
<g id="edge34" class="edge"><title>Node33&#45;&gt;Node25</title>
<path fill="none" stroke="midnightblue" d="M860.046,-60.2162C928.122,-54.0184 1044.45,-41.5998 1153.84,-19.7236"/>
<polygon fill="midnightblue" stroke="midnightblue" points="1154.62,-23.1367 1163.72,-17.7169 1153.23,-16.2767 1154.62,-23.1367"/>
</g>
<!-- Node33&#45;&gt;Node28 -->
<g id="edge38" class="edge"><title>Node33&#45;&gt;Node28</title>
<path fill="none" stroke="midnightblue" d="M759.059,-56.4435C704.554,-45.5826 611.773,-27.0949 563.05,-17.3864"/>
<polygon fill="midnightblue" stroke="midnightblue" points="563.561,-13.9193 553.069,-15.3976 562.193,-20.7844 563.561,-13.9193"/>
</g>
<!-- Node33&#45;&gt;Node29 -->
<g id="edge37" class="edge"><title>Node33&#45;&gt;Node29</title>
<path fill="none" stroke="midnightblue" d="M772.528,-56.4435C738.498,-46.5639 682.731,-30.3734 647.76,-20.2208"/>
<polygon fill="midnightblue" stroke="midnightblue" points="648.633,-16.8296 638.053,-17.4026 646.681,-23.552 648.633,-16.8296"/>
</g>
<!-- Node33&#45;&gt;Node30 -->
<g id="edge39" class="edge"><title>Node33&#45;&gt;Node30</title>
<path fill="none" stroke="midnightblue" d="M788.183,-56.324C774.767,-47.9002 754.176,-34.9709 738.414,-25.0741"/>
<polygon fill="midnightblue" stroke="midnightblue" points="740.113,-22.0081 729.783,-19.6545 736.391,-27.9364 740.113,-22.0081"/>
</g>
<!-- Node33&#45;&gt;Node31 -->
<g id="edge36" class="edge"><title>Node33&#45;&gt;Node31</title>
<path fill="none" stroke="midnightblue" d="M809.926,-56.083C816.846,-48.2982 827.065,-36.8015 835.452,-27.3665"/>
<polygon fill="midnightblue" stroke="midnightblue" points="838.194,-29.5505 842.221,-19.7511 832.962,-24.8999 838.194,-29.5505"/>
</g>
<!-- Node33&#45;&gt;Node32 -->
<g id="edge33" class="edge"><title>Node33&#45;&gt;Node32</title>
<path fill="none" stroke="midnightblue" d="M818.87,-56.324C835.709,-47.6641 861.807,-34.2424 881.238,-24.249"/>
<polygon fill="midnightblue" stroke="midnightblue" points="882.88,-27.3405 890.172,-19.6545 879.678,-21.1155 882.88,-27.3405"/>
</g>
<!-- Node34 -->
<g id="node34" class="node"><title>Node34</title>
<polygon fill="white" stroke="#bfbfbf" points="781.5,-0.5 781.5,-19.5 810.5,-19.5 810.5,-0.5 781.5,-0.5"/>
<text text-anchor="middle" x="796" y="-7.5" font-family="Helvetica,sans-Serif" font-size="10.00">list</text>
</g>
<!-- Node33&#45;&gt;Node34 -->
<g id="edge35" class="edge"><title>Node33&#45;&gt;Node34</title>
<path fill="none" stroke="midnightblue" d="M801.009,-56.083C800.214,-48.9272 799.071,-38.6353 798.077,-29.6911"/>
<polygon fill="midnightblue" stroke="midnightblue" points="801.555,-29.3034 796.972,-19.7511 794.598,-30.0765 801.555,-29.3034"/>
</g>
<!-- Node35&#45;&gt;Node24 -->
<g id="edge41" class="edge"><title>Node35&#45;&gt;Node24</title>
<path fill="none" stroke="midnightblue" d="M1014.2,-56.324C1005.18,-48.3414 991.594,-36.3128 980.682,-26.6529"/>
<polygon fill="midnightblue" stroke="midnightblue" points="982.787,-23.8416 972.979,-19.8339 978.147,-29.083 982.787,-23.8416"/>
</g>
<!-- Node35&#45;&gt;Node25 -->
<g id="edge42" class="edge"><title>Node35&#45;&gt;Node25</title>
<path fill="none" stroke="midnightblue" d="M1049.67,-56.4435C1077.96,-47.0118 1123.52,-31.8282 1154.09,-21.6375"/>
<polygon fill="midnightblue" stroke="midnightblue" points="1155.45,-24.8711 1163.83,-18.3884 1153.24,-18.2304 1155.45,-24.8711"/>
</g>
<!-- Node35&#45;&gt;Node32 -->
<g id="edge43" class="edge"><title>Node35&#45;&gt;Node32</title>
<path fill="none" stroke="midnightblue" d="M1005.46,-56.4435C986.153,-47.532 955.719,-33.4856 933.796,-23.3674"/>
<polygon fill="midnightblue" stroke="midnightblue" points="935.233,-20.1757 924.686,-19.1629 932.299,-26.5314 935.233,-20.1757"/>
</g>
<!-- Node36 -->
<g id="node36" class="node"><title>Node36</title>
<polygon fill="white" stroke="#bfbfbf" points="1002,-0.5 1002,-19.5 1054,-19.5 1054,-0.5 1002,-0.5"/>
<text text-anchor="middle" x="1028" y="-7.5" font-family="Helvetica,sans-Serif" font-size="10.00">memory</text>
</g>
<!-- Node35&#45;&gt;Node36 -->
<g id="edge44" class="edge"><title>Node35&#45;&gt;Node36</title>
<path fill="none" stroke="midnightblue" d="M1024.66,-56.083C1025.18,-49.0059 1025.94,-38.8611 1026.59,-29.9865"/>
<polygon fill="midnightblue" stroke="midnightblue" points="1030.1,-29.9823 1027.35,-19.7511 1023.12,-29.4652 1030.1,-29.9823"/>
</g>
<!-- Node37 -->
<g id="node37" class="node"><title>Node37</title>
<polygon fill="white" stroke="#bfbfbf" points="1072.5,-0.5 1072.5,-19.5 1145.5,-19.5 1145.5,-0.5 1072.5,-0.5"/>
<text text-anchor="middle" x="1109" y="-7.5" font-family="Helvetica,sans-Serif" font-size="10.00">initializer_list</text>
</g>
<!-- Node35&#45;&gt;Node37 -->
<g id="edge45" class="edge"><title>Node35&#45;&gt;Node37</title>
<path fill="none" stroke="midnightblue" d="M1037.66,-56.324C1050.92,-47.9002 1071.27,-34.9709 1086.85,-25.0741"/>
<polygon fill="midnightblue" stroke="midnightblue" points="1088.81,-27.9711 1095.38,-19.6545 1085.06,-22.0626 1088.81,-27.9711"/>
</g>
<!-- Node38&#45;&gt;Node5 -->
<g id="edge47" class="edge"><title>Node38&#45;&gt;Node5</title>
<path fill="none" stroke="midnightblue" d="M1274.16,-395.82C1226.21,-388.946 1150.57,-375.377 1130,-356 1108,-335.277 1110,-321.225 1110,-291 1110,-291 1110,-291 1110,-233 1110,-202.205 1103.53,-193.319 1086,-168 1077.82,-156.19 1065.85,-145.542 1055.45,-137.571"/>
<polygon fill="midnightblue" stroke="midnightblue" points="1057.34,-134.619 1047.2,-131.54 1053.21,-140.269 1057.34,-134.619"/>
</g>
<!-- Node38&#45;&gt;Node15 -->
<g id="edge68" class="edge"><title>Node38&#45;&gt;Node15</title>
<path fill="none" stroke="midnightblue" d="M1355.68,-400.362C1471.88,-397.447 1797,-381.231 1797,-291 1797,-291 1797,-291 1797,-177 1797,-143.929 1785.73,-106.729 1778.03,-85.1685"/>
<polygon fill="midnightblue" stroke="midnightblue" points="1781.27,-83.8308 1774.51,-75.675 1774.71,-86.2679 1781.27,-83.8308"/>
</g>
<!-- Node38&#45;&gt;Node17 -->
<g id="edge69" class="edge"><title>Node38&#45;&gt;Node17</title>
<path fill="none" stroke="midnightblue" d="M1355.59,-396.205C1443.97,-384.632 1646,-351.555 1646,-291 1646,-291 1646,-291 1646,-177 1646,-144.438 1654.59,-107.315 1660.51,-85.5922"/>
<polygon fill="midnightblue" stroke="midnightblue" points="1663.94,-86.3175 1663.3,-75.7419 1657.21,-84.4076 1663.94,-86.3175"/>
</g>
<!-- Node39 -->
<g id="node39" class="node"><title>Node39</title>
<g id="a_node39"><a xlink:href="cosmos-errno_8h.html" target="_top" xlink:title="COSMOS Error Codes. ">
<polygon fill="white" stroke="black" points="1139.5,-336.5 1139.5,-355.5 1258.5,-355.5 1258.5,-336.5 1139.5,-336.5"/>
<text text-anchor="middle" x="1199" y="-343.5" font-family="Helvetica,sans-Serif" font-size="10.00">support/cosmos&#45;errno.h</text>
</a>
</g>
</g>
<!-- Node38&#45;&gt;Node39 -->
<g id="edge48" class="edge"><title>Node38&#45;&gt;Node39</title>
<path fill="none" stroke="midnightblue" d="M1296.62,-392.444C1277.78,-383.675 1248.27,-369.935 1226.62,-359.858"/>
<polygon fill="midnightblue" stroke="midnightblue" points="1227.84,-356.564 1217.29,-355.516 1224.88,-362.91 1227.84,-356.564"/>
</g>
<!-- Node41 -->
<g id="node41" class="node"><title>Node41</title>
<g id="a_node41"><a xlink:href="math_2constants_8h.html" target="_top" xlink:title="constants.h">
<polygon fill="white" stroke="black" points="1427,-168.5 1427,-187.5 1495,-187.5 1495,-168.5 1427,-168.5"/>
<text text-anchor="middle" x="1461" y="-175.5" font-family="Helvetica,sans-Serif" font-size="10.00">constants.h</text>
</a>
</g>
</g>
<!-- Node38&#45;&gt;Node41 -->
<g id="edge51" class="edge"><title>Node38&#45;&gt;Node41</title>
<path fill="none" stroke="midnightblue" d="M1342.58,-392.443C1361.15,-385.384 1384.91,-373.633 1400,-356 1440.44,-308.745 1454.51,-233.231 1459.03,-198.114"/>
<polygon fill="midnightblue" stroke="midnightblue" points="1462.55,-198.189 1460.23,-187.852 1455.59,-197.381 1462.55,-198.189"/>
</g>
<!-- Node42 -->
<g id="node42" class="node"><title>Node42</title>
<g id="a_node42"><a xlink:href="vector_8h.html" target="_top" xlink:title="vector.h">
<polygon fill="white" stroke="black" points="1375,-224.5 1375,-243.5 1427,-243.5 1427,-224.5 1375,-224.5"/>
<text text-anchor="middle" x="1401" y="-231.5" font-family="Helvetica,sans-Serif" font-size="10.00">vector.h</text>
</a>
</g>
</g>
<!-- Node38&#45;&gt;Node42 -->
<g id="edge54" class="edge"><title>Node38&#45;&gt;Node42</title>
<path fill="none" stroke="midnightblue" d="M1336.02,-392.466C1351.31,-385.125 1371.15,-373.014 1382,-356 1402.12,-324.435 1403.56,-279.065 1402.49,-253.802"/>
<polygon fill="midnightblue" stroke="midnightblue" points="1405.98,-253.502 1401.88,-243.731 1398.99,-253.924 1405.98,-253.502"/>
</g>
<!-- Node43 -->
<g id="node43" class="node"><title>Node43</title>
<g id="a_node43"><a xlink:href="matrix_8h.html" target="_top" xlink:title="matrix.h">
<polygon fill="white" stroke="black" points="1282,-280.5 1282,-299.5 1334,-299.5 1334,-280.5 1282,-280.5"/>
<text text-anchor="middle" x="1308" y="-287.5" font-family="Helvetica,sans-Serif" font-size="10.00">matrix.h</text>
</a>
</g>
</g>
<!-- Node38&#45;&gt;Node43 -->
<g id="edge61" class="edge"><title>Node38&#45;&gt;Node43</title>
<path fill="none" stroke="midnightblue" d="M1313.01,-392.433C1311.03,-383.424 1308.13,-368.805 1307,-356 1305.63,-340.522 1306.03,-322.893 1306.68,-309.903"/>
<polygon fill="midnightblue" stroke="midnightblue" points="1310.18,-310.045 1307.29,-299.852 1303.19,-309.624 1310.18,-310.045"/>
</g>
<!-- Node44 -->
<g id="node44" class="node"><title>Node44</title>
<g id="a_node44"><a xlink:href="rotation_8h.html" target="_top" xlink:title="rotation.h">
<polygon fill="white" stroke="black" points="1315.5,-336.5 1315.5,-355.5 1372.5,-355.5 1372.5,-336.5 1315.5,-336.5"/>
<text text-anchor="middle" x="1344" y="-343.5" font-family="Helvetica,sans-Serif" font-size="10.00">rotation.h</text>
</a>
</g>
</g>
<!-- Node38&#45;&gt;Node44 -->
<g id="edge64" class="edge"><title>Node38&#45;&gt;Node44</title>
<path fill="none" stroke="midnightblue" d="M1319.79,-392.083C1323.76,-384.691 1329.53,-373.953 1334.43,-364.811"/>
<polygon fill="midnightblue" stroke="midnightblue" points="1337.65,-366.217 1339.3,-355.751 1331.49,-362.905 1337.65,-366.217"/>
</g>
<!-- Node39&#45;&gt;Node5 -->
<g id="edge49" class="edge"><title>Node39&#45;&gt;Node5</title>
<path fill="none" stroke="midnightblue" d="M1191.52,-336.213C1184.41,-327.499 1173.81,-313.528 1167,-300 1139.25,-244.893 1164.27,-214.75 1124,-168 1110.92,-152.811 1091.48,-142.198 1074.01,-135.109"/>
<polygon fill="midnightblue" stroke="midnightblue" points="1075.16,-131.8 1064.57,-131.527 1072.68,-138.345 1075.16,-131.8"/>
</g>
<!-- Node40 -->
<g id="node40" class="node"><title>Node40</title>
<polygon fill="white" stroke="#bfbfbf" points="1176.5,-280.5 1176.5,-299.5 1223.5,-299.5 1223.5,-280.5 1176.5,-280.5"/>
<text text-anchor="middle" x="1200" y="-287.5" font-family="Helvetica,sans-Serif" font-size="10.00">errno.h</text>
</g>
<!-- Node39&#45;&gt;Node40 -->
<g id="edge50" class="edge"><title>Node39&#45;&gt;Node40</title>
<path fill="none" stroke="midnightblue" d="M1199.17,-336.083C1199.3,-329.006 1199.48,-318.861 1199.65,-309.986"/>
<polygon fill="midnightblue" stroke="midnightblue" points="1203.15,-309.814 1199.84,-299.751 1196.15,-309.685 1203.15,-309.814"/>
</g>
<!-- Node41&#45;&gt;Node5 -->
<g id="edge52" class="edge"><title>Node41&#45;&gt;Node5</title>
<path fill="none" stroke="midnightblue" d="M1426.78,-172.672C1357.44,-163.904 1199.07,-143.875 1105.99,-132.104"/>
<polygon fill="midnightblue" stroke="midnightblue" points="1106.16,-128.598 1095.8,-130.816 1105.29,-135.543 1106.16,-128.598"/>
</g>
<!-- Node41&#45;&gt;Node8 -->
<g id="edge53" class="edge"><title>Node41&#45;&gt;Node8</title>
<path fill="none" stroke="midnightblue" d="M1470.65,-168.357C1484.9,-155.681 1512.53,-131.445 1537,-112 1550.14,-101.56 1565.32,-90.3568 1577.25,-81.7404"/>
<polygon fill="midnightblue" stroke="midnightblue" points="1579.57,-84.3845 1585.65,-75.7111 1575.49,-78.697 1579.57,-84.3845"/>
</g>
<!-- Node42&#45;&gt;Node5 -->
<g id="edge55" class="edge"><title>Node42&#45;&gt;Node5</title>
<path fill="none" stroke="midnightblue" d="M1392.16,-224.15C1377.26,-209.802 1345.57,-181.694 1313,-168 1246.23,-139.922 1163.68,-129.263 1105.76,-125.27"/>
<polygon fill="midnightblue" stroke="midnightblue" points="1105.8,-121.766 1095.6,-124.621 1105.36,-128.752 1105.8,-121.766"/>
</g>
<!-- Node42&#45;&gt;Node15 -->
<g id="edge59" class="edge"><title>Node42&#45;&gt;Node15</title>
<path fill="none" stroke="midnightblue" d="M1427.2,-233.018C1497.63,-232.531 1688.82,-227.514 1735,-188 1765.02,-162.316 1770.61,-112.813 1771.29,-85.7668"/>
<polygon fill="midnightblue" stroke="midnightblue" points="1774.79,-85.7019 1771.34,-75.6851 1767.79,-85.668 1774.79,-85.7019"/>
</g>
<!-- Node42&#45;&gt;Node17 -->
<g id="edge57" class="edge"><title>Node42&#45;&gt;Node17</title>
<path fill="none" stroke="midnightblue" d="M1424.65,-224.456C1446.02,-216.323 1478.02,-203.107 1504,-188 1560.07,-155.396 1619.59,-106.827 1648.37,-82.3204"/>
<polygon fill="midnightblue" stroke="midnightblue" points="1650.66,-84.9734 1655.97,-75.8051 1646.1,-79.6611 1650.66,-84.9734"/>
</g>
<!-- Node42&#45;&gt;Node20 -->
<g id="edge58" class="edge"><title>Node42&#45;&gt;Node20</title>
<path fill="none" stroke="midnightblue" d="M1401.66,-224.381C1402.98,-211.311 1406.89,-186.089 1418,-168 1441.27,-130.109 1483.17,-98.4144 1509.17,-81.1272"/>
<polygon fill="midnightblue" stroke="midnightblue" points="1511.17,-84.0053 1517.65,-75.6267 1507.36,-78.1326 1511.17,-84.0053"/>
</g>
<!-- Node42&#45;&gt;Node25 -->
<g id="edge60" class="edge"><title>Node42&#45;&gt;Node25</title>
<path fill="none" stroke="midnightblue" d="M1427.23,-228.457C1515.36,-212.174 1790.48,-152.53 1702,-56 1669.29,-20.3104 1326.46,-12.8221 1218.42,-11.3439"/>
<polygon fill="midnightblue" stroke="midnightblue" points="1218.18,-7.84069 1208.14,-11.212 1218.09,-14.8401 1218.18,-7.84069"/>
</g>
<!-- Node42&#45;&gt;Node41 -->
<g id="edge56" class="edge"><title>Node42&#45;&gt;Node41</title>
<path fill="none" stroke="midnightblue" d="M1410.64,-224.324C1419.51,-216.341 1432.87,-204.313 1443.61,-194.653"/>
<polygon fill="midnightblue" stroke="midnightblue" points="1446.09,-197.125 1451.18,-187.834 1441.41,-191.922 1446.09,-197.125"/>
</g>
<!-- Node43&#45;&gt;Node5 -->
<g id="edge62" class="edge"><title>Node43&#45;&gt;Node5</title>
<path fill="none" stroke="midnightblue" d="M1307.86,-280.393C1307,-258.085 1301.43,-198.04 1267,-168 1243.3,-147.324 1165.01,-135.304 1105.66,-128.97"/>
<polygon fill="midnightblue" stroke="midnightblue" points="1105.87,-125.473 1095.56,-127.927 1105.15,-132.436 1105.87,-125.473"/>
</g>
<!-- Node43&#45;&gt;Node42 -->
<g id="edge63" class="edge"><title>Node43&#45;&gt;Node42</title>
<path fill="none" stroke="midnightblue" d="M1322.94,-280.324C1337.59,-271.822 1360.13,-258.729 1377.24,-248.797"/>
<polygon fill="midnightblue" stroke="midnightblue" points="1379.2,-251.703 1386.1,-243.655 1375.69,-245.649 1379.2,-251.703"/>
</g>
<!-- Node44&#45;&gt;Node5 -->
<g id="edge65" class="edge"><title>Node44&#45;&gt;Node5</title>
<path fill="none" stroke="midnightblue" d="M1328.05,-336.341C1313.16,-327.933 1290.66,-314.365 1273,-300 1209.6,-248.435 1212.77,-213.667 1145,-168 1123.32,-153.388 1096.15,-142.274 1074.13,-134.746"/>
<polygon fill="midnightblue" stroke="midnightblue" points="1075,-131.349 1064.41,-131.541 1072.81,-137.996 1075,-131.349"/>
</g>
<!-- Node44&#45;&gt;Node42 -->
<g id="edge66" class="edge"><title>Node44&#45;&gt;Node42</title>
<path fill="none" stroke="midnightblue" d="M1348.47,-336.368C1357.8,-318.376 1379.47,-276.55 1391.87,-252.627"/>
<polygon fill="midnightblue" stroke="midnightblue" points="1395.05,-254.081 1396.55,-243.591 1388.84,-250.86 1395.05,-254.081"/>
</g>
<!-- Node44&#45;&gt;Node43 -->
<g id="edge67" class="edge"><title>Node44&#45;&gt;Node43</title>
<path fill="none" stroke="midnightblue" d="M1338.06,-336.083C1333.02,-328.534 1325.66,-317.495 1319.49,-308.23"/>
<polygon fill="midnightblue" stroke="midnightblue" points="1322.29,-306.13 1313.83,-299.751 1316.47,-310.013 1322.29,-306.13"/>
</g>
<!-- Node45&#45;&gt;Node5 -->
<g id="edge71" class="edge"><title>Node45&#45;&gt;Node5</title>
<path fill="none" stroke="midnightblue" d="M1172.38,-448.476C1136.41,-433.794 1072,-400.095 1072,-347 1072,-347 1072,-347 1072,-233 1072,-198.813 1055.4,-161.764 1044.14,-140.571"/>
<polygon fill="midnightblue" stroke="midnightblue" points="1047.18,-138.832 1039.28,-131.769 1041.05,-142.215 1047.18,-138.832"/>
</g>
<!-- Node45&#45;&gt;Node38 -->
<g id="edge72" class="edge"><title>Node45&#45;&gt;Node38</title>
<path fill="none" stroke="midnightblue" d="M1214.86,-448.444C1234.27,-439.636 1264.73,-425.812 1286.96,-415.722"/>
<polygon fill="midnightblue" stroke="midnightblue" points="1288.57,-418.836 1296.23,-411.516 1285.68,-412.462 1288.57,-418.836"/>
</g>
<!-- Node48 -->
<g id="node48" class="node"><title>Node48</title>
<polygon fill="white" stroke="#bfbfbf" points="1407,-448.5 1407,-467.5 1487,-467.5 1487,-448.5 1407,-448.5"/>
<text text-anchor="middle" x="1447" y="-455.5" font-family="Helvetica,sans-Serif" font-size="10.00">QMainWindow</text>
</g>
<!-- Node47&#45;&gt;Node48 -->
<g id="edge76" class="edge"><title>Node47&#45;&gt;Node48</title>
<path fill="none" stroke="midnightblue" d="M1447,-504.083C1447,-497.006 1447,-486.861 1447,-477.986"/>
<polygon fill="midnightblue" stroke="midnightblue" points="1450.5,-477.751 1447,-467.751 1443.5,-477.751 1450.5,-477.751"/>
</g>
</g>
</svg>
        <g id="navigator" transform="translate(0 0)" fill="#404254">
                <rect fill="#f2f5e9" fill-opacity="0.5" stroke="#606060" stroke-width=".5" x="0" y="0" width="60" height="60"/>
                <use id="zoomplus" xlink:href="#zoomPlus" x="17" y="9" onmousedown="handleZoom(evt,'in')"/>
                <use id="zoomminus" xlink:href="#zoomMin" x="42" y="9" onmousedown="handleZoom(evt,'out')"/>
                <use id="reset" xlink:href="#resetDef" x="30" y="36" onmousedown="handleReset()"/>
                <g id="arrowUp" xlink:href="#dirArrow" transform="translate(30 24)" onmousedown="handlePan(0,-1)">
                  <use xlink:href="#rim" fill="#404040">
                        <set attributeName="fill" to="#808080" begin="arrowUp.mouseover" end="arrowUp.mouseout"/>
                  </use>
                  <path fill="none" stroke="white" stroke-width="1.5" d="M0,-3.0v7 M-2.5,-0.5L0,-3.0L2.5,-0.5"/>
                </g>
                <g id="arrowRight" xlink:href="#dirArrow" transform="rotate(90) translate(36 -43)" onmousedown="handlePan(1,0)">
                  <use xlink:href="#rim" fill="#404040">
                        <set attributeName="fill" to="#808080" begin="arrowRight.mouseover" end="arrowRight.mouseout"/>
                  </use>
                  <path fill="none" stroke="white" stroke-width="1.5" d="M0,-3.0v7 M-2.5,-0.5L0,-3.0L2.5,-0.5"/>
                </g>
                <g id="arrowDown" xlink:href="#dirArrow" transform="rotate(180) translate(-30 -48)" onmousedown="handlePan(0,1)">
                  <use xlink:href="#rim" fill="#404040">
                        <set attributeName="fill" to="#808080" begin="arrowDown.mouseover" end="arrowDown.mouseout"/>
                  </use>
                  <path fill="none" stroke="white" stroke-width="1.5" d="M0,-3.0v7 M-2.5,-0.5L0,-3.0L2.5,-0.5"/>
                </g>
                <g id="arrowLeft" xlink:href="#dirArrow" transform="rotate(270) translate(-36 17)" onmousedown="handlePan(-1,0)">
                  <use xlink:href="#rim" fill="#404040">
                        <set attributeName="fill" to="#808080" begin="arrowLeft.mouseover" end="arrowLeft.mouseout"/>
                  </use>
                  <path fill="none" stroke="white" stroke-width="1.5" d="M0,-3.0v7 M-2.5,-0.5L0,-3.0L2.5,-0.5"/>
                </g>
        </g>
        <svg viewBox="0 0 15 15" width="100%" height="30px" preserveAspectRatio="xMaxYMin meet">
         <g id="arrow_out" transform="scale(0.3 0.3)">
          <a xlink:href="testcontainer_8h__incl_org.svg" target="_base">
           <rect id="button" ry="5" rx="5" y="6" x="6" height="38" width="38"
                fill="#f2f5e9" fill-opacity="0.5" stroke="#606060" stroke-width="1.0"/>
           <path id="arrow"
             d="M 11.500037,31.436501 C 11.940474,20.09759 22.043105,11.32322 32.158766,21.979434 L 37.068811,17.246167 C 37.068811,17.246167 37.088388,32 37.088388,32 L 22.160133,31.978069 C 22.160133,31.978069 26.997745,27.140456 26.997745,27.140456 C 18.528582,18.264221 13.291696,25.230495 11.500037,31.436501 z"
             style="fill:#404040;"/>
          </a>
         </g>
        </svg>
</svg>
