<?xml version="1.0" encoding="UTF-8" standalone="no"?>
<!DOCTYPE svg PUBLIC "-//W3C//DTD SVG 1.1//EN"
 "http://www.w3.org/Graphics/SVG/1.1/DTD/svg11.dtd">
<!-- Generated by graphviz version 2.38.0 (20140413.2041)
 -->
<!-- Title: testcontainer.h Pages: 1 -->
<svg width="355pt" height="140pt"
 viewBox="0.00 0.00 354.50 140.00" xmlns="http://www.w3.org/2000/svg" xmlns:xlink="http://www.w3.org/1999/xlink">
<g id="graph0" class="graph" transform="scale(1 1) rotate(0) translate(4 136)">
<title>testcontainer.h</title>
<polygon fill="white" stroke="none" points="-4,4 -4,-136 350.5,-136 350.5,4 -4,4"/>
<!-- Node1 -->
<g id="node1" class="node"><title>Node1</title>
<polygon fill="#bfbfbf" stroke="black" points="130,-112.5 130,-131.5 211,-131.5 211,-112.5 130,-112.5"/>
<text text-anchor="middle" x="170.5" y="-119.5" font-family="Helvetica,sans-Serif" font-size="10.00">testcontainer.h</text>
</g>
<!-- Node2 -->
<g id="node2" class="node"><title>Node2</title>
<g id="a_node2"><a xlink:href="eci2kep__test_8h.html" target="_top" xlink:title="eci2kep_test.h">
<polygon fill="white" stroke="black" points="26.5,-56.5 26.5,-75.5 106.5,-75.5 106.5,-56.5 26.5,-56.5"/>
<text text-anchor="middle" x="66.5" y="-63.5" font-family="Helvetica,sans-Serif" font-size="10.00">eci2kep_test.h</text>
</a>
</g>
</g>
<!-- Node1&#45;&gt;Node2 -->
<g id="edge1" class="edge"><title>Node1&#45;&gt;Node2</title>
<path fill="none" stroke="midnightblue" d="M144.672,-107.59C125.443,-97.6052 99.7553,-84.2672 83.1679,-75.6545"/>
<polygon fill="midnightblue" stroke="midnightblue" points="143.303,-110.822 153.791,-112.324 146.529,-104.61 143.303,-110.822"/>
</g>
<!-- Node4 -->
<g id="node4" class="node"><title>Node4</title>
<g id="a_node4"><a xlink:href="testcontainer_8cpp.html" target="_top" xlink:title="testcontainer.cpp">
<polygon fill="white" stroke="black" points="109.5,-0.5 109.5,-19.5 201.5,-19.5 201.5,-0.5 109.5,-0.5"/>
<text text-anchor="middle" x="155.5" y="-7.5" font-family="Helvetica,sans-Serif" font-size="10.00">testcontainer.cpp</text>
</a>
</g>
</g>
<!-- Node1&#45;&gt;Node4 -->
<g id="edge8" class="edge"><title>Node1&#45;&gt;Node4</title>
<path fill="none" stroke="midnightblue" d="M162.054,-103.145C158.675,-95.0521 155.188,-85.2425 153.5,-76 149.89,-56.2305 152.267,-32.5281 154.051,-19.9197"/>
<polygon fill="midnightblue" stroke="midnightblue" points="158.869,-104.595 166.134,-112.307 165.263,-101.748 158.869,-104.595"/>
</g>
<!-- Node5 -->
<g id="node5" class="node"><title>Node5</title>
<g id="a_node5"><a xlink:href="mainwindow_8cpp.html" target="_top" xlink:title="mainwindow.cpp">
<polygon fill="white" stroke="black" points="163,-56.5 163,-75.5 252,-75.5 252,-56.5 163,-56.5"/>
<text text-anchor="middle" x="207.5" y="-63.5" font-family="Helvetica,sans-Serif" font-size="10.00">mainwindow.cpp</text>
</a>
</g>
</g>
<!-- Node1&#45;&gt;Node5 -->
<g id="edge4" class="edge"><title>Node1&#45;&gt;Node5</title>
<path fill="none" stroke="midnightblue" d="M182.446,-103.566C188.812,-94.2747 196.367,-83.2484 201.504,-75.7511"/>
<polygon fill="midnightblue" stroke="midnightblue" points="179.375,-101.855 176.61,-112.083 185.149,-105.812 179.375,-101.855"/>
</g>
<!-- Node6 -->
<g id="node6" class="node"><title>Node6</title>
<g id="a_node6"><a xlink:href="rearth__test_8h.html" target="_top" xlink:title="rearth_test.h">
<polygon fill="white" stroke="black" points="270,-56.5 270,-75.5 341,-75.5 341,-56.5 270,-56.5"/>
<text text-anchor="middle" x="305.5" y="-63.5" font-family="Helvetica,sans-Serif" font-size="10.00">rearth_test.h</text>
</a>
</g>
</g>
<!-- Node1&#45;&gt;Node6 -->
<g id="edge5" class="edge"><title>Node1&#45;&gt;Node6</title>
<path fill="none" stroke="midnightblue" d="M201.406,-108.638C226.74,-98.504 261.931,-84.4274 284.209,-75.5164"/>
<polygon fill="midnightblue" stroke="midnightblue" points="199.876,-105.48 191.891,-112.444 202.476,-111.979 199.876,-105.48"/>
</g>
<!-- Node3 -->
<g id="node3" class="node"><title>Node3</title>
<g id="a_node3"><a xlink:href="eci2kep__test_8cpp.html" target="_top" xlink:title="eci2kep_test.cpp">
<polygon fill="white" stroke="black" points="0,-0.5 0,-19.5 91,-19.5 91,-0.5 0,-0.5"/>
<text text-anchor="middle" x="45.5" y="-7.5" font-family="Helvetica,sans-Serif" font-size="10.00">eci2kep_test.cpp</text>
</a>
</g>
</g>
<!-- Node2&#45;&gt;Node3 -->
<g id="edge2" class="edge"><title>Node2&#45;&gt;Node3</title>
<path fill="none" stroke="midnightblue" d="M59.3793,-46.6897C55.8402,-37.589 51.7277,-27.0141 48.9032,-19.7511"/>
<polygon fill="midnightblue" stroke="midnightblue" points="56.1457,-48.0315 63.0323,-56.083 62.6698,-45.4944 56.1457,-48.0315"/>
</g>
<!-- Node2&#45;&gt;Node4 -->
<g id="edge3" class="edge"><title>Node2&#45;&gt;Node4</title>
<path fill="none" stroke="midnightblue" d="M89.738,-50.9005C106.058,-40.9986 127.365,-28.0705 141.236,-19.6545"/>
<polygon fill="midnightblue" stroke="midnightblue" points="87.5332,-48.1444 80.7994,-56.324 91.1644,-54.1289 87.5332,-48.1444"/>
</g>
<!-- Node6&#45;&gt;Node4 -->
<g id="edge7" class="edge"><title>Node6&#45;&gt;Node4</title>
<path fill="none" stroke="midnightblue" d="M272.275,-53.0392C244.052,-42.8786 204.238,-28.5457 179.157,-19.5164"/>
<polygon fill="midnightblue" stroke="midnightblue" points="271.138,-56.3494 281.732,-56.4435 273.509,-49.7632 271.138,-56.3494"/>
</g>
<!-- Node7 -->
<g id="node7" class="node"><title>Node7</title>
<g id="a_node7"><a xlink:href="rearth__test_8cpp.html" target="_top" xlink:title="rearth_test.cpp">
<polygon fill="white" stroke="black" points="264.5,-0.5 264.5,-19.5 346.5,-19.5 346.5,-0.5 264.5,-0.5"/>
<text text-anchor="middle" x="305.5" y="-7.5" font-family="Helvetica,sans-Serif" font-size="10.00">rearth_test.cpp</text>
</a>
</g>
</g>
<!-- Node6&#45;&gt;Node7 -->
<g id="edge6" class="edge"><title>Node6&#45;&gt;Node7</title>
<path fill="none" stroke="midnightblue" d="M305.5,-45.8045C305.5,-36.9102 305.5,-26.7798 305.5,-19.7511"/>
<polygon fill="midnightblue" stroke="midnightblue" points="302,-46.083 305.5,-56.083 309,-46.083 302,-46.083"/>
</g>
</g>
</svg>
