<?xml version="1.0" encoding="UTF-8" standalone="no"?>
<!DOCTYPE svg PUBLIC "-//W3C//DTD SVG 1.1//EN"
 "http://www.w3.org/Graphics/SVG/1.1/DTD/svg11.dtd">
<!-- Generated by graphviz version 2.38.0 (20140413.2041)
 -->
<!-- Title: timelib.h Pages: 1 -->
<svg width="1910pt" height="476pt"
 viewBox="0.00 0.00 1909.50 476.00" xmlns="http://www.w3.org/2000/svg" xmlns:xlink="http://www.w3.org/1999/xlink">
<g id="graph0" class="graph" transform="scale(1 1) rotate(0) translate(4 472)">
<title>timelib.h</title>
<polygon fill="white" stroke="none" points="-4,4 -4,-472 1905.5,-472 1905.5,4 -4,4"/>
<!-- Node1 -->
<g id="node1" class="node"><title>Node1</title>
<polygon fill="#bfbfbf" stroke="black" points="779,-448.5 779,-467.5 832,-467.5 832,-448.5 779,-448.5"/>
<text text-anchor="middle" x="805.5" y="-455.5" font-family="Helvetica,sans-Serif" font-size="10.00">timelib.h</text>
</g>
<!-- Node2 -->
<g id="node2" class="node"><title>Node2</title>
<g id="a_node2"><a xlink:href="config_cosmos_8h.html" target="_top" xlink:title="Headers and definitions common to all COSMOS. ">
<polygon fill="white" stroke="black" points="782,-112.5 782,-131.5 905,-131.5 905,-112.5 782,-112.5"/>
<text text-anchor="middle" x="843.5" y="-119.5" font-family="Helvetica,sans-Serif" font-size="10.00">support/configCosmos.h</text>
</a>
</g>
</g>
<!-- Node1&#45;&gt;Node2 -->
<g id="edge1" class="edge"><title>Node1&#45;&gt;Node2</title>
<path fill="none" stroke="midnightblue" d="M810.784,-448.231C821.225,-430.043 843.5,-386.601 843.5,-347 843.5,-347 843.5,-347 843.5,-233 843.5,-200.948 843.5,-163.643 843.5,-141.749"/>
<polygon fill="midnightblue" stroke="midnightblue" points="847,-141.558 843.5,-131.558 840,-141.558 847,-141.558"/>
</g>
<!-- Node12 -->
<g id="node12" class="node"><title>Node12</title>
<polygon fill="white" stroke="#bfbfbf" points="180.5,-56.5 180.5,-75.5 224.5,-75.5 224.5,-56.5 180.5,-56.5"/>
<text text-anchor="middle" x="202.5" y="-63.5" font-family="Helvetica,sans-Serif" font-size="10.00">cmath</text>
</g>
<!-- Node1&#45;&gt;Node12 -->
<g id="edge73" class="edge"><title>Node1&#45;&gt;Node12</title>
<path fill="none" stroke="midnightblue" d="M778.895,-454.287C686.532,-444.478 380.946,-408.629 299.5,-356 206.114,-295.656 200.676,-139.725 201.729,-85.7317"/>
<polygon fill="midnightblue" stroke="midnightblue" points="205.233,-85.6713 202.034,-75.5709 198.236,-85.4615 205.233,-85.6713"/>
</g>
<!-- Node35 -->
<g id="node35" class="node"><title>Node35</title>
<g id="a_node35"><a xlink:href="elapsedtime_8h.html" target="_top" xlink:title="Elapsed Time header file. ">
<polygon fill="white" stroke="black" points="0,-168.5 0,-187.5 113,-187.5 113,-168.5 0,-168.5"/>
<text text-anchor="middle" x="56.5" y="-175.5" font-family="Helvetica,sans-Serif" font-size="10.00">support/elapsedtime.h</text>
</a>
</g>
</g>
<!-- Node1&#45;&gt;Node35 -->
<g id="edge43" class="edge"><title>Node1&#45;&gt;Node35</title>
<path fill="none" stroke="midnightblue" d="M778.68,-456.559C659.982,-454.427 185.235,-443.955 127.5,-412 96.309,-394.736 80.5,-382.65 80.5,-347 80.5,-347 80.5,-347 80.5,-289 80.5,-256.059 70.0991,-218.818 62.9913,-197.214"/>
<polygon fill="midnightblue" stroke="midnightblue" points="66.2849,-196.028 59.7367,-187.699 59.6616,-198.294 66.2849,-196.028"/>
</g>
<!-- Node36 -->
<g id="node36" class="node"><title>Node36</title>
<polygon fill="white" stroke="#bfbfbf" points="110,-112.5 110,-131.5 151,-131.5 151,-112.5 110,-112.5"/>
<text text-anchor="middle" x="130.5" y="-119.5" font-family="Helvetica,sans-Serif" font-size="10.00">ctime</text>
</g>
<!-- Node1&#45;&gt;Node36 -->
<g id="edge77" class="edge"><title>Node1&#45;&gt;Node36</title>
<path fill="none" stroke="midnightblue" d="M778.814,-456.807C663.941,-455.754 215.173,-449.266 165.5,-412 140.866,-393.519 141.5,-377.795 141.5,-347 141.5,-347 141.5,-347 141.5,-233 141.5,-200.788 136.772,-163.532 133.515,-141.692"/>
<polygon fill="midnightblue" stroke="midnightblue" points="136.93,-140.874 131.938,-131.529 130.013,-141.947 136.93,-140.874"/>
</g>
<!-- Node38 -->
<g id="node38" class="node"><title>Node38</title>
<g id="a_node38"><a xlink:href="mathlib_8h.html" target="_top" xlink:title="mathlib include file ">
<polygon fill="white" stroke="black" points="500,-392.5 500,-411.5 581,-411.5 581,-392.5 500,-392.5"/>
<text text-anchor="middle" x="540.5" y="-399.5" font-family="Helvetica,sans-Serif" font-size="10.00">math/mathlib.h</text>
</a>
</g>
</g>
<!-- Node1&#45;&gt;Node38 -->
<g id="edge49" class="edge"><title>Node1&#45;&gt;Node38</title>
<path fill="none" stroke="midnightblue" d="M778.632,-451.525C734.781,-442.589 647.127,-424.728 591.27,-413.346"/>
<polygon fill="midnightblue" stroke="midnightblue" points="591.726,-409.867 581.228,-411.299 590.328,-416.726 591.726,-409.867"/>
</g>
<!-- Node40 -->
<g id="node40" class="node"><title>Node40</title>
<polygon fill="white" stroke="#bfbfbf" points="763,-280.5 763,-299.5 810,-299.5 810,-280.5 763,-280.5"/>
<text text-anchor="middle" x="786.5" y="-287.5" font-family="Helvetica,sans-Serif" font-size="10.00">errno.h</text>
</g>
<!-- Node1&#45;&gt;Node40 -->
<g id="edge75" class="edge"><title>Node1&#45;&gt;Node40</title>
<path fill="none" stroke="midnightblue" d="M804.478,-448.075C801.488,-421.945 792.705,-345.211 788.626,-309.577"/>
<polygon fill="midnightblue" stroke="midnightblue" points="792.095,-309.105 787.481,-299.568 785.141,-309.901 792.095,-309.105"/>
</g>
<!-- Node45 -->
<g id="node45" class="node"><title>Node45</title>
<polygon fill="white" stroke="#bfbfbf" points="871.5,-392.5 871.5,-411.5 915.5,-411.5 915.5,-392.5 871.5,-392.5"/>
<text text-anchor="middle" x="893.5" y="-399.5" font-family="Helvetica,sans-Serif" font-size="10.00">time.h</text>
</g>
<!-- Node1&#45;&gt;Node45 -->
<g id="edge74" class="edge"><title>Node1&#45;&gt;Node45</title>
<path fill="none" stroke="midnightblue" d="M819.639,-448.324C833.366,-439.9 854.436,-426.971 870.564,-417.074"/>
<polygon fill="midnightblue" stroke="midnightblue" points="872.704,-419.868 879.396,-411.655 869.043,-413.902 872.704,-419.868"/>
</g>
<!-- Node46 -->
<g id="node46" class="node"><title>Node46</title>
<polygon fill="white" stroke="#bfbfbf" points="933.5,-392.5 933.5,-411.5 979.5,-411.5 979.5,-392.5 933.5,-392.5"/>
<text text-anchor="middle" x="956.5" y="-399.5" font-family="Helvetica,sans-Serif" font-size="10.00">stdio.h</text>
</g>
<!-- Node1&#45;&gt;Node46 -->
<g id="edge76" class="edge"><title>Node1&#45;&gt;Node46</title>
<path fill="none" stroke="midnightblue" d="M829.426,-448.444C854.868,-439.345 895.274,-424.895 923.679,-414.737"/>
<polygon fill="midnightblue" stroke="midnightblue" points="924.944,-418.002 933.182,-411.339 922.587,-411.411 924.944,-418.002"/>
</g>
<!-- Node47 -->
<g id="node47" class="node"><title>Node47</title>
<polygon fill="white" stroke="#bfbfbf" points="998,-392.5 998,-411.5 1033,-411.5 1033,-392.5 998,-392.5"/>
<text text-anchor="middle" x="1015.5" y="-399.5" font-family="Helvetica,sans-Serif" font-size="10.00">ratio</text>
</g>
<!-- Node1&#45;&gt;Node47 -->
<g id="edge78" class="edge"><title>Node1&#45;&gt;Node47</title>
<path fill="none" stroke="midnightblue" d="M832.043,-451.18C865.988,-443.584 926.761,-429.475 988.014,-411.953"/>
<polygon fill="midnightblue" stroke="midnightblue" points="989.21,-415.251 997.845,-409.112 987.267,-408.526 989.21,-415.251"/>
</g>
<!-- Node3 -->
<g id="node3" class="node"><title>Node3</title>
<polygon fill="white" stroke="#bfbfbf" points="1461,-56.5 1461,-75.5 1506,-75.5 1506,-56.5 1461,-56.5"/>
<text text-anchor="middle" x="1483.5" y="-63.5" font-family="Helvetica,sans-Serif" font-size="10.00">climits</text>
</g>
<!-- Node2&#45;&gt;Node3 -->
<g id="edge2" class="edge"><title>Node2&#45;&gt;Node3</title>
<path fill="none" stroke="midnightblue" d="M905.083,-119.735C1014.62,-116.746 1250.26,-106.975 1446.5,-76 1447.97,-75.7681 1449.47,-75.5074 1450.97,-75.2248"/>
<polygon fill="midnightblue" stroke="midnightblue" points="1451.86,-78.6139 1460.92,-73.1146 1450.41,-71.7663 1451.86,-78.6139"/>
</g>
<!-- Node4 -->
<g id="node4" class="node"><title>Node4</title>
<polygon fill="white" stroke="#bfbfbf" points="1524,-56.5 1524,-75.5 1571,-75.5 1571,-56.5 1524,-56.5"/>
<text text-anchor="middle" x="1547.5" y="-63.5" font-family="Helvetica,sans-Serif" font-size="10.00">csignal</text>
</g>
<!-- Node2&#45;&gt;Node4 -->
<g id="edge3" class="edge"><title>Node2&#45;&gt;Node4</title>
<path fill="none" stroke="midnightblue" d="M905.156,-121.123C1022.35,-120.435 1285.25,-114.473 1513.69,-75.977"/>
<polygon fill="midnightblue" stroke="midnightblue" points="1514.59,-79.3743 1523.86,-74.2385 1513.41,-72.4745 1514.59,-79.3743"/>
</g>
<!-- Node5 -->
<g id="node5" class="node"><title>Node5</title>
<polygon fill="white" stroke="#bfbfbf" points="1855.5,-56.5 1855.5,-75.5 1901.5,-75.5 1901.5,-56.5 1855.5,-56.5"/>
<text text-anchor="middle" x="1878.5" y="-63.5" font-family="Helvetica,sans-Serif" font-size="10.00">cstdint</text>
</g>
<!-- Node2&#45;&gt;Node5 -->
<g id="edge4" class="edge"><title>Node2&#45;&gt;Node5</title>
<path fill="none" stroke="midnightblue" d="M905.033,-120.086C1090.71,-117.042 1644.39,-105.791 1845.08,-75.7955"/>
<polygon fill="midnightblue" stroke="midnightblue" points="1845.88,-79.2128 1855.22,-74.2139 1844.8,-72.2963 1845.88,-79.2128"/>
</g>
<!-- Node6 -->
<g id="node6" class="node"><title>Node6</title>
<polygon fill="white" stroke="#bfbfbf" points="1589.5,-56.5 1589.5,-75.5 1645.5,-75.5 1645.5,-56.5 1589.5,-56.5"/>
<text text-anchor="middle" x="1617.5" y="-63.5" font-family="Helvetica,sans-Serif" font-size="10.00">cinttypes</text>
</g>
<!-- Node2&#45;&gt;Node6 -->
<g id="edge5" class="edge"><title>Node2&#45;&gt;Node6</title>
<path fill="none" stroke="midnightblue" d="M905.035,-120.922C1030.35,-119.967 1324.18,-113.665 1579.12,-75.93"/>
<polygon fill="midnightblue" stroke="midnightblue" points="1579.95,-79.3453 1589.32,-74.4007 1578.91,-72.4227 1579.95,-79.3453"/>
</g>
<!-- Node7 -->
<g id="node7" class="node"><title>Node7</title>
<polygon fill="white" stroke="#bfbfbf" points="1664,-56.5 1664,-75.5 1707,-75.5 1707,-56.5 1664,-56.5"/>
<text text-anchor="middle" x="1685.5" y="-63.5" font-family="Helvetica,sans-Serif" font-size="10.00">cstdio</text>
</g>
<!-- Node2&#45;&gt;Node7 -->
<g id="edge6" class="edge"><title>Node2&#45;&gt;Node7</title>
<path fill="none" stroke="midnightblue" d="M905.153,-119.391C1065.13,-114.934 1491.68,-101.171 1653.68,-75.6294"/>
<polygon fill="midnightblue" stroke="midnightblue" points="1654.67,-79.0138 1663.97,-73.9299 1653.53,-72.1075 1654.67,-79.0138"/>
</g>
<!-- Node8 -->
<g id="node8" class="node"><title>Node8</title>
<polygon fill="white" stroke="#bfbfbf" points="1725,-56.5 1725,-75.5 1774,-75.5 1774,-56.5 1725,-56.5"/>
<text text-anchor="middle" x="1749.5" y="-63.5" font-family="Helvetica,sans-Serif" font-size="10.00">cstddef</text>
</g>
<!-- Node2&#45;&gt;Node8 -->
<g id="edge7" class="edge"><title>Node2&#45;&gt;Node8</title>
<path fill="none" stroke="midnightblue" d="M905.138,-119.544C1073.77,-115.291 1541.16,-101.638 1714.74,-75.912"/>
<polygon fill="midnightblue" stroke="midnightblue" points="1715.41,-79.3498 1724.76,-74.3602 1714.34,-72.4322 1715.41,-79.3498"/>
</g>
<!-- Node9 -->
<g id="node9" class="node"><title>Node9</title>
<polygon fill="white" stroke="#bfbfbf" points="1792,-56.5 1792,-75.5 1837,-75.5 1837,-56.5 1792,-56.5"/>
<text text-anchor="middle" x="1814.5" y="-63.5" font-family="Helvetica,sans-Serif" font-size="10.00">cstdlib</text>
</g>
<!-- Node2&#45;&gt;Node9 -->
<g id="edge8" class="edge"><title>Node2&#45;&gt;Node9</title>
<path fill="none" stroke="midnightblue" d="M905.307,-119.933C1083.13,-116.568 1594.74,-104.749 1781.95,-75.8231"/>
<polygon fill="midnightblue" stroke="midnightblue" points="1782.64,-79.2578 1791.95,-74.209 1781.52,-72.3473 1782.64,-79.2578"/>
</g>
<!-- Node10 -->
<g id="node10" class="node"><title>Node10</title>
<polygon fill="white" stroke="#bfbfbf" points="386.5,-56.5 386.5,-75.5 430.5,-75.5 430.5,-56.5 386.5,-56.5"/>
<text text-anchor="middle" x="408.5" y="-63.5" font-family="Helvetica,sans-Serif" font-size="10.00">cerrno</text>
</g>
<!-- Node2&#45;&gt;Node10 -->
<g id="edge9" class="edge"><title>Node2&#45;&gt;Node10</title>
<path fill="none" stroke="midnightblue" d="M781.739,-117.426C704.075,-112.197 566.611,-100.513 440.565,-75.9016"/>
<polygon fill="midnightblue" stroke="midnightblue" points="441.228,-72.4651 430.738,-73.9516 439.865,-79.3312 441.228,-72.4651"/>
</g>
<!-- Node11 -->
<g id="node11" class="node"><title>Node11</title>
<polygon fill="white" stroke="#bfbfbf" points="448.5,-56.5 448.5,-75.5 494.5,-75.5 494.5,-56.5 448.5,-56.5"/>
<text text-anchor="middle" x="471.5" y="-63.5" font-family="Helvetica,sans-Serif" font-size="10.00">cstring</text>
</g>
<!-- Node2&#45;&gt;Node11 -->
<g id="edge10" class="edge"><title>Node2&#45;&gt;Node11</title>
<path fill="none" stroke="midnightblue" d="M781.947,-115.519C715.639,-109.016 606.933,-96.6305 504.696,-75.9973"/>
<polygon fill="midnightblue" stroke="midnightblue" points="505.323,-72.5531 494.824,-73.9747 503.918,-79.4107 505.323,-72.5531"/>
</g>
<!-- Node2&#45;&gt;Node12 -->
<g id="edge11" class="edge"><title>Node2&#45;&gt;Node12</title>
<path fill="none" stroke="midnightblue" d="M781.615,-117.174C676.581,-110.446 456.767,-95.3574 271.5,-76 259.449,-74.7409 246.25,-73.0869 234.652,-71.5407"/>
<polygon fill="midnightblue" stroke="midnightblue" points="234.909,-68.0437 224.529,-70.1655 233.967,-74.98 234.909,-68.0437"/>
</g>
<!-- Node13 -->
<g id="node13" class="node"><title>Node13</title>
<polygon fill="white" stroke="#bfbfbf" points="513,-56.5 513,-75.5 558,-75.5 558,-56.5 513,-56.5"/>
<text text-anchor="middle" x="535.5" y="-63.5" font-family="Helvetica,sans-Serif" font-size="10.00">iosfwd</text>
</g>
<!-- Node2&#45;&gt;Node13 -->
<g id="edge12" class="edge"><title>Node2&#45;&gt;Node13</title>
<path fill="none" stroke="midnightblue" d="M781.735,-112.959C727.853,-105.484 647.426,-93.2203 568.29,-75.9524"/>
<polygon fill="midnightblue" stroke="midnightblue" points="568.666,-72.4508 558.146,-73.7092 567.154,-79.2858 568.666,-72.4508"/>
</g>
<!-- Node14 -->
<g id="node14" class="node"><title>Node14</title>
<polygon fill="white" stroke="#bfbfbf" points="108.5,-56.5 108.5,-75.5 162.5,-75.5 162.5,-56.5 108.5,-56.5"/>
<text text-anchor="middle" x="135.5" y="-63.5" font-family="Helvetica,sans-Serif" font-size="10.00">iostream</text>
</g>
<!-- Node2&#45;&gt;Node14 -->
<g id="edge13" class="edge"><title>Node2&#45;&gt;Node14</title>
<path fill="none" stroke="midnightblue" d="M781.942,-120.533C664.913,-118.85 402.274,-111.271 172.735,-75.8997"/>
<polygon fill="midnightblue" stroke="midnightblue" points="172.941,-72.3894 162.521,-74.3036 171.861,-79.3055 172.941,-72.3894"/>
</g>
<!-- Node15 -->
<g id="node15" class="node"><title>Node15</title>
<polygon fill="white" stroke="#bfbfbf" points="576.5,-56.5 576.5,-75.5 628.5,-75.5 628.5,-56.5 576.5,-56.5"/>
<text text-anchor="middle" x="602.5" y="-63.5" font-family="Helvetica,sans-Serif" font-size="10.00">sstream</text>
</g>
<!-- Node2&#45;&gt;Node15 -->
<g id="edge14" class="edge"><title>Node2&#45;&gt;Node15</title>
<path fill="none" stroke="midnightblue" d="M802.36,-112.476C762.822,-104.181 701.146,-90.9729 638.848,-76.2591"/>
<polygon fill="midnightblue" stroke="midnightblue" points="639.386,-72.7895 628.848,-73.8853 637.769,-79.6003 639.386,-72.7895"/>
</g>
<!-- Node16 -->
<g id="node16" class="node"><title>Node16</title>
<polygon fill="white" stroke="#bfbfbf" points="647,-56.5 647,-75.5 688,-75.5 688,-56.5 647,-56.5"/>
<text text-anchor="middle" x="667.5" y="-63.5" font-family="Helvetica,sans-Serif" font-size="10.00">regex</text>
</g>
<!-- Node2&#45;&gt;Node16 -->
<g id="edge15" class="edge"><title>Node2&#45;&gt;Node16</title>
<path fill="none" stroke="midnightblue" d="M815.583,-112.489C787.912,-104.045 744.065,-90.6451 697.705,-76.3642"/>
<polygon fill="midnightblue" stroke="midnightblue" points="698.679,-73.0021 688.092,-73.4014 696.618,-79.6915 698.679,-73.0021"/>
</g>
<!-- Node17 -->
<g id="node17" class="node"><title>Node17</title>
<polygon fill="white" stroke="#bfbfbf" points="280.5,-56.5 280.5,-75.5 330.5,-75.5 330.5,-56.5 280.5,-56.5"/>
<text text-anchor="middle" x="305.5" y="-63.5" font-family="Helvetica,sans-Serif" font-size="10.00">iomanip</text>
</g>
<!-- Node2&#45;&gt;Node17 -->
<g id="edge16" class="edge"><title>Node2&#45;&gt;Node17</title>
<path fill="none" stroke="midnightblue" d="M781.707,-118.152C687.088,-113.178 500.829,-100.967 344.5,-76 343.226,-75.7966 341.932,-75.5753 340.627,-75.3399"/>
<polygon fill="midnightblue" stroke="midnightblue" points="341.07,-71.8589 330.576,-73.3186 339.69,-78.7215 341.07,-71.8589"/>
</g>
<!-- Node18 -->
<g id="node18" class="node"><title>Node18</title>
<polygon fill="white" stroke="#bfbfbf" points="706,-56.5 706,-75.5 757,-75.5 757,-56.5 706,-56.5"/>
<text text-anchor="middle" x="731.5" y="-63.5" font-family="Helvetica,sans-Serif" font-size="10.00">unistd.h</text>
</g>
<!-- Node2&#45;&gt;Node18 -->
<g id="edge17" class="edge"><title>Node2&#45;&gt;Node18</title>
<path fill="none" stroke="midnightblue" d="M825.505,-112.324C807.462,-103.625 779.453,-90.1202 758.697,-80.113"/>
<polygon fill="midnightblue" stroke="midnightblue" points="759.978,-76.8449 749.45,-75.6545 756.938,-83.1502 759.978,-76.8449"/>
</g>
<!-- Node19 -->
<g id="node19" class="node"><title>Node19</title>
<polygon fill="white" stroke="#bfbfbf" points="775.5,-56.5 775.5,-75.5 819.5,-75.5 819.5,-56.5 775.5,-56.5"/>
<text text-anchor="middle" x="797.5" y="-63.5" font-family="Helvetica,sans-Serif" font-size="10.00">fcntl.h</text>
</g>
<!-- Node2&#45;&gt;Node19 -->
<g id="edge18" class="edge"><title>Node2&#45;&gt;Node19</title>
<path fill="none" stroke="midnightblue" d="M835.904,-112.083C829.273,-104.298 819.479,-92.8015 811.442,-83.3665"/>
<polygon fill="midnightblue" stroke="midnightblue" points="814.104,-81.0939 804.955,-75.7511 808.775,-85.6332 814.104,-81.0939"/>
</g>
<!-- Node20 -->
<g id="node20" class="node"><title>Node20</title>
<polygon fill="white" stroke="#bfbfbf" points="837.5,-56.5 837.5,-75.5 877.5,-75.5 877.5,-56.5 837.5,-56.5"/>
<text text-anchor="middle" x="857.5" y="-63.5" font-family="Helvetica,sans-Serif" font-size="10.00">limits</text>
</g>
<!-- Node2&#45;&gt;Node20 -->
<g id="edge19" class="edge"><title>Node2&#45;&gt;Node20</title>
<path fill="none" stroke="midnightblue" d="M845.812,-112.083C847.667,-104.927 850.335,-94.6353 852.654,-85.6911"/>
<polygon fill="midnightblue" stroke="midnightblue" points="856.109,-86.3094 855.231,-75.7511 849.334,-84.5527 856.109,-86.3094"/>
</g>
<!-- Node21 -->
<g id="node21" class="node"><title>Node21</title>
<polygon fill="white" stroke="#bfbfbf" points="338,-0.5 338,-19.5 379,-19.5 379,-0.5 338,-0.5"/>
<text text-anchor="middle" x="358.5" y="-7.5" font-family="Helvetica,sans-Serif" font-size="10.00">string</text>
</g>
<!-- Node2&#45;&gt;Node21 -->
<g id="edge20" class="edge"><title>Node2&#45;&gt;Node21</title>
<path fill="none" stroke="midnightblue" d="M781.933,-118.856C662.428,-114.149 408.026,-101.263 377.5,-76 364.075,-64.8897 359.827,-44.8556 358.629,-29.9554"/>
<polygon fill="midnightblue" stroke="midnightblue" points="362.119,-29.6405 358.206,-19.7947 355.125,-29.9316 362.119,-29.6405"/>
</g>
<!-- Node22 -->
<g id="node22" class="node"><title>Node22</title>
<polygon fill="white" stroke="#bfbfbf" points="912.5,-0.5 912.5,-19.5 956.5,-19.5 956.5,-0.5 912.5,-0.5"/>
<text text-anchor="middle" x="934.5" y="-7.5" font-family="Helvetica,sans-Serif" font-size="10.00">vector</text>
</g>
<!-- Node2&#45;&gt;Node22 -->
<g id="edge21" class="edge"><title>Node2&#45;&gt;Node22</title>
<path fill="none" stroke="midnightblue" d="M852.41,-112.343C861.356,-103.501 875.37,-89.2305 886.5,-76 899.707,-60.3001 913.49,-41.3244 922.88,-27.9398"/>
<polygon fill="midnightblue" stroke="midnightblue" points="925.79,-29.8861 928.618,-19.6758 920.04,-25.8936 925.79,-29.8861"/>
</g>
<!-- Node23 -->
<g id="node23" class="node"><title>Node23</title>
<polygon fill="white" stroke="#bfbfbf" points="934,-56.5 934,-75.5 975,-75.5 975,-56.5 934,-56.5"/>
<text text-anchor="middle" x="954.5" y="-63.5" font-family="Helvetica,sans-Serif" font-size="10.00">stack</text>
</g>
<!-- Node2&#45;&gt;Node23 -->
<g id="edge22" class="edge"><title>Node2&#45;&gt;Node23</title>
<path fill="none" stroke="midnightblue" d="M861.334,-112.324C879.216,-103.625 906.975,-90.1202 927.546,-80.113"/>
<polygon fill="midnightblue" stroke="midnightblue" points="929.249,-83.1765 936.71,-75.6545 926.187,-76.8819 929.249,-83.1765"/>
</g>
<!-- Node24 -->
<g id="node24" class="node"><title>Node24</title>
<polygon fill="white" stroke="#bfbfbf" points="993,-56.5 993,-75.5 1036,-75.5 1036,-56.5 993,-56.5"/>
<text text-anchor="middle" x="1014.5" y="-63.5" font-family="Helvetica,sans-Serif" font-size="10.00">deque</text>
</g>
<!-- Node2&#45;&gt;Node24 -->
<g id="edge23" class="edge"><title>Node2&#45;&gt;Node24</title>
<path fill="none" stroke="midnightblue" d="M870.595,-112.444C901.187,-102.783 950.888,-87.088 983.135,-76.9046"/>
<polygon fill="midnightblue" stroke="midnightblue" points="984.464,-80.1556 992.946,-73.8067 982.356,-73.4805 984.464,-80.1556"/>
</g>
<!-- Node25 -->
<g id="node25" class="node"><title>Node25</title>
<polygon fill="white" stroke="#bfbfbf" points="1004.5,-0.5 1004.5,-19.5 1048.5,-19.5 1048.5,-0.5 1004.5,-0.5"/>
<text text-anchor="middle" x="1026.5" y="-7.5" font-family="Helvetica,sans-Serif" font-size="10.00">mutex</text>
</g>
<!-- Node2&#45;&gt;Node25 -->
<g id="edge24" class="edge"><title>Node2&#45;&gt;Node25</title>
<path fill="none" stroke="midnightblue" d="M905.092,-115.556C957.596,-109.488 1027.23,-97.5618 1044.5,-76 1055.55,-62.2049 1047.31,-42.0812 1038.69,-27.8871"/>
<polygon fill="midnightblue" stroke="midnightblue" points="1041.6,-25.9497 1033.17,-19.5419 1035.77,-29.8128 1041.6,-25.9497"/>
</g>
<!-- Node26 -->
<g id="node26" class="node"><title>Node26</title>
<polygon fill="white" stroke="#bfbfbf" points="1066.5,-0.5 1066.5,-19.5 1110.5,-19.5 1110.5,-0.5 1066.5,-0.5"/>
<text text-anchor="middle" x="1088.5" y="-7.5" font-family="Helvetica,sans-Serif" font-size="10.00">thread</text>
</g>
<!-- Node2&#45;&gt;Node26 -->
<g id="edge25" class="edge"><title>Node2&#45;&gt;Node26</title>
<path fill="none" stroke="midnightblue" d="M905.064,-114.748C960.927,-107.946 1038.04,-95.3795 1061.5,-76 1075.46,-64.4666 1082.31,-44.4993 1085.6,-29.7304"/>
<polygon fill="midnightblue" stroke="midnightblue" points="1089.08,-30.1486 1087.48,-19.6756 1082.2,-28.8617 1089.08,-30.1486"/>
</g>
<!-- Node27 -->
<g id="node27" class="node"><title>Node27</title>
<polygon fill="white" stroke="#bfbfbf" points="1175,-0.5 1175,-19.5 1270,-19.5 1270,-0.5 1175,-0.5"/>
<text text-anchor="middle" x="1222.5" y="-7.5" font-family="Helvetica,sans-Serif" font-size="10.00">condition_variable</text>
</g>
<!-- Node2&#45;&gt;Node27 -->
<g id="edge26" class="edge"><title>Node2&#45;&gt;Node27</title>
<path fill="none" stroke="midnightblue" d="M905.259,-118.717C1014.51,-114.039 1232.56,-101.579 1255.5,-76 1268.47,-61.5309 1254.01,-41.0319 1240.36,-26.9435"/>
<polygon fill="midnightblue" stroke="midnightblue" points="1242.65,-24.2955 1233.03,-19.8551 1237.78,-29.3251 1242.65,-24.2955"/>
</g>
<!-- Node28 -->
<g id="node28" class="node"><title>Node28</title>
<polygon fill="white" stroke="#bfbfbf" points="1288,-0.5 1288,-19.5 1331,-19.5 1331,-0.5 1288,-0.5"/>
<text text-anchor="middle" x="1309.5" y="-7.5" font-family="Helvetica,sans-Serif" font-size="10.00">queue</text>
</g>
<!-- Node2&#45;&gt;Node28 -->
<g id="edge27" class="edge"><title>Node2&#45;&gt;Node28</title>
<path fill="none" stroke="midnightblue" d="M905.149,-121.227C1008.79,-120.522 1212.42,-114.143 1271.5,-76 1288.11,-65.2746 1298.36,-44.5265 1303.97,-29.3469"/>
<polygon fill="midnightblue" stroke="midnightblue" points="1307.41,-30.0945 1307.25,-19.5009 1300.77,-27.8793 1307.41,-30.0945"/>
</g>
<!-- Node29 -->
<g id="node29" class="node"><title>Node29</title>
<polygon fill="white" stroke="#bfbfbf" points="1420,-0.5 1420,-19.5 1455,-19.5 1455,-0.5 1420,-0.5"/>
<text text-anchor="middle" x="1437.5" y="-7.5" font-family="Helvetica,sans-Serif" font-size="10.00">map</text>
</g>
<!-- Node2&#45;&gt;Node29 -->
<g id="edge28" class="edge"><title>Node2&#45;&gt;Node29</title>
<path fill="none" stroke="midnightblue" d="M905.098,-119.842C1044.2,-116.703 1373.68,-106.143 1413.5,-76 1427.72,-65.2389 1433.52,-45.1496 1435.88,-30.1411"/>
<polygon fill="midnightblue" stroke="midnightblue" points="1439.39,-30.2367 1437.1,-19.893 1432.44,-29.409 1439.39,-30.2367"/>
</g>
<!-- Node30 -->
<g id="node30" class="node"><title>Node30</title>
<g id="a_node30"><a xlink:href="cosmos-defs_8h.html" target="_top" xlink:title="COSMOS definitions Definitions specific to the COSMOS environement. ">
<polygon fill="white" stroke="black" points="1130.5,-56.5 1130.5,-75.5 1246.5,-75.5 1246.5,-56.5 1130.5,-56.5"/>
<text text-anchor="middle" x="1188.5" y="-63.5" font-family="Helvetica,sans-Serif" font-size="10.00">support/cosmos&#45;defs.h</text>
</a>
</g>
</g>
<!-- Node2&#45;&gt;Node30 -->
<g id="edge29" class="edge"><title>Node2&#45;&gt;Node30</title>
<path fill="none" stroke="midnightblue" d="M898.166,-112.444C959.486,-102.846 1058.86,-87.2916 1123.95,-77.1037"/>
<polygon fill="midnightblue" stroke="midnightblue" points="1124.75,-80.5208 1134.09,-75.5164 1123.67,-73.605 1124.75,-80.5208"/>
</g>
<!-- Node32 -->
<g id="node32" class="node"><title>Node32</title>
<g id="a_node32"><a xlink:href="json11_8hpp.html" target="_top" xlink:title="json11.hpp">
<polygon fill="white" stroke="black" points="1340.5,-56.5 1340.5,-75.5 1404.5,-75.5 1404.5,-56.5 1340.5,-56.5"/>
<text text-anchor="middle" x="1372.5" y="-63.5" font-family="Helvetica,sans-Serif" font-size="10.00">json11.hpp</text>
</a>
</g>
</g>
<!-- Node2&#45;&gt;Node32 -->
<g id="edge37" class="edge"><title>Node2&#45;&gt;Node32</title>
<path fill="none" stroke="midnightblue" d="M905.11,-117.247C997.142,-111.192 1175.83,-97.7021 1326.5,-76 1327.77,-75.8173 1329.06,-75.623 1330.35,-75.4192"/>
<polygon fill="midnightblue" stroke="midnightblue" points="1331.13,-78.8373 1340.4,-73.7068 1329.95,-71.9369 1331.13,-78.8373"/>
</g>
<!-- Node30&#45;&gt;Node22 -->
<g id="edge31" class="edge"><title>Node30&#45;&gt;Node22</title>
<path fill="none" stroke="midnightblue" d="M1148.25,-56.4435C1098.03,-45.7661 1013.13,-27.7174 966.889,-17.8859"/>
<polygon fill="midnightblue" stroke="midnightblue" points="967.33,-14.4015 956.821,-15.7454 965.874,-21.2484 967.33,-14.4015"/>
</g>
<!-- Node30&#45;&gt;Node25 -->
<g id="edge35" class="edge"><title>Node30&#45;&gt;Node25</title>
<path fill="none" stroke="midnightblue" d="M1162.83,-56.4435C1134.54,-47.0118 1088.98,-31.8282 1058.41,-21.6375"/>
<polygon fill="midnightblue" stroke="midnightblue" points="1059.26,-18.2304 1048.67,-18.3884 1057.05,-24.8711 1059.26,-18.2304"/>
</g>
<!-- Node30&#45;&gt;Node26 -->
<g id="edge34" class="edge"><title>Node30&#45;&gt;Node26</title>
<path fill="none" stroke="midnightblue" d="M1172.43,-56.324C1156.54,-47.7428 1131.99,-34.486 1113.54,-24.5224"/>
<polygon fill="midnightblue" stroke="midnightblue" points="1114.99,-21.3264 1104.53,-19.6545 1111.66,-27.4857 1114.99,-21.3264"/>
</g>
<!-- Node30&#45;&gt;Node27 -->
<g id="edge36" class="edge"><title>Node30&#45;&gt;Node27</title>
<path fill="none" stroke="midnightblue" d="M1194.11,-56.083C1198.87,-48.5341 1205.82,-37.4948 1211.65,-28.2298"/>
<polygon fill="midnightblue" stroke="midnightblue" points="1214.62,-30.0783 1216.99,-19.7511 1208.7,-26.3486 1214.62,-30.0783"/>
</g>
<!-- Node30&#45;&gt;Node28 -->
<g id="edge33" class="edge"><title>Node30&#45;&gt;Node28</title>
<path fill="none" stroke="midnightblue" d="M1207.67,-56.4435C1227.41,-47.6356 1258.39,-33.8116 1280.99,-23.722"/>
<polygon fill="midnightblue" stroke="midnightblue" points="1282.71,-26.788 1290.42,-19.5164 1279.86,-20.3957 1282.71,-26.788"/>
</g>
<!-- Node30&#45;&gt;Node29 -->
<g id="edge30" class="edge"><title>Node30&#45;&gt;Node29</title>
<path fill="none" stroke="midnightblue" d="M1239.61,-56.4661C1282.66,-48.8663 1346,-36.7264 1410.01,-19.8533"/>
<polygon fill="midnightblue" stroke="midnightblue" points="1411.12,-23.1812 1419.87,-17.2174 1409.31,-16.4187 1411.12,-23.1812"/>
</g>
<!-- Node31 -->
<g id="node31" class="node"><title>Node31</title>
<polygon fill="white" stroke="#bfbfbf" points="1128,-0.5 1128,-19.5 1157,-19.5 1157,-0.5 1128,-0.5"/>
<text text-anchor="middle" x="1142.5" y="-7.5" font-family="Helvetica,sans-Serif" font-size="10.00">list</text>
</g>
<!-- Node30&#45;&gt;Node31 -->
<g id="edge32" class="edge"><title>Node30&#45;&gt;Node31</title>
<path fill="none" stroke="midnightblue" d="M1180.9,-56.083C1174.27,-48.2982 1164.48,-36.8015 1156.44,-27.3665"/>
<polygon fill="midnightblue" stroke="midnightblue" points="1159.1,-25.0939 1149.95,-19.7511 1153.77,-29.6332 1159.1,-25.0939"/>
</g>
<!-- Node32&#45;&gt;Node21 -->
<g id="edge38" class="edge"><title>Node32&#45;&gt;Node21</title>
<path fill="none" stroke="midnightblue" d="M1340.24,-62.2858C1316.75,-60.3666 1284.17,-57.8214 1255.5,-56 915.939,-34.4264 503.526,-16.9356 389.169,-12.2419"/>
<polygon fill="midnightblue" stroke="midnightblue" points="389.18,-8.7395 379.045,-11.8279 388.894,-15.7337 389.18,-8.7395"/>
</g>
<!-- Node32&#45;&gt;Node22 -->
<g id="edge39" class="edge"><title>Node32&#45;&gt;Node22</title>
<path fill="none" stroke="midnightblue" d="M1340.44,-61.476C1275.35,-54.2551 1123.07,-37.0212 995.5,-20 986.094,-18.7451 975.889,-17.2801 966.565,-15.9011"/>
<polygon fill="midnightblue" stroke="midnightblue" points="966.91,-12.4139 956.502,-14.3965 965.875,-19.3369 966.91,-12.4139"/>
</g>
<!-- Node32&#45;&gt;Node29 -->
<g id="edge40" class="edge"><title>Node32&#45;&gt;Node29</title>
<path fill="none" stroke="midnightblue" d="M1382.94,-56.324C1392.65,-48.2631 1407.32,-36.0765 1419,-26.3695"/>
<polygon fill="midnightblue" stroke="midnightblue" points="1421.41,-28.9163 1426.87,-19.8339 1416.94,-23.532 1421.41,-28.9163"/>
</g>
<!-- Node33 -->
<g id="node33" class="node"><title>Node33</title>
<polygon fill="white" stroke="#bfbfbf" points="1349.5,-0.5 1349.5,-19.5 1401.5,-19.5 1401.5,-0.5 1349.5,-0.5"/>
<text text-anchor="middle" x="1375.5" y="-7.5" font-family="Helvetica,sans-Serif" font-size="10.00">memory</text>
</g>
<!-- Node32&#45;&gt;Node33 -->
<g id="edge41" class="edge"><title>Node32&#45;&gt;Node33</title>
<path fill="none" stroke="midnightblue" d="M1373,-56.083C1373.39,-49.0059 1373.95,-38.8611 1374.45,-29.9865"/>
<polygon fill="midnightblue" stroke="midnightblue" points="1377.95,-29.9299 1375.01,-19.7511 1370.96,-29.5415 1377.95,-29.9299"/>
</g>
<!-- Node34 -->
<g id="node34" class="node"><title>Node34</title>
<polygon fill="white" stroke="#bfbfbf" points="1473,-0.5 1473,-19.5 1546,-19.5 1546,-0.5 1473,-0.5"/>
<text text-anchor="middle" x="1509.5" y="-7.5" font-family="Helvetica,sans-Serif" font-size="10.00">initializer_list</text>
</g>
<!-- Node32&#45;&gt;Node34 -->
<g id="edge42" class="edge"><title>Node32&#45;&gt;Node34</title>
<path fill="none" stroke="midnightblue" d="M1394.21,-56.4435C1416.85,-47.5171 1452.57,-33.4387 1478.25,-23.3168"/>
<polygon fill="midnightblue" stroke="midnightblue" points="1479.87,-26.4397 1487.89,-19.5164 1477.31,-19.9273 1479.87,-26.4397"/>
</g>
<!-- Node35&#45;&gt;Node2 -->
<g id="edge44" class="edge"><title>Node35&#45;&gt;Node2</title>
<path fill="none" stroke="midnightblue" d="M113.099,-173.116C253.236,-163.501 616.214,-138.595 771.405,-127.947"/>
<polygon fill="midnightblue" stroke="midnightblue" points="772.032,-131.412 781.769,-127.236 771.552,-124.429 772.032,-131.412"/>
</g>
<!-- Node35&#45;&gt;Node14 -->
<g id="edge45" class="edge"><title>Node35&#45;&gt;Node14</title>
<path fill="none" stroke="midnightblue" d="M49.5365,-168.375C39.883,-155.298 24.8665,-130.067 36.5,-112 50.1501,-90.8013 76.5002,-79.4738 98.5851,-73.4874"/>
<polygon fill="midnightblue" stroke="midnightblue" points="99.4876,-76.87 108.371,-71.0965 97.8262,-70.07 99.4876,-76.87"/>
</g>
<!-- Node35&#45;&gt;Node21 -->
<g id="edge46" class="edge"><title>Node35&#45;&gt;Node21</title>
<path fill="none" stroke="midnightblue" d="M48.0105,-168.477C36.6133,-155.951 18.8504,-131.901 28.5,-112 46.0347,-75.8373 62.8021,-72.3852 99.5,-56 176.567,-21.5902 277.447,-13.4119 327.518,-11.523"/>
<polygon fill="midnightblue" stroke="midnightblue" points="327.806,-15.0157 337.69,-11.2009 327.585,-8.0192 327.806,-15.0157"/>
</g>
<!-- Node35&#45;&gt;Node36 -->
<g id="edge47" class="edge"><title>Node35&#45;&gt;Node36</title>
<path fill="none" stroke="midnightblue" d="M68.3894,-168.324C79.6502,-160.107 96.7866,-147.602 110.209,-137.807"/>
<polygon fill="midnightblue" stroke="midnightblue" points="112.38,-140.556 118.394,-131.834 108.253,-134.901 112.38,-140.556"/>
</g>
<!-- Node37 -->
<g id="node37" class="node"><title>Node37</title>
<polygon fill="white" stroke="#bfbfbf" points="45.5,-112.5 45.5,-131.5 91.5,-131.5 91.5,-112.5 45.5,-112.5"/>
<text text-anchor="middle" x="68.5" y="-119.5" font-family="Helvetica,sans-Serif" font-size="10.00">chrono</text>
</g>
<!-- Node35&#45;&gt;Node37 -->
<g id="edge48" class="edge"><title>Node35&#45;&gt;Node37</title>
<path fill="none" stroke="midnightblue" d="M58.4816,-168.083C60.0717,-160.927 62.3588,-150.635 64.3464,-141.691"/>
<polygon fill="midnightblue" stroke="midnightblue" points="67.8026,-142.272 66.5553,-131.751 60.9693,-140.754 67.8026,-142.272"/>
</g>
<!-- Node38&#45;&gt;Node2 -->
<g id="edge50" class="edge"><title>Node38&#45;&gt;Node2</title>
<path fill="none" stroke="midnightblue" d="M547.807,-392.231C561.909,-374.385 591.5,-332.047 591.5,-291 591.5,-291 591.5,-291 591.5,-233 591.5,-202.356 591.308,-188.03 614.5,-168 637.714,-147.951 713.574,-135.876 771.685,-129.357"/>
<polygon fill="midnightblue" stroke="midnightblue" points="772.382,-132.802 781.945,-128.242 771.625,-125.843 772.382,-132.802"/>
</g>
<!-- Node38&#45;&gt;Node12 -->
<g id="edge71" class="edge"><title>Node38&#45;&gt;Node12</title>
<path fill="none" stroke="midnightblue" d="M499.969,-394.104C421.286,-379.561 255.5,-342.777 255.5,-291 255.5,-291 255.5,-291 255.5,-233 255.5,-178.175 252.046,-162.83 231.5,-112 227.502,-102.108 221.258,-92.0388 215.586,-83.9405"/>
<polygon fill="midnightblue" stroke="midnightblue" points="218.314,-81.7414 209.576,-75.7491 212.67,-85.8823 218.314,-81.7414"/>
</g>
<!-- Node38&#45;&gt;Node14 -->
<g id="edge72" class="edge"><title>Node38&#45;&gt;Node14</title>
<path fill="none" stroke="midnightblue" d="M499.727,-401.453C449.398,-400.281 362.724,-392.484 299.5,-356 225.146,-313.093 164.839,-122.445 159.5,-112 154.859,-102.92 149.536,-92.9019 145.084,-84.6276"/>
<polygon fill="midnightblue" stroke="midnightblue" points="148.027,-82.7107 140.191,-75.58 141.87,-86.041 148.027,-82.7107"/>
</g>
<!-- Node39 -->
<g id="node39" class="node"><title>Node39</title>
<g id="a_node39"><a xlink:href="cosmos-errno_8h.html" target="_top" xlink:title="COSMOS Error Codes. ">
<polygon fill="white" stroke="black" points="658,-336.5 658,-355.5 777,-355.5 777,-336.5 658,-336.5"/>
<text text-anchor="middle" x="717.5" y="-343.5" font-family="Helvetica,sans-Serif" font-size="10.00">support/cosmos&#45;errno.h</text>
</a>
</g>
</g>
<!-- Node38&#45;&gt;Node39 -->
<g id="edge51" class="edge"><title>Node38&#45;&gt;Node39</title>
<path fill="none" stroke="midnightblue" d="M568.546,-392.444C598.582,-383.28 646.413,-368.688 679.743,-358.519"/>
<polygon fill="midnightblue" stroke="midnightblue" points="681.042,-361.782 689.585,-355.516 678.999,-355.087 681.042,-361.782"/>
</g>
<!-- Node41 -->
<g id="node41" class="node"><title>Node41</title>
<g id="a_node41"><a xlink:href="math_2constants_8h.html" target="_top" xlink:title="constants.h">
<polygon fill="white" stroke="black" points="623.5,-168.5 623.5,-187.5 691.5,-187.5 691.5,-168.5 623.5,-168.5"/>
<text text-anchor="middle" x="657.5" y="-175.5" font-family="Helvetica,sans-Serif" font-size="10.00">constants.h</text>
</a>
</g>
</g>
<!-- Node38&#45;&gt;Node41 -->
<g id="edge54" class="edge"><title>Node38&#45;&gt;Node41</title>
<path fill="none" stroke="midnightblue" d="M559.392,-392.369C574.008,-384.766 593.687,-372.356 605.5,-356 641.386,-306.313 652.678,-232.004 656.092,-197.649"/>
<polygon fill="midnightblue" stroke="midnightblue" points="659.584,-197.891 656.972,-187.623 652.611,-197.278 659.584,-197.891"/>
</g>
<!-- Node42 -->
<g id="node42" class="node"><title>Node42</title>
<g id="a_node42"><a xlink:href="vector_8h.html" target="_top" xlink:title="vector.h">
<polygon fill="white" stroke="black" points="381.5,-224.5 381.5,-243.5 433.5,-243.5 433.5,-224.5 381.5,-224.5"/>
<text text-anchor="middle" x="407.5" y="-231.5" font-family="Helvetica,sans-Serif" font-size="10.00">vector.h</text>
</a>
</g>
</g>
<!-- Node38&#45;&gt;Node42 -->
<g id="edge57" class="edge"><title>Node38&#45;&gt;Node42</title>
<path fill="none" stroke="midnightblue" d="M506.82,-392.496C486.457,-385.737 461.438,-374.306 445.5,-356 419.807,-326.49 411.474,-279.645 408.779,-253.751"/>
<polygon fill="midnightblue" stroke="midnightblue" points="412.264,-253.417 407.916,-243.756 405.29,-254.02 412.264,-253.417"/>
</g>
<!-- Node43 -->
<g id="node43" class="node"><title>Node43</title>
<g id="a_node43"><a xlink:href="matrix_8h.html" target="_top" xlink:title="matrix.h">
<polygon fill="white" stroke="black" points="511.5,-280.5 511.5,-299.5 563.5,-299.5 563.5,-280.5 511.5,-280.5"/>
<text text-anchor="middle" x="537.5" y="-287.5" font-family="Helvetica,sans-Serif" font-size="10.00">matrix.h</text>
</a>
</g>
</g>
<!-- Node38&#45;&gt;Node43 -->
<g id="edge64" class="edge"><title>Node38&#45;&gt;Node43</title>
<path fill="none" stroke="midnightblue" d="M540.265,-392.368C539.78,-374.617 538.664,-333.666 538.007,-309.597"/>
<polygon fill="midnightblue" stroke="midnightblue" points="541.506,-309.492 537.734,-299.591 534.508,-309.683 541.506,-309.492"/>
</g>
<!-- Node44 -->
<g id="node44" class="node"><title>Node44</title>
<g id="a_node44"><a xlink:href="rotation_8h.html" target="_top" xlink:title="rotation.h">
<polygon fill="white" stroke="black" points="455,-336.5 455,-355.5 512,-355.5 512,-336.5 455,-336.5"/>
<text text-anchor="middle" x="483.5" y="-343.5" font-family="Helvetica,sans-Serif" font-size="10.00">rotation.h</text>
</a>
</g>
</g>
<!-- Node38&#45;&gt;Node44 -->
<g id="edge67" class="edge"><title>Node38&#45;&gt;Node44</title>
<path fill="none" stroke="midnightblue" d="M531.342,-392.324C522.999,-384.42 510.468,-372.548 500.323,-362.938"/>
<polygon fill="midnightblue" stroke="midnightblue" points="502.491,-360.171 492.825,-355.834 497.677,-365.252 502.491,-360.171"/>
</g>
<!-- Node39&#45;&gt;Node2 -->
<g id="edge52" class="edge"><title>Node39&#45;&gt;Node2</title>
<path fill="none" stroke="midnightblue" d="M722.35,-336.146C729.226,-323.615 742.227,-300.004 753.5,-280 782.06,-229.317 816.391,-169.814 833.202,-140.766"/>
<polygon fill="midnightblue" stroke="midnightblue" points="836.397,-142.234 838.38,-131.827 830.339,-138.726 836.397,-142.234"/>
</g>
<!-- Node39&#45;&gt;Node40 -->
<g id="edge53" class="edge"><title>Node39&#45;&gt;Node40</title>
<path fill="none" stroke="midnightblue" d="M728.586,-336.324C738.986,-328.185 754.761,-315.839 767.222,-306.087"/>
<polygon fill="midnightblue" stroke="midnightblue" points="769.494,-308.753 775.212,-299.834 765.18,-303.241 769.494,-308.753"/>
</g>
<!-- Node41&#45;&gt;Node2 -->
<g id="edge55" class="edge"><title>Node41&#45;&gt;Node2</title>
<path fill="none" stroke="midnightblue" d="M686.972,-168.444C718.671,-159.241 769.232,-144.562 804.275,-134.388"/>
<polygon fill="midnightblue" stroke="midnightblue" points="805.538,-137.666 814.166,-131.516 803.586,-130.943 805.538,-137.666"/>
</g>
<!-- Node41&#45;&gt;Node5 -->
<g id="edge56" class="edge"><title>Node41&#45;&gt;Node5</title>
<path fill="none" stroke="midnightblue" d="M691.862,-176.454C833.637,-173.708 1386.81,-158.136 1845.07,-75.9341"/>
<polygon fill="midnightblue" stroke="midnightblue" points="1845.98,-79.3264 1855.2,-74.1036 1844.74,-72.438 1845.98,-79.3264"/>
</g>
<!-- Node42&#45;&gt;Node2 -->
<g id="edge58" class="edge"><title>Node42&#45;&gt;Node2</title>
<path fill="none" stroke="midnightblue" d="M412.751,-224.457C422.137,-210.031 443.286,-181.131 469.5,-168 520.929,-142.238 678.265,-130.633 771.682,-125.893"/>
<polygon fill="midnightblue" stroke="midnightblue" points="772.094,-129.377 781.909,-125.389 771.749,-122.386 772.094,-129.377"/>
</g>
<!-- Node42&#45;&gt;Node12 -->
<g id="edge62" class="edge"><title>Node42&#45;&gt;Node12</title>
<path fill="none" stroke="midnightblue" d="M395.455,-224.228C384.298,-215.741 367.645,-202.12 355.5,-188 329.447,-157.713 337.896,-137.925 307.5,-112 286.301,-93.9194 256.749,-82.1313 234.395,-75.1744"/>
<polygon fill="midnightblue" stroke="midnightblue" points="235.268,-71.783 224.686,-72.3127 233.289,-78.4974 235.268,-71.783"/>
</g>
<!-- Node42&#45;&gt;Node14 -->
<g id="edge60" class="edge"><title>Node42&#45;&gt;Node14</title>
<path fill="none" stroke="midnightblue" d="M393.259,-224.309C348.827,-197.192 212.48,-113.98 158.169,-80.8345"/>
<polygon fill="midnightblue" stroke="midnightblue" points="159.959,-77.827 149.6,-75.6051 156.313,-83.8022 159.959,-77.827"/>
</g>
<!-- Node42&#45;&gt;Node17 -->
<g id="edge61" class="edge"><title>Node42&#45;&gt;Node17</title>
<path fill="none" stroke="midnightblue" d="M408.081,-224.447C409.077,-203.264 408.944,-147.515 383.5,-112 372.869,-97.1605 355.708,-86.4962 340.187,-79.2856"/>
<polygon fill="midnightblue" stroke="midnightblue" points="341.375,-75.9865 330.807,-75.2358 338.601,-82.4131 341.375,-75.9865"/>
</g>
<!-- Node42&#45;&gt;Node22 -->
<g id="edge63" class="edge"><title>Node42&#45;&gt;Node22</title>
<path fill="none" stroke="midnightblue" d="M403.747,-224.455C394.124,-203.29 366.755,-147.577 330.5,-112 304.696,-86.678 246.816,-82.4156 271.5,-56 314.887,-9.5685 774.696,-9.72733 901.996,-10.6731"/>
<polygon fill="midnightblue" stroke="midnightblue" points="902.232,-14.1751 912.261,-10.7567 902.289,-7.1753 902.232,-14.1751"/>
</g>
<!-- Node42&#45;&gt;Node41 -->
<g id="edge59" class="edge"><title>Node42&#45;&gt;Node41</title>
<path fill="none" stroke="midnightblue" d="M433.782,-227.323C476.445,-218.108 561.23,-199.794 613.295,-188.548"/>
<polygon fill="midnightblue" stroke="midnightblue" points="614.214,-191.931 623.249,-186.398 612.736,-185.088 614.214,-191.931"/>
</g>
<!-- Node43&#45;&gt;Node2 -->
<g id="edge65" class="edge"><title>Node43&#45;&gt;Node2</title>
<path fill="none" stroke="midnightblue" d="M537.525,-280.354C538.092,-257.949 542.923,-197.694 577.5,-168 605.932,-143.584 702.768,-132.108 771.373,-126.936"/>
<polygon fill="midnightblue" stroke="midnightblue" points="771.981,-130.402 781.702,-126.189 771.475,-123.42 771.981,-130.402"/>
</g>
<!-- Node43&#45;&gt;Node42 -->
<g id="edge66" class="edge"><title>Node43&#45;&gt;Node42</title>
<path fill="none" stroke="midnightblue" d="M516.901,-280.444C495.507,-271.557 461.819,-257.563 437.476,-247.451"/>
<polygon fill="midnightblue" stroke="midnightblue" points="438.58,-244.12 428.003,-243.516 435.895,-250.585 438.58,-244.12"/>
</g>
<!-- Node44&#45;&gt;Node2 -->
<g id="edge68" class="edge"><title>Node44&#45;&gt;Node2</title>
<path fill="none" stroke="midnightblue" d="M484.2,-336.095C487.054,-306.42 500.6,-210.382 558.5,-168 591.555,-143.804 698.706,-132.157 771.781,-126.9"/>
<polygon fill="midnightblue" stroke="midnightblue" points="772.122,-130.385 781.855,-126.201 771.636,-123.402 772.122,-130.385"/>
</g>
<!-- Node44&#45;&gt;Node42 -->
<g id="edge69" class="edge"><title>Node44&#45;&gt;Node42</title>
<path fill="none" stroke="midnightblue" d="M477.536,-336.368C464.994,-318.215 435.69,-275.802 419.239,-251.99"/>
<polygon fill="midnightblue" stroke="midnightblue" points="422,-249.829 413.436,-243.591 416.241,-253.808 422,-249.829"/>
</g>
<!-- Node44&#45;&gt;Node43 -->
<g id="edge70" class="edge"><title>Node44&#45;&gt;Node43</title>
<path fill="none" stroke="midnightblue" d="M492.417,-336.083C500.28,-328.22 511.931,-316.569 521.419,-307.081"/>
<polygon fill="midnightblue" stroke="midnightblue" points="524.153,-309.297 528.749,-299.751 519.203,-304.347 524.153,-309.297"/>
</g>
</g>
</svg>
