<?xml version="1.0" encoding="UTF-8" standalone="no"?>
<!DOCTYPE svg PUBLIC "-//W3C//DTD SVG 1.1//EN"
 "http://www.w3.org/Graphics/SVG/1.1/DTD/svg11.dtd">
<!-- Generated by graphviz version 2.38.0 (20140413.2041)
 -->
<!-- Title: ts2000_lib.h Pages: 1 -->
<!--zoomable 487 -->
<svg id="main" version="1.1" xmlns="http://www.w3.org/2000/svg" xmlns:xlink="http://www.w3.org/1999/xlink" xml:space="preserve" onload="init(evt)">
<style type="text/css"><![CDATA[
.edge:hover path { stroke: red; }
.edge:hover polygon { stroke: red; fill: red; }
]]></style>
<script type="text/javascript"><![CDATA[
var edges = document.getElementsByTagName('g');
if (edges && edges.length) {
  for (var i=0;i<edges.length;i++) {
    if (edges[i].id.substr(0,4)=='edge') {
      edges[i].setAttribute('class','edge');
    }
  }
}
]]></script>
        <defs>
                <circle id="rim" cx="0" cy="0" r="7"/>
                <circle id="rim2" cx="0" cy="0" r="3.5"/>
                <g id="zoomPlus">
                        <use xlink:href="#rim" fill="#404040">
                                <set attributeName="fill" to="#808080" begin="zoomplus.mouseover" end="zoomplus.mouseout"/>
                        </use>
                        <path d="M-4,0h8M0,-4v8" fill="none" stroke="white" stroke-width="1.5" pointer-events="none"/>
                </g>
                <g id="zoomMin">
                        <use xlink:href="#rim" fill="#404040">
                                <set attributeName="fill" to="#808080" begin="zoomminus.mouseover" end="zoomminus.mouseout"/>
                        </use>
                        <path d="M-4,0h8" fill="none" stroke="white" stroke-width="1.5" pointer-events="none"/>
                </g>
                <g id="dirArrow">
                        <path fill="none" stroke="white" stroke-width="1.5" d="M0,-3.0v7 M-2.5,-0.5L0,-3.0L2.5,-0.5"/>
                </g>
               <g id="resetDef">
                       <use xlink:href="#rim2" fill="#404040">
                               <set attributeName="fill" to="#808080" begin="reset.mouseover" end="reset.mouseout"/>
                       </use>
               </g>
        </defs>

<script type="text/javascript">
var viewWidth = 1801;
var viewHeight = 487;
var sectionId = 'dynsection-0';
</script>
<script xlink:href="svgpan.js"/>
<svg id="graph" class="graph">
<g id="viewport">
<title>ts2000_lib.h</title>
<polygon fill="white" stroke="none" points="-4,4 -4,-483 1797,-483 1797,4 -4,4"/>
<!-- Node1 -->
<g id="node1" class="node"><title>Node1</title>
<polygon fill="#bfbfbf" stroke="black" points="1049.5,-459.5 1049.5,-478.5 1118.5,-478.5 1118.5,-459.5 1049.5,-459.5"/>
<text text-anchor="middle" x="1084" y="-466.5" font-family="Helvetica,sans-Serif" font-size="10.00">ts2000_lib.h</text>
</g>
<!-- Node2 -->
<g id="node2" class="node"><title>Node2</title>
<g id="a_node2"><a xlink:href="config_cosmos_8h.html" target="_top" xlink:title="Headers and definitions common to all COSMOS. ">
<polygon fill="white" stroke="black" points="939.5,-112.5 939.5,-131.5 1062.5,-131.5 1062.5,-112.5 939.5,-112.5"/>
<text text-anchor="middle" x="1001" y="-119.5" font-family="Helvetica,sans-Serif" font-size="10.00">support/configCosmos.h</text>
</a>
</g>
</g>
<!-- Node1&#45;&gt;Node2 -->
<g id="edge1" class="edge"><title>Node1&#45;&gt;Node2</title>
<path fill="none" stroke="midnightblue" d="M1103.28,-459.488C1137.2,-443.051 1204,-403.509 1204,-347 1204,-347 1204,-347 1204,-233 1204,-171.519 1131.13,-144.223 1072.71,-132.219"/>
<polygon fill="midnightblue" stroke="midnightblue" points="1073.22,-128.752 1062.73,-130.285 1071.88,-135.624 1073.22,-128.752"/>
</g>
<!-- Node35 -->
<g id="node35" class="node"><title>Node35</title>
<polygon fill="white" stroke="#bfbfbf" points="988,-398 988,-417 1034,-417 1034,-398 988,-398"/>
<text text-anchor="middle" x="1011" y="-405" font-family="Helvetica,sans-Serif" font-size="10.00">stdio.h</text>
</g>
<!-- Node1&#45;&gt;Node35 -->
<g id="edge43" class="edge"><title>Node1&#45;&gt;Node35</title>
<path fill="none" stroke="midnightblue" d="M1073.54,-459.475C1062.05,-450.108 1043.37,-434.884 1029.41,-423.508"/>
<polygon fill="midnightblue" stroke="midnightblue" points="1031.4,-420.614 1021.44,-417.009 1026.98,-426.04 1031.4,-420.614"/>
</g>
<!-- Node36 -->
<g id="node36" class="node"><title>Node36</title>
<polygon fill="white" stroke="#bfbfbf" points="1023.5,-224.5 1023.5,-243.5 1070.5,-243.5 1070.5,-224.5 1023.5,-224.5"/>
<text text-anchor="middle" x="1047" y="-231.5" font-family="Helvetica,sans-Serif" font-size="10.00">errno.h</text>
</g>
<!-- Node1&#45;&gt;Node36 -->
<g id="edge44" class="edge"><title>Node1&#45;&gt;Node36</title>
<path fill="none" stroke="midnightblue" d="M1081.4,-459.366C1074.14,-434.76 1053.75,-362.053 1047,-300 1045.32,-284.555 1045.45,-266.924 1045.92,-253.924"/>
<polygon fill="midnightblue" stroke="midnightblue" points="1049.42,-254.017 1046.39,-243.864 1042.43,-253.689 1049.42,-254.017"/>
</g>
<!-- Node37 -->
<g id="node37" class="node"><title>Node37</title>
<g id="a_node37"><a xlink:href="mathlib_8h.html" target="_top" xlink:title="mathlib include file ">
<polygon fill="white" stroke="black" points="1372.5,-398 1372.5,-417 1453.5,-417 1453.5,-398 1372.5,-398"/>
<text text-anchor="middle" x="1413" y="-405" font-family="Helvetica,sans-Serif" font-size="10.00">math/mathlib.h</text>
</a>
</g>
</g>
<!-- Node1&#45;&gt;Node37 -->
<g id="edge45" class="edge"><title>Node1&#45;&gt;Node37</title>
<path fill="none" stroke="midnightblue" d="M1118.59,-461.745C1176.81,-451.216 1294.63,-429.908 1362.24,-417.68"/>
<polygon fill="midnightblue" stroke="midnightblue" points="1363.02,-421.096 1372.24,-415.872 1361.78,-414.207 1363.02,-421.096"/>
</g>
<!-- Node38 -->
<g id="node38" class="node"><title>Node38</title>
<g id="a_node38"><a xlink:href="cosmos-errno_8h.html" target="_top" xlink:title="COSMOS Error Codes. ">
<polygon fill="white" stroke="black" points="1056.5,-280.5 1056.5,-299.5 1175.5,-299.5 1175.5,-280.5 1056.5,-280.5"/>
<text text-anchor="middle" x="1116" y="-287.5" font-family="Helvetica,sans-Serif" font-size="10.00">support/cosmos&#45;errno.h</text>
</a>
</g>
</g>
<!-- Node1&#45;&gt;Node38 -->
<g id="edge75" class="edge"><title>Node1&#45;&gt;Node38</title>
<path fill="none" stroke="midnightblue" d="M1085.54,-459.463C1090.43,-432.428 1105.65,-348.239 1112.55,-310.109"/>
<polygon fill="midnightblue" stroke="midnightblue" points="1116.06,-310.332 1114.4,-299.868 1109.17,-309.086 1116.06,-310.332"/>
</g>
<!-- Node43 -->
<g id="node43" class="node"><title>Node43</title>
<g id="a_node43"><a xlink:href="cssl__lib_8h.html" target="_top" xlink:title="Simple Serial library header file. ">
<polygon fill="white" stroke="black" points="868.5,-392.5 868.5,-422.5 969.5,-422.5 969.5,-392.5 868.5,-392.5"/>
<text text-anchor="start" x="876.5" y="-410.5" font-family="Helvetica,sans-Serif" font-size="10.00">device/general/cssl</text>
<text text-anchor="middle" x="919" y="-399.5" font-family="Helvetica,sans-Serif" font-size="10.00">_lib.h</text>
</a>
</g>
</g>
<!-- Node1&#45;&gt;Node43 -->
<g id="edge69" class="edge"><title>Node1&#45;&gt;Node43</title>
<path fill="none" stroke="midnightblue" d="M1060.36,-459.475C1036.24,-450.776 998.107,-437.026 967.524,-425.998"/>
<polygon fill="midnightblue" stroke="midnightblue" points="968.482,-422.623 957.887,-422.523 966.107,-429.208 968.482,-422.623"/>
</g>
<!-- Node3 -->
<g id="node3" class="node"><title>Node3</title>
<polygon fill="white" stroke="#bfbfbf" points="536.5,-56.5 536.5,-75.5 581.5,-75.5 581.5,-56.5 536.5,-56.5"/>
<text text-anchor="middle" x="559" y="-63.5" font-family="Helvetica,sans-Serif" font-size="10.00">climits</text>
</g>
<!-- Node2&#45;&gt;Node3 -->
<g id="edge2" class="edge"><title>Node2&#45;&gt;Node3</title>
<path fill="none" stroke="midnightblue" d="M939.478,-114.603C834.523,-103.625 628.962,-81.8155 596,-76 594.535,-75.7416 593.042,-75.459 591.537,-75.1586"/>
<polygon fill="midnightblue" stroke="midnightblue" points="592.119,-71.7032 581.601,-72.983 590.621,-78.5411 592.119,-71.7032"/>
</g>
<!-- Node4 -->
<g id="node4" class="node"><title>Node4</title>
<polygon fill="white" stroke="#bfbfbf" points="471.5,-56.5 471.5,-75.5 518.5,-75.5 518.5,-56.5 471.5,-56.5"/>
<text text-anchor="middle" x="495" y="-63.5" font-family="Helvetica,sans-Serif" font-size="10.00">csignal</text>
</g>
<!-- Node2&#45;&gt;Node4 -->
<g id="edge3" class="edge"><title>Node2&#45;&gt;Node4</title>
<path fill="none" stroke="midnightblue" d="M939.327,-114.86C929.517,-113.895 919.481,-112.914 910,-112 743.058,-95.8989 696.837,-106.837 528.591,-76.0091"/>
<polygon fill="midnightblue" stroke="midnightblue" points="529.124,-72.5482 518.653,-74.166 527.847,-79.4309 529.124,-72.5482"/>
</g>
<!-- Node5 -->
<g id="node5" class="node"><title>Node5</title>
<polygon fill="white" stroke="#bfbfbf" points="1425,-56.5 1425,-75.5 1471,-75.5 1471,-56.5 1425,-56.5"/>
<text text-anchor="middle" x="1448" y="-63.5" font-family="Helvetica,sans-Serif" font-size="10.00">cstdint</text>
</g>
<!-- Node2&#45;&gt;Node5 -->
<g id="edge4" class="edge"><title>Node2&#45;&gt;Node5</title>
<path fill="none" stroke="midnightblue" d="M1062.82,-116.718C1143.39,-110.567 1288.46,-97.5354 1411,-76 1412.25,-75.7812 1413.51,-75.5448 1414.79,-75.2947"/>
<polygon fill="midnightblue" stroke="midnightblue" points="1415.57,-78.7058 1424.61,-73.1734 1414.09,-71.8636 1415.57,-78.7058"/>
</g>
<!-- Node6 -->
<g id="node6" class="node"><title>Node6</title>
<polygon fill="white" stroke="#bfbfbf" points="638,-56.5 638,-75.5 694,-75.5 694,-56.5 638,-56.5"/>
<text text-anchor="middle" x="666" y="-63.5" font-family="Helvetica,sans-Serif" font-size="10.00">cinttypes</text>
</g>
<!-- Node2&#45;&gt;Node6 -->
<g id="edge5" class="edge"><title>Node2&#45;&gt;Node6</title>
<path fill="none" stroke="midnightblue" d="M939.372,-113.318C881.161,-105.695 791.223,-92.9707 704.264,-76.1068"/>
<polygon fill="midnightblue" stroke="midnightblue" points="704.711,-72.628 694.225,-74.1386 703.365,-79.4973 704.711,-72.628"/>
</g>
<!-- Node7 -->
<g id="node7" class="node"><title>Node7</title>
<polygon fill="white" stroke="#bfbfbf" points="712.5,-56.5 712.5,-75.5 755.5,-75.5 755.5,-56.5 712.5,-56.5"/>
<text text-anchor="middle" x="734" y="-63.5" font-family="Helvetica,sans-Serif" font-size="10.00">cstdio</text>
</g>
<!-- Node2&#45;&gt;Node7 -->
<g id="edge6" class="edge"><title>Node2&#45;&gt;Node7</title>
<path fill="none" stroke="midnightblue" d="M947.478,-112.47C901.481,-104.772 833.22,-92.4738 765.536,-76.1901"/>
<polygon fill="midnightblue" stroke="midnightblue" points="766.101,-72.7255 755.557,-73.7588 764.444,-79.5266 766.101,-72.7255"/>
</g>
<!-- Node8 -->
<g id="node8" class="node"><title>Node8</title>
<polygon fill="white" stroke="#bfbfbf" points="773.5,-56.5 773.5,-75.5 822.5,-75.5 822.5,-56.5 773.5,-56.5"/>
<text text-anchor="middle" x="798" y="-63.5" font-family="Helvetica,sans-Serif" font-size="10.00">cstddef</text>
</g>
<!-- Node2&#45;&gt;Node8 -->
<g id="edge7" class="edge"><title>Node2&#45;&gt;Node8</title>
<path fill="none" stroke="midnightblue" d="M968.391,-112.446C936.16,-103.973 885.183,-90.528 832.38,-76.3578"/>
<polygon fill="midnightblue" stroke="midnightblue" points="833.068,-72.9188 822.503,-73.7045 831.252,-79.6791 833.068,-72.9188"/>
</g>
<!-- Node9 -->
<g id="node9" class="node"><title>Node9</title>
<polygon fill="white" stroke="#bfbfbf" points="840.5,-56.5 840.5,-75.5 885.5,-75.5 885.5,-56.5 840.5,-56.5"/>
<text text-anchor="middle" x="863" y="-63.5" font-family="Helvetica,sans-Serif" font-size="10.00">cstdlib</text>
</g>
<!-- Node2&#45;&gt;Node9 -->
<g id="edge8" class="edge"><title>Node2&#45;&gt;Node9</title>
<path fill="none" stroke="midnightblue" d="M979.133,-112.444C956.221,-103.478 920.025,-89.314 894.134,-79.1827"/>
<polygon fill="midnightblue" stroke="midnightblue" points="895.352,-75.9011 884.764,-75.5164 892.801,-82.4198 895.352,-75.9011"/>
</g>
<!-- Node10 -->
<g id="node10" class="node"><title>Node10</title>
<polygon fill="white" stroke="#bfbfbf" points="942,-56.5 942,-75.5 986,-75.5 986,-56.5 942,-56.5"/>
<text text-anchor="middle" x="964" y="-63.5" font-family="Helvetica,sans-Serif" font-size="10.00">cerrno</text>
</g>
<!-- Node2&#45;&gt;Node10 -->
<g id="edge9" class="edge"><title>Node2&#45;&gt;Node10</title>
<path fill="none" stroke="midnightblue" d="M994.89,-112.083C989.718,-104.534 982.154,-93.4948 975.806,-84.2298"/>
<polygon fill="midnightblue" stroke="midnightblue" points="978.536,-82.0221 969.996,-75.7511 972.761,-85.9787 978.536,-82.0221"/>
</g>
<!-- Node11 -->
<g id="node11" class="node"><title>Node11</title>
<polygon fill="white" stroke="#bfbfbf" points="0,-56.5 0,-75.5 46,-75.5 46,-56.5 0,-56.5"/>
<text text-anchor="middle" x="23" y="-63.5" font-family="Helvetica,sans-Serif" font-size="10.00">cstring</text>
</g>
<!-- Node2&#45;&gt;Node11 -->
<g id="edge10" class="edge"><title>Node2&#45;&gt;Node11</title>
<path fill="none" stroke="midnightblue" d="M939.362,-114.431C929.548,-113.521 919.502,-112.671 910,-112 532.822,-85.3822 434.392,-128.939 60,-76 58.7481,-75.823 57.4768,-75.6222 56.1959,-75.4021"/>
<polygon fill="midnightblue" stroke="midnightblue" points="56.8485,-71.9634 46.3535,-73.414 55.4625,-78.8248 56.8485,-71.9634"/>
</g>
<!-- Node12 -->
<g id="node12" class="node"><title>Node12</title>
<polygon fill="white" stroke="#bfbfbf" points="1677,-56.5 1677,-75.5 1721,-75.5 1721,-56.5 1677,-56.5"/>
<text text-anchor="middle" x="1699" y="-63.5" font-family="Helvetica,sans-Serif" font-size="10.00">cmath</text>
</g>
<!-- Node2&#45;&gt;Node12 -->
<g id="edge11" class="edge"><title>Node2&#45;&gt;Node12</title>
<path fill="none" stroke="midnightblue" d="M1062.69,-121.248C1179.29,-120.76 1439.92,-115.11 1666.69,-75.8441"/>
<polygon fill="midnightblue" stroke="midnightblue" points="1667.54,-79.2489 1676.78,-74.0705 1666.33,-72.3545 1667.54,-79.2489"/>
</g>
<!-- Node13 -->
<g id="node13" class="node"><title>Node13</title>
<polygon fill="white" stroke="#bfbfbf" points="1004.5,-56.5 1004.5,-75.5 1049.5,-75.5 1049.5,-56.5 1004.5,-56.5"/>
<text text-anchor="middle" x="1027" y="-63.5" font-family="Helvetica,sans-Serif" font-size="10.00">iosfwd</text>
</g>
<!-- Node2&#45;&gt;Node13 -->
<g id="edge12" class="edge"><title>Node2&#45;&gt;Node13</title>
<path fill="none" stroke="midnightblue" d="M1005.29,-112.083C1008.85,-104.691 1014.02,-93.9533 1018.42,-84.8111"/>
<polygon fill="midnightblue" stroke="midnightblue" points="1021.6,-86.2795 1022.79,-75.7511 1015.29,-83.2427 1021.6,-86.2795"/>
</g>
<!-- Node14 -->
<g id="node14" class="node"><title>Node14</title>
<polygon fill="white" stroke="#bfbfbf" points="1739,-56.5 1739,-75.5 1793,-75.5 1793,-56.5 1739,-56.5"/>
<text text-anchor="middle" x="1766" y="-63.5" font-family="Helvetica,sans-Serif" font-size="10.00">iostream</text>
</g>
<!-- Node2&#45;&gt;Node14 -->
<g id="edge13" class="edge"><title>Node2&#45;&gt;Node14</title>
<path fill="none" stroke="midnightblue" d="M1062.85,-120.991C1187.39,-120.149 1477.23,-114.023 1728.92,-75.8656"/>
<polygon fill="midnightblue" stroke="midnightblue" points="1729.63,-79.2971 1738.98,-74.3191 1728.57,-72.3782 1729.63,-79.2971"/>
</g>
<!-- Node15 -->
<g id="node15" class="node"><title>Node15</title>
<polygon fill="white" stroke="#bfbfbf" points="1068,-56.5 1068,-75.5 1120,-75.5 1120,-56.5 1068,-56.5"/>
<text text-anchor="middle" x="1094" y="-63.5" font-family="Helvetica,sans-Serif" font-size="10.00">sstream</text>
</g>
<!-- Node2&#45;&gt;Node15 -->
<g id="edge14" class="edge"><title>Node2&#45;&gt;Node15</title>
<path fill="none" stroke="midnightblue" d="M1015.94,-112.324C1030.59,-103.822 1053.13,-90.7288 1070.24,-80.7975"/>
<polygon fill="midnightblue" stroke="midnightblue" points="1072.2,-83.7027 1079.1,-75.6545 1068.69,-77.6491 1072.2,-83.7027"/>
</g>
<!-- Node16 -->
<g id="node16" class="node"><title>Node16</title>
<polygon fill="white" stroke="#bfbfbf" points="1138.5,-56.5 1138.5,-75.5 1179.5,-75.5 1179.5,-56.5 1138.5,-56.5"/>
<text text-anchor="middle" x="1159" y="-63.5" font-family="Helvetica,sans-Serif" font-size="10.00">regex</text>
</g>
<!-- Node2&#45;&gt;Node16 -->
<g id="edge15" class="edge"><title>Node2&#45;&gt;Node16</title>
<path fill="none" stroke="midnightblue" d="M1026.04,-112.444C1053.87,-102.932 1098.81,-87.5697 1128.63,-77.3787"/>
<polygon fill="midnightblue" stroke="midnightblue" points="1129.79,-80.6829 1138.12,-74.1368 1127.52,-74.059 1129.79,-80.6829"/>
</g>
<!-- Node17 -->
<g id="node17" class="node"><title>Node17</title>
<polygon fill="white" stroke="#bfbfbf" points="1489,-56.5 1489,-75.5 1539,-75.5 1539,-56.5 1489,-56.5"/>
<text text-anchor="middle" x="1514" y="-63.5" font-family="Helvetica,sans-Serif" font-size="10.00">iomanip</text>
</g>
<!-- Node2&#45;&gt;Node17 -->
<g id="edge16" class="edge"><title>Node2&#45;&gt;Node17</title>
<path fill="none" stroke="midnightblue" d="M1062.68,-118.463C1152.35,-114.058 1323.99,-102.923 1478.69,-75.9514"/>
<polygon fill="midnightblue" stroke="midnightblue" points="1479.62,-79.3417 1488.85,-74.1518 1478.4,-72.4489 1479.62,-79.3417"/>
</g>
<!-- Node18 -->
<g id="node18" class="node"><title>Node18</title>
<polygon fill="white" stroke="#bfbfbf" points="1197.5,-56.5 1197.5,-75.5 1248.5,-75.5 1248.5,-56.5 1197.5,-56.5"/>
<text text-anchor="middle" x="1223" y="-63.5" font-family="Helvetica,sans-Serif" font-size="10.00">unistd.h</text>
</g>
<!-- Node2&#45;&gt;Node18 -->
<g id="edge17" class="edge"><title>Node2&#45;&gt;Node18</title>
<path fill="none" stroke="midnightblue" d="M1037.24,-112.456C1072.95,-103.996 1129.33,-90.538 1187.64,-76.0593"/>
<polygon fill="midnightblue" stroke="midnightblue" points="1188.54,-79.4434 1197.4,-73.6324 1186.85,-72.6505 1188.54,-79.4434"/>
</g>
<!-- Node19 -->
<g id="node19" class="node"><title>Node19</title>
<polygon fill="white" stroke="#bfbfbf" points="1267,-56.5 1267,-75.5 1311,-75.5 1311,-56.5 1267,-56.5"/>
<text text-anchor="middle" x="1289" y="-63.5" font-family="Helvetica,sans-Serif" font-size="10.00">fcntl.h</text>
</g>
<!-- Node2&#45;&gt;Node19 -->
<g id="edge18" class="edge"><title>Node2&#45;&gt;Node19</title>
<path fill="none" stroke="midnightblue" d="M1059.03,-112.498C1108.9,-104.807 1182.88,-92.4833 1256.75,-75.8481"/>
<polygon fill="midnightblue" stroke="midnightblue" points="1257.72,-79.216 1266.69,-73.5814 1256.17,-72.391 1257.72,-79.216"/>
</g>
<!-- Node20 -->
<g id="node20" class="node"><title>Node20</title>
<polygon fill="white" stroke="#bfbfbf" points="1329,-56.5 1329,-75.5 1369,-75.5 1369,-56.5 1329,-56.5"/>
<text text-anchor="middle" x="1349" y="-63.5" font-family="Helvetica,sans-Serif" font-size="10.00">limits</text>
</g>
<!-- Node2&#45;&gt;Node20 -->
<g id="edge19" class="edge"><title>Node2&#45;&gt;Node20</title>
<path fill="none" stroke="midnightblue" d="M1062.68,-115.271C1125.12,-108.805 1224.51,-96.6849 1318.84,-75.9481"/>
<polygon fill="midnightblue" stroke="midnightblue" points="1319.83,-79.3114 1328.83,-73.714 1318.31,-72.48 1319.83,-79.3114"/>
</g>
<!-- Node21 -->
<g id="node21" class="node"><title>Node21</title>
<polygon fill="white" stroke="#bfbfbf" points="1433.5,-0.5 1433.5,-19.5 1474.5,-19.5 1474.5,-0.5 1433.5,-0.5"/>
<text text-anchor="middle" x="1454" y="-7.5" font-family="Helvetica,sans-Serif" font-size="10.00">string</text>
</g>
<!-- Node2&#45;&gt;Node21 -->
<g id="edge20" class="edge"><title>Node2&#45;&gt;Node21</title>
<path fill="none" stroke="midnightblue" d="M1062.76,-117.974C1154.77,-112.737 1322.91,-100.151 1378,-76 1403.22,-64.9421 1426.37,-42.6317 1440.33,-27.2591"/>
<polygon fill="midnightblue" stroke="midnightblue" points="1443.13,-29.3737 1447.09,-19.5481 1437.86,-24.7576 1443.13,-29.3737"/>
</g>
<!-- Node22 -->
<g id="node22" class="node"><title>Node22</title>
<polygon fill="white" stroke="#bfbfbf" points="1131,-0.5 1131,-19.5 1175,-19.5 1175,-0.5 1131,-0.5"/>
<text text-anchor="middle" x="1153" y="-7.5" font-family="Helvetica,sans-Serif" font-size="10.00">vector</text>
</g>
<!-- Node2&#45;&gt;Node22 -->
<g id="edge21" class="edge"><title>Node2&#45;&gt;Node22</title>
<path fill="none" stroke="midnightblue" d="M979.904,-112.448C953.782,-100.64 914.826,-78.2682 933,-56 956.283,-27.4725 1065,-16.5434 1120.38,-12.7742"/>
<polygon fill="midnightblue" stroke="midnightblue" points="1120.95,-16.245 1130.71,-12.1127 1120.51,-9.25933 1120.95,-16.245"/>
</g>
<!-- Node23 -->
<g id="node23" class="node"><title>Node23</title>
<polygon fill="white" stroke="#bfbfbf" points="140.5,-56.5 140.5,-75.5 181.5,-75.5 181.5,-56.5 140.5,-56.5"/>
<text text-anchor="middle" x="161" y="-63.5" font-family="Helvetica,sans-Serif" font-size="10.00">stack</text>
</g>
<!-- Node2&#45;&gt;Node23 -->
<g id="edge22" class="edge"><title>Node2&#45;&gt;Node23</title>
<path fill="none" stroke="midnightblue" d="M939.358,-114.494C929.544,-113.577 919.499,-112.707 910,-112 593.76,-88.4697 507.249,-131.034 191.638,-75.8715"/>
<polygon fill="midnightblue" stroke="midnightblue" points="192.211,-72.4186 181.755,-74.1254 190.993,-79.3118 192.211,-72.4186"/>
</g>
<!-- Node24 -->
<g id="node24" class="node"><title>Node24</title>
<polygon fill="white" stroke="#bfbfbf" points="199.5,-56.5 199.5,-75.5 242.5,-75.5 242.5,-56.5 199.5,-56.5"/>
<text text-anchor="middle" x="221" y="-63.5" font-family="Helvetica,sans-Serif" font-size="10.00">deque</text>
</g>
<!-- Node2&#45;&gt;Node24 -->
<g id="edge23" class="edge"><title>Node2&#45;&gt;Node24</title>
<path fill="none" stroke="midnightblue" d="M939.355,-114.537C929.542,-113.614 919.497,-112.731 910,-112 620.194,-89.6911 544.398,-119.444 257,-76 255.527,-75.7773 254.026,-75.5214 252.515,-75.2402"/>
<polygon fill="midnightblue" stroke="midnightblue" points="253.08,-71.7817 242.567,-73.0983 251.607,-78.6249 253.08,-71.7817"/>
</g>
<!-- Node25 -->
<g id="node25" class="node"><title>Node25</title>
<polygon fill="white" stroke="#bfbfbf" points="67,-0.5 67,-19.5 111,-19.5 111,-0.5 67,-0.5"/>
<text text-anchor="middle" x="89" y="-7.5" font-family="Helvetica,sans-Serif" font-size="10.00">mutex</text>
</g>
<!-- Node2&#45;&gt;Node25 -->
<g id="edge24" class="edge"><title>Node2&#45;&gt;Node25</title>
<path fill="none" stroke="midnightblue" d="M939.36,-114.458C929.547,-113.545 919.501,-112.686 910,-112 822.581,-105.685 195.632,-123.543 122,-76 105.916,-65.6146 97.3171,-44.8047 92.9739,-29.5176"/>
<polygon fill="midnightblue" stroke="midnightblue" points="96.317,-28.4567 90.5172,-19.5903 89.522,-30.1383 96.317,-28.4567"/>
</g>
<!-- Node26 -->
<g id="node26" class="node"><title>Node26</title>
<polygon fill="white" stroke="#bfbfbf" points="152,-0.5 152,-19.5 196,-19.5 196,-0.5 152,-0.5"/>
<text text-anchor="middle" x="174" y="-7.5" font-family="Helvetica,sans-Serif" font-size="10.00">thread</text>
</g>
<!-- Node2&#45;&gt;Node26 -->
<g id="edge25" class="edge"><title>Node2&#45;&gt;Node26</title>
<path fill="none" stroke="midnightblue" d="M939.36,-114.463C929.546,-113.549 919.5,-112.689 910,-112 866.789,-108.867 160.919,-107.334 131,-76 116.385,-60.6943 135.679,-39.8281 152.904,-25.9092"/>
<polygon fill="midnightblue" stroke="midnightblue" points="155.219,-28.5448 161.035,-19.6892 150.966,-22.9848 155.219,-28.5448"/>
</g>
<!-- Node27 -->
<g id="node27" class="node"><title>Node27</title>
<polygon fill="white" stroke="#bfbfbf" points="226.5,-0.5 226.5,-19.5 321.5,-19.5 321.5,-0.5 226.5,-0.5"/>
<text text-anchor="middle" x="274" y="-7.5" font-family="Helvetica,sans-Serif" font-size="10.00">condition_variable</text>
</g>
<!-- Node2&#45;&gt;Node27 -->
<g id="edge26" class="edge"><title>Node2&#45;&gt;Node27</title>
<path fill="none" stroke="midnightblue" d="M939.353,-114.561C929.54,-113.635 919.496,-112.745 910,-112 841.206,-106.603 343.056,-120.122 290,-76 276.756,-64.9861 273.484,-44.9367 273.077,-30.0066"/>
<polygon fill="midnightblue" stroke="midnightblue" points="276.579,-29.8655 273.207,-19.8218 269.58,-29.7765 276.579,-29.8655"/>
</g>
<!-- Node28 -->
<g id="node28" class="node"><title>Node28</title>
<polygon fill="white" stroke="#bfbfbf" points="405.5,-0.5 405.5,-19.5 448.5,-19.5 448.5,-0.5 405.5,-0.5"/>
<text text-anchor="middle" x="427" y="-7.5" font-family="Helvetica,sans-Serif" font-size="10.00">queue</text>
</g>
<!-- Node2&#45;&gt;Node28 -->
<g id="edge27" class="edge"><title>Node2&#45;&gt;Node28</title>
<path fill="none" stroke="midnightblue" d="M939.337,-114.747C929.526,-113.796 919.487,-112.85 910,-112 810.522,-103.085 545.624,-130.611 462,-76 445.766,-65.3982 436.496,-44.6277 431.629,-29.409"/>
<polygon fill="midnightblue" stroke="midnightblue" points="434.924,-28.1979 428.826,-19.5334 428.189,-30.1091 434.924,-28.1979"/>
</g>
<!-- Node29 -->
<g id="node29" class="node"><title>Node29</title>
<polygon fill="white" stroke="#bfbfbf" points="592.5,-0.5 592.5,-19.5 627.5,-19.5 627.5,-0.5 592.5,-0.5"/>
<text text-anchor="middle" x="610" y="-7.5" font-family="Helvetica,sans-Serif" font-size="10.00">map</text>
</g>
<!-- Node2&#45;&gt;Node29 -->
<g id="edge28" class="edge"><title>Node2&#45;&gt;Node29</title>
<path fill="none" stroke="midnightblue" d="M939.1,-114.388C834.83,-103.129 634.861,-80.9704 629,-76 615.71,-64.7286 611.44,-44.7199 610.201,-29.8697"/>
<polygon fill="midnightblue" stroke="midnightblue" points="613.691,-29.5814 609.744,-19.7493 606.698,-29.8969 613.691,-29.5814"/>
</g>
<!-- Node30 -->
<g id="node30" class="node"><title>Node30</title>
<g id="a_node30"><a xlink:href="cosmos-defs_8h.html" target="_top" xlink:title="COSMOS definitions Definitions specific to the COSMOS environement. ">
<polygon fill="white" stroke="black" points="299,-56.5 299,-75.5 415,-75.5 415,-56.5 299,-56.5"/>
<text text-anchor="middle" x="357" y="-63.5" font-family="Helvetica,sans-Serif" font-size="10.00">support/cosmos&#45;defs.h</text>
</a>
</g>
</g>
<!-- Node2&#45;&gt;Node30 -->
<g id="edge29" class="edge"><title>Node2&#45;&gt;Node30</title>
<path fill="none" stroke="midnightblue" d="M939.341,-114.701C929.53,-113.757 919.49,-112.824 910,-112 696.428,-93.4492 642.315,-97.3016 429,-76 427.731,-75.8733 426.449,-75.7425 425.159,-75.6081"/>
<polygon fill="midnightblue" stroke="midnightblue" points="425.451,-72.1194 415.131,-74.5177 424.694,-79.0783 425.451,-72.1194"/>
</g>
<!-- Node32 -->
<g id="node32" class="node"><title>Node32</title>
<g id="a_node32"><a xlink:href="json11_8hpp.html" target="_top" xlink:title="json11.hpp">
<polygon fill="white" stroke="black" points="1595,-56.5 1595,-75.5 1659,-75.5 1659,-56.5 1595,-56.5"/>
<text text-anchor="middle" x="1627" y="-63.5" font-family="Helvetica,sans-Serif" font-size="10.00">json11.hpp</text>
</a>
</g>
</g>
<!-- Node2&#45;&gt;Node32 -->
<g id="edge37" class="edge"><title>Node2&#45;&gt;Node32</title>
<path fill="none" stroke="midnightblue" d="M1062.58,-116.566C1163.9,-109.13 1372.09,-93.2519 1548,-76 1559.9,-74.8329 1572.79,-73.4251 1584.64,-72.0732"/>
<polygon fill="midnightblue" stroke="midnightblue" points="1585.21,-75.5316 1594.74,-70.907 1584.4,-68.5779 1585.21,-75.5316"/>
</g>
<!-- Node30&#45;&gt;Node22 -->
<g id="edge31" class="edge"><title>Node30&#45;&gt;Node22</title>
<path fill="none" stroke="midnightblue" d="M415.024,-59.8127C430.299,-58.5057 446.766,-57.1488 462,-56 715.627,-36.8738 1021.99,-18.6258 1120.7,-12.8676"/>
<polygon fill="midnightblue" stroke="midnightblue" points="1121.13,-16.3485 1130.91,-12.2733 1120.73,-9.36036 1121.13,-16.3485"/>
</g>
<!-- Node30&#45;&gt;Node25 -->
<g id="edge35" class="edge"><title>Node30&#45;&gt;Node25</title>
<path fill="none" stroke="midnightblue" d="M314.535,-56.4435C260.77,-45.6103 169.346,-27.1892 121.065,-17.4609"/>
<polygon fill="midnightblue" stroke="midnightblue" points="121.66,-14.0105 111.166,-15.4662 120.277,-20.8726 121.66,-14.0105"/>
</g>
<!-- Node30&#45;&gt;Node26 -->
<g id="edge34" class="edge"><title>Node30&#45;&gt;Node26</title>
<path fill="none" stroke="midnightblue" d="M328.003,-56.4435C294.849,-46.6602 240.722,-30.6884 206.26,-20.5194"/>
<polygon fill="midnightblue" stroke="midnightblue" points="206.823,-17.0364 196.241,-17.5631 204.842,-23.7502 206.823,-17.0364"/>
</g>
<!-- Node30&#45;&gt;Node27 -->
<g id="edge36" class="edge"><title>Node30&#45;&gt;Node27</title>
<path fill="none" stroke="midnightblue" d="M343.665,-56.324C330.838,-47.979 311.215,-35.2122 296.06,-25.3524"/>
<polygon fill="midnightblue" stroke="midnightblue" points="297.593,-22.1742 287.302,-19.6545 293.776,-28.0417 297.593,-22.1742"/>
</g>
<!-- Node30&#45;&gt;Node28 -->
<g id="edge33" class="edge"><title>Node30&#45;&gt;Node28</title>
<path fill="none" stroke="midnightblue" d="M368.247,-56.324C378.797,-48.1849 394.801,-35.8395 407.442,-26.0874"/>
<polygon fill="midnightblue" stroke="midnightblue" points="409.769,-28.7132 415.549,-19.8339 405.493,-23.1707 409.769,-28.7132"/>
</g>
<!-- Node30&#45;&gt;Node29 -->
<g id="edge30" class="edge"><title>Node30&#45;&gt;Node29</title>
<path fill="none" stroke="midnightblue" d="M397.089,-56.4435C448.944,-45.3756 537.907,-26.3874 582.634,-16.8409"/>
<polygon fill="midnightblue" stroke="midnightblue" points="583.447,-20.2463 592.496,-14.7359 581.986,-13.4005 583.447,-20.2463"/>
</g>
<!-- Node31 -->
<g id="node31" class="node"><title>Node31</title>
<polygon fill="white" stroke="#bfbfbf" points="342.5,-0.5 342.5,-19.5 371.5,-19.5 371.5,-0.5 342.5,-0.5"/>
<text text-anchor="middle" x="357" y="-7.5" font-family="Helvetica,sans-Serif" font-size="10.00">list</text>
</g>
<!-- Node30&#45;&gt;Node31 -->
<g id="edge32" class="edge"><title>Node30&#45;&gt;Node31</title>
<path fill="none" stroke="midnightblue" d="M357,-56.083C357,-49.0059 357,-38.8611 357,-29.9865"/>
<polygon fill="midnightblue" stroke="midnightblue" points="360.5,-29.751 357,-19.7511 353.5,-29.7511 360.5,-29.751"/>
</g>
<!-- Node32&#45;&gt;Node21 -->
<g id="edge38" class="edge"><title>Node32&#45;&gt;Node21</title>
<path fill="none" stroke="midnightblue" d="M1599.59,-56.4435C1568.21,-46.6487 1516.96,-30.6509 1484.38,-20.4836"/>
<polygon fill="midnightblue" stroke="midnightblue" points="1485.1,-17.0413 1474.51,-17.4026 1483.01,-23.7233 1485.1,-17.0413"/>
</g>
<!-- Node32&#45;&gt;Node22 -->
<g id="edge39" class="edge"><title>Node32&#45;&gt;Node22</title>
<path fill="none" stroke="midnightblue" d="M1594.89,-58.3421C1590.24,-57.4876 1585.51,-56.6764 1581,-56 1434.12,-33.9533 1257.26,-19.0112 1185.56,-13.4342"/>
<polygon fill="midnightblue" stroke="midnightblue" points="1185.61,-9.92746 1175.37,-12.6496 1185.07,-16.9068 1185.61,-9.92746"/>
</g>
<!-- Node32&#45;&gt;Node29 -->
<g id="edge40" class="edge"><title>Node32&#45;&gt;Node29</title>
<path fill="none" stroke="midnightblue" d="M1594.76,-60.8435C1580.46,-59.1245 1563.41,-57.2461 1548,-56 1189.04,-26.9736 751.17,-14.5348 637.829,-11.6691"/>
<polygon fill="midnightblue" stroke="midnightblue" points="637.685,-8.16449 627.601,-11.4144 637.51,-15.1623 637.685,-8.16449"/>
</g>
<!-- Node33 -->
<g id="node33" class="node"><title>Node33</title>
<polygon fill="white" stroke="#bfbfbf" points="1641,-0.5 1641,-19.5 1693,-19.5 1693,-0.5 1641,-0.5"/>
<text text-anchor="middle" x="1667" y="-7.5" font-family="Helvetica,sans-Serif" font-size="10.00">memory</text>
</g>
<!-- Node32&#45;&gt;Node33 -->
<g id="edge41" class="edge"><title>Node32&#45;&gt;Node33</title>
<path fill="none" stroke="midnightblue" d="M1633.61,-56.083C1639.26,-48.4554 1647.54,-37.2645 1654.45,-27.9408"/>
<polygon fill="midnightblue" stroke="midnightblue" points="1657.38,-29.87 1660.52,-19.7511 1651.75,-25.7034 1657.38,-29.87"/>
</g>
<!-- Node34 -->
<g id="node34" class="node"><title>Node34</title>
<polygon fill="white" stroke="#bfbfbf" points="1549.5,-0.5 1549.5,-19.5 1622.5,-19.5 1622.5,-0.5 1549.5,-0.5"/>
<text text-anchor="middle" x="1586" y="-7.5" font-family="Helvetica,sans-Serif" font-size="10.00">initializer_list</text>
</g>
<!-- Node32&#45;&gt;Node34 -->
<g id="edge42" class="edge"><title>Node32&#45;&gt;Node34</title>
<path fill="none" stroke="midnightblue" d="M1620.23,-56.083C1614.44,-48.4554 1605.94,-37.2645 1598.86,-27.9408"/>
<polygon fill="midnightblue" stroke="midnightblue" points="1601.48,-25.5991 1592.64,-19.7511 1595.9,-29.8321 1601.48,-25.5991"/>
</g>
<!-- Node37&#45;&gt;Node2 -->
<g id="edge46" class="edge"><title>Node37&#45;&gt;Node2</title>
<path fill="none" stroke="midnightblue" d="M1372.48,-397.957C1321.91,-384.647 1242,-353.694 1242,-291 1242,-291 1242,-291 1242,-233 1242,-202.205 1241.34,-188.092 1218,-168 1196.42,-149.42 1127.23,-137.281 1072.72,-130.346"/>
<polygon fill="midnightblue" stroke="midnightblue" points="1073.08,-126.864 1062.72,-129.112 1072.22,-133.811 1073.08,-126.864"/>
</g>
<!-- Node37&#45;&gt;Node12 -->
<g id="edge67" class="edge"><title>Node37&#45;&gt;Node12</title>
<path fill="none" stroke="midnightblue" d="M1453.72,-407.075C1530.05,-405.801 1687,-391.02 1687,-291 1687,-291 1687,-291 1687,-177 1687,-144.758 1692.16,-107.512 1695.71,-85.6812"/>
<polygon fill="midnightblue" stroke="midnightblue" points="1699.21,-85.9673 1697.43,-75.5232 1692.31,-84.7982 1699.21,-85.9673"/>
</g>
<!-- Node37&#45;&gt;Node14 -->
<g id="edge68" class="edge"><title>Node37&#45;&gt;Node14</title>
<path fill="none" stroke="midnightblue" d="M1453.94,-404.579C1507.72,-400.771 1604.11,-389.464 1679,-356 1722.42,-336.598 1764,-338.558 1764,-291 1764,-291 1764,-291 1764,-177 1764,-144.943 1764.86,-107.639 1765.45,-85.747"/>
<polygon fill="midnightblue" stroke="midnightblue" points="1768.96,-85.6513 1765.74,-75.5568 1761.96,-85.4544 1768.96,-85.6513"/>
</g>
<!-- Node37&#45;&gt;Node38 -->
<g id="edge47" class="edge"><title>Node37&#45;&gt;Node38</title>
<path fill="none" stroke="midnightblue" d="M1372.3,-398.577C1334.13,-390.41 1275.91,-376.042 1228,-356 1194.43,-341.957 1158.53,-319.684 1136.67,-305.204"/>
<polygon fill="midnightblue" stroke="midnightblue" points="1138.47,-302.192 1128.21,-299.522 1134.56,-308.003 1138.47,-302.192"/>
</g>
<!-- Node39 -->
<g id="node39" class="node"><title>Node39</title>
<g id="a_node39"><a xlink:href="math_2constants_8h.html" target="_top" xlink:title="constants.h">
<polygon fill="white" stroke="black" points="1411,-168.5 1411,-187.5 1479,-187.5 1479,-168.5 1411,-168.5"/>
<text text-anchor="middle" x="1445" y="-175.5" font-family="Helvetica,sans-Serif" font-size="10.00">constants.h</text>
</a>
</g>
</g>
<!-- Node37&#45;&gt;Node39 -->
<g id="edge50" class="edge"><title>Node37&#45;&gt;Node39</title>
<path fill="none" stroke="midnightblue" d="M1403.67,-397.893C1394.35,-388.603 1380.63,-372.858 1375,-356 1372.18,-347.569 1373.15,-344.694 1375,-336 1386.45,-282.211 1417.68,-224.511 1434.29,-196.4"/>
<polygon fill="midnightblue" stroke="midnightblue" points="1437.34,-198.119 1439.5,-187.746 1431.34,-194.511 1437.34,-198.119"/>
</g>
<!-- Node40 -->
<g id="node40" class="node"><title>Node40</title>
<g id="a_node40"><a xlink:href="vector_8h.html" target="_top" xlink:title="vector.h">
<polygon fill="white" stroke="black" points="1488,-224.5 1488,-243.5 1540,-243.5 1540,-224.5 1488,-224.5"/>
<text text-anchor="middle" x="1514" y="-231.5" font-family="Helvetica,sans-Serif" font-size="10.00">vector.h</text>
</a>
</g>
</g>
<!-- Node37&#45;&gt;Node40 -->
<g id="edge53" class="edge"><title>Node37&#45;&gt;Node40</title>
<path fill="none" stroke="midnightblue" d="M1424.5,-397.713C1436.35,-388.277 1454.9,-372.414 1468,-356 1485.88,-333.595 1489.75,-326.771 1500,-300 1505.75,-284.992 1509.38,-267.084 1511.51,-253.869"/>
<polygon fill="midnightblue" stroke="midnightblue" points="1515.02,-254.055 1513,-243.654 1508.09,-253.044 1515.02,-254.055"/>
</g>
<!-- Node41 -->
<g id="node41" class="node"><title>Node41</title>
<g id="a_node41"><a xlink:href="matrix_8h.html" target="_top" xlink:title="matrix.h">
<polygon fill="white" stroke="black" points="1439,-280.5 1439,-299.5 1491,-299.5 1491,-280.5 1439,-280.5"/>
<text text-anchor="middle" x="1465" y="-287.5" font-family="Helvetica,sans-Serif" font-size="10.00">matrix.h</text>
</a>
</g>
</g>
<!-- Node37&#45;&gt;Node41 -->
<g id="edge60" class="edge"><title>Node37&#45;&gt;Node41</title>
<path fill="none" stroke="midnightblue" d="M1421.02,-397.9C1429.48,-388.373 1442.58,-372.205 1450,-356 1456.78,-341.193 1460.64,-323.04 1462.74,-309.685"/>
<polygon fill="midnightblue" stroke="midnightblue" points="1466.21,-310.16 1464.11,-299.774 1459.27,-309.198 1466.21,-310.16"/>
</g>
<!-- Node42 -->
<g id="node42" class="node"><title>Node42</title>
<g id="a_node42"><a xlink:href="rotation_8h.html" target="_top" xlink:title="rotation.h">
<polygon fill="white" stroke="black" points="1384.5,-336.5 1384.5,-355.5 1441.5,-355.5 1441.5,-336.5 1384.5,-336.5"/>
<text text-anchor="middle" x="1413" y="-343.5" font-family="Helvetica,sans-Serif" font-size="10.00">rotation.h</text>
</a>
</g>
</g>
<!-- Node37&#45;&gt;Node42 -->
<g id="edge63" class="edge"><title>Node37&#45;&gt;Node42</title>
<path fill="none" stroke="midnightblue" d="M1413,-397.975C1413,-389.58 1413,-376.481 1413,-365.663"/>
<polygon fill="midnightblue" stroke="midnightblue" points="1416.5,-365.509 1413,-355.509 1409.5,-365.509 1416.5,-365.509"/>
</g>
<!-- Node38&#45;&gt;Node2 -->
<g id="edge48" class="edge"><title>Node38&#45;&gt;Node2</title>
<path fill="none" stroke="midnightblue" d="M1111.58,-280.359C1104.98,-267.685 1091.96,-243.453 1079,-224 1058.34,-192.978 1031.15,-159.111 1014.93,-139.535"/>
<polygon fill="midnightblue" stroke="midnightblue" points="1017.41,-137.043 1008.32,-131.608 1012.04,-141.528 1017.41,-137.043"/>
</g>
<!-- Node38&#45;&gt;Node36 -->
<g id="edge49" class="edge"><title>Node38&#45;&gt;Node36</title>
<path fill="none" stroke="midnightblue" d="M1104.91,-280.324C1094.51,-272.185 1078.74,-259.839 1066.28,-250.087"/>
<polygon fill="midnightblue" stroke="midnightblue" points="1068.32,-247.241 1058.29,-243.834 1064.01,-252.753 1068.32,-247.241"/>
</g>
<!-- Node39&#45;&gt;Node2 -->
<g id="edge51" class="edge"><title>Node39&#45;&gt;Node2</title>
<path fill="none" stroke="midnightblue" d="M1410.97,-171.395C1403.42,-170.215 1395.44,-169.02 1388,-168 1278.33,-152.972 1150.72,-138.768 1072.93,-130.476"/>
<polygon fill="midnightblue" stroke="midnightblue" points="1073.08,-126.971 1062.76,-129.395 1072.34,-133.932 1073.08,-126.971"/>
</g>
<!-- Node39&#45;&gt;Node5 -->
<g id="edge52" class="edge"><title>Node39&#45;&gt;Node5</title>
<path fill="none" stroke="midnightblue" d="M1445.24,-168.368C1445.72,-150.617 1446.84,-109.666 1447.49,-85.5974"/>
<polygon fill="midnightblue" stroke="midnightblue" points="1450.99,-85.6832 1447.77,-75.5914 1443.99,-85.4922 1450.99,-85.6832"/>
</g>
<!-- Node40&#45;&gt;Node2 -->
<g id="edge54" class="edge"><title>Node40&#45;&gt;Node2</title>
<path fill="none" stroke="midnightblue" d="M1494.22,-224.393C1461.23,-210.395 1392.63,-182.778 1332,-168 1244.11,-146.577 1140.43,-134.554 1072.84,-128.429"/>
<polygon fill="midnightblue" stroke="midnightblue" points="1072.99,-124.929 1062.72,-127.532 1072.37,-131.901 1072.99,-124.929"/>
</g>
<!-- Node40&#45;&gt;Node12 -->
<g id="edge58" class="edge"><title>Node40&#45;&gt;Node12</title>
<path fill="none" stroke="midnightblue" d="M1528.46,-224.496C1542.46,-215.992 1563.99,-202.172 1581,-188 1621.93,-153.891 1664.17,-107.29 1685.26,-83.0804"/>
<polygon fill="midnightblue" stroke="midnightblue" points="1687.92,-85.3634 1691.81,-75.5084 1682.62,-80.7867 1687.92,-85.3634"/>
</g>
<!-- Node40&#45;&gt;Node14 -->
<g id="edge56" class="edge"><title>Node40&#45;&gt;Node14</title>
<path fill="none" stroke="midnightblue" d="M1534.33,-224.415C1553.38,-216.059 1582.37,-202.527 1606,-188 1660.58,-154.446 1719.34,-106.63 1748.09,-82.3784"/>
<polygon fill="midnightblue" stroke="midnightblue" points="1750.65,-84.7922 1756.01,-75.6505 1746.12,-79.4573 1750.65,-84.7922"/>
</g>
<!-- Node40&#45;&gt;Node17 -->
<g id="edge57" class="edge"><title>Node40&#45;&gt;Node17</title>
<path fill="none" stroke="midnightblue" d="M1514,-224.075C1514,-197.945 1514,-121.211 1514,-85.577"/>
<polygon fill="midnightblue" stroke="midnightblue" points="1517.5,-85.5681 1514,-75.5681 1510.5,-85.5681 1517.5,-85.5681"/>
</g>
<!-- Node40&#45;&gt;Node22 -->
<g id="edge59" class="edge"><title>Node40&#45;&gt;Node22</title>
<path fill="none" stroke="midnightblue" d="M1520.05,-224.305C1538.87,-196.078 1592.59,-105.958 1548,-56 1523.96,-29.0637 1275.33,-16.0972 1185.31,-12.2594"/>
<polygon fill="midnightblue" stroke="midnightblue" points="1185.28,-8.75522 1175.14,-11.8363 1184.99,-15.7492 1185.28,-8.75522"/>
</g>
<!-- Node40&#45;&gt;Node39 -->
<g id="edge55" class="edge"><title>Node40&#45;&gt;Node39</title>
<path fill="none" stroke="midnightblue" d="M1502.91,-224.324C1492.51,-216.185 1476.74,-203.839 1464.28,-194.087"/>
<polygon fill="midnightblue" stroke="midnightblue" points="1466.32,-191.241 1456.29,-187.834 1462.01,-196.753 1466.32,-191.241"/>
</g>
<!-- Node41&#45;&gt;Node2 -->
<g id="edge61" class="edge"><title>Node41&#45;&gt;Node2</title>
<path fill="none" stroke="midnightblue" d="M1454.3,-280.431C1422.67,-255.254 1329.57,-182.378 1294,-168 1222.28,-139.014 1133.78,-128.552 1072.92,-124.855"/>
<polygon fill="midnightblue" stroke="midnightblue" points="1072.82,-121.344 1062.64,-124.279 1072.43,-128.333 1072.82,-121.344"/>
</g>
<!-- Node41&#45;&gt;Node40 -->
<g id="edge62" class="edge"><title>Node41&#45;&gt;Node40</title>
<path fill="none" stroke="midnightblue" d="M1473.09,-280.083C1480.16,-272.298 1490.59,-260.801 1499.15,-251.367"/>
<polygon fill="midnightblue" stroke="midnightblue" points="1501.93,-253.509 1506.06,-243.751 1496.75,-248.805 1501.93,-253.509"/>
</g>
<!-- Node42&#45;&gt;Node2 -->
<g id="edge64" class="edge"><title>Node42&#45;&gt;Node2</title>
<path fill="none" stroke="midnightblue" d="M1408.14,-336.151C1391.43,-306.653 1333.08,-211.108 1256,-168 1199.7,-136.511 1126.39,-126.184 1072.83,-123.19"/>
<polygon fill="midnightblue" stroke="midnightblue" points="1072.89,-119.688 1062.73,-122.698 1072.55,-126.68 1072.89,-119.688"/>
</g>
<!-- Node42&#45;&gt;Node40 -->
<g id="edge65" class="edge"><title>Node42&#45;&gt;Node40</title>
<path fill="none" stroke="midnightblue" d="M1413.13,-336.468C1413.75,-323.061 1416.72,-296.857 1430,-280 1442.24,-264.467 1461.37,-253.628 1478.28,-246.487"/>
<polygon fill="midnightblue" stroke="midnightblue" points="1479.88,-249.616 1487.91,-242.702 1477.32,-243.101 1479.88,-249.616"/>
</g>
<!-- Node42&#45;&gt;Node41 -->
<g id="edge66" class="edge"><title>Node42&#45;&gt;Node41</title>
<path fill="none" stroke="midnightblue" d="M1421.59,-336.083C1429.16,-328.22 1440.38,-316.569 1449.51,-307.081"/>
<polygon fill="midnightblue" stroke="midnightblue" points="1452.16,-309.382 1456.57,-299.751 1447.12,-304.527 1452.16,-309.382"/>
</g>
<!-- Node43&#45;&gt;Node2 -->
<g id="edge70" class="edge"><title>Node43&#45;&gt;Node2</title>
<path fill="none" stroke="midnightblue" d="M937.309,-392.336C948.188,-383.057 961.481,-370.07 970,-356 985.654,-330.144 990,-321.225 990,-291 990,-291 990,-291 990,-233 990,-200.788 994.728,-163.532 997.985,-141.692"/>
<polygon fill="midnightblue" stroke="midnightblue" points="1001.49,-141.947 999.562,-131.529 994.57,-140.874 1001.49,-141.947"/>
</g>
<!-- Node44 -->
<g id="node44" class="node"><title>Node44</title>
<g id="a_node44"><a xlink:href="sliplib_8h.html" target="_top" xlink:title="COSMOS SLIP support include file. ">
<polygon fill="white" stroke="black" points="876.5,-336.5 876.5,-355.5 961.5,-355.5 961.5,-336.5 876.5,-336.5"/>
<text text-anchor="middle" x="919" y="-343.5" font-family="Helvetica,sans-Serif" font-size="10.00">support/sliplib.h</text>
</a>
</g>
</g>
<!-- Node43&#45;&gt;Node44 -->
<g id="edge71" class="edge"><title>Node43&#45;&gt;Node44</title>
<path fill="none" stroke="midnightblue" d="M919,-392.399C919,-384.466 919,-374.458 919,-365.858"/>
<polygon fill="midnightblue" stroke="midnightblue" points="922.5,-365.658 919,-355.658 915.5,-365.658 922.5,-365.658"/>
</g>
<!-- Node44&#45;&gt;Node2 -->
<g id="edge72" class="edge"><title>Node44&#45;&gt;Node2</title>
<path fill="none" stroke="midnightblue" d="M921.152,-336.308C927.747,-310.212 948.89,-230.491 976,-168 980.09,-158.571 985.551,-148.533 990.325,-140.335"/>
<polygon fill="midnightblue" stroke="midnightblue" points="993.358,-142.082 995.491,-131.704 987.352,-138.487 993.358,-142.082"/>
</g>
<!-- Node44&#45;&gt;Node11 -->
<g id="edge74" class="edge"><title>Node44&#45;&gt;Node11</title>
<path fill="none" stroke="midnightblue" d="M915.898,-336.289C909.62,-317.856 896,-273.435 896,-235 896,-235 896,-235 896,-177 896,-171.61 216.755,-90.1424 56.5567,-71.0034"/>
<polygon fill="midnightblue" stroke="midnightblue" points="56.6952,-67.4951 46.3506,-69.7845 55.865,-74.4457 56.6952,-67.4951"/>
</g>
<!-- Node44&#45;&gt;Node38 -->
<g id="edge73" class="edge"><title>Node44&#45;&gt;Node38</title>
<path fill="none" stroke="midnightblue" d="M950.215,-336.444C983.933,-327.201 1037.8,-312.436 1074.93,-302.257"/>
<polygon fill="midnightblue" stroke="midnightblue" points="1076.21,-305.536 1084.93,-299.516 1074.36,-298.785 1076.21,-305.536"/>
</g>
</g>
</svg>
        <g id="navigator" transform="translate(0 0)" fill="#404254">
                <rect fill="#f2f5e9" fill-opacity="0.5" stroke="#606060" stroke-width=".5" x="0" y="0" width="60" height="60"/>
                <use id="zoomplus" xlink:href="#zoomPlus" x="17" y="9" onmousedown="handleZoom(evt,'in')"/>
                <use id="zoomminus" xlink:href="#zoomMin" x="42" y="9" onmousedown="handleZoom(evt,'out')"/>
                <use id="reset" xlink:href="#resetDef" x="30" y="36" onmousedown="handleReset()"/>
                <g id="arrowUp" xlink:href="#dirArrow" transform="translate(30 24)" onmousedown="handlePan(0,-1)">
                  <use xlink:href="#rim" fill="#404040">
                        <set attributeName="fill" to="#808080" begin="arrowUp.mouseover" end="arrowUp.mouseout"/>
                  </use>
                  <path fill="none" stroke="white" stroke-width="1.5" d="M0,-3.0v7 M-2.5,-0.5L0,-3.0L2.5,-0.5"/>
                </g>
                <g id="arrowRight" xlink:href="#dirArrow" transform="rotate(90) translate(36 -43)" onmousedown="handlePan(1,0)">
                  <use xlink:href="#rim" fill="#404040">
                        <set attributeName="fill" to="#808080" begin="arrowRight.mouseover" end="arrowRight.mouseout"/>
                  </use>
                  <path fill="none" stroke="white" stroke-width="1.5" d="M0,-3.0v7 M-2.5,-0.5L0,-3.0L2.5,-0.5"/>
                </g>
                <g id="arrowDown" xlink:href="#dirArrow" transform="rotate(180) translate(-30 -48)" onmousedown="handlePan(0,1)">
                  <use xlink:href="#rim" fill="#404040">
                        <set attributeName="fill" to="#808080" begin="arrowDown.mouseover" end="arrowDown.mouseout"/>
                  </use>
                  <path fill="none" stroke="white" stroke-width="1.5" d="M0,-3.0v7 M-2.5,-0.5L0,-3.0L2.5,-0.5"/>
                </g>
                <g id="arrowLeft" xlink:href="#dirArrow" transform="rotate(270) translate(-36 17)" onmousedown="handlePan(-1,0)">
                  <use xlink:href="#rim" fill="#404040">
                        <set attributeName="fill" to="#808080" begin="arrowLeft.mouseover" end="arrowLeft.mouseout"/>
                  </use>
                  <path fill="none" stroke="white" stroke-width="1.5" d="M0,-3.0v7 M-2.5,-0.5L0,-3.0L2.5,-0.5"/>
                </g>
        </g>
        <svg viewBox="0 0 15 15" width="100%" height="30px" preserveAspectRatio="xMaxYMin meet">
         <g id="arrow_out" transform="scale(0.3 0.3)">
          <a xlink:href="ts2000__lib_8h__incl_org.svg" target="_base">
           <rect id="button" ry="5" rx="5" y="6" x="6" height="38" width="38"
                fill="#f2f5e9" fill-opacity="0.5" stroke="#606060" stroke-width="1.0"/>
           <path id="arrow"
             d="M 11.500037,31.436501 C 11.940474,20.09759 22.043105,11.32322 32.158766,21.979434 L 37.068811,17.246167 C 37.068811,17.246167 37.088388,32 37.088388,32 L 22.160133,31.978069 C 22.160133,31.978069 26.997745,27.140456 26.997745,27.140456 C 18.528582,18.264221 13.291696,25.230495 11.500037,31.436501 z"
             style="fill:#404040;"/>
          </a>
         </g>
        </svg>
</svg>
