<?xml version="1.0" encoding="UTF-8" standalone="no"?>
<!DOCTYPE svg PUBLIC "-//W3C//DTD SVG 1.1//EN"
 "http://www.w3.org/Graphics/SVG/1.1/DTD/svg11.dtd">
<!-- Generated by graphviz version 2.38.0 (20140413.2041)
 -->
<!-- Title: types.h Pages: 1 -->
<svg width="1779pt" height="196pt"
 viewBox="0.00 0.00 1778.55 196.00" xmlns="http://www.w3.org/2000/svg" xmlns:xlink="http://www.w3.org/1999/xlink">
<g id="graph0" class="graph" transform="scale(1 1) rotate(0) translate(4 192)">
<title>types.h</title>
<polygon fill="white" stroke="none" points="-4,4 -4,-192 1774.55,-192 1774.55,4 -4,4"/>
<!-- Node1 -->
<g id="node1" class="node"><title>Node1</title>
<polygon fill="#bfbfbf" stroke="black" points="601.5,-168.5 601.5,-187.5 650.5,-187.5 650.5,-168.5 601.5,-168.5"/>
<text text-anchor="middle" x="626" y="-175.5" font-family="Helvetica,sans-Serif" font-size="10.00">types.h</text>
</g>
<!-- Node2 -->
<g id="node2" class="node"><title>Node2</title>
<g id="a_node2"><a xlink:href="config_cosmos_8h.html" target="_top" xlink:title="Headers and definitions common to all COSMOS. ">
<polygon fill="white" stroke="black" points="774.5,-112.5 774.5,-131.5 897.5,-131.5 897.5,-112.5 774.5,-112.5"/>
<text text-anchor="middle" x="836" y="-119.5" font-family="Helvetica,sans-Serif" font-size="10.00">support/configCosmos.h</text>
</a>
</g>
</g>
<!-- Node1&#45;&gt;Node2 -->
<g id="edge1" class="edge"><title>Node1&#45;&gt;Node2</title>
<path fill="none" stroke="midnightblue" d="M650.501,-170.7C685.358,-161.737 749.796,-145.167 792.785,-134.112"/>
<polygon fill="midnightblue" stroke="midnightblue" points="793.872,-137.447 802.685,-131.567 792.128,-130.667 793.872,-137.447"/>
</g>
<!-- Node12 -->
<g id="node12" class="node"><title>Node12</title>
<polygon fill="white" stroke="#bfbfbf" points="0,-56.5 0,-75.5 44,-75.5 44,-56.5 0,-56.5"/>
<text text-anchor="middle" x="22" y="-63.5" font-family="Helvetica,sans-Serif" font-size="10.00">cmath</text>
</g>
<!-- Node1&#45;&gt;Node12 -->
<g id="edge43" class="edge"><title>Node1&#45;&gt;Node12</title>
<path fill="none" stroke="midnightblue" d="M601.234,-173.613C522.494,-162.638 270.832,-125.987 54.2364,-76.0893"/>
<polygon fill="midnightblue" stroke="midnightblue" points="54.8074,-72.6289 44.2752,-73.7792 53.226,-79.4479 54.8074,-72.6289"/>
</g>
<!-- Node14 -->
<g id="node14" class="node"><title>Node14</title>
<polygon fill="white" stroke="#bfbfbf" points="62,-56.5 62,-75.5 116,-75.5 116,-56.5 62,-56.5"/>
<text text-anchor="middle" x="89" y="-63.5" font-family="Helvetica,sans-Serif" font-size="10.00">iostream</text>
</g>
<!-- Node1&#45;&gt;Node14 -->
<g id="edge44" class="edge"><title>Node1&#45;&gt;Node14</title>
<path fill="none" stroke="midnightblue" d="M601.332,-169.484C557.136,-156.249 461.369,-128.616 379,-112 270.4,-90.092 238.686,-97.4051 126.112,-76.0294"/>
<polygon fill="midnightblue" stroke="midnightblue" points="126.542,-72.5477 116.059,-74.0859 125.213,-79.4205 126.542,-72.5477"/>
</g>
<!-- Node22 -->
<g id="node22" class="node"><title>Node22</title>
<polygon fill="white" stroke="#bfbfbf" points="1110,-0.5 1110,-19.5 1154,-19.5 1154,-0.5 1110,-0.5"/>
<text text-anchor="middle" x="1132" y="-7.5" font-family="Helvetica,sans-Serif" font-size="10.00">vector</text>
</g>
<!-- Node1&#45;&gt;Node22 -->
<g id="edge45" class="edge"><title>Node1&#45;&gt;Node22</title>
<path fill="none" stroke="midnightblue" d="M650.57,-176.762C809.488,-174.978 1687.94,-161.282 1766,-76 1772,-69.4431 1772.09,-62.4706 1766,-56 1720.13,-7.30266 1231.01,-30.8587 1165,-20 1164.67,-19.9458 1164.34,-19.8896 1164.01,-19.8316"/>
<polygon fill="midnightblue" stroke="midnightblue" points="1164.74,-16.4094 1154.23,-17.7315 1163.27,-23.2534 1164.74,-16.4094"/>
</g>
<!-- Node3 -->
<g id="node3" class="node"><title>Node3</title>
<polygon fill="white" stroke="#bfbfbf" points="1107.5,-56.5 1107.5,-75.5 1152.5,-75.5 1152.5,-56.5 1107.5,-56.5"/>
<text text-anchor="middle" x="1130" y="-63.5" font-family="Helvetica,sans-Serif" font-size="10.00">climits</text>
</g>
<!-- Node2&#45;&gt;Node3 -->
<g id="edge2" class="edge"><title>Node2&#45;&gt;Node3</title>
<path fill="none" stroke="midnightblue" d="M890.844,-112.461C943.013,-104.088 1023.61,-90.4984 1093,-76 1094.46,-75.6958 1095.94,-75.3755 1097.44,-75.0444"/>
<polygon fill="midnightblue" stroke="midnightblue" points="1098.4,-78.4156 1107.35,-72.756 1096.82,-71.5949 1098.4,-78.4156"/>
</g>
<!-- Node4 -->
<g id="node4" class="node"><title>Node4</title>
<polygon fill="white" stroke="#bfbfbf" points="1253.5,-56.5 1253.5,-75.5 1300.5,-75.5 1300.5,-56.5 1253.5,-56.5"/>
<text text-anchor="middle" x="1277" y="-63.5" font-family="Helvetica,sans-Serif" font-size="10.00">csignal</text>
</g>
<!-- Node2&#45;&gt;Node4 -->
<g id="edge3" class="edge"><title>Node2&#45;&gt;Node4</title>
<path fill="none" stroke="midnightblue" d="M897.618,-117.218C975.856,-111.746 1115.07,-99.7755 1243.31,-75.8328"/>
<polygon fill="midnightblue" stroke="midnightblue" points="1244.14,-79.2386 1253.31,-73.9371 1242.83,-72.3611 1244.14,-79.2386"/>
</g>
<!-- Node5 -->
<g id="node5" class="node"><title>Node5</title>
<polygon fill="white" stroke="#bfbfbf" points="1319,-56.5 1319,-75.5 1365,-75.5 1365,-56.5 1319,-56.5"/>
<text text-anchor="middle" x="1342" y="-63.5" font-family="Helvetica,sans-Serif" font-size="10.00">cstdint</text>
</g>
<!-- Node2&#45;&gt;Node5 -->
<g id="edge4" class="edge"><title>Node2&#45;&gt;Node5</title>
<path fill="none" stroke="midnightblue" d="M897.849,-118.67C986.861,-114.538 1156.25,-103.76 1308.68,-75.9339"/>
<polygon fill="midnightblue" stroke="midnightblue" points="1309.5,-79.3415 1318.7,-74.0763 1308.22,-72.4589 1309.5,-79.3415"/>
</g>
<!-- Node6 -->
<g id="node6" class="node"><title>Node6</title>
<polygon fill="white" stroke="#bfbfbf" points="1383,-56.5 1383,-75.5 1439,-75.5 1439,-56.5 1383,-56.5"/>
<text text-anchor="middle" x="1411" y="-63.5" font-family="Helvetica,sans-Serif" font-size="10.00">cinttypes</text>
</g>
<!-- Node2&#45;&gt;Node6 -->
<g id="edge5" class="edge"><title>Node2&#45;&gt;Node6</title>
<path fill="none" stroke="midnightblue" d="M897.698,-118.951C996.239,-114.996 1195.28,-104.212 1372.77,-75.9557"/>
<polygon fill="midnightblue" stroke="midnightblue" points="1373.5,-79.3835 1382.81,-74.3343 1372.38,-72.473 1373.5,-79.3835"/>
</g>
<!-- Node7 -->
<g id="node7" class="node"><title>Node7</title>
<polygon fill="white" stroke="#bfbfbf" points="1457.5,-56.5 1457.5,-75.5 1500.5,-75.5 1500.5,-56.5 1457.5,-56.5"/>
<text text-anchor="middle" x="1479" y="-63.5" font-family="Helvetica,sans-Serif" font-size="10.00">cstdio</text>
</g>
<!-- Node2&#45;&gt;Node7 -->
<g id="edge6" class="edge"><title>Node2&#45;&gt;Node7</title>
<path fill="none" stroke="midnightblue" d="M897.772,-120.709C1007,-119.27 1241.33,-112.028 1447.36,-75.688"/>
<polygon fill="midnightblue" stroke="midnightblue" points="1448.23,-79.0875 1457.46,-73.8791 1447,-72.1971 1448.23,-79.0875"/>
</g>
<!-- Node8 -->
<g id="node8" class="node"><title>Node8</title>
<polygon fill="white" stroke="#bfbfbf" points="1518.5,-56.5 1518.5,-75.5 1567.5,-75.5 1567.5,-56.5 1518.5,-56.5"/>
<text text-anchor="middle" x="1543" y="-63.5" font-family="Helvetica,sans-Serif" font-size="10.00">cstddef</text>
</g>
<!-- Node2&#45;&gt;Node8 -->
<g id="edge7" class="edge"><title>Node2&#45;&gt;Node8</title>
<path fill="none" stroke="midnightblue" d="M897.812,-120.979C1015.31,-120.049 1278.92,-113.693 1508.06,-76.02"/>
<polygon fill="midnightblue" stroke="midnightblue" points="1508.96,-79.4169 1518.25,-74.319 1507.81,-72.5124 1508.96,-79.4169"/>
</g>
<!-- Node9 -->
<g id="node9" class="node"><title>Node9</title>
<polygon fill="white" stroke="#bfbfbf" points="1585.5,-56.5 1585.5,-75.5 1630.5,-75.5 1630.5,-56.5 1585.5,-56.5"/>
<text text-anchor="middle" x="1608" y="-63.5" font-family="Helvetica,sans-Serif" font-size="10.00">cstdlib</text>
</g>
<!-- Node2&#45;&gt;Node9 -->
<g id="edge8" class="edge"><title>Node2&#45;&gt;Node9</title>
<path fill="none" stroke="midnightblue" d="M897.527,-121.849C1023.51,-122.597 1319.83,-119.281 1575.24,-75.9335"/>
<polygon fill="midnightblue" stroke="midnightblue" points="1576.19,-79.321 1585.45,-74.1746 1575,-72.4225 1576.19,-79.321"/>
</g>
<!-- Node10 -->
<g id="node10" class="node"><title>Node10</title>
<polygon fill="white" stroke="#bfbfbf" points="1649,-56.5 1649,-75.5 1693,-75.5 1693,-56.5 1649,-56.5"/>
<text text-anchor="middle" x="1671" y="-63.5" font-family="Helvetica,sans-Serif" font-size="10.00">cerrno</text>
</g>
<!-- Node2&#45;&gt;Node10 -->
<g id="edge9" class="edge"><title>Node2&#45;&gt;Node10</title>
<path fill="none" stroke="midnightblue" d="M897.709,-119.355C1056.76,-114.833 1478.8,-100.969 1638.65,-75.7775"/>
<polygon fill="midnightblue" stroke="midnightblue" points="1639.49,-79.1849 1648.79,-74.1018 1638.35,-72.2785 1639.49,-79.1849"/>
</g>
<!-- Node11 -->
<g id="node11" class="node"><title>Node11</title>
<polygon fill="white" stroke="#bfbfbf" points="1711,-56.5 1711,-75.5 1757,-75.5 1757,-56.5 1711,-56.5"/>
<text text-anchor="middle" x="1734" y="-63.5" font-family="Helvetica,sans-Serif" font-size="10.00">cstring</text>
</g>
<!-- Node2&#45;&gt;Node11 -->
<g id="edge10" class="edge"><title>Node2&#45;&gt;Node11</title>
<path fill="none" stroke="midnightblue" d="M897.768,-119.574C1065.6,-115.42 1528.39,-102.043 1700.77,-75.7792"/>
<polygon fill="midnightblue" stroke="midnightblue" points="1701.39,-79.2237 1710.72,-74.1943 1700.29,-72.3109 1701.39,-79.2237"/>
</g>
<!-- Node2&#45;&gt;Node12 -->
<g id="edge11" class="edge"><title>Node2&#45;&gt;Node12</title>
<path fill="none" stroke="midnightblue" d="M774.46,-119.253C618.612,-114.55 210.29,-100.408 54.5407,-75.8099"/>
<polygon fill="midnightblue" stroke="midnightblue" points="54.6486,-72.2801 44.2109,-74.0977 53.5039,-79.1859 54.6486,-72.2801"/>
</g>
<!-- Node13 -->
<g id="node13" class="node"><title>Node13</title>
<polygon fill="white" stroke="#bfbfbf" points="134.5,-56.5 134.5,-75.5 179.5,-75.5 179.5,-56.5 134.5,-56.5"/>
<text text-anchor="middle" x="157" y="-63.5" font-family="Helvetica,sans-Serif" font-size="10.00">iosfwd</text>
</g>
<!-- Node2&#45;&gt;Node13 -->
<g id="edge12" class="edge"><title>Node2&#45;&gt;Node13</title>
<path fill="none" stroke="midnightblue" d="M774.393,-120.894C660.52,-119.791 409.477,-113.118 189.704,-75.7187"/>
<polygon fill="midnightblue" stroke="midnightblue" points="190.044,-72.2256 179.594,-73.9724 188.852,-79.1234 190.044,-72.2256"/>
</g>
<!-- Node2&#45;&gt;Node14 -->
<g id="edge13" class="edge"><title>Node2&#45;&gt;Node14</title>
<path fill="none" stroke="midnightblue" d="M774.25,-120.854C652.067,-119.749 370.848,-113.154 126.172,-75.8821"/>
<polygon fill="midnightblue" stroke="midnightblue" points="126.436,-72.3815 116.019,-74.3145 125.368,-79.2995 126.436,-72.3815"/>
</g>
<!-- Node15 -->
<g id="node15" class="node"><title>Node15</title>
<polygon fill="white" stroke="#bfbfbf" points="198,-56.5 198,-75.5 250,-75.5 250,-56.5 198,-56.5"/>
<text text-anchor="middle" x="224" y="-63.5" font-family="Helvetica,sans-Serif" font-size="10.00">sstream</text>
</g>
<!-- Node2&#45;&gt;Node15 -->
<g id="edge14" class="edge"><title>Node2&#45;&gt;Node15</title>
<path fill="none" stroke="midnightblue" d="M774.091,-119.696C669.796,-116.728 452.437,-107.232 260.269,-75.9297"/>
<polygon fill="midnightblue" stroke="midnightblue" points="260.705,-72.4545 250.269,-74.2771 259.564,-79.3608 260.705,-72.4545"/>
</g>
<!-- Node16 -->
<g id="node16" class="node"><title>Node16</title>
<polygon fill="white" stroke="#bfbfbf" points="268.5,-56.5 268.5,-75.5 309.5,-75.5 309.5,-56.5 268.5,-56.5"/>
<text text-anchor="middle" x="289" y="-63.5" font-family="Helvetica,sans-Serif" font-size="10.00">regex</text>
</g>
<!-- Node2&#45;&gt;Node16 -->
<g id="edge15" class="edge"><title>Node2&#45;&gt;Node16</title>
<path fill="none" stroke="midnightblue" d="M774.16,-119.696C678.463,-116.783 488.778,-107.449 319.362,-75.6374"/>
<polygon fill="midnightblue" stroke="midnightblue" points="319.998,-72.1957 309.519,-73.7593 318.686,-79.0716 319.998,-72.1957"/>
</g>
<!-- Node17 -->
<g id="node17" class="node"><title>Node17</title>
<polygon fill="white" stroke="#bfbfbf" points="328,-56.5 328,-75.5 378,-75.5 378,-56.5 328,-56.5"/>
<text text-anchor="middle" x="353" y="-63.5" font-family="Helvetica,sans-Serif" font-size="10.00">iomanip</text>
</g>
<!-- Node2&#45;&gt;Node17 -->
<g id="edge16" class="edge"><title>Node2&#45;&gt;Node17</title>
<path fill="none" stroke="midnightblue" d="M774.2,-117.919C689.181,-112.992 531.313,-101.376 388.005,-75.9114"/>
<polygon fill="midnightblue" stroke="midnightblue" points="388.613,-72.4647 378.151,-74.1341 387.371,-79.3535 388.613,-72.4647"/>
</g>
<!-- Node18 -->
<g id="node18" class="node"><title>Node18</title>
<polygon fill="white" stroke="#bfbfbf" points="396.5,-56.5 396.5,-75.5 447.5,-75.5 447.5,-56.5 396.5,-56.5"/>
<text text-anchor="middle" x="422" y="-63.5" font-family="Helvetica,sans-Serif" font-size="10.00">unistd.h</text>
</g>
<!-- Node2&#45;&gt;Node18 -->
<g id="edge17" class="edge"><title>Node2&#45;&gt;Node18</title>
<path fill="none" stroke="midnightblue" d="M774.241,-116.218C700.967,-109.975 575.009,-97.4526 457.422,-75.8289"/>
<polygon fill="midnightblue" stroke="midnightblue" points="457.998,-72.3761 447.526,-73.9836 456.715,-79.2575 457.998,-72.3761"/>
</g>
<!-- Node19 -->
<g id="node19" class="node"><title>Node19</title>
<polygon fill="white" stroke="#bfbfbf" points="466,-56.5 466,-75.5 510,-75.5 510,-56.5 466,-56.5"/>
<text text-anchor="middle" x="488" y="-63.5" font-family="Helvetica,sans-Serif" font-size="10.00">fcntl.h</text>
</g>
<!-- Node2&#45;&gt;Node19 -->
<g id="edge18" class="edge"><title>Node2&#45;&gt;Node19</title>
<path fill="none" stroke="midnightblue" d="M774.479,-114.878C712.471,-108.12 613.923,-95.7801 520.187,-75.9981"/>
<polygon fill="midnightblue" stroke="midnightblue" points="520.766,-72.5429 510.255,-73.8699 519.3,-79.3876 520.766,-72.5429"/>
</g>
<!-- Node20 -->
<g id="node20" class="node"><title>Node20</title>
<polygon fill="white" stroke="#bfbfbf" points="528,-56.5 528,-75.5 568,-75.5 568,-56.5 528,-56.5"/>
<text text-anchor="middle" x="548" y="-63.5" font-family="Helvetica,sans-Serif" font-size="10.00">limits</text>
</g>
<!-- Node2&#45;&gt;Node20 -->
<g id="edge19" class="edge"><title>Node2&#45;&gt;Node20</title>
<path fill="none" stroke="midnightblue" d="M780.241,-112.494C728.602,-104.292 649.786,-90.9491 582,-76 580.725,-75.7189 579.427,-75.422 578.117,-75.1139"/>
<polygon fill="midnightblue" stroke="midnightblue" points="578.618,-71.6318 568.068,-72.6091 576.925,-78.424 578.618,-71.6318"/>
</g>
<!-- Node21 -->
<g id="node21" class="node"><title>Node21</title>
<polygon fill="white" stroke="#bfbfbf" points="1046.5,-0.5 1046.5,-19.5 1087.5,-19.5 1087.5,-0.5 1046.5,-0.5"/>
<text text-anchor="middle" x="1067" y="-7.5" font-family="Helvetica,sans-Serif" font-size="10.00">string</text>
</g>
<!-- Node2&#45;&gt;Node21 -->
<g id="edge20" class="edge"><title>Node2&#45;&gt;Node21</title>
<path fill="none" stroke="midnightblue" d="M878.429,-112.497C908.923,-105.354 950.408,-93.4784 984,-76 1009.44,-62.763 1034.83,-41.3795 1050.7,-26.7806"/>
<polygon fill="midnightblue" stroke="midnightblue" points="1053.2,-29.2423 1058.09,-19.8439 1048.4,-24.141 1053.2,-29.2423"/>
</g>
<!-- Node2&#45;&gt;Node22 -->
<g id="edge21" class="edge"><title>Node2&#45;&gt;Node22</title>
<path fill="none" stroke="midnightblue" d="M882.184,-112.441C918.261,-104.986 969.273,-92.7381 1012,-76 1047.87,-61.9479 1086.58,-39.5243 1110.06,-25.0323"/>
<polygon fill="midnightblue" stroke="midnightblue" points="1112.22,-27.8064 1118.85,-19.5366 1108.51,-21.8715 1112.22,-27.8064"/>
</g>
<!-- Node23 -->
<g id="node23" class="node"><title>Node23</title>
<polygon fill="white" stroke="#bfbfbf" points="662.5,-56.5 662.5,-75.5 703.5,-75.5 703.5,-56.5 662.5,-56.5"/>
<text text-anchor="middle" x="683" y="-63.5" font-family="Helvetica,sans-Serif" font-size="10.00">stack</text>
</g>
<!-- Node2&#45;&gt;Node23 -->
<g id="edge22" class="edge"><title>Node2&#45;&gt;Node23</title>
<path fill="none" stroke="midnightblue" d="M811.757,-112.444C785.074,-103.026 742.145,-87.8746 713.272,-77.6842"/>
<polygon fill="midnightblue" stroke="midnightblue" points="714.29,-74.332 703.695,-74.3042 711.96,-80.9329 714.29,-74.332"/>
</g>
<!-- Node24 -->
<g id="node24" class="node"><title>Node24</title>
<polygon fill="white" stroke="#bfbfbf" points="721.5,-56.5 721.5,-75.5 764.5,-75.5 764.5,-56.5 721.5,-56.5"/>
<text text-anchor="middle" x="743" y="-63.5" font-family="Helvetica,sans-Serif" font-size="10.00">deque</text>
</g>
<!-- Node2&#45;&gt;Node24 -->
<g id="edge23" class="edge"><title>Node2&#45;&gt;Node24</title>
<path fill="none" stroke="midnightblue" d="M821.058,-112.324C806.415,-103.822 783.866,-90.7288 766.762,-80.7975"/>
<polygon fill="midnightblue" stroke="midnightblue" points="768.31,-77.6491 757.905,-75.6545 764.795,-83.7027 768.31,-77.6491"/>
</g>
<!-- Node25 -->
<g id="node25" class="node"><title>Node25</title>
<polygon fill="white" stroke="#bfbfbf" points="586,-0.5 586,-19.5 630,-19.5 630,-0.5 586,-0.5"/>
<text text-anchor="middle" x="608" y="-7.5" font-family="Helvetica,sans-Serif" font-size="10.00">mutex</text>
</g>
<!-- Node2&#45;&gt;Node25 -->
<g id="edge24" class="edge"><title>Node2&#45;&gt;Node25</title>
<path fill="none" stroke="midnightblue" d="M774.339,-118.949C734.064,-114.802 682.234,-103.858 645,-76 629.439,-64.3571 619.426,-44.1099 613.793,-29.2994"/>
<polygon fill="midnightblue" stroke="midnightblue" points="617.038,-27.9734 610.449,-19.6766 610.426,-30.2714 617.038,-27.9734"/>
</g>
<!-- Node26 -->
<g id="node26" class="node"><title>Node26</title>
<polygon fill="white" stroke="#bfbfbf" points="671,-0.5 671,-19.5 715,-19.5 715,-0.5 671,-0.5"/>
<text text-anchor="middle" x="693" y="-7.5" font-family="Helvetica,sans-Serif" font-size="10.00">thread</text>
</g>
<!-- Node2&#45;&gt;Node26 -->
<g id="edge25" class="edge"><title>Node2&#45;&gt;Node26</title>
<path fill="none" stroke="midnightblue" d="M774.082,-113.857C727.357,-107.042 668.847,-94.9656 654,-76 641.496,-60.0281 658.187,-39.7264 673.449,-26.0984"/>
<polygon fill="midnightblue" stroke="midnightblue" points="675.733,-28.7509 681.138,-19.6385 671.23,-23.3913 675.733,-28.7509"/>
</g>
<!-- Node27 -->
<g id="node27" class="node"><title>Node27</title>
<polygon fill="white" stroke="#bfbfbf" points="748.5,-0.5 748.5,-19.5 843.5,-19.5 843.5,-0.5 748.5,-0.5"/>
<text text-anchor="middle" x="796" y="-7.5" font-family="Helvetica,sans-Serif" font-size="10.00">condition_variable</text>
</g>
<!-- Node2&#45;&gt;Node27 -->
<g id="edge26" class="edge"><title>Node2&#45;&gt;Node27</title>
<path fill="none" stroke="midnightblue" d="M830.543,-112.343C825.174,-103.501 817.065,-89.2301 812,-76 806.215,-60.8902 801.99,-42.9912 799.339,-29.8053"/>
<polygon fill="midnightblue" stroke="midnightblue" points="802.711,-28.7961 797.416,-19.6195 795.832,-30.0953 802.711,-28.7961"/>
</g>
<!-- Node28 -->
<g id="node28" class="node"><title>Node28</title>
<polygon fill="white" stroke="#bfbfbf" points="917.5,-0.5 917.5,-19.5 960.5,-19.5 960.5,-0.5 917.5,-0.5"/>
<text text-anchor="middle" x="939" y="-7.5" font-family="Helvetica,sans-Serif" font-size="10.00">queue</text>
</g>
<!-- Node2&#45;&gt;Node28 -->
<g id="edge27" class="edge"><title>Node2&#45;&gt;Node28</title>
<path fill="none" stroke="midnightblue" d="M889.319,-112.431C910.656,-106.1 933.177,-95.101 946,-76 955.175,-62.3332 951.708,-43.2897 946.978,-29.3479"/>
<polygon fill="midnightblue" stroke="midnightblue" points="950.177,-27.9168 943.303,-19.8546 943.649,-30.4438 950.177,-27.9168"/>
</g>
<!-- Node29 -->
<g id="node29" class="node"><title>Node29</title>
<polygon fill="white" stroke="#bfbfbf" points="985.5,-0.5 985.5,-19.5 1020.5,-19.5 1020.5,-0.5 985.5,-0.5"/>
<text text-anchor="middle" x="1003" y="-7.5" font-family="Helvetica,sans-Serif" font-size="10.00">map</text>
</g>
<!-- Node2&#45;&gt;Node29 -->
<g id="edge28" class="edge"><title>Node2&#45;&gt;Node29</title>
<path fill="none" stroke="midnightblue" d="M881.598,-112.444C907.298,-105.842 938.798,-94.5921 962,-76 977.416,-63.647 988.715,-43.84 995.502,-29.3335"/>
<polygon fill="midnightblue" stroke="midnightblue" points="998.832,-30.4537 999.641,-19.8897 992.421,-27.6436 998.832,-30.4537"/>
</g>
<!-- Node30 -->
<g id="node30" class="node"><title>Node30</title>
<g id="a_node30"><a xlink:href="cosmos-defs_8h.html" target="_top" xlink:title="COSMOS definitions Definitions specific to the COSMOS environement. ">
<polygon fill="white" stroke="black" points="821,-56.5 821,-75.5 937,-75.5 937,-56.5 821,-56.5"/>
<text text-anchor="middle" x="879" y="-63.5" font-family="Helvetica,sans-Serif" font-size="10.00">support/cosmos&#45;defs.h</text>
</a>
</g>
</g>
<!-- Node2&#45;&gt;Node30 -->
<g id="edge29" class="edge"><title>Node2&#45;&gt;Node30</title>
<path fill="none" stroke="midnightblue" d="M843.101,-112.083C849.237,-104.377 858.27,-93.0333 865.739,-83.6531"/>
<polygon fill="midnightblue" stroke="midnightblue" points="868.54,-85.7542 872.032,-75.7511 863.064,-81.3936 868.54,-85.7542"/>
</g>
<!-- Node32 -->
<g id="node32" class="node"><title>Node32</title>
<g id="a_node32"><a xlink:href="json11_8hpp.html" target="_top" xlink:title="json11.hpp">
<polygon fill="white" stroke="black" points="1171,-56.5 1171,-75.5 1235,-75.5 1235,-56.5 1171,-56.5"/>
<text text-anchor="middle" x="1203" y="-63.5" font-family="Helvetica,sans-Serif" font-size="10.00">json11.hpp</text>
</a>
</g>
</g>
<!-- Node2&#45;&gt;Node32 -->
<g id="edge37" class="edge"><title>Node2&#45;&gt;Node32</title>
<path fill="none" stroke="midnightblue" d="M897.513,-113.977C961.043,-106.393 1063.25,-93.2714 1160.79,-76.0991"/>
<polygon fill="midnightblue" stroke="midnightblue" points="1161.59,-79.5122 1170.82,-74.3156 1160.36,-72.6203 1161.59,-79.5122"/>
</g>
<!-- Node30&#45;&gt;Node22 -->
<g id="edge31" class="edge"><title>Node30&#45;&gt;Node22</title>
<path fill="none" stroke="midnightblue" d="M923.394,-56.4863C967.542,-47.8671 1037.14,-33.8662 1097,-20 1097.91,-19.7894 1098.83,-19.5729 1099.76,-19.3518"/>
<polygon fill="midnightblue" stroke="midnightblue" points="1100.95,-22.6641 1109.82,-16.8746 1099.27,-15.8671 1100.95,-22.6641"/>
</g>
<!-- Node30&#45;&gt;Node25 -->
<g id="edge35" class="edge"><title>Node30&#45;&gt;Node25</title>
<path fill="none" stroke="midnightblue" d="M836.059,-56.4435C781.554,-45.5826 688.773,-27.0949 640.05,-17.3864"/>
<polygon fill="midnightblue" stroke="midnightblue" points="640.561,-13.9193 630.069,-15.3976 639.193,-20.7844 640.561,-13.9193"/>
</g>
<!-- Node30&#45;&gt;Node26 -->
<g id="edge34" class="edge"><title>Node30&#45;&gt;Node26</title>
<path fill="none" stroke="midnightblue" d="M849.528,-56.4435C815.498,-46.5639 759.731,-30.3734 724.76,-20.2208"/>
<polygon fill="midnightblue" stroke="midnightblue" points="725.633,-16.8296 715.053,-17.4026 723.681,-23.552 725.633,-16.8296"/>
</g>
<!-- Node30&#45;&gt;Node27 -->
<g id="edge36" class="edge"><title>Node30&#45;&gt;Node27</title>
<path fill="none" stroke="midnightblue" d="M865.665,-56.324C852.838,-47.979 833.215,-35.2122 818.06,-25.3524"/>
<polygon fill="midnightblue" stroke="midnightblue" points="819.593,-22.1742 809.302,-19.6545 815.776,-28.0417 819.593,-22.1742"/>
</g>
<!-- Node30&#45;&gt;Node28 -->
<g id="edge33" class="edge"><title>Node30&#45;&gt;Node28</title>
<path fill="none" stroke="midnightblue" d="M888.64,-56.324C897.51,-48.3414 910.875,-36.3128 921.608,-26.6529"/>
<polygon fill="midnightblue" stroke="midnightblue" points="924.093,-29.1251 929.185,-19.8339 919.41,-23.922 924.093,-29.1251"/>
</g>
<!-- Node30&#45;&gt;Node29 -->
<g id="edge30" class="edge"><title>Node30&#45;&gt;Node29</title>
<path fill="none" stroke="midnightblue" d="M898.648,-56.4435C919.562,-47.3359 952.792,-32.865 976.121,-22.7053"/>
<polygon fill="midnightblue" stroke="midnightblue" points="977.678,-25.845 985.449,-18.6433 974.883,-19.4271 977.678,-25.845"/>
</g>
<!-- Node31 -->
<g id="node31" class="node"><title>Node31</title>
<polygon fill="white" stroke="#bfbfbf" points="864.5,-0.5 864.5,-19.5 893.5,-19.5 893.5,-0.5 864.5,-0.5"/>
<text text-anchor="middle" x="879" y="-7.5" font-family="Helvetica,sans-Serif" font-size="10.00">list</text>
</g>
<!-- Node30&#45;&gt;Node31 -->
<g id="edge32" class="edge"><title>Node30&#45;&gt;Node31</title>
<path fill="none" stroke="midnightblue" d="M879,-56.083C879,-49.0059 879,-38.8611 879,-29.9865"/>
<polygon fill="midnightblue" stroke="midnightblue" points="882.5,-29.751 879,-19.7511 875.5,-29.7511 882.5,-29.751"/>
</g>
<!-- Node32&#45;&gt;Node21 -->
<g id="edge38" class="edge"><title>Node32&#45;&gt;Node21</title>
<path fill="none" stroke="midnightblue" d="M1181.45,-56.4435C1158.7,-47.4121 1122.68,-33.1067 1097.12,-22.9612"/>
<polygon fill="midnightblue" stroke="midnightblue" points="1098.14,-19.6004 1087.56,-19.1629 1095.56,-26.1063 1098.14,-19.6004"/>
</g>
<!-- Node32&#45;&gt;Node22 -->
<g id="edge39" class="edge"><title>Node32&#45;&gt;Node22</title>
<path fill="none" stroke="midnightblue" d="M1191.59,-56.324C1180.89,-48.1849 1164.66,-35.8395 1151.84,-26.0874"/>
<polygon fill="midnightblue" stroke="midnightblue" points="1153.69,-23.1018 1143.61,-19.8339 1149.46,-28.6734 1153.69,-23.1018"/>
</g>
<!-- Node32&#45;&gt;Node29 -->
<g id="edge40" class="edge"><title>Node32&#45;&gt;Node29</title>
<path fill="none" stroke="midnightblue" d="M1171.31,-56.4435C1132.51,-45.9684 1067.44,-28.3987 1030.61,-18.4535"/>
<polygon fill="midnightblue" stroke="midnightblue" points="1031.14,-14.9731 1020.58,-15.7454 1029.32,-21.7311 1031.14,-14.9731"/>
</g>
<!-- Node33 -->
<g id="node33" class="node"><title>Node33</title>
<polygon fill="white" stroke="#bfbfbf" points="1174,-0.5 1174,-19.5 1226,-19.5 1226,-0.5 1174,-0.5"/>
<text text-anchor="middle" x="1200" y="-7.5" font-family="Helvetica,sans-Serif" font-size="10.00">memory</text>
</g>
<!-- Node32&#45;&gt;Node33 -->
<g id="edge41" class="edge"><title>Node32&#45;&gt;Node33</title>
<path fill="none" stroke="midnightblue" d="M1202.5,-56.083C1202.11,-49.0059 1201.55,-38.8611 1201.05,-29.9865"/>
<polygon fill="midnightblue" stroke="midnightblue" points="1204.54,-29.5415 1200.49,-19.7511 1197.55,-29.9299 1204.54,-29.5415"/>
</g>
<!-- Node34 -->
<g id="node34" class="node"><title>Node34</title>
<polygon fill="white" stroke="#bfbfbf" points="1244.5,-0.5 1244.5,-19.5 1317.5,-19.5 1317.5,-0.5 1244.5,-0.5"/>
<text text-anchor="middle" x="1281" y="-7.5" font-family="Helvetica,sans-Serif" font-size="10.00">initializer_list</text>
</g>
<!-- Node32&#45;&gt;Node34 -->
<g id="edge42" class="edge"><title>Node32&#45;&gt;Node34</title>
<path fill="none" stroke="midnightblue" d="M1215.53,-56.324C1227.59,-47.979 1246.03,-35.2122 1260.27,-25.3524"/>
<polygon fill="midnightblue" stroke="midnightblue" points="1262.27,-28.2243 1268.5,-19.6545 1258.28,-22.469 1262.27,-28.2243"/>
</g>
</g>
</svg>
