<?xml version="1.0" encoding="UTF-8" standalone="no"?>
<!DOCTYPE svg PUBLIC "-//W3C//DTD SVG 1.1//EN"
 "http://www.w3.org/Graphics/SVG/1.1/DTD/svg11.dtd">
<!-- Generated by graphviz version 2.38.0 (20140413.2041)
 -->
<!-- Title: large_pool_struct Pages: 1 -->
<svg width="145pt" height="99pt"
 viewBox="0.00 0.00 145.00 99.00" xmlns="http://www.w3.org/2000/svg" xmlns:xlink="http://www.w3.org/1999/xlink">
<g id="graph0" class="graph" transform="scale(1 1) rotate(0) translate(4 95)">
<title>large_pool_struct</title>
<polygon fill="white" stroke="none" points="-4,4 -4,-95 141,-95 141,4 -4,4"/>
<!-- Node1 -->
<g id="node1" class="node"><title>Node1</title>
<polygon fill="#bfbfbf" stroke="black" points="0,-0.5 0,-90.5 91,-90.5 91,-0.5 0,-0.5"/>
<text text-anchor="middle" x="45.5" y="-78.5" font-family="Helvetica,sans-Serif" font-size="10.00">large_pool_struct</text>
<polyline fill="none" stroke="black" points="0,-71.5 91,-71.5 "/>
<text text-anchor="start" x="8" y="-59.5" font-family="Helvetica,sans-Serif" font-size="10.00">+ bytes_used</text>
<text text-anchor="start" x="8" y="-48.5" font-family="Helvetica,sans-Serif" font-size="10.00">+ bytes_left</text>
<text text-anchor="start" x="8" y="-37.5" font-family="Helvetica,sans-Serif" font-size="10.00">+ hdr</text>
<text text-anchor="start" x="8" y="-26.5" font-family="Helvetica,sans-Serif" font-size="10.00">+ dummy</text>
<polyline fill="none" stroke="black" points="0,-19.5 91,-19.5 "/>
<text text-anchor="middle" x="45.5" y="-7.5" font-family="Helvetica,sans-Serif" font-size="10.00"> </text>
</g>
<!-- Node1&#45;&gt;Node1 -->
<g id="edge1" class="edge"><title>Node1&#45;&gt;Node1</title>
<path fill="none" stroke="#404040" d="M91.1646,-61.963C101.466,-60.4799 109,-54.9922 109,-45.5 109,-40.1606 106.616,-36.0883 102.697,-33.2831"/>
<polygon fill="none" stroke="#404040" points="102.426,-33.1833 95.413,-34.8638 91.1646,-29.037 98.1772,-27.3565 102.426,-33.1833"/>
<text text-anchor="middle" x="123" y="-43" font-family="Helvetica,sans-Serif" font-size="10.00"> +next</text>
</g>
</g>
</svg>
