<?xml version="1.0" encoding="UTF-8" standalone="no"?>
<!DOCTYPE svg PUBLIC "-//W3C//DTD SVG 1.1//EN"
 "http://www.w3.org/Graphics/SVG/1.1/DTD/svg11.dtd">
<!-- Generated by graphviz version 2.38.0 (20140413.2041)
 -->
<!-- Title: usrp_lib.h Pages: 1 -->
<svg width="264pt" height="84pt"
 viewBox="0.00 0.00 263.50 84.00" xmlns="http://www.w3.org/2000/svg" xmlns:xlink="http://www.w3.org/1999/xlink">
<g id="graph0" class="graph" transform="scale(1 1) rotate(0) translate(4 80)">
<title>usrp_lib.h</title>
<polygon fill="white" stroke="none" points="-4,4 -4,-80 259.5,-80 259.5,4 -4,4"/>
<!-- Node1 -->
<g id="node1" class="node"><title>Node1</title>
<polygon fill="#bfbfbf" stroke="black" points="101,-56.5 101,-75.5 160,-75.5 160,-56.5 101,-56.5"/>
<text text-anchor="middle" x="130.5" y="-63.5" font-family="Helvetica,sans-Serif" font-size="10.00">usrp_lib.h</text>
</g>
<!-- Node2 -->
<g id="node2" class="node"><title>Node2</title>
<g id="a_node2"><a xlink:href="usrp__lib_8cpp.html" target="_top" xlink:title="usrp_lib.cpp">
<polygon fill="white" stroke="black" points="0,-0.5 0,-19.5 69,-19.5 69,-0.5 0,-0.5"/>
<text text-anchor="middle" x="34.5" y="-7.5" font-family="Helvetica,sans-Serif" font-size="10.00">usrp_lib.cpp</text>
</a>
</g>
</g>
<!-- Node1&#45;&gt;Node2 -->
<g id="edge1" class="edge"><title>Node1&#45;&gt;Node2</title>
<path fill="none" stroke="midnightblue" d="M105.926,-51.1774C88.2612,-41.2407 64.9875,-28.1492 49.8858,-19.6545"/>
<polygon fill="midnightblue" stroke="midnightblue" points="104.644,-54.4718 115.076,-56.324 108.076,-48.3708 104.644,-54.4718"/>
</g>
<!-- Node3 -->
<g id="node3" class="node"><title>Node3</title>
<g id="a_node3"><a xlink:href="agent__radio_8cpp.html" target="_top" xlink:title="Agent Radio for Satellite Ground Station. ">
<polygon fill="white" stroke="black" points="87.5,-0.5 87.5,-19.5 173.5,-19.5 173.5,-0.5 87.5,-0.5"/>
<text text-anchor="middle" x="130.5" y="-7.5" font-family="Helvetica,sans-Serif" font-size="10.00">agent_radio.cpp</text>
</a>
</g>
</g>
<!-- Node1&#45;&gt;Node3 -->
<g id="edge2" class="edge"><title>Node1&#45;&gt;Node3</title>
<path fill="none" stroke="midnightblue" d="M130.5,-45.8045C130.5,-36.9102 130.5,-26.7798 130.5,-19.7511"/>
<polygon fill="midnightblue" stroke="midnightblue" points="127,-46.083 130.5,-56.083 134,-46.083 127,-46.083"/>
</g>
<!-- Node4 -->
<g id="node4" class="node"><title>Node4</title>
<g id="a_node4"><a xlink:href="ic9100_8cpp.html" target="_top" xlink:title="ic9100.cpp">
<polygon fill="white" stroke="black" points="191.5,-0.5 191.5,-19.5 255.5,-19.5 255.5,-0.5 191.5,-0.5"/>
<text text-anchor="middle" x="223.5" y="-7.5" font-family="Helvetica,sans-Serif" font-size="10.00">ic9100.cpp</text>
</a>
</g>
</g>
<!-- Node1&#45;&gt;Node4 -->
<g id="edge3" class="edge"><title>Node1&#45;&gt;Node4</title>
<path fill="none" stroke="midnightblue" d="M154.306,-51.1774C171.419,-41.2407 193.965,-28.1492 208.595,-19.6545"/>
<polygon fill="midnightblue" stroke="midnightblue" points="152.332,-48.2758 145.442,-56.324 155.847,-54.3293 152.332,-48.2758"/>
</g>
</g>
</svg>
