<?xml version="1.0" encoding="UTF-8" standalone="no"?>
<!DOCTYPE svg PUBLIC "-//W3C//DTD SVG 1.1//EN"
 "http://www.w3.org/Graphics/SVG/1.1/DTD/svg11.dtd">
<!-- Generated by graphviz version 2.38.0 (20140413.2041)
 -->
<!-- Title: vector.cpp Pages: 1 -->
<!--zoomable 364 -->
<svg id="main" version="1.1" xmlns="http://www.w3.org/2000/svg" xmlns:xlink="http://www.w3.org/1999/xlink" xml:space="preserve" onload="init(evt)">
<style type="text/css"><![CDATA[
.edge:hover path { stroke: red; }
.edge:hover polygon { stroke: red; fill: red; }
]]></style>
<script type="text/javascript"><![CDATA[
var edges = document.getElementsByTagName('g');
if (edges && edges.length) {
  for (var i=0;i<edges.length;i++) {
    if (edges[i].id.substr(0,4)=='edge') {
      edges[i].setAttribute('class','edge');
    }
  }
}
]]></script>
        <defs>
                <circle id="rim" cx="0" cy="0" r="7"/>
                <circle id="rim2" cx="0" cy="0" r="3.5"/>
                <g id="zoomPlus">
                        <use xlink:href="#rim" fill="#404040">
                                <set attributeName="fill" to="#808080" begin="zoomplus.mouseover" end="zoomplus.mouseout"/>
                        </use>
                        <path d="M-4,0h8M0,-4v8" fill="none" stroke="white" stroke-width="1.5" pointer-events="none"/>
                </g>
                <g id="zoomMin">
                        <use xlink:href="#rim" fill="#404040">
                                <set attributeName="fill" to="#808080" begin="zoomminus.mouseover" end="zoomminus.mouseout"/>
                        </use>
                        <path d="M-4,0h8" fill="none" stroke="white" stroke-width="1.5" pointer-events="none"/>
                </g>
                <g id="dirArrow">
                        <path fill="none" stroke="white" stroke-width="1.5" d="M0,-3.0v7 M-2.5,-0.5L0,-3.0L2.5,-0.5"/>
                </g>
               <g id="resetDef">
                       <use xlink:href="#rim2" fill="#404040">
                               <set attributeName="fill" to="#808080" begin="reset.mouseover" end="reset.mouseout"/>
                       </use>
               </g>
        </defs>

<script type="text/javascript">
var viewWidth = 1777;
var viewHeight = 364;
var sectionId = 'dynsection-0';
</script>
<script xlink:href="svgpan.js"/>
<svg id="graph" class="graph">
<g id="viewport">
<title>vector.cpp</title>
<polygon fill="white" stroke="none" points="-4,4 -4,-360 1773.47,-360 1773.47,4 -4,4"/>
<!-- Node1 -->
<g id="node1" class="node"><title>Node1</title>
<polygon fill="#bfbfbf" stroke="black" points="757.47,-336.5 757.47,-355.5 819.47,-355.5 819.47,-336.5 757.47,-336.5"/>
<text text-anchor="middle" x="788.47" y="-343.5" font-family="Helvetica,sans-Serif" font-size="10.00">vector.cpp</text>
</g>
<!-- Node2 -->
<g id="node2" class="node"><title>Node2</title>
<g id="a_node2"><a xlink:href="vector_8h.html" target="_top" xlink:title="vector.h">
<polygon fill="white" stroke="black" points="789.47,-224.5 789.47,-243.5 841.47,-243.5 841.47,-224.5 789.47,-224.5"/>
<text text-anchor="middle" x="815.47" y="-231.5" font-family="Helvetica,sans-Serif" font-size="10.00">vector.h</text>
</a>
</g>
</g>
<!-- Node1&#45;&gt;Node2 -->
<g id="edge1" class="edge"><title>Node1&#45;&gt;Node2</title>
<path fill="none" stroke="midnightblue" d="M790.589,-336.368C794.946,-318.617 804.997,-277.666 810.905,-253.597"/>
<polygon fill="midnightblue" stroke="midnightblue" points="814.377,-254.137 813.361,-243.591 807.578,-252.469 814.377,-254.137"/>
</g>
<!-- Node37 -->
<g id="node37" class="node"><title>Node37</title>
<g id="a_node37"><a xlink:href="matrix_8h.html" target="_top" xlink:title="matrix.h">
<polygon fill="white" stroke="black" points="735.47,-280.5 735.47,-299.5 787.47,-299.5 787.47,-280.5 735.47,-280.5"/>
<text text-anchor="middle" x="761.47" y="-287.5" font-family="Helvetica,sans-Serif" font-size="10.00">matrix.h</text>
</a>
</g>
</g>
<!-- Node1&#45;&gt;Node37 -->
<g id="edge51" class="edge"><title>Node1&#45;&gt;Node37</title>
<path fill="none" stroke="midnightblue" d="M784.012,-336.083C780.316,-328.691 774.947,-317.953 770.376,-308.811"/>
<polygon fill="midnightblue" stroke="midnightblue" points="773.448,-307.13 765.846,-299.751 767.187,-310.261 773.448,-307.13"/>
</g>
<!-- Node3 -->
<g id="node3" class="node"><title>Node3</title>
<g id="a_node3"><a xlink:href="config_cosmos_8h.html" target="_top" xlink:title="Headers and definitions common to all COSMOS. ">
<polygon fill="white" stroke="black" points="784.97,-112.5 784.97,-131.5 907.97,-131.5 907.97,-112.5 784.97,-112.5"/>
<text text-anchor="middle" x="846.47" y="-119.5" font-family="Helvetica,sans-Serif" font-size="10.00">support/configCosmos.h</text>
</a>
</g>
</g>
<!-- Node2&#45;&gt;Node3 -->
<g id="edge2" class="edge"><title>Node2&#45;&gt;Node3</title>
<path fill="none" stroke="midnightblue" d="M817.903,-224.368C822.928,-206.537 834.55,-165.295 841.321,-141.272"/>
<polygon fill="midnightblue" stroke="midnightblue" points="844.705,-142.166 844.049,-131.591 837.967,-140.267 844.705,-142.166"/>
</g>
<!-- Node13 -->
<g id="node13" class="node"><title>Node13</title>
<polygon fill="white" stroke="#bfbfbf" points="1725.47,-56.5 1725.47,-75.5 1769.47,-75.5 1769.47,-56.5 1725.47,-56.5"/>
<text text-anchor="middle" x="1747.47" y="-63.5" font-family="Helvetica,sans-Serif" font-size="10.00">cmath</text>
</g>
<!-- Node2&#45;&gt;Node13 -->
<g id="edge49" class="edge"><title>Node2&#45;&gt;Node13</title>
<path fill="none" stroke="midnightblue" d="M841.765,-230.015C898.608,-223.448 1037.12,-206.822 1152.47,-188 1282.03,-166.859 1313.72,-157.588 1442.47,-132 1561.17,-108.411 1594.08,-105.916 1715.14,-76.1825"/>
<polygon fill="midnightblue" stroke="midnightblue" points="1716.31,-79.5005 1725.18,-73.706 1714.63,-72.7045 1716.31,-79.5005"/>
</g>
<!-- Node15 -->
<g id="node15" class="node"><title>Node15</title>
<polygon fill="white" stroke="#bfbfbf" points="13.4701,-56.5 13.4701,-75.5 67.4701,-75.5 67.4701,-56.5 13.4701,-56.5"/>
<text text-anchor="middle" x="40.4701" y="-63.5" font-family="Helvetica,sans-Serif" font-size="10.00">iostream</text>
</g>
<!-- Node2&#45;&gt;Node15 -->
<g id="edge47" class="edge"><title>Node2&#45;&gt;Node15</title>
<path fill="none" stroke="midnightblue" d="M789.214,-227.775C694.63,-208.877 362.333,-141.844 77.6774,-76.2191"/>
<polygon fill="midnightblue" stroke="midnightblue" points="78.1031,-72.7254 67.5719,-73.8854 76.5279,-79.5459 78.1031,-72.7254"/>
</g>
<!-- Node18 -->
<g id="node18" class="node"><title>Node18</title>
<polygon fill="white" stroke="#bfbfbf" points="1657.47,-56.5 1657.47,-75.5 1707.47,-75.5 1707.47,-56.5 1657.47,-56.5"/>
<text text-anchor="middle" x="1682.47" y="-63.5" font-family="Helvetica,sans-Serif" font-size="10.00">iomanip</text>
</g>
<!-- Node2&#45;&gt;Node18 -->
<g id="edge48" class="edge"><title>Node2&#45;&gt;Node18</title>
<path fill="none" stroke="midnightblue" d="M841.522,-228.798C943.41,-212.217 1324.76,-148.773 1647.26,-76.1485"/>
<polygon fill="midnightblue" stroke="midnightblue" points="1648.29,-79.506 1657.27,-73.8884 1646.74,-72.6781 1648.29,-79.506"/>
</g>
<!-- Node23 -->
<g id="node23" class="node"><title>Node23</title>
<polygon fill="white" stroke="#bfbfbf" points="674.47,-0.5 674.47,-19.5 718.47,-19.5 718.47,-0.5 674.47,-0.5"/>
<text text-anchor="middle" x="696.47" y="-7.5" font-family="Helvetica,sans-Serif" font-size="10.00">vector</text>
</g>
<!-- Node2&#45;&gt;Node23 -->
<g id="edge50" class="edge"><title>Node2&#45;&gt;Node23</title>
<path fill="none" stroke="midnightblue" d="M789.341,-232.202C661.924,-227.717 107.712,-201.146 4.47008,-76 -1.18657,-69.1433 -1.64175,-62.4543 4.47008,-56 53.2417,-4.49566 555.873,-30.1053 664.245,-19.2256"/>
<polygon fill="midnightblue" stroke="midnightblue" points="664.766,-22.6874 674.232,-17.9284 663.864,-15.7457 664.766,-22.6874"/>
</g>
<!-- Node36 -->
<g id="node36" class="node"><title>Node36</title>
<g id="a_node36"><a xlink:href="math_2constants_8h.html" target="_top" xlink:title="constants.h">
<polygon fill="white" stroke="black" points="843.47,-168.5 843.47,-187.5 911.47,-187.5 911.47,-168.5 843.47,-168.5"/>
<text text-anchor="middle" x="877.47" y="-175.5" font-family="Helvetica,sans-Serif" font-size="10.00">constants.h</text>
</a>
</g>
</g>
<!-- Node2&#45;&gt;Node36 -->
<g id="edge44" class="edge"><title>Node2&#45;&gt;Node36</title>
<path fill="none" stroke="midnightblue" d="M825.431,-224.324C834.597,-216.341 848.407,-204.313 859.498,-194.653"/>
<polygon fill="midnightblue" stroke="midnightblue" points="862.085,-197.041 867.327,-187.834 857.488,-191.762 862.085,-197.041"/>
</g>
<!-- Node4 -->
<g id="node4" class="node"><title>Node4</title>
<polygon fill="white" stroke="#bfbfbf" points="626.97,-56.5 626.97,-75.5 671.97,-75.5 671.97,-56.5 626.97,-56.5"/>
<text text-anchor="middle" x="649.47" y="-63.5" font-family="Helvetica,sans-Serif" font-size="10.00">climits</text>
</g>
<!-- Node3&#45;&gt;Node4 -->
<g id="edge3" class="edge"><title>Node3&#45;&gt;Node4</title>
<path fill="none" stroke="midnightblue" d="M814.29,-112.459C782.84,-104.071 733.353,-90.767 682.076,-76.4192"/>
<polygon fill="midnightblue" stroke="midnightblue" points="682.717,-72.9641 672.144,-73.6332 680.827,-79.704 682.717,-72.9641"/>
</g>
<!-- Node5 -->
<g id="node5" class="node"><title>Node5</title>
<polygon fill="white" stroke="#bfbfbf" points="689.97,-56.5 689.97,-75.5 736.97,-75.5 736.97,-56.5 689.97,-56.5"/>
<text text-anchor="middle" x="713.47" y="-63.5" font-family="Helvetica,sans-Serif" font-size="10.00">csignal</text>
</g>
<!-- Node3&#45;&gt;Node5 -->
<g id="edge4" class="edge"><title>Node3&#45;&gt;Node5</title>
<path fill="none" stroke="midnightblue" d="M825.396,-112.444C803.41,-103.517 768.736,-89.4387 743.806,-79.3168"/>
<polygon fill="midnightblue" stroke="midnightblue" points="745.028,-76.0355 734.446,-75.5164 742.394,-82.5213 745.028,-76.0355"/>
</g>
<!-- Node6 -->
<g id="node6" class="node"><title>Node6</title>
<polygon fill="white" stroke="#bfbfbf" points="1593.47,-56.5 1593.47,-75.5 1639.47,-75.5 1639.47,-56.5 1593.47,-56.5"/>
<text text-anchor="middle" x="1616.47" y="-63.5" font-family="Helvetica,sans-Serif" font-size="10.00">cstdint</text>
</g>
<!-- Node3&#45;&gt;Node6 -->
<g id="edge5" class="edge"><title>Node3&#45;&gt;Node6</title>
<path fill="none" stroke="midnightblue" d="M908.156,-120.892C1034.74,-119.862 1332.7,-113.287 1579.47,-76 1580.72,-75.8111 1581.99,-75.6002 1583.27,-75.3716"/>
<polygon fill="midnightblue" stroke="midnightblue" points="1584.02,-78.791 1593.11,-73.3457 1582.61,-71.9349 1584.02,-78.791"/>
</g>
<!-- Node7 -->
<g id="node7" class="node"><title>Node7</title>
<polygon fill="white" stroke="#bfbfbf" points="1124.47,-56.5 1124.47,-75.5 1180.47,-75.5 1180.47,-56.5 1124.47,-56.5"/>
<text text-anchor="middle" x="1152.47" y="-63.5" font-family="Helvetica,sans-Serif" font-size="10.00">cinttypes</text>
</g>
<!-- Node3&#45;&gt;Node7 -->
<g id="edge6" class="edge"><title>Node3&#45;&gt;Node7</title>
<path fill="none" stroke="midnightblue" d="M903.918,-112.481C958.324,-104.146 1042.21,-90.6062 1114.47,-76 1114.57,-75.9799 1114.67,-75.9596 1114.77,-75.9393"/>
<polygon fill="midnightblue" stroke="midnightblue" points="1115.25,-79.4155 1124.29,-73.8924 1113.78,-72.5717 1115.25,-79.4155"/>
</g>
<!-- Node8 -->
<g id="node8" class="node"><title>Node8</title>
<polygon fill="white" stroke="#bfbfbf" points="1198.97,-56.5 1198.97,-75.5 1241.97,-75.5 1241.97,-56.5 1198.97,-56.5"/>
<text text-anchor="middle" x="1220.47" y="-63.5" font-family="Helvetica,sans-Serif" font-size="10.00">cstdio</text>
</g>
<!-- Node3&#45;&gt;Node8 -->
<g id="edge7" class="edge"><title>Node3&#45;&gt;Node8</title>
<path fill="none" stroke="midnightblue" d="M907.973,-115.775C974.828,-109.459 1084.89,-97.2077 1188.86,-75.8169"/>
<polygon fill="midnightblue" stroke="midnightblue" points="1189.82,-79.1903 1198.9,-73.7182 1188.39,-72.3384 1189.82,-79.1903"/>
</g>
<!-- Node9 -->
<g id="node9" class="node"><title>Node9</title>
<polygon fill="white" stroke="#bfbfbf" points="1298.97,-56.5 1298.97,-75.5 1347.97,-75.5 1347.97,-56.5 1298.97,-56.5"/>
<text text-anchor="middle" x="1323.47" y="-63.5" font-family="Helvetica,sans-Serif" font-size="10.00">cstddef</text>
</g>
<!-- Node3&#45;&gt;Node9 -->
<g id="edge8" class="edge"><title>Node3&#45;&gt;Node9</title>
<path fill="none" stroke="midnightblue" d="M908.087,-117.097C993.156,-111.157 1151.18,-98.1376 1284.47,-76 1285.93,-75.7581 1287.41,-75.4943 1288.91,-75.2139"/>
<polygon fill="midnightblue" stroke="midnightblue" points="1289.71,-78.6211 1298.8,-73.1797 1288.31,-71.7644 1289.71,-78.6211"/>
</g>
<!-- Node10 -->
<g id="node10" class="node"><title>Node10</title>
<polygon fill="white" stroke="#bfbfbf" points="1365.97,-56.5 1365.97,-75.5 1410.97,-75.5 1410.97,-56.5 1365.97,-56.5"/>
<text text-anchor="middle" x="1388.47" y="-63.5" font-family="Helvetica,sans-Serif" font-size="10.00">cstdlib</text>
</g>
<!-- Node3&#45;&gt;Node10 -->
<g id="edge9" class="edge"><title>Node3&#45;&gt;Node10</title>
<path fill="none" stroke="midnightblue" d="M908.35,-119.43C1003.1,-116.175 1189.8,-106.402 1356,-75.9466"/>
<polygon fill="midnightblue" stroke="midnightblue" points="1356.72,-79.3735 1365.91,-74.1018 1355.43,-72.4918 1356.72,-79.3735"/>
</g>
<!-- Node11 -->
<g id="node11" class="node"><title>Node11</title>
<polygon fill="white" stroke="#bfbfbf" points="1429.47,-56.5 1429.47,-75.5 1473.47,-75.5 1473.47,-56.5 1429.47,-56.5"/>
<text text-anchor="middle" x="1451.47" y="-63.5" font-family="Helvetica,sans-Serif" font-size="10.00">cerrno</text>
</g>
<!-- Node3&#45;&gt;Node11 -->
<g id="edge10" class="edge"><title>Node3&#45;&gt;Node11</title>
<path fill="none" stroke="midnightblue" d="M908.165,-120.281C1012.07,-118.172 1228.53,-109.916 1419.32,-75.8417"/>
<polygon fill="midnightblue" stroke="midnightblue" points="1420.03,-79.2695 1429.25,-74.0408 1418.78,-72.3819 1420.03,-79.2695"/>
</g>
<!-- Node12 -->
<g id="node12" class="node"><title>Node12</title>
<polygon fill="white" stroke="#bfbfbf" points="1491.47,-56.5 1491.47,-75.5 1537.47,-75.5 1537.47,-56.5 1491.47,-56.5"/>
<text text-anchor="middle" x="1514.47" y="-63.5" font-family="Helvetica,sans-Serif" font-size="10.00">cstring</text>
</g>
<!-- Node3&#45;&gt;Node12 -->
<g id="edge11" class="edge"><title>Node3&#45;&gt;Node12</title>
<path fill="none" stroke="midnightblue" d="M908.37,-120.785C1020.94,-119.488 1266.6,-112.486 1481.3,-75.8527"/>
<polygon fill="midnightblue" stroke="midnightblue" points="1481.92,-79.2974 1491.18,-74.1425 1480.73,-72.4 1481.92,-79.2974"/>
</g>
<!-- Node3&#45;&gt;Node13 -->
<g id="edge12" class="edge"><title>Node3&#45;&gt;Node13</title>
<path fill="none" stroke="midnightblue" d="M908.225,-119.658C1076.59,-115.709 1542.05,-102.792 1715.26,-75.7465"/>
<polygon fill="midnightblue" stroke="midnightblue" points="1715.96,-79.1797 1725.26,-74.1134 1714.83,-72.2713 1715.96,-79.1797"/>
</g>
<!-- Node14 -->
<g id="node14" class="node"><title>Node14</title>
<polygon fill="white" stroke="#bfbfbf" points="85.9701,-56.5 85.9701,-75.5 130.97,-75.5 130.97,-56.5 85.9701,-56.5"/>
<text text-anchor="middle" x="108.47" y="-63.5" font-family="Helvetica,sans-Serif" font-size="10.00">iosfwd</text>
</g>
<!-- Node3&#45;&gt;Node14 -->
<g id="edge13" class="edge"><title>Node3&#45;&gt;Node14</title>
<path fill="none" stroke="midnightblue" d="M784.582,-121.409C662.833,-121.273 383.72,-116.297 141.128,-75.6979"/>
<polygon fill="midnightblue" stroke="midnightblue" points="141.506,-72.2121 131.061,-73.989 140.334,-79.1134 141.506,-72.2121"/>
</g>
<!-- Node3&#45;&gt;Node15 -->
<g id="edge14" class="edge"><title>Node3&#45;&gt;Node15</title>
<path fill="none" stroke="midnightblue" d="M784.678,-121.284C655.049,-121.037 345.257,-116.034 77.3978,-75.8352"/>
<polygon fill="midnightblue" stroke="midnightblue" points="77.8994,-72.3714 67.4869,-74.3287 76.8474,-79.2919 77.8994,-72.3714"/>
</g>
<!-- Node16 -->
<g id="node16" class="node"><title>Node16</title>
<polygon fill="white" stroke="#bfbfbf" points="149.47,-56.5 149.47,-75.5 201.47,-75.5 201.47,-56.5 149.47,-56.5"/>
<text text-anchor="middle" x="175.47" y="-63.5" font-family="Helvetica,sans-Serif" font-size="10.00">sstream</text>
</g>
<!-- Node3&#45;&gt;Node16 -->
<g id="edge15" class="edge"><title>Node3&#45;&gt;Node16</title>
<path fill="none" stroke="midnightblue" d="M784.646,-120.332C672.203,-118.309 426.73,-110.178 211.631,-75.897"/>
<polygon fill="midnightblue" stroke="midnightblue" points="212.166,-72.438 201.735,-74.2978 211.049,-79.3484 212.166,-72.438"/>
</g>
<!-- Node17 -->
<g id="node17" class="node"><title>Node17</title>
<polygon fill="white" stroke="#bfbfbf" points="219.97,-56.5 219.97,-75.5 260.97,-75.5 260.97,-56.5 219.97,-56.5"/>
<text text-anchor="middle" x="240.47" y="-63.5" font-family="Helvetica,sans-Serif" font-size="10.00">regex</text>
</g>
<!-- Node3&#45;&gt;Node17 -->
<g id="edge16" class="edge"><title>Node3&#45;&gt;Node17</title>
<path fill="none" stroke="midnightblue" d="M784.81,-120.682C680.427,-119.166 462.362,-111.771 271.185,-75.9482"/>
<polygon fill="midnightblue" stroke="midnightblue" points="271.716,-72.4866 261.238,-74.0538 270.406,-79.363 271.716,-72.4866"/>
</g>
<!-- Node3&#45;&gt;Node18 -->
<g id="edge17" class="edge"><title>Node3&#45;&gt;Node18</title>
<path fill="none" stroke="midnightblue" d="M908.043,-121.775C1041.47,-122.544 1367.15,-119.495 1647.39,-75.83"/>
<polygon fill="midnightblue" stroke="midnightblue" points="1648.01,-79.2759 1657.34,-74.2595 1646.92,-72.3615 1648.01,-79.2759"/>
</g>
<!-- Node19 -->
<g id="node19" class="node"><title>Node19</title>
<polygon fill="white" stroke="#bfbfbf" points="278.97,-56.5 278.97,-75.5 329.97,-75.5 329.97,-56.5 278.97,-56.5"/>
<text text-anchor="middle" x="304.47" y="-63.5" font-family="Helvetica,sans-Serif" font-size="10.00">unistd.h</text>
</g>
<!-- Node3&#45;&gt;Node19 -->
<g id="edge18" class="edge"><title>Node3&#45;&gt;Node19</title>
<path fill="none" stroke="midnightblue" d="M784.789,-118.77C690.794,-114.659 506.027,-103.775 339.886,-75.7668"/>
<polygon fill="midnightblue" stroke="midnightblue" points="340.427,-72.3086 329.98,-74.0725 339.247,-79.2084 340.427,-72.3086"/>
</g>
<!-- Node20 -->
<g id="node20" class="node"><title>Node20</title>
<polygon fill="white" stroke="#bfbfbf" points="348.47,-56.5 348.47,-75.5 392.47,-75.5 392.47,-56.5 348.47,-56.5"/>
<text text-anchor="middle" x="370.47" y="-63.5" font-family="Helvetica,sans-Serif" font-size="10.00">fcntl.h</text>
</g>
<!-- Node3&#45;&gt;Node20 -->
<g id="edge19" class="edge"><title>Node3&#45;&gt;Node20</title>
<path fill="none" stroke="midnightblue" d="M784.771,-118.308C700.408,-113.843 544.311,-102.791 402.861,-75.94"/>
<polygon fill="midnightblue" stroke="midnightblue" points="403.185,-72.438 392.703,-73.9793 401.858,-79.3111 403.185,-72.438"/>
</g>
<!-- Node21 -->
<g id="node21" class="node"><title>Node21</title>
<polygon fill="white" stroke="#bfbfbf" points="410.47,-56.5 410.47,-75.5 450.47,-75.5 450.47,-56.5 410.47,-56.5"/>
<text text-anchor="middle" x="430.47" y="-63.5" font-family="Helvetica,sans-Serif" font-size="10.00">limits</text>
</g>
<!-- Node3&#45;&gt;Node21 -->
<g id="edge20" class="edge"><title>Node3&#45;&gt;Node21</title>
<path fill="none" stroke="midnightblue" d="M784.864,-116.443C709.017,-110.214 576.484,-97.3121 464.47,-76 463.188,-75.756 461.883,-75.4901 460.568,-75.2075"/>
<polygon fill="midnightblue" stroke="midnightblue" points="461.037,-71.7214 450.498,-72.8049 459.413,-78.5303 461.037,-71.7214"/>
</g>
<!-- Node22 -->
<g id="node22" class="node"><title>Node22</title>
<polygon fill="white" stroke="#bfbfbf" points="452.97,-0.5 452.97,-19.5 493.97,-19.5 493.97,-0.5 452.97,-0.5"/>
<text text-anchor="middle" x="473.47" y="-7.5" font-family="Helvetica,sans-Serif" font-size="10.00">string</text>
</g>
<!-- Node3&#45;&gt;Node22 -->
<g id="edge21" class="edge"><title>Node3&#45;&gt;Node22</title>
<path fill="none" stroke="midnightblue" d="M784.927,-120.538C696.839,-118.657 540.655,-110.401 497.47,-76 483.524,-64.8908 477.682,-44.8565 475.234,-29.9559"/>
<polygon fill="midnightblue" stroke="midnightblue" points="478.676,-29.2755 473.947,-19.795 471.732,-30.1557 478.676,-29.2755"/>
</g>
<!-- Node3&#45;&gt;Node23 -->
<g id="edge22" class="edge"><title>Node3&#45;&gt;Node23</title>
<path fill="none" stroke="midnightblue" d="M834.7,-112.368C809.069,-93.5728 747.972,-48.7684 716.288,-25.5334"/>
<polygon fill="midnightblue" stroke="midnightblue" points="718.32,-22.6827 708.186,-19.5914 714.18,-28.3275 718.32,-22.6827"/>
</g>
<!-- Node24 -->
<g id="node24" class="node"><title>Node24</title>
<polygon fill="white" stroke="#bfbfbf" points="1003.97,-56.5 1003.97,-75.5 1044.97,-75.5 1044.97,-56.5 1003.97,-56.5"/>
<text text-anchor="middle" x="1024.47" y="-63.5" font-family="Helvetica,sans-Serif" font-size="10.00">stack</text>
</g>
<!-- Node3&#45;&gt;Node24 -->
<g id="edge23" class="edge"><title>Node3&#45;&gt;Node24</title>
<path fill="none" stroke="midnightblue" d="M874.675,-112.444C907.279,-102.552 960.734,-86.3357 994.192,-76.1854"/>
<polygon fill="midnightblue" stroke="midnightblue" points="995.336,-79.4961 1003.89,-73.2437 993.303,-72.7976 995.336,-79.4961"/>
</g>
<!-- Node25 -->
<g id="node25" class="node"><title>Node25</title>
<polygon fill="white" stroke="#bfbfbf" points="1062.97,-56.5 1062.97,-75.5 1105.97,-75.5 1105.97,-56.5 1062.97,-56.5"/>
<text text-anchor="middle" x="1084.47" y="-63.5" font-family="Helvetica,sans-Serif" font-size="10.00">deque</text>
</g>
<!-- Node3&#45;&gt;Node25 -->
<g id="edge24" class="edge"><title>Node3&#45;&gt;Node25</title>
<path fill="none" stroke="midnightblue" d="M889.887,-112.463C929.777,-104.418 990.74,-91.6186 1052.86,-76.0126"/>
<polygon fill="midnightblue" stroke="midnightblue" points="1054.01,-79.3335 1062.84,-73.4841 1052.29,-72.548 1054.01,-79.3335"/>
</g>
<!-- Node26 -->
<g id="node26" class="node"><title>Node26</title>
<polygon fill="white" stroke="#bfbfbf" points="802.47,-0.5 802.47,-19.5 846.47,-19.5 846.47,-0.5 802.47,-0.5"/>
<text text-anchor="middle" x="824.47" y="-7.5" font-family="Helvetica,sans-Serif" font-size="10.00">mutex</text>
</g>
<!-- Node3&#45;&gt;Node26 -->
<g id="edge25" class="edge"><title>Node3&#45;&gt;Node26</title>
<path fill="none" stroke="midnightblue" d="M840.103,-112.232C834.21,-103.532 825.863,-89.5719 822.47,-76 818.658,-60.7514 819.584,-42.8646 821.221,-29.7186"/>
<polygon fill="midnightblue" stroke="midnightblue" points="824.721,-29.9805 822.743,-19.572 817.798,-28.9424 824.721,-29.9805"/>
</g>
<!-- Node27 -->
<g id="node27" class="node"><title>Node27</title>
<polygon fill="white" stroke="#bfbfbf" points="937.47,-0.5 937.47,-19.5 981.47,-19.5 981.47,-0.5 937.47,-0.5"/>
<text text-anchor="middle" x="959.47" y="-7.5" font-family="Helvetica,sans-Serif" font-size="10.00">thread</text>
</g>
<!-- Node3&#45;&gt;Node27 -->
<g id="edge26" class="edge"><title>Node3&#45;&gt;Node27</title>
<path fill="none" stroke="midnightblue" d="M898.228,-112.482C919.82,-106.151 942.972,-95.1374 956.47,-76 965.924,-62.5971 965.619,-43.4898 963.584,-29.4595"/>
<polygon fill="midnightblue" stroke="midnightblue" points="967.002,-28.6945 961.735,-19.5018 960.12,-29.9729 967.002,-28.6945"/>
</g>
<!-- Node28 -->
<g id="node28" class="node"><title>Node28</title>
<polygon fill="white" stroke="#bfbfbf" points="1110.97,-0.5 1110.97,-19.5 1205.97,-19.5 1205.97,-0.5 1110.97,-0.5"/>
<text text-anchor="middle" x="1158.47" y="-7.5" font-family="Helvetica,sans-Serif" font-size="10.00">condition_variable</text>
</g>
<!-- Node3&#45;&gt;Node28 -->
<g id="edge27" class="edge"><title>Node3&#45;&gt;Node28</title>
<path fill="none" stroke="midnightblue" d="M908.029,-118.6C1015.7,-113.765 1229,-101.105 1251.47,-76 1271.86,-53.2225 1233.35,-34.1751 1199.87,-22.7052"/>
<polygon fill="midnightblue" stroke="midnightblue" points="1200.75,-19.3118 1190.16,-19.5337 1198.58,-25.9658 1200.75,-19.3118"/>
</g>
<!-- Node29 -->
<g id="node29" class="node"><title>Node29</title>
<polygon fill="white" stroke="#bfbfbf" points="1383.97,-0.5 1383.97,-19.5 1426.97,-19.5 1426.97,-0.5 1383.97,-0.5"/>
<text text-anchor="middle" x="1405.47" y="-7.5" font-family="Helvetica,sans-Serif" font-size="10.00">queue</text>
</g>
<!-- Node3&#45;&gt;Node29 -->
<g id="edge28" class="edge"><title>Node3&#45;&gt;Node29</title>
<path fill="none" stroke="midnightblue" d="M908.183,-119.301C1075.16,-114.405 1524.79,-99.1235 1546.47,-76 1581.23,-38.9347 1488.34,-21.2111 1436.95,-14.4424"/>
<polygon fill="midnightblue" stroke="midnightblue" points="1437.33,-10.9629 1426.97,-13.1967 1436.46,-17.9089 1437.33,-10.9629"/>
</g>
<!-- Node30 -->
<g id="node30" class="node"><title>Node30</title>
<polygon fill="white" stroke="#bfbfbf" points="736.97,-0.5 736.97,-19.5 771.97,-19.5 771.97,-0.5 736.97,-0.5"/>
<text text-anchor="middle" x="754.47" y="-7.5" font-family="Helvetica,sans-Serif" font-size="10.00">map</text>
</g>
<!-- Node3&#45;&gt;Node30 -->
<g id="edge29" class="edge"><title>Node3&#45;&gt;Node30</title>
<path fill="none" stroke="midnightblue" d="M784.951,-117.506C724.485,-112.633 638.32,-101.345 617.47,-76 568.029,-15.8982 588.898,-63.2106 727.047,-20.0415"/>
<polygon fill="midnightblue" stroke="midnightblue" points="728.307,-23.3128 736.756,-16.9201 726.165,-16.6488 728.307,-23.3128"/>
</g>
<!-- Node31 -->
<g id="node31" class="node"><title>Node31</title>
<g id="a_node31"><a xlink:href="cosmos-defs_8h.html" target="_top" xlink:title="COSMOS definitions Definitions specific to the COSMOS environement. ">
<polygon fill="white" stroke="black" points="831.47,-56.5 831.47,-75.5 947.47,-75.5 947.47,-56.5 831.47,-56.5"/>
<text text-anchor="middle" x="889.47" y="-63.5" font-family="Helvetica,sans-Serif" font-size="10.00">support/cosmos&#45;defs.h</text>
</a>
</g>
</g>
<!-- Node3&#45;&gt;Node31 -->
<g id="edge30" class="edge"><title>Node3&#45;&gt;Node31</title>
<path fill="none" stroke="midnightblue" d="M853.571,-112.083C859.707,-104.377 868.74,-93.0333 876.209,-83.6531"/>
<polygon fill="midnightblue" stroke="midnightblue" points="879.01,-85.7542 882.502,-75.7511 873.534,-81.3936 879.01,-85.7542"/>
</g>
<!-- Node33 -->
<g id="node33" class="node"><title>Node33</title>
<g id="a_node33"><a xlink:href="json11_8hpp.html" target="_top" xlink:title="json11.hpp">
<polygon fill="white" stroke="black" points="506.47,-56.5 506.47,-75.5 570.47,-75.5 570.47,-56.5 506.47,-56.5"/>
<text text-anchor="middle" x="538.47" y="-63.5" font-family="Helvetica,sans-Serif" font-size="10.00">json11.hpp</text>
</a>
</g>
</g>
<!-- Node3&#45;&gt;Node33 -->
<g id="edge38" class="edge"><title>Node3&#45;&gt;Node33</title>
<path fill="none" stroke="midnightblue" d="M794.707,-112.472C741.811,-103.672 657.325,-89.382 584.47,-76 583.21,-75.7685 581.93,-75.5313 580.638,-75.2902"/>
<polygon fill="midnightblue" stroke="midnightblue" points="581.1,-71.8154 570.623,-73.389 579.795,-78.6926 581.1,-71.8154"/>
</g>
<!-- Node31&#45;&gt;Node23 -->
<g id="edge32" class="edge"><title>Node31&#45;&gt;Node23</title>
<path fill="none" stroke="midnightblue" d="M858.384,-56.4801C827.725,-48.052 779.277,-34.6664 728.35,-20.227"/>
<polygon fill="midnightblue" stroke="midnightblue" points="729.052,-16.7881 718.476,-17.4231 727.14,-23.5219 729.052,-16.7881"/>
</g>
<!-- Node31&#45;&gt;Node26 -->
<g id="edge36" class="edge"><title>Node31&#45;&gt;Node26</title>
<path fill="none" stroke="midnightblue" d="M879.027,-56.324C869.324,-48.2631 854.655,-36.0765 842.97,-26.3695"/>
<polygon fill="midnightblue" stroke="midnightblue" points="845.032,-23.532 835.103,-19.8339 840.559,-28.9163 845.032,-23.532"/>
</g>
<!-- Node31&#45;&gt;Node27 -->
<g id="edge35" class="edge"><title>Node31&#45;&gt;Node27</title>
<path fill="none" stroke="midnightblue" d="M900.717,-56.324C911.267,-48.1849 927.271,-35.8395 939.912,-26.0874"/>
<polygon fill="midnightblue" stroke="midnightblue" points="942.239,-28.7132 948.019,-19.8339 937.963,-23.1707 942.239,-28.7132"/>
</g>
<!-- Node31&#45;&gt;Node28 -->
<g id="edge37" class="edge"><title>Node31&#45;&gt;Node28</title>
<path fill="none" stroke="midnightblue" d="M932.094,-56.4435C979.217,-46.9839 1055.16,-31.7384 1105.93,-21.5472"/>
<polygon fill="midnightblue" stroke="midnightblue" points="1106.93,-24.9162 1116.05,-19.5164 1105.55,-18.0531 1106.93,-24.9162"/>
</g>
<!-- Node31&#45;&gt;Node29 -->
<g id="edge34" class="edge"><title>Node31&#45;&gt;Node29</title>
<path fill="none" stroke="midnightblue" d="M947.659,-58.9105C1056.85,-47.4835 1289.07,-23.181 1373.74,-14.3207"/>
<polygon fill="midnightblue" stroke="midnightblue" points="1374.19,-17.7927 1383.77,-13.2708 1373.46,-10.8307 1374.19,-17.7927"/>
</g>
<!-- Node31&#45;&gt;Node30 -->
<g id="edge31" class="edge"><title>Node31&#45;&gt;Node30</title>
<path fill="none" stroke="midnightblue" d="M868.079,-56.4435C844.713,-47.097 807.226,-32.1023 781.758,-21.9151"/>
<polygon fill="midnightblue" stroke="midnightblue" points="782.897,-18.6011 772.312,-18.1368 780.297,-25.1005 782.897,-18.6011"/>
</g>
<!-- Node32 -->
<g id="node32" class="node"><title>Node32</title>
<polygon fill="white" stroke="#bfbfbf" points="874.97,-0.5 874.97,-19.5 903.97,-19.5 903.97,-0.5 874.97,-0.5"/>
<text text-anchor="middle" x="889.47" y="-7.5" font-family="Helvetica,sans-Serif" font-size="10.00">list</text>
</g>
<!-- Node31&#45;&gt;Node32 -->
<g id="edge33" class="edge"><title>Node31&#45;&gt;Node32</title>
<path fill="none" stroke="midnightblue" d="M889.47,-56.083C889.47,-49.0059 889.47,-38.8611 889.47,-29.9865"/>
<polygon fill="midnightblue" stroke="midnightblue" points="892.97,-29.751 889.47,-19.7511 885.97,-29.7511 892.97,-29.751"/>
</g>
<!-- Node33&#45;&gt;Node22 -->
<g id="edge39" class="edge"><title>Node33&#45;&gt;Node22</title>
<path fill="none" stroke="midnightblue" d="M528.027,-56.324C518.324,-48.2631 503.655,-36.0765 491.97,-26.3695"/>
<polygon fill="midnightblue" stroke="midnightblue" points="494.032,-23.532 484.103,-19.8339 489.559,-28.9163 494.032,-23.532"/>
</g>
<!-- Node33&#45;&gt;Node23 -->
<g id="edge40" class="edge"><title>Node33&#45;&gt;Node23</title>
<path fill="none" stroke="midnightblue" d="M563.506,-56.4435C590.946,-47.0652 635.025,-32.0001 664.837,-21.8112"/>
<polygon fill="midnightblue" stroke="midnightblue" points="666.025,-25.104 674.356,-18.558 663.761,-18.4802 666.025,-25.104"/>
</g>
<!-- Node33&#45;&gt;Node30 -->
<g id="edge41" class="edge"><title>Node33&#45;&gt;Node30</title>
<path fill="none" stroke="midnightblue" d="M570.797,-58.2114C606.69,-50.4756 666.507,-36.9959 727.094,-19.9044"/>
<polygon fill="midnightblue" stroke="midnightblue" points="728.164,-23.2388 736.821,-17.1306 726.244,-16.5072 728.164,-23.2388"/>
</g>
<!-- Node34 -->
<g id="node34" class="node"><title>Node34</title>
<polygon fill="white" stroke="#bfbfbf" points="512.47,-0.5 512.47,-19.5 564.47,-19.5 564.47,-0.5 512.47,-0.5"/>
<text text-anchor="middle" x="538.47" y="-7.5" font-family="Helvetica,sans-Serif" font-size="10.00">memory</text>
</g>
<!-- Node33&#45;&gt;Node34 -->
<g id="edge42" class="edge"><title>Node33&#45;&gt;Node34</title>
<path fill="none" stroke="midnightblue" d="M538.47,-56.083C538.47,-49.0059 538.47,-38.8611 538.47,-29.9865"/>
<polygon fill="midnightblue" stroke="midnightblue" points="541.97,-29.751 538.47,-19.7511 534.97,-29.7511 541.97,-29.751"/>
</g>
<!-- Node35 -->
<g id="node35" class="node"><title>Node35</title>
<polygon fill="white" stroke="#bfbfbf" points="582.97,-0.5 582.97,-19.5 655.97,-19.5 655.97,-0.5 582.97,-0.5"/>
<text text-anchor="middle" x="619.47" y="-7.5" font-family="Helvetica,sans-Serif" font-size="10.00">initializer_list</text>
</g>
<!-- Node33&#45;&gt;Node35 -->
<g id="edge43" class="edge"><title>Node33&#45;&gt;Node35</title>
<path fill="none" stroke="midnightblue" d="M551.484,-56.324C564.002,-47.979 583.152,-35.2122 597.941,-25.3524"/>
<polygon fill="midnightblue" stroke="midnightblue" points="600.109,-28.1137 606.488,-19.6545 596.226,-22.2894 600.109,-28.1137"/>
</g>
<!-- Node36&#45;&gt;Node3 -->
<g id="edge45" class="edge"><title>Node36&#45;&gt;Node3</title>
<path fill="none" stroke="midnightblue" d="M872.351,-168.083C868.063,-160.613 861.812,-149.724 856.528,-140.52"/>
<polygon fill="midnightblue" stroke="midnightblue" points="859.508,-138.681 851.494,-131.751 853.437,-142.166 859.508,-138.681"/>
</g>
<!-- Node36&#45;&gt;Node6 -->
<g id="edge46" class="edge"><title>Node36&#45;&gt;Node6</title>
<path fill="none" stroke="midnightblue" d="M911.773,-172.222C1012.12,-158.186 1313.79,-115.575 1563.47,-76 1569.88,-74.9836 1576.72,-73.8551 1583.29,-72.7504"/>
<polygon fill="midnightblue" stroke="midnightblue" points="1584,-76.1798 1593.27,-71.0536 1582.82,-69.2788 1584,-76.1798"/>
</g>
<!-- Node37&#45;&gt;Node2 -->
<g id="edge53" class="edge"><title>Node37&#45;&gt;Node2</title>
<path fill="none" stroke="midnightblue" d="M770.387,-280.083C778.251,-272.22 789.901,-260.569 799.389,-251.081"/>
<polygon fill="midnightblue" stroke="midnightblue" points="802.123,-253.297 806.719,-243.751 797.173,-248.347 802.123,-253.297"/>
</g>
<!-- Node37&#45;&gt;Node3 -->
<g id="edge52" class="edge"><title>Node37&#45;&gt;Node3</title>
<path fill="none" stroke="midnightblue" d="M763.159,-280.298C765.82,-267.548 771.617,-243.222 780.47,-224 795.069,-192.301 818.622,-159.081 833.289,-139.748"/>
<polygon fill="midnightblue" stroke="midnightblue" points="836.185,-141.725 839.519,-131.668 830.641,-137.451 836.185,-141.725"/>
</g>
</g>
</svg>
        <g id="navigator" transform="translate(0 0)" fill="#404254">
                <rect fill="#f2f5e9" fill-opacity="0.5" stroke="#606060" stroke-width=".5" x="0" y="0" width="60" height="60"/>
                <use id="zoomplus" xlink:href="#zoomPlus" x="17" y="9" onmousedown="handleZoom(evt,'in')"/>
                <use id="zoomminus" xlink:href="#zoomMin" x="42" y="9" onmousedown="handleZoom(evt,'out')"/>
                <use id="reset" xlink:href="#resetDef" x="30" y="36" onmousedown="handleReset()"/>
                <g id="arrowUp" xlink:href="#dirArrow" transform="translate(30 24)" onmousedown="handlePan(0,-1)">
                  <use xlink:href="#rim" fill="#404040">
                        <set attributeName="fill" to="#808080" begin="arrowUp.mouseover" end="arrowUp.mouseout"/>
                  </use>
                  <path fill="none" stroke="white" stroke-width="1.5" d="M0,-3.0v7 M-2.5,-0.5L0,-3.0L2.5,-0.5"/>
                </g>
                <g id="arrowRight" xlink:href="#dirArrow" transform="rotate(90) translate(36 -43)" onmousedown="handlePan(1,0)">
                  <use xlink:href="#rim" fill="#404040">
                        <set attributeName="fill" to="#808080" begin="arrowRight.mouseover" end="arrowRight.mouseout"/>
                  </use>
                  <path fill="none" stroke="white" stroke-width="1.5" d="M0,-3.0v7 M-2.5,-0.5L0,-3.0L2.5,-0.5"/>
                </g>
                <g id="arrowDown" xlink:href="#dirArrow" transform="rotate(180) translate(-30 -48)" onmousedown="handlePan(0,1)">
                  <use xlink:href="#rim" fill="#404040">
                        <set attributeName="fill" to="#808080" begin="arrowDown.mouseover" end="arrowDown.mouseout"/>
                  </use>
                  <path fill="none" stroke="white" stroke-width="1.5" d="M0,-3.0v7 M-2.5,-0.5L0,-3.0L2.5,-0.5"/>
                </g>
                <g id="arrowLeft" xlink:href="#dirArrow" transform="rotate(270) translate(-36 17)" onmousedown="handlePan(-1,0)">
                  <use xlink:href="#rim" fill="#404040">
                        <set attributeName="fill" to="#808080" begin="arrowLeft.mouseover" end="arrowLeft.mouseout"/>
                  </use>
                  <path fill="none" stroke="white" stroke-width="1.5" d="M0,-3.0v7 M-2.5,-0.5L0,-3.0L2.5,-0.5"/>
                </g>
        </g>
        <svg viewBox="0 0 15 15" width="100%" height="30px" preserveAspectRatio="xMaxYMin meet">
         <g id="arrow_out" transform="scale(0.3 0.3)">
          <a xlink:href="vector_8cpp__incl_org.svg" target="_base">
           <rect id="button" ry="5" rx="5" y="6" x="6" height="38" width="38"
                fill="#f2f5e9" fill-opacity="0.5" stroke="#606060" stroke-width="1.0"/>
           <path id="arrow"
             d="M 11.500037,31.436501 C 11.940474,20.09759 22.043105,11.32322 32.158766,21.979434 L 37.068811,17.246167 C 37.068811,17.246167 37.088388,32 37.088388,32 L 22.160133,31.978069 C 22.160133,31.978069 26.997745,27.140456 26.997745,27.140456 C 18.528582,18.264221 13.291696,25.230495 11.500037,31.436501 z"
             style="fill:#404040;"/>
          </a>
         </g>
        </svg>
</svg>
