<?xml version="1.0" encoding="UTF-8" standalone="no"?>
<!DOCTYPE svg PUBLIC "-//W3C//DTD SVG 1.1//EN"
 "http://www.w3.org/Graphics/SVG/1.1/DTD/svg11.dtd">
<!-- Generated by graphviz version 2.38.0 (20140413.2041)
 -->
<!-- Title: vector.h Pages: 1 -->
<!--zoomable 252 -->
<svg id="main" version="1.1" xmlns="http://www.w3.org/2000/svg" xmlns:xlink="http://www.w3.org/1999/xlink" xml:space="preserve" onload="init(evt)">
<style type="text/css"><![CDATA[
.edge:hover path { stroke: red; }
.edge:hover polygon { stroke: red; fill: red; }
]]></style>
<script type="text/javascript"><![CDATA[
var edges = document.getElementsByTagName('g');
if (edges && edges.length) {
  for (var i=0;i<edges.length;i++) {
    if (edges[i].id.substr(0,4)=='edge') {
      edges[i].setAttribute('class','edge');
    }
  }
}
]]></script>
        <defs>
                <circle id="rim" cx="0" cy="0" r="7"/>
                <circle id="rim2" cx="0" cy="0" r="3.5"/>
                <g id="zoomPlus">
                        <use xlink:href="#rim" fill="#404040">
                                <set attributeName="fill" to="#808080" begin="zoomplus.mouseover" end="zoomplus.mouseout"/>
                        </use>
                        <path d="M-4,0h8M0,-4v8" fill="none" stroke="white" stroke-width="1.5" pointer-events="none"/>
                </g>
                <g id="zoomMin">
                        <use xlink:href="#rim" fill="#404040">
                                <set attributeName="fill" to="#808080" begin="zoomminus.mouseover" end="zoomminus.mouseout"/>
                        </use>
                        <path d="M-4,0h8" fill="none" stroke="white" stroke-width="1.5" pointer-events="none"/>
                </g>
                <g id="dirArrow">
                        <path fill="none" stroke="white" stroke-width="1.5" d="M0,-3.0v7 M-2.5,-0.5L0,-3.0L2.5,-0.5"/>
                </g>
               <g id="resetDef">
                       <use xlink:href="#rim2" fill="#404040">
                               <set attributeName="fill" to="#808080" begin="reset.mouseover" end="reset.mouseout"/>
                       </use>
               </g>
        </defs>

<script type="text/javascript">
var viewWidth = 1776;
var viewHeight = 252;
var sectionId = 'dynsection-0';
</script>
<script xlink:href="svgpan.js"/>
<svg id="graph" class="graph">
<g id="viewport">
<title>vector.h</title>
<polygon fill="white" stroke="none" points="-4,4 -4,-248 1772.45,-248 1772.45,4 -4,4"/>
<!-- Node1 -->
<g id="node1" class="node"><title>Node1</title>
<polygon fill="#bfbfbf" stroke="black" points="567,-224.5 567,-243.5 619,-243.5 619,-224.5 567,-224.5"/>
<text text-anchor="middle" x="593" y="-231.5" font-family="Helvetica,sans-Serif" font-size="10.00">vector.h</text>
</g>
<!-- Node2 -->
<g id="node2" class="node"><title>Node2</title>
<g id="a_node2"><a xlink:href="config_cosmos_8h.html" target="_top" xlink:title="Headers and definitions common to all COSMOS. ">
<polygon fill="white" stroke="black" points="760.5,-112.5 760.5,-131.5 883.5,-131.5 883.5,-112.5 760.5,-112.5"/>
<text text-anchor="middle" x="822" y="-119.5" font-family="Helvetica,sans-Serif" font-size="10.00">support/configCosmos.h</text>
</a>
</g>
</g>
<!-- Node1&#45;&gt;Node2 -->
<g id="edge1" class="edge"><title>Node1&#45;&gt;Node2</title>
<path fill="none" stroke="midnightblue" d="M610.969,-224.368C651.018,-205.131 747.788,-158.648 795.079,-135.931"/>
<polygon fill="midnightblue" stroke="midnightblue" points="796.616,-139.076 804.114,-131.591 793.585,-132.766 796.616,-139.076"/>
</g>
<!-- Node12 -->
<g id="node12" class="node"><title>Node12</title>
<polygon fill="white" stroke="#bfbfbf" points="0,-56.5 0,-75.5 44,-75.5 44,-56.5 0,-56.5"/>
<text text-anchor="middle" x="22" y="-63.5" font-family="Helvetica,sans-Serif" font-size="10.00">cmath</text>
</g>
<!-- Node1&#45;&gt;Node12 -->
<g id="edge48" class="edge"><title>Node1&#45;&gt;Node12</title>
<path fill="none" stroke="midnightblue" d="M566.9,-227.474C529.981,-219.516 460.487,-204.016 402,-188 271.424,-152.242 118.62,-100.515 53.7258,-78.0762"/>
<polygon fill="midnightblue" stroke="midnightblue" points="54.6772,-74.7017 44.0824,-74.7333 52.3845,-81.3156 54.6772,-74.7017"/>
</g>
<!-- Node14 -->
<g id="node14" class="node"><title>Node14</title>
<polygon fill="white" stroke="#bfbfbf" points="62,-56.5 62,-75.5 116,-75.5 116,-56.5 62,-56.5"/>
<text text-anchor="middle" x="89" y="-63.5" font-family="Helvetica,sans-Serif" font-size="10.00">iostream</text>
</g>
<!-- Node1&#45;&gt;Node14 -->
<g id="edge46" class="edge"><title>Node1&#45;&gt;Node14</title>
<path fill="none" stroke="midnightblue" d="M566.964,-224.425C483.153,-196.82 220.259,-110.232 124.413,-78.6638"/>
<polygon fill="midnightblue" stroke="midnightblue" points="125.473,-75.3282 114.88,-75.5241 123.283,-81.9768 125.473,-75.3282"/>
</g>
<!-- Node17 -->
<g id="node17" class="node"><title>Node17</title>
<polygon fill="white" stroke="#bfbfbf" points="134,-56.5 134,-75.5 184,-75.5 184,-56.5 134,-56.5"/>
<text text-anchor="middle" x="159" y="-63.5" font-family="Helvetica,sans-Serif" font-size="10.00">iomanip</text>
</g>
<!-- Node1&#45;&gt;Node17 -->
<g id="edge47" class="edge"><title>Node1&#45;&gt;Node17</title>
<path fill="none" stroke="midnightblue" d="M585.014,-224.17C563.782,-201.323 503.164,-140.091 439,-112 427.85,-107.119 266.813,-82.9218 194.136,-72.1673"/>
<polygon fill="midnightblue" stroke="midnightblue" points="194.486,-68.6812 184.082,-70.682 193.463,-75.606 194.486,-68.6812"/>
</g>
<!-- Node22 -->
<g id="node22" class="node"><title>Node22</title>
<polygon fill="white" stroke="#bfbfbf" points="1267,-0.5 1267,-19.5 1311,-19.5 1311,-0.5 1267,-0.5"/>
<text text-anchor="middle" x="1289" y="-7.5" font-family="Helvetica,sans-Serif" font-size="10.00">vector</text>
</g>
<!-- Node1&#45;&gt;Node22 -->
<g id="edge49" class="edge"><title>Node1&#45;&gt;Node22</title>
<path fill="none" stroke="midnightblue" d="M619.073,-231.527C784.677,-221.912 1685.54,-165.683 1764,-76 1769.85,-69.31 1769.98,-62.5751 1764,-56 1734.22,-23.2669 1423.2,-13.8257 1321.2,-11.599"/>
<polygon fill="midnightblue" stroke="midnightblue" points="1321.25,-8.09932 1311.18,-11.3889 1321.1,-15.0978 1321.25,-8.09932"/>
</g>
<!-- Node35 -->
<g id="node35" class="node"><title>Node35</title>
<g id="a_node35"><a xlink:href="math_2constants_8h.html" target="_top" xlink:title="constants.h">
<polygon fill="white" stroke="black" points="788,-168.5 788,-187.5 856,-187.5 856,-168.5 788,-168.5"/>
<text text-anchor="middle" x="822" y="-175.5" font-family="Helvetica,sans-Serif" font-size="10.00">constants.h</text>
</a>
</g>
</g>
<!-- Node1&#45;&gt;Node35 -->
<g id="edge43" class="edge"><title>Node1&#45;&gt;Node35</title>
<path fill="none" stroke="midnightblue" d="M619.269,-226.806C658.015,-217.669 730.962,-200.467 777.973,-189.382"/>
<polygon fill="midnightblue" stroke="midnightblue" points="778.949,-192.748 787.879,-187.046 777.342,-185.935 778.949,-192.748"/>
</g>
<!-- Node3 -->
<g id="node3" class="node"><title>Node3</title>
<polygon fill="white" stroke="#bfbfbf" points="767.5,-56.5 767.5,-75.5 812.5,-75.5 812.5,-56.5 767.5,-56.5"/>
<text text-anchor="middle" x="790" y="-63.5" font-family="Helvetica,sans-Serif" font-size="10.00">climits</text>
</g>
<!-- Node2&#45;&gt;Node3 -->
<g id="edge2" class="edge"><title>Node2&#45;&gt;Node3</title>
<path fill="none" stroke="midnightblue" d="M816.716,-112.083C812.289,-104.613 805.837,-93.7244 800.382,-84.5199"/>
<polygon fill="midnightblue" stroke="midnightblue" points="803.295,-82.5697 795.186,-75.7511 797.273,-86.1383 803.295,-82.5697"/>
</g>
<!-- Node4 -->
<g id="node4" class="node"><title>Node4</title>
<polygon fill="white" stroke="#bfbfbf" points="830.5,-56.5 830.5,-75.5 877.5,-75.5 877.5,-56.5 830.5,-56.5"/>
<text text-anchor="middle" x="854" y="-63.5" font-family="Helvetica,sans-Serif" font-size="10.00">csignal</text>
</g>
<!-- Node2&#45;&gt;Node4 -->
<g id="edge3" class="edge"><title>Node2&#45;&gt;Node4</title>
<path fill="none" stroke="midnightblue" d="M827.284,-112.083C831.711,-104.613 838.163,-93.7244 843.618,-84.5199"/>
<polygon fill="midnightblue" stroke="midnightblue" points="846.727,-86.1383 848.814,-75.7511 840.705,-82.5697 846.727,-86.1383"/>
</g>
<!-- Node5 -->
<g id="node5" class="node"><title>Node5</title>
<polygon fill="white" stroke="#bfbfbf" points="1709,-56.5 1709,-75.5 1755,-75.5 1755,-56.5 1709,-56.5"/>
<text text-anchor="middle" x="1732" y="-63.5" font-family="Helvetica,sans-Serif" font-size="10.00">cstdint</text>
</g>
<!-- Node2&#45;&gt;Node5 -->
<g id="edge4" class="edge"><title>Node2&#45;&gt;Node5</title>
<path fill="none" stroke="midnightblue" d="M883.509,-121.765C1026.67,-122.691 1392.97,-120.121 1695,-76 1696.25,-75.8172 1697.52,-75.6116 1698.8,-75.3874"/>
<polygon fill="midnightblue" stroke="midnightblue" points="1699.54,-78.8085 1708.64,-73.381 1698.14,-71.9496 1699.54,-78.8085"/>
</g>
<!-- Node6 -->
<g id="node6" class="node"><title>Node6</title>
<polygon fill="white" stroke="#bfbfbf" points="896,-56.5 896,-75.5 952,-75.5 952,-56.5 896,-56.5"/>
<text text-anchor="middle" x="924" y="-63.5" font-family="Helvetica,sans-Serif" font-size="10.00">cinttypes</text>
</g>
<!-- Node2&#45;&gt;Node6 -->
<g id="edge5" class="edge"><title>Node2&#45;&gt;Node6</title>
<path fill="none" stroke="midnightblue" d="M838.388,-112.324C854.671,-103.703 879.867,-90.3643 898.716,-80.3855"/>
<polygon fill="midnightblue" stroke="midnightblue" points="900.452,-83.4267 907.653,-75.6545 897.177,-77.2402 900.452,-83.4267"/>
</g>
<!-- Node7 -->
<g id="node7" class="node"><title>Node7</title>
<polygon fill="white" stroke="#bfbfbf" points="970.5,-56.5 970.5,-75.5 1013.5,-75.5 1013.5,-56.5 970.5,-56.5"/>
<text text-anchor="middle" x="992" y="-63.5" font-family="Helvetica,sans-Serif" font-size="10.00">cstdio</text>
</g>
<!-- Node2&#45;&gt;Node7 -->
<g id="edge6" class="edge"><title>Node2&#45;&gt;Node7</title>
<path fill="none" stroke="midnightblue" d="M848.937,-112.444C879.266,-102.81 928.486,-87.1752 960.551,-76.9896"/>
<polygon fill="midnightblue" stroke="midnightblue" points="961.842,-80.2519 970.314,-73.8886 959.723,-73.5803 961.842,-80.2519"/>
</g>
<!-- Node8 -->
<g id="node8" class="node"><title>Node8</title>
<polygon fill="white" stroke="#bfbfbf" points="1031.5,-56.5 1031.5,-75.5 1080.5,-75.5 1080.5,-56.5 1031.5,-56.5"/>
<text text-anchor="middle" x="1056" y="-63.5" font-family="Helvetica,sans-Serif" font-size="10.00">cstddef</text>
</g>
<!-- Node2&#45;&gt;Node8 -->
<g id="edge7" class="edge"><title>Node2&#45;&gt;Node8</title>
<path fill="none" stroke="midnightblue" d="M862.552,-112.494C901.094,-104.283 960.916,-91.2085 1021.11,-76.3942"/>
<polygon fill="midnightblue" stroke="midnightblue" points="1022.3,-79.7058 1031.17,-73.9044 1020.62,-72.9111 1022.3,-79.7058"/>
</g>
<!-- Node9 -->
<g id="node9" class="node"><title>Node9</title>
<polygon fill="white" stroke="#bfbfbf" points="1098.5,-56.5 1098.5,-75.5 1143.5,-75.5 1143.5,-56.5 1098.5,-56.5"/>
<text text-anchor="middle" x="1121" y="-63.5" font-family="Helvetica,sans-Serif" font-size="10.00">cstdlib</text>
</g>
<!-- Node2&#45;&gt;Node9 -->
<g id="edge8" class="edge"><title>Node2&#45;&gt;Node9</title>
<path fill="none" stroke="midnightblue" d="M883.601,-112.734C935.834,-105.253 1012.89,-93.1135 1088.25,-76.1997"/>
<polygon fill="midnightblue" stroke="midnightblue" points="1089.42,-79.5242 1098.39,-73.8926 1087.87,-72.6987 1089.42,-79.5242"/>
</g>
<!-- Node10 -->
<g id="node10" class="node"><title>Node10</title>
<polygon fill="white" stroke="#bfbfbf" points="1162,-56.5 1162,-75.5 1206,-75.5 1206,-56.5 1162,-56.5"/>
<text text-anchor="middle" x="1184" y="-63.5" font-family="Helvetica,sans-Serif" font-size="10.00">cerrno</text>
</g>
<!-- Node2&#45;&gt;Node10 -->
<g id="edge9" class="edge"><title>Node2&#45;&gt;Node10</title>
<path fill="none" stroke="midnightblue" d="M883.777,-115.351C948.463,-108.819 1053.09,-96.5144 1151.9,-75.9661"/>
<polygon fill="midnightblue" stroke="midnightblue" points="1152.69,-79.3767 1161.75,-73.8859 1151.24,-72.5278 1152.69,-79.3767"/>
</g>
<!-- Node11 -->
<g id="node11" class="node"><title>Node11</title>
<polygon fill="white" stroke="#bfbfbf" points="1224,-56.5 1224,-75.5 1270,-75.5 1270,-56.5 1224,-56.5"/>
<text text-anchor="middle" x="1247" y="-63.5" font-family="Helvetica,sans-Serif" font-size="10.00">cstring</text>
</g>
<!-- Node2&#45;&gt;Node11 -->
<g id="edge10" class="edge"><title>Node2&#45;&gt;Node11</title>
<path fill="none" stroke="midnightblue" d="M883.734,-117.003C959.481,-111.416 1091.88,-99.4357 1213.8,-75.956"/>
<polygon fill="midnightblue" stroke="midnightblue" points="1214.54,-79.3779 1223.69,-74.023 1213.2,-72.5081 1214.54,-79.3779"/>
</g>
<!-- Node2&#45;&gt;Node12 -->
<g id="edge11" class="edge"><title>Node2&#45;&gt;Node12</title>
<path fill="none" stroke="midnightblue" d="M760.416,-119.178C606.501,-114.343 207.07,-100.008 54.3424,-75.7806"/>
<polygon fill="midnightblue" stroke="midnightblue" points="54.6503,-72.2838 44.2114,-74.0949 53.5013,-79.1888 54.6503,-72.2838"/>
</g>
<!-- Node13 -->
<g id="node13" class="node"><title>Node13</title>
<polygon fill="white" stroke="#bfbfbf" points="1288.5,-56.5 1288.5,-75.5 1333.5,-75.5 1333.5,-56.5 1288.5,-56.5"/>
<text text-anchor="middle" x="1311" y="-63.5" font-family="Helvetica,sans-Serif" font-size="10.00">iosfwd</text>
</g>
<!-- Node2&#45;&gt;Node13 -->
<g id="edge12" class="edge"><title>Node2&#45;&gt;Node13</title>
<path fill="none" stroke="midnightblue" d="M883.84,-118.366C970.159,-113.928 1131.69,-102.852 1278.31,-75.7816"/>
<polygon fill="midnightblue" stroke="midnightblue" points="1279.21,-79.1741 1288.39,-73.8902 1277.92,-72.2942 1279.21,-79.1741"/>
</g>
<!-- Node2&#45;&gt;Node14 -->
<g id="edge13" class="edge"><title>Node2&#45;&gt;Node14</title>
<path fill="none" stroke="midnightblue" d="M760.055,-120.739C639.528,-119.421 365.07,-112.447 125.943,-75.8497"/>
<polygon fill="midnightblue" stroke="midnightblue" points="126.438,-72.3848 116.02,-74.3107 125.365,-79.3021 126.438,-72.3848"/>
</g>
<!-- Node15 -->
<g id="node15" class="node"><title>Node15</title>
<polygon fill="white" stroke="#bfbfbf" points="1352,-56.5 1352,-75.5 1404,-75.5 1404,-56.5 1352,-56.5"/>
<text text-anchor="middle" x="1378" y="-63.5" font-family="Helvetica,sans-Serif" font-size="10.00">sstream</text>
</g>
<!-- Node2&#45;&gt;Node15 -->
<g id="edge14" class="edge"><title>Node2&#45;&gt;Node15</title>
<path fill="none" stroke="midnightblue" d="M883.776,-118.972C979.892,-115.09 1171.09,-104.462 1341.81,-75.9348"/>
<polygon fill="midnightblue" stroke="midnightblue" points="1342.45,-79.3757 1351.73,-74.2531 1341.28,-72.4742 1342.45,-79.3757"/>
</g>
<!-- Node16 -->
<g id="node16" class="node"><title>Node16</title>
<polygon fill="white" stroke="#bfbfbf" points="1422.5,-56.5 1422.5,-75.5 1463.5,-75.5 1463.5,-56.5 1422.5,-56.5"/>
<text text-anchor="middle" x="1443" y="-63.5" font-family="Helvetica,sans-Serif" font-size="10.00">regex</text>
</g>
<!-- Node2&#45;&gt;Node16 -->
<g id="edge15" class="edge"><title>Node2&#45;&gt;Node16</title>
<path fill="none" stroke="midnightblue" d="M883.822,-120.655C990.209,-119.112 1214.68,-111.689 1412.49,-75.6397"/>
<polygon fill="midnightblue" stroke="midnightblue" points="1413.29,-79.0514 1422.49,-73.7894 1412.02,-72.1683 1413.29,-79.0514"/>
</g>
<!-- Node2&#45;&gt;Node17 -->
<g id="edge16" class="edge"><title>Node2&#45;&gt;Node17</title>
<path fill="none" stroke="midnightblue" d="M760.095,-119.706C647.593,-116.652 402.338,-106.756 198,-76 196.724,-75.808 195.429,-75.5966 194.123,-75.3695"/>
<polygon fill="midnightblue" stroke="midnightblue" points="194.554,-71.8871 184.066,-73.3858 193.199,-78.7548 194.554,-71.8871"/>
</g>
<!-- Node18 -->
<g id="node18" class="node"><title>Node18</title>
<polygon fill="white" stroke="#bfbfbf" points="1481.5,-56.5 1481.5,-75.5 1532.5,-75.5 1532.5,-56.5 1481.5,-56.5"/>
<text text-anchor="middle" x="1507" y="-63.5" font-family="Helvetica,sans-Serif" font-size="10.00">unistd.h</text>
</g>
<!-- Node2&#45;&gt;Node18 -->
<g id="edge17" class="edge"><title>Node2&#45;&gt;Node18</title>
<path fill="none" stroke="midnightblue" d="M883.935,-120.617C998.425,-119.062 1250.88,-111.673 1471.35,-75.9737"/>
<polygon fill="midnightblue" stroke="midnightblue" points="1472.19,-79.3824 1481.49,-74.3075 1471.06,-72.475 1472.19,-79.3824"/>
</g>
<!-- Node19 -->
<g id="node19" class="node"><title>Node19</title>
<polygon fill="white" stroke="#bfbfbf" points="1551,-56.5 1551,-75.5 1595,-75.5 1595,-56.5 1551,-56.5"/>
<text text-anchor="middle" x="1573" y="-63.5" font-family="Helvetica,sans-Serif" font-size="10.00">fcntl.h</text>
</g>
<!-- Node2&#45;&gt;Node19 -->
<g id="edge18" class="edge"><title>Node2&#45;&gt;Node19</title>
<path fill="none" stroke="midnightblue" d="M883.694,-121.691C1007.19,-122.091 1293.41,-118.079 1540.89,-75.7991"/>
<polygon fill="midnightblue" stroke="midnightblue" points="1541.53,-79.2401 1550.79,-74.084 1540.34,-72.3429 1541.53,-79.2401"/>
</g>
<!-- Node20 -->
<g id="node20" class="node"><title>Node20</title>
<polygon fill="white" stroke="#bfbfbf" points="1613,-56.5 1613,-75.5 1653,-75.5 1653,-56.5 1613,-56.5"/>
<text text-anchor="middle" x="1633" y="-63.5" font-family="Helvetica,sans-Serif" font-size="10.00">limits</text>
</g>
<!-- Node2&#45;&gt;Node20 -->
<g id="edge19" class="edge"><title>Node2&#45;&gt;Node20</title>
<path fill="none" stroke="midnightblue" d="M883.777,-119.386C1039.7,-115.008 1447.23,-101.602 1602.57,-75.7357"/>
<polygon fill="midnightblue" stroke="midnightblue" points="1603.63,-79.1043 1612.87,-73.9329 1602.42,-72.2091 1603.63,-79.1043"/>
</g>
<!-- Node21 -->
<g id="node21" class="node"><title>Node21</title>
<polygon fill="white" stroke="#bfbfbf" points="648.5,-0.5 648.5,-19.5 689.5,-19.5 689.5,-0.5 648.5,-0.5"/>
<text text-anchor="middle" x="669" y="-7.5" font-family="Helvetica,sans-Serif" font-size="10.00">string</text>
</g>
<!-- Node2&#45;&gt;Node21 -->
<g id="edge20" class="edge"><title>Node2&#45;&gt;Node21</title>
<path fill="none" stroke="midnightblue" d="M760.422,-117.378C730.43,-112.263 696.502,-100.864 676,-76 665.516,-63.2861 664.673,-44.0863 665.906,-29.8467"/>
<polygon fill="midnightblue" stroke="midnightblue" points="669.406,-30.071 667.197,-19.709 662.462,-29.187 669.406,-30.071"/>
</g>
<!-- Node2&#45;&gt;Node22 -->
<g id="edge21" class="edge"><title>Node2&#45;&gt;Node22</title>
<path fill="none" stroke="midnightblue" d="M883.538,-119.994C1072.82,-116.604 1635.28,-104.188 1662,-76 1710.16,-25.1944 1419.99,-13.9348 1321.13,-11.5855"/>
<polygon fill="midnightblue" stroke="midnightblue" points="1321.18,-8.08598 1311.11,-11.3627 1321.03,-15.0842 1321.18,-8.08598"/>
</g>
<!-- Node23 -->
<g id="node23" class="node"><title>Node23</title>
<polygon fill="white" stroke="#bfbfbf" points="240.5,-56.5 240.5,-75.5 281.5,-75.5 281.5,-56.5 240.5,-56.5"/>
<text text-anchor="middle" x="261" y="-63.5" font-family="Helvetica,sans-Serif" font-size="10.00">stack</text>
</g>
<!-- Node2&#45;&gt;Node23 -->
<g id="edge22" class="edge"><title>Node2&#45;&gt;Node23</title>
<path fill="none" stroke="midnightblue" d="M760.369,-120.102C662.487,-117.733 465.56,-109.115 291.611,-75.9448"/>
<polygon fill="midnightblue" stroke="midnightblue" points="292.254,-72.5044 281.771,-74.037 290.922,-79.3764 292.254,-72.5044"/>
</g>
<!-- Node24 -->
<g id="node24" class="node"><title>Node24</title>
<polygon fill="white" stroke="#bfbfbf" points="299.5,-56.5 299.5,-75.5 342.5,-75.5 342.5,-56.5 299.5,-56.5"/>
<text text-anchor="middle" x="321" y="-63.5" font-family="Helvetica,sans-Serif" font-size="10.00">deque</text>
</g>
<!-- Node2&#45;&gt;Node24 -->
<g id="edge23" class="edge"><title>Node2&#45;&gt;Node24</title>
<path fill="none" stroke="midnightblue" d="M760.307,-117.951C670.883,-112.873 500.269,-100.7 357,-76 355.532,-75.7469 354.035,-75.4661 352.527,-75.1646"/>
<polygon fill="midnightblue" stroke="midnightblue" points="353.113,-71.7094 342.591,-72.9506 351.591,-78.5418 353.113,-71.7094"/>
</g>
<!-- Node25 -->
<g id="node25" class="node"><title>Node25</title>
<polygon fill="white" stroke="#bfbfbf" points="533,-0.5 533,-19.5 577,-19.5 577,-0.5 533,-0.5"/>
<text text-anchor="middle" x="555" y="-7.5" font-family="Helvetica,sans-Serif" font-size="10.00">mutex</text>
</g>
<!-- Node2&#45;&gt;Node25 -->
<g id="edge24" class="edge"><title>Node2&#45;&gt;Node25</title>
<path fill="none" stroke="midnightblue" d="M760.48,-112.468C723.894,-105.809 677.301,-94.4941 639,-76 612.699,-63.3003 586.788,-41.4331 570.852,-26.6041"/>
<polygon fill="midnightblue" stroke="midnightblue" points="573.133,-23.9425 563.479,-19.5769 568.303,-29.0097 573.133,-23.9425"/>
</g>
<!-- Node26 -->
<g id="node26" class="node"><title>Node26</title>
<polygon fill="white" stroke="#bfbfbf" points="217,-0.5 217,-19.5 261,-19.5 261,-0.5 217,-0.5"/>
<text text-anchor="middle" x="239" y="-7.5" font-family="Helvetica,sans-Serif" font-size="10.00">thread</text>
</g>
<!-- Node2&#45;&gt;Node26 -->
<g id="edge25" class="edge"><title>Node2&#45;&gt;Node26</title>
<path fill="none" stroke="midnightblue" d="M760.417,-118.544C612.643,-112.352 248.814,-95.2222 231,-76 219.557,-63.6526 224.027,-43.8447 229.83,-29.3365"/>
<polygon fill="midnightblue" stroke="midnightblue" points="233.168,-30.4467 234.083,-19.8914 226.786,-27.5726 233.168,-30.4467"/>
</g>
<!-- Node27 -->
<g id="node27" class="node"><title>Node27</title>
<polygon fill="white" stroke="#bfbfbf" points="312.5,-0.5 312.5,-19.5 407.5,-19.5 407.5,-0.5 312.5,-0.5"/>
<text text-anchor="middle" x="360" y="-7.5" font-family="Helvetica,sans-Serif" font-size="10.00">condition_variable</text>
</g>
<!-- Node2&#45;&gt;Node27 -->
<g id="edge26" class="edge"><title>Node2&#45;&gt;Node27</title>
<path fill="none" stroke="midnightblue" d="M760.372,-119.402C662.623,-115.994 477.143,-105.716 419,-76 397.872,-65.202 380.621,-43.4973 370.346,-28.1455"/>
<polygon fill="midnightblue" stroke="midnightblue" points="373.202,-26.1151 364.877,-19.5621 367.298,-29.8765 373.202,-26.1151"/>
</g>
<!-- Node28 -->
<g id="node28" class="node"><title>Node28</title>
<polygon fill="white" stroke="#bfbfbf" points="425.5,-0.5 425.5,-19.5 468.5,-19.5 468.5,-0.5 425.5,-0.5"/>
<text text-anchor="middle" x="447" y="-7.5" font-family="Helvetica,sans-Serif" font-size="10.00">queue</text>
</g>
<!-- Node2&#45;&gt;Node28 -->
<g id="edge27" class="edge"><title>Node2&#45;&gt;Node28</title>
<path fill="none" stroke="midnightblue" d="M760.449,-118.395C655.173,-113.301 449.715,-100.337 428,-76 416.185,-62.7591 424.907,-42.5361 434.056,-28.1671"/>
<polygon fill="midnightblue" stroke="midnightblue" points="437.103,-29.916 439.919,-19.7023 431.348,-25.9306 437.103,-29.916"/>
</g>
<!-- Node29 -->
<g id="node29" class="node"><title>Node29</title>
<polygon fill="white" stroke="#bfbfbf" points="595.5,-0.5 595.5,-19.5 630.5,-19.5 630.5,-0.5 595.5,-0.5"/>
<text text-anchor="middle" x="613" y="-7.5" font-family="Helvetica,sans-Serif" font-size="10.00">map</text>
</g>
<!-- Node2&#45;&gt;Node29 -->
<g id="edge28" class="edge"><title>Node2&#45;&gt;Node29</title>
<path fill="none" stroke="midnightblue" d="M760.426,-112.71C729.512,-106.349 692.648,-95.2431 664,-76 645.833,-63.7969 631.205,-43.0504 622.35,-28.2792"/>
<polygon fill="midnightblue" stroke="midnightblue" points="625.384,-26.534 617.387,-19.5852 619.305,-30.0048 625.384,-26.534"/>
</g>
<!-- Node30 -->
<g id="node30" class="node"><title>Node30</title>
<g id="a_node30"><a xlink:href="cosmos-defs_8h.html" target="_top" xlink:title="COSMOS definitions Definitions specific to the COSMOS environement. ">
<polygon fill="white" stroke="black" points="437,-56.5 437,-75.5 553,-75.5 553,-56.5 437,-56.5"/>
<text text-anchor="middle" x="495" y="-63.5" font-family="Helvetica,sans-Serif" font-size="10.00">support/cosmos&#45;defs.h</text>
</a>
</g>
</g>
<!-- Node2&#45;&gt;Node30 -->
<g id="edge29" class="edge"><title>Node2&#45;&gt;Node30</title>
<path fill="none" stroke="midnightblue" d="M770.186,-112.444C712.185,-102.865 618.264,-87.3556 556.565,-77.1667"/>
<polygon fill="midnightblue" stroke="midnightblue" points="557.008,-73.6926 546.572,-75.5164 555.868,-80.5991 557.008,-73.6926"/>
</g>
<!-- Node32 -->
<g id="node32" class="node"><title>Node32</title>
<g id="a_node32"><a xlink:href="json11_8hpp.html" target="_top" xlink:title="json11.hpp">
<polygon fill="white" stroke="black" points="685,-56.5 685,-75.5 749,-75.5 749,-56.5 685,-56.5"/>
<text text-anchor="middle" x="717" y="-63.5" font-family="Helvetica,sans-Serif" font-size="10.00">json11.hpp</text>
</a>
</g>
</g>
<!-- Node2&#45;&gt;Node32 -->
<g id="edge37" class="edge"><title>Node2&#45;&gt;Node32</title>
<path fill="none" stroke="midnightblue" d="M805.13,-112.324C788.291,-103.664 762.193,-90.2424 742.762,-80.249"/>
<polygon fill="midnightblue" stroke="midnightblue" points="744.322,-77.1155 733.828,-75.6545 741.12,-83.3405 744.322,-77.1155"/>
</g>
<!-- Node30&#45;&gt;Node22 -->
<g id="edge31" class="edge"><title>Node30&#45;&gt;Node22</title>
<path fill="none" stroke="midnightblue" d="M553.063,-61.0511C709.398,-50.4188 1135.54,-21.4367 1256.56,-13.2063"/>
<polygon fill="midnightblue" stroke="midnightblue" points="1256.93,-16.6894 1266.67,-12.5188 1256.45,-9.70554 1256.93,-16.6894"/>
</g>
<!-- Node30&#45;&gt;Node25 -->
<g id="edge35" class="edge"><title>Node30&#45;&gt;Node25</title>
<path fill="none" stroke="midnightblue" d="M504.64,-56.324C513.51,-48.3414 526.875,-36.3128 537.608,-26.6529"/>
<polygon fill="midnightblue" stroke="midnightblue" points="540.093,-29.1251 545.185,-19.8339 535.41,-23.922 540.093,-29.1251"/>
</g>
<!-- Node30&#45;&gt;Node26 -->
<g id="edge34" class="edge"><title>Node30&#45;&gt;Node26</title>
<path fill="none" stroke="midnightblue" d="M454.436,-56.4435C403.58,-45.716 317.449,-27.5478 270.99,-17.748"/>
<polygon fill="midnightblue" stroke="midnightblue" points="271.67,-14.3143 261.163,-15.6749 270.225,-21.1636 271.67,-14.3143"/>
</g>
<!-- Node30&#45;&gt;Node27 -->
<g id="edge36" class="edge"><title>Node30&#45;&gt;Node27</title>
<path fill="none" stroke="midnightblue" d="M473.609,-56.4435C451.293,-47.5171 416.097,-33.4387 390.792,-23.3168"/>
<polygon fill="midnightblue" stroke="midnightblue" points="391.876,-19.9807 381.291,-19.5164 389.276,-26.4801 391.876,-19.9807"/>
</g>
<!-- Node30&#45;&gt;Node28 -->
<g id="edge33" class="edge"><title>Node30&#45;&gt;Node28</title>
<path fill="none" stroke="midnightblue" d="M487.074,-56.083C480.154,-48.2982 469.935,-36.8015 461.548,-27.3665"/>
<polygon fill="midnightblue" stroke="midnightblue" points="464.038,-24.8999 454.779,-19.7511 458.806,-29.5505 464.038,-24.8999"/>
</g>
<!-- Node30&#45;&gt;Node29 -->
<g id="edge30" class="edge"><title>Node30&#45;&gt;Node29</title>
<path fill="none" stroke="midnightblue" d="M513.697,-56.4435C533.171,-47.532 563.865,-33.4856 585.975,-23.3674"/>
<polygon fill="midnightblue" stroke="midnightblue" points="587.526,-26.5068 595.162,-19.1629 584.613,-20.1417 587.526,-26.5068"/>
</g>
<!-- Node31 -->
<g id="node31" class="node"><title>Node31</title>
<polygon fill="white" stroke="#bfbfbf" points="486.5,-0.5 486.5,-19.5 515.5,-19.5 515.5,-0.5 486.5,-0.5"/>
<text text-anchor="middle" x="501" y="-7.5" font-family="Helvetica,sans-Serif" font-size="10.00">list</text>
</g>
<!-- Node30&#45;&gt;Node31 -->
<g id="edge32" class="edge"><title>Node30&#45;&gt;Node31</title>
<path fill="none" stroke="midnightblue" d="M495.991,-56.083C496.786,-48.9272 497.929,-38.6353 498.923,-29.6911"/>
<polygon fill="midnightblue" stroke="midnightblue" points="502.402,-30.0765 500.028,-19.7511 495.445,-29.3034 502.402,-30.0765"/>
</g>
<!-- Node32&#45;&gt;Node21 -->
<g id="edge38" class="edge"><title>Node32&#45;&gt;Node21</title>
<path fill="none" stroke="midnightblue" d="M709.074,-56.083C702.154,-48.2982 691.935,-36.8015 683.548,-27.3665"/>
<polygon fill="midnightblue" stroke="midnightblue" points="686.038,-24.8999 676.779,-19.7511 680.806,-29.5505 686.038,-24.8999"/>
</g>
<!-- Node32&#45;&gt;Node22 -->
<g id="edge39" class="edge"><title>Node32&#45;&gt;Node22</title>
<path fill="none" stroke="midnightblue" d="M749.027,-57.701C752.384,-57.0667 755.755,-56.4835 759,-56 946.472,-28.0694 1174.03,-15.999 1256.88,-12.3112"/>
<polygon fill="midnightblue" stroke="midnightblue" points="1257.08,-15.8056 1266.92,-11.8739 1256.78,-8.81221 1257.08,-15.8056"/>
</g>
<!-- Node32&#45;&gt;Node29 -->
<g id="edge40" class="edge"><title>Node32&#45;&gt;Node29</title>
<path fill="none" stroke="midnightblue" d="M700.291,-56.324C683.688,-47.7034 657.998,-34.3643 638.78,-24.3855"/>
<polygon fill="midnightblue" stroke="midnightblue" points="640.156,-21.1565 629.668,-19.6545 636.93,-27.3689 640.156,-21.1565"/>
</g>
<!-- Node33 -->
<g id="node33" class="node"><title>Node33</title>
<polygon fill="white" stroke="#bfbfbf" points="799,-0.5 799,-19.5 851,-19.5 851,-0.5 799,-0.5"/>
<text text-anchor="middle" x="825" y="-7.5" font-family="Helvetica,sans-Serif" font-size="10.00">memory</text>
</g>
<!-- Node32&#45;&gt;Node33 -->
<g id="edge41" class="edge"><title>Node32&#45;&gt;Node33</title>
<path fill="none" stroke="midnightblue" d="M734.352,-56.324C751.672,-47.6641 778.515,-34.2424 798.502,-24.249"/>
<polygon fill="midnightblue" stroke="midnightblue" points="800.312,-27.2572 807.691,-19.6545 797.181,-20.9962 800.312,-27.2572"/>
</g>
<!-- Node34 -->
<g id="node34" class="node"><title>Node34</title>
<polygon fill="white" stroke="#bfbfbf" points="707.5,-0.5 707.5,-19.5 780.5,-19.5 780.5,-0.5 707.5,-0.5"/>
<text text-anchor="middle" x="744" y="-7.5" font-family="Helvetica,sans-Serif" font-size="10.00">initializer_list</text>
</g>
<!-- Node32&#45;&gt;Node34 -->
<g id="edge42" class="edge"><title>Node32&#45;&gt;Node34</title>
<path fill="none" stroke="midnightblue" d="M721.459,-56.083C725.154,-48.6913 730.523,-37.9533 735.094,-28.8111"/>
<polygon fill="midnightblue" stroke="midnightblue" points="738.283,-30.2606 739.624,-19.7511 732.022,-27.1301 738.283,-30.2606"/>
</g>
<!-- Node35&#45;&gt;Node2 -->
<g id="edge44" class="edge"><title>Node35&#45;&gt;Node2</title>
<path fill="none" stroke="midnightblue" d="M822,-168.083C822,-161.006 822,-150.861 822,-141.986"/>
<polygon fill="midnightblue" stroke="midnightblue" points="825.5,-141.751 822,-131.751 818.5,-141.751 825.5,-141.751"/>
</g>
<!-- Node35&#45;&gt;Node5 -->
<g id="edge45" class="edge"><title>Node35&#45;&gt;Node5</title>
<path fill="none" stroke="midnightblue" d="M856.326,-173.544C972.204,-161.752 1359.48,-121.309 1678,-76 1684.67,-75.0514 1691.78,-73.9381 1698.59,-72.8242"/>
<polygon fill="midnightblue" stroke="midnightblue" points="1699.63,-76.1989 1708.91,-71.0967 1698.47,-69.2949 1699.63,-76.1989"/>
</g>
</g>
</svg>
        <g id="navigator" transform="translate(0 0)" fill="#404254">
                <rect fill="#f2f5e9" fill-opacity="0.5" stroke="#606060" stroke-width=".5" x="0" y="0" width="60" height="60"/>
                <use id="zoomplus" xlink:href="#zoomPlus" x="17" y="9" onmousedown="handleZoom(evt,'in')"/>
                <use id="zoomminus" xlink:href="#zoomMin" x="42" y="9" onmousedown="handleZoom(evt,'out')"/>
                <use id="reset" xlink:href="#resetDef" x="30" y="36" onmousedown="handleReset()"/>
                <g id="arrowUp" xlink:href="#dirArrow" transform="translate(30 24)" onmousedown="handlePan(0,-1)">
                  <use xlink:href="#rim" fill="#404040">
                        <set attributeName="fill" to="#808080" begin="arrowUp.mouseover" end="arrowUp.mouseout"/>
                  </use>
                  <path fill="none" stroke="white" stroke-width="1.5" d="M0,-3.0v7 M-2.5,-0.5L0,-3.0L2.5,-0.5"/>
                </g>
                <g id="arrowRight" xlink:href="#dirArrow" transform="rotate(90) translate(36 -43)" onmousedown="handlePan(1,0)">
                  <use xlink:href="#rim" fill="#404040">
                        <set attributeName="fill" to="#808080" begin="arrowRight.mouseover" end="arrowRight.mouseout"/>
                  </use>
                  <path fill="none" stroke="white" stroke-width="1.5" d="M0,-3.0v7 M-2.5,-0.5L0,-3.0L2.5,-0.5"/>
                </g>
                <g id="arrowDown" xlink:href="#dirArrow" transform="rotate(180) translate(-30 -48)" onmousedown="handlePan(0,1)">
                  <use xlink:href="#rim" fill="#404040">
                        <set attributeName="fill" to="#808080" begin="arrowDown.mouseover" end="arrowDown.mouseout"/>
                  </use>
                  <path fill="none" stroke="white" stroke-width="1.5" d="M0,-3.0v7 M-2.5,-0.5L0,-3.0L2.5,-0.5"/>
                </g>
                <g id="arrowLeft" xlink:href="#dirArrow" transform="rotate(270) translate(-36 17)" onmousedown="handlePan(-1,0)">
                  <use xlink:href="#rim" fill="#404040">
                        <set attributeName="fill" to="#808080" begin="arrowLeft.mouseover" end="arrowLeft.mouseout"/>
                  </use>
                  <path fill="none" stroke="white" stroke-width="1.5" d="M0,-3.0v7 M-2.5,-0.5L0,-3.0L2.5,-0.5"/>
                </g>
        </g>
        <svg viewBox="0 0 15 15" width="100%" height="30px" preserveAspectRatio="xMaxYMin meet">
         <g id="arrow_out" transform="scale(0.3 0.3)">
          <a xlink:href="vector_8h__incl_org.svg" target="_base">
           <rect id="button" ry="5" rx="5" y="6" x="6" height="38" width="38"
                fill="#f2f5e9" fill-opacity="0.5" stroke="#606060" stroke-width="1.0"/>
           <path id="arrow"
             d="M 11.500037,31.436501 C 11.940474,20.09759 22.043105,11.32322 32.158766,21.979434 L 37.068811,17.246167 C 37.068811,17.246167 37.088388,32 37.088388,32 L 22.160133,31.978069 C 22.160133,31.978069 26.997745,27.140456 26.997745,27.140456 C 18.528582,18.264221 13.291696,25.230495 11.500037,31.436501 z"
             style="fill:#404040;"/>
          </a>
         </g>
        </svg>
</svg>
