<?xml version="1.0" encoding="UTF-8" standalone="no"?>
<!DOCTYPE svg PUBLIC "-//W3C//DTD SVG 1.1//EN"
 "http://www.w3.org/Graphics/SVG/1.1/DTD/svg11.dtd">
<!-- Generated by graphviz version 2.38.0 (20140413.2041)
 -->
<!-- Title: zconf.h Pages: 1 -->
<svg width="130pt" height="84pt"
 viewBox="0.00 0.00 129.50 84.00" xmlns="http://www.w3.org/2000/svg" xmlns:xlink="http://www.w3.org/1999/xlink">
<g id="graph0" class="graph" transform="scale(1 1) rotate(0) translate(4 80)">
<title>zconf.h</title>
<polygon fill="white" stroke="none" points="-4,4 -4,-80 125.5,-80 125.5,4 -4,4"/>
<!-- Node1 -->
<g id="node1" class="node"><title>Node1</title>
<polygon fill="#bfbfbf" stroke="black" points="36.5,-56.5 36.5,-75.5 85.5,-75.5 85.5,-56.5 36.5,-56.5"/>
<text text-anchor="middle" x="61" y="-63.5" font-family="Helvetica,sans-Serif" font-size="10.00">zconf.h</text>
</g>
<!-- Node2 -->
<g id="node2" class="node"><title>Node2</title>
<polygon fill="white" stroke="#bfbfbf" points="0,-0.5 0,-19.5 52,-19.5 52,-0.5 0,-0.5"/>
<text text-anchor="middle" x="26" y="-7.5" font-family="Helvetica,sans-Serif" font-size="10.00">stdarg.h</text>
</g>
<!-- Node1&#45;&gt;Node2 -->
<g id="edge1" class="edge"><title>Node1&#45;&gt;Node2</title>
<path fill="none" stroke="midnightblue" d="M55.2205,-56.083C50.3276,-48.5341 43.1726,-37.4948 37.1674,-28.2298"/>
<polygon fill="midnightblue" stroke="midnightblue" points="40.048,-26.239 31.672,-19.7511 34.174,-30.0463 40.048,-26.239"/>
</g>
<!-- Node3 -->
<g id="node3" class="node"><title>Node3</title>
<polygon fill="white" stroke="#bfbfbf" points="70.5,-0.5 70.5,-19.5 121.5,-19.5 121.5,-0.5 70.5,-0.5"/>
<text text-anchor="middle" x="96" y="-7.5" font-family="Helvetica,sans-Serif" font-size="10.00">unistd.h</text>
</g>
<!-- Node1&#45;&gt;Node3 -->
<g id="edge2" class="edge"><title>Node1&#45;&gt;Node3</title>
<path fill="none" stroke="midnightblue" d="M66.7795,-56.083C71.6724,-48.5341 78.8274,-37.4948 84.8326,-28.2298"/>
<polygon fill="midnightblue" stroke="midnightblue" points="87.826,-30.0463 90.328,-19.7511 81.952,-26.239 87.826,-30.0463"/>
</g>
</g>
</svg>
