<?xml version="1.0" encoding="UTF-8" standalone="no"?>
<!DOCTYPE svg PUBLIC "-//W3C//DTD SVG 1.1//EN"
 "http://www.w3.org/Graphics/SVG/1.1/DTD/svg11.dtd">
<!-- Generated by graphviz version 2.38.0 (20140413.2041)
 -->
<!-- Title: zlib.h Pages: 1 -->
<svg width="2839pt" height="196pt"
 viewBox="0.00 0.00 2838.50 196.00" xmlns="http://www.w3.org/2000/svg" xmlns:xlink="http://www.w3.org/1999/xlink">
<g id="graph0" class="graph" transform="scale(1 1) rotate(0) translate(4 192)">
<title>zlib.h</title>
<polygon fill="white" stroke="none" points="-4,4 -4,-192 2834.5,-192 2834.5,4 -4,4"/>
<!-- Node1 -->
<g id="node1" class="node"><title>Node1</title>
<polygon fill="#bfbfbf" stroke="black" points="2444,-168.5 2444,-187.5 2484,-187.5 2484,-168.5 2444,-168.5"/>
<text text-anchor="middle" x="2464" y="-175.5" font-family="Helvetica,sans-Serif" font-size="10.00">zlib.h</text>
</g>
<!-- Node2 -->
<g id="node2" class="node"><title>Node2</title>
<g id="a_node2"><a xlink:href="datalib_8h.html" target="_top" xlink:title="Data Management header file. ">
<polygon fill="white" stroke="black" points="1027.5,-112.5 1027.5,-131.5 1080.5,-131.5 1080.5,-112.5 1027.5,-112.5"/>
<text text-anchor="middle" x="1054" y="-119.5" font-family="Helvetica,sans-Serif" font-size="10.00">datalib.h</text>
</a>
</g>
</g>
<!-- Node1&#45;&gt;Node2 -->
<g id="edge1" class="edge"><title>Node1&#45;&gt;Node2</title>
<path fill="none" stroke="midnightblue" d="M2433.6,-175.836C2246.78,-168.681 1256.42,-130.752 1080.68,-124.022"/>
<polygon fill="midnightblue" stroke="midnightblue" points="2433.67,-179.341 2443.8,-176.226 2433.94,-172.346 2433.67,-179.341"/>
</g>
<!-- Node32 -->
<g id="node32" class="node"><title>Node32</title>
<g id="a_node32"><a xlink:href="archive_8cpp.html" target="_top" xlink:title="archive.cpp">
<polygon fill="white" stroke="black" points="2186.5,-56.5 2186.5,-75.5 2253.5,-75.5 2253.5,-56.5 2186.5,-56.5"/>
<text text-anchor="middle" x="2220" y="-63.5" font-family="Helvetica,sans-Serif" font-size="10.00">archive.cpp</text>
</a>
</g>
</g>
<!-- Node1&#45;&gt;Node32 -->
<g id="edge67" class="edge"><title>Node1&#45;&gt;Node32</title>
<path fill="none" stroke="midnightblue" d="M2433.98,-175.593C2394.74,-172.533 2325.14,-162.822 2275,-132 2251.58,-117.602 2233.16,-89.8129 2224.83,-75.6924"/>
<polygon fill="midnightblue" stroke="midnightblue" points="2433.75,-179.085 2443.96,-176.278 2434.23,-172.102 2433.75,-179.085"/>
</g>
<!-- Node37 -->
<g id="node37" class="node"><title>Node37</title>
<g id="a_node37"><a xlink:href="pngstruct_8h.html" target="_top" xlink:title="pngstruct.h">
<polygon fill="white" stroke="black" points="2284.5,-112.5 2284.5,-131.5 2349.5,-131.5 2349.5,-112.5 2284.5,-112.5"/>
<text text-anchor="middle" x="2317" y="-119.5" font-family="Helvetica,sans-Serif" font-size="10.00">pngstruct.h</text>
</a>
</g>
</g>
<!-- Node1&#45;&gt;Node37 -->
<g id="edge53" class="edge"><title>Node1&#45;&gt;Node37</title>
<path fill="none" stroke="midnightblue" d="M2434.29,-166.088C2406.56,-155.899 2365.72,-140.898 2340.28,-131.551"/>
<polygon fill="midnightblue" stroke="midnightblue" points="2433.27,-169.442 2443.87,-169.605 2435.69,-162.871 2433.27,-169.442"/>
</g>
<!-- Node39 -->
<g id="node39" class="node"><title>Node39</title>
<g id="a_node39"><a xlink:href="pngtest_8c.html" target="_top" xlink:title="pngtest.c">
<polygon fill="white" stroke="black" points="2401.5,-112.5 2401.5,-131.5 2458.5,-131.5 2458.5,-112.5 2401.5,-112.5"/>
<text text-anchor="middle" x="2430" y="-119.5" font-family="Helvetica,sans-Serif" font-size="10.00">pngtest.c</text>
</a>
</g>
</g>
<!-- Node1&#45;&gt;Node39 -->
<g id="edge55" class="edge"><title>Node1&#45;&gt;Node39</title>
<path fill="none" stroke="midnightblue" d="M2453.02,-159.566C2447.17,-150.275 2440.23,-139.248 2435.51,-131.751"/>
<polygon fill="midnightblue" stroke="midnightblue" points="2450.1,-161.486 2458.39,-168.083 2456.02,-157.756 2450.1,-161.486"/>
</g>
<!-- Node40 -->
<g id="node40" class="node"><title>Node40</title>
<g id="a_node40"><a xlink:href="zutil_8h.html" target="_top" xlink:title="zutil.h">
<polygon fill="white" stroke="red" points="2476.5,-112.5 2476.5,-131.5 2519.5,-131.5 2519.5,-112.5 2476.5,-112.5"/>
<text text-anchor="middle" x="2498" y="-119.5" font-family="Helvetica,sans-Serif" font-size="10.00">zutil.h</text>
</a>
</g>
</g>
<!-- Node1&#45;&gt;Node40 -->
<g id="edge56" class="edge"><title>Node1&#45;&gt;Node40</title>
<path fill="none" stroke="midnightblue" d="M2474.98,-159.566C2480.83,-150.275 2487.77,-139.248 2492.49,-131.751"/>
<polygon fill="midnightblue" stroke="midnightblue" points="2471.98,-157.756 2469.61,-168.083 2477.9,-161.486 2471.98,-157.756"/>
</g>
<!-- Node48 -->
<g id="node48" class="node"><title>Node48</title>
<g id="a_node48"><a xlink:href="compress_8c.html" target="_top" xlink:title="compress.c">
<polygon fill="white" stroke="black" points="2538,-112.5 2538,-131.5 2606,-131.5 2606,-112.5 2538,-112.5"/>
<text text-anchor="middle" x="2572" y="-119.5" font-family="Helvetica,sans-Serif" font-size="10.00">compress.c</text>
</a>
</g>
</g>
<!-- Node1&#45;&gt;Node48 -->
<g id="edge64" class="edge"><title>Node1&#45;&gt;Node48</title>
<path fill="none" stroke="midnightblue" d="M2490.55,-163.726C2510.55,-153.727 2537.39,-140.307 2554.69,-131.655"/>
<polygon fill="midnightblue" stroke="midnightblue" points="2488.73,-160.721 2481.35,-168.324 2491.86,-166.982 2488.73,-160.721"/>
</g>
<!-- Node49 -->
<g id="node49" class="node"><title>Node49</title>
<g id="a_node49"><a xlink:href="gzguts_8h.html" target="_top" xlink:title="gzguts.h">
<polygon fill="white" stroke="red" points="2624,-112.5 2624,-131.5 2678,-131.5 2678,-112.5 2624,-112.5"/>
<text text-anchor="middle" x="2651" y="-119.5" font-family="Helvetica,sans-Serif" font-size="10.00">gzguts.h</text>
</a>
</g>
</g>
<!-- Node1&#45;&gt;Node49 -->
<g id="edge65" class="edge"><title>Node1&#45;&gt;Node49</title>
<path fill="none" stroke="midnightblue" d="M2493.89,-168.368C2529.75,-158.012 2589.36,-140.801 2623.92,-130.82"/>
<polygon fill="midnightblue" stroke="midnightblue" points="2492.65,-165.084 2484.01,-171.221 2494.59,-171.809 2492.65,-165.084"/>
</g>
<!-- Node50 -->
<g id="node50" class="node"><title>Node50</title>
<g id="a_node50"><a xlink:href="uncompr_8c.html" target="_top" xlink:title="uncompr.c">
<polygon fill="white" stroke="black" points="2696,-112.5 2696,-131.5 2758,-131.5 2758,-112.5 2696,-112.5"/>
<text text-anchor="middle" x="2727" y="-119.5" font-family="Helvetica,sans-Serif" font-size="10.00">uncompr.c</text>
</a>
</g>
</g>
<!-- Node1&#45;&gt;Node50 -->
<g id="edge66" class="edge"><title>Node1&#45;&gt;Node50</title>
<path fill="none" stroke="midnightblue" d="M2494.07,-171.153C2536.94,-162.764 2618.1,-146.702 2687,-132 2689.78,-131.406 2692.68,-130.778 2695.57,-130.141"/>
<polygon fill="midnightblue" stroke="midnightblue" points="2493.16,-167.763 2484.02,-173.115 2494.51,-174.633 2493.16,-167.763"/>
</g>
<!-- Node3 -->
<g id="node3" class="node"><title>Node3</title>
<g id="a_node3"><a xlink:href="propagator__simple_8cpp.html" target="_top" xlink:title="propagator_simple.cpp">
<polygon fill="white" stroke="black" points="89.5,-0.5 89.5,-19.5 204.5,-19.5 204.5,-0.5 89.5,-0.5"/>
<text text-anchor="middle" x="147" y="-7.5" font-family="Helvetica,sans-Serif" font-size="10.00">propagator_simple.cpp</text>
</a>
</g>
</g>
<!-- Node2&#45;&gt;Node3 -->
<g id="edge2" class="edge"><title>Node2&#45;&gt;Node3</title>
<path fill="none" stroke="midnightblue" d="M1017.25,-119.046C928.708,-114.018 705.67,-99.3689 635,-76 618.355,-70.4958 617.684,-61.3856 601,-56 436.61,-2.93498 385.638,-39.5029 214,-20 210.968,-19.6555 207.861,-19.2881 204.725,-18.9061"/>
<polygon fill="midnightblue" stroke="midnightblue" points="1017.18,-122.547 1027.36,-119.611 1017.57,-115.558 1017.18,-122.547"/>
</g>
<!-- Node4 -->
<g id="node4" class="node"><title>Node4</title>
<g id="a_node4"><a xlink:href="devicecpu_8cpp.html" target="_top" xlink:title="devicecpu.cpp">
<polygon fill="white" stroke="black" points="1291,-56.5 1291,-75.5 1371,-75.5 1371,-56.5 1291,-56.5"/>
<text text-anchor="middle" x="1331" y="-63.5" font-family="Helvetica,sans-Serif" font-size="10.00">devicecpu.cpp</text>
</a>
</g>
</g>
<!-- Node2&#45;&gt;Node4 -->
<g id="edge3" class="edge"><title>Node2&#45;&gt;Node4</title>
<path fill="none" stroke="midnightblue" d="M1090.65,-113.856C1142.52,-103.743 1237.02,-85.3207 1290.78,-74.8412"/>
<polygon fill="midnightblue" stroke="midnightblue" points="1089.71,-110.473 1080.56,-115.822 1091.04,-117.344 1089.71,-110.473"/>
</g>
<!-- Node5 -->
<g id="node5" class="node"><title>Node5</title>
<g id="a_node5"><a xlink:href="devicedisk_8h.html" target="_top" xlink:title="devicedisk.h">
<polygon fill="white" stroke="red" points="1389.5,-56.5 1389.5,-75.5 1460.5,-75.5 1460.5,-56.5 1389.5,-56.5"/>
<text text-anchor="middle" x="1425" y="-63.5" font-family="Helvetica,sans-Serif" font-size="10.00">devicedisk.h</text>
</a>
</g>
</g>
<!-- Node2&#45;&gt;Node5 -->
<g id="edge4" class="edge"><title>Node2&#45;&gt;Node5</title>
<path fill="none" stroke="midnightblue" d="M1090.9,-116.641C1151.45,-109.325 1275.57,-93.6343 1380,-76 1382.99,-75.4959 1386.08,-74.9432 1389.17,-74.3673"/>
<polygon fill="midnightblue" stroke="midnightblue" points="1090.22,-113.198 1080.71,-117.867 1091.05,-120.148 1090.22,-113.198"/>
</g>
<!-- Node6 -->
<g id="node6" class="node"><title>Node6</title>
<g id="a_node6"><a xlink:href="unixgpio_8cpp.html" target="_top" xlink:title="unixgpio.cpp">
<polygon fill="white" stroke="black" points="1478.5,-56.5 1478.5,-75.5 1549.5,-75.5 1549.5,-56.5 1478.5,-56.5"/>
<text text-anchor="middle" x="1514" y="-63.5" font-family="Helvetica,sans-Serif" font-size="10.00">unixgpio.cpp</text>
</a>
</g>
</g>
<!-- Node2&#45;&gt;Node6 -->
<g id="edge5" class="edge"><title>Node2&#45;&gt;Node6</title>
<path fill="none" stroke="midnightblue" d="M1090.83,-118.12C1163.43,-112.195 1330.07,-97.3815 1469,-76 1471.99,-75.5395 1475.09,-75.0174 1478.19,-74.4621"/>
<polygon fill="midnightblue" stroke="midnightblue" points="1090.5,-114.635 1080.81,-118.929 1091.06,-121.612 1090.5,-114.635"/>
</g>
<!-- Node7 -->
<g id="node7" class="node"><title>Node7</title>
<g id="a_node7"><a xlink:href="physicsclass_8h.html" target="_top" xlink:title="physicsclass.h">
<polygon fill="white" stroke="red" points="1568,-56.5 1568,-75.5 1650,-75.5 1650,-56.5 1568,-56.5"/>
<text text-anchor="middle" x="1609" y="-63.5" font-family="Helvetica,sans-Serif" font-size="10.00">physicsclass.h</text>
</a>
</g>
</g>
<!-- Node2&#45;&gt;Node7 -->
<g id="edge6" class="edge"><title>Node2&#45;&gt;Node7</title>
<path fill="none" stroke="midnightblue" d="M1090.82,-118.797C1174.22,-113.57 1383.84,-99.0985 1558,-76 1561.21,-75.5744 1564.52,-75.0906 1567.85,-74.5732"/>
<polygon fill="midnightblue" stroke="midnightblue" points="1090.36,-115.319 1080.59,-119.431 1090.79,-122.305 1090.36,-115.319"/>
</g>
<!-- Node8 -->
<g id="node8" class="node"><title>Node8</title>
<g id="a_node8"><a xlink:href="physicslib_8cpp.html" target="_top" xlink:title="physicslib.cpp">
<polygon fill="white" stroke="black" points="1668.5,-56.5 1668.5,-75.5 1747.5,-75.5 1747.5,-56.5 1668.5,-56.5"/>
<text text-anchor="middle" x="1708" y="-63.5" font-family="Helvetica,sans-Serif" font-size="10.00">physicslib.cpp</text>
</a>
</g>
</g>
<!-- Node2&#45;&gt;Node8 -->
<g id="edge7" class="edge"><title>Node2&#45;&gt;Node8</title>
<path fill="none" stroke="midnightblue" d="M1090.84,-119.639C1185.48,-115.845 1444.75,-103.563 1659,-76 1662.09,-75.6027 1665.28,-75.1392 1668.48,-74.6359"/>
<polygon fill="midnightblue" stroke="midnightblue" points="1090.49,-116.15 1080.64,-120.041 1090.77,-123.145 1090.49,-116.15"/>
</g>
<!-- Node9 -->
<g id="node9" class="node"><title>Node9</title>
<g id="a_node9"><a xlink:href="datalib_8cpp.html" target="_top" xlink:title="Data support functions. ">
<polygon fill="white" stroke="black" points="1766,-56.5 1766,-75.5 1830,-75.5 1830,-56.5 1766,-56.5"/>
<text text-anchor="middle" x="1798" y="-63.5" font-family="Helvetica,sans-Serif" font-size="10.00">datalib.cpp</text>
</a>
</g>
</g>
<!-- Node2&#45;&gt;Node9 -->
<g id="edge8" class="edge"><title>Node2&#45;&gt;Node9</title>
<path fill="none" stroke="midnightblue" d="M1090.63,-120.547C1195.06,-118.85 1503.08,-111.011 1756,-76 1759.25,-75.5501 1762.62,-74.989 1765.98,-74.3681"/>
<polygon fill="midnightblue" stroke="midnightblue" points="1090.54,-117.048 1080.6,-120.701 1090.65,-124.047 1090.54,-117.048"/>
</g>
<!-- Node10 -->
<g id="node10" class="node"><title>Node10</title>
<g id="a_node10"><a xlink:href="demlib_8cpp.html" target="_top" xlink:title="demlib.cpp">
<polygon fill="white" stroke="black" points="1848,-56.5 1848,-75.5 1912,-75.5 1912,-56.5 1848,-56.5"/>
<text text-anchor="middle" x="1880" y="-63.5" font-family="Helvetica,sans-Serif" font-size="10.00">demlib.cpp</text>
</a>
</g>
</g>
<!-- Node2&#45;&gt;Node10 -->
<g id="edge9" class="edge"><title>Node2&#45;&gt;Node10</title>
<path fill="none" stroke="midnightblue" d="M1090.71,-120.961C1203.19,-120.399 1552.74,-115.369 1839,-76 1841.89,-75.6028 1844.87,-75.1101 1847.86,-74.5612"/>
<polygon fill="midnightblue" stroke="midnightblue" points="1090.56,-117.461 1080.58,-121.002 1090.59,-124.461 1090.56,-117.461"/>
</g>
<!-- Node11 -->
<g id="node11" class="node"><title>Node11</title>
<g id="a_node11"><a xlink:href="ephemlib_8cpp.html" target="_top" xlink:title="Ephemeris library source file. ">
<polygon fill="white" stroke="black" points="1930,-56.5 1930,-75.5 2004,-75.5 2004,-56.5 1930,-56.5"/>
<text text-anchor="middle" x="1967" y="-63.5" font-family="Helvetica,sans-Serif" font-size="10.00">ephemlib.cpp</text>
</a>
</g>
</g>
<!-- Node2&#45;&gt;Node11 -->
<g id="edge10" class="edge"><title>Node2&#45;&gt;Node11</title>
<path fill="none" stroke="midnightblue" d="M1090.84,-120.946C1210.85,-120.372 1601.17,-115.387 1921,-76 1923.91,-75.6419 1926.91,-75.2066 1929.92,-74.7228"/>
<polygon fill="midnightblue" stroke="midnightblue" points="1090.71,-117.446 1080.73,-120.986 1090.74,-124.446 1090.71,-117.446"/>
</g>
<!-- Node12 -->
<g id="node12" class="node"><title>Node12</title>
<g id="a_node12"><a xlink:href="geomag_8cpp.html" target="_top" xlink:title="geomag.cpp">
<polygon fill="white" stroke="black" points="2022,-56.5 2022,-75.5 2092,-75.5 2092,-56.5 2022,-56.5"/>
<text text-anchor="middle" x="2057" y="-63.5" font-family="Helvetica,sans-Serif" font-size="10.00">geomag.cpp</text>
</a>
</g>
</g>
<!-- Node2&#45;&gt;Node12 -->
<g id="edge11" class="edge"><title>Node2&#45;&gt;Node12</title>
<path fill="none" stroke="midnightblue" d="M1090.88,-121.318C1218.92,-121.987 1655.87,-120.63 2013,-76 2015.79,-75.6519 2018.66,-75.2238 2021.54,-74.7449"/>
<polygon fill="midnightblue" stroke="midnightblue" points="1090.85,-117.818 1080.83,-121.258 1090.8,-124.818 1090.85,-117.818"/>
</g>
<!-- Node13 -->
<g id="node13" class="node"><title>Node13</title>
<g id="a_node13"><a xlink:href="jsonlib_8h.html" target="_top" xlink:title="JSON Support definitions. ">
<polygon fill="white" stroke="red" points="915.5,-56.5 915.5,-75.5 968.5,-75.5 968.5,-56.5 915.5,-56.5"/>
<text text-anchor="middle" x="942" y="-63.5" font-family="Helvetica,sans-Serif" font-size="10.00">jsonlib.h</text>
</a>
</g>
</g>
<!-- Node2&#45;&gt;Node13 -->
<g id="edge12" class="edge"><title>Node2&#45;&gt;Node13</title>
<path fill="none" stroke="midnightblue" d="M1021.98,-108.368C999.554,-98.2553 970.956,-84.3486 954.584,-75.5164"/>
<polygon fill="midnightblue" stroke="midnightblue" points="1020.6,-111.585 1031.16,-112.444 1023.44,-105.187 1020.6,-111.585"/>
</g>
<!-- Node14 -->
<g id="node14" class="node"><title>Node14</title>
<g id="a_node14"><a xlink:href="agent-2-0_8cpp.html" target="_top" xlink:title="agent&#45;2&#45;0.cpp">
<polygon fill="white" stroke="black" points="223,-0.5 223,-19.5 299,-19.5 299,-0.5 223,-0.5"/>
<text text-anchor="middle" x="261" y="-7.5" font-family="Helvetica,sans-Serif" font-size="10.00">agent&#45;2&#45;0.cpp</text>
</a>
</g>
</g>
<!-- Node2&#45;&gt;Node14 -->
<g id="edge33" class="edge"><title>Node2&#45;&gt;Node14</title>
<path fill="none" stroke="midnightblue" d="M1017.09,-121.075C947.967,-120.254 794.968,-113.866 673,-76 654.773,-70.3413 653.249,-61.5865 635,-56 495.193,-13.2019 452.582,-41.7664 308,-20 305.125,-19.5671 302.157,-19.0844 299.176,-18.5735"/>
<polygon fill="midnightblue" stroke="midnightblue" points="1017.42,-124.578 1027.45,-121.163 1017.48,-117.578 1017.42,-124.578"/>
</g>
<!-- Node15 -->
<g id="node15" class="node"><title>Node15</title>
<g id="a_node15"><a xlink:href="agent_8cpp.html" target="_top" xlink:title="Agent control program source. ">
<polygon fill="white" stroke="black" points="317.5,-0.5 317.5,-19.5 376.5,-19.5 376.5,-0.5 317.5,-0.5"/>
<text text-anchor="middle" x="347" y="-7.5" font-family="Helvetica,sans-Serif" font-size="10.00">agent.cpp</text>
</a>
</g>
</g>
<!-- Node2&#45;&gt;Node15 -->
<g id="edge34" class="edge"><title>Node2&#45;&gt;Node15</title>
<path fill="none" stroke="midnightblue" d="M1016.67,-120.383C952.644,-118.391 818.412,-110.107 711,-76 692.81,-70.224 691.207,-61.7245 673,-56 550.364,-17.441 512.574,-42.4827 386,-20 382.99,-19.4653 379.862,-18.8485 376.746,-18.1937"/>
<polygon fill="midnightblue" stroke="midnightblue" points="1016.97,-123.893 1027.06,-120.67 1017.16,-116.895 1016.97,-123.893"/>
</g>
<!-- Node16 -->
<g id="node16" class="node"><title>Node16</title>
<g id="a_node16"><a xlink:href="agent__data-2-0_8cpp.html" target="_top" xlink:title="agent_data&#45;2&#45;0.cpp">
<polygon fill="white" stroke="black" points="395,-0.5 395,-19.5 495,-19.5 495,-0.5 395,-0.5"/>
<text text-anchor="middle" x="445" y="-7.5" font-family="Helvetica,sans-Serif" font-size="10.00">agent_data&#45;2&#45;0.cpp</text>
</a>
</g>
</g>
<!-- Node2&#45;&gt;Node16 -->
<g id="edge35" class="edge"><title>Node2&#45;&gt;Node16</title>
<path fill="none" stroke="midnightblue" d="M1017.01,-119.553C958.688,-116.39 842.408,-106.487 749,-76 730.857,-70.0783 729.08,-62.1128 711,-56 700.851,-52.5685 569.285,-31.0479 495.077,-19.0535"/>
<polygon fill="midnightblue" stroke="midnightblue" points="1017.04,-123.059 1027.2,-120.069 1017.39,-116.068 1017.04,-123.059"/>
</g>
<!-- Node17 -->
<g id="node17" class="node"><title>Node17</title>
<g id="a_node17"><a xlink:href="agent__data_8cpp.html" target="_top" xlink:title="agent_data.cpp">
<polygon fill="white" stroke="black" points="513.5,-0.5 513.5,-19.5 596.5,-19.5 596.5,-0.5 513.5,-0.5"/>
<text text-anchor="middle" x="555" y="-7.5" font-family="Helvetica,sans-Serif" font-size="10.00">agent_data.cpp</text>
</a>
</g>
</g>
<!-- Node2&#45;&gt;Node17 -->
<g id="edge36" class="edge"><title>Node2&#45;&gt;Node17</title>
<path fill="none" stroke="midnightblue" d="M1017.2,-118.35C965.056,-113.8 867.217,-102.315 788,-76 769.514,-69.8591 767.293,-62.6958 749,-56 721.402,-45.8982 644.908,-29.3688 596.628,-19.4031"/>
<polygon fill="midnightblue" stroke="midnightblue" points="1017.04,-121.849 1027.3,-119.194 1017.63,-114.873 1017.04,-121.849"/>
</g>
<!-- Node18 -->
<g id="node18" class="node"><title>Node18</title>
<g id="a_node18"><a xlink:href="agent__exec-2-0_8cpp.html" target="_top" xlink:title="agent_exec&#45;2&#45;0.cpp">
<polygon fill="white" stroke="black" points="615,-0.5 615,-19.5 717,-19.5 717,-0.5 615,-0.5"/>
<text text-anchor="middle" x="666" y="-7.5" font-family="Helvetica,sans-Serif" font-size="10.00">agent_exec&#45;2&#45;0.cpp</text>
</a>
</g>
</g>
<!-- Node2&#45;&gt;Node18 -->
<g id="edge37" class="edge"><title>Node2&#45;&gt;Node18</title>
<path fill="none" stroke="midnightblue" d="M1017.32,-114.386C976.033,-106.61 907.131,-92.6333 849,-76 817.963,-67.1192 730.958,-35.1526 689.086,-19.6082"/>
<polygon fill="midnightblue" stroke="midnightblue" points="1016.73,-117.836 1027.2,-116.227 1018.01,-110.954 1016.73,-117.836"/>
</g>
<!-- Node19 -->
<g id="node19" class="node"><title>Node19</title>
<g id="a_node19"><a xlink:href="agent__exec_8cpp.html" target="_top" xlink:title="Executive Agent source file. ">
<polygon fill="white" stroke="black" points="735,-0.5 735,-19.5 821,-19.5 821,-0.5 735,-0.5"/>
<text text-anchor="middle" x="778" y="-7.5" font-family="Helvetica,sans-Serif" font-size="10.00">agent_exec.cpp</text>
</a>
</g>
</g>
<!-- Node2&#45;&gt;Node19 -->
<g id="edge38" class="edge"><title>Node2&#45;&gt;Node19</title>
<path fill="none" stroke="midnightblue" d="M1017.49,-113.699C983.865,-106.331 932.979,-93.5353 891,-76 852.366,-59.8619 810.558,-33.1033 790.339,-19.502"/>
<polygon fill="midnightblue" stroke="midnightblue" points="1016.83,-117.137 1027.34,-115.811 1018.3,-110.293 1016.83,-117.137"/>
</g>
<!-- Node20 -->
<g id="node20" class="node"><title>Node20</title>
<g id="a_node20"><a xlink:href="agent__monitor_8cpp.html" target="_top" xlink:title="agent_monitor.cpp">
<polygon fill="white" stroke="black" points="839.5,-0.5 839.5,-19.5 936.5,-19.5 936.5,-0.5 839.5,-0.5"/>
<text text-anchor="middle" x="888" y="-7.5" font-family="Helvetica,sans-Serif" font-size="10.00">agent_monitor.cpp</text>
</a>
</g>
</g>
<!-- Node2&#45;&gt;Node20 -->
<g id="edge39" class="edge"><title>Node2&#45;&gt;Node20</title>
<path fill="none" stroke="midnightblue" d="M1017.06,-119.472C983.596,-116.097 935.187,-105.926 906,-76 890.957,-60.5758 888.239,-33.7448 887.901,-19.8724"/>
<polygon fill="midnightblue" stroke="midnightblue" points="1017.1,-122.988 1027.36,-120.346 1017.69,-116.013 1017.1,-122.988"/>
</g>
<!-- Node21 -->
<g id="node21" class="node"><title>Node21</title>
<g id="a_node21"><a xlink:href="agent__time_8cpp.html" target="_top" xlink:title="agent_time.cpp">
<polygon fill="white" stroke="black" points="954.5,-0.5 954.5,-19.5 1037.5,-19.5 1037.5,-0.5 954.5,-0.5"/>
<text text-anchor="middle" x="996" y="-7.5" font-family="Helvetica,sans-Serif" font-size="10.00">agent_time.cpp</text>
</a>
</g>
</g>
<!-- Node2&#45;&gt;Node21 -->
<g id="edge40" class="edge"><title>Node2&#45;&gt;Node21</title>
<path fill="none" stroke="midnightblue" d="M1044.68,-103.32C1032.05,-79.3697 1010,-37.5484 1000.53,-19.5914"/>
<polygon fill="midnightblue" stroke="midnightblue" points="1041.69,-105.155 1049.45,-112.368 1047.88,-101.89 1041.69,-105.155"/>
</g>
<!-- Node22 -->
<g id="node22" class="node"><title>Node22</title>
<g id="a_node22"><a xlink:href="cosmos_8cpp.html" target="_top" xlink:title="cosmos.cpp">
<polygon fill="white" stroke="black" points="1056,-0.5 1056,-19.5 1126,-19.5 1126,-0.5 1056,-0.5"/>
<text text-anchor="middle" x="1091" y="-7.5" font-family="Helvetica,sans-Serif" font-size="10.00">cosmos.cpp</text>
</a>
</g>
</g>
<!-- Node2&#45;&gt;Node22 -->
<g id="edge41" class="edge"><title>Node2&#45;&gt;Node22</title>
<path fill="none" stroke="midnightblue" d="M1052.82,-102.011C1052.63,-88.7401 1053.63,-70.8153 1059,-56 1064.09,-41.9389 1074.86,-28.3045 1082.5,-19.7983"/>
<polygon fill="midnightblue" stroke="midnightblue" points="1049.34,-102.425 1053.23,-112.28 1056.33,-102.15 1049.34,-102.425"/>
</g>
<!-- Node23 -->
<g id="node23" class="node"><title>Node23</title>
<g id="a_node23"><a xlink:href="agent__orig_8cpp.html" target="_top" xlink:title="agent_orig.cpp">
<polygon fill="white" stroke="black" points="1144,-0.5 1144,-19.5 1224,-19.5 1224,-0.5 1144,-0.5"/>
<text text-anchor="middle" x="1184" y="-7.5" font-family="Helvetica,sans-Serif" font-size="10.00">agent_orig.cpp</text>
</a>
</g>
</g>
<!-- Node2&#45;&gt;Node23 -->
<g id="edge42" class="edge"><title>Node2&#45;&gt;Node23</title>
<path fill="none" stroke="midnightblue" d="M1062.54,-103.218C1070.05,-89.0323 1082.1,-69.3874 1097,-56 1115.47,-39.4092 1141.17,-27.1058 1159.85,-19.5957"/>
<polygon fill="midnightblue" stroke="midnightblue" points="1059.28,-101.911 1057.9,-112.415 1065.53,-105.065 1059.28,-101.911"/>
</g>
<!-- Node24 -->
<g id="node24" class="node"><title>Node24</title>
<g id="a_node24"><a xlink:href="agent__physics_8cpp.html" target="_top" xlink:title="agent_physics.cpp">
<polygon fill="white" stroke="black" points="1242,-0.5 1242,-19.5 1340,-19.5 1340,-0.5 1242,-0.5"/>
<text text-anchor="middle" x="1291" y="-7.5" font-family="Helvetica,sans-Serif" font-size="10.00">agent_physics.cpp</text>
</a>
</g>
</g>
<!-- Node2&#45;&gt;Node24 -->
<g id="edge43" class="edge"><title>Node2&#45;&gt;Node24</title>
<path fill="none" stroke="midnightblue" d="M1070.22,-104.711C1085.65,-90.0513 1110.15,-68.89 1135,-56 1169.4,-38.1525 1211.85,-26.4953 1243.78,-19.5273"/>
<polygon fill="midnightblue" stroke="midnightblue" points="1067.36,-102.611 1062.63,-112.093 1072.24,-107.628 1067.36,-102.611"/>
</g>
<!-- Node25 -->
<g id="node25" class="node"><title>Node25</title>
<g id="a_node25"><a xlink:href="command__generator_8cpp.html" target="_top" xlink:title="command_generator.cpp">
<polygon fill="white" stroke="black" points="1358,-0.5 1358,-19.5 1482,-19.5 1482,-0.5 1358,-0.5"/>
<text text-anchor="middle" x="1420" y="-7.5" font-family="Helvetica,sans-Serif" font-size="10.00">command_generator.cpp</text>
</a>
</g>
</g>
<!-- Node2&#45;&gt;Node25 -->
<g id="edge46" class="edge"><title>Node2&#45;&gt;Node25</title>
<path fill="none" stroke="midnightblue" d="M1077.94,-107.39C1109.76,-89.3789 1163.15,-59.484 1173,-56 1206.85,-44.0235 1299.43,-28.8248 1361.13,-19.5114"/>
<polygon fill="midnightblue" stroke="midnightblue" points="1076.18,-104.363 1069.21,-112.339 1079.63,-110.453 1076.18,-104.363"/>
</g>
<!-- Node26 -->
<g id="node26" class="node"><title>Node26</title>
<g id="a_node26"><a xlink:href="command__generator__remote_8cpp.html" target="_top" xlink:title="command_generator_remote.cpp">
<polygon fill="white" stroke="black" points="1499.5,-0.5 1499.5,-19.5 1658.5,-19.5 1658.5,-0.5 1499.5,-0.5"/>
<text text-anchor="middle" x="1579" y="-7.5" font-family="Helvetica,sans-Serif" font-size="10.00">command_generator_remote.cpp</text>
</a>
</g>
</g>
<!-- Node2&#45;&gt;Node26 -->
<g id="edge47" class="edge"><title>Node2&#45;&gt;Node26</title>
<path fill="none" stroke="midnightblue" d="M1086.46,-108.778C1109.38,-100.001 1140.75,-87.7029 1168,-76 1187.37,-67.6825 1190.74,-61.7947 1211,-56 1238.04,-48.2692 1399.64,-30.1243 1499.49,-19.3852"/>
<polygon fill="midnightblue" stroke="midnightblue" points="1084.97,-105.598 1076.87,-112.429 1087.46,-112.139 1084.97,-105.598"/>
</g>
<!-- Node27 -->
<g id="node27" class="node"><title>Node27</title>
<g id="a_node27"><a xlink:href="fast__propagator_8cpp.html" target="_top" xlink:title="fast_propagator.cpp">
<polygon fill="white" stroke="black" points="1676.5,-0.5 1676.5,-19.5 1779.5,-19.5 1779.5,-0.5 1676.5,-0.5"/>
<text text-anchor="middle" x="1728" y="-7.5" font-family="Helvetica,sans-Serif" font-size="10.00">fast_propagator.cpp</text>
</a>
</g>
</g>
<!-- Node2&#45;&gt;Node27 -->
<g id="edge48" class="edge"><title>Node2&#45;&gt;Node27</title>
<path fill="none" stroke="midnightblue" d="M1090.44,-111.463C1121.08,-103.112 1165.86,-90.1307 1204,-76 1224.52,-68.3958 1227.81,-61.4586 1249,-56 1429.57,-9.49411 1481.79,-41.6182 1667,-20 1670.08,-19.6401 1673.25,-19.2462 1676.44,-18.8307"/>
<polygon fill="midnightblue" stroke="midnightblue" points="1089.36,-108.128 1080.62,-114.112 1091.18,-114.887 1089.36,-108.128"/>
</g>
<!-- Node28 -->
<g id="node28" class="node"><title>Node28</title>
<g id="a_node28"><a xlink:href="propagator_8cpp.html" target="_top" xlink:title="propagator.cpp">
<polygon fill="white" stroke="black" points="1797.5,-0.5 1797.5,-19.5 1878.5,-19.5 1878.5,-0.5 1797.5,-0.5"/>
<text text-anchor="middle" x="1838" y="-7.5" font-family="Helvetica,sans-Serif" font-size="10.00">propagator.cpp</text>
</a>
</g>
</g>
<!-- Node2&#45;&gt;Node28 -->
<g id="edge51" class="edge"><title>Node2&#45;&gt;Node28</title>
<path fill="none" stroke="midnightblue" d="M1090.68,-114.626C1128.89,-107.421 1190.16,-94.2709 1241,-76 1260.08,-69.1432 1262.42,-61.2599 1282,-56 1499.74,2.49112 1564.29,-48.0103 1788,-20 1791.06,-19.6165 1794.22,-19.1696 1797.4,-18.6838"/>
<polygon fill="midnightblue" stroke="midnightblue" points="1089.74,-111.24 1080.54,-116.499 1091.01,-118.124 1089.74,-111.24"/>
</g>
<!-- Node29 -->
<g id="node29" class="node"><title>Node29</title>
<g id="a_node29"><a xlink:href="objlib_8cpp.html" target="_top" xlink:title="objlib.cpp">
<polygon fill="white" stroke="black" points="2110,-56.5 2110,-75.5 2168,-75.5 2168,-56.5 2110,-56.5"/>
<text text-anchor="middle" x="2139" y="-63.5" font-family="Helvetica,sans-Serif" font-size="10.00">objlib.cpp</text>
</a>
</g>
</g>
<!-- Node2&#45;&gt;Node29 -->
<g id="edge30" class="edge"><title>Node2&#45;&gt;Node29</title>
<path fill="none" stroke="midnightblue" d="M1090.89,-120.353C1252.6,-117.372 1899.73,-103.903 2101,-76 2103.82,-75.609 2106.74,-75.104 2109.65,-74.533"/>
<polygon fill="midnightblue" stroke="midnightblue" points="1090.46,-116.86 1080.52,-120.542 1090.58,-123.859 1090.46,-116.86"/>
</g>
<!-- Node30 -->
<g id="node30" class="node"><title>Node30</title>
<g id="a_node30"><a xlink:href="timelib_8cpp.html" target="_top" xlink:title="Time handling library source file. ">
<polygon fill="white" stroke="black" points="0,-56.5 0,-75.5 64,-75.5 64,-56.5 0,-56.5"/>
<text text-anchor="middle" x="32" y="-63.5" font-family="Helvetica,sans-Serif" font-size="10.00">timelib.cpp</text>
</a>
</g>
</g>
<!-- Node2&#45;&gt;Node30 -->
<g id="edge31" class="edge"><title>Node2&#45;&gt;Node30</title>
<path fill="none" stroke="midnightblue" d="M1016.97,-120.146C861.472,-116.429 260.767,-100.732 73,-76 70.1099,-75.6193 67.1221,-75.1379 64.1375,-74.5965"/>
<polygon fill="midnightblue" stroke="midnightblue" points="1017.3,-123.655 1027.38,-120.393 1017.47,-116.657 1017.3,-123.655"/>
</g>
<!-- Node31 -->
<g id="node31" class="node"><title>Node31</title>
<g id="a_node31"><a xlink:href="transferlib_8h.html" target="_top" xlink:title="File Transfer Support header file. ">
<polygon fill="white" stroke="red" points="82,-56.5 82,-75.5 150,-75.5 150,-56.5 82,-56.5"/>
<text text-anchor="middle" x="116" y="-63.5" font-family="Helvetica,sans-Serif" font-size="10.00">transferlib.h</text>
</a>
</g>
</g>
<!-- Node2&#45;&gt;Node31 -->
<g id="edge32" class="edge"><title>Node2&#45;&gt;Node31</title>
<path fill="none" stroke="midnightblue" d="M1016.79,-121.202C893.832,-121.429 489.638,-118.649 159,-76 156.126,-75.6292 153.157,-75.1702 150.186,-74.6574"/>
<polygon fill="midnightblue" stroke="midnightblue" points="1017.15,-124.701 1027.14,-121.174 1017.13,-117.701 1017.15,-124.701"/>
</g>
<!-- Node2&#45;&gt;Node32 -->
<g id="edge44" class="edge"><title>Node2&#45;&gt;Node32</title>
<path fill="none" stroke="midnightblue" d="M1091.09,-120.343C1260.26,-117.222 1959.7,-102.905 2177,-76 2180.03,-75.6251 2183.16,-75.1477 2186.29,-74.6089"/>
<polygon fill="midnightblue" stroke="midnightblue" points="1090.89,-116.847 1080.95,-120.529 1091.01,-123.845 1090.89,-116.847"/>
</g>
<!-- Node33 -->
<g id="node33" class="node"><title>Node33</title>
<g id="a_node33"><a xlink:href="check__satnogs_8cpp.html" target="_top" xlink:title="check_satnogs.cpp">
<polygon fill="white" stroke="black" points="168.5,-56.5 168.5,-75.5 269.5,-75.5 269.5,-56.5 168.5,-56.5"/>
<text text-anchor="middle" x="219" y="-63.5" font-family="Helvetica,sans-Serif" font-size="10.00">check_satnogs.cpp</text>
</a>
</g>
</g>
<!-- Node2&#45;&gt;Node33 -->
<g id="edge45" class="edge"><title>Node2&#45;&gt;Node33</title>
<path fill="none" stroke="midnightblue" d="M1017.43,-120.093C906.121,-117.073 561.76,-105.804 278,-76 275.321,-75.7186 272.577,-75.4015 269.81,-75.0589"/>
<polygon fill="midnightblue" stroke="midnightblue" points="1017.37,-123.593 1027.46,-120.36 1017.56,-116.595 1017.37,-123.593"/>
</g>
<!-- Node34 -->
<g id="node34" class="node"><title>Node34</title>
<g id="a_node34"><a xlink:href="gige__list_8cpp.html" target="_top" xlink:title="gige_list.cpp">
<polygon fill="white" stroke="black" points="287.5,-56.5 287.5,-75.5 358.5,-75.5 358.5,-56.5 287.5,-56.5"/>
<text text-anchor="middle" x="323" y="-63.5" font-family="Helvetica,sans-Serif" font-size="10.00">gige_list.cpp</text>
</a>
</g>
</g>
<!-- Node2&#45;&gt;Node34 -->
<g id="edge49" class="edge"><title>Node2&#45;&gt;Node34</title>
<path fill="none" stroke="midnightblue" d="M1017.21,-120.292C914.24,-117.943 614.557,-108.598 368,-76 364.999,-75.6032 361.897,-75.1259 358.79,-74.6007"/>
<polygon fill="midnightblue" stroke="midnightblue" points="1017.32,-123.795 1027.39,-120.516 1017.47,-116.797 1017.32,-123.795"/>
</g>
<!-- Node35 -->
<g id="node35" class="node"><title>Node35</title>
<g id="a_node35"><a xlink:href="gige__snap_8cpp.html" target="_top" xlink:title="gige_snap.cpp">
<polygon fill="white" stroke="black" points="377,-56.5 377,-75.5 457,-75.5 457,-56.5 377,-56.5"/>
<text text-anchor="middle" x="417" y="-63.5" font-family="Helvetica,sans-Serif" font-size="10.00">gige_snap.cpp</text>
</a>
</g>
</g>
<!-- Node2&#45;&gt;Node35 -->
<g id="edge50" class="edge"><title>Node2&#45;&gt;Node35</title>
<path fill="none" stroke="midnightblue" d="M1017.22,-119.532C924.447,-115.538 673.502,-102.921 466,-76 463.084,-75.6217 460.078,-75.185 457.057,-74.7123"/>
<polygon fill="midnightblue" stroke="midnightblue" points="1017.09,-123.03 1027.23,-119.956 1017.39,-116.036 1017.09,-123.03"/>
</g>
<!-- Node36 -->
<g id="node36" class="node"><title>Node36</title>
<g id="a_node36"><a xlink:href="shift__solid__thermal_8cpp.html" target="_top" xlink:title="shift_solid_thermal.cpp">
<polygon fill="white" stroke="black" points="475.5,-56.5 475.5,-75.5 592.5,-75.5 592.5,-56.5 475.5,-56.5"/>
<text text-anchor="middle" x="534" y="-63.5" font-family="Helvetica,sans-Serif" font-size="10.00">shift_solid_thermal.cpp</text>
</a>
</g>
</g>
<!-- Node2&#45;&gt;Node36 -->
<g id="edge52" class="edge"><title>Node2&#45;&gt;Node36</title>
<path fill="none" stroke="midnightblue" d="M1017.2,-117.576C940.734,-110.399 759.132,-93.0335 607,-76 602.305,-75.4743 597.442,-74.9125 592.557,-74.3361"/>
<polygon fill="midnightblue" stroke="midnightblue" points="1016.99,-121.072 1027.27,-118.52 1017.64,-114.102 1016.99,-121.072"/>
</g>
<!-- Node13&#45;&gt;Node2 -->
<g id="edge14" class="edge"><title>Node13&#45;&gt;Node2</title>
<path fill="none" stroke="midnightblue" d="M974.482,-79.8421C996.705,-89.8754 1024.81,-103.546 1041.12,-112.324"/>
<polygon fill="midnightblue" stroke="midnightblue" points="975.62,-76.5179 965.06,-75.6545 972.777,-82.9145 975.62,-76.5179"/>
</g>
<!-- Node13&#45;&gt;Node3 -->
<g id="edge13" class="edge"><title>Node13&#45;&gt;Node3</title>
<path fill="none" stroke="midnightblue" d="M904.883,-63.648C797.629,-59.5383 478.094,-45.8662 214,-20 210.963,-19.7026 207.852,-19.3727 204.713,-19.0201"/>
<polygon fill="midnightblue" stroke="midnightblue" points="905.047,-67.1566 915.172,-64.0377 905.312,-60.1616 905.047,-67.1566"/>
</g>
<!-- Node13&#45;&gt;Node14 -->
<g id="edge15" class="edge"><title>Node13&#45;&gt;Node14</title>
<path fill="none" stroke="midnightblue" d="M905.068,-63.9064C807.283,-60.6808 533.687,-49.5124 308,-20 305.117,-19.623 302.143,-19.1808 299.158,-18.6984"/>
<polygon fill="midnightblue" stroke="midnightblue" points="905.204,-67.4125 915.312,-64.2362 905.429,-60.4161 905.204,-67.4125"/>
</g>
<!-- Node13&#45;&gt;Node15 -->
<g id="edge16" class="edge"><title>Node13&#45;&gt;Node15</title>
<path fill="none" stroke="midnightblue" d="M905.034,-63.8731C815.491,-60.7391 580.04,-50.0768 386,-20 382.979,-19.5317 379.844,-18.9585 376.724,-18.3303"/>
<polygon fill="midnightblue" stroke="midnightblue" points="905.105,-67.3775 915.218,-64.2188 905.343,-60.3815 905.105,-67.3775"/>
</g>
<!-- Node13&#45;&gt;Node16 -->
<g id="edge17" class="edge"><title>Node13&#45;&gt;Node16</title>
<path fill="none" stroke="midnightblue" d="M904.886,-61.8054C829.309,-55.1636 652.16,-38.8997 504,-20 501.122,-19.6329 498.168,-19.2384 495.189,-18.827"/>
<polygon fill="midnightblue" stroke="midnightblue" points="905.017,-65.3301 915.284,-62.7147 905.627,-58.3567 905.017,-65.3301"/>
</g>
<!-- Node13&#45;&gt;Node17 -->
<g id="edge18" class="edge"><title>Node13&#45;&gt;Node17</title>
<path fill="none" stroke="midnightblue" d="M905.334,-60.5955C843.496,-53.0539 714.581,-36.8444 606,-20 602.979,-19.5314 599.861,-19.0285 596.725,-18.5087"/>
<polygon fill="midnightblue" stroke="midnightblue" points="905.027,-64.0838 915.376,-61.8158 905.871,-57.135 905.027,-64.0838"/>
</g>
<!-- Node13&#45;&gt;Node18 -->
<g id="edge19" class="edge"><title>Node13&#45;&gt;Node18</title>
<path fill="none" stroke="midnightblue" d="M905.45,-57.849C854.954,-47.9692 763.969,-30.1679 709.866,-19.5826"/>
<polygon fill="midnightblue" stroke="midnightblue" points="904.799,-61.2879 915.285,-59.7732 906.143,-54.4181 904.799,-61.2879"/>
</g>
<!-- Node13&#45;&gt;Node19 -->
<g id="edge20" class="edge"><title>Node13&#45;&gt;Node19</title>
<path fill="none" stroke="midnightblue" d="M906.48,-53.3044C875.578,-43.1294 831.527,-28.6246 803.865,-19.5164"/>
<polygon fill="midnightblue" stroke="midnightblue" points="905.421,-56.6404 916.014,-56.4435 907.61,-49.9915 905.421,-56.6404"/>
</g>
<!-- Node13&#45;&gt;Node20 -->
<g id="edge21" class="edge"><title>Node13&#45;&gt;Node20</title>
<path fill="none" stroke="midnightblue" d="M926.002,-49.0024C916.433,-39.4329 904.639,-27.6389 896.751,-19.7511"/>
<polygon fill="midnightblue" stroke="midnightblue" points="923.537,-51.4868 933.083,-56.083 928.487,-46.537 923.537,-51.4868"/>
</g>
<!-- Node13&#45;&gt;Node21 -->
<g id="edge22" class="edge"><title>Node13&#45;&gt;Node21</title>
<path fill="none" stroke="midnightblue" d="M957.998,-49.0024C967.567,-39.4329 979.361,-27.6389 987.249,-19.7511"/>
<polygon fill="midnightblue" stroke="midnightblue" points="955.513,-46.537 950.917,-56.083 960.463,-51.4868 955.513,-46.537"/>
</g>
<!-- Node13&#45;&gt;Node22 -->
<g id="edge23" class="edge"><title>Node13&#45;&gt;Node22</title>
<path fill="none" stroke="midnightblue" d="M975.371,-52.9058C1003.38,-42.7536 1042.7,-28.5063 1067.5,-19.5164"/>
<polygon fill="midnightblue" stroke="midnightblue" points="973.819,-49.7456 965.609,-56.4435 976.204,-56.3267 973.819,-49.7456"/>
</g>
<!-- Node13&#45;&gt;Node23 -->
<g id="edge24" class="edge"><title>Node13&#45;&gt;Node23</title>
<path fill="none" stroke="midnightblue" d="M978.754,-56.7987C1023.78,-46.7508 1099.72,-29.8073 1145.52,-19.5868"/>
<polygon fill="midnightblue" stroke="midnightblue" points="977.821,-53.4208 968.823,-59.0147 979.345,-60.2528 977.821,-53.4208"/>
</g>
<!-- Node13&#45;&gt;Node24 -->
<g id="edge25" class="edge"><title>Node13&#45;&gt;Node24</title>
<path fill="none" stroke="midnightblue" d="M978.893,-59.3012C1034.14,-50.7661 1141.64,-34.1523 1233,-20 1235.92,-19.5476 1238.92,-19.0823 1241.95,-18.6126"/>
<polygon fill="midnightblue" stroke="midnightblue" points="978.229,-55.8622 968.881,-60.848 979.298,-62.7801 978.229,-55.8622"/>
</g>
<!-- Node13&#45;&gt;Node25 -->
<g id="edge26" class="edge"><title>Node13&#45;&gt;Node25</title>
<path fill="none" stroke="midnightblue" d="M978.962,-61.1131C1050.46,-53.5497 1212.69,-36.174 1349,-20 1351.84,-19.6633 1354.74,-19.3144 1357.67,-18.9583"/>
<polygon fill="midnightblue" stroke="midnightblue" points="978.261,-57.6676 968.684,-62.1988 978.996,-64.6289 978.261,-57.6676"/>
</g>
<!-- Node13&#45;&gt;Node26 -->
<g id="edge27" class="edge"><title>Node13&#45;&gt;Node26</title>
<path fill="none" stroke="midnightblue" d="M978.621,-62.2544C1066.85,-55.584 1298.14,-37.764 1491,-20 1493.75,-19.7464 1496.55,-19.4841 1499.38,-19.2153"/>
<polygon fill="midnightblue" stroke="midnightblue" points="978.291,-58.7693 968.583,-63.0119 978.818,-65.7494 978.291,-58.7693"/>
</g>
<!-- Node13&#45;&gt;Node27 -->
<g id="edge28" class="edge"><title>Node13&#45;&gt;Node27</title>
<path fill="none" stroke="midnightblue" d="M978.981,-63.809C1085.84,-60.1299 1404.17,-47.4966 1667,-20 1670.09,-19.677 1673.26,-19.3117 1676.45,-18.9178"/>
<polygon fill="midnightblue" stroke="midnightblue" points="978.606,-60.3196 968.73,-64.1566 978.843,-67.3156 978.606,-60.3196"/>
</g>
<!-- Node13&#45;&gt;Node28 -->
<g id="edge29" class="edge"><title>Node13&#45;&gt;Node28</title>
<path fill="none" stroke="midnightblue" d="M978.851,-63.6544C1120.18,-58.3984 1627.63,-38.6244 1788,-20 1791.07,-19.6439 1794.23,-19.2169 1797.4,-18.7451"/>
<polygon fill="midnightblue" stroke="midnightblue" points="978.428,-60.1676 968.564,-64.0353 978.687,-67.1628 978.428,-60.1676"/>
</g>
<!-- Node38 -->
<g id="node38" class="node"><title>Node38</title>
<g id="a_node38"><a xlink:href="pngpriv_8h.html" target="_top" xlink:title="pngpriv.h">
<polygon fill="white" stroke="red" points="2272,-56.5 2272,-75.5 2328,-75.5 2328,-56.5 2272,-56.5"/>
<text text-anchor="middle" x="2300" y="-63.5" font-family="Helvetica,sans-Serif" font-size="10.00">pngpriv.h</text>
</a>
</g>
</g>
<!-- Node37&#45;&gt;Node38 -->
<g id="edge54" class="edge"><title>Node37&#45;&gt;Node38</title>
<path fill="none" stroke="midnightblue" d="M2311.14,-102.396C2308.3,-93.362 2305.02,-82.936 2302.75,-75.7511"/>
<polygon fill="midnightblue" stroke="midnightblue" points="2307.85,-103.596 2314.19,-112.083 2314.53,-101.493 2307.85,-103.596"/>
</g>
<!-- Node41 -->
<g id="node41" class="node"><title>Node41</title>
<g id="a_node41"><a xlink:href="adler32_8c.html" target="_top" xlink:title="adler32.c">
<polygon fill="white" stroke="black" points="2346,-56.5 2346,-75.5 2402,-75.5 2402,-56.5 2346,-56.5"/>
<text text-anchor="middle" x="2374" y="-63.5" font-family="Helvetica,sans-Serif" font-size="10.00">adler32.c</text>
</a>
</g>
</g>
<!-- Node40&#45;&gt;Node41 -->
<g id="edge57" class="edge"><title>Node40&#45;&gt;Node41</title>
<path fill="none" stroke="midnightblue" d="M2468.99,-108.368C2445.77,-98.2553 2413.84,-84.3486 2393.56,-75.5164"/>
<polygon fill="midnightblue" stroke="midnightblue" points="2467.79,-111.66 2478.35,-112.444 2470.58,-105.242 2467.79,-111.66"/>
</g>
<!-- Node42 -->
<g id="node42" class="node"><title>Node42</title>
<g id="a_node42"><a xlink:href="crc32_8c.html" target="_top" xlink:title="crc32.c">
<polygon fill="white" stroke="black" points="2420.5,-56.5 2420.5,-75.5 2469.5,-75.5 2469.5,-56.5 2420.5,-56.5"/>
<text text-anchor="middle" x="2445" y="-63.5" font-family="Helvetica,sans-Serif" font-size="10.00">crc32.c</text>
</a>
</g>
</g>
<!-- Node40&#45;&gt;Node42 -->
<g id="edge58" class="edge"><title>Node40&#45;&gt;Node42</title>
<path fill="none" stroke="midnightblue" d="M2482.02,-104.718C2472.68,-95.1997 2461.25,-83.5608 2453.59,-75.7511"/>
<polygon fill="midnightblue" stroke="midnightblue" points="2479.75,-107.398 2489.25,-112.083 2484.74,-102.494 2479.75,-107.398"/>
</g>
<!-- Node43 -->
<g id="node43" class="node"><title>Node43</title>
<g id="a_node43"><a xlink:href="deflate_8h.html" target="_top" xlink:title="deflate.h">
<polygon fill="white" stroke="red" points="2488,-56.5 2488,-75.5 2542,-75.5 2542,-56.5 2488,-56.5"/>
<text text-anchor="middle" x="2515" y="-63.5" font-family="Helvetica,sans-Serif" font-size="10.00">deflate.h</text>
</a>
</g>
</g>
<!-- Node40&#45;&gt;Node43 -->
<g id="edge59" class="edge"><title>Node40&#45;&gt;Node43</title>
<path fill="none" stroke="midnightblue" d="M2503.86,-102.396C2506.7,-93.362 2509.98,-82.936 2512.25,-75.7511"/>
<polygon fill="midnightblue" stroke="midnightblue" points="2500.47,-101.493 2500.81,-112.083 2507.15,-103.596 2500.47,-101.493"/>
</g>
<!-- Node44 -->
<g id="node44" class="node"><title>Node44</title>
<g id="a_node44"><a xlink:href="infback_8c.html" target="_top" xlink:title="infback.c">
<polygon fill="white" stroke="black" points="2560,-56.5 2560,-75.5 2616,-75.5 2616,-56.5 2560,-56.5"/>
<text text-anchor="middle" x="2588" y="-63.5" font-family="Helvetica,sans-Serif" font-size="10.00">infback.c</text>
</a>
</g>
</g>
<!-- Node40&#45;&gt;Node44 -->
<g id="edge60" class="edge"><title>Node40&#45;&gt;Node44</title>
<path fill="none" stroke="midnightblue" d="M2521.04,-107.177C2537.6,-97.2407 2559.42,-84.1492 2573.58,-75.6545"/>
<polygon fill="midnightblue" stroke="midnightblue" points="2519.23,-104.178 2512.46,-112.324 2522.84,-110.18 2519.23,-104.178"/>
</g>
<!-- Node45 -->
<g id="node45" class="node"><title>Node45</title>
<g id="a_node45"><a xlink:href="inffast_8c.html" target="_top" xlink:title="inffast.c">
<polygon fill="white" stroke="black" points="2634,-56.5 2634,-75.5 2686,-75.5 2686,-56.5 2634,-56.5"/>
<text text-anchor="middle" x="2660" y="-63.5" font-family="Helvetica,sans-Serif" font-size="10.00">inffast.c</text>
</a>
</g>
</g>
<!-- Node40&#45;&gt;Node45 -->
<g id="edge61" class="edge"><title>Node40&#45;&gt;Node45</title>
<path fill="none" stroke="midnightblue" d="M2529.25,-110.584C2559.84,-100.386 2605.89,-85.0361 2634.39,-75.5371"/>
<polygon fill="midnightblue" stroke="midnightblue" points="2527.89,-107.346 2519.51,-113.829 2530.11,-113.987 2527.89,-107.346"/>
</g>
<!-- Node46 -->
<g id="node46" class="node"><title>Node46</title>
<g id="a_node46"><a xlink:href="inflate_8c.html" target="_top" xlink:title="inflate.c">
<polygon fill="white" stroke="black" points="2704.5,-56.5 2704.5,-75.5 2755.5,-75.5 2755.5,-56.5 2704.5,-56.5"/>
<text text-anchor="middle" x="2730" y="-63.5" font-family="Helvetica,sans-Serif" font-size="10.00">inflate.c</text>
</a>
</g>
</g>
<!-- Node40&#45;&gt;Node46 -->
<g id="edge62" class="edge"><title>Node40&#45;&gt;Node46</title>
<path fill="none" stroke="midnightblue" d="M2529.48,-112.028C2603.86,-93.4307 2624.55,-92.6897 2695,-76 2698.05,-75.2768 2701.25,-74.4928 2704.41,-73.6993"/>
<polygon fill="midnightblue" stroke="midnightblue" points="2528.47,-108.672 2519.63,-114.514 2530.18,-115.459 2528.47,-108.672"/>
</g>
<!-- Node47 -->
<g id="node47" class="node"><title>Node47</title>
<g id="a_node47"><a xlink:href="inftrees_8c.html" target="_top" xlink:title="inftrees.c">
<polygon fill="white" stroke="black" points="2773.5,-56.5 2773.5,-75.5 2830.5,-75.5 2830.5,-56.5 2773.5,-56.5"/>
<text text-anchor="middle" x="2802" y="-63.5" font-family="Helvetica,sans-Serif" font-size="10.00">inftrees.c</text>
</a>
</g>
</g>
<!-- Node40&#45;&gt;Node47 -->
<g id="edge63" class="edge"><title>Node40&#45;&gt;Node47</title>
<path fill="none" stroke="midnightblue" d="M2529.62,-112.142C2634.4,-89.582 2664.06,-95.9359 2765,-76 2767.72,-75.462 2770.55,-74.8583 2773.37,-74.2249"/>
<polygon fill="midnightblue" stroke="midnightblue" points="2528.61,-108.781 2519.59,-114.341 2530.1,-115.619 2528.61,-108.781"/>
</g>
</g>
</svg>
