<?xml version="1.0" encoding="UTF-8" standalone="no"?>
<!DOCTYPE svg PUBLIC "-//W3C//DTD SVG 1.1//EN"
 "http://www.w3.org/Graphics/SVG/1.1/DTD/svg11.dtd">
<!-- Generated by graphviz version 2.38.0 (20140413.2041)
 -->
<!-- Title: zutil.h Pages: 1 -->
<svg width="554pt" height="140pt"
 viewBox="0.00 0.00 553.50 140.00" xmlns="http://www.w3.org/2000/svg" xmlns:xlink="http://www.w3.org/1999/xlink">
<g id="graph0" class="graph" transform="scale(1 1) rotate(0) translate(4 136)">
<title>zutil.h</title>
<polygon fill="white" stroke="none" points="-4,4 -4,-136 549.5,-136 549.5,4 -4,4"/>
<!-- Node1 -->
<g id="node1" class="node"><title>Node1</title>
<polygon fill="#bfbfbf" stroke="black" points="256.5,-112.5 256.5,-131.5 299.5,-131.5 299.5,-112.5 256.5,-112.5"/>
<text text-anchor="middle" x="278" y="-119.5" font-family="Helvetica,sans-Serif" font-size="10.00">zutil.h</text>
</g>
<!-- Node2 -->
<g id="node2" class="node"><title>Node2</title>
<g id="a_node2"><a xlink:href="adler32_8c.html" target="_top" xlink:title="adler32.c">
<polygon fill="white" stroke="black" points="-3.55271e-15,-56.5 -3.55271e-15,-75.5 56,-75.5 56,-56.5 -3.55271e-15,-56.5"/>
<text text-anchor="middle" x="28" y="-63.5" font-family="Helvetica,sans-Serif" font-size="10.00">adler32.c</text>
</a>
</g>
</g>
<!-- Node1&#45;&gt;Node2 -->
<g id="edge1" class="edge"><title>Node1&#45;&gt;Node2</title>
<path fill="none" stroke="midnightblue" d="M246.246,-114.501C204.745,-105.953 129.829,-90.3309 66,-76 62.8248,-75.2871 59.5043,-74.5251 56.2047,-73.7575"/>
<polygon fill="midnightblue" stroke="midnightblue" points="245.795,-117.982 256.295,-116.568 247.205,-111.125 245.795,-117.982"/>
</g>
<!-- Node3 -->
<g id="node3" class="node"><title>Node3</title>
<g id="a_node3"><a xlink:href="crc32_8c.html" target="_top" xlink:title="crc32.c">
<polygon fill="white" stroke="black" points="74.5,-56.5 74.5,-75.5 123.5,-75.5 123.5,-56.5 74.5,-56.5"/>
<text text-anchor="middle" x="99" y="-63.5" font-family="Helvetica,sans-Serif" font-size="10.00">crc32.c</text>
</a>
</g>
</g>
<!-- Node1&#45;&gt;Node3 -->
<g id="edge2" class="edge"><title>Node1&#45;&gt;Node3</title>
<path fill="none" stroke="midnightblue" d="M246.685,-111.553C211.628,-100.977 155.552,-84.0603 123.531,-74.4005"/>
<polygon fill="midnightblue" stroke="midnightblue" points="245.824,-114.949 256.408,-114.486 247.845,-108.247 245.824,-114.949"/>
</g>
<!-- Node4 -->
<g id="node4" class="node"><title>Node4</title>
<g id="a_node4"><a xlink:href="deflate_8h.html" target="_top" xlink:title="deflate.h">
<polygon fill="white" stroke="black" points="142,-56.5 142,-75.5 196,-75.5 196,-56.5 142,-56.5"/>
<text text-anchor="middle" x="169" y="-63.5" font-family="Helvetica,sans-Serif" font-size="10.00">deflate.h</text>
</a>
</g>
</g>
<!-- Node1&#45;&gt;Node4 -->
<g id="edge3" class="edge"><title>Node1&#45;&gt;Node4</title>
<path fill="none" stroke="midnightblue" d="M251.481,-107.862C231.27,-97.8492 204.013,-84.3458 186.469,-75.6545"/>
<polygon fill="midnightblue" stroke="midnightblue" points="249.973,-111.021 260.487,-112.324 253.08,-104.748 249.973,-111.021"/>
</g>
<!-- Node7 -->
<g id="node7" class="node"><title>Node7</title>
<g id="a_node7"><a xlink:href="infback_8c.html" target="_top" xlink:title="infback.c">
<polygon fill="white" stroke="black" points="214,-56.5 214,-75.5 270,-75.5 270,-56.5 214,-56.5"/>
<text text-anchor="middle" x="242" y="-63.5" font-family="Helvetica,sans-Serif" font-size="10.00">infback.c</text>
</a>
</g>
</g>
<!-- Node1&#45;&gt;Node7 -->
<g id="edge6" class="edge"><title>Node1&#45;&gt;Node7</title>
<path fill="none" stroke="midnightblue" d="M266.377,-103.566C260.183,-94.2747 252.832,-83.2484 247.834,-75.7511"/>
<polygon fill="midnightblue" stroke="midnightblue" points="263.596,-105.704 272.055,-112.083 269.42,-101.821 263.596,-105.704"/>
</g>
<!-- Node8 -->
<g id="node8" class="node"><title>Node8</title>
<g id="a_node8"><a xlink:href="inffast_8c.html" target="_top" xlink:title="inffast.c">
<polygon fill="white" stroke="black" points="288,-56.5 288,-75.5 340,-75.5 340,-56.5 288,-56.5"/>
<text text-anchor="middle" x="314" y="-63.5" font-family="Helvetica,sans-Serif" font-size="10.00">inffast.c</text>
</a>
</g>
</g>
<!-- Node1&#45;&gt;Node8 -->
<g id="edge7" class="edge"><title>Node1&#45;&gt;Node8</title>
<path fill="none" stroke="midnightblue" d="M289.623,-103.566C295.817,-94.2747 303.168,-83.2484 308.166,-75.7511"/>
<polygon fill="midnightblue" stroke="midnightblue" points="286.58,-101.821 283.945,-112.083 292.404,-105.704 286.58,-101.821"/>
</g>
<!-- Node9 -->
<g id="node9" class="node"><title>Node9</title>
<g id="a_node9"><a xlink:href="inflate_8c.html" target="_top" xlink:title="inflate.c">
<polygon fill="white" stroke="black" points="358.5,-56.5 358.5,-75.5 409.5,-75.5 409.5,-56.5 358.5,-56.5"/>
<text text-anchor="middle" x="384" y="-63.5" font-family="Helvetica,sans-Serif" font-size="10.00">inflate.c</text>
</a>
</g>
</g>
<!-- Node1&#45;&gt;Node9 -->
<g id="edge8" class="edge"><title>Node1&#45;&gt;Node9</title>
<path fill="none" stroke="midnightblue" d="M304.056,-107.726C323.684,-97.7271 350.028,-84.3065 367.012,-75.6545"/>
<polygon fill="midnightblue" stroke="midnightblue" points="302.352,-104.666 295.031,-112.324 305.53,-110.903 302.352,-104.666"/>
</g>
<!-- Node10 -->
<g id="node10" class="node"><title>Node10</title>
<g id="a_node10"><a xlink:href="inftrees_8c.html" target="_top" xlink:title="inftrees.c">
<polygon fill="white" stroke="black" points="427.5,-56.5 427.5,-75.5 484.5,-75.5 484.5,-56.5 427.5,-56.5"/>
<text text-anchor="middle" x="456" y="-63.5" font-family="Helvetica,sans-Serif" font-size="10.00">inftrees.c</text>
</a>
</g>
</g>
<!-- Node1&#45;&gt;Node10 -->
<g id="edge9" class="edge"><title>Node1&#45;&gt;Node10</title>
<path fill="none" stroke="midnightblue" d="M309.583,-111.419C343.125,-101.243 395.652,-85.3078 427.832,-75.5453"/>
<polygon fill="midnightblue" stroke="midnightblue" points="308.38,-108.126 299.826,-114.379 310.412,-114.825 308.38,-108.126"/>
</g>
<!-- Node11 -->
<g id="node11" class="node"><title>Node11</title>
<g id="a_node11"><a xlink:href="zutil_8c.html" target="_top" xlink:title="zutil.c">
<polygon fill="white" stroke="black" points="502.5,-56.5 502.5,-75.5 545.5,-75.5 545.5,-56.5 502.5,-56.5"/>
<text text-anchor="middle" x="524" y="-63.5" font-family="Helvetica,sans-Serif" font-size="10.00">zutil.c</text>
</a>
</g>
</g>
<!-- Node1&#45;&gt;Node11 -->
<g id="edge10" class="edge"><title>Node1&#45;&gt;Node11</title>
<path fill="none" stroke="midnightblue" d="M309.561,-115.307C351.808,-107.485 428.966,-92.497 494,-76 496.741,-75.3048 499.606,-74.5206 502.432,-73.7124"/>
<polygon fill="midnightblue" stroke="midnightblue" points="308.804,-111.887 299.601,-117.137 310.069,-118.772 308.804,-111.887"/>
</g>
<!-- Node5 -->
<g id="node5" class="node"><title>Node5</title>
<g id="a_node5"><a xlink:href="deflate_8c.html" target="_top" xlink:title="deflate.c">
<polygon fill="white" stroke="black" points="107,-0.5 107,-19.5 161,-19.5 161,-0.5 107,-0.5"/>
<text text-anchor="middle" x="134" y="-7.5" font-family="Helvetica,sans-Serif" font-size="10.00">deflate.c</text>
</a>
</g>
</g>
<!-- Node4&#45;&gt;Node5 -->
<g id="edge4" class="edge"><title>Node4&#45;&gt;Node5</title>
<path fill="none" stroke="midnightblue" d="M157.7,-47.5656C151.678,-38.2747 144.531,-27.2484 139.672,-19.7511"/>
<polygon fill="midnightblue" stroke="midnightblue" points="154.844,-49.5951 163.22,-56.083 160.719,-45.7878 154.844,-49.5951"/>
</g>
<!-- Node6 -->
<g id="node6" class="node"><title>Node6</title>
<g id="a_node6"><a xlink:href="trees_8c.html" target="_top" xlink:title="trees.c">
<polygon fill="white" stroke="black" points="179.5,-0.5 179.5,-19.5 226.5,-19.5 226.5,-0.5 179.5,-0.5"/>
<text text-anchor="middle" x="203" y="-7.5" font-family="Helvetica,sans-Serif" font-size="10.00">trees.c</text>
</a>
</g>
</g>
<!-- Node4&#45;&gt;Node6 -->
<g id="edge5" class="edge"><title>Node4&#45;&gt;Node6</title>
<path fill="none" stroke="midnightblue" d="M179.977,-47.5656C185.827,-38.2747 192.77,-27.2484 197.49,-19.7511"/>
<polygon fill="midnightblue" stroke="midnightblue" points="176.981,-45.7558 174.614,-56.083 182.904,-49.4855 176.981,-45.7558"/>
</g>
</g>
</svg>
