<?xml version="1.0" encoding="UTF-8" standalone="no"?>
<!DOCTYPE svg PUBLIC "-//W3C//DTD SVG 1.1//EN"
 "http://www.w3.org/Graphics/SVG/1.1/DTD/svg11.dtd">
<!-- Generated by graphviz version 2.38.0 (20140413.2041)
 -->
<!-- Title: zutil.c Pages: 1 -->
<svg width="312pt" height="252pt"
 viewBox="0.00 0.00 311.50 252.00" xmlns="http://www.w3.org/2000/svg" xmlns:xlink="http://www.w3.org/1999/xlink">
<g id="graph0" class="graph" transform="scale(1 1) rotate(0) translate(4 248)">
<title>zutil.c</title>
<polygon fill="white" stroke="none" points="-4,4 -4,-248 307.5,-248 307.5,4 -4,4"/>
<!-- Node1 -->
<g id="node1" class="node"><title>Node1</title>
<polygon fill="#bfbfbf" stroke="black" points="97.5,-224.5 97.5,-243.5 140.5,-243.5 140.5,-224.5 97.5,-224.5"/>
<text text-anchor="middle" x="119" y="-231.5" font-family="Helvetica,sans-Serif" font-size="10.00">zutil.c</text>
</g>
<!-- Node2 -->
<g id="node2" class="node"><title>Node2</title>
<g id="a_node2"><a xlink:href="zutil_8h.html" target="_top" xlink:title="zutil.h">
<polygon fill="white" stroke="black" points="51.5,-168.5 51.5,-187.5 94.5,-187.5 94.5,-168.5 51.5,-168.5"/>
<text text-anchor="middle" x="73" y="-175.5" font-family="Helvetica,sans-Serif" font-size="10.00">zutil.h</text>
</a>
</g>
</g>
<!-- Node1&#45;&gt;Node2 -->
<g id="edge1" class="edge"><title>Node1&#45;&gt;Node2</title>
<path fill="none" stroke="midnightblue" d="M111.404,-224.083C104.773,-216.298 94.979,-204.801 86.9419,-195.367"/>
<polygon fill="midnightblue" stroke="midnightblue" points="89.6037,-193.094 80.4546,-187.751 84.275,-197.633 89.6037,-193.094"/>
</g>
<!-- Node7 -->
<g id="node7" class="node"><title>Node7</title>
<g id="a_node7"><a xlink:href="gzguts_8h.html" target="_top" xlink:title="gzguts.h">
<polygon fill="white" stroke="black" points="126,-168.5 126,-187.5 180,-187.5 180,-168.5 126,-168.5"/>
<text text-anchor="middle" x="153" y="-175.5" font-family="Helvetica,sans-Serif" font-size="10.00">gzguts.h</text>
</a>
</g>
</g>
<!-- Node1&#45;&gt;Node7 -->
<g id="edge6" class="edge"><title>Node1&#45;&gt;Node7</title>
<path fill="none" stroke="midnightblue" d="M124.614,-224.083C129.367,-216.534 136.318,-205.495 142.152,-196.23"/>
<polygon fill="midnightblue" stroke="midnightblue" points="145.124,-198.078 147.49,-187.751 139.2,-194.349 145.124,-198.078"/>
</g>
<!-- Node3 -->
<g id="node3" class="node"><title>Node3</title>
<g id="a_node3"><a xlink:href="zlib_8h.html" target="_top" xlink:title="thirdparty/zlib/zlib.h">
<polygon fill="white" stroke="black" points="10.5,-112.5 10.5,-131.5 111.5,-131.5 111.5,-112.5 10.5,-112.5"/>
<text text-anchor="middle" x="61" y="-119.5" font-family="Helvetica,sans-Serif" font-size="10.00">thirdparty/zlib/zlib.h</text>
</a>
</g>
</g>
<!-- Node2&#45;&gt;Node3 -->
<g id="edge2" class="edge"><title>Node2&#45;&gt;Node3</title>
<path fill="none" stroke="midnightblue" d="M71.0184,-168.083C69.4283,-160.927 67.1412,-150.635 65.1536,-141.691"/>
<polygon fill="midnightblue" stroke="midnightblue" points="68.5307,-140.754 62.9447,-131.751 61.6974,-142.272 68.5307,-140.754"/>
</g>
<!-- Node4 -->
<g id="node4" class="node"><title>Node4</title>
<g id="a_node4"><a xlink:href="zconf_8h.html" target="_top" xlink:title="zconf.h">
<polygon fill="white" stroke="black" points="36.5,-56.5 36.5,-75.5 85.5,-75.5 85.5,-56.5 36.5,-56.5"/>
<text text-anchor="middle" x="61" y="-63.5" font-family="Helvetica,sans-Serif" font-size="10.00">zconf.h</text>
</a>
</g>
</g>
<!-- Node3&#45;&gt;Node4 -->
<g id="edge3" class="edge"><title>Node3&#45;&gt;Node4</title>
<path fill="none" stroke="midnightblue" d="M61,-112.083C61,-105.006 61,-94.8611 61,-85.9865"/>
<polygon fill="midnightblue" stroke="midnightblue" points="64.5001,-85.751 61,-75.7511 57.5001,-85.7511 64.5001,-85.751"/>
</g>
<!-- Node5 -->
<g id="node5" class="node"><title>Node5</title>
<polygon fill="white" stroke="#bfbfbf" points="0,-0.5 0,-19.5 52,-19.5 52,-0.5 0,-0.5"/>
<text text-anchor="middle" x="26" y="-7.5" font-family="Helvetica,sans-Serif" font-size="10.00">stdarg.h</text>
</g>
<!-- Node4&#45;&gt;Node5 -->
<g id="edge4" class="edge"><title>Node4&#45;&gt;Node5</title>
<path fill="none" stroke="midnightblue" d="M55.2205,-56.083C50.3276,-48.5341 43.1726,-37.4948 37.1674,-28.2298"/>
<polygon fill="midnightblue" stroke="midnightblue" points="40.048,-26.239 31.672,-19.7511 34.174,-30.0463 40.048,-26.239"/>
</g>
<!-- Node6 -->
<g id="node6" class="node"><title>Node6</title>
<polygon fill="white" stroke="#bfbfbf" points="70.5,-0.5 70.5,-19.5 121.5,-19.5 121.5,-0.5 70.5,-0.5"/>
<text text-anchor="middle" x="96" y="-7.5" font-family="Helvetica,sans-Serif" font-size="10.00">unistd.h</text>
</g>
<!-- Node4&#45;&gt;Node6 -->
<g id="edge5" class="edge"><title>Node4&#45;&gt;Node6</title>
<path fill="none" stroke="midnightblue" d="M66.7795,-56.083C71.6724,-48.5341 78.8274,-37.4948 84.8326,-28.2298"/>
<polygon fill="midnightblue" stroke="midnightblue" points="87.826,-30.0463 90.328,-19.7511 81.952,-26.239 87.826,-30.0463"/>
</g>
<!-- Node7&#45;&gt;Node3 -->
<g id="edge8" class="edge"><title>Node7&#45;&gt;Node3</title>
<path fill="none" stroke="midnightblue" d="M138.219,-168.324C123.733,-159.822 101.427,-146.729 84.5068,-136.797"/>
<polygon fill="midnightblue" stroke="midnightblue" points="86.1406,-133.698 75.7447,-131.655 82.5972,-139.735 86.1406,-133.698"/>
</g>
<!-- Node8 -->
<g id="node8" class="node"><title>Node8</title>
<polygon fill="white" stroke="#bfbfbf" points="130,-112.5 130,-131.5 176,-131.5 176,-112.5 130,-112.5"/>
<text text-anchor="middle" x="153" y="-119.5" font-family="Helvetica,sans-Serif" font-size="10.00">stdio.h</text>
</g>
<!-- Node7&#45;&gt;Node8 -->
<g id="edge7" class="edge"><title>Node7&#45;&gt;Node8</title>
<path fill="none" stroke="midnightblue" d="M153,-168.083C153,-161.006 153,-150.861 153,-141.986"/>
<polygon fill="midnightblue" stroke="midnightblue" points="156.5,-141.751 153,-131.751 149.5,-141.751 156.5,-141.751"/>
</g>
<!-- Node9 -->
<g id="node9" class="node"><title>Node9</title>
<polygon fill="white" stroke="#bfbfbf" points="194,-112.5 194,-131.5 238,-131.5 238,-112.5 194,-112.5"/>
<text text-anchor="middle" x="216" y="-119.5" font-family="Helvetica,sans-Serif" font-size="10.00">fcntl.h</text>
</g>
<!-- Node7&#45;&gt;Node9 -->
<g id="edge9" class="edge"><title>Node7&#45;&gt;Node9</title>
<path fill="none" stroke="midnightblue" d="M163.122,-168.324C172.526,-160.263 186.744,-148.077 198.069,-138.369"/>
<polygon fill="midnightblue" stroke="midnightblue" points="200.379,-140.999 205.694,-131.834 195.823,-135.684 200.379,-140.999"/>
</g>
<!-- Node10 -->
<g id="node10" class="node"><title>Node10</title>
<polygon fill="white" stroke="#bfbfbf" points="256.5,-112.5 256.5,-131.5 303.5,-131.5 303.5,-112.5 256.5,-112.5"/>
<text text-anchor="middle" x="280" y="-119.5" font-family="Helvetica,sans-Serif" font-size="10.00">errno.h</text>
</g>
<!-- Node7&#45;&gt;Node10 -->
<g id="edge10" class="edge"><title>Node7&#45;&gt;Node10</title>
<path fill="none" stroke="midnightblue" d="M173.124,-168.444C194.024,-159.557 226.935,-145.563 250.716,-135.451"/>
<polygon fill="midnightblue" stroke="midnightblue" points="252.138,-138.65 259.971,-131.516 249.398,-132.208 252.138,-138.65"/>
</g>
</g>
</svg>
